v -0.104592 0.017169 0.008102
v -0.131057 0.016782 0.008890
v -0.104595 0.016757 0.008879
v -0.104595 0.016709 0.008961
v -0.104595 0.015814 0.010423
v -0.104595 0.015783 0.010471
v -0.104595 0.015184 0.011382
v -0.104595 0.014394 0.012330
v -0.104595 0.014347 0.012386
v -0.104595 0.013445 0.013431
v -0.104595 0.012316 0.014421
v -0.104595 0.011414 0.015190
v -0.104595 0.010434 0.015819
v -0.104595 0.008903 0.016741
v -0.104595 0.008855 0.016767
v -0.104595 0.007956 0.017247
v -0.104595 0.006644 0.017768
v -0.104595 0.004746 0.018352
v -0.104595 0.004650 0.018374
v -0.104595 0.002850 0.018749
v -0.104595 0.002760 0.018761
v -0.104595 0.001101 0.018928
v -0.104595 0.000154 0.018965
v -0.104592 -0.002161 0.008102
v -0.104592 0.017258 0.007931
v -0.129157 0.017175 0.008102
v -0.129483 0.017175 0.008102
v -0.132958 0.016782 0.008879
v -0.132958 0.015845 0.010423
v -0.131057 0.015845 0.010423
v -0.131057 0.015192 0.011389
v -0.129160 0.014394 0.012334
v -0.129160 0.013443 0.013435
v -0.129160 0.012361 0.014383
v -0.127263 0.011414 0.015190
v -0.129160 0.010434 0.015826
v -0.131057 0.008903 0.016756
v -0.129160 0.007960 0.017251
v -0.129160 0.006644 0.017771
v -0.131057 0.004746 0.018378
v -0.131057 0.002850 0.018764
v -0.131057 0.001355 0.018924
v -0.131057 0.000406 0.018991
v -0.104595 -0.000240 0.018965
v -0.104595 -0.001142 0.018939
v -0.104595 -0.002161 0.018824
v -0.104592 -0.002161 -0.018817
v -0.104592 0.017743 0.006692
v -0.129157 0.017774 0.006625
v -0.129157 0.017254 0.007938
v -0.131383 0.017167 0.008102
v -0.133918 0.015186 0.011386
v -0.132951 0.017155 0.008102
v -0.134055 0.017186 0.007812
v -0.132958 0.015192 0.011389
v -0.132958 0.014372 0.012338
v -0.131057 0.013433 0.013424
v -0.132958 0.012343 0.014361
v -0.133915 0.011392 0.015172
v -0.129160 0.011412 0.015190
v -0.132958 0.010434 0.015819
v -0.132958 0.008890 0.016756
v -0.131057 0.007956 0.017243
v -0.132958 0.006644 0.017757
v -0.132958 0.004746 0.018359
v -0.132958 0.002850 0.018731
v -0.132958 0.001333 0.018909
v -0.132958 0.000384 0.018991
v -0.131057 -0.000447 0.018991
v -0.129160 -0.001287 0.018935
v -0.131057 -0.001394 0.018928
v -0.131057 -0.002161 0.018835
v -0.129946 -0.002161 -0.018820
v -0.131054 -0.001191 -0.018932
v -0.104592 -0.000947 -0.018932
v -0.104592 0.017768 0.006625
v -0.131054 0.018375 0.004729
v -0.131054 0.017772 0.006625
v -0.131054 0.017246 0.007938
v -0.132951 0.017240 0.007923
v -0.134017 0.013375 0.013364
v -0.132958 0.013420 0.013413
v -0.139658 0.009549 0.015228
v -0.132951 0.017764 0.006625
v -0.132951 0.018355 0.004729
v -0.139690 0.017169 0.001977
v -0.134076 0.007827 0.017176
v -0.132958 0.007945 0.017236
v -0.139841 0.008536 0.015410
v -0.133940 0.000255 0.018980
v -0.132958 -0.000410 0.018991
v -0.132958 -0.001359 0.018917
v -0.132958 -0.002161 0.018809
v -0.131054 -0.002161 -0.018820
v -0.132951 -0.000240 -0.019003
v -0.131054 -0.000242 -0.019003
v -0.132951 -0.001189 -0.018925
v -0.104592 0.000949 -0.018943
v -0.104592 0.018338 0.004822
v -0.104592 0.018367 0.004729
v -0.104592 0.018738 0.002929
v -0.127260 0.018757 0.002832
v -0.131054 0.018750 0.002832
v -0.139855 0.009759 0.014216
v -0.140314 0.008536 0.014216
v -0.132951 0.018728 0.002832
v -0.133950 0.018997 0.000258
v -0.138645 0.017733 0.000932
v -0.139879 0.017372 0.000932
v -0.139837 0.006644 0.015410
v -0.133940 -0.000273 0.018980
v -0.140317 0.006644 0.014216
v -0.133775 -0.002161 0.018355
v -0.131839 -0.002161 -0.018817
v -0.132951 0.000224 -0.019003
v -0.133922 -0.000159 -0.018991
v -0.131054 0.000255 -0.019003
v -0.132951 -0.002161 -0.018798
v -0.131054 0.001202 -0.018936
v -0.131054 0.002848 -0.018768
v -0.104592 0.002848 -0.018746
v -0.104592 0.018757 0.002832
v -0.131054 0.018924 0.001341
v -0.132951 0.018922 0.001341
v -0.140356 0.016125 0.000932
v -0.140398 0.008536 0.012323
v -0.140405 0.006644 0.012323
v -0.132951 0.019009 0.000396
v -0.133950 0.018997 -0.000285
v -0.138645 0.017716 -0.000961
v -0.139876 0.017366 -0.000961
v -0.139655 0.005635 0.015224
v -0.134437 -0.002161 0.017983
v -0.139858 0.005415 0.014216
v -0.133922 0.000149 -0.018991
v -0.132951 0.001173 -0.018917
v -0.133442 -0.002161 -0.018534
v -0.134434 -0.002161 -0.017987
v -0.139837 0.006644 -0.015425
v -0.132951 0.002848 -0.018727
v -0.132951 0.004746 -0.018355
v -0.131054 0.004746 -0.018382
v -0.104592 0.004746 -0.018363
v -0.104592 0.018914 0.001229
v -0.104592 0.018922 0.001140
v -0.131054 0.019009 0.000396
v -0.140349 0.016125 -0.000961
v -0.140405 0.008536 -0.012342
v -0.140374 0.014229 0.000932
v -0.139914 0.005357 0.012323
v -0.140412 0.006644 -0.012342
v -0.132951 0.019009 -0.000415
v -0.132951 0.018920 -0.001367
v -0.132951 0.018723 -0.002858
v -0.132951 0.018348 -0.004755
v -0.139686 0.017163 -0.001999
v -0.139848 0.009752 -0.014239
v -0.134806 -0.002161 0.016849
v -0.135040 -0.002161 0.016116
v -0.136994 -0.002159 0.003516
v -0.136843 -0.002159 0.004729
v -0.139827 0.008536 -0.015417
v -0.134672 -0.002161 -0.017251
v -0.139658 0.005631 -0.015246
v -0.140314 0.006644 -0.014239
v -0.140303 0.008536 -0.014239
v -0.139641 0.009533 -0.015235
v -0.134062 0.007811 -0.017191
v -0.132951 0.006644 -0.017753
v -0.129157 0.006644 -0.017768
v -0.104592 0.006644 -0.017764
v -0.104592 0.004841 -0.018333
v -0.104592 0.018989 0.000191
v -0.131054 0.019009 -0.000415
v -0.137039 -0.002159 0.001616
v -0.137018 -0.002159 0.002832
v -0.139858 0.005419 -0.014239
v -0.139918 0.005361 -0.012342
v -0.137039 -0.002159 -0.000961
v -0.131054 0.018924 -0.001367
v -0.131054 0.018746 -0.002858
v -0.131054 0.018369 -0.004755
v -0.132951 0.017756 -0.006648
v -0.134052 0.017182 -0.007823
v -0.135174 -0.002161 0.008102
v -0.135026 -0.002161 -0.016139
v -0.132951 0.011379 -0.015187
v -0.132951 0.010432 -0.015823
v -0.132951 0.008865 -0.016775
v -0.133908 0.015182 -0.011397
v -0.134006 0.013364 -0.013379
v -0.132951 0.007927 -0.017247
v -0.131054 0.007927 -0.017247
v -0.104592 0.007916 -0.017232
v -0.104592 0.018989 -0.000233
v -0.104592 0.018927 -0.001181
v -0.136839 -0.002159 -0.004751
v -0.137015 -0.002159 -0.002858
v -0.104592 0.018740 -0.002858
v -0.104592 0.018361 -0.004755
v -0.104592 0.017783 -0.006555
v -0.131054 0.017756 -0.006648
v -0.132951 0.017233 -0.007938
v -0.132951 0.016773 -0.008887
v -0.132951 0.012330 -0.014369
v -0.129157 0.011394 -0.015194
v -0.129157 0.010434 -0.015834
v -0.131054 0.008870 -0.016775
v -0.131054 0.014363 -0.012349
v -0.132951 0.014359 -0.012349
v -0.132951 0.013412 -0.013424
v -0.132951 0.015830 -0.010441
v -0.131054 0.015182 -0.011397
v -0.104592 0.008863 -0.016775
v -0.104592 0.017752 -0.006648
v -0.131054 0.017233 -0.007938
v -0.131054 0.016773 -0.008887
v -0.127260 0.011396 -0.015194
v -0.104592 0.010434 -0.015834
v -0.104592 0.014353 -0.012342
v -0.104592 0.013456 -0.013361
v -0.131054 0.013414 -0.013424
v -0.131054 0.015830 -0.010441
v -0.104592 0.015822 -0.010438
v -0.104592 0.015174 -0.011382
v -0.104592 0.017227 -0.007927
v -0.104592 0.016771 -0.008876
v -0.104592 0.012399 -0.014317
v -0.104592 0.011396 -0.015194
v -0.104592 0.013406 -0.013409
f 45 46 24
f 138 139 116
f 139 165 166
f 177 178 151
f 151 165 177
f 151 178 179
f 44 45 24
f 31 7 30
f 1 19 20
f 1 9 10
f 135 116 139
f 147 166 148
f 125 147 148
f 148 165 151
f 148 166 165
f 148 149 125
f 164 139 138
f 164 165 139
f 164 177 165
f 46 45 71
f 111 133 113
f 113 93 111
f 150 134 127
f 151 150 127
f 7 31 8
f 8 9 1
f 1 7 8
f 84 54 80
f 54 53 80
f 80 79 84
f 43 23 22
f 22 23 1
f 1 16 17
f 40 20 19
f 40 17 39
f 32 10 9
f 9 8 32
f 32 8 31
f 81 59 82
f 82 52 81
f 38 17 16
f 39 17 38
f 138 116 137
f 116 118 137
f 46 71 72
f 91 71 69
f 45 44 69
f 92 71 91
f 91 111 92
f 111 93 92
f 93 72 92
f 92 72 71
f 186 185 179
f 186 197 177
f 177 164 186
f 177 197 198
f 178 177 198
f 198 179 178
f 198 186 179
f 197 186 198
f 134 161 159
f 5 4 30
f 1 4 5
f 55 29 52
f 55 32 31
f 2 29 30
f 30 4 2
f 28 53 54
f 54 52 28
f 52 29 28
f 29 2 28
f 25 2 1
f 77 49 76
f 182 202 183
f 215 216 202
f 43 22 42
f 42 68 43
f 67 68 42
f 90 89 111
f 90 67 66
f 66 65 90
f 90 65 89
f 90 68 67
f 110 133 111
f 111 89 110
f 20 40 41
f 41 65 66
f 40 65 41
f 66 67 41
f 67 42 41
f 18 40 19
f 17 40 18
f 18 19 1
f 1 17 18
f 11 34 12
f 10 34 11
f 11 12 1
f 1 10 11
f 33 34 10
f 10 32 33
f 32 55 33
f 58 82 59
f 59 34 58
f 34 33 58
f 63 62 88
f 63 38 62
f 15 16 1
f 1 14 15
f 60 34 59
f 59 62 61
f 61 60 59
f 36 60 61
f 12 36 13
f 1 12 13
f 13 14 1
f 37 15 14
f 37 61 62
f 36 61 37
f 14 13 37
f 37 13 36
f 16 15 37
f 37 38 16
f 62 38 37
f 136 135 140
f 135 136 115
f 115 136 119
f 98 75 96
f 95 96 74
f 74 75 47
f 74 96 75
f 70 71 45
f 45 69 70
f 70 69 71
f 163 164 138
f 163 186 164
f 134 159 158
f 185 159 175
f 179 185 175
f 175 150 151
f 151 179 175
f 30 7 6
f 6 5 30
f 6 7 1
f 1 5 6
f 3 4 1
f 1 2 3
f 3 2 4
f 53 28 51
f 51 80 53
f 79 80 51
f 76 49 48
f 49 25 48
f 84 77 85
f 86 54 85
f 85 54 84
f 78 77 84
f 49 77 78
f 84 79 78
f 101 77 100
f 103 85 77
f 100 77 99
f 99 77 76
f 199 200 182
f 217 216 227
f 204 184 203
f 203 184 183
f 227 216 226
f 216 215 226
f 182 200 201
f 201 202 182
f 201 215 202
f 21 42 22
f 1 20 21
f 21 22 1
f 20 41 21
f 21 41 42
f 88 62 87
f 87 62 59
f 133 110 132
f 132 158 133
f 134 158 132
f 112 127 134
f 134 132 112
f 112 132 110
f 112 110 89
f 56 55 52
f 56 33 55
f 52 82 56
f 82 58 57
f 57 58 33
f 57 56 82
f 33 56 57
f 35 36 12
f 35 60 36
f 12 34 35
f 34 60 35
f 120 136 140
f 119 136 120
f 120 121 98
f 98 119 120
f 143 121 120
f 120 142 143
f 98 96 117
f 117 119 98
f 117 115 119
f 95 74 97
f 116 95 97
f 97 118 116
f 74 94 97
f 172 142 171
f 143 142 172
f 156 184 167
f 209 221 222
f 190 184 204
f 213 209 190
f 191 167 190
f 190 167 184
f 160 159 161
f 160 161 134
f 160 134 150
f 27 28 2
f 27 51 28
f 106 103 124
f 85 103 106
f 181 199 182
f 131 147 125
f 88 87 64
f 64 87 65
f 64 63 88
f 64 40 39
f 64 65 40
f 39 38 64
f 38 63 64
f 89 65 83
f 65 87 83
f 83 87 59
f 83 59 81
f 81 52 83
f 86 104 83
f 83 54 86
f 83 52 54
f 125 149 126
f 149 148 126
f 73 74 47
f 73 94 74
f 118 97 114
f 114 97 94
f 162 135 139
f 139 166 162
f 166 167 162
f 188 189 167
f 222 221 230
f 230 228 222
f 224 225 213
f 221 209 220
f 213 225 220
f 220 209 213
f 191 190 211
f 211 209 222
f 176 175 159
f 159 160 176
f 150 175 176
f 176 160 150
f 2 25 26
f 26 27 2
f 25 27 26
f 50 27 25
f 50 25 49
f 79 51 50
f 51 27 50
f 50 78 79
f 49 78 50
f 144 123 122
f 145 123 144
f 122 123 102
f 102 101 122
f 124 103 102
f 102 123 124
f 77 101 102
f 102 103 77
f 146 123 145
f 86 85 108
f 180 196 199
f 199 181 180
f 156 167 157
f 157 131 156
f 157 167 166
f 157 166 147
f 147 131 157
f 105 104 125
f 125 126 105
f 89 83 105
f 105 83 104
f 105 112 89
f 105 126 127
f 127 112 105
f 219 214 208
f 141 169 142
f 141 120 140
f 142 120 141
f 141 162 167
f 140 135 141
f 135 162 141
f 219 208 207
f 189 188 207
f 207 208 189
f 212 190 204
f 210 190 209
f 209 211 210
f 210 211 190
f 187 167 191
f 187 188 167
f 173 146 145
f 195 196 174
f 174 180 152
f 196 180 174
f 124 123 128
f 123 146 128
f 86 108 109
f 109 108 131
f 109 131 125
f 109 104 86
f 125 104 109
f 130 108 129
f 131 108 130
f 156 131 130
f 152 180 153
f 153 129 152
f 153 154 129
f 181 154 153
f 153 180 181
f 193 208 214
f 168 141 167
f 169 141 168
f 167 189 168
f 223 224 213
f 227 224 223
f 223 217 227
f 206 207 188
f 188 187 206
f 124 128 107
f 107 106 124
f 129 108 107
f 85 106 107
f 107 108 85
f 129 154 155
f 155 130 129
f 183 184 155
f 155 184 156
f 156 130 155
f 182 183 155
f 155 181 182
f 155 154 181
f 171 193 194
f 194 193 214
f 170 193 171
f 171 142 170
f 142 169 170
f 207 206 218
f 218 228 229
f 222 228 218
f 211 206 205
f 205 206 187
f 191 211 205
f 205 187 191
f 192 170 169
f 193 170 192
f 192 168 189
f 169 168 192
f 189 208 192
f 208 193 192
f 44 24 1
f 1 23 44
f 69 44 23
f 69 23 43
f 30 29 55
f 55 31 30
f 68 69 43
f 91 69 68
f 91 68 90
f 90 111 91
f 115 95 116
f 116 135 115
f 216 217 203
f 203 217 204
f 202 216 203
f 203 183 202
f 95 115 117
f 117 96 95
f 151 127 126
f 126 148 151
f 114 47 24
f 24 46 114
f 138 137 114
f 114 113 133
f 46 72 114
f 133 158 114
f 93 113 114
f 114 163 138
f 114 137 118
f 114 72 93
f 185 186 114
f 114 159 185
f 186 163 114
f 114 158 159
f 114 73 47
f 94 73 114
f 174 173 195
f 146 173 174
f 146 174 128
f 128 174 152
f 190 212 223
f 213 190 223
f 204 217 223
f 223 212 204
f 107 128 152
f 152 129 107
f 24 47 194
f 1 24 194
f 194 75 98
f 76 48 194
f 194 214 219
f 194 230 221
f 194 25 1
f 47 75 194
f 194 196 195
f 194 101 100
f 100 99 194
f 194 201 200
f 98 121 194
f 219 229 194
f 194 144 122
f 227 226 194
f 194 121 143
f 194 172 171
f 194 48 25
f 221 220 194
f 122 101 194
f 194 99 76
f 200 199 194
f 194 226 215
f 215 201 194
f 143 172 194
f 229 228 194
f 194 224 227
f 199 196 194
f 195 173 194
f 228 230 194
f 225 224 194
f 194 220 225
f 145 144 194
f 194 173 145
f 218 229 219
f 219 207 218
f 218 206 211
f 218 211 222
