v -0.085143 -0.030668 0.049253
v -0.086608 -0.030668 0.049213
v -0.085143 -0.031891 0.049210
v -0.083676 -0.031891 0.049132
v -0.083676 -0.030668 0.049162
v -0.086608 -0.031891 0.049154
v -0.086810 -0.030668 0.049102
v -0.087802 -0.034825 0.048413
v -0.085143 -0.033363 0.049097
v -0.083676 -0.033363 0.049040
v -0.082211 -0.031891 0.048973
v -0.082211 -0.030668 0.049002
v -0.087770 -0.036292 0.048346
v -0.086608 -0.033363 0.049040
v -0.087823 -0.030668 0.048532
v -0.087821 -0.031891 0.048503
v -0.087815 -0.033363 0.048457
v -0.088283 -0.034825 0.047182
v -0.088250 -0.036292 0.047182
v -0.086608 -0.034825 0.048916
v -0.086608 -0.036292 0.048786
v -0.085143 -0.037759 0.048629
v -0.083676 -0.034825 0.048878
v -0.082211 -0.034825 0.048727
v -0.082211 -0.033363 0.048881
v -0.066834 -0.031295 0.047101
v -0.073917 -0.030668 0.047987
v -0.078056 -0.030668 0.048494
v -0.074031 -0.032795 0.047930
v -0.066834 -0.031891 0.047084
v -0.088176 -0.037759 0.047182
v -0.088058 -0.039226 0.047182
v -0.087695 -0.037759 0.048238
v -0.087903 -0.030668 0.048313
v -0.088298 -0.033363 0.047182
v -0.088306 -0.040689 0.045718
v -0.088287 -0.042155 0.045718
v -0.087577 -0.039226 0.048105
v -0.086608 -0.037759 0.048608
v -0.085143 -0.039226 0.048362
v -0.083676 -0.039226 0.048273
v -0.083676 -0.037759 0.048532
v -0.080744 -0.034825 0.048548
v -0.075357 -0.034367 0.047946
v -0.082211 -0.036292 0.048554
v -0.077783 -0.036317 0.048014
v -0.080744 -0.033363 0.048702
v -0.066834 -0.030668 0.047117
v -0.074876 -0.033312 0.047989
v -0.067555 -0.033363 0.047084
v -0.066834 -0.033363 0.046995
v -0.088203 -0.043622 0.045718
v -0.087806 -0.042155 0.047047
v -0.088304 -0.030668 0.047182
v -0.088304 -0.031891 0.047182
v -0.088306 -0.037759 0.045718
v -0.088306 -0.045089 0.044251
v -0.088290 -0.046552 0.044251
v -0.087453 -0.040365 0.047997
v -0.087722 -0.043622 0.046830
v -0.086608 -0.039226 0.048340
v -0.086608 -0.040550 0.048049
v -0.086608 -0.041285 0.047879
v -0.085143 -0.040504 0.048054
v -0.083676 -0.040331 0.048008
v -0.082634 -0.040113 0.047954
v -0.082171 -0.039310 0.048084
v -0.079788 -0.038616 0.047943
v -0.082211 -0.037759 0.048373
v -0.066834 -0.036334 0.046679
v -0.074380 -0.033774 0.047887
v -0.067555 -0.034825 0.046938
v -0.077278 -0.036826 0.047892
v -0.066834 -0.030668 0.042290
v -0.066834 -0.034825 0.046849
v -0.088012 -0.045089 0.045718
v -0.088178 -0.048019 0.044251
v -0.088174 -0.030668 0.045718
v -0.088294 -0.070610 0.021657
v -0.088304 -0.070009 0.023729
v -0.088306 -0.065609 0.029594
v -0.088306 -0.053882 0.039853
v -0.088302 -0.052411 0.041317
v -0.088300 -0.049486 0.042784
v -0.088203 -0.050952 0.042784
v -0.087531 -0.045089 0.046609
v -0.087386 -0.045917 0.046482
v -0.086608 -0.043622 0.047257
v -0.086608 -0.042155 0.047654
v -0.087699 -0.048019 0.045350
v -0.085143 -0.043622 0.047273
v -0.085143 -0.042155 0.047641
v -0.083676 -0.041063 0.047825
v -0.083676 -0.043622 0.047176
v -0.082211 -0.043622 0.047011
v -0.069890 -0.039877 0.046433
v -0.081656 -0.039861 0.047892
v -0.067095 -0.038293 0.046414
v -0.066834 -0.038171 0.046404
v -0.066834 -0.037919 0.046447
v -0.066834 -0.037486 0.046520
v -0.078810 -0.038259 0.047881
v -0.069020 -0.039629 0.046379
v -0.066834 -0.039188 0.046201
v -0.068072 -0.038621 0.046474
v -0.078251 -0.037280 0.047951
v -0.086608 -0.030668 0.044515
v -0.066834 -0.065508 0.021657
v -0.074884 -0.065663 0.021657
v -0.087722 -0.050952 0.043937
v -0.088094 -0.030668 0.045553
v -0.088210 -0.070009 0.021657
v -0.088264 -0.071472 0.021657
v -0.088235 -0.071472 0.022262
v -0.088216 -0.070009 0.025193
v -0.088279 -0.068542 0.026660
v -0.088304 -0.067075 0.028127
v -0.088262 -0.062679 0.033989
v -0.088306 -0.059745 0.035455
v -0.088306 -0.058283 0.036917
v -0.088304 -0.056816 0.038384
v -0.088233 -0.054819 0.040380
v -0.088172 -0.053882 0.041317
v -0.088266 -0.055349 0.039850
v -0.087840 -0.052482 0.042887
v -0.087514 -0.049061 0.045129
v -0.086608 -0.048019 0.045753
v -0.086608 -0.046758 0.046250
v -0.086608 -0.046022 0.046522
v -0.086608 -0.045089 0.046822
v -0.085143 -0.045089 0.046855
v -0.083676 -0.045089 0.046758
v -0.082354 -0.045119 0.046598
v -0.080744 -0.044652 0.046544
v -0.079754 -0.044454 0.046482
v -0.078777 -0.044240 0.046420
v -0.066834 -0.040689 0.045836
v -0.087693 -0.030668 0.044734
v -0.076351 -0.065970 0.021657
v -0.086608 -0.068370 0.021657
v -0.087705 -0.068731 0.021657
v -0.066834 -0.071270 0.021657
v -0.087691 -0.053882 0.042465
v -0.087535 -0.052045 0.043686
v -0.087915 -0.069169 0.021657
v -0.088136 -0.072077 0.021657
v -0.087735 -0.071228 0.025193
v -0.087831 -0.070072 0.026692
v -0.088052 -0.068542 0.028127
v -0.088187 -0.067075 0.029594
v -0.088235 -0.065609 0.031060
v -0.088250 -0.064146 0.032522
v -0.087846 -0.062742 0.035523
v -0.088252 -0.061212 0.035455
v -0.087844 -0.064205 0.034043
v -0.088218 -0.059745 0.036917
v -0.088176 -0.058283 0.038384
v -0.087922 -0.054819 0.041341
v -0.086608 -0.049998 0.044869
v -0.086608 -0.049267 0.045218
v -0.085143 -0.048019 0.045758
v -0.085143 -0.046783 0.046255
v -0.085143 -0.049309 0.045220
v -0.085143 -0.046052 0.046536
v -0.083676 -0.045921 0.046487
v -0.082941 -0.045820 0.046450
v -0.068119 -0.044417 0.045004
v -0.067141 -0.044202 0.044942
v -0.066834 -0.044127 0.044923
v -0.066834 -0.071178 0.021846
v -0.069020 -0.071274 0.022262
v -0.069020 -0.071568 0.021657
v -0.087754 -0.054819 0.041741
v -0.087611 -0.056559 0.040885
v -0.087491 -0.054823 0.042184
v -0.086608 -0.052970 0.043424
v -0.086608 -0.052239 0.043783
v -0.087785 -0.072930 0.021657
v -0.087548 -0.070934 0.026225
v -0.087674 -0.072926 0.022116
v -0.087573 -0.072430 0.023432
v -0.087644 -0.068488 0.029458
v -0.087770 -0.067088 0.031039
v -0.087821 -0.065651 0.032557
v -0.087594 -0.062301 0.036495
v -0.087810 -0.061233 0.036960
v -0.087609 -0.063755 0.035083
v -0.087749 -0.059712 0.038375
v -0.087695 -0.058283 0.039586
v -0.087785 -0.055324 0.041352
v -0.085143 -0.050040 0.044904
v -0.083676 -0.049944 0.044867
v -0.083676 -0.049212 0.045169
v -0.083676 -0.048019 0.045661
v -0.083676 -0.046653 0.046204
v -0.071358 -0.045770 0.044964
v -0.082354 -0.046409 0.046147
v -0.072335 -0.045938 0.045029
v -0.066834 -0.045034 0.044626
v -0.066834 -0.071014 0.022181
v -0.069020 -0.070820 0.023137
v -0.078537 -0.072207 0.023000
v -0.079279 -0.072661 0.022262
v -0.079250 -0.072947 0.021657
v -0.087493 -0.059199 0.039261
v -0.086608 -0.053882 0.042924
v -0.086608 -0.054966 0.042281
v -0.085143 -0.052978 0.043432
v -0.085143 -0.050952 0.044453
v -0.085143 -0.053882 0.042946
v -0.087619 -0.073241 0.021657
v -0.087415 -0.073510 0.021657
v -0.087203 -0.073607 0.021657
v -0.086854 -0.072178 0.024410
v -0.086608 -0.071047 0.026387
v -0.087361 -0.069290 0.028880
v -0.087508 -0.067962 0.030539
v -0.087573 -0.069551 0.028127
v -0.087571 -0.066605 0.032090
v -0.087592 -0.065188 0.033589
v -0.086608 -0.063213 0.036001
v -0.086608 -0.062477 0.036666
v -0.086608 -0.061662 0.037400
v -0.087550 -0.060758 0.037884
v -0.086608 -0.064692 0.034526
v -0.086608 -0.063961 0.035269
v -0.083676 -0.050952 0.044378
v -0.082211 -0.049738 0.044780
v -0.082211 -0.049002 0.045085
v -0.082211 -0.050952 0.044202
v -0.082211 -0.048019 0.045488
v -0.066834 -0.046552 0.044064
v -0.080744 -0.046552 0.045882
v -0.073419 -0.046850 0.044813
v -0.070487 -0.046552 0.044545
v -0.066834 -0.070665 0.022854
v -0.066834 -0.070211 0.023667
v -0.070487 -0.070514 0.024056
v -0.082211 -0.072069 0.024188
v -0.079279 -0.072258 0.023092
v -0.082211 -0.073019 0.022262
v -0.082211 -0.073313 0.021657
v -0.081595 -0.073237 0.021657
v -0.086608 -0.060926 0.038035
v -0.086608 -0.060039 0.038767
v -0.086608 -0.059308 0.039332
v -0.086608 -0.058283 0.040048
v -0.086608 -0.057522 0.040566
v -0.086608 -0.055702 0.041790
v -0.085143 -0.054819 0.042403
v -0.085143 -0.055000 0.042298
v -0.085143 -0.055736 0.041817
v -0.083676 -0.052890 0.043384
v -0.083676 -0.052159 0.043764
v -0.083676 -0.053882 0.042843
v -0.083676 -0.054929 0.042244
v -0.087127 -0.073607 0.021657
v -0.085877 -0.072207 0.024461
v -0.086463 -0.071850 0.025047
v -0.085143 -0.071051 0.026387
v -0.085143 -0.069328 0.028937
v -0.086608 -0.070547 0.027119
v -0.085288 -0.071867 0.025047
v -0.086608 -0.069311 0.028913
v -0.086608 -0.068799 0.029645
v -0.086608 -0.068067 0.030671
v -0.086608 -0.067496 0.031406
v -0.086608 -0.066760 0.032271
v -0.086608 -0.066109 0.033003
v -0.086608 -0.065377 0.033794
v -0.085143 -0.061674 0.037400
v -0.085143 -0.064713 0.034556
v -0.085143 -0.063982 0.035258
v -0.085143 -0.060943 0.038054
v -0.076351 -0.050477 0.043648
v -0.075223 -0.050326 0.043570
v -0.074245 -0.050192 0.043502
v -0.069661 -0.048779 0.043529
v -0.081198 -0.048842 0.045021
v -0.082211 -0.051986 0.043673
v -0.079279 -0.047800 0.045196
v -0.076738 -0.047397 0.045029
v -0.066834 -0.047598 0.043646
v -0.074884 -0.047094 0.044907
v -0.066834 -0.069900 0.024202
v -0.082211 -0.071489 0.025193
v -0.066834 -0.069517 0.024856
v -0.083676 -0.071678 0.025193
v -0.083676 -0.072157 0.024361
v -0.082211 -0.072434 0.023456
v -0.083676 -0.073182 0.022262
v -0.083676 -0.073477 0.021657
v -0.085143 -0.060031 0.038786
v -0.085143 -0.059300 0.039321
v -0.083676 -0.055660 0.041779
v -0.083676 -0.056723 0.041044
v -0.082211 -0.052713 0.043294
v -0.082211 -0.053882 0.042657
v -0.082289 -0.054819 0.042128
v -0.082665 -0.054819 0.042176
v -0.086055 -0.073590 0.021657
v -0.085873 -0.072207 0.024461
v -0.083676 -0.070997 0.026309
v -0.084096 -0.069311 0.028913
v -0.085143 -0.068820 0.029669
v -0.084895 -0.072199 0.024442
v -0.085143 -0.068084 0.030679
v -0.085143 -0.067504 0.031414
v -0.085143 -0.066773 0.032289
v -0.085143 -0.066130 0.033024
v -0.085143 -0.065398 0.033821
v -0.083676 -0.061607 0.037335
v -0.083676 -0.060872 0.037995
v -0.083676 -0.063919 0.035193
v -0.083676 -0.065344 0.033762
v -0.083676 -0.064650 0.034496
v -0.066834 -0.050629 0.042263
v -0.066834 -0.049486 0.042816
v -0.066834 -0.048330 0.043338
v -0.066834 -0.047972 0.043489
v -0.069111 -0.048090 0.043743
v -0.070487 -0.048019 0.043954
v -0.069020 -0.069673 0.025109
v -0.082211 -0.070896 0.026163
v -0.066834 -0.069055 0.025588
v -0.069754 -0.069274 0.025928
v -0.084822 -0.073552 0.021657
v -0.083676 -0.059951 0.038727
v -0.083676 -0.059220 0.039264
v -0.083676 -0.058283 0.039934
v -0.082211 -0.055504 0.041682
v -0.082211 -0.056589 0.040947
v -0.082211 -0.057324 0.040426
v -0.075349 -0.053209 0.042087
v -0.074371 -0.053088 0.042019
v -0.082211 -0.054769 0.042146
v -0.082211 -0.054819 0.042117
v -0.085143 -0.073569 0.021657
v -0.082211 -0.069677 0.028008
v -0.083676 -0.070509 0.027044
v -0.083636 -0.069698 0.028254
v -0.083119 -0.069253 0.028826
v -0.083636 -0.068849 0.029477
v -0.083676 -0.068025 0.030596
v -0.083676 -0.067441 0.031328
v -0.083676 -0.066710 0.032225
v -0.083676 -0.066075 0.032959
v -0.082211 -0.061490 0.037230
v -0.082211 -0.060758 0.037892
v -0.082211 -0.063801 0.035083
v -0.082211 -0.065234 0.033648
v -0.082211 -0.064533 0.034378
v -0.066834 -0.051360 0.041879
v -0.077812 -0.069954 0.026660
v -0.076841 -0.069307 0.027438
v -0.066834 -0.068698 0.026109
v -0.071952 -0.068946 0.026895
v -0.082075 -0.059657 0.038724
v -0.082472 -0.059111 0.039186
v -0.077140 -0.056068 0.040577
v -0.066834 -0.056034 0.039086
v -0.066834 -0.053420 0.040755
v -0.069020 -0.056996 0.038724
v -0.080744 -0.058934 0.039062
v -0.066834 -0.052411 0.041317
v -0.066834 -0.051852 0.041617
v -0.082211 -0.069190 0.028740
v -0.073047 -0.067752 0.028786
v -0.066834 -0.066537 0.029118
v -0.066834 -0.065978 0.029850
v -0.078636 -0.066327 0.031773
v -0.080744 -0.066491 0.031971
v -0.082211 -0.066605 0.032103
v -0.082211 -0.065966 0.032838
v -0.067555 -0.061019 0.035220
v -0.071952 -0.060624 0.036320
v -0.078741 -0.060443 0.037619
v -0.079718 -0.060531 0.037697
v -0.080744 -0.060624 0.037778
v -0.078323 -0.063452 0.034761
v -0.069537 -0.063448 0.033292
v -0.079279 -0.064995 0.033383
v -0.071952 -0.068210 0.027940
v -0.066834 -0.068286 0.026690
v -0.070487 -0.068088 0.027786
v -0.073419 -0.059182 0.037781
v -0.067497 -0.056711 0.038702
v -0.066834 -0.056757 0.038570
v -0.066834 -0.057787 0.037830
v -0.071952 -0.067668 0.028672
v -0.066834 -0.067290 0.028078
v -0.066834 -0.065617 0.030307
v -0.066834 -0.065243 0.030774
v -0.067555 -0.064684 0.031576
v -0.069020 -0.064806 0.031714
v -0.071952 -0.065050 0.031984
v -0.079613 -0.066403 0.031865
v -0.067555 -0.062540 0.033808
v -0.066834 -0.062477 0.033745
v -0.066834 -0.060952 0.035161
v -0.066834 -0.060161 0.035890
v -0.066834 -0.059800 0.036209
v -0.066834 -0.059426 0.036539
v -0.066834 -0.058518 0.037271
v -0.071389 -0.058980 0.037624
v -0.068560 -0.063364 0.033205
v -0.066834 -0.063894 0.032316
v -0.066834 -0.058161 0.037546
v -0.066834 -0.064625 0.031506
v -0.066834 -0.064268 0.031906
v -0.066834 -0.063209 0.033051
f 79 54 78
f 109 107 74
f 74 108 109
f 138 107 141
f 41 68 69
f 150 115 149
f 116 115 150
f 189 157 188
f 157 186 188
f 224 205 188
f 188 205 189
f 77 52 58
f 25 10 24
f 42 41 69
f 22 41 42
f 1 2 3
f 3 4 1
f 10 4 3
f 13 8 19
f 13 32 33
f 205 207 175
f 175 207 206
f 77 110 90
f 90 110 126
f 76 52 77
f 76 60 52
f 77 90 76
f 76 90 60
f 36 35 55
f 52 32 31
f 31 13 19
f 32 13 31
f 52 60 53
f 53 32 52
f 33 32 53
f 140 141 107
f 112 111 138
f 78 111 112
f 79 78 112
f 240 202 239
f 239 202 201
f 355 354 326
f 153 156 154
f 153 186 157
f 157 156 153
f 26 48 27
f 69 101 70
f 25 24 44
f 44 24 43
f 43 70 44
f 100 68 99
f 101 68 100
f 102 101 69
f 69 68 102
f 102 68 101
f 68 41 67
f 40 41 22
f 360 332 333
f 359 364 333
f 358 364 359
f 246 205 245
f 178 211 180
f 213 179 212
f 147 178 180
f 146 178 147
f 147 115 146
f 124 156 157
f 36 58 37
f 37 58 52
f 52 31 37
f 37 31 19
f 57 58 36
f 84 58 57
f 77 58 85
f 85 58 84
f 85 123 125
f 85 110 77
f 125 110 85
f 15 16 7
f 7 8 2
f 15 35 18
f 18 16 15
f 18 37 19
f 19 8 18
f 18 35 36
f 36 37 18
f 1 4 5
f 11 28 12
f 12 5 11
f 11 5 4
f 25 29 11
f 11 10 25
f 11 4 10
f 11 27 28
f 26 27 11
f 23 10 22
f 22 42 23
f 23 24 10
f 45 42 69
f 24 23 45
f 45 23 42
f 6 3 2
f 2 8 6
f 8 13 6
f 22 10 9
f 10 3 9
f 3 6 9
f 33 53 38
f 38 53 60
f 87 90 126
f 54 55 34
f 34 35 15
f 34 55 35
f 107 109 139
f 139 140 107
f 138 141 145
f 145 112 138
f 239 289 290
f 290 240 239
f 171 201 202
f 171 172 142
f 202 172 171
f 118 153 154
f 29 51 30
f 26 11 30
f 30 11 29
f 97 67 66
f 66 67 41
f 137 136 169
f 68 103 104
f 68 67 96
f 96 103 68
f 96 67 97
f 97 66 96
f 66 95 96
f 137 104 96
f 96 104 103
f 96 136 137
f 96 95 136
f 363 364 389
f 363 361 360
f 360 333 363
f 363 333 364
f 362 337 331
f 331 361 362
f 360 361 331
f 331 332 360
f 295 332 331
f 366 335 365
f 365 335 362
f 253 210 255
f 336 337 362
f 296 332 295
f 296 333 332
f 359 329 328
f 328 358 359
f 380 348 350
f 350 381 380
f 224 188 185
f 185 188 186
f 186 153 185
f 153 187 185
f 226 187 225
f 318 319 278
f 353 335 366
f 353 317 335
f 196 232 199
f 278 319 320
f 114 113 146
f 146 115 114
f 211 212 181
f 181 212 179
f 179 147 181
f 180 211 181
f 181 147 180
f 149 115 148
f 115 147 148
f 148 147 179
f 157 123 122
f 122 124 157
f 154 156 121
f 156 124 121
f 121 118 154
f 79 113 80
f 80 54 79
f 116 117 80
f 80 56 54
f 113 114 80
f 80 115 116
f 80 114 115
f 17 18 8
f 16 18 17
f 8 7 17
f 17 7 16
f 73 45 69
f 21 39 22
f 22 9 21
f 21 9 20
f 21 13 33
f 20 13 21
f 33 38 21
f 21 38 39
f 20 9 14
f 14 9 6
f 14 13 20
f 14 6 13
f 128 164 129
f 129 87 128
f 60 90 86
f 90 87 86
f 247 205 246
f 247 248 205
f 249 207 205
f 205 248 249
f 255 210 256
f 207 249 252
f 252 249 248
f 248 247 252
f 252 296 295
f 294 296 252
f 246 294 252
f 252 247 246
f 206 207 251
f 207 252 251
f 295 256 251
f 251 252 295
f 210 253 208
f 143 110 125
f 125 123 143
f 190 157 189
f 291 292 242
f 289 306 291
f 327 292 291
f 291 306 327
f 204 172 203
f 203 172 202
f 202 240 203
f 203 243 204
f 242 243 203
f 236 237 201
f 287 326 323
f 325 326 287
f 323 286 287
f 355 383 367
f 367 339 355
f 153 118 155
f 184 187 155
f 155 187 153
f 50 51 29
f 25 44 47
f 44 71 47
f 47 29 25
f 65 66 41
f 93 66 65
f 41 40 65
f 40 64 65
f 61 62 40
f 40 62 63
f 63 64 40
f 94 66 93
f 94 95 66
f 166 196 167
f 167 196 199
f 68 104 105
f 255 256 298
f 298 256 300
f 294 329 330
f 330 296 294
f 333 296 330
f 330 329 359
f 359 333 330
f 293 329 294
f 293 328 329
f 293 294 246
f 246 245 293
f 358 328 349
f 377 358 378
f 403 404 377
f 377 404 405
f 378 348 377
f 386 405 389
f 389 364 386
f 364 358 386
f 358 377 386
f 386 377 405
f 348 380 375
f 220 225 187
f 220 187 184
f 282 233 231
f 277 318 278
f 278 228 277
f 317 318 277
f 166 165 195
f 195 194 166
f 231 194 229
f 192 228 229
f 124 122 83
f 83 85 84
f 123 85 83
f 83 122 123
f 83 121 124
f 84 57 83
f 82 83 57
f 121 83 82
f 56 80 81
f 81 80 117
f 81 118 119
f 117 118 81
f 69 70 106
f 106 73 69
f 70 73 106
f 46 70 43
f 46 73 70
f 43 24 46
f 24 45 46
f 45 73 46
f 88 87 130
f 87 129 130
f 128 87 127
f 127 87 126
f 126 160 127
f 193 161 192
f 194 161 193
f 192 229 193
f 193 229 194
f 300 256 299
f 337 336 299
f 299 331 337
f 299 298 300
f 336 298 299
f 295 331 299
f 299 256 295
f 250 210 206
f 206 251 250
f 250 256 210
f 250 251 256
f 192 191 227
f 144 143 175
f 126 110 144
f 110 143 144
f 174 143 173
f 174 190 189
f 173 190 174
f 175 143 174
f 189 205 174
f 205 175 174
f 158 190 173
f 158 143 123
f 173 143 158
f 158 123 157
f 157 190 158
f 241 291 242
f 240 290 241
f 241 290 289
f 289 291 241
f 242 203 241
f 241 203 240
f 327 306 338
f 306 301 338
f 214 179 213
f 213 258 214
f 214 258 259
f 215 214 259
f 179 214 215
f 288 306 289
f 288 289 239
f 239 286 288
f 201 171 200
f 200 236 201
f 238 287 286
f 238 286 239
f 239 201 238
f 201 237 238
f 356 326 325
f 344 307 304
f 369 370 344
f 151 150 184
f 184 155 151
f 116 150 151
f 151 117 116
f 72 50 71
f 72 71 44
f 72 70 75
f 72 44 70
f 29 47 49
f 49 47 71
f 49 50 29
f 71 50 49
f 62 61 59
f 59 63 62
f 59 61 39
f 39 38 59
f 59 86 87
f 59 87 88
f 59 38 60
f 60 86 59
f 91 94 93
f 93 65 91
f 166 133 132
f 132 165 166
f 132 133 95
f 95 94 132
f 94 91 132
f 199 169 168
f 168 167 199
f 168 169 136
f 136 167 168
f 166 167 135
f 135 167 136
f 136 95 135
f 98 104 99
f 98 105 104
f 99 68 98
f 68 105 98
f 389 388 387
f 387 363 389
f 387 388 361
f 361 363 387
f 335 317 297
f 317 280 297
f 297 253 255
f 255 298 297
f 406 411 399
f 399 381 406
f 407 411 406
f 381 407 406
f 352 381 350
f 274 293 245
f 379 348 378
f 379 349 348
f 378 358 379
f 358 349 379
f 389 405 408
f 405 404 408
f 403 377 402
f 402 377 401
f 400 375 399
f 401 375 400
f 399 375 398
f 398 375 380
f 398 381 399
f 398 380 381
f 376 377 348
f 348 375 376
f 401 377 376
f 376 375 401
f 304 340 341
f 339 367 342
f 342 340 339
f 342 341 340
f 304 341 342
f 261 260 304
f 262 215 261
f 261 215 260
f 149 148 183
f 183 150 149
f 184 150 183
f 198 196 166
f 232 196 198
f 278 320 283
f 275 280 317
f 162 161 194
f 194 195 162
f 162 127 161
f 165 164 162
f 162 195 165
f 162 164 128
f 128 127 162
f 231 229 279
f 279 228 278
f 279 229 228
f 121 82 120
f 119 118 120
f 118 121 120
f 192 161 163
f 163 191 192
f 161 127 163
f 163 127 160
f 160 191 163
f 159 191 160
f 159 160 126
f 126 144 159
f 206 210 176
f 210 208 176
f 176 175 206
f 176 144 175
f 253 297 254
f 254 297 280
f 254 208 253
f 254 227 208
f 208 227 209
f 209 227 191
f 209 176 208
f 191 176 209
f 306 288 263
f 263 288 260
f 260 215 263
f 259 258 263
f 263 215 259
f 260 288 303
f 304 260 303
f 303 340 304
f 303 288 286
f 339 340 303
f 170 171 142
f 170 200 171
f 285 238 237
f 287 238 285
f 385 391 369
f 369 383 385
f 384 391 385
f 385 356 384
f 383 356 385
f 326 356 357
f 357 356 383
f 355 326 357
f 357 383 355
f 369 344 368
f 368 367 383
f 368 344 367
f 152 155 118
f 152 151 155
f 152 118 117
f 117 151 152
f 89 59 88
f 63 59 89
f 88 91 89
f 89 91 63
f 64 63 92
f 63 91 92
f 92 65 64
f 92 91 65
f 88 130 131
f 131 91 88
f 131 129 164
f 131 130 129
f 131 132 91
f 131 164 165
f 165 132 131
f 95 133 134
f 134 135 95
f 134 133 166
f 166 135 134
f 335 297 334
f 334 297 298
f 334 298 336
f 362 335 334
f 334 336 362
f 371 392 393
f 370 392 371
f 371 344 370
f 372 344 371
f 382 407 381
f 373 346 345
f 345 344 373
f 373 344 372
f 345 346 308
f 308 344 345
f 307 344 308
f 316 352 350
f 224 185 223
f 223 205 224
f 348 349 312
f 367 344 343
f 343 342 367
f 343 344 304
f 304 342 343
f 304 307 305
f 305 261 304
f 225 220 219
f 219 270 225
f 219 220 184
f 184 183 219
f 197 198 166
f 233 198 197
f 231 233 197
f 166 194 197
f 197 194 231
f 232 198 235
f 317 277 276
f 276 275 317
f 276 277 228
f 228 275 276
f 280 275 230
f 230 254 280
f 227 254 230
f 230 275 228
f 230 228 192
f 192 227 230
f 281 282 231
f 231 279 281
f 281 279 282
f 322 279 278
f 322 283 282
f 282 279 322
f 191 159 177
f 177 176 191
f 177 159 144
f 144 176 177
f 306 263 302
f 302 263 258
f 302 301 306
f 302 257 301
f 324 303 286
f 324 326 354
f 339 303 324
f 323 326 324
f 324 286 323
f 324 354 355
f 355 339 324
f 390 383 369
f 369 368 390
f 390 368 383
f 393 409 394
f 394 371 393
f 395 371 394
f 409 410 394
f 394 410 395
f 381 352 351
f 351 382 381
f 352 316 351
f 382 351 374
f 374 373 372
f 309 308 346
f 310 268 309
f 226 225 272
f 272 270 311
f 225 270 272
f 244 274 245
f 244 223 274
f 244 245 205
f 205 223 244
f 222 223 185
f 313 312 349
f 313 349 328
f 328 293 313
f 293 274 313
f 266 305 307
f 265 305 266
f 216 215 262
f 179 215 216
f 265 266 216
f 270 219 269
f 269 219 268
f 269 268 310
f 269 310 311
f 311 270 269
f 234 283 232
f 232 235 234
f 234 235 198
f 234 198 233
f 278 283 321
f 321 322 278
f 283 322 321
f 396 410 407
f 407 382 396
f 395 410 396
f 382 374 396
f 396 371 395
f 396 374 371
f 315 351 316
f 311 310 315
f 315 272 311
f 316 272 315
f 372 371 397
f 397 374 372
f 371 374 397
f 314 316 350
f 350 348 314
f 348 312 314
f 273 272 316
f 316 314 273
f 307 308 267
f 267 266 307
f 267 309 268
f 308 309 267
f 267 216 266
f 264 216 262
f 265 216 264
f 262 261 264
f 261 305 264
f 264 305 265
f 182 148 179
f 182 183 148
f 282 283 284
f 283 234 284
f 233 282 284
f 284 234 233
f 347 374 351
f 351 315 347
f 346 373 347
f 373 374 347
f 347 315 310
f 310 309 347
f 347 309 346
f 221 222 185
f 226 272 221
f 272 273 221
f 221 187 226
f 221 185 187
f 271 314 312
f 271 273 314
f 271 313 274
f 312 313 271
f 271 221 273
f 222 221 271
f 274 223 271
f 223 222 271
f 268 219 217
f 217 267 268
f 216 267 217
f 217 219 183
f 183 182 217
f 179 216 217
f 218 182 179
f 179 217 218
f 218 217 182
f 54 56 55
f 55 56 36
f 34 107 138
f 15 7 34
f 34 2 1
f 1 5 34
f 34 48 74
f 74 107 34
f 34 78 54
f 34 27 48
f 138 111 34
f 34 111 78
f 12 28 34
f 28 27 34
f 34 7 2
f 34 5 12
f 61 40 22
f 22 39 61
f 338 108 142
f 213 212 338
f 338 243 242
f 338 178 146
f 338 109 108
f 79 112 338
f 338 113 79
f 338 145 141
f 242 292 338
f 141 140 338
f 338 139 109
f 142 172 338
f 211 178 338
f 146 113 338
f 338 212 211
f 140 139 338
f 112 145 338
f 338 292 327
f 338 172 204
f 204 243 338
f 338 257 213
f 301 257 338
f 75 51 72
f 51 50 72
f 36 56 120
f 56 81 120
f 120 57 36
f 120 82 57
f 120 81 119
f 213 257 302
f 302 258 213
f 142 108 410
f 410 100 99
f 74 48 410
f 26 30 410
f 410 48 26
f 410 108 74
f 410 320 319
f 75 70 410
f 369 391 410
f 199 232 410
f 319 318 410
f 325 287 410
f 410 169 199
f 99 104 410
f 366 365 410
f 399 411 410
f 393 392 410
f 410 51 75
f 410 70 101
f 101 100 410
f 362 361 410
f 410 285 237
f 403 402 410
f 410 353 366
f 410 356 325
f 410 370 369
f 410 30 51
f 137 169 410
f 410 104 137
f 410 365 362
f 410 388 389
f 389 408 410
f 410 318 317
f 317 353 410
f 410 400 399
f 237 236 410
f 410 170 142
f 410 392 370
f 232 283 410
f 361 388 410
f 410 411 407
f 410 404 403
f 236 200 410
f 410 391 384
f 384 356 410
f 410 408 404
f 410 402 401
f 401 400 410
f 410 283 320
f 200 170 410
f 287 285 410
f 410 409 393
