v -0.066830 -0.030662 0.047116
v -0.066830 -0.031889 0.047081
v -0.059157 -0.031889 0.046142
v -0.057289 -0.030670 0.045945
v -0.058923 -0.003219 0.037297
v -0.066832 -0.001596 0.037297
v -0.066832 -0.010744 0.037297
v -0.066830 -0.032640 0.047036
v -0.062232 -0.032874 0.046468
v -0.057289 -0.031889 0.045910
v -0.055824 -0.031889 0.045696
v -0.055824 -0.030670 0.045728
v -0.055315 -0.002396 0.036186
v -0.055316 -0.030670 0.045638
v -0.055315 -0.002121 0.035969
v -0.055315 -0.001806 0.035715
v -0.066832 -0.000563 0.036463
v -0.066830 -0.044121 0.044918
v -0.066830 -0.040681 0.045835
v -0.066830 -0.039188 0.046202
v -0.066830 -0.038171 0.046401
v -0.066830 -0.037484 0.046518
v -0.066830 -0.036330 0.046675
v -0.066830 -0.034820 0.046844
v -0.066830 -0.033359 0.046992
v -0.066832 -0.010574 0.037145
v -0.066831 -0.071273 0.021657
v -0.066831 -0.071015 0.022183
v -0.066831 -0.070490 0.023162
v -0.066831 -0.069900 0.024202
v -0.066831 -0.069505 0.024857
v -0.066831 -0.069045 0.025590
v -0.066831 -0.068689 0.026108
v -0.066831 -0.068286 0.026686
v -0.066831 -0.066986 0.028493
v -0.066831 -0.066534 0.029116
v -0.066831 -0.065678 0.030222
v -0.058756 -0.033359 0.046000
v -0.057289 -0.033359 0.045818
v -0.055316 -0.031889 0.045603
v -0.055824 -0.033359 0.045596
v -0.055315 -0.010873 0.036186
v -0.055315 -0.000975 0.035025
v -0.066831 -0.000232 0.036186
v -0.066832 -0.000232 0.036186
v -0.056534 -0.044363 0.043520
v -0.057289 -0.043620 0.043842
v -0.057289 -0.042151 0.044260
v -0.057289 -0.040690 0.044659
v -0.059157 -0.040149 0.045035
v -0.066830 -0.045033 0.044624
v -0.058124 -0.039890 0.044970
v -0.057289 -0.039640 0.044918
v -0.059157 -0.039293 0.045222
v -0.057289 -0.038905 0.045065
v -0.059157 -0.037759 0.045519
v -0.066414 -0.037315 0.046496
v -0.063987 -0.035442 0.046436
v -0.066083 -0.034820 0.046757
v -0.065438 -0.036927 0.046436
v -0.065989 -0.036378 0.046568
v -0.063570 -0.034457 0.046486
v -0.066832 -0.008281 0.036186
v -0.063150 -0.070780 0.021657
v -0.066831 0.011209 0.021657
v -0.058756 -0.069836 0.022263
v -0.056907 -0.069214 0.022906
v -0.063720 -0.069295 0.024498
v -0.057289 -0.068092 0.024899
v -0.060609 -0.067858 0.026003
v -0.056588 -0.066332 0.027386
v -0.066830 -0.065678 0.030225
v -0.066830 -0.065242 0.030776
v -0.066830 -0.064620 0.031508
v -0.066830 -0.063894 0.032321
v -0.066830 -0.063199 0.033056
v -0.066830 -0.062844 0.033397
v -0.066830 -0.062464 0.033751
v -0.066830 -0.060147 0.035894
v -0.066830 -0.059792 0.036213
v -0.066830 -0.059421 0.036542
v -0.066830 -0.058508 0.037275
v -0.066830 -0.058153 0.037547
v -0.066830 -0.057774 0.037831
v -0.066830 -0.056756 0.038573
v -0.066830 -0.056030 0.039084
v -0.066830 -0.053414 0.040751
v -0.066830 -0.052413 0.041315
v -0.066830 -0.051355 0.041875
v -0.066830 -0.050620 0.042262
v -0.066830 -0.049482 0.042815
v -0.066830 -0.049175 0.042954
v -0.066830 -0.048319 0.043333
v -0.066830 -0.047964 0.043488
v -0.066830 -0.047593 0.043645
v -0.066830 -0.046551 0.044063
v -0.066830 -0.045833 0.044330
v -0.059157 -0.034820 0.045905
v -0.057289 -0.034820 0.045673
v -0.055316 -0.033359 0.045504
v -0.055824 -0.034820 0.045451
v -0.055316 -0.034820 0.045362
v -0.055316 -0.036241 0.045202
v -0.055315 -0.063821 0.030222
v -0.055315 -0.000498 0.034611
v -0.066831 0.001488 0.034586
v -0.066831 0.002731 0.033417
v -0.066831 0.003466 0.032682
v -0.066831 0.003813 0.032323
v -0.066831 0.004168 0.031949
v -0.066831 0.004943 0.031037
v -0.066831 0.005517 0.030357
v -0.066831 0.006808 0.028657
v -0.066831 0.007697 0.027424
v -0.066831 0.008593 0.026168
v -0.066831 0.009271 0.025129
v -0.066831 0.009788 0.024284
v -0.066831 0.010151 0.023621
v -0.066831 0.010918 0.022210
v -0.066831 0.011071 0.021924
v -0.055957 -0.044944 0.043214
v -0.055316 -0.045001 0.043084
v -0.055557 -0.044089 0.043435
v -0.055316 -0.043822 0.043478
v -0.055957 -0.043604 0.043650
v -0.055824 -0.042151 0.044046
v -0.066083 -0.045082 0.044509
v -0.059157 -0.045122 0.043592
v -0.057289 -0.045235 0.043306
v -0.057289 -0.046551 0.042810
v -0.055824 -0.040690 0.044442
v -0.061686 -0.046026 0.043595
v -0.055880 -0.039147 0.044806
v -0.056408 -0.038615 0.045008
v -0.057289 -0.037759 0.045284
v -0.057289 -0.036289 0.045509
v -0.058080 -0.070054 0.021657
v -0.055824 0.009699 0.021657
v -0.055824 -0.069537 0.022016
v -0.055824 -0.069133 0.022749
v -0.057352 -0.068883 0.023603
v -0.055824 -0.067963 0.024712
v -0.057289 -0.067607 0.025630
v -0.055315 -0.066203 0.027207
v -0.055315 -0.065896 0.027623
v -0.055824 -0.065629 0.028124
v -0.055824 -0.064967 0.028979
v -0.057289 -0.065088 0.029131
v -0.055315 -0.067922 0.024638
v -0.055315 -0.067180 0.025754
v -0.061340 -0.064838 0.030225
v -0.062297 -0.064887 0.030347
v -0.057289 -0.063756 0.030718
v -0.059157 -0.063256 0.031623
v -0.057289 -0.062360 0.032219
v -0.057289 -0.061609 0.032951
v -0.066083 -0.062400 0.033689
v -0.059157 -0.060494 0.034304
v -0.062377 -0.059017 0.036196
v -0.066083 -0.058436 0.037215
v -0.065056 -0.057596 0.037699
v -0.066083 -0.057701 0.037776
v -0.057779 -0.056127 0.037689
v -0.056801 -0.056022 0.037619
v -0.066083 -0.055949 0.039029
v -0.065035 -0.053212 0.040627
v -0.064058 -0.053099 0.040557
v -0.057289 -0.051508 0.040492
v -0.066083 -0.050523 0.042212
v -0.057289 -0.049482 0.041511
v -0.061677 -0.049175 0.042254
v -0.063827 -0.050225 0.042057
v -0.057289 -0.047794 0.042284
v -0.064202 -0.047173 0.043473
v -0.061686 -0.046753 0.043311
v -0.055824 -0.036289 0.045287
v -0.055316 -0.037379 0.045035
v -0.055316 -0.049522 0.041173
v -0.055316 -0.050475 0.040721
v -0.055316 -0.051161 0.040363
v -0.055316 -0.052445 0.039642
v -0.055316 -0.053228 0.039171
v -0.055316 -0.055101 0.037973
v -0.055316 -0.055578 0.037659
v -0.055316 -0.055836 0.037487
v -0.055316 -0.056877 0.036709
v -0.055316 -0.057548 0.036193
v -0.055316 -0.058250 0.035623
v -0.055316 -0.059162 0.034865
v -0.055316 -0.060696 0.033462
v -0.055316 -0.061173 0.033014
v -0.055316 -0.061924 0.032291
v -0.055316 -0.062182 0.032039
v -0.055316 -0.062658 0.031526
v -0.055316 -0.062957 0.031202
v -0.055316 -0.063579 0.030514
v -0.055315 -0.064289 0.029674
v -0.055316 -0.038098 0.044913
v -0.055316 -0.039172 0.044701
v -0.055316 -0.040690 0.044352
v -0.055316 -0.042191 0.043951
v -0.055316 -0.043354 0.043615
v -0.055316 -0.044000 0.043420
v -0.055316 -0.046042 0.042690
v -0.055316 -0.046575 0.042486
v -0.055316 -0.047221 0.042219
v -0.055316 -0.047447 0.042125
v -0.055315 0.002586 0.031680
v -0.055315 0.003910 0.030195
v -0.055315 0.004515 0.029465
v -0.055315 0.005202 0.028613
v -0.055315 0.005436 0.028289
v -0.055315 0.005775 0.027808
v -0.064075 0.008391 0.025884
v -0.055315 0.008229 0.024167
v -0.055315 0.008673 0.023434
v -0.055315 0.009311 0.022263
v -0.055824 -0.046551 0.042586
v -0.059817 -0.045695 0.043473
v -0.058756 -0.045501 0.043403
v -0.055824 -0.047552 0.042169
v -0.058756 -0.046551 0.043004
v -0.055880 -0.037694 0.045083
v -0.055619 -0.069691 0.021657
v -0.055315 0.009529 0.021657
v -0.055315 -0.069497 0.021936
v -0.055315 -0.069077 0.022671
v -0.055315 -0.068447 0.023768
v -0.055315 -0.065500 0.028156
v -0.055315 -0.065169 0.028590
v -0.055315 -0.064911 0.028919
v -0.055824 -0.064362 0.029712
v -0.057289 -0.064491 0.029861
v -0.055824 -0.063627 0.030571
v -0.057289 -0.063094 0.031453
v -0.055824 -0.062230 0.032086
v -0.055824 -0.061471 0.032822
v -0.057289 -0.059356 0.035040
v -0.055824 -0.059219 0.034910
v -0.059158 -0.058694 0.035929
v -0.057289 -0.057766 0.036363
v -0.059158 -0.057959 0.036510
v -0.059158 -0.056999 0.037243
v -0.055824 -0.055901 0.037534
v -0.055824 -0.055166 0.038013
v -0.057289 -0.053478 0.039333
v -0.057289 -0.056692 0.037185
v -0.056125 -0.057644 0.036268
v -0.055711 -0.056950 0.036727
v -0.057289 -0.052405 0.039976
v -0.055824 -0.052405 0.039747
v -0.055824 -0.051290 0.040380
v -0.057289 -0.050774 0.040876
v -0.055824 -0.049482 0.041280
v -0.058267 -0.048674 0.042017
v -0.055824 -0.050556 0.040764
v -0.055824 -0.053293 0.039216
v -0.055711 -0.058185 0.035747
v -0.057289 -0.058500 0.035772
v -0.055824 -0.062965 0.031306
v -0.055824 -0.063926 0.030222
v -0.055315 0.006542 0.026704
v -0.055315 0.007543 0.025238
v -0.055315 -0.069634 0.021657
f 7 1 6
f 5 13 6
f 6 1 5
f 27 7 26
f 26 63 27
f 13 5 14
f 107 106 105
f 105 106 44
f 20 7 19
f 4 5 1
f 45 17 44
f 44 106 45
f 45 106 107
f 107 108 45
f 44 17 43
f 43 105 44
f 111 209 112
f 110 209 111
f 112 45 111
f 111 45 110
f 208 209 110
f 208 108 107
f 107 105 208
f 13 14 42
f 14 40 42
f 36 37 7
f 86 87 37
f 21 7 20
f 21 22 7
f 23 24 7
f 7 22 23
f 12 14 5
f 5 4 12
f 216 117 215
f 116 45 115
f 117 45 116
f 116 215 117
f 16 43 17
f 16 17 6
f 112 211 113
f 113 45 112
f 112 209 210
f 210 211 112
f 109 208 110
f 108 208 109
f 110 45 109
f 109 45 108
f 225 138 217
f 102 42 100
f 100 42 40
f 28 7 27
f 28 29 7
f 7 29 30
f 156 76 155
f 60 23 57
f 57 23 22
f 22 21 57
f 7 24 25
f 65 45 120
f 45 119 120
f 119 217 120
f 120 138 65
f 120 217 138
f 118 45 117
f 118 119 45
f 118 117 216
f 216 217 118
f 118 217 119
f 6 13 15
f 15 16 6
f 115 45 114
f 45 113 114
f 214 262 263
f 214 116 115
f 263 215 214
f 215 116 214
f 213 214 115
f 262 214 213
f 101 176 102
f 102 100 41
f 41 101 102
f 20 19 50
f 64 28 27
f 29 28 64
f 31 32 7
f 7 30 31
f 7 32 33
f 33 34 7
f 35 36 7
f 7 34 35
f 155 76 154
f 103 42 102
f 102 176 103
f 82 37 81
f 78 79 37
f 90 169 91
f 90 91 37
f 91 169 172
f 172 170 91
f 91 170 171
f 37 95 96
f 96 95 174
f 61 23 60
f 11 12 4
f 4 10 11
f 11 40 14
f 14 12 11
f 39 41 11
f 11 10 39
f 7 25 8
f 212 213 115
f 115 114 212
f 212 113 211
f 212 114 113
f 136 223 176
f 51 46 18
f 18 50 19
f 18 19 7
f 7 37 18
f 37 51 18
f 68 30 29
f 68 31 30
f 32 31 68
f 29 64 66
f 72 73 37
f 37 36 72
f 75 154 76
f 75 76 37
f 249 187 186
f 236 156 155
f 239 238 190
f 188 187 248
f 187 249 248
f 257 182 181
f 37 79 80
f 80 81 37
f 37 76 77
f 77 78 37
f 76 156 77
f 156 190 158
f 158 190 238
f 159 238 239
f 81 80 159
f 241 242 159
f 82 81 159
f 159 80 79
f 159 160 82
f 159 242 160
f 79 158 159
f 159 158 238
f 257 250 246
f 165 246 166
f 87 86 166
f 86 165 166
f 174 173 130
f 255 171 170
f 170 173 255
f 255 173 171
f 37 91 92
f 92 93 37
f 173 93 92
f 91 171 92
f 171 173 92
f 94 95 37
f 37 93 94
f 94 93 173
f 174 95 94
f 94 173 174
f 97 51 37
f 37 96 97
f 1 7 2
f 7 8 2
f 39 10 9
f 9 38 39
f 9 2 8
f 9 8 25
f 25 38 9
f 62 38 25
f 58 136 99
f 58 61 60
f 60 136 58
f 23 61 58
f 223 136 135
f 135 136 60
f 20 53 54
f 47 18 46
f 137 66 64
f 71 35 34
f 34 33 71
f 36 35 71
f 71 33 32
f 71 72 36
f 233 153 151
f 152 73 151
f 37 73 74
f 74 75 37
f 73 152 74
f 74 153 154
f 154 75 74
f 151 153 74
f 74 152 151
f 85 84 162
f 85 86 37
f 37 84 85
f 193 236 260
f 239 190 189
f 189 259 239
f 188 259 189
f 156 236 237
f 258 259 188
f 188 248 258
f 258 248 259
f 183 182 257
f 257 246 183
f 251 250 257
f 257 181 251
f 221 173 170
f 178 207 221
f 221 130 173
f 207 206 221
f 254 179 178
f 254 221 170
f 178 221 254
f 170 172 253
f 253 172 169
f 223 198 177
f 176 223 177
f 177 103 176
f 157 77 156
f 156 158 157
f 78 77 157
f 79 78 157
f 157 158 79
f 239 259 240
f 240 159 239
f 241 159 240
f 240 248 241
f 259 248 240
f 175 96 174
f 174 130 175
f 127 46 51
f 3 9 10
f 2 9 3
f 3 10 4
f 3 4 1
f 1 2 3
f 59 25 24
f 59 62 25
f 59 58 62
f 24 23 59
f 23 58 59
f 98 58 99
f 62 58 98
f 38 62 98
f 98 99 39
f 39 38 98
f 55 54 53
f 55 21 20
f 20 54 55
f 60 57 56
f 56 135 60
f 56 57 21
f 21 55 56
f 56 55 135
f 67 140 141
f 29 66 67
f 67 68 29
f 141 68 67
f 141 140 228
f 66 137 139
f 139 67 66
f 140 67 139
f 32 68 69
f 69 68 141
f 72 71 148
f 151 73 148
f 73 72 148
f 148 233 151
f 104 196 197
f 104 189 190
f 188 189 104
f 104 187 188
f 186 187 104
f 104 185 186
f 182 183 104
f 104 181 182
f 180 181 104
f 104 179 180
f 178 179 104
f 104 207 178
f 104 206 207
f 205 206 104
f 104 204 205
f 122 204 104
f 104 203 122
f 124 203 104
f 104 202 124
f 201 202 104
f 200 201 104
f 104 199 200
f 198 199 104
f 104 177 198
f 103 177 104
f 42 103 104
f 83 37 82
f 83 84 37
f 162 84 83
f 82 160 83
f 162 83 161
f 161 242 243
f 160 242 161
f 161 83 160
f 164 165 86
f 164 246 165
f 164 161 243
f 164 248 249
f 195 260 196
f 196 104 195
f 234 260 153
f 196 260 234
f 234 261 196
f 153 233 234
f 233 261 234
f 235 260 236
f 155 154 235
f 235 236 155
f 154 153 235
f 153 260 235
f 191 190 156
f 156 237 191
f 191 104 190
f 192 236 193
f 192 237 236
f 192 191 237
f 193 104 192
f 104 191 192
f 130 221 218
f 205 204 218
f 218 206 205
f 218 221 206
f 218 204 122
f 170 253 256
f 256 254 170
f 179 254 256
f 252 181 180
f 252 251 181
f 180 179 252
f 179 256 252
f 167 246 250
f 167 166 246
f 46 122 123
f 122 203 123
f 123 124 46
f 123 203 124
f 134 198 223
f 134 199 198
f 223 135 134
f 135 55 134
f 134 55 53
f 130 219 132
f 96 175 132
f 132 97 96
f 51 97 132
f 132 127 51
f 132 219 127
f 129 130 46
f 46 127 128
f 127 219 128
f 128 129 46
f 48 47 46
f 46 126 48
f 18 47 48
f 125 202 201
f 201 126 125
f 125 126 46
f 46 124 125
f 124 202 125
f 227 228 140
f 224 139 137
f 144 71 150
f 144 145 71
f 70 71 32
f 32 69 70
f 150 71 149
f 233 148 147
f 147 148 71
f 185 104 184
f 184 104 183
f 245 183 246
f 246 164 245
f 245 164 183
f 162 161 163
f 161 164 163
f 163 85 162
f 86 85 163
f 163 164 86
f 241 248 247
f 248 164 247
f 247 242 241
f 243 242 247
f 247 164 243
f 194 104 193
f 194 195 104
f 193 260 194
f 260 195 194
f 46 130 121
f 130 218 121
f 121 122 46
f 121 218 122
f 168 167 250
f 250 251 168
f 251 252 168
f 168 253 169
f 133 134 53
f 199 134 133
f 222 175 130
f 130 132 222
f 222 132 175
f 220 219 130
f 130 129 220
f 220 128 219
f 129 128 220
f 20 50 52
f 52 53 20
f 49 48 126
f 53 52 49
f 49 52 50
f 50 18 49
f 18 48 49
f 226 224 264
f 139 224 226
f 140 139 226
f 226 227 140
f 145 229 146
f 71 145 146
f 146 147 71
f 143 69 71
f 71 70 143
f 143 70 69
f 228 149 142
f 141 228 142
f 142 69 141
f 71 69 142
f 142 149 71
f 232 261 233
f 233 147 232
f 232 147 197
f 197 196 232
f 196 261 232
f 197 147 231
f 183 164 244
f 244 184 183
f 185 184 244
f 186 185 244
f 244 249 186
f 244 164 249
f 167 168 88
f 166 167 88
f 87 166 88
f 37 87 88
f 131 49 126
f 131 201 200
f 131 126 201
f 53 49 131
f 131 133 53
f 200 199 131
f 199 133 131
f 230 146 229
f 147 146 230
f 230 231 147
f 89 168 169
f 89 88 168
f 169 90 89
f 89 90 37
f 37 88 89
f 45 26 7
f 45 7 6
f 63 26 45
f 6 17 45
f 45 65 27
f 27 63 45
f 99 101 41
f 39 99 41
f 11 41 100
f 11 100 40
f 136 101 99
f 176 101 136
f 65 138 224
f 27 65 224
f 225 264 224
f 224 138 225
f 224 64 27
f 224 137 64
f 168 252 256
f 168 256 253
f 230 215 263
f 13 42 230
f 230 264 225
f 230 210 209
f 263 262 230
f 230 208 105
f 105 43 230
f 230 212 211
f 209 208 230
f 225 217 230
f 216 215 230
f 43 16 230
f 211 210 230
f 230 15 13
f 230 217 216
f 150 149 230
f 16 15 230
f 262 213 230
f 213 212 230
f 42 104 230
f 230 144 150
f 230 226 264
f 230 104 197
f 228 227 230
f 230 229 145
f 145 144 230
f 230 149 228
f 227 226 230
f 197 231 230
