v -0.028640 0.008505 0.029577
v -0.022906 0.008503 0.029577
v -0.030488 0.008505 0.029577
v -0.018137 0.005701 0.036051
v -0.021007 0.007919 0.029577
v -0.017739 0.005886 0.035092
v -0.031478 0.005701 0.036051
v -0.032387 0.008480 0.029577
v -0.018957 0.004712 0.036184
v -0.017839 0.004742 0.036174
v -0.016821 0.004802 0.035082
v -0.017540 0.005979 0.034123
v -0.017353 0.006067 0.033195
v -0.017422 0.006112 0.029577
v -0.016608 0.005078 0.034123
v -0.016406 0.005346 0.033195
v -0.034282 0.008377 0.029577
v -0.033408 0.005763 0.034349
v -0.032888 0.004742 0.035718
v -0.031941 0.004742 0.036174
v -0.019110 0.002844 0.036385
v -0.017555 0.002844 0.036292
v -0.016606 0.002844 0.035539
v -0.016178 0.004209 0.034442
v -0.015410 0.004782 0.029577
v -0.016471 0.005514 0.029577
v -0.017353 0.006069 0.031298
v -0.013518 0.002845 0.029577
v -0.036023 0.006635 0.029577
v -0.033556 0.004742 0.034770
v -0.033332 0.002844 0.036037
v -0.032383 0.002844 0.036292
v -0.019110 -0.002844 0.036385
v -0.017555 -0.002844 0.036292
v -0.016606 -0.002844 0.035539
v -0.013485 0.000947 0.029577
v -0.036125 0.004744 0.029577
v -0.036147 0.002845 0.029577
v -0.033332 -0.002844 0.036037
v -0.032383 -0.002844 0.036292
v -0.031941 -0.004742 0.036174
v -0.018957 -0.004712 0.036184
v -0.017839 -0.004742 0.036174
v -0.016178 -0.004209 0.034442
v -0.013518 -0.002844 0.029577
v -0.013485 -0.000946 0.029577
v -0.016821 -0.004802 0.035082
v -0.036147 -0.002844 0.029577
v -0.036129 -0.004667 0.029577
v -0.036087 -0.006517 0.029577
v -0.035992 -0.008347 0.029577
v -0.032888 -0.004742 0.035718
v -0.031478 -0.005701 0.036051
v -0.018137 -0.005701 0.036051
v -0.016235 -0.004500 0.034123
v -0.015377 -0.004707 0.029577
v -0.016406 -0.005345 0.033195
v -0.017739 -0.005886 0.035092
v -0.017056 -0.005609 0.034123
v -0.016608 -0.005077 0.034123
v -0.034164 -0.008442 0.029577
v -0.033408 -0.005763 0.034349
v -0.032314 -0.008485 0.029577
v -0.030488 -0.008505 0.029577
v -0.022906 -0.008501 0.029577
v -0.022844 -0.008491 0.029577
v -0.016406 -0.005431 0.031298
v -0.016471 -0.005513 0.029577
v -0.017540 -0.005979 0.034123
v -0.017353 -0.006067 0.033195
v -0.021007 -0.007919 0.029577
v -0.016559 -0.005573 0.029577
v -0.018933 -0.006881 0.029577
v -0.017422 -0.006112 0.029577
v -0.017353 -0.006069 0.031298
f 48 49 39
f 50 51 39
f 39 49 50
f 61 53 51
f 39 51 52
f 28 23 36
f 2 6 5
f 4 6 2
f 58 66 71
f 64 53 63
f 53 61 63
f 51 53 62
f 62 52 51
f 53 52 62
f 16 28 25
f 10 22 23
f 21 22 10
f 10 9 21
f 4 9 10
f 41 40 39
f 39 52 41
f 41 52 53
f 41 53 42
f 7 9 4
f 45 57 56
f 46 35 45
f 42 53 54
f 54 65 66
f 54 66 58
f 64 65 54
f 54 53 64
f 45 35 44
f 23 28 24
f 28 16 24
f 33 41 42
f 40 41 33
f 17 29 18
f 18 7 17
f 69 70 57
f 58 71 69
f 71 70 69
f 74 70 73
f 73 70 71
f 55 57 45
f 45 44 55
f 13 16 25
f 13 14 5
f 6 4 11
f 4 10 11
f 11 10 23
f 23 24 11
f 17 7 8
f 7 3 8
f 1 4 2
f 20 32 21
f 21 9 20
f 9 7 20
f 29 37 31
f 31 37 38
f 32 20 31
f 58 69 59
f 59 69 57
f 72 68 70
f 67 68 56
f 70 68 67
f 67 56 57
f 57 70 67
f 35 34 43
f 43 34 33
f 42 54 43
f 43 33 42
f 47 55 44
f 47 54 58
f 58 59 47
f 47 43 54
f 47 44 35
f 35 43 47
f 26 13 25
f 12 5 6
f 12 13 5
f 6 16 12
f 16 13 12
f 15 24 16
f 15 11 24
f 15 16 6
f 6 11 15
f 30 18 29
f 29 31 30
f 7 18 19
f 19 20 7
f 19 31 20
f 18 30 19
f 19 30 31
f 74 72 75
f 75 70 74
f 75 72 70
f 57 55 60
f 55 47 60
f 60 59 57
f 60 47 59
f 27 26 14
f 14 13 27
f 13 26 27
f 36 23 46
f 23 35 46
f 32 40 33
f 21 32 33
f 34 35 23
f 23 22 34
f 21 33 34
f 34 22 21
f 1 7 4
f 1 3 7
f 31 40 32
f 39 40 31
f 38 48 31
f 31 48 39
f 26 65 64
f 2 5 26
f 17 8 26
f 51 50 26
f 74 73 26
f 26 48 38
f 26 28 36
f 26 72 74
f 64 63 26
f 49 48 26
f 26 50 49
f 26 61 51
f 25 28 26
f 36 46 26
f 38 37 26
f 26 71 66
f 66 65 26
f 26 63 61
f 26 29 17
f 45 56 26
f 26 46 45
f 5 14 26
f 26 37 29
f 26 1 2
f 26 73 71
f 56 68 26
f 26 8 3
f 3 1 26
f 68 72 26
