v -0.000117 0.027521 0.029457
v 0.001351 0.027470 0.030069
v 0.002210 0.027496 0.029138
v -0.000117 0.027521 0.028823
v -0.002399 0.027487 0.029077
v -0.001586 0.027496 0.029350
v -0.001586 0.027470 0.030085
v -0.000117 0.027470 0.030192
v 0.001351 0.027051 0.031062
v 0.002496 0.026975 0.031062
v 0.002819 0.026942 0.031062
v 0.004269 0.026740 0.031062
v 0.002755 0.027387 0.029612
v 0.004269 0.027126 0.029595
v 0.002210 0.027496 0.028843
v -0.000117 0.026749 0.028491
v -0.001586 0.026749 0.028499
v -0.001586 0.027496 0.028829
v -0.002399 0.027487 0.028847
v 0.001351 0.027496 0.028829
v 0.001351 0.026749 0.028499
v -0.005991 0.026833 0.029593
v -0.002943 0.027361 0.029575
v -0.004513 0.026698 0.031062
v -0.003036 0.026917 0.031062
v -0.001586 0.027051 0.031062
v -0.000117 0.027059 0.031062
v 0.001351 0.026338 0.032217
v 0.002819 0.026279 0.032156
v 0.004269 0.026170 0.032016
v 0.005424 0.026086 0.031893
v 0.006403 0.025985 0.031769
v 0.005848 0.026396 0.031191
v 0.007215 0.026254 0.030811
v 0.005738 0.026858 0.029595
v 0.007215 0.026531 0.029595
v 0.008323 0.026119 0.028740
v 0.007215 0.026279 0.028622
v 0.005738 0.026438 0.028547
v 0.002496 0.026833 0.028569
v -0.004513 0.025280 0.028200
v 0.004269 0.025280 0.028200
v 0.002819 0.025280 0.028197
v 0.002496 0.025280 0.028197
v -0.005991 0.025280 0.028222
v -0.004513 0.026531 0.028532
v -0.002943 0.026833 0.028587
v -0.005991 0.026421 0.028554
v -0.007422 0.026254 0.028646
v -0.008466 0.026111 0.028764
v 0.004269 0.026556 0.028532
v 0.005738 0.025280 0.028217
v -0.007422 0.026472 0.029593
v -0.008383 0.026069 0.030456
v -0.007422 0.026228 0.030739
v -0.004513 0.026161 0.031998
v -0.006019 0.026371 0.031169
v -0.005566 0.026069 0.031882
v -0.003054 0.026228 0.032188
v -0.001586 0.026338 0.032212
v -0.000117 0.026338 0.032226
v 0.001351 0.025733 0.032947
v 0.002819 0.025683 0.032884
v -0.000117 0.025750 0.032954
v 0.004269 0.025565 0.032746
v 0.005848 0.025540 0.032440
v 0.007215 0.025859 0.031545
v 0.008231 0.026111 0.030509
v 0.006661 0.024600 0.033323
v 0.007178 0.025045 0.032600
v 0.009829 0.024684 0.031976
v 0.010808 0.024516 0.031753
v 0.008434 0.026170 0.029595
v 0.009164 0.025901 0.029595
v 0.010143 0.025540 0.029595
v 0.012396 0.024575 0.028832
v 0.011602 0.024743 0.028692
v 0.010143 0.025045 0.028547
v 0.007215 0.025280 0.028289
v -0.000108 -0.021565 0.024784
v -0.001586 -0.021800 0.024784
v 0.001351 -0.021707 0.024784
v 0.000298 -0.021598 0.024784
v -0.007422 0.025280 0.028316
v -0.010368 0.023820 0.028228
v -0.010368 0.025012 0.028560
v -0.008540 0.026119 0.029593
v -0.011560 0.024768 0.028683
v -0.010368 0.025473 0.029593
v -0.009288 0.025868 0.029593
v 0.010143 0.023803 0.028217
v -0.011504 0.024743 0.030688
v -0.010415 0.024986 0.031130
v -0.008882 0.025616 0.030990
v -0.006536 0.025977 0.031727
v -0.004513 0.025557 0.032726
v -0.006194 0.025666 0.032188
v -0.005991 0.024676 0.033396
v -0.003054 0.025666 0.032860
v -0.001586 0.025733 0.032943
v 0.001351 0.025012 0.033721
v 0.004269 0.024827 0.033560
v 0.005738 0.024709 0.033428
v 0.002819 0.024953 0.033667
v -0.000117 0.025012 0.033728
v -0.001586 0.025003 0.033715
v 0.010244 0.025020 0.031180
v 0.011371 0.024793 0.030776
v 0.012341 0.024542 0.030308
v 0.005802 0.023711 0.034262
v 0.006347 0.023048 0.034699
v 0.007178 0.023887 0.033789
v 0.008684 0.023526 0.033675
v 0.008684 0.024248 0.032936
v 0.010244 0.024072 0.032492
v 0.010882 0.023081 0.033262
v 0.012710 0.023274 0.032016
v 0.013680 0.023006 0.031679
v 0.011750 0.024852 0.029728
v 0.012396 0.024575 0.029328
v 0.015167 0.023006 0.029595
v 0.016838 0.021680 0.028790
v 0.014252 0.023308 0.028679
v 0.012960 0.023803 0.028602
v 0.011602 0.023803 0.028357
v -0.002565 -0.022186 0.024784
v 0.002478 -0.022119 0.024784
v -0.013296 0.022343 0.028235
v -0.013296 0.023585 0.028567
v -0.011754 0.024869 0.029593
v -0.014377 0.023283 0.028692
v -0.066832 -0.001600 0.037301
v 0.013080 0.022343 0.028228
v -0.010932 0.024458 0.031666
v -0.009953 0.024676 0.031959
v -0.006785 0.024575 0.033284
v -0.008900 0.024852 0.032173
v -0.004513 0.024819 0.033549
v -0.007330 0.023879 0.033741
v -0.007441 0.022863 0.034572
v -0.005991 0.023694 0.034224
v -0.005520 0.023157 0.034771
v -0.004513 0.023971 0.034277
v -0.003054 0.024936 0.033649
v 0.001351 0.024189 0.034454
v 0.002496 0.024793 0.033837
v 0.002819 0.024122 0.034401
v 0.004269 0.023996 0.034292
v -0.000117 0.024189 0.034461
v -0.001586 0.024164 0.034450
v 0.014206 0.023300 0.030704
v 0.005368 0.023157 0.034771
v 0.005802 0.022469 0.035130
v 0.007215 0.022167 0.035071
v 0.008684 0.021906 0.034913
v 0.007215 0.022888 0.034600
v 0.008684 0.022645 0.034408
v 0.010143 0.023241 0.033420
v 0.011463 0.022334 0.033632
v 0.012766 0.021839 0.033468
v 0.013745 0.021571 0.033218
v 0.011870 0.022813 0.032991
v 0.010134 0.022259 0.034216
v 0.014539 0.021999 0.032219
v 0.015416 0.021713 0.031909
v 0.014622 0.022771 0.031139
v 0.016792 0.021655 0.030402
v 0.016866 0.021705 0.029595
v 0.016007 0.022007 0.028641
v 0.017605 0.021126 0.029595
v 0.018491 0.020379 0.029595
v 0.018408 0.020329 0.028716
v 0.014668 0.022469 0.028486
v -0.003294 -0.022714 0.024784
v -0.014764 0.020883 0.028202
v 0.002995 -0.022463 0.024784
v -0.015319 0.020883 0.028252
v -0.014829 0.022418 0.028497
v -0.015319 0.022251 0.028560
v -0.055307 0.001715 0.032514
v -0.066832 -0.010739 0.037301
v -0.066832 -0.001944 0.037577
v -0.008900 0.022595 0.034388
v -0.008900 0.023493 0.033654
v -0.010045 0.023274 0.033455
v -0.008900 0.024214 0.032904
v 0.016007 0.020883 0.028313
v 0.017466 0.019414 0.028257
v 0.014539 0.020883 0.028200
v 0.003207 -0.022605 0.024784
v -0.007441 0.022125 0.035051
v -0.006480 0.023006 0.034677
v -0.066832 -0.005561 0.040054
v -0.066832 -0.006291 0.040553
v -0.004513 0.022343 0.035372
v -0.004513 0.023249 0.034837
v -0.005991 0.022452 0.035119
v -0.003054 0.024080 0.034384
v 0.001351 0.023442 0.034972
v 0.002819 0.023392 0.034928
v -0.000117 0.023442 0.034979
v -0.001586 0.023442 0.034966
v -0.003054 0.023358 0.034913
v 0.015943 0.021957 0.030959
v 0.004269 0.022343 0.035386
v 0.007215 0.020883 0.035725
v 0.008684 0.020883 0.035473
v 0.009644 0.021730 0.034795
v 0.010632 0.021478 0.034638
v 0.011602 0.021210 0.034452
v 0.013126 0.020899 0.034030
v 0.014539 0.020547 0.033581
v 0.015388 0.020220 0.033332
v 0.014539 0.021269 0.032947
v 0.016367 0.019842 0.032987
v 0.017005 0.020354 0.032013
v 0.017983 0.019943 0.031545
v 0.016377 0.021327 0.031381
v 0.018381 0.020304 0.030568
v 0.017392 0.020841 0.028600
v 0.019221 0.019666 0.029595
v 0.019849 0.018860 0.028727
v 0.018907 0.019380 0.028563
v -0.004126 -0.023444 0.024784
v -0.004329 -0.023755 0.024784
v -0.004818 -0.024561 0.024784
v -0.004929 -0.024804 0.024784
v -0.015319 0.019414 0.028178
v -0.055307 -0.005225 0.032514
v -0.005206 -0.025484 0.024784
v -0.005354 -0.026214 0.024784
v -0.005372 -0.026583 0.024784
v -0.005391 -0.027489 0.024784
v -0.066795 -0.026021 0.037301
v -0.066832 -0.030662 0.042289
v 0.018944 0.017954 0.028263
v 0.004020 -0.023344 0.024784
v -0.066832 -0.006979 0.040942
v -0.066832 -0.007701 0.041347
v -0.007441 0.020883 0.035694
v -0.005945 0.020765 0.035948
v -0.004513 0.021034 0.035987
v -0.003054 0.022343 0.035495
v -0.066832 -0.008414 0.041730
v -0.066832 -0.009102 0.042088
v 0.001351 0.022343 0.035589
v 0.002819 0.022343 0.035517
v -0.000117 0.022343 0.035595
v -0.001586 0.022343 0.035576
v 0.017392 0.020807 0.030973
v 0.004269 0.021059 0.035991
v 0.005756 0.020765 0.035961
v 0.007215 0.019901 0.036105
v 0.008684 0.019607 0.036009
v 0.010004 0.019263 0.035882
v 0.011602 0.019414 0.035466
v 0.010134 0.020933 0.035095
v 0.011602 0.020480 0.034918
v 0.012489 0.020228 0.034771
v 0.013467 0.019909 0.034590
v 0.014594 0.019422 0.034356
v 0.015924 0.019380 0.033654
v 0.016958 0.018860 0.033422
v 0.017466 0.019414 0.032527
v 0.018491 0.018978 0.032064
v 0.019461 0.018449 0.031517
v 0.018916 0.019389 0.031043
v 0.019821 0.018835 0.030537
v 0.019914 0.018944 0.029595
v 0.021271 0.017358 0.028751
v 0.020357 0.017895 0.028582
v 0.020403 0.016477 0.028281
v -0.039875 -0.058213 0.031893
v -0.066592 -0.027481 0.037301
v -0.005280 -0.028329 0.024784
v -0.066685 -0.030662 0.039610
v -0.066703 -0.030662 0.039853
v -0.066832 -0.030662 0.047116
v 0.021871 0.013540 0.028213
v 0.004546 -0.024065 0.024784
v -0.066832 -0.009295 0.042184
v -0.066832 -0.009858 0.042460
v -0.066832 -0.011410 0.043175
v -0.066832 -0.012149 0.043494
v -0.004513 0.020304 0.036238
v -0.003054 0.020421 0.036284
v -0.003054 0.021151 0.036031
v -0.066832 -0.012845 0.043785
v -0.066832 -0.013668 0.044104
v -0.066832 -0.014314 0.044349
v -0.066832 -0.014901 0.044555
v 0.001351 0.021269 0.036066
v 0.002496 0.021210 0.036046
v 0.002819 0.021185 0.036039
v -0.000117 0.021269 0.036070
v -0.001586 0.021260 0.036059
v 0.004269 0.020329 0.036245
v 0.005276 0.020220 0.036212
v 0.006255 0.020069 0.036160
v 0.007215 0.019171 0.036341
v 0.008684 0.018860 0.036245
v 0.009432 0.018701 0.036188
v 0.010411 0.018424 0.036105
v 0.011685 0.017937 0.036020
v 0.013080 0.017954 0.035676
v 0.013006 0.019422 0.035025
v 0.014142 0.018944 0.034861
v 0.015121 0.018558 0.034653
v 0.016109 0.018013 0.034467
v 0.017466 0.017929 0.033721
v 0.018399 0.017417 0.033413
v 0.017937 0.018399 0.033035
v 0.019378 0.016905 0.033004
v 0.019914 0.017475 0.032033
v 0.020893 0.016930 0.031462
v 0.020357 0.017895 0.031001
v 0.021244 0.017316 0.030487
v 0.020652 0.018147 0.029595
v 0.021317 0.017417 0.029595
v 0.022601 0.015747 0.028860
v 0.022832 0.015008 0.028711
v 0.021807 0.016326 0.028663
v 0.021871 0.015008 0.028379
v 0.023331 0.012079 0.028285
v -0.038129 -0.057634 0.031893
v -0.038499 -0.057701 0.031965
v -0.039681 -0.057902 0.032167
v -0.039875 -0.058020 0.032101
v -0.055307 -0.041135 0.044231
v -0.066066 -0.030662 0.038119
v -0.065853 -0.030662 0.037957
v -0.005095 -0.028857 0.024784
v -0.005003 -0.029059 0.024784
v -0.004273 -0.030360 0.024784
v -0.002408 -0.033179 0.024784
v 0.006061 -0.035638 0.024784
v -0.025080 -0.052909 0.031003
v -0.055307 -0.040682 0.044354
v -0.055307 -0.039171 0.044701
v -0.055307 -0.038089 0.044911
v -0.055307 -0.037367 0.045036
v -0.055307 -0.036234 0.045202
v -0.055307 -0.034816 0.045362
v -0.055307 -0.033347 0.045502
v -0.066324 -0.030662 0.047054
v -0.066075 -0.030418 0.047030
v -0.066832 -0.030418 0.047120
v 0.023331 0.010611 0.028204
v 0.008573 -0.030418 0.024784
v 0.008065 -0.029554 0.024784
v 0.004749 -0.024351 0.024784
v -0.001586 0.020522 0.036313
v -0.066832 -0.015657 0.044811
v -0.066832 -0.016336 0.045032
v 0.001351 0.020522 0.036317
v 0.002819 0.020455 0.036291
v -0.000117 0.020547 0.036324
v 0.004269 0.019414 0.036481
v 0.005756 0.019515 0.036367
v 0.007215 0.017954 0.036599
v 0.008684 0.017954 0.036475
v 0.010004 0.017937 0.036313
v 0.011233 0.017442 0.036256
v 0.012212 0.017123 0.036157
v 0.013080 0.016796 0.036066
v 0.014400 0.016326 0.035864
v 0.014594 0.018013 0.035136
v 0.015684 0.017568 0.034915
v 0.016672 0.017140 0.034688
v 0.017559 0.016578 0.034471
v 0.018907 0.016435 0.033689
v 0.019812 0.015915 0.033385
v 0.020348 0.016410 0.032486
v 0.021290 0.015940 0.031959
v 0.021558 0.016452 0.031010
v 0.022887 0.014714 0.030793
v 0.022564 0.015696 0.029840
v 0.022601 0.015747 0.028862
v 0.024226 0.013086 0.029595
v 0.024180 0.013019 0.028751
v 0.023377 0.013514 0.028543
v 0.024393 0.012079 0.028615
v 0.024808 0.009150 0.028340
v 0.024808 0.007682 0.028222
v -0.037418 -0.057391 0.031893
v -0.036449 -0.055922 0.033096
v -0.037428 -0.056090 0.033280
v -0.039875 -0.057198 0.032925
v -0.039875 -0.057290 0.032834
v -0.054319 -0.041135 0.044061
v -0.039875 -0.056560 0.033542
v -0.039875 -0.055662 0.034364
v -0.039875 -0.054923 0.034977
v -0.039875 -0.053832 0.035770
v -0.039875 -0.053186 0.036217
v -0.039875 -0.052632 0.036542
v -0.039875 -0.052490 0.036623
v -0.039875 -0.050996 0.037424
v -0.039875 -0.050375 0.037723
v 0.006329 -0.035412 0.024784
v 0.006061 -0.035588 0.024957
v -0.006037 -0.042411 0.031003
v -0.007358 -0.043283 0.031003
v -0.011948 -0.046103 0.031003
v -0.013333 -0.046934 0.031003
v -0.014626 -0.047664 0.031003
v -0.016261 -0.048562 0.031003
v -0.017378 -0.049166 0.031003
v -0.018966 -0.049980 0.031003
v -0.020250 -0.050618 0.031003
v -0.022088 -0.051516 0.031003
v -0.023233 -0.052062 0.031003
v -0.023529 -0.052129 0.031119
v -0.023021 -0.051575 0.031646
v -0.027020 -0.053220 0.031893
v -0.054346 -0.040682 0.044187
v -0.054346 -0.039213 0.044522
v -0.054411 -0.037686 0.044822
v -0.054937 -0.037157 0.045008
v -0.052887 -0.039213 0.044257
v 0.004260 -0.026004 0.036326
v 0.011602 -0.017218 0.036492
v 0.014548 -0.012845 0.036610
v 0.016007 -0.011377 0.036553
v -0.055307 -0.032844 0.045537
v -0.057283 -0.030662 0.045944
v -0.058918 -0.030662 0.046145
v 0.017466 -0.008448 0.036588
v -0.066832 -0.028950 0.047113
v -0.057283 -0.030410 0.045950
v 0.018944 0.000347 0.036671
v 0.009108 -0.031904 0.024784
v -0.066832 -0.016613 0.045110
v -0.066832 -0.017184 0.045270
v 0.001351 0.019414 0.036575
v 0.002819 0.019414 0.036538
v -0.066832 -0.018686 0.045648
v -0.066832 -0.019433 0.045832
v -0.066832 -0.020155 0.046005
v -0.066832 -0.020734 0.046143
v 0.005738 0.017954 0.036680
v 0.008684 0.016477 0.036704
v 0.010143 0.016477 0.036597
v -0.066832 -0.022404 0.046492
v -0.066832 -0.023117 0.046593
v 0.011685 0.016561 0.036385
v 0.013080 0.016049 0.036267
v 0.013828 0.015747 0.036188
v 0.014807 0.015277 0.036072
v 0.015869 0.014866 0.035869
v 0.016109 0.016578 0.035180
v 0.017115 0.016166 0.034913
v 0.018104 0.015638 0.034666
v 0.020145 0.015008 0.033638
v 0.021123 0.014261 0.033245
v 0.020874 0.015008 0.033006
v 0.018962 0.015084 0.034410
v 0.021594 0.015008 0.032278
v 0.022583 0.014261 0.031769
v 0.022361 0.015126 0.031191
v 0.023377 0.013623 0.031128
v 0.024162 0.012961 0.030489
v 0.023774 0.013816 0.029595
v 0.025575 0.009973 0.030397
v 0.025612 0.010057 0.029595
v 0.025603 0.010040 0.028792
v 0.025750 0.009150 0.028672
v 0.025953 0.007682 0.028558
v 0.026267 0.004761 0.028449
v 0.026267 0.003276 0.028357
v 0.026267 0.001816 0.028307
v -0.027961 -0.053413 0.032127
v -0.027961 -0.052792 0.032860
v -0.035285 -0.055695 0.032842
v -0.029042 -0.052993 0.033109
v -0.030021 -0.053186 0.033310
v -0.035285 -0.054965 0.033588
v -0.036864 -0.055393 0.033732
v -0.037594 -0.054571 0.034695
v -0.038222 -0.056216 0.033396
v -0.052887 -0.041135 0.043811
v -0.039681 -0.055637 0.034336
v -0.038139 -0.054000 0.035241
v -0.039164 -0.053060 0.036138
v -0.038222 -0.052154 0.036464
v -0.036753 -0.051877 0.036302
v -0.039579 -0.050912 0.037404
v -0.032847 -0.050308 0.036238
v -0.039025 -0.050165 0.037636
v 0.007631 -0.034304 0.024784
v 0.007788 -0.033943 0.025488
v 0.006246 -0.035353 0.025195
v 0.006624 -0.034203 0.027732
v 0.006061 -0.034975 0.026824
v -0.000173 -0.038206 0.031003
v -0.003128 -0.040338 0.031003
v -0.005308 -0.041370 0.031736
v -0.006988 -0.042696 0.031539
v -0.011514 -0.045549 0.031427
v -0.012493 -0.045851 0.031852
v -0.013268 -0.046850 0.031073
v -0.014303 -0.047127 0.031572
v -0.017138 -0.048646 0.031650
v -0.020047 -0.050123 0.031666
v -0.021026 -0.050366 0.031992
v -0.024000 -0.051801 0.031957
v -0.022854 -0.050199 0.033240
v -0.025015 -0.051407 0.032960
v -0.026475 -0.052414 0.032545
v -0.052887 -0.040682 0.043927
v 0.007215 -0.021623 0.036560
v 0.008674 -0.020155 0.036540
v -0.000829 -0.031165 0.036188
v 0.003752 -0.026936 0.036234
v 0.005230 -0.025492 0.036234
v 0.007169 -0.023058 0.036317
v 0.008637 -0.021556 0.036311
v 0.012729 -0.017218 0.036273
v 0.013126 -0.015950 0.036409
v 0.014622 -0.014373 0.036374
v 0.016035 -0.012820 0.036341
v 0.017162 -0.011377 0.036306
v 0.017586 -0.010009 0.036396
v -0.055307 -0.031887 0.045602
v 0.017466 -0.006988 0.036682
v 0.018944 -0.004042 0.036593
v 0.018944 -0.002573 0.036643
v 0.018685 -0.008448 0.036335
v 0.019046 -0.007038 0.036381
v 0.018944 -0.005511 0.036516
v -0.066832 -0.027481 0.047050
v 0.018944 0.001816 0.036656
v 0.018944 0.003276 0.036621
v 0.017466 0.006222 0.036711
v 0.018944 -0.001121 0.036665
v 0.020302 -0.001121 0.036387
v 0.020302 0.000347 0.036391
v 0.008554 -0.033381 0.024784
v 0.026267 0.000347 0.028281
v 0.026267 -0.001121 0.028292
v 0.026267 -0.002573 0.028329
v 0.026267 -0.004042 0.028392
v 0.026055 -0.006988 0.028536
v 0.025870 -0.008448 0.028598
v -0.066832 -0.021523 0.046320
v -0.066832 -0.021875 0.046392
v -0.066832 -0.022253 0.046468
v -0.066832 -0.023822 0.046683
v -0.066832 -0.024552 0.046774
v -0.066832 -0.026021 0.046939
v 0.011602 0.015008 0.036652
v 0.013080 0.015008 0.036486
v 0.014400 0.014866 0.036262
v 0.015287 0.014286 0.036186
v 0.016358 0.013540 0.036085
v 0.017466 0.013540 0.035733
v 0.017559 0.015084 0.035158
v 0.018501 0.014647 0.034894
v 0.019480 0.014010 0.034614
v 0.020652 0.012927 0.034286
v 0.021447 0.013279 0.033525
v 0.022287 0.012927 0.032945
v 0.022887 0.013271 0.032112
v 0.023857 0.012381 0.031467
v 0.024328 0.011970 0.031010
v 0.024106 0.011425 0.031836
v 0.025298 0.009150 0.031410
v 0.025482 0.008219 0.031703
v 0.025723 0.009150 0.030677
v 0.026979 0.005382 0.030013
v 0.026369 0.007682 0.029595
v 0.025935 0.009150 0.029595
v 0.027015 0.005525 0.028851
v 0.027071 0.004761 0.028781
v 0.027154 0.003276 0.028687
v 0.027228 0.001816 0.028637
v 0.027256 0.000347 0.028611
v -0.025902 -0.051600 0.033186
v -0.026881 -0.051827 0.033409
v -0.027961 -0.052053 0.033610
v -0.030889 -0.053362 0.033470
v -0.035285 -0.054134 0.034323
v -0.036753 -0.054420 0.034565
v -0.035285 -0.053396 0.034918
v -0.036753 -0.053681 0.035119
v -0.051779 -0.041135 0.043593
v -0.038222 -0.052884 0.036028
v -0.036753 -0.052607 0.035854
v -0.035922 -0.051709 0.036208
v -0.036753 -0.050937 0.036779
v -0.034943 -0.051499 0.036092
v -0.031868 -0.050089 0.036127
v -0.029882 -0.048873 0.036245
v -0.026973 -0.047412 0.036238
v -0.024083 -0.045919 0.036227
v -0.037141 -0.048931 0.037721
v 0.008194 -0.033767 0.024784
v 0.008093 -0.032760 0.028125
v 0.007557 -0.033750 0.026660
v 0.006827 -0.034379 0.026660
v 0.008342 -0.033011 0.026660
v 0.006421 -0.034027 0.028707
v 0.006061 -0.034447 0.028386
v 0.006061 -0.034589 0.027966
v 0.007151 -0.033582 0.028182
v -0.001004 -0.038366 0.031640
v 0.006061 -0.034186 0.029037
v 0.000603 -0.037602 0.031003
v 0.000612 -0.037015 0.031793
v -0.002666 -0.039692 0.031449
v -0.006268 -0.041714 0.032140
v -0.003645 -0.040036 0.031913
v -0.007977 -0.042998 0.031948
v -0.009741 -0.044274 0.031696
v -0.010719 -0.044576 0.032075
v -0.013296 -0.046095 0.032134
v -0.015272 -0.047404 0.031952
v -0.018117 -0.048906 0.031996
v -0.022088 -0.050618 0.032296
v -0.019160 -0.049175 0.032304
v -0.019160 -0.048545 0.033037
v -0.019908 -0.048730 0.033249
v -0.020878 -0.048965 0.033461
v -0.022088 -0.049259 0.033710
v -0.023455 -0.049519 0.034041
v -0.023833 -0.050408 0.033446
v -0.002482 -0.032500 0.036155
v -0.001586 -0.032172 0.036044
v -0.000256 -0.031744 0.035814
v 0.004260 -0.027448 0.035943
v 0.004722 -0.026474 0.036116
v 0.006209 -0.024980 0.036123
v 0.007640 -0.023520 0.036118
v 0.008111 -0.022547 0.036223
v 0.009543 -0.021028 0.036214
v 0.012378 -0.017998 0.036195
v 0.011510 -0.018569 0.036273
v 0.013791 -0.016462 0.036182
v 0.014188 -0.015480 0.036273
v 0.016524 -0.013298 0.036133
v 0.016875 -0.012333 0.036223
v 0.015545 -0.013919 0.036252
v 0.018159 -0.010563 0.036168
v 0.018427 -0.009589 0.036256
v 0.020117 -0.004042 0.036335
v 0.020237 -0.002573 0.036374
v 0.019424 -0.008448 0.036105
v 0.019609 -0.007558 0.036162
v 0.019794 -0.006576 0.036227
v 0.019951 -0.005511 0.036278
v 0.016007 0.009150 0.036717
v 0.014548 0.012079 0.036665
v 0.020265 0.001816 0.036381
v 0.018944 0.004761 0.036558
v 0.020191 0.003276 0.036356
v 0.017466 0.007682 0.036639
v 0.021022 -0.001121 0.036147
v 0.021040 0.000347 0.036151
v 0.016921 -0.022555 0.030553
v 0.014077 -0.025576 0.030664
v 0.025686 -0.009572 0.028720
v 0.024291 -0.012560 0.028676
v 0.022749 -0.015296 0.028729
v 0.019720 -0.019483 0.028819
v 0.019729 -0.019492 0.029593
v 0.019129 -0.020222 0.029593
v 0.018390 -0.021120 0.029593
v 0.018325 -0.021036 0.030494
v 0.027246 -0.001121 0.028624
v 0.027200 -0.002573 0.028657
v 0.027126 -0.004042 0.028722
v 0.027052 -0.005007 0.028801
v 0.013080 0.013540 0.036678
v 0.014539 0.013540 0.036492
v 0.015619 0.013540 0.036273
v 0.016700 0.012742 0.036173
v 0.016866 0.012927 0.036081
v 0.017494 0.012188 0.036046
v 0.018852 0.010569 0.035941
v 0.018944 0.012079 0.035543
v 0.018962 0.013514 0.035068
v 0.019849 0.012927 0.034819
v 0.020846 0.012079 0.034537
v 0.021908 0.012029 0.033743
v 0.022684 0.011500 0.033339
v 0.022426 0.012465 0.033083
v 0.023275 0.011962 0.032462
v 0.023617 0.010611 0.032768
v 0.023876 0.009453 0.033052
v 0.024273 0.010611 0.032038
v 0.025612 0.007245 0.031900
v 0.026351 0.006222 0.031062
v 0.025917 0.007724 0.031152
v 0.024485 0.009033 0.032549
v 0.024088 0.008471 0.033280
v 0.027015 0.005525 0.029035
v 0.027062 0.004409 0.030454
v 0.027302 0.003276 0.029595
v 0.027089 0.004829 0.029551
v 0.027431 0.001816 0.029595
v 0.027514 0.000347 0.029595
v -0.025015 -0.050677 0.033675
v -0.027961 -0.051197 0.034342
v -0.030196 -0.051659 0.034712
v -0.030760 -0.052364 0.034301
v -0.034361 -0.053220 0.034782
v -0.031175 -0.051852 0.034854
v -0.021220 -0.044416 0.036212
v -0.018394 -0.042897 0.036192
v -0.017415 -0.042587 0.036105
v -0.010368 -0.038215 0.036112
v -0.008438 -0.036821 0.036136
v -0.035377 -0.052280 0.035703
v -0.029421 -0.050769 0.035097
v -0.027961 -0.049468 0.035480
v -0.030889 -0.049846 0.036013
v -0.027961 -0.048394 0.036033
v -0.028913 -0.048629 0.036140
v -0.023575 -0.046464 0.035893
v -0.020684 -0.044979 0.035873
v 0.007954 -0.032625 0.028880
v 0.012655 -0.027070 0.030719
v 0.007215 -0.033011 0.029457
v 0.006190 -0.033834 0.029593
v -0.000367 -0.037384 0.032206
v -0.001983 -0.038718 0.032068
v 0.006061 -0.033943 0.029593
v 0.006061 -0.033884 0.029706
v 0.001259 -0.037073 0.031003
v 0.000030 -0.036670 0.032628
v -0.000967 -0.036931 0.033181
v 0.004722 -0.033851 0.031489
v 0.003752 -0.034254 0.031983
v -0.006915 -0.041261 0.033116
v -0.007450 -0.042134 0.032532
v -0.008900 -0.042629 0.032995
v -0.011440 -0.044139 0.033048
v -0.014192 -0.045717 0.033166
v -0.017009 -0.047253 0.033232
v -0.016233 -0.047664 0.032263
v -0.017988 -0.047505 0.033468
v -0.019160 -0.047807 0.033715
v -0.022088 -0.048361 0.034445
v -0.023085 -0.048612 0.034633
v -0.025080 -0.049804 0.034419
v -0.005973 -0.035202 0.036094
v -0.002999 -0.033339 0.036004
v -0.001586 -0.033356 0.035602
v 0.001416 -0.031971 0.035147
v 0.004278 -0.028950 0.035383
v 0.005738 -0.027489 0.035410
v 0.005728 -0.026004 0.035958
v 0.008637 -0.023058 0.035958
v 0.009090 -0.022009 0.036109
v 0.011944 -0.018980 0.036088
v 0.013458 -0.017218 0.036098
v 0.014557 -0.015950 0.036083
v 0.016035 -0.014373 0.036028
v 0.017402 -0.012820 0.035961
v 0.017900 -0.011377 0.036094
v 0.018916 -0.010009 0.036022
v 0.020856 -0.004042 0.036088
v 0.020966 -0.002573 0.036127
v 0.020403 -0.008448 0.035733
v 0.020329 -0.007038 0.035980
v 0.020680 -0.005511 0.036028
v 0.016007 0.010611 0.036617
v 0.020994 0.001816 0.036136
v 0.018944 0.006222 0.036470
v 0.020043 0.004761 0.036306
v 0.020911 0.003276 0.036109
v 0.017466 0.009150 0.036523
v 0.021871 -0.001121 0.035819
v 0.021871 0.000347 0.035834
v 0.016136 -0.023025 0.031003
v 0.013486 -0.025937 0.031001
v 0.017457 -0.021573 0.031001
v 0.026166 -0.008448 0.029595
v 0.025750 -0.009715 0.029595
v 0.025021 -0.011377 0.029595
v 0.024393 -0.012745 0.029595
v 0.024005 -0.013475 0.029595
v 0.022813 -0.015363 0.029595
v 0.022435 -0.015959 0.029593
v 0.022333 -0.016101 0.029593
v 0.021613 -0.017108 0.029593
v 0.021040 -0.017847 0.029593
v 0.019701 -0.019458 0.030360
v 0.017947 -0.020583 0.031473
v 0.018935 -0.019819 0.031001
v 0.027468 -0.001121 0.029595
v 0.027366 -0.002573 0.029595
v 0.027219 -0.004042 0.029595
v 0.027062 -0.005049 0.029595
v 0.026563 -0.006988 0.029595
v 0.016127 0.012188 0.036400
v 0.017023 0.011777 0.036267
v 0.018002 0.011039 0.036125
v 0.019258 0.009150 0.036053
v 0.020403 0.009150 0.035591
v 0.018307 0.010057 0.036217
v 0.020532 0.010703 0.035165
v 0.020117 0.012079 0.034972
v 0.021096 0.011265 0.034697
v 0.022887 0.010611 0.033525
v 0.021825 0.010703 0.034338
v 0.025132 0.006222 0.032794
v 0.025750 0.006222 0.032064
v 0.026701 0.004829 0.030990
v 0.024199 0.007682 0.033396
v 0.023377 0.009033 0.033697
v 0.022518 0.008143 0.034664
v 0.023229 0.007673 0.034213
v 0.027136 0.003276 0.030583
v 0.026738 0.003276 0.031316
v 0.027200 0.001816 0.030714
v 0.027246 0.000347 0.030793
v 0.027219 -0.001121 0.030756
v -0.027066 -0.050282 0.034771
v -0.017812 -0.043468 0.035849
v -0.014764 -0.042142 0.035661
v -0.016187 -0.042117 0.036000
v -0.013361 -0.040581 0.035928
v -0.011708 -0.039230 0.036048
v -0.010368 -0.039213 0.035755
v -0.008919 -0.037694 0.035963
v -0.026549 -0.049519 0.035073
v -0.023566 -0.048075 0.035088
v -0.025080 -0.048008 0.035515
v -0.022088 -0.046540 0.035501
v -0.019160 -0.045079 0.035466
v 0.007705 -0.032390 0.029859
v 0.012258 -0.026667 0.031696
v 0.012110 -0.027380 0.031001
v 0.011186 -0.028522 0.030695
v -0.002620 -0.038257 0.033043
v 0.006726 -0.032827 0.030616
v 0.002478 -0.036066 0.031003
v 0.001600 -0.035143 0.032866
v 0.000621 -0.035554 0.033260
v -0.000117 -0.035848 0.033494
v -0.001586 -0.036284 0.034010
v -0.001946 -0.037283 0.033472
v -0.006222 -0.040279 0.033531
v -0.005271 -0.039935 0.033247
v 0.006042 -0.033179 0.030916
v 0.006292 -0.032458 0.031596
v 0.005322 -0.032869 0.032068
v -0.007903 -0.041580 0.033402
v -0.009667 -0.042855 0.033240
v -0.015180 -0.045994 0.033420
v -0.012409 -0.044442 0.033336
v -0.013296 -0.044718 0.033570
v -0.016233 -0.046296 0.033667
v -0.017618 -0.046582 0.034041
v -0.019160 -0.046900 0.034447
v -0.020139 -0.047152 0.034631
v -0.024064 -0.048839 0.034789
v -0.021118 -0.047387 0.034795
v -0.005973 -0.036284 0.035718
v -0.003036 -0.034807 0.035451
v -0.001650 -0.034791 0.034981
v -0.000117 -0.033389 0.035068
v 0.002542 -0.031534 0.034913
v 0.004278 -0.030057 0.034900
v 0.005618 -0.028832 0.034883
v 0.007095 -0.027380 0.034900
v 0.008573 -0.025929 0.034913
v 0.007215 -0.026012 0.035429
v 0.008674 -0.024552 0.035442
v 0.010143 -0.023084 0.035418
v 0.010078 -0.021556 0.035937
v 0.012950 -0.018569 0.035882
v 0.014539 -0.017218 0.035753
v 0.016007 -0.015757 0.035648
v 0.017466 -0.014305 0.035539
v 0.018944 -0.011377 0.035731
v 0.020403 -0.009916 0.035438
v 0.021871 -0.004042 0.035661
v 0.021871 -0.002573 0.035770
v 0.021899 -0.008313 0.035007
v 0.021871 -0.006988 0.035287
v 0.021871 -0.005511 0.035493
v 0.021871 0.001816 0.035794
v 0.018990 0.007615 0.036341
v 0.019840 0.006222 0.036241
v 0.020763 0.004761 0.036059
v 0.020569 0.006222 0.035991
v 0.021871 0.003276 0.035725
v 0.018528 0.009150 0.036284
v 0.017494 0.010569 0.036341
v 0.023211 -0.001121 0.035123
v 0.023220 0.000347 0.035134
v 0.016977 -0.021145 0.032042
v 0.016524 -0.022119 0.031532
v 0.027025 -0.004898 0.030380
v 0.025667 -0.009497 0.030559
v 0.024273 -0.012518 0.030706
v 0.022730 -0.015245 0.030537
v 0.021447 -0.016890 0.030758
v 0.021077 -0.017142 0.031003
v 0.021096 -0.016437 0.031738
v 0.019729 -0.018023 0.031856
v 0.018353 -0.019609 0.031963
v 0.027172 -0.002573 0.030658
v 0.027089 -0.004042 0.030509
v 0.019720 0.007069 0.036199
v 0.020283 0.007615 0.035919
v 0.021964 0.007673 0.035097
v 0.021576 0.009150 0.034990
v 0.021317 0.010292 0.034832
v 0.022296 0.009150 0.034520
v 0.025298 0.004761 0.032989
v 0.024393 0.006222 0.033581
v 0.025898 0.004761 0.032261
v 0.023534 0.006222 0.034316
v 0.022675 0.007162 0.034767
v 0.026803 0.001816 0.031449
v 0.026009 0.003276 0.032387
v 0.026849 0.000347 0.031528
v 0.026831 -0.001121 0.031491
v -0.016233 -0.043602 0.035405
v -0.011837 -0.040673 0.035517
v -0.008900 -0.039213 0.035353
v -0.007422 -0.037745 0.035547
v -0.022088 -0.047631 0.034935
v -0.020620 -0.046615 0.035084
v -0.017720 -0.045121 0.035055
v -0.019160 -0.046154 0.034924
v 0.008222 -0.031409 0.030640
v 0.012710 -0.025694 0.032167
v 0.011741 -0.026155 0.032661
v 0.011279 -0.027145 0.032180
v 0.009801 -0.028589 0.032160
v 0.010771 -0.028119 0.031675
v 0.011722 -0.027599 0.031198
v 0.009284 -0.029571 0.031648
v 0.009035 -0.030334 0.031003
v 0.007141 -0.032139 0.031001
v 0.007502 -0.031803 0.031001
v 0.004722 -0.032382 0.033043
v 0.003752 -0.032785 0.033389
v 0.001203 -0.034715 0.033525
v -0.000117 -0.034791 0.034259
v -0.001216 -0.035261 0.034546
v 0.001416 -0.033389 0.034364
v -0.003036 -0.036687 0.034502
v -0.007145 -0.039616 0.034506
v -0.007515 -0.040615 0.033955
v -0.005492 -0.038299 0.034614
v 0.006818 -0.031476 0.032123
v 0.005793 -0.031929 0.032582
v -0.008900 -0.041899 0.033662
v -0.013194 -0.043611 0.034371
v -0.014423 -0.044097 0.034568
v -0.014792 -0.045054 0.033995
v -0.009888 -0.041261 0.034627
v -0.016233 -0.045365 0.034399
v -0.017249 -0.045642 0.034614
v -0.018228 -0.045919 0.034789
v -0.004403 -0.036402 0.035171
v -0.003036 -0.035940 0.034922
v -0.000598 -0.034287 0.034821
v -0.002195 -0.035638 0.034769
v 0.000381 -0.033901 0.034607
v 0.001951 -0.032508 0.034660
v 0.003512 -0.031123 0.034708
v 0.005036 -0.029713 0.034736
v 0.008019 -0.026818 0.034754
v 0.009496 -0.025366 0.034762
v 0.010050 -0.024452 0.034918
v 0.011510 -0.022958 0.034889
v 0.011602 -0.021623 0.035366
v 0.014650 -0.018795 0.035162
v 0.016072 -0.017268 0.035101
v 0.018362 -0.015237 0.034799
v 0.018676 -0.014305 0.034979
v 0.019073 -0.012980 0.035213
v 0.017272 -0.015950 0.035036
v 0.020431 -0.011335 0.035047
v 0.021225 -0.010806 0.034771
v 0.021410 -0.009916 0.034896
v 0.023054 -0.004042 0.035025
v 0.023164 -0.002573 0.035093
v 0.022601 -0.007726 0.034721
v 0.022703 -0.006988 0.034789
v 0.022897 -0.005511 0.034913
v 0.023192 0.001816 0.035108
v 0.021871 0.004761 0.035589
v 0.021871 0.006222 0.035392
v 0.023118 0.003276 0.035066
v 0.023940 -0.001121 0.034631
v 0.023959 0.000347 0.034644
v 0.016469 -0.020583 0.033017
v 0.013634 -0.023621 0.033103
v 0.017420 -0.020096 0.032492
v 0.026692 -0.004042 0.031242
v 0.026591 -0.005435 0.030946
v 0.026166 -0.006988 0.031062
v 0.025796 -0.008355 0.031053
v 0.025381 -0.008775 0.031539
v 0.025187 -0.009958 0.031053
v 0.023996 -0.011964 0.031683
v 0.024531 -0.011435 0.031141
v 0.023774 -0.012929 0.031141
v 0.023026 -0.014289 0.031040
v 0.022426 -0.014767 0.031517
v 0.021761 -0.016210 0.031001
v 0.020052 -0.017218 0.032186
v 0.022730 -0.013794 0.031948
v 0.021447 -0.015447 0.032127
v 0.019646 -0.016445 0.033229
v 0.017873 -0.019005 0.032938
v 0.026766 -0.002573 0.031392
v 0.022804 0.006222 0.034854
v 0.025418 0.003276 0.033113
v 0.024568 0.004761 0.033739
v 0.023728 0.004761 0.034471
v 0.026074 0.001816 0.032464
v 0.025482 0.001816 0.033194
v 0.026120 0.000347 0.032510
v 0.026101 -0.001121 0.032492
v 0.026037 -0.002573 0.032433
v -0.016233 -0.044626 0.034883
v -0.015392 -0.044400 0.034754
v -0.014848 -0.043611 0.034992
v -0.013194 -0.042268 0.035162
v -0.008900 -0.040220 0.034861
v -0.008124 -0.039969 0.034736
v -0.005991 -0.037787 0.035058
v -0.010368 -0.040732 0.035064
v 0.012202 -0.025131 0.033140
v 0.010743 -0.026633 0.033155
v 0.006273 -0.030964 0.033096
v 0.005294 -0.031400 0.033452
v 0.004260 -0.031887 0.033739
v 0.002939 -0.031971 0.034463
v -0.003830 -0.036964 0.034699
v -0.008900 -0.040942 0.034395
v -0.012640 -0.042830 0.034695
v -0.004818 -0.037325 0.034872
v 0.004278 -0.030788 0.034493
v 0.005664 -0.030334 0.033951
v 0.006015 -0.029243 0.034447
v 0.008988 -0.026348 0.034480
v 0.010475 -0.024871 0.034493
v 0.010946 -0.023889 0.034754
v 0.012369 -0.022387 0.034734
v 0.013791 -0.020876 0.034712
v 0.014234 -0.019895 0.034913
v 0.013218 -0.020289 0.035197
v 0.015213 -0.019358 0.034690
v 0.015629 -0.018376 0.034889
v 0.017005 -0.016815 0.034843
v 0.016607 -0.017788 0.034649
v 0.017974 -0.016194 0.034585
v 0.019415 -0.014305 0.034561
v 0.019655 -0.013559 0.034712
v 0.019960 -0.012585 0.034889
v 0.020939 -0.011779 0.034600
v 0.021899 -0.011427 0.034025
v 0.022149 -0.009916 0.034399
v 0.022407 -0.008700 0.034585
v 0.023792 -0.004042 0.034522
v 0.023894 -0.002573 0.034596
v 0.024171 -0.007986 0.033363
v 0.023441 -0.006988 0.034237
v 0.023626 -0.005511 0.034393
v 0.023912 0.001816 0.034614
v 0.022989 0.004761 0.034979
v 0.023848 0.003276 0.034563
v 0.024771 -0.001121 0.033901
v 0.024753 0.001816 0.033885
v 0.024781 0.000347 0.033914
v 0.016894 -0.019609 0.033378
v 0.015499 -0.021128 0.033420
v 0.012646 -0.024158 0.033483
v 0.025963 -0.004042 0.032331
v 0.025824 -0.005511 0.032162
v 0.025658 -0.006988 0.031957
v 0.025556 -0.007802 0.031830
v 0.024208 -0.010991 0.031963
v 0.023395 -0.011511 0.032593
v 0.022564 -0.012048 0.033221
v 0.023017 -0.012845 0.032247
v 0.022324 -0.012845 0.032978
v 0.020976 -0.014792 0.033100
v 0.018593 -0.017218 0.033560
v 0.018270 -0.018032 0.033304
v 0.019997 -0.015464 0.033542
v 0.024679 0.003276 0.033831
v 0.025519 0.000347 0.033240
v 0.025501 -0.001121 0.033218
v 0.025455 -0.002573 0.033162
v 0.011233 -0.025652 0.033516
v 0.009773 -0.027095 0.033503
v 0.006790 -0.029982 0.033470
v 0.010124 -0.026004 0.033997
v 0.011574 -0.024510 0.033990
v 0.011916 -0.023361 0.034461
v 0.014650 -0.020289 0.034504
v 0.014557 -0.021615 0.033761
v 0.015989 -0.020121 0.033702
v 0.016072 -0.018795 0.034441
v 0.017485 -0.017268 0.034334
v 0.018999 -0.015824 0.034065
v 0.020440 -0.014305 0.033800
v 0.021594 -0.012845 0.033638
v 0.020431 -0.012980 0.034436
v 0.022795 -0.011074 0.033446
v 0.023054 -0.009916 0.033667
v 0.024476 -0.005511 0.033660
v 0.024624 -0.004042 0.033789
v 0.024716 -0.002573 0.033861
v 0.024310 -0.006988 0.033503
v 0.023977 -0.008943 0.033155
v 0.024781 -0.008381 0.032495
v 0.025039 -0.006988 0.032685
v 0.017420 -0.018594 0.033608
v 0.025362 -0.004042 0.033059
v 0.025205 -0.005511 0.032890
v 0.024420 -0.009916 0.032215
v 0.023774 -0.009916 0.032943
v 0.021290 -0.013810 0.033393
f 273 274 229
f 234 229 274
f 274 276 234
f 273 276 330
f 330 276 274
f 335 336 273
f 229 234 181
f 273 278 235
f 235 181 234
f 331 274 273
f 273 330 331
f 331 330 274
f 273 229 275
f 791 669 701
f 818 791 701
f 228 180 177
f 131 180 132
f 277 234 276
f 277 235 234
f 277 276 273
f 273 235 277
f 91 82 52
f 81 85 45
f 41 81 45
f 229 180 233
f 233 275 229
f 334 335 273
f 791 818 905
f 905 1014 997
f 431 532 429
f 550 442 549
f 673 550 652
f 128 175 177
f 184 185 132
f 88 131 132
f 132 130 88
f 52 82 42
f 81 41 80
f 180 228 230
f 333 334 273
f 1111 1110 1066
f 435 440 545
f 534 429 533
f 533 429 532
f 652 550 531
f 531 429 534
f 436 435 547
f 547 441 436
f 550 673 551
f 177 180 179
f 180 131 179
f 175 128 126
f 85 81 126
f 126 128 85
f 136 184 139
f 139 184 140
f 183 184 132
f 140 184 183
f 132 182 183
f 183 182 140
f 186 184 136
f 185 184 186
f 132 185 186
f 186 135 132
f 137 186 136
f 135 186 137
f 92 130 132
f 131 88 129
f 85 128 129
f 89 88 130
f 130 92 89
f 193 194 140
f 140 182 193
f 191 238 239
f 239 197 191
f 194 238 191
f 140 194 191
f 357 440 435
f 517 422 512
f 329 278 273
f 481 513 510
f 420 510 513
f 278 343 344
f 344 343 424
f 347 278 346
f 346 429 347
f 431 429 346
f 513 630 631
f 712 627 586
f 586 513 481
f 586 627 513
f 188 133 187
f 187 133 173
f 79 91 52
f 123 169 173
f 83 42 82
f 83 80 42
f 44 80 41
f 384 470 471
f 432 471 539
f 349 384 432
f 384 471 432
f 432 544 538
f 188 237 190
f 125 133 91
f 91 79 125
f 125 79 78
f 173 133 125
f 236 237 188
f 236 279 237
f 180 230 231
f 273 275 332
f 332 333 273
f 662 538 661
f 538 544 661
f 672 793 794
f 672 661 544
f 778 661 672
f 906 905 997
f 880 773 763
f 537 532 431
f 879 880 762
f 762 880 763
f 1079 1120 1121
f 1078 1079 997
f 1078 1120 1079
f 997 1014 1078
f 1094 1120 1078
f 980 981 878
f 882 883 765
f 1067 985 1066
f 1067 1068 985
f 987 883 882
f 1059 981 980
f 980 978 1059
f 1060 1059 1058
f 981 1059 1060
f 1066 985 1063
f 1063 1111 1066
f 547 435 546
f 435 545 546
f 652 531 651
f 651 531 534
f 442 360 445
f 358 436 441
f 441 360 358
f 443 442 550
f 550 551 443
f 443 360 442
f 451 367 366
f 366 367 305
f 224 175 174
f 175 126 174
f 66 69 32
f 87 53 50
f 88 89 50
f 95 137 136
f 135 137 95
f 132 135 134
f 178 179 131
f 131 129 178
f 178 129 128
f 178 128 177
f 177 179 178
f 87 50 90
f 90 50 89
f 244 197 239
f 282 283 241
f 136 139 98
f 98 139 140
f 142 191 197
f 143 98 142
f 101 64 105
f 353 286 291
f 353 354 286
f 291 286 285
f 285 242 291
f 286 242 285
f 291 242 290
f 241 242 195
f 195 142 197
f 288 242 284
f 241 283 284
f 284 242 241
f 437 357 434
f 438 357 437
f 434 357 352
f 286 354 352
f 440 357 439
f 439 357 438
f 435 436 355
f 355 357 435
f 515 631 632
f 632 753 633
f 633 515 632
f 342 343 278
f 278 341 342
f 424 343 342
f 278 339 340
f 340 341 278
f 340 420 421
f 338 339 278
f 278 329 338
f 393 329 392
f 392 329 391
f 394 329 393
f 395 329 394
f 397 329 396
f 396 329 395
f 514 420 513
f 421 420 514
f 513 631 514
f 514 515 421
f 631 515 514
f 278 344 345
f 345 346 278
f 431 346 430
f 646 762 763
f 524 525 426
f 273 336 337
f 336 412 337
f 397 396 485
f 923 922 1027
f 712 586 711
f 711 586 710
f 821 922 923
f 923 825 821
f 595 586 596
f 831 720 719
f 719 830 831
f 720 595 719
f 719 595 594
f 168 121 167
f 167 170 168
f 219 170 167
f 220 169 172
f 188 187 220
f 220 187 173
f 173 169 220
f 78 79 38
f 38 37 78
f 76 123 77
f 77 37 76
f 78 37 77
f 77 125 78
f 76 121 122
f 122 123 76
f 121 168 122
f 172 169 122
f 169 123 122
f 122 168 170
f 42 80 43
f 80 44 43
f 701 669 577
f 539 471 577
f 188 220 223
f 223 220 172
f 223 236 188
f 222 223 172
f 271 223 222
f 189 133 188
f 188 190 189
f 189 190 133
f 82 91 127
f 91 133 127
f 124 123 173
f 173 125 124
f 124 77 123
f 125 77 124
f 349 279 348
f 279 324 348
f 348 384 349
f 348 324 384
f 279 236 272
f 272 324 279
f 272 223 271
f 236 223 272
f 350 279 349
f 350 351 279
f 237 279 280
f 279 351 280
f 817 818 701
f 701 700 816
f 700 814 816
f 816 817 701
f 1093 1114 1094
f 265 312 313
f 379 462 464
f 379 463 462
f 379 380 320
f 384 324 383
f 807 691 695
f 232 233 180
f 180 231 232
f 225 175 224
f 177 175 225
f 225 226 177
f 227 228 177
f 177 226 227
f 227 230 228
f 793 672 792
f 791 905 792
f 905 906 792
f 795 672 794
f 778 672 795
f 402 403 336
f 336 400 401
f 401 402 336
f 496 402 401
f 401 400 490
f 893 773 892
f 773 880 892
f 892 993 893
f 892 992 993
f 763 773 657
f 657 646 763
f 653 533 532
f 532 537 653
f 1094 1078 1023
f 1023 1078 1014
f 779 661 778
f 661 779 780
f 1065 1114 1072
f 1072 992 1065
f 1114 1093 1072
f 993 992 1072
f 985 882 881
f 647 765 648
f 648 765 649
f 648 528 647
f 649 528 648
f 882 765 764
f 764 881 882
f 878 881 764
f 764 765 647
f 649 765 766
f 879 762 766
f 766 883 879
f 766 765 883
f 1068 1067 1115
f 1115 1112 1068
f 1115 1067 1066
f 1066 1118 1115
f 1115 1118 1121
f 1115 1121 1120
f 1120 1112 1115
f 1113 1112 1120
f 1113 1120 1094
f 1094 1114 1113
f 1113 1114 1065
f 985 1068 986
f 1068 987 986
f 986 882 985
f 986 987 882
f 1064 987 1068
f 1064 1113 1065
f 1068 1112 1064
f 1112 1113 1064
f 871 872 753
f 874 975 875
f 875 975 876
f 974 975 874
f 974 1051 1050
f 876 975 979
f 667 668 538
f 977 978 876
f 1058 1059 977
f 977 1059 978
f 1052 974 1050
f 981 1060 1061
f 1062 1063 981
f 1111 1063 1062
f 981 1061 1062
f 1110 1111 1062
f 1062 1061 1110
f 652 651 767
f 656 651 534
f 772 767 656
f 656 767 651
f 679 799 800
f 66 65 103
f 103 69 66
f 102 148 103
f 114 69 113
f 444 445 360
f 444 441 547
f 444 360 441
f 548 549 442
f 442 445 548
f 360 300 359
f 359 358 360
f 359 300 298
f 298 297 359
f 359 297 358
f 361 300 360
f 360 443 361
f 361 301 300
f 552 443 551
f 552 551 673
f 260 259 306
f 680 556 679
f 679 800 680
f 451 556 557
f 554 675 555
f 101 104 63
f 63 104 102
f 102 103 63
f 63 103 65
f 70 32 69
f 121 109 151
f 167 121 151
f 67 32 72
f 72 116 117
f 72 115 116
f 87 90 54
f 54 53 87
f 54 89 92
f 54 90 89
f 197 244 245
f 240 282 241
f 241 195 240
f 240 195 197
f 281 282 240
f 240 245 281
f 197 245 240
f 140 191 192
f 191 142 192
f 289 242 288
f 289 290 242
f 434 352 433
f 433 352 354
f 286 352 296
f 296 352 357
f 436 358 356
f 356 355 436
f 358 297 356
f 421 515 516
f 515 633 634
f 517 516 634
f 634 516 515
f 422 342 419
f 419 342 341
f 512 422 419
f 341 340 419
f 417 340 339
f 420 340 417
f 510 420 417
f 339 338 416
f 416 417 339
f 510 417 416
f 481 510 416
f 391 329 388
f 329 389 388
f 327 388 389
f 388 327 387
f 423 342 422
f 424 342 423
f 647 528 644
f 876 978 877
f 980 878 877
f 877 978 980
f 758 875 876
f 758 757 874
f 874 875 758
f 521 639 642
f 520 639 521
f 424 423 521
f 521 423 520
f 427 344 426
f 427 345 344
f 346 345 427
f 426 430 427
f 427 430 346
f 527 430 426
f 523 644 528
f 428 523 528
f 424 523 428
f 428 344 424
f 525 524 428
f 336 403 404
f 415 473 472
f 413 337 412
f 579 473 578
f 578 507 579
f 488 591 592
f 488 487 590
f 399 487 488
f 592 591 714
f 714 715 592
f 819 715 714
f 928 922 831
f 922 928 1024
f 1024 928 960
f 831 830 927
f 579 702 703
f 703 702 819
f 513 627 628
f 712 711 826
f 826 711 825
f 825 925 826
f 824 711 710
f 825 711 824
f 820 821 710
f 922 821 820
f 820 720 831
f 831 922 820
f 710 821 822
f 822 821 825
f 829 927 830
f 489 593 594
f 594 595 489
f 592 593 489
f 489 595 596
f 399 488 489
f 489 488 592
f 596 586 489
f 481 399 489
f 489 586 481
f 586 595 708
f 708 595 720
f 708 820 710
f 720 820 708
f 377 376 462
f 462 463 377
f 39 79 52
f 39 38 79
f 16 43 44
f 16 44 41
f 42 43 16
f 540 432 539
f 540 577 669
f 539 577 540
f 544 432 543
f 432 542 543
f 221 222 172
f 320 380 321
f 321 380 381
f 381 322 321
f 320 321 270
f 270 321 322
f 271 222 270
f 270 322 271
f 133 190 176
f 176 127 133
f 381 324 323
f 324 272 323
f 323 322 381
f 271 322 323
f 323 272 271
f 921 1023 1014
f 818 817 921
f 921 905 818
f 1014 905 921
f 920 921 817
f 1092 1072 1093
f 204 219 167
f 250 219 204
f 166 165 204
f 167 151 204
f 204 151 166
f 118 165 166
f 166 151 118
f 118 72 117
f 375 374 460
f 460 376 375
f 376 460 459
f 459 460 374
f 573 698 700
f 919 815 915
f 915 815 809
f 697 698 570
f 697 815 814
f 809 815 697
f 697 814 700
f 700 698 697
f 570 464 569
f 693 569 568
f 695 691 568
f 568 694 695
f 464 567 568
f 568 569 464
f 566 567 464
f 566 568 567
f 646 657 536
f 536 527 646
f 536 537 431
f 533 653 655
f 768 655 653
f 997 1079 1080
f 1080 998 997
f 897 779 778
f 897 780 779
f 663 538 662
f 663 664 538
f 1066 1110 1116
f 1110 1123 1116
f 982 878 981
f 982 881 878
f 981 1063 982
f 982 1063 985
f 985 881 982
f 983 1064 1065
f 987 1064 983
f 879 883 983
f 883 987 983
f 753 872 755
f 752 753 632
f 632 631 752
f 752 631 630
f 1051 974 973
f 874 871 973
f 973 974 874
f 666 667 538
f 1054 979 975
f 1010 1085 1086
f 910 800 909
f 893 993 988
f 988 991 889
f 917 1018 916
f 991 1018 1070
f 1071 1018 991
f 1091 1017 1071
f 1071 1017 1018
f 146 104 101
f 111 69 110
f 69 103 110
f 110 148 111
f 110 103 148
f 298 300 299
f 154 155 111
f 251 297 298
f 114 113 158
f 158 115 114
f 116 115 158
f 112 69 111
f 112 113 69
f 304 255 303
f 553 675 554
f 674 673 652
f 674 552 673
f 652 767 674
f 675 553 674
f 674 553 552
f 305 367 307
f 307 306 305
f 307 308 260
f 260 306 307
f 155 154 207
f 207 154 206
f 256 306 259
f 305 306 256
f 256 255 304
f 304 305 256
f 256 207 255
f 257 207 256
f 155 207 208
f 208 207 257
f 259 209 258
f 258 256 259
f 257 256 258
f 258 208 257
f 209 208 258
f 210 259 260
f 210 209 259
f 801 799 679
f 796 767 772
f 772 891 796
f 796 674 767
f 675 674 796
f 559 457 453
f 457 372 453
f 556 680 681
f 450 555 556
f 451 366 450
f 450 556 451
f 798 801 679
f 73 37 36
f 76 119 120
f 120 119 109
f 120 121 76
f 120 109 121
f 67 72 68
f 68 73 36
f 68 32 67
f 68 34 32
f 32 70 71
f 71 72 32
f 71 69 114
f 71 70 69
f 114 115 71
f 115 72 71
f 49 50 19
f 19 48 49
f 135 95 94
f 141 142 98
f 141 192 142
f 141 98 140
f 140 192 141
f 198 144 143
f 145 146 101
f 243 195 242
f 243 203 195
f 202 203 243
f 357 355 292
f 355 356 292
f 418 340 421
f 418 419 340
f 390 338 329
f 390 416 338
f 481 416 390
f 390 399 481
f 390 329 399
f 273 327 328
f 328 327 389
f 328 329 273
f 328 389 329
f 478 387 477
f 391 388 480
f 388 387 480
f 273 337 325
f 422 517 518
f 759 760 641
f 877 760 759
f 876 877 759
f 759 758 876
f 431 430 535
f 430 527 535
f 535 536 431
f 527 536 535
f 646 527 526
f 426 525 526
f 526 527 426
f 644 523 522
f 522 523 424
f 424 521 522
f 522 521 641
f 344 428 425
f 425 428 524
f 426 344 425
f 425 524 426
f 405 406 336
f 336 404 405
f 477 476 581
f 503 409 408
f 408 409 336
f 411 412 336
f 415 507 508
f 507 578 508
f 507 620 621
f 398 485 486
f 486 487 398
f 397 485 398
f 398 487 399
f 398 329 397
f 399 329 398
f 589 488 590
f 589 487 486
f 590 487 589
f 591 488 589
f 486 588 589
f 589 588 591
f 704 703 819
f 483 394 393
f 713 714 591
f 591 588 713
f 1040 1031 1026
f 1026 1031 1027
f 1026 1027 922
f 929 928 831
f 831 927 929
f 960 928 929
f 929 927 960
f 933 1033 934
f 934 1033 1034
f 496 606 610
f 513 628 629
f 629 630 513
f 860 925 861
f 860 826 925
f 746 627 712
f 712 826 746
f 823 824 710
f 825 824 823
f 710 822 823
f 823 822 825
f 592 715 716
f 828 829 715
f 927 829 828
f 710 586 709
f 709 708 710
f 586 708 709
f 378 377 463
f 378 379 320
f 463 379 378
f 17 41 45
f 17 16 41
f 38 39 15
f 36 37 15
f 37 38 15
f 52 42 21
f 42 16 21
f 541 542 432
f 432 540 541
f 541 540 669
f 671 543 542
f 671 672 544
f 544 543 671
f 791 792 671
f 671 792 672
f 170 219 171
f 219 221 171
f 171 221 172
f 172 122 171
f 171 122 170
f 1023 921 1022
f 1022 920 1021
f 921 920 1022
f 1021 1092 1022
f 1022 1092 1093
f 1022 1093 1094
f 1094 1023 1022
f 1021 920 1019
f 817 816 918
f 918 920 817
f 918 816 814
f 814 815 918
f 918 815 919
f 919 1019 918
f 918 1019 920
f 1091 1071 1073
f 250 204 218
f 218 204 165
f 217 216 265
f 217 219 250
f 250 218 217
f 165 216 217
f 217 218 165
f 312 265 264
f 265 216 264
f 260 308 261
f 161 118 117
f 315 374 375
f 375 376 317
f 376 377 317
f 317 315 375
f 316 315 317
f 563 459 458
f 458 459 374
f 698 573 696
f 808 915 809
f 691 807 808
f 809 697 692
f 692 697 570
f 692 568 691
f 693 568 692
f 691 808 692
f 692 808 809
f 570 569 692
f 692 569 693
f 564 566 462
f 564 459 563
f 563 566 564
f 464 462 565
f 565 566 464
f 462 566 565
f 694 568 690
f 568 566 690
f 695 694 690
f 685 695 689
f 695 690 689
f 689 690 566
f 538 668 659
f 668 777 659
f 769 885 772
f 772 656 769
f 774 657 773
f 774 773 893
f 655 768 771
f 1066 1116 1117
f 778 795 896
f 896 897 778
f 896 795 794
f 794 793 896
f 896 906 997
f 997 998 896
f 793 792 896
f 896 792 906
f 1002 897 1001
f 984 880 879
f 879 983 984
f 984 892 880
f 984 983 1065
f 1065 992 984
f 992 892 984
f 873 755 872
f 873 871 874
f 872 871 873
f 754 634 633
f 754 633 753
f 753 755 754
f 1050 1051 972
f 1051 973 972
f 972 973 871
f 630 629 750
f 750 629 749
f 538 664 665
f 665 666 538
f 776 659 775
f 775 659 777
f 1012 902 1011
f 1011 902 1010
f 1053 1054 975
f 975 974 1053
f 974 1052 1053
f 979 1054 976
f 876 979 976
f 976 977 876
f 1058 977 976
f 1108 1061 1060
f 1060 1109 1108
f 912 811 805
f 805 695 685
f 805 811 695
f 812 811 912
f 695 811 812
f 812 909 917
f 910 909 812
f 917 916 812
f 802 800 910
f 802 680 800
f 685 686 561
f 908 800 799
f 908 909 800
f 887 771 889
f 917 909 1015
f 1015 1018 917
f 1015 1070 1018
f 909 908 990
f 990 908 888
f 990 1015 909
f 1070 1015 990
f 810 807 695
f 914 916 1018
f 1018 1017 914
f 914 810 916
f 807 810 914
f 913 808 807
f 915 808 913
f 807 914 913
f 913 914 1017
f 991 988 1069
f 1069 1071 991
f 1069 988 993
f 993 1073 1069
f 1069 1073 1071
f 253 299 300
f 294 356 297
f 297 251 294
f 153 154 111
f 206 154 153
f 252 251 298
f 298 299 252
f 252 253 206
f 299 253 252
f 156 112 111
f 111 155 156
f 362 361 443
f 301 361 362
f 362 302 301
f 254 303 255
f 254 302 303
f 206 253 254
f 301 302 254
f 255 207 254
f 254 207 206
f 300 301 254
f 254 253 300
f 449 553 554
f 449 450 366
f 554 555 449
f 555 450 449
f 365 305 304
f 365 366 305
f 562 686 563
f 563 458 562
f 455 561 562
f 562 561 686
f 687 566 563
f 563 686 687
f 685 566 687
f 687 686 685
f 313 372 373
f 373 372 374
f 374 372 456
f 456 372 455
f 456 458 374
f 455 562 456
f 456 562 458
f 312 264 263
f 368 367 451
f 368 307 367
f 308 307 368
f 163 208 209
f 116 158 163
f 799 801 890
f 772 885 890
f 890 891 772
f 890 801 891
f 559 453 558
f 558 453 557
f 558 557 556
f 556 681 558
f 451 557 452
f 557 453 452
f 803 681 680
f 680 802 803
f 803 802 804
f 676 555 675
f 675 796 676
f 109 119 75
f 75 68 109
f 75 119 76
f 76 37 75
f 109 68 108
f 108 151 109
f 108 118 151
f 72 118 108
f 84 48 45
f 84 49 48
f 45 85 84
f 62 64 101
f 62 28 64
f 101 63 62
f 63 28 62
f 32 34 33
f 5 23 7
f 27 26 60
f 93 134 135
f 135 94 93
f 93 92 132
f 132 134 93
f 93 54 92
f 93 94 54
f 55 94 95
f 54 94 55
f 25 26 7
f 7 24 25
f 7 23 22
f 22 24 7
f 22 55 24
f 23 5 22
f 53 54 22
f 54 55 22
f 22 5 19
f 22 50 53
f 19 50 22
f 97 95 136
f 136 98 97
f 138 98 143
f 143 144 138
f 138 96 98
f 99 96 138
f 138 144 99
f 99 144 100
f 64 60 100
f 144 198 150
f 150 203 202
f 198 203 150
f 142 195 196
f 195 203 196
f 196 203 198
f 143 142 196
f 196 198 143
f 146 145 147
f 104 146 147
f 147 148 102
f 102 104 147
f 287 243 242
f 287 242 286
f 286 296 287
f 202 243 249
f 249 287 296
f 243 287 249
f 295 296 357
f 357 292 295
f 421 516 511
f 511 418 421
f 419 418 511
f 511 516 517
f 511 517 512
f 512 419 511
f 482 392 391
f 391 480 482
f 326 327 273
f 273 325 326
f 326 387 327
f 477 387 386
f 386 476 477
f 387 326 386
f 519 639 520
f 519 518 639
f 422 518 519
f 519 423 422
f 520 423 519
f 639 518 638
f 642 639 638
f 518 636 638
f 757 758 638
f 638 636 755
f 761 760 877
f 647 644 761
f 761 764 647
f 878 764 761
f 761 877 878
f 640 759 641
f 758 759 640
f 640 521 642
f 641 521 640
f 642 638 640
f 640 638 758
f 646 526 645
f 762 646 645
f 530 645 526
f 525 428 530
f 530 526 525
f 403 402 498
f 498 404 403
f 501 405 404
f 404 500 501
f 955 956 853
f 955 957 1040
f 956 955 958
f 739 738 851
f 851 738 853
f 963 863 862
f 862 964 963
f 963 964 965
f 1029 957 1039
f 1028 1031 1040
f 1040 957 1028
f 1028 957 1029
f 580 704 705
f 703 704 580
f 477 581 580
f 579 703 580
f 580 476 579
f 580 581 476
f 336 406 407
f 407 408 336
f 406 503 407
f 503 408 407
f 336 409 410
f 410 411 336
f 505 620 507
f 509 473 415
f 415 508 509
f 509 578 473
f 509 508 578
f 507 621 622
f 741 742 622
f 739 741 622
f 622 621 739
f 819 714 707
f 707 704 819
f 714 713 707
f 707 713 588
f 395 394 484
f 394 483 484
f 486 485 484
f 484 396 395
f 484 485 396
f 857 744 743
f 743 744 625
f 624 742 743
f 624 625 507
f 743 625 624
f 1033 933 932
f 931 1032 932
f 932 1032 1033
f 931 932 833
f 833 932 933
f 776 775 833
f 833 933 934
f 833 775 777
f 777 895 833
f 611 726 734
f 861 862 748
f 748 862 863
f 748 629 628
f 748 863 749
f 749 629 748
f 748 860 861
f 861 925 961
f 925 1030 961
f 826 860 747
f 747 746 826
f 627 746 747
f 747 628 627
f 747 748 628
f 860 748 747
f 592 716 717
f 715 829 717
f 717 716 715
f 717 719 594
f 830 719 717
f 717 829 830
f 827 715 819
f 827 828 715
f 819 744 858
f 858 827 819
f 828 827 858
f 47 48 19
f 19 17 47
f 45 48 46
f 46 17 45
f 48 47 46
f 46 47 17
f 51 39 52
f 52 21 51
f 670 671 542
f 670 541 669
f 542 541 670
f 669 791 670
f 791 671 670
f 919 915 1016
f 915 913 1016
f 1016 1017 1091
f 1016 913 1017
f 1020 1092 1021
f 1021 1019 1020
f 1020 1073 1092
f 1020 1019 919
f 919 1016 1020
f 1091 1073 1020
f 1020 1016 1091
f 1074 1073 993
f 1092 1073 1074
f 993 1072 1074
f 1072 1092 1074
f 219 217 267
f 211 210 260
f 209 210 159
f 116 163 159
f 159 163 209
f 213 161 212
f 260 261 212
f 212 211 260
f 161 211 212
f 117 116 162
f 162 161 117
f 116 161 162
f 214 213 165
f 165 161 214
f 214 161 213
f 165 118 164
f 164 161 165
f 118 161 164
f 374 315 314
f 314 373 374
f 314 265 313
f 313 373 314
f 266 315 316
f 265 314 266
f 266 314 315
f 266 217 265
f 266 267 217
f 320 270 319
f 319 378 320
f 377 378 319
f 319 317 377
f 268 221 219
f 316 317 268
f 219 267 268
f 268 266 316
f 267 266 268
f 382 324 381
f 381 380 382
f 382 383 324
f 382 467 383
f 380 379 466
f 573 467 466
f 466 382 380
f 467 382 466
f 383 467 468
f 384 383 468
f 468 467 573
f 470 575 576
f 576 471 470
f 576 577 471
f 701 577 576
f 576 700 701
f 576 575 700
f 570 698 699
f 699 696 570
f 698 696 699
f 461 564 462
f 459 564 461
f 462 376 461
f 376 459 461
f 688 566 685
f 685 689 688
f 688 689 566
f 493 401 492
f 493 494 401
f 490 597 491
f 492 401 491
f 491 401 490
f 660 659 776
f 538 659 660
f 603 493 602
f 770 887 888
f 654 769 656
f 534 533 654
f 654 656 534
f 533 655 654
f 655 770 654
f 654 770 769
f 657 774 658
f 658 774 768
f 537 536 658
f 658 536 657
f 658 653 537
f 658 768 653
f 768 774 884
f 889 771 884
f 884 771 768
f 884 988 889
f 893 988 884
f 884 774 893
f 897 896 1000
f 1000 1001 897
f 1003 897 1002
f 1003 1004 897
f 1002 1001 1003
f 1001 1082 1003
f 1003 1085 1010
f 1049 1100 1052
f 1049 1052 1050
f 1050 972 1049
f 971 972 871
f 1047 972 971
f 1102 1052 1101
f 1052 1100 1101
f 1089 1119 1075
f 1103 1052 1102
f 995 1032 931
f 1102 1101 1099
f 1099 1101 1100
f 1122 1117 1116
f 1122 1116 1123
f 1123 1082 1122
f 1087 1011 1010
f 1010 1086 1087
f 1086 1124 1087
f 1012 1011 1087
f 902 903 790
f 894 895 777
f 894 995 931
f 994 995 894
f 931 833 894
f 894 833 895
f 1012 1089 1013
f 1013 1075 994
f 1013 1089 1075
f 1009 902 1012
f 1009 903 902
f 1110 1061 1084
f 1061 1108 1084
f 1084 1086 1085
f 1084 1124 1086
f 1084 1108 1124
f 1085 1003 1084
f 806 804 912
f 912 805 806
f 685 804 806
f 806 805 685
f 912 804 911
f 911 812 912
f 910 812 911
f 911 802 910
f 804 802 911
f 455 372 454
f 454 561 455
f 454 457 559
f 454 372 457
f 559 560 454
f 454 560 561
f 684 804 685
f 685 561 684
f 907 908 799
f 907 890 885
f 799 890 907
f 888 908 907
f 989 990 888
f 989 887 889
f 888 887 989
f 1070 990 989
f 889 991 989
f 991 1070 989
f 813 812 916
f 916 810 813
f 695 812 813
f 813 810 695
f 247 294 251
f 155 208 157
f 157 156 155
f 208 163 157
f 113 112 157
f 112 156 157
f 157 158 113
f 157 163 158
f 443 552 446
f 446 362 443
f 448 449 366
f 366 365 448
f 553 449 448
f 552 553 448
f 215 264 216
f 215 263 264
f 213 263 215
f 215 216 165
f 165 213 215
f 310 263 309
f 682 803 804
f 681 803 682
f 559 558 682
f 682 558 681
f 556 555 677
f 555 676 677
f 797 796 891
f 797 676 796
f 891 801 797
f 801 798 797
f 798 676 797
f 73 68 74
f 68 75 74
f 37 73 74
f 74 75 37
f 107 68 72
f 72 108 107
f 107 108 68
f 86 84 85
f 85 129 86
f 86 129 88
f 49 84 86
f 88 50 86
f 50 49 86
f 9 10 2
f 27 28 9
f 32 33 12
f 12 33 34
f 29 28 63
f 29 9 28
f 10 9 29
f 35 68 36
f 34 68 35
f 36 15 35
f 15 14 35
f 35 12 34
f 14 12 35
f 2 12 13
f 13 12 14
f 64 28 61
f 61 60 64
f 61 28 27
f 27 60 61
f 57 55 95
f 24 55 57
f 59 60 26
f 26 25 59
f 59 96 99
f 99 100 59
f 59 100 60
f 149 150 202
f 144 150 106
f 106 100 144
f 106 149 105
f 150 149 106
f 106 105 64
f 64 100 106
f 111 148 152
f 148 147 152
f 152 153 111
f 248 295 292
f 248 249 296
f 296 295 248
f 202 249 248
f 705 704 582
f 477 580 582
f 582 580 705
f 385 326 325
f 385 386 326
f 385 472 473
f 415 472 385
f 385 337 415
f 385 325 337
f 476 386 475
f 475 473 579
f 579 476 475
f 637 518 517
f 517 636 637
f 637 636 518
f 635 754 755
f 755 636 635
f 635 636 517
f 517 634 635
f 634 754 635
f 757 638 756
f 756 638 755
f 874 757 756
f 756 873 874
f 755 873 756
f 643 761 644
f 760 761 643
f 641 760 643
f 643 522 641
f 644 522 643
f 529 528 649
f 529 428 528
f 529 530 428
f 499 500 404
f 404 498 499
f 497 498 402
f 497 402 496
f 496 610 497
f 497 610 606
f 611 498 497
f 853 738 852
f 853 957 954
f 954 955 853
f 957 955 954
f 1025 958 955
f 1025 1024 960
f 1025 955 1040
f 1040 1026 1025
f 922 1024 1025
f 1025 1026 922
f 854 741 739
f 739 851 854
f 956 958 854
f 853 956 854
f 854 851 853
f 963 965 864
f 864 863 963
f 749 863 864
f 864 750 749
f 953 852 849
f 853 852 953
f 953 957 853
f 953 1039 957
f 1029 1039 949
f 949 953 849
f 1039 953 949
f 924 1028 1029
f 1029 1030 924
f 924 1030 925
f 924 925 825
f 1031 1028 924
f 924 825 923
f 923 1027 924
f 1027 1031 924
f 414 413 412
f 412 411 414
f 415 337 414
f 337 413 414
f 620 505 618
f 739 621 618
f 618 621 620
f 587 484 483
f 587 588 486
f 486 484 587
f 743 742 856
f 856 857 743
f 856 742 741
f 960 857 856
f 960 927 859
f 859 857 960
f 744 857 859
f 859 858 744
f 745 744 819
f 745 625 744
f 819 702 745
f 702 625 745
f 507 625 626
f 626 625 702
f 579 507 626
f 626 702 579
f 623 624 507
f 742 624 623
f 507 622 623
f 623 622 742
f 776 833 722
f 722 660 776
f 832 721 722
f 934 1034 951
f 951 937 934
f 1097 1034 1033
f 836 726 731
f 731 734 836
f 836 734 726
f 613 498 611
f 731 843 844
f 849 734 844
f 844 949 849
f 962 1038 964
f 962 961 1030
f 964 862 962
f 962 862 861
f 861 961 962
f 718 593 592
f 592 717 718
f 594 593 718
f 718 717 594
f 8 1 7
f 2 1 8
f 8 26 27
f 7 26 8
f 27 9 8
f 8 9 2
f 6 5 7
f 7 1 6
f 6 1 5
f 16 17 4
f 4 21 16
f 40 21 15
f 40 51 21
f 40 15 39
f 39 51 40
f 160 211 161
f 160 161 116
f 116 159 160
f 210 211 160
f 160 159 210
f 262 212 261
f 262 261 308
f 262 263 213
f 213 212 262
f 308 309 262
f 309 263 262
f 269 268 317
f 221 268 269
f 222 221 269
f 269 270 222
f 572 696 573
f 573 466 572
f 469 575 470
f 469 468 575
f 469 470 384
f 384 468 469
f 574 468 573
f 575 468 574
f 574 573 700
f 700 575 574
f 605 721 602
f 602 493 605
f 601 491 597
f 660 722 601
f 601 597 538
f 538 660 601
f 600 493 492
f 492 491 600
f 600 491 493
f 494 493 604
f 493 603 604
f 607 603 602
f 602 724 607
f 607 724 727
f 723 721 832
f 832 724 723
f 602 721 723
f 723 724 602
f 1001 1000 1081
f 998 1080 1081
f 1066 1117 1081
f 1117 1122 1081
f 1081 1080 1118
f 1081 1118 1066
f 1081 1082 1001
f 1081 1122 1082
f 780 897 898
f 897 1004 898
f 1004 1003 898
f 1010 902 1007
f 1100 1049 1048
f 1048 972 1047
f 1048 1049 972
f 870 971 871
f 870 871 753
f 753 752 870
f 971 870 868
f 1076 1103 1102
f 1075 1103 1076
f 994 1075 1076
f 1076 995 994
f 1046 1099 1100
f 1046 1048 1047
f 1100 1048 1046
f 789 790 903
f 668 790 789
f 789 777 668
f 789 894 777
f 904 789 903
f 894 789 904
f 903 1009 904
f 1012 1013 904
f 904 1009 1012
f 1058 976 1057
f 1057 1060 1058
f 1057 1109 1060
f 1057 1108 1109
f 1012 1087 1090
f 1090 1087 1124
f 1090 1057 1106
f 1088 1089 1012
f 1119 1089 1088
f 1012 1090 1088
f 1088 1090 1106
f 1055 976 1054
f 1055 1053 1052
f 1054 1053 1055
f 1083 1003 1082
f 1083 1084 1003
f 1110 1084 1083
f 1083 1123 1110
f 1083 1082 1123
f 804 684 683
f 683 560 559
f 561 560 683
f 683 684 561
f 559 682 683
f 683 682 804
f 886 770 888
f 888 907 886
f 769 770 886
f 885 769 886
f 886 907 885
f 294 247 293
f 293 292 356
f 356 294 293
f 200 147 145
f 200 152 147
f 362 446 363
f 304 303 363
f 303 302 363
f 302 362 363
f 369 310 309
f 369 452 453
f 369 309 308
f 308 368 369
f 369 368 451
f 451 452 369
f 371 453 372
f 313 312 311
f 311 372 313
f 312 263 311
f 263 310 311
f 311 371 372
f 310 371 311
f 678 676 798
f 678 677 676
f 678 798 679
f 679 556 678
f 556 677 678
f 2 10 11
f 11 12 2
f 10 29 11
f 32 12 31
f 12 11 31
f 31 65 66
f 66 32 31
f 3 14 15
f 3 13 14
f 2 13 3
f 3 1 2
f 56 25 24
f 56 59 25
f 96 59 56
f 246 248 292
f 292 293 246
f 246 293 247
f 247 200 246
f 584 707 588
f 386 385 474
f 474 475 386
f 474 385 473
f 473 475 474
f 645 530 650
f 530 529 650
f 650 529 649
f 649 766 650
f 650 766 762
f 762 645 650
f 500 499 614
f 614 499 498
f 614 613 500
f 498 613 614
f 606 726 612
f 612 497 606
f 612 726 611
f 611 497 612
f 500 616 617
f 617 618 503
f 617 738 739
f 617 616 738
f 840 942 943
f 941 942 840
f 842 843 731
f 750 864 865
f 950 1038 1029
f 411 410 504
f 504 414 411
f 505 414 504
f 504 410 409
f 504 409 503
f 503 618 504
f 504 618 505
f 506 507 415
f 415 414 506
f 506 414 505
f 741 854 855
f 855 856 741
f 855 854 958
f 958 856 855
f 960 856 959
f 959 856 958
f 959 1025 960
f 958 1025 959
f 927 828 926
f 926 859 927
f 828 858 926
f 858 859 926
f 835 930 832
f 832 722 835
f 840 731 730
f 731 609 730
f 725 726 606
f 606 609 725
f 731 726 725
f 725 609 731
f 608 607 727
f 930 937 940
f 611 734 735
f 735 613 611
f 845 734 731
f 731 844 845
f 845 844 734
f 1041 962 1030
f 1038 962 1041
f 1041 1030 1029
f 1029 1038 1041
f 19 4 18
f 18 17 19
f 18 4 17
f 20 4 15
f 15 21 20
f 21 4 20
f 318 319 270
f 270 269 318
f 317 319 318
f 318 269 317
f 464 572 465
f 465 572 466
f 465 379 464
f 465 466 379
f 571 464 570
f 571 572 464
f 570 696 571
f 696 572 571
f 493 491 599
f 599 605 493
f 721 605 599
f 491 601 598
f 721 599 598
f 598 599 491
f 598 722 721
f 598 601 722
f 999 896 998
f 998 1081 999
f 999 1000 896
f 999 1081 1000
f 664 663 786
f 663 785 786
f 786 785 899
f 899 898 1006
f 1006 1007 899
f 1010 1007 1006
f 788 790 668
f 902 790 788
f 899 900 788
f 788 786 899
f 666 665 788
f 668 667 788
f 667 666 788
f 899 1007 1008
f 1008 900 899
f 1008 1007 902
f 902 900 1008
f 750 865 866
f 866 865 968
f 869 868 870
f 869 870 752
f 1032 995 1077
f 995 1076 1077
f 1102 1099 1077
f 1077 1076 1102
f 970 1046 1047
f 1047 971 970
f 971 868 970
f 994 894 996
f 894 904 996
f 996 1013 994
f 996 904 1013
f 1107 1090 1124
f 1057 1090 1107
f 1124 1108 1107
f 1108 1057 1107
f 1104 1055 1052
f 1052 1103 1104
f 1104 1103 1075
f 1075 1119 1104
f 976 1055 1056
f 1056 1057 976
f 1106 1057 1056
f 201 149 202
f 202 248 201
f 205 200 247
f 205 247 251
f 153 152 205
f 152 200 205
f 251 252 205
f 206 153 205
f 205 252 206
f 447 363 446
f 447 446 552
f 552 448 447
f 447 448 365
f 453 371 370
f 370 371 310
f 370 369 453
f 310 369 370
f 30 11 29
f 30 31 11
f 30 29 63
f 30 63 65
f 65 31 30
f 58 56 24
f 58 57 95
f 24 57 58
f 95 97 58
f 96 56 58
f 98 96 58
f 58 97 98
f 479 483 393
f 393 392 479
f 392 482 479
f 387 478 479
f 479 480 387
f 479 482 480
f 704 707 706
f 707 584 706
f 706 582 704
f 502 501 500
f 500 617 502
f 405 501 502
f 406 405 502
f 502 503 406
f 502 617 503
f 739 618 740
f 740 617 739
f 618 617 740
f 850 734 849
f 849 852 850
f 850 852 738
f 615 616 500
f 500 613 615
f 738 616 615
f 615 737 738
f 1034 941 952
f 952 941 848
f 952 951 1034
f 848 951 952
f 1036 943 942
f 967 1042 968
f 968 865 967
f 967 865 864
f 841 842 731
f 841 731 840
f 840 943 841
f 964 1038 947
f 1038 950 947
f 843 842 947
f 947 844 843
f 947 950 844
f 1029 949 948
f 948 950 1029
f 949 844 948
f 844 950 948
f 619 505 507
f 507 506 619
f 619 506 505
f 834 722 833
f 834 835 722
f 938 937 930
f 930 835 938
f 938 835 937
f 935 833 934
f 934 937 935
f 840 730 839
f 839 941 840
f 848 941 839
f 733 730 609
f 609 732 733
f 848 839 733
f 733 839 730
f 495 609 606
f 495 608 609
f 495 606 496
f 496 401 495
f 401 494 495
f 494 604 495
f 495 604 603
f 603 607 495
f 607 608 495
f 832 930 837
f 930 940 837
f 787 665 664
f 664 786 787
f 787 788 665
f 786 788 787
f 784 785 663
f 663 783 784
f 899 785 784
f 784 783 899
f 782 898 899
f 899 783 782
f 782 663 662
f 782 783 663
f 1005 898 1003
f 1005 1006 898
f 1005 1003 1010
f 1010 1006 1005
f 901 900 902
f 902 788 901
f 901 788 900
f 867 866 968
f 750 866 867
f 751 869 752
f 751 752 630
f 630 750 751
f 868 869 751
f 750 867 751
f 751 867 868
f 969 867 968
f 969 970 868
f 868 867 969
f 968 1042 1043
f 1096 1097 1033
f 1096 1043 1097
f 1105 1088 1106
f 1106 1056 1105
f 1105 1056 1055
f 1119 1088 1105
f 1105 1104 1119
f 1055 1104 1105
f 199 246 200
f 199 200 145
f 364 447 365
f 363 447 364
f 364 365 304
f 304 363 364
f 483 479 585
f 585 479 584
f 585 584 588
f 588 587 585
f 585 587 483
f 584 479 583
f 583 706 584
f 582 706 583
f 583 479 478
f 583 478 477
f 477 582 583
f 736 615 613
f 737 615 736
f 613 735 736
f 736 735 734
f 734 850 736
f 738 737 736
f 736 850 738
f 1037 1036 1042
f 1042 967 1037
f 945 965 964
f 964 947 945
f 945 944 965
f 945 947 842
f 945 841 944
f 842 841 945
f 835 834 936
f 937 835 936
f 936 935 937
f 936 834 833
f 833 935 936
f 609 608 729
f 729 732 609
f 727 724 728
f 837 729 728
f 728 724 832
f 832 837 728
f 728 608 727
f 728 729 608
f 937 951 847
f 847 940 937
f 847 951 848
f 846 837 847
f 847 732 846
f 848 733 847
f 847 733 732
f 780 898 781
f 898 782 781
f 781 782 662
f 662 661 781
f 661 780 781
f 1045 1098 1046
f 1046 970 1045
f 970 969 1045
f 1045 969 968
f 1042 1036 1035
f 1035 1043 1042
f 1035 1036 942
f 1034 1097 1035
f 1097 1043 1035
f 1035 941 1034
f 942 941 1035
f 1095 1096 1033
f 1098 1096 1095
f 1095 1077 1099
f 1099 1046 1095
f 1046 1098 1095
f 1033 1032 1095
f 1032 1077 1095
f 946 1037 965
f 1036 1037 946
f 943 1036 946
f 946 841 943
f 965 944 946
f 944 841 946
f 965 1037 966
f 966 1037 967
f 966 864 965
f 966 967 864
f 838 837 846
f 838 729 837
f 846 732 838
f 732 729 838
f 939 837 940
f 940 847 939
f 939 847 837
f 968 1043 1044
f 1044 1045 968
f 1098 1045 1044
f 1044 1096 1098
f 1043 1096 1044
f 180 181 132
f 229 181 180
f 194 193 433
f 440 439 433
f 239 238 433
f 433 235 278
f 433 278 347
f 132 181 433
f 181 235 433
f 547 546 433
f 347 429 433
f 433 182 132
f 283 282 433
f 433 284 283
f 550 549 433
f 433 531 550
f 433 238 194
f 433 353 291
f 433 545 440
f 433 437 434
f 429 531 433
f 433 193 182
f 291 290 433
f 433 244 239
f 433 289 288
f 433 546 545
f 433 444 547
f 549 548 433
f 433 282 281
f 354 353 433
f 281 245 433
f 288 284 433
f 438 437 433
f 433 439 438
f 445 444 433
f 433 548 445
f 433 245 244
f 290 289 433
f 336 335 597
f 335 334 597
f 349 432 597
f 233 232 597
f 230 227 597
f 597 332 275
f 224 174 597
f 275 233 597
f 237 280 597
f 597 83 82
f 81 80 597
f 82 127 597
f 334 333 597
f 597 126 81
f 80 83 597
f 597 432 538
f 597 190 237
f 597 350 349
f 597 231 230
f 597 225 224
f 333 332 597
f 597 176 190
f 597 174 126
f 597 400 336
f 351 350 597
f 597 280 351
f 597 232 231
f 226 225 597
f 597 227 226
f 490 400 597
f 127 176 597
f 1121 1118 1080
f 1079 1121 1080
f 771 887 770
f 655 771 770
f 149 145 101
f 101 105 149
f 5 1 4
f 19 5 4
f 3 4 1
f 15 4 3
f 199 201 248
f 248 246 199
f 145 149 199
f 149 201 199
