v -0.090157 0.053302 -0.025322
v -0.090157 0.052912 -0.026130
v -0.100699 0.053302 -0.025322
v -0.090157 0.047211 -0.025322
v -0.100699 0.052912 -0.026130
v -0.090157 0.052193 -0.027529
v -0.102207 0.053245 -0.025322
v -0.093959 0.047342 -0.025322
v -0.090157 0.000071 -0.053542
v -0.102597 0.053230 -0.025322
v -0.100699 0.052193 -0.027529
v -0.102597 0.052109 -0.027529
v -0.102597 0.052860 -0.026064
v -0.090157 0.051458 -0.028881
v -0.101058 0.047592 -0.025322
v -0.100699 0.000071 -0.053882
v -0.090157 0.000071 -0.059021
v -0.102597 0.047670 -0.025322
v -0.103301 0.053110 -0.025322
v -0.100699 0.051458 -0.028881
v -0.102597 0.051427 -0.028822
v -0.103667 0.051338 -0.028670
v -0.090157 0.050916 -0.029831
v -0.102597 0.000071 -0.053977
v -0.090157 0.000952 -0.059021
v -0.100699 0.000071 -0.059021
v -0.102715 0.047696 -0.025322
v -0.103882 0.052641 -0.025322
v -0.100699 0.050916 -0.029831
v -0.102597 0.050869 -0.029772
v -0.103299 0.049306 -0.032242
v -0.103878 0.051625 -0.027529
v -0.103725 0.047618 -0.034423
v -0.103840 0.049692 -0.030979
v -0.090157 0.050411 -0.030662
v -0.103998 0.000071 -0.054551
v -0.103996 0.048446 -0.025322
v -0.100699 0.000952 -0.059021
v -0.090157 0.002848 -0.058948
v -0.102597 0.000071 -0.058962
v -0.103998 0.052417 -0.025322
v -0.100699 0.050009 -0.031322
v -0.102035 0.049358 -0.032312
v -0.102639 0.049817 -0.031497
v -0.102639 0.048806 -0.033057
v -0.102597 0.047748 -0.034598
v -0.103995 0.050306 -0.029353
v -0.104377 0.050280 -0.027529
v -0.104017 0.052239 -0.025589
v -0.102597 0.047024 -0.035544
v -0.102597 0.046075 -0.036758
v -0.102597 0.045320 -0.037708
v -0.103806 0.045862 -0.036491
v -0.104009 0.046492 -0.035079
v -0.103930 0.048024 -0.033222
v -0.090157 0.050009 -0.031322
v -0.104495 0.000071 -0.055986
v -0.104086 0.048686 -0.025322
v -0.104496 0.050280 -0.025322
v -0.102597 0.000952 -0.058962
v -0.102698 0.002895 -0.058889
v -0.102132 0.004109 -0.058859
v -0.100699 0.002848 -0.058948
v -0.090157 0.003474 -0.058915
v -0.103596 0.000071 -0.058869
v -0.104068 0.052229 -0.025322
v -0.090157 0.049655 -0.031886
v -0.100699 0.049368 -0.032331
v -0.100699 0.048733 -0.033281
v -0.100699 0.047784 -0.034647
v -0.100699 0.047071 -0.035597
v -0.104122 0.048556 -0.031497
v -0.104519 0.050280 -0.025628
v -0.104495 0.050588 -0.025322
v -0.104429 0.046487 -0.033222
v -0.104510 0.048384 -0.029425
v -0.100699 0.046122 -0.036814
v -0.100699 0.045372 -0.037761
v -0.102597 0.044372 -0.038790
v -0.103854 0.044095 -0.038483
v -0.104086 0.044669 -0.037078
v -0.104529 0.004750 -0.055986
v -0.104095 0.000071 -0.057883
v -0.103596 0.000952 -0.058869
v -0.103564 0.002291 -0.058846
v -0.103398 0.003552 -0.058816
v -0.102698 0.004745 -0.058744
v -0.102597 0.006647 -0.058526
v -0.100699 0.006647 -0.058642
v -0.100699 0.005209 -0.058787
v -0.100699 0.004261 -0.058873
v -0.090157 0.004261 -0.058873
v -0.090157 0.049368 -0.032331
v -0.090157 0.048733 -0.033281
v -0.090157 0.047784 -0.034647
v -0.090157 0.047071 -0.035597
v -0.104512 0.042694 -0.037016
v -0.104513 0.036999 -0.042702
v -0.104533 0.016130 -0.054089
v -0.104540 0.006647 -0.055986
v -0.104488 0.044590 -0.035119
v -0.090157 0.046122 -0.036814
v -0.090157 0.044840 -0.038368
v -0.100699 0.044424 -0.038843
v -0.090157 0.045372 -0.037761
v -0.102597 0.043527 -0.039740
v -0.102597 0.042579 -0.040753
v -0.103865 0.042266 -0.040423
v -0.104122 0.042814 -0.039031
v -0.104095 0.000952 -0.057883
v -0.103956 0.002895 -0.058064
v -0.104043 0.004750 -0.057794
v -0.104043 0.006647 -0.057675
v -0.104034 0.008544 -0.057556
v -0.103986 0.010440 -0.057418
v -0.103879 0.012337 -0.057253
v -0.103722 0.013895 -0.057088
v -0.102597 0.010440 -0.057992
v -0.102597 0.008544 -0.058285
v -0.100699 0.008544 -0.058398
v -0.090157 0.006647 -0.058642
v -0.090157 0.005209 -0.058787
v -0.090157 0.004683 -0.058836
v -0.104129 0.040938 -0.040954
v -0.104489 0.035102 -0.044602
v -0.104507 0.029412 -0.048396
v -0.104516 0.025619 -0.050296
v -0.104524 0.021820 -0.052193
v -0.104122 0.039020 -0.042828
v -0.104465 0.018027 -0.054089
v -0.104485 0.010440 -0.055986
v -0.104534 0.008544 -0.055986
v -0.090157 0.044424 -0.038843
v -0.100699 0.043580 -0.039790
v -0.100699 0.041735 -0.041749
v -0.102597 0.041683 -0.041700
v -0.100699 0.042631 -0.040799
v -0.103864 0.040406 -0.042284
v -0.104378 0.012337 -0.055986
v -0.103967 0.018027 -0.055524
v -0.103750 0.019924 -0.055231
v -0.103581 0.020940 -0.055066
v -0.103446 0.015156 -0.056923
v -0.100699 0.010440 -0.058084
v -0.102597 0.012337 -0.057642
v -0.090157 0.008544 -0.058398
v -0.104088 0.037061 -0.044678
v -0.104423 0.033205 -0.046499
v -0.104403 0.027802 -0.050002
v -0.104382 0.027510 -0.050296
v -0.104384 0.023722 -0.052193
v -0.103854 0.038473 -0.044098
v -0.104247 0.019924 -0.054089
v -0.090157 0.043580 -0.039790
v -0.090157 0.041735 -0.041749
v -0.100699 0.040787 -0.042650
v -0.102597 0.039734 -0.043547
v -0.090157 0.042631 -0.040799
v -0.103887 0.023722 -0.053512
v -0.102597 0.021044 -0.055109
v -0.102597 0.019924 -0.055491
v -0.102597 0.018027 -0.056108
v -0.103689 0.024926 -0.053265
v -0.102597 0.025118 -0.053360
v -0.102597 0.023722 -0.053964
v -0.102726 0.016016 -0.056719
v -0.102181 0.015302 -0.056966
v -0.102726 0.014411 -0.057164
v -0.090157 0.010440 -0.058084
v -0.100699 0.012337 -0.057718
v -0.103809 0.036467 -0.045882
v -0.104006 0.035065 -0.046509
v -0.103925 0.033205 -0.048050
v -0.104119 0.031491 -0.048581
v -0.103885 0.027510 -0.051645
v -0.104022 0.025582 -0.052252
v -0.104323 0.027802 -0.050296
v -0.090157 0.040229 -0.043177
v -0.100699 0.039786 -0.043596
v -0.102597 0.038786 -0.044375
v -0.100699 0.021117 -0.055138
v -0.100699 0.019924 -0.055561
v -0.100699 0.023722 -0.054043
v -0.100699 0.018027 -0.056201
v -0.100699 0.016313 -0.056728
v -0.103678 0.028667 -0.051358
v -0.100699 0.027510 -0.052216
v -0.100699 0.026129 -0.052918
v -0.100699 0.025181 -0.053393
v -0.102867 0.027802 -0.051939
v -0.102597 0.027802 -0.051982
v -0.101116 0.027802 -0.052048
v -0.100699 0.015364 -0.056982
v -0.100699 0.014234 -0.057276
v -0.090157 0.012337 -0.057718
v -0.102597 0.037681 -0.045322
v -0.103718 0.034404 -0.047621
v -0.103836 0.030980 -0.049699
v -0.103999 0.029344 -0.050316
v -0.103903 0.027802 -0.051434
v -0.103902 0.027802 -0.051437
v -0.103833 0.027802 -0.051573
v -0.090157 0.039786 -0.043596
v -0.090157 0.039260 -0.044058
v -0.100699 0.038838 -0.044424
v -0.100699 0.037733 -0.045374
v -0.090157 0.020455 -0.055373
v -0.090157 0.022800 -0.054433
v -0.090157 0.021117 -0.055138
v -0.090157 0.019924 -0.055561
v -0.090157 0.018871 -0.055917
v -0.090157 0.024368 -0.053756
v -0.090157 0.023722 -0.054043
v -0.090157 0.018027 -0.056201
v -0.090157 0.017073 -0.056494
v -0.090157 0.016313 -0.056728
v -0.102597 0.028823 -0.051454
v -0.103478 0.032247 -0.049336
v -0.100699 0.027802 -0.052061
v -0.090157 0.028120 -0.051893
v -0.090157 0.027510 -0.052216
v -0.090157 0.026129 -0.052918
v -0.090157 0.025603 -0.053182
v -0.090157 0.025181 -0.053393
v -0.100699 0.028880 -0.051487
v -0.090157 0.015364 -0.056982
v -0.090157 0.014734 -0.057147
v -0.090157 0.014234 -0.057276
v -0.102597 0.036733 -0.046097
v -0.102597 0.035529 -0.047050
v -0.090157 0.038838 -0.044424
v -0.090157 0.037733 -0.045374
v -0.100699 0.036785 -0.046150
v -0.102214 0.032314 -0.049382
v -0.100699 0.029834 -0.050923
v -0.102597 0.034581 -0.047746
v -0.090157 0.028880 -0.051487
v -0.100699 0.035581 -0.047100
v -0.090157 0.036785 -0.046150
v -0.100699 0.032340 -0.049402
v -0.100699 0.031309 -0.050032
v -0.100699 0.034633 -0.047782
v -0.100699 0.033289 -0.048736
v -0.090157 0.029834 -0.050923
v -0.090157 0.035581 -0.047100
v -0.090157 0.032340 -0.049402
v -0.090157 0.031309 -0.050032
v -0.090157 0.034633 -0.047782
v -0.090157 0.033289 -0.048736
f 100 83 82
f 15 18 9
f 37 36 24
f 57 82 83
f 9 4 8
f 8 15 9
f 9 18 16
f 18 24 16
f 37 24 27
f 27 24 18
f 110 83 100
f 100 132 110
f 140 153 159
f 132 131 114
f 59 57 36
f 93 68 67
f 136 157 138
f 84 110 111
f 111 112 84
f 111 110 112
f 142 159 163
f 139 140 116
f 132 114 113
f 113 110 132
f 112 110 113
f 113 114 85
f 84 112 113
f 113 85 84
f 58 36 37
f 58 59 36
f 82 57 73
f 57 59 73
f 100 82 73
f 73 59 74
f 107 134 137
f 137 135 107
f 107 135 136
f 67 68 42
f 43 42 68
f 70 71 46
f 46 43 70
f 45 43 46
f 156 135 155
f 179 157 156
f 136 135 156
f 156 157 136
f 75 55 54
f 163 159 175
f 159 176 175
f 75 54 81
f 141 140 159
f 159 142 141
f 143 142 162
f 225 217 235
f 218 217 186
f 217 190 186
f 163 175 186
f 186 198 218
f 163 186 164
f 164 186 190
f 164 142 163
f 85 114 115
f 139 116 115
f 115 131 139
f 115 114 131
f 32 41 28
f 19 22 28
f 28 22 32
f 72 55 75
f 72 47 55
f 32 47 48
f 48 73 74
f 48 72 75
f 47 72 48
f 106 104 134
f 134 107 106
f 136 138 108
f 108 107 136
f 19 10 13
f 13 22 19
f 12 22 13
f 67 42 56
f 42 43 29
f 70 43 69
f 69 43 68
f 50 46 71
f 55 47 34
f 34 47 32
f 32 22 34
f 31 43 45
f 45 46 31
f 179 203 204
f 205 204 231
f 179 204 205
f 178 156 155
f 178 203 179
f 179 156 178
f 152 138 157
f 157 171 152
f 218 198 197
f 130 140 139
f 153 140 130
f 139 131 130
f 159 153 151
f 151 176 159
f 153 130 151
f 151 130 128
f 117 116 140
f 140 141 117
f 117 142 143
f 117 141 142
f 143 162 166
f 161 162 142
f 185 162 184
f 162 161 184
f 234 240 241
f 234 217 218
f 241 235 234
f 234 235 217
f 202 175 198
f 198 186 202
f 202 186 175
f 191 190 217
f 191 164 190
f 183 164 189
f 225 237 220
f 187 220 221
f 84 85 60
f 75 81 101
f 125 148 126
f 73 97 98
f 98 125 126
f 66 48 74
f 76 48 75
f 73 48 76
f 75 101 76
f 76 97 73
f 76 101 97
f 103 78 105
f 103 104 78
f 103 133 104
f 80 106 107
f 107 108 80
f 77 50 71
f 5 7 3
f 5 11 12
f 12 13 5
f 10 7 5
f 5 13 10
f 20 29 21
f 21 11 20
f 12 11 21
f 21 22 12
f 21 31 22
f 35 29 23
f 35 56 42
f 42 29 35
f 46 50 33
f 33 31 46
f 55 34 33
f 33 54 55
f 33 34 22
f 22 31 33
f 147 152 171
f 148 125 147
f 173 197 198
f 173 199 174
f 198 199 173
f 174 148 173
f 233 238 230
f 218 197 230
f 198 175 201
f 201 199 198
f 99 131 132
f 99 130 131
f 128 130 99
f 99 132 100
f 100 73 99
f 73 98 99
f 99 98 128
f 126 148 149
f 174 199 177
f 143 166 167
f 167 162 185
f 167 166 162
f 160 161 142
f 160 183 181
f 181 209 207
f 214 184 211
f 182 207 210
f 181 207 182
f 182 160 181
f 210 211 182
f 182 211 184
f 182 184 161
f 161 160 182
f 216 185 215
f 215 184 214
f 185 184 215
f 243 234 242
f 240 234 243
f 208 209 181
f 208 183 213
f 181 183 208
f 213 183 212
f 212 189 224
f 212 183 189
f 224 189 223
f 225 220 219
f 220 187 219
f 222 223 188
f 188 223 189
f 189 164 188
f 164 187 188
f 62 90 91
f 89 90 62
f 63 62 91
f 38 62 63
f 49 66 41
f 49 41 32
f 32 48 49
f 48 66 49
f 79 80 52
f 106 80 79
f 104 106 79
f 50 77 51
f 52 33 51
f 51 33 50
f 51 77 78
f 51 78 52
f 30 29 43
f 30 21 29
f 31 21 30
f 52 80 53
f 53 33 52
f 54 33 53
f 53 81 54
f 53 80 81
f 205 206 180
f 180 171 157
f 138 152 129
f 152 147 129
f 125 98 129
f 129 147 125
f 148 147 172
f 172 173 148
f 172 147 171
f 171 197 172
f 197 173 172
f 233 230 229
f 229 230 197
f 236 234 218
f 218 230 236
f 242 234 236
f 236 238 242
f 236 230 238
f 126 149 127
f 127 149 128
f 127 98 126
f 128 98 127
f 150 151 128
f 128 149 150
f 176 151 150
f 150 149 148
f 150 175 176
f 150 177 175
f 150 148 174
f 174 177 150
f 199 201 200
f 200 177 199
f 200 201 175
f 175 177 200
f 193 167 185
f 194 167 193
f 164 183 165
f 183 160 165
f 142 164 165
f 165 160 142
f 192 219 187
f 192 191 217
f 192 217 225
f 225 219 192
f 164 191 192
f 192 187 164
f 38 60 61
f 61 62 38
f 119 120 89
f 145 170 144
f 123 92 91
f 91 90 123
f 90 122 123
f 43 31 44
f 44 30 43
f 31 30 44
f 124 108 138
f 138 129 124
f 124 98 97
f 124 129 98
f 196 206 233
f 233 229 196
f 196 180 206
f 171 180 196
f 196 197 171
f 196 229 197
f 62 61 86
f 86 87 62
f 86 60 85
f 86 61 60
f 116 117 86
f 85 115 86
f 86 115 116
f 91 92 64
f 64 63 91
f 64 39 63
f 89 62 88
f 88 119 89
f 62 87 88
f 87 86 88
f 88 86 119
f 143 167 168
f 168 145 143
f 168 167 194
f 194 170 168
f 170 145 168
f 118 145 144
f 144 120 118
f 120 119 118
f 118 86 117
f 119 86 118
f 118 117 143
f 143 145 118
f 108 124 109
f 81 80 109
f 109 80 108
f 109 101 81
f 97 101 109
f 109 124 97
f 227 228 194
f 193 226 227
f 194 193 227
f 16 17 9
f 36 57 16
f 16 26 17
f 40 26 16
f 16 65 40
f 16 24 36
f 83 65 16
f 16 57 83
f 110 65 83
f 84 65 110
f 95 96 71
f 70 95 71
f 6 14 20
f 20 11 6
f 235 237 225
f 235 244 237
f 134 104 133
f 133 154 134
f 158 135 137
f 155 135 158
f 134 154 158
f 137 134 158
f 14 23 29
f 20 14 29
f 69 95 70
f 69 94 95
f 93 94 69
f 68 93 69
f 245 248 238
f 238 248 242
f 238 239 245
f 233 239 238
f 247 240 246
f 241 240 247
f 244 235 247
f 247 235 241
f 60 26 40
f 60 38 26
f 40 65 60
f 60 65 84
f 17 26 25
f 26 38 25
f 77 102 105
f 105 78 77
f 77 71 96
f 96 102 77
f 7 4 1
f 7 8 4
f 1 3 7
f 37 27 7
f 18 15 7
f 15 8 7
f 7 27 18
f 7 58 37
f 7 10 19
f 74 59 7
f 59 58 7
f 19 28 7
f 7 66 74
f 7 28 41
f 41 66 7
f 5 3 1
f 1 2 5
f 5 6 11
f 5 2 6
f 232 239 206
f 206 239 233
f 206 231 232
f 206 205 231
f 242 248 243
f 248 249 243
f 243 249 246
f 246 240 243
f 221 222 188
f 188 187 221
f 146 121 120
f 120 121 89
f 120 169 146
f 144 169 120
f 170 228 195
f 194 228 170
f 195 169 170
f 170 169 144
f 89 121 122
f 122 90 89
f 78 104 79
f 52 78 79
f 179 205 180
f 180 157 179
f 39 25 38
f 38 63 39
f 226 185 216
f 226 193 185
f 9 17 227
f 1 4 227
f 227 247 246
f 227 4 9
f 214 211 227
f 227 35 23
f 227 220 237
f 227 2 1
f 95 94 227
f 105 102 227
f 155 158 227
f 227 93 67
f 245 239 227
f 92 123 227
f 227 96 95
f 227 23 14
f 67 56 227
f 227 204 203
f 246 249 227
f 209 208 227
f 227 121 146
f 14 6 227
f 227 94 93
f 232 231 227
f 227 248 245
f 224 223 227
f 203 178 227
f 237 244 227
f 216 215 227
f 227 212 224
f 17 25 227
f 154 133 227
f 227 158 154
f 227 102 96
f 227 103 105
f 6 2 227
f 231 204 227
f 227 239 232
f 227 178 155
f 227 207 209
f 227 249 248
f 244 247 227
f 227 222 221
f 221 220 227
f 227 226 216
f 146 169 227
f 133 103 227
f 56 35 227
f 195 228 227
f 210 207 227
f 227 211 210
f 227 215 214
f 227 208 213
f 213 212 227
f 227 223 222
f 227 169 195
f 227 122 121
f 25 39 227
f 227 123 122
f 227 64 92
f 39 64 227
