v -0.089892 -0.047033 -0.025325
v -0.089892 -0.046683 -0.025546
v -0.089894 0.000066 -0.053475
v -0.102597 -0.047655 -0.025325
v -0.089892 -0.053302 -0.025325
v -0.089892 -0.027932 -0.045440
v -0.089894 0.000066 -0.059016
v -0.100700 0.000066 -0.053881
v -0.103996 -0.048438 -0.025325
v -0.102598 0.000066 -0.053976
v -0.100698 -0.053302 -0.025325
v -0.089892 -0.052911 -0.026130
v -0.089892 -0.027932 -0.051990
v -0.100700 0.000066 -0.059016
v -0.089894 -0.000953 -0.059016
v -0.104497 -0.050277 -0.025325
v -0.103999 0.000066 -0.054553
v -0.102597 -0.053229 -0.025325
v -0.100698 -0.052911 -0.026130
v -0.089892 -0.052696 -0.026555
v -0.089892 -0.028883 -0.051486
v -0.089894 -0.027927 -0.051994
v -0.089894 -0.027509 -0.052215
v -0.089894 -0.026130 -0.052917
v -0.089894 -0.025179 -0.053392
v -0.089894 -0.023721 -0.054045
v -0.089894 -0.022065 -0.054741
v -0.089894 -0.021119 -0.055137
v -0.089894 -0.019923 -0.055560
v -0.089894 -0.019348 -0.055754
v -0.089894 -0.018027 -0.056199
v -0.089894 -0.017504 -0.056361
v -0.089894 -0.016313 -0.056727
v -0.089894 -0.016026 -0.056806
v -0.089894 -0.015362 -0.056981
v -0.089894 -0.014234 -0.057275
v -0.089894 -0.013659 -0.057410
v -0.089894 -0.012337 -0.057717
v -0.089894 -0.011762 -0.057829
v -0.089894 -0.010441 -0.058086
v -0.089894 -0.008544 -0.058396
v -0.089894 -0.007964 -0.058472
v -0.089894 -0.006642 -0.058640
v -0.089894 -0.006209 -0.058687
v -0.089894 -0.005211 -0.058789
v -0.089894 -0.004923 -0.058815
v -0.089894 -0.004260 -0.058875
v -0.089894 -0.002849 -0.058950
v -0.101721 0.000066 -0.058990
v -0.100700 -0.000953 -0.059016
v -0.104518 -0.050277 -0.025632
v -0.104068 -0.052231 -0.025325
v -0.104497 0.000066 -0.055985
v -0.102597 -0.052858 -0.026064
v -0.103882 -0.052639 -0.025325
v -0.103666 -0.051338 -0.028670
v -0.100698 -0.052195 -0.027528
v -0.089892 -0.052195 -0.027528
v -0.100698 -0.028883 -0.051486
v -0.089892 -0.029541 -0.051097
v -0.100700 -0.027927 -0.051994
v -0.100700 -0.027509 -0.052215
v -0.100700 -0.026130 -0.052917
v -0.100700 -0.025179 -0.053392
v -0.100700 -0.023721 -0.054045
v -0.100700 -0.022065 -0.054741
v -0.100700 -0.021119 -0.055137
v -0.100700 -0.019923 -0.055560
v -0.100700 -0.018027 -0.056199
v -0.100700 -0.016313 -0.056727
v -0.100700 -0.015362 -0.056981
v -0.100700 -0.014234 -0.057275
v -0.100700 -0.012337 -0.057717
v -0.100700 -0.010441 -0.058086
v -0.100700 -0.008544 -0.058396
v -0.100700 -0.006642 -0.058640
v -0.100700 -0.005211 -0.058789
v -0.100700 -0.004260 -0.058875
v -0.100700 -0.002849 -0.058950
v -0.102598 0.000066 -0.058964
v -0.102598 -0.000953 -0.058964
v -0.104512 -0.042691 -0.037015
v -0.104510 -0.048381 -0.029425
v -0.104376 -0.050277 -0.027528
v -0.104541 -0.006642 -0.055985
v -0.104531 -0.016130 -0.054088
v -0.104018 -0.052242 -0.025586
v -0.104095 0.000066 -0.057882
v -0.102597 -0.052106 -0.027528
v -0.103877 -0.051625 -0.027528
v -0.103840 -0.049692 -0.030975
v -0.103725 -0.047618 -0.034422
v -0.103299 -0.049306 -0.032242
v -0.102597 -0.051427 -0.028825
v -0.100698 -0.051463 -0.028881
v -0.089892 -0.051463 -0.028881
v -0.102597 -0.028826 -0.051453
v -0.100698 -0.029829 -0.050922
v -0.089892 -0.031307 -0.050031
v -0.100698 -0.031307 -0.050031
v -0.102597 -0.027932 -0.051915
v -0.102598 -0.025116 -0.053359
v -0.102598 -0.023721 -0.053963
v -0.102598 -0.021046 -0.055108
v -0.102598 -0.019923 -0.055490
v -0.102598 -0.018027 -0.056107
v -0.102181 -0.015305 -0.056965
v -0.102727 -0.014406 -0.057163
v -0.102598 -0.012337 -0.057641
v -0.102598 -0.010441 -0.057991
v -0.102598 -0.008544 -0.058287
v -0.102598 -0.006642 -0.058525
v -0.102134 -0.004108 -0.058861
v -0.103598 0.000066 -0.058871
v -0.102697 -0.002896 -0.058888
v -0.103398 -0.003555 -0.058815
v -0.103566 -0.002290 -0.058848
v -0.103598 -0.000953 -0.058871
v -0.104511 -0.037002 -0.042705
v -0.104128 -0.040941 -0.040954
v -0.104122 -0.042817 -0.039034
v -0.104488 -0.044588 -0.035118
v -0.104520 -0.025618 -0.050295
v -0.104429 -0.046484 -0.033222
v -0.103995 -0.050309 -0.029353
v -0.104121 -0.048559 -0.031497
v -0.104095 -0.000953 -0.057882
v -0.104534 -0.008544 -0.055985
v -0.104467 -0.018027 -0.054088
v -0.104523 -0.021825 -0.052192
v -0.104485 -0.010441 -0.055985
v -0.103866 0.000066 -0.058340
v -0.103929 -0.048026 -0.033222
v -0.104009 -0.046495 -0.035079
v -0.103807 -0.045863 -0.036491
v -0.102597 -0.045319 -0.037708
v -0.102597 -0.046077 -0.036758
v -0.102597 -0.047023 -0.035544
v -0.102597 -0.047749 -0.034597
v -0.102035 -0.049358 -0.032311
v -0.102638 -0.049818 -0.031497
v -0.102597 -0.050868 -0.029771
v -0.102638 -0.048809 -0.033054
v -0.100698 -0.050920 -0.029831
v -0.089892 -0.050920 -0.029831
v -0.103678 -0.028669 -0.051360
v -0.102214 -0.032316 -0.049381
v -0.103480 -0.032248 -0.049338
v -0.089892 -0.032028 -0.049592
v -0.100698 -0.032342 -0.049401
v -0.103691 -0.024928 -0.053264
v -0.103582 -0.020942 -0.055065
v -0.102727 -0.016015 -0.056717
v -0.103447 -0.015158 -0.056925
v -0.103724 -0.013894 -0.057087
v -0.102697 -0.004741 -0.058746
v -0.103880 -0.012337 -0.057252
v -0.103988 -0.010441 -0.057417
v -0.104035 -0.008544 -0.057555
v -0.104045 -0.006642 -0.057674
v -0.104045 -0.004746 -0.057796
v -0.104510 -0.029411 -0.048395
v -0.104491 -0.035105 -0.044598
v -0.104122 -0.039024 -0.042830
v -0.103866 -0.042263 -0.040422
v -0.103864 -0.040408 -0.042283
v -0.103853 -0.044092 -0.038483
v -0.104087 -0.044672 -0.037081
v -0.104383 -0.027509 -0.050295
v -0.104379 -0.012337 -0.055985
v -0.103968 -0.018027 -0.055527
v -0.104249 -0.019923 -0.054088
v -0.104385 -0.023721 -0.052192
v -0.102597 -0.044374 -0.038790
v -0.100698 -0.045372 -0.037761
v -0.100698 -0.046124 -0.036814
v -0.100698 -0.047070 -0.035597
v -0.100698 -0.047785 -0.034647
v -0.100698 -0.048731 -0.033281
v -0.100698 -0.049368 -0.032331
v -0.100698 -0.050011 -0.031322
v -0.089892 -0.050011 -0.031322
v -0.103810 -0.027932 -0.051542
v -0.103836 -0.030983 -0.049698
v -0.100698 -0.033287 -0.048735
v -0.100698 -0.034635 -0.047785
v -0.102597 -0.034583 -0.047749
v -0.102597 -0.035529 -0.047049
v -0.103718 -0.034405 -0.047623
v -0.089892 -0.032342 -0.049401
v -0.103887 -0.023721 -0.053511
v -0.103886 -0.027509 -0.051644
v -0.103751 -0.019923 -0.055230
v -0.104424 -0.033204 -0.046498
v -0.104088 -0.037059 -0.044681
v -0.103854 -0.038475 -0.044097
v -0.102597 -0.041683 -0.041699
v -0.102597 -0.042577 -0.040752
v -0.102597 -0.039734 -0.043546
v -0.102597 -0.043527 -0.039740
v -0.104024 -0.025581 -0.052251
v -0.104297 -0.027927 -0.050298
v -0.104118 -0.031490 -0.048580
v -0.100698 -0.044426 -0.038842
v -0.089892 -0.045372 -0.037761
v -0.089892 -0.046124 -0.036814
v -0.089892 -0.047070 -0.035597
v -0.089892 -0.047785 -0.034647
v -0.089892 -0.048444 -0.033697
v -0.089892 -0.048731 -0.033281
v -0.089892 -0.049175 -0.032621
v -0.089892 -0.049368 -0.032331
v -0.103999 -0.029343 -0.050318
v -0.103925 -0.033204 -0.048049
v -0.089892 -0.033287 -0.048735
v -0.089892 -0.034635 -0.047785
v -0.100698 -0.035581 -0.047099
v -0.102597 -0.036730 -0.046099
v -0.102597 -0.037676 -0.045321
v -0.103808 -0.036464 -0.045885
v -0.104006 -0.035064 -0.046508
v -0.100698 -0.041730 -0.041748
v -0.100698 -0.042629 -0.040799
v -0.100698 -0.039787 -0.043596
v -0.100698 -0.038836 -0.044424
v -0.102597 -0.038784 -0.044371
v -0.100698 -0.043574 -0.039789
v -0.089892 -0.044426 -0.038842
v -0.089892 -0.035581 -0.047099
v -0.100698 -0.036783 -0.046149
v -0.100698 -0.037733 -0.045370
v -0.089892 -0.041730 -0.041748
v -0.089892 -0.042357 -0.041089
v -0.089892 -0.040481 -0.042936
v -0.089892 -0.043287 -0.040099
v -0.089892 -0.039787 -0.043596
v -0.089892 -0.038836 -0.044424
v -0.089892 -0.043574 -0.039789
v -0.089892 -0.036783 -0.046149
v -0.089892 -0.037733 -0.045370
f 2 3 1
f 3 2 6
f 1 3 4
f 8 4 3
f 9 4 10
f 10 17 9
f 4 8 10
f 85 53 88
f 195 163 194
f 83 82 122
f 18 19 11
f 57 94 95
f 56 94 89
f 94 57 89
f 14 50 49
f 42 41 75
f 75 76 42
f 218 217 230
f 231 218 230
f 41 42 13
f 13 15 7
f 187 148 147
f 147 148 97
f 97 98 147
f 183 151 146
f 97 148 146
f 146 101 97
f 119 82 123
f 224 236 234
f 120 82 119
f 196 195 220
f 194 214 221
f 221 195 194
f 220 195 221
f 17 53 16
f 9 17 16
f 56 18 55
f 124 122 168
f 124 84 83
f 83 122 124
f 20 12 19
f 20 57 58
f 19 57 20
f 54 18 56
f 56 89 54
f 54 19 18
f 54 57 19
f 54 89 57
f 49 50 81
f 115 81 113
f 113 76 112
f 116 81 115
f 115 113 116
f 155 157 116
f 43 42 76
f 43 13 42
f 41 13 40
f 110 154 155
f 155 116 110
f 219 226 220
f 219 231 226
f 218 231 219
f 189 219 220
f 218 219 189
f 220 221 189
f 189 221 214
f 188 148 187
f 187 217 188
f 217 218 188
f 188 189 148
f 218 189 188
f 226 231 225
f 78 113 79
f 79 81 50
f 79 113 81
f 155 154 152
f 27 13 26
f 28 13 27
f 26 13 25
f 25 13 24
f 29 13 28
f 97 101 62
f 186 217 187
f 187 147 186
f 162 163 119
f 119 123 162
f 194 163 162
f 162 169 194
f 162 123 169
f 183 146 184
f 214 213 184
f 184 189 214
f 184 146 148
f 148 189 184
f 203 214 194
f 203 213 214
f 194 169 203
f 168 122 121
f 121 122 82
f 82 120 121
f 166 120 164
f 164 196 166
f 195 196 164
f 163 195 164
f 119 163 164
f 164 120 119
f 52 16 51
f 84 52 51
f 83 84 51
f 51 82 83
f 51 53 85
f 51 16 53
f 56 55 90
f 90 91 56
f 95 94 144
f 93 94 56
f 125 90 84
f 91 90 125
f 84 124 126
f 126 125 84
f 85 88 127
f 160 127 161
f 49 81 80
f 77 113 78
f 76 113 77
f 81 116 117
f 159 160 117
f 117 116 157
f 117 160 161
f 156 113 112
f 112 116 156
f 156 116 113
f 86 51 85
f 86 123 82
f 82 51 86
f 39 38 73
f 39 13 38
f 39 40 13
f 74 110 75
f 74 39 73
f 40 39 74
f 71 34 70
f 75 110 111
f 111 76 75
f 112 76 111
f 111 116 112
f 111 110 116
f 149 190 150
f 60 99 100
f 100 98 60
f 150 147 100
f 100 147 98
f 99 149 100
f 100 149 150
f 48 13 47
f 15 13 48
f 69 68 105
f 151 152 102
f 102 65 64
f 102 146 151
f 101 146 102
f 102 62 101
f 171 157 155
f 171 170 157
f 192 151 183
f 183 184 192
f 192 184 213
f 169 201 192
f 30 68 69
f 69 31 30
f 30 29 68
f 31 13 30
f 13 29 30
f 24 13 23
f 63 102 64
f 62 102 63
f 97 62 61
f 185 147 150
f 185 186 147
f 87 55 52
f 87 90 55
f 87 52 84
f 84 90 87
f 211 212 180
f 142 144 94
f 140 144 142
f 94 93 142
f 208 209 178
f 132 127 88
f 128 160 159
f 85 127 128
f 127 160 128
f 128 86 85
f 159 117 158
f 158 117 157
f 157 170 158
f 118 132 114
f 127 132 118
f 81 117 118
f 161 127 118
f 118 117 161
f 13 43 44
f 44 45 13
f 77 45 44
f 44 43 76
f 76 77 44
f 46 77 78
f 78 47 46
f 46 45 77
f 47 13 46
f 13 45 46
f 32 31 69
f 69 70 32
f 32 13 31
f 72 108 73
f 154 110 109
f 109 108 154
f 73 108 109
f 109 74 73
f 110 74 109
f 104 68 67
f 104 105 68
f 152 105 104
f 67 66 104
f 104 66 65
f 155 152 193
f 193 171 155
f 170 171 129
f 169 192 202
f 202 192 213
f 202 203 169
f 213 203 202
f 13 34 35
f 35 36 13
f 35 34 71
f 13 21 22
f 22 23 13
f 59 21 60
f 60 98 59
f 59 98 97
f 97 61 59
f 181 140 180
f 181 144 140
f 141 93 140
f 140 142 141
f 141 142 93
f 134 124 168
f 168 135 134
f 168 121 167
f 167 135 168
f 135 167 174
f 224 197 199
f 199 225 224
f 226 225 199
f 220 226 199
f 199 196 220
f 166 196 199
f 199 197 166
f 180 140 179
f 140 178 179
f 210 211 179
f 179 211 180
f 179 209 210
f 179 178 209
f 139 178 140
f 235 238 227
f 131 128 159
f 159 158 131
f 131 158 170
f 170 129 131
f 86 128 131
f 131 129 86
f 154 153 106
f 106 152 154
f 106 105 152
f 69 105 106
f 106 70 69
f 33 70 34
f 33 32 70
f 33 34 13
f 13 32 33
f 107 72 71
f 108 72 107
f 71 70 107
f 154 108 107
f 107 153 154
f 70 106 107
f 107 106 153
f 73 38 37
f 36 72 37
f 37 72 73
f 38 13 37
f 13 36 37
f 103 102 152
f 152 104 103
f 65 102 103
f 103 104 65
f 191 152 151
f 191 193 152
f 151 192 191
f 191 192 201
f 171 193 191
f 169 123 130
f 123 86 130
f 86 129 130
f 91 125 133
f 125 126 133
f 133 126 124
f 124 134 133
f 166 197 165
f 165 167 121
f 165 197 198
f 198 167 165
f 165 120 166
f 165 121 120
f 140 93 143
f 143 139 140
f 93 139 143
f 178 139 177
f 139 138 177
f 223 233 235
f 235 227 223
f 198 197 223
f 200 167 198
f 200 174 167
f 198 223 200
f 200 223 227
f 200 227 204
f 204 174 200
f 172 129 171
f 171 191 172
f 169 130 173
f 173 130 129
f 129 172 173
f 173 172 191
f 173 201 169
f 173 191 201
f 176 137 175
f 176 177 138
f 138 137 176
f 232 233 222
f 233 223 222
f 222 234 232
f 224 234 222
f 222 197 224
f 222 223 197
f 92 137 138
f 92 139 93
f 92 138 139
f 56 91 92
f 92 93 56
f 91 133 92
f 92 134 135
f 92 133 134
f 175 137 136
f 136 204 175
f 136 174 204
f 135 174 136
f 136 92 135
f 137 92 136
f 5 11 12
f 12 11 19
f 96 58 57
f 57 95 96
f 15 14 7
f 50 14 15
f 13 7 3
f 3 6 13
f 55 5 1
f 1 4 55
f 55 4 9
f 55 11 5
f 9 16 55
f 18 11 55
f 55 16 52
f 230 217 229
f 229 239 230
f 230 239 240
f 240 231 230
f 67 68 29
f 29 28 67
f 65 25 64
f 26 25 65
f 216 229 186
f 186 229 217
f 41 40 74
f 75 41 74
f 237 236 224
f 224 225 237
f 231 240 237
f 237 225 231
f 48 47 78
f 78 79 48
f 50 15 48
f 48 79 50
f 67 28 66
f 28 27 66
f 26 65 66
f 66 27 26
f 64 25 63
f 63 25 24
f 24 23 63
f 63 23 62
f 190 215 185
f 150 190 185
f 185 215 216
f 216 186 185
f 96 95 145
f 95 144 145
f 228 205 204
f 204 205 175
f 132 88 53
f 3 7 132
f 17 10 132
f 132 8 3
f 132 10 8
f 132 53 17
f 7 14 132
f 49 80 132
f 132 14 49
f 132 80 114
f 114 80 118
f 118 80 81
f 35 72 36
f 71 72 35
f 62 23 22
f 22 61 62
f 61 22 59
f 59 22 21
f 227 238 228
f 228 204 227
f 180 212 182
f 182 181 180
f 182 145 144
f 144 181 182
f 206 2 1
f 206 20 58
f 206 6 2
f 1 5 206
f 5 12 206
f 206 58 96
f 212 211 206
f 206 234 236
f 206 13 6
f 96 145 206
f 60 21 206
f 206 209 208
f 206 229 216
f 216 215 206
f 206 99 60
f 228 238 206
f 232 234 206
f 206 233 232
f 12 20 206
f 239 229 206
f 206 240 239
f 206 215 190
f 236 237 206
f 206 21 13
f 206 238 235
f 235 233 206
f 190 149 206
f 206 237 240
f 206 149 99
f 206 211 210
f 210 209 206
f 208 207 206
f 206 205 228
f 206 182 212
f 145 182 206
f 177 207 208
f 208 178 177
f 175 205 176
f 205 206 176
f 176 206 207
f 207 177 176
