v 0.044191 -0.022769 0.032765
v 0.043520 -0.022769 0.035092
v 0.043638 -0.023724 0.033197
v 0.043760 -0.023721 0.032765
v 0.041195 -0.031116 0.025607
v 0.040516 -0.031116 0.024287
v 0.039819 -0.031116 0.024091
v 0.037807 -0.031116 0.023846
v 0.038312 -0.022769 0.032765
v 0.043120 -0.022769 0.036430
v 0.042763 -0.023196 0.036991
v 0.043024 -0.023833 0.035153
v 0.042488 -0.024538 0.035826
v 0.042680 -0.024887 0.034560
v 0.043185 -0.024872 0.032765
v 0.040955 -0.031116 0.027162
v 0.038795 -0.034203 0.026673
v 0.040498 -0.032063 0.025607
v 0.038835 -0.034250 0.024589
v 0.039213 -0.033210 0.024387
v 0.039841 -0.031432 0.024144
v 0.037816 -0.033210 0.023942
v 0.037816 -0.031311 0.023811
v 0.036008 -0.031116 0.024265
v 0.000679 -0.052179 0.023776
v 0.000679 -0.050503 0.024213
v 0.030970 -0.022769 0.042710
v 0.000679 -0.049538 0.025522
v -0.000297 -0.041809 0.042710
v 0.042945 -0.022769 0.036991
v 0.042588 -0.022837 0.038007
v 0.042292 -0.024148 0.036991
v 0.040651 -0.026548 0.037903
v 0.040864 -0.026913 0.036641
v 0.042741 -0.025698 0.032765
v 0.042880 -0.025234 0.033197
v 0.040485 -0.028181 0.035451
v 0.042932 -0.025354 0.032765
v 0.040899 -0.031116 0.027505
v 0.038839 -0.034262 0.025607
v 0.040350 -0.031859 0.027505
v 0.038913 -0.032456 0.030858
v 0.038221 -0.033136 0.031414
v 0.037162 -0.034540 0.031297
v 0.037445 -0.034890 0.029401
v 0.036836 -0.036022 0.028356
v 0.037019 -0.036223 0.027093
v 0.037123 -0.036334 0.025607
v 0.038073 -0.035211 0.025607
v 0.037054 -0.036257 0.024502
v 0.037737 -0.034970 0.024346
v 0.035856 -0.036937 0.024287
v 0.035913 -0.035106 0.023876
v 0.034018 -0.037005 0.023866
v 0.032124 -0.038898 0.023859
v 0.026428 -0.042693 0.023794
v 0.011260 -0.050280 0.023789
v 0.001767 -0.052179 0.023781
v 0.000679 -0.053726 0.024219
v -0.000297 -0.053333 0.032765
v -0.000297 -0.048127 0.032765
v 0.038138 -0.022769 0.042710
v -0.000297 -0.049464 0.042710
v 0.042632 -0.022769 0.037946
v 0.042597 -0.022769 0.038048
v 0.042140 -0.022769 0.039058
v 0.041883 -0.023570 0.038739
v 0.040960 -0.025203 0.038886
v 0.040424 -0.026152 0.038886
v 0.038691 -0.028354 0.039685
v 0.038987 -0.028812 0.038421
v 0.039200 -0.029434 0.036871
v 0.040298 -0.027535 0.037160
v 0.042392 -0.026292 0.032765
v 0.038808 -0.030424 0.036159
v 0.039967 -0.029239 0.034928
v 0.040293 -0.029780 0.032765
v 0.040881 -0.028834 0.032765
v 0.040637 -0.031116 0.028441
v 0.040267 -0.031116 0.029718
v 0.038726 -0.032211 0.032122
v 0.037141 -0.034002 0.032765
v 0.036971 -0.034293 0.032574
v 0.036374 -0.035490 0.031297
v 0.036675 -0.035836 0.029401
v 0.035425 -0.036520 0.031297
v 0.035730 -0.036826 0.029401
v 0.035151 -0.038137 0.027123
v 0.034872 -0.038505 0.026602
v 0.036213 -0.037281 0.025607
v 0.035181 -0.038174 0.024491
v 0.034341 -0.039204 0.025607
v 0.034580 -0.038505 0.024384
v 0.033966 -0.038843 0.024274
v 0.033979 -0.038505 0.024198
v 0.032011 -0.040735 0.024313
v 0.030221 -0.040797 0.023916
v 0.024529 -0.044589 0.023848
v 0.020745 -0.046485 0.023802
v 0.005565 -0.052179 0.023881
v 0.003670 -0.052179 0.023807
v 0.016952 -0.048381 0.023811
v 0.013155 -0.050280 0.023898
v 0.001767 -0.053682 0.024224
v 0.000679 -0.054366 0.025607
v 0.000679 -0.054236 0.027505
v -0.000297 -0.053330 0.032795
v 0.039780 -0.022772 0.042710
v 0.039788 -0.022769 0.042699
v -0.000297 -0.049764 0.042319
v -0.000227 -0.049460 0.042710
v 0.041835 -0.022769 0.039668
v 0.040712 -0.024770 0.039918
v 0.039087 -0.027086 0.040343
v 0.038369 -0.027640 0.040899
v 0.037354 -0.029347 0.040700
v 0.036988 -0.030526 0.040011
v 0.038290 -0.029434 0.038986
v 0.038560 -0.030077 0.037423
v 0.038974 -0.030656 0.035093
v 0.039558 -0.030844 0.032765
v 0.037811 -0.031308 0.036979
v 0.037058 -0.032505 0.036532
v 0.037310 -0.032827 0.035093
v 0.038255 -0.031602 0.035093
v 0.039867 -0.031116 0.031071
v 0.039057 -0.031515 0.032765
v 0.038626 -0.032085 0.032765
v 0.038556 -0.031998 0.033197
v 0.036762 -0.034036 0.033840
v 0.036718 -0.034516 0.032765
v 0.036082 -0.035258 0.032765
v 0.035211 -0.036235 0.032765
v 0.035168 -0.036263 0.032819
v 0.033339 -0.038131 0.032765
v 0.033461 -0.038505 0.031297
v 0.033613 -0.038505 0.030836
v 0.033065 -0.039848 0.028441
v 0.034702 -0.038505 0.027407
v 0.033269 -0.040036 0.027179
v 0.033300 -0.040067 0.024480
v 0.033391 -0.040151 0.025607
v 0.030221 -0.042294 0.024361
v 0.027996 -0.044066 0.024371
v 0.028510 -0.042876 0.024131
v 0.026445 -0.044657 0.024194
v 0.024529 -0.046157 0.024293
v 0.022809 -0.046668 0.024150
v 0.018846 -0.048381 0.024030
v 0.007463 -0.052179 0.024030
v 0.005565 -0.053478 0.024324
v 0.003670 -0.053608 0.024248
v 0.016952 -0.049943 0.024254
v 0.013155 -0.051579 0.024345
v 0.011260 -0.051861 0.024232
v 0.001767 -0.054276 0.025607
v 0.001767 -0.054146 0.027505
v 0.001767 -0.053831 0.029399
v 0.000679 -0.054100 0.028308
v -0.000297 -0.053289 0.032971
v 0.000679 -0.053766 0.030206
v 0.000679 -0.053571 0.031297
v 0.000679 -0.053271 0.032765
v 0.039331 -0.023635 0.042710
v 0.040659 -0.022769 0.041733
v -0.000297 -0.049844 0.042191
v -0.000127 -0.049757 0.042313
v -0.000127 -0.049454 0.042710
v 0.041317 -0.022769 0.040602
v 0.040986 -0.023724 0.040371
v 0.040659 -0.022772 0.041731
v 0.039701 -0.025599 0.040764
v 0.038673 -0.026431 0.041609
v 0.037006 -0.028667 0.041898
v 0.036544 -0.029932 0.041275
v 0.035891 -0.031283 0.040752
v 0.035238 -0.032595 0.040230
v 0.036553 -0.031856 0.038886
v 0.037280 -0.030906 0.038886
v 0.036805 -0.032187 0.037796
v 0.039274 -0.031048 0.033197
v 0.039331 -0.031150 0.032765
v 0.035042 -0.034246 0.038087
v 0.035259 -0.034500 0.036991
v 0.036553 -0.033776 0.035093
v 0.035608 -0.034893 0.035093
v 0.034767 -0.035839 0.035093
v 0.033818 -0.036817 0.035093
v 0.032886 -0.037760 0.035093
v 0.032964 -0.038505 0.032765
v 0.033086 -0.038505 0.032408
v 0.032590 -0.039378 0.031297
v 0.031432 -0.040009 0.032765
v 0.031392 -0.040046 0.032765
v 0.031641 -0.040265 0.031297
v 0.032172 -0.040844 0.027640
v 0.031266 -0.041824 0.026840
v 0.031305 -0.041855 0.024558
v 0.032294 -0.041100 0.025607
v 0.025827 -0.045752 0.024467
v 0.022295 -0.047744 0.024404
v 0.020558 -0.048381 0.024326
v 0.007463 -0.053296 0.024474
v 0.003670 -0.054106 0.025607
v 0.018846 -0.049544 0.024474
v 0.014531 -0.051366 0.024510
v 0.008661 -0.053178 0.024597
v 0.003670 -0.053958 0.027505
v 0.001767 -0.053497 0.031297
v -0.000297 -0.053088 0.033837
v -0.000127 -0.052785 0.035093
v 0.001767 -0.053221 0.032647
v 0.000992 -0.053249 0.032765
v 0.039044 -0.025163 0.042068
v 0.038129 -0.025732 0.042710
v -0.000297 -0.050797 0.040667
v -0.000036 -0.050803 0.040630
v 0.001767 -0.049671 0.042196
v 0.000774 -0.049371 0.042710
v 0.038025 -0.025905 0.042710
v 0.037380 -0.027519 0.042309
v 0.037010 -0.027519 0.042710
v 0.035943 -0.029063 0.042710
v 0.035695 -0.029406 0.042710
v 0.035277 -0.030770 0.042070
v 0.034780 -0.032038 0.041494
v 0.034110 -0.033319 0.040914
v 0.033435 -0.034571 0.040332
v 0.034702 -0.033860 0.039353
v 0.035521 -0.033220 0.038786
v 0.033949 -0.035041 0.038771
v 0.033195 -0.036183 0.038189
v 0.034402 -0.035447 0.036991
v 0.033457 -0.036449 0.036991
v 0.032516 -0.037395 0.036991
v 0.031575 -0.038338 0.036991
v 0.031937 -0.038697 0.035093
v 0.031153 -0.039823 0.034085
v 0.032342 -0.039118 0.032765
v 0.031353 -0.040080 0.032765
v 0.030500 -0.041215 0.031297
v 0.030835 -0.041478 0.029399
v 0.031344 -0.041886 0.025607
v 0.029032 -0.043445 0.027505
v 0.029232 -0.043603 0.025607
v 0.028279 -0.044283 0.025607
v 0.026920 -0.045232 0.025607
v 0.025971 -0.045845 0.025607
v 0.023515 -0.047391 0.025607
v 0.019800 -0.049337 0.024654
v 0.005565 -0.053831 0.025607
v 0.015650 -0.051087 0.025607
v 0.014701 -0.051424 0.025607
v 0.013155 -0.051926 0.025607
v 0.011260 -0.052519 0.025607
v 0.009680 -0.052968 0.025607
v 0.008730 -0.053191 0.025607
v 0.007463 -0.053450 0.025607
v 0.003670 -0.053617 0.029399
v 0.002956 -0.053166 0.032413
v 0.005565 -0.053642 0.027505
v -0.000297 -0.052798 0.035080
v -0.000127 -0.052284 0.036991
v -0.000297 -0.052343 0.036814
v 0.001767 -0.052993 0.033596
v 0.001767 -0.052628 0.035093
v -0.000297 -0.051010 0.040296
v 0.000661 -0.051220 0.039809
v 0.001767 -0.050543 0.040784
v 0.001767 -0.049278 0.042710
v 0.003670 -0.049544 0.042028
v 0.037811 -0.026248 0.042710
v 0.034127 -0.031435 0.042710
v 0.033522 -0.032777 0.042187
v 0.032964 -0.034042 0.041598
v 0.032281 -0.035270 0.040979
v 0.031597 -0.036464 0.040361
v 0.032856 -0.035833 0.039455
v 0.031305 -0.038079 0.038183
v 0.030526 -0.039285 0.036991
v 0.030944 -0.039647 0.035093
v 0.029999 -0.040429 0.035093
v 0.028827 -0.041379 0.035093
v 0.027882 -0.042143 0.035093
v 0.029716 -0.041400 0.032765
v 0.029346 -0.041802 0.032428
v 0.027282 -0.043568 0.031994
v 0.028213 -0.043018 0.031336
v 0.027512 -0.043748 0.030730
v 0.028701 -0.043182 0.029399
v 0.027752 -0.043924 0.029399
v 0.028083 -0.044165 0.027505
v 0.026702 -0.045115 0.027505
v 0.025757 -0.045715 0.027505
v 0.024529 -0.046482 0.027505
v 0.023288 -0.047255 0.027505
v 0.022343 -0.047803 0.027505
v 0.022570 -0.047902 0.025607
v 0.019800 -0.049337 0.024723
v 0.016952 -0.050558 0.025607
v 0.008591 -0.053163 0.026749
v 0.016952 -0.050370 0.027505
v 0.014474 -0.051356 0.027169
v 0.011260 -0.052355 0.027505
v 0.003622 -0.053280 0.031270
v 0.003670 -0.052380 0.035093
v 0.004215 -0.053054 0.031885
v 0.005125 -0.052689 0.032765
v 0.005569 -0.052510 0.033197
v 0.005569 -0.052055 0.035093
v 0.007411 -0.052925 0.029360
v 0.007463 -0.052556 0.031297
v 0.004894 -0.053181 0.030619
v -0.000036 -0.051561 0.039060
v -0.000297 -0.051585 0.039038
v -0.000297 -0.052294 0.036991
v 0.001767 -0.052127 0.036991
v 0.001767 -0.051539 0.038715
v -0.000297 -0.051248 0.039874
v 0.001767 -0.051152 0.039662
v 0.003670 -0.050292 0.040784
v 0.003670 -0.049018 0.042710
v 0.005099 -0.049426 0.041863
v 0.032559 -0.033266 0.042710
v 0.031697 -0.034707 0.042252
v 0.031083 -0.035969 0.041627
v 0.030382 -0.037148 0.040969
v 0.029668 -0.038286 0.040309
v 0.030935 -0.037732 0.039447
v 0.030130 -0.038812 0.038730
v 0.029324 -0.039882 0.038013
v 0.029576 -0.040092 0.036991
v 0.027595 -0.041911 0.036476
v 0.026398 -0.043194 0.035271
v 0.027029 -0.043383 0.033197
v 0.027125 -0.043448 0.032765
v 0.028414 -0.042331 0.033116
v 0.025749 -0.043822 0.034756
v 0.026511 -0.043881 0.032765
v 0.026193 -0.044097 0.032765
v 0.026559 -0.044237 0.031336
v 0.026276 -0.044942 0.029310
v 0.025300 -0.045430 0.029879
v 0.021751 -0.047472 0.030502
v 0.021964 -0.047599 0.029399
v 0.020745 -0.048613 0.027505
v 0.019752 -0.049312 0.025989
v 0.020558 -0.048935 0.025455
v 0.019008 -0.049674 0.025455
v 0.009279 -0.052894 0.027431
v 0.018555 -0.049643 0.027505
v 0.017139 -0.049841 0.029581
v 0.016704 -0.049655 0.031297
v 0.015053 -0.050323 0.031297
v 0.015053 -0.050722 0.029399
v 0.015088 -0.051047 0.027685
v 0.013812 -0.051137 0.029399
v 0.013342 -0.051632 0.027685
v 0.011260 -0.051972 0.029399
v 0.009366 -0.052130 0.031297
v 0.009366 -0.052504 0.029399
v 0.013120 -0.050973 0.031338
v 0.003670 -0.051864 0.036991
v 0.005604 -0.051508 0.037093
v 0.005543 -0.052928 0.031270
v 0.007463 -0.052142 0.033197
v 0.007642 -0.051591 0.035277
v 0.007137 -0.051372 0.036530
v 0.003670 -0.051409 0.038395
v 0.003670 -0.051029 0.039346
v 0.005665 -0.049856 0.040941
v 0.004981 -0.048777 0.042710
v 0.006361 -0.049300 0.041679
v 0.005665 -0.048758 0.042569
v 0.005652 -0.048650 0.042710
v 0.032146 -0.033711 0.042710
v 0.030774 -0.035150 0.042710
v 0.030269 -0.035638 0.042710
v 0.029816 -0.036563 0.042237
v 0.029128 -0.037831 0.041575
v 0.027634 -0.040043 0.040122
v 0.028897 -0.039548 0.039277
v 0.026894 -0.041354 0.038886
v 0.027277 -0.041657 0.037740
v 0.028270 -0.041131 0.037062
v 0.026554 -0.042452 0.037062
v 0.025474 -0.043630 0.036022
v 0.024717 -0.044336 0.035271
v 0.024460 -0.045072 0.033264
v 0.026084 -0.044051 0.033197
v 0.025840 -0.044326 0.032765
v 0.025017 -0.045254 0.031297
v 0.023880 -0.045573 0.032765
v 0.023628 -0.045727 0.032765
v 0.022700 -0.046287 0.032765
v 0.021451 -0.047311 0.031766
v 0.020793 -0.047778 0.031201
v 0.020745 -0.048205 0.029399
v 0.017893 -0.049331 0.030335
v 0.018846 -0.048669 0.031297
v 0.016312 -0.049476 0.032765
v 0.015162 -0.049928 0.032765
v 0.013150 -0.050531 0.033197
v 0.013146 -0.050633 0.032765
v 0.011352 -0.051539 0.031338
v 0.010690 -0.051428 0.032765
v 0.009492 -0.051762 0.032765
v 0.012750 -0.050766 0.032765
v 0.012040 -0.051177 0.031996
v 0.004994 -0.051298 0.038118
v 0.006261 -0.051183 0.037792
v 0.009545 -0.051607 0.033377
v 0.009035 -0.051394 0.034767
v 0.008399 -0.051227 0.036031
v 0.007642 -0.051081 0.037093
v 0.005604 -0.050911 0.038804
v 0.007463 -0.049711 0.040510
v 0.005817 -0.048616 0.042710
v 0.007463 -0.049167 0.041457
v 0.009357 -0.047970 0.042432
v 0.008103 -0.048078 0.042710
v 0.007407 -0.048254 0.042710
v 0.028749 -0.037033 0.042710
v 0.028557 -0.037206 0.042710
v 0.027865 -0.038329 0.042139
v 0.025801 -0.040095 0.042007
v 0.027068 -0.039591 0.041386
v 0.026319 -0.040701 0.040662
v 0.025566 -0.041809 0.039933
v 0.025945 -0.042084 0.038886
v 0.025204 -0.043451 0.036991
v 0.023854 -0.043813 0.038322
v 0.024259 -0.044070 0.036991
v 0.023214 -0.045319 0.035093
v 0.023489 -0.045480 0.033942
v 0.024599 -0.045121 0.032765
v 0.022770 -0.046105 0.033264
v 0.021194 -0.047169 0.032765
v 0.020527 -0.047512 0.032765
v 0.022261 -0.045879 0.035093
v 0.020275 -0.047636 0.032765
v 0.018851 -0.048195 0.033197
v 0.016948 -0.049037 0.033325
v 0.016952 -0.048564 0.035093
v 0.015933 -0.049306 0.034042
v 0.015202 -0.049773 0.033325
v 0.014640 -0.049541 0.035093
v 0.013150 -0.050054 0.035093
v 0.010298 -0.051227 0.034130
v 0.010925 -0.051356 0.032765
v 0.014252 -0.049392 0.036230
v 0.010816 -0.051390 0.032765
v 0.009357 -0.050682 0.036991
v 0.009357 -0.050002 0.038886
v 0.007463 -0.050481 0.038886
v 0.009545 -0.051128 0.035277
v 0.009357 -0.049476 0.040087
v 0.009357 -0.048919 0.041036
v 0.011256 -0.047691 0.042074
v 0.009357 -0.047750 0.042710
v 0.026441 -0.038911 0.042710
v 0.026450 -0.038907 0.042706
v 0.024512 -0.040420 0.042710
v 0.024368 -0.040670 0.042560
v 0.023719 -0.041833 0.041846
v 0.024982 -0.041360 0.041199
v 0.024425 -0.042146 0.040652
v 0.023384 -0.043516 0.039586
v 0.024508 -0.043080 0.038927
v 0.022705 -0.044230 0.038927
v 0.021529 -0.045446 0.037685
v 0.022583 -0.045069 0.037027
v 0.021930 -0.045669 0.036419
v 0.020584 -0.046859 0.034954
v 0.019879 -0.047450 0.034202
v 0.020131 -0.047595 0.033197
v 0.017057 -0.047923 0.037069
v 0.015593 -0.049167 0.035093
v 0.019474 -0.047286 0.035494
v 0.018211 -0.047580 0.036489
v 0.011256 -0.050670 0.035093
v 0.011256 -0.050138 0.036991
v 0.014949 -0.048888 0.036914
v 0.013682 -0.049188 0.037496
v 0.013089 -0.049572 0.036914
v 0.011086 -0.049544 0.038806
v 0.010342 -0.049343 0.039853
v 0.011086 -0.048666 0.040604
v 0.012401 -0.047503 0.041826
v 0.011256 -0.047184 0.042710
v 0.024294 -0.040584 0.042710
v 0.023950 -0.040825 0.042710
v 0.022635 -0.041734 0.042710
v 0.022635 -0.042174 0.042228
v 0.020192 -0.043856 0.041998
v 0.021451 -0.043491 0.041518
v 0.022705 -0.043154 0.040845
v 0.022121 -0.043906 0.040254
v 0.019765 -0.045523 0.039802
v 0.019879 -0.045495 0.039726
v 0.020837 -0.045254 0.039056
v 0.020266 -0.045802 0.038537
v 0.020837 -0.046064 0.037027
v 0.017762 -0.047373 0.037751
v 0.016499 -0.047663 0.038478
v 0.018846 -0.047088 0.037069
v 0.012419 -0.049402 0.038120
v 0.013089 -0.048879 0.038806
v 0.015180 -0.047994 0.039021
v 0.011605 -0.049142 0.039386
v 0.014635 -0.047648 0.040206
v 0.013081 -0.047871 0.040815
v 0.013664 -0.047271 0.041470
v 0.015049 -0.046040 0.042365
v 0.013194 -0.046494 0.042710
v 0.021085 -0.042699 0.042710
v 0.019879 -0.044781 0.040873
v 0.020819 -0.042857 0.042710
v 0.019879 -0.043383 0.042710
v 0.018711 -0.044029 0.042710
v 0.018624 -0.044076 0.042710
v 0.017727 -0.045455 0.041611
v 0.020793 -0.044298 0.040845
v 0.019016 -0.045229 0.040899
v 0.018498 -0.045845 0.040345
v 0.015903 -0.047391 0.039742
v 0.017057 -0.047181 0.039021
v 0.019016 -0.046222 0.039056
v 0.019879 -0.046154 0.038135
v 0.015180 -0.047051 0.040815
v 0.016460 -0.045740 0.041992
v 0.015049 -0.045758 0.042710
v 0.017091 -0.044840 0.042710
v 0.017039 -0.046197 0.040899
v 0.016852 -0.044951 0.042710
f 29 9 28
f 28 61 29
f 27 9 29
f 110 111 63
f 26 28 9
f 9 24 26
f 25 61 26
f 61 28 26
f 8 9 1
f 8 24 9
f 25 26 8
f 8 26 24
f 60 61 25
f 25 59 60
f 60 59 105
f 1 5 6
f 4 5 1
f 250 200 249
f 7 8 1
f 1 6 7
f 109 62 108
f 4 14 15
f 58 59 25
f 58 101 59
f 106 60 105
f 317 318 263
f 317 363 369
f 369 318 317
f 103 155 150
f 429 382 381
f 298 250 249
f 200 250 201
f 201 153 202
f 206 153 205
f 205 250 206
f 153 201 205
f 205 201 250
f 206 250 252
f 167 111 110
f 459 490 460
f 459 460 420
f 467 497 468
f 468 429 467
f 23 7 22
f 8 7 23
f 22 53 23
f 25 8 23
f 22 7 21
f 21 7 6
f 6 20 21
f 52 53 22
f 114 70 113
f 185 130 124
f 19 6 5
f 19 20 6
f 75 77 76
f 121 77 75
f 39 78 77
f 39 74 78
f 35 74 39
f 39 38 35
f 15 38 39
f 222 223 174
f 72 119 75
f 59 101 104
f 101 152 104
f 105 59 104
f 104 152 105
f 100 152 101
f 100 103 150
f 177 178 117
f 328 380 381
f 381 382 328
f 328 382 329
f 493 494 465
f 465 497 467
f 496 497 465
f 315 316 263
f 105 152 156
f 154 153 206
f 203 155 154
f 154 103 153
f 155 103 154
f 151 155 203
f 151 203 204
f 150 155 151
f 204 156 151
f 151 156 152
f 151 100 150
f 152 100 151
f 200 201 147
f 208 204 251
f 206 254 255
f 255 254 304
f 330 279 329
f 329 382 330
f 432 384 430
f 473 474 440
f 200 246 247
f 292 247 246
f 293 247 292
f 333 384 386
f 434 473 440
f 302 347 351
f 351 347 346
f 298 347 348
f 300 347 302
f 302 252 300
f 300 252 250
f 253 254 206
f 206 252 253
f 304 254 303
f 254 253 303
f 303 252 302
f 303 253 252
f 323 321 371
f 323 322 271
f 271 321 323
f 322 270 271
f 271 270 218
f 459 458 489
f 489 515 490
f 489 490 459
f 415 414 453
f 510 486 507
f 421 420 460
f 517 499 523
f 517 523 496
f 533 531 522
f 523 499 498
f 498 499 468
f 498 468 497
f 496 523 498
f 498 497 496
f 500 499 502
f 468 499 500
f 53 52 95
f 66 113 67
f 112 113 66
f 33 70 71
f 71 72 33
f 119 72 71
f 117 70 116
f 174 175 116
f 116 175 117
f 67 113 68
f 69 70 33
f 69 113 70
f 33 68 69
f 69 68 113
f 170 112 169
f 170 113 112
f 36 15 14
f 36 38 15
f 36 14 35
f 35 38 36
f 11 10 30
f 3 4 1
f 3 14 4
f 2 3 1
f 12 3 2
f 2 10 11
f 11 12 2
f 13 12 11
f 11 32 13
f 14 3 13
f 13 3 12
f 13 32 33
f 123 124 75
f 123 185 124
f 20 19 51
f 51 52 22
f 22 21 51
f 51 21 20
f 43 17 42
f 34 13 33
f 14 13 34
f 77 78 37
f 37 76 77
f 78 74 37
f 14 34 37
f 75 76 37
f 37 72 75
f 35 14 37
f 37 74 35
f 79 39 77
f 16 17 5
f 16 39 17
f 5 4 16
f 4 15 16
f 15 39 16
f 115 70 114
f 114 173 115
f 115 173 174
f 174 116 115
f 115 116 70
f 221 173 220
f 221 222 174
f 174 173 221
f 220 173 214
f 225 273 274
f 224 273 225
f 174 223 224
f 224 225 174
f 143 96 141
f 143 144 96
f 200 144 198
f 198 143 141
f 144 143 198
f 244 292 245
f 245 292 246
f 245 246 200
f 200 198 245
f 516 494 493
f 117 178 179
f 117 175 176
f 176 177 117
f 467 429 466
f 466 465 467
f 319 315 268
f 318 320 268
f 268 320 321
f 263 316 264
f 208 209 158
f 212 162 209
f 208 251 261
f 261 251 301
f 301 311 261
f 360 361 304
f 385 384 333
f 333 332 385
f 183 232 233
f 231 183 229
f 232 183 231
f 329 279 278
f 279 232 278
f 232 231 278
f 278 231 229
f 331 330 382
f 384 385 331
f 331 385 332
f 279 330 331
f 469 468 432
f 432 430 469
f 429 468 469
f 469 430 429
f 382 429 383
f 429 430 383
f 383 430 384
f 384 331 383
f 383 331 382
f 297 298 249
f 346 347 297
f 297 347 298
f 249 200 248
f 200 247 248
f 248 294 249
f 248 247 293
f 293 294 248
f 293 341 342
f 293 292 291
f 291 292 244
f 400 353 399
f 354 362 355
f 354 355 302
f 302 353 354
f 347 300 349
f 483 478 477
f 505 484 483
f 483 477 505
f 505 477 504
f 304 303 358
f 302 355 356
f 356 303 302
f 355 303 356
f 166 167 110
f 166 216 167
f 218 167 217
f 167 216 217
f 370 371 321
f 321 320 370
f 370 318 369
f 370 320 318
f 323 371 373
f 373 421 422
f 420 421 373
f 111 167 168
f 372 322 323
f 323 375 372
f 509 505 526
f 484 505 509
f 482 449 481
f 482 486 453
f 507 486 482
f 451 478 483
f 483 484 451
f 451 482 481
f 526 530 511
f 526 499 525
f 499 517 524
f 517 522 524
f 524 525 499
f 522 525 524
f 533 522 521
f 432 468 470
f 468 500 470
f 470 471 432
f 101 58 57
f 57 102 103
f 57 58 25
f 57 100 101
f 103 100 57
f 25 23 56
f 56 57 25
f 149 201 202
f 202 153 149
f 153 103 149
f 103 102 149
f 65 66 31
f 31 66 67
f 67 68 31
f 31 68 33
f 33 32 31
f 31 32 11
f 11 30 31
f 114 113 172
f 172 173 114
f 18 19 5
f 18 40 19
f 5 17 18
f 17 40 18
f 49 40 17
f 19 40 49
f 94 95 52
f 52 93 94
f 94 93 141
f 141 96 94
f 73 34 33
f 73 37 34
f 33 72 73
f 72 37 73
f 75 124 125
f 120 121 75
f 75 125 120
f 124 130 82
f 130 83 82
f 129 120 125
f 129 125 124
f 124 82 129
f 126 127 81
f 81 43 42
f 81 82 43
f 80 79 77
f 77 121 80
f 80 121 126
f 80 81 42
f 126 81 80
f 17 39 41
f 39 79 41
f 79 80 41
f 42 17 41
f 41 80 42
f 272 221 220
f 222 221 272
f 171 164 214
f 171 170 169
f 171 214 173
f 173 172 171
f 113 170 171
f 171 172 113
f 324 274 273
f 244 245 197
f 118 71 70
f 118 70 117
f 117 179 118
f 119 71 118
f 118 179 119
f 225 274 226
f 177 176 226
f 226 176 175
f 174 225 226
f 226 175 174
f 277 328 329
f 329 278 277
f 326 277 276
f 424 425 380
f 380 425 426
f 465 466 426
f 428 466 429
f 381 380 428
f 428 429 381
f 493 465 492
f 465 491 492
f 318 268 314
f 314 268 315
f 263 318 314
f 314 315 263
f 211 264 262
f 263 264 211
f 208 158 157
f 157 158 106
f 157 204 208
f 157 156 204
f 159 158 209
f 106 158 159
f 363 317 306
f 306 364 363
f 260 209 208
f 260 212 209
f 453 414 456
f 456 482 453
f 449 482 456
f 414 413 456
f 456 413 449
f 350 301 304
f 304 361 350
f 301 251 258
f 258 257 301
f 301 257 256
f 304 301 256
f 256 255 304
f 286 241 240
f 240 241 195
f 195 194 240
f 282 332 333
f 333 283 282
f 185 123 184
f 123 183 184
f 184 183 233
f 233 187 184
f 229 183 230
f 230 183 178
f 230 177 229
f 178 177 230
f 180 183 123
f 178 183 180
f 119 179 180
f 180 179 178
f 189 235 236
f 236 232 279
f 236 235 232
f 233 232 234
f 232 235 234
f 234 187 233
f 234 235 189
f 229 177 228
f 228 278 229
f 276 277 228
f 228 277 278
f 396 434 440
f 296 297 249
f 346 344 398
f 400 399 398
f 398 351 346
f 398 399 351
f 432 471 472
f 472 471 473
f 287 241 286
f 343 294 293
f 293 342 343
f 344 296 343
f 289 341 293
f 293 291 289
f 289 287 341
f 289 291 244
f 435 388 434
f 387 388 338
f 333 386 387
f 387 334 333
f 434 388 387
f 302 351 352
f 351 399 352
f 352 353 302
f 352 399 353
f 401 354 353
f 442 443 401
f 400 442 401
f 401 353 400
f 347 349 299
f 299 348 347
f 299 300 250
f 299 349 300
f 250 298 299
f 298 348 299
f 502 504 529
f 504 506 529
f 473 471 503
f 503 506 479
f 503 529 506
f 479 474 503
f 474 473 503
f 503 471 502
f 502 529 503
f 444 477 478
f 444 443 442
f 444 401 443
f 527 505 504
f 527 499 526
f 526 505 527
f 355 362 357
f 357 303 355
f 357 358 303
f 357 362 304
f 304 358 357
f 218 217 269
f 269 217 268
f 269 268 321
f 269 271 218
f 321 271 269
f 267 217 216
f 319 268 267
f 268 217 267
f 512 489 488
f 488 489 458
f 419 457 458
f 420 373 419
f 419 458 459
f 459 420 419
f 417 373 371
f 417 455 457
f 457 419 417
f 417 419 373
f 418 373 422
f 535 531 533
f 535 532 531
f 531 532 514
f 514 532 515
f 515 489 514
f 219 167 218
f 219 168 167
f 218 270 219
f 508 510 507
f 507 484 508
f 484 509 508
f 508 511 510
f 508 509 526
f 526 511 508
f 478 451 447
f 447 451 403
f 448 451 481
f 403 451 448
f 481 449 448
f 449 403 448
f 485 451 484
f 482 451 485
f 485 484 507
f 507 482 485
f 513 511 530
f 513 489 512
f 512 511 513
f 531 514 513
f 513 514 489
f 513 522 531
f 530 522 513
f 526 525 534
f 534 525 522
f 534 530 526
f 534 522 530
f 495 516 518
f 495 521 522
f 494 516 495
f 495 517 496
f 495 522 517
f 496 465 495
f 495 465 494
f 501 500 502
f 501 470 500
f 502 471 501
f 471 470 501
f 55 56 23
f 55 94 96
f 95 94 55
f 102 57 99
f 57 56 99
f 99 149 102
f 97 55 96
f 65 31 64
f 64 31 30
f 141 93 91
f 91 93 52
f 83 84 44
f 17 43 44
f 44 82 83
f 43 82 44
f 17 44 45
f 138 194 195
f 195 140 138
f 141 91 92
f 188 234 189
f 187 234 188
f 187 188 134
f 134 188 189
f 130 185 186
f 185 184 186
f 186 184 187
f 121 120 181
f 181 129 127
f 120 129 181
f 127 129 128
f 128 81 127
f 128 129 82
f 82 81 128
f 220 214 215
f 214 164 215
f 165 171 169
f 165 109 108
f 108 164 165
f 164 171 165
f 199 197 243
f 243 197 245
f 243 198 199
f 243 245 198
f 196 140 195
f 196 197 140
f 325 324 376
f 376 377 325
f 377 326 325
f 327 326 380
f 277 326 327
f 380 328 327
f 328 277 327
f 380 326 379
f 423 424 379
f 379 424 380
f 462 424 461
f 425 424 462
f 462 426 425
f 464 491 465
f 465 426 464
f 380 426 427
f 427 426 466
f 427 428 380
f 466 428 427
f 266 306 317
f 266 260 306
f 209 162 161
f 161 159 209
f 364 306 310
f 306 260 310
f 407 449 412
f 449 413 412
f 360 405 406
f 406 449 407
f 407 360 406
f 304 362 359
f 362 405 359
f 359 360 304
f 359 405 360
f 257 258 207
f 207 256 257
f 207 258 251
f 204 203 207
f 207 251 204
f 207 154 206
f 203 154 207
f 206 255 207
f 255 256 207
f 286 240 285
f 75 119 122
f 119 180 122
f 122 123 75
f 122 180 123
f 189 236 237
f 237 190 189
f 332 282 281
f 177 226 227
f 227 228 177
f 440 474 438
f 438 396 440
f 394 344 393
f 393 435 394
f 441 442 400
f 297 296 345
f 345 296 344
f 346 297 345
f 345 344 346
f 249 294 295
f 295 296 249
f 294 343 295
f 295 343 296
f 390 436 391
f 393 436 389
f 389 435 393
f 388 435 389
f 389 436 390
f 389 390 338
f 338 388 389
f 338 390 339
f 339 287 338
f 333 334 284
f 284 283 333
f 286 285 284
f 284 285 240
f 393 344 392
f 344 343 392
f 392 436 393
f 392 391 436
f 392 342 341
f 392 343 342
f 290 289 244
f 241 289 290
f 241 287 288
f 288 289 241
f 287 289 288
f 395 396 344
f 344 394 395
f 431 387 386
f 431 384 432
f 431 386 384
f 473 434 433
f 434 387 433
f 433 472 473
f 387 431 433
f 432 472 433
f 433 431 432
f 402 401 446
f 354 401 402
f 446 447 402
f 402 403 354
f 402 447 403
f 480 444 479
f 477 444 480
f 479 506 480
f 480 506 504
f 504 477 480
f 445 444 478
f 401 444 445
f 446 401 445
f 445 447 446
f 478 447 445
f 499 527 528
f 528 527 504
f 502 499 528
f 528 504 502
f 455 417 416
f 371 370 416
f 416 417 371
f 453 486 454
f 458 457 487
f 487 488 458
f 486 510 487
f 512 488 487
f 487 454 486
f 487 511 512
f 510 511 487
f 457 455 487
f 455 454 487
f 374 418 375
f 374 375 323
f 323 373 374
f 373 418 374
f 519 495 518
f 53 95 54
f 95 55 54
f 54 23 53
f 54 55 23
f 146 144 200
f 200 147 146
f 56 55 98
f 55 97 98
f 98 99 56
f 97 146 98
f 98 146 147
f 50 51 19
f 50 92 91
f 52 51 50
f 50 91 52
f 141 92 142
f 142 198 141
f 199 198 142
f 142 92 140
f 142 197 199
f 140 197 142
f 131 83 130
f 130 186 131
f 131 84 83
f 187 134 133
f 133 134 86
f 121 181 182
f 182 181 127
f 126 121 182
f 182 127 126
f 242 196 195
f 197 196 242
f 195 241 242
f 244 197 242
f 242 290 244
f 241 290 242
f 423 379 378
f 378 326 377
f 378 379 326
f 463 462 461
f 426 462 463
f 491 464 463
f 463 464 426
f 265 266 211
f 265 211 212
f 212 260 265
f 260 266 265
f 210 211 262
f 210 160 211
f 107 161 162
f 159 161 107
f 60 106 107
f 106 159 107
f 364 310 368
f 414 415 368
f 407 412 366
f 366 412 413
f 366 360 407
f 259 260 208
f 259 305 260
f 208 261 259
f 261 305 259
f 312 261 311
f 360 366 312
f 361 360 312
f 312 350 361
f 312 311 301
f 301 350 312
f 450 403 449
f 194 138 193
f 190 239 192
f 138 136 192
f 192 193 138
f 239 193 192
f 238 240 194
f 194 193 238
f 238 281 282
f 238 282 283
f 238 237 236
f 236 281 238
f 238 193 239
f 283 284 238
f 238 284 240
f 238 239 190
f 190 237 238
f 332 281 280
f 280 281 236
f 280 236 279
f 279 331 280
f 280 331 332
f 276 228 275
f 228 227 275
f 275 326 276
f 275 226 274
f 275 227 226
f 275 325 326
f 274 324 275
f 324 325 275
f 475 474 479
f 475 438 474
f 479 444 475
f 475 444 442
f 397 441 400
f 400 398 397
f 397 398 344
f 344 396 397
f 390 391 340
f 340 339 390
f 340 392 341
f 391 392 340
f 341 287 340
f 287 339 340
f 287 284 336
f 338 287 336
f 336 387 338
f 337 287 286
f 286 284 337
f 337 284 287
f 437 435 434
f 434 396 437
f 396 395 437
f 437 394 435
f 437 395 394
f 410 370 369
f 410 416 370
f 369 363 410
f 363 364 410
f 521 495 520
f 495 519 520
f 144 146 145
f 145 146 97
f 96 144 145
f 145 97 96
f 148 98 147
f 148 147 201
f 201 149 148
f 149 99 148
f 99 98 148
f 86 138 87
f 85 133 86
f 84 133 85
f 85 44 84
f 85 45 44
f 48 49 17
f 17 47 48
f 19 49 48
f 48 50 19
f 140 92 89
f 137 138 86
f 86 136 137
f 137 136 138
f 86 134 135
f 135 136 86
f 189 190 135
f 135 134 189
f 84 131 132
f 132 131 186
f 132 133 84
f 132 186 187
f 187 133 132
f 160 107 163
f 211 160 163
f 162 212 163
f 163 107 162
f 367 413 414
f 367 366 413
f 414 368 367
f 367 368 310
f 310 366 367
f 309 310 260
f 309 366 310
f 309 312 366
f 313 305 261
f 261 312 313
f 449 406 452
f 452 450 449
f 452 406 405
f 405 450 452
f 409 405 362
f 409 450 405
f 439 397 396
f 441 397 439
f 396 438 439
f 438 475 439
f 334 387 335
f 387 336 335
f 335 284 334
f 335 336 284
f 411 410 364
f 364 368 411
f 411 368 415
f 411 454 455
f 455 416 411
f 416 410 411
f 411 415 453
f 453 454 411
f 140 89 88
f 88 89 47
f 46 88 47
f 87 88 46
f 46 47 17
f 86 87 46
f 46 85 86
f 17 45 46
f 45 85 46
f 90 48 47
f 90 89 92
f 47 89 90
f 92 50 90
f 50 48 90
f 191 192 136
f 136 135 191
f 190 192 191
f 191 135 190
f 212 211 213
f 213 163 212
f 211 163 213
f 308 309 260
f 312 309 308
f 260 305 307
f 305 313 307
f 307 308 260
f 312 308 307
f 362 354 404
f 354 403 404
f 403 450 408
f 450 409 408
f 408 404 403
f 408 409 362
f 362 404 408
f 441 439 476
f 476 439 475
f 442 441 476
f 476 475 442
f 139 87 138
f 139 88 87
f 139 138 140
f 140 88 139
f 365 313 312
f 312 307 365
f 365 307 313
f 105 156 157
f 157 106 105
f 165 27 62
f 1 9 165
f 9 27 165
f 165 2 1
f 62 109 165
f 65 64 165
f 169 112 165
f 165 66 65
f 112 66 165
f 165 30 10
f 10 2 165
f 165 64 30
f 263 211 266
f 266 317 263
f 107 63 29
f 29 61 107
f 110 63 107
f 61 60 107
f 319 267 107
f 107 315 319
f 316 315 107
f 107 264 316
f 107 166 110
f 262 264 107
f 216 166 107
f 107 267 216
f 107 210 262
f 160 210 107
f 108 62 520
f 322 372 520
f 520 27 29
f 29 63 520
f 62 27 520
f 520 63 111
f 520 516 493
f 223 222 520
f 520 272 220
f 520 164 108
f 493 492 520
f 520 377 376
f 423 378 520
f 520 418 422
f 520 460 490
f 533 521 520
f 422 421 520
f 520 224 223
f 376 324 520
f 490 515 520
f 520 270 322
f 111 168 520
f 520 421 460
f 273 224 520
f 518 516 520
f 520 519 518
f 461 424 520
f 515 532 520
f 520 535 533
f 520 372 375
f 220 215 520
f 222 272 520
f 520 219 270
f 520 324 273
f 520 424 423
f 520 492 491
f 375 418 520
f 532 535 520
f 168 219 520
f 520 215 164
f 520 463 461
f 520 378 377
f 491 463 520
