v -0.085144 0.013850 -0.019068
v -0.086578 0.013815 -0.019068
v -0.083771 0.013760 -0.019068
v -0.084132 0.012857 -0.021051
v -0.085144 0.013291 -0.020260
v -0.086611 0.012878 -0.021090
v -0.086611 0.013267 -0.020260
v -0.087375 0.012847 -0.021034
v -0.087552 0.013024 -0.020260
v -0.087730 0.013291 -0.019068
v -0.082212 0.013572 -0.019068
v -0.083154 0.012803 -0.020945
v -0.083656 0.013128 -0.020377
v -0.085144 0.012885 -0.021102
v -0.083656 0.012491 -0.021614
v -0.083679 0.011694 -0.023047
v -0.085144 0.011741 -0.023126
v -0.085144 0.012475 -0.021834
v -0.085144 0.011323 -0.023861
v -0.086611 0.012460 -0.021822
v -0.086611 0.011729 -0.023096
v -0.086611 0.011297 -0.023828
v -0.086611 0.010804 -0.024658
v -0.087512 0.010040 -0.025618
v -0.087579 0.011592 -0.022857
v -0.087696 0.012085 -0.021604
v -0.087820 0.013116 -0.019068
v -0.081842 0.013522 -0.019068
v -0.082212 0.013090 -0.020084
v -0.082212 0.012248 -0.021726
v -0.082212 0.011602 -0.022885
v -0.082212 0.012741 -0.020816
v -0.072753 0.011349 -0.020975
v -0.083679 0.011276 -0.023781
v -0.085144 0.010830 -0.024658
v -0.086611 0.010134 -0.025756
v -0.087706 0.010325 -0.024658
v -0.086611 0.009632 -0.026488
v -0.087393 0.007003 -0.029842
v -0.087597 0.008723 -0.027255
v -0.087789 0.009190 -0.026113
v -0.088035 0.012092 -0.020260
v -0.088210 0.012092 -0.019068
v -0.080745 0.013374 -0.019068
v -0.079280 0.012892 -0.019664
v -0.079182 0.011750 -0.021862
v -0.073731 0.011418 -0.021097
v -0.074884 0.011085 -0.021975
v -0.068323 0.009889 -0.022451
v -0.082212 0.011182 -0.023619
v -0.067435 0.011566 -0.019068
v -0.067435 0.011354 -0.019512
v -0.067435 0.011106 -0.019995
v -0.070485 0.011191 -0.020664
v -0.067435 0.010243 -0.021606
v -0.067435 0.010210 -0.021665
v -0.073312 0.011052 -0.021642
v -0.082212 0.010533 -0.024658
v -0.083679 0.010724 -0.024658
v -0.085144 0.010136 -0.025756
v -0.085144 0.009643 -0.026490
v -0.088186 0.009160 -0.024658
v -0.085144 0.008910 -0.027504
v -0.086611 0.008898 -0.027489
v -0.087610 0.007305 -0.029056
v -0.086611 0.008348 -0.028221
v -0.086611 0.007702 -0.029056
v -0.086611 0.007048 -0.029894
v -0.086611 0.006406 -0.030628
v -0.086611 0.005673 -0.031451
v -0.087446 0.005595 -0.031365
v -0.087626 0.006142 -0.030407
v -0.087871 0.007798 -0.027682
v -0.088088 0.006229 -0.029056
v -0.088241 0.010627 -0.021726
v -0.088261 0.011821 -0.019068
v -0.078988 0.013135 -0.019068
v -0.077092 0.012878 -0.019068
v -0.067553 0.009834 -0.022355
v -0.074250 0.009879 -0.023903
v -0.075227 0.009950 -0.024011
v -0.067435 0.005547 -0.019068
v -0.067435 0.011019 -0.020164
v -0.067549 0.011040 -0.020154
v -0.069018 0.011087 -0.020464
v -0.067435 0.009825 -0.022341
v -0.082212 0.009976 -0.025517
v -0.083679 0.010075 -0.025665
v -0.083679 0.009584 -0.026399
v -0.083679 0.008851 -0.027426
v -0.088255 0.007695 -0.026124
v -0.085144 0.008360 -0.028235
v -0.085144 0.007720 -0.029056
v -0.085144 0.007055 -0.029903
v -0.085144 0.006416 -0.030635
v -0.085144 0.005684 -0.031463
v -0.086611 0.004995 -0.032183
v -0.087481 0.004170 -0.032861
v -0.087681 0.004700 -0.031906
v -0.088141 0.004762 -0.030525
v -0.088302 0.009160 -0.023192
v -0.088304 0.010627 -0.020260
v -0.088241 0.010627 -0.019068
v -0.073417 0.009818 -0.023802
v -0.067435 0.009308 -0.023192
v -0.079280 0.009761 -0.025193
v -0.080369 0.009842 -0.025313
v -0.067435 0.009264 -0.023265
v -0.067553 0.008652 -0.024262
v -0.069018 0.008761 -0.024424
v -0.074884 0.005819 -0.019068
v -0.067435 -0.010074 -0.034510
v -0.082212 0.009485 -0.026249
v -0.082212 0.008752 -0.027297
v -0.083679 0.008299 -0.028158
v -0.088294 0.006229 -0.027590
v -0.083983 0.007013 -0.029854
v -0.083679 0.005616 -0.031388
v -0.083679 0.004934 -0.032120
v -0.085144 0.005000 -0.032195
v -0.086611 0.004262 -0.032948
v -0.087448 0.002674 -0.034285
v -0.087681 0.003216 -0.033391
v -0.088167 0.003297 -0.031988
v -0.088302 0.004762 -0.029056
v -0.088304 -0.005499 -0.037853
v -0.088296 -0.008432 -0.039319
v -0.088284 -0.010253 -0.040785
v -0.088153 0.010304 -0.019068
v -0.088216 -0.010253 -0.039673
v -0.070219 0.008360 -0.025289
v -0.073417 0.008596 -0.025641
v -0.067435 0.008643 -0.024248
v -0.067435 0.008605 -0.024306
v -0.075155 0.005878 -0.019068
v -0.086915 -0.010253 -0.037968
v -0.086611 -0.010253 -0.037911
v -0.067435 -0.010253 -0.034712
v -0.079280 0.009136 -0.026124
v -0.077331 0.008388 -0.026805
v -0.078308 0.008464 -0.026905
v -0.082212 0.008197 -0.028029
v -0.083007 0.006954 -0.029781
v -0.083569 0.007475 -0.029199
v -0.083569 0.006465 -0.030415
v -0.082668 0.005540 -0.031306
v -0.082469 0.004111 -0.032800
v -0.083679 0.004200 -0.032889
v -0.085144 0.004266 -0.032953
v -0.085144 0.003495 -0.033687
v -0.085144 0.002763 -0.034376
v -0.086611 0.003481 -0.033682
v -0.087630 0.001718 -0.034831
v -0.087397 0.001152 -0.035702
v -0.088098 0.000366 -0.034921
v -0.088143 0.001829 -0.033455
v -0.088302 0.003297 -0.030525
v -0.088300 -0.001099 -0.034921
v -0.088302 0.000366 -0.033455
v -0.088261 -0.006964 -0.039319
v -0.088278 -0.009897 -0.040785
v -0.088266 -0.002566 -0.036387
v -0.088227 -0.010253 -0.041139
v -0.087771 0.009327 -0.019068
v -0.088106 -0.010253 -0.039295
v -0.067435 0.008096 -0.025066
v -0.076348 0.006142 -0.019068
v -0.087644 -0.010253 -0.038268
v -0.086611 0.008733 -0.019068
v -0.067435 -0.010253 -0.040733
v -0.067435 0.007421 -0.026026
v -0.067435 0.007378 -0.026084
v -0.067435 0.006885 -0.026760
v -0.068325 0.006956 -0.026849
v -0.069302 0.007032 -0.026948
v -0.080745 0.008084 -0.027884
v -0.082212 0.007466 -0.028970
v -0.067435 0.006163 -0.027691
v -0.067435 0.005583 -0.028430
v -0.073157 0.005418 -0.029701
v -0.074136 0.005498 -0.029793
v -0.076348 0.005680 -0.029997
v -0.080745 0.006038 -0.030398
v -0.082192 0.006052 -0.030647
v -0.079280 0.005262 -0.030999
v -0.073848 0.004080 -0.031308
v -0.082079 0.004785 -0.032012
v -0.081493 0.004026 -0.032718
v -0.082594 0.002627 -0.034247
v -0.083679 0.003441 -0.033623
v -0.083679 0.002707 -0.034325
v -0.085144 0.001966 -0.035108
v -0.086611 0.002747 -0.034358
v -0.087618 0.000366 -0.036023
v -0.086611 0.001216 -0.035756
v -0.086611 0.000366 -0.036457
v -0.086611 -0.000410 -0.037086
v -0.087530 -0.003052 -0.038763
v -0.087612 -0.001399 -0.037428
v -0.086611 0.001947 -0.035089
v -0.087883 -0.000986 -0.036506
v -0.087808 -0.002564 -0.037890
v -0.088204 -0.004032 -0.037853
v -0.088106 -0.008432 -0.040785
v -0.087812 -0.010253 -0.042281
v -0.087736 -0.010253 -0.038425
v -0.071721 -0.010253 -0.041327
v -0.067435 -0.010013 -0.040623
v -0.073417 0.006781 -0.028092
v -0.067435 0.005538 -0.028482
v -0.069018 0.005076 -0.029312
v -0.067435 0.004212 -0.029992
v -0.071952 0.003920 -0.031137
v -0.067435 0.002801 -0.031494
v -0.079280 0.003098 -0.033232
v -0.067435 0.002742 -0.031552
v -0.069018 0.002188 -0.032361
v -0.077815 0.001468 -0.034515
v -0.082935 0.001100 -0.035655
v -0.083679 0.001893 -0.035057
v -0.067553 0.001327 -0.032936
v -0.074003 0.001126 -0.034210
v -0.085144 0.001237 -0.035772
v -0.085144 0.000366 -0.036490
v -0.085144 -0.000386 -0.037104
v -0.085144 -0.001120 -0.037635
v -0.086611 -0.001141 -0.037613
v -0.087356 -0.004749 -0.040062
v -0.087550 -0.005499 -0.040269
v -0.087655 -0.004168 -0.039279
v -0.088031 -0.005499 -0.039319
v -0.087749 -0.007033 -0.040806
v -0.087624 -0.008432 -0.041805
v -0.087747 -0.009975 -0.042291
v -0.087716 -0.010253 -0.042474
v -0.072132 -0.010253 -0.041383
v -0.069018 -0.009897 -0.040785
v -0.067435 -0.009890 -0.040564
v -0.067435 0.004953 -0.029153
v -0.067435 0.003535 -0.030724
v -0.067553 0.003544 -0.030736
v -0.069018 0.003669 -0.030870
v -0.067435 0.003476 -0.030787
v -0.067435 0.002046 -0.032225
v -0.081959 0.001008 -0.035577
v -0.082353 0.000458 -0.036093
v -0.083679 -0.000467 -0.037041
v -0.083679 0.000366 -0.036361
v -0.083679 0.001161 -0.035706
v -0.067435 0.001315 -0.032927
v -0.073026 0.001034 -0.034130
v -0.067553 -0.000226 -0.034304
v -0.083679 -0.001200 -0.037581
v -0.083679 -0.002215 -0.038312
v -0.085144 -0.002139 -0.038366
v -0.086611 -0.002892 -0.038875
v -0.086611 -0.003973 -0.039610
v -0.086611 -0.004706 -0.040088
v -0.086611 -0.005499 -0.040541
v -0.086611 -0.006728 -0.041238
v -0.086611 -0.007462 -0.041646
v -0.087436 -0.007568 -0.041589
v -0.087575 -0.010253 -0.042673
v -0.074452 -0.010253 -0.041697
v -0.076071 -0.009291 -0.041456
v -0.067435 -0.009017 -0.040128
v -0.070485 -0.000830 -0.035270
v -0.076348 -0.000266 -0.035737
v -0.079280 0.000017 -0.035969
v -0.080745 0.000156 -0.036086
v -0.082212 -0.000603 -0.036936
v -0.082212 -0.001337 -0.037482
v -0.067435 0.000487 -0.033668
v -0.067435 -0.000238 -0.034294
v -0.067435 -0.001200 -0.035089
v -0.082212 -0.002354 -0.038214
v -0.082212 -0.003088 -0.038735
v -0.083679 -0.002949 -0.038831
v -0.085144 -0.002873 -0.038887
v -0.085144 -0.003973 -0.039619
v -0.085144 -0.004704 -0.040088
v -0.085144 -0.005499 -0.040560
v -0.085144 -0.006717 -0.041256
v -0.085144 -0.007448 -0.041648
v -0.085144 -0.008432 -0.042152
v -0.086611 -0.008432 -0.042136
v -0.086611 -0.009673 -0.042741
v -0.086611 -0.010253 -0.043013
v -0.082537 -0.010253 -0.042781
v -0.082322 -0.010034 -0.042652
v -0.080745 -0.009897 -0.042375
v -0.079280 -0.009897 -0.042178
v -0.077815 -0.009050 -0.041575
v -0.076475 -0.008571 -0.041146
v -0.071917 -0.008314 -0.040386
v -0.071404 -0.007748 -0.040025
v -0.067553 -0.008267 -0.039757
v -0.067435 -0.008290 -0.039753
v -0.068088 -0.001795 -0.035683
v -0.077186 -0.001854 -0.037104
v -0.067435 -0.001861 -0.035631
v -0.080637 -0.002658 -0.038195
v -0.080077 -0.003314 -0.038575
v -0.082212 -0.004032 -0.039347
v -0.083765 -0.004168 -0.039635
v -0.084310 -0.004746 -0.040062
v -0.083765 -0.005395 -0.040393
v -0.083679 -0.006818 -0.041202
v -0.083679 -0.007552 -0.041594
v -0.083679 -0.008432 -0.042044
v -0.085144 -0.009656 -0.042755
v -0.085144 -0.010253 -0.043030
v -0.083229 -0.010253 -0.042865
v -0.083679 -0.009781 -0.042701
v -0.082253 -0.008335 -0.041822
v -0.080745 -0.008656 -0.041777
v -0.082768 -0.007651 -0.041542
v -0.072383 -0.007623 -0.040093
v -0.067435 -0.006868 -0.038958
v -0.067435 -0.002283 -0.035936
v -0.067580 -0.002456 -0.036082
v -0.067435 -0.003621 -0.036891
v -0.069018 -0.003454 -0.037011
v -0.073417 -0.002986 -0.037341
v -0.067435 -0.003678 -0.036931
v -0.067435 -0.004352 -0.037400
v -0.074884 -0.004629 -0.038674
v -0.082212 -0.004961 -0.039931
v -0.083334 -0.004839 -0.040006
v -0.082212 -0.005695 -0.040377
v -0.082253 -0.007082 -0.041165
v -0.083679 -0.010253 -0.042917
v -0.080745 -0.006964 -0.040890
v -0.078257 -0.006162 -0.040093
v -0.076348 -0.006396 -0.039957
v -0.067435 -0.006735 -0.038880
v -0.067435 -0.004433 -0.037452
v -0.073010 -0.004843 -0.038538
v -0.073987 -0.004730 -0.038608
v -0.080745 -0.005136 -0.039828
v -0.079280 -0.005308 -0.039722
v -0.077789 -0.005603 -0.039687
v -0.070485 -0.005874 -0.038803
v -0.068011 -0.006167 -0.038624
v -0.067435 -0.006235 -0.038582
v -0.067435 -0.005598 -0.038193
v -0.069018 -0.005315 -0.038249
v -0.070485 -0.005141 -0.038355
v -0.073466 -0.005398 -0.038941
v -0.067435 -0.005740 -0.038280
f 112 82 111
f 111 137 112
f 112 137 138
f 136 169 168
f 137 111 136
f 168 169 164
f 62 91 75
f 75 91 101
f 102 76 101
f 76 75 101
f 201 202 155
f 42 62 75
f 32 33 12
f 3 11 12
f 12 33 30
f 58 34 50
f 39 67 68
f 66 67 39
f 169 136 167
f 103 76 102
f 102 128 103
f 162 160 126
f 319 298 297
f 235 233 263
f 91 62 74
f 72 99 74
f 10 2 9
f 9 2 8
f 9 26 10
f 43 75 76
f 43 42 75
f 66 39 64
f 64 39 38
f 51 32 45
f 1 3 4
f 36 23 19
f 88 58 87
f 180 143 179
f 72 39 71
f 98 99 71
f 71 99 72
f 25 9 8
f 26 9 25
f 36 38 24
f 38 39 24
f 24 25 8
f 8 23 24
f 24 23 36
f 199 202 201
f 98 121 122
f 135 136 111
f 135 167 136
f 130 103 128
f 127 128 102
f 102 126 127
f 127 126 128
f 234 233 235
f 234 204 233
f 203 204 160
f 203 160 162
f 162 155 203
f 203 155 202
f 297 298 266
f 293 294 266
f 266 294 295
f 272 247 271
f 303 326 327
f 295 294 317
f 334 344 336
f 231 203 202
f 204 203 231
f 123 153 155
f 123 124 99
f 123 99 98
f 98 122 123
f 123 122 153
f 102 101 125
f 125 126 102
f 156 155 162
f 156 123 155
f 124 123 156
f 91 74 100
f 100 74 99
f 99 124 100
f 7 2 1
f 1 6 7
f 8 2 7
f 7 6 8
f 42 43 27
f 10 26 27
f 26 42 27
f 51 45 78
f 29 45 32
f 12 11 29
f 29 32 12
f 1 4 5
f 5 4 14
f 5 6 1
f 14 6 5
f 13 3 12
f 12 4 13
f 13 4 3
f 47 30 33
f 47 46 30
f 52 32 51
f 33 32 52
f 18 6 14
f 14 4 18
f 20 19 21
f 6 19 20
f 20 21 8
f 8 6 20
f 21 19 22
f 22 19 23
f 8 21 22
f 22 23 8
f 35 19 34
f 36 19 35
f 34 58 59
f 58 88 59
f 59 35 34
f 61 38 36
f 12 30 31
f 31 16 12
f 30 46 31
f 50 34 31
f 34 16 31
f 46 47 31
f 33 48 31
f 31 47 33
f 15 4 12
f 12 16 15
f 15 16 4
f 89 88 87
f 89 114 90
f 90 61 89
f 113 89 87
f 113 106 132
f 141 114 113
f 114 89 113
f 132 106 131
f 49 80 50
f 50 31 49
f 49 31 48
f 87 58 81
f 81 80 87
f 81 58 50
f 50 80 81
f 87 80 107
f 107 80 106
f 107 113 87
f 106 113 107
f 70 71 39
f 40 24 39
f 25 24 37
f 26 25 37
f 37 42 26
f 62 42 37
f 214 213 243
f 215 217 189
f 273 251 250
f 273 274 251
f 271 247 246
f 198 197 228
f 228 229 198
f 202 199 198
f 121 149 150
f 194 199 201
f 201 155 194
f 155 153 194
f 103 130 129
f 168 164 206
f 205 163 204
f 205 234 235
f 204 234 205
f 161 163 128
f 128 126 161
f 161 126 160
f 160 204 161
f 204 163 161
f 207 208 170
f 238 208 207
f 207 236 237
f 237 238 207
f 253 272 254
f 247 272 253
f 253 225 247
f 327 328 304
f 304 303 327
f 326 303 325
f 325 303 322
f 312 314 332
f 311 314 312
f 310 314 311
f 311 287 286
f 312 288 311
f 288 287 311
f 315 314 310
f 310 317 315
f 315 294 293
f 315 317 294
f 309 284 308
f 308 317 309
f 309 317 310
f 308 284 283
f 283 284 261
f 295 317 296
f 296 317 318
f 297 266 296
f 296 266 295
f 296 319 297
f 296 318 319
f 336 344 345
f 347 337 346
f 326 337 338
f 336 319 335
f 335 334 336
f 319 318 335
f 318 334 335
f 318 317 331
f 331 317 308
f 329 307 306
f 329 304 328
f 330 341 334
f 330 329 328
f 307 329 330
f 308 307 330
f 330 331 308
f 286 287 262
f 262 287 288
f 262 229 228
f 233 229 262
f 228 261 262
f 261 286 262
f 288 263 262
f 262 263 233
f 232 229 233
f 233 204 232
f 204 231 232
f 124 125 116
f 91 100 116
f 116 100 124
f 116 101 91
f 116 125 101
f 158 156 162
f 124 156 158
f 158 159 124
f 162 126 158
f 126 159 158
f 28 29 11
f 83 55 85
f 57 48 33
f 17 19 6
f 6 18 17
f 17 18 4
f 4 16 17
f 60 59 88
f 35 59 60
f 88 89 60
f 60 89 61
f 36 35 60
f 60 61 36
f 63 61 90
f 63 64 38
f 38 61 63
f 142 114 141
f 142 177 143
f 176 142 141
f 177 142 176
f 179 143 178
f 143 177 178
f 141 113 140
f 132 131 140
f 140 131 166
f 166 171 140
f 140 173 141
f 110 131 106
f 106 80 110
f 80 109 110
f 143 117 144
f 71 70 97
f 97 121 98
f 98 71 97
f 69 39 68
f 69 70 39
f 211 239 212
f 212 180 211
f 65 74 73
f 72 74 65
f 65 39 72
f 65 40 39
f 41 65 73
f 40 65 41
f 62 37 41
f 24 40 41
f 41 37 24
f 73 74 41
f 41 74 62
f 242 213 212
f 242 243 213
f 212 213 186
f 186 185 212
f 186 213 214
f 212 185 182
f 191 150 149
f 256 255 279
f 279 255 254
f 254 278 279
f 271 246 270
f 230 198 229
f 229 232 230
f 230 232 231
f 230 231 202
f 202 198 230
f 152 122 121
f 197 225 226
f 226 255 256
f 254 255 226
f 226 253 254
f 225 253 226
f 122 152 154
f 197 198 154
f 154 198 199
f 199 194 154
f 153 122 154
f 154 194 153
f 223 195 192
f 192 191 223
f 164 129 165
f 165 206 164
f 165 129 130
f 290 264 289
f 291 264 290
f 289 314 290
f 314 315 290
f 236 264 265
f 237 236 265
f 265 238 237
f 265 266 238
f 293 266 265
f 322 300 321
f 302 300 324
f 276 300 302
f 272 300 276
f 254 272 276
f 313 314 289
f 313 332 314
f 310 311 285
f 285 309 310
f 284 309 285
f 285 311 286
f 285 286 261
f 261 284 285
f 282 307 308
f 308 283 282
f 306 307 282
f 282 283 258
f 260 283 261
f 260 261 228
f 350 345 344
f 350 347 346
f 344 347 350
f 348 347 344
f 344 338 348
f 337 347 348
f 348 338 337
f 327 326 339
f 326 338 339
f 339 328 327
f 339 338 328
f 334 341 342
f 328 338 340
f 338 341 340
f 340 330 328
f 341 330 340
f 343 338 344
f 343 342 341
f 344 334 343
f 334 342 343
f 333 334 318
f 318 331 333
f 333 330 334
f 331 330 333
f 157 125 124
f 124 159 157
f 126 125 157
f 157 159 126
f 45 29 44
f 29 28 44
f 54 55 33
f 54 85 55
f 33 52 53
f 53 54 33
f 48 57 56
f 56 49 48
f 33 55 56
f 56 57 33
f 115 144 117
f 90 114 115
f 114 142 115
f 115 142 143
f 143 144 115
f 92 115 117
f 92 67 66
f 92 63 90
f 90 115 92
f 177 176 209
f 209 178 177
f 176 178 209
f 173 178 174
f 141 173 174
f 139 113 132
f 132 140 139
f 139 140 113
f 173 140 172
f 172 140 171
f 109 133 134
f 166 131 134
f 131 110 134
f 134 110 109
f 108 133 109
f 108 109 80
f 79 104 80
f 80 49 79
f 79 56 86
f 49 56 79
f 145 117 143
f 143 118 145
f 145 118 117
f 146 118 143
f 146 182 185
f 185 186 146
f 148 149 120
f 120 149 121
f 121 97 120
f 239 211 210
f 210 180 179
f 210 211 180
f 241 242 212
f 243 242 241
f 188 186 214
f 215 189 188
f 188 217 215
f 181 180 212
f 212 182 181
f 143 180 181
f 181 182 143
f 221 244 250
f 217 244 221
f 221 189 217
f 250 251 221
f 216 244 217
f 216 188 214
f 217 188 216
f 189 191 190
f 190 149 148
f 190 191 149
f 151 191 192
f 150 191 151
f 121 150 151
f 151 152 121
f 303 304 277
f 302 303 277
f 277 276 302
f 277 278 254
f 254 276 277
f 304 329 305
f 305 277 304
f 278 277 305
f 305 329 306
f 306 278 305
f 256 279 257
f 257 258 228
f 228 256 257
f 258 257 280
f 280 257 279
f 280 278 306
f 280 279 278
f 269 270 246
f 222 218 189
f 222 221 251
f 189 221 222
f 219 245 246
f 219 248 249
f 247 248 219
f 219 246 247
f 189 218 219
f 218 222 219
f 219 222 245
f 193 151 192
f 152 151 193
f 193 154 152
f 197 226 227
f 227 226 256
f 228 197 227
f 227 256 228
f 197 154 196
f 196 154 195
f 196 225 197
f 195 223 196
f 249 223 220
f 220 223 191
f 220 191 189
f 220 219 249
f 189 219 220
f 293 291 316
f 291 290 316
f 316 315 293
f 316 290 315
f 292 291 293
f 293 265 292
f 292 264 291
f 292 265 264
f 322 321 320
f 320 321 300
f 323 300 322
f 323 324 300
f 302 324 323
f 323 303 302
f 322 303 323
f 228 258 259
f 259 260 228
f 258 283 259
f 283 260 259
f 349 341 338
f 338 343 349
f 349 343 341
f 77 78 45
f 45 44 77
f 84 53 83
f 83 85 84
f 85 54 84
f 54 53 84
f 93 117 94
f 93 92 117
f 93 94 68
f 68 67 93
f 67 92 93
f 175 176 141
f 141 174 175
f 175 178 176
f 175 174 178
f 105 79 86
f 104 79 105
f 80 104 105
f 105 108 80
f 184 146 143
f 182 146 184
f 118 146 119
f 148 120 119
f 117 118 96
f 118 119 96
f 96 119 120
f 70 69 96
f 96 97 70
f 96 120 97
f 240 241 212
f 243 241 240
f 187 146 186
f 186 188 187
f 306 282 281
f 281 280 306
f 281 282 258
f 258 280 281
f 299 275 301
f 267 275 299
f 299 272 271
f 271 270 299
f 270 269 299
f 299 300 272
f 301 320 299
f 299 320 300
f 274 275 252
f 252 275 267
f 267 245 252
f 245 222 252
f 251 274 252
f 252 222 251
f 246 245 268
f 268 269 246
f 268 245 267
f 267 299 268
f 268 299 269
f 192 195 200
f 200 193 192
f 195 154 200
f 154 193 200
f 225 196 224
f 224 196 223
f 224 248 247
f 247 225 224
f 249 248 224
f 224 223 249
f 143 182 183
f 183 184 143
f 182 184 183
f 94 117 95
f 117 96 95
f 95 96 69
f 68 94 95
f 95 69 68
f 147 187 188
f 148 119 147
f 147 119 146
f 146 187 147
f 147 188 189
f 147 190 148
f 189 190 147
f 17 16 34
f 34 19 17
f 313 288 312
f 313 207 170
f 170 138 313
f 235 263 313
f 313 138 137
f 168 206 313
f 313 136 168
f 289 264 313
f 137 136 313
f 313 205 235
f 313 263 288
f 313 130 128
f 128 163 313
f 312 332 313
f 163 205 313
f 313 264 236
f 236 207 313
f 313 165 130
f 206 165 313
f 64 63 92
f 66 64 92
f 77 82 51
f 77 43 76
f 10 27 77
f 77 111 82
f 77 3 1
f 76 103 77
f 1 2 77
f 77 164 169
f 77 2 10
f 11 3 77
f 169 167 77
f 51 78 77
f 77 135 111
f 167 135 77
f 77 27 43
f 77 129 164
f 103 129 77
f 77 28 11
f 77 44 28
f 51 82 240
f 112 138 240
f 240 82 112
f 326 325 240
f 240 216 214
f 240 138 170
f 212 239 240
f 240 171 166
f 83 53 240
f 240 52 51
f 240 319 336
f 240 337 326
f 179 178 240
f 173 172 240
f 298 319 240
f 170 208 240
f 240 266 298
f 301 275 240
f 336 345 240
f 240 105 86
f 240 208 238
f 238 266 240
f 346 337 240
f 240 273 250
f 240 55 83
f 240 350 346
f 86 56 240
f 240 320 301
f 214 243 240
f 274 273 240
f 240 325 322
f 250 244 240
f 240 178 173
f 166 134 240
f 240 210 179
f 345 350 240
f 240 53 52
f 240 56 55
f 240 172 171
f 240 134 133
f 133 108 240
f 239 210 240
f 244 216 240
f 240 275 274
f 322 320 240
f 108 105 240
