v -0.089886 0.000960 0.058988
v -0.100696 0.000960 0.058988
v -0.089886 -0.000588 0.058988
v -0.077932 0.000960 0.058981
v -0.077932 0.002851 0.058897
v -0.089886 0.002851 0.058901
v -0.102596 0.000960 0.058931
v -0.100696 -0.000588 0.058988
v -0.100696 0.002851 0.058901
v -0.101932 0.004074 0.058823
v -0.077932 -0.000932 0.058981
v -0.075991 0.000778 0.058874
v -0.076589 0.002851 0.058850
v -0.076848 0.004103 0.058820
v -0.077932 0.004246 0.058830
v -0.089886 0.004236 0.058833
v -0.102578 0.002775 0.058850
v -0.103554 0.002087 0.058817
v -0.103590 0.000960 0.058840
v -0.102596 -0.000588 0.058931
v -0.089680 -0.006625 0.058621
v -0.089680 -0.005173 0.058776
v -0.089680 -0.004228 0.058830
v -0.089680 -0.002833 0.058897
v -0.089680 -0.000932 0.058981
v -0.098800 0.004236 0.058833
v -0.100696 0.004217 0.058833
v -0.103197 0.003357 0.058769
v -0.100696 0.005153 0.058780
v -0.102578 0.004724 0.058719
v -0.077932 -0.002833 0.058897
v -0.076866 -0.004075 0.058820
v -0.076631 -0.002833 0.058850
v -0.076012 -0.000750 0.058874
v -0.075086 0.000014 0.058803
v -0.075086 0.000023 0.058803
v -0.075327 0.001294 0.058776
v -0.076149 0.004743 0.058695
v -0.076039 0.006634 0.058514
v -0.077932 0.006634 0.058631
v -0.077932 0.005163 0.058776
v -0.075643 0.002851 0.058736
v -0.089886 0.004895 0.058796
v -0.104031 0.008535 0.057521
v -0.104043 0.006644 0.057652
v -0.103709 0.013904 0.057053
v -0.103870 0.012328 0.057218
v -0.103983 0.010436 0.057389
v -0.104043 0.004752 0.057766
v -0.104087 0.000960 0.057857
v -0.103995 -0.000588 0.058042
v -0.103590 -0.000588 0.058840
v -0.089680 -0.012329 0.057662
v -0.089680 -0.010437 0.058042
v -0.089680 -0.008527 0.058355
v -0.089680 -0.006998 0.058574
v -0.081728 -0.006625 0.058631
v -0.077932 -0.005173 0.058776
v -0.077932 -0.004228 0.058830
v -0.096903 0.005182 0.058780
v -0.098800 0.005173 0.058780
v -0.102596 0.006644 0.058500
v -0.102596 0.008535 0.058244
v -0.089886 0.006644 0.058628
v -0.100696 0.006644 0.058615
v -0.077932 -0.006625 0.058631
v -0.076039 -0.006625 0.058510
v -0.076155 -0.004715 0.058689
v -0.075211 -0.000578 0.058790
v -0.074139 -0.004734 0.058281
v -0.074499 -0.000578 0.058611
v -0.074327 0.000778 0.058557
v -0.074139 0.002851 0.058396
v -0.074139 0.004762 0.058288
v -0.074139 0.006634 0.058137
v -0.074139 0.008535 0.057877
v -0.076039 0.008535 0.058231
v -0.081728 0.006634 0.058631
v -0.089886 0.005182 0.058780
v -0.077932 0.008535 0.058339
v -0.077995 0.008478 0.058349
v -0.079835 0.008535 0.058345
v -0.083622 0.008535 0.058352
v -0.089886 0.008535 0.058362
v -0.104483 0.010436 0.055959
v -0.104531 0.008535 0.055959
v -0.102596 0.010436 0.057965
v -0.103495 0.015165 0.056905
v -0.103745 0.019922 0.055202
v -0.103959 0.018021 0.055491
v -0.104367 0.012328 0.055959
v -0.104087 -0.000588 0.057857
v -0.104537 0.006644 0.055959
v -0.089680 -0.043577 0.039793
v -0.089680 -0.041685 0.041711
v -0.089680 -0.040749 0.042643
v -0.089680 -0.039794 0.043586
v -0.089680 -0.038838 0.044411
v -0.089680 -0.037950 0.045175
v -0.089680 -0.036775 0.046124
v -0.089680 -0.035562 0.047070
v -0.089680 -0.034616 0.047763
v -0.089680 -0.033498 0.048534
v -0.089680 -0.032275 0.049348
v -0.089680 -0.031291 0.049981
v -0.089680 -0.029782 0.050907
v -0.089680 -0.027499 0.052176
v -0.089680 -0.026104 0.052906
v -0.089680 -0.025168 0.053344
v -0.089680 -0.022044 0.054703
v -0.089680 -0.021098 0.055111
v -0.089680 -0.019923 0.055518
v -0.089680 -0.018385 0.056026
v -0.089680 -0.018013 0.056147
v -0.089680 -0.016303 0.056683
v -0.089680 -0.015357 0.056959
v -0.089680 -0.014211 0.057235
v -0.085518 -0.012329 0.057665
v -0.085518 -0.014211 0.057245
v -0.083625 -0.014211 0.057248
v -0.083625 -0.012329 0.057665
v -0.081728 -0.012329 0.057662
v -0.078807 -0.012329 0.057655
v -0.081728 -0.010437 0.058012
v -0.078807 -0.008527 0.058342
v -0.085518 -0.008527 0.058355
v -0.100696 0.008535 0.058355
v -0.096903 0.008535 0.058362
v -0.077932 -0.008527 0.058339
v -0.076039 -0.008527 0.058231
v -0.074139 -0.006625 0.058137
v -0.074139 -0.008527 0.057881
v -0.074127 -0.004734 0.058275
v -0.074139 -0.002833 0.058386
v -0.074330 -0.000750 0.058554
v -0.074127 -0.006625 0.058133
v -0.074127 -0.000769 0.058477
v -0.074124 0.000807 0.058480
v -0.074124 0.002870 0.058389
v -0.074124 0.004762 0.058281
v -0.074124 0.006634 0.058133
v -0.074124 0.008535 0.057874
v -0.074139 0.010427 0.057548
v -0.074592 0.013789 0.057029
v -0.076039 0.012328 0.057548
v -0.077932 0.012328 0.057652
v -0.077995 0.010369 0.058009
v -0.089886 0.010436 0.058049
v -0.095007 0.010436 0.058066
v -0.104460 0.018021 0.054061
v -0.104525 0.016130 0.054061
v -0.100696 0.010436 0.058059
v -0.102596 0.012328 0.057601
v -0.102757 0.014410 0.057127
v -0.102230 0.015308 0.056949
v -0.102596 0.019922 0.055457
v -0.103578 0.020935 0.055040
v -0.103870 0.023715 0.053475
v -0.103947 0.021671 0.054091
v -0.104242 0.019922 0.054061
v -0.104486 -0.000588 0.055959
v -0.089680 -0.043949 0.039372
v -0.104519 0.050282 0.025609
v -0.077932 -0.043959 0.039375
v -0.077932 -0.043577 0.039793
v -0.077932 -0.042640 0.040775
v -0.077932 -0.041714 0.041725
v -0.087415 -0.039794 0.043586
v -0.081728 -0.038838 0.044421
v -0.083625 -0.037740 0.045366
v -0.089314 -0.037730 0.045360
v -0.078807 -0.037233 0.045777
v -0.078807 -0.035571 0.047076
v -0.077932 -0.034616 0.047763
v -0.077932 -0.033221 0.048716
v -0.078807 -0.032715 0.049056
v -0.089314 -0.032275 0.049348
v -0.077932 -0.031291 0.049981
v -0.078807 -0.029801 0.050907
v -0.078807 -0.028855 0.051442
v -0.078807 -0.027499 0.052186
v -0.085518 -0.026104 0.052909
v -0.083625 -0.025168 0.053344
v -0.078807 -0.024385 0.053687
v -0.085518 -0.022044 0.054703
v -0.089314 -0.021098 0.055111
v -0.078807 -0.019923 0.055521
v -0.077932 -0.019923 0.055521
v -0.077932 -0.018013 0.056147
v -0.077932 -0.016322 0.056683
v -0.077932 -0.015367 0.056965
v -0.077932 -0.014211 0.057248
v -0.077932 -0.012329 0.057652
v -0.098800 0.010436 0.058066
v -0.076039 -0.010428 0.057891
v -0.074595 -0.013800 0.057029
v -0.074139 -0.010428 0.057548
v -0.074127 -0.010428 0.057544
v -0.074127 -0.008507 0.057877
v -0.074127 -0.002833 0.058379
v -0.074124 -0.000578 0.058376
v -0.074124 0.010694 0.057497
v -0.074124 0.012624 0.057147
v -0.074124 0.014248 0.056800
v -0.075345 0.015050 0.056878
v -0.076000 0.014343 0.057117
v -0.076607 0.015308 0.056949
v -0.077932 0.014229 0.057255
v -0.081728 0.012328 0.057662
v -0.089886 0.012328 0.057679
v -0.095007 0.012328 0.057686
v -0.104370 0.023715 0.052169
v -0.104516 0.021814 0.052169
v -0.104516 0.025616 0.050271
v -0.100696 0.012328 0.057679
v -0.100696 0.014229 0.057241
v -0.100696 0.015366 0.056965
v -0.100696 0.016311 0.056686
v -0.100696 0.018021 0.056151
v -0.100696 0.019922 0.055521
v -0.102596 0.021040 0.055084
v -0.102596 0.025100 0.053313
v -0.103674 0.024909 0.053226
v -0.103867 0.027508 0.051610
v -0.104013 0.025568 0.052226
v -0.089043 -0.042230 0.024609
v -0.089680 -0.042230 0.032102
v -0.104445 0.050282 0.024602
v -0.104507 0.036994 0.042677
v -0.104507 0.042687 0.036992
v -0.104504 0.048381 0.029402
v -0.104370 0.050282 0.027507
v -0.104195 0.052202 0.024602
v -0.078944 -0.042230 0.024609
v -0.076039 -0.043863 0.039375
v -0.076039 -0.043529 0.039745
v -0.076039 -0.041676 0.041674
v -0.076039 -0.040720 0.042613
v -0.076039 -0.039755 0.043559
v -0.077932 -0.040768 0.042630
v -0.077932 -0.039775 0.043579
v -0.078807 -0.038838 0.044417
v -0.077932 -0.037740 0.045366
v -0.077932 -0.035571 0.047076
v -0.076039 -0.034587 0.047743
v -0.076006 -0.033011 0.048813
v -0.076616 -0.032256 0.049335
v -0.077932 -0.029801 0.050907
v -0.076006 -0.031473 0.049830
v -0.077932 -0.028855 0.051442
v -0.077932 -0.027499 0.052186
v -0.077932 -0.026104 0.052909
v -0.077932 -0.025168 0.053340
v -0.077932 -0.023697 0.053983
v -0.078807 -0.021098 0.055107
v -0.077932 -0.021098 0.055104
v -0.076039 -0.021003 0.055064
v -0.076039 -0.019923 0.055441
v -0.076598 -0.015309 0.056945
v -0.076039 -0.018013 0.056060
v -0.076039 -0.012329 0.057548
v -0.096903 0.012328 0.057686
v -0.074127 -0.014258 0.056800
v -0.074127 -0.013523 0.056972
v -0.074127 -0.012625 0.057147
v -0.075336 -0.015070 0.056878
v -0.074127 -0.016112 0.056302
v -0.074127 -0.018013 0.055740
v -0.074127 -0.020602 0.054926
v -0.074127 -0.021652 0.054515
v -0.074127 -0.023697 0.053684
v -0.074127 -0.024843 0.053196
v -0.074127 -0.025779 0.052785
v -0.074127 -0.027499 0.051943
v -0.074127 -0.028655 0.051331
v -0.074127 -0.029620 0.050816
v -0.074127 -0.031177 0.049877
v -0.074127 -0.033193 0.048584
v -0.074127 -0.034501 0.047696
v -0.074127 -0.035466 0.046999
v -0.074127 -0.036708 0.046050
v -0.074127 -0.037644 0.045296
v -0.074127 -0.038752 0.044347
v -0.074127 -0.039708 0.043512
v -0.074124 -0.031291 0.029543
v -0.074124 0.016139 0.056282
v -0.074139 0.016130 0.056292
v -0.076000 0.016015 0.056659
v -0.074294 0.019875 0.055185
v -0.075032 0.020897 0.055020
v -0.077932 0.015385 0.056969
v -0.076039 0.018012 0.056036
v -0.076039 0.019913 0.055427
v -0.077932 0.018012 0.056147
v -0.077995 0.016302 0.056689
v -0.081728 0.014229 0.057262
v -0.104364 0.027508 0.050271
v -0.104504 0.029409 0.048372
v -0.093110 0.014229 0.057258
v -0.098800 0.015375 0.056969
v -0.093110 0.015385 0.056975
v -0.096903 0.016330 0.056686
v -0.089886 0.018021 0.056151
v -0.089886 0.019922 0.055521
v -0.089886 0.020754 0.055239
v -0.100696 0.021107 0.055111
v -0.100696 0.023715 0.053990
v -0.100696 0.025167 0.053347
v -0.100696 0.026113 0.052903
v -0.102596 0.026046 0.052849
v -0.103656 0.028635 0.051321
v -0.103837 0.030937 0.049682
v -0.103986 0.029323 0.050294
v -0.104025 0.029141 0.050294
v -0.103944 0.048668 0.024602
v -0.103102 0.048219 0.024602
v -0.102596 0.048037 0.024602
v -0.101369 0.047961 0.024602
v -0.093110 0.047502 0.024602
v -0.089886 0.047340 0.024602
v -0.104483 0.035102 0.044579
v -0.104120 0.039019 0.042808
v -0.104126 0.040930 0.040924
v -0.104117 0.042812 0.039012
v -0.104486 0.044588 0.035097
v -0.104415 0.046480 0.033199
v -0.103986 0.050292 0.029321
v -0.103870 0.051619 0.027507
v -0.104010 0.052240 0.025558
v -0.104117 0.048553 0.031482
v -0.103715 0.053291 0.024602
v -0.074127 -0.038533 0.024609
v -0.074127 -0.042230 0.033031
v -0.074127 -0.043634 0.039375
v -0.074139 -0.041571 0.041577
v -0.074127 -0.040634 0.042563
v -0.076039 -0.037711 0.045346
v -0.077932 -0.038829 0.044414
v -0.076039 -0.036765 0.046104
v -0.076039 -0.035533 0.047053
v -0.075351 -0.032228 0.049308
v -0.076039 -0.029753 0.050890
v -0.074139 -0.031196 0.049870
v -0.076039 -0.028817 0.051415
v -0.076039 -0.027499 0.052135
v -0.076039 -0.026037 0.052883
v -0.076039 -0.025092 0.053307
v -0.077932 -0.022044 0.054697
v -0.076039 -0.021949 0.054660
v -0.075032 -0.020898 0.055020
v -0.075997 -0.014344 0.057117
v -0.075997 -0.016016 0.056669
v -0.074139 -0.016112 0.056309
v -0.074294 -0.019866 0.055195
v -0.074294 -0.021652 0.054562
v -0.074139 -0.028674 0.051331
v -0.074139 -0.037644 0.045299
v -0.074127 -0.041571 0.041573
v -0.074124 -0.032686 0.026884
v -0.074124 0.018031 0.055710
v -0.074124 0.020066 0.055087
v -0.076039 0.021011 0.055064
v -0.074124 0.021260 0.054650
v -0.074294 0.021642 0.054539
v -0.074124 0.025425 0.052899
v -0.074580 0.024900 0.053212
v -0.076039 0.025091 0.053303
v -0.089886 0.015385 0.056975
v -0.077932 0.019913 0.055518
v -0.077995 0.019856 0.055538
v -0.089886 0.016330 0.056686
v -0.104120 0.031463 0.048534
v -0.104421 0.033201 0.046471
v -0.077932 0.021088 0.055104
v -0.089886 0.021107 0.055111
v -0.089886 0.023218 0.054205
v -0.089886 0.025177 0.053347
v -0.091214 0.026122 0.052909
v -0.089886 0.027087 0.052408
v -0.100696 0.027508 0.052172
v -0.102596 0.027508 0.052085
v -0.102596 0.028788 0.051405
v -0.103170 0.029141 0.051109
v -0.102596 0.029743 0.050856
v -0.103161 0.032198 0.049281
v -0.103718 0.034395 0.047598
v -0.103924 0.033201 0.048002
v -0.089886 0.053540 0.024602
v -0.074124 -0.032686 0.024609
v -0.104081 0.037051 0.044650
v -0.103852 0.038474 0.044064
v -0.103864 0.040385 0.042260
v -0.103864 0.042267 0.040382
v -0.103846 0.044073 0.038460
v -0.104084 0.044655 0.037049
v -0.104001 0.046489 0.035050
v -0.103918 0.048008 0.033199
v -0.103834 0.049680 0.030961
v -0.103659 0.051333 0.028635
v -0.103668 0.053234 0.024892
v -0.103409 0.053396 0.024602
v -0.077932 0.022043 0.054697
v -0.074124 0.021661 0.054488
v -0.074124 0.027498 0.051947
v -0.076039 0.026036 0.052879
v -0.077932 0.025158 0.053340
v -0.077932 0.023696 0.053980
v -0.104004 0.035054 0.046481
v -0.077932 0.026113 0.052909
v -0.089886 0.026122 0.052909
v -0.077995 0.027498 0.052186
v -0.089886 0.027508 0.052186
v -0.091214 0.027508 0.052186
v -0.100696 0.028855 0.051439
v -0.100696 0.029800 0.050907
v -0.100696 0.031310 0.049984
v -0.101896 0.032275 0.049338
v -0.102554 0.031463 0.049803
v -0.102554 0.033029 0.048780
v -0.102596 0.034567 0.047719
v -0.102596 0.035523 0.047006
v -0.102596 0.036707 0.046056
v -0.102596 0.037662 0.045286
v -0.103802 0.036449 0.045851
v -0.098800 0.053626 0.024602
v -0.077932 0.053626 0.024609
v -0.076039 0.053540 0.024609
v -0.074386 0.053310 0.024609
v -0.074124 0.053243 0.024609
v -0.102596 0.039726 0.043522
v -0.102596 0.041656 0.041654
v -0.102596 0.043528 0.039722
v -0.103807 0.045859 0.036457
v -0.103709 0.047598 0.034384
v -0.103358 0.049308 0.032229
v -0.102596 0.051419 0.028786
v -0.102596 0.052097 0.027507
v -0.102596 0.052852 0.026026
v -0.102596 0.053310 0.025077
v -0.102596 0.053530 0.024602
v -0.074124 0.028683 0.051331
v -0.076039 0.027488 0.052142
v -0.076039 0.028826 0.051422
v -0.077932 0.028855 0.051442
v -0.089886 0.029141 0.051290
v -0.089886 0.029810 0.050907
v -0.089886 0.031310 0.049984
v -0.089886 0.031988 0.049540
v -0.100696 0.032284 0.049345
v -0.100696 0.033239 0.048712
v -0.100696 0.034625 0.047756
v -0.100696 0.035570 0.047056
v -0.100696 0.036764 0.046107
v -0.100696 0.037710 0.045336
v -0.100696 0.038837 0.044387
v -0.102596 0.038780 0.044337
v -0.081005 0.053635 0.024609
v -0.100696 0.053606 0.024602
v -0.100696 0.052909 0.026100
v -0.098800 0.052909 0.026114
v -0.077932 0.053368 0.025158
v -0.076039 0.053310 0.025074
v -0.074535 0.053215 0.024885
v -0.074124 0.052890 0.025397
v -0.100696 0.039783 0.043572
v -0.100696 0.041703 0.041704
v -0.100696 0.043585 0.039779
v -0.102596 0.044340 0.038773
v -0.102596 0.045286 0.037662
v -0.102596 0.046079 0.036713
v -0.102596 0.047024 0.035501
v -0.102596 0.047712 0.034552
v -0.102093 0.049355 0.032297
v -0.102673 0.049804 0.031482
v -0.100696 0.050903 0.029796
v -0.100696 0.051447 0.028847
v -0.100696 0.052193 0.027507
v -0.101941 0.053559 0.024602
v -0.074124 0.029628 0.050816
v -0.076039 0.029772 0.050890
v -0.077932 0.029810 0.050907
v -0.077932 0.031300 0.049981
v -0.077932 0.033230 0.048716
v -0.089886 0.032284 0.049345
v -0.077932 0.034615 0.047763
v -0.089886 0.034615 0.047763
v -0.089886 0.034625 0.047756
v -0.077995 0.035570 0.047070
v -0.077995 0.036793 0.046124
v -0.083622 0.036793 0.046117
v -0.081728 0.037729 0.045366
v -0.095010 0.038847 0.044394
v -0.079829 0.053368 0.025161
v -0.089314 0.052909 0.026124
v -0.077932 0.052880 0.026104
v -0.076039 0.052842 0.026019
v -0.074642 0.051295 0.028591
v -0.074124 0.051705 0.027659
v -0.093110 0.039793 0.043583
v -0.093110 0.040777 0.042633
v -0.089314 0.041722 0.041728
v -0.089886 0.043585 0.039779
v -0.077932 0.043948 0.039375
v -0.077932 0.045362 0.037736
v -0.100696 0.044397 0.038830
v -0.100696 0.045343 0.037719
v -0.100696 0.046126 0.036770
v -0.100696 0.047072 0.035552
v -0.100696 0.049374 0.032314
v -0.100696 0.049995 0.031300
v -0.096906 0.050922 0.029823
v -0.096906 0.051467 0.028877
v -0.089314 0.052193 0.027507
v -0.074124 0.031233 0.049870
v -0.074124 0.032179 0.049284
v -0.075991 0.031463 0.049830
v -0.076589 0.032275 0.049335
v -0.075991 0.033020 0.048817
v -0.076039 0.034586 0.047750
v -0.077932 0.035570 0.047070
v -0.077932 0.036793 0.046124
v -0.077932 0.037729 0.045366
v -0.077932 0.038828 0.044417
v -0.089314 0.051457 0.028877
v -0.077932 0.051409 0.028786
v -0.076039 0.052030 0.027507
v -0.076039 0.050836 0.029668
v -0.075279 0.049317 0.032229
v -0.074124 0.049776 0.031136
v -0.074124 0.050855 0.029217
v -0.074124 0.051648 0.027766
v -0.089886 0.039793 0.043583
v -0.077932 0.041722 0.041728
v -0.077995 0.043538 0.039820
v -0.076039 0.043538 0.039745
v -0.076039 0.044397 0.038790
v -0.076039 0.045343 0.037709
v -0.077932 0.046088 0.036787
v -0.077932 0.048677 0.033259
v -0.079829 0.049374 0.032310
v -0.089886 0.049374 0.032314
v -0.089886 0.049823 0.031607
v -0.096906 0.050015 0.031300
v -0.089886 0.050301 0.030846
v -0.089886 0.050655 0.030270
v -0.089314 0.050922 0.029826
v -0.074124 0.033192 0.048615
v -0.074139 0.033192 0.048618
v -0.074139 0.034539 0.047706
v -0.076039 0.035532 0.047060
v -0.076039 0.036764 0.046110
v -0.076039 0.037710 0.045346
v -0.076039 0.038790 0.044394
v -0.076039 0.039735 0.043559
v -0.077932 0.039774 0.043579
v -0.077932 0.050884 0.029735
v -0.075991 0.050167 0.030846
v -0.076545 0.049355 0.032290
v -0.076039 0.046060 0.036760
v -0.074139 0.045248 0.037585
v -0.074124 0.045945 0.036632
v -0.074124 0.049222 0.032081
v -0.076039 0.040739 0.042610
v -0.076039 0.041684 0.041701
v -0.076039 0.042582 0.040755
v -0.074139 0.044292 0.038668
v -0.074124 0.041608 0.041610
v -0.074124 0.042487 0.040654
v -0.077932 0.049355 0.032310
v -0.077932 0.049967 0.031304
v -0.074124 0.034539 0.047696
v -0.074124 0.035484 0.047012
v -0.074124 0.036698 0.046060
v -0.074139 0.037662 0.045292
v -0.074124 0.038761 0.044337
v -0.074124 0.039688 0.043512
v -0.074124 0.045248 0.037578
v -0.074139 0.040653 0.042563
v -0.074124 0.044292 0.038658
v -0.074124 0.037662 0.045286
f 162 226 164
f 164 226 234
f 161 228 226
f 334 234 333
f 234 332 333
f 320 332 234
f 320 234 226
f 226 162 227
f 227 161 226
f 162 161 227
f 92 161 162
f 93 161 92
f 111 52 110
f 52 109 110
f 389 333 332
f 334 333 389
f 332 320 389
f 112 52 111
f 235 236 164
f 334 236 235
f 164 234 235
f 235 234 334
f 164 236 165
f 335 236 334
f 341 278 343
f 94 95 52
f 52 51 94
f 94 92 162
f 94 51 92
f 94 162 164
f 164 165 94
f 96 97 52
f 52 95 96
f 52 100 101
f 99 100 52
f 174 175 103
f 244 245 174
f 174 245 175
f 105 106 52
f 52 106 107
f 226 228 315
f 319 320 226
f 429 388 428
f 388 427 428
f 426 427 388
f 457 461 426
f 426 461 427
f 432 393 431
f 514 515 480
f 268 269 201
f 283 284 201
f 284 285 201
f 55 54 126
f 55 20 54
f 63 62 65
f 88 157 89
f 92 51 50
f 45 86 50
f 93 92 50
f 50 86 93
f 363 403 364
f 145 77 144
f 244 172 243
f 276 343 277
f 277 343 278
f 277 201 276
f 278 201 277
f 274 273 346
f 274 201 273
f 271 350 272
f 272 201 271
f 273 201 272
f 355 350 271
f 269 350 355
f 354 269 268
f 268 350 354
f 354 350 269
f 167 96 95
f 97 96 167
f 95 94 167
f 102 103 52
f 52 101 102
f 102 174 103
f 173 101 100
f 173 172 244
f 100 172 173
f 173 102 101
f 52 97 98
f 98 99 52
f 170 172 100
f 170 243 172
f 99 98 170
f 175 245 246
f 246 278 341
f 52 103 104
f 104 105 52
f 184 110 109
f 253 254 184
f 254 255 184
f 180 107 106
f 180 181 107
f 108 109 52
f 52 107 108
f 107 181 108
f 250 344 251
f 336 285 284
f 336 284 237
f 237 236 336
f 236 335 336
f 334 389 359
f 359 285 334
f 316 317 226
f 226 315 316
f 226 317 318
f 318 319 226
f 462 461 496
f 427 461 462
f 425 426 388
f 457 426 425
f 541 508 540
f 541 509 508
f 508 504 538
f 507 504 508
f 454 423 453
f 526 497 496
f 527 497 526
f 526 525 527
f 463 462 496
f 463 428 427
f 427 462 463
f 556 525 524
f 527 525 556
f 524 525 495
f 496 461 495
f 495 526 496
f 525 526 495
f 384 418 385
f 432 431 467
f 467 504 505
f 465 431 430
f 208 145 207
f 294 295 207
f 155 219 156
f 156 88 155
f 156 157 88
f 516 515 517
f 516 480 515
f 482 516 517
f 480 516 482
f 414 380 413
f 222 223 157
f 309 378 379
f 413 380 379
f 379 380 309
f 378 410 379
f 409 411 379
f 379 410 409
f 377 410 378
f 409 410 377
f 163 233 228
f 228 161 163
f 163 161 93
f 163 230 231
f 229 230 163
f 279 201 278
f 280 201 279
f 279 245 280
f 278 246 279
f 279 246 245
f 53 20 52
f 54 20 53
f 132 131 67
f 261 193 259
f 141 74 140
f 36 74 37
f 75 74 141
f 74 75 38
f 16 15 43
f 65 62 30
f 30 29 65
f 88 89 46
f 127 63 65
f 152 215 153
f 153 215 155
f 91 48 47
f 93 86 151
f 151 163 93
f 45 50 49
f 203 204 144
f 144 202 203
f 146 145 208
f 41 15 14
f 286 287 204
f 241 239 338
f 239 243 338
f 338 242 241
f 243 242 338
f 337 243 239
f 337 284 283
f 337 239 284
f 256 349 257
f 257 349 350
f 350 258 257
f 347 349 256
f 347 253 346
f 347 254 253
f 350 349 347
f 347 272 350
f 346 273 347
f 273 272 347
f 270 355 271
f 269 355 270
f 271 201 270
f 270 201 269
f 259 352 266
f 196 261 266
f 268 353 266
f 266 350 268
f 260 258 350
f 350 266 260
f 260 266 352
f 260 352 259
f 259 189 260
f 260 189 258
f 240 239 241
f 240 167 239
f 166 94 165
f 166 167 94
f 237 167 166
f 166 236 237
f 166 165 236
f 238 167 237
f 239 167 238
f 237 284 238
f 284 239 238
f 100 99 171
f 171 170 100
f 99 170 171
f 175 178 176
f 103 175 176
f 106 105 179
f 179 180 106
f 175 246 247
f 247 178 175
f 247 246 341
f 342 343 276
f 276 344 342
f 342 344 250
f 110 184 185
f 185 184 255
f 255 186 185
f 183 184 109
f 253 184 183
f 345 251 344
f 345 274 346
f 345 356 274
f 345 344 276
f 276 356 345
f 346 253 252
f 252 345 346
f 251 345 252
f 253 183 252
f 334 285 358
f 285 336 358
f 358 335 334
f 358 336 335
f 457 425 460
f 397 434 398
f 397 398 330
f 330 398 327
f 438 400 399
f 540 508 539
f 508 538 539
f 505 504 506
f 504 507 506
f 506 507 470
f 470 469 506
f 432 467 468
f 468 467 505
f 432 468 433
f 433 468 469
f 433 469 470
f 470 434 433
f 508 509 473
f 473 472 508
f 471 434 470
f 508 472 471
f 471 507 508
f 470 507 471
f 537 538 504
f 527 556 557
f 487 485 520
f 417 385 418
f 419 385 417
f 417 418 384
f 384 416 417
f 386 387 312
f 387 313 312
f 372 387 373
f 373 297 372
f 372 297 314
f 314 313 372
f 372 313 387
f 408 387 386
f 408 390 373
f 373 387 408
f 229 163 214
f 163 151 214
f 466 431 465
f 466 467 431
f 465 501 466
f 501 467 466
f 504 467 503
f 503 537 504
f 453 423 422
f 422 421 453
f 422 423 386
f 386 421 422
f 451 417 450
f 392 431 393
f 392 430 431
f 220 156 219
f 294 370 303
f 303 295 294
f 303 371 295
f 208 207 291
f 291 207 295
f 205 145 144
f 144 204 205
f 204 287 205
f 205 287 289
f 480 482 481
f 448 416 447
f 447 482 448
f 447 481 482
f 514 480 479
f 364 403 365
f 442 411 409
f 449 416 448
f 448 484 449
f 449 484 450
f 450 417 449
f 449 417 416
f 415 416 384
f 446 416 415
f 374 375 305
f 305 375 306
f 306 220 305
f 402 374 362
f 402 375 374
f 309 222 308
f 308 222 307
f 307 377 308
f 308 378 309
f 308 377 378
f 306 307 221
f 307 222 221
f 221 222 157
f 157 156 221
f 221 220 306
f 156 220 221
f 384 385 311
f 311 385 386
f 386 312 311
f 310 222 309
f 223 222 310
f 310 311 223
f 409 377 406
f 376 377 307
f 376 402 407
f 407 406 376
f 376 406 377
f 375 402 376
f 376 307 306
f 306 375 376
f 323 230 229
f 323 392 393
f 233 163 232
f 232 163 231
f 232 330 327
f 199 201 136
f 136 132 199
f 131 132 136
f 136 133 70
f 70 131 136
f 136 201 138
f 138 133 136
f 70 69 68
f 67 131 68
f 68 131 70
f 15 16 6
f 21 57 22
f 22 8 21
f 21 8 20
f 193 261 129
f 187 112 111
f 258 189 188
f 256 257 188
f 188 257 258
f 188 255 256
f 188 186 255
f 52 116 117
f 117 53 52
f 201 264 263
f 263 264 196
f 196 266 263
f 263 266 353
f 196 264 265
f 265 264 201
f 139 140 74
f 13 37 14
f 37 74 42
f 74 38 42
f 14 37 42
f 42 38 14
f 39 38 75
f 14 38 39
f 26 16 43
f 43 60 26
f 48 44 18
f 47 48 18
f 18 44 45
f 18 46 47
f 47 46 90
f 90 46 89
f 90 91 47
f 159 160 90
f 90 160 150
f 150 91 90
f 194 215 152
f 152 127 194
f 152 153 87
f 87 127 152
f 63 127 87
f 87 153 88
f 88 46 87
f 87 46 63
f 155 88 154
f 154 153 155
f 88 153 154
f 150 160 212
f 297 214 212
f 212 225 297
f 85 91 150
f 150 151 85
f 85 151 86
f 45 44 85
f 85 86 45
f 85 44 48
f 48 91 85
f 287 286 360
f 361 289 360
f 289 287 360
f 241 242 168
f 168 240 241
f 97 167 168
f 167 240 168
f 169 98 97
f 169 170 98
f 97 168 169
f 169 168 242
f 243 170 169
f 169 242 243
f 357 337 283
f 244 243 339
f 243 337 339
f 275 356 276
f 274 356 275
f 276 201 275
f 201 274 275
f 348 347 256
f 254 347 348
f 256 255 348
f 348 255 254
f 351 261 259
f 259 266 351
f 351 266 261
f 177 176 178
f 177 104 103
f 103 176 177
f 178 247 249
f 249 247 341
f 341 343 249
f 343 342 249
f 178 249 248
f 248 249 342
f 248 342 250
f 182 108 181
f 109 108 182
f 436 473 475
f 524 495 513
f 513 512 524
f 477 512 513
f 457 460 494
f 494 495 461
f 494 513 495
f 494 460 477
f 477 513 494
f 326 232 231
f 330 232 326
f 397 330 326
f 328 232 327
f 328 398 399
f 327 398 328
f 399 400 328
f 400 331 328
f 437 399 436
f 437 438 399
f 436 477 437
f 477 438 437
f 459 438 477
f 477 460 459
f 459 425 458
f 459 460 425
f 394 393 432
f 432 433 394
f 474 473 436
f 434 471 435
f 435 471 472
f 472 473 435
f 473 474 435
f 399 398 435
f 435 398 434
f 436 399 435
f 435 474 436
f 530 531 497
f 429 428 464
f 428 463 464
f 496 497 464
f 464 463 496
f 528 497 527
f 527 557 528
f 455 492 465
f 454 492 455
f 465 430 455
f 430 456 455
f 423 454 455
f 455 456 423
f 491 492 454
f 491 454 453
f 453 490 491
f 483 482 517
f 450 484 483
f 483 485 450
f 448 482 483
f 483 484 448
f 548 549 518
f 517 515 518
f 518 515 548
f 518 483 517
f 552 551 574
f 520 551 521
f 521 552 522
f 551 552 521
f 574 551 573
f 573 580 574
f 550 551 520
f 298 297 373
f 298 214 297
f 373 321 298
f 298 321 229
f 229 214 298
f 225 212 158
f 159 90 158
f 158 90 89
f 157 223 158
f 158 89 157
f 158 160 159
f 158 212 160
f 533 532 555
f 465 492 499
f 492 491 499
f 555 532 523
f 522 552 523
f 532 499 523
f 523 491 522
f 523 499 491
f 523 554 555
f 453 421 452
f 452 490 453
f 420 385 419
f 419 417 420
f 417 451 420
f 420 452 421
f 451 452 420
f 386 385 420
f 420 421 386
f 450 485 486
f 486 451 450
f 430 392 391
f 304 303 370
f 370 305 304
f 304 305 220
f 295 371 368
f 368 291 295
f 206 207 145
f 145 205 206
f 206 205 207
f 215 299 216
f 155 215 216
f 216 217 155
f 300 299 301
f 217 216 300
f 300 216 299
f 218 302 219
f 218 219 155
f 155 217 218
f 217 300 218
f 301 302 218
f 218 300 301
f 364 365 290
f 290 289 361
f 361 363 290
f 290 363 364
f 290 205 289
f 290 292 207
f 362 290 367
f 367 406 407
f 367 402 362
f 407 402 367
f 441 442 404
f 443 479 480
f 443 441 479
f 442 441 443
f 480 481 443
f 481 444 443
f 411 442 443
f 443 444 411
f 374 305 369
f 369 305 370
f 362 374 369
f 369 294 362
f 369 370 294
f 224 312 313
f 224 311 312
f 224 313 314
f 225 158 224
f 314 297 224
f 297 225 224
f 223 311 224
f 224 158 223
f 380 414 382
f 382 415 384
f 414 415 382
f 229 321 322
f 322 323 229
f 322 321 373
f 373 390 322
f 390 391 322
f 392 323 322
f 322 391 392
f 23 8 22
f 55 57 56
f 57 21 56
f 20 55 56
f 56 21 20
f 193 129 124
f 130 132 67
f 67 66 130
f 130 66 129
f 52 112 113
f 113 114 52
f 112 187 113
f 189 114 113
f 187 188 113
f 113 188 189
f 190 114 189
f 190 189 259
f 259 191 190
f 259 193 192
f 192 191 259
f 267 353 268
f 267 263 353
f 268 201 267
f 201 263 267
f 196 265 197
f 197 130 196
f 132 130 197
f 70 135 71
f 135 72 71
f 138 72 137
f 137 72 135
f 4 13 14
f 143 142 202
f 144 77 143
f 143 202 144
f 40 41 14
f 14 39 40
f 40 39 77
f 40 81 82
f 9 26 27
f 27 26 29
f 29 26 61
f 61 26 60
f 28 30 62
f 62 63 28
f 63 46 28
f 46 18 28
f 65 29 64
f 29 61 64
f 60 78 64
f 64 61 60
f 215 194 262
f 262 299 215
f 128 194 127
f 128 127 65
f 65 64 128
f 128 64 78
f 150 212 213
f 213 212 214
f 213 151 150
f 213 214 151
f 282 357 283
f 283 201 282
f 340 245 244
f 244 339 340
f 280 245 340
f 337 357 281
f 281 339 337
f 357 282 281
f 280 340 281
f 281 340 339
f 281 201 280
f 281 282 201
f 540 545 544
f 524 512 546
f 546 556 524
f 546 545 540
f 476 512 477
f 476 475 512
f 476 477 436
f 436 475 476
f 510 473 509
f 510 475 473
f 512 475 511
f 511 546 512
f 545 546 511
f 475 510 511
f 511 510 509
f 511 544 545
f 493 461 457
f 457 494 493
f 493 494 461
f 231 230 325
f 325 326 231
f 397 326 396
f 396 434 397
f 396 433 434
f 401 331 400
f 400 440 401
f 329 331 233
f 329 328 331
f 233 232 329
f 232 328 329
f 478 459 458
f 529 530 497
f 497 528 529
f 529 528 562
f 497 531 498
f 498 464 497
f 538 537 559
f 537 560 559
f 559 560 528
f 558 557 556
f 558 528 557
f 558 559 528
f 558 539 538
f 538 559 558
f 574 580 575
f 575 552 574
f 575 576 554
f 578 576 567
f 578 567 564
f 564 576 578
f 548 515 547
f 547 549 548
f 547 571 549
f 520 485 519
f 519 550 520
f 549 550 519
f 519 518 549
f 485 483 519
f 483 518 519
f 572 550 549
f 549 571 572
f 572 573 551
f 551 550 572
f 537 503 536
f 503 535 536
f 536 560 537
f 564 567 565
f 567 535 565
f 566 577 560
f 560 536 566
f 566 536 535
f 534 535 503
f 534 565 535
f 534 533 564
f 564 565 534
f 555 554 563
f 563 533 555
f 564 533 563
f 563 576 564
f 554 576 563
f 500 499 501
f 500 501 465
f 465 499 500
f 554 523 553
f 553 523 552
f 553 575 554
f 552 575 553
f 488 452 451
f 490 452 489
f 489 491 490
f 452 488 489
f 386 423 424
f 423 456 424
f 424 408 386
f 424 456 430
f 430 391 424
f 390 408 424
f 424 391 390
f 296 368 301
f 301 299 296
f 299 262 296
f 208 291 296
f 291 368 296
f 296 210 208
f 413 379 412
f 412 379 411
f 445 481 446
f 445 444 481
f 446 415 445
f 445 415 414
f 445 414 413
f 413 412 445
f 411 444 445
f 445 412 411
f 293 290 362
f 292 290 293
f 207 292 293
f 362 294 293
f 294 207 293
f 207 205 288
f 288 290 207
f 205 290 288
f 366 365 404
f 366 290 365
f 366 367 290
f 384 311 383
f 383 382 384
f 311 382 383
f 311 310 381
f 381 382 311
f 380 382 381
f 309 380 381
f 381 310 309
f 25 8 24
f 8 23 24
f 32 59 58
f 67 68 32
f 32 68 69
f 58 66 32
f 32 66 67
f 19 7 18
f 19 51 52
f 19 50 51
f 19 49 50
f 45 49 19
f 19 18 45
f 125 66 126
f 129 66 125
f 126 54 125
f 54 124 125
f 125 124 129
f 195 129 261
f 195 130 129
f 195 261 196
f 196 130 195
f 114 190 115
f 115 116 52
f 52 114 115
f 115 191 116
f 115 190 191
f 116 191 120
f 191 192 120
f 199 132 198
f 132 197 198
f 198 197 265
f 198 201 199
f 198 265 201
f 138 139 73
f 73 72 138
f 36 72 73
f 74 36 73
f 73 139 74
f 134 135 70
f 134 137 135
f 70 133 134
f 1 4 5
f 6 1 5
f 15 6 5
f 14 15 5
f 5 4 14
f 59 32 31
f 76 143 77
f 142 143 76
f 77 39 76
f 76 39 75
f 80 40 77
f 81 40 80
f 77 145 80
f 145 146 80
f 82 81 80
f 41 40 79
f 79 60 43
f 43 15 79
f 15 41 79
f 18 7 17
f 210 149 209
f 209 149 146
f 208 210 209
f 209 146 208
f 211 149 210
f 210 296 211
f 211 296 262
f 83 149 84
f 82 149 83
f 84 40 83
f 83 40 82
f 542 541 540
f 540 544 542
f 509 541 542
f 543 511 509
f 544 511 543
f 509 542 543
f 543 542 544
f 395 394 433
f 433 396 395
f 326 325 395
f 395 396 326
f 439 478 440
f 459 478 439
f 438 459 439
f 400 438 439
f 439 440 400
f 540 558 570
f 570 558 556
f 570 546 540
f 556 546 570
f 540 539 569
f 569 558 540
f 539 558 569
f 560 577 561
f 562 528 561
f 528 560 561
f 577 566 579
f 533 534 502
f 502 503 467
f 502 534 503
f 405 366 404
f 367 366 405
f 404 442 405
f 405 442 409
f 409 406 405
f 406 367 405
f 123 124 54
f 193 124 123
f 123 192 193
f 53 117 119
f 119 120 53
f 119 117 116
f 116 120 119
f 53 120 118
f 54 53 118
f 118 121 54
f 200 134 133
f 137 134 200
f 200 133 138
f 138 137 200
f 35 34 33
f 33 32 35
f 35 32 69
f 35 69 70
f 70 71 35
f 35 72 36
f 35 71 72
f 13 4 12
f 12 35 36
f 34 35 12
f 12 36 37
f 37 13 12
f 33 34 11
f 11 12 4
f 34 12 11
f 11 32 33
f 11 31 32
f 147 80 146
f 148 149 82
f 82 80 148
f 80 147 148
f 146 149 148
f 148 147 146
f 7 2 10
f 10 17 7
f 10 2 9
f 9 27 10
f 10 27 29
f 29 30 10
f 30 28 10
f 10 28 18
f 18 17 10
f 324 323 393
f 393 394 324
f 394 395 324
f 324 395 325
f 230 323 324
f 324 325 230
f 568 579 566
f 568 535 567
f 568 566 535
f 54 121 122
f 122 123 54
f 122 121 192
f 192 123 122
f 429 389 388
f 388 389 320
f 174 102 173
f 244 174 173
f 181 180 251
f 251 180 250
f 185 186 111
f 111 110 185
f 468 506 469
f 505 506 468
f 371 303 302
f 302 303 219
f 446 481 447
f 447 416 446
f 111 186 188
f 188 187 111
f 26 6 16
f 9 6 26
f 177 178 105
f 105 104 177
f 105 178 248
f 248 179 105
f 250 180 248
f 180 179 248
f 181 251 182
f 251 252 182
f 182 183 109
f 182 252 183
f 532 533 499
f 499 533 501
f 487 451 486
f 485 487 486
f 219 303 304
f 304 220 219
f 371 302 368
f 368 302 301
f 58 59 23
f 22 58 23
f 66 57 55
f 66 55 126
f 66 58 22
f 22 57 66
f 128 149 194
f 84 149 128
f 78 40 128
f 128 40 84
f 478 388 320
f 228 233 478
f 478 425 388
f 478 315 228
f 478 318 317
f 320 319 478
f 317 316 478
f 478 316 315
f 319 318 478
f 458 425 478
f 233 331 478
f 331 401 478
f 478 401 440
f 488 451 487
f 488 487 520
f 489 521 522
f 522 491 489
f 489 488 520
f 520 521 489
f 20 7 19
f 52 20 19
f 2 6 9
f 2 1 6
f 8 3 2
f 2 3 1
f 2 7 20
f 20 8 2
f 31 23 59
f 31 24 23
f 141 142 76
f 76 75 141
f 79 40 78
f 79 78 60
f 194 149 211
f 211 262 194
f 501 533 502
f 502 467 501
f 118 120 192
f 192 121 118
f 24 31 11
f 25 24 11
f 11 3 8
f 11 8 25
f 1 3 11
f 11 4 1
f 568 142 141
f 567 576 568
f 568 359 389
f 568 363 361
f 568 389 429
f 138 201 568
f 204 203 568
f 568 139 138
f 568 515 514
f 568 201 285
f 403 363 568
f 568 365 403
f 285 359 568
f 568 441 404
f 514 479 568
f 141 140 568
f 568 203 202
f 568 286 204
f 361 360 568
f 568 498 531
f 429 464 568
f 580 573 568
f 404 365 568
f 140 139 568
f 202 142 568
f 568 360 286
f 531 530 568
f 568 529 562
f 568 572 571
f 568 575 580
f 568 547 515
f 479 441 568
f 530 529 568
f 464 498 568
f 562 561 568
f 576 575 568
f 571 547 568
f 573 572 568
f 568 561 577
f 577 579 568
