v -0.003932 0.054555 0.025608
v -0.003932 0.054466 0.027506
v -0.002031 0.054552 0.025608
v -0.074121 0.054178 0.021682
v -0.003932 0.054158 0.029401
v -0.002031 0.054452 0.027506
v -0.000304 0.054443 0.025775
v -0.000304 0.054449 0.025608
v -0.000304 0.053826 0.024339
v -0.074121 0.053961 0.020019
v -0.074121 0.053878 0.022943
v -0.005131 0.053155 0.034122
v -0.003932 0.053395 0.033195
v -0.003932 0.053809 0.031300
v -0.002031 0.054123 0.029401
v -0.000304 0.054346 0.027506
v -0.000297 0.053032 0.034122
v -0.000304 0.053761 0.024217
v -0.074121 0.053918 0.019990
v -0.074121 0.053595 0.023868
v -0.005840 0.052393 0.036990
v -0.005074 0.053138 0.034198
v -0.004994 0.053158 0.034122
v -0.003932 0.053172 0.034122
v -0.002660 0.053141 0.034205
v -0.002602 0.053158 0.034122
v -0.002031 0.053315 0.033347
v -0.002031 0.053766 0.031300
v -0.000304 0.054012 0.029401
v -0.000304 0.054318 0.027670
v -0.000297 0.052810 0.035078
v -0.000297 0.047791 0.034122
v -0.000304 0.052176 0.023772
v -0.000304 0.052321 0.023811
v -0.000304 0.053649 0.031300
v -0.000304 0.053289 0.032992
v -0.000304 0.053078 0.033931
v -0.074121 0.052732 0.019359
v -0.074121 0.053492 0.024114
v -0.008614 0.051224 0.039821
v -0.005840 0.051744 0.038887
v -0.003932 0.052433 0.036990
v -0.003932 0.052918 0.035178
v -0.002031 0.052935 0.034939
v -0.001395 0.053112 0.034078
v -0.000297 0.052313 0.036990
v -0.000297 0.037038 0.044332
v -0.000304 0.050553 0.024215
v -0.000304 0.050687 0.024178
v -0.074121 0.052176 0.019383
v -0.074121 0.052901 0.025393
v -0.009633 0.050556 0.040782
v -0.007885 0.050810 0.040631
v -0.007357 0.051259 0.039892
v -0.074121 0.051724 0.027657
v -0.074121 0.051667 0.027765
v -0.074121 0.050870 0.029215
v -0.074114 0.049793 0.031124
v -0.005840 0.051299 0.039968
v -0.003932 0.051779 0.038887
v -0.002031 0.052395 0.036990
v -0.000297 0.052256 0.037154
v -0.002031 0.051741 0.038887
v -0.000304 0.049605 0.025613
v -0.000297 0.048057 0.044332
v -0.033704 0.028829 0.044332
v -0.056576 0.026067 0.029718
v -0.038076 0.043250 0.024293
v -0.036183 0.044590 0.023943
v -0.038286 0.043236 0.024288
v -0.062790 0.025759 0.030567
v -0.063657 0.026004 0.030567
v -0.074121 0.050679 0.020156
v -0.009633 0.049674 0.042203
v -0.074114 0.049225 0.032076
v -0.007740 0.049762 0.042320
v -0.005840 0.050762 0.040914
v -0.074121 0.050105 0.030567
v -0.003932 0.050779 0.040949
v -0.003932 0.051316 0.040000
v -0.002031 0.051299 0.039966
v -0.000297 0.051593 0.039032
v -0.000637 0.051267 0.039905
v -0.000297 0.048088 0.044301
v -0.002031 0.048154 0.044332
v -0.035229 0.028458 0.044332
v -0.036804 0.028144 0.044332
v -0.038286 0.027901 0.044332
v -0.060854 0.025479 0.030567
v -0.061887 0.025570 0.030567
v -0.061323 0.025473 0.043689
v -0.062834 0.025804 0.043689
v -0.074114 0.031371 0.043687
v -0.064575 0.026581 0.030567
v -0.074121 0.049725 0.021102
v -0.065594 0.027561 0.030567
v -0.066252 0.028372 0.030567
v -0.009633 0.048945 0.043154
v -0.007740 0.049037 0.043269
v -0.074114 0.048440 0.033183
v -0.074114 0.045958 0.036626
v -0.074114 0.045252 0.037574
v -0.005840 0.049091 0.043337
v -0.005840 0.049813 0.042389
v -0.074121 0.043987 0.030567
v -0.074114 0.039508 0.043687
v -0.074114 0.039717 0.043501
v -0.074114 0.040679 0.042548
v -0.074114 0.041619 0.041599
v -0.074114 0.044312 0.038653
v -0.003932 0.049831 0.042411
v -0.002031 0.049811 0.042386
v -0.002031 0.050759 0.040914
v -0.000297 0.051439 0.039423
v -0.000297 0.051002 0.040323
v -0.000297 0.049039 0.043269
v -0.002031 0.049091 0.043332
v -0.003932 0.049111 0.043362
v -0.003932 0.048194 0.044332
v -0.038286 0.039491 0.044332
v -0.056576 0.025844 0.044149
v -0.059445 0.025505 0.043689
v -0.060854 0.025376 0.043689
v -0.074121 0.048840 0.022053
v -0.011527 0.047866 0.044083
v -0.009633 0.048000 0.044210
v -0.007740 0.048085 0.044298
v -0.006483 0.048125 0.044332
v -0.005840 0.048160 0.044332
v -0.056576 0.037192 0.044149
v -0.017199 0.046303 0.044332
v -0.015212 0.046829 0.044332
v -0.013427 0.047251 0.044332
v -0.011527 0.047608 0.044332
v -0.009633 0.047874 0.044332
v -0.000297 0.049762 0.042320
v -0.000297 0.050796 0.040672
v -0.019122 0.045703 0.044332
v -0.007740 0.048051 0.044332
f 13 14 4
f 2 1 4
f 68 48 67
f 64 47 67
f 67 48 64
f 64 48 47
f 47 48 32
f 67 87 88
f 67 47 66
f 89 122 123
f 67 88 89
f 89 88 122
f 93 72 92
f 14 13 28
f 13 27 28
f 27 36 28
f 67 50 70
f 70 68 67
f 50 68 70
f 50 48 69
f 69 68 50
f 48 68 69
f 3 10 4
f 4 1 3
f 1 2 3
f 123 122 121
f 122 88 121
f 93 92 121
f 86 87 67
f 67 66 86
f 67 89 90
f 90 89 123
f 124 97 93
f 93 105 124
f 94 72 93
f 17 36 37
f 6 3 2
f 35 28 36
f 35 36 17
f 9 18 10
f 10 3 9
f 9 3 8
f 9 8 17
f 17 18 9
f 10 18 19
f 18 38 19
f 50 38 33
f 17 32 33
f 123 121 91
f 91 121 92
f 91 90 123
f 85 118 119
f 71 50 67
f 67 90 71
f 71 72 50
f 71 92 72
f 71 91 92
f 90 91 71
f 50 72 73
f 72 94 73
f 93 97 96
f 96 94 93
f 97 73 96
f 96 73 94
f 16 6 15
f 14 28 15
f 8 3 7
f 3 6 7
f 7 6 16
f 7 16 17
f 17 8 7
f 29 35 17
f 28 35 29
f 29 15 28
f 49 48 50
f 50 33 49
f 49 32 48
f 49 33 32
f 34 38 18
f 34 33 38
f 34 18 17
f 17 33 34
f 138 130 120
f 45 36 27
f 45 37 36
f 44 45 25
f 46 44 61
f 63 46 61
f 97 124 95
f 95 73 97
f 14 15 5
f 5 15 6
f 5 6 2
f 4 14 5
f 5 2 4
f 17 16 30
f 30 29 17
f 16 15 30
f 15 29 30
f 104 103 118
f 106 130 131
f 130 138 131
f 131 132 106
f 26 27 13
f 13 25 26
f 26 45 27
f 26 25 45
f 61 44 43
f 44 25 43
f 17 37 31
f 37 45 31
f 31 45 44
f 44 46 31
f 60 81 63
f 102 101 78
f 78 110 102
f 109 110 78
f 106 107 78
f 21 11 20
f 57 40 56
f 134 107 106
f 134 135 107
f 125 110 109
f 111 104 118
f 53 40 52
f 61 43 42
f 42 43 21
f 24 25 13
f 24 43 25
f 59 60 41
f 60 42 41
f 41 42 21
f 21 20 41
f 41 20 40
f 46 63 62
f 63 82 62
f 83 113 115
f 81 113 83
f 63 81 83
f 83 82 63
f 117 116 136
f 118 85 117
f 75 78 100
f 100 78 101
f 57 78 58
f 58 40 57
f 58 78 75
f 75 52 58
f 52 40 58
f 109 78 108
f 108 78 107
f 108 125 109
f 107 125 108
f 51 40 39
f 40 20 39
f 55 40 51
f 55 56 40
f 103 128 129
f 119 118 129
f 118 103 129
f 127 128 103
f 106 132 133
f 133 134 106
f 102 110 98
f 110 125 98
f 40 53 54
f 59 41 54
f 54 41 40
f 4 11 12
f 12 13 4
f 115 113 137
f 137 113 136
f 79 113 81
f 104 111 79
f 114 83 115
f 82 83 114
f 112 117 136
f 136 113 112
f 112 111 118
f 118 117 112
f 112 79 111
f 113 79 112
f 116 117 84
f 84 85 65
f 84 117 85
f 128 127 139
f 103 104 76
f 74 101 102
f 102 98 74
f 74 100 101
f 75 100 74
f 74 52 75
f 74 53 52
f 74 76 53
f 99 127 103
f 103 76 99
f 99 74 98
f 76 74 99
f 43 24 23
f 23 24 13
f 13 12 23
f 59 79 80
f 80 79 81
f 80 60 59
f 81 60 80
f 77 79 59
f 59 54 77
f 77 54 53
f 104 79 77
f 77 76 104
f 53 76 77
f 126 99 98
f 126 98 125
f 127 99 126
f 107 135 126
f 126 125 107
f 135 139 126
f 126 139 127
f 43 23 22
f 22 23 12
f 21 43 22
f 22 11 21
f 22 12 11
f 93 121 130
f 106 93 130
f 88 120 130
f 130 121 88
f 78 93 106
f 78 105 93
f 42 60 63
f 42 63 61
f 55 38 50
f 4 10 55
f 50 73 55
f 10 19 55
f 55 11 4
f 55 124 105
f 55 19 38
f 55 95 124
f 105 78 55
f 51 39 55
f 73 95 55
f 55 78 57
f 55 20 11
f 57 56 55
f 55 39 20
f 84 65 47
f 84 32 17
f 47 32 84
f 115 137 84
f 17 31 84
f 46 62 84
f 84 31 46
f 84 114 115
f 136 116 84
f 84 62 82
f 84 137 136
f 82 114 84
f 139 66 47
f 139 88 87
f 47 65 139
f 87 86 139
f 139 138 120
f 139 120 88
f 139 86 66
f 139 85 119
f 65 85 139
f 132 131 139
f 119 129 139
f 139 131 138
f 139 133 132
f 135 134 139
f 139 129 128
f 134 133 139
