v -0.055315 -0.055233 0.021657
v -0.066800 -0.055233 0.021657
v -0.055315 -0.063855 0.021657
v -0.055315 -0.055233 0.014734
v -0.055696 0.012090 -0.002676
v -0.055706 0.012090 -0.001208
v -0.055732 0.012090 0.001693
v -0.055867 0.013553 0.001693
v -0.058625 0.005671 0.012245
v -0.073658 -0.053883 0.004667
v -0.066800 -0.061807 0.021657
v -0.066802 0.005671 0.012245
v -0.066296 -0.063855 0.021657
v -0.068004 -0.071703 -0.019063
v -0.059263 -0.070515 -0.019063
v -0.058757 -0.070447 -0.019063
v -0.057339 -0.070206 -0.019063
v -0.056236 -0.069672 -0.019063
v -0.056177 -0.069535 -0.019063
v -0.055823 -0.068554 -0.019063
v -0.055751 -0.068261 -0.019063
v -0.055315 -0.063855 0.021546
v -0.055696 -0.056808 -0.031986
v -0.055696 -0.052403 -0.034914
v -0.055696 -0.049477 -0.036381
v -0.055696 -0.043608 -0.039309
v -0.055697 -0.039211 -0.040776
v -0.055696 -0.037749 -0.040776
v -0.055696 -0.021641 -0.040776
v -0.055696 -0.012838 -0.037842
v -0.055696 -0.009904 -0.036381
v -0.055696 -0.005507 -0.033447
v -0.055696 -0.001110 -0.029052
v -0.055696 0.004750 -0.023190
v -0.055696 0.007693 -0.018788
v -0.055696 0.009147 -0.015860
v -0.055696 0.010618 -0.011465
v -0.055696 0.012090 -0.005603
v -0.055701 0.012090 -0.007071
v -0.055881 0.013553 -0.001208
v -0.056292 0.014516 0.000259
v -0.056288 0.014516 0.001693
v -0.057290 0.014869 0.001693
v -0.058757 0.015093 0.001693
v -0.067705 0.016203 0.001693
v -0.073723 -0.053883 0.003200
v -0.070707 -0.063855 0.003200
v -0.066732 -0.062677 0.021657
v -0.068004 -0.071083 -0.020327
v -0.062438 -0.070731 -0.019528
v -0.060224 -0.070584 -0.019207
v -0.073682 -0.053883 0.000265
v -0.073635 -0.053883 -0.002662
v -0.073487 -0.053883 -0.004136
v -0.058757 -0.069827 -0.020262
v -0.057375 -0.069569 -0.020334
v -0.056941 -0.069190 -0.020871
v -0.056359 -0.069466 -0.019895
v -0.056238 -0.068209 -0.021729
v -0.056096 -0.068631 -0.020334
v -0.055805 -0.067065 -0.021729
v -0.055730 -0.065602 -0.023190
v -0.055701 -0.067065 -0.020262
v -0.055701 -0.064131 -0.024657
v -0.055696 -0.062668 -0.026118
v -0.055696 -0.059742 -0.029052
v -0.055703 -0.055337 -0.033447
v -0.055775 -0.061197 -0.029052
v -0.055782 -0.059742 -0.030519
v -0.055706 -0.050940 -0.036381
v -0.055703 -0.048014 -0.037842
v -0.055721 -0.045080 -0.039309
v -0.055728 -0.040683 -0.040776
v -0.055782 -0.033352 -0.042243
v -0.055760 -0.031880 -0.042243
v -0.055750 -0.030417 -0.042243
v -0.055705 -0.020169 -0.040776
v -0.055699 -0.015772 -0.039309
v -0.055750 -0.030030 -0.042243
v -0.055751 -0.028955 -0.042243
v -0.055735 -0.011367 -0.037842
v -0.055699 -0.006978 -0.034914
v -0.055705 -0.001110 -0.030519
v -0.055703 0.000353 -0.029052
v -0.055706 0.001816 -0.027585
v -0.055703 0.006221 -0.021729
v -0.055762 0.009147 -0.017321
v -0.055712 0.010618 -0.012926
v -0.055741 0.012090 -0.008538
v -0.055923 0.013553 -0.002676
v -0.056303 0.014499 -0.001208
v -0.057290 0.014869 0.000259
v -0.058757 0.015093 0.000259
v -0.066083 0.015996 0.000259
v -0.067705 0.016194 0.000259
v -0.073570 -0.052411 -0.002662
v -0.067705 0.016151 -0.001051
v -0.068004 -0.070610 -0.021218
v -0.066081 -0.070602 -0.020740
v -0.073446 -0.052411 -0.004136
v -0.068004 -0.054278 -0.038379
v -0.068004 -0.055423 -0.037652
v -0.068004 -0.056094 -0.037213
v -0.068004 -0.056559 -0.036886
v -0.068004 -0.057901 -0.035916
v -0.068004 -0.058632 -0.035346
v -0.068004 -0.059252 -0.034842
v -0.068004 -0.060267 -0.034010
v -0.068004 -0.061119 -0.033237
v -0.068004 -0.061816 -0.032595
v -0.068004 -0.062573 -0.031875
v -0.068004 -0.063313 -0.031154
v -0.068004 -0.064707 -0.029609
v -0.068004 -0.065146 -0.029104
v -0.068004 -0.065344 -0.028875
v -0.068004 -0.066075 -0.027984
v -0.068004 -0.066643 -0.027257
v -0.068004 -0.067375 -0.026281
v -0.068004 -0.067917 -0.025548
v -0.068004 -0.069139 -0.023714
v -0.068004 -0.069578 -0.022980
v -0.068004 -0.070352 -0.021664
v -0.068004 -0.030030 -0.045256
v -0.068004 -0.030417 -0.045256
v -0.068004 -0.031880 -0.045210
v -0.068004 -0.033352 -0.045132
v -0.068004 -0.034814 -0.045001
v -0.068004 -0.036286 -0.044830
v -0.068004 -0.037757 -0.044601
v -0.068004 -0.038420 -0.044483
v -0.068004 -0.039272 -0.044326
v -0.068004 -0.040683 -0.044012
v -0.068004 -0.041690 -0.043756
v -0.068004 -0.042146 -0.043638
v -0.068004 -0.043652 -0.043200
v -0.068004 -0.044159 -0.043042
v -0.068004 -0.045045 -0.042741
v -0.068004 -0.046543 -0.042204
v -0.068004 -0.047334 -0.041890
v -0.068004 -0.048496 -0.041405
v -0.068004 -0.049442 -0.040979
v -0.068004 -0.050819 -0.040318
v -0.068004 -0.051508 -0.039957
v -0.068004 -0.052368 -0.039492
v -0.068004 -0.053547 -0.038824
v -0.057919 -0.069285 -0.021028
v -0.057375 -0.068855 -0.021605
v -0.057290 -0.068080 -0.022882
v -0.056413 -0.067943 -0.022672
v -0.056153 -0.067099 -0.023177
v -0.056070 -0.065731 -0.024781
v -0.055851 -0.064131 -0.026118
v -0.055798 -0.062668 -0.027585
v -0.055805 -0.058271 -0.031986
v -0.055741 -0.053874 -0.034914
v -0.056171 -0.061188 -0.030512
v -0.055807 -0.049477 -0.037842
v -0.055851 -0.046543 -0.039309
v -0.055822 -0.042146 -0.040776
v -0.055901 -0.036286 -0.042243
v -0.055825 -0.034814 -0.042243
v -0.056213 -0.033352 -0.043311
v -0.056189 -0.031880 -0.043350
v -0.056182 -0.030417 -0.043370
v -0.055757 -0.018698 -0.040776
v -0.055766 -0.027509 -0.042243
v -0.055796 -0.026029 -0.042243
v -0.055759 -0.014301 -0.039309
v -0.056182 -0.030030 -0.043370
v -0.056184 -0.028955 -0.043363
v -0.055930 -0.009904 -0.037842
v -0.055748 -0.008441 -0.036381
v -0.055746 -0.004044 -0.033447
v -0.055721 -0.002573 -0.031986
v -0.056054 0.000491 -0.030657
v -0.056056 0.001953 -0.029196
v -0.055724 0.003287 -0.026118
v -0.055760 0.004750 -0.024657
v -0.055771 0.007684 -0.020262
v -0.056103 0.009233 -0.019063
v -0.056189 0.010352 -0.017321
v -0.055813 0.010618 -0.014393
v -0.055831 0.012090 -0.009998
v -0.056004 0.013553 -0.004143
v -0.056351 0.014456 -0.002676
v -0.057290 0.014835 -0.001208
v -0.058757 0.015050 -0.001208
v -0.067705 0.016143 -0.001208
v -0.067705 0.016048 -0.002676
v -0.067705 0.015902 -0.004208
v -0.067705 0.015790 -0.005112
v -0.067705 0.015506 -0.006926
v -0.067705 0.015480 -0.007071
v -0.067705 0.015222 -0.008380
v -0.067705 0.015188 -0.008538
v -0.067705 0.014861 -0.009998
v -0.067705 0.014456 -0.011511
v -0.067705 0.014275 -0.012147
v -0.067705 0.014060 -0.012828
v -0.067705 0.013587 -0.014256
v -0.067705 0.013045 -0.015723
v -0.067705 0.012761 -0.016443
v -0.067705 0.012391 -0.017315
v -0.067705 0.011599 -0.019063
v -0.067433 0.002797 -0.031488
v -0.067433 0.001979 -0.032274
v -0.067433 0.001308 -0.032916
v -0.067433 0.000473 -0.033656
v -0.067433 -0.000241 -0.034285
v -0.067433 -0.001876 -0.035621
v -0.067550 0.016125 -0.001208
v -0.063768 -0.069285 -0.022482
v -0.061689 -0.069139 -0.022227
v -0.067433 -0.002495 -0.036073
v -0.067433 -0.003691 -0.036925
v -0.067433 -0.004371 -0.037396
v -0.067433 -0.005619 -0.038189
v -0.067433 -0.006238 -0.038575
v -0.067433 -0.006875 -0.038949
v -0.067433 -0.008303 -0.039748
v -0.067433 -0.009078 -0.040147
v -0.060820 -0.054640 -0.037134
v -0.064617 -0.055793 -0.036918
v -0.058757 -0.056206 -0.035739
v -0.065036 -0.057600 -0.035693
v -0.058757 -0.057910 -0.034475
v -0.066081 -0.059347 -0.034462
v -0.058757 -0.058641 -0.033879
v -0.058757 -0.059510 -0.033146
v -0.058757 -0.060250 -0.032510
v -0.061015 -0.060457 -0.032700
v -0.067548 -0.061042 -0.033237
v -0.060332 -0.061308 -0.031790
v -0.066081 -0.062410 -0.031705
v -0.058757 -0.061756 -0.031082
v -0.060224 -0.063339 -0.029707
v -0.067548 -0.064673 -0.029569
v -0.066081 -0.065198 -0.028698
v -0.062260 -0.064897 -0.028351
v -0.066081 -0.065929 -0.027801
v -0.067548 -0.066609 -0.027211
v -0.067548 -0.067349 -0.026229
v -0.058757 -0.066488 -0.025594
v -0.057660 -0.066402 -0.025482
v -0.065732 -0.067745 -0.025305
v -0.067548 -0.068450 -0.024657
v -0.059616 -0.067788 -0.023897
v -0.058757 -0.068192 -0.023072
v -0.067433 -0.023103 -0.044660
v -0.067433 -0.024566 -0.044857
v -0.067433 -0.026029 -0.045014
v -0.067433 -0.027621 -0.045125
v -0.067433 -0.028955 -0.045171
v -0.058757 -0.028955 -0.044103
v -0.060224 -0.030417 -0.044300
v -0.067433 -0.009895 -0.040560
v -0.067433 -0.011461 -0.041280
v -0.067433 -0.012055 -0.041536
v -0.067433 -0.012718 -0.041804
v -0.067433 -0.014301 -0.042420
v -0.067433 -0.015566 -0.042852
v -0.067433 -0.016220 -0.043075
v -0.067433 -0.017226 -0.043376
v -0.067433 -0.018698 -0.043763
v -0.067433 -0.020298 -0.044143
v -0.067433 -0.021365 -0.044359
v -0.067433 -0.022097 -0.044490
v -0.060224 -0.031880 -0.044254
v -0.062265 -0.032878 -0.044464
v -0.066081 -0.033352 -0.044896
v -0.062557 -0.033859 -0.044424
v -0.066081 -0.034814 -0.044765
v -0.063966 -0.035460 -0.044437
v -0.067548 -0.036286 -0.044778
v -0.065440 -0.036931 -0.044431
v -0.066418 -0.037284 -0.044490
v -0.067139 -0.038265 -0.044405
v -0.058757 -0.037749 -0.043448
v -0.058115 -0.039891 -0.042964
v -0.063152 -0.040683 -0.043403
v -0.058665 -0.040657 -0.042839
v -0.064026 -0.042817 -0.042957
v -0.066081 -0.043238 -0.043088
v -0.058757 -0.043608 -0.042027
v -0.058757 -0.044744 -0.041647
v -0.060804 -0.045863 -0.041529
v -0.064233 -0.047162 -0.041464
v -0.063152 -0.048014 -0.040966
v -0.058209 -0.048685 -0.040016
v -0.059188 -0.048832 -0.040082
v -0.063854 -0.050226 -0.040049
v -0.058215 -0.051628 -0.038549
v -0.067548 -0.052403 -0.039414
v -0.063152 -0.052970 -0.038477
v -0.058757 -0.068924 -0.021867
v -0.058757 -0.067719 -0.023799
v -0.057290 -0.067590 -0.023615
v -0.056681 -0.066299 -0.025351
v -0.056474 -0.064948 -0.026962
v -0.056317 -0.066626 -0.024375
v -0.056283 -0.065275 -0.026118
v -0.056243 -0.064096 -0.027506
v -0.056186 -0.062651 -0.029019
v -0.055869 -0.056808 -0.033447
v -0.056196 -0.059699 -0.031960
v -0.055851 -0.052403 -0.036381
v -0.056373 -0.062152 -0.030015
v -0.056384 -0.060689 -0.031462
v -0.056132 -0.050957 -0.037914
v -0.056238 -0.049477 -0.038955
v -0.056279 -0.046543 -0.040337
v -0.056151 -0.045080 -0.040599
v -0.056252 -0.042146 -0.041811
v -0.056160 -0.040683 -0.041988
v -0.056333 -0.036286 -0.043160
v -0.056256 -0.034814 -0.043252
v -0.057290 -0.033352 -0.043776
v -0.057290 -0.031880 -0.043848
v -0.057290 -0.030417 -0.043894
v -0.055852 -0.024566 -0.042243
v -0.055955 -0.023103 -0.042243
v -0.056189 -0.018698 -0.041909
v -0.055903 -0.017235 -0.040776
v -0.056196 -0.027509 -0.043344
v -0.056227 -0.026029 -0.043291
v -0.056189 -0.014301 -0.040475
v -0.055969 -0.012838 -0.039309
v -0.057290 -0.030030 -0.043894
v -0.057290 -0.028955 -0.043881
v -0.056362 -0.009904 -0.038792
v -0.056240 -0.008561 -0.037842
v -0.056083 -0.006875 -0.036486
v -0.055823 -0.005507 -0.034914
v -0.056240 -0.011513 -0.039322
v -0.056101 -0.002530 -0.033512
v -0.056067 -0.000989 -0.032104
v -0.056283 0.000095 -0.031698
v -0.056279 0.001558 -0.030264
v -0.056287 0.002977 -0.028796
v -0.056070 0.003390 -0.027689
v -0.056114 0.004810 -0.026150
v -0.055856 0.006221 -0.023190
v -0.056106 0.007770 -0.021775
v -0.056202 0.008898 -0.020262
v -0.056355 0.010094 -0.018487
v -0.056405 0.011488 -0.015474
v -0.056245 0.011685 -0.014393
v -0.056144 0.011935 -0.012926
v -0.056263 0.013097 -0.009998
v -0.056168 0.013251 -0.008538
v -0.056132 0.013406 -0.007071
v -0.056434 0.014379 -0.004143
v -0.057290 0.014732 -0.002676
v -0.058757 0.014947 -0.002676
v -0.065155 0.015773 -0.002197
v -0.058757 0.014792 -0.004143
v -0.066903 0.015738 -0.004765
v -0.058757 0.014602 -0.005603
v -0.067454 0.015678 -0.005649
v -0.058840 0.014379 -0.007051
v -0.059384 0.014293 -0.007863
v -0.067550 0.015170 -0.008538
v -0.058840 0.014103 -0.008426
v -0.064094 0.014258 -0.010621
v -0.066083 0.014387 -0.011072
v -0.058757 0.013329 -0.011465
v -0.059669 0.012795 -0.013581
v -0.067550 0.013527 -0.014393
v -0.067550 0.013045 -0.015690
v -0.057858 0.011376 -0.016646
v -0.067550 0.012374 -0.017321
v -0.066083 0.011608 -0.018585
v -0.067433 0.011350 -0.019515
v -0.067433 0.011014 -0.020164
v -0.067433 0.010231 -0.021605
v -0.067433 0.009818 -0.022332
v -0.067433 0.009302 -0.023190
v -0.067433 0.008631 -0.024244
v -0.067433 0.008140 -0.024978
v -0.067433 0.007409 -0.026019
v -0.067433 0.006875 -0.026753
v -0.067433 0.006153 -0.027689
v -0.067433 0.005576 -0.028430
v -0.067433 0.004879 -0.029229
v -0.067433 0.004208 -0.029988
v -0.067433 0.003528 -0.030722
v -0.064132 0.002513 -0.031213
v -0.066081 0.001919 -0.032111
v -0.065231 0.001110 -0.032733
v -0.058757 -0.000215 -0.032864
v -0.059155 -0.001772 -0.034233
v -0.067107 -0.001910 -0.035602
v -0.058757 -0.003519 -0.035497
v -0.058757 -0.004251 -0.036021
v -0.063771 -0.004750 -0.037128
v -0.058757 -0.006066 -0.037220
v -0.061604 -0.007064 -0.038241
v -0.061060 -0.007735 -0.038569
v -0.058757 -0.008777 -0.038792
v -0.058757 -0.009904 -0.039374
v -0.061687 -0.009792 -0.039722
v -0.060937 -0.010635 -0.040049
v -0.058757 -0.053659 -0.037429
v -0.058757 -0.054399 -0.036977
v -0.058757 -0.055337 -0.036342
v -0.057879 -0.056103 -0.035674
v -0.058757 -0.056937 -0.035209
v -0.063152 -0.057402 -0.035549
v -0.057290 -0.057746 -0.034344
v -0.057290 -0.058477 -0.033748
v -0.057290 -0.059355 -0.033015
v -0.057290 -0.060095 -0.032373
v -0.058757 -0.061024 -0.031790
v -0.057290 -0.061610 -0.030938
v -0.057290 -0.062332 -0.030205
v -0.058757 -0.062461 -0.030349
v -0.058757 -0.063873 -0.028842
v -0.058757 -0.063210 -0.029569
v -0.060224 -0.064733 -0.028155
v -0.058757 -0.065929 -0.026334
v -0.058757 -0.065198 -0.027270
v -0.057290 -0.065060 -0.027107
v -0.058757 -0.067142 -0.024657
v -0.066755 -0.022329 -0.044451
v -0.064642 -0.023155 -0.044326
v -0.065146 -0.023680 -0.044470
v -0.064170 -0.024153 -0.044411
v -0.060222 -0.026029 -0.044130
v -0.062332 -0.026666 -0.044457
v -0.061451 -0.027509 -0.044385
v -0.057678 -0.030030 -0.043953
v -0.058757 -0.030030 -0.044110
v -0.058757 -0.027509 -0.044051
v -0.058757 -0.030417 -0.044110
v -0.058757 -0.031880 -0.044071
v -0.059961 -0.010781 -0.039984
v -0.058757 -0.011694 -0.040219
v -0.058757 -0.012838 -0.040711
v -0.063013 -0.012890 -0.041300
v -0.062433 -0.013578 -0.041510
v -0.058168 -0.015092 -0.041497
v -0.066521 -0.016392 -0.043016
v -0.065541 -0.016590 -0.042951
v -0.058757 -0.017235 -0.042263
v -0.062516 -0.018009 -0.042964
v -0.060539 -0.019231 -0.043029
v -0.058757 -0.019696 -0.042918
v -0.066081 -0.020169 -0.043946
v -0.058757 -0.020436 -0.043082
v -0.060222 -0.021641 -0.043514
v -0.058757 -0.033352 -0.043992
v -0.058757 -0.034814 -0.043861
v -0.058757 -0.036286 -0.043684
v -0.057290 -0.037749 -0.043239
v -0.057290 -0.038816 -0.043042
v -0.056550 -0.038506 -0.042983
v -0.057290 -0.039556 -0.042885
v -0.057290 -0.040683 -0.042610
v -0.057290 -0.042146 -0.042237
v -0.058757 -0.042146 -0.042459
v -0.057220 -0.043720 -0.041759
v -0.057661 -0.044521 -0.041569
v -0.058757 -0.045476 -0.041392
v -0.059827 -0.045682 -0.041464
v -0.058757 -0.046543 -0.040986
v -0.058723 -0.048117 -0.040324
v -0.057290 -0.048513 -0.039931
v -0.057290 -0.049477 -0.039473
v -0.057290 -0.050742 -0.038850
v -0.058723 -0.049382 -0.039754
v -0.057290 -0.047773 -0.040252
v -0.057290 -0.051473 -0.038464
v -0.057290 -0.052403 -0.037927
v -0.057290 -0.053461 -0.037305
v -0.057290 -0.064466 -0.027834
v -0.057290 -0.063735 -0.028692
v -0.056405 -0.063571 -0.028508
v -0.056261 -0.058176 -0.033388
v -0.056299 -0.056808 -0.034534
v -0.056081 -0.055431 -0.035012
v -0.056416 -0.059183 -0.032864
v -0.056279 -0.052403 -0.037449
v -0.056189 -0.053814 -0.036394
v -0.057290 -0.063072 -0.029419
v -0.057290 -0.060878 -0.031639
v -0.056409 -0.050484 -0.038713
v -0.056443 -0.047515 -0.040141
v -0.056395 -0.043299 -0.041647
v -0.056465 -0.037749 -0.043049
v -0.057290 -0.034814 -0.043645
v -0.056285 -0.024566 -0.043219
v -0.056135 -0.020169 -0.042080
v -0.056333 -0.017235 -0.041713
v -0.056386 -0.023103 -0.043114
v -0.056487 -0.022079 -0.043029
v -0.057290 -0.027509 -0.043828
v -0.056398 -0.012838 -0.040200
v -0.056474 -0.016306 -0.041575
v -0.056532 -0.009138 -0.038595
v -0.056339 -0.007314 -0.037351
v -0.056553 -0.012098 -0.040049
v -0.056254 -0.005507 -0.036054
v -0.056182 -0.004087 -0.034921
v -0.056339 -0.002977 -0.034436
v -0.056303 -0.001411 -0.033067
v -0.056609 0.001067 -0.031240
v -0.056609 0.002539 -0.029772
v -0.056308 0.004354 -0.027270
v -0.056355 0.005714 -0.025685
v -0.056214 0.006213 -0.024578
v -0.056287 0.007297 -0.023190
v -0.056369 0.008605 -0.021330
v -0.056705 0.009844 -0.019476
v -0.056645 0.012795 -0.012147
v -0.056404 0.012950 -0.011171
v -0.056879 0.011281 -0.016443
v -0.056505 0.014318 -0.005112
v -0.057290 0.014585 -0.004143
v -0.057290 0.014396 -0.005603
v -0.057779 0.014318 -0.006553
v -0.058406 0.014232 -0.007529
v -0.057290 0.013510 -0.009998
v -0.058757 0.013725 -0.009998
v -0.057198 0.013062 -0.011583
v -0.057625 0.012881 -0.012402
v -0.058757 0.012735 -0.013391
v -0.058757 0.012382 -0.014393
v -0.057339 0.011023 -0.017216
v -0.057330 0.010162 -0.019063
v -0.058757 0.011109 -0.017524
v -0.058757 0.011436 -0.016784
v -0.057339 0.011582 -0.015919
v -0.058757 0.010378 -0.019063
v -0.058757 0.010025 -0.019790
v -0.063424 0.009956 -0.021107
v -0.066081 0.009724 -0.022168
v -0.058020 0.008424 -0.022456
v -0.065069 0.008459 -0.023982
v -0.058757 0.007263 -0.024382
v -0.061043 0.006936 -0.025371
v -0.064617 0.007202 -0.025731
v -0.064617 0.006660 -0.026471
v -0.065671 0.005438 -0.028259
v -0.058757 0.004139 -0.028462
v -0.058757 0.003485 -0.029196
v -0.058757 0.002745 -0.030002
v -0.058757 0.002031 -0.030729
v -0.058757 0.001300 -0.031456
v -0.058757 0.000525 -0.032189
v -0.057719 -0.000310 -0.032772
v -0.058177 -0.001876 -0.034154
v -0.058701 -0.002452 -0.034678
v -0.057290 -0.002710 -0.034639
v -0.057290 -0.003700 -0.035366
v -0.057290 -0.004431 -0.035890
v -0.058757 -0.005335 -0.036748
v -0.060222 -0.005163 -0.036866
v -0.057815 -0.006187 -0.037148
v -0.058757 -0.006978 -0.037776
v -0.058757 -0.008045 -0.038399
v -0.057290 -0.008992 -0.038674
v -0.057290 -0.009904 -0.039139
v -0.058757 -0.010971 -0.039892
v -0.057290 -0.054201 -0.036853
v -0.057350 -0.055431 -0.036041
v -0.056901 -0.055973 -0.035569
v -0.057350 -0.056679 -0.035150
v -0.056490 -0.057617 -0.034239
v -0.058757 -0.064604 -0.028004
v -0.058757 -0.023103 -0.043579
v -0.058757 -0.024566 -0.043783
v -0.060222 -0.024566 -0.043966
v -0.058757 -0.026029 -0.043946
v -0.057290 -0.026029 -0.043730
v -0.057290 -0.011952 -0.040108
v -0.057290 -0.012838 -0.040481
v -0.058697 -0.014378 -0.041300
v -0.060222 -0.013974 -0.041359
v -0.057290 -0.014301 -0.041045
v -0.057290 -0.015299 -0.041411
v -0.057290 -0.016030 -0.041667
v -0.058697 -0.015660 -0.041752
v -0.057290 -0.017235 -0.042047
v -0.058757 -0.018698 -0.042662
v -0.057760 -0.020729 -0.043016
v -0.057290 -0.018698 -0.042440
v -0.058757 -0.021641 -0.043324
v -0.057290 -0.036286 -0.043468
v -0.056683 -0.044280 -0.041477
v -0.057220 -0.045037 -0.041307
v -0.057290 -0.046543 -0.040756
v -0.056461 -0.053280 -0.037193
v -0.056330 -0.055001 -0.035916
v -0.057290 -0.024566 -0.043573
v -0.057290 -0.023103 -0.043376
v -0.056784 -0.021099 -0.042924
v -0.057290 -0.008252 -0.038274
v -0.056836 -0.006333 -0.037049
v -0.056436 -0.004612 -0.035765
v -0.057290 -0.011220 -0.039774
v -0.056741 -0.000430 -0.032667
v -0.057164 0.000387 -0.032012
v -0.057588 0.001179 -0.031344
v -0.057097 0.001859 -0.030558
v -0.057588 0.002642 -0.029884
v -0.057807 0.004062 -0.028371
v -0.056833 0.003950 -0.028246
v -0.056474 0.007030 -0.024041
v -0.057043 0.008312 -0.022299
v -0.057434 0.008700 -0.021775
v -0.057231 0.009560 -0.020177
v -0.057681 0.009947 -0.019633
v -0.057081 0.010119 -0.019063
v -0.057290 0.012150 -0.014393
v -0.057198 0.012649 -0.012900
v -0.056802 0.014224 -0.006088
v -0.057290 0.014138 -0.007051
v -0.057290 0.013828 -0.008538
v -0.058757 0.009620 -0.020517
v -0.058757 0.008941 -0.021729
v -0.057290 0.007134 -0.024198
v -0.058757 0.006764 -0.025115
v -0.058802 0.005937 -0.026229
v -0.058341 0.005438 -0.026792
v -0.058802 0.004974 -0.027460
v -0.057252 -0.000989 -0.033237
v -0.057290 -0.001979 -0.034063
v -0.057312 -0.005619 -0.036689
v -0.057312 -0.006875 -0.037482
v -0.057278 -0.021606 -0.043114
v -0.057278 -0.020204 -0.042807
v -0.057290 0.005335 -0.026661
v -0.057308 0.004509 -0.027689
v -0.057290 0.005903 -0.025934
v -0.057290 0.006634 -0.024932
f 10 45 46
f 1 8 9
f 12 9 45
f 45 10 12
f 12 10 2
f 13 14 3
f 2 10 11
f 7 8 1
f 45 9 44
f 9 43 44
f 42 9 8
f 42 43 9
f 47 10 46
f 47 14 13
f 22 3 21
f 48 11 10
f 10 47 48
f 48 47 13
f 63 22 21
f 6 5 8
f 8 7 6
f 1 5 6
f 6 7 1
f 220 221 100
f 123 54 100
f 100 221 123
f 120 54 119
f 49 14 54
f 21 3 20
f 14 49 50
f 17 18 3
f 58 18 17
f 4 34 35
f 46 45 95
f 95 97 46
f 53 100 54
f 54 14 53
f 121 122 54
f 54 120 121
f 54 122 98
f 98 49 54
f 3 18 19
f 19 20 3
f 16 17 3
f 34 4 33
f 36 4 35
f 37 4 36
f 38 4 37
f 8 5 38
f 273 453 274
f 125 126 54
f 127 128 54
f 54 126 127
f 274 128 127
f 127 273 274
f 127 126 271
f 132 133 54
f 54 131 132
f 54 128 129
f 129 128 274
f 97 95 94
f 94 95 45
f 357 191 190
f 123 221 256
f 216 100 215
f 220 100 219
f 100 218 219
f 215 100 214
f 100 210 214
f 96 210 100
f 204 205 96
f 100 53 96
f 96 196 197
f 195 196 96
f 96 194 195
f 96 191 192
f 190 191 96
f 96 189 190
f 96 188 189
f 46 97 96
f 97 188 96
f 207 388 389
f 389 388 548
f 59 18 58
f 59 19 18
f 99 50 49
f 49 98 99
f 15 3 14
f 15 16 3
f 39 38 37
f 8 38 39
f 124 54 123
f 124 125 54
f 271 126 270
f 272 127 271
f 273 127 272
f 130 131 54
f 54 129 130
f 110 111 54
f 54 141 142
f 23 4 22
f 189 188 211
f 211 188 97
f 192 191 359
f 189 211 355
f 372 373 204
f 204 371 372
f 161 316 162
f 162 74 161
f 163 74 162
f 162 318 163
f 324 167 166
f 167 77 166
f 166 77 80
f 123 262 263
f 263 264 123
f 35 34 86
f 34 85 86
f 87 36 35
f 35 86 87
f 261 262 123
f 123 260 261
f 123 258 259
f 259 260 123
f 257 258 123
f 123 256 257
f 217 218 100
f 100 216 217
f 210 96 209
f 207 96 206
f 206 96 205
f 206 388 207
f 205 388 206
f 204 96 203
f 203 96 202
f 203 371 204
f 202 371 203
f 201 96 200
f 202 96 201
f 201 369 202
f 200 96 199
f 193 96 192
f 194 96 193
f 46 96 52
f 52 96 53
f 52 53 14
f 52 47 46
f 14 47 52
f 387 388 205
f 548 388 387
f 84 85 34
f 34 33 84
f 175 84 83
f 246 120 119
f 246 247 120
f 120 247 248
f 148 295 248
f 212 121 120
f 120 248 212
f 122 121 212
f 212 98 122
f 58 17 57
f 20 19 60
f 19 59 60
f 50 99 55
f 55 99 98
f 16 15 51
f 50 55 51
f 51 55 16
f 14 50 51
f 51 15 14
f 89 90 40
f 40 39 89
f 8 39 40
f 90 91 40
f 160 159 314
f 160 316 161
f 160 314 315
f 315 316 160
f 279 132 131
f 131 278 279
f 313 488 456
f 314 159 313
f 54 103 104
f 104 105 54
f 54 105 106
f 54 108 109
f 109 110 54
f 467 289 471
f 459 456 589
f 456 488 589
f 471 289 465
f 54 133 134
f 134 135 54
f 136 137 54
f 54 135 136
f 140 141 54
f 54 139 140
f 54 137 138
f 138 139 54
f 287 139 138
f 143 142 292
f 143 144 54
f 54 142 143
f 470 469 292
f 289 469 470
f 102 103 54
f 54 101 102
f 54 144 145
f 145 101 54
f 22 63 64
f 24 25 4
f 4 23 24
f 485 308 414
f 412 308 485
f 368 367 527
f 527 369 368
f 200 199 368
f 368 199 367
f 368 201 200
f 369 201 368
f 80 77 29
f 332 333 171
f 502 333 332
f 171 331 332
f 75 74 163
f 271 270 269
f 269 451 271
f 126 125 269
f 269 270 126
f 255 124 123
f 123 254 255
f 164 75 163
f 76 75 164
f 79 169 80
f 80 29 79
f 502 332 500
f 500 332 331
f 123 267 249
f 249 267 424
f 424 425 249
f 249 425 426
f 179 87 86
f 179 178 342
f 86 178 179
f 43 42 92
f 395 217 216
f 218 217 395
f 395 396 218
f 395 216 215
f 208 96 207
f 208 209 96
f 198 96 197
f 198 199 96
f 367 199 198
f 548 387 547
f 547 387 546
f 386 205 204
f 386 387 205
f 546 387 386
f 554 393 553
f 507 508 339
f 336 337 175
f 85 84 176
f 84 175 176
f 118 242 119
f 119 54 118
f 244 421 422
f 422 298 244
f 422 569 475
f 421 569 422
f 297 298 148
f 244 298 297
f 245 423 247
f 245 246 119
f 247 246 245
f 119 244 245
f 244 423 245
f 247 423 296
f 148 248 296
f 296 248 247
f 296 297 148
f 296 423 244
f 244 297 296
f 213 248 295
f 213 212 248
f 98 212 213
f 147 295 148
f 148 57 147
f 148 298 149
f 149 57 148
f 58 57 149
f 149 59 58
f 149 150 59
f 149 300 150
f 146 55 98
f 98 213 146
f 146 213 295
f 295 147 146
f 146 147 57
f 17 16 56
f 16 55 56
f 55 146 56
f 56 57 17
f 56 146 57
f 41 40 91
f 41 92 42
f 91 92 41
f 41 42 8
f 8 40 41
f 73 72 159
f 161 74 73
f 73 160 161
f 159 160 73
f 453 278 275
f 274 453 275
f 275 129 274
f 458 456 459
f 459 279 458
f 456 279 455
f 453 273 452
f 271 451 452
f 452 272 271
f 273 272 452
f 317 452 451
f 317 316 315
f 317 162 316
f 318 162 317
f 454 588 456
f 456 455 454
f 454 278 453
f 453 588 454
f 454 279 278
f 454 455 279
f 489 313 456
f 315 314 489
f 314 313 489
f 157 306 309
f 309 310 157
f 487 589 488
f 487 467 471
f 157 310 158
f 158 72 157
f 159 72 158
f 223 104 103
f 107 108 54
f 54 106 107
f 412 485 413
f 413 485 414
f 108 228 229
f 228 411 229
f 419 569 421
f 421 240 419
f 592 473 472
f 292 469 472
f 472 473 292
f 592 566 564
f 468 469 289
f 289 467 468
f 467 487 468
f 459 589 461
f 591 465 463
f 471 465 591
f 591 487 471
f 589 487 591
f 466 465 289
f 280 134 133
f 133 132 280
f 132 279 280
f 459 461 284
f 288 139 287
f 288 140 139
f 289 140 288
f 288 466 289
f 287 465 288
f 465 466 288
f 286 138 137
f 286 465 287
f 287 138 286
f 293 143 292
f 144 143 293
f 293 145 144
f 292 142 291
f 291 470 292
f 291 142 141
f 69 23 68
f 68 156 69
f 62 63 21
f 62 64 63
f 155 306 157
f 157 70 155
f 306 155 304
f 410 411 228
f 111 234 112
f 237 113 112
f 54 111 112
f 112 113 54
f 509 507 607
f 508 507 509
f 370 532 516
f 370 371 202
f 202 369 370
f 527 532 370
f 370 369 527
f 373 372 533
f 537 612 611
f 380 381 204
f 378 377 537
f 204 377 378
f 197 196 365
f 196 364 365
f 365 198 197
f 362 196 195
f 195 194 362
f 78 29 77
f 83 84 32
f 32 82 83
f 32 84 33
f 32 33 4
f 123 251 252
f 251 429 252
f 451 269 435
f 318 317 435
f 435 317 451
f 170 329 324
f 80 169 170
f 324 166 170
f 170 166 80
f 325 167 324
f 325 320 167
f 427 572 428
f 424 267 266
f 266 450 424
f 266 267 123
f 37 36 88
f 36 87 88
f 87 182 88
f 88 39 37
f 89 39 88
f 348 349 183
f 183 182 348
f 89 88 183
f 183 88 182
f 181 182 87
f 45 44 93
f 93 94 45
f 396 395 557
f 214 393 394
f 215 214 394
f 394 395 215
f 394 557 395
f 210 209 392
f 209 391 392
f 392 214 210
f 392 393 214
f 553 393 551
f 550 551 391
f 606 633 607
f 607 507 606
f 204 381 382
f 382 383 204
f 385 545 546
f 546 386 385
f 385 386 204
f 605 547 546
f 605 606 507
f 546 545 605
f 545 606 605
f 506 337 505
f 335 504 505
f 505 336 335
f 337 336 505
f 599 554 553
f 502 500 599
f 599 504 502
f 503 504 335
f 502 504 503
f 335 333 503
f 503 333 502
f 83 82 174
f 174 175 83
f 174 336 175
f 173 333 335
f 335 336 173
f 336 174 173
f 173 174 82
f 85 176 177
f 177 86 85
f 177 178 86
f 175 337 338
f 338 176 175
f 339 176 338
f 338 507 339
f 506 507 338
f 338 337 506
f 342 178 341
f 510 342 341
f 341 509 510
f 508 509 341
f 54 115 116
f 115 238 116
f 420 421 244
f 420 240 421
f 150 300 151
f 484 477 476
f 475 569 476
f 299 422 475
f 298 422 299
f 475 476 299
f 299 476 477
f 299 149 298
f 300 149 299
f 299 477 302
f 302 477 303
f 303 152 302
f 308 156 307
f 156 303 307
f 307 303 477
f 414 308 307
f 307 415 414
f 484 415 307
f 307 477 484
f 184 90 89
f 89 183 184
f 184 183 351
f 349 515 517
f 614 532 527
f 516 532 614
f 28 29 4
f 277 275 278
f 131 130 277
f 277 278 131
f 277 130 129
f 457 279 456
f 456 458 457
f 457 458 279
f 490 317 315
f 315 489 490
f 452 317 490
f 456 588 490
f 490 489 456
f 310 309 482
f 482 309 306
f 486 487 310
f 486 482 592
f 310 482 486
f 592 472 486
f 486 472 469
f 469 468 486
f 486 468 487
f 310 487 311
f 311 158 310
f 488 313 311
f 311 487 488
f 225 106 105
f 225 226 106
f 105 104 225
f 227 226 228
f 227 228 108
f 108 107 227
f 227 107 106
f 106 226 227
f 114 113 237
f 114 238 115
f 237 238 114
f 114 115 54
f 54 113 114
f 239 238 237
f 239 419 240
f 240 116 239
f 239 116 238
f 292 403 294
f 294 293 292
f 145 293 294
f 101 145 222
f 222 403 404
f 145 294 222
f 222 294 403
f 222 102 101
f 103 102 222
f 222 223 103
f 474 473 592
f 592 564 474
f 292 473 474
f 474 403 292
f 590 591 463
f 589 591 590
f 135 134 283
f 134 282 283
f 283 136 135
f 283 284 136
f 282 284 283
f 281 282 134
f 134 280 281
f 281 280 279
f 136 284 285
f 137 136 285
f 285 286 137
f 463 465 464
f 465 286 464
f 464 285 463
f 286 285 464
f 290 291 141
f 141 140 290
f 290 140 289
f 289 470 290
f 470 291 290
f 64 68 65
f 22 64 65
f 21 20 61
f 61 62 21
f 20 60 61
f 152 62 61
f 61 60 59
f 59 150 61
f 61 151 152
f 150 151 61
f 153 68 64
f 64 62 153
f 153 62 152
f 152 303 153
f 156 68 153
f 153 303 156
f 67 23 69
f 67 155 70
f 67 24 23
f 70 24 67
f 305 156 308
f 235 413 414
f 414 415 235
f 415 416 235
f 510 509 511
f 609 512 608
f 512 511 608
f 608 511 509
f 608 509 607
f 619 612 537
f 204 373 374
f 537 377 376
f 376 377 204
f 371 370 531
f 610 609 537
f 537 611 610
f 612 529 613
f 539 635 622
f 379 380 204
f 204 378 379
f 622 635 634
f 634 608 607
f 635 608 634
f 367 198 366
f 198 365 366
f 366 365 364
f 82 81 172
f 333 173 172
f 172 173 82
f 171 333 172
f 172 81 171
f 31 81 82
f 31 32 4
f 82 32 31
f 253 254 123
f 123 252 253
f 253 252 254
f 254 252 430
f 430 252 429
f 268 269 125
f 268 435 269
f 255 435 268
f 434 435 255
f 324 329 496
f 496 325 324
f 428 572 571
f 571 427 426
f 572 427 571
f 165 77 167
f 167 320 165
f 165 78 77
f 165 322 323
f 327 334 171
f 262 261 442
f 442 263 262
f 444 583 584
f 498 501 497
f 330 500 331
f 330 331 171
f 171 334 330
f 334 497 330
f 330 497 501
f 426 427 250
f 250 249 426
f 250 429 251
f 250 251 123
f 123 249 250
f 428 429 250
f 250 427 428
f 450 266 265
f 265 449 450
f 448 449 265
f 264 448 265
f 123 264 265
f 265 266 123
f 344 511 512
f 346 181 345
f 345 344 512
f 181 344 345
f 347 181 346
f 347 346 515
f 348 182 347
f 182 181 347
f 347 349 348
f 347 515 349
f 557 394 556
f 556 558 396
f 396 557 556
f 555 556 394
f 393 554 555
f 555 394 393
f 555 599 598
f 554 599 555
f 552 551 393
f 391 551 552
f 393 392 552
f 552 392 391
f 390 391 209
f 390 550 391
f 209 208 390
f 390 208 207
f 207 389 390
f 553 551 627
f 551 550 627
f 204 383 384
f 384 385 204
f 604 507 506
f 604 605 507
f 340 341 178
f 178 177 340
f 340 177 176
f 340 176 339
f 339 508 340
f 508 341 340
f 117 118 54
f 54 116 117
f 242 118 117
f 117 116 240
f 243 420 244
f 243 244 119
f 119 242 243
f 301 151 300
f 301 299 302
f 300 299 301
f 302 152 301
f 152 151 301
f 185 184 351
f 185 91 90
f 90 184 185
f 349 517 350
f 350 183 349
f 351 183 350
f 350 185 351
f 363 364 196
f 196 362 363
f 515 346 514
f 514 346 516
f 516 614 514
f 76 28 27
f 27 75 76
f 74 75 27
f 27 73 74
f 72 73 27
f 27 28 4
f 129 275 276
f 276 277 129
f 275 277 276
f 312 311 313
f 158 311 312
f 312 313 159
f 159 158 312
f 565 564 566
f 566 406 565
f 404 564 565
f 567 566 409
f 567 406 566
f 110 109 232
f 232 231 110
f 232 109 108
f 108 231 232
f 110 231 233
f 233 231 413
f 111 110 233
f 233 234 111
f 413 235 233
f 233 112 234
f 233 235 112
f 412 413 230
f 413 231 230
f 230 411 412
f 230 229 411
f 108 229 230
f 230 231 108
f 409 226 407
f 407 567 409
f 406 567 407
f 223 222 405
f 405 222 404
f 404 565 405
f 405 565 406
f 462 461 589
f 589 590 462
f 462 284 461
f 462 285 284
f 462 590 463
f 463 285 462
f 460 284 282
f 282 281 460
f 459 284 460
f 460 279 459
f 460 281 279
f 66 68 23
f 66 65 68
f 66 23 22
f 22 65 66
f 154 305 304
f 154 304 155
f 69 156 154
f 156 305 154
f 154 67 69
f 155 67 154
f 112 235 236
f 236 235 416
f 237 112 236
f 236 239 237
f 537 535 620
f 620 619 537
f 535 619 620
f 612 619 534
f 534 619 535
f 535 374 534
f 534 374 373
f 373 533 534
f 534 533 612
f 536 535 537
f 537 376 536
f 375 374 535
f 535 536 375
f 375 536 376
f 204 374 375
f 375 376 204
f 530 531 370
f 370 529 530
f 530 533 372
f 612 533 530
f 530 529 612
f 530 372 371
f 371 531 530
f 528 529 370
f 528 613 529
f 528 370 516
f 516 613 528
f 538 378 537
f 537 539 538
f 538 379 378
f 539 379 538
f 621 539 537
f 635 539 621
f 537 609 621
f 609 608 621
f 621 608 635
f 380 379 541
f 381 380 541
f 607 633 632
f 632 634 607
f 633 606 632
f 542 382 381
f 367 366 526
f 526 366 525
f 527 367 526
f 526 614 527
f 78 81 30
f 81 31 30
f 30 31 4
f 4 29 30
f 29 78 30
f 432 255 254
f 432 434 255
f 318 435 319
f 435 434 319
f 163 318 319
f 319 164 163
f 254 430 433
f 433 430 429
f 574 496 433
f 426 425 570
f 570 571 426
f 450 587 570
f 424 450 570
f 570 425 424
f 574 494 491
f 325 496 491
f 491 496 574
f 320 325 491
f 491 494 322
f 168 81 78
f 78 165 168
f 168 165 323
f 171 81 168
f 168 327 171
f 443 444 263
f 263 442 443
f 263 444 445
f 444 584 445
f 584 446 445
f 264 263 445
f 445 446 264
f 586 584 583
f 586 583 498
f 402 257 256
f 402 436 257
f 402 256 221
f 258 257 437
f 257 436 437
f 334 327 326
f 326 497 334
f 498 497 326
f 326 493 498
f 326 168 323
f 327 168 326
f 323 322 326
f 322 493 326
f 441 261 260
f 441 442 261
f 179 344 180
f 180 344 181
f 87 179 180
f 180 181 87
f 511 344 343
f 343 342 510
f 510 511 343
f 343 179 342
f 343 344 179
f 513 345 512
f 513 613 516
f 513 512 609
f 513 611 612
f 612 613 513
f 516 346 513
f 346 345 513
f 609 610 513
f 513 610 611
f 558 556 628
f 556 555 628
f 598 558 628
f 628 555 598
f 550 390 549
f 549 602 550
f 549 389 548
f 549 390 389
f 506 602 603
f 603 604 506
f 603 549 548
f 602 549 603
f 605 604 603
f 548 547 603
f 547 605 603
f 550 602 601
f 601 602 506
f 506 505 601
f 601 505 504
f 553 627 601
f 601 599 553
f 504 599 601
f 385 384 544
f 544 606 545
f 545 385 544
f 544 384 383
f 420 243 241
f 240 420 241
f 241 117 240
f 242 117 241
f 241 243 242
f 352 350 517
f 185 350 352
f 517 353 352
f 186 93 92
f 186 92 91
f 91 185 186
f 185 352 186
f 186 352 353
f 191 357 358
f 358 359 191
f 192 359 358
f 356 357 190
f 356 358 357
f 523 366 364
f 364 363 523
f 525 514 615
f 615 514 614
f 615 526 525
f 614 526 615
f 616 517 515
f 25 24 71
f 71 24 70
f 157 72 71
f 71 70 157
f 4 25 26
f 26 27 4
f 25 71 26
f 72 27 26
f 26 71 72
f 226 225 408
f 408 407 226
f 223 405 224
f 224 405 406
f 104 223 224
f 406 407 224
f 407 408 224
f 224 225 104
f 224 408 225
f 481 305 308
f 481 308 412
f 412 411 481
f 483 482 306
f 418 415 484
f 484 476 418
f 418 416 415
f 418 236 416
f 634 632 624
f 622 634 624
f 624 632 606
f 381 541 540
f 540 542 381
f 540 541 379
f 540 539 622
f 540 379 539
f 434 432 431
f 431 319 434
f 431 432 254
f 254 329 431
f 573 429 428
f 573 433 429
f 574 433 573
f 428 571 573
f 450 449 585
f 585 587 450
f 585 586 631
f 571 570 595
f 320 491 321
f 321 165 320
f 322 165 321
f 447 446 584
f 447 585 449
f 447 449 448
f 584 586 447
f 586 585 447
f 447 448 264
f 264 446 447
f 401 402 221
f 258 437 438
f 396 558 559
f 436 402 400
f 402 401 400
f 400 221 220
f 400 401 221
f 582 443 442
f 442 441 582
f 444 443 582
f 582 441 444
f 581 583 444
f 444 441 581
f 498 583 581
f 626 627 550
f 550 601 626
f 626 601 627
f 93 186 187
f 187 211 97
f 187 355 211
f 97 94 187
f 94 93 187
f 520 358 519
f 517 616 519
f 519 616 520
f 360 358 520
f 520 521 360
f 192 358 360
f 360 193 192
f 194 193 361
f 361 521 363
f 193 360 361
f 361 360 521
f 361 362 194
f 361 363 362
f 366 523 522
f 522 523 363
f 363 521 522
f 515 514 522
f 522 616 515
f 305 481 478
f 304 305 478
f 478 479 304
f 568 566 592
f 409 566 568
f 479 478 568
f 568 478 481
f 568 410 409
f 411 410 568
f 568 481 411
f 304 479 480
f 306 304 480
f 480 483 306
f 417 418 476
f 569 419 417
f 417 476 569
f 236 418 417
f 419 239 417
f 239 236 417
f 625 624 606
f 382 542 543
f 542 624 543
f 383 382 543
f 624 625 543
f 543 625 606
f 543 544 383
f 606 544 543
f 623 624 542
f 542 540 623
f 622 624 623
f 623 540 622
f 328 431 329
f 319 431 328
f 329 170 328
f 328 170 169
f 594 494 574
f 571 595 594
f 574 573 594
f 594 573 571
f 596 585 631
f 631 586 596
f 596 586 498
f 587 585 630
f 630 570 587
f 630 595 570
f 585 596 630
f 630 596 595
f 492 491 322
f 322 321 492
f 492 321 491
f 440 259 258
f 440 438 578
f 260 259 440
f 440 441 260
f 578 441 440
f 575 438 437
f 441 438 576
f 576 575 501
f 438 575 576
f 577 441 578
f 578 438 577
f 577 438 441
f 218 396 397
f 396 559 397
f 220 219 398
f 398 219 218
f 218 397 398
f 398 559 560
f 398 397 559
f 560 559 629
f 629 597 560
f 629 559 558
f 629 558 598
f 598 597 629
f 499 597 598
f 500 330 499
f 499 330 501
f 598 599 499
f 499 599 500
f 580 501 498
f 498 581 580
f 580 581 441
f 355 187 354
f 189 355 354
f 190 189 354
f 354 356 190
f 518 354 353
f 356 354 518
f 518 353 517
f 517 519 518
f 525 366 524
f 366 522 524
f 524 514 525
f 524 522 514
f 617 521 520
f 520 616 617
f 593 480 479
f 483 480 593
f 593 568 592
f 479 568 593
f 592 482 593
f 482 483 593
f 494 594 495
f 495 594 595
f 595 596 495
f 322 494 495
f 495 493 322
f 498 493 495
f 495 596 498
f 258 438 439
f 439 440 258
f 438 440 439
f 436 400 563
f 563 437 436
f 563 575 437
f 399 398 560
f 399 400 220
f 220 398 399
f 501 575 600
f 575 563 600
f 562 563 400
f 562 600 563
f 562 499 501
f 501 600 562
f 441 576 579
f 579 580 441
f 579 576 501
f 501 580 579
f 618 522 521
f 521 617 618
f 616 522 618
f 618 617 616
f 597 499 561
f 499 562 561
f 560 597 561
f 561 399 560
f 400 399 561
f 561 562 400
f 1 9 12
f 12 2 1
f 1 2 48
f 48 3 1
f 13 3 48
f 2 11 48
f 1 3 4
f 3 22 4
f 1 4 38
f 38 5 1
f 79 164 169
f 76 164 79
f 228 226 410
f 410 226 409
f 43 92 93
f 93 44 43
f 76 79 28
f 28 79 29
f 453 452 490
f 490 588 453
f 474 564 404
f 404 403 474
f 124 255 268
f 125 124 268
f 433 496 329
f 433 329 254
f 169 164 328
f 164 319 328
f 354 187 186
f 354 186 353
f 518 519 358
f 358 356 518
