v -0.000496 -0.056647 0.072610
v -0.000496 -0.060037 0.047585
v -0.000496 -0.059223 0.057604
v -0.000512 0.056952 -0.025668
v -0.058075 0.000004 -0.022770
v -0.057696 0.000004 -0.024425
v -0.057638 -0.002586 -0.024425
v -0.058016 -0.002603 -0.022770
v -0.056880 -0.009666 -0.024425
v -0.057253 -0.009729 -0.022770
v -0.055256 -0.016598 -0.024425
v -0.055619 -0.016707 -0.022770
v -0.052791 -0.023278 -0.024425
v -0.053137 -0.023430 -0.022770
v -0.051454 -0.026925 -0.022770
v -0.049521 -0.029603 -0.024425
v -0.049846 -0.029797 -0.022770
v -0.047806 -0.032969 -0.022770
v -0.045497 -0.035477 -0.024425
v -0.045795 -0.035709 -0.022770
v -0.043452 -0.038526 -0.022770
v -0.040781 -0.040811 -0.024425
v -0.041048 -0.041078 -0.022770
v -0.035443 -0.045523 -0.024425
v -0.035675 -0.045821 -0.022770
v -0.038457 -0.043513 -0.022770
v -0.023390 -0.053152 -0.022770
v -0.026842 -0.051495 -0.022770
v -0.029565 -0.049542 -0.024425
v -0.029759 -0.049866 -0.022770
v -0.032893 -0.047858 -0.022770
v -0.023238 -0.052806 -0.024425
v -0.016556 -0.055266 -0.024425
v -0.016664 -0.055628 -0.022770
v -0.009622 -0.056884 -0.024425
v -0.009685 -0.057257 -0.022770
v -0.002542 -0.057636 -0.024425
v -0.002559 -0.058014 -0.022770
v -0.056521 0.000004 -0.026130
v -0.002490 -0.056462 -0.026130
v -0.009426 -0.055725 -0.026130
v -0.016219 -0.054140 -0.026130
v -0.022764 -0.051730 -0.026130
v -0.028963 -0.048532 -0.026130
v -0.034721 -0.044595 -0.026130
v -0.039950 -0.039979 -0.026130
v -0.044570 -0.034754 -0.026130
v -0.048512 -0.028999 -0.026130
v -0.051715 -0.022803 -0.026130
v -0.054130 -0.016260 -0.026130
v -0.055721 -0.009469 -0.026130
v -0.056464 -0.002533 -0.026130
v -0.009939 -0.047283 -0.033500
v -0.001993 -0.047995 -0.033500
v -0.018504 -0.044956 -0.033500
v -0.026494 -0.041093 -0.033500
v -0.033637 -0.035824 -0.033500
v -0.039687 -0.029330 -0.033500
v -0.044439 -0.021833 -0.033500
v -0.047728 -0.013590 -0.033500
v -0.049444 -0.004882 -0.033500
v -0.049527 0.003993 -0.033500
v -0.047975 0.012732 -0.033500
v -0.044841 0.021035 -0.033500
v -0.040231 0.028620 -0.033500
v -0.034303 0.035226 -0.033500
v -0.027261 0.040628 -0.033500
v -0.019344 0.044641 -0.033500
v -0.010824 0.047127 -0.033500
v -0.001992 0.048003 -0.033500
v -0.029742 -0.050856 0.059870
v -0.038074 -0.045348 0.057713
v -0.032383 -0.049560 0.057796
v -0.031048 -0.050289 0.058559
v -0.036987 -0.046316 0.057228
v -0.036771 -0.046496 0.057176
v -0.034649 -0.048104 0.057130
v -0.034163 -0.048438 0.057215
v -0.033595 -0.048813 0.057354
v -0.027548 -0.052086 0.059818
v -0.028389 -0.051630 0.059832
v -0.027804 -0.051949 0.059821
v -0.059364 -0.009211 0.046950
v -0.059912 -0.004273 0.047166
v -0.060001 -0.002656 0.047253
v -0.013116 -0.056571 0.063667
v -0.018882 -0.055274 0.062312
v -0.014304 -0.057056 0.060476
v -0.014140 -0.057094 0.060494
v -0.014457 -0.056666 0.062170
v -0.009692 -0.057911 0.061132
v -0.009915 -0.057649 0.062278
v -0.008118 -0.058099 0.061456
v -0.007669 -0.057956 0.062533
v -0.005191 -0.058280 0.062354
v -0.005544 -0.058113 0.063041
v -0.004391 -0.058282 0.062720
v -0.009953 -0.057349 0.063415
v -0.021560 -0.054820 0.059917
v -0.021219 -0.054950 0.059933
v -0.018862 -0.055781 0.060070
v -0.007521 -0.057754 0.063464
v -0.009489 0.064253 -0.014022
v -0.011483 0.068546 -0.002375
v -0.013579 0.068288 -0.002466
v -0.012120 0.065495 -0.011511
v -0.012492 0.066190 -0.009957
v -0.010583 0.066465 -0.009678
v -0.010967 0.067343 -0.007322
v -0.008915 0.066910 -0.006876
v -0.010098 0.065432 -0.011912
v -0.009295 0.068009 -0.002151
v -0.011349 0.064150 -0.014022
v -0.011878 0.065058 -0.012386
v -0.011913 0.065121 -0.012265
v -0.012954 0.067086 -0.007532
v -0.013053 0.067280 -0.006912
v -0.013489 0.068125 -0.003430
v -0.033157 0.047379 -0.024081
v -0.026686 0.051223 -0.024282
v -0.018547 0.054721 -0.024227
v -0.031058 0.061778 -0.003114
v -0.029365 0.059778 -0.011282
v -0.027603 0.060354 -0.011758
v -0.027635 0.058804 -0.014154
v -0.027693 0.056937 -0.016470
v -0.029422 0.056584 -0.015821
v -0.031091 0.056052 -0.015012
v -0.031063 0.057610 -0.012944
v -0.032632 0.056748 -0.012101
v -0.032640 0.057993 -0.009966
v -0.034055 0.056809 -0.009149
v -0.034081 0.057739 -0.007027
v -0.029382 0.058281 -0.013654
v -0.031061 0.058989 -0.010682
v -0.032660 0.059046 -0.007691
v -0.032677 0.059890 -0.005311
v -0.034107 0.058486 -0.004810
v -0.031072 0.061083 -0.005747
v -0.031069 0.060153 -0.008270
v -0.029310 0.062784 -0.003348
v -0.027505 0.063379 -0.004190
v -0.029343 0.062040 -0.006107
v -0.027544 0.062752 -0.006387
v -0.029357 0.061038 -0.008752
v -0.027576 0.061751 -0.008998
v -0.027601 0.060476 -0.011543
v -0.024474 0.062927 -0.008919
v -0.020069 0.064413 -0.008941
v -0.024236 0.061737 -0.011573
v -0.019146 0.061949 -0.014099
v -0.014375 0.063347 -0.014088
v -0.015689 0.065783 -0.008876
v -0.016695 0.067177 -0.003277
v -0.020670 0.065879 -0.003416
v -0.016234 0.066614 -0.006104
v -0.020412 0.065275 -0.006205
v -0.024682 0.064544 -0.003370
v -0.023913 0.060311 -0.014095
v -0.019646 0.063299 -0.011585
v -0.060273 0.000004 0.004267
v -0.060274 0.000004 0.004421
v -0.060077 0.004867 0.004267
v -0.060077 0.004867 0.004421
v -0.059489 0.009698 0.004267
v -0.030097 -0.052218 0.041249
v -0.027968 -0.053388 0.041249
v -0.028415 -0.053090 0.043797
v -0.021693 -0.056173 0.043797
v -0.007373 -0.059763 0.043797
v -0.007201 -0.059838 0.041249
v -0.021323 -0.056372 0.041249
v -0.020564 -0.056653 0.041249
v -0.014643 -0.058408 0.043797
v -0.014367 -0.058532 0.041249
v -0.010405 -0.059365 0.041249
v -0.034204 -0.049625 0.041249
v -0.034709 -0.049207 0.043797
v -0.038714 -0.046193 0.041249
v -0.040479 -0.044581 0.043797
v -0.039941 -0.045136 0.041249
v -0.045094 -0.039989 0.041249
v -0.045639 -0.039283 0.043797
v -0.046152 -0.038763 0.041249
v -0.050110 -0.033393 0.043797
v -0.049589 -0.034257 0.041249
v -0.052187 -0.030153 0.041249
v -0.053826 -0.026999 0.043797
v -0.053360 -0.028026 0.041249
v -0.056351 -0.021384 0.041249
v -0.056730 -0.020197 0.043797
v -0.056634 -0.020625 0.041249
v -0.058779 -0.013091 0.043797
v -0.058520 -0.014431 0.041249
v -0.060220 0.000004 0.043797
v -0.060274 0.000004 0.041249
v -0.059940 -0.005788 0.043797
v -0.059834 -0.007266 0.041249
v -0.059357 -0.010470 0.041249
v -0.014511 -0.057882 0.053206
v -0.060198 0.001603 0.043797
v -0.040114 -0.044180 0.053206
v -0.034396 -0.048764 0.053206
v -0.028159 -0.052612 0.053206
v -0.021497 -0.055667 0.053206
v -0.007306 -0.059224 0.053206
v -0.007196 -0.058330 0.060789
v -0.045228 -0.038929 0.053206
v -0.005188 -0.060046 0.004421
v -0.010405 -0.059365 0.004421
v -0.015544 -0.058231 0.004421
v -0.020564 -0.056653 0.004421
v -0.025427 -0.054644 0.004421
v -0.030097 -0.052218 0.004421
v -0.034537 -0.049394 0.004421
v -0.038713 -0.046193 0.004421
v -0.042595 -0.042640 0.004421
v -0.046152 -0.038763 0.004421
v -0.049358 -0.034590 0.004421
v -0.052187 -0.030153 0.004421
v -0.054618 -0.025486 0.004421
v -0.056633 -0.020625 0.004421
v -0.058217 -0.015607 0.004421
v -0.059357 -0.010470 0.004421
v -0.060044 -0.005253 0.004421
v -0.057419 0.017313 -0.004088
v -0.057286 0.014485 -0.012400
v -0.058984 0.010843 -0.004088
v -0.059821 0.004239 -0.004088
v -0.059971 0.000004 -0.004088
v -0.048640 -0.033544 -0.012400
v -0.044210 -0.039198 -0.012400
v -0.039127 -0.044272 -0.012400
v -0.027311 -0.052393 -0.012400
v -0.033466 -0.048693 -0.012400
v -0.052351 -0.027395 -0.012400
v -0.057254 0.009735 -0.022770
v -0.058016 0.002610 -0.022770
v -0.055620 0.016711 -0.022770
v -0.053139 0.023433 -0.022770
v -0.049849 0.029799 -0.022770
v -0.045801 0.035711 -0.022770
v -0.051470 -0.030775 -0.004088
v -0.057434 -0.017256 -0.004088
v -0.059123 -0.010049 -0.004088
v -0.059911 -0.002689 -0.004088
v -0.047286 -0.036882 -0.004088
v -0.042381 -0.042426 -0.004088
v -0.036831 -0.047324 -0.004088
v -0.030720 -0.051501 -0.004088
v -0.024141 -0.054894 -0.004088
v -0.017194 -0.057450 -0.004088
v -0.002623 -0.059910 -0.004088
v -0.009985 -0.059130 -0.004088
v -0.060044 -0.005253 0.004267
v -0.059356 -0.010470 0.004267
v -0.058217 -0.015607 0.004267
v -0.057723 -0.017343 0.004267
v -0.054870 -0.024200 -0.004088
v -0.054618 -0.025486 0.004267
v -0.056633 -0.020625 0.004267
v -0.052187 -0.030153 0.004267
v -0.049357 -0.034589 0.004267
v -0.047524 -0.037068 0.004267
v -0.046152 -0.038763 0.004267
v -0.034536 -0.049393 0.004267
v -0.037017 -0.047563 0.004267
v -0.038713 -0.046193 0.004267
v -0.042595 -0.042640 0.004267
v -0.030096 -0.052217 0.004267
v -0.025427 -0.054643 0.004267
v -0.020564 -0.056653 0.004267
v -0.017280 -0.057739 0.004267
v -0.015544 -0.058230 0.004267
v -0.005188 -0.060046 0.004267
v -0.010405 -0.059364 0.004267
v -0.060123 0.004260 0.041249
v -0.003221 0.057302 -0.025041
v -0.002509 0.056469 -0.026130
v -0.056464 0.002541 -0.026130
v -0.029577 0.049543 -0.024425
v -0.035452 0.045524 -0.024425
v -0.040788 0.040812 -0.024425
v -0.045502 0.035478 -0.024425
v -0.049524 0.029605 -0.024425
v -0.052793 0.023281 -0.024425
v -0.055257 0.016603 -0.024425
v -0.056881 0.009672 -0.024425
v -0.057638 0.002593 -0.024425
v -0.055722 0.009475 -0.026130
v -0.054131 0.016264 -0.026130
v -0.051717 0.022807 -0.026130
v -0.048515 0.029002 -0.026130
v -0.044575 0.034755 -0.026130
v -0.039956 0.039980 -0.026130
v -0.034730 0.044596 -0.026130
v -0.028974 0.048534 -0.026130
v -0.022777 0.051732 -0.026130
v -0.016234 0.054143 -0.026130
v -0.009443 0.055730 -0.026130
v 0.014000 0.084000 0.140000
v 0.014000 0.082907 0.150811
v 0.014000 0.079671 0.161184
v 0.014000 0.074424 0.170700
v 0.014000 0.068215 0.178152
v 0.014000 0.067378 0.178972
v 0.014000 0.058819 0.185667
v 0.014000 0.049093 0.190512
v 0.014000 0.038593 0.193312
v 0.014000 0.027746 0.193953
v 0.014000 0.021312 0.193296
v 0.014000 0.016990 0.192409
v 0.014000 0.006761 0.188744
v 0.014000 -0.008055 0.178312
v 0.014000 -0.010499 0.175719
v 0.014000 -0.004544 0.181505
v 0.014000 -0.002917 0.182807
v 0.014000 -0.002527 0.183104
v 0.014000 -0.016830 0.166888
v 0.014000 0.082978 0.129449
v 0.000530 -0.047945 -0.033500
v 0.000519 0.047953 -0.033500
v 0.009572 -0.046656 -0.033500
v 0.018206 -0.043678 -0.033500
v 0.026119 -0.039118 -0.033500
v 0.033026 -0.033142 -0.033500
v 0.038676 -0.025966 -0.033500
v 0.042864 -0.017850 -0.033500
v 0.045439 -0.009088 -0.033500
v 0.046308 0.000004 -0.033500
v 0.000290 -0.056779 0.072714
v 0.000513 -0.059006 0.059964
v 0.000522 -0.059764 0.053143
v 0.000522 -0.059909 0.051229
v 0.000507 -0.060357 0.042732
v 0.000506 -0.060367 0.042500
v 0.000511 -0.056616 -0.026129
v 0.000512 -0.057714 -0.024599
v 0.000513 -0.058169 -0.022770
v 0.000513 -0.060071 -0.004017
v 0.000513 -0.060368 0.004421
v 0.000499 0.057721 -0.024602
v 0.000498 0.056622 -0.026131
v 0.040198 -0.042574 0.068037
v 0.039060 -0.043711 0.067772
v 0.037210 -0.045538 0.066053
v 0.037608 -0.045133 0.066698
v 0.038034 -0.044715 0.067142
v 0.036972 -0.045885 0.064537
v 0.037041 -0.045727 0.065573
v 0.041423 -0.041318 0.067894
v 0.042323 -0.040384 0.067457
v 0.043183 -0.039508 0.066631
v 0.043856 -0.038899 0.065308
v 0.044020 -0.038815 0.064548
v 0.037485 -0.045595 0.063148
v 0.038397 -0.044916 0.062129
v 0.037011 -0.045877 0.064297
v 0.042408 -0.041118 0.061262
v 0.043556 -0.039705 0.062223
v 0.040848 -0.042754 0.061062
v 0.044000 -0.039011 0.063399
v 0.039600 -0.043910 0.061397
v 0.034524 -0.029613 0.128893
v 0.034929 -0.029831 0.127668
v 0.034746 -0.028672 0.130272
v 0.035126 -0.028038 0.130724
v 0.035612 -0.027363 0.131013
v 0.036707 -0.026049 0.131161
v 0.034577 -0.029055 0.129870
v 0.039301 -0.023539 0.129833
v 0.037375 -0.025329 0.131031
v 0.038464 -0.024259 0.130514
v 0.040099 -0.022988 0.128856
v 0.040720 -0.022770 0.127649
v 0.038405 -0.027606 0.124406
v 0.037782 -0.028205 0.124715
v 0.037163 -0.028722 0.125121
v 0.035702 -0.029626 0.126499
v 0.039570 -0.026240 0.124148
v 0.041048 -0.023290 0.125806
v 0.041028 -0.022992 0.126414
v 0.040365 -0.025033 0.124373
v 0.040783 -0.024199 0.124824
v 0.040906 -0.023883 0.125084
v 0.039987 -0.025646 0.124204
v 0.037487 -0.029024 0.123780
v 0.039112 -0.021894 0.133055
v 0.028557 -0.047923 0.093094
v 0.029050 -0.047621 0.093139
v 0.029968 -0.045014 0.100137
v 0.037256 -0.041176 0.093767
v 0.037384 -0.041048 0.093772
v 0.037640 -0.038781 0.100357
v 0.035082 -0.041194 0.100380
v 0.034586 -0.043617 0.093621
v 0.034978 -0.043282 0.093647
v 0.019663 -0.052246 0.092394
v 0.023959 -0.050384 0.092708
v 0.020505 -0.050447 0.097470
v 0.025105 -0.047764 0.099750
v 0.020750 -0.049774 0.099351
v 0.025950 -0.044220 0.108977
v 0.026377 -0.040452 0.118409
v 0.022077 -0.043041 0.117631
v 0.021857 -0.044887 0.112732
v 0.021621 -0.046348 0.108792
v 0.021089 -0.048675 0.102407
v 0.026474 -0.033244 0.135067
v 0.022397 -0.035966 0.135152
v 0.026510 -0.036709 0.127341
v 0.022339 -0.038913 0.128160
v 0.022239 -0.041014 0.122884
v 0.026356 -0.029031 0.143020
v 0.022432 -0.031922 0.143403
v 0.026392 -0.030295 0.140905
v 0.022407 -0.034706 0.137941
v 0.022402 -0.035396 0.136433
v 0.026298 -0.026806 0.145756
v 0.022534 -0.028942 0.147438
v 0.026325 -0.027876 0.144628
v 0.022457 -0.030760 0.145258
v 0.035121 -0.027743 0.131282
v 0.034914 -0.025160 0.136205
v 0.030817 -0.030709 0.133382
v 0.030935 -0.034072 0.126249
v 0.035320 -0.030893 0.124747
v 0.039594 -0.026505 0.123568
v 0.030546 -0.025674 0.142200
v 0.030669 -0.027905 0.138759
v 0.030909 -0.037749 0.117935
v 0.030625 -0.041483 0.109033
v 0.030496 -0.024709 0.143251
v 0.040102 -0.038058 0.093793
v 0.040136 -0.035981 0.100182
v 0.037740 -0.035652 0.108487
v 0.040111 -0.034603 0.104027
v 0.040055 -0.033104 0.107977
v 0.037020 -0.023602 0.134716
v 0.036819 -0.021731 0.137749
v 0.039632 -0.026929 0.122637
v 0.037669 -0.032314 0.116449
v 0.035433 -0.034358 0.117083
v 0.035380 -0.037879 0.108793
v 0.038930 -0.020489 0.135488
v 0.038859 -0.019974 0.136237
v 0.036730 -0.020946 0.138694
v 0.038713 -0.018961 0.137341
v 0.034738 -0.023155 0.139371
v 0.034663 -0.022306 0.140350
v 0.005844 -0.056315 -0.026130
v 0.006004 -0.057861 -0.022770
v 0.005720 0.057517 -0.024425
v 0.013417 0.056611 -0.022770
v 0.013330 0.056243 -0.024425
v 0.020838 0.054320 -0.022770
v 0.020702 0.053966 -0.024425
v 0.027887 0.051060 -0.022770
v 0.027706 0.050728 -0.024425
v 0.034439 0.046891 -0.022770
v 0.034215 0.046586 -0.024425
v 0.040378 0.041886 -0.022770
v 0.040115 0.041614 -0.024425
v 0.045596 0.036135 -0.022770
v 0.045300 0.035900 -0.024425
v 0.050003 0.029740 -0.022770
v 0.049678 0.029546 -0.024425
v 0.053518 0.022814 -0.022770
v 0.053170 0.022666 -0.024425
v 0.056079 0.015483 -0.022770
v 0.055715 0.015382 -0.024425
v 0.057642 0.007875 -0.022770
v 0.057267 0.007824 -0.024425
v 0.058176 0.000128 -0.022770
v 0.057798 0.000127 -0.024425
v 0.057675 -0.007622 -0.022770
v 0.057300 -0.007573 -0.024425
v 0.056145 -0.015236 -0.022770
v 0.055780 -0.015137 -0.024425
v 0.053615 -0.022579 -0.022770
v 0.053266 -0.022432 -0.024425
v 0.050129 -0.029519 -0.022770
v 0.049803 -0.029327 -0.024425
v 0.045750 -0.035933 -0.022770
v 0.045452 -0.035699 -0.024425
v 0.040555 -0.041706 -0.022770
v 0.040292 -0.041435 -0.024425
v 0.034638 -0.046736 -0.022770
v 0.034413 -0.046432 -0.024425
v 0.028104 -0.050933 -0.022770
v 0.027921 -0.050602 -0.024425
v 0.021069 -0.054223 -0.022770
v 0.020932 -0.053870 -0.024425
v 0.013658 -0.056546 -0.022770
v 0.013569 -0.056178 -0.024425
v 0.005965 -0.057484 -0.024425
v 0.013293 -0.055035 -0.026130
v 0.020506 -0.052774 -0.026130
v 0.027353 -0.049573 -0.026130
v 0.033713 -0.045488 -0.026130
v 0.039472 -0.040592 -0.026130
v 0.044528 -0.034973 -0.026130
v 0.048790 -0.028730 -0.026130
v 0.052182 -0.021976 -0.026130
v 0.054645 -0.014829 -0.026130
v 0.056134 -0.007419 -0.026130
v 0.056623 0.000124 -0.026130
v 0.056102 0.007665 -0.026130
v 0.054582 0.015069 -0.026130
v 0.052089 0.022205 -0.026130
v 0.048667 0.028945 -0.026130
v 0.044379 0.035170 -0.026130
v 0.039299 0.040767 -0.026130
v 0.033519 0.045638 -0.026130
v 0.027142 0.049696 -0.026130
v 0.020281 0.052869 -0.026130
v 0.013059 0.055099 -0.026130
v 0.005604 0.056347 -0.026130
v 0.022347 -0.029005 0.147519
v 0.022008 -0.034833 0.137999
v 0.022025 -0.032372 0.142918
v 0.022048 -0.030921 0.145306
v 0.021988 -0.037035 0.133009
v 0.021841 -0.041112 0.122930
v 0.021458 -0.044964 0.112780
v 0.020704 -0.048677 0.102613
v 0.020104 -0.050493 0.097540
v 0.019185 -0.052270 0.092497
v 0.021798 -0.030924 0.145311
v 0.015391 -0.055970 0.081500
v 0.015746 -0.055973 0.081231
v 0.017062 -0.055197 0.083759
v 0.012929 -0.056791 0.078345
v 0.013285 -0.056806 0.078002
v 0.014137 -0.056586 0.078955
v 0.018486 -0.053910 0.087617
v 0.018369 -0.053599 0.088721
v 0.017133 -0.054856 0.085029
v 0.010169 -0.057199 0.076053
v 0.011423 -0.057122 0.076358
v 0.010782 -0.057192 0.075901
v 0.003526 -0.057182 0.073268
v 0.007020 -0.057351 0.074249
v 0.006932 -0.057293 0.074471
v 0.001498 -0.056990 0.072696
v 0.036441 -0.046542 0.062073
v 0.036000 -0.046285 0.068446
v 0.040151 -0.042544 0.068652
v 0.031458 -0.049539 0.068144
v 0.031757 -0.049855 0.061908
v 0.026613 -0.052035 0.071127
v 0.031457 -0.049230 0.071623
v 0.035895 -0.045996 0.071980
v 0.039927 -0.042302 0.072224
v 0.027034 -0.051522 0.074899
v 0.031703 -0.048709 0.075392
v 0.035944 -0.045527 0.075774
v 0.039802 -0.041902 0.076036
v 0.041839 -0.042788 0.051059
v 0.037414 -0.046667 0.051495
v 0.005116 -0.059615 0.051265
v 0.004856 -0.059271 0.055714
v 0.041417 -0.020934 0.129061
v 0.043511 -0.018639 0.127048
v 0.043145 -0.016649 0.131202
v 0.049881 -0.007103 0.117793
v 0.050227 -0.003010 0.118389
v 0.050668 -0.003577 0.115336
v 0.051011 0.000226 0.112885
v 0.050568 0.000574 0.115712
v 0.050000 0.000835 0.117312
v 0.049676 -0.002581 0.120059
v 0.056589 -0.012036 0.062168
v 0.058131 -0.011881 0.051506
v 0.059000 -0.006012 0.051500
v 0.059293 -0.000094 0.051493
v 0.044592 -0.038456 0.062254
v 0.043876 -0.038318 0.068773
v 0.041796 -0.024087 0.122118
v 0.056693 0.017383 0.051480
v 0.058997 0.005815 0.051488
v 0.058125 0.011659 0.051484
v 0.054720 0.022934 0.051476
v 0.039886 -0.040475 0.084410
v 0.042785 -0.034462 0.093635
v 0.042971 -0.036575 0.084468
v 0.045254 -0.030437 0.093307
v 0.045748 -0.032233 0.084382
v 0.047465 -0.026047 0.092843
v 0.048185 -0.027520 0.084180
v 0.049375 -0.021360 0.092272
v 0.055211 -0.017773 0.062219
v 0.043280 -0.037790 0.076174
v 0.046362 -0.033240 0.076201
v 0.047157 -0.033662 0.068823
v 0.049028 -0.028324 0.076140
v 0.049976 -0.028644 0.068814
v 0.052319 -0.023334 0.068761
v 0.056702 -0.017643 0.051513
v 0.047982 -0.033755 0.062285
v 0.050892 -0.028697 0.062284
v 0.053306 -0.023348 0.062260
v 0.054732 -0.023239 0.051518
v 0.049447 -0.006281 0.121069
v 0.048926 -0.005671 0.122806
v 0.050868 0.004298 0.110470
v 0.047805 -0.008458 0.125521
v 0.045466 -0.016119 0.124884
v 0.047219 -0.013363 0.122598
v 0.045077 -0.014424 0.128819
v 0.046812 -0.011968 0.126315
v 0.044882 -0.013774 0.130000
v 0.046598 -0.011430 0.127449
v 0.044681 -0.013209 0.130728
v 0.046371 -0.010963 0.128172
v 0.042969 -0.015887 0.132430
v 0.042794 -0.015222 0.133161
v 0.048289 -0.009261 0.123721
v 0.048711 -0.010361 0.120224
v 0.047635 -0.015271 0.116778
v 0.045876 -0.018462 0.118691
v 0.043910 -0.021403 0.120482
v 0.048103 -0.017457 0.109339
v 0.046332 -0.021165 0.110789
v 0.044338 -0.024605 0.112119
v 0.042179 -0.027746 0.113295
v 0.050428 0.004468 0.113069
v 0.049843 0.008586 0.110486
v 0.049288 0.012894 0.105838
v 0.055194 0.016850 0.061959
v 0.053280 0.022265 0.061923
v 0.060373 -0.000030 0.042500
v 0.042523 -0.031382 0.103498
v 0.050276 0.008554 0.108114
v 0.048669 -0.019595 0.100948
v 0.046854 -0.023828 0.101925
v 0.044788 -0.027773 0.102786
v 0.056338 0.021709 0.042500
v 0.054108 0.026788 0.042500
v 0.048301 0.036227 0.042500
v 0.049914 0.033970 0.042500
v 0.051422 0.031641 0.042500
v 0.058787 0.013761 0.042500
v 0.059357 0.011046 0.042500
v 0.059801 0.008308 0.042500
v 0.060120 0.005552 0.042500
v 0.060312 0.002764 0.042500
v 0.058093 0.016447 0.042500
v 0.048301 0.036227 0.004421
v 0.044773 0.040507 0.004421
v 0.051422 0.031641 0.004421
v 0.054108 0.026788 0.004421
v 0.056338 0.021709 0.004421
v 0.058093 0.016447 0.004421
v 0.060120 0.005552 0.004421
v 0.059357 0.011046 0.004421
v 0.060121 -0.005530 0.004421
v 0.060374 -0.000395 0.004421
v 0.060375 0.000004 0.004421
v 0.060374 0.000409 0.004421
v 0.048310 -0.036208 0.042500
v 0.048310 -0.036208 0.004421
v 0.049922 -0.033950 0.042500
v 0.051429 -0.031621 0.004421
v 0.060121 -0.005530 0.042500
v 0.059803 -0.008286 0.042500
v 0.059359 -0.011024 0.004421
v 0.059359 -0.011024 0.042500
v 0.058097 -0.016426 0.004421
v 0.058097 -0.016426 0.042500
v 0.056344 -0.021688 0.004421
v 0.056344 -0.021688 0.042500
v 0.054115 -0.026768 0.004421
v 0.054115 -0.026768 0.042500
v 0.051429 -0.031621 0.042500
v 0.040877 -0.044428 0.042500
v 0.040877 -0.044428 0.004421
v 0.041887 -0.043477 0.042500
v 0.044782 -0.040489 0.004421
v 0.042875 -0.042503 0.042500
v 0.043840 -0.041507 0.042500
v 0.046595 -0.038389 0.042500
v 0.045701 -0.039449 0.042500
v 0.044782 -0.040489 0.042500
v 0.039846 -0.045355 0.042500
v 0.038793 -0.046258 0.042500
v 0.036627 -0.047992 0.004421
v 0.036627 -0.047992 0.042500
v 0.034383 -0.049623 0.042500
v 0.032067 -0.051150 0.004421
v 0.032067 -0.051150 0.042500
v 0.027237 -0.053877 0.004421
v 0.027237 -0.053877 0.042500
v 0.022177 -0.056150 0.004421
v 0.022177 -0.056150 0.042500
v 0.016929 -0.057948 0.004421
v 0.016929 -0.057948 0.042500
v 0.011539 -0.059257 0.004421
v 0.001900 -0.060340 0.042500
v 0.006052 -0.060066 0.004421
v 0.004670 -0.060189 0.042500
v 0.003286 -0.060280 0.042500
v 0.002593 -0.060314 0.042500
v 0.011539 -0.059257 0.042500
v 0.008805 -0.059724 0.042500
v 0.006052 -0.060066 0.042500
v 0.060078 0.000004 -0.004017
v 0.036435 0.047772 -0.004017
v 0.040665 0.044226 -0.004017
v 0.044553 0.040308 -0.004017
v 0.048064 0.036049 -0.004017
v 0.051169 0.031486 -0.004017
v 0.053842 0.026657 -0.004017
v 0.056061 0.021603 -0.004017
v 0.057807 0.016366 -0.004017
v 0.059065 0.010992 -0.004017
v 0.059824 0.005525 -0.004017
v 0.060077 0.000407 -0.004017
v 0.058938 0.005443 -0.012414
v 0.058190 0.010829 -0.012414
v 0.055231 0.021283 -0.012414
v 0.053045 0.026262 -0.012414
v 0.043893 0.039711 -0.012414
v 0.016597 -0.056809 -0.012414
v 0.011312 -0.058092 -0.012414
v 0.031437 -0.050145 -0.012414
v 0.026702 -0.052818 -0.012414
v 0.043902 -0.039693 -0.012414
v 0.053051 -0.026241 -0.012414
v 0.055236 -0.021262 -0.012414
v 0.058192 -0.010808 -0.012414
v 0.058939 -0.005421 -0.012414
v 0.027108 -0.050202 0.086525
v 0.030547 -0.047789 0.088283
v 0.029463 -0.049265 0.083550
v 0.033018 -0.046801 0.083883
v 0.033730 -0.045454 0.088581
v 0.036537 -0.043878 0.084198
v 0.024240 -0.052667 0.078920
v 0.026124 -0.051231 0.083397
v 0.024515 -0.052488 0.079482
v 0.028178 -0.050538 0.079085
v 0.032277 -0.047894 0.079483
v 0.036180 -0.044827 0.079845
v 0.022741 -0.052122 0.087884
v 0.019056 -0.054876 0.079820
v 0.021144 -0.053620 0.083555
v 0.021423 -0.053949 0.079295
v 0.023504 -0.052571 0.083412
v 0.009562 0.046666 -0.033500
v 0.018198 0.043689 -0.033500
v 0.026114 0.039130 -0.033500
v 0.033022 0.033154 -0.033500
v 0.038673 0.025978 -0.033500
v 0.042863 0.017861 -0.033500
v 0.045439 0.009097 -0.033500
v 0.006022 -0.059770 -0.004017
v 0.011482 -0.058965 -0.004017
v 0.016846 -0.057663 -0.004017
v 0.022068 -0.055873 -0.004017
v 0.027103 -0.053612 -0.004017
v 0.031909 -0.050899 -0.004017
v 0.036446 -0.047755 -0.004017
v 0.040676 -0.044209 -0.004017
v 0.044562 -0.040289 -0.004017
v 0.048072 -0.036029 -0.004017
v 0.051176 -0.031466 -0.004017
v 0.053849 -0.026636 -0.004017
v 0.056066 -0.021581 -0.004017
v 0.057811 -0.016345 -0.004017
v 0.059067 -0.010970 -0.004017
v 0.059825 -0.005503 -0.004017
v 0.060077 -0.000393 -0.004017
v -0.038500 0.084918 0.137000
v -0.036500 0.084918 0.137000
v -0.038500 0.084918 0.143000
v -0.036500 0.084918 0.143000
v -0.055000 0.044278 0.184779
v -0.055000 0.051567 0.181760
v -0.051029 0.051051 0.189631
v -0.051266 0.051710 0.189190
v -0.051075 0.049995 0.190037
v -0.050991 0.050632 0.189831
v -0.054740 0.052840 0.183378
v -0.054893 0.052472 0.182756
v -0.051531 0.052112 0.188819
v -0.051890 0.052501 0.188352
v -0.052730 0.053087 0.187244
v -0.053360 0.053321 0.186312
v -0.053940 0.053362 0.185312
v -0.054560 0.053074 0.183926
v -0.052673 0.047279 0.189704
v -0.054028 0.045410 0.188429
v -0.053734 0.045780 0.188832
v -0.053365 0.046251 0.189234
v -0.052340 0.047615 0.189941
v -0.051755 0.048497 0.190130
v -0.051271 0.049419 0.190135
v -0.054971 0.044268 0.185492
v -0.054893 0.044344 0.186126
v -0.054559 0.044745 0.187378
v -0.055000 0.008433 0.181760
v -0.055000 0.015722 0.184779
v -0.051029 0.009791 0.189980
v -0.051266 0.010569 0.190133
v -0.051075 0.008757 0.189520
v -0.050991 0.009354 0.189825
v -0.054740 0.015477 0.186823
v -0.054893 0.015657 0.186123
v -0.051531 0.011116 0.190156
v -0.051890 0.011720 0.190101
v -0.052730 0.012919 0.189731
v -0.053360 0.013743 0.189238
v -0.053940 0.014479 0.188560
v -0.054560 0.015255 0.187376
v -0.052673 0.007072 0.187364
v -0.054028 0.006652 0.185141
v -0.053734 0.006629 0.185688
v -0.053365 0.006678 0.186305
v -0.052340 0.007142 0.187769
v -0.051755 0.007632 0.188527
v -0.051271 0.008281 0.189182
v -0.054971 0.007922 0.182256
v -0.054893 0.007526 0.182759
v -0.054559 0.006925 0.183928
v -0.044000 0.013004 0.192308
v -0.044000 0.010743 0.191519
v -0.044000 0.014567 0.192790
v -0.044000 0.020659 0.194201
v -0.044000 0.030000 0.195000
v -0.044000 0.026873 0.194911
v -0.044000 0.021396 0.194323
v -0.044000 0.046996 0.192308
v -0.044000 0.045433 0.192790
v -0.044000 0.039341 0.194201
v -0.044000 0.038604 0.194323
v -0.044000 0.033127 0.194911
v -0.044000 0.049257 0.191519
v -0.034500 -0.016733 0.169000
v -0.044000 -0.016733 0.169000
v -0.044000 -0.002328 0.184496
v -0.044000 -0.005618 0.181909
v -0.044000 0.003318 0.188094
v -0.044000 0.005031 0.189005
v -0.044000 0.007187 0.190046
v -0.044000 -0.008891 0.178891
v -0.044000 -0.001303 0.185223
v -0.034500 0.076726 0.169012
v -0.044000 0.076726 0.169012
v -0.044000 0.054969 0.189005
v -0.044000 0.052813 0.190046
v -0.044000 0.056534 0.188176
v -0.044000 0.062328 0.184496
v -0.044000 0.066325 0.181298
v -0.044000 0.068891 0.178891
v -0.044000 0.070602 0.177101
v -0.044000 0.074496 0.172328
v -0.044000 0.074397 0.172464
v -0.044000 0.061617 0.185004
v -0.034500 0.052813 0.190046
v -0.034500 0.049257 0.191519
v -0.034500 0.010743 0.191519
v -0.034500 0.007187 0.190046
v -0.034500 0.084830 0.135685
v -0.034500 0.085000 0.140000
v -0.034500 0.084830 0.144315
v -0.034500 0.084323 0.148604
v -0.034500 0.083480 0.152839
v -0.034500 0.082308 0.156996
v -0.034500 0.080813 0.161048
v -0.034500 0.079005 0.164969
v -0.054825 -0.018653 0.141019
v -0.054825 -0.018213 0.146604
v -0.054825 -0.017134 0.152102
v -0.054825 -0.015431 0.157439
v -0.055000 -0.013878 0.156843
v -0.054825 -0.013126 0.162546
v -0.055000 -0.011652 0.161775
v -0.054825 -0.010248 0.167353
v -0.055000 -0.008873 0.166418
v -0.054825 -0.006838 0.171798
v -0.055000 -0.005579 0.170711
v -0.054825 -0.004410 0.174410
v -0.055000 -0.003234 0.173234
v -0.048663 -0.008767 0.178767
v -0.048663 -0.011502 0.175824
v -0.047000 -0.008891 0.178891
v -0.047000 -0.011635 0.175938
v -0.047000 -0.014496 0.172328
v -0.048663 -0.015345 0.170816
v -0.047000 -0.015489 0.170915
v -0.048663 -0.018586 0.165400
v -0.047000 -0.018741 0.165481
v -0.047000 -0.019005 0.164969
v -0.048663 -0.021184 0.159648
v -0.047000 -0.021347 0.159710
v -0.048663 -0.023103 0.153634
v -0.047000 -0.022308 0.156996
v -0.054031 -0.020806 0.141064
v -0.054031 -0.020347 0.146897
v -0.054031 -0.019221 0.152638
v -0.054031 -0.017442 0.158211
v -0.054031 -0.015034 0.163543
v -0.054031 -0.012030 0.168564
v -0.054031 -0.008468 0.173205
v -0.054031 -0.005933 0.175933
v -0.052657 -0.022645 0.141103
v -0.052657 -0.022170 0.147146
v -0.052657 -0.021003 0.153095
v -0.052657 -0.019159 0.158871
v -0.052657 -0.016665 0.164396
v -0.052657 -0.013551 0.169598
v -0.052657 -0.009861 0.174407
v -0.052657 -0.007234 0.177234
v -0.050817 -0.023531 0.147333
v -0.050817 -0.022333 0.153437
v -0.050817 -0.020442 0.159363
v -0.050817 -0.017882 0.165032
v -0.050817 -0.014688 0.170370
v -0.050817 -0.010901 0.175305
v -0.050817 -0.008205 0.178205
v -0.055000 0.054767 0.179945
v -0.055000 0.076565 0.133621
v -0.055000 0.018312 0.185523
v -0.055000 0.023621 0.186565
v -0.055000 0.039772 0.185973
v -0.055000 0.059194 0.176834
v -0.055000 0.063234 0.173234
v -0.055000 0.072527 0.160012
v -0.055000 0.066834 0.169194
v -0.055000 0.069945 0.164767
v -0.055000 0.074545 0.154991
v -0.055000 0.075973 0.149772
v -0.055000 0.076791 0.144423
v -0.055000 0.076990 0.139016
v -0.055000 -0.000711 0.175579
v -0.055000 0.003582 0.178873
v -0.055000 0.029016 0.186990
v -0.055000 0.034423 0.186791
v -0.044000 -0.011634 0.175939
v -0.044000 -0.014529 0.172282
v -0.047000 0.022536 0.194491
v -0.047000 0.021396 0.194323
v -0.047000 0.062328 0.184496
v -0.047000 0.064163 0.183103
v -0.047000 0.068891 0.178891
v -0.047000 0.053418 0.189765
v -0.047000 0.054969 0.189005
v -0.047000 0.058983 0.186744
v -0.047000 0.047543 0.192127
v -0.047000 0.046996 0.192308
v -0.047000 0.041435 0.193798
v -0.047000 0.038604 0.194323
v -0.047000 0.035176 0.194756
v -0.047000 0.030000 0.195000
v -0.047000 0.028848 0.194988
v -0.047000 0.010290 0.191347
v -0.047000 0.013004 0.192308
v -0.047000 0.016322 0.193272
v -0.047000 0.005031 0.189005
v -0.047000 0.004519 0.188741
v -0.047000 -0.000915 0.185489
v -0.047000 -0.005938 0.181635
v -0.047000 -0.002328 0.184496
v -0.047000 0.084988 0.138848
v -0.047000 0.085000 0.140000
v -0.047000 0.084756 0.145176
v -0.047000 0.084323 0.148604
v -0.047000 0.084491 0.132536
v -0.047000 0.083798 0.151435
v -0.047000 0.073103 0.174163
v -0.047000 0.074496 0.172328
v -0.047000 0.076744 0.168983
v -0.047000 0.079005 0.164969
v -0.047000 0.079765 0.163418
v -0.047000 0.082127 0.157543
v -0.047000 0.082308 0.156996
v -0.054825 0.055643 0.181359
v -0.054031 0.056778 0.183189
v -0.052657 0.057748 0.184753
v -0.052657 0.046795 0.189907
v -0.054825 0.017898 0.187134
v -0.054031 0.017362 0.189221
v -0.052657 0.016905 0.191003
v -0.054825 0.002647 0.180248
v -0.054031 0.001436 0.182030
v -0.054825 -0.001798 0.176838
v -0.054031 -0.003205 0.178468
v -0.052657 -0.004407 0.179861
v -0.050817 -0.005305 0.180901
v -0.054031 0.006457 0.185034
v -0.052657 0.005604 0.186665
v -0.050817 0.010637 0.190442
v -0.050817 0.004968 0.187882
v -0.050817 0.016563 0.192333
v -0.054825 0.040118 0.187600
v -0.054825 0.023396 0.188213
v -0.054825 0.028981 0.188653
v -0.054825 0.034580 0.188447
v -0.052657 0.040948 0.191506
v -0.050817 0.053005 0.188888
v -0.050817 0.047234 0.191208
v -0.054825 0.060227 0.178137
v -0.054825 0.064410 0.174410
v -0.054825 0.068137 0.170227
v -0.054825 0.071359 0.165643
v -0.054825 0.074032 0.160720
v -0.054825 0.076122 0.155522
v -0.054825 0.077600 0.150118
v -0.054825 0.078447 0.144580
v -0.054825 0.078653 0.138981
v -0.054825 0.078213 0.133396
v -0.054825 0.077134 0.127898
v -0.054825 0.075431 0.122561
v -0.048663 0.084813 0.138852
v -0.048663 0.084318 0.132559
v -0.048663 0.083103 0.126366
v -0.048663 0.084582 0.145160
v -0.048663 0.083627 0.151399
v -0.048663 0.081962 0.157487
v -0.048663 0.079607 0.163343
v -0.048663 0.064055 0.182966
v -0.048663 0.068767 0.178767
v -0.048663 0.072966 0.174055
v -0.048663 0.076596 0.168890
v -0.048663 0.058890 0.186596
v -0.048663 0.053343 0.189607
v -0.048663 0.047487 0.191962
v -0.048663 0.041399 0.193627
v -0.048663 0.022559 0.194318
v -0.048663 0.028852 0.194813
v -0.048663 0.035160 0.194582
v -0.048663 0.016366 0.193103
v -0.048663 0.010352 0.191184
v -0.048663 0.004600 0.188586
v -0.048663 -0.000816 0.185345
v -0.048663 -0.005824 0.181502
v -0.054031 0.061565 0.179825
v -0.054031 0.065933 0.175933
v -0.054031 0.069825 0.171565
v -0.054031 0.073189 0.166778
v -0.054031 0.075981 0.161637
v -0.054031 0.078163 0.156209
v -0.054031 0.079707 0.150566
v -0.054031 0.080592 0.144782
v -0.054031 0.080806 0.138936
v -0.054031 0.080347 0.133103
v -0.054031 0.079221 0.127362
v -0.054031 0.077442 0.121789
v -0.054031 0.023103 0.190347
v -0.054031 0.028936 0.190806
v -0.054031 0.034782 0.190592
v -0.054031 0.040566 0.189707
v -0.052657 0.062708 0.181267
v -0.052657 0.067234 0.177234
v -0.052657 0.071267 0.172708
v -0.052657 0.074753 0.167748
v -0.052657 0.077645 0.162420
v -0.052657 0.079907 0.156795
v -0.052657 0.081506 0.150948
v -0.052657 0.082423 0.144955
v -0.052657 0.082645 0.138897
v -0.052657 0.082170 0.132854
v -0.052657 0.081003 0.126905
v -0.052657 0.079159 0.121129
v -0.052657 0.022854 0.192170
v -0.052657 0.028897 0.192645
v -0.052657 0.034955 0.192423
v -0.050817 0.058472 0.185920
v -0.050817 0.063561 0.182343
v -0.050817 0.068205 0.178205
v -0.050817 0.072343 0.173561
v -0.050817 0.075920 0.168472
v -0.050817 0.078888 0.163005
v -0.050817 0.081208 0.157234
v -0.050817 0.082850 0.151234
v -0.050817 0.083791 0.145085
v -0.050817 0.084019 0.138868
v -0.050817 0.083531 0.132667
v -0.050817 0.082333 0.126563
v -0.050817 0.022667 0.193531
v -0.050817 0.028868 0.194019
v -0.050817 0.035085 0.193791
v -0.050817 0.041234 0.192850
v -0.052657 0.000402 0.183551
v -0.050817 -0.000370 0.184688
f 320 104 864
f 831 310 830
f 774 775 864
f 112 104 320
f 304 303 871
f 856 305 304
f 201 931 929
f 930 931 201
f 830 310 837
f 310 309 837
f 195 201 196
f 1015 1016 1078
f 969 864 104
f 104 1016 969
f 969 774 864
f 969 1016 1015
f 460 458 320
f 320 458 456
f 456 112 320
f 665 576 575
f 871 303 870
f 303 869 870
f 869 976 870
f 867 967 968
f 848 304 871
f 871 973 848
f 308 860 861
f 307 860 308
f 308 572 307
f 875 876 197
f 197 195 196
f 803 195 802
f 311 832 829
f 829 312 311
f 310 831 311
f 831 832 311
f 529 839 521
f 529 319 839
f 315 846 940
f 839 319 315
f 875 902 877
f 877 902 903
f 313 312 862
f 48 58 47
f 1012 1046 1047
f 1061 1046 1045
f 1045 1046 1010
f 968 967 1018
f 1018 966 1015
f 967 966 1018
f 1080 141 122
f 1062 1046 1061
f 582 645 644
f 644 643 582
f 650 649 710
f 462 709 710
f 460 709 462
f 871 870 975
f 975 870 976
f 1019 1075 1020
f 1019 1076 1075
f 968 1018 1019
f 967 867 866
f 629 634 630
f 303 304 629
f 909 900 908
f 1011 1046 1012
f 1010 1046 1011
f 196 201 277
f 945 854 946
f 1075 1059 1058
f 1058 1074 1075
f 304 848 858
f 1074 1058 1073
f 627 305 306
f 607 309 310
f 853 859 307
f 853 307 306
f 945 944 853
f 853 944 859
f 306 854 853
f 853 854 945
f 852 860 307
f 1029 951 1028
f 952 951 1029
f 930 201 928
f 1053 801 996
f 996 801 800
f 979 978 791
f 530 898 533
f 896 898 530
f 494 759 758
f 727 490 761
f 761 490 762
f 874 873 900
f 875 197 874
f 846 315 314
f 839 315 941
f 941 315 940
f 422 315 522
f 522 529 521
f 319 529 522
f 522 315 319
f 521 839 840
f 840 893 521
f 521 893 894
f 100 87 897
f 878 197 876
f 878 876 875
f 875 877 878
f 847 843 962
f 1034 1035 960
f 313 862 863
f 863 843 313
f 956 831 830
f 251 34 252
f 27 34 251
f 44 29 45
f 267 249 266
f 299 298 121
f 272 251 252
f 271 251 272
f 915 908 77
f 9 50 11
f 873 874 199
f 257 256 245
f 194 258 192
f 478 479 477
f 477 476 478
f 479 506 477
f 658 657 772
f 665 657 658
f 767 768 664
f 480 479 478
f 68 298 299
f 299 69 68
f 505 506 479
f 965 969 1015
f 1015 966 965
f 774 969 965
f 775 774 965
f 1061 1045 1060
f 1060 1059 1075
f 1075 1076 1060
f 1076 1019 1077
f 1077 1019 1018
f 1015 1078 1077
f 1077 1018 1015
f 1061 1060 1077
f 1077 1060 1076
f 1077 1062 1061
f 1078 1062 1077
f 141 1080 142
f 158 157 142
f 105 1016 104
f 104 118 105
f 109 118 104
f 117 118 109
f 300 69 299
f 158 142 1017
f 1017 142 1080
f 1016 105 1017
f 1017 105 118
f 1063 1080 1064
f 1063 1062 1078
f 1063 1047 1046
f 1046 1062 1063
f 1079 1078 1016
f 1016 1017 1079
f 1079 1017 1080
f 1079 1063 1078
f 1080 1063 1079
f 708 460 320
f 320 709 708
f 708 709 460
f 632 576 665
f 632 647 576
f 665 658 632
f 632 658 659
f 575 566 574
f 718 717 660
f 660 632 659
f 647 632 660
f 472 470 720
f 756 508 330
f 507 506 330
f 330 508 507
f 475 477 507
f 507 477 506
f 470 472 471
f 649 651 712
f 712 651 652
f 864 775 865
f 775 965 865
f 1021 976 1020
f 1021 975 976
f 1020 1075 1021
f 1075 1074 1021
f 1074 1073 1021
f 977 976 869
f 869 868 977
f 1020 976 977
f 977 1019 1020
f 970 867 968
f 970 868 867
f 970 977 868
f 968 1019 970
f 1019 977 970
f 776 966 967
f 967 866 776
f 655 660 717
f 647 660 655
f 302 869 303
f 302 868 869
f 302 866 867
f 867 868 302
f 313 448 617
f 617 312 313
f 202 908 208
f 935 277 934
f 1012 923 935
f 935 1011 1012
f 935 934 1010
f 1010 1011 935
f 1008 1009 933
f 1010 934 933
f 933 1009 1010
f 934 277 933
f 855 854 306
f 855 946 854
f 306 305 855
f 855 305 856
f 856 946 855
f 849 848 973
f 972 849 973
f 1026 944 1022
f 1022 944 945
f 1069 1027 1026
f 1026 1022 1069
f 1069 1022 1070
f 628 304 305
f 305 627 628
f 628 627 634
f 628 629 304
f 634 629 628
f 306 307 571
f 571 627 306
f 307 572 571
f 606 582 634
f 634 627 606
f 310 311 615
f 615 607 310
f 615 311 312
f 309 607 605
f 605 308 309
f 572 308 605
f 604 605 607
f 860 947 851
f 850 947 860
f 860 852 850
f 949 944 1026
f 859 944 949
f 307 859 949
f 949 852 307
f 834 951 952
f 834 952 309
f 834 308 861
f 309 308 834
f 309 952 835
f 835 836 309
f 954 837 309
f 309 836 954
f 1084 1029 1028
f 1028 1002 1084
f 535 530 533
f 748 695 693
f 693 739 748
f 488 490 491
f 491 489 488
f 497 498 495
f 323 498 497
f 492 727 761
f 490 727 492
f 492 491 490
f 492 494 495
f 759 694 696
f 758 759 696
f 696 698 758
f 726 490 488
f 488 762 726
f 726 762 490
f 761 762 690
f 764 679 677
f 765 679 764
f 677 687 764
f 38 253 254
f 275 254 253
f 705 698 704
f 697 535 704
f 2 170 335
f 700 698 705
f 758 698 700
f 901 874 900
f 901 900 909
f 901 902 875
f 875 874 901
f 198 874 197
f 886 919 890
f 885 921 886
f 940 846 887
f 887 888 940
f 1037 885 887
f 886 888 887
f 887 885 886
f 892 894 893
f 893 890 892
f 886 921 920
f 920 919 886
f 903 902 910
f 910 911 903
f 910 901 909
f 902 901 910
f 895 898 896
f 895 897 898
f 896 894 895
f 894 892 895
f 100 897 916
f 915 80 916
f 916 895 917
f 897 895 916
f 909 908 916
f 916 908 915
f 916 910 909
f 917 910 916
f 195 197 85
f 904 911 912
f 903 911 904
f 904 877 903
f 914 920 921
f 960 1035 961
f 961 962 843
f 1035 994 1036
f 1036 961 1035
f 962 961 1036
f 964 1036 1037
f 962 1036 964
f 964 841 847
f 847 962 964
f 1035 1034 807
f 1034 993 807
f 959 312 829
f 957 1034 960
f 957 863 862
f 830 837 955
f 955 956 830
f 837 954 955
f 1031 956 955
f 942 832 831
f 831 956 942
f 1051 1067 1052
f 1066 1081 1082
f 1082 1067 1066
f 38 254 36
f 34 33 36
f 252 34 36
f 36 254 252
f 250 251 271
f 266 249 250
f 42 43 55
f 48 47 16
f 46 47 58
f 265 248 269
f 215 267 266
f 133 138 137
f 1048 1063 1064
f 1047 1063 1048
f 1012 1047 1048
f 273 272 252
f 273 175 173
f 266 250 270
f 270 250 271
f 213 172 167
f 173 172 212
f 212 273 173
f 272 273 212
f 172 213 212
f 271 272 212
f 212 213 271
f 167 172 169
f 205 204 169
f 169 172 173
f 915 74 71
f 178 203 179
f 179 203 202
f 179 216 267
f 179 181 216
f 216 181 217
f 217 181 182
f 217 265 269
f 72 908 202
f 59 58 48
f 193 194 873
f 873 199 193
f 193 199 194
f 194 199 224
f 199 198 224
f 258 257 244
f 244 257 245
f 262 260 243
f 191 192 190
f 191 872 873
f 873 194 191
f 194 192 191
f 729 480 768
f 480 729 482
f 482 729 768
f 768 767 482
f 480 482 483
f 768 480 769
f 478 770 769
f 670 574 599
f 771 476 772
f 771 770 478
f 298 68 67
f 155 157 158
f 158 1017 155
f 150 148 160
f 107 160 153
f 117 153 156
f 156 118 117
f 122 141 139
f 137 1064 139
f 1064 1080 139
f 139 1080 122
f 144 157 148
f 144 142 157
f 146 148 150
f 146 144 148
f 145 144 146
f 127 126 298
f 108 109 455
f 455 453 108
f 108 453 111
f 108 107 109
f 104 112 110
f 110 109 104
f 112 456 110
f 456 454 110
f 110 454 455
f 455 109 110
f 342 453 518
f 518 453 455
f 113 300 299
f 299 121 159
f 159 121 298
f 573 574 566
f 599 602 603
f 592 602 599
f 592 573 566
f 599 574 592
f 574 573 592
f 521 894 520
f 520 894 896
f 772 476 732
f 773 658 772
f 474 717 718
f 474 773 772
f 772 732 474
f 474 477 475
f 476 477 474
f 474 732 476
f 509 756 755
f 755 510 509
f 508 756 509
f 510 471 509
f 509 471 508
f 508 471 473
f 473 471 472
f 475 507 473
f 473 507 508
f 473 474 475
f 472 474 473
f 710 649 711
f 649 712 711
f 721 470 468
f 713 712 652
f 975 1021 974
f 974 973 871
f 871 975 974
f 1025 1021 1073
f 973 974 1025
f 1025 974 1021
f 1025 972 973
f 1024 972 1025
f 1025 1072 1024
f 1073 1072 1025
f 866 865 777
f 777 776 866
f 714 470 721
f 714 715 470
f 721 468 714
f 468 713 714
f 654 715 714
f 714 713 652
f 720 470 716
f 470 715 716
f 716 472 720
f 717 472 716
f 580 582 643
f 630 634 580
f 634 582 580
f 583 638 639
f 639 302 583
f 583 302 303
f 583 580 638
f 649 650 301
f 301 650 710
f 320 864 301
f 866 302 301
f 301 709 320
f 710 709 301
f 864 865 301
f 301 865 866
f 318 447 448
f 318 448 313
f 847 841 318
f 313 843 318
f 318 843 847
f 312 617 614
f 614 615 312
f 101 87 100
f 101 100 205
f 86 897 90
f 90 897 87
f 87 101 90
f 90 101 88
f 202 208 183
f 183 208 908
f 1008 933 932
f 932 929 1007
f 1007 1008 932
f 932 933 277
f 932 201 929
f 932 277 201
f 1059 1060 1043
f 1043 1009 1008
f 1043 1008 1007
f 1007 1042 1043
f 1043 1058 1059
f 1043 1042 1058
f 971 972 1024
f 971 946 856
f 858 972 971
f 856 304 971
f 304 858 971
f 857 858 848
f 857 972 858
f 1027 1069 1001
f 1058 1042 1041
f 1041 1042 1007
f 1003 978 979
f 1057 1072 1073
f 1057 1041 1040
f 1057 1073 1058
f 1058 1041 1057
f 645 582 581
f 582 606 581
f 576 647 581
f 627 571 570
f 570 606 627
f 570 571 572
f 838 851 947
f 947 850 948
f 948 850 852
f 852 949 948
f 948 1027 947
f 1026 1027 948
f 948 949 1026
f 833 834 861
f 951 834 833
f 953 954 836
f 953 835 952
f 836 835 953
f 952 1029 953
f 1068 1084 1000
f 1068 1052 1067
f 1068 1067 1082
f 1000 1053 1068
f 1053 1052 1068
f 1029 1084 1032
f 1031 955 1032
f 1032 955 954
f 1032 953 1029
f 954 953 1032
f 801 1053 793
f 1053 794 793
f 793 791 801
f 789 980 979
f 1000 1084 796
f 796 1084 1002
f 784 785 800
f 784 800 801
f 801 791 784
f 784 791 978
f 978 785 784
f 534 535 533
f 534 561 705
f 705 704 534
f 534 704 535
f 740 742 735
f 530 535 531
f 697 695 531
f 531 535 697
f 499 491 498
f 451 497 495
f 323 497 451
f 337 451 338
f 725 494 758
f 758 452 725
f 725 452 494
f 759 494 724
f 724 492 759
f 494 492 724
f 760 492 761
f 759 492 760
f 761 694 760
f 760 694 759
f 495 498 493
f 493 492 495
f 498 491 493
f 491 492 493
f 761 690 692
f 692 694 761
f 763 762 488
f 763 764 687
f 488 764 763
f 687 690 763
f 763 690 762
f 98 897 86
f 86 90 98
f 98 90 92
f 209 171 210
f 210 275 209
f 276 275 210
f 254 275 276
f 210 171 176
f 176 175 210
f 171 170 176
f 171 209 336
f 336 170 171
f 336 335 170
f 705 561 706
f 706 700 705
f 341 700 702
f 340 700 341
f 341 336 209
f 341 253 340
f 341 209 275
f 341 275 253
f 758 700 757
f 757 700 340
f 757 452 758
f 83 199 874
f 874 198 83
f 83 198 199
f 420 314 315
f 421 420 422
f 421 419 314
f 314 420 421
f 889 888 886
f 886 890 889
f 889 941 940
f 940 888 889
f 918 890 919
f 918 892 890
f 917 895 918
f 918 895 892
f 918 910 917
f 911 910 918
f 918 919 912
f 912 911 918
f 100 916 99
f 99 916 80
f 205 100 99
f 99 204 205
f 80 204 99
f 197 878 84
f 84 85 197
f 195 85 936
f 936 883 987
f 988 987 906
f 987 883 906
f 913 904 912
f 905 904 913
f 920 914 913
f 913 906 905
f 914 906 913
f 912 919 913
f 919 920 913
f 881 904 905
f 905 906 881
f 881 906 883
f 823 803 802
f 802 195 823
f 823 985 824
f 843 863 844
f 844 961 843
f 960 961 844
f 841 964 842
f 842 314 316
f 846 314 842
f 995 993 1034
f 1081 1066 995
f 806 994 1035
f 1035 807 806
f 845 957 960
f 863 957 845
f 1034 957 958
f 1030 956 1031
f 1030 942 956
f 1030 1031 1082
f 1082 1081 1030
f 1081 995 1030
f 1051 1052 999
f 999 1053 996
f 999 1052 1053
f 925 938 195
f 997 938 925
f 27 251 28
f 31 249 25
f 32 34 27
f 32 33 34
f 42 33 32
f 32 43 42
f 27 28 32
f 32 28 29
f 32 29 44
f 44 43 32
f 42 55 53
f 44 45 56
f 56 43 44
f 56 55 43
f 19 16 47
f 13 11 50
f 48 16 13
f 24 45 29
f 24 31 25
f 29 31 24
f 268 248 249
f 249 267 268
f 267 216 268
f 269 248 268
f 268 217 269
f 216 217 268
f 249 248 233
f 264 265 218
f 218 217 182
f 265 217 218
f 899 189 187
f 188 189 899
f 190 188 899
f 899 191 190
f 872 191 899
f 900 873 899
f 873 872 899
f 247 265 264
f 248 265 247
f 243 231 247
f 177 166 178
f 267 215 177
f 178 179 177
f 177 179 267
f 296 295 282
f 128 127 282
f 138 133 1065
f 242 1049 1065
f 1065 133 242
f 1065 1064 137
f 137 138 1065
f 1065 1048 1064
f 1049 1048 1065
f 1012 1048 1013
f 9 11 12
f 12 10 9
f 14 244 12
f 12 13 14
f 11 13 12
f 245 10 12
f 12 244 245
f 62 280 290
f 286 293 292
f 221 189 188
f 221 188 190
f 214 215 266
f 266 270 214
f 214 177 215
f 166 177 214
f 167 166 214
f 214 213 167
f 214 270 271
f 271 213 214
f 73 74 915
f 73 204 74
f 203 204 73
f 168 166 167
f 167 169 168
f 168 169 204
f 178 166 168
f 168 203 178
f 168 204 203
f 173 175 174
f 174 169 173
f 205 169 174
f 175 176 174
f 915 71 81
f 74 204 81
f 81 71 74
f 180 179 202
f 181 179 180
f 202 183 180
f 182 181 180
f 180 183 182
f 76 203 77
f 76 77 908
f 202 203 76
f 194 224 223
f 223 258 194
f 223 257 258
f 256 257 223
f 223 224 256
f 258 244 261
f 14 13 15
f 15 13 16
f 243 236 15
f 220 186 187
f 187 189 220
f 189 221 220
f 260 262 220
f 220 221 260
f 263 262 243
f 243 247 263
f 263 247 264
f 766 482 767
f 766 679 765
f 766 662 679
f 766 767 664
f 664 662 766
f 479 480 481
f 480 483 481
f 481 483 503
f 664 768 673
f 730 480 478
f 478 769 730
f 730 769 480
f 574 670 668
f 478 476 731
f 731 771 478
f 476 771 731
f 298 67 297
f 297 67 296
f 281 127 297
f 296 282 297
f 297 282 281
f 66 295 296
f 296 67 66
f 486 764 488
f 765 764 486
f 330 506 329
f 506 505 329
f 505 328 329
f 327 328 503
f 503 502 327
f 327 502 326
f 503 328 504
f 504 328 505
f 504 481 503
f 504 505 479
f 479 481 504
f 149 160 148
f 153 160 149
f 148 157 149
f 157 156 149
f 149 156 153
f 117 109 116
f 109 107 116
f 116 153 117
f 116 107 153
f 157 155 154
f 154 156 157
f 118 156 154
f 154 1017 118
f 154 155 1017
f 143 144 145
f 143 139 141
f 141 142 143
f 142 144 143
f 137 139 136
f 136 133 137
f 133 136 132
f 132 136 131
f 135 130 131
f 145 146 123
f 123 135 145
f 322 518 750
f 103 113 111
f 103 453 342
f 111 453 103
f 300 113 278
f 278 103 342
f 113 103 278
f 299 159 151
f 150 160 151
f 151 159 150
f 322 70 343
f 343 518 322
f 342 518 343
f 586 585 434
f 674 603 601
f 601 603 602
f 672 670 599
f 599 603 672
f 672 603 674
f 521 520 417
f 391 403 401
f 401 403 407
f 407 408 401
f 432 403 391
f 391 395 432
f 396 395 391
f 391 390 396
f 707 474 718
f 773 474 707
f 707 660 659
f 718 660 707
f 659 658 707
f 658 773 707
f 719 472 717
f 717 474 719
f 719 474 472
f 710 711 464
f 463 462 464
f 722 713 468
f 654 714 653
f 653 714 652
f 656 715 654
f 656 716 715
f 656 643 644
f 656 654 643
f 644 645 656
f 645 655 656
f 656 655 717
f 717 716 656
f 648 580 643
f 638 580 648
f 643 654 648
f 630 580 631
f 580 583 631
f 631 629 630
f 303 629 631
f 631 583 303
f 642 302 639
f 642 301 302
f 450 447 317
f 447 318 317
f 316 450 317
f 317 842 316
f 317 318 841
f 841 842 317
f 184 186 264
f 184 183 186
f 182 183 184
f 184 218 182
f 264 218 184
f 186 183 185
f 187 186 185
f 185 899 187
f 1044 1060 1045
f 1044 1043 1060
f 1009 1043 1044
f 1044 1045 1010
f 1010 1009 1044
f 1024 1072 1023
f 1072 1071 1023
f 1023 971 1024
f 946 971 1023
f 945 946 1023
f 1023 1022 945
f 1070 1022 1023
f 1023 1071 1070
f 1055 1071 1072
f 1070 1071 1055
f 980 789 788
f 1054 1069 1070
f 1054 980 1069
f 1070 1055 1054
f 979 980 1054
f 1028 1027 783
f 1027 1001 783
f 783 1002 1028
f 1040 1041 1006
f 1006 1005 1040
f 1006 1041 1007
f 1007 929 1006
f 929 931 1006
f 1006 931 930
f 930 1005 1006
f 1040 1005 1004
f 928 1003 1004
f 930 928 1004
f 1004 1005 930
f 645 581 646
f 646 581 647
f 646 655 645
f 647 655 646
f 569 581 606
f 606 570 569
f 576 581 569
f 567 570 572
f 572 605 567
f 605 604 567
f 567 569 570
f 618 604 607
f 861 838 950
f 951 833 950
f 950 833 861
f 950 838 947
f 1028 951 950
f 950 1027 1028
f 947 1027 950
f 1083 1032 1084
f 1083 1068 1082
f 1084 1068 1083
f 1082 1031 1083
f 1031 1032 1083
f 790 793 794
f 794 789 790
f 791 793 790
f 979 791 790
f 790 789 979
f 926 999 996
f 927 928 201
f 927 1003 928
f 693 555 551
f 742 740 741
f 741 555 742
f 741 748 739
f 741 551 555
f 741 739 693
f 693 551 741
f 695 748 746
f 746 531 695
f 324 499 498
f 325 499 324
f 324 498 323
f 340 253 339
f 339 253 38
f 339 757 340
f 452 757 339
f 38 36 37
f 37 339 38
f 338 339 37
f 495 494 496
f 494 452 496
f 496 451 495
f 496 338 451
f 452 339 496
f 496 339 338
f 89 91 92
f 89 90 88
f 92 90 89
f 539 544 543
f 533 898 539
f 898 544 539
f 331 98 92
f 543 544 542
f 542 544 898
f 898 897 542
f 897 331 542
f 332 539 543
f 333 539 332
f 334 170 2
f 2 335 334
f 702 561 334
f 561 333 334
f 274 276 210
f 274 273 252
f 252 254 274
f 254 276 274
f 701 561 702
f 701 706 561
f 702 700 701
f 700 706 701
f 519 315 422
f 422 420 519
f 519 420 315
f 891 889 890
f 893 840 891
f 891 890 893
f 941 889 891
f 839 941 891
f 891 840 839
f 987 985 937
f 937 936 987
f 985 823 937
f 195 936 937
f 937 823 195
f 990 914 921
f 1037 1036 990
f 990 885 1037
f 921 885 990
f 994 820 992
f 992 1085 994
f 986 987 988
f 986 985 987
f 877 904 879
f 904 881 879
f 879 878 877
f 878 879 880
f 880 84 878
f 85 84 880
f 882 881 883
f 85 880 882
f 882 879 881
f 882 880 879
f 825 808 824
f 824 985 825
f 985 986 825
f 1037 887 963
f 963 964 1037
f 963 842 964
f 963 887 846
f 846 842 963
f 1033 995 1034
f 1034 958 1033
f 1033 958 959
f 1033 1030 995
f 821 820 994
f 821 811 820
f 804 807 993
f 804 806 807
f 984 995 1066
f 984 811 995
f 312 959 828
f 828 862 312
f 828 826 862
f 959 958 828
f 828 958 826
f 827 957 862
f 827 958 957
f 942 1030 943
f 943 959 829
f 943 1033 959
f 1030 1033 943
f 829 832 943
f 832 942 943
f 1051 999 998
f 998 938 997
f 998 999 938
f 195 803 924
f 924 925 195
f 251 250 234
f 234 28 251
f 250 28 234
f 235 250 249
f 249 31 235
f 235 31 250
f 250 31 30
f 30 28 250
f 29 28 30
f 30 31 29
f 42 53 41
f 323 451 321
f 321 451 337
f 57 46 58
f 45 46 57
f 57 56 45
f 16 19 18
f 18 231 243
f 18 247 231
f 49 13 50
f 60 59 49
f 50 60 49
f 49 59 48
f 48 13 49
f 26 24 25
f 25 249 26
f 249 233 26
f 26 233 248
f 47 46 22
f 22 19 47
f 22 46 45
f 45 24 22
f 21 19 22
f 24 26 22
f 21 248 232
f 232 247 21
f 248 247 232
f 119 127 281
f 281 282 119
f 119 282 127
f 287 286 291
f 291 286 292
f 287 291 288
f 288 291 290
f 293 286 285
f 294 293 285
f 1012 1013 163
f 163 923 1012
f 163 935 923
f 196 277 162
f 246 10 245
f 203 73 79
f 79 73 915
f 206 176 170
f 207 91 206
f 170 334 206
f 206 334 333
f 82 204 80
f 82 81 204
f 82 80 915
f 915 81 82
f 908 72 75
f 75 76 908
f 75 72 202
f 202 76 75
f 62 61 39
f 61 52 39
f 39 280 62
f 9 52 51
f 51 52 61
f 51 50 9
f 51 61 60
f 51 60 50
f 9 10 8
f 10 246 8
f 260 261 259
f 259 261 244
f 243 260 259
f 259 244 14
f 259 236 243
f 14 15 259
f 259 15 236
f 260 221 222
f 222 261 260
f 222 221 190
f 190 192 222
f 222 192 258
f 258 261 222
f 264 186 219
f 219 263 264
f 186 220 219
f 219 220 262
f 262 263 219
f 575 574 666
f 574 668 666
f 665 575 666
f 666 657 665
f 770 771 667
f 772 657 667
f 667 771 772
f 657 666 667
f 667 666 668
f 461 462 463
f 460 462 461
f 458 460 461
f 512 754 753
f 457 456 458
f 455 454 457
f 457 454 456
f 120 127 298
f 298 297 120
f 120 297 127
f 294 295 65
f 295 66 65
f 65 293 294
f 501 325 326
f 326 502 501
f 484 483 482
f 482 766 484
f 484 766 765
f 131 130 283
f 283 295 294
f 283 282 295
f 131 136 140
f 140 135 131
f 140 136 139
f 145 135 140
f 140 143 145
f 139 143 140
f 135 123 129
f 130 135 129
f 129 283 130
f 128 282 129
f 282 283 129
f 147 146 150
f 147 123 146
f 517 518 455
f 517 750 518
f 111 115 106
f 106 108 111
f 107 108 106
f 160 107 106
f 106 115 160
f 111 113 114
f 114 115 111
f 4 278 342
f 342 343 4
f 279 343 70
f 279 70 69
f 69 300 279
f 300 278 279
f 278 4 279
f 279 4 343
f 584 586 434
f 587 585 588
f 585 586 588
f 674 601 675
f 600 675 601
f 669 769 770
f 770 667 669
f 768 769 671
f 671 673 768
f 769 669 671
f 414 416 430
f 430 429 414
f 414 429 421
f 414 421 422
f 415 522 521
f 422 522 415
f 521 417 415
f 415 414 422
f 416 414 415
f 409 416 415
f 415 417 409
f 418 411 409
f 409 417 418
f 418 417 520
f 434 585 435
f 435 394 434
f 612 565 610
f 616 617 448
f 616 565 612
f 612 614 616
f 616 614 617
f 424 429 430
f 448 447 446
f 446 616 448
f 565 616 446
f 733 740 735
f 413 405 403
f 406 525 407
f 406 405 525
f 407 403 406
f 403 405 406
f 400 398 399
f 389 401 399
f 399 733 389
f 389 390 391
f 391 401 389
f 394 395 392
f 723 462 710
f 710 464 723
f 723 464 462
f 463 464 465
f 466 711 712
f 466 464 711
f 712 713 466
f 713 722 466
f 466 722 468
f 301 642 641
f 641 642 651
f 641 651 649
f 907 183 908
f 907 185 183
f 899 185 907
f 907 908 900
f 900 899 907
f 1072 1057 1056
f 1056 1055 1072
f 1056 1057 1040
f 1040 1055 1056
f 1039 1055 1040
f 1039 1054 1055
f 1040 1004 1039
f 1039 1004 1003
f 795 789 794
f 795 788 789
f 795 1053 1000
f 795 794 1053
f 780 783 1001
f 576 569 568
f 569 567 568
f 568 575 576
f 568 566 575
f 568 604 566
f 568 567 604
f 579 441 626
f 626 441 438
f 626 622 579
f 626 625 622
f 589 637 587
f 589 636 637
f 619 592 566
f 566 604 619
f 604 618 619
f 619 618 609
f 609 620 619
f 592 619 623
f 623 619 620
f 195 938 939
f 939 926 195
f 938 999 939
f 999 926 939
f 195 926 778
f 201 195 778
f 778 779 201
f 201 779 922
f 922 927 201
f 922 779 785
f 922 785 978
f 978 1003 922
f 1003 927 922
f 735 742 556
f 742 552 556
f 550 555 693
f 691 550 693
f 689 690 687
f 689 691 690
f 550 691 689
f 546 550 689
f 747 746 748
f 897 98 1
f 1 331 897
f 98 331 1
f 545 331 92
f 545 542 331
f 207 332 95
f 543 542 95
f 542 96 95
f 699 334 335
f 335 336 699
f 336 341 699
f 175 273 211
f 273 274 211
f 210 175 211
f 211 274 210
f 433 429 450
f 433 450 316
f 316 314 433
f 314 419 433
f 419 421 433
f 421 429 433
f 914 990 989
f 989 990 1085
f 988 906 989
f 989 906 914
f 989 986 988
f 1085 986 989
f 994 1085 1086
f 1085 990 1086
f 1086 1036 994
f 1086 990 1036
f 817 825 991
f 991 825 986
f 1085 992 819
f 819 986 1085
f 883 936 884
f 884 882 883
f 884 936 85
f 85 882 884
f 815 825 817
f 808 825 815
f 997 982 815
f 815 982 808
f 824 808 809
f 808 982 809
f 809 823 824
f 803 823 809
f 809 924 803
f 925 924 809
f 997 925 809
f 809 982 997
f 994 806 822
f 822 821 994
f 40 41 53
f 337 338 40
f 338 37 40
f 35 37 36
f 35 36 33
f 35 40 37
f 41 40 35
f 35 33 42
f 42 41 35
f 20 19 21
f 20 18 19
f 21 247 20
f 247 18 20
f 17 15 16
f 16 18 17
f 243 15 17
f 17 18 243
f 21 22 23
f 23 22 26
f 23 248 21
f 23 26 248
f 228 226 227
f 228 1013 1014
f 1014 226 228
f 1014 1048 1049
f 1014 1013 1048
f 241 1049 242
f 242 285 241
f 165 1013 228
f 165 163 1013
f 277 935 164
f 935 163 164
f 164 162 277
f 164 163 161
f 161 162 164
f 225 197 196
f 196 162 225
f 225 198 197
f 225 162 161
f 225 224 198
f 230 246 161
f 230 238 5
f 5 8 230
f 230 8 246
f 77 203 78
f 203 79 78
f 915 77 78
f 78 79 915
f 200 174 176
f 176 206 200
f 200 89 88
f 91 89 200
f 200 206 91
f 205 174 200
f 200 101 205
f 88 101 200
f 333 332 3
f 3 206 333
f 3 332 207
f 207 206 3
f 7 52 9
f 9 8 7
f 458 461 459
f 459 461 515
f 459 457 458
f 515 457 459
f 751 515 752
f 292 293 64
f 293 65 64
f 500 499 325
f 325 501 500
f 500 501 489
f 489 491 500
f 491 499 500
f 489 501 487
f 488 489 487
f 487 486 488
f 765 486 728
f 728 484 765
f 486 484 728
f 284 132 131
f 131 283 284
f 242 133 284
f 133 132 284
f 284 283 294
f 294 285 284
f 284 285 242
f 134 129 123
f 134 127 128
f 128 129 134
f 751 750 516
f 750 517 516
f 516 515 751
f 516 457 515
f 455 457 516
f 516 517 455
f 115 114 152
f 160 115 152
f 152 151 160
f 152 114 113
f 152 113 299
f 299 151 152
f 682 577 360
f 679 662 682
f 586 584 593
f 596 588 597
f 597 588 601
f 602 596 597
f 597 601 602
f 586 593 595
f 595 593 600
f 595 600 601
f 523 520 896
f 412 411 410
f 411 418 410
f 410 523 412
f 410 418 520
f 520 523 410
f 633 435 585
f 633 626 438
f 633 585 587
f 587 637 633
f 637 625 633
f 625 626 633
f 431 432 444
f 444 443 431
f 444 432 395
f 444 436 443
f 444 395 394
f 394 436 444
f 607 615 613
f 613 618 607
f 612 610 613
f 613 614 612
f 615 614 613
f 449 447 450
f 450 429 449
f 429 424 449
f 439 424 369
f 398 537 536
f 403 432 404
f 404 413 403
f 412 413 404
f 404 411 412
f 431 411 404
f 404 432 431
f 896 525 524
f 525 405 524
f 405 413 524
f 524 523 896
f 524 413 412
f 412 523 524
f 399 401 402
f 402 400 399
f 402 401 408
f 398 400 527
f 400 402 527
f 395 396 397
f 397 392 395
f 738 392 397
f 397 737 738
f 396 737 397
f 434 394 393
f 394 392 393
f 393 584 434
f 738 584 393
f 393 392 738
f 734 396 390
f 734 737 396
f 734 733 735
f 390 389 734
f 734 389 733
f 512 465 511
f 511 754 512
f 755 754 511
f 511 510 755
f 467 465 464
f 464 466 467
f 467 511 465
f 649 301 640
f 640 641 649
f 301 641 640
f 1038 1003 979
f 1038 1039 1003
f 979 1054 1038
f 1054 1039 1038
f 796 788 792
f 788 795 792
f 797 796 1002
f 579 622 564
f 622 608 564
f 564 610 565
f 564 608 610
f 636 623 624
f 624 623 620
f 637 636 624
f 624 625 637
f 590 589 587
f 587 588 590
f 590 588 596
f 590 596 602
f 799 778 926
f 996 800 799
f 799 926 996
f 800 785 799
f 785 779 799
f 779 778 799
f 735 556 743
f 549 552 742
f 742 555 549
f 555 550 549
f 546 552 549
f 549 550 546
f 738 744 558
f 558 584 738
f 547 743 556
f 547 552 546
f 547 556 552
f 748 741 749
f 749 747 748
f 749 741 740
f 740 733 749
f 531 746 532
f 746 747 532
f 747 536 532
f 530 531 532
f 562 333 561
f 333 562 540
f 540 562 561
f 540 534 533
f 533 539 540
f 561 534 540
f 94 96 542
f 542 545 94
f 207 95 94
f 94 95 96
f 97 332 543
f 543 95 97
f 97 95 332
f 703 341 702
f 703 699 341
f 702 334 703
f 334 699 703
f 818 991 986
f 986 819 818
f 817 991 818
f 816 992 820
f 816 819 992
f 1050 984 1066
f 1050 1067 1051
f 1050 1066 1067
f 997 815 1050
f 1051 998 1050
f 1050 998 997
f 811 821 810
f 821 822 810
f 993 995 810
f 995 811 810
f 54 40 53
f 54 321 337
f 337 40 54
f 239 227 226
f 226 1014 239
f 239 1014 1049
f 228 227 237
f 287 288 237
f 237 239 287
f 227 239 237
f 240 285 286
f 240 241 285
f 1049 241 240
f 240 239 1049
f 240 286 287
f 287 239 240
f 256 224 255
f 224 225 255
f 245 256 255
f 255 246 245
f 161 246 255
f 255 225 161
f 229 165 228
f 163 165 229
f 238 230 229
f 161 163 229
f 229 230 161
f 228 237 229
f 229 237 238
f 5 238 6
f 6 8 5
f 6 7 8
f 280 39 6
f 6 39 52
f 52 7 6
f 515 461 514
f 514 752 515
f 514 461 463
f 62 290 63
f 290 291 63
f 63 291 292
f 292 64 63
f 485 484 486
f 486 487 485
f 483 484 485
f 485 501 502
f 485 487 501
f 503 483 485
f 485 502 503
f 123 147 124
f 124 134 123
f 150 159 124
f 124 147 150
f 360 577 362
f 361 559 359
f 546 560 356
f 578 593 584
f 578 577 600
f 600 593 578
f 664 675 663
f 663 662 664
f 675 600 663
f 661 682 662
f 662 663 661
f 577 682 661
f 600 577 661
f 661 663 600
f 594 588 586
f 586 595 594
f 601 588 594
f 594 595 601
f 437 633 438
f 435 633 437
f 438 436 437
f 394 435 437
f 437 436 394
f 438 441 442
f 442 436 438
f 443 436 442
f 423 424 430
f 430 416 425
f 425 416 409
f 609 618 611
f 618 613 611
f 611 613 610
f 611 608 609
f 610 608 611
f 440 446 447
f 447 449 440
f 440 449 424
f 424 439 440
f 528 537 398
f 398 527 528
f 528 527 537
f 526 525 896
f 537 527 526
f 407 525 526
f 526 408 407
f 526 402 408
f 526 527 402
f 469 466 468
f 469 467 466
f 469 471 510
f 510 511 469
f 511 467 469
f 470 471 469
f 469 468 470
f 1000 796 981
f 796 792 981
f 981 795 1000
f 981 792 795
f 798 797 1002
f 796 797 787
f 787 788 796
f 980 788 787
f 1069 980 787
f 787 1001 1069
f 625 624 621
f 622 625 621
f 621 608 622
f 609 608 621
f 621 620 609
f 621 624 620
f 592 623 635
f 635 623 636
f 636 589 635
f 589 591 635
f 738 737 736
f 736 744 738
f 737 734 736
f 557 744 736
f 736 743 557
f 736 734 735
f 735 743 736
f 345 548 554
f 554 744 345
f 554 558 744
f 548 351 554
f 351 558 554
f 553 347 557
f 557 743 553
f 743 547 553
f 686 687 677
f 745 733 399
f 745 749 733
f 747 749 745
f 745 536 747
f 399 398 745
f 398 536 745
f 530 532 538
f 896 530 538
f 538 536 537
f 538 532 536
f 538 526 896
f 537 526 538
f 541 539 333
f 333 540 541
f 541 540 539
f 102 545 92
f 92 94 102
f 102 94 545
f 92 91 93
f 93 94 92
f 93 91 207
f 207 94 93
f 819 816 812
f 812 816 820
f 820 811 812
f 811 984 812
f 984 1050 983
f 983 1050 815
f 805 810 822
f 806 804 805
f 805 822 806
f 805 804 993
f 993 810 805
f 289 6 238
f 289 237 288
f 238 237 289
f 280 6 289
f 289 290 280
f 289 288 290
f 753 752 513
f 752 514 513
f 512 753 513
f 513 514 463
f 463 465 513
f 513 465 512
f 125 124 159
f 134 124 125
f 298 126 125
f 125 159 298
f 126 127 125
f 127 134 125
f 354 362 355
f 355 362 577
f 355 578 354
f 577 578 355
f 344 548 345
f 345 361 344
f 344 361 359
f 359 351 344
f 344 351 548
f 363 361 345
f 559 361 363
f 676 559 363
f 678 559 676
f 678 676 677
f 684 681 679
f 359 559 684
f 559 681 684
f 584 558 352
f 352 558 351
f 359 360 352
f 352 351 359
f 443 442 427
f 370 425 364
f 430 425 370
f 426 425 409
f 426 411 431
f 409 411 426
f 431 443 426
f 443 427 426
f 364 425 426
f 426 427 364
f 373 388 439
f 445 440 439
f 439 388 445
f 446 440 445
f 565 446 445
f 445 388 565
f 783 780 782
f 1002 783 782
f 782 798 1002
f 797 798 786
f 786 787 797
f 1001 787 786
f 598 635 591
f 602 592 598
f 592 635 598
f 598 590 602
f 589 590 598
f 598 591 589
f 688 686 560
f 546 689 688
f 688 560 546
f 688 689 687
f 687 686 688
f 813 812 984
f 984 983 813
f 813 818 819
f 819 812 813
f 348 363 345
f 557 347 348
f 345 744 348
f 348 744 557
f 357 356 560
f 560 686 357
f 363 348 357
f 347 356 357
f 357 348 347
f 346 553 547
f 547 350 346
f 347 553 346
f 346 356 347
f 346 350 356
f 349 547 546
f 349 350 547
f 680 681 559
f 559 678 680
f 680 678 677
f 677 679 680
f 679 681 680
f 683 360 359
f 359 684 683
f 683 682 360
f 679 682 683
f 683 684 679
f 353 578 584
f 584 352 353
f 354 578 353
f 353 362 354
f 360 362 353
f 353 352 360
f 366 423 430
f 430 370 366
f 781 786 798
f 781 782 780
f 798 782 781
f 781 780 1001
f 1001 786 781
f 817 818 814
f 818 813 814
f 814 815 817
f 814 983 815
f 814 813 983
f 685 357 686
f 677 676 685
f 685 686 677
f 676 363 685
f 363 357 685
f 546 356 358
f 358 349 546
f 356 350 358
f 350 349 358
f 427 378 379
f 369 378 372
f 372 439 369
f 372 373 439
f 579 564 563
f 563 564 565
f 565 388 563
f 388 374 563
f 369 424 368
f 424 423 368
f 368 378 369
f 368 379 378
f 364 427 365
f 427 379 365
f 365 370 364
f 365 366 370
f 365 379 366
f 373 372 376
f 376 380 373
f 376 442 441
f 373 380 371
f 371 380 374
f 388 373 371
f 371 374 388
f 374 380 386
f 423 366 367
f 367 368 423
f 366 379 367
f 379 368 367
f 377 372 378
f 377 376 372
f 441 386 428
f 428 386 380
f 428 376 441
f 380 376 428
f 383 441 579
f 383 386 441
f 374 386 383
f 442 376 387
f 376 377 387
f 387 377 378
f 387 427 442
f 387 378 427
f 579 563 381
f 384 383 579
f 375 563 374
f 374 383 375
f 383 384 375
f 579 381 385
f 385 384 579
f 385 375 384
f 382 381 563
f 563 375 382
f 382 385 381
f 375 385 382
f 865 965 966
f 696 694 695
f 696 695 697
f 704 696 697
f 698 696 704
f 777 865 966
f 966 776 777
f 849 972 857
f 848 849 857
f 860 851 838
f 861 860 838
f 695 694 692
f 693 695 692
f 845 844 863
f 960 844 845
f 639 638 653
f 652 639 653
f 648 653 638
f 654 653 648
f 642 639 652
f 652 651 642
f 826 958 827
f 862 826 827
f 675 673 674
f 664 673 675
f 669 667 668
f 669 668 670
f 674 673 671
f 671 672 674
f 671 669 670
f 670 672 671
f 693 692 691
f 691 692 690
f 58 59 63
f 323 321 63
f 322 750 63
f 63 324 323
f 63 756 330
f 63 61 62
f 751 752 63
f 63 68 69
f 63 754 755
f 755 756 63
f 69 70 63
f 60 61 63
f 63 59 60
f 63 327 326
f 63 67 68
f 326 325 63
f 330 329 63
f 63 70 322
f 63 53 55
f 55 56 63
f 63 57 58
f 63 66 67
f 63 329 328
f 328 327 63
f 63 750 751
f 325 324 63
f 63 54 53
f 56 57 63
f 63 753 754
f 63 65 66
f 63 752 753
f 63 64 65
f 321 54 63
