v -0.074108 -0.052176 0.019382
v -0.074108 -0.053919 0.019990
v -0.089683 -0.053516 0.024607
v -0.089683 -0.046952 0.024607
v -0.089037 -0.042229 0.024607
v -0.056578 -0.025788 0.029718
v -0.038287 -0.043236 0.024289
v -0.038075 -0.043251 0.024294
v -0.036182 -0.044591 0.023946
v 0.000673 -0.050507 0.024218
v 0.000673 -0.052176 0.023778
v 0.000673 -0.053723 0.024224
v -0.074108 -0.053956 0.020076
v -0.089303 -0.053635 0.024607
v -0.000141 -0.053755 0.024218
v -0.000309 -0.053760 0.024218
v -0.002043 -0.054544 0.025608
v -0.089683 -0.053349 0.025130
v -0.089683 -0.042229 0.032103
v -0.074108 -0.031835 0.043354
v -0.063432 -0.026691 0.033907
v -0.062477 -0.026314 0.033907
v -0.060850 -0.026069 0.033907
v -0.060850 -0.025541 0.043354
v -0.038296 -0.025604 0.044458
v -0.000300 -0.035299 0.044440
v -0.055649 -0.026112 0.029718
v 0.000673 -0.049536 0.025523
v 0.000673 -0.054365 0.025608
v -0.000141 -0.054430 0.025608
v -0.000309 -0.054442 0.025608
v -0.074108 -0.054183 0.021682
v -0.089303 -0.053377 0.025186
v -0.074108 -0.054195 0.021865
v -0.003935 -0.054442 0.027506
v -0.003935 -0.054135 0.029405
v -0.003935 -0.053800 0.031300
v -0.003935 -0.053397 0.033198
v -0.003935 -0.053187 0.034125
v -0.003935 -0.052928 0.035206
v -0.005846 -0.052409 0.036986
v -0.005846 -0.051753 0.038887
v -0.007252 -0.051265 0.039900
v -0.002043 -0.054433 0.027506
v -0.003935 -0.054541 0.025608
v -0.089303 -0.052917 0.026131
v -0.089683 -0.053031 0.025782
v -0.089683 -0.042229 0.039362
v -0.056578 -0.025604 0.049477
v -0.063238 -0.026149 0.043354
v -0.062751 -0.025942 0.043354
v -0.043780 -0.025604 0.049530
v -0.041878 -0.025604 0.049536
v -0.038296 -0.025604 0.049542
v -0.000300 -0.047938 0.044440
v 0.000673 -0.048040 0.032767
v 0.000673 -0.049309 0.026429
v 0.000673 -0.054311 0.026411
v -0.000141 -0.054300 0.027506
v -0.002043 -0.054107 0.029405
v -0.002043 -0.053755 0.031300
v -0.002794 -0.053175 0.034125
v -0.002662 -0.053147 0.034235
v -0.002034 -0.052392 0.036986
v -0.003935 -0.052451 0.036986
v -0.003935 -0.051787 0.038887
v -0.005846 -0.051296 0.039962
v -0.005846 -0.050757 0.040909
v -0.007827 -0.050802 0.040632
v -0.089683 -0.050924 0.029818
v -0.089683 -0.051455 0.028867
v -0.089303 -0.052207 0.027506
v -0.089683 -0.052156 0.027506
v -0.089683 -0.043949 0.039362
v -0.056578 -0.025618 0.049477
v -0.043780 -0.025621 0.049530
v -0.041878 -0.025621 0.049536
v -0.038296 -0.025621 0.049542
v -0.038296 -0.027520 0.049497
v -0.038296 -0.028928 0.049388
v -0.038296 -0.029876 0.049241
v -0.038296 -0.031313 0.048925
v -0.002034 -0.048040 0.044440
v -0.002034 -0.048139 0.044346
v -0.000300 -0.048085 0.044299
v 0.000673 -0.053266 0.032767
v 0.000673 -0.054234 0.027506
v 0.000673 -0.054098 0.028312
v 0.000673 -0.053766 0.030205
v 0.000673 -0.053570 0.031300
v 0.000673 -0.053454 0.031870
v 0.000673 -0.053278 0.032717
v -0.000309 -0.053332 0.032767
v -0.002034 -0.053314 0.033337
v -0.002591 -0.053170 0.034125
v -0.002034 -0.052934 0.034955
v -0.000300 -0.052341 0.036812
v -0.000300 -0.052292 0.036986
v -0.002034 -0.051739 0.038887
v -0.003935 -0.051313 0.039991
v -0.002034 -0.051293 0.039959
v -0.003935 -0.050774 0.040942
v -0.005846 -0.049808 0.042386
v -0.007738 -0.049757 0.042315
v -0.089683 -0.050024 0.031303
v -0.074108 -0.039869 0.043354
v -0.056578 -0.027813 0.049211
v -0.056578 -0.027571 0.049252
v -0.056578 -0.026861 0.049367
v -0.056578 -0.026546 0.049397
v -0.089683 -0.044414 0.038828
v -0.009631 -0.048945 0.043147
v -0.009631 -0.047997 0.044213
v -0.009631 -0.047764 0.044440
v -0.010896 -0.047588 0.044440
v -0.011524 -0.047495 0.044440
v -0.039977 -0.027520 0.049486
v -0.056578 -0.029417 0.048821
v -0.038296 -0.033212 0.048328
v -0.007738 -0.047935 0.044440
v -0.007455 -0.047952 0.044440
v -0.005846 -0.048043 0.044440
v -0.003935 -0.048074 0.044440
v -0.003935 -0.048159 0.044364
v -0.002034 -0.049090 0.043330
v -0.003935 -0.049107 0.043357
v -0.000300 -0.048168 0.044210
v -0.000300 -0.049036 0.043265
v -0.000300 -0.049102 0.043183
v -0.000300 -0.049760 0.042318
v -0.000300 -0.049842 0.042188
v -0.000300 -0.050794 0.040664
v -0.000300 -0.050867 0.040540
v -0.000300 -0.051009 0.040295
v -0.000300 -0.051248 0.039870
v -0.000300 -0.051583 0.039038
v -0.000300 -0.052795 0.035079
v -0.000300 -0.052826 0.034958
v -0.000300 -0.053022 0.034125
v -0.000309 -0.053090 0.033836
v -0.000309 -0.053286 0.032971
v -0.001317 -0.053090 0.034125
v -0.000619 -0.051259 0.039891
v -0.002034 -0.050757 0.040906
v -0.003935 -0.049825 0.042406
v -0.002034 -0.049806 0.042383
v -0.005846 -0.049093 0.043333
v -0.007738 -0.049036 0.043262
v -0.009631 -0.049669 0.042203
v -0.089683 -0.049380 0.032316
v -0.056578 -0.031313 0.048110
v -0.089683 -0.045360 0.037724
v -0.089683 -0.045507 0.037541
v -0.089683 -0.046118 0.036776
v -0.089683 -0.046302 0.036537
v -0.007738 -0.048082 0.044296
v -0.055154 -0.031313 0.048198
v -0.005846 -0.048139 0.044349
v -0.089683 -0.047066 0.035533
v -0.089683 -0.047756 0.034583
v -0.089683 -0.048835 0.033080
f 24 54 25
f 25 6 24
f 54 26 25
f 25 26 6
f 6 1 5
f 6 5 21
f 21 5 20
f 8 6 10
f 24 49 52
f 20 49 50
f 50 21 20
f 4 1 3
f 4 5 1
f 6 21 22
f 20 5 19
f 5 4 19
f 6 26 27
f 26 28 27
f 10 6 27
f 27 28 10
f 10 1 9
f 9 8 10
f 1 8 9
f 7 1 6
f 6 8 7
f 7 8 1
f 14 41 42
f 3 1 2
f 2 14 3
f 12 2 1
f 32 17 45
f 53 54 24
f 24 52 53
f 51 49 24
f 51 50 49
f 24 22 51
f 21 50 51
f 51 22 21
f 24 6 23
f 23 22 24
f 6 22 23
f 48 49 20
f 20 19 48
f 42 41 65
f 85 55 84
f 86 55 85
f 85 127 86
f 26 56 57
f 57 28 26
f 34 14 32
f 32 45 34
f 13 17 32
f 13 2 17
f 32 14 13
f 14 2 13
f 17 2 16
f 11 1 10
f 11 12 1
f 44 17 31
f 17 12 31
f 55 81 82
f 42 65 66
f 40 65 41
f 41 14 40
f 112 111 152
f 74 111 112
f 112 113 74
f 70 69 105
f 104 150 105
f 105 69 104
f 3 14 18
f 2 12 15
f 15 16 2
f 15 12 17
f 17 16 15
f 44 31 30
f 29 58 30
f 12 29 30
f 30 31 12
f 74 113 114
f 113 120 114
f 114 118 157
f 80 81 55
f 55 79 80
f 78 79 55
f 79 78 77
f 79 77 76
f 157 118 151
f 151 118 106
f 74 108 109
f 109 108 81
f 81 80 109
f 74 106 107
f 107 108 74
f 106 118 107
f 107 118 82
f 107 82 81
f 81 108 107
f 44 36 35
f 35 36 14
f 14 34 35
f 35 34 45
f 35 17 44
f 35 45 17
f 37 38 14
f 14 36 37
f 14 38 39
f 39 40 14
f 153 112 152
f 154 112 153
f 156 120 113
f 159 160 149
f 149 150 104
f 47 18 46
f 72 71 46
f 116 106 74
f 116 151 106
f 157 151 116
f 82 118 119
f 118 114 119
f 120 82 119
f 119 114 120
f 117 80 79
f 55 82 83
f 82 123 83
f 84 55 83
f 122 123 82
f 124 122 158
f 123 122 124
f 84 83 124
f 124 83 123
f 74 109 110
f 110 109 80
f 61 90 91
f 60 90 61
f 61 37 60
f 60 36 44
f 60 37 36
f 61 94 95
f 86 127 128
f 99 66 65
f 136 99 98
f 86 136 98
f 93 94 61
f 63 40 62
f 40 39 62
f 62 39 38
f 62 95 63
f 38 37 62
f 62 37 61
f 61 95 62
f 113 112 148
f 148 156 113
f 148 149 104
f 112 149 148
f 159 149 155
f 155 112 154
f 155 149 112
f 150 149 161
f 161 149 160
f 33 18 14
f 33 46 18
f 47 46 73
f 73 46 71
f 74 114 115
f 115 116 74
f 115 114 157
f 157 116 115
f 121 82 120
f 121 122 82
f 158 122 121
f 120 156 121
f 121 156 158
f 74 110 75
f 75 110 80
f 80 117 75
f 75 117 79
f 79 76 75
f 61 91 92
f 92 93 61
f 130 131 86
f 42 66 67
f 143 99 136
f 63 95 96
f 64 99 65
f 64 98 99
f 65 40 64
f 64 40 63
f 63 96 64
f 142 95 94
f 90 60 89
f 87 88 59
f 44 30 59
f 59 60 44
f 59 58 87
f 59 30 58
f 88 89 59
f 59 89 60
f 86 128 129
f 129 130 86
f 70 71 43
f 43 69 70
f 43 71 72
f 72 46 43
f 46 33 43
f 43 33 14
f 43 14 42
f 42 67 43
f 68 67 102
f 102 103 68
f 69 43 68
f 68 43 67
f 104 69 68
f 68 103 104
f 126 124 158
f 84 124 126
f 135 143 136
f 135 136 86
f 102 67 100
f 100 67 66
f 94 93 141
f 141 142 94
f 141 92 86
f 93 92 141
f 138 96 95
f 95 142 138
f 144 146 102
f 102 100 144
f 131 130 144
f 130 146 144
f 145 103 102
f 102 146 145
f 147 148 104
f 104 103 147
f 147 126 158
f 103 145 147
f 147 145 126
f 158 156 147
f 156 148 147
f 125 129 128
f 84 126 125
f 125 145 146
f 126 145 125
f 130 129 125
f 125 146 130
f 125 128 127
f 125 85 84
f 127 85 125
f 140 141 86
f 142 141 140
f 98 64 97
f 97 64 96
f 86 98 97
f 143 144 101
f 101 144 100
f 99 143 101
f 66 99 101
f 101 100 66
f 131 144 132
f 86 131 132
f 139 138 142
f 142 140 139
f 86 138 139
f 139 140 86
f 96 138 137
f 137 97 96
f 137 138 86
f 86 97 137
f 134 144 143
f 143 135 134
f 134 135 86
f 133 132 144
f 144 134 133
f 86 132 133
f 133 134 86
f 56 55 86
f 26 55 56
f 78 55 26
f 78 26 54
f 77 78 54
f 54 53 77
f 76 77 53
f 76 53 52
f 73 4 3
f 73 48 19
f 73 19 4
f 73 111 74
f 70 105 73
f 74 48 73
f 73 71 70
f 73 160 159
f 73 153 152
f 3 18 73
f 152 111 73
f 159 155 73
f 73 105 150
f 73 18 47
f 154 153 73
f 150 161 73
f 73 155 154
f 73 161 160
f 75 48 74
f 49 48 75
f 75 76 52
f 75 52 49
f 89 56 86
f 89 11 10
f 10 28 89
f 28 57 89
f 89 29 12
f 89 57 56
f 12 11 89
f 89 58 29
f 87 58 89
f 86 92 89
f 89 91 90
f 89 92 91
f 89 88 87
