v -0.067896 0.050029 0.025530
v -0.067896 0.050010 0.024967
v -0.089132 0.046111 0.016246
v -0.089424 0.046111 0.024601
v -0.067896 0.049523 0.027052
v -0.038283 0.046665 0.029706
v -0.038283 0.046761 0.029395
v -0.038283 0.047277 0.027525
v -0.038283 0.047478 0.026698
v -0.038283 0.047573 0.025692
v -0.067896 0.049857 0.024349
v -0.038283 0.047516 0.024539
v -0.091261 0.009713 0.016246
v -0.078945 0.046111 0.016246
v -0.000140 0.025260 0.008969
v -0.002046 0.023712 0.008461
v -0.003939 0.023712 0.008488
v -0.009617 0.021810 0.008478
v -0.013416 0.019918 0.008518
v -0.015322 0.018017 0.008466
v -0.017215 0.016115 0.008461
v -0.019121 0.014213 0.008486
v -0.020986 0.010420 0.008461
v -0.022892 0.006626 0.008468
v -0.091261 0.008872 0.016754
v -0.091261 0.007935 0.017289
v -0.091261 0.006626 0.017817
v -0.091261 0.004734 0.018392
v -0.091261 0.002861 0.018828
v -0.091261 0.002775 0.018846
v -0.091261 0.001810 0.019005
v -0.091261 0.000835 0.019115
v -0.091261 -0.000751 0.019132
v -0.091261 -0.000828 0.019132
v -0.089034 -0.030805 0.024601
v -0.066393 -0.031302 0.033900
v -0.074117 0.035084 0.029529
v -0.067896 0.047812 0.030561
v -0.067896 0.048471 0.029330
v -0.067896 0.049121 0.027988
v 0.032910 0.038505 0.032762
v 0.033383 0.038505 0.031489
v 0.034371 0.038505 0.028424
v 0.034677 0.038505 0.027443
v 0.034984 0.038505 0.025602
v 0.034872 0.038505 0.024862
v 0.034524 0.038505 0.024374
v 0.034260 0.038505 0.024272
v 0.033954 0.038505 0.024200
v 0.032479 0.038505 0.023856
v -0.091261 -0.009772 0.016246
v -0.022892 0.004734 0.008461
v 0.003659 0.025165 0.008981
v 0.001753 0.025241 0.008969
v 0.001753 0.023712 0.008461
v -0.007724 0.021810 0.008461
v -0.011523 0.019918 0.008461
v -0.091261 -0.002787 0.018863
v -0.089034 -0.030805 0.016246
v -0.074117 -0.038526 0.027507
v -0.074117 -0.038230 0.028837
v -0.074117 -0.036987 0.029373
v -0.063610 -0.038306 0.033900
v -0.065670 -0.034264 0.033900
v -0.066087 -0.033194 0.033900
v -0.091261 -0.004727 0.018402
v -0.091261 -0.006619 0.017820
v -0.091261 -0.007976 0.017259
v -0.091261 -0.008893 0.016771
v -0.066240 -0.030604 0.033900
v -0.065976 -0.029476 0.033900
v -0.065544 -0.028521 0.033900
v -0.064598 -0.027623 0.033900
v -0.063429 -0.026677 0.033900
v 0.024895 0.038505 0.032762
v 0.033272 0.038161 0.032762
v -0.060855 -0.026055 0.033900
v -0.059338 -0.026313 0.033900
v -0.058392 -0.026772 0.033900
v -0.057251 -0.027709 0.033900
v 0.035151 0.036249 0.032762
v 0.035415 0.036507 0.031290
v 0.035123 0.038132 0.027154
v 0.037015 0.036202 0.027091
v 0.036194 0.037272 0.025602
v 0.037029 0.036240 0.024499
v 0.035151 0.038141 0.024484
v 0.018452 0.017634 0.009138
v 0.016545 0.019450 0.009138
v 0.014541 0.021170 0.009185
v 0.013010 0.021810 0.009051
v 0.011243 0.023062 0.009170
v 0.009351 0.023473 0.008976
v 0.007055 0.024811 0.009277
v 0.005552 0.025002 0.009086
v -0.022892 -0.004727 0.008461
v -0.022892 -0.006628 0.008471
v 0.005552 0.023712 0.008575
v 0.003659 0.023712 0.008471
v 0.009351 0.021810 0.008466
v 0.007444 0.021810 0.008461
v -0.056569 -0.046018 0.024235
v -0.074117 -0.038230 0.020377
v -0.074117 -0.038526 0.021812
v -0.020986 -0.010422 0.008461
v -0.019107 -0.014216 0.008491
v -0.017215 -0.016117 0.008461
v -0.015308 -0.018019 0.008461
v -0.013416 -0.019911 0.008525
v -0.009617 -0.021803 0.008483
v -0.005845 -0.023705 0.008600
v -0.003939 -0.023705 0.008476
v -0.003939 -0.025148 0.008986
v -0.056569 -0.046476 0.025602
v -0.056569 -0.046104 0.027497
v -0.056569 -0.045578 0.029074
v -0.056569 -0.045358 0.029711
v -0.038283 -0.046648 0.029706
v -0.056569 -0.038306 0.033900
v -0.062483 -0.026294 0.033900
v -0.056569 -0.028502 0.033900
v 0.036041 0.035217 0.032762
v 0.036347 0.035456 0.031290
v 0.036653 0.035819 0.029395
v 0.037447 0.034864 0.029395
v 0.038783 0.034176 0.026678
v 0.037113 0.036316 0.025602
v 0.038824 0.034224 0.024584
v 0.020205 0.015733 0.009141
v 0.018980 0.016277 0.008867
v 0.017074 0.018170 0.008867
v 0.015112 0.020014 0.008896
v 0.011243 0.021810 0.008660
v 0.013136 0.019909 0.008496
v 0.015028 0.018007 0.008461
v -0.038283 -0.047547 0.024516
v -0.007724 -0.021803 0.008461
v -0.002046 -0.023705 0.008461
v -0.000140 -0.025262 0.008969
v -0.002046 -0.025224 0.008971
v -0.038283 -0.047595 0.025669
v -0.038283 -0.047595 0.025697
v -0.038965 -0.047423 0.026444
v -0.038283 -0.047289 0.027438
v -0.038283 -0.047270 0.027517
v -0.038283 -0.046763 0.029395
v 0.039339 -0.031091 0.032762
v 0.040272 -0.029763 0.032762
v 0.040731 -0.029027 0.032762
v 0.041886 -0.027107 0.032762
v 0.042721 -0.025683 0.032762
v 0.042916 -0.025329 0.032762
v 0.043737 -0.023695 0.032762
v 0.045448 -0.019882 0.032762
v 0.046102 -0.018191 0.032762
v 0.046478 -0.017006 0.032762
v 0.046756 -0.016127 0.032762
v 0.047355 -0.014177 0.032762
v 0.047842 -0.012314 0.032762
v 0.047939 -0.011884 0.032762
v 0.048134 -0.010881 0.032762
v 0.048565 -0.008511 0.032762
v 0.048649 -0.008042 0.032762
v 0.048872 -0.006628 0.032762
v 0.048913 -0.006189 0.032762
v 0.049039 -0.004727 0.032762
v 0.049247 -0.000942 0.032762
v 0.049261 -0.000111 0.032762
v 0.049261 0.000950 0.032762
v 0.049039 0.004724 0.032762
v 0.048872 0.006607 0.032762
v 0.048565 0.008489 0.032762
v 0.048273 0.010133 0.032762
v 0.048134 0.010888 0.032762
v 0.047842 0.012302 0.032762
v 0.047355 0.014166 0.032762
v 0.046088 0.018160 0.032762
v 0.045448 0.019871 0.032762
v 0.044307 0.022451 0.032762
v 0.043737 0.023683 0.032762
v 0.042916 0.025327 0.032762
v 0.042387 0.026273 0.032762
v 0.041427 0.027888 0.032762
v 0.040842 0.028853 0.032762
v 0.040272 0.029761 0.032762
v 0.039339 0.031070 0.032762
v 0.038449 0.032236 0.032762
v 0.036904 0.034204 0.032762
v 0.037141 0.034501 0.031290
v 0.038699 0.032188 0.032102
v 0.039117 0.032714 0.029395
v 0.040327 0.031844 0.027497
v 0.041037 0.030889 0.027497
v 0.041190 0.031089 0.025602
v 0.038824 0.034252 0.025602
v 0.038059 0.035189 0.025602
v 0.042665 0.028662 0.024524
v 0.040995 0.030860 0.024389
v 0.039200 0.033182 0.024382
v 0.021903 0.013611 0.009228
v 0.020789 0.014232 0.008921
v 0.018827 0.014213 0.008461
v 0.016935 0.016115 0.008461
v 0.020734 0.012321 0.008525
v 0.001753 -0.025234 0.008969
v 0.003659 -0.025157 0.008986
v 0.001766 -0.038144 0.020489
v 0.003659 -0.038039 0.020651
v 0.004967 -0.037972 0.020783
v 0.007444 -0.037695 0.021812
v 0.040494 -0.031091 0.024287
v 0.041176 -0.031091 0.025605
v 0.001753 -0.023705 0.008461
v 0.040884 -0.031091 0.027497
v 0.040327 -0.031091 0.029467
v 0.039854 -0.031091 0.031064
v 0.040633 -0.030336 0.030341
v 0.042665 -0.026753 0.030772
v 0.043097 -0.025731 0.031360
v 0.044474 -0.024689 0.028533
v 0.044293 -0.024316 0.029801
v 0.046395 -0.019099 0.030573
v 0.046228 -0.018611 0.031838
v 0.046422 -0.017350 0.032578
v 0.046589 -0.017990 0.031238
v 0.047828 -0.014053 0.031133
v 0.048245 -0.013317 0.030399
v 0.048218 -0.011282 0.032184
v 0.049428 -0.008530 0.029395
v 0.050194 -0.007937 0.026815
v 0.050054 -0.006628 0.028137
v 0.050124 -0.005491 0.028404
v 0.049943 -0.004813 0.029270
v 0.049651 -0.000942 0.031290
v 0.049651 0.000950 0.031290
v 0.050124 0.005479 0.028404
v 0.050054 0.006607 0.028142
v 0.050194 0.007945 0.026815
v 0.049581 0.010410 0.027497
v 0.048218 0.011280 0.032184
v 0.048357 0.012302 0.030820
v 0.048245 0.013296 0.030401
v 0.046589 0.017969 0.031238
v 0.046228 0.018590 0.031838
v 0.046422 0.017338 0.032535
v 0.047828 0.014041 0.031133
v 0.047661 0.016096 0.029395
v 0.046395 0.019096 0.030573
v 0.045908 0.019794 0.031238
v 0.044293 0.024314 0.029801
v 0.044725 0.023683 0.029258
v 0.044474 0.024687 0.028533
v 0.043097 0.025728 0.031367
v 0.042874 0.027085 0.029395
v 0.040647 0.030334 0.030344
v 0.042053 0.029293 0.027525
v 0.042637 0.028605 0.026910
v 0.042122 0.029684 0.025602
v 0.042707 0.028738 0.025602
v 0.044335 0.025929 0.025605
v 0.044739 0.025212 0.025605
v 0.044655 0.025050 0.024449
v 0.022237 0.012321 0.009036
v 0.022626 0.008528 0.008523
v 0.022626 0.006626 0.008461
v 0.003659 -0.023705 0.008478
v 0.005552 -0.023705 0.008580
v 0.005552 -0.024995 0.009088
v 0.009351 -0.036643 0.020213
v 0.011243 -0.036347 0.020425
v 0.040995 -0.030862 0.024389
v 0.039812 -0.031091 0.024090
v 0.007055 -0.024813 0.009273
v 0.011243 -0.023074 0.009163
v 0.014555 -0.021163 0.009183
v 0.016559 -0.019452 0.009138
v 0.042665 -0.028664 0.024524
v 0.042122 -0.029687 0.025605
v 0.041037 -0.030891 0.027497
v 0.007444 -0.021803 0.008461
v 0.009351 -0.021803 0.008463
v 0.042039 -0.029304 0.027515
v 0.044071 -0.025893 0.027497
v 0.044599 -0.024947 0.027497
v 0.045184 -0.023705 0.027497
v 0.046450 -0.021125 0.026997
v 0.046770 -0.020035 0.027577
v 0.047550 -0.018000 0.027497
v 0.048385 -0.015649 0.027114
v 0.048635 -0.014368 0.027649
v 0.049206 -0.012314 0.027497
v 0.049567 -0.010422 0.027497
v 0.049915 -0.008558 0.027470
v 0.049456 -0.012314 0.025605
v 0.050082 -0.009237 0.025605
v 0.050249 -0.008281 0.025605
v 0.050486 -0.006628 0.025605
v 0.050291 -0.006628 0.027189
v 0.050347 -0.004813 0.027664
v 0.050625 -0.000942 0.027497
v 0.050013 -0.000942 0.029886
v 0.050625 0.000950 0.027497
v 0.050347 0.004791 0.027664
v 0.050291 0.006607 0.027193
v 0.050082 0.009225 0.025605
v 0.049456 0.012302 0.025605
v 0.049206 0.012302 0.027497
v 0.050486 0.006607 0.025605
v 0.050249 0.008279 0.025605
v 0.048635 0.014376 0.027654
v 0.047063 0.018007 0.029395
v 0.048385 0.015637 0.027124
v 0.047550 0.018007 0.027497
v 0.045198 0.023683 0.027497
v 0.046784 0.020014 0.027582
v 0.044043 0.025939 0.027497
v 0.044599 0.024945 0.027497
v 0.043069 0.027620 0.027525
v 0.045448 0.023683 0.025605
v 0.046478 0.021189 0.024501
v 0.023795 0.009942 0.009228
v 0.024032 0.008528 0.009033
v 0.024310 0.006626 0.008969
v 0.024519 0.002832 0.008745
v 0.024519 0.000950 0.008657
v 0.022626 -0.006628 0.008461
v 0.011243 -0.021803 0.008655
v 0.009351 -0.023475 0.008974
v 0.018424 -0.017637 0.009138
v 0.020219 -0.015706 0.009138
v 0.021889 -0.013614 0.009250
v 0.013010 -0.021803 0.009043
v 0.015126 -0.020016 0.008891
v 0.017088 -0.018162 0.008867
v 0.044655 -0.025052 0.024449
v 0.044739 -0.025214 0.025605
v 0.042707 -0.028731 0.025605
v 0.042623 -0.028607 0.026892
v 0.015028 -0.018019 0.008461
v 0.013136 -0.019911 0.008491
v 0.045448 -0.023705 0.025605
v 0.046534 -0.021325 0.025605
v 0.047118 -0.019901 0.025605
v 0.047814 -0.018000 0.025605
v 0.048176 -0.016920 0.025605
v 0.048468 -0.015974 0.025605
v 0.048983 -0.014206 0.025605
v 0.050207 -0.008148 0.024539
v 0.048398 -0.015764 0.024474
v 0.050681 -0.004727 0.025605
v 0.050903 -0.000942 0.025605
v 0.050862 0.000950 0.025605
v 0.050778 0.002823 0.025605
v 0.050681 0.004724 0.025605
v 0.050207 0.008126 0.024539
v 0.048398 0.015752 0.024474
v 0.048997 0.014194 0.025605
v 0.048176 0.016927 0.025605
v 0.047814 0.018007 0.025605
v 0.047118 0.019899 0.025605
v 0.046450 0.021113 0.027007
v 0.046534 0.021304 0.025605
v 0.046729 0.019899 0.024322
v 0.025632 0.002832 0.009253
v 0.048621 0.014194 0.024310
v 0.025716 0.000950 0.009168
v 0.024519 -0.000942 0.008665
v 0.024519 -0.002834 0.008742
v 0.022626 -0.008530 0.008540
v 0.018827 -0.014216 0.008461
v 0.018966 -0.016251 0.008867
v 0.020803 -0.014235 0.008934
v 0.022237 -0.012323 0.009053
v 0.016935 -0.016127 0.008461
v 0.046478 -0.021211 0.024501
v 0.023767 -0.009954 0.009248
v 0.050305 -0.006628 0.024424
v 0.048621 -0.014206 0.024310
v 0.025632 -0.002834 0.009250
v 0.046729 -0.019901 0.024322
v 0.024018 -0.008530 0.009051
v 0.050416 -0.004727 0.024357
v 0.050472 -0.002834 0.024320
v 0.050514 -0.000942 0.024292
v 0.050514 0.000950 0.024292
v 0.050416 0.004724 0.024357
v 0.050305 0.006607 0.024424
v 0.025702 -0.000942 0.009175
v 0.024296 -0.006628 0.008969
v 0.022765 -0.010527 0.008931
v 0.020734 -0.012323 0.008543
v 0.025549 -0.004163 0.009370
f 3 4 1
f 13 4 3
f 136 212 141
f 37 38 4
f 113 102 59
f 140 136 113
f 113 136 102
f 114 136 141
f 102 136 114
f 63 61 117
f 63 62 61
f 212 136 211
f 136 210 211
f 281 213 280
f 280 339 281
f 1 4 5
f 4 40 5
f 4 38 39
f 39 40 4
f 36 37 4
f 38 37 36
f 41 38 75
f 38 74 75
f 53 14 50
f 50 14 12
f 140 113 112
f 112 113 59
f 139 136 140
f 139 205 136
f 213 205 139
f 140 112 139
f 59 102 103
f 103 104 59
f 102 114 103
f 103 114 104
f 115 144 145
f 114 144 115
f 104 114 60
f 60 115 61
f 114 115 60
f 4 34 35
f 35 36 4
f 65 36 35
f 61 62 35
f 62 63 35
f 35 51 59
f 35 60 61
f 143 144 114
f 119 63 118
f 118 63 117
f 144 143 142
f 141 212 142
f 212 214 142
f 142 114 141
f 142 143 114
f 212 277 278
f 271 277 212
f 212 211 271
f 276 211 275
f 275 333 276
f 329 271 276
f 276 271 211
f 329 276 334
f 334 276 333
f 281 339 340
f 339 334 340
f 340 334 333
f 100 135 101
f 277 271 331
f 335 277 331
f 25 4 13
f 25 26 4
f 27 28 4
f 4 26 27
f 4 31 32
f 4 28 29
f 44 45 10
f 95 53 50
f 15 16 3
f 3 14 15
f 10 45 46
f 46 12 10
f 46 45 85
f 85 86 46
f 11 12 14
f 11 14 3
f 213 139 138
f 138 139 112
f 266 205 213
f 266 213 281
f 281 267 266
f 117 61 116
f 61 115 116
f 58 35 34
f 65 35 64
f 64 35 63
f 68 35 67
f 375 380 349
f 349 380 381
f 41 10 9
f 9 8 41
f 9 10 1
f 1 8 9
f 40 39 6
f 6 5 40
f 6 39 38
f 1 5 6
f 6 38 41
f 73 74 38
f 38 72 73
f 71 72 38
f 41 78 79
f 41 75 77
f 77 78 41
f 3 19 20
f 3 16 17
f 97 105 59
f 59 51 97
f 13 3 24
f 24 52 13
f 23 52 24
f 3 23 24
f 33 34 4
f 4 32 33
f 30 31 4
f 4 29 30
f 127 86 85
f 351 302 300
f 300 350 351
f 299 350 300
f 300 232 299
f 236 302 303
f 302 354 303
f 119 118 147
f 145 144 147
f 144 142 147
f 235 302 236
f 121 188 122
f 42 10 41
f 41 76 42
f 42 76 81
f 93 95 94
f 94 95 50
f 14 53 54
f 54 15 14
f 53 99 54
f 50 12 49
f 12 48 49
f 49 94 50
f 49 48 93
f 93 94 49
f 93 48 92
f 47 48 12
f 12 46 47
f 2 3 1
f 2 11 3
f 12 11 2
f 1 10 2
f 10 12 2
f 59 105 106
f 208 268 269
f 207 268 208
f 136 207 208
f 206 207 136
f 206 268 207
f 136 205 206
f 267 268 206
f 205 266 206
f 206 266 267
f 269 268 273
f 328 268 267
f 328 273 268
f 146 116 115
f 146 115 145
f 146 118 117
f 117 116 146
f 145 147 146
f 146 147 118
f 67 35 66
f 35 58 66
f 51 35 69
f 35 68 69
f 344 375 349
f 343 375 344
f 336 277 335
f 335 375 336
f 298 350 299
f 298 297 350
f 299 232 298
f 232 231 298
f 329 334 371
f 391 371 370
f 370 326 369
f 369 391 370
f 370 371 334
f 55 100 101
f 55 99 100
f 16 15 55
f 15 54 55
f 55 54 99
f 100 99 98
f 98 95 93
f 53 95 98
f 98 99 53
f 135 100 134
f 264 265 202
f 325 265 264
f 326 265 325
f 335 331 373
f 373 391 369
f 380 375 376
f 376 381 380
f 376 375 335
f 335 373 376
f 376 373 381
f 351 385 352
f 352 302 351
f 366 364 387
f 366 385 384
f 384 388 366
f 384 383 388
f 384 385 351
f 351 383 384
f 7 8 1
f 1 6 7
f 41 8 7
f 7 6 41
f 38 36 70
f 70 71 38
f 41 79 80
f 80 76 41
f 81 76 80
f 121 122 80
f 80 122 81
f 120 75 74
f 120 77 75
f 3 20 21
f 18 20 19
f 18 19 3
f 3 17 18
f 18 17 16
f 105 97 96
f 96 97 51
f 193 194 126
f 86 127 128
f 197 198 128
f 128 194 197
f 236 303 304
f 304 303 354
f 253 254 182
f 215 142 214
f 188 190 189
f 190 125 189
f 191 190 255
f 191 125 190
f 126 125 191
f 43 44 10
f 10 42 43
f 91 48 90
f 91 92 48
f 90 132 91
f 107 106 105
f 107 108 59
f 59 106 107
f 111 112 59
f 59 110 111
f 111 110 112
f 59 108 109
f 109 110 59
f 108 110 109
f 137 110 108
f 137 138 112
f 112 110 137
f 209 210 136
f 136 208 209
f 209 208 269
f 209 211 210
f 269 273 270
f 270 209 269
f 211 209 270
f 327 267 281
f 327 328 267
f 281 340 327
f 327 340 333
f 347 291 289
f 294 291 347
f 349 294 347
f 337 278 277
f 277 336 337
f 342 375 343
f 232 300 233
f 294 295 230
f 230 291 294
f 230 295 296
f 296 297 230
f 297 298 230
f 230 298 231
f 330 271 329
f 329 371 330
f 330 331 271
f 374 334 339
f 374 370 334
f 135 134 131
f 131 134 132
f 86 128 129
f 130 202 203
f 135 131 203
f 203 131 130
f 264 323 324
f 324 325 264
f 324 323 364
f 324 364 366
f 366 325 324
f 369 326 368
f 388 379 368
f 369 381 390
f 390 373 369
f 381 373 390
f 386 387 354
f 386 352 385
f 386 385 366
f 366 387 386
f 350 297 348
f 348 297 296
f 296 295 348
f 348 294 349
f 348 295 294
f 57 21 20
f 20 18 57
f 22 21 23
f 22 23 3
f 3 21 22
f 252 254 253
f 250 251 252
f 255 193 192
f 192 193 126
f 192 191 255
f 126 191 192
f 126 194 195
f 194 128 195
f 320 356 363
f 261 320 262
f 261 262 197
f 357 356 358
f 357 312 307
f 358 312 357
f 365 356 355
f 354 387 355
f 355 364 365
f 355 387 364
f 309 305 238
f 309 355 305
f 179 251 250
f 170 235 236
f 239 238 307
f 239 172 238
f 236 304 237
f 237 304 238
f 289 291 290
f 216 147 142
f 142 215 216
f 81 122 123
f 123 122 188
f 188 189 123
f 82 42 81
f 82 123 124
f 81 123 82
f 82 43 42
f 44 43 82
f 84 127 85
f 44 82 84
f 84 82 124
f 126 127 84
f 84 124 125
f 84 125 126
f 132 134 133
f 133 91 132
f 133 134 100
f 133 98 93
f 100 98 133
f 93 92 133
f 92 91 133
f 272 273 211
f 211 270 272
f 272 270 273
f 328 327 274
f 275 211 274
f 211 273 274
f 273 328 274
f 346 347 289
f 349 347 346
f 341 336 375
f 375 342 341
f 343 344 288
f 301 233 300
f 234 233 301
f 302 235 301
f 301 300 302
f 235 234 301
f 292 230 293
f 291 230 292
f 372 371 391
f 372 330 371
f 391 373 372
f 372 373 331
f 331 330 372
f 204 202 130
f 264 202 204
f 204 263 264
f 321 263 262
f 321 320 363
f 262 320 321
f 87 46 86
f 87 47 46
f 130 131 88
f 88 129 130
f 47 87 88
f 86 129 88
f 88 87 86
f 199 128 198
f 198 129 199
f 199 129 128
f 200 129 198
f 200 198 197
f 197 262 200
f 262 263 200
f 326 325 367
f 367 368 326
f 388 368 367
f 366 388 367
f 367 325 366
f 389 368 379
f 389 392 381
f 379 392 389
f 389 381 369
f 369 368 389
f 353 386 354
f 352 386 353
f 353 354 302
f 302 352 353
f 351 350 382
f 382 383 351
f 388 383 382
f 382 379 388
f 379 348 378
f 378 392 379
f 378 348 349
f 349 381 378
f 381 392 378
f 56 18 16
f 56 57 18
f 194 193 258
f 193 257 258
f 197 194 258
f 255 254 318
f 196 128 127
f 196 195 128
f 196 127 126
f 126 195 196
f 359 320 360
f 358 356 359
f 356 320 359
f 317 252 314
f 314 261 317
f 314 252 251
f 314 251 248
f 362 361 360
f 360 320 362
f 307 312 310
f 310 242 307
f 356 357 306
f 306 355 356
f 305 355 306
f 306 357 307
f 307 238 306
f 238 305 306
f 308 309 238
f 308 304 354
f 238 304 308
f 354 355 308
f 355 309 308
f 184 185 121
f 255 185 184
f 121 185 186
f 255 190 186
f 186 185 255
f 181 182 121
f 253 182 181
f 181 252 253
f 250 252 181
f 121 177 178
f 178 179 121
f 171 172 121
f 121 170 171
f 238 172 171
f 171 237 238
f 171 170 236
f 236 237 171
f 235 170 169
f 169 170 121
f 174 175 121
f 176 175 242
f 176 177 121
f 121 175 176
f 307 242 241
f 242 175 241
f 166 233 234
f 232 233 166
f 154 155 119
f 85 45 83
f 83 84 85
f 45 44 83
f 44 84 83
f 275 274 332
f 332 274 327
f 332 333 275
f 332 327 333
f 345 344 349
f 349 346 345
f 345 346 289
f 289 288 345
f 345 288 344
f 338 337 336
f 336 283 338
f 278 337 338
f 286 341 342
f 286 342 343
f 343 288 286
f 225 288 289
f 293 230 229
f 230 163 229
f 363 356 322
f 322 321 363
f 322 356 365
f 365 364 322
f 364 323 322
f 322 323 264
f 264 263 322
f 263 321 322
f 89 131 132
f 89 88 131
f 90 48 89
f 89 132 90
f 48 47 89
f 47 88 89
f 201 200 263
f 129 200 201
f 263 204 201
f 130 129 201
f 201 204 130
f 350 348 377
f 377 382 350
f 377 348 379
f 379 382 377
f 259 258 257
f 197 258 259
f 257 318 316
f 317 261 316
f 316 261 257
f 316 252 317
f 254 252 316
f 316 318 254
f 255 318 256
f 256 318 257
f 256 193 255
f 256 257 193
f 313 312 358
f 358 359 313
f 313 359 360
f 248 311 313
f 361 362 319
f 261 314 319
f 319 314 361
f 320 261 319
f 319 362 320
f 311 243 247
f 242 310 247
f 243 176 247
f 247 310 312
f 312 313 247
f 247 313 311
f 183 254 255
f 255 184 183
f 183 182 254
f 121 182 183
f 183 184 121
f 187 190 188
f 187 186 190
f 187 188 121
f 121 186 187
f 121 179 180
f 180 181 121
f 180 179 250
f 250 181 180
f 248 178 244
f 244 178 177
f 244 311 248
f 244 243 311
f 244 176 243
f 249 178 248
f 179 178 249
f 248 251 249
f 251 179 249
f 240 239 307
f 307 241 240
f 175 174 240
f 240 241 175
f 227 290 291
f 289 290 227
f 167 234 168
f 167 166 234
f 167 168 119
f 119 166 167
f 119 163 164
f 164 231 232
f 164 230 231
f 164 163 230
f 119 152 153
f 153 154 119
f 217 216 215
f 147 216 217
f 278 338 279
f 279 214 212
f 212 278 279
f 279 215 214
f 279 217 215
f 155 154 223
f 257 261 260
f 260 259 257
f 260 261 197
f 197 259 260
f 360 361 315
f 315 313 360
f 248 313 315
f 315 314 248
f 361 314 315
f 246 176 242
f 242 247 246
f 246 247 176
f 177 176 245
f 245 244 177
f 176 244 245
f 173 240 174
f 121 172 173
f 173 174 121
f 172 239 173
f 239 240 173
f 119 159 160
f 160 161 119
f 159 227 160
f 162 229 163
f 162 163 119
f 119 161 162
f 226 225 289
f 289 227 226
f 165 166 119
f 119 164 165
f 232 166 165
f 165 164 232
f 147 217 148
f 148 217 149
f 119 147 148
f 148 149 119
f 119 149 150
f 149 217 150
f 217 218 150
f 282 279 338
f 217 279 282
f 282 218 217
f 282 338 283
f 283 218 282
f 284 283 336
f 284 220 283
f 221 153 152
f 152 220 221
f 154 153 221
f 222 223 154
f 154 221 222
f 222 221 220
f 288 225 222
f 225 223 222
f 161 160 228
f 291 292 228
f 228 227 291
f 228 160 227
f 228 292 293
f 293 229 228
f 229 162 228
f 228 162 161
f 225 226 157
f 158 227 159
f 158 226 227
f 158 157 226
f 158 159 119
f 119 157 158
f 151 152 119
f 119 150 151
f 220 284 285
f 286 222 285
f 285 222 220
f 341 286 285
f 336 341 285
f 285 284 336
f 287 286 288
f 288 222 287
f 287 222 286
f 155 223 224
f 224 223 225
f 225 157 224
f 219 150 218
f 219 151 150
f 219 218 283
f 283 220 219
f 219 220 152
f 152 151 219
f 155 224 156
f 156 224 157
f 119 155 156
f 156 157 119
f 104 60 35
f 59 104 35
f 69 29 28
f 13 51 69
f 28 27 69
f 69 58 34
f 69 25 13
f 67 66 69
f 26 25 69
f 69 27 26
f 69 32 31
f 34 33 69
f 31 30 69
f 69 68 67
f 69 33 32
f 69 30 29
f 69 66 58
f 120 36 65
f 120 70 36
f 120 63 119
f 119 121 120
f 65 64 120
f 74 73 120
f 121 80 120
f 120 64 63
f 120 73 72
f 72 71 120
f 120 79 78
f 78 77 120
f 71 70 120
f 120 80 79
f 96 51 13
f 13 52 96
f 125 124 123
f 123 189 125
f 135 203 56
f 56 280 213
f 101 135 56
f 56 137 108
f 339 280 56
f 56 55 101
f 56 374 339
f 213 138 56
f 56 52 23
f 105 96 56
f 56 107 105
f 56 265 326
f 326 370 56
f 16 55 56
f 56 202 265
f 23 21 56
f 56 96 52
f 108 107 56
f 138 137 56
f 370 374 56
f 56 203 202
f 21 57 56
f 169 234 235
f 168 234 169
f 169 121 119
f 119 168 169
