v -0.046545 0.019000 -0.152250
v -0.050904 0.019000 -0.144952
v -0.051786 0.019000 -0.143105
v -0.056542 0.019000 -0.125979
v -0.056788 0.019000 -0.123258
v -0.054127 0.019000 -0.137087
v -0.054427 0.019000 -0.136135
v -0.055357 0.019000 -0.132714
v -0.055444 0.019000 -0.132342
v -0.056142 0.019000 -0.128829
v -0.042202 0.019000 -0.157684
v -0.043551 0.019000 -0.156138
v -0.045530 0.019000 -0.153647
v -0.033452 0.019000 -0.165543
v -0.036306 0.019000 -0.163328
v -0.039937 0.019000 -0.160047
v -0.042093 0.019000 -0.157804
v -0.016763 0.019000 -0.173887
v -0.008476 0.019000 -0.175777
v -0.018406 0.019000 -0.173354
v -0.022801 0.019000 -0.171645
v -0.026222 0.019000 -0.170012
v -0.029803 0.019000 -0.167985
v -0.007772 0.019000 -0.175879
v 0.000000 0.019000 -0.176412
v 0.007772 0.019000 -0.175879
v 0.008476 0.019000 -0.175777
v 0.016763 0.019000 -0.173887
v 0.018406 0.019000 -0.173354
v 0.022801 0.019000 -0.171645
v 0.026222 0.019000 -0.170012
v 0.029803 0.019000 -0.167985
v 0.033452 0.019000 -0.165543
v 0.056901 0.019000 -0.120638
v 0.045530 0.019000 -0.153647
v 0.042202 0.019000 -0.157684
v 0.042093 0.019000 -0.157804
v 0.039937 0.019000 -0.160047
v 0.050904 0.019000 -0.144952
v 0.046545 0.019000 -0.152250
v 0.036306 0.019000 -0.163328
v 0.056788 0.019000 -0.123258
v 0.055357 0.019000 -0.132714
v 0.054427 0.019000 -0.136135
v 0.056542 0.019000 -0.125979
v 0.056142 0.019000 -0.128829
v 0.055444 0.019000 -0.132342
v 0.051786 0.019000 -0.143105
v 0.054127 0.019000 -0.137087
v 0.017115 0.018829 -0.173837
v 0.017692 0.018737 -0.173684
v 0.046162 0.018737 -0.152936
v 0.045786 0.018828 -0.153399
v 0.047341 0.016481 -0.152473
v 0.015412 0.018930 -0.174310
v 0.051717 0.017038 -0.144701
v 0.036284 0.015600 -0.164668
v 0.055221 0.017728 -0.134873
v 0.029789 0.017002 -0.168729
v 0.022792 0.018119 -0.171962
v -0.051717 0.017038 -0.144701
v -0.018018 0.018801 -0.173554
v -0.022792 0.018119 -0.171962
v -0.017408 0.018751 -0.173771
v -0.015412 0.018930 -0.174310
v -0.029789 0.017002 -0.168729
v -0.036284 0.015600 -0.164668
v -0.046388 0.018828 -0.152570
v -0.046065 0.018737 -0.153070
v -0.047341 0.016481 -0.152473
v -0.045820 0.018811 -0.153363
v -0.055221 0.017728 -0.134873
v -0.010221 -0.061659 0.058500
v -0.028686 -0.055528 0.058500
v -0.055756 -0.028241 0.058500
v -0.005377 -0.062268 0.058500
v -0.000500 -0.062498 0.058500
v -0.024264 -0.057598 0.058500
v -0.019694 -0.059316 0.058500
v -0.015003 -0.060672 0.058500
v -0.044371 -0.044017 0.058500
v -0.061738 -0.009728 0.058500
v -0.040799 -0.047346 0.058500
v -0.036979 -0.050387 0.058500
v -0.032933 -0.053119 0.058500
v -0.053381 -0.032507 0.058500
v -0.050681 -0.036575 0.058500
v -0.047671 -0.040419 0.058500
v -0.060791 -0.014517 0.058500
v -0.059472 -0.019218 0.058500
v -0.057790 -0.023802 0.058500
v -0.062309 0.004879 0.058500
v -0.062500 -0.000000 0.058500
v -0.062309 -0.004879 0.058500
v -0.060791 0.014517 0.058500
v -0.061738 0.009728 0.058500
v -0.057790 0.023802 0.058500
v -0.059472 0.019218 0.058500
v -0.053381 0.032507 0.058500
v -0.055756 0.028241 0.058500
v -0.047671 0.040419 0.058500
v -0.050681 0.036575 0.058500
v -0.024264 0.057598 0.058500
v -0.015003 0.060672 0.058500
v -0.019694 0.059316 0.058500
v -0.000500 0.062498 0.058500
v -0.005377 0.062268 0.058500
v -0.010221 0.061659 0.058500
v -0.040799 0.047346 0.058500
v -0.044371 0.044017 0.058500
v -0.028686 0.055528 0.058500
v -0.032933 0.053119 0.058500
v -0.036979 0.050387 0.058500
v -0.050277 0.037963 -0.000007
v -0.051086 0.036867 0.058000
v -0.056202 -0.028467 0.058000
v -0.059948 -0.019372 0.058000
v -0.058253 -0.023993 0.058000
v -0.059948 0.019372 0.058000
v -0.056202 0.028467 0.058000
v -0.058253 0.023993 0.058000
v -0.053808 0.032767 0.058000
v -0.000504 0.062998 0.058000
v -0.005420 0.062766 0.058000
v -0.010303 0.062152 0.058000
v -0.015123 0.061158 0.058000
v -0.019851 0.059791 0.058000
v -0.024458 0.058059 0.058000
v -0.028915 0.055972 0.058000
v -0.033196 0.053544 0.058000
v -0.037275 0.050790 0.058000
v -0.041126 0.047725 0.058000
v -0.044726 0.044369 0.058000
v -0.044726 0.044369 0.000000
v -0.048053 0.040743 0.058000
v -0.047469 0.041421 0.000000
v -0.050018 0.038304 0.000000
v -0.000504 -0.062998 0.058000
v -0.005420 -0.062766 0.058000
v -0.010303 -0.062152 0.058000
v -0.015123 -0.061158 0.058000
v -0.019851 -0.059791 0.058000
v -0.024458 -0.058059 0.058000
v -0.028915 -0.055972 0.058000
v -0.033196 -0.053544 0.058000
v -0.037275 -0.050790 0.058000
v -0.041126 -0.047725 0.058000
v -0.044726 -0.044369 0.058000
v -0.048053 -0.040743 0.058000
v -0.051086 -0.036867 0.058000
v -0.053808 -0.032767 0.058000
v -0.072000 -0.005171 -0.020000
v -0.072000 -0.005171 0.028763
v -0.072000 -0.003513 0.028912
v -0.072000 0.005171 0.028763
v -0.072000 0.005171 -0.020000
v -0.072000 0.001664 0.029012
v -0.072000 -0.000000 0.029041
v -0.069124 0.012965 -0.020000
v -0.069876 0.011988 0.028763
v -0.070132 0.011602 -0.020000
v -0.070937 0.010110 -0.020000
v -0.071231 0.009399 0.028763
v -0.071523 0.008519 -0.020000
v -0.071919 0.006559 0.028763
v -0.071880 0.006862 -0.020000
v -0.071314 0.005598 0.032738
v -0.071373 0.007041 0.032102
v -0.070847 0.009737 0.031106
v -0.069678 0.012162 0.029970
v -0.069826 0.012032 0.029380
v -0.071134 0.009485 0.029962
v -0.071781 0.006681 0.030472
v -0.071845 0.005377 0.030676
v -0.070132 -0.011602 0.028763
v -0.071231 -0.009399 0.028763
v -0.071731 -0.007697 -0.020000
v -0.071919 -0.006559 0.028763
v -0.071845 -0.005377 0.030676
v -0.071319 -0.003803 0.032886
v -0.071314 -0.005598 0.032738
v -0.071324 -0.000000 0.033013
v -0.071323 0.001802 0.032984
v -0.069678 -0.012162 0.029970
v -0.069826 -0.012032 0.029380
v -0.071781 -0.006681 0.030472
v -0.071373 -0.007041 0.032102
v -0.071134 -0.009485 0.029962
v -0.070847 -0.009737 0.031106
v -0.000502 0.062748 0.058433
v -0.005399 0.062517 0.058433
v -0.000503 0.062931 0.058250
v -0.005414 0.062700 0.058250
v -0.010292 0.062086 0.058250
v -0.015107 0.061093 0.058250
v -0.019830 0.059727 0.058250
v -0.024432 0.057997 0.058250
v -0.028885 0.055913 0.058250
v -0.033161 0.053487 0.058250
v -0.037235 0.050736 0.058250
v -0.041082 0.047674 0.058250
v -0.044678 0.044322 0.058250
v -0.048001 0.040699 0.058250
v -0.051032 0.036828 0.058250
v -0.053751 0.032732 0.058250
v -0.056142 0.028436 0.058250
v -0.058191 0.023967 0.058250
v -0.059884 0.019352 0.058250
v -0.061212 0.014618 0.058250
v -0.062166 0.009795 0.058250
v -0.062741 0.004913 0.058250
v -0.062933 -0.000000 0.058250
v -0.062741 -0.004913 0.058250
v -0.062166 -0.009795 0.058250
v -0.061212 -0.014618 0.058250
v -0.059884 -0.019352 0.058250
v -0.058191 -0.023967 0.058250
v -0.056142 -0.028436 0.058250
v -0.053751 -0.032732 0.058250
v -0.051032 -0.036828 0.058250
v -0.048001 -0.040699 0.058250
v -0.044678 -0.044322 0.058250
v -0.041082 -0.047674 0.058250
v -0.037235 -0.050736 0.058250
v -0.033161 -0.053487 0.058250
v -0.028885 -0.055913 0.058250
v -0.024432 -0.057997 0.058250
v -0.019830 -0.059727 0.058250
v -0.015107 -0.061093 0.058250
v -0.010292 -0.062086 0.058250
v -0.005414 -0.062700 0.058250
v -0.000503 -0.062931 0.058250
v -0.010262 0.061905 0.058433
v -0.015063 0.060915 0.058433
v -0.019772 0.059553 0.058433
v -0.024361 0.057828 0.058433
v -0.028801 0.055750 0.058433
v -0.033065 0.053332 0.058433
v -0.037127 0.050588 0.058433
v -0.040962 0.047536 0.058433
v -0.044548 0.044193 0.058433
v -0.047862 0.040581 0.058433
v -0.050884 0.036721 0.058433
v -0.053595 0.032637 0.058433
v -0.055979 0.028354 0.058433
v -0.058021 0.023897 0.058433
v -0.059710 0.019295 0.058433
v -0.061034 0.014575 0.058433
v -0.061985 0.009767 0.058433
v -0.062559 0.004898 0.058433
v -0.062750 -0.000000 0.058433
v -0.062559 -0.004898 0.058433
v -0.061985 -0.009767 0.058433
v -0.061034 -0.014575 0.058433
v -0.059710 -0.019295 0.058433
v -0.058021 -0.023897 0.058433
v -0.055979 -0.028354 0.058433
v -0.053595 -0.032637 0.058433
v -0.050884 -0.036721 0.058433
v -0.047862 -0.040581 0.058433
v -0.044548 -0.044193 0.058433
v -0.040962 -0.047536 0.058433
v -0.037127 -0.050588 0.058433
v -0.033065 -0.053332 0.058433
v -0.028801 -0.055750 0.058433
v -0.024361 -0.057828 0.058433
v -0.019772 -0.059553 0.058433
v -0.015063 -0.060915 0.058433
v -0.010262 -0.061905 0.058433
v -0.005399 -0.062517 0.058433
v -0.000502 -0.062748 0.058433
v -0.034865 0.054292 -0.052967
v -0.034772 0.054368 -0.052985
v -0.034776 0.054532 -0.051500
v -0.034774 0.054446 -0.052576
v -0.034774 0.054443 -0.052596
v -0.034868 0.054454 -0.051500
v -0.034776 0.054532 -0.047500
v -0.034868 0.054454 -0.047500
v -0.034804 0.054496 -0.046280
v -0.027512 0.058675 -0.036832
v -0.028513 0.058178 -0.037287
v -0.029462 0.057687 -0.037832
v -0.030359 0.057203 -0.038468
v -0.031203 0.056730 -0.039195
v -0.031972 0.056284 -0.040001
v -0.032663 0.055871 -0.040881
v -0.033274 0.055496 -0.041839
v -0.033798 0.055167 -0.042876
v -0.034216 0.054899 -0.043967
v -0.034522 0.054699 -0.045108
v -0.034712 0.054574 -0.046295
v -0.025398 0.059654 -0.036212
v -0.026197 0.059295 -0.036395
v -0.026468 0.059170 -0.036471
v -0.024304 0.060123 -0.036054
v -0.023184 0.060579 -0.036000
v 0.019914 0.061770 -0.036000
v 0.018707 0.062158 -0.036000
v 0.013405 0.063557 -0.036000
v 0.009461 0.064286 -0.036000
v -0.019914 0.061770 -0.036000
v -0.018707 0.062158 -0.036000
v -0.014124 0.063396 -0.036000
v -0.013405 0.063557 -0.036000
v 0.006741 0.064638 -0.036000
v 0.004744 0.064821 -0.036000
v 0.000000 0.065000 -0.036000
v -0.004744 0.064821 -0.036000
v -0.006741 0.064638 -0.036000
v -0.009461 0.064286 -0.036000
v 0.014124 0.063396 -0.036000
v 0.023184 0.060579 -0.036000
v 0.024304 0.060123 -0.036054
v 0.025399 0.059653 -0.036212
v 0.026197 0.059295 -0.036395
v 0.026470 0.059169 -0.036472
v 0.027516 0.058674 -0.036833
v 0.028514 0.058178 -0.037288
v 0.029464 0.057686 -0.037834
v 0.030364 0.057200 -0.038472
v 0.031206 0.056728 -0.039199
v 0.031976 0.056282 -0.040005
v 0.032672 0.055866 -0.040894
v 0.033287 0.055488 -0.041861
v 0.033804 0.055163 -0.042891
v 0.034221 0.054895 -0.043985
v 0.034527 0.054696 -0.045131
v 0.034713 0.054574 -0.046302
v 0.034776 0.054532 -0.047500
v 0.034940 0.054352 -0.051500
v 0.034776 0.054532 -0.051500
v 0.034774 0.054443 -0.052599
v 0.034772 0.054371 -0.052974
v 0.034769 0.054268 -0.053380
v 0.030513 0.056552 -0.054269
v 0.030754 0.056984 -0.051500
v 0.030717 0.056918 -0.052596
v 0.026318 0.059156 -0.052596
v 0.026350 0.059225 -0.051500
v 0.021758 0.061043 -0.052596
v 0.021784 0.061114 -0.051500
v 0.019914 0.061770 -0.051500
v 0.017083 0.062640 -0.051500
v 0.017063 0.062567 -0.052596
v 0.013405 0.063557 -0.051500
v 0.012263 0.063718 -0.052596
v 0.012278 0.063792 -0.051500
v 0.007388 0.064489 -0.052596
v 0.007397 0.064564 -0.051500
v 0.002468 0.064876 -0.052596
v 0.002471 0.064952 -0.051500
v 0.006741 0.064638 -0.051500
v -0.013405 0.063557 -0.051500
v -0.012278 0.063792 -0.051500
v -0.012263 0.063718 -0.052596
v -0.007397 0.064564 -0.051500
v -0.007388 0.064489 -0.052596
v -0.006741 0.064638 -0.051500
v -0.002468 0.064876 -0.052596
v -0.002471 0.064952 -0.051500
v 0.000000 0.065000 -0.051500
v -0.030754 0.056984 -0.051500
v -0.017083 0.062640 -0.051500
v -0.017063 0.062567 -0.052596
v -0.019914 0.061770 -0.051500
v -0.021758 0.061043 -0.052596
v -0.021784 0.061114 -0.051500
v -0.026318 0.059156 -0.052596
v -0.026350 0.059225 -0.051500
v -0.030717 0.056918 -0.052596
v -0.030513 0.056552 -0.054269
v 0.026143 0.058776 -0.054269
v 0.021613 0.060650 -0.054269
v 0.016949 0.062164 -0.054269
v 0.012182 0.063307 -0.054269
v 0.007339 0.064073 -0.054269
v 0.002451 0.064457 -0.054269
v -0.002451 0.064457 -0.054269
v -0.007339 0.064073 -0.054269
v -0.012182 0.063307 -0.054269
v -0.016949 0.062164 -0.054269
v -0.021613 0.060650 -0.054269
v -0.026143 0.058776 -0.054269
v -0.053073 0.008450 -0.147486
v -0.053166 0.008650 -0.147309
v -0.050773 0.008450 -0.151470
v -0.052622 0.008450 -0.148327
v -0.050666 0.008650 -0.151639
v -0.031970 0.008450 -0.170273
v -0.032139 0.008650 -0.170166
v -0.027986 0.008450 -0.172573
v -0.027809 0.008650 -0.172666
v -0.002300 0.008450 -0.179456
v -0.002500 0.008650 -0.179448
v 0.002300 0.008450 -0.179456
v 0.002500 0.008650 -0.179448
v 0.027986 0.008450 -0.172573
v 0.027809 0.008650 -0.172666
v 0.031970 0.008450 -0.170273
v 0.032139 0.008650 -0.170166
v 0.050773 0.008450 -0.151470
v 0.050666 0.008650 -0.151639
v 0.053073 0.008450 -0.147486
v 0.052622 0.008450 -0.148327
v 0.053166 0.008650 -0.147309
v 0.056633 -0.029000 -0.139317
v 0.056824 -0.029000 -0.138764
v 0.058667 -0.029000 -0.132078
v 0.059114 -0.029000 -0.129772
v 0.059726 -0.029000 -0.125224
v 0.054221 -0.029000 -0.145192
v 0.052622 -0.029000 -0.148327
v 0.050894 -0.029000 -0.151277
v 0.047188 -0.029000 -0.156557
v 0.046888 -0.029000 -0.156937
v 0.042255 -0.029000 -0.162098
v 0.040480 -0.029000 -0.163787
v 0.037057 -0.029000 -0.166689
v 0.032678 -0.029000 -0.169820
v 0.031364 -0.029000 -0.170650
v 0.025253 -0.029000 -0.173927
v 0.023994 -0.029000 -0.174494
v 0.018804 -0.029000 -0.176477
v 0.014660 -0.029000 -0.177681
v 0.012103 -0.029000 -0.178267
v 0.005241 -0.029000 -0.179271
v -0.004931 -0.029000 -0.179297
v -0.001691 -0.029000 -0.179476
v 0.004931 -0.029000 -0.179297
v -0.015394 -0.029000 -0.177491
v -0.014660 -0.029000 -0.177681
v -0.008600 -0.029000 -0.178880
v -0.023994 -0.029000 -0.174494
v -0.021983 -0.029000 -0.175328
v -0.040480 -0.029000 -0.163787
v -0.039656 -0.029000 -0.164526
v -0.034196 -0.029000 -0.168802
v -0.032678 -0.029000 -0.169820
v -0.028278 -0.029000 -0.172418
v -0.044587 -0.029000 -0.159650
v -0.047188 -0.029000 -0.156557
v -0.048922 -0.029000 -0.154237
v -0.052604 -0.029000 -0.148359
v -0.055582 -0.029000 -0.142097
v -0.056633 -0.029000 -0.139317
v -0.057818 -0.029000 -0.135532
v -0.059114 -0.029000 -0.129772
v -0.059282 -0.029000 -0.128753
v 0.059956 0.008450 -0.121800
v 0.059948 0.008650 -0.122000
v 0.059948 0.009000 -0.122000
v 0.053166 0.009000 -0.147309
v 0.050666 0.009000 -0.151639
v 0.032139 0.009000 -0.170166
v 0.027809 0.009000 -0.172666
v 0.002500 0.009000 -0.179448
v -0.002500 0.009000 -0.179448
v -0.027809 0.009000 -0.172666
v -0.032139 0.009000 -0.170166
v -0.050666 0.009000 -0.151639
v -0.053166 0.009000 -0.147309
v -0.059114 0.009000 -0.129772
v -0.023994 0.009000 -0.174494
v 0.004931 0.009000 -0.179297
v 0.032678 0.009000 -0.169820
v 0.056633 0.009000 -0.139317
v 0.059114 0.009000 -0.129772
v 0.047188 0.009000 -0.156557
v 0.023994 0.009000 -0.174494
v -0.004931 0.009000 -0.179297
v -0.050397 0.009000 -0.152059
v -0.047188 0.009000 -0.156557
v -0.055617 0.009000 -0.142011
v -0.056633 0.009000 -0.139317
v 0.040480 0.009000 -0.163787
v 0.042684 0.009000 -0.161667
v 0.014660 0.009000 -0.177681
v -0.014660 0.009000 -0.177681
v -0.032678 0.009000 -0.169820
v -0.040480 0.009000 -0.163787
v 0.044885 0.046544 0.005435
v 0.045085 0.046344 0.005707
v 0.045053 0.046376 0.003327
v 0.044861 0.046568 0.003609
v 0.044727 0.046702 0.003952
v 0.044660 0.046768 0.004332
v 0.044666 0.046763 0.004724
v 0.044742 0.046687 0.005100
v 0.046139 0.045290 0.005875
v 0.045872 0.045556 0.005983
v 0.045290 0.046139 0.003125
v 0.045327 0.046102 0.005896
v 0.045596 0.045833 0.005991
v 0.046571 0.044858 0.003616
v 0.046569 0.044860 0.003611
v 0.046544 0.044885 0.003565
v 0.046344 0.045085 0.003293
v 0.046102 0.045327 0.003104
v 0.045833 0.045596 0.003009
v 0.045556 0.045872 0.003017
v 0.046376 0.045053 0.005673
v 0.046568 0.044861 0.005391
v 0.046702 0.044727 0.005048
v 0.046768 0.044660 0.004668
v 0.046763 0.044666 0.004276
v 0.046756 0.044673 0.004219
v 0.046756 0.044673 0.004214
v 0.046687 0.044742 0.003900
v 0.000500 0.062498 0.058500
v 0.004954 0.062303 0.058500
v 0.009383 0.061792 0.058500
v 0.013971 0.060919 0.058500
v 0.018480 0.059705 0.058500
v 0.022887 0.058159 0.058500
v 0.027166 0.056287 0.058500
v 0.031293 0.054101 0.058500
v 0.035246 0.051614 0.058500
v 0.039002 0.048838 0.058500
v 0.000500 -0.062498 0.058500
v 0.004954 -0.062303 0.058500
v 0.009383 -0.061792 0.058500
v 0.013971 -0.060919 0.058500
v 0.018480 -0.059705 0.058500
v 0.022887 -0.058159 0.058500
v 0.027166 -0.056287 0.058500
v 0.031293 -0.054101 0.058500
v 0.035246 -0.051614 0.058500
v 0.039002 -0.048838 0.058500
v 0.042540 -0.045789 0.058500
v 0.045840 -0.042484 0.058500
v 0.048885 -0.038943 0.058500
v 0.051656 -0.035184 0.058500
v 0.054139 -0.031228 0.058500
v 0.056320 -0.027098 0.058500
v 0.058186 -0.022817 0.058500
v 0.059728 -0.018408 0.058500
v 0.060935 -0.013897 0.058500
v 0.061803 -0.009308 0.058500
v 0.062326 -0.004667 0.058500
v 0.062500 -0.000000 0.058500
v 0.062326 0.004667 0.058500
v 0.061803 0.009308 0.058500
v 0.060935 0.013897 0.058500
v 0.059728 0.018408 0.058500
v 0.058186 0.022817 0.058500
v 0.056320 0.027098 0.058500
v 0.054139 0.031228 0.058500
v 0.051656 0.035184 0.058500
v 0.048885 0.038943 0.058500
v 0.045840 0.042484 0.058500
v 0.042540 0.045789 0.058500
v 0.042880 0.046155 0.058000
v 0.049276 0.039254 0.058000
v 0.046207 0.042824 0.058000
v 0.000504 0.062998 0.058000
v 0.004993 0.062802 0.058000
v 0.009458 0.062286 0.058000
v 0.014082 0.061406 0.058000
v 0.018628 0.060183 0.058000
v 0.023070 0.058624 0.058000
v 0.027384 0.056737 0.058000
v 0.031544 0.054534 0.058000
v 0.035528 0.052027 0.058000
v 0.039314 0.049228 0.058000
v 0.042880 -0.046155 0.058000
v 0.046207 -0.042824 0.058000
v 0.049276 -0.039254 0.058000
v 0.052069 -0.035465 0.058000
v 0.054572 -0.031478 0.058000
v 0.056770 -0.027315 0.058000
v 0.058652 -0.023000 0.058000
v 0.060205 -0.018556 0.058000
v 0.061423 -0.014008 0.058000
v 0.062297 -0.009383 0.058000
v 0.062824 -0.004704 0.058000
v 0.062824 -0.004704 0.000000
v 0.063000 -0.000000 0.058000
v 0.063000 -0.000000 0.000000
v 0.062824 0.004704 0.058000
v 0.062824 0.004704 0.000000
v 0.062297 0.009383 0.058000
v 0.062297 0.009383 0.000000
v 0.061423 0.014008 0.058000
v 0.061423 0.014008 0.000000
v 0.060205 0.018556 0.058000
v 0.060205 0.018556 0.000000
v 0.058652 0.023000 0.058000
v 0.058652 0.023000 0.000000
v 0.056770 0.027315 0.058000
v 0.056770 0.027315 0.000000
v 0.054572 0.031478 0.058000
v 0.054572 0.031478 0.000000
v 0.052069 0.035465 0.058000
v 0.039314 -0.049228 0.058000
v 0.035528 -0.052027 0.058000
v 0.031544 -0.054534 0.058000
v 0.027384 -0.056737 0.058000
v 0.023070 -0.058624 0.058000
v 0.018628 -0.060183 0.058000
v 0.014082 -0.061406 0.058000
v 0.009458 -0.062286 0.058000
v 0.004993 -0.062802 0.058000
v 0.000504 -0.062998 0.058000
v 0.000503 -0.062931 0.058250
v 0.000502 -0.062748 0.058433
v 0.000503 0.062852 0.058354
v 0.000502 0.062748 0.058433
v 0.004974 0.062553 0.058433
v 0.009420 0.062039 0.058433
v 0.014026 0.061162 0.058433
v 0.018554 0.059944 0.058433
v 0.022979 0.058391 0.058433
v 0.027275 0.056512 0.058433
v 0.031419 0.054318 0.058433
v 0.035387 0.051820 0.058433
v 0.039158 0.049033 0.058433
v 0.042710 0.045972 0.058433
v 0.046023 0.042654 0.058433
v 0.049080 0.039099 0.058433
v 0.051863 0.035325 0.058433
v 0.054356 0.031353 0.058433
v 0.056545 0.027207 0.058433
v 0.058419 0.022908 0.058433
v 0.059966 0.018482 0.058433
v 0.061179 0.013953 0.058433
v 0.062050 0.009345 0.058433
v 0.062575 0.004686 0.058433
v 0.062750 -0.000000 0.058433
v 0.062575 -0.004686 0.058433
v 0.062050 -0.009345 0.058433
v 0.061179 -0.013953 0.058433
v 0.059966 -0.018482 0.058433
v 0.058419 -0.022908 0.058433
v 0.056545 -0.027207 0.058433
v 0.054356 -0.031353 0.058433
v 0.051863 -0.035325 0.058433
v 0.049080 -0.039099 0.058433
v 0.046023 -0.042654 0.058433
v 0.042710 -0.045972 0.058433
v 0.039158 -0.049033 0.058433
v 0.035387 -0.051820 0.058433
v 0.031419 -0.054318 0.058433
v 0.027275 -0.056512 0.058433
v 0.022979 -0.058391 0.058433
v 0.018554 -0.059944 0.058433
v 0.014026 -0.061162 0.058433
v 0.009420 -0.062039 0.058433
v 0.004974 -0.062553 0.058433
v 0.000504 0.062960 0.058191
v 0.000503 0.062931 0.058250
v 0.004988 0.062735 0.058250
v 0.009448 0.062220 0.058250
v 0.014067 0.061341 0.058250
v 0.018608 0.060119 0.058250
v 0.023046 0.058562 0.058250
v 0.027354 0.056677 0.058250
v 0.031510 0.054476 0.058250
v 0.035490 0.051971 0.058250
v 0.039272 0.049176 0.058250
v 0.042834 0.046106 0.058250
v 0.046158 0.042779 0.058250
v 0.049223 0.039213 0.058250
v 0.052014 0.035428 0.058250
v 0.054514 0.031445 0.058250
v 0.056710 0.027286 0.058250
v 0.058589 0.022975 0.058250
v 0.060141 0.018536 0.058250
v 0.061358 0.013993 0.058250
v 0.062231 0.009373 0.058250
v 0.062757 0.004699 0.058250
v 0.062933 -0.000000 0.058250
v 0.062757 -0.004699 0.058250
v 0.062231 -0.009373 0.058250
v 0.061358 -0.013993 0.058250
v 0.060141 -0.018536 0.058250
v 0.058589 -0.022975 0.058250
v 0.056710 -0.027286 0.058250
v 0.054514 -0.031445 0.058250
v 0.052014 -0.035428 0.058250
v 0.049223 -0.039213 0.058250
v 0.046158 -0.042779 0.058250
v 0.042834 -0.046106 0.058250
v 0.039272 -0.049176 0.058250
v 0.035490 -0.051971 0.058250
v 0.031510 -0.054476 0.058250
v 0.027354 -0.056677 0.058250
v 0.023046 -0.058562 0.058250
v 0.018608 -0.060119 0.058250
v 0.014067 -0.061341 0.058250
v 0.009448 -0.062220 0.058250
v 0.004988 -0.062735 0.058250
v 0.000428 0.062675 0.058462
v 0.058532 -0.039000 -0.132500
v 0.059445 -0.032000 -0.127500
v 0.059435 -0.031463 -0.127573
v 0.059377 -0.030706 -0.127975
v 0.059989 -0.049908 -0.120707
v 0.059445 -0.042000 -0.127500
v 0.059455 -0.043071 -0.127428
v 0.059512 -0.044770 -0.127005
v 0.059607 -0.046314 -0.126237
v 0.059680 -0.047196 -0.125583
v 0.059841 -0.048744 -0.123803
v 0.059904 -0.049265 -0.122849
v 0.059935 -0.049500 -0.122284
v -0.007500 -0.031000 -0.179012
v 0.007612 -0.030540 -0.178998
v 0.007500 -0.031000 -0.179012
v 0.007793 -0.030293 -0.178973
v 0.007923 -0.030183 -0.178956
v 0.008154 -0.030062 -0.178923
v 0.008332 -0.030014 -0.178898
v 0.008500 -0.030000 -0.178873
v 0.007500 -0.042000 -0.179012
v 0.007309 -0.043681 -0.179037
v 0.006737 -0.045295 -0.179107
v 0.005900 -0.046630 -0.179199
v 0.005703 -0.046871 -0.179219
v 0.004746 -0.047807 -0.179306
v 0.003323 -0.048724 -0.179406
v 0.001838 -0.049271 -0.179473
v 0.000215 -0.049497 -0.179502
v -0.001417 -0.049365 -0.179485
v -0.003080 -0.048838 -0.179420
v -0.004437 -0.048047 -0.179330
v -0.005754 -0.046810 -0.179214
v -0.006452 -0.045824 -0.179139
v -0.007164 -0.044220 -0.179055
v -0.007478 -0.042579 -0.179015
v -0.043382 -0.066403 -0.092315
v -0.043764 -0.066381 -0.092248
v -0.045983 -0.058195 -0.153174
v -0.045569 -0.058353 -0.153612
v -0.044641 -0.059113 -0.154243
v -0.043730 -0.060216 -0.154561
v -0.039459 -0.066381 -0.152729
v -0.040031 -0.066122 -0.153462
v -0.041220 -0.064686 -0.154293
v -0.040672 -0.065548 -0.153989
v -0.042667 -0.061851 -0.154647
v -0.041886 -0.063285 -0.154528
v -0.041520 -0.064033 -0.154415
v -0.045390 -0.058463 -0.153765
v -0.046438 -0.058270 -0.152477
v -0.046760 -0.058744 -0.151617
v -0.046878 -0.059671 -0.150653
v -0.039275 -0.066403 -0.152390
v 0.046269 -0.058198 -0.152775
v 0.046636 -0.058476 -0.152021
v 0.040191 -0.066007 -0.153616
v 0.040409 -0.065822 -0.153800
v 0.041888 -0.063282 -0.154528
v 0.041219 -0.064686 -0.154293
v 0.041009 -0.065085 -0.154189
v 0.039790 -0.066261 -0.153195
v 0.039275 -0.066403 -0.152390
v 0.046846 -0.059137 -0.151157
v 0.046878 -0.059671 -0.150653
v 0.045758 -0.058262 -0.153428
v 0.045564 -0.058356 -0.153616
v 0.045052 -0.058722 -0.154010
v 0.044248 -0.059551 -0.154410
v 0.042313 -0.062476 -0.154612
v 0.043381 -0.060714 -0.154621
v 0.043837 -0.060071 -0.154536
v 0.043382 -0.066403 -0.092315
v 0.043861 -0.066368 -0.092225
v -0.043861 -0.066368 -0.146775
v -0.043382 -0.066403 -0.146685
v -0.045528 -0.066403 -0.142881
v -0.050705 -0.066403 -0.126717
v -0.051501 -0.066293 -0.126834
v -0.050835 -0.066293 -0.130460
v -0.047363 -0.066293 -0.098082
v -0.045031 -0.066403 -0.095168
v -0.046917 -0.066403 -0.099062
v -0.049445 -0.066403 -0.106253
v -0.049144 -0.066403 -0.105191
v -0.049916 -0.066293 -0.104964
v -0.048756 -0.066293 -0.101474
v -0.050837 -0.066293 -0.108550
v -0.051502 -0.066293 -0.112173
v -0.050706 -0.066403 -0.112290
v -0.051905 -0.066293 -0.115814
v -0.050904 -0.066403 -0.113793
v -0.052042 -0.066293 -0.119474
v -0.051237 -0.066403 -0.119474
v -0.051907 -0.066293 -0.123150
v -0.051208 -0.066403 -0.121202
v -0.050389 -0.066403 -0.128618
v -0.049922 -0.066293 -0.134013
v -0.049151 -0.066403 -0.133786
v -0.048766 -0.066293 -0.137496
v -0.048506 -0.066403 -0.135825
v -0.047367 -0.066293 -0.140909
v -0.046634 -0.066403 -0.140579
v -0.045730 -0.066293 -0.144229
v -0.046428 -0.065943 -0.144603
v -0.045079 -0.065822 -0.147313
v -0.044309 -0.066261 -0.146918
v -0.047411 -0.064685 -0.145131
v -0.045804 -0.064685 -0.147925
v -0.045639 -0.065085 -0.147758
v -0.048089 -0.065943 -0.141235
v -0.049509 -0.065943 -0.137771
v -0.050682 -0.065943 -0.134237
v -0.051609 -0.065943 -0.130630
v -0.052284 -0.065943 -0.126950
v -0.047009 -0.065381 -0.144915
v -0.048690 -0.065380 -0.141506
v -0.050128 -0.065380 -0.138000
v -0.051315 -0.065381 -0.134423
v -0.052253 -0.065381 -0.130772
v -0.052937 -0.065381 -0.127046
v -0.052699 -0.064685 -0.130870
v -0.051753 -0.064685 -0.134551
v -0.050556 -0.064685 -0.138159
v -0.049106 -0.064685 -0.141693
v -0.053810 -0.064686 -0.123290
v -0.053543 -0.064685 -0.125974
v -0.053388 -0.064685 -0.127112
v -0.050675 -0.065943 -0.104740
v -0.051611 -0.065943 -0.108380
v -0.052285 -0.065943 -0.112058
v -0.052694 -0.065943 -0.115756
v -0.052833 -0.065943 -0.119473
v -0.052697 -0.065943 -0.123208
v -0.052255 -0.065381 -0.108238
v -0.052938 -0.065381 -0.111962
v -0.053352 -0.065381 -0.115707
v -0.053493 -0.065381 -0.119473
v -0.053354 -0.065381 -0.123256
v -0.053949 -0.064686 -0.119473
v -0.053807 -0.064686 -0.115673
v -0.053389 -0.064685 -0.111896
v -0.002184 -0.066403 -0.170688
v -0.005652 -0.066403 -0.170410
v -0.005744 -0.066293 -0.171209
v -0.026856 -0.066403 -0.163085
v -0.027171 -0.066293 -0.163835
v -0.022130 -0.066293 -0.166536
v -0.031368 -0.066403 -0.159991
v -0.034136 -0.066403 -0.157705
v -0.036182 -0.066293 -0.156905
v -0.035624 -0.066403 -0.156326
v -0.016674 -0.066403 -0.167886
v -0.020033 -0.066403 -0.166591
v -0.021789 -0.066403 -0.165807
v -0.016841 -0.066293 -0.168679
v -0.011380 -0.066293 -0.170241
v -0.011201 -0.066403 -0.169457
v -0.009827 -0.066403 -0.169752
v 0.000000 -0.066293 -0.171542
v 0.000000 -0.066403 -0.170737
v -0.040213 -0.064686 -0.155458
v -0.036732 -0.065943 -0.157475
v -0.037190 -0.065381 -0.157949
v -0.037507 -0.064686 -0.158277
v 0.000000 -0.065943 -0.172334
v 0.000000 -0.065381 -0.172993
v -0.005835 -0.065943 -0.171996
v -0.011557 -0.065943 -0.171013
v -0.017099 -0.065943 -0.169428
v -0.022466 -0.065943 -0.167253
v -0.027582 -0.065943 -0.164512
v -0.005910 -0.065381 -0.172651
v -0.011704 -0.065381 -0.171656
v -0.017314 -0.065380 -0.170052
v -0.022746 -0.065380 -0.167850
v -0.027924 -0.065381 -0.165076
v -0.030766 -0.064685 -0.163780
v -0.028161 -0.064685 -0.165466
v -0.022940 -0.064685 -0.168263
v -0.017463 -0.064685 -0.170483
v -0.011806 -0.064685 -0.172101
v -0.005962 -0.064686 -0.173105
v 0.000000 -0.064686 -0.173449
v -0.033019 -0.064685 -0.162142
v -0.032741 -0.065381 -0.161780
v -0.032340 -0.065943 -0.161257
v -0.031857 -0.066293 -0.160629
v -0.028287 -0.066403 -0.162179
v 0.045604 -0.065153 -0.147725
v 0.045804 -0.064685 -0.147925
v 0.047421 -0.064685 -0.145114
v 0.045528 -0.066403 -0.096119
v 0.050705 -0.066403 -0.112283
v 0.051501 -0.066293 -0.112166
v 0.050836 -0.066293 -0.108540
v 0.045739 -0.066293 -0.144212
v 0.047363 -0.066293 -0.140918
v 0.045031 -0.066403 -0.143832
v 0.046917 -0.066403 -0.139938
v 0.049445 -0.066403 -0.132747
v 0.049144 -0.066403 -0.133809
v 0.049916 -0.066293 -0.134036
v 0.048755 -0.066293 -0.137526
v 0.050837 -0.066293 -0.130450
v 0.051502 -0.066293 -0.126827
v 0.050706 -0.066403 -0.126710
v 0.051904 -0.066293 -0.123186
v 0.050904 -0.066403 -0.125207
v 0.052041 -0.066293 -0.119526
v 0.051237 -0.066403 -0.119526
v 0.051907 -0.066293 -0.115850
v 0.051208 -0.066403 -0.117798
v 0.050389 -0.066403 -0.110382
v 0.049922 -0.066293 -0.104987
v 0.049151 -0.066403 -0.105214
v 0.048767 -0.066293 -0.101504
v 0.048506 -0.066403 -0.103175
v 0.047367 -0.066293 -0.098091
v 0.046634 -0.066403 -0.098421
v 0.046437 -0.065943 -0.144587
v 0.044640 -0.066122 -0.147061
v 0.045343 -0.065547 -0.147503
v 0.043382 -0.066403 -0.146685
v 0.043764 -0.066381 -0.146752
v 0.050682 -0.065943 -0.104763
v 0.051609 -0.065943 -0.108370
v 0.052284 -0.065943 -0.112050
v 0.052253 -0.065381 -0.108228
v 0.052936 -0.065381 -0.111954
v 0.053810 -0.064686 -0.115710
v 0.053543 -0.064685 -0.113026
v 0.048085 -0.065943 -0.141243
v 0.049498 -0.065943 -0.137802
v 0.050675 -0.065943 -0.134260
v 0.051611 -0.065943 -0.130620
v 0.052285 -0.065943 -0.126942
v 0.052694 -0.065943 -0.123244
v 0.052833 -0.065943 -0.119527
v 0.052697 -0.065943 -0.115792
v 0.047018 -0.065381 -0.144898
v 0.048686 -0.065380 -0.141514
v 0.050116 -0.065380 -0.138031
v 0.051308 -0.065381 -0.134446
v 0.052255 -0.065381 -0.130762
v 0.052938 -0.065381 -0.127038
v 0.053352 -0.065381 -0.123293
v 0.053493 -0.065381 -0.119527
v 0.053354 -0.065381 -0.115744
v 0.053949 -0.064686 -0.119527
v 0.053807 -0.064686 -0.123327
v 0.053389 -0.064685 -0.127104
v 0.052701 -0.064685 -0.130860
v 0.051746 -0.064685 -0.134575
v 0.050544 -0.064685 -0.138190
v 0.049102 -0.064685 -0.141702
v 0.002184 -0.066403 -0.068312
v 0.005652 -0.066403 -0.068590
v 0.026856 -0.066403 -0.075915
v 0.031368 -0.066403 -0.079009
v 0.034136 -0.066403 -0.081295
v 0.035624 -0.066403 -0.082674
v 0.039275 -0.066403 -0.086610
v 0.016674 -0.066403 -0.071114
v 0.020033 -0.066403 -0.072408
v 0.021789 -0.066403 -0.073193
v 0.011201 -0.066403 -0.069543
v 0.009827 -0.066403 -0.069248
v 0.039459 -0.066381 -0.086271
v 0.000000 -0.066403 -0.068263
v 0.028287 -0.066403 -0.076821
v -0.042428 -0.030000 -0.161928
v -0.041806 -0.030000 -0.162541
v -0.035993 -0.030000 -0.167479
v -0.059672 -0.030000 -0.125653
v -0.058219 -0.030000 -0.133813
v -0.042428 -0.051217 -0.161928
v 0.059983 -0.051217 -0.117998
v 0.059158 -0.051217 -0.129354
v 0.059733 -0.051217 -0.125059
v 0.059285 -0.051217 -0.128580
v 0.059967 -0.051217 -0.121514
v 0.059972 -0.051217 -0.121371
v 0.057259 -0.051217 -0.137231
v 0.057743 -0.051217 -0.135602
v 0.006904 -0.051217 -0.179087
v 0.002262 -0.051217 -0.179458
v 0.010454 -0.051217 -0.178552
v -0.005741 -0.051217 -0.179215
v 0.000000 -0.051217 -0.179503
v -0.013658 -0.051217 -0.177879
v -0.011599 -0.051217 -0.178332
v -0.037258 -0.051217 -0.166512
v -0.041806 -0.051217 -0.162541
v -0.021475 -0.051217 -0.175455
v -0.021957 -0.051217 -0.175267
v -0.025274 -0.051217 -0.173845
v -0.028490 -0.051217 -0.172240
v -0.029000 -0.051217 -0.171963
v -0.031600 -0.051217 -0.170452
v -0.035993 -0.051217 -0.167479
v -0.018572 -0.051217 -0.176489
v 0.010454 -0.030000 -0.178552
v 0.013692 -0.051217 -0.177871
v 0.020526 -0.051217 -0.175811
v 0.018516 -0.051217 -0.176507
v 0.033272 -0.051217 -0.169386
v 0.030244 -0.051217 -0.171261
v 0.026191 -0.051217 -0.173411
v 0.039662 -0.051217 -0.164517
v 0.039083 -0.051217 -0.165018
v 0.039662 -0.030000 -0.164517
v 0.036296 -0.051217 -0.167252
v 0.033371 -0.051217 -0.169321
v 0.041685 -0.051217 -0.162658
v 0.045306 -0.030000 -0.158829
v 0.045306 -0.051217 -0.158829
v 0.046406 -0.051217 -0.157517
v 0.050255 -0.051217 -0.152207
v 0.052306 -0.051217 -0.148784
v 0.054275 -0.051217 -0.144925
v 0.055380 -0.051217 -0.142415
v -0.059672 -0.051217 -0.125653
v -0.058803 -0.051217 -0.131243
v -0.058219 -0.051217 -0.133813
v -0.057013 -0.051217 -0.138000
v -0.055662 -0.051217 -0.141720
v -0.054378 -0.051217 -0.144704
v -0.052108 -0.051217 -0.149137
v -0.050994 -0.051217 -0.151032
v -0.047691 -0.051217 -0.155876
v -0.046905 -0.051217 -0.156893
v -0.026235 -0.066403 -0.075542
v -0.023338 -0.066403 -0.073950
v -0.021797 -0.066403 -0.073197
v -0.031388 -0.066403 -0.079025
v -0.032292 -0.066403 -0.079735
v -0.035656 -0.066403 -0.082704
v -0.037766 -0.066403 -0.084877
v -0.039275 -0.066403 -0.086610
v -0.014538 -0.066403 -0.070424
v 0.014538 -0.066403 -0.168576
v 0.016296 -0.066403 -0.168015
v 0.021797 -0.066403 -0.165803
v 0.023338 -0.066403 -0.165050
v 0.037766 -0.066403 -0.154123
v 0.035656 -0.066403 -0.156296
v 0.032292 -0.066403 -0.159265
v -0.011152 -0.066403 -0.069532
v -0.007340 -0.066403 -0.068813
v 0.011152 -0.066403 -0.169468
v 0.007340 -0.066403 -0.170187
v 0.026235 -0.066403 -0.163458
v 0.031388 -0.066403 -0.159975
v -0.016296 -0.066403 -0.070985
v -0.005629 -0.066403 -0.068587
v 0.005628 -0.066403 -0.170413
v 0.000000 -0.052500 -0.179214
v 0.003452 -0.052500 -0.179110
v 0.046322 -0.062983 -0.148618
v 0.046749 -0.061057 -0.149647
v 0.052054 -0.052499 -0.148645
v 0.049000 -0.052500 -0.153572
v 0.052799 -0.052499 -0.147263
v 0.055114 -0.052499 -0.142305
v 0.056386 -0.052499 -0.138958
v 0.057466 -0.052499 -0.135524
v 0.058340 -0.052500 -0.132041
v 0.059001 -0.052500 -0.128535
v 0.059272 -0.052500 -0.126608
v 0.059446 -0.052500 -0.125031
v 0.059679 -0.052500 -0.121504
v 0.059695 -0.052500 -0.118005
v 0.059494 -0.052500 -0.114489
v 0.005938 -0.064686 -0.173107
v 0.006869 -0.052500 -0.178801
v 0.006493 -0.064685 -0.173041
v 0.013625 -0.052500 -0.177591
v 0.011755 -0.064685 -0.172113
v 0.013012 -0.064685 -0.171811
v 0.017053 -0.052499 -0.176666
v 0.017457 -0.064685 -0.170485
v 0.020427 -0.052499 -0.175541
v 0.019355 -0.064685 -0.169793
v 0.026951 -0.052499 -0.172715
v 0.022949 -0.064685 -0.168259
v 0.025367 -0.064685 -0.167052
v 0.030100 -0.052499 -0.171012
v 0.028143 -0.064685 -0.165476
v 0.033155 -0.052500 -0.169119
v 0.030924 -0.064685 -0.163671
v 0.033211 -0.052500 -0.169081
v 0.036122 -0.052500 -0.167022
v 0.033040 -0.064685 -0.162126
v 0.038896 -0.052500 -0.164799
v 0.035973 -0.064686 -0.159700
v 0.039817 -0.052500 -0.163996
v 0.037541 -0.064686 -0.158245
v 0.041485 -0.052500 -0.162450
v 0.040200 -0.064686 -0.155472
v 0.043921 -0.052500 -0.159953
v 0.046182 -0.052500 -0.157335
v 0.048292 -0.052500 -0.154577
v -0.059679 -0.052500 -0.117496
v -0.059695 -0.052500 -0.120995
v -0.050749 -0.052500 -0.150882
v -0.052520 -0.052499 -0.147791
v -0.054117 -0.052499 -0.144583
v -0.055529 -0.052499 -0.141275
v -0.056739 -0.052499 -0.137911
v -0.057906 -0.052500 -0.133880
v -0.058521 -0.052500 -0.131186
v -0.059494 -0.052500 -0.124511
v -0.048802 -0.052500 -0.153857
v -0.046798 -0.060727 -0.149859
v -0.046454 -0.062474 -0.148860
v -0.046680 -0.052500 -0.156714
v -0.042225 -0.052500 -0.161724
v -0.028354 -0.052499 -0.171986
v -0.031449 -0.052500 -0.170207
v -0.037080 -0.052500 -0.166285
v -0.039801 -0.052500 -0.164010
v -0.025153 -0.052499 -0.173584
v -0.021851 -0.052499 -0.175000
v -0.018483 -0.052499 -0.176216
v -0.015047 -0.052499 -0.177234
v -0.011542 -0.052500 -0.178050
v -0.006626 -0.052500 -0.178830
v -0.003549 -0.052500 -0.179104
v -0.006650 -0.051874 -0.179043
v 0.000000 -0.051874 -0.179430
v -0.018550 -0.051874 -0.176421
v -0.015102 -0.051874 -0.177442
v -0.011585 -0.051874 -0.178261
v -0.028455 -0.051874 -0.172176
v -0.025244 -0.051874 -0.173779
v -0.021930 -0.051874 -0.175200
v -0.031562 -0.051874 -0.170390
v -0.037213 -0.051874 -0.166455
v -0.042377 -0.051874 -0.161877
v 0.041635 -0.051874 -0.162605
v 0.059708 -0.051874 -0.114471
v 0.059910 -0.051874 -0.118000
v 0.059894 -0.051874 -0.121511
v 0.059660 -0.051874 -0.125052
v 0.059213 -0.051874 -0.128569
v 0.058550 -0.051874 -0.132087
v 0.057673 -0.051874 -0.135582
v 0.056589 -0.051874 -0.139029
v 0.055312 -0.051874 -0.142388
v 0.052242 -0.051874 -0.148749
v 0.048466 -0.051874 -0.154703
v 0.046349 -0.051874 -0.157471
v 0.044079 -0.051874 -0.160099
v 0.039035 -0.051874 -0.164962
v 0.036252 -0.051874 -0.167194
v 0.033330 -0.051874 -0.169260
v 0.033274 -0.051874 -0.169298
v 0.030208 -0.051874 -0.171198
v 0.027048 -0.051874 -0.172907
v 0.020501 -0.051874 -0.175743
v 0.017115 -0.051874 -0.176872
v 0.013675 -0.051874 -0.177801
v 0.006895 -0.051874 -0.179015
v 0.003465 -0.051874 -0.179325
v -0.046849 -0.051874 -0.156848
v -0.048979 -0.051874 -0.153980
v -0.050932 -0.051874 -0.150994
v -0.052709 -0.051874 -0.147892
v -0.054312 -0.051874 -0.144674
v -0.055729 -0.051874 -0.141354
v -0.056944 -0.051874 -0.137977
v -0.058731 -0.051874 -0.131229
v -0.059708 -0.051874 -0.124529
v -0.059910 -0.051874 -0.121000
v -0.059894 -0.051874 -0.117489
v 0.011653 -0.065381 -0.171667
v 0.017309 -0.065380 -0.170053
v 0.022755 -0.065380 -0.167846
v 0.022139 -0.066293 -0.166532
v 0.005720 -0.066293 -0.171212
v 0.031878 -0.066293 -0.160613
v 0.036215 -0.066293 -0.156874
v 0.036765 -0.065943 -0.157443
v 0.037223 -0.065381 -0.157917
v 0.032360 -0.065943 -0.161241
v 0.032762 -0.065381 -0.161764
v 0.027907 -0.065381 -0.165086
v 0.027565 -0.065943 -0.164522
v 0.027154 -0.066293 -0.163845
v 0.022475 -0.065943 -0.167249
v 0.017094 -0.065943 -0.169430
v 0.016836 -0.066293 -0.168681
v 0.011507 -0.065943 -0.171025
v 0.011331 -0.066293 -0.170252
v 0.005886 -0.065381 -0.172654
v 0.005811 -0.065943 -0.171999
f 277 137 136
f 136 134 277
f 136 137 135
f 5 4 161
f 279 280 278
f 1067 1137 1068
f 1068 925 1067
f 942 925 943
f 1017 449 1018
f 217 118 116
f 216 118 217
f 834 835 1098
f 969 463 449
f 449 1017 969
f 1018 449 448
f 448 463 1018
f 449 463 448
f 164 463 166
f 4 463 164
f 166 463 156
f 463 969 156
f 216 187 189
f 116 118 189
f 215 187 216
f 166 156 165
f 165 164 166
f 163 164 165
f 133 134 136
f 136 135 133
f 4 5 272
f 272 5 277
f 200 239 199
f 382 15 16
f 27 478 465
f 580 672 578
f 977 972 1137
f 577 972 977
f 977 579 577
f 698 579 977
f 1137 972 576
f 578 672 576
f 576 972 577
f 683 595 566
f 944 925 942
f 944 1067 925
f 1106 822 1107
f 816 822 1106
f 1067 944 1066
f 926 943 925
f 566 595 923
f 786 785 788
f 306 557 558
f 308 352 362
f 360 362 351
f 351 362 352
f 374 38 375
f 559 300 558
f 299 344 312
f 300 559 312
f 312 560 299
f 312 559 560
f 1068 1137 1136
f 1136 573 1068
f 1137 573 1136
f 574 573 1137
f 571 925 1068
f 1168 1106 1107
f 152 1017 1168
f 1168 177 152
f 1099 834 1098
f 820 1099 1107
f 834 1099 820
f 161 4 162
f 4 164 162
f 162 164 163
f 117 118 216
f 216 189 117
f 117 189 118
f 1098 835 188
f 121 120 169
f 169 171 172
f 163 165 172
f 169 120 170
f 170 171 169
f 122 170 120
f 171 170 122
f 137 277 159
f 159 5 161
f 277 5 159
f 137 159 114
f 279 133 132
f 280 279 132
f 275 272 277
f 4 272 10
f 10 463 4
f 273 7 8
f 8 272 273
f 1 2 384
f 2 372 384
f 360 358 359
f 359 358 357
f 381 358 380
f 380 21 381
f 360 379 380
f 380 358 360
f 18 479 64
f 130 199 198
f 15 382 14
f 14 67 15
f 381 23 14
f 14 382 381
f 565 553 489
f 45 468 46
f 45 42 452
f 452 468 45
f 336 339 338
f 338 39 336
f 454 469 54
f 373 339 336
f 336 39 373
f 373 35 374
f 984 725 724
f 458 725 471
f 424 478 470
f 1000 424 999
f 419 466 476
f 41 38 476
f 41 375 38
f 55 478 27
f 470 478 51
f 51 29 470
f 452 579 450
f 450 579 698
f 698 977 450
f 450 977 976
f 411 468 452
f 452 704 411
f 468 411 695
f 476 38 477
f 35 469 36
f 374 35 36
f 469 477 36
f 454 39 453
f 39 56 453
f 452 583 581
f 581 579 452
f 628 672 671
f 672 580 671
f 1137 576 575
f 575 576 674
f 575 574 1137
f 674 574 575
f 643 642 528
f 595 683 684
f 819 818 1103
f 3 474 6
f 6 273 3
f 6 7 273
f 475 447 463
f 7 6 475
f 475 6 474
f 1116 1115 879
f 976 977 1138
f 1138 977 1137
f 1137 1067 1138
f 1067 1066 1138
f 945 1066 944
f 945 944 942
f 946 1064 945
f 942 943 934
f 767 603 963
f 854 837 839
f 851 862 839
f 983 725 984
f 877 1121 1122
f 959 604 958
f 959 960 604
f 953 965 604
f 604 960 953
f 604 965 954
f 954 955 604
f 598 599 920
f 909 599 600
f 920 599 909
f 913 911 602
f 921 596 597
f 595 596 921
f 921 923 595
f 597 598 921
f 921 598 920
f 920 909 921
f 828 773 789
f 789 827 828
f 803 802 1100
f 739 803 733
f 859 1116 879
f 860 1175 854
f 854 839 860
f 860 839 862
f 861 860 862
f 785 786 783
f 826 827 785
f 826 832 827
f 79 78 267
f 267 78 266
f 604 138 964
f 557 306 307
f 308 556 307
f 556 557 307
f 307 352 308
f 124 192 123
f 123 309 124
f 123 556 308
f 308 309 123
f 650 557 556
f 556 123 650
f 650 123 192
f 128 198 197
f 361 362 360
f 360 359 361
f 361 359 309
f 361 309 308
f 308 362 361
f 299 560 298
f 343 344 299
f 299 298 343
f 300 348 301
f 558 300 301
f 301 306 558
f 350 306 301
f 301 348 350
f 346 348 300
f 300 312 346
f 346 312 344
f 346 347 348
f 1068 573 572
f 572 571 1068
f 570 926 925
f 925 571 570
f 147 223 148
f 1106 1168 1167
f 1167 1017 1018
f 1167 1168 1017
f 218 217 116
f 116 151 218
f 144 145 824
f 144 823 143
f 824 823 144
f 146 223 147
f 147 824 146
f 824 145 146
f 1169 1168 1107
f 1107 1099 1169
f 177 1168 1169
f 1098 1170 1169
f 1169 1099 1098
f 1107 822 821
f 821 820 1107
f 160 162 163
f 163 172 160
f 160 172 171
f 161 162 160
f 160 159 161
f 160 114 159
f 176 1170 1098
f 1098 188 176
f 176 1169 1170
f 177 1169 176
f 189 188 185
f 187 215 214
f 214 213 187
f 211 167 212
f 212 250 211
f 186 189 187
f 186 188 189
f 155 165 156
f 169 208 119
f 119 121 169
f 208 121 119
f 168 208 169
f 168 209 208
f 168 167 211
f 171 122 115
f 115 160 171
f 114 160 115
f 115 135 137
f 137 114 115
f 200 199 131
f 199 130 131
f 201 239 200
f 200 131 201
f 201 131 132
f 201 132 133
f 133 202 201
f 241 201 202
f 273 272 276
f 272 275 276
f 9 10 272
f 272 8 9
f 463 10 9
f 9 8 463
f 274 275 277
f 274 288 363
f 129 198 128
f 129 130 198
f 1 384 13
f 126 304 303
f 126 195 125
f 125 195 194
f 22 23 381
f 381 21 22
f 22 21 63
f 20 380 18
f 21 380 20
f 63 21 20
f 464 63 20
f 19 380 379
f 379 24 19
f 18 380 19
f 19 471 479
f 24 471 19
f 459 63 464
f 459 22 63
f 16 15 481
f 15 67 481
f 481 17 16
f 383 382 16
f 16 17 383
f 12 13 383
f 383 13 384
f 549 621 620
f 661 555 553
f 553 565 661
f 488 326 564
f 488 565 489
f 564 565 488
f 333 338 332
f 332 331 333
f 333 331 42
f 42 45 333
f 333 45 46
f 332 338 337
f 337 338 339
f 48 338 335
f 39 338 48
f 48 335 49
f 48 56 39
f 49 467 48
f 467 453 48
f 48 453 56
f 44 467 49
f 58 468 467
f 58 43 468
f 467 44 58
f 58 44 43
f 52 54 469
f 35 373 40
f 40 373 39
f 54 52 40
f 40 39 454
f 454 54 40
f 429 724 725
f 984 724 429
f 479 471 433
f 984 429 394
f 394 429 725
f 997 465 478
f 1006 419 476
f 1005 419 1006
f 476 466 57
f 57 41 476
f 470 29 60
f 29 30 60
f 30 31 60
f 478 55 28
f 28 55 27
f 705 704 452
f 976 1138 1139
f 1063 1064 946
f 467 468 409
f 409 468 410
f 410 468 697
f 37 38 374
f 374 36 37
f 37 477 38
f 37 36 477
f 1010 477 469
f 1005 1006 1004
f 670 671 580
f 585 583 452
f 452 587 585
f 540 630 541
f 673 576 672
f 672 630 673
f 674 576 673
f 622 621 549
f 506 593 42
f 527 643 528
f 526 643 527
f 642 643 686
f 597 596 686
f 642 686 685
f 685 686 596
f 685 596 595
f 595 684 685
f 730 433 729
f 819 1103 1102
f 1102 802 819
f 809 773 828
f 812 817 818
f 1106 1167 1105
f 816 1106 1105
f 1105 817 816
f 1018 463 970
f 463 447 970
f 3 2 61
f 2 462 61
f 61 474 3
f 61 462 474
f 461 2 1
f 461 462 2
f 463 8 72
f 72 475 463
f 72 8 7
f 7 475 72
f 875 1119 1120
f 1118 1119 875
f 464 479 435
f 1129 1117 1113
f 1065 945 1064
f 1066 945 1065
f 1064 1139 1065
f 1065 1138 1066
f 1065 1139 1138
f 933 932 942
f 942 934 933
f 768 767 887
f 768 887 603
f 603 767 768
f 957 767 963
f 963 603 957
f 957 603 604
f 1070 1072 1073
f 932 931 941
f 942 932 941
f 941 945 942
f 900 931 932
f 721 457 465
f 1053 878 1052
f 1053 1159 1070
f 1125 983 984
f 1125 1053 1052
f 1159 1053 1125
f 725 983 726
f 726 983 428
f 726 471 725
f 428 471 726
f 727 471 428
f 428 983 727
f 877 1122 1123
f 1123 878 877
f 1052 878 1123
f 1123 1125 1052
f 644 643 526
f 644 686 643
f 906 933 934
f 911 913 914
f 914 913 602
f 602 603 914
f 603 887 914
f 922 934 943
f 788 785 787
f 785 827 787
f 827 789 787
f 770 769 737
f 797 795 794
f 772 789 773
f 773 791 772
f 774 791 773
f 1101 1100 802
f 802 1102 1101
f 1116 859 1112
f 799 810 800
f 856 740 739
f 856 1112 859
f 739 743 856
f 1111 1112 856
f 857 740 858
f 858 856 859
f 740 856 858
f 863 862 851
f 867 868 877
f 867 861 862
f 862 863 867
f 867 863 868
f 877 878 867
f 878 861 867
f 876 1121 877
f 877 868 876
f 876 1120 1121
f 875 1120 876
f 782 783 784
f 784 783 786
f 732 776 731
f 139 776 732
f 139 775 777
f 777 776 139
f 775 781 777
f 353 306 350
f 353 307 306
f 352 307 353
f 353 351 352
f 238 199 239
f 198 199 238
f 560 559 654
f 26 378 27
f 27 465 26
f 561 298 560
f 313 298 561
f 561 314 313
f 561 315 314
f 341 373 374
f 339 373 341
f 374 375 341
f 375 347 345
f 345 341 375
f 345 346 344
f 347 346 345
f 344 343 345
f 343 341 345
f 349 353 350
f 351 353 349
f 350 348 349
f 348 347 349
f 223 261 222
f 222 148 223
f 147 148 830
f 261 81 260
f 260 222 261
f 260 87 259
f 257 256 217
f 217 218 257
f 219 218 151
f 226 144 143
f 145 144 226
f 266 78 265
f 225 146 145
f 145 226 225
f 820 821 833
f 833 809 828
f 828 827 833
f 827 832 833
f 834 820 833
f 833 832 834
f 189 185 184
f 184 185 151
f 116 189 184
f 184 151 116
f 175 188 835
f 835 185 175
f 175 185 188
f 213 214 253
f 211 250 249
f 178 176 188
f 188 186 178
f 177 176 178
f 178 153 152
f 152 177 178
f 167 168 174
f 165 155 174
f 97 247 98
f 208 209 248
f 248 247 208
f 248 249 96
f 207 121 208
f 208 247 207
f 120 121 207
f 206 122 120
f 120 207 206
f 204 115 122
f 240 241 110
f 113 239 240
f 239 201 240
f 201 241 240
f 371 276 275
f 275 274 371
f 371 274 363
f 273 276 371
f 3 273 371
f 371 2 3
f 371 372 2
f 130 129 284
f 128 296 293
f 293 294 128
f 295 129 128
f 128 294 295
f 281 129 295
f 193 192 124
f 124 125 193
f 193 125 194
f 197 236 235
f 357 311 310
f 310 359 357
f 309 359 310
f 124 309 310
f 310 125 124
f 311 125 310
f 305 354 304
f 305 125 311
f 305 304 126
f 126 125 305
f 18 64 62
f 62 20 18
f 464 20 62
f 62 479 464
f 62 64 479
f 65 479 18
f 18 19 65
f 65 19 479
f 23 22 66
f 22 459 66
f 480 481 67
f 67 14 480
f 480 14 23
f 23 66 480
f 1160 1026 971
f 12 383 11
f 11 383 17
f 555 661 662
f 326 488 327
f 332 326 327
f 332 329 330
f 329 488 330
f 657 563 562
f 562 561 657
f 315 561 562
f 335 338 334
f 338 333 334
f 49 335 334
f 334 44 49
f 43 44 334
f 47 333 46
f 46 468 47
f 468 43 47
f 43 334 47
f 47 334 333
f 53 469 35
f 53 52 469
f 35 40 53
f 53 40 52
f 729 433 707
f 707 433 471
f 723 394 396
f 984 394 723
f 458 394 395
f 395 725 458
f 395 394 725
f 999 1003 1155
f 1000 999 1155
f 421 400 420
f 398 400 421
f 423 1003 999
f 423 424 470
f 423 999 424
f 33 57 466
f 41 57 33
f 33 466 32
f 375 41 33
f 29 51 50
f 50 28 29
f 50 51 478
f 478 28 50
f 27 378 377
f 377 28 27
f 377 378 351
f 351 349 377
f 29 28 377
f 377 30 29
f 602 911 601
f 601 909 600
f 911 909 601
f 976 705 706
f 706 705 452
f 702 411 703
f 1141 1063 1062
f 468 695 696
f 696 697 468
f 695 700 696
f 454 453 405
f 412 453 467
f 467 1016 412
f 477 1010 1011
f 1011 1010 1012
f 415 1146 1012
f 415 1013 1146
f 1096 1146 1097
f 582 670 580
f 542 541 628
f 629 672 628
f 628 541 629
f 629 630 672
f 629 541 630
f 627 544 543
f 543 542 627
f 627 542 628
f 628 671 627
f 671 670 627
f 545 544 626
f 669 668 626
f 544 627 626
f 626 670 669
f 626 627 670
f 590 592 666
f 42 331 509
f 505 592 593
f 593 506 505
f 594 592 505
f 506 509 505
f 591 589 34
f 593 591 34
f 42 593 34
f 34 589 587
f 452 42 34
f 34 587 452
f 639 640 683
f 943 926 924
f 566 923 924
f 924 922 943
f 923 921 924
f 921 922 924
f 444 1023 1022
f 1022 1023 1163
f 1164 1102 1103
f 1021 1022 1164
f 1164 1022 1163
f 1163 1101 1164
f 1164 1101 1102
f 445 1022 1021
f 474 462 445
f 462 1022 445
f 447 475 446
f 446 445 1021
f 446 475 474
f 474 445 446
f 447 446 1020
f 1020 446 1021
f 811 810 799
f 799 805 811
f 819 802 811
f 802 810 811
f 811 818 819
f 811 812 818
f 808 814 807
f 773 809 808
f 808 774 773
f 807 812 806
f 806 811 805
f 812 811 806
f 807 814 813
f 813 812 807
f 817 812 813
f 816 817 813
f 813 814 816
f 473 13 12
f 12 11 473
f 17 481 473
f 473 11 17
f 462 461 388
f 1121 1120 1128
f 604 955 956
f 956 957 604
f 1157 1075 1072
f 1069 1053 1070
f 878 1053 1069
f 1072 1075 1074
f 1074 1073 1072
f 1186 1187 1188
f 901 900 903
f 932 933 904
f 933 906 904
f 899 901 895
f 900 901 899
f 396 457 981
f 981 1125 984
f 1159 1125 981
f 721 720 981
f 728 983 729
f 728 727 983
f 471 727 728
f 729 707 728
f 728 707 471
f 983 1125 1124
f 1125 1123 1124
f 1124 1123 1122
f 1124 1122 1121
f 1121 1128 1124
f 855 837 854
f 686 644 687
f 687 598 597
f 597 686 687
f 599 598 687
f 687 688 599
f 907 904 906
f 911 914 912
f 912 909 911
f 912 910 909
f 889 906 934
f 934 922 889
f 748 770 737
f 794 806 796
f 796 806 805
f 796 797 794
f 796 805 799
f 799 798 796
f 771 798 769
f 769 770 771
f 797 796 771
f 771 796 798
f 851 839 853
f 857 858 881
f 789 772 790
f 788 787 790
f 790 787 789
f 792 806 794
f 807 806 792
f 794 795 792
f 792 808 807
f 774 808 792
f 1111 735 744
f 744 735 739
f 1109 747 803
f 1100 747 1109
f 803 747 746
f 736 735 1111
f 739 735 736
f 804 800 810
f 804 802 803
f 804 810 802
f 740 800 804
f 804 803 739
f 739 740 804
f 769 798 801
f 737 769 801
f 801 798 799
f 799 800 801
f 875 876 869
f 869 876 868
f 868 863 864
f 864 869 868
f 779 777 781
f 1032 1031 138
f 138 1033 1032
f 1034 138 139
f 1034 1033 138
f 139 732 1034
f 1034 732 731
f 1029 1049 138
f 138 1028 1029
f 1027 1028 138
f 958 604 961
f 604 962 961
f 952 962 604
f 1043 1044 138
f 1050 964 138
f 138 1044 1050
f 651 650 192
f 192 607 651
f 190 607 192
f 192 193 190
f 190 193 191
f 190 608 607
f 111 238 112
f 112 239 113
f 112 238 239
f 105 235 103
f 103 235 236
f 198 238 237
f 237 238 111
f 237 197 198
f 237 236 197
f 111 103 237
f 237 103 236
f 657 613 614
f 614 613 516
f 516 613 515
f 560 654 655
f 655 654 612
f 612 613 655
f 655 561 560
f 612 654 611
f 379 378 25
f 25 24 379
f 378 26 25
f 25 457 458
f 458 471 25
f 25 471 24
f 465 457 25
f 25 26 465
f 339 341 340
f 314 315 340
f 340 337 339
f 342 341 343
f 342 298 313
f 342 343 298
f 342 340 341
f 313 314 342
f 314 340 342
f 678 570 571
f 824 830 825
f 782 824 825
f 825 783 782
f 785 783 825
f 825 826 785
f 829 824 147
f 147 830 829
f 829 830 824
f 831 830 835
f 835 834 831
f 834 832 831
f 832 826 831
f 826 825 831
f 831 825 830
f 835 830 836
f 836 830 151
f 836 185 835
f 151 185 836
f 87 260 88
f 88 260 81
f 149 830 148
f 91 256 75
f 256 257 75
f 258 257 218
f 218 219 258
f 86 75 258
f 258 75 257
f 87 86 258
f 259 87 258
f 227 226 143
f 227 267 266
f 266 265 227
f 227 265 226
f 74 265 78
f 264 74 85
f 265 74 264
f 226 265 264
f 264 225 226
f 262 84 83
f 262 261 223
f 83 81 262
f 262 81 261
f 815 821 822
f 815 833 821
f 815 822 816
f 816 814 815
f 809 833 815
f 815 808 809
f 814 808 815
f 254 214 215
f 254 253 214
f 254 215 216
f 209 168 210
f 211 249 210
f 210 248 209
f 249 248 210
f 210 168 211
f 179 186 187
f 182 174 179
f 153 178 179
f 179 178 186
f 183 212 167
f 183 182 212
f 167 174 183
f 183 174 182
f 165 174 173
f 173 174 168
f 173 172 165
f 169 172 173
f 173 168 169
f 95 248 96
f 95 98 247
f 247 248 95
f 246 247 97
f 246 207 247
f 97 100 246
f 135 115 203
f 115 204 203
f 203 133 135
f 203 202 133
f 122 206 205
f 205 204 122
f 113 240 109
f 109 240 110
f 282 129 281
f 291 290 274
f 131 290 291
f 288 274 289
f 274 290 289
f 289 290 131
f 289 131 130
f 130 288 289
f 281 295 370
f 363 282 370
f 370 282 281
f 370 295 294
f 294 293 370
f 370 296 368
f 370 293 296
f 106 190 107
f 107 190 191
f 195 235 234
f 127 195 126
f 126 303 127
f 303 302 127
f 382 383 367
f 367 365 382
f 367 370 368
f 367 383 384
f 368 302 366
f 366 302 303
f 366 367 368
f 365 367 366
f 356 365 354
f 356 358 381
f 381 382 356
f 382 365 356
f 354 305 355
f 355 305 311
f 355 311 357
f 355 356 354
f 357 358 355
f 358 356 355
f 1133 1114 1115
f 1115 1116 1133
f 464 435 434
f 460 66 459
f 460 480 66
f 481 480 968
f 1134 1112 1111
f 1111 1160 1134
f 1134 1160 971
f 1116 1112 1134
f 967 966 481
f 549 620 550
f 618 519 552
f 615 614 516
f 660 661 565
f 620 662 619
f 551 550 619
f 619 550 620
f 619 552 551
f 618 552 619
f 619 661 618
f 619 662 661
f 328 488 329
f 328 327 488
f 328 329 332
f 332 327 328
f 332 330 487
f 487 330 488
f 487 488 489
f 316 562 317
f 315 562 316
f 317 340 316
f 316 340 315
f 465 997 714
f 997 982 714
f 980 720 719
f 1159 981 980
f 980 981 720
f 1000 1155 1156
f 1075 1157 1156
f 1077 1075 1156
f 1156 1155 1077
f 1154 1155 1003
f 1077 1155 1154
f 1154 1079 1077
f 422 423 470
f 1003 423 422
f 420 400 401
f 400 455 401
f 466 455 59
f 32 466 59
f 59 31 32
f 376 349 347
f 376 377 349
f 32 31 376
f 376 31 30
f 30 377 376
f 376 347 375
f 376 33 32
f 375 33 376
f 600 599 689
f 599 688 689
f 604 603 605
f 976 706 451
f 451 706 452
f 451 450 976
f 452 450 451
f 703 411 974
f 974 702 703
f 975 702 974
f 974 411 704
f 976 1139 974
f 974 705 976
f 704 705 974
f 1140 1063 1141
f 1140 1139 1064
f 1064 1063 1140
f 1140 974 1139
f 975 974 1140
f 701 975 700
f 701 702 975
f 701 700 695
f 701 695 411
f 411 702 701
f 407 1016 467
f 407 978 1016
f 467 409 979
f 1141 1062 1061
f 1145 1013 1014
f 699 696 700
f 697 696 699
f 410 697 699
f 699 975 410
f 700 975 699
f 454 405 402
f 404 405 453
f 413 405 404
f 453 412 406
f 406 412 413
f 406 404 453
f 413 404 406
f 1015 412 1016
f 1015 1145 1014
f 1014 413 1015
f 413 412 1015
f 1058 1145 1015
f 1009 1004 418
f 1009 418 476
f 476 477 1009
f 469 415 416
f 416 415 1012
f 416 1010 469
f 1012 1010 416
f 1013 415 403
f 454 402 403
f 669 670 584
f 670 582 584
f 586 668 584
f 584 668 669
f 545 626 625
f 625 626 668
f 625 624 545
f 665 666 592
f 622 666 665
f 665 592 594
f 594 664 665
f 621 622 665
f 665 664 621
f 548 622 549
f 548 547 622
f 545 624 546
f 624 547 546
f 623 547 624
f 623 666 622
f 622 547 623
f 42 509 508
f 497 331 332
f 594 505 554
f 555 662 554
f 586 588 667
f 667 668 586
f 624 625 667
f 667 625 668
f 667 623 624
f 666 623 667
f 667 588 590
f 590 666 667
f 530 529 640
f 530 639 531
f 640 639 530
f 641 529 528
f 528 642 641
f 642 685 641
f 641 685 684
f 640 529 641
f 641 684 683
f 683 640 641
f 567 683 566
f 566 924 567
f 567 924 568
f 444 1022 386
f 386 1022 462
f 1165 1164 1103
f 1021 1164 1165
f 1165 1020 1021
f 447 1020 1019
f 1018 970 1019
f 1019 970 447
f 1019 1167 1018
f 1019 1105 1167
f 13 473 71
f 472 461 1
f 472 389 461
f 481 966 441
f 441 473 481
f 971 1026 441
f 441 966 971
f 444 388 387
f 387 388 461
f 461 389 387
f 1127 1128 1120
f 1127 985 1128
f 1127 1120 1119
f 986 985 432
f 986 432 479
f 479 433 986
f 1128 985 986
f 433 730 986
f 986 730 729
f 729 983 986
f 983 1124 986
f 986 1124 1128
f 1126 1127 1119
f 998 1157 982
f 1000 1156 998
f 998 1156 1157
f 982 1157 1158
f 1158 980 982
f 1158 1072 1070
f 1158 1157 1072
f 1070 1159 1158
f 1159 980 1158
f 1190 861 878
f 878 1069 1190
f 1070 1073 1071
f 1071 1069 1070
f 1071 1190 1069
f 1189 1188 1187
f 1187 1036 1189
f 1189 1046 1175
f 919 756 916
f 1086 1150 1087
f 1179 1181 1090
f 1176 1048 1184
f 1183 1181 1180
f 1180 1184 1183
f 1176 1184 1180
f 1178 1176 1180
f 1180 1179 1178
f 1181 1179 1180
f 1182 1181 1183
f 1183 1185 1182
f 1085 1086 1087
f 1085 1182 1083
f 1181 1182 1085
f 902 900 932
f 932 904 902
f 903 900 902
f 931 900 930
f 900 899 930
f 1060 1061 948
f 940 939 946
f 946 945 940
f 945 941 940
f 940 941 931
f 931 930 940
f 940 930 939
f 948 1061 947
f 947 1061 1062
f 946 939 947
f 947 1063 946
f 947 1062 1063
f 938 930 929
f 939 930 938
f 938 937 948
f 948 947 938
f 938 947 939
f 719 720 427
f 430 721 465
f 430 720 721
f 465 427 430
f 430 427 720
f 457 721 397
f 397 981 457
f 721 981 397
f 722 723 396
f 396 981 722
f 984 723 722
f 722 981 984
f 854 1175 1051
f 1051 855 854
f 1175 1046 1051
f 1037 1187 1038
f 1037 1036 1187
f 526 525 645
f 645 644 526
f 645 687 644
f 688 687 645
f 646 689 645
f 645 689 688
f 645 525 524
f 524 646 645
f 909 910 890
f 890 921 909
f 890 922 921
f 890 889 922
f 888 907 906
f 906 889 888
f 846 748 737
f 737 845 846
f 851 853 852
f 838 839 837
f 838 853 839
f 880 881 858
f 880 859 879
f 880 858 859
f 793 792 795
f 791 774 793
f 774 792 793
f 739 733 734
f 734 744 739
f 1111 744 734
f 803 1100 1110
f 1110 1109 803
f 1100 1109 1110
f 745 733 803
f 803 746 745
f 741 736 1111
f 739 736 741
f 737 801 738
f 738 740 857
f 738 800 740
f 738 801 800
f 738 845 737
f 857 845 738
f 1114 1113 873
f 850 863 851
f 850 864 863
f 850 852 847
f 851 852 850
f 782 784 778
f 780 779 781
f 780 778 779
f 782 778 780
f 143 823 780
f 781 141 780
f 780 824 782
f 780 823 824
f 138 1031 1030
f 1030 1027 138
f 604 964 951
f 951 952 604
f 138 1049 1035
f 1035 1043 138
f 558 557 653
f 653 559 558
f 653 654 559
f 514 613 612
f 514 515 613
f 612 611 514
f 514 611 513
f 656 655 613
f 561 655 656
f 656 613 657
f 657 561 656
f 674 673 631
f 631 673 630
f 631 630 540
f 531 639 532
f 222 260 221
f 148 222 221
f 221 149 148
f 223 146 224
f 146 225 224
f 255 254 216
f 216 217 255
f 217 256 255
f 255 256 91
f 254 255 89
f 96 249 92
f 92 249 250
f 250 212 251
f 251 92 250
f 181 179 187
f 187 213 181
f 213 212 181
f 158 179 174
f 110 241 242
f 242 241 202
f 202 203 242
f 242 203 204
f 245 246 100
f 245 206 207
f 207 246 245
f 363 284 283
f 283 282 363
f 283 284 129
f 129 282 283
f 285 284 363
f 363 286 285
f 130 284 285
f 285 286 130
f 287 288 130
f 130 286 287
f 363 288 287
f 287 286 363
f 278 280 292
f 292 274 278
f 292 291 274
f 131 291 292
f 280 132 292
f 132 131 292
f 369 371 363
f 363 370 369
f 369 384 372
f 372 371 369
f 369 367 384
f 370 367 369
f 104 235 105
f 104 234 235
f 194 195 233
f 195 234 233
f 233 104 108
f 234 104 233
f 233 193 194
f 191 193 233
f 108 107 233
f 233 107 191
f 197 235 196
f 128 197 196
f 196 127 128
f 196 235 195
f 195 127 196
f 297 127 302
f 368 296 297
f 297 302 368
f 297 296 128
f 128 127 297
f 364 366 303
f 365 366 364
f 354 365 364
f 304 354 364
f 364 303 304
f 1114 1133 1132
f 1132 1133 995
f 995 994 1132
f 1129 1113 1132
f 1132 1113 1114
f 995 1133 987
f 481 968 987
f 987 968 995
f 1129 1132 993
f 993 1132 994
f 440 993 994
f 393 434 440
f 434 991 440
f 988 1133 1116
f 1116 1134 988
f 988 1134 971
f 988 987 1133
f 1108 1160 1111
f 1108 1161 1160
f 733 745 1108
f 1100 1161 1108
f 1111 734 1108
f 1108 734 733
f 1108 745 746
f 1108 747 1100
f 1108 746 747
f 659 565 564
f 659 660 565
f 616 615 518
f 618 661 617
f 661 660 617
f 617 519 618
f 617 518 519
f 616 518 617
f 617 659 616
f 660 659 617
f 337 340 319
f 319 562 563
f 712 711 465
f 711 712 715
f 715 714 982
f 982 980 715
f 465 708 709
f 708 715 709
f 1083 1182 1081
f 1081 1082 1083
f 1081 1079 1082
f 1080 1078 1077
f 1077 1079 1080
f 1079 1081 1080
f 456 422 470
f 470 60 456
f 456 60 31
f 456 400 398
f 456 455 400
f 31 59 456
f 456 59 455
f 139 138 232
f 691 603 602
f 602 601 691
f 692 605 603
f 603 691 692
f 647 646 524
f 73 269 76
f 140 141 781
f 140 781 775
f 140 775 139
f 143 780 142
f 142 780 141
f 229 142 141
f 230 269 229
f 229 140 230
f 141 140 229
f 973 1140 1141
f 975 1140 973
f 410 975 973
f 973 409 410
f 408 407 467
f 978 407 408
f 467 979 408
f 408 979 978
f 1141 979 694
f 694 979 409
f 694 973 1141
f 409 973 694
f 1016 978 1143
f 1142 979 1141
f 1141 1061 1142
f 978 979 1142
f 1142 1143 978
f 1061 1060 1142
f 1060 1143 1142
f 1056 1145 1058
f 414 413 1014
f 1014 1013 414
f 414 405 413
f 414 402 405
f 1013 403 414
f 414 403 402
f 1144 1015 1016
f 1058 1015 1144
f 1016 1143 1144
f 1144 1143 1060
f 477 1011 417
f 417 1009 477
f 1011 1009 417
f 1004 1009 1135
f 1135 1095 1093
f 1147 1011 1012
f 1012 1146 1147
f 1147 1146 1096
f 507 509 506
f 507 508 509
f 507 506 42
f 42 508 507
f 495 497 509
f 495 509 331
f 500 497 499
f 332 500 499
f 555 554 504
f 504 554 505
f 663 664 594
f 594 554 663
f 663 620 621
f 621 664 663
f 663 662 620
f 663 554 662
f 682 639 683
f 683 567 682
f 682 567 568
f 568 681 682
f 569 681 568
f 568 924 569
f 926 570 569
f 569 924 926
f 462 388 385
f 385 386 462
f 385 388 444
f 444 386 385
f 817 1105 1104
f 1104 1103 818
f 818 817 1104
f 1105 1019 1166
f 1166 1019 1020
f 1166 1104 1105
f 1020 1165 1166
f 1166 1165 1103
f 1103 1104 1166
f 70 472 1
f 473 472 70
f 443 472 473
f 989 1126 1131
f 1119 1118 1131
f 1131 1126 1119
f 996 435 479
f 996 989 435
f 996 1126 989
f 985 1127 996
f 1127 1126 996
f 478 424 425
f 425 424 1000
f 1000 998 425
f 1188 1190 1171
f 1073 1074 1171
f 1171 1071 1073
f 1190 1071 1171
f 1074 1172 1171
f 1186 1188 1171
f 1171 1172 1186
f 1191 1190 1188
f 1191 1189 1175
f 1188 1189 1191
f 1175 860 1191
f 860 861 1191
f 861 1190 1191
f 1078 1172 1076
f 1076 1172 1074
f 1076 1074 1075
f 1076 1075 1077
f 1077 1078 1076
f 1046 1189 1045
f 1045 1189 1036
f 1177 756 1040
f 1177 1176 1178
f 420 466 1007
f 466 419 1007
f 1007 419 1005
f 1005 1150 1007
f 1087 1150 1149
f 1149 1089 1087
f 1149 1150 1005
f 1005 1004 1149
f 1004 1135 1149
f 886 936 935
f 935 884 886
f 886 884 885
f 886 1056 1058
f 885 1056 886
f 753 754 1096
f 1096 764 753
f 753 764 754
f 749 885 754
f 1092 1179 1090
f 1092 1090 1093
f 1093 1095 1092
f 754 885 755
f 885 884 755
f 1174 1185 1183
f 1183 1184 1174
f 1174 1187 1186
f 1186 1185 1174
f 1038 1187 1174
f 1047 1184 1048
f 1088 1085 1087
f 1088 1089 1090
f 1087 1089 1088
f 1090 1181 1088
f 1181 1085 1088
f 903 902 905
f 904 907 905
f 905 902 904
f 891 919 916
f 891 893 919
f 927 936 937
f 935 936 927
f 718 980 719
f 719 427 718
f 908 890 910
f 889 890 908
f 908 888 889
f 844 846 845
f 882 883 843
f 843 844 882
f 882 844 845
f 882 845 857
f 857 881 882
f 742 743 739
f 739 741 742
f 742 741 1111
f 1111 856 742
f 742 856 743
f 874 1118 875
f 1117 1118 874
f 874 1113 1117
f 874 873 1113
f 872 880 879
f 1114 873 872
f 879 1115 872
f 1115 1114 872
f 841 882 881
f 883 882 841
f 652 653 557
f 652 651 607
f 557 650 652
f 650 651 652
f 693 190 106
f 608 190 693
f 610 611 654
f 654 653 610
f 539 631 540
f 538 631 539
f 677 572 573
f 571 572 677
f 677 678 571
f 675 574 674
f 149 221 150
f 151 830 150
f 830 149 150
f 263 262 223
f 223 224 263
f 84 262 263
f 85 84 263
f 263 264 85
f 225 264 263
f 263 224 225
f 90 255 91
f 90 89 255
f 253 254 82
f 254 89 82
f 82 94 253
f 93 251 94
f 92 251 93
f 252 212 213
f 252 251 212
f 94 251 252
f 213 253 252
f 253 94 252
f 182 179 180
f 179 181 180
f 212 182 180
f 180 181 212
f 157 174 155
f 157 158 174
f 153 179 154
f 179 158 154
f 110 242 101
f 101 242 102
f 244 245 100
f 204 205 244
f 244 205 206
f 206 245 244
f 438 968 480
f 995 968 438
f 480 439 438
f 438 994 995
f 438 439 994
f 992 991 1129
f 1129 993 992
f 992 440 991
f 993 440 992
f 459 393 392
f 393 440 392
f 481 987 437
f 987 988 437
f 658 615 616
f 616 659 658
f 658 563 657
f 564 563 658
f 658 659 564
f 657 614 658
f 614 615 658
f 517 615 516
f 517 518 615
f 500 484 486
f 332 487 486
f 332 484 492
f 492 484 500
f 337 321 322
f 322 323 337
f 322 321 563
f 563 323 322
f 324 563 564
f 324 323 563
f 337 323 324
f 318 340 317
f 318 319 340
f 317 562 318
f 562 319 318
f 320 321 337
f 337 319 320
f 563 321 320
f 320 319 563
f 465 714 713
f 713 712 465
f 714 715 713
f 713 715 712
f 711 715 710
f 710 715 708
f 465 711 710
f 710 708 465
f 716 715 980
f 716 709 715
f 1173 1080 1081
f 1173 1182 1185
f 1173 1081 1182
f 1173 1185 1186
f 1186 1172 1173
f 1173 1172 1078
f 1078 1080 1173
f 398 1003 399
f 399 456 398
f 1003 422 399
f 422 456 399
f 76 269 270
f 649 691 648
f 649 692 691
f 649 521 606
f 606 605 649
f 605 692 649
f 690 691 601
f 648 691 690
f 690 647 648
f 690 601 600
f 600 689 690
f 690 689 646
f 646 647 690
f 523 647 524
f 267 229 268
f 268 229 269
f 228 229 267
f 142 229 228
f 267 227 228
f 228 227 143
f 143 142 228
f 1057 749 1097
f 1057 1097 1146
f 1145 1056 1057
f 1146 1013 1057
f 1013 1145 1057
f 950 886 1058
f 936 886 950
f 937 936 950
f 1091 1135 1093
f 1093 1090 1091
f 1090 1089 1091
f 1089 1149 1091
f 1091 1149 1135
f 1095 1135 1148
f 1011 1147 1148
f 1148 1009 1011
f 1148 1135 1009
f 1096 1095 1148
f 1148 1147 1096
f 331 497 496
f 496 495 331
f 497 495 496
f 498 497 332
f 332 499 498
f 498 499 497
f 494 502 504
f 494 493 553
f 553 555 494
f 555 491 494
f 553 493 483
f 69 71 473
f 473 70 69
f 442 443 473
f 442 441 1026
f 473 441 442
f 1026 1160 1025
f 1160 1161 1025
f 1025 442 1026
f 443 442 1025
f 1024 1025 1161
f 443 1025 1024
f 1024 387 389
f 389 472 1024
f 472 443 1024
f 1024 1023 444
f 444 387 1024
f 989 1131 990
f 990 1131 991
f 990 991 434
f 435 989 990
f 990 434 435
f 991 1131 1130
f 1130 1117 1129
f 1129 991 1130
f 1130 1118 1117
f 1130 1131 1118
f 479 432 431
f 431 996 479
f 432 985 431
f 985 996 431
f 426 998 982
f 426 425 998
f 426 982 997
f 426 997 478
f 478 425 426
f 1041 1177 1040
f 919 893 918
f 1001 421 420
f 1096 1097 762
f 1178 1179 752
f 1179 755 752
f 1179 1092 1094
f 1094 755 1179
f 754 755 1094
f 1094 1092 1095
f 1096 754 1094
f 1094 1095 1096
f 1038 1174 1039
f 1039 1174 1184
f 1184 1047 1039
f 915 891 916
f 935 927 915
f 980 718 717
f 717 718 427
f 717 427 465
f 465 709 717
f 717 716 980
f 709 716 717
f 869 864 865
f 510 693 106
f 511 693 510
f 513 611 512
f 611 610 512
f 653 652 609
f 609 610 653
f 511 512 609
f 609 512 610
f 608 693 609
f 609 693 511
f 607 608 609
f 609 652 607
f 676 677 573
f 633 677 676
f 573 574 676
f 574 675 676
f 538 537 632
f 632 537 633
f 632 631 538
f 633 676 632
f 632 676 675
f 674 631 632
f 632 675 674
f 536 535 634
f 634 677 633
f 634 537 536
f 633 537 634
f 259 258 220
f 220 258 219
f 220 150 221
f 220 219 151
f 151 150 220
f 220 260 259
f 220 221 260
f 99 244 100
f 102 244 99
f 204 244 243
f 243 244 102
f 243 242 204
f 102 242 243
f 390 460 459
f 459 392 390
f 390 392 440
f 390 391 460
f 390 440 994
f 439 391 390
f 994 439 390
f 481 437 436
f 436 437 988
f 485 484 332
f 332 486 485
f 485 486 484
f 501 500 332
f 332 492 501
f 501 492 500
f 564 326 325
f 325 324 564
f 325 326 332
f 332 337 325
f 337 324 325
f 271 77 76
f 76 270 271
f 139 232 231
f 232 271 231
f 231 271 270
f 231 140 139
f 230 140 231
f 231 269 230
f 231 270 269
f 648 647 522
f 647 523 522
f 522 649 648
f 521 649 522
f 606 521 520
f 269 73 80
f 80 268 269
f 79 267 80
f 267 268 80
f 1054 1056 885
f 1059 1144 1060
f 1058 1144 1059
f 1059 950 1058
f 555 504 503
f 503 502 555
f 504 502 503
f 490 494 491
f 502 494 490
f 490 491 555
f 555 502 490
f 489 553 482
f 553 483 482
f 493 494 482
f 482 483 493
f 681 569 680
f 680 637 681
f 637 636 533
f 681 637 638
f 638 532 639
f 638 533 532
f 637 533 638
f 639 682 638
f 638 682 681
f 68 70 1
f 68 69 70
f 71 69 68
f 1 13 68
f 13 71 68
f 1162 1161 1100
f 1162 1024 1161
f 1162 1101 1163
f 1100 1101 1162
f 1163 1023 1162
f 1023 1024 1162
f 1177 1041 1042
f 1042 1048 1176
f 1176 1177 1042
f 919 918 757
f 1040 756 757
f 756 919 757
f 420 1007 1008
f 1008 1001 420
f 421 1001 1002
f 1002 1154 1003
f 1002 1003 398
f 398 421 1002
f 1083 1082 1084
f 1084 1085 1083
f 1086 1085 1084
f 760 749 754
f 1097 749 760
f 1178 752 751
f 751 1177 1178
f 756 1177 751
f 916 756 751
f 751 752 916
f 917 755 884
f 917 752 755
f 916 752 917
f 917 915 916
f 917 884 935
f 935 915 917
f 897 899 895
f 929 930 897
f 897 930 899
f 928 927 937
f 929 897 928
f 928 897 898
f 928 938 929
f 937 938 928
f 873 874 870
f 869 865 870
f 875 869 870
f 870 874 875
f 866 841 881
f 881 880 866
f 883 841 840
f 841 849 840
f 848 850 847
f 678 677 635
f 677 634 635
f 635 634 535
f 635 636 678
f 535 636 635
f 949 1059 1060
f 950 1059 949
f 937 950 949
f 948 937 949
f 949 1060 948
f 637 680 679
f 679 636 637
f 679 569 570
f 679 680 569
f 570 678 679
f 678 636 679
f 534 636 535
f 534 533 636
f 1154 1002 1153
f 1082 1079 1153
f 1079 1154 1153
f 1153 1002 1001
f 754 762 761
f 761 760 754
f 761 762 1097
f 1097 760 761
f 1096 762 763
f 763 766 1096
f 763 762 754
f 754 766 763
f 754 764 765
f 765 766 754
f 765 764 1096
f 1096 766 765
f 896 894 898
f 896 897 895
f 898 897 896
f 892 894 893
f 893 891 892
f 898 894 892
f 891 915 892
f 892 915 927
f 927 928 892
f 892 928 898
f 873 870 871
f 871 866 880
f 871 870 865
f 865 866 871
f 880 872 871
f 871 872 873
f 842 848 849
f 850 848 842
f 842 849 841
f 864 850 842
f 842 865 864
f 841 866 842
f 842 866 865
f 1055 1057 1056
f 1056 1054 1055
f 1055 1054 885
f 885 749 750
f 750 758 885
f 749 1057 750
f 1057 758 750
f 1152 1084 1082
f 1082 1153 1152
f 1152 1153 1001
f 1001 1008 1152
f 1086 1084 1152
f 759 758 1057
f 1057 1055 759
f 885 758 759
f 759 1055 885
f 1150 1086 1151
f 1086 1152 1151
f 1151 1152 1008
f 1151 1007 1150
f 1151 1008 1007
f 156 969 1017
f 156 1017 152
f 133 279 277
f 133 277 134
f 577 579 576
f 576 579 578
f 578 579 581
f 581 580 578
f 593 592 591
f 591 592 590
f 360 351 378
f 378 379 360
f 277 279 274
f 274 279 278
f 396 394 457
f 457 394 458
f 1004 1006 476
f 476 418 1004
f 580 581 582
f 582 581 583
f 587 589 588
f 586 587 588
f 588 591 590
f 588 589 591
f 434 393 459
f 434 459 464
f 401 455 466
f 401 466 420
f 403 415 469
f 403 469 454
f 584 582 583
f 583 585 584
f 584 587 586
f 584 585 587
f 966 967 988
f 971 966 988
f 604 605 232
f 232 138 604
f 154 156 152
f 152 153 154
f 154 155 156
f 154 157 155
f 158 157 154
f 391 439 480
f 480 460 391
f 436 988 967
f 436 967 481
f 271 232 605
f 271 605 606
f 520 271 606
f 77 271 520
f 482 487 489
f 482 497 500
f 482 505 509
f 500 486 482
f 509 497 482
f 482 504 505
f 482 486 487
f 482 494 504
f 534 95 96
f 540 541 534
f 528 529 534
f 110 101 534
f 534 93 94
f 87 88 534
f 534 525 526
f 534 74 78
f 534 544 545
f 534 542 543
f 516 515 534
f 531 532 534
f 534 527 528
f 534 81 83
f 83 84 534
f 534 552 519
f 534 517 516
f 534 530 531
f 113 109 534
f 534 78 79
f 534 112 113
f 534 520 521
f 534 86 87
f 91 75 534
f 534 100 97
f 534 104 105
f 106 107 534
f 543 544 534
f 526 527 534
f 105 103 534
f 534 514 513
f 534 84 85
f 97 98 534
f 96 92 534
f 549 550 534
f 541 542 534
f 534 548 549
f 545 546 534
f 524 525 534
f 111 112 534
f 534 103 111
f 76 77 534
f 534 539 540
f 534 88 81
f 534 75 86
f 85 74 534
f 534 535 536
f 98 95 534
f 513 512 534
f 534 109 110
f 534 107 108
f 534 550 551
f 551 552 534
f 547 548 534
f 534 546 547
f 529 530 534
f 534 510 106
f 515 514 534
f 536 537 534
f 534 90 91
f 94 82 534
f 108 104 534
f 519 518 534
f 534 523 524
f 534 73 76
f 538 539 534
f 534 537 538
f 79 80 534
f 89 90 534
f 534 82 89
f 92 93 534
f 534 101 102
f 518 517 534
f 534 99 100
f 521 522 534
f 511 510 534
f 534 512 511
f 102 99 534
f 534 522 523
f 77 520 534
f 534 80 73
f 532 533 534
f 896 901 903
f 896 956 955
f 896 786 788
f 795 797 896
f 1046 1045 896
f 965 953 896
f 887 767 896
f 896 959 958
f 776 777 896
f 896 954 965
f 896 771 770
f 731 776 896
f 896 1034 731
f 896 1030 1031
f 960 959 896
f 896 953 960
f 955 954 896
f 896 914 887
f 843 883 896
f 847 852 896
f 1031 1032 896
f 896 778 784
f 767 957 896
f 964 1050 896
f 837 855 896
f 896 1051 1046
f 1048 1042 896
f 910 912 896
f 903 905 896
f 896 838 837
f 896 772 791
f 896 784 786
f 788 790 896
f 896 793 795
f 1049 1029 896
f 958 961 896
f 896 951 964
f 957 956 896
f 895 901 896
f 1040 757 896
f 896 1035 1049
f 896 1037 1038
f 896 912 914
f 770 748 896
f 797 771 896
f 896 908 910
f 896 790 772
f 777 779 896
f 896 1032 1033
f 1033 1034 896
f 896 1029 1028
f 1028 1027 896
f 896 961 962
f 962 952 896
f 1044 1043 896
f 896 1050 1044
f 896 844 843
f 855 1051 896
f 1036 1037 896
f 907 888 896
f 748 846 896
f 896 852 853
f 853 838 896
f 1038 1039 896
f 791 793 896
f 779 778 896
f 1027 1030 896
f 952 951 896
f 1043 1035 896
f 896 1045 1036
f 896 1041 1040
f 896 1047 1048
f 896 905 907
f 888 908 896
f 846 844 896
f 883 840 896
f 896 918 893
f 896 1039 1047
f 896 848 847
f 896 1042 1041
f 896 757 918
f 893 894 896
f 896 840 849
f 849 848 896
