v -0.088355 -0.030418 0.016738
v -0.088355 -0.029233 0.016712
v -0.107130 -0.030418 0.016738
v -0.088355 -0.031883 0.016623
v -0.088355 -0.028963 0.016702
v -0.107130 -0.028963 0.016702
v -0.111532 -0.028963 0.016692
v -0.111532 -0.030418 0.016715
v -0.110063 -0.031883 0.016623
v -0.088355 -0.033353 0.016394
v -0.088355 -0.027493 0.016554
v -0.107130 -0.027493 0.016554
v -0.111532 -0.027493 0.016551
v -0.112997 -0.028963 0.016600
v -0.112997 -0.027493 0.016482
v -0.112997 -0.030418 0.016617
v -0.112997 -0.031883 0.016525
v -0.111532 -0.031883 0.016610
v -0.110063 -0.033353 0.016394
v -0.088355 -0.033632 0.016325
v -0.088355 -0.026303 0.016322
v -0.111532 -0.026023 0.016266
v -0.112997 -0.026023 0.016240
v -0.114038 -0.028963 0.016086
v -0.114038 -0.027493 0.016036
v -0.113878 -0.024893 0.015794
v -0.113994 -0.026023 0.015935
v -0.114038 -0.030418 0.016092
v -0.114038 -0.031883 0.016050
v -0.114007 -0.033353 0.015964
v -0.113878 -0.034818 0.015797
v -0.112997 -0.033353 0.016312
v -0.111532 -0.033353 0.016371
v -0.110063 -0.034818 0.016017
v -0.088355 -0.034818 0.016017
v -0.088355 -0.026023 0.016266
v -0.111532 -0.024647 0.015873
v -0.112997 -0.024675 0.015873
v -0.119701 -0.023535 0.012823
v -0.112997 -0.023945 0.015594
v -0.112997 -0.023094 0.015233
v -0.113888 -0.001458 0.005541
v -0.119697 -0.036283 0.012817
v -0.119635 -0.037074 0.012761
v -0.113762 -0.035609 0.015682
v -0.112997 -0.034818 0.015958
v -0.111532 -0.034818 0.015994
v -0.111532 -0.035697 0.015718
v -0.110063 -0.035730 0.015728
v -0.088355 -0.035730 0.015728
v -0.088355 -0.024907 0.015935
v -0.088355 -0.023912 0.015633
v -0.110063 -0.023912 0.015633
v -0.111532 -0.023917 0.015627
v -0.119801 -0.022117 0.011630
v -0.119942 -0.023066 0.012066
v -0.120064 -0.024559 0.011991
v -0.120102 -0.036283 0.011991
v -0.111532 -0.023094 0.015269
v -0.113000 -0.000514 0.005302
v -0.113935 -0.000109 0.004341
v -0.119795 -0.037641 0.011869
v -0.119622 -0.038506 0.011302
v -0.113913 -0.041673 0.011528
v -0.113894 -0.040199 0.012915
v -0.113793 -0.038571 0.014250
v -0.112997 -0.035655 0.015702
v -0.112997 -0.037748 0.014722
v -0.112997 -0.036390 0.015364
v -0.111532 -0.036437 0.015417
v -0.110063 -0.036465 0.015433
v -0.088355 -0.036465 0.015433
v -0.088355 -0.023094 0.015246
v -0.111535 -0.000519 0.005299
v -0.119813 -0.016224 0.001368
v -0.120350 -0.017238 0.000263
v -0.120325 -0.023094 0.010522
v -0.120384 -0.024559 0.010522
v -0.120403 -0.036283 0.010522
v -0.120055 -0.037748 0.010522
v -0.113000 0.000058 0.004568
v -0.113000 0.000579 0.003197
v -0.114035 0.000063 0.003197
v -0.119945 -0.016043 0.000263
v -0.120121 -0.043613 0.000263
v -0.119653 -0.044399 0.001086
v -0.113759 -0.044375 0.008364
v -0.113888 -0.043069 0.010027
v -0.112997 -0.042552 0.010895
v -0.112997 -0.041822 0.011682
v -0.112997 -0.041073 0.012417
v -0.112997 -0.040343 0.013027
v -0.112997 -0.039362 0.013758
v -0.112997 -0.038632 0.014286
v -0.111532 -0.037748 0.014791
v -0.110063 -0.037748 0.014823
v -0.088355 -0.036711 0.015318
v -0.088355 -0.021977 0.014673
v -0.110609 -0.000114 0.004335
v -0.111535 0.000053 0.004564
v -0.088355 -0.021722 0.014538
v -0.088355 -0.020987 0.014145
v -0.088355 -0.020164 0.013528
v -0.088355 -0.019289 0.012843
v -0.088355 -0.018694 0.012315
v -0.088355 -0.018554 0.012191
v -0.088355 -0.017782 0.011456
v -0.120202 -0.017238 -0.001193
v -0.120206 -0.023094 -0.011459
v -0.120315 -0.023094 -0.009993
v -0.120372 -0.024559 -0.009993
v -0.120356 -0.018703 0.000263
v -0.119851 -0.016173 -0.001193
v -0.120394 -0.036283 -0.009993
v -0.120403 -0.042148 0.000263
v -0.111535 0.000570 0.003197
v -0.113000 0.000719 0.001732
v -0.114035 0.000123 0.001732
v -0.114032 0.000151 0.000263
v -0.114029 0.000133 -0.001196
v -0.114026 0.000091 -0.002662
v -0.119920 -0.043641 -0.001180
v -0.119697 -0.044441 -0.000682
v -0.119716 -0.044459 0.000263
v -0.120259 -0.042148 -0.001193
v -0.120284 -0.036283 -0.011459
v -0.112997 -0.046492 0.001728
v -0.113947 -0.046031 0.003194
v -0.113840 -0.045915 0.004325
v -0.112997 -0.045771 0.005295
v -0.112997 -0.045413 0.006128
v -0.112997 -0.044766 0.007597
v -0.111532 -0.044855 0.007597
v -0.112997 -0.044389 0.008400
v -0.112997 -0.043910 0.009135
v -0.112997 -0.043176 0.010164
v -0.111532 -0.042608 0.010938
v -0.111532 -0.041873 0.011732
v -0.111532 -0.041115 0.012463
v -0.111532 -0.040380 0.013073
v -0.111532 -0.039395 0.013804
v -0.111532 -0.038664 0.014305
v -0.110063 -0.039418 0.013830
v -0.088355 -0.037748 0.014823
v -0.110063 -0.038683 0.014309
v -0.110515 0.000053 0.003197
v -0.088355 -0.017052 0.010587
v -0.088355 -0.016452 0.009853
v -0.088355 -0.015945 0.009063
v -0.088355 -0.015262 0.007902
v -0.088355 -0.014866 0.007168
v -0.088355 -0.014429 0.006128
v -0.088355 -0.014029 0.004938
v -0.088355 -0.013936 0.004656
v -0.088355 -0.013643 0.003548
v -0.119685 -0.022266 -0.012282
v -0.119826 -0.023094 -0.012452
v -0.120268 -0.024559 -0.011459
v -0.113922 -0.000109 -0.004131
v -0.113790 -0.000309 -0.004918
v -0.111535 0.000709 0.001732
v -0.111535 0.000770 0.000263
v -0.113000 0.000774 0.000263
v -0.113000 0.000746 -0.001196
v -0.113000 0.000653 -0.002662
v -0.119904 -0.037771 -0.011419
v -0.113837 -0.044459 -0.007990
v -0.113759 -0.045840 -0.004931
v -0.113859 -0.045938 -0.004127
v -0.113978 -0.046073 -0.002665
v -0.112997 -0.046529 -0.001196
v -0.119672 -0.038548 -0.010905
v -0.112997 -0.046561 0.000263
v -0.119879 -0.036283 -0.012521
v -0.119766 -0.037302 -0.012386
v -0.111532 -0.046678 0.000263
v -0.111532 -0.046585 0.001728
v -0.112997 -0.046287 0.003194
v -0.112997 -0.045975 0.004561
v -0.111990 -0.045803 0.005351
v -0.111513 -0.045571 0.005991
v -0.110063 -0.045557 0.006164
v -0.110063 -0.044901 0.007597
v -0.111532 -0.044417 0.008443
v -0.111532 -0.043948 0.009177
v -0.111532 -0.043217 0.010207
v -0.110063 -0.042636 0.010964
v -0.110063 -0.041906 0.011758
v -0.110063 -0.041139 0.012489
v -0.110063 -0.040404 0.013095
v -0.088355 -0.039418 0.013830
v -0.088355 -0.038683 0.014309
v -0.110512 0.000114 0.001732
v -0.088355 -0.013527 0.002951
v -0.088355 -0.013504 0.002814
v -0.088355 -0.013364 0.001728
v -0.088355 -0.013266 0.000263
v -0.113869 -0.023466 -0.015272
v -0.119864 -0.024559 -0.012501
v -0.113756 -0.028079 -0.016613
v -0.113790 -0.028963 -0.016642
v -0.113000 0.000216 -0.004131
v -0.113000 -0.000267 -0.004954
v -0.112997 -0.023252 -0.015367
v -0.110506 0.000133 -0.001196
v -0.111535 0.000746 -0.001196
v -0.111535 0.000653 -0.002662
v -0.112997 -0.043329 -0.009934
v -0.112997 -0.044059 -0.008846
v -0.112997 -0.044529 -0.008114
v -0.112997 -0.045013 -0.007062
v -0.113909 -0.043152 -0.009691
v -0.112997 -0.042827 -0.010668
v -0.112997 -0.045859 -0.005000
v -0.111532 -0.046175 -0.004127
v -0.112997 -0.046096 -0.004127
v -0.112997 -0.046380 -0.002665
v -0.111532 -0.045650 -0.005836
v -0.111532 -0.046640 -0.001196
v -0.113800 -0.030418 -0.016649
v -0.113765 -0.031432 -0.016623
v -0.113897 -0.036037 -0.015318
v -0.113718 -0.037018 -0.015124
v -0.113906 -0.038827 -0.013878
v -0.112997 -0.041385 -0.012160
v -0.113906 -0.041850 -0.011173
v -0.110063 -0.046729 0.000263
v -0.110063 -0.046626 0.001728
v -0.110063 -0.046422 0.003194
v -0.111532 -0.046375 0.003194
v -0.111513 -0.045985 0.004781
v -0.111011 -0.045827 0.005417
v -0.110063 -0.045827 0.005430
v -0.088355 -0.045557 0.006164
v -0.088355 -0.045027 0.007325
v -0.088355 -0.044901 0.007597
v -0.110063 -0.044431 0.008476
v -0.110063 -0.043976 0.009204
v -0.110063 -0.043241 0.010230
v -0.088355 -0.042752 0.010827
v -0.088355 -0.042636 0.010964
v -0.088355 -0.041906 0.011758
v -0.088355 -0.041139 0.012489
v -0.088355 -0.040404 0.013095
v -0.088355 -0.013304 -0.000918
v -0.110506 0.000091 -0.002662
v -0.112997 -0.024559 -0.015816
v -0.112997 -0.027926 -0.016632
v -0.112997 -0.028963 -0.016721
v -0.112997 -0.026023 -0.016209
v -0.112997 -0.027186 -0.016495
v -0.112997 -0.030418 -0.016734
v -0.111535 0.000216 -0.004131
v -0.111535 -0.000267 -0.004954
v -0.111532 -0.022503 -0.015065
v -0.111532 -0.023228 -0.015383
v -0.111532 -0.024559 -0.015885
v -0.110609 -0.000105 -0.004131
v -0.111532 -0.044129 -0.008911
v -0.111532 -0.044562 -0.008177
v -0.111532 -0.045124 -0.007062
v -0.111532 -0.042859 -0.010698
v -0.111532 -0.043399 -0.009964
v -0.112215 -0.041413 -0.012190
v -0.111237 -0.041441 -0.012219
v -0.111532 -0.045892 -0.005105
v -0.110063 -0.046222 -0.004127
v -0.110063 -0.046529 -0.002665
v -0.111532 -0.046473 -0.002665
v -0.110063 -0.045678 -0.005905
v -0.110063 -0.046687 -0.001196
v -0.112997 -0.031684 -0.016649
v -0.112997 -0.032414 -0.016547
v -0.112997 -0.034818 -0.015937
v -0.113138 -0.036427 -0.015390
v -0.112742 -0.037055 -0.015144
v -0.113138 -0.037623 -0.014826
v -0.112997 -0.039036 -0.014019
v -0.112997 -0.039767 -0.013501
v -0.111648 -0.040832 -0.012714
v -0.108598 -0.046738 0.000263
v -0.108598 -0.046636 0.001728
v -0.088355 -0.046464 0.002918
v -0.088355 -0.046422 0.003194
v -0.110063 -0.046059 0.004656
v -0.088355 -0.045873 0.005286
v -0.088355 -0.045827 0.005430
v -0.088355 -0.044431 0.008476
v -0.088355 -0.043976 0.009204
v -0.088355 -0.043241 0.010230
v -0.088355 -0.013313 -0.001196
v -0.088355 -0.013466 -0.002665
v -0.088355 -0.013564 -0.003423
v -0.111532 -0.026023 -0.016311
v -0.111532 -0.027861 -0.016642
v -0.111532 -0.028963 -0.016737
v -0.111532 -0.027130 -0.016541
v -0.111532 -0.030418 -0.016757
v -0.110744 -0.000309 -0.004918
v -0.088355 -0.022596 -0.015006
v -0.088355 -0.023326 -0.015367
v -0.088355 -0.024326 -0.015744
v -0.088355 -0.024559 -0.015829
v -0.088355 -0.025749 -0.016186
v -0.088355 -0.026023 -0.016268
v -0.088355 -0.013783 -0.004150
v -0.088355 -0.014229 -0.005596
v -0.110063 -0.044162 -0.008947
v -0.110063 -0.044575 -0.008216
v -0.110063 -0.045171 -0.007062
v -0.110063 -0.041455 -0.012232
v -0.108598 -0.042166 -0.011462
v -0.088355 -0.042729 -0.010842
v -0.088355 -0.042855 -0.010698
v -0.088355 -0.043436 -0.009964
v -0.108598 -0.043436 -0.009964
v -0.110063 -0.043431 -0.009964
v -0.110063 -0.045906 -0.005170
v -0.088355 -0.045868 -0.005311
v -0.088355 -0.046166 -0.004327
v -0.088355 -0.046222 -0.004127
v -0.088355 -0.046473 -0.002941
v -0.088355 -0.046529 -0.002665
v -0.088355 -0.046659 -0.001472
v -0.088355 -0.045678 -0.005905
v -0.088355 -0.046687 -0.001196
v -0.111532 -0.031758 -0.016659
v -0.111532 -0.032488 -0.016577
v -0.111532 -0.033353 -0.016400
v -0.111532 -0.034818 -0.016026
v -0.111532 -0.036283 -0.015505
v -0.111532 -0.037088 -0.015160
v -0.111532 -0.037818 -0.014783
v -0.111532 -0.039078 -0.014049
v -0.111532 -0.039813 -0.013557
v -0.088355 -0.046738 0.000263
v -0.088355 -0.046636 0.001728
v -0.088355 -0.046059 0.004656
v -0.088355 -0.027284 -0.016541
v -0.088355 -0.028777 -0.016688
v -0.088355 -0.028963 -0.016705
v -0.088355 -0.030418 -0.016737
v -0.088355 -0.014648 -0.006659
v -0.088355 -0.014745 -0.006905
v -0.088355 -0.015117 -0.007639
v -0.088355 -0.015517 -0.008360
v -0.088355 -0.015610 -0.008524
v -0.088355 -0.016257 -0.009586
v -0.088355 -0.016727 -0.010183
v -0.088355 -0.016834 -0.010318
v -0.088355 -0.017568 -0.011200
v -0.088355 -0.018103 -0.011796
v -0.088355 -0.018233 -0.011937
v -0.088355 -0.018824 -0.012459
v -0.088355 -0.018964 -0.012580
v -0.088355 -0.019689 -0.013173
v -0.088355 -0.019861 -0.013311
v -0.088355 -0.020591 -0.013882
v -0.088355 -0.021633 -0.014491
v -0.108598 -0.044166 -0.008947
v -0.088355 -0.044575 -0.008216
v -0.088355 -0.045059 -0.007282
v -0.088355 -0.045171 -0.007062
v -0.110063 -0.040683 -0.012868
v -0.088355 -0.040683 -0.012868
v -0.088355 -0.041311 -0.012350
v -0.088355 -0.041455 -0.012229
v -0.088355 -0.042166 -0.011462
v -0.088355 -0.044166 -0.008947
v -0.088355 -0.031437 -0.016662
v -0.088355 -0.031674 -0.016642
v -0.088355 -0.032265 -0.016586
v -0.088355 -0.032404 -0.016570
v -0.088355 -0.033353 -0.016396
v -0.088355 -0.034544 -0.016088
v -0.088355 -0.034818 -0.016016
v -0.088355 -0.036009 -0.015603
v -0.088355 -0.036283 -0.015505
v -0.110063 -0.037102 -0.015170
v -0.110063 -0.037832 -0.014780
v -0.110063 -0.039088 -0.014046
v -0.110063 -0.039822 -0.013567
v -0.088355 -0.039822 -0.013567
v -0.088355 -0.037097 -0.015170
v -0.088355 -0.037832 -0.014780
v -0.088355 -0.039088 -0.014046
f 254 301 255
f 109 159 160
f 74 107 99
f 26 42 39
f 56 57 39
f 198 247 200
f 300 301 254
f 159 165 202
f 202 160 159
f 254 255 203
f 160 202 203
f 7 6 13
f 60 61 42
f 60 52 74
f 60 53 52
f 116 99 146
f 110 76 109
f 111 76 110
f 112 111 78
f 78 76 112
f 112 76 111
f 109 76 108
f 121 165 159
f 121 164 165
f 42 61 55
f 56 39 55
f 55 39 42
f 204 247 198
f 198 160 204
f 204 203 255
f 160 203 204
f 198 200 157
f 250 247 294
f 250 200 247
f 298 342 327
f 305 339 294
f 296 342 298
f 294 339 297
f 358 359 299
f 359 300 299
f 299 300 254
f 299 258 307
f 8 9 3
f 3 7 8
f 6 7 3
f 46 32 45
f 19 9 18
f 18 9 8
f 158 110 109
f 111 110 158
f 174 126 158
f 109 157 158
f 37 53 54
f 52 53 37
f 54 53 59
f 53 60 59
f 41 42 26
f 41 60 42
f 41 59 60
f 54 59 41
f 74 52 73
f 61 60 81
f 196 197 146
f 146 195 196
f 155 99 154
f 146 99 155
f 84 61 83
f 76 61 84
f 24 25 39
f 15 23 26
f 13 23 15
f 15 7 13
f 45 32 31
f 31 44 45
f 30 44 31
f 32 18 17
f 17 31 32
f 30 31 17
f 8 16 17
f 17 18 8
f 56 55 77
f 77 55 76
f 77 76 78
f 77 57 56
f 78 57 77
f 75 61 76
f 76 55 75
f 75 55 61
f 45 44 66
f 43 44 30
f 247 204 257
f 294 247 257
f 257 305 294
f 174 158 199
f 199 158 157
f 109 160 156
f 156 157 109
f 156 160 198
f 198 157 156
f 251 250 294
f 200 250 251
f 294 297 251
f 85 124 86
f 85 80 79
f 86 63 85
f 85 63 80
f 123 124 85
f 342 296 341
f 298 252 249
f 249 296 298
f 295 297 339
f 295 341 296
f 258 299 253
f 253 299 254
f 307 258 306
f 258 293 306
f 197 205 162
f 163 117 162
f 246 205 197
f 246 293 258
f 2 3 1
f 6 3 2
f 2 5 6
f 13 6 12
f 19 18 33
f 33 18 32
f 32 46 33
f 36 37 22
f 22 23 13
f 13 12 22
f 52 37 51
f 51 37 36
f 26 23 38
f 38 37 54
f 23 22 38
f 38 22 37
f 74 73 98
f 106 107 74
f 74 102 103
f 103 104 74
f 154 99 153
f 99 152 153
f 99 150 151
f 151 152 99
f 147 99 107
f 147 148 99
f 149 150 99
f 99 148 149
f 116 117 82
f 61 81 82
f 83 61 82
f 82 117 83
f 99 116 100
f 74 99 100
f 116 82 100
f 100 82 81
f 194 195 146
f 146 155 194
f 113 84 121
f 113 121 159
f 113 108 76
f 76 84 113
f 113 159 109
f 109 108 113
f 14 15 25
f 14 24 16
f 25 24 14
f 7 15 14
f 14 16 8
f 8 7 14
f 27 15 26
f 25 15 27
f 26 39 27
f 39 25 27
f 65 66 44
f 144 97 96
f 79 80 58
f 44 43 58
f 58 78 79
f 58 57 78
f 58 39 57
f 58 43 39
f 29 43 30
f 29 17 16
f 30 17 29
f 301 257 256
f 256 257 204
f 256 255 301
f 256 204 255
f 201 157 200
f 201 199 157
f 200 249 201
f 201 249 252
f 370 327 342
f 272 221 252
f 298 327 272
f 272 252 298
f 273 221 272
f 222 221 223
f 115 85 79
f 123 85 122
f 122 85 126
f 325 319 270
f 270 319 318
f 166 122 126
f 166 172 123
f 123 122 166
f 175 224 225
f 225 226 175
f 172 166 175
f 223 224 175
f 175 126 174
f 175 166 126
f 175 222 223
f 174 221 175
f 221 222 175
f 374 330 329
f 274 221 273
f 223 221 274
f 273 329 274
f 274 329 330
f 278 224 223
f 340 295 339
f 341 295 340
f 296 249 248
f 248 295 296
f 248 249 200
f 297 295 248
f 200 251 248
f 248 251 297
f 358 299 357
f 354 299 353
f 354 355 299
f 350 351 299
f 353 299 352
f 299 351 352
f 344 345 299
f 348 299 347
f 146 197 193
f 197 162 193
f 161 116 146
f 146 193 161
f 161 193 162
f 161 117 116
f 161 162 117
f 206 162 205
f 205 246 206
f 206 164 163
f 163 162 206
f 20 10 19
f 20 34 35
f 19 34 20
f 47 33 46
f 21 12 11
f 21 22 12
f 36 22 21
f 54 41 40
f 40 38 54
f 40 41 26
f 26 38 40
f 101 102 74
f 74 98 101
f 74 104 105
f 105 106 74
f 121 84 120
f 84 119 120
f 164 121 120
f 163 164 120
f 120 119 163
f 163 119 118
f 118 117 163
f 83 117 118
f 118 84 83
f 118 119 84
f 45 66 68
f 71 97 72
f 71 96 97
f 80 63 62
f 62 58 80
f 62 63 44
f 44 58 62
f 16 24 28
f 28 29 16
f 43 29 28
f 28 24 39
f 39 43 28
f 87 63 86
f 88 63 87
f 323 268 322
f 318 319 267
f 321 322 267
f 267 322 268
f 129 87 86
f 302 257 301
f 302 303 257
f 305 257 304
f 257 303 304
f 252 221 220
f 220 201 252
f 220 221 174
f 174 199 220
f 199 201 220
f 371 372 327
f 327 370 371
f 126 85 125
f 125 115 126
f 85 115 125
f 114 115 79
f 79 78 114
f 78 111 114
f 126 115 114
f 111 158 114
f 114 158 126
f 311 366 367
f 365 366 311
f 311 364 365
f 213 226 225
f 375 330 374
f 375 376 330
f 330 331 275
f 223 274 275
f 275 274 330
f 384 379 378
f 378 379 331
f 328 373 374
f 374 329 328
f 372 373 328
f 327 372 328
f 328 329 273
f 273 272 328
f 328 272 327
f 334 278 333
f 335 278 334
f 364 311 335
f 299 355 356
f 356 357 299
f 349 299 348
f 349 350 299
f 343 299 307
f 343 344 299
f 299 345 346
f 346 347 299
f 245 246 197
f 245 291 246
f 293 246 292
f 246 291 292
f 258 253 207
f 207 246 258
f 207 206 246
f 67 46 45
f 67 47 46
f 64 65 44
f 64 63 88
f 44 63 64
f 188 189 139
f 145 142 143
f 96 142 145
f 95 142 96
f 240 241 187
f 187 239 240
f 188 137 187
f 240 239 290
f 321 267 320
f 320 267 319
f 227 271 281
f 219 271 227
f 268 271 219
f 169 123 168
f 169 170 123
f 128 129 86
f 318 267 266
f 266 270 318
f 266 218 270
f 270 218 261
f 309 361 362
f 315 262 314
f 262 313 314
f 368 311 367
f 265 311 262
f 262 213 265
f 168 123 167
f 123 172 167
f 330 376 377
f 377 331 330
f 377 378 331
f 379 333 332
f 331 379 332
f 277 278 223
f 277 333 278
f 334 333 380
f 380 333 379
f 382 335 334
f 364 335 382
f 278 335 279
f 225 224 279
f 224 278 279
f 47 67 48
f 34 47 48
f 48 49 34
f 48 71 49
f 45 68 69
f 69 67 45
f 138 137 188
f 188 139 138
f 88 87 136
f 189 190 140
f 140 139 189
f 140 190 143
f 96 71 70
f 70 95 96
f 67 69 70
f 68 95 70
f 70 69 68
f 71 48 70
f 70 48 67
f 142 95 94
f 66 93 94
f 94 68 66
f 94 95 68
f 143 142 94
f 65 64 91
f 91 64 90
f 90 138 91
f 91 138 139
f 237 238 184
f 184 183 237
f 87 129 130
f 324 268 323
f 324 271 268
f 324 326 271
f 176 219 227
f 170 169 217
f 168 216 217
f 217 169 168
f 232 285 233
f 316 262 315
f 168 218 214
f 218 266 214
f 270 261 310
f 310 362 363
f 309 362 310
f 211 218 168
f 211 261 218
f 168 167 211
f 312 368 313
f 312 313 262
f 262 311 312
f 311 368 312
f 264 213 225
f 264 265 213
f 280 335 311
f 311 265 280
f 265 264 280
f 280 279 335
f 225 279 280
f 280 264 225
f 212 167 172
f 213 167 212
f 172 175 212
f 212 175 226
f 226 213 212
f 331 332 276
f 223 275 276
f 276 275 331
f 276 332 333
f 276 277 223
f 333 277 276
f 334 380 381
f 381 382 334
f 385 379 384
f 385 380 379
f 89 136 137
f 89 138 90
f 137 138 89
f 88 136 89
f 89 64 88
f 90 64 89
f 137 136 186
f 239 187 186
f 186 187 137
f 186 238 239
f 141 140 143
f 93 140 141
f 143 94 141
f 141 94 93
f 92 140 93
f 92 93 66
f 139 140 92
f 92 91 139
f 66 65 92
f 65 91 92
f 131 132 87
f 87 130 131
f 131 181 132
f 130 181 131
f 129 128 127
f 173 176 127
f 124 173 127
f 86 124 127
f 127 128 86
f 179 130 129
f 282 337 283
f 283 229 282
f 284 229 283
f 171 217 219
f 171 176 173
f 219 176 171
f 171 124 123
f 171 173 124
f 123 170 171
f 170 217 171
f 268 219 269
f 219 217 269
f 269 217 216
f 232 233 182
f 182 181 232
f 286 285 338
f 287 233 286
f 286 233 285
f 132 181 133
f 87 132 133
f 133 182 183
f 181 182 133
f 133 134 87
f 183 184 133
f 184 134 133
f 232 181 180
f 180 181 130
f 130 179 180
f 317 316 360
f 262 316 317
f 308 360 309
f 308 317 360
f 309 310 260
f 260 310 261
f 260 308 309
f 259 308 260
f 215 216 168
f 168 214 215
f 215 269 216
f 215 266 267
f 215 214 266
f 215 267 268
f 268 269 215
f 135 186 136
f 135 136 87
f 87 134 135
f 177 176 227
f 177 127 176
f 231 229 285
f 231 285 232
f 232 180 231
f 231 180 179
f 129 127 178
f 178 179 129
f 127 177 178
f 235 236 183
f 183 182 235
f 235 182 234
f 262 317 263
f 317 308 263
f 263 213 262
f 263 259 213
f 263 308 259
f 213 259 208
f 259 209 208
f 208 167 213
f 208 209 167
f 210 211 167
f 167 209 210
f 261 211 210
f 210 260 261
f 210 209 259
f 259 260 210
f 238 186 185
f 186 135 185
f 185 184 238
f 185 134 184
f 185 135 134
f 228 177 227
f 228 281 282
f 227 281 228
f 282 229 228
f 229 177 228
f 229 231 230
f 230 231 179
f 179 178 230
f 230 177 229
f 230 178 177
f 253 203 202
f 254 203 253
f 12 5 11
f 6 5 12
f 1 3 4
f 4 3 9
f 19 10 4
f 4 9 19
f 100 81 60
f 100 60 74
f 19 33 47
f 47 34 19
f 35 34 50
f 34 49 50
f 72 50 71
f 71 50 49
f 244 191 190
f 190 191 143
f 244 190 243
f 243 190 189
f 188 242 243
f 243 189 188
f 207 253 202
f 207 202 165
f 165 164 207
f 164 206 207
f 145 191 192
f 143 191 145
f 145 192 144
f 144 96 145
f 187 241 242
f 187 242 188
f 288 289 238
f 237 288 238
f 289 290 238
f 238 290 239
f 281 326 336
f 271 326 281
f 360 369 361
f 360 361 309
f 382 383 365
f 365 364 382
f 337 281 336
f 282 281 337
f 229 284 338
f 338 285 229
f 236 288 237
f 237 183 236
f 315 369 316
f 369 360 316
f 310 363 325
f 325 270 310
f 386 383 381
f 383 382 381
f 386 381 385
f 385 381 380
f 182 287 234
f 182 233 287
f 235 366 365
f 244 243 235
f 235 21 11
f 342 341 235
f 235 359 358
f 1 4 235
f 197 196 235
f 353 352 235
f 372 371 235
f 235 337 336
f 301 300 235
f 235 354 353
f 235 155 154
f 235 97 144
f 321 320 235
f 235 319 325
f 235 300 359
f 325 363 235
f 235 340 339
f 307 306 235
f 235 2 1
f 235 73 52
f 235 103 102
f 235 151 150
f 235 191 244
f 144 192 235
f 338 284 235
f 339 305 235
f 348 347 235
f 11 5 235
f 235 20 35
f 235 346 345
f 235 105 104
f 52 51 235
f 107 106 235
f 154 153 235
f 235 147 107
f 235 196 195
f 150 149 235
f 195 194 235
f 235 370 342
f 374 373 235
f 235 375 374
f 288 236 235
f 358 357 235
f 235 356 355
f 235 349 348
f 235 306 293
f 5 2 235
f 235 4 10
f 72 97 235
f 235 51 36
f 235 98 73
f 102 101 235
f 104 103 235
f 235 153 152
f 152 151 235
f 148 147 235
f 235 149 148
f 235 194 155
f 35 50 235
f 235 241 240
f 323 322 235
f 293 292 235
f 235 302 301
f 305 304 235
f 235 373 372
f 240 290 235
f 235 369 315
f 235 362 361
f 367 366 235
f 384 378 235
f 341 340 235
f 365 383 235
f 355 354 235
f 351 350 235
f 235 352 351
f 345 344 235
f 235 343 307
f 235 245 197
f 10 20 235
f 36 21 235
f 235 101 98
f 106 105 235
f 235 50 72
f 192 191 235
f 242 241 235
f 235 243 242
f 235 289 288
f 235 377 376
f 235 322 321
f 235 324 323
f 303 302 235
f 235 304 303
f 235 371 370
f 361 369 235
f 284 283 235
f 315 314 235
f 376 375 235
f 235 368 367
f 235 383 386
f 357 356 235
f 350 349 235
f 344 343 235
f 347 346 235
f 291 245 235
f 235 292 291
f 235 290 289
f 235 320 319
f 336 326 235
f 234 287 235
f 363 362 235
f 235 314 313
f 313 368 235
f 378 377 235
f 235 385 384
f 326 324 235
f 235 286 338
f 386 385 235
f 235 283 337
f 287 286 235
