v -0.074124 -0.030819 0.024602
v -0.089042 -0.030819 0.024602
v -0.074124 -0.038545 0.024602
v -0.074124 -0.030819 0.019452
v -0.103943 -0.048675 0.024597
v -0.104214 -0.049396 0.024597
v -0.104443 -0.050285 0.024597
v -0.089879 -0.047364 0.024602
v -0.089042 -0.030819 -0.000325
v -0.103996 -0.048443 -0.025322
v -0.077540 -0.047364 0.024602
v -0.074124 -0.053286 0.024597
v -0.074124 -0.052182 0.019373
v -0.075479 -0.050285 -0.025322
v -0.075604 -0.048694 -0.025322
v -0.075717 -0.048369 -0.025322
v -0.076360 -0.047087 -0.025322
v -0.078960 -0.030819 -0.000325
v -0.104493 -0.050285 -0.025322
v -0.104514 -0.052182 0.021802
v -0.104437 -0.051287 0.024597
v -0.087422 -0.053645 0.024597
v -0.104193 -0.052212 0.024597
v -0.103934 -0.052886 0.024597
v -0.103710 -0.053294 0.024597
v -0.102594 -0.053535 0.024597
v -0.100697 -0.053615 0.024597
v -0.099539 -0.053626 0.024597
v -0.098800 -0.053628 0.024597
v -0.089069 -0.043838 -0.025322
v -0.102594 -0.047656 -0.025322
v -0.083632 -0.053645 0.024597
v -0.081732 -0.053642 0.024597
v -0.077936 -0.053631 0.024597
v -0.076697 -0.053584 0.024597
v -0.076039 -0.053557 0.024597
v -0.074910 -0.053421 0.024597
v -0.074428 -0.053347 0.024597
v -0.074395 -0.053341 0.024597
v -0.074124 -0.053510 0.024089
v -0.074124 -0.053921 0.019974
v -0.075488 -0.052179 -0.021828
v -0.075512 -0.050591 -0.025322
v -0.076459 -0.046949 -0.025322
v -0.078921 -0.043838 -0.025322
v -0.104068 -0.052231 -0.025322
v -0.104377 -0.052179 -0.023729
v -0.104526 -0.052179 -0.021828
v -0.104526 -0.054076 0.016109
v -0.104461 -0.054076 0.018005
v -0.104365 -0.052182 0.023698
v -0.098800 -0.054037 0.023698
v -0.087422 -0.054051 0.023698
v -0.103868 -0.053490 0.023698
v -0.103558 -0.055037 0.020883
v -0.102594 -0.053938 0.023698
v -0.100697 -0.054029 0.023698
v -0.083632 -0.054051 0.023698
v -0.077936 -0.054045 0.023698
v -0.076039 -0.053971 0.023698
v -0.075041 -0.055050 0.020918
v -0.074124 -0.053653 0.023747
v -0.074124 -0.053960 0.020062
v -0.075681 -0.052179 -0.023729
v -0.075473 -0.054076 -0.016134
v -0.075559 -0.054076 -0.018035
v -0.076149 -0.052267 -0.025322
v -0.103880 -0.052640 -0.025322
v -0.103880 -0.053496 -0.023729
v -0.104237 -0.054076 -0.019932
v -0.104467 -0.054076 -0.018035
v -0.104529 -0.054076 -0.016134
v -0.104541 -0.055975 -0.006649
v -0.104538 -0.055975 0.006624
v -0.104526 -0.055975 0.008525
v -0.104476 -0.055975 0.010421
v -0.104368 -0.055975 0.012312
v -0.103957 -0.055509 0.018005
v -0.104225 -0.054076 0.019901
v -0.100697 -0.054744 0.022022
v -0.098800 -0.054747 0.022022
v -0.103728 -0.055202 0.019901
v -0.103710 -0.057069 0.013842
v -0.103421 -0.056936 0.014819
v -0.103335 -0.056898 0.015107
v -0.102594 -0.056089 0.018005
v -0.102594 -0.055451 0.019901
v -0.102594 -0.055073 0.020981
v -0.102594 -0.054691 0.021934
v -0.083632 -0.054747 0.022022
v -0.077936 -0.054744 0.022022
v -0.076039 -0.054705 0.021959
v -0.074124 -0.054194 0.021851
v -0.076039 -0.055086 0.021011
v -0.077936 -0.056196 0.018005
v -0.076902 -0.056967 0.015317
v -0.076813 -0.057027 0.014824
v -0.076703 -0.057102 0.014213
v -0.076441 -0.057317 0.012312
v -0.076298 -0.057505 0.010421
v -0.074124 -0.054186 0.021670
v -0.075542 -0.055975 -0.010446
v -0.075857 -0.054076 -0.019932
v -0.076447 -0.053576 -0.023729
v -0.076325 -0.055603 -0.018035
v -0.075681 -0.055975 -0.012347
v -0.075944 -0.055975 -0.014238
v -0.076274 -0.052494 -0.025322
v -0.102594 -0.053231 -0.025322
v -0.103678 -0.053245 -0.024921
v -0.103567 -0.055042 -0.020924
v -0.103743 -0.055213 -0.019932
v -0.103966 -0.055512 -0.018035
v -0.104377 -0.055975 -0.012347
v -0.104487 -0.055975 -0.010446
v -0.104529 -0.055975 -0.008550
v -0.104100 -0.057872 -0.000961
v -0.104032 -0.057535 0.008525
v -0.104094 -0.057872 -0.000330
v -0.104074 -0.057872 0.000935
v -0.104044 -0.057657 0.006624
v -0.103981 -0.057397 0.010421
v -0.103868 -0.057234 0.012312
v -0.100697 -0.055108 0.021069
v -0.098800 -0.055108 0.021079
v -0.102594 -0.058262 0.008525
v -0.102594 -0.057969 0.010421
v -0.102594 -0.057624 0.012312
v -0.103076 -0.056991 0.014824
v -0.102070 -0.056950 0.015264
v -0.102662 -0.056696 0.015982
v -0.100697 -0.056191 0.018005
v -0.100697 -0.055531 0.019901
v -0.079835 -0.055108 0.021079
v -0.077936 -0.055108 0.021074
v -0.076938 -0.058847 0.004019
v -0.076870 -0.058883 0.002831
v -0.076810 -0.058916 0.000935
v -0.076110 -0.057872 0.002831
v -0.076051 -0.057872 0.000935
v -0.076045 -0.057872 -0.000330
v -0.076045 -0.057872 -0.000961
v -0.077936 -0.055539 0.019901
v -0.089325 -0.056199 0.018005
v -0.077936 -0.056713 0.016329
v -0.089325 -0.055545 0.019901
v -0.077936 -0.056986 0.015381
v -0.077936 -0.057124 0.014824
v -0.077367 -0.057105 0.014824
v -0.077936 -0.057709 0.012312
v -0.077936 -0.058085 0.010421
v -0.075482 -0.055975 -0.008550
v -0.076104 -0.057872 -0.002857
v -0.076244 -0.057651 -0.008550
v -0.076304 -0.057500 -0.010446
v -0.076739 -0.053286 -0.025009
v -0.076494 -0.052792 -0.025322
v -0.076619 -0.055282 -0.019932
v -0.076887 -0.055081 -0.021021
v -0.076444 -0.057315 -0.012347
v -0.076709 -0.057094 -0.014238
v -0.076914 -0.056964 -0.015323
v -0.100700 -0.053300 -0.025322
v -0.102594 -0.053336 -0.025107
v -0.102594 -0.055473 -0.019932
v -0.103544 -0.056925 -0.015191
v -0.102594 -0.053943 -0.023729
v -0.102594 -0.054686 -0.021969
v -0.102594 -0.055081 -0.021021
v -0.103675 -0.057036 -0.014238
v -0.103880 -0.057240 -0.012347
v -0.103987 -0.057408 -0.010446
v -0.104032 -0.057546 -0.008550
v -0.104041 -0.057665 -0.006649
v -0.103609 -0.058866 -0.000961
v -0.104041 -0.057781 -0.004753
v -0.103960 -0.058049 -0.002925
v -0.103582 -0.058847 0.000935
v -0.103544 -0.058819 0.001893
v -0.098800 -0.055539 0.019901
v -0.100697 -0.058369 0.008525
v -0.102594 -0.058505 0.006624
v -0.100697 -0.058623 0.006624
v -0.100697 -0.058066 0.010421
v -0.100697 -0.057704 0.012312
v -0.102662 -0.057141 0.014369
v -0.102364 -0.057044 0.014824
v -0.100697 -0.056967 0.015327
v -0.100697 -0.056715 0.016275
v -0.100697 -0.057257 0.014213
v -0.100697 -0.057099 0.014824
v -0.098800 -0.056718 0.016300
v -0.098800 -0.056199 0.018005
v -0.077936 -0.058861 0.004122
v -0.077936 -0.058944 0.002831
v -0.077936 -0.059013 0.000935
v -0.077936 -0.058355 0.008525
v -0.077936 -0.059021 -0.000330
v -0.076801 -0.058921 -0.000330
v -0.076798 -0.058921 -0.000961
v -0.096903 -0.057116 0.014824
v -0.096897 -0.057276 0.014213
v -0.089325 -0.057276 0.014213
v -0.077936 -0.057273 0.014213
v -0.087425 -0.057723 0.012312
v -0.096897 -0.057720 0.012312
v -0.096897 -0.058077 0.010421
v -0.098794 -0.058369 0.008525
v -0.089325 -0.057723 0.012312
v -0.076861 -0.058886 -0.002857
v -0.076223 -0.057773 -0.006649
v -0.076938 -0.058847 -0.004093
v -0.077939 -0.054026 -0.023729
v -0.077939 -0.053369 -0.025175
v -0.077072 -0.053184 -0.025322
v -0.077939 -0.056182 -0.018035
v -0.077939 -0.055539 -0.019932
v -0.077939 -0.055111 -0.021095
v -0.077939 -0.054736 -0.022043
v -0.077939 -0.058079 -0.010446
v -0.077939 -0.057707 -0.012347
v -0.077939 -0.057265 -0.014238
v -0.077939 -0.056983 -0.015392
v -0.077939 -0.056699 -0.016340
v -0.077939 -0.053300 -0.025322
v -0.100700 -0.054029 -0.023729
v -0.100700 -0.055539 -0.019932
v -0.100700 -0.056182 -0.018035
v -0.102594 -0.056091 -0.018035
v -0.102594 -0.056953 -0.015294
v -0.102594 -0.057204 -0.014238
v -0.102594 -0.057632 -0.012347
v -0.102594 -0.057985 -0.010446
v -0.100700 -0.054736 -0.022043
v -0.100700 -0.055111 -0.021095
v -0.103347 -0.058800 -0.003600
v -0.103576 -0.058847 -0.002334
v -0.102594 -0.058966 -0.000961
v -0.103597 -0.058861 -0.000330
v -0.102594 -0.058933 0.000935
v -0.102594 -0.058957 -0.000330
v -0.101688 -0.058822 0.003823
v -0.102427 -0.058698 0.004561
v -0.100697 -0.058770 0.004820
v -0.098794 -0.058775 0.004884
v -0.095007 -0.058781 0.005001
v -0.093104 -0.058778 0.005031
v -0.079835 -0.058863 0.004107
v -0.098794 -0.058621 0.006624
v -0.098794 -0.057715 0.012312
v -0.098800 -0.056972 0.015347
v -0.079835 -0.058946 0.002831
v -0.095007 -0.058615 0.006624
v -0.089325 -0.059013 0.000935
v -0.079832 -0.059026 -0.000961
v -0.077939 -0.059021 -0.000961
v -0.077939 -0.058952 -0.002857
v -0.077939 -0.058858 -0.004235
v -0.077939 -0.058772 -0.005183
v -0.077939 -0.058629 -0.006649
v -0.077939 -0.058383 -0.008550
v -0.079832 -0.054029 -0.023729
v -0.079832 -0.056702 -0.016340
v -0.079832 -0.058386 -0.008550
v -0.100700 -0.058079 -0.010446
v -0.079832 -0.057709 -0.012347
v -0.100700 -0.057265 -0.014238
v -0.100700 -0.056983 -0.015392
v -0.100700 -0.056702 -0.016340
v -0.100700 -0.057709 -0.012347
v -0.100700 -0.058386 -0.008550
v -0.102594 -0.058278 -0.008550
v -0.102594 -0.058521 -0.006649
v -0.102079 -0.058847 -0.004093
v -0.102665 -0.058888 -0.002925
v -0.100700 -0.059026 -0.000961
v -0.100697 -0.058991 0.000935
v -0.101959 -0.058977 -0.000330
v -0.100697 -0.058825 0.003877
v -0.100697 -0.058886 0.002831
v -0.098794 -0.058894 0.002831
v -0.093104 -0.058916 0.002831
v -0.089325 -0.058927 0.002831
v -0.087425 -0.058933 0.002831
v -0.081732 -0.058944 0.002831
v -0.091210 -0.059010 0.000935
v -0.100700 -0.058952 -0.002857
v -0.100700 -0.058858 -0.004235
v -0.079832 -0.058778 -0.005183
v -0.079832 -0.058634 -0.006649
v -0.100700 -0.058634 -0.006649
v -0.100700 -0.058778 -0.005183
v -0.098794 -0.058996 0.000935
f 16 4 15
f 5 2 10
f 74 75 49
f 30 31 9
f 9 31 10
f 10 2 9
f 18 4 17
f 17 4 16
f 50 79 51
f 25 8 24
f 7 8 2
f 140 139 138
f 66 107 105
f 159 219 213
f 219 262 213
f 106 107 66
f 44 45 18
f 18 17 44
f 54 51 79
f 25 24 54
f 2 5 6
f 6 7 2
f 6 5 10
f 10 19 6
f 19 7 6
f 8 7 21
f 20 7 19
f 20 21 7
f 49 50 20
f 50 51 20
f 51 21 20
f 196 138 137
f 76 77 50
f 76 50 49
f 49 75 76
f 69 113 70
f 70 47 69
f 19 47 48
f 48 20 19
f 49 20 48
f 73 74 48
f 48 74 49
f 171 113 170
f 113 166 170
f 199 200 140
f 140 138 199
f 162 216 159
f 159 213 156
f 66 105 103
f 110 68 109
f 69 68 110
f 110 111 69
f 69 47 46
f 46 68 69
f 46 47 19
f 243 182 179
f 29 22 8
f 12 3 11
f 11 39 12
f 66 42 65
f 78 54 79
f 78 123 83
f 78 79 50
f 50 77 78
f 77 123 78
f 23 24 8
f 8 21 23
f 23 21 51
f 51 54 23
f 23 54 24
f 238 175 237
f 238 239 175
f 171 237 172
f 237 173 172
f 172 173 115
f 237 175 174
f 174 173 237
f 115 173 174
f 174 116 115
f 236 237 171
f 171 170 236
f 114 113 171
f 171 172 114
f 114 172 115
f 47 70 71
f 71 48 47
f 71 70 113
f 113 114 71
f 71 114 115
f 230 231 166
f 233 170 166
f 233 236 170
f 112 166 113
f 112 111 166
f 112 113 69
f 69 111 112
f 165 227 228
f 166 111 165
f 255 257 256
f 159 216 217
f 268 230 269
f 269 230 228
f 221 162 220
f 267 230 268
f 267 270 231
f 231 230 267
f 271 233 265
f 200 256 210
f 212 261 220
f 212 260 261
f 259 260 212
f 212 258 259
f 257 258 212
f 212 256 257
f 212 210 256
f 14 15 4
f 14 41 42
f 42 43 14
f 214 156 213
f 214 213 262
f 225 215 214
f 214 215 156
f 214 163 225
f 159 156 104
f 104 103 105
f 67 43 64
f 64 104 67
f 103 104 64
f 64 43 42
f 64 42 66
f 66 103 64
f 190 186 185
f 151 150 205
f 207 181 151
f 205 209 151
f 25 54 55
f 97 151 98
f 97 98 61
f 132 86 130
f 59 34 33
f 33 34 11
f 8 27 28
f 28 29 8
f 22 29 52
f 29 28 52
f 40 39 61
f 40 12 39
f 140 200 141
f 200 142 141
f 152 142 153
f 153 142 200
f 200 210 153
f 178 240 179
f 239 238 178
f 175 239 178
f 276 293 277
f 116 174 117
f 73 116 117
f 117 74 73
f 117 175 119
f 117 177 175
f 117 119 75
f 75 74 117
f 275 238 237
f 237 236 275
f 287 276 275
f 275 276 238
f 75 119 120
f 120 121 75
f 120 178 121
f 119 175 120
f 175 178 120
f 122 123 77
f 77 76 122
f 179 123 122
f 48 71 72
f 72 116 73
f 73 48 72
f 115 116 72
f 72 71 115
f 231 270 232
f 166 231 232
f 232 233 166
f 232 270 265
f 265 233 232
f 234 235 169
f 169 165 111
f 235 227 169
f 227 165 169
f 226 214 262
f 163 214 226
f 228 230 229
f 229 165 228
f 229 230 166
f 166 165 229
f 200 199 198
f 198 256 200
f 138 196 198
f 198 199 138
f 198 196 255
f 255 256 198
f 61 98 99
f 99 100 61
f 92 60 59
f 61 60 92
f 92 94 61
f 218 219 159
f 159 217 218
f 223 162 222
f 162 221 222
f 259 258 289
f 220 261 264
f 233 271 272
f 273 236 272
f 236 233 272
f 272 291 273
f 271 291 272
f 220 162 161
f 161 212 220
f 161 162 105
f 13 14 4
f 41 14 13
f 156 215 157
f 157 104 156
f 159 104 158
f 158 104 105
f 158 162 159
f 105 162 158
f 126 182 183
f 183 181 126
f 126 181 127
f 127 83 126
f 83 123 126
f 179 182 126
f 126 123 179
f 128 185 186
f 128 83 127
f 127 181 184
f 184 128 127
f 185 128 184
f 184 181 207
f 207 151 206
f 206 151 209
f 206 184 207
f 197 194 136
f 136 151 197
f 136 196 137
f 100 99 136
f 98 151 136
f 136 99 98
f 253 194 197
f 197 151 208
f 208 151 181
f 183 197 208
f 208 181 183
f 87 86 132
f 87 55 86
f 25 55 26
f 26 8 25
f 26 27 8
f 82 78 83
f 83 55 82
f 54 78 82
f 82 55 54
f 86 55 85
f 83 128 85
f 202 206 209
f 132 192 193
f 145 193 192
f 189 192 132
f 132 130 189
f 59 33 32
f 32 33 11
f 11 34 35
f 35 36 11
f 35 34 59
f 59 60 35
f 60 36 35
f 37 36 60
f 37 60 61
f 11 36 37
f 22 52 53
f 57 28 27
f 57 52 28
f 27 26 57
f 61 100 93
f 93 136 137
f 100 136 93
f 137 138 93
f 93 138 139
f 93 139 140
f 140 141 93
f 93 141 142
f 152 153 102
f 102 106 66
f 66 65 102
f 210 212 154
f 154 102 153
f 277 293 284
f 240 178 241
f 241 178 238
f 238 276 241
f 277 240 241
f 286 276 254
f 293 276 286
f 176 174 175
f 175 177 176
f 176 117 174
f 177 117 176
f 274 288 287
f 287 275 274
f 274 275 236
f 274 236 273
f 273 291 274
f 118 122 76
f 118 76 75
f 75 121 118
f 179 122 118
f 118 178 179
f 121 178 118
f 111 167 168
f 168 169 111
f 167 226 168
f 168 226 234
f 234 169 168
f 109 163 164
f 163 226 164
f 164 226 167
f 164 110 109
f 111 110 164
f 164 167 111
f 223 263 224
f 224 263 216
f 224 162 223
f 216 162 224
f 266 222 221
f 266 221 220
f 288 274 292
f 292 274 291
f 261 260 290
f 290 264 261
f 67 104 108
f 104 157 108
f 185 184 250
f 184 206 250
f 206 202 250
f 190 185 250
f 250 202 190
f 249 197 183
f 249 253 197
f 183 194 249
f 194 253 249
f 183 246 247
f 131 130 86
f 86 85 131
f 131 85 130
f 130 85 129
f 129 128 186
f 129 85 128
f 84 55 83
f 83 85 84
f 84 85 55
f 55 87 88
f 147 202 203
f 147 145 192
f 95 94 143
f 61 94 95
f 188 189 130
f 61 39 38
f 38 37 61
f 38 39 11
f 11 37 38
f 59 32 58
f 81 53 52
f 62 40 61
f 61 93 62
f 63 102 65
f 42 41 63
f 63 65 42
f 211 153 210
f 210 154 211
f 211 154 153
f 212 161 160
f 160 105 107
f 160 161 105
f 107 106 160
f 252 254 196
f 278 276 277
f 277 241 278
f 278 241 276
f 245 246 183
f 183 244 245
f 242 240 277
f 179 240 242
f 242 243 179
f 242 244 183
f 183 182 242
f 182 243 242
f 248 247 246
f 248 252 194
f 248 194 183
f 183 247 248
f 187 129 186
f 130 129 187
f 187 186 190
f 190 130 187
f 55 88 89
f 201 147 192
f 202 147 201
f 204 203 205
f 205 150 204
f 193 145 144
f 145 95 144
f 191 130 190
f 191 188 130
f 190 202 191
f 192 189 251
f 189 188 251
f 251 201 192
f 188 191 251
f 202 201 251
f 251 191 202
f 52 57 80
f 80 81 52
f 57 89 80
f 80 89 88
f 59 58 91
f 91 92 59
f 94 92 91
f 101 142 152
f 101 93 142
f 152 102 101
f 102 63 101
f 155 154 212
f 212 160 155
f 155 160 106
f 106 102 155
f 102 154 155
f 195 252 196
f 194 252 195
f 196 136 195
f 195 136 194
f 285 286 254
f 254 252 285
f 285 284 293
f 293 286 285
f 246 284 285
f 285 248 246
f 252 248 285
f 246 245 282
f 280 242 277
f 56 57 26
f 56 89 57
f 56 26 55
f 55 89 56
f 148 147 203
f 203 204 148
f 150 151 96
f 151 97 96
f 147 148 96
f 145 147 96
f 96 97 61
f 61 95 96
f 96 95 145
f 81 80 125
f 133 87 132
f 133 88 87
f 277 284 283
f 283 282 277
f 283 284 246
f 246 282 283
f 281 282 245
f 245 280 281
f 277 282 281
f 281 280 277
f 279 245 244
f 279 280 245
f 244 242 279
f 242 280 279
f 149 204 150
f 150 96 149
f 149 148 204
f 149 96 148
f 146 125 180
f 193 144 146
f 146 180 193
f 146 95 143
f 146 144 95
f 134 146 143
f 125 146 134
f 124 125 80
f 124 80 88
f 88 133 124
f 124 133 180
f 180 125 124
f 135 134 143
f 91 134 135
f 143 94 135
f 94 91 135
f 90 134 91
f 90 91 58
f 1 2 3
f 3 8 11
f 2 8 3
f 9 4 18
f 1 4 9
f 9 2 1
f 9 45 30
f 18 45 9
f 217 216 228
f 228 227 217
f 287 288 258
f 258 257 287
f 287 257 276
f 276 257 255
f 255 196 276
f 196 254 276
f 226 262 219
f 226 219 234
f 234 219 218
f 218 235 234
f 218 217 227
f 218 227 235
f 268 269 263
f 263 223 268
f 228 216 263
f 263 269 228
f 268 223 222
f 222 267 268
f 264 271 265
f 265 220 264
f 202 209 205
f 205 203 202
f 11 8 32
f 8 22 32
f 267 222 266
f 270 267 266
f 266 220 265
f 265 270 266
f 292 258 288
f 292 289 258
f 259 289 290
f 290 260 259
f 289 292 290
f 290 292 291
f 271 264 290
f 290 291 271
f 10 31 108
f 45 44 108
f 108 19 10
f 16 15 108
f 108 17 16
f 108 31 30
f 30 45 108
f 108 46 19
f 225 163 108
f 15 14 108
f 109 68 108
f 108 44 17
f 108 43 67
f 108 163 109
f 68 46 108
f 108 14 43
f 108 215 225
f 108 157 215
f 58 32 22
f 22 53 58
f 101 4 1
f 1 3 101
f 101 13 4
f 3 12 101
f 12 40 101
f 41 13 101
f 40 62 101
f 101 62 93
f 101 63 41
f 193 180 133
f 132 193 133
f 125 134 90
f 81 125 90
f 90 58 53
f 53 81 90
