v -0.104592 -0.010912 0.015515
v -0.104595 -0.002161 0.018826
v -0.104595 -0.002849 0.018748
v -0.104595 -0.002943 0.018730
v -0.104595 -0.004747 0.018365
v -0.104595 -0.006642 0.017764
v -0.104595 -0.007941 0.017222
v -0.104595 -0.008888 0.016765
v -0.104595 -0.010438 0.015836
v -0.104595 -0.010909 0.015522
v -0.104592 -0.011413 0.015179
v -0.104592 -0.002161 0.008532
v -0.131056 -0.002161 0.018837
v -0.131056 -0.002849 0.018748
v -0.131056 -0.004747 0.018372
v -0.131056 -0.007949 0.017225
v -0.129159 -0.006642 0.017767
v -0.131056 -0.008899 0.016768
v -0.131056 -0.010438 0.015847
v -0.131056 -0.010909 0.015533
v -0.131052 -0.011423 0.015190
v -0.131056 -0.028392 0.003762
v -0.104592 -0.011464 0.015142
v -0.104592 -0.002161 -0.018816
v -0.132953 -0.002161 0.018807
v -0.132953 -0.002849 0.018715
v -0.132953 -0.004747 0.018350
v -0.132953 -0.006642 0.017767
v -0.132953 -0.007949 0.017225
v -0.132953 -0.008899 0.016768
v -0.132953 -0.010438 0.015847
v -0.132953 -0.010909 0.015533
v -0.132953 -0.011423 0.015190
v -0.132956 -0.028392 0.003762
v -0.131056 -0.028968 0.002814
v -0.129745 -0.028797 0.002505
v -0.104592 -0.015835 0.010420
v -0.104592 -0.015187 0.011375
v -0.104592 -0.014373 0.012322
v -0.104592 -0.013423 0.013399
v -0.104592 -0.012363 0.014346
v -0.104592 -0.002849 -0.018749
v -0.129945 -0.002161 -0.018827
v -0.134436 -0.002161 0.017985
v -0.139846 -0.006642 0.015415
v -0.139835 -0.008540 0.015404
v -0.139650 -0.009544 0.015220
v -0.134068 -0.007831 0.017174
v -0.133928 -0.011413 0.015179
v -0.133430 -0.010909 0.015526
v -0.134264 -0.028797 0.002505
v -0.132956 -0.028968 0.002814
v -0.131056 -0.029509 0.000934
v -0.104592 -0.018742 0.002833
v -0.104592 -0.018367 0.004731
v -0.104592 -0.017760 0.006623
v -0.104592 -0.017262 0.007850
v -0.104592 -0.017232 0.007913
v -0.104592 -0.016777 0.008860
v -0.129555 -0.028984 0.000934
v -0.127262 -0.002849 -0.018749
v -0.104592 -0.004651 -0.018373
v -0.131056 -0.004747 -0.018370
v -0.131056 -0.002161 -0.018823
v -0.131056 -0.002849 -0.018742
v -0.134808 -0.002161 0.016849
v -0.139863 -0.005414 0.014213
v -0.139667 -0.005622 0.015231
v -0.140323 -0.006642 0.014213
v -0.140312 -0.008540 0.014213
v -0.139853 -0.009761 0.014213
v -0.139881 -0.017374 0.000934
v -0.134453 -0.028984 0.000934
v -0.132956 -0.029509 0.000934
v -0.131056 -0.029509 -0.000957
v -0.104592 -0.018929 0.001163
v -0.129555 -0.028984 -0.000957
v -0.104592 -0.018988 0.000215
v -0.104592 -0.004747 -0.018351
v -0.104592 -0.006642 -0.017769
v -0.129159 -0.006642 -0.017776
v -0.131056 -0.006642 -0.017776
v -0.132953 -0.006642 -0.017769
v -0.132953 -0.004747 -0.018351
v -0.131841 -0.002161 -0.018816
v -0.132953 -0.002849 -0.018712
v -0.132953 -0.002161 -0.018801
v -0.135042 -0.002161 0.016116
v -0.136841 -0.002161 0.004728
v -0.136992 -0.002161 0.003518
v -0.139912 -0.005363 0.012322
v -0.140407 -0.006642 0.012322
v -0.140396 -0.008540 0.012322
v -0.140354 -0.016129 0.000934
v -0.140347 -0.016129 -0.000957
v -0.139874 -0.017369 -0.000957
v -0.134453 -0.028984 -0.000957
v -0.132956 -0.029509 -0.000957
v -0.131056 -0.028968 -0.002819
v -0.129745 -0.028797 -0.002513
v -0.104592 -0.018753 -0.002852
v -0.104592 -0.018921 -0.001167
v -0.104592 -0.018988 -0.000216
v -0.104592 -0.007868 -0.017286
v -0.129159 -0.007943 -0.017260
v -0.131056 -0.007941 -0.017249
v -0.132953 -0.007925 -0.017238
v -0.134057 -0.007815 -0.017190
v -0.139653 -0.009547 -0.015243
v -0.139835 -0.008540 -0.015424
v -0.133440 -0.002161 -0.018535
v -0.139832 -0.006642 -0.015420
v -0.137016 -0.002161 0.002833
v -0.137037 -0.002161 0.001620
v -0.139916 -0.005352 -0.012338
v -0.140410 -0.006642 -0.012338
v -0.140410 -0.008540 -0.012338
v -0.140368 -0.014234 0.000934
v -0.140309 -0.008540 -0.014240
v -0.139849 -0.009756 -0.014240
v -0.134264 -0.028797 -0.002513
v -0.132956 -0.028968 -0.002819
v -0.131056 -0.028325 -0.003767
v -0.104592 -0.015182 -0.011387
v -0.104592 -0.015805 -0.010439
v -0.104592 -0.016753 -0.008891
v -0.104592 -0.017254 -0.007940
v -0.104592 -0.017760 -0.006650
v -0.104592 -0.018365 -0.004751
v -0.104592 -0.007933 -0.017260
v -0.131056 -0.008888 -0.016777
v -0.132953 -0.008875 -0.016777
v -0.133917 -0.011402 -0.015195
v -0.132956 -0.028325 -0.003767
v -0.140309 -0.006642 -0.014240
v -0.134436 -0.002161 -0.017990
v -0.139650 -0.005641 -0.015240
v -0.137037 -0.002161 -0.000957
v -0.139853 -0.005419 -0.014240
v -0.137016 -0.002161 -0.002856
v -0.104592 -0.013439 -0.013440
v -0.104592 -0.014336 -0.012397
v -0.104592 -0.011407 -0.015199
v -0.104592 -0.012355 -0.014388
v -0.104592 -0.008835 -0.016777
v -0.132953 -0.010438 -0.015848
v -0.104592 -0.008883 -0.016751
v -0.131056 -0.010438 -0.015848
v -0.132953 -0.010909 -0.015534
v -0.132953 -0.011407 -0.015199
v -0.134674 -0.002161 -0.017252
v -0.136838 -0.002161 -0.004755
v -0.135028 -0.002161 -0.016135
v -0.130130 -0.010909 -0.015534
v -0.104592 -0.010438 -0.015818
f 12 2 1
f 116 92 115
f 134 109 133
f 5 6 1
f 117 92 116
f 96 95 120
f 72 95 96
f 92 117 93
f 67 92 69
f 70 45 69
f 67 90 91
f 91 92 67
f 91 115 92
f 77 100 101
f 150 134 133
f 109 134 121
f 96 120 121
f 121 120 109
f 63 83 84
f 3 2 13
f 1 2 3
f 1 8 9
f 19 9 8
f 1 6 7
f 7 8 1
f 42 63 61
f 110 84 109
f 110 86 84
f 95 117 119
f 119 120 95
f 109 120 119
f 119 110 109
f 95 72 94
f 70 93 94
f 94 117 95
f 46 45 70
f 70 47 46
f 71 72 51
f 51 47 71
f 71 47 70
f 70 94 71
f 71 94 72
f 49 47 34
f 34 47 51
f 68 44 67
f 45 44 68
f 67 69 68
f 68 69 45
f 136 137 139
f 116 115 139
f 140 139 115
f 152 139 140
f 100 77 75
f 80 63 79
f 101 100 129
f 124 100 123
f 97 72 96
f 96 121 97
f 86 110 87
f 133 132 146
f 133 109 108
f 108 132 133
f 109 84 108
f 84 83 108
f 4 5 1
f 1 3 4
f 79 63 62
f 63 42 62
f 112 137 136
f 112 87 110
f 118 93 117
f 117 94 118
f 118 94 93
f 5 4 15
f 15 28 17
f 6 5 15
f 15 17 6
f 48 47 49
f 25 44 45
f 45 46 25
f 30 48 49
f 6 17 16
f 16 7 6
f 39 22 38
f 39 40 22
f 52 34 51
f 36 56 57
f 55 56 36
f 54 55 36
f 89 90 67
f 67 88 89
f 67 44 66
f 66 88 67
f 153 139 152
f 115 91 114
f 122 121 134
f 102 77 101
f 60 36 53
f 54 36 60
f 83 63 82
f 123 143 144
f 144 141 123
f 100 127 128
f 128 129 100
f 126 127 100
f 123 141 142
f 142 124 123
f 51 72 73
f 72 97 73
f 24 42 43
f 43 42 61
f 149 150 133
f 133 146 149
f 131 146 132
f 131 145 147
f 148 143 154
f 148 155 143
f 146 131 148
f 147 155 148
f 148 131 147
f 107 108 83
f 132 108 107
f 9 19 20
f 111 112 136
f 87 112 111
f 135 139 137
f 137 112 135
f 116 139 135
f 110 119 135
f 135 112 110
f 13 25 14
f 14 3 13
f 14 4 3
f 14 15 4
f 18 19 8
f 8 7 18
f 7 16 18
f 28 48 29
f 48 30 29
f 22 40 41
f 41 23 22
f 22 23 11
f 58 36 57
f 59 36 58
f 37 36 59
f 38 22 37
f 22 36 37
f 35 36 22
f 53 36 35
f 136 139 151
f 139 153 151
f 138 140 115
f 115 114 138
f 113 91 90
f 113 114 91
f 123 100 99
f 100 75 99
f 77 102 103
f 76 60 78
f 54 60 76
f 63 80 81
f 81 82 63
f 100 124 125
f 125 126 100
f 98 97 121
f 121 122 98
f 65 43 61
f 61 63 65
f 86 87 65
f 65 63 84
f 84 86 65
f 145 131 130
f 9 20 10
f 10 20 21
f 10 11 1
f 1 9 10
f 10 21 22
f 22 11 10
f 15 14 27
f 28 15 27
f 27 46 47
f 47 48 27
f 27 48 28
f 50 31 30
f 50 30 49
f 49 34 33
f 33 50 49
f 74 52 51
f 51 73 74
f 43 65 64
f 104 81 80
f 105 130 131
f 105 131 132
f 83 82 105
f 105 104 130
f 82 81 105
f 81 104 105
f 26 14 25
f 26 27 14
f 26 25 46
f 46 27 26
f 31 50 32
f 50 33 32
f 85 65 87
f 85 64 65
f 132 107 106
f 106 105 132
f 106 107 83
f 83 105 106
f 92 93 69
f 69 93 70
f 134 150 143
f 123 134 143
f 60 75 77
f 53 75 60
f 149 143 150
f 154 143 149
f 154 149 148
f 148 149 146
f 135 119 117
f 135 117 116
f 31 18 30
f 19 18 31
f 29 16 17
f 17 28 29
f 30 18 29
f 29 18 16
f 34 52 35
f 22 34 35
f 99 134 123
f 99 122 134
f 103 60 77
f 78 60 103
f 122 99 98
f 98 99 75
f 33 34 22
f 22 21 33
f 74 35 52
f 53 35 74
f 74 75 53
f 74 98 75
f 74 73 97
f 97 98 74
f 104 12 1
f 127 126 104
f 57 56 104
f 1 11 104
f 104 39 38
f 79 62 104
f 147 145 104
f 104 24 12
f 104 80 79
f 101 129 104
f 104 55 54
f 104 42 24
f 104 41 40
f 104 58 57
f 78 103 104
f 104 102 101
f 104 142 141
f 141 144 104
f 104 128 127
f 104 56 55
f 104 62 42
f 104 155 147
f 40 39 104
f 38 37 104
f 104 125 124
f 104 144 143
f 129 128 104
f 54 76 104
f 124 142 104
f 143 155 104
f 23 41 104
f 104 11 23
f 59 58 104
f 104 37 59
f 104 103 102
f 104 76 78
f 126 125 104
f 145 130 104
f 19 31 32
f 32 20 19
f 32 33 21
f 21 20 32
f 13 2 85
f 12 24 85
f 2 12 85
f 24 43 85
f 85 111 136
f 85 66 44
f 85 25 13
f 90 89 85
f 152 140 85
f 140 138 85
f 44 25 85
f 85 89 88
f 88 66 85
f 85 153 152
f 136 151 85
f 85 113 90
f 87 111 85
f 85 151 153
f 85 138 114
f 114 113 85
f 43 64 85
