v -0.091262 -0.000835 0.019128
v -0.104590 -0.000188 0.018959
v -0.104590 -0.001137 0.018929
v -0.089043 -0.030804 0.016236
v -0.078954 -0.030804 0.016236
v -0.078954 0.040572 0.016236
v -0.078960 0.046102 0.016236
v -0.091262 0.000814 0.019097
v -0.104590 0.000136 0.018959
v -0.104590 -0.002838 0.018745
v -0.089043 -0.043827 -0.000341
v -0.104590 -0.004738 0.018363
v -0.104590 -0.006637 0.017758
v -0.104590 -0.007931 0.017215
v -0.104590 -0.007983 0.017192
v -0.104590 -0.008880 0.016764
v -0.104590 -0.010425 0.015831
v -0.104590 -0.011406 0.015180
v -0.104590 -0.012407 0.014301
v -0.104590 -0.013409 0.013398
v -0.104590 -0.014359 0.012319
v -0.104590 -0.015173 0.011371
v -0.078962 -0.043827 -0.000341
v -0.075509 -0.050579 -0.025309
v -0.075475 -0.050276 -0.025309
v -0.075478 0.050276 -0.025309
v -0.089137 0.046102 0.016236
v -0.076148 0.052259 -0.025309
v -0.076490 0.052791 -0.025309
v -0.077936 0.053292 -0.025309
v -0.079832 0.053302 -0.025309
v -0.104590 0.001096 0.018921
v -0.089890 -0.053302 -0.025309
v -0.104590 -0.015820 0.010415
v -0.104590 -0.016769 0.008862
v -0.104590 -0.017228 0.007913
v -0.079829 -0.053302 -0.025309
v -0.077933 -0.053292 -0.025309
v -0.077069 -0.053177 -0.025309
v -0.076490 -0.052781 -0.025309
v -0.076273 -0.052489 -0.025309
v -0.076145 -0.052259 -0.025309
v -0.075686 -0.050276 -0.027512
v -0.075478 -0.050276 -0.025623
v -0.075458 -0.046478 -0.031306
v -0.075466 -0.048377 -0.027512
v -0.075466 0.048377 -0.027512
v -0.075478 0.050276 -0.025623
v -0.090152 0.053302 -0.025309
v -0.104590 0.018334 0.004823
v -0.104590 0.017761 0.006620
v -0.104590 0.017228 0.007974
v -0.104590 0.016748 0.008877
v -0.104590 0.016707 0.008954
v -0.104590 0.015778 0.010468
v -0.104590 0.015173 0.011371
v -0.104590 0.014380 0.012327
v -0.104590 0.013440 0.013429
v -0.104590 0.012355 0.014377
v -0.104590 0.011406 0.015188
v -0.104590 0.011364 0.015219
v -0.104590 0.010425 0.015815
v -0.104590 0.008891 0.016741
v -0.104590 0.007952 0.017246
v -0.104590 0.006626 0.017758
v -0.104590 0.006532 0.017789
v -0.104590 0.004738 0.018347
v -0.104590 0.002838 0.018745
v -0.076242 0.052280 -0.025630
v -0.075686 0.050276 -0.027512
v -0.076447 0.051706 -0.027512
v -0.076752 0.051382 -0.028736
v -0.077936 0.052906 -0.026120
v -0.089890 -0.052906 -0.026120
v -0.104590 -0.017750 0.006620
v -0.104590 -0.018355 0.004723
v -0.104590 -0.018731 0.002834
v -0.104590 -0.018919 0.001159
v -0.104590 -0.018981 0.000218
v -0.104590 -0.018981 -0.000279
v -0.104587 -0.018919 -0.001174
v -0.104587 -0.018752 -0.002865
v -0.104587 -0.018355 -0.004755
v -0.104587 -0.018324 -0.004854
v -0.104587 -0.017750 -0.006659
v -0.104587 -0.017228 -0.007998
v -0.077933 -0.052906 -0.026120
v -0.076750 -0.051382 -0.028736
v -0.076447 -0.051706 -0.027512
v -0.076242 -0.052280 -0.025630
v -0.076268 -0.050339 -0.029386
v -0.075851 -0.048377 -0.031306
v -0.075609 -0.046478 -0.033211
v -0.075501 -0.048377 -0.029417
v -0.075532 -0.044579 -0.035101
v -0.075492 -0.042690 -0.036998
v -0.075481 -0.041511 -0.038183
v -0.075475 -0.040780 -0.038902
v -0.075458 -0.031295 -0.046491
v -0.075458 0.000063 -0.055976
v -0.075461 0.046478 -0.031306
v -0.075503 0.048377 -0.029417
v -0.090152 0.052906 -0.026120
v -0.104587 0.016769 -0.008885
v -0.104587 0.017218 -0.007937
v -0.104587 0.017740 -0.006659
v -0.104587 0.018355 -0.004755
v -0.104587 0.018376 -0.004663
v -0.104587 0.018731 -0.002865
v -0.104587 0.018741 -0.002773
v -0.104587 0.018919 -0.001182
v -0.104590 0.018981 -0.000234
v -0.104590 0.018981 0.000195
v -0.104590 0.018919 0.001136
v -0.104590 0.018752 0.002834
v -0.075609 0.046478 -0.033211
v -0.075851 0.048377 -0.031306
v -0.076270 0.050339 -0.029386
v -0.076613 0.049661 -0.031306
v -0.077936 0.050913 -0.029822
v -0.077936 0.051455 -0.028874
v -0.077936 0.052186 -0.027512
v -0.076943 0.049358 -0.032293
v -0.079832 0.052196 -0.027512
v -0.089890 -0.052186 -0.027512
v -0.104590 -0.018919 -0.000333
v -0.104587 -0.012293 -0.014439
v -0.104587 -0.013378 -0.013498
v -0.104587 -0.013430 -0.013445
v -0.104587 -0.014380 -0.012351
v -0.104587 -0.015131 -0.011440
v -0.104587 -0.015162 -0.011394
v -0.104587 -0.015788 -0.010446
v -0.104587 -0.016748 -0.008893
v -0.077933 -0.052186 -0.027512
v -0.077933 -0.051455 -0.028874
v -0.077933 -0.050913 -0.029822
v -0.076943 -0.049348 -0.032293
v -0.076613 -0.049671 -0.031306
v -0.076470 -0.048325 -0.033043
v -0.076248 -0.046530 -0.035101
v -0.076151 -0.044704 -0.037112
v -0.076128 -0.043692 -0.038183
v -0.076108 -0.042846 -0.039063
v -0.076099 -0.040968 -0.040991
v -0.075481 -0.038892 -0.040807
v -0.075489 -0.036992 -0.042697
v -0.075529 -0.035093 -0.044601
v -0.075506 -0.029406 -0.048396
v -0.075478 -0.025608 -0.050285
v -0.075458 -0.019921 -0.052182
v -0.075774 0.000063 -0.057002
v -0.075461 0.006626 -0.055976
v -0.075461 0.014223 -0.054079
v -0.075461 0.019921 -0.052182
v -0.075461 0.031295 -0.046491
v -0.075458 -0.006637 -0.055976
v -0.075478 0.040780 -0.038902
v -0.075492 0.042690 -0.036998
v -0.075532 0.044589 -0.035101
v -0.090152 0.052196 -0.027512
v -0.104587 0.015809 -0.010446
v -0.104590 0.018971 -0.000333
v -0.090152 0.051455 -0.028874
v -0.090152 0.050913 -0.029822
v -0.090152 0.050005 -0.031306
v -0.076151 0.044704 -0.037112
v -0.076248 0.046520 -0.035101
v -0.076470 0.048325 -0.033043
v -0.076675 0.047667 -0.034473
v -0.077936 0.050005 -0.031306
v -0.077936 0.049368 -0.032316
v -0.077936 0.047782 -0.034634
v -0.077936 0.048732 -0.033272
v -0.089890 -0.051455 -0.028874
v -0.104587 -0.000939 -0.018937
v -0.104587 -0.002838 -0.018753
v -0.104587 -0.004738 -0.018356
v -0.104587 -0.006637 -0.017767
v -0.104587 -0.007858 -0.017292
v -0.104587 -0.007920 -0.017262
v -0.104587 -0.008828 -0.016787
v -0.104587 -0.008880 -0.016757
v -0.104587 -0.010425 -0.015824
v -0.104587 -0.011395 -0.015204
v -0.104587 0.000939 -0.018945
v -0.089890 -0.037723 -0.045374
v -0.089890 -0.038829 -0.044426
v -0.089890 -0.039779 -0.043592
v -0.089890 -0.041730 -0.041740
v -0.089890 -0.042627 -0.040792
v -0.089890 -0.043567 -0.039790
v -0.089890 -0.044996 -0.038183
v -0.089890 -0.045361 -0.037747
v -0.089890 -0.046123 -0.036799
v -0.089890 -0.047073 -0.035583
v -0.089890 -0.047782 -0.034634
v -0.089890 -0.048440 -0.033678
v -0.089890 -0.049368 -0.032316
v -0.089890 -0.049817 -0.031620
v -0.089890 -0.050913 -0.029822
v -0.077933 -0.050005 -0.031306
v -0.077933 -0.049368 -0.032316
v -0.077933 -0.048721 -0.033272
v -0.077933 -0.047782 -0.034634
v -0.076675 -0.047668 -0.034473
v -0.076570 -0.045925 -0.036554
v -0.076519 -0.044151 -0.038543
v -0.076499 -0.042325 -0.040478
v -0.076501 -0.040467 -0.042345
v -0.076108 -0.039048 -0.042865
v -0.075617 -0.033194 -0.046491
v -0.076148 -0.037097 -0.044716
v -0.075672 -0.027496 -0.050285
v -0.075672 -0.023709 -0.052182
v -0.075489 -0.021820 -0.052182
v -0.075469 -0.016112 -0.054079
v -0.075458 -0.014223 -0.054079
v -0.076045 0.000939 -0.057874
v -0.076045 -0.000950 -0.057874
v -0.075481 0.008536 -0.055976
v -0.075469 0.016122 -0.054079
v -0.075489 0.021820 -0.052182
v -0.075481 0.025608 -0.050285
v -0.075506 0.029406 -0.048396
v -0.075529 0.035093 -0.044601
v -0.075489 0.036982 -0.042697
v -0.075481 0.038892 -0.040807
v -0.075478 -0.008536 -0.055976
v -0.076099 0.040968 -0.040991
v -0.076108 0.042846 -0.039063
v -0.104587 0.015162 -0.011387
v -0.090152 0.049368 -0.032316
v -0.090152 0.048732 -0.033272
v -0.104587 0.014380 -0.012297
v -0.104587 0.013399 -0.013422
v -0.104587 0.012397 -0.014317
v -0.104587 0.011437 -0.015158
v -0.104587 0.011385 -0.015196
v -0.104587 0.010425 -0.015839
v -0.104587 0.008859 -0.016780
v -0.104587 0.007952 -0.017216
v -0.104587 0.007899 -0.017239
v -0.104587 0.006626 -0.017767
v -0.104587 0.004738 -0.018371
v -0.104587 0.002838 -0.018753
v -0.076519 0.044151 -0.038543
v -0.076573 0.045925 -0.036554
v -0.077936 0.045372 -0.037747
v -0.077936 0.047062 -0.035583
v -0.090152 0.047386 -0.035162
v -0.090152 0.047782 -0.034634
v -0.090152 0.000063 -0.059021
v -0.089890 -0.008536 -0.058394
v -0.089890 -0.010425 -0.058072
v -0.089890 -0.011760 -0.057820
v -0.089890 -0.012324 -0.057705
v -0.089890 -0.014223 -0.057269
v -0.089890 -0.015016 -0.057063
v -0.089890 -0.016300 -0.056718
v -0.089890 -0.018021 -0.056198
v -0.089890 -0.019921 -0.055556
v -0.089890 -0.020755 -0.055257
v -0.089890 -0.021110 -0.055127
v -0.089890 -0.021768 -0.054852
v -0.089890 -0.023709 -0.054033
v -0.089890 -0.025159 -0.053391
v -0.089890 -0.025837 -0.053054
v -0.089890 -0.027090 -0.052427
v -0.089890 -0.027496 -0.052213
v -0.089890 -0.028874 -0.051478
v -0.089890 -0.029823 -0.050912
v -0.089890 -0.032338 -0.049398
v -0.089890 -0.034624 -0.047784
v -0.089890 -0.035291 -0.047302
v -0.089890 -0.035573 -0.047095
v -0.089890 -0.036773 -0.046147
v -0.090152 0.005197 -0.058784
v -0.090152 0.004247 -0.058868
v -0.090152 0.002838 -0.058945
v -0.090152 0.000939 -0.059021
v -0.077933 -0.037723 -0.045374
v -0.077933 -0.038829 -0.044426
v -0.077933 -0.039779 -0.043592
v -0.077933 -0.041730 -0.041740
v -0.077933 -0.042627 -0.040792
v -0.077933 -0.043567 -0.039790
v -0.077933 -0.044412 -0.038841
v -0.079829 -0.044996 -0.038183
v -0.077933 -0.045361 -0.037747
v -0.077933 -0.046123 -0.036799
v -0.077933 -0.047073 -0.035583
v -0.077933 -0.044986 -0.038183
v -0.076519 -0.038526 -0.044165
v -0.076251 -0.035093 -0.046544
v -0.075840 -0.031295 -0.048396
v -0.076570 -0.036533 -0.045948
v -0.076436 -0.027496 -0.051716
v -0.076233 -0.025618 -0.052282
v -0.076262 -0.029375 -0.050346
v -0.076436 -0.023709 -0.053582
v -0.075846 -0.019921 -0.054079
v -0.075563 -0.018021 -0.054079
v -0.075540 -0.010425 -0.055976
v -0.076807 0.000939 -0.058914
v -0.076108 0.002838 -0.057874
v -0.076108 -0.002838 -0.057874
v -0.076807 -0.000950 -0.058914
v -0.075543 0.010425 -0.055976
v -0.075563 0.018021 -0.054079
v -0.075674 0.023709 -0.052182
v -0.075674 0.027507 -0.050285
v -0.075617 0.033194 -0.046491
v -0.076151 0.037097 -0.044716
v -0.076111 0.039059 -0.042865
v -0.076501 0.042325 -0.040478
v -0.076501 0.040457 -0.042345
v -0.090152 0.046541 -0.036263
v -0.090152 0.045372 -0.037747
v -0.090152 0.044996 -0.038183
v -0.090152 0.043567 -0.039790
v -0.090152 0.042126 -0.041320
v -0.090152 0.041730 -0.041740
v -0.090152 0.040770 -0.042651
v -0.090152 0.039768 -0.043592
v -0.090152 0.038829 -0.044426
v -0.090152 0.037723 -0.045374
v -0.090152 0.036773 -0.046147
v -0.090152 0.035573 -0.047095
v -0.090152 0.034624 -0.047784
v -0.090152 0.032328 -0.049398
v -0.090152 0.031754 -0.049750
v -0.090152 0.029823 -0.050912
v -0.090152 0.028874 -0.051478
v -0.090152 0.027507 -0.052213
v -0.090152 0.025169 -0.053391
v -0.090152 0.023709 -0.054033
v -0.090152 0.022060 -0.054737
v -0.090152 0.021110 -0.055127
v -0.090152 0.019921 -0.055556
v -0.090152 0.018021 -0.056198
v -0.090152 0.017072 -0.056489
v -0.090152 0.016300 -0.056718
v -0.090152 0.015350 -0.056979
v -0.090152 0.014223 -0.057269
v -0.090152 0.012324 -0.057705
v -0.090152 0.011270 -0.057912
v -0.090152 0.010425 -0.058072
v -0.090152 0.008536 -0.058394
v -0.090152 0.006626 -0.058631
v -0.077933 0.043567 -0.039790
v -0.077933 0.044412 -0.038841
v -0.077936 0.044996 -0.038176
v -0.079832 0.044996 -0.038183
v -0.089890 -0.000950 -0.059021
v -0.089890 -0.002838 -0.058945
v -0.089890 -0.004247 -0.058868
v -0.089890 -0.005197 -0.058784
v -0.089890 -0.006637 -0.058631
v -0.079829 -0.008536 -0.058394
v -0.077933 -0.010425 -0.058072
v -0.077933 -0.012324 -0.057705
v -0.077933 -0.014223 -0.057269
v -0.077933 -0.015350 -0.056979
v -0.077933 -0.016300 -0.056718
v -0.079829 -0.018021 -0.056198
v -0.077933 -0.019921 -0.055556
v -0.077933 -0.021110 -0.055127
v -0.079829 -0.022049 -0.054737
v -0.077933 -0.023709 -0.054033
v -0.077933 -0.025159 -0.053391
v -0.077933 -0.026119 -0.052909
v -0.079829 -0.027496 -0.052213
v -0.077933 -0.028874 -0.051478
v -0.077933 -0.029823 -0.050912
v -0.077933 -0.032338 -0.049398
v -0.077933 -0.034624 -0.047784
v -0.077933 -0.035573 -0.047095
v -0.077933 -0.036773 -0.046147
v -0.079832 0.005197 -0.058784
v -0.077933 0.004247 -0.058868
v -0.077933 0.002838 -0.058945
v -0.079832 0.000939 -0.059021
v -0.076687 -0.034467 -0.047669
v -0.076462 -0.033038 -0.048342
v -0.076724 -0.024992 -0.053299
v -0.076601 -0.031295 -0.049681
v -0.076738 -0.028728 -0.051402
v -0.076866 -0.021037 -0.055097
v -0.076610 -0.019921 -0.055288
v -0.076325 -0.018021 -0.055617
v -0.075948 -0.014223 -0.055976
v -0.075677 -0.012324 -0.055976
v -0.076242 -0.008536 -0.057652
v -0.077933 0.000939 -0.059013
v -0.076872 0.002838 -0.058883
v -0.076222 0.006626 -0.057774
v -0.076242 0.008536 -0.057652
v -0.076222 -0.006637 -0.057774
v -0.076869 -0.002838 -0.058883
v -0.077933 -0.000950 -0.059013
v -0.075677 0.012324 -0.055976
v -0.075948 0.014223 -0.055976
v -0.076325 0.018021 -0.055617
v -0.075846 0.019921 -0.054079
v -0.076436 0.023709 -0.053582
v -0.076233 0.025618 -0.052282
v -0.076436 0.027507 -0.051716
v -0.076265 0.029375 -0.050346
v -0.075840 0.031295 -0.048396
v -0.076251 0.035093 -0.046544
v -0.076570 0.036533 -0.045948
v -0.076519 0.038526 -0.044165
v -0.077933 0.041730 -0.041740
v -0.077933 0.040770 -0.042651
v -0.077933 0.039768 -0.043592
v -0.077933 0.038829 -0.044426
v -0.077933 0.037723 -0.045374
v -0.077933 0.036773 -0.046147
v -0.077933 0.035573 -0.047095
v -0.077933 0.034624 -0.047784
v -0.077933 0.032328 -0.049398
v -0.077933 0.031295 -0.050025
v -0.077933 0.029823 -0.050912
v -0.077933 0.028874 -0.051478
v -0.079832 0.027507 -0.052213
v -0.077933 0.025169 -0.053391
v -0.077933 0.023709 -0.054033
v -0.079832 0.022060 -0.054737
v -0.077933 0.021110 -0.055127
v -0.077933 0.019921 -0.055556
v -0.079832 0.018021 -0.056198
v -0.077933 0.016300 -0.056718
v -0.077933 0.015350 -0.056979
v -0.077933 0.014223 -0.057269
v -0.077933 0.012324 -0.057705
v -0.077933 0.010425 -0.058072
v -0.079832 0.008536 -0.058394
v -0.079832 0.006626 -0.058631
v -0.079829 -0.000950 -0.059021
v -0.077933 -0.002838 -0.058945
v -0.077933 -0.004247 -0.058868
v -0.079829 -0.005197 -0.058784
v -0.079829 -0.006637 -0.058631
v -0.077933 -0.008536 -0.058386
v -0.076929 -0.004101 -0.058853
v -0.076710 -0.014223 -0.057093
v -0.076924 -0.015298 -0.056963
v -0.077933 -0.018021 -0.056191
v -0.077933 -0.027496 -0.052205
v -0.076921 -0.032297 -0.049375
v -0.077933 0.005197 -0.058776
v -0.076929 0.004091 -0.058853
v -0.079829 0.000063 -0.059021
v -0.076439 -0.012324 -0.057315
v -0.076305 -0.010425 -0.057499
v -0.076305 0.010425 -0.057499
v -0.076439 0.012324 -0.057315
v -0.076712 0.014223 -0.057093
v -0.076924 0.015287 -0.056963
v -0.076610 0.019921 -0.055288
v -0.076724 0.024992 -0.053299
v -0.076866 0.021027 -0.055097
v -0.076738 0.028728 -0.051402
v -0.076601 0.031295 -0.049681
v -0.076464 0.033038 -0.048342
v -0.076687 0.034457 -0.047669
v -0.076924 0.032297 -0.049375
v -0.077933 0.027507 -0.052205
v -0.077933 0.022060 -0.054730
v -0.077933 0.018021 -0.056191
v -0.077933 0.008536 -0.058386
v -0.077933 0.006626 -0.058623
v -0.077933 -0.005197 -0.058776
v -0.077933 -0.006637 -0.058623
f 5 1 4
f 5 25 6
f 7 1 6
f 6 1 5
f 7 27 8
f 8 1 7
f 46 25 45
f 31 7 30
f 26 28 7
f 7 6 26
f 26 6 25
f 24 25 5
f 5 23 24
f 80 81 33
f 22 11 4
f 27 67 68
f 7 28 29
f 29 30 7
f 123 170 173
f 104 164 165
f 161 164 104
f 104 103 161
f 49 103 104
f 45 25 44
f 25 24 44
f 36 11 35
f 36 75 33
f 33 11 36
f 82 80 83
f 81 80 82
f 82 83 33
f 33 81 82
f 35 11 34
f 11 22 34
f 303 304 217
f 57 58 27
f 27 56 57
f 62 27 61
f 27 60 61
f 27 58 59
f 59 60 27
f 27 68 32
f 32 8 27
f 63 27 62
f 63 64 27
f 27 64 65
f 31 30 73
f 116 70 102
f 102 160 116
f 102 101 160
f 28 26 48
f 48 70 28
f 48 102 70
f 101 102 48
f 159 101 158
f 160 101 159
f 47 46 45
f 45 101 47
f 25 46 47
f 47 26 25
f 47 48 26
f 101 48 47
f 250 170 249
f 250 173 170
f 318 250 249
f 163 244 245
f 38 39 23
f 189 190 128
f 86 74 33
f 33 75 76
f 76 77 33
f 33 77 78
f 12 13 4
f 4 10 12
f 3 1 2
f 3 4 1
f 3 10 4
f 17 18 4
f 4 16 17
f 15 16 4
f 4 18 19
f 19 20 4
f 21 22 4
f 4 20 21
f 185 273 274
f 363 362 448
f 253 177 176
f 176 186 253
f 253 358 359
f 254 177 253
f 254 255 177
f 253 359 254
f 375 374 451
f 389 386 371
f 448 390 389
f 389 449 448
f 451 374 388
f 207 208 142
f 144 208 209
f 53 27 52
f 53 54 27
f 55 56 27
f 27 54 55
f 8 32 9
f 2 1 9
f 1 8 9
f 66 67 27
f 27 65 66
f 123 173 174
f 174 172 123
f 70 118 71
f 169 168 170
f 117 70 116
f 117 118 70
f 116 168 117
f 168 169 117
f 117 169 118
f 245 244 341
f 245 344 345
f 345 346 245
f 355 356 253
f 357 358 253
f 253 356 357
f 436 435 460
f 460 435 434
f 100 101 45
f 335 241 334
f 335 336 241
f 354 352 320
f 241 336 242
f 242 163 241
f 246 163 245
f 186 163 246
f 246 348 349
f 245 346 246
f 42 24 23
f 23 41 42
f 23 39 40
f 40 41 23
f 37 38 23
f 39 38 87
f 38 37 87
f 45 44 94
f 94 95 45
f 127 128 80
f 80 86 85
f 85 86 33
f 134 86 80
f 293 207 290
f 79 80 33
f 33 78 79
f 4 13 14
f 14 15 4
f 293 290 289
f 135 136 88
f 88 40 39
f 88 87 135
f 39 87 88
f 257 178 177
f 257 258 178
f 184 273 185
f 184 183 273
f 186 176 126
f 126 163 186
f 126 176 177
f 177 178 126
f 126 182 183
f 183 184 126
f 126 184 185
f 185 127 126
f 126 127 80
f 253 186 281
f 448 449 365
f 266 267 180
f 298 388 386
f 215 150 214
f 300 298 214
f 302 303 215
f 370 389 371
f 368 389 370
f 371 386 372
f 386 388 372
f 451 388 387
f 387 298 300
f 388 298 387
f 141 207 142
f 141 92 140
f 210 285 284
f 209 285 210
f 275 378 276
f 275 276 185
f 185 274 275
f 384 378 451
f 451 387 384
f 282 384 297
f 376 375 451
f 155 100 154
f 312 224 311
f 142 208 143
f 208 144 143
f 143 144 95
f 215 303 216
f 216 150 215
f 216 303 217
f 217 218 151
f 151 216 217
f 150 216 151
f 124 73 122
f 122 121 124
f 170 168 248
f 249 170 248
f 248 352 249
f 28 70 69
f 70 71 69
f 69 29 28
f 69 71 29
f 119 71 118
f 118 169 119
f 119 170 123
f 119 169 170
f 340 244 339
f 340 341 244
f 343 344 245
f 458 403 402
f 157 218 217
f 154 100 153
f 458 453 459
f 398 402 309
f 353 354 249
f 249 352 353
f 353 352 354
f 236 320 321
f 321 352 351
f 321 320 352
f 236 163 235
f 163 232 235
f 235 320 236
f 162 163 104
f 162 232 163
f 162 233 234
f 234 232 162
f 319 232 318
f 319 318 249
f 320 235 319
f 319 235 232
f 252 232 234
f 237 163 236
f 237 238 163
f 326 238 237
f 236 325 237
f 237 325 326
f 241 163 240
f 331 332 240
f 327 238 326
f 244 163 243
f 163 242 243
f 243 242 336
f 336 337 243
f 106 107 49
f 163 107 106
f 114 115 49
f 50 27 49
f 49 115 50
f 278 279 186
f 186 246 278
f 347 246 346
f 348 246 347
f 347 346 436
f 24 42 43
f 43 44 24
f 43 94 44
f 95 94 93
f 92 141 93
f 93 43 92
f 94 43 93
f 93 141 142
f 142 143 93
f 93 143 95
f 80 128 129
f 129 130 80
f 193 130 129
f 129 192 193
f 129 128 190
f 131 132 80
f 80 130 131
f 197 198 131
f 199 132 131
f 131 198 199
f 33 83 84
f 84 85 33
f 83 80 84
f 80 85 84
f 133 132 199
f 80 132 133
f 133 134 80
f 74 86 125
f 86 134 125
f 204 198 197
f 199 198 204
f 195 131 194
f 194 130 193
f 194 131 130
f 41 40 89
f 40 88 89
f 89 88 139
f 362 257 256
f 177 255 256
f 256 257 177
f 269 372 373
f 371 372 269
f 273 183 272
f 186 279 280
f 280 281 186
f 364 363 448
f 448 365 364
f 364 258 363
f 364 365 260
f 261 178 260
f 368 264 263
f 367 389 368
f 449 389 367
f 368 263 367
f 367 263 262
f 180 126 179
f 179 126 178
f 262 263 179
f 178 261 179
f 179 261 262
f 179 264 180
f 179 263 264
f 215 214 299
f 299 214 298
f 296 214 212
f 300 214 296
f 212 214 149
f 149 214 150
f 391 392 303
f 303 302 391
f 391 455 392
f 391 390 448
f 369 370 266
f 369 264 368
f 368 370 369
f 450 388 374
f 450 372 388
f 374 373 450
f 373 372 450
f 284 297 294
f 294 210 284
f 145 144 209
f 209 210 145
f 283 297 284
f 283 282 297
f 187 127 185
f 451 378 377
f 377 376 451
f 377 275 274
f 378 275 377
f 288 287 208
f 288 207 293
f 208 207 288
f 293 289 288
f 192 287 288
f 193 192 288
f 288 289 193
f 209 208 286
f 208 287 286
f 286 285 209
f 156 155 224
f 158 101 156
f 101 100 156
f 100 155 156
f 225 224 312
f 312 313 225
f 225 156 224
f 309 402 310
f 310 402 403
f 413 315 314
f 160 159 231
f 414 351 316
f 413 416 415
f 468 467 465
f 410 313 312
f 312 409 410
f 72 119 123
f 71 119 72
f 121 122 72
f 72 122 73
f 72 120 121
f 123 120 72
f 29 71 72
f 30 29 72
f 72 73 30
f 245 341 342
f 342 343 245
f 342 341 432
f 433 460 434
f 433 471 460
f 432 471 433
f 433 342 432
f 343 342 433
f 392 455 393
f 304 303 393
f 303 392 393
f 217 304 229
f 229 157 217
f 437 472 438
f 436 460 437
f 437 347 436
f 348 347 437
f 460 459 437
f 453 472 437
f 437 459 453
f 473 472 453
f 448 362 361
f 362 256 361
f 361 256 255
f 455 446 456
f 456 393 455
f 457 453 458
f 457 398 453
f 458 402 457
f 402 398 457
f 322 351 414
f 414 323 322
f 322 321 351
f 322 323 236
f 236 321 322
f 123 172 171
f 171 120 123
f 233 162 166
f 166 104 165
f 166 162 104
f 251 252 173
f 173 250 251
f 250 318 251
f 318 232 251
f 232 252 251
f 163 238 239
f 239 240 163
f 331 240 239
f 239 330 331
f 239 238 329
f 329 330 239
f 329 238 328
f 238 327 328
f 417 416 413
f 338 243 337
f 339 244 338
f 244 243 338
f 104 163 105
f 163 106 105
f 49 104 105
f 105 106 49
f 49 107 108
f 108 109 49
f 108 107 163
f 163 109 108
f 110 163 111
f 110 109 163
f 110 111 49
f 49 109 110
f 113 114 49
f 52 27 51
f 27 50 51
f 350 246 349
f 350 278 246
f 197 131 196
f 196 131 195
f 134 133 200
f 200 201 134
f 200 133 199
f 134 201 175
f 175 125 134
f 140 139 206
f 206 290 207
f 206 141 140
f 207 141 206
f 90 43 42
f 90 89 43
f 90 42 41
f 41 89 90
f 92 43 91
f 43 89 91
f 91 89 139
f 140 92 91
f 91 139 140
f 181 269 182
f 181 126 180
f 182 126 181
f 180 267 181
f 268 267 371
f 371 269 268
f 268 181 267
f 269 181 268
f 183 182 271
f 271 272 183
f 259 364 260
f 258 364 259
f 260 178 259
f 178 258 259
f 449 367 366
f 366 365 449
f 301 302 215
f 215 299 301
f 390 391 301
f 301 391 302
f 386 389 301
f 301 389 390
f 301 298 386
f 301 299 298
f 385 384 387
f 385 387 300
f 300 296 385
f 212 149 148
f 99 149 150
f 147 148 99
f 99 148 149
f 150 151 99
f 447 391 448
f 455 391 447
f 447 446 455
f 448 361 447
f 447 361 446
f 264 369 265
f 265 369 266
f 180 264 265
f 265 266 180
f 213 294 297
f 212 148 213
f 189 128 188
f 128 127 188
f 127 187 188
f 185 276 277
f 277 187 185
f 191 129 190
f 192 129 191
f 465 409 408
f 408 409 312
f 223 311 224
f 223 310 311
f 224 155 223
f 404 459 460
f 404 310 403
f 404 403 458
f 458 459 404
f 315 227 226
f 313 314 226
f 226 314 315
f 226 225 313
f 156 225 226
f 226 227 156
f 158 156 228
f 156 227 228
f 167 248 168
f 167 168 116
f 116 160 167
f 160 231 167
f 414 316 317
f 317 415 414
f 413 415 317
f 317 315 413
f 247 316 351
f 351 352 247
f 352 248 247
f 248 167 247
f 231 316 247
f 247 167 231
f 230 316 231
f 315 317 230
f 230 317 316
f 230 227 315
f 230 228 227
f 158 228 230
f 230 159 158
f 230 231 159
f 236 323 324
f 324 325 236
f 419 467 420
f 467 468 420
f 411 314 313
f 313 410 411
f 431 471 432
f 463 431 430
f 463 427 462
f 460 471 463
f 471 431 463
f 453 382 381
f 395 383 382
f 395 382 453
f 395 454 383
f 441 401 446
f 446 442 441
f 440 401 441
f 445 361 360
f 446 361 445
f 394 307 304
f 399 307 394
f 304 393 394
f 393 456 394
f 394 456 446
f 152 153 100
f 100 157 152
f 219 221 153
f 153 152 219
f 112 113 49
f 49 111 112
f 111 163 112
f 182 269 270
f 270 271 182
f 270 269 373
f 297 384 295
f 384 385 295
f 295 213 297
f 295 385 296
f 295 296 212
f 212 213 295
f 211 213 148
f 147 145 211
f 211 148 147
f 211 145 210
f 210 294 211
f 294 213 211
f 146 145 147
f 147 99 146
f 45 95 96
f 96 97 45
f 95 144 96
f 144 145 96
f 145 97 96
f 378 384 379
f 384 282 379
f 464 408 462
f 464 468 465
f 465 408 464
f 462 408 406
f 406 463 462
f 310 223 222
f 309 310 222
f 222 221 309
f 154 153 222
f 153 221 222
f 222 155 154
f 222 223 155
f 468 423 422
f 422 332 331
f 422 423 332
f 332 423 424
f 424 423 468
f 412 411 467
f 413 314 412
f 314 411 412
f 412 418 417
f 412 417 413
f 419 418 412
f 412 467 419
f 465 467 466
f 467 411 466
f 466 411 410
f 466 409 465
f 466 410 409
f 427 463 428
f 461 404 460
f 460 463 461
f 461 406 404
f 463 406 461
f 452 473 453
f 453 381 452
f 452 381 380
f 474 443 442
f 474 442 446
f 306 398 309
f 309 221 306
f 221 219 306
f 290 206 291
f 206 292 291
f 205 292 206
f 205 204 197
f 139 88 138
f 138 206 139
f 204 205 138
f 138 205 206
f 199 204 203
f 203 200 199
f 203 202 200
f 204 138 203
f 203 138 202
f 98 97 145
f 145 146 98
f 45 97 98
f 98 99 45
f 98 146 99
f 311 406 407
f 407 406 408
f 312 311 407
f 407 408 312
f 405 406 311
f 404 406 405
f 311 310 405
f 310 404 405
f 421 420 468
f 468 422 421
f 332 424 333
f 334 241 333
f 241 240 333
f 333 240 332
f 468 464 425
f 425 424 468
f 470 430 429
f 429 428 470
f 470 463 430
f 470 428 463
f 305 306 219
f 307 308 220
f 157 229 220
f 220 152 157
f 220 219 152
f 399 394 400
f 400 394 446
f 400 307 399
f 400 308 307
f 401 308 400
f 446 401 400
f 446 445 475
f 475 474 446
f 202 138 137
f 137 88 136
f 137 138 88
f 201 200 137
f 200 202 137
f 469 427 426
f 426 425 469
f 469 425 464
f 462 427 469
f 469 464 462
f 396 305 395
f 396 395 453
f 453 398 396
f 306 305 396
f 398 306 397
f 397 396 398
f 306 396 397
f 31 49 27
f 27 7 31
f 11 23 5
f 5 4 11
f 73 49 31
f 73 103 49
f 161 103 73
f 73 124 161
f 189 284 285
f 285 190 189
f 161 124 121
f 121 164 161
f 345 344 434
f 434 435 345
f 345 435 436
f 436 346 345
f 23 11 37
f 37 11 33
f 87 37 33
f 33 74 87
f 363 258 257
f 362 363 257
f 360 254 359
f 360 359 444
f 267 266 370
f 371 267 370
f 164 121 120
f 165 164 120
f 172 174 233
f 174 234 233
f 354 320 319
f 249 354 319
f 252 234 174
f 252 174 173
f 125 87 74
f 135 87 125
f 193 289 194
f 194 289 290
f 375 376 272
f 272 376 273
f 273 376 377
f 377 274 273
f 434 344 433
f 344 343 433
f 437 438 349
f 349 348 437
f 438 472 473
f 473 439 438
f 281 280 383
f 383 280 382
f 254 360 361
f 255 254 361
f 165 120 166
f 120 171 166
f 172 233 166
f 166 171 172
f 417 325 416
f 326 325 417
f 429 430 338
f 338 430 339
f 349 438 350
f 438 439 350
f 350 439 380
f 380 278 350
f 135 125 175
f 175 136 135
f 375 272 271
f 374 375 271
f 366 367 262
f 262 261 366
f 260 365 366
f 366 261 260
f 218 157 99
f 99 100 45
f 99 151 218
f 99 157 100
f 188 284 189
f 188 283 284
f 188 187 282
f 282 283 188
f 190 285 191
f 285 286 191
f 191 287 192
f 191 286 287
f 414 415 324
f 324 323 414
f 416 325 324
f 324 415 416
f 329 328 420
f 420 328 419
f 341 340 431
f 432 341 431
f 339 430 431
f 431 340 339
f 336 335 427
f 427 335 426
f 381 278 380
f 279 278 381
f 382 280 381
f 381 280 279
f 440 355 454
f 454 355 253
f 253 281 454
f 281 383 454
f 440 454 395
f 395 401 440
f 441 355 440
f 356 355 441
f 441 357 356
f 441 442 357
f 444 359 443
f 443 359 358
f 357 442 443
f 358 357 443
f 419 328 418
f 418 328 327
f 326 417 418
f 418 327 326
f 58 57 112
f 112 3 2
f 56 55 112
f 2 9 112
f 67 66 112
f 35 34 112
f 112 59 58
f 75 36 112
f 13 12 112
f 80 79 112
f 22 21 112
f 62 61 112
f 112 68 67
f 112 63 62
f 112 36 35
f 112 76 75
f 52 51 112
f 18 17 112
f 112 19 18
f 112 34 22
f 112 53 52
f 112 57 56
f 112 61 60
f 60 59 112
f 112 32 68
f 64 63 112
f 112 65 64
f 112 14 13
f 77 76 112
f 112 78 77
f 112 12 10
f 10 3 112
f 112 17 16
f 16 15 112
f 20 19 112
f 112 21 20
f 54 53 112
f 112 55 54
f 112 9 32
f 112 66 65
f 112 126 80
f 112 79 78
f 15 14 112
f 163 126 112
f 115 114 112
f 112 50 115
f 114 113 112
f 112 51 50
f 374 271 270
f 270 373 374
f 379 277 276
f 276 378 379
f 282 187 379
f 187 277 379
f 429 338 428
f 428 338 337
f 336 427 428
f 428 337 336
f 439 473 452
f 380 439 452
f 291 194 290
f 195 194 291
f 291 196 195
f 291 292 196
f 196 292 205
f 197 196 205
f 329 420 421
f 421 330 329
f 331 330 421
f 421 422 331
f 426 335 425
f 425 335 334
f 334 333 425
f 425 333 424
f 401 395 305
f 305 308 401
f 308 305 220
f 220 305 219
f 304 307 220
f 220 229 304
f 475 360 444
f 475 445 360
f 444 443 475
f 443 474 475
f 136 175 137
f 137 175 201
