v -0.088306 -0.040685 -0.043717
v -0.088304 -0.030040 -0.045184
v -0.088304 -0.031890 -0.045184
v -0.088300 -0.033356 -0.045184
v -0.088290 -0.042151 -0.043717
v -0.088290 -0.046548 -0.042250
v -0.088302 -0.049480 -0.040783
v -0.088300 -0.011368 -0.040786
v -0.088302 -0.014300 -0.042250
v -0.087822 -0.030428 -0.046548
v -0.088302 -0.018697 -0.043717
v -0.088300 -0.027492 -0.045183
v -0.087822 -0.028962 -0.046542
v -0.087822 -0.030040 -0.046546
v -0.087822 -0.031890 -0.046531
v -0.088282 -0.034821 -0.045184
v -0.088212 -0.043616 -0.043717
v -0.088249 -0.036287 -0.045184
v -0.088188 -0.037753 -0.045184
v -0.088178 -0.048014 -0.042250
v -0.088221 -0.050946 -0.040783
v -0.088288 -0.051962 -0.039322
v -0.088214 -0.010257 -0.039676
v -0.088282 -0.010257 -0.040786
v -0.088255 -0.012834 -0.042250
v -0.088263 -0.017231 -0.043717
v -0.086609 -0.030428 -0.047232
v -0.086931 -0.030040 -0.047049
v -0.088268 -0.024561 -0.045183
v -0.088292 -0.026026 -0.045183
v -0.087820 -0.027492 -0.046509
v -0.086609 -0.028962 -0.047218
v -0.086609 -0.031890 -0.047198
v -0.087818 -0.033356 -0.046486
v -0.088065 -0.039219 -0.045184
v -0.087808 -0.042151 -0.045042
v -0.087728 -0.043616 -0.044842
v -0.088016 -0.045082 -0.043717
v -0.087800 -0.034821 -0.046419
v -0.087769 -0.036287 -0.046348
v -0.087708 -0.037753 -0.046247
v -0.087698 -0.048014 -0.043351
v -0.087738 -0.050946 -0.041974
v -0.087975 -0.051962 -0.040848
v -0.087988 -0.051962 -0.037851
v -0.088104 -0.010257 -0.039297
v -0.088225 -0.010257 -0.041139
v -0.088131 -0.015765 -0.043717
v -0.088065 -0.011368 -0.042250
v -0.088141 -0.021629 -0.045183
v -0.088227 -0.023095 -0.045183
v -0.085142 -0.030428 -0.047260
v -0.087810 -0.026026 -0.046453
v -0.086609 -0.027492 -0.047158
v -0.085142 -0.027492 -0.047191
v -0.085142 -0.028962 -0.047244
v -0.085142 -0.031890 -0.047222
v -0.085142 -0.033356 -0.047144
v -0.086609 -0.033356 -0.047111
v -0.087536 -0.045082 -0.044612
v -0.087583 -0.039219 -0.046108
v -0.087448 -0.040313 -0.045991
v -0.086609 -0.034821 -0.046978
v -0.086609 -0.036287 -0.046830
v -0.087514 -0.049092 -0.043131
v -0.087385 -0.045907 -0.044479
v -0.087571 -0.051962 -0.041731
v -0.087518 -0.051962 -0.036944
v -0.087734 -0.010257 -0.038429
v -0.087810 -0.010257 -0.042281
v -0.087773 -0.012834 -0.043497
v -0.087781 -0.017231 -0.044951
v -0.087659 -0.021629 -0.046188
v -0.087747 -0.023095 -0.046308
v -0.087787 -0.024561 -0.046386
v -0.083677 -0.030428 -0.047164
v -0.083677 -0.028962 -0.047151
v -0.083677 -0.030040 -0.047161
v -0.086609 -0.026026 -0.047049
v -0.085142 -0.026026 -0.047088
v -0.083677 -0.027492 -0.047098
v -0.083677 -0.026026 -0.046999
v -0.083677 -0.031890 -0.047122
v -0.083677 -0.033356 -0.047049
v -0.083677 -0.034821 -0.046921
v -0.085142 -0.034821 -0.047015
v -0.086609 -0.037753 -0.046615
v -0.086936 -0.041289 -0.045881
v -0.085142 -0.036287 -0.046854
v -0.086609 -0.048014 -0.043767
v -0.086609 -0.049312 -0.043227
v -0.086609 -0.050047 -0.042902
v -0.086609 -0.050946 -0.042472
v -0.086609 -0.043616 -0.045286
v -0.086609 -0.045082 -0.044820
v -0.086609 -0.046009 -0.044516
v -0.086609 -0.046744 -0.044258
v -0.086609 -0.051962 -0.041959
v -0.086609 -0.051962 -0.036750
v -0.086913 -0.010257 -0.037971
v -0.087642 -0.010257 -0.038270
v -0.087714 -0.010257 -0.042475
v -0.087651 -0.015765 -0.044735
v -0.087585 -0.011368 -0.043213
v -0.087499 -0.020163 -0.046035
v -0.086609 -0.023095 -0.046738
v -0.086609 -0.024561 -0.046905
v -0.082212 -0.030428 -0.047005
v -0.082210 -0.028962 -0.046992
v -0.085142 -0.024561 -0.046935
v -0.082210 -0.027492 -0.046939
v -0.082210 -0.026026 -0.046839
v -0.083677 -0.024561 -0.046847
v -0.082212 -0.031890 -0.046964
v -0.082212 -0.033356 -0.046890
v -0.082212 -0.034821 -0.046763
v -0.083677 -0.036287 -0.046760
v -0.085142 -0.037753 -0.046633
v -0.085142 -0.039219 -0.046354
v -0.085959 -0.041440 -0.045921
v -0.086609 -0.039219 -0.046328
v -0.086513 -0.040758 -0.046026
v -0.086513 -0.042016 -0.045732
v -0.083677 -0.037753 -0.046545
v -0.085142 -0.048014 -0.043792
v -0.085142 -0.049337 -0.043236
v -0.085142 -0.050072 -0.042921
v -0.085142 -0.050946 -0.042487
v -0.085142 -0.043616 -0.045311
v -0.085142 -0.045082 -0.044845
v -0.085142 -0.046034 -0.044524
v -0.085142 -0.046764 -0.044270
v -0.085142 -0.051962 -0.041967
v -0.068011 -0.051962 -0.034093
v -0.067435 -0.010257 -0.034713
v -0.086609 -0.010257 -0.037914
v -0.087573 -0.010257 -0.042673
v -0.087412 -0.010519 -0.043035
v -0.087485 -0.014692 -0.044561
v -0.087383 -0.019297 -0.045944
v -0.086609 -0.021629 -0.046501
v -0.085142 -0.023095 -0.046755
v -0.073752 -0.030428 -0.045966
v -0.079278 -0.031890 -0.046604
v -0.081133 -0.030040 -0.046870
v -0.073067 -0.028962 -0.045870
v -0.067435 -0.029044 -0.045179
v -0.074134 -0.026741 -0.045917
v -0.067435 -0.027492 -0.045125
v -0.080743 -0.026026 -0.046658
v -0.082210 -0.024561 -0.046687
v -0.075517 -0.025181 -0.045929
v -0.083677 -0.023095 -0.046661
v -0.074066 -0.032776 -0.045925
v -0.073515 -0.033298 -0.045823
v -0.076350 -0.033356 -0.046169
v -0.074338 -0.033752 -0.045894
v -0.071952 -0.034821 -0.045496
v -0.075750 -0.035405 -0.045900
v -0.079278 -0.036287 -0.046237
v -0.082212 -0.036287 -0.046598
v -0.075315 -0.034429 -0.045953
v -0.083677 -0.039219 -0.046278
v -0.084747 -0.041363 -0.045904
v -0.085199 -0.040803 -0.046040
v -0.085724 -0.041440 -0.045921
v -0.082212 -0.037753 -0.046383
v -0.083677 -0.048014 -0.043685
v -0.083677 -0.049214 -0.043182
v -0.083677 -0.049945 -0.042869
v -0.083677 -0.050946 -0.042386
v -0.083926 -0.051962 -0.041892
v -0.085199 -0.042016 -0.045756
v -0.083677 -0.042151 -0.045614
v -0.083677 -0.043616 -0.045210
v -0.083577 -0.045217 -0.044694
v -0.084000 -0.045936 -0.044490
v -0.083577 -0.046475 -0.044262
v -0.068011 -0.051962 -0.039727
v -0.067435 -0.030040 -0.039696
v -0.067435 -0.010257 -0.040733
v -0.086609 -0.010257 -0.043012
v -0.086609 -0.010408 -0.043084
v -0.086609 -0.011368 -0.043490
v -0.086609 -0.012834 -0.044061
v -0.086609 -0.013728 -0.044389
v -0.086609 -0.014459 -0.044639
v -0.086609 -0.015765 -0.045069
v -0.086609 -0.017231 -0.045506
v -0.086609 -0.018399 -0.045809
v -0.086609 -0.019130 -0.045983
v -0.086609 -0.020163 -0.046205
v -0.085142 -0.020163 -0.046236
v -0.085142 -0.021629 -0.046518
v -0.068011 -0.030428 -0.045260
v -0.068011 -0.031432 -0.045233
v -0.068011 -0.030040 -0.045257
v -0.068011 -0.031890 -0.045220
v -0.069018 -0.028962 -0.045372
v -0.067435 -0.030040 -0.045186
v -0.067435 -0.028962 -0.045177
v -0.067435 -0.026026 -0.045020
v -0.074540 -0.025765 -0.045868
v -0.076929 -0.023699 -0.045934
v -0.075952 -0.024205 -0.045875
v -0.067435 -0.024561 -0.044863
v -0.082210 -0.023095 -0.046500
v -0.083677 -0.021629 -0.046421
v -0.068011 -0.033356 -0.045140
v -0.068011 -0.034821 -0.045007
v -0.076726 -0.035936 -0.045961
v -0.077182 -0.036916 -0.045904
v -0.082108 -0.039337 -0.046081
v -0.082529 -0.040178 -0.045969
v -0.083677 -0.040448 -0.046029
v -0.083677 -0.041179 -0.045859
v -0.078156 -0.037288 -0.045965
v -0.082212 -0.048014 -0.043510
v -0.082212 -0.046548 -0.044074
v -0.082212 -0.049006 -0.043091
v -0.082212 -0.049737 -0.042777
v -0.082212 -0.050946 -0.042206
v -0.082212 -0.051962 -0.041696
v -0.083677 -0.051962 -0.041874
v -0.082212 -0.043616 -0.045042
v -0.082212 -0.042151 -0.045444
v -0.082212 -0.044907 -0.044640
v -0.083023 -0.045793 -0.044443
v -0.068131 -0.051962 -0.039745
v -0.068011 -0.051517 -0.039970
v -0.067435 -0.011437 -0.041278
v -0.069018 -0.011066 -0.041333
v -0.071400 -0.010690 -0.041494
v -0.072132 -0.010257 -0.041383
v -0.085142 -0.010257 -0.043027
v -0.085142 -0.010396 -0.043092
v -0.085142 -0.011368 -0.043504
v -0.085142 -0.012834 -0.044086
v -0.085142 -0.013699 -0.044405
v -0.085142 -0.014430 -0.044653
v -0.085142 -0.015765 -0.045099
v -0.085142 -0.017231 -0.045534
v -0.085142 -0.018346 -0.045822
v -0.085142 -0.019077 -0.046002
v -0.083677 -0.019265 -0.045958
v -0.083677 -0.020163 -0.046144
v -0.068011 -0.050819 -0.040326
v -0.068011 -0.049443 -0.040987
v -0.068011 -0.049141 -0.041124
v -0.068011 -0.048500 -0.041412
v -0.068011 -0.048328 -0.041486
v -0.068011 -0.047806 -0.041705
v -0.068011 -0.047340 -0.041895
v -0.068011 -0.046548 -0.042209
v -0.068011 -0.046152 -0.042353
v -0.068011 -0.045045 -0.042752
v -0.068011 -0.044568 -0.042913
v -0.068011 -0.044159 -0.043048
v -0.068011 -0.043657 -0.043209
v -0.068011 -0.042151 -0.043644
v -0.068011 -0.040685 -0.044019
v -0.068011 -0.040358 -0.044095
v -0.068011 -0.039284 -0.044331
v -0.068011 -0.038717 -0.044436
v -0.068011 -0.037765 -0.044609
v -0.068011 -0.036287 -0.044838
v -0.067435 -0.023099 -0.044666
v -0.080743 -0.023095 -0.046318
v -0.069018 -0.023095 -0.044863
v -0.082210 -0.021629 -0.046258
v -0.078492 -0.022327 -0.045922
v -0.082905 -0.019412 -0.045921
v -0.079331 -0.039137 -0.045772
v -0.069819 -0.039909 -0.044443
v -0.081552 -0.039901 -0.045907
v -0.082108 -0.040672 -0.045797
v -0.076702 -0.047401 -0.043034
v -0.075725 -0.047242 -0.042968
v -0.082212 -0.045642 -0.044391
v -0.070485 -0.045564 -0.042897
v -0.072397 -0.045919 -0.043021
v -0.069698 -0.048765 -0.041525
v -0.074244 -0.050186 -0.041504
v -0.076350 -0.050472 -0.041647
v -0.069063 -0.051044 -0.040357
v -0.071372 -0.051962 -0.040201
v -0.074794 -0.050864 -0.041236
v -0.076681 -0.043057 -0.044502
v -0.078792 -0.044241 -0.044417
v -0.079771 -0.044441 -0.044480
v -0.070797 -0.040166 -0.044503
v -0.072746 -0.041387 -0.044443
v -0.073723 -0.041628 -0.044505
v -0.076254 -0.042273 -0.044658
v -0.075705 -0.042841 -0.044439
v -0.068182 -0.044388 -0.042998
v -0.070113 -0.051962 -0.040026
v -0.067435 -0.012050 -0.041539
v -0.071913 -0.011254 -0.041800
v -0.080743 -0.010951 -0.042848
v -0.082884 -0.010617 -0.042991
v -0.082535 -0.010257 -0.042780
v -0.072377 -0.010547 -0.041558
v -0.072722 -0.010257 -0.041464
v -0.083677 -0.010257 -0.042917
v -0.083677 -0.010519 -0.043035
v -0.083677 -0.011368 -0.043395
v -0.083677 -0.012834 -0.043985
v -0.083677 -0.013834 -0.044358
v -0.083677 -0.014569 -0.044608
v -0.083677 -0.015765 -0.045003
v -0.083677 -0.017231 -0.045433
v -0.069020 -0.045282 -0.042803
v -0.074884 -0.042641 -0.044387
v -0.069020 -0.039639 -0.044392
v -0.067435 -0.022090 -0.044499
v -0.077519 -0.022723 -0.045862
v -0.082332 -0.020192 -0.046002
v -0.080189 -0.021016 -0.045894
v -0.080704 -0.021555 -0.046058
v -0.082210 -0.017231 -0.045265
v -0.080743 -0.017231 -0.045079
v -0.073417 -0.018175 -0.044396
v -0.067435 -0.018697 -0.043774
v -0.071235 -0.019440 -0.044448
v -0.067435 -0.020163 -0.044122
v -0.069435 -0.020706 -0.044489
v -0.068456 -0.021012 -0.044427
v -0.067435 -0.012711 -0.041815
v -0.079278 -0.011915 -0.043061
v -0.082320 -0.011303 -0.043207
v -0.083227 -0.010257 -0.042866
v -0.074452 -0.010257 -0.041697
v -0.082210 -0.012834 -0.043814
v -0.082210 -0.014083 -0.044274
v -0.082210 -0.014818 -0.044523
v -0.082210 -0.015765 -0.044836
v -0.067435 -0.021466 -0.044385
v -0.067435 -0.021355 -0.044364
v -0.078124 -0.016337 -0.044503
v -0.077149 -0.016533 -0.044441
v -0.067435 -0.018816 -0.043802
v -0.067435 -0.017223 -0.043378
v -0.067435 -0.012740 -0.041826
v -0.069018 -0.012834 -0.042075
v -0.076348 -0.012389 -0.042866
v -0.078402 -0.012054 -0.043002
v -0.073970 -0.013508 -0.043007
v -0.072994 -0.013683 -0.042944
v -0.081346 -0.014982 -0.044467
v -0.079278 -0.016113 -0.044577
v -0.067435 -0.016211 -0.043080
v -0.067435 -0.014300 -0.042427
v -0.067435 -0.015488 -0.042835
f 135 134 180
f 99 134 135
f 136 99 135
f 68 99 100
f 99 136 100
f 100 101 68
f 105 106 73
f 42 60 66
f 210 200 266
f 210 209 200
f 200 209 198
f 111 82 112
f 151 152 112
f 151 205 206
f 206 152 151
f 112 82 151
f 82 113 151
f 202 152 206
f 153 113 142
f 153 151 113
f 102 138 104
f 104 138 139
f 42 20 38
f 20 17 38
f 23 24 8
f 8 22 23
f 230 200 179
f 230 247 200
f 250 282 251
f 251 200 250
f 200 247 248
f 67 93 98
f 128 93 127
f 133 98 128
f 128 98 93
f 65 93 67
f 42 66 65
f 195 200 196
f 200 198 196
f 154 198 209
f 64 61 41
f 40 59 41
f 36 41 37
f 37 41 61
f 37 60 42
f 42 38 37
f 37 17 36
f 37 38 17
f 62 66 60
f 62 61 64
f 60 37 62
f 62 37 61
f 109 108 78
f 78 77 109
f 52 77 78
f 146 111 149
f 109 111 146
f 146 147 109
f 82 111 81
f 73 106 107
f 142 113 110
f 110 106 142
f 110 107 106
f 33 59 40
f 58 59 33
f 64 41 63
f 63 41 59
f 148 202 149
f 148 111 112
f 149 111 148
f 152 202 203
f 205 151 204
f 206 205 204
f 352 343 341
f 137 138 102
f 137 182 138
f 139 138 185
f 68 101 69
f 45 69 46
f 68 69 45
f 45 46 23
f 23 22 45
f 1 4 5
f 22 21 44
f 169 125 168
f 169 126 125
f 251 282 220
f 282 221 220
f 223 230 286
f 285 223 287
f 285 230 223
f 247 230 285
f 282 250 249
f 249 248 282
f 249 250 200
f 200 248 249
f 125 126 91
f 91 126 127
f 133 128 172
f 254 253 278
f 254 255 200
f 200 253 254
f 252 200 251
f 252 253 200
f 278 253 252
f 266 200 265
f 200 261 262
f 262 263 200
f 96 66 95
f 155 154 209
f 115 154 155
f 198 154 144
f 144 196 198
f 117 116 161
f 157 116 115
f 157 155 209
f 209 210 157
f 64 89 87
f 87 62 64
f 57 33 52
f 58 33 57
f 57 84 58
f 83 84 57
f 19 18 40
f 40 41 19
f 17 5 19
f 19 5 18
f 76 78 108
f 52 78 76
f 76 57 52
f 83 57 76
f 195 196 143
f 143 144 108
f 196 144 143
f 149 201 199
f 199 146 149
f 201 147 199
f 147 146 199
f 82 81 55
f 73 107 74
f 74 107 79
f 74 50 73
f 74 51 50
f 75 51 74
f 54 55 32
f 54 74 79
f 75 74 54
f 31 13 30
f 32 13 31
f 31 54 32
f 27 32 52
f 52 33 27
f 117 89 86
f 86 59 58
f 86 63 59
f 86 89 64
f 64 63 86
f 150 148 112
f 202 148 150
f 150 203 202
f 112 152 150
f 152 203 150
f 139 189 140
f 106 105 140
f 206 204 267
f 341 343 324
f 325 272 324
f 184 185 138
f 241 189 188
f 188 189 139
f 29 30 11
f 29 31 30
f 9 8 24
f 1 8 9
f 9 2 1
f 11 2 9
f 49 48 25
f 25 9 24
f 71 48 49
f 102 104 71
f 71 70 102
f 49 70 71
f 50 51 26
f 26 48 50
f 26 29 11
f 51 29 26
f 26 25 48
f 11 9 26
f 9 25 26
f 18 5 16
f 16 5 4
f 16 34 18
f 20 21 6
f 6 17 20
f 6 5 17
f 1 5 6
f 67 44 43
f 42 65 43
f 43 65 67
f 43 44 21
f 43 20 42
f 43 21 20
f 287 223 283
f 283 248 247
f 283 222 221
f 283 285 287
f 247 285 283
f 283 221 282
f 282 248 283
f 223 224 171
f 171 222 223
f 171 128 127
f 224 172 171
f 171 172 128
f 277 252 251
f 278 252 277
f 297 286 230
f 125 91 90
f 90 65 66
f 90 91 65
f 127 93 92
f 92 91 127
f 93 65 92
f 65 91 92
f 200 263 264
f 264 265 200
f 278 277 219
f 260 261 200
f 200 259 260
f 200 255 256
f 66 62 88
f 88 87 121
f 62 87 88
f 108 144 114
f 114 76 108
f 83 76 114
f 114 154 115
f 114 144 154
f 160 161 116
f 85 116 117
f 117 86 85
f 58 84 85
f 85 86 58
f 115 155 156
f 156 157 115
f 155 157 156
f 162 158 116
f 116 157 162
f 210 158 162
f 162 157 210
f 35 41 36
f 35 19 41
f 36 17 35
f 17 19 35
f 197 147 200
f 197 143 147
f 197 200 195
f 195 143 197
f 145 143 108
f 147 143 145
f 145 108 109
f 109 147 145
f 52 32 56
f 32 55 56
f 56 77 52
f 79 107 80
f 107 110 80
f 80 54 79
f 55 54 80
f 82 55 80
f 40 18 39
f 18 34 39
f 39 33 40
f 39 34 33
f 28 13 32
f 32 27 28
f 332 302 301
f 301 305 332
f 301 307 306
f 306 305 301
f 301 302 233
f 319 270 318
f 318 270 272
f 241 311 242
f 242 189 241
f 310 311 241
f 269 267 204
f 269 271 267
f 267 271 316
f 341 324 323
f 323 324 272
f 331 330 334
f 334 307 331
f 331 307 301
f 353 349 344
f 354 349 353
f 183 182 235
f 138 182 183
f 183 184 138
f 184 183 237
f 237 306 307
f 241 188 187
f 187 188 139
f 3 4 1
f 1 2 3
f 11 30 12
f 12 2 11
f 30 13 12
f 13 2 12
f 53 51 75
f 53 29 51
f 31 29 53
f 75 54 53
f 54 31 53
f 49 25 47
f 47 25 24
f 47 70 49
f 48 71 72
f 72 105 73
f 73 50 72
f 50 48 72
f 7 21 22
f 7 6 21
f 1 6 7
f 7 8 1
f 22 8 7
f 223 222 284
f 284 283 223
f 222 283 284
f 221 222 170
f 222 171 170
f 170 171 127
f 127 126 170
f 126 169 170
f 251 220 218
f 218 277 251
f 218 220 169
f 218 169 168
f 168 219 218
f 218 219 277
f 229 230 179
f 229 297 230
f 125 90 97
f 97 66 96
f 97 90 66
f 274 262 261
f 124 89 117
f 266 265 212
f 161 160 212
f 279 219 228
f 258 259 200
f 280 219 279
f 255 254 280
f 94 95 66
f 66 88 94
f 122 88 121
f 116 158 159
f 159 160 116
f 159 158 210
f 33 34 15
f 15 27 33
f 15 16 4
f 34 16 15
f 298 233 231
f 181 233 234
f 234 233 304
f 303 333 304
f 304 233 303
f 302 333 303
f 303 233 302
f 301 233 300
f 300 331 301
f 330 331 300
f 298 330 299
f 299 233 298
f 330 300 299
f 299 300 233
f 106 140 141
f 140 192 141
f 192 193 141
f 142 106 141
f 190 140 189
f 189 242 190
f 350 354 352
f 335 349 350
f 349 354 350
f 311 337 312
f 312 242 311
f 272 270 208
f 326 272 325
f 326 327 272
f 240 310 241
f 239 310 240
f 241 187 240
f 240 187 239
f 336 310 335
f 335 350 336
f 336 350 337
f 336 337 311
f 311 310 336
f 308 237 307
f 308 307 334
f 268 269 204
f 319 339 338
f 329 330 298
f 348 344 349
f 334 330 348
f 348 335 334
f 348 349 335
f 306 237 236
f 235 305 236
f 305 306 236
f 236 183 235
f 236 237 183
f 185 239 186
f 239 187 186
f 139 185 186
f 186 187 139
f 139 140 103
f 103 72 71
f 103 140 105
f 105 72 103
f 103 104 139
f 103 71 104
f 263 262 315
f 262 274 315
f 315 264 263
f 315 274 264
f 291 274 261
f 166 164 173
f 89 124 118
f 118 87 89
f 178 219 168
f 178 228 219
f 177 228 178
f 279 228 227
f 225 290 227
f 227 175 225
f 132 131 177
f 177 178 132
f 125 97 132
f 168 125 132
f 132 178 168
f 132 97 96
f 96 131 132
f 295 260 259
f 259 288 295
f 259 290 289
f 289 288 259
f 289 290 225
f 225 288 289
f 200 256 257
f 257 258 200
f 281 254 278
f 281 280 254
f 278 219 281
f 219 280 281
f 88 122 120
f 120 122 121
f 121 87 120
f 211 159 210
f 160 159 211
f 211 212 160
f 211 210 266
f 266 212 211
f 10 28 27
f 27 15 10
f 10 3 2
f 4 3 10
f 10 15 4
f 181 231 232
f 232 233 181
f 232 231 233
f 191 192 140
f 140 190 191
f 190 244 191
f 191 193 192
f 191 244 193
f 340 352 341
f 340 350 352
f 272 312 321
f 321 312 337
f 321 340 341
f 337 340 321
f 272 208 246
f 194 153 142
f 194 208 153
f 142 141 194
f 194 141 193
f 193 246 194
f 194 246 208
f 325 324 342
f 342 326 325
f 328 326 339
f 327 326 328
f 328 339 319
f 319 318 328
f 328 318 272
f 272 327 328
f 243 190 242
f 243 244 190
f 309 310 239
f 335 310 309
f 334 335 309
f 309 308 334
f 237 308 238
f 238 239 185
f 238 309 239
f 308 309 238
f 185 184 238
f 184 237 238
f 271 269 317
f 317 268 271
f 269 268 317
f 151 153 207
f 207 204 151
f 207 268 204
f 153 208 207
f 207 208 270
f 207 270 271
f 271 268 207
f 320 338 316
f 319 338 320
f 320 316 271
f 320 270 319
f 271 270 320
f 345 329 344
f 344 348 345
f 166 120 119
f 87 118 119
f 119 120 87
f 275 274 214
f 214 213 275
f 275 213 274
f 161 212 167
f 264 274 273
f 274 213 273
f 176 228 177
f 176 227 228
f 175 227 176
f 95 94 129
f 94 120 129
f 175 176 129
f 166 173 129
f 129 120 166
f 313 280 279
f 313 256 255
f 255 280 313
f 226 288 225
f 226 295 288
f 226 294 295
f 258 257 296
f 296 290 259
f 259 258 296
f 296 227 290
f 296 257 256
f 256 313 296
f 279 227 296
f 296 313 279
f 123 94 88
f 88 120 123
f 123 120 94
f 13 28 14
f 28 10 14
f 14 2 13
f 14 10 2
f 337 350 351
f 351 340 337
f 350 340 351
f 341 323 322
f 322 321 341
f 322 323 272
f 272 321 322
f 242 312 245
f 245 243 242
f 245 312 272
f 244 243 245
f 272 246 245
f 193 244 245
f 245 246 193
f 329 345 346
f 346 345 348
f 165 164 166
f 166 119 165
f 165 119 164
f 163 118 124
f 163 119 118
f 214 215 163
f 163 215 164
f 164 119 163
f 163 213 214
f 124 167 163
f 163 167 213
f 217 212 265
f 217 167 212
f 265 264 217
f 264 273 217
f 213 167 217
f 217 273 213
f 177 131 130
f 130 176 177
f 130 129 176
f 95 129 130
f 96 95 130
f 130 131 96
f 260 295 314
f 314 294 260
f 295 294 314
f 225 175 174
f 174 226 225
f 174 173 164
f 174 129 173
f 175 129 174
f 291 226 276
f 214 274 276
f 274 291 276
f 292 291 261
f 292 226 291
f 261 260 292
f 347 348 330
f 347 346 348
f 330 329 347
f 329 346 347
f 226 174 216
f 214 276 216
f 216 276 226
f 216 215 214
f 164 215 216
f 216 174 164
f 294 226 293
f 226 292 293
f 260 294 293
f 293 292 260
f 134 179 200
f 200 180 134
f 81 111 109
f 109 77 81
f 114 84 83
f 115 84 114
f 85 84 115
f 115 116 85
f 56 81 77
f 56 55 81
f 80 110 113
f 80 113 82
f 169 220 170
f 170 220 221
f 229 99 68
f 134 99 229
f 229 179 134
f 229 98 133
f 133 172 229
f 68 45 229
f 229 44 67
f 229 224 223
f 67 98 229
f 229 45 22
f 22 44 229
f 223 286 229
f 229 172 224
f 286 297 229
f 135 181 234
f 102 70 234
f 234 136 135
f 234 137 102
f 101 100 234
f 234 100 136
f 235 182 234
f 234 69 101
f 234 24 23
f 23 46 234
f 234 305 235
f 182 137 234
f 234 333 302
f 46 69 234
f 234 47 24
f 302 332 234
f 234 332 305
f 304 333 234
f 70 47 234
f 342 181 135
f 135 180 342
f 200 147 342
f 180 200 342
f 342 202 206
f 343 352 342
f 342 201 149
f 149 202 342
f 206 267 342
f 342 354 353
f 342 147 201
f 339 326 342
f 353 344 342
f 342 324 343
f 342 231 181
f 267 316 342
f 342 338 339
f 352 354 342
f 298 231 342
f 342 329 298
f 316 338 342
f 344 329 342
f 167 124 117
f 117 161 167
