v -0.085143 -0.030422 0.049260
v -0.086608 -0.030422 0.049222
v -0.085143 -0.030668 0.049252
v -0.083676 -0.030668 0.049163
v -0.083676 -0.030422 0.049166
v -0.083676 -0.028955 0.049158
v -0.085143 -0.028955 0.049249
v -0.087823 -0.030422 0.048542
v -0.086810 -0.030668 0.049104
v -0.086608 -0.030668 0.049212
v -0.086608 -0.028955 0.049206
v -0.087821 -0.028955 0.048528
v -0.082211 -0.030422 0.049009
v -0.082455 -0.030668 0.049028
v -0.082211 -0.028955 0.048998
v -0.083676 -0.027488 0.049101
v -0.085143 -0.027488 0.049185
v -0.088302 -0.027488 0.047182
v -0.088304 -0.028955 0.047182
v -0.088304 -0.030668 0.047182
v -0.087903 -0.030668 0.048315
v -0.087823 -0.030668 0.048533
v -0.087819 -0.027488 0.048482
v -0.086608 -0.027488 0.049125
v -0.087794 -0.024555 0.048390
v -0.087810 -0.026021 0.048436
v -0.088273 -0.024555 0.047182
v -0.088290 -0.026021 0.047182
v -0.067555 -0.030422 0.047212
v -0.069020 -0.028955 0.047385
v -0.074884 -0.028955 0.048104
v -0.080744 -0.028955 0.048820
v -0.082211 -0.030668 0.049001
v -0.080988 -0.030668 0.048852
v -0.080744 -0.030668 0.048823
v -0.077812 -0.030668 0.048463
v -0.082211 -0.027488 0.048941
v -0.082211 -0.026021 0.048820
v -0.083676 -0.026021 0.048977
v -0.085143 -0.026021 0.049071
v -0.086608 -0.026021 0.049025
v -0.088304 -0.018696 0.045715
v -0.088306 -0.020159 0.045715
v -0.088174 -0.030668 0.045715
v -0.088306 -0.021626 0.045715
v -0.088306 0.010626 0.022262
v -0.088294 0.010626 0.021657
v -0.087743 -0.023088 0.048304
v -0.088224 -0.023088 0.047182
v -0.088262 -0.017230 0.045715
v -0.066834 -0.030547 0.047120
v -0.066834 -0.030422 0.047123
v -0.066834 -0.028955 0.047115
v -0.069020 -0.027488 0.047323
v -0.079279 -0.027488 0.048585
v -0.067799 -0.030668 0.047234
v -0.074144 -0.026748 0.047915
v -0.080744 -0.026021 0.048642
v -0.077812 -0.024555 0.048115
v -0.082211 -0.023088 0.048474
v -0.083676 -0.023088 0.048633
v -0.085143 -0.024555 0.048912
v -0.086608 -0.024555 0.048906
v -0.088304 -0.014296 0.044251
v -0.088306 -0.011362 0.042784
v -0.087693 -0.030668 0.044735
v -0.087943 0.009151 0.021657
v -0.088306 0.007692 0.026661
v -0.088304 0.009159 0.025194
v -0.088235 0.010626 0.023727
v -0.088113 0.012093 0.021657
v -0.087644 -0.021626 0.048177
v -0.087781 -0.017230 0.046950
v -0.087985 -0.020159 0.047182
v -0.088126 -0.021626 0.047182
v -0.088126 -0.015763 0.045715
v -0.088258 -0.012829 0.044251
v -0.066834 -0.030668 0.047115
v -0.066834 -0.027488 0.047050
v -0.076351 -0.026021 0.048107
v -0.077812 -0.026021 0.048285
v -0.066834 -0.026770 0.046996
v -0.066834 -0.026021 0.046937
v -0.067555 -0.024555 0.046866
v -0.069020 -0.024555 0.047045
v -0.080744 -0.023088 0.048296
v -0.078478 -0.022313 0.047923
v -0.082211 -0.021626 0.048263
v -0.083676 -0.021626 0.048423
v -0.085143 -0.023088 0.048736
v -0.086608 -0.023088 0.048731
v -0.088269 -0.009896 0.042784
v -0.088306 -0.008433 0.041317
v -0.086608 -0.030668 0.044516
v -0.087461 0.008328 0.021657
v -0.088306 0.001830 0.033989
v -0.088304 0.004759 0.031060
v -0.088294 0.006226 0.029593
v -0.088250 0.007692 0.028128
v -0.088014 0.012093 0.022262
v -0.088172 0.009159 0.026661
v -0.087632 0.013161 0.021657
v -0.087504 -0.020159 0.048042
v -0.087396 -0.019250 0.047953
v -0.087646 -0.015763 0.046726
v -0.087779 -0.012829 0.045507
v -0.088058 -0.011362 0.044251
v -0.088090 -0.008433 0.042784
v -0.088134 -0.008788 0.042784
v -0.066834 -0.030668 0.042292
v -0.066834 -0.024555 0.046777
v -0.066834 -0.023123 0.046593
v -0.069020 -0.023088 0.046858
v -0.079279 -0.023088 0.048117
v -0.066834 -0.022404 0.046493
v -0.066834 -0.022257 0.046469
v -0.079279 -0.022032 0.047974
v -0.080160 -0.020994 0.047896
v -0.081137 -0.020721 0.047958
v -0.082211 -0.020453 0.048025
v -0.085143 -0.021626 0.048523
v -0.083645 -0.020055 0.048088
v -0.085143 -0.020159 0.048220
v -0.086608 -0.021626 0.048493
v -0.088262 -0.006967 0.041317
v -0.088304 -0.005500 0.039852
v -0.087203 0.008277 0.021657
v -0.074884 0.005862 0.021657
v -0.088304 0.000363 0.035453
v -0.088153 0.001830 0.035453
v -0.088153 0.003292 0.033989
v -0.088090 0.006226 0.031060
v -0.088128 0.004759 0.032524
v -0.087863 0.010751 0.025308
v -0.087674 0.012080 0.023586
v -0.087770 0.009172 0.028091
v -0.087691 0.010332 0.026661
v -0.087535 0.013014 0.022262
v -0.087203 0.013391 0.021657
v -0.087571 0.011582 0.024891
v -0.086608 -0.020159 0.048209
v -0.086608 -0.019125 0.047985
v -0.086608 -0.018389 0.047804
v -0.086608 -0.017230 0.047491
v -0.086608 -0.015763 0.047061
v -0.087480 -0.014668 0.046558
v -0.087579 -0.011362 0.045207
v -0.087638 -0.008788 0.043892
v -0.087731 -0.009995 0.044275
v -0.087609 -0.008433 0.043778
v -0.087743 -0.007036 0.042811
v -0.087884 -0.005366 0.041457
v -0.088193 -0.004037 0.039852
v -0.066834 0.005767 0.021657
v -0.066834 -0.021526 0.046321
v -0.067555 -0.021301 0.046366
v -0.068486 -0.021015 0.046423
v -0.069464 -0.020747 0.046485
v -0.066834 -0.018696 0.045650
v -0.070487 -0.017230 0.045742
v -0.077264 -0.016585 0.046429
v -0.082211 -0.017230 0.047210
v -0.083134 -0.019501 0.047896
v -0.083676 -0.017230 0.047374
v -0.084111 -0.019311 0.047944
v -0.085143 -0.019172 0.047980
v -0.088273 -0.002571 0.038385
v -0.088294 -0.001104 0.036920
v -0.087640 0.001722 0.036842
v -0.087680 0.003223 0.035386
v -0.088094 0.000363 0.036920
v -0.087619 0.006130 0.032411
v -0.087611 0.007299 0.031060
v -0.087865 0.007792 0.029674
v -0.087661 0.004685 0.033897
v -0.087590 0.008692 0.029242
v -0.087489 0.010025 0.027580
v -0.087346 0.012828 0.023003
v -0.086629 0.013534 0.021657
v -0.085143 -0.017230 0.047488
v -0.085143 -0.015763 0.047091
v -0.085143 -0.014391 0.046666
v -0.086608 -0.014422 0.046645
v -0.086608 -0.013686 0.046402
v -0.087394 -0.010549 0.045024
v -0.087424 -0.007572 0.043578
v -0.087609 -0.005764 0.042341
v -0.087712 -0.004037 0.041060
v -0.087806 -0.002566 0.039901
v -0.066834 0.011210 0.021657
v -0.066834 -0.020739 0.046142
v -0.066834 -0.020159 0.046007
v -0.066834 -0.017191 0.045270
v -0.067555 -0.017230 0.045372
v -0.066834 -0.016338 0.045032
v -0.082211 -0.015763 0.046820
v -0.083676 -0.015763 0.046988
v -0.087398 0.001159 0.037704
v -0.087464 0.002686 0.036302
v -0.087613 0.000363 0.038031
v -0.087464 0.004149 0.034848
v -0.087886 -0.000983 0.038509
v -0.087432 0.005581 0.033349
v -0.087394 0.007004 0.031846
v -0.086608 0.008341 0.030212
v -0.086608 0.008865 0.029477
v -0.086608 0.009596 0.028442
v -0.086608 0.010111 0.027710
v -0.086608 0.010812 0.026661
v -0.086608 0.011327 0.025878
v -0.086608 0.012460 0.023776
v -0.086608 0.012850 0.023043
v -0.086608 0.013239 0.022262
v -0.086608 0.011725 0.025143
v -0.085143 0.013231 0.022262
v -0.086036 0.013529 0.021657
v -0.083676 -0.014534 0.046620
v -0.085143 -0.013660 0.046415
v -0.086608 -0.012829 0.046072
v -0.086608 -0.011362 0.045475
v -0.086608 -0.010445 0.045070
v -0.086608 -0.008788 0.044272
v -0.086608 -0.007468 0.043632
v -0.086608 -0.006737 0.043246
v -0.087218 -0.004786 0.042038
v -0.087516 -0.003055 0.040744
v -0.087621 -0.001389 0.039444
v -0.068043 0.011383 0.021657
v -0.066834 0.011072 0.021922
v -0.066834 -0.016022 0.044932
v -0.067555 -0.016195 0.045080
v -0.081299 -0.014958 0.046472
v -0.082211 -0.014781 0.046534
v -0.086608 0.000363 0.038458
v -0.086608 0.001220 0.037758
v -0.086608 0.001951 0.037107
v -0.086608 0.002764 0.036372
v -0.086608 -0.001138 0.039620
v -0.086608 -0.000407 0.039085
v -0.086608 0.003496 0.035672
v -0.086608 0.004244 0.034943
v -0.086608 0.004975 0.034167
v -0.086608 0.007048 0.031898
v -0.086608 0.007697 0.031060
v -0.086608 0.005659 0.033435
v -0.086608 0.006394 0.032630
v -0.085143 0.008363 0.030244
v -0.085143 0.008887 0.029509
v -0.085143 0.010111 0.027720
v -0.085143 0.009618 0.028453
v -0.085143 0.010816 0.026661
v -0.085143 0.011331 0.025880
v -0.085143 0.011747 0.025148
v -0.085143 0.012482 0.023773
v -0.085143 0.012846 0.023041
v -0.085126 0.013521 0.021657
v -0.084391 0.012824 0.022997
v -0.083676 -0.013803 0.046366
v -0.085143 -0.012829 0.046085
v -0.085143 -0.011362 0.045486
v -0.085143 -0.010411 0.045083
v -0.085143 -0.009675 0.044745
v -0.085143 -0.007460 0.043638
v -0.085143 -0.006729 0.043257
v -0.085143 -0.008788 0.044310
v -0.085143 -0.008433 0.044132
v -0.085143 -0.005500 0.042562
v -0.086240 -0.004721 0.042081
v -0.086682 -0.005366 0.042438
v -0.086682 -0.004150 0.041671
v -0.086608 -0.002899 0.040855
v -0.086608 -0.002168 0.040352
v -0.078586 0.012802 0.021657
v -0.079279 0.012893 0.021668
v -0.079279 0.012534 0.022400
v -0.079134 0.011751 0.023873
v -0.067518 0.011041 0.022165
v -0.066834 0.010920 0.022211
v -0.066834 -0.015650 0.044810
v -0.067555 -0.015460 0.044843
v -0.069739 -0.015023 0.044986
v -0.082211 -0.014049 0.046280
v -0.085143 0.000363 0.038466
v -0.085143 0.001224 0.037763
v -0.085143 0.001955 0.037091
v -0.085143 0.002747 0.036358
v -0.085143 0.003478 0.035675
v -0.085143 0.004257 0.034945
v -0.085143 -0.000416 0.039085
v -0.085143 -0.002173 0.040341
v -0.085143 0.004988 0.034192
v -0.085143 0.005681 0.033459
v -0.085143 0.007048 0.031900
v -0.085143 0.007718 0.031060
v -0.085143 0.006412 0.032632
v -0.083676 0.008298 0.030158
v -0.083676 0.008830 0.029428
v -0.084054 0.007004 0.031852
v -0.083676 0.010695 0.026661
v -0.083676 0.009562 0.028363
v -0.083676 0.011271 0.025788
v -0.083676 0.011699 0.025054
v -0.083813 0.012482 0.023584
v -0.083752 0.013417 0.021657
v -0.082211 -0.012829 0.045807
v -0.083676 -0.012829 0.045980
v -0.083676 -0.011362 0.045378
v -0.083676 -0.010523 0.045029
v -0.083676 -0.009792 0.044697
v -0.083676 -0.008788 0.044208
v -0.084099 -0.008788 0.044237
v -0.083676 -0.008433 0.044032
v -0.083676 -0.007568 0.043586
v -0.083676 -0.006832 0.043203
v -0.083716 -0.005387 0.042397
v -0.084231 -0.004738 0.042070
v -0.085143 -0.004708 0.042089
v -0.085143 -0.003972 0.041598
v -0.085143 -0.002908 0.040863
v -0.079229 0.012889 0.021657
v -0.082211 0.013248 0.021657
v -0.082211 0.013071 0.022030
v -0.082211 0.012711 0.022765
v -0.082211 0.012231 0.023727
v -0.080744 0.012045 0.023727
v -0.079527 0.011426 0.024578
v -0.078550 0.011357 0.024459
v -0.066834 0.010159 0.023619
v -0.066834 -0.014889 0.044553
v -0.066834 -0.014296 0.044351
v -0.071952 -0.013876 0.044872
v -0.073005 -0.013682 0.044940
v -0.073983 -0.013509 0.045005
v -0.083676 0.001146 0.037699
v -0.083676 0.000363 0.038331
v -0.083676 0.001882 0.037020
v -0.083676 0.003400 0.035605
v -0.083676 0.004183 0.034872
v -0.083676 0.004919 0.034127
v -0.083676 -0.000507 0.039017
v -0.083676 -0.003003 0.040798
v -0.083676 0.005616 0.033392
v -0.082211 0.008731 0.029277
v -0.083609 0.007472 0.031192
v -0.083077 0.006940 0.031768
v -0.082211 0.006875 0.031684
v -0.066834 0.005520 0.030357
v -0.067555 0.006217 0.029593
v -0.068442 0.006935 0.028828
v -0.082211 0.009466 0.028228
v -0.083609 0.006464 0.032414
v -0.082211 0.009960 0.027493
v -0.082211 0.010513 0.026661
v -0.082211 0.011612 0.024902
v -0.082211 0.011180 0.025634
v -0.083413 0.012776 0.022900
v -0.080744 -0.011691 0.045151
v -0.082896 -0.010614 0.044989
v -0.080744 -0.012829 0.045615
v -0.082285 -0.008788 0.044037
v -0.082329 -0.010034 0.044648
v -0.082270 -0.008338 0.043813
v -0.082798 -0.007659 0.043538
v -0.082270 -0.007092 0.043165
v -0.082211 -0.005673 0.042376
v -0.083254 -0.004825 0.042016
v -0.083716 -0.004163 0.041614
v -0.068268 0.009895 0.024467
v -0.067291 0.009826 0.024343
v -0.066834 0.009791 0.024283
v -0.066834 -0.013660 0.044105
v -0.066834 -0.012838 0.043786
v -0.069020 -0.012829 0.044073
v -0.070487 -0.012829 0.044267
v -0.082943 0.001098 0.037650
v -0.082356 0.000454 0.038080
v -0.082529 0.004101 0.034791
v -0.082634 0.005546 0.033311
v -0.082211 -0.002406 0.040174
v -0.082211 -0.000650 0.038920
v -0.082211 -0.003142 0.040698
v -0.073419 0.008052 0.028366
v -0.073419 0.008597 0.027634
v -0.082171 0.006044 0.032651
v -0.076351 0.005681 0.032008
v -0.074884 0.005564 0.031873
v -0.074098 0.005499 0.031803
v -0.073121 0.005421 0.031706
v -0.066834 0.004949 0.031038
v -0.066834 0.006061 0.029644
v -0.066834 0.006810 0.028655
v -0.067555 0.006866 0.028734
v -0.077812 0.009652 0.027037
v -0.077812 0.010137 0.026302
v -0.072398 -0.010549 0.043556
v -0.067900 -0.011977 0.043570
v -0.080744 -0.009896 0.044372
v -0.080744 -0.008788 0.043835
v -0.080744 -0.008663 0.043773
v -0.079803 -0.008788 0.043710
v -0.072400 -0.007624 0.042092
v -0.079088 -0.008788 0.043613
v -0.066893 -0.008788 0.041941
v -0.077238 -0.006274 0.042030
v -0.078211 -0.006153 0.042097
v -0.082211 -0.004942 0.041943
v -0.082211 -0.004037 0.041325
v -0.070487 0.009601 0.025462
v -0.066834 0.009276 0.025126
v -0.066834 -0.012046 0.043456
v -0.073449 0.001947 0.035278
v -0.080744 0.003210 0.035324
v -0.080744 0.000160 0.038074
v -0.076351 -0.000256 0.037742
v -0.075471 -0.000342 0.037674
v -0.066834 -0.000299 0.036250
v -0.081551 0.004015 0.034708
v -0.072835 0.004002 0.033227
v -0.073812 0.004084 0.033313
v -0.066834 0.001224 0.034840
v -0.069020 0.002154 0.034337
v -0.080744 0.005391 0.033140
v -0.068129 -0.001805 0.037674
v -0.071952 0.008484 0.027474
v -0.066834 0.008601 0.026172
v -0.076351 0.005027 0.032743
v -0.067555 0.004231 0.032016
v -0.066834 0.004170 0.031952
v -0.066834 0.007074 0.028296
v -0.071217 0.008428 0.027393
v -0.071421 -0.010696 0.043489
v -0.066834 -0.009848 0.042465
v -0.076074 -0.009290 0.043454
v -0.074884 -0.010194 0.043724
v -0.066834 -0.011401 0.043178
v -0.077051 -0.009156 0.043521
v -0.066834 -0.008788 0.041933
v -0.069020 -0.008070 0.041857
v -0.066834 -0.006967 0.040941
v -0.066834 -0.009091 0.042089
v -0.066973 -0.006270 0.040563
v -0.074058 -0.004747 0.040598
v -0.077812 -0.004345 0.040882
v -0.066834 -0.001104 0.036907
v -0.066834 -0.000559 0.036464
v -0.067606 -0.001229 0.037131
v -0.066834 0.002340 0.033792
v -0.066834 0.002734 0.033419
v -0.069020 0.003660 0.032884
v -0.066834 0.003816 0.032324
v -0.066834 -0.001943 0.037574
v -0.066834 -0.008412 0.041730
v -0.067555 -0.008265 0.041754
v -0.066834 -0.007702 0.041344
v -0.066834 -0.006287 0.040552
v -0.066834 -0.006149 0.040460
v -0.066834 0.003465 0.032684
f 44 20 47
f 56 78 51
f 128 154 110
f 110 94 128
f 94 127 128
f 95 94 66
f 95 127 94
f 196 162 161
f 407 381 366
f 366 381 341
f 126 96 93
f 102 71 100
f 2 10 3
f 12 2 11
f 25 26 11
f 27 26 25
f 7 17 11
f 11 2 7
f 11 17 24
f 24 25 11
f 125 126 92
f 92 126 93
f 76 77 50
f 50 75 76
f 107 77 76
f 42 27 50
f 43 18 42
f 50 27 49
f 49 75 50
f 27 25 49
f 48 75 49
f 49 25 48
f 67 95 66
f 66 44 67
f 67 44 47
f 393 425 394
f 327 326 368
f 325 275 324
f 383 425 393
f 340 335 289
f 368 326 355
f 355 394 368
f 88 87 117
f 115 87 112
f 162 196 197
f 195 196 161
f 232 196 195
f 88 117 118
f 379 380 340
f 340 341 379
f 379 341 381
f 364 405 365
f 365 314 364
f 134 100 101
f 10 2 9
f 11 26 23
f 23 12 11
f 23 26 27
f 27 12 23
f 2 12 8
f 22 9 8
f 8 9 2
f 8 21 22
f 8 12 18
f 20 21 8
f 28 12 27
f 18 12 28
f 27 42 28
f 28 42 18
f 1 2 3
f 1 7 2
f 73 76 74
f 74 76 75
f 48 73 74
f 74 75 48
f 107 76 106
f 106 76 73
f 106 149 107
f 65 92 93
f 4 1 3
f 257 256 215
f 304 256 257
f 324 275 323
f 275 274 323
f 321 274 320
f 368 394 408
f 408 394 425
f 326 327 276
f 276 325 326
f 276 327 277
f 275 325 276
f 368 408 409
f 409 408 425
f 277 327 278
f 283 289 335
f 290 341 340
f 340 289 290
f 272 290 238
f 238 290 289
f 236 235 284
f 198 235 236
f 139 178 179
f 177 178 140
f 342 291 339
f 339 291 288
f 388 428 389
f 205 177 204
f 205 206 177
f 354 355 326
f 354 325 324
f 326 325 354
f 393 394 353
f 394 355 353
f 79 54 53
f 52 29 51
f 53 29 52
f 13 29 30
f 30 29 53
f 53 54 30
f 51 29 36
f 36 56 51
f 13 35 36
f 36 29 13
f 17 7 16
f 113 112 87
f 59 81 85
f 87 114 84
f 84 113 87
f 111 112 84
f 112 113 84
f 84 85 81
f 60 87 88
f 162 197 164
f 164 180 165
f 164 197 180
f 181 197 217
f 180 197 181
f 144 180 181
f 159 193 194
f 194 160 159
f 161 160 194
f 193 195 194
f 194 195 161
f 157 191 192
f 161 162 120
f 120 160 161
f 451 442 456
f 271 318 272
f 167 126 125
f 125 153 167
f 186 187 150
f 188 153 152
f 233 196 232
f 217 197 233
f 233 197 196
f 330 371 333
f 333 371 372
f 70 100 71
f 70 101 100
f 132 101 99
f 101 70 99
f 204 177 176
f 176 173 204
f 20 8 19
f 19 8 18
f 19 18 43
f 17 16 40
f 40 16 39
f 143 180 144
f 104 143 144
f 111 84 83
f 38 16 37
f 39 16 38
f 59 60 38
f 64 65 43
f 43 42 64
f 50 77 64
f 64 42 50
f 77 92 64
f 92 65 64
f 7 1 6
f 6 16 7
f 13 15 6
f 179 215 216
f 216 215 256
f 322 274 321
f 322 323 274
f 321 304 322
f 322 304 356
f 356 323 322
f 228 274 275
f 277 278 228
f 275 276 228
f 228 276 277
f 369 409 370
f 368 409 369
f 369 327 368
f 247 298 296
f 296 297 247
f 296 345 346
f 350 383 393
f 430 429 425
f 289 283 239
f 239 238 289
f 198 238 239
f 376 335 340
f 340 380 376
f 288 291 241
f 138 139 102
f 178 139 138
f 102 140 138
f 138 140 178
f 137 140 134
f 177 140 137
f 137 176 177
f 134 101 137
f 135 100 134
f 134 140 135
f 102 100 135
f 135 140 102
f 428 418 450
f 419 418 422
f 294 298 247
f 294 293 298
f 293 294 243
f 243 294 247
f 324 323 303
f 303 323 356
f 303 304 257
f 356 304 303
f 355 354 301
f 301 353 355
f 13 30 31
f 86 60 59
f 59 85 86
f 86 114 87
f 87 60 86
f 61 60 88
f 39 38 61
f 61 38 60
f 144 181 145
f 145 104 144
f 146 104 145
f 195 230 231
f 232 195 231
f 231 233 232
f 230 233 231
f 156 155 191
f 156 191 157
f 157 118 156
f 116 118 117
f 116 156 118
f 155 156 116
f 116 87 115
f 116 117 87
f 162 164 163
f 163 120 162
f 159 160 119
f 160 120 119
f 119 118 157
f 88 118 119
f 119 120 88
f 455 456 441
f 441 456 442
f 441 439 455
f 442 443 406
f 406 441 442
f 406 407 366
f 406 443 407
f 405 441 406
f 366 365 406
f 406 365 405
f 366 341 367
f 367 316 366
f 341 316 367
f 318 316 319
f 272 318 319
f 319 290 272
f 341 290 319
f 319 316 341
f 366 316 315
f 315 365 366
f 314 365 315
f 188 187 226
f 226 238 198
f 272 238 226
f 186 222 223
f 223 224 186
f 223 266 263
f 264 223 263
f 224 223 264
f 263 313 264
f 264 313 314
f 314 315 264
f 264 315 316
f 317 316 318
f 126 167 168
f 149 106 148
f 107 149 148
f 107 148 108
f 108 148 150
f 108 153 125
f 108 152 153
f 108 77 107
f 182 181 217
f 217 218 182
f 182 218 184
f 182 145 181
f 105 106 73
f 105 146 106
f 73 104 105
f 105 104 146
f 106 146 147
f 186 150 147
f 147 148 106
f 150 148 147
f 185 146 184
f 185 147 146
f 186 147 185
f 220 221 185
f 185 222 186
f 185 221 222
f 404 401 439
f 404 441 405
f 439 441 404
f 404 405 364
f 364 401 404
f 403 440 437
f 437 401 403
f 282 330 331
f 281 233 230
f 282 233 281
f 281 330 282
f 333 372 373
f 46 71 47
f 46 70 71
f 47 20 46
f 20 45 46
f 199 201 170
f 199 241 201
f 172 173 132
f 204 173 172
f 189 153 188
f 165 180 166
f 166 123 165
f 180 143 166
f 165 123 122
f 120 163 122
f 122 164 165
f 122 163 164
f 143 104 142
f 123 166 142
f 142 166 143
f 72 73 48
f 82 83 57
f 57 79 82
f 54 79 57
f 57 83 84
f 57 38 37
f 34 35 13
f 13 33 34
f 13 4 14
f 14 33 13
f 1 4 5
f 5 6 1
f 5 4 13
f 13 6 5
f 213 215 179
f 179 178 213
f 178 212 213
f 254 213 212
f 254 303 257
f 273 320 274
f 274 228 273
f 190 228 229
f 229 228 278
f 328 369 370
f 328 278 327
f 327 369 328
f 385 345 384
f 385 386 346
f 346 345 385
f 351 298 342
f 351 345 298
f 298 345 344
f 344 296 298
f 345 296 344
f 347 296 346
f 347 388 389
f 297 296 343
f 383 350 343
f 343 350 297
f 383 343 382
f 425 383 424
f 424 430 425
f 234 239 283
f 284 235 234
f 234 283 284
f 234 235 198
f 198 239 234
f 451 444 423
f 423 414 380
f 380 379 423
f 423 379 381
f 381 407 423
f 407 443 423
f 423 442 451
f 423 443 442
f 380 414 413
f 413 376 380
f 335 376 375
f 375 413 414
f 376 413 375
f 237 287 288
f 237 236 284
f 198 236 237
f 237 199 198
f 242 245 204
f 201 241 203
f 204 172 203
f 203 172 201
f 203 242 204
f 241 242 203
f 136 101 132
f 136 137 101
f 176 137 136
f 173 176 136
f 457 450 449
f 449 450 418
f 449 448 457
f 418 448 449
f 428 388 387
f 346 386 387
f 387 347 346
f 388 347 387
f 426 422 418
f 426 387 422
f 204 245 246
f 246 243 204
f 247 205 244
f 244 243 247
f 244 205 204
f 204 243 244
f 208 209 177
f 353 301 299
f 37 15 32
f 32 15 13
f 13 31 32
f 89 61 88
f 88 120 89
f 120 122 89
f 89 123 121
f 89 122 123
f 62 40 39
f 39 61 62
f 158 192 159
f 159 119 158
f 157 192 158
f 158 119 157
f 225 271 272
f 272 226 225
f 186 224 225
f 225 187 186
f 225 226 187
f 267 264 316
f 316 317 267
f 224 264 267
f 96 126 129
f 126 168 129
f 130 168 167
f 130 129 168
f 96 129 130
f 152 108 151
f 151 187 188
f 188 152 151
f 151 150 187
f 151 108 150
f 125 92 109
f 109 108 125
f 109 92 77
f 77 108 109
f 183 182 184
f 145 182 183
f 184 146 183
f 146 145 183
f 258 218 217
f 220 185 219
f 219 185 184
f 184 218 219
f 452 453 437
f 438 401 437
f 437 453 438
f 439 401 438
f 333 282 332
f 282 331 332
f 332 330 333
f 332 331 330
f 330 281 329
f 69 99 70
f 70 46 69
f 169 199 170
f 170 130 169
f 198 199 169
f 170 201 175
f 201 172 175
f 175 172 132
f 188 226 227
f 227 189 188
f 227 226 198
f 202 189 227
f 63 72 48
f 91 72 63
f 40 62 63
f 63 62 91
f 104 91 124
f 124 91 121
f 103 104 73
f 73 72 103
f 103 91 104
f 103 72 91
f 55 57 37
f 54 57 55
f 55 30 54
f 55 31 30
f 37 32 55
f 55 32 31
f 80 84 81
f 81 57 80
f 80 57 84
f 58 57 81
f 38 57 58
f 58 81 59
f 59 38 58
f 257 215 255
f 255 254 257
f 215 213 255
f 213 254 255
f 303 254 302
f 302 301 354
f 302 354 324
f 324 303 302
f 210 178 177
f 177 209 210
f 378 385 384
f 386 385 378
f 378 351 342
f 342 339 378
f 378 387 386
f 422 387 378
f 384 345 378
f 345 351 378
f 419 422 378
f 383 382 349
f 349 343 296
f 349 382 343
f 414 423 415
f 444 445 415
f 415 445 416
f 416 375 415
f 415 375 414
f 287 237 286
f 419 378 377
f 377 378 339
f 377 418 419
f 288 241 240
f 240 237 288
f 241 199 240
f 199 237 240
f 132 173 174
f 174 136 132
f 173 136 174
f 428 387 427
f 387 426 427
f 427 418 428
f 427 426 418
f 243 246 292
f 292 291 342
f 292 246 245
f 245 242 292
f 292 241 291
f 292 242 241
f 247 297 248
f 251 209 249
f 209 208 249
f 249 299 251
f 353 299 352
f 393 353 352
f 352 350 393
f 90 62 61
f 90 89 121
f 61 89 90
f 121 91 90
f 91 62 90
f 318 271 268
f 268 317 318
f 224 267 268
f 268 267 317
f 131 130 170
f 131 97 96
f 96 130 131
f 306 260 259
f 218 258 259
f 259 258 306
f 259 219 218
f 259 260 220
f 220 219 259
f 266 223 265
f 333 373 374
f 305 358 306
f 305 282 333
f 305 258 282
f 306 258 305
f 453 452 454
f 439 438 454
f 454 438 453
f 279 329 280
f 280 329 281
f 280 230 279
f 280 281 230
f 99 69 98
f 98 69 97
f 97 131 98
f 132 99 98
f 68 69 46
f 96 97 68
f 97 69 68
f 171 169 130
f 153 189 171
f 171 189 202
f 171 167 153
f 171 130 167
f 198 169 200
f 200 227 198
f 202 227 200
f 200 171 202
f 169 171 200
f 41 63 48
f 48 25 41
f 25 24 41
f 41 24 17
f 17 40 41
f 40 63 41
f 141 142 104
f 104 124 141
f 141 124 121
f 121 123 141
f 123 142 141
f 211 254 212
f 211 212 178
f 252 209 251
f 252 210 209
f 301 302 252
f 251 299 252
f 252 299 301
f 446 423 444
f 444 415 446
f 446 415 423
f 285 237 284
f 285 286 237
f 338 339 288
f 338 377 339
f 288 287 338
f 417 448 418
f 418 377 417
f 342 298 295
f 295 292 342
f 298 293 295
f 293 243 295
f 243 292 295
f 206 248 207
f 207 248 208
f 177 206 207
f 207 208 177
f 208 248 250
f 250 249 208
f 250 248 297
f 271 225 270
f 270 268 271
f 225 268 270
f 269 225 224
f 224 268 269
f 269 268 225
f 133 175 132
f 132 98 133
f 133 98 131
f 170 175 133
f 133 131 170
f 396 395 358
f 358 374 396
f 410 435 396
f 396 374 373
f 396 372 410
f 396 373 372
f 333 374 357
f 357 374 358
f 358 305 357
f 306 358 307
f 358 308 307
f 307 260 306
f 307 308 260
f 260 308 261
f 261 221 220
f 220 260 261
f 254 211 253
f 210 252 253
f 253 302 254
f 253 252 302
f 296 347 348
f 348 349 296
f 375 377 337
f 377 338 337
f 287 286 337
f 337 338 287
f 300 250 297
f 297 350 300
f 299 249 300
f 249 250 300
f 350 352 300
f 300 352 299
f 395 396 431
f 431 396 435
f 431 435 432
f 432 395 431
f 433 395 432
f 363 401 364
f 363 403 401
f 364 314 363
f 314 313 363
f 359 305 333
f 333 357 359
f 359 357 305
f 262 311 265
f 221 261 262
f 222 221 262
f 262 223 222
f 262 265 223
f 210 253 214
f 214 253 211
f 178 210 214
f 214 211 178
f 390 348 347
f 391 348 390
f 349 348 392
f 392 348 391
f 392 424 383
f 383 349 392
f 430 424 392
f 392 391 429
f 429 430 392
f 334 285 284
f 335 375 334
f 284 283 334
f 334 283 335
f 421 417 377
f 377 420 421
f 416 420 411
f 411 375 416
f 411 420 377
f 432 440 436
f 436 433 432
f 375 337 336
f 336 334 375
f 336 337 286
f 286 285 336
f 285 334 336
f 447 421 420
f 448 417 447
f 417 421 447
f 412 377 375
f 375 411 412
f 412 411 377
f 402 436 440
f 400 436 402
f 402 363 400
f 440 403 402
f 403 363 402
f 358 395 361
f 400 363 362
f 397 436 400
f 360 361 397
f 433 436 397
f 397 361 395
f 309 361 360
f 309 308 358
f 358 361 309
f 309 261 308
f 309 262 261
f 398 362 360
f 398 397 400
f 360 397 398
f 395 433 434
f 434 397 395
f 433 397 434
f 312 313 263
f 312 363 313
f 263 266 312
f 312 362 363
f 266 265 312
f 265 311 312
f 400 362 399
f 399 398 400
f 362 398 399
f 310 312 311
f 311 262 310
f 262 309 310
f 310 309 360
f 360 362 310
f 362 312 310
f 43 45 19
f 19 45 20
f 37 16 6
f 6 15 37
f 85 84 86
f 86 84 114
f 66 94 14
f 22 21 14
f 14 44 66
f 3 10 14
f 110 78 14
f 14 94 110
f 20 44 14
f 78 56 14
f 14 9 22
f 14 21 20
f 14 4 3
f 10 9 14
f 56 36 14
f 14 36 35
f 35 34 14
f 14 34 33
f 190 154 273
f 154 128 273
f 179 216 273
f 273 67 47
f 47 71 273
f 273 304 321
f 273 71 102
f 273 128 127
f 127 95 273
f 95 67 273
f 273 139 179
f 256 304 273
f 321 320 273
f 102 139 273
f 273 216 256
f 273 228 190
f 258 233 282
f 217 233 258
f 206 205 248
f 248 205 247
f 43 65 68
f 68 45 43
f 93 96 68
f 68 65 93
f 68 46 45
f 447 154 190
f 447 83 82
f 447 78 110
f 447 409 425
f 51 78 447
f 110 154 447
f 416 445 447
f 389 428 447
f 159 192 447
f 451 456 447
f 82 79 447
f 447 52 51
f 279 230 447
f 115 112 447
f 447 116 115
f 447 444 451
f 447 328 370
f 410 372 447
f 447 193 159
f 429 391 447
f 437 440 447
f 447 450 457
f 447 112 111
f 447 195 193
f 457 448 447
f 455 439 447
f 447 452 437
f 447 440 432
f 370 409 447
f 190 229 447
f 425 429 447
f 447 79 53
f 53 52 447
f 447 230 195
f 191 155 447
f 447 192 191
f 447 456 455
f 371 330 447
f 447 372 371
f 111 83 447
f 447 347 389
f 428 450 447
f 447 435 410
f 155 116 447
f 447 229 278
f 278 328 447
f 439 454 447
f 447 445 444
f 447 329 279
f 330 329 447
f 447 454 452
f 447 420 416
f 432 435 447
f 447 390 347
f 391 390 447
