v -0.074121 0.053267 0.024602
v -0.074121 0.047449 0.024602
v -0.074121 0.053494 0.024104
v -0.074389 0.053328 0.024602
v -0.074121 0.047863 0.023776
v -0.078448 0.046117 0.024602
v -0.076411 0.047040 -0.025322
v -0.075714 0.048370 -0.025322
v -0.075476 0.050286 -0.025322
v -0.074121 0.053598 0.023860
v -0.075038 0.055053 0.020923
v -0.076039 0.053953 0.023703
v -0.076039 0.053546 0.024602
v -0.074121 0.048848 0.022042
v -0.089424 0.046117 0.024602
v -0.078960 0.046117 -0.000321
v -0.089891 0.047040 -0.025322
v -0.076146 0.052270 -0.025322
v -0.075679 0.052184 -0.023729
v -0.075485 0.052184 -0.021828
v -0.074121 0.053962 0.020009
v -0.074121 0.053919 0.019979
v -0.074121 0.052735 0.019349
v -0.074121 0.052181 0.019378
v -0.074121 0.050684 0.020146
v -0.074121 0.049732 0.021098
v -0.074121 0.053878 0.022936
v -0.076039 0.055089 0.021020
v -0.076039 0.054696 0.021963
v -0.074121 0.054176 0.021670
v -0.076298 0.057502 0.010421
v -0.076435 0.057320 0.012317
v -0.076697 0.057103 0.014218
v -0.076828 0.057016 0.014926
v -0.076902 0.056967 0.015317
v -0.077936 0.056206 0.018010
v -0.077936 0.054046 0.023703
v -0.077936 0.053632 0.024602
v -0.102591 0.048043 0.024602
v -0.102594 0.047677 -0.025322
v -0.089132 0.046117 -0.000321
v -0.101057 0.047600 -0.025322
v -0.076491 0.052794 -0.025322
v -0.076444 0.053579 -0.023729
v -0.075854 0.054078 -0.019932
v -0.075556 0.054078 -0.018035
v -0.075470 0.054078 -0.016134
v -0.075539 0.055976 -0.010446
v -0.075479 0.055976 -0.008550
v -0.077936 0.055546 0.019906
v -0.077936 0.055112 0.021084
v -0.077936 0.054744 0.022032
v -0.076054 0.057873 0.000940
v -0.076122 0.057873 0.002836
v -0.076813 0.058913 0.000940
v -0.076884 0.058873 0.002836
v -0.076941 0.058842 0.004053
v -0.076039 0.057874 -0.000961
v -0.077933 0.058080 0.010421
v -0.077936 0.056989 0.015400
v -0.077936 0.056719 0.016348
v -0.077933 0.057718 0.012317
v -0.077933 0.057281 0.014218
v -0.077933 0.057107 0.014926
v -0.079835 0.056206 0.018010
v -0.083629 0.055551 0.019906
v -0.079835 0.055549 0.019906
v -0.081732 0.054746 0.022042
v -0.087423 0.054746 0.022056
v -0.081732 0.054046 0.023703
v -0.079112 0.053633 0.024602
v -0.103097 0.048226 0.024602
v -0.102716 0.047699 -0.025322
v -0.077936 0.053302 -0.025322
v -0.076736 0.053289 -0.025009
v -0.076884 0.055082 -0.021021
v -0.076616 0.055285 -0.019932
v -0.076322 0.055606 -0.018035
v -0.075941 0.055976 -0.014238
v -0.075679 0.055976 -0.012347
v -0.076301 0.057502 -0.010446
v -0.076241 0.057653 -0.008550
v -0.076101 0.057874 -0.002857
v -0.087423 0.055124 0.021113
v -0.076792 0.058924 -0.000961
v -0.076798 0.058920 -0.000325
v -0.077933 0.059018 -0.000321
v -0.077933 0.059002 0.000940
v -0.077936 0.059025 -0.000961
v -0.077933 0.058925 0.002836
v -0.077933 0.058853 0.004180
v -0.077933 0.058774 0.005128
v -0.077933 0.058603 0.006629
v -0.077933 0.058355 0.008525
v -0.100697 0.058347 0.008525
v -0.089319 0.058071 0.010421
v -0.089319 0.057724 0.012317
v -0.089319 0.057284 0.014218
v -0.089319 0.057106 0.014926
v -0.089322 0.056987 0.015396
v -0.087423 0.056719 0.016344
v -0.079835 0.056719 0.016348
v -0.081732 0.056205 0.018010
v -0.087423 0.055551 0.019906
v -0.100697 0.054745 0.022007
v -0.098797 0.054037 0.023703
v -0.084796 0.053632 0.024602
v -0.081006 0.053633 0.024602
v -0.103940 0.048677 0.024602
v -0.103996 0.048452 -0.025322
v -0.100700 0.053302 -0.025322
v -0.077936 0.053370 -0.025175
v -0.077936 0.054027 -0.023729
v -0.077936 0.055112 -0.021095
v -0.077936 0.055541 -0.019932
v -0.077936 0.056183 -0.018035
v -0.076908 0.056964 -0.015323
v -0.077936 0.054735 -0.022043
v -0.076706 0.057095 -0.014238
v -0.076441 0.057315 -0.012347
v -0.076935 0.058847 -0.004093
v -0.076858 0.058887 -0.002857
v -0.076220 0.057774 -0.006649
v -0.100697 0.055515 0.019906
v -0.100697 0.055100 0.021064
v -0.098797 0.059019 0.000940
v -0.077936 0.058952 -0.002857
v -0.079829 0.058953 -0.002857
v -0.100700 0.059025 -0.000961
v -0.097538 0.059024 -0.000325
v -0.083626 0.058928 0.002836
v -0.085523 0.058928 0.002836
v -0.085523 0.058857 0.004107
v -0.079832 0.058602 0.006629
v -0.079832 0.058774 0.005109
v -0.100697 0.058546 0.006629
v -0.102597 0.058494 0.006629
v -0.102597 0.058259 0.008525
v -0.100697 0.058060 0.010421
v -0.096901 0.057711 0.012317
v -0.096901 0.057264 0.014218
v -0.100697 0.056714 0.016256
v -0.089322 0.056718 0.016339
v -0.087423 0.056198 0.018010
v -0.100697 0.056178 0.018010
v -0.102591 0.054693 0.021929
v -0.100697 0.054026 0.023703
v -0.102591 0.055071 0.020981
v -0.098797 0.053624 0.024602
v -0.104440 0.050287 0.024602
v -0.104086 0.048692 -0.025322
v -0.102204 0.053250 -0.025322
v -0.102594 0.053337 -0.025107
v -0.100700 0.053370 -0.025175
v -0.079829 0.054029 -0.023729
v -0.100700 0.055112 -0.021095
v -0.079829 0.054736 -0.022043
v -0.100700 0.055541 -0.019932
v -0.079829 0.056184 -0.018035
v -0.077936 0.056703 -0.016340
v -0.077936 0.056984 -0.015392
v -0.077936 0.057266 -0.014238
v -0.077936 0.057710 -0.012347
v -0.077936 0.058081 -0.010446
v -0.077936 0.058384 -0.008550
v -0.077936 0.058631 -0.006649
v -0.077936 0.058774 -0.005183
v -0.077936 0.058860 -0.004235
v -0.100697 0.059019 0.000940
v -0.100700 0.058953 -0.002857
v -0.102594 0.058970 -0.000961
v -0.100700 0.059024 -0.000325
v -0.087423 0.058853 0.004053
v -0.100697 0.058909 0.002695
v -0.102597 0.058880 0.002519
v -0.103574 0.058842 0.002181
v -0.103713 0.057069 0.013846
v -0.102597 0.057967 0.010421
v -0.102597 0.057622 0.012317
v -0.100697 0.057700 0.012317
v -0.100697 0.057245 0.014218
v -0.101626 0.057042 0.014926
v -0.102058 0.056946 0.015259
v -0.102591 0.056085 0.018010
v -0.102591 0.055446 0.019906
v -0.102591 0.053938 0.023703
v -0.103556 0.055036 0.020888
v -0.101939 0.053565 0.024602
v -0.100697 0.053612 0.024602
v -0.104190 0.052211 0.024602
v -0.104363 0.052181 0.023703
v -0.104517 0.052181 0.021807
v -0.104494 0.050286 -0.025322
v -0.102594 0.053232 -0.025322
v -0.103678 0.053246 -0.024921
v -0.103568 0.055045 -0.020924
v -0.102594 0.053948 -0.023729
v -0.100700 0.054029 -0.023729
v -0.102594 0.055081 -0.021021
v -0.100700 0.054736 -0.022043
v -0.102594 0.055474 -0.019932
v -0.100700 0.056184 -0.018035
v -0.079829 0.056704 -0.016340
v -0.100700 0.056984 -0.015392
v -0.100700 0.057266 -0.014238
v -0.100700 0.057710 -0.012347
v -0.079829 0.058082 -0.010446
v -0.079829 0.058388 -0.008550
v -0.079829 0.058636 -0.006649
v -0.079829 0.058777 -0.005183
v -0.100700 0.058860 -0.004235
v -0.102597 0.058962 0.000940
v -0.102079 0.058847 -0.004093
v -0.102665 0.058890 -0.002925
v -0.103577 0.058847 -0.002339
v -0.103606 0.058867 -0.000961
v -0.103606 0.058867 -0.000321
v -0.103603 0.058865 0.000940
v -0.102597 0.058967 -0.000321
v -0.104041 0.057660 0.006629
v -0.104032 0.057538 0.008525
v -0.103984 0.057400 0.010421
v -0.103874 0.057236 0.012317
v -0.103320 0.056900 0.015107
v -0.103958 0.055508 0.018010
v -0.103725 0.055203 0.019906
v -0.103151 0.056960 0.014926
v -0.102653 0.057138 0.014374
v -0.102281 0.057020 0.014926
v -0.102647 0.056696 0.015982
v -0.103404 0.053404 0.024602
v -0.102591 0.053533 0.024602
v -0.103865 0.053490 0.023703
v -0.103710 0.053296 0.024602
v -0.104223 0.054077 0.019906
v -0.104458 0.054077 0.018010
v -0.104526 0.054077 0.016114
v -0.104538 0.055975 0.006629
v -0.104541 0.055976 -0.006649
v -0.104523 0.052184 -0.021828
v -0.104494 0.050593 -0.025322
v -0.103300 0.053111 -0.025322
v -0.103883 0.052644 -0.025322
v -0.103880 0.053498 -0.023729
v -0.103743 0.055215 -0.019932
v -0.103547 0.056926 -0.015191
v -0.102594 0.054688 -0.021969
v -0.102594 0.056091 -0.018035
v -0.102594 0.056955 -0.015294
v -0.100700 0.056704 -0.016340
v -0.102594 0.057207 -0.014238
v -0.102594 0.057635 -0.012347
v -0.100700 0.058082 -0.010446
v -0.100700 0.058388 -0.008550
v -0.100700 0.058636 -0.006649
v -0.100700 0.058777 -0.005183
v -0.102594 0.058523 -0.006649
v -0.102665 0.058729 -0.004738
v -0.103347 0.058801 -0.003600
v -0.103880 0.057242 -0.012347
v -0.103987 0.057410 -0.010446
v -0.104032 0.057547 -0.008550
v -0.104041 0.057667 -0.006649
v -0.103961 0.058051 -0.002925
v -0.104101 0.057874 -0.000961
v -0.104098 0.057873 0.000940
v -0.104101 0.057874 -0.000325
v -0.104532 0.055975 0.008525
v -0.104482 0.055975 0.010421
v -0.104372 0.055975 0.012317
v -0.104532 0.055976 -0.008550
v -0.104529 0.054078 -0.016134
v -0.104467 0.054078 -0.018035
v -0.104377 0.052184 -0.023729
v -0.104068 0.052237 -0.025322
v -0.103996 0.052422 -0.025322
v -0.104241 0.054078 -0.019932
v -0.103967 0.055512 -0.018035
v -0.103675 0.057036 -0.014238
v -0.102594 0.057989 -0.010446
v -0.102594 0.058280 -0.008550
v -0.104377 0.055976 -0.012347
v -0.104485 0.055976 -0.010446
v -0.104041 0.057780 -0.004753
f 6 7 2
f 8 2 7
f 16 7 6
f 9 5 2
f 2 8 9
f 271 272 239
f 271 283 272
f 21 9 20
f 265 263 271
f 265 271 239
f 122 82 121
f 121 89 122
f 89 85 122
f 31 30 57
f 57 32 31
f 24 9 23
f 9 18 19
f 20 9 19
f 19 46 20
f 44 19 18
f 25 9 24
f 25 26 9
f 5 9 14
f 9 26 14
f 208 209 165
f 48 58 49
f 49 58 30
f 30 21 49
f 49 21 48
f 48 82 83
f 83 58 48
f 85 58 83
f 83 122 85
f 48 21 47
f 47 46 48
f 47 21 20
f 20 46 47
f 81 82 48
f 121 82 81
f 81 120 121
f 48 46 80
f 80 81 48
f 120 81 80
f 236 269 237
f 268 238 237
f 237 269 268
f 266 238 268
f 234 233 190
f 221 268 269
f 259 214 213
f 57 94 59
f 94 95 59
f 187 233 234
f 127 89 121
f 127 128 89
f 264 263 284
f 284 265 264
f 263 265 284
f 239 238 267
f 267 265 239
f 267 238 266
f 264 265 216
f 40 41 15
f 40 15 39
f 40 39 73
f 57 30 56
f 30 55 56
f 54 55 30
f 53 58 85
f 55 54 53
f 30 58 53
f 53 54 30
f 12 13 4
f 35 59 62
f 9 21 22
f 22 23 9
f 78 46 45
f 46 19 45
f 45 44 78
f 19 44 45
f 77 44 76
f 78 44 77
f 76 117 77
f 77 117 78
f 128 127 168
f 168 127 121
f 208 165 164
f 164 207 208
f 163 207 164
f 164 117 163
f 164 165 121
f 82 122 123
f 123 83 82
f 122 83 123
f 78 120 79
f 120 80 79
f 79 46 78
f 79 80 46
f 119 120 78
f 78 117 119
f 121 120 119
f 119 164 121
f 117 164 119
f 109 110 73
f 151 110 109
f 109 150 151
f 275 241 274
f 274 244 275
f 151 150 193
f 269 236 270
f 192 236 237
f 192 193 150
f 192 238 239
f 237 238 192
f 220 221 176
f 266 268 220
f 268 221 220
f 283 271 262
f 271 263 262
f 57 56 88
f 88 56 55
f 62 59 97
f 37 13 12
f 37 69 70
f 147 189 149
f 143 144 101
f 242 195 194
f 215 263 264
f 264 216 215
f 215 262 263
f 214 259 215
f 217 267 266
f 17 41 42
f 41 40 42
f 86 53 85
f 55 53 86
f 86 85 89
f 89 55 86
f 3 4 1
f 12 4 11
f 11 3 10
f 4 3 11
f 10 27 11
f 11 27 30
f 30 31 11
f 11 31 32
f 63 35 62
f 62 97 63
f 35 63 64
f 76 44 75
f 166 165 209
f 121 165 166
f 260 215 259
f 272 283 273
f 283 282 273
f 244 245 196
f 196 195 244
f 114 118 157
f 114 115 76
f 76 118 114
f 73 39 72
f 72 109 73
f 191 235 236
f 236 192 191
f 191 190 233
f 233 235 191
f 150 190 191
f 191 192 150
f 225 235 233
f 236 235 225
f 225 270 236
f 222 221 269
f 269 270 222
f 176 221 222
f 95 137 138
f 178 139 138
f 138 139 95
f 138 137 176
f 138 177 178
f 176 177 138
f 176 137 175
f 174 169 175
f 136 137 95
f 174 175 136
f 136 175 137
f 93 95 94
f 93 94 57
f 57 92 93
f 91 92 57
f 170 211 213
f 213 214 170
f 179 139 178
f 180 139 179
f 178 177 179
f 96 97 59
f 139 97 96
f 96 59 95
f 95 139 96
f 70 69 106
f 147 149 106
f 38 37 71
f 13 37 38
f 70 106 107
f 107 106 149
f 231 187 234
f 188 189 147
f 232 188 186
f 186 188 147
f 186 231 232
f 187 231 186
f 145 143 142
f 144 143 145
f 147 106 105
f 105 69 84
f 105 106 69
f 195 242 243
f 244 195 243
f 218 217 266
f 266 220 218
f 218 220 176
f 216 217 171
f 172 129 171
f 214 215 171
f 171 215 216
f 129 170 171
f 171 170 214
f 217 218 171
f 33 11 32
f 33 32 57
f 57 59 33
f 140 139 180
f 140 97 139
f 100 143 101
f 142 143 100
f 74 75 43
f 43 44 18
f 43 75 44
f 200 199 156
f 113 118 76
f 76 75 113
f 167 210 168
f 167 168 121
f 121 166 167
f 167 166 209
f 209 210 167
f 161 117 160
f 261 260 282
f 261 282 283
f 283 262 261
f 262 215 261
f 215 260 261
f 240 274 241
f 240 273 274
f 272 273 240
f 241 193 240
f 193 192 240
f 239 272 240
f 240 192 239
f 282 260 278
f 278 273 282
f 278 245 244
f 226 187 177
f 177 225 226
f 233 187 226
f 226 225 233
f 270 225 223
f 223 222 270
f 223 225 177
f 223 177 176
f 176 222 223
f 87 55 89
f 87 88 55
f 92 91 133
f 133 169 174
f 95 93 134
f 134 93 92
f 57 88 90
f 90 91 57
f 182 183 142
f 142 183 184
f 184 145 142
f 228 179 227
f 180 179 228
f 67 66 84
f 84 50 67
f 36 11 35
f 36 67 50
f 66 67 36
f 69 37 68
f 37 52 68
f 84 69 68
f 68 52 84
f 51 50 84
f 84 52 51
f 28 51 52
f 50 51 28
f 11 36 28
f 28 36 50
f 70 107 108
f 124 145 148
f 144 145 104
f 84 66 104
f 104 124 84
f 104 145 124
f 275 244 276
f 244 243 276
f 212 218 176
f 176 175 212
f 212 175 169
f 212 169 172
f 35 11 34
f 11 33 34
f 59 35 34
f 34 33 59
f 98 64 63
f 98 63 97
f 97 140 98
f 195 196 153
f 196 197 153
f 194 195 153
f 153 152 194
f 153 197 198
f 111 152 153
f 198 197 247
f 247 200 198
f 199 200 247
f 247 196 199
f 247 197 196
f 112 75 74
f 112 113 75
f 156 199 158
f 160 117 116
f 116 117 76
f 76 115 116
f 160 116 159
f 159 116 115
f 254 253 280
f 213 211 256
f 256 255 213
f 163 117 162
f 117 161 162
f 274 273 277
f 273 278 277
f 244 274 277
f 277 278 244
f 174 136 173
f 173 133 174
f 136 133 173
f 92 133 135
f 135 133 136
f 135 136 95
f 95 134 135
f 135 134 92
f 126 90 88
f 88 87 126
f 126 87 89
f 89 130 126
f 90 126 131
f 91 90 131
f 230 184 183
f 180 228 229
f 183 182 229
f 227 183 229
f 229 228 227
f 61 36 35
f 101 144 103
f 144 104 103
f 12 11 29
f 11 28 29
f 29 37 12
f 29 52 37
f 29 28 52
f 124 148 125
f 125 148 105
f 84 124 125
f 125 105 84
f 145 184 185
f 185 148 145
f 185 184 187
f 187 148 185
f 105 148 146
f 146 186 147
f 147 105 146
f 187 186 146
f 146 148 187
f 219 171 218
f 218 212 219
f 172 171 219
f 219 212 172
f 180 229 181
f 181 229 182
f 181 182 142
f 154 153 198
f 111 153 154
f 113 112 155
f 202 158 201
f 201 158 199
f 201 248 202
f 199 196 201
f 160 159 203
f 203 161 160
f 250 202 249
f 202 248 249
f 252 253 206
f 252 280 253
f 281 255 254
f 254 280 281
f 281 280 259
f 132 133 91
f 91 131 132
f 169 133 132
f 224 183 227
f 224 230 183
f 184 230 224
f 187 184 224
f 177 187 224
f 224 179 177
f 227 179 224
f 101 103 65
f 65 102 101
f 65 103 104
f 180 181 141
f 141 140 180
f 141 98 140
f 141 99 98
f 100 99 141
f 142 100 141
f 141 181 142
f 250 249 204
f 204 249 205
f 206 205 251
f 205 249 251
f 251 252 206
f 280 252 246
f 252 251 246
f 246 251 249
f 246 196 245
f 246 249 248
f 245 278 246
f 246 201 196
f 248 201 246
f 213 255 257
f 255 281 257
f 257 281 259
f 60 102 61
f 60 100 101
f 101 102 60
f 60 99 100
f 35 64 60
f 60 61 35
f 64 98 60
f 98 99 60
f 279 260 259
f 259 280 279
f 280 246 279
f 279 278 260
f 279 246 278
f 258 259 213
f 213 257 258
f 258 257 259
f 6 15 41
f 41 16 6
f 41 17 7
f 7 16 41
f 217 216 265
f 265 267 217
f 1 2 3
f 2 5 3
f 3 22 21
f 30 27 3
f 24 23 3
f 3 21 30
f 3 25 24
f 3 27 10
f 5 14 3
f 26 25 3
f 3 14 26
f 23 22 3
f 168 211 170
f 128 168 170
f 89 128 170
f 170 129 89
f 200 114 157
f 156 114 200
f 163 206 253
f 253 207 163
f 208 207 253
f 253 254 208
f 208 254 255
f 255 209 208
f 89 129 130
f 130 129 172
f 108 2 1
f 108 38 71
f 6 2 108
f 108 15 6
f 234 190 108
f 39 15 108
f 1 4 108
f 108 190 150
f 189 188 108
f 108 72 39
f 108 4 13
f 150 109 108
f 108 149 189
f 108 231 234
f 109 72 108
f 13 38 108
f 108 107 149
f 232 231 108
f 108 188 232
f 71 37 108
f 108 37 70
f 152 8 7
f 7 17 152
f 151 193 152
f 152 40 73
f 152 9 8
f 152 241 275
f 152 18 9
f 73 110 152
f 152 110 151
f 152 43 18
f 152 242 194
f 275 276 152
f 152 193 241
f 17 42 152
f 152 42 40
f 152 243 242
f 74 43 152
f 152 111 74
f 152 276 243
f 158 114 156
f 115 114 158
f 115 158 159
f 159 158 202
f 256 211 168
f 168 210 256
f 209 255 256
f 256 210 209
f 162 206 163
f 162 205 206
f 126 130 172
f 172 169 126
f 74 111 154
f 154 112 74
f 112 154 155
f 155 154 198
f 155 200 157
f 198 200 155
f 157 118 155
f 118 113 155
f 203 159 202
f 203 202 250
f 132 126 169
f 132 131 126
f 61 102 65
f 36 61 65
f 66 36 65
f 65 104 66
f 204 203 250
f 161 203 204
f 205 162 204
f 204 162 161
