v -0.055315 -0.041142 0.044233
v -0.054326 -0.041142 0.044062
v -0.055315 -0.041142 0.039366
v -0.055315 -0.042194 0.043952
v -0.052889 -0.041844 0.043632
v -0.052889 -0.041142 0.043812
v -0.039879 -0.041142 0.035225
v -0.047025 -0.044509 0.023126
v -0.048490 -0.044970 0.023126
v -0.049571 -0.045490 0.023126
v -0.050992 -0.046977 0.023126
v -0.051358 -0.048021 0.023126
v -0.055315 -0.059941 0.027562
v -0.055315 -0.043360 0.043618
v -0.054687 -0.043114 0.043585
v -0.053709 -0.042835 0.043502
v -0.052889 -0.042577 0.043434
v -0.054261 -0.042269 0.043752
v -0.052017 -0.041550 0.043552
v -0.051786 -0.041142 0.043593
v -0.041381 -0.046692 0.023126
v -0.041710 -0.046316 0.023126
v -0.042413 -0.045624 0.023126
v -0.042785 -0.045320 0.023126
v -0.043366 -0.045016 0.023126
v -0.044093 -0.044749 0.023126
v -0.044692 -0.044594 0.023126
v -0.045562 -0.044458 0.023126
v -0.039879 -0.041142 0.040052
v -0.039879 -0.055425 0.027562
v -0.039882 -0.058046 0.023126
v -0.040503 -0.049486 0.023126
v -0.040627 -0.048597 0.023126
v -0.040769 -0.048021 0.023126
v -0.041047 -0.047295 0.023126
v -0.051607 -0.049486 0.023126
v -0.055315 -0.065957 0.027562
v -0.055315 -0.043824 0.043477
v -0.054261 -0.043610 0.043359
v -0.052889 -0.043622 0.043116
v -0.051422 -0.043622 0.042812
v -0.051486 -0.042084 0.043275
v -0.049956 -0.042155 0.042874
v -0.051216 -0.041142 0.043452
v -0.044095 -0.041142 0.041392
v -0.039879 -0.042140 0.039917
v -0.039879 -0.061155 0.027562
v -0.039882 -0.058678 0.023126
v -0.051589 -0.050249 0.023126
v -0.053457 -0.065583 0.027562
v -0.052887 -0.065241 0.027874
v -0.054448 -0.065297 0.028211
v -0.055315 -0.065178 0.028591
v -0.051567 -0.050953 0.023126
v -0.051378 -0.051740 0.023126
v -0.051196 -0.052359 0.023126
v -0.048300 -0.058678 0.023126
v -0.055315 -0.044003 0.043421
v -0.052889 -0.045089 0.042632
v -0.051393 -0.045157 0.042304
v -0.049200 -0.044373 0.042058
v -0.049956 -0.043622 0.042461
v -0.049956 -0.044635 0.042147
v -0.048490 -0.042155 0.042498
v -0.051079 -0.041142 0.043417
v -0.048623 -0.043522 0.042157
v -0.047676 -0.042969 0.042072
v -0.046562 -0.041142 0.042173
v -0.039879 -0.042342 0.039880
v -0.039879 -0.060443 0.028789
v -0.040343 -0.061357 0.027562
v -0.041689 -0.061937 0.027562
v -0.041963 -0.062047 0.027562
v -0.042638 -0.062314 0.027562
v -0.043057 -0.062477 0.027562
v -0.044711 -0.063111 0.027562
v -0.045923 -0.063555 0.027562
v -0.047009 -0.063895 0.027562
v -0.047550 -0.064063 0.027562
v -0.049185 -0.064536 0.027562
v -0.050371 -0.064874 0.027562
v -0.050859 -0.065003 0.027562
v -0.051428 -0.065144 0.027562
v -0.051598 -0.065185 0.027562
v -0.052887 -0.065467 0.027562
v -0.051422 -0.064522 0.028388
v -0.052887 -0.064685 0.028605
v -0.054998 -0.064894 0.028880
v -0.055315 -0.064925 0.028917
v -0.055315 -0.045004 0.043085
v -0.054353 -0.045089 0.042890
v -0.052889 -0.046221 0.042217
v -0.051861 -0.045990 0.042118
v -0.050882 -0.045689 0.042006
v -0.048223 -0.043947 0.041936
v -0.049956 -0.045369 0.041897
v -0.039879 -0.048016 0.038585
v -0.047349 -0.042155 0.042180
v -0.048490 -0.041142 0.042742
v -0.050012 -0.041142 0.043140
v -0.039879 -0.046666 0.038973
v -0.039879 -0.046379 0.039043
v -0.047006 -0.041142 0.042306
v -0.039879 -0.045920 0.039147
v -0.039879 -0.043622 0.039642
v -0.040305 -0.060526 0.028936
v -0.039879 -0.060082 0.029374
v -0.042629 -0.061724 0.028504
v -0.045932 -0.063545 0.027583
v -0.043528 -0.061889 0.028773
v -0.047029 -0.063720 0.027822
v -0.047029 -0.063191 0.028556
v -0.048037 -0.063337 0.028754
v -0.049015 -0.063468 0.028932
v -0.051422 -0.065073 0.027657
v -0.049954 -0.063594 0.029093
v -0.051422 -0.063788 0.029320
v -0.052887 -0.063951 0.029506
v -0.055315 -0.064291 0.029676
v -0.055315 -0.046049 0.042690
v -0.055315 -0.046578 0.042487
v -0.054891 -0.047368 0.042089
v -0.052889 -0.046952 0.041913
v -0.051422 -0.048021 0.041202
v -0.049945 -0.048096 0.040864
v -0.048490 -0.047625 0.040727
v -0.039879 -0.050380 0.037725
v -0.039879 -0.049585 0.038029
v -0.039879 -0.060023 0.029467
v -0.041162 -0.060703 0.029190
v -0.044506 -0.062052 0.029006
v -0.045562 -0.062231 0.029238
v -0.039879 -0.059333 0.030500
v -0.042161 -0.060388 0.030200
v -0.045562 -0.061673 0.029971
v -0.046698 -0.061840 0.030194
v -0.049954 -0.062996 0.029826
v -0.051422 -0.063176 0.030054
v -0.055315 -0.064009 0.030012
v -0.052887 -0.063337 0.030240
v -0.053622 -0.063412 0.030324
v -0.055315 -0.047450 0.042126
v -0.052889 -0.048021 0.041463
v -0.051422 -0.049080 0.040742
v -0.050426 -0.048874 0.040640
v -0.049448 -0.048638 0.040537
v -0.040013 -0.050411 0.037740
v -0.039879 -0.050572 0.037634
v -0.043137 -0.060550 0.030417
v -0.039879 -0.059241 0.030624
v -0.039879 -0.058748 0.031264
v -0.044095 -0.060708 0.030601
v -0.045562 -0.060944 0.030866
v -0.046449 -0.060439 0.031748
v -0.047671 -0.061966 0.030349
v -0.048490 -0.062076 0.030471
v -0.049954 -0.062265 0.030682
v -0.051422 -0.062443 0.030878
v -0.054599 -0.063509 0.030434
v -0.055315 -0.063577 0.030514
v -0.052410 -0.061891 0.031733
v -0.053386 -0.061991 0.031841
v -0.055315 -0.048157 0.041804
v -0.052889 -0.049347 0.040868
v -0.051422 -0.049814 0.040388
v -0.049945 -0.049411 0.040285
v -0.041162 -0.051400 0.037516
v -0.039879 -0.051006 0.037426
v -0.039879 -0.058673 0.031357
v -0.041162 -0.058882 0.031634
v -0.041922 -0.059003 0.031779
v -0.044095 -0.060077 0.031335
v -0.045562 -0.060307 0.031597
v -0.048490 -0.060691 0.032016
v -0.049954 -0.061607 0.031415
v -0.042901 -0.059156 0.031940
v -0.044095 -0.059343 0.032130
v -0.045562 -0.059571 0.032351
v -0.046471 -0.058964 0.033215
v -0.046950 -0.059763 0.032545
v -0.048490 -0.059953 0.032750
v -0.051422 -0.061782 0.031612
v -0.055315 -0.063414 0.030696
v -0.049954 -0.060876 0.032198
v -0.051422 -0.061048 0.032366
v -0.052447 -0.060417 0.033202
v -0.054353 -0.062090 0.031940
v -0.055315 -0.062664 0.031523
v -0.055315 -0.049530 0.041175
v -0.055315 -0.050484 0.040723
v -0.052889 -0.050079 0.040514
v -0.051422 -0.050951 0.039820
v -0.049897 -0.051065 0.039475
v -0.049368 -0.051628 0.039091
v -0.041162 -0.052418 0.036959
v -0.039879 -0.052503 0.036626
v -0.039879 -0.058031 0.032097
v -0.039879 -0.057939 0.032192
v -0.039879 -0.057205 0.032924
v -0.045562 -0.058826 0.033085
v -0.039879 -0.055772 0.034269
v -0.041162 -0.055872 0.034539
v -0.042091 -0.056018 0.034667
v -0.043069 -0.056166 0.034795
v -0.045560 -0.057273 0.034473
v -0.046701 -0.057439 0.034626
v -0.046698 -0.058704 0.033502
v -0.047349 -0.058874 0.033502
v -0.047451 -0.059093 0.033328
v -0.049954 -0.060130 0.032932
v -0.051422 -0.060303 0.033099
v -0.053424 -0.060519 0.033291
v -0.054353 -0.061340 0.032674
v -0.051881 -0.059950 0.033502
v -0.054679 -0.059105 0.034804
v -0.055315 -0.061925 0.032289
v -0.055315 -0.062185 0.032035
v -0.055315 -0.051172 0.040364
v -0.052889 -0.050951 0.040074
v -0.051422 -0.051966 0.039283
v -0.050346 -0.051798 0.039184
v -0.049897 -0.052338 0.038783
v -0.048490 -0.053470 0.037847
v -0.041162 -0.053414 0.036364
v -0.040151 -0.053244 0.036250
v -0.039879 -0.053195 0.036219
v -0.039879 -0.056564 0.033543
v -0.039879 -0.056469 0.033630
v -0.039879 -0.055670 0.034359
v -0.039879 -0.055031 0.034901
v -0.045560 -0.056540 0.035099
v -0.039879 -0.054939 0.034973
v -0.045560 -0.055593 0.035833
v -0.047676 -0.057567 0.034740
v -0.047124 -0.056895 0.035163
v -0.048490 -0.059156 0.033502
v -0.048490 -0.059222 0.033442
v -0.049051 -0.059290 0.033502
v -0.050235 -0.059571 0.033502
v -0.051422 -0.059846 0.033502
v -0.054353 -0.060606 0.033376
v -0.055315 -0.061177 0.033010
v -0.055315 -0.061432 0.032769
v -0.055315 -0.059168 0.034864
v -0.051422 -0.059571 0.033744
v -0.052889 -0.058901 0.034624
v -0.048490 -0.057662 0.034822
v -0.049956 -0.057830 0.034965
v -0.051422 -0.058000 0.035103
v -0.055315 -0.058255 0.035624
v -0.055315 -0.052449 0.039642
v -0.052889 -0.052175 0.039411
v -0.051422 -0.052700 0.038851
v -0.049956 -0.053698 0.037988
v -0.049956 -0.054431 0.037535
v -0.048490 -0.054198 0.037388
v -0.042629 -0.053654 0.036523
v -0.045560 -0.054859 0.036361
v -0.044560 -0.054699 0.036250
v -0.043582 -0.054543 0.036136
v -0.042629 -0.054388 0.036027
v -0.041162 -0.054145 0.035859
v -0.039879 -0.053555 0.035969
v -0.047028 -0.055809 0.035994
v -0.039879 -0.053839 0.035771
v -0.049956 -0.059399 0.033597
v -0.048599 -0.056676 0.035632
v -0.048183 -0.055967 0.036107
v -0.055315 -0.060652 0.033502
v -0.049956 -0.056924 0.035696
v -0.051422 -0.057096 0.035837
v -0.054353 -0.057441 0.036105
v -0.055315 -0.057975 0.035851
v -0.055315 -0.053013 0.039306
v -0.052889 -0.052908 0.038971
v -0.051381 -0.053999 0.038056
v -0.050864 -0.054565 0.037622
v -0.047028 -0.055075 0.036512
v -0.049161 -0.056095 0.036198
v -0.055315 -0.057553 0.036192
v -0.055315 -0.057733 0.036047
v -0.054353 -0.056708 0.036667
v -0.055315 -0.056880 0.036709
v -0.055315 -0.053234 0.039171
v -0.051839 -0.054691 0.037707
v -0.051381 -0.055248 0.037221
v -0.055315 -0.055840 0.037488
v -0.055315 -0.053931 0.038725
v -0.055315 -0.055107 0.037971
v -0.055315 -0.055585 0.037659
f 7 8 3
f 57 48 37
f 3 12 13
f 28 8 7
f 31 32 7
f 7 30 31
f 34 35 7
f 9 3 8
f 9 10 3
f 11 12 3
f 3 10 11
f 56 57 37
f 37 55 56
f 37 13 36
f 36 13 12
f 27 28 7
f 7 35 21
f 24 25 7
f 7 23 24
f 7 32 33
f 33 34 7
f 54 55 37
f 7 25 26
f 26 27 7
f 22 23 7
f 7 21 22
f 126 125 127
f 37 36 49
f 49 54 37
f 99 102 104
f 105 68 104
f 219 218 220
f 144 142 164
f 264 233 258
f 255 258 256
f 256 223 255
f 258 257 256
f 256 257 223
f 45 46 29
f 68 46 45
f 69 68 105
f 69 46 68
f 102 67 101
f 95 61 97
f 97 101 95
f 95 101 67
f 98 102 99
f 98 67 102
f 64 98 99
f 67 98 64
f 99 104 103
f 103 104 68
f 19 20 6
f 164 142 163
f 163 189 164
f 164 189 190
f 218 219 190
f 164 190 191
f 191 190 219
f 167 196 168
f 180 179 181
f 138 157 158
f 158 182 161
f 174 182 175
f 175 158 157
f 182 158 175
f 51 86 87
f 262 233 232
f 276 285 277
f 277 286 279
f 285 286 277
f 277 253 276
f 284 285 276
f 278 258 255
f 278 264 258
f 255 277 278
f 278 277 264
f 220 253 221
f 195 196 167
f 167 194 195
f 195 194 223
f 226 196 195
f 205 206 179
f 67 64 43
f 65 43 64
f 142 144 143
f 144 166 145
f 145 147 127
f 167 147 145
f 145 166 167
f 127 147 148
f 148 147 167
f 167 168 148
f 37 51 52
f 52 51 87
f 186 185 211
f 184 174 181
f 184 182 174
f 161 182 184
f 184 185 161
f 217 187 216
f 188 187 217
f 162 187 188
f 162 141 161
f 161 185 162
f 162 185 186
f 186 187 162
f 118 141 139
f 154 175 157
f 174 175 154
f 181 174 154
f 154 180 181
f 179 180 154
f 115 82 86
f 76 77 48
f 109 77 76
f 265 262 232
f 287 285 290
f 287 286 285
f 279 286 287
f 268 277 279
f 264 277 268
f 235 264 268
f 255 223 254
f 254 277 255
f 253 277 254
f 290 285 289
f 235 268 267
f 267 268 279
f 192 219 220
f 220 221 192
f 192 191 219
f 192 221 194
f 193 192 194
f 193 194 167
f 167 166 193
f 223 257 224
f 224 195 223
f 224 257 258
f 204 205 179
f 206 205 204
f 232 233 204
f 66 95 67
f 67 43 66
f 100 64 99
f 100 65 64
f 44 20 19
f 19 43 44
f 43 65 44
f 6 2 5
f 19 6 5
f 5 2 1
f 1 4 5
f 19 41 42
f 42 43 19
f 127 128 93
f 93 126 127
f 125 126 93
f 124 143 144
f 123 143 124
f 144 145 124
f 125 93 124
f 127 125 146
f 146 145 127
f 125 124 146
f 146 124 145
f 37 52 53
f 213 243 216
f 216 187 213
f 213 187 186
f 212 213 186
f 243 213 212
f 210 184 181
f 237 211 210
f 210 211 185
f 185 184 210
f 179 206 207
f 207 208 179
f 179 208 209
f 237 210 209
f 181 179 209
f 209 210 181
f 234 206 235
f 234 207 206
f 208 207 234
f 235 267 234
f 234 267 247
f 159 160 139
f 139 141 159
f 141 162 159
f 119 118 139
f 140 118 138
f 141 118 140
f 138 158 140
f 161 141 140
f 140 158 161
f 156 154 157
f 156 157 138
f 138 137 156
f 179 154 178
f 178 154 177
f 81 82 48
f 86 82 81
f 78 77 109
f 48 77 78
f 78 79 48
f 37 48 50
f 48 85 50
f 50 51 37
f 50 85 51
f 84 85 48
f 51 85 84
f 86 51 84
f 84 115 86
f 117 137 138
f 87 86 117
f 138 118 117
f 117 118 87
f 75 76 48
f 109 76 110
f 110 131 109
f 262 265 263
f 222 221 253
f 253 254 222
f 222 254 223
f 223 194 222
f 194 221 222
f 285 284 288
f 288 289 285
f 218 251 252
f 220 218 252
f 252 253 220
f 215 250 244
f 215 246 247
f 244 212 215
f 215 212 186
f 272 283 280
f 165 166 144
f 165 193 166
f 192 193 165
f 191 192 165
f 165 144 164
f 164 191 165
f 226 195 225
f 195 224 225
f 225 224 262
f 225 263 226
f 262 263 225
f 262 224 261
f 261 224 260
f 233 262 261
f 261 260 233
f 259 224 258
f 260 224 259
f 258 233 259
f 233 260 259
f 203 204 179
f 231 204 233
f 231 264 235
f 233 264 231
f 235 206 231
f 206 204 231
f 176 199 177
f 177 154 176
f 154 173 176
f 200 199 227
f 227 228 200
f 177 199 200
f 200 228 201
f 200 201 179
f 179 178 200
f 200 178 177
f 19 5 17
f 16 40 17
f 17 4 16
f 17 41 19
f 17 40 41
f 61 95 62
f 95 66 62
f 62 41 61
f 62 42 41
f 62 66 43
f 43 42 62
f 41 40 60
f 122 121 142
f 142 143 122
f 122 143 123
f 89 53 88
f 87 118 88
f 88 52 87
f 88 53 52
f 88 119 89
f 118 119 88
f 243 212 242
f 247 246 245
f 246 215 245
f 208 234 236
f 237 209 236
f 236 209 208
f 236 211 237
f 236 238 211
f 160 159 183
f 183 162 188
f 183 159 162
f 134 110 133
f 131 110 134
f 109 131 132
f 132 134 149
f 131 134 132
f 136 154 155
f 154 156 155
f 155 137 136
f 155 156 137
f 153 154 136
f 153 173 154
f 48 79 80
f 80 81 48
f 113 81 80
f 86 81 114
f 114 81 113
f 114 113 136
f 82 115 83
f 115 84 83
f 48 82 83
f 83 84 48
f 72 73 48
f 48 73 74
f 74 75 48
f 133 110 130
f 274 252 251
f 250 215 249
f 250 249 273
f 273 249 272
f 247 267 270
f 270 267 279
f 282 272 279
f 283 272 282
f 287 283 282
f 279 287 282
f 232 204 230
f 204 203 230
f 199 176 198
f 170 169 197
f 149 169 170
f 18 5 4
f 4 17 18
f 18 17 5
f 14 38 15
f 15 38 16
f 4 14 15
f 16 4 15
f 39 38 58
f 58 40 39
f 39 40 16
f 16 38 39
f 61 41 63
f 41 60 63
f 59 60 40
f 93 60 59
f 59 40 58
f 58 91 59
f 90 91 58
f 92 122 123
f 121 122 92
f 123 124 92
f 92 124 93
f 120 121 92
f 92 90 120
f 91 90 92
f 93 59 92
f 92 59 91
f 269 242 241
f 241 242 212
f 244 269 241
f 241 212 244
f 266 234 247
f 247 245 266
f 238 236 266
f 266 236 234
f 214 245 215
f 186 211 214
f 214 215 186
f 151 169 149
f 149 134 151
f 136 113 112
f 112 80 79
f 113 80 112
f 109 132 112
f 116 117 86
f 86 114 116
f 137 117 116
f 136 137 116
f 116 114 136
f 47 70 71
f 70 72 71
f 48 47 71
f 71 72 48
f 106 70 107
f 106 72 70
f 73 72 106
f 133 130 129
f 253 252 275
f 252 274 275
f 276 253 275
f 275 274 284
f 275 284 276
f 281 272 280
f 281 273 272
f 248 215 247
f 248 249 215
f 272 249 271
f 279 272 271
f 271 270 279
f 249 248 271
f 247 270 271
f 271 248 247
f 229 230 202
f 202 230 203
f 202 201 229
f 179 201 202
f 202 203 179
f 171 170 197
f 197 198 171
f 171 198 176
f 171 176 173
f 94 63 60
f 94 128 97
f 61 63 94
f 94 93 128
f 94 60 93
f 240 266 245
f 240 214 211
f 245 214 240
f 150 134 133
f 150 151 134
f 136 112 135
f 135 112 132
f 135 132 149
f 79 78 111
f 111 112 79
f 111 78 109
f 109 112 111
f 108 129 130
f 75 74 108
f 108 130 110
f 108 74 73
f 73 106 108
f 107 129 108
f 108 106 107
f 76 75 108
f 108 110 76
f 173 153 172
f 172 171 173
f 97 61 96
f 96 94 97
f 61 94 96
f 239 240 211
f 266 240 239
f 211 238 239
f 238 266 239
f 171 172 152
f 149 170 152
f 170 171 152
f 152 172 153
f 152 135 149
f 152 153 136
f 136 135 152
f 30 47 31
f 31 47 48
f 12 11 49
f 55 54 49
f 48 57 49
f 35 34 49
f 8 28 49
f 49 31 48
f 49 9 8
f 57 56 49
f 49 36 12
f 49 21 35
f 32 31 49
f 25 24 49
f 10 9 49
f 49 11 10
f 49 56 55
f 49 33 32
f 28 27 49
f 49 26 25
f 49 24 23
f 34 33 49
f 23 22 49
f 27 26 49
f 49 22 21
f 7 3 44
f 44 3 1
f 44 29 7
f 99 103 44
f 44 45 29
f 1 2 44
f 68 45 44
f 44 103 68
f 44 6 20
f 44 100 99
f 44 2 6
f 65 100 44
f 1 3 281
f 281 288 284
f 281 13 37
f 3 13 281
f 218 190 281
f 216 243 281
f 142 121 281
f 281 287 290
f 139 160 281
f 281 4 1
f 281 163 142
f 281 217 216
f 281 251 218
f 189 163 281
f 281 190 189
f 37 53 281
f 281 269 244
f 290 289 281
f 244 250 281
f 281 90 58
f 58 38 281
f 188 217 281
f 281 242 269
f 281 119 139
f 280 283 281
f 281 183 188
f 284 274 281
f 281 14 4
f 281 121 120
f 281 53 89
f 89 119 281
f 281 283 287
f 289 288 281
f 281 38 14
f 243 242 281
f 160 183 281
f 281 274 251
f 250 273 281
f 120 90 281
f 7 29 150
f 150 69 105
f 150 30 7
f 150 47 30
f 97 128 150
f 150 196 226
f 127 148 150
f 105 104 150
f 197 169 150
f 29 46 150
f 150 70 47
f 150 104 102
f 150 128 127
f 150 101 97
f 150 228 227
f 226 263 150
f 229 201 150
f 46 69 150
f 102 101 150
f 150 168 196
f 150 230 229
f 150 148 168
f 133 129 150
f 150 265 232
f 227 199 150
f 201 228 150
f 150 198 197
f 107 70 150
f 150 263 265
f 232 230 150
f 199 198 150
f 169 151 150
f 150 129 107
