v -0.067392 -0.030424 0.017735
v -0.088353 -0.030424 0.016737
v -0.088353 -0.031888 0.016621
v -0.067392 -0.031888 0.017602
v -0.067392 -0.029183 0.017707
v -0.088353 -0.028960 0.016706
v -0.088355 -0.046638 0.001696
v -0.088355 -0.013361 0.001696
v -0.088353 -0.032167 0.016581
v -0.088353 -0.033355 0.016394
v -0.067392 -0.033355 0.017365
v -0.067392 -0.028960 0.017697
v -0.067392 -0.027892 0.017592
v -0.088353 -0.027495 0.016557
v -0.088355 -0.046656 0.001451
v -0.088353 -0.046638 0.001699
v -0.088353 -0.046635 0.001733
v -0.088353 -0.046425 0.003199
v -0.088353 -0.046132 0.004387
v -0.088353 -0.046063 0.004665
v -0.088353 -0.045825 0.005436
v -0.088353 -0.045605 0.006030
v -0.088353 -0.045553 0.006169
v -0.088353 -0.045026 0.007326
v -0.088353 -0.044902 0.007597
v -0.088353 -0.044520 0.008310
v -0.088353 -0.044430 0.008476
v -0.088353 -0.043972 0.009209
v -0.088353 -0.043380 0.010038
v -0.088353 -0.043238 0.010231
v -0.088353 -0.042639 0.010964
v -0.088353 -0.041905 0.011758
v -0.088353 -0.041137 0.012491
v -0.088353 -0.040403 0.013099
v -0.088353 -0.039418 0.013832
v -0.088353 -0.038684 0.014310
v -0.088353 -0.037751 0.014823
v -0.088353 -0.036710 0.015322
v -0.088353 -0.036466 0.015437
v -0.088353 -0.035735 0.015725
v -0.088353 -0.034819 0.016017
v -0.088353 -0.026028 0.016265
v -0.088353 -0.024908 0.015932
v -0.088353 -0.023916 0.015634
v -0.088353 -0.023251 0.015318
v -0.088353 -0.023096 0.015244
v -0.088353 -0.021718 0.014538
v -0.088353 -0.020985 0.014144
v -0.088353 -0.020165 0.013526
v -0.088353 -0.019286 0.012844
v -0.088353 -0.018556 0.012193
v -0.088353 -0.017784 0.011460
v -0.088353 -0.017192 0.010754
v -0.088353 -0.017054 0.010587
v -0.088353 -0.016565 0.009993
v -0.088353 -0.016451 0.009854
v -0.088353 -0.016041 0.009213
v -0.088353 -0.015948 0.009064
v -0.088353 -0.015390 0.008123
v -0.088353 -0.015263 0.007906
v -0.088353 -0.014942 0.007309
v -0.088353 -0.014870 0.007173
v -0.088353 -0.014433 0.006131
v -0.088353 -0.013937 0.004665
v -0.088353 -0.013699 0.003763
v -0.088353 -0.013644 0.003552
v -0.088353 -0.013503 0.002819
v -0.088353 -0.013365 0.001733
v -0.067392 -0.012517 0.003247
v -0.067392 -0.012404 0.001733
v -0.088355 -0.013265 0.000267
v -0.067392 -0.034819 0.016998
v -0.067392 -0.027495 0.017531
v -0.067392 -0.026658 0.017399
v -0.088355 -0.046735 0.000267
v -0.067392 -0.047596 0.001733
v -0.067392 -0.047379 0.003199
v -0.067392 -0.047028 0.004665
v -0.067392 -0.046611 0.006172
v -0.067392 -0.045980 0.007597
v -0.067392 -0.045154 0.009128
v -0.067392 -0.045112 0.009193
v -0.067392 -0.043855 0.010991
v -0.067392 -0.042946 0.012016
v -0.067392 -0.042170 0.012800
v -0.067392 -0.040827 0.013957
v -0.067392 -0.039266 0.015098
v -0.067392 -0.037751 0.015905
v -0.067392 -0.036304 0.016604
v -0.067392 -0.026028 0.017242
v -0.067392 -0.024481 0.016754
v -0.067392 -0.024054 0.016618
v -0.067392 -0.023172 0.016309
v -0.067392 -0.022228 0.015905
v -0.067392 -0.021153 0.015332
v -0.067392 -0.020330 0.014857
v -0.067392 -0.019528 0.014287
v -0.067392 -0.018591 0.013499
v -0.067392 -0.017874 0.012837
v -0.067392 -0.017071 0.012057
v -0.067392 -0.015766 0.010523
v -0.067392 -0.015084 0.009593
v -0.067392 -0.014591 0.008762
v -0.067392 -0.014012 0.007686
v -0.067392 -0.013179 0.005619
v -0.067392 -0.012404 0.001699
v -0.088355 -0.013303 -0.000921
v -0.088355 -0.046690 -0.001199
v -0.067392 -0.047596 0.001699
v -0.068609 -0.027905 -0.016810
v -0.068609 -0.027375 -0.016759
v -0.068609 -0.024564 -0.015969
v -0.068609 -0.023220 -0.015534
v -0.068609 -0.022693 -0.015266
v -0.068609 -0.020451 -0.014038
v -0.068609 -0.019917 -0.013620
v -0.068609 -0.018842 -0.012717
v -0.068609 -0.018322 -0.012259
v -0.068609 -0.017430 -0.011323
v -0.068609 -0.016909 -0.010698
v -0.068609 -0.016100 -0.009724
v -0.068609 -0.015625 -0.008947
v -0.068609 -0.014584 -0.007006
v -0.068609 -0.014212 -0.006069
v -0.068609 -0.013368 -0.003558
v -0.088355 -0.013561 -0.003422
v -0.088355 -0.013468 -0.002665
v -0.088355 -0.013437 -0.002387
v -0.088355 -0.013313 -0.001199
v -0.068609 -0.030420 -0.016936
v -0.068609 -0.028963 -0.016905
v -0.088355 -0.046532 -0.002665
v -0.068609 -0.046394 -0.004131
v -0.068609 -0.046098 -0.005309
v -0.068609 -0.045929 -0.005842
v -0.068609 -0.044740 -0.008336
v -0.068609 -0.044441 -0.008866
v -0.068609 -0.043531 -0.010026
v -0.068609 -0.043173 -0.010481
v -0.068609 -0.041630 -0.012405
v -0.068609 -0.041047 -0.012884
v -0.068609 -0.039163 -0.014167
v -0.068609 -0.037265 -0.015351
v -0.068609 -0.036659 -0.015605
v -0.068609 -0.035267 -0.016033
v -0.068609 -0.033899 -0.016362
v -0.068609 -0.031757 -0.016841
v -0.068609 -0.030854 -0.016915
v -0.088355 -0.028784 -0.016688
v -0.088355 -0.028963 -0.016705
v -0.088355 -0.027881 -0.016600
v -0.088355 -0.027285 -0.016539
v -0.088355 -0.027048 -0.016488
v -0.088355 -0.026031 -0.016267
v -0.088355 -0.024564 -0.015829
v -0.088355 -0.023331 -0.015365
v -0.088355 -0.023189 -0.015297
v -0.088355 -0.022597 -0.015005
v -0.088355 -0.021632 -0.014492
v -0.088355 -0.020589 -0.013878
v -0.088355 -0.019855 -0.013311
v -0.088355 -0.018963 -0.012578
v -0.088355 -0.018229 -0.011937
v -0.088355 -0.017564 -0.011204
v -0.088355 -0.017426 -0.011038
v -0.088355 -0.016830 -0.010318
v -0.088355 -0.016255 -0.009588
v -0.088355 -0.015607 -0.008526
v -0.088355 -0.015115 -0.007637
v -0.088355 -0.015046 -0.007501
v -0.088355 -0.014746 -0.006907
v -0.088355 -0.014646 -0.006660
v -0.088355 -0.014226 -0.005597
v -0.088355 -0.014140 -0.005326
v -0.088355 -0.013782 -0.004155
v -0.088355 -0.030420 -0.016736
v -0.088355 -0.046222 -0.004131
v -0.088355 -0.045867 -0.005312
v -0.088355 -0.045681 -0.005906
v -0.088355 -0.045584 -0.006127
v -0.088355 -0.045171 -0.007063
v -0.088355 -0.045061 -0.007281
v -0.088355 -0.044572 -0.008214
v -0.088355 -0.044496 -0.008353
v -0.088355 -0.044165 -0.008947
v -0.088355 -0.043431 -0.009965
v -0.088355 -0.042859 -0.010698
v -0.088355 -0.042167 -0.011458
v -0.088355 -0.041461 -0.012229
v -0.088355 -0.040682 -0.012867
v -0.088355 -0.040520 -0.012999
v -0.088355 -0.039821 -0.013566
v -0.088355 -0.039091 -0.014044
v -0.088355 -0.037833 -0.014777
v -0.088355 -0.037100 -0.015171
v -0.088355 -0.036287 -0.015504
v -0.088355 -0.034819 -0.016016
v -0.088355 -0.033355 -0.016393
v -0.088355 -0.032408 -0.016573
v -0.088355 -0.031674 -0.016641
v -0.088355 -0.031436 -0.016661
f 2 3 1
f 7 3 2
f 23 80 24
f 23 24 7
f 106 71 70
f 106 109 130
f 139 140 109
f 109 135 136
f 136 137 109
f 130 109 148
f 109 147 148
f 109 144 145
f 109 140 141
f 141 142 109
f 143 144 109
f 109 142 143
f 109 132 133
f 6 2 1
f 97 98 50
f 94 44 93
f 49 97 50
f 17 18 7
f 1 3 4
f 39 89 40
f 89 41 40
f 7 39 40
f 40 41 7
f 72 41 89
f 11 4 10
f 7 41 10
f 10 72 11
f 41 72 10
f 77 78 18
f 19 78 20
f 18 78 19
f 19 20 7
f 7 18 19
f 7 20 21
f 7 36 37
f 35 36 7
f 36 35 87
f 87 37 36
f 105 69 64
f 8 69 70
f 70 71 8
f 8 49 50
f 8 6 14
f 7 2 8
f 2 6 8
f 52 100 101
f 52 99 100
f 126 106 125
f 119 106 118
f 119 163 164
f 118 163 119
f 122 169 123
f 123 106 122
f 106 121 122
f 167 122 121
f 109 137 138
f 138 139 109
f 146 147 109
f 109 145 146
f 193 143 142
f 131 106 130
f 113 106 112
f 106 111 112
f 155 113 112
f 108 132 109
f 109 75 108
f 181 136 135
f 182 136 181
f 177 133 132
f 96 97 48
f 97 49 48
f 49 8 48
f 93 44 92
f 16 17 7
f 7 15 16
f 9 4 3
f 9 10 4
f 9 3 7
f 7 10 9
f 80 81 27
f 32 33 7
f 7 31 32
f 85 33 32
f 76 77 18
f 18 17 76
f 17 16 76
f 76 16 15
f 76 15 75
f 76 75 109
f 22 23 7
f 7 21 22
f 79 22 21
f 20 78 79
f 79 21 20
f 80 23 79
f 23 22 79
f 38 39 7
f 7 37 38
f 38 89 39
f 38 37 89
f 7 33 34
f 34 35 7
f 89 37 88
f 37 87 88
f 42 8 14
f 74 90 42
f 14 74 42
f 104 105 63
f 63 62 104
f 63 105 64
f 64 8 63
f 8 62 63
f 101 102 56
f 98 99 51
f 99 52 51
f 50 98 51
f 51 8 50
f 51 52 8
f 124 106 123
f 124 125 106
f 124 173 125
f 127 106 126
f 71 106 107
f 106 129 107
f 156 113 155
f 156 157 113
f 114 106 113
f 114 115 106
f 106 115 116
f 120 121 106
f 106 119 120
f 164 121 120
f 120 119 164
f 126 125 175
f 166 167 121
f 169 122 168
f 122 167 168
f 198 146 145
f 147 146 198
f 142 141 192
f 192 193 142
f 110 131 150
f 110 111 106
f 106 131 110
f 155 112 154
f 154 112 111
f 151 152 111
f 135 179 180
f 180 181 135
f 134 179 135
f 133 177 134
f 134 135 109
f 109 133 134
f 5 6 1
f 5 12 6
f 14 6 13
f 6 12 13
f 96 48 95
f 44 90 91
f 91 92 44
f 24 80 25
f 7 24 25
f 28 27 81
f 7 27 28
f 85 32 84
f 84 31 83
f 84 32 31
f 86 33 85
f 86 34 33
f 86 87 35
f 35 34 86
f 64 69 65
f 69 66 65
f 65 8 64
f 65 66 8
f 67 66 69
f 8 66 67
f 44 8 43
f 8 42 43
f 43 90 44
f 43 42 90
f 60 103 104
f 102 103 59
f 58 102 59
f 103 60 59
f 59 8 58
f 59 60 8
f 53 52 101
f 8 52 53
f 57 102 58
f 57 56 102
f 58 8 57
f 8 56 57
f 128 129 106
f 106 127 128
f 160 115 159
f 115 114 159
f 123 169 170
f 170 171 123
f 172 124 123
f 123 171 172
f 173 124 172
f 125 173 174
f 174 175 125
f 165 121 164
f 165 166 121
f 197 145 144
f 197 198 145
f 201 148 147
f 189 141 140
f 111 152 153
f 153 154 111
f 149 151 111
f 149 110 150
f 111 110 149
f 179 134 178
f 178 134 177
f 73 74 14
f 14 13 73
f 47 46 94
f 94 95 47
f 47 95 48
f 47 48 8
f 8 46 47
f 45 8 44
f 45 46 8
f 44 94 45
f 94 46 45
f 80 27 26
f 26 25 80
f 26 27 7
f 7 25 26
f 83 28 82
f 82 28 81
f 83 31 30
f 30 31 7
f 69 8 68
f 68 67 69
f 8 67 68
f 104 62 61
f 61 60 104
f 61 62 8
f 8 60 61
f 101 56 55
f 55 56 8
f 158 159 114
f 113 157 158
f 158 114 113
f 116 162 117
f 118 106 117
f 106 116 117
f 117 162 163
f 117 163 118
f 161 162 116
f 161 115 160
f 161 116 115
f 144 143 195
f 147 198 199
f 130 148 176
f 148 201 176
f 191 192 141
f 140 139 187
f 139 138 187
f 187 138 137
f 29 28 83
f 83 30 29
f 7 28 29
f 29 30 7
f 54 53 101
f 101 55 54
f 8 53 54
f 54 55 8
f 196 197 144
f 144 195 196
f 143 193 194
f 194 195 143
f 200 201 147
f 147 199 200
f 141 189 190
f 190 191 141
f 188 189 140
f 140 187 188
f 137 136 185
f 186 187 137
f 137 185 186
f 183 136 182
f 184 185 136
f 136 183 184
f 70 69 82
f 85 84 82
f 82 81 80
f 82 106 70
f 82 91 90
f 89 88 82
f 93 92 82
f 104 103 82
f 82 105 104
f 82 94 93
f 98 97 82
f 1 4 82
f 82 72 89
f 82 76 109
f 101 100 82
f 82 99 98
f 109 106 82
f 82 97 96
f 82 86 85
f 82 90 74
f 82 4 11
f 11 72 82
f 74 73 82
f 78 77 82
f 80 79 82
f 100 99 82
f 69 105 82
f 82 102 101
f 82 5 1
f 96 95 82
f 77 76 82
f 82 79 78
f 82 88 87
f 82 103 102
f 12 5 82
f 82 13 12
f 82 95 94
f 92 91 82
f 82 84 83
f 87 86 82
f 82 73 13
f 176 131 130
f 150 131 176
f 184 161 160
f 164 163 184
f 132 108 184
f 184 177 132
f 126 175 184
f 184 199 198
f 7 8 184
f 71 107 184
f 184 158 157
f 184 15 7
f 182 181 184
f 184 8 71
f 184 127 126
f 129 128 184
f 160 159 184
f 184 156 155
f 184 174 173
f 169 168 184
f 155 154 184
f 75 15 184
f 184 108 75
f 184 153 152
f 184 149 150
f 184 180 179
f 184 107 129
f 157 156 184
f 184 170 169
f 173 172 184
f 167 166 184
f 184 168 167
f 184 165 164
f 193 192 184
f 192 191 184
f 152 151 184
f 181 180 184
f 184 128 127
f 179 178 184
f 163 162 184
f 171 170 184
f 184 172 171
f 175 174 184
f 166 165 184
f 198 197 184
f 197 196 184
f 150 176 184
f 154 153 184
f 151 149 184
f 184 178 177
f 159 158 184
f 162 161 184
f 189 188 184
f 184 194 193
f 184 176 201
f 201 200 184
f 184 190 189
f 184 196 195
f 195 194 184
f 184 200 199
f 191 190 184
f 184 188 187
f 187 186 184
f 184 186 185
f 184 183 182
