v -0.089684 -0.000594 0.058986
v -0.100698 -0.000594 0.058986
v -0.089684 -0.000952 0.058986
v -0.089683 -0.028453 0.051662
v -0.089684 -0.000594 0.053123
v -0.102596 -0.000594 0.058932
v -0.100698 -0.000952 0.058986
v -0.100698 -0.002847 0.058902
v -0.089684 -0.003117 0.058889
v -0.089684 -0.028453 0.051662
v -0.089683 -0.029045 0.051336
v -0.089683 -0.028453 0.045119
v -0.089684 -0.004234 0.058835
v -0.089684 -0.005178 0.058781
v -0.089684 -0.006648 0.058629
v -0.089684 -0.007011 0.058579
v -0.089684 -0.008543 0.058364
v -0.089684 -0.008911 0.058303
v -0.089684 -0.010443 0.058047
v -0.089684 -0.012338 0.057667
v -0.089684 -0.012706 0.057586
v -0.089684 -0.014233 0.057239
v -0.089684 -0.014456 0.057186
v -0.089684 -0.015365 0.056963
v -0.089684 -0.016315 0.056687
v -0.089684 -0.016647 0.056586
v -0.089684 -0.018028 0.056156
v -0.089684 -0.019928 0.055526
v -0.089684 -0.020157 0.055449
v -0.089684 -0.021112 0.055112
v -0.089684 -0.021294 0.055035
v -0.089684 -0.022057 0.054708
v -0.089684 -0.022379 0.054570
v -0.089684 -0.023718 0.053991
v -0.089684 -0.025182 0.053349
v -0.089684 -0.025369 0.053264
v -0.089684 -0.026132 0.052911
v -0.089684 -0.026402 0.052770
v -0.089684 -0.027508 0.052181
v -0.102596 -0.000594 0.053995
v -0.089683 -0.029299 0.044167
v -0.089683 -0.046951 0.024608
v -0.102597 -0.048047 0.024608
v -0.103590 -0.000594 0.058842
v -0.102596 -0.000952 0.058932
v -0.101934 -0.004073 0.058828
v -0.100698 -0.004213 0.058835
v -0.098801 -0.004228 0.058835
v -0.096908 -0.004234 0.058835
v -0.096338 -0.028453 0.051659
v -0.100700 -0.028858 0.051433
v -0.100700 -0.029803 0.050908
v -0.091214 -0.029808 0.050908
v -0.089683 -0.029808 0.050908
v -0.096908 -0.005178 0.058781
v -0.091215 -0.006648 0.058629
v -0.093113 -0.008543 0.058367
v -0.096908 -0.010443 0.058067
v -0.093113 -0.010443 0.058061
v -0.091215 -0.010443 0.058054
v -0.096908 -0.012338 0.057677
v -0.100698 -0.014233 0.057236
v -0.100698 -0.015365 0.056963
v -0.098801 -0.012338 0.057677
v -0.100698 -0.016315 0.056687
v -0.098801 -0.018028 0.056152
v -0.100698 -0.019928 0.055526
v -0.096908 -0.021112 0.055116
v -0.093113 -0.021112 0.055116
v -0.091215 -0.022062 0.054708
v -0.100698 -0.023718 0.053991
v -0.091215 -0.025182 0.053349
v -0.096908 -0.025177 0.053349
v -0.091215 -0.026132 0.052911
v -0.098801 -0.027508 0.052171
v -0.100698 -0.028453 0.051656
v -0.103990 -0.000594 0.054547
v -0.103945 -0.048670 0.024608
v -0.089683 -0.053519 0.024608
v -0.104089 -0.000594 0.057862
v -0.103590 -0.000952 0.058842
v -0.103557 -0.002084 0.058818
v -0.102578 -0.002769 0.058852
v -0.103199 -0.003346 0.058774
v -0.102578 -0.004722 0.058720
v -0.100698 -0.006648 0.058616
v -0.100698 -0.005163 0.058778
v -0.102597 -0.028796 0.051403
v -0.102597 -0.029741 0.050861
v -0.102557 -0.031469 0.049804
v -0.100700 -0.031308 0.049986
v -0.089683 -0.030099 0.050730
v -0.096908 -0.006648 0.058623
v -0.095010 -0.008543 0.058367
v -0.100698 -0.010443 0.058061
v -0.100698 -0.012338 0.057674
v -0.102231 -0.015302 0.056947
v -0.100698 -0.018028 0.056149
v -0.102596 -0.019928 0.055459
v -0.102596 -0.021039 0.055082
v -0.100698 -0.021112 0.055112
v -0.100698 -0.022062 0.054708
v -0.102596 -0.025104 0.053315
v -0.100698 -0.025172 0.053349
v -0.095010 -0.026127 0.052908
v -0.100698 -0.027508 0.052167
v -0.100698 -0.026122 0.052901
v -0.104083 -0.000594 0.054809
v -0.104216 -0.049386 0.024608
v -0.104447 -0.050279 0.024608
v -0.089683 -0.053347 0.025127
v -0.098801 -0.053633 0.024608
v -0.104413 -0.000594 0.056317
v -0.104509 -0.002847 0.055964
v -0.104524 -0.004748 0.055964
v -0.104537 -0.006648 0.055964
v -0.104089 -0.000952 0.057862
v -0.104043 -0.004748 0.057764
v -0.104043 -0.006648 0.057650
v -0.104034 -0.008543 0.057522
v -0.103986 -0.010443 0.057391
v -0.103870 -0.012338 0.057219
v -0.102596 -0.006648 0.058502
v -0.103710 -0.013906 0.057051
v -0.102596 -0.008543 0.058242
v -0.100698 -0.008543 0.058357
v -0.102596 -0.028453 0.051585
v -0.103478 -0.028453 0.051450
v -0.103657 -0.028645 0.051316
v -0.103163 -0.032212 0.049283
v -0.101898 -0.032279 0.049337
v -0.100700 -0.032295 0.049347
v -0.089683 -0.031308 0.049986
v -0.102596 -0.010443 0.057963
v -0.102596 -0.012338 0.057600
v -0.102757 -0.014420 0.057125
v -0.103496 -0.015167 0.056906
v -0.103580 -0.020935 0.055042
v -0.103675 -0.024912 0.053227
v -0.102596 -0.026049 0.052850
v -0.102596 -0.027508 0.052083
v -0.104487 -0.000594 0.055964
v -0.104441 -0.051286 0.024608
v -0.104522 -0.050279 0.025608
v -0.089683 -0.053036 0.025780
v -0.098801 -0.052922 0.026123
v -0.098801 -0.053368 0.025174
v -0.099538 -0.053628 0.024608
v -0.104528 -0.016128 0.054066
v -0.104534 -0.008543 0.055964
v -0.104483 -0.010443 0.055964
v -0.104368 -0.012338 0.055964
v -0.103963 -0.018028 0.055489
v -0.103746 -0.019928 0.055203
v -0.103694 -0.028453 0.051370
v -0.103839 -0.030945 0.049683
v -0.103720 -0.034403 0.047600
v -0.102597 -0.034574 0.047724
v -0.102557 -0.033032 0.048778
v -0.100700 -0.034626 0.047761
v -0.100700 -0.033245 0.048711
v -0.089683 -0.032477 0.049226
v -0.089683 -0.032295 0.049347
v -0.103872 -0.023718 0.053473
v -0.103868 -0.027508 0.051612
v -0.104373 -0.050279 0.027503
v -0.104197 -0.052210 0.024608
v -0.104506 -0.048384 0.029405
v -0.104509 -0.042689 0.036991
v -0.104511 -0.036999 0.042679
v -0.104518 -0.025618 0.050272
v -0.089683 -0.052159 0.027503
v -0.089683 -0.051458 0.028866
v -0.098801 -0.052195 0.027503
v -0.100700 -0.052190 0.027503
v -0.100700 -0.052917 0.026109
v -0.100700 -0.053617 0.024608
v -0.104519 -0.021823 0.052167
v -0.104461 -0.018028 0.054066
v -0.104245 -0.019928 0.054066
v -0.103949 -0.021673 0.054096
v -0.103926 -0.033203 0.048000
v -0.103931 -0.028453 0.050932
v -0.103989 -0.029330 0.050296
v -0.104005 -0.035062 0.046479
v -0.103803 -0.036459 0.045850
v -0.102597 -0.037663 0.045288
v -0.102597 -0.036713 0.046062
v -0.102597 -0.035524 0.047011
v -0.100700 -0.035576 0.047061
v -0.096908 -0.034631 0.047761
v -0.096908 -0.035581 0.047065
v -0.095010 -0.035581 0.047068
v -0.089683 -0.033245 0.048711
v -0.104371 -0.023718 0.052167
v -0.104013 -0.025572 0.052231
v -0.104367 -0.027508 0.050272
v -0.104012 -0.052236 0.025558
v -0.103872 -0.051619 0.027503
v -0.103989 -0.050300 0.029320
v -0.104118 -0.048561 0.031478
v -0.104418 -0.046484 0.033201
v -0.103939 -0.052885 0.024608
v -0.104490 -0.044589 0.035096
v -0.104118 -0.042819 0.039010
v -0.104128 -0.040934 0.040922
v -0.104121 -0.039023 0.042807
v -0.104486 -0.035104 0.044577
v -0.104508 -0.029408 0.048371
v -0.104438 -0.028453 0.049330
v -0.089683 -0.050928 0.029815
v -0.096908 -0.051468 0.028873
v -0.100700 -0.051452 0.028842
v -0.102597 -0.051416 0.028782
v -0.102597 -0.052101 0.027503
v -0.102597 -0.052859 0.026029
v -0.102597 -0.053321 0.025080
v -0.102597 -0.053534 0.024608
v -0.104121 -0.031469 0.048539
v -0.104425 -0.033203 0.046476
v -0.104172 -0.028453 0.050282
v -0.104085 -0.037051 0.044651
v -0.103854 -0.038473 0.044066
v -0.102597 -0.039735 0.043521
v -0.102597 -0.038785 0.044338
v -0.100700 -0.037720 0.045341
v -0.100700 -0.036770 0.046112
v -0.098801 -0.036775 0.046116
v -0.096908 -0.036781 0.046116
v -0.089683 -0.036791 0.046122
v -0.089683 -0.034631 0.047761
v -0.091214 -0.035581 0.047071
v -0.103717 -0.053296 0.024608
v -0.103669 -0.053233 0.024891
v -0.103660 -0.051333 0.028634
v -0.103836 -0.049682 0.030963
v -0.103919 -0.048021 0.033201
v -0.104003 -0.046494 0.035049
v -0.104086 -0.044656 0.037048
v -0.103865 -0.042268 0.040380
v -0.103848 -0.044075 0.038458
v -0.103864 -0.040389 0.042258
v -0.096908 -0.050923 0.029822
v -0.089683 -0.050025 0.031299
v -0.095010 -0.050025 0.031299
v -0.100700 -0.050907 0.029792
v -0.102103 -0.049365 0.032292
v -0.103366 -0.049313 0.032228
v -0.100700 -0.039787 0.043571
v -0.100700 -0.038837 0.044392
v -0.102597 -0.041656 0.041653
v -0.098801 -0.037725 0.045345
v -0.093111 -0.037736 0.045352
v -0.089683 -0.036978 0.045974
v -0.089683 -0.035581 0.047071
v -0.103711 -0.047600 0.034383
v -0.103810 -0.045866 0.036456
v -0.102597 -0.043535 0.039724
v -0.102597 -0.042585 0.040700
v -0.096908 -0.050020 0.031299
v -0.098801 -0.050014 0.031299
v -0.100700 -0.050004 0.031299
v -0.089683 -0.049506 0.032121
v -0.100700 -0.049381 0.032316
v -0.100700 -0.047761 0.034605
v -0.100700 -0.047081 0.035554
v -0.102597 -0.047725 0.034554
v -0.102597 -0.047029 0.035503
v -0.093111 -0.039797 0.043585
v -0.095010 -0.038847 0.044402
v -0.100700 -0.041708 0.041700
v -0.100700 -0.043587 0.039778
v -0.100700 -0.042637 0.040751
v -0.089683 -0.037959 0.045173
v -0.089683 -0.037741 0.045355
v -0.102597 -0.046079 0.036715
v -0.102597 -0.045295 0.037664
v -0.100700 -0.045347 0.037721
v -0.089683 -0.049381 0.032316
v -0.098801 -0.047761 0.034605
v -0.098801 -0.047081 0.035554
v -0.095010 -0.046126 0.036782
v -0.098801 -0.046131 0.036776
v -0.100700 -0.046131 0.036772
v -0.091214 -0.039802 0.043585
v -0.093111 -0.038852 0.044402
v -0.098801 -0.042642 0.040751
v -0.089683 -0.041708 0.041703
v -0.096908 -0.043587 0.039781
v -0.089683 -0.045363 0.037731
v -0.089683 -0.044599 0.038620
v -0.089683 -0.038852 0.044406
v -0.089683 -0.048706 0.033265
v -0.091214 -0.047761 0.034595
v -0.091214 -0.047071 0.035544
v -0.089683 -0.046302 0.036543
v -0.091214 -0.046121 0.036782
v -0.089683 -0.045508 0.037550
v -0.089683 -0.039797 0.043585
v -0.089683 -0.040763 0.042635
v -0.089683 -0.042824 0.040565
v -0.089683 -0.043748 0.039599
v -0.089683 -0.043587 0.039781
v -0.089683 -0.047756 0.034591
v -0.089683 -0.047200 0.035355
v -0.089683 -0.047065 0.035537
v -0.089683 -0.046115 0.036782
f 12 41 5
f 42 43 5
f 5 41 42
f 5 43 40
f 77 40 78
f 78 40 43
f 4 1 3
f 3 9 4
f 61 20 58
f 110 77 109
f 77 78 109
f 130 129 157
f 157 129 156
f 4 24 25
f 27 67 28
f 4 27 28
f 98 99 67
f 207 220 208
f 251 249 224
f 157 156 182
f 93 55 87
f 9 3 8
f 22 62 63
f 4 18 19
f 19 20 4
f 14 15 4
f 120 151 121
f 116 117 80
f 108 77 110
f 110 142 108
f 128 129 88
f 128 139 129
f 89 52 88
f 88 129 89
f 129 130 89
f 33 34 4
f 4 34 35
f 63 62 97
f 62 96 97
f 99 98 97
f 26 27 4
f 4 25 26
f 29 30 4
f 4 28 29
f 29 28 67
f 66 67 27
f 66 98 67
f 220 207 222
f 121 151 152
f 152 151 179
f 150 119 117
f 150 117 116
f 150 120 119
f 151 120 150
f 208 220 209
f 233 218 234
f 234 218 217
f 166 143 167
f 110 143 144
f 144 143 166
f 144 142 110
f 257 238 256
f 257 239 238
f 205 240 206
f 271 249 251
f 271 287 288
f 251 240 259
f 259 272 251
f 284 290 278
f 278 290 272
f 223 224 186
f 186 222 223
f 223 222 207
f 227 188 226
f 184 182 156
f 112 79 111
f 93 87 86
f 86 87 46
f 7 8 3
f 7 45 46
f 46 8 7
f 46 87 47
f 47 8 46
f 47 87 55
f 21 20 61
f 61 22 21
f 4 20 21
f 21 22 4
f 23 63 24
f 23 22 63
f 23 24 4
f 4 22 23
f 57 94 58
f 93 94 56
f 56 55 93
f 61 58 64
f 58 96 64
f 64 96 62
f 64 22 61
f 62 22 64
f 59 58 20
f 118 81 117
f 117 119 118
f 119 81 118
f 121 152 122
f 84 122 124
f 142 144 114
f 4 37 38
f 88 52 51
f 129 139 155
f 139 165 155
f 155 156 129
f 155 165 156
f 179 178 195
f 195 171 197
f 195 178 171
f 11 51 52
f 4 30 31
f 36 37 4
f 4 35 36
f 136 97 96
f 27 26 65
f 65 66 27
f 65 26 25
f 98 66 65
f 63 97 65
f 65 97 98
f 185 222 186
f 185 186 157
f 157 182 185
f 185 182 220
f 220 222 185
f 197 171 210
f 171 209 210
f 210 220 197
f 210 209 220
f 171 178 149
f 149 150 116
f 149 178 179
f 116 144 149
f 149 144 171
f 179 151 149
f 151 150 149
f 166 200 201
f 236 201 200
f 199 200 166
f 233 234 199
f 199 234 235
f 235 236 199
f 199 236 200
f 239 205 204
f 170 209 171
f 171 144 170
f 208 209 170
f 170 207 208
f 206 207 170
f 239 257 241
f 240 205 241
f 241 205 239
f 251 272 273
f 273 271 251
f 272 287 273
f 287 271 273
f 285 271 288
f 272 290 291
f 288 287 301
f 284 278 276
f 276 278 277
f 276 257 256
f 277 257 276
f 224 223 242
f 242 240 251
f 251 224 242
f 242 223 207
f 206 240 242
f 242 207 206
f 250 224 249
f 226 250 252
f 187 226 188
f 157 186 187
f 187 188 157
f 156 165 183
f 183 184 156
f 183 165 197
f 221 183 197
f 184 183 221
f 220 182 219
f 182 184 219
f 184 221 219
f 197 220 219
f 219 221 197
f 214 235 215
f 214 215 175
f 175 215 176
f 217 218 177
f 177 176 217
f 112 111 147
f 173 174 146
f 176 147 146
f 174 175 146
f 146 175 176
f 146 111 145
f 146 147 111
f 173 211 212
f 212 174 173
f 212 175 174
f 248 235 214
f 256 236 248
f 248 236 235
f 95 96 58
f 17 18 4
f 17 57 58
f 17 59 18
f 58 59 17
f 20 19 60
f 60 59 20
f 60 19 18
f 18 59 60
f 85 86 46
f 46 84 85
f 45 81 82
f 82 84 46
f 82 120 121
f 121 122 82
f 122 84 82
f 119 120 82
f 82 81 119
f 142 114 113
f 113 114 80
f 116 80 115
f 80 114 115
f 115 144 116
f 115 114 144
f 189 188 227
f 227 190 189
f 157 188 189
f 92 91 133
f 127 128 88
f 127 141 128
f 88 106 127
f 4 38 39
f 164 165 139
f 164 139 138
f 54 11 53
f 53 11 52
f 52 91 53
f 53 92 54
f 91 92 53
f 32 33 4
f 4 31 32
f 34 33 70
f 33 32 70
f 70 32 31
f 100 99 138
f 67 99 100
f 100 71 102
f 67 100 101
f 101 100 102
f 97 136 137
f 138 99 137
f 99 97 137
f 201 236 237
f 256 238 237
f 237 236 256
f 233 199 203
f 166 201 202
f 202 237 238
f 201 237 202
f 238 239 202
f 239 204 202
f 169 170 144
f 206 170 169
f 169 205 206
f 169 204 205
f 272 259 258
f 258 257 277
f 258 241 257
f 258 259 240
f 240 241 258
f 258 278 272
f 277 278 258
f 300 285 288
f 299 285 300
f 249 271 269
f 271 285 269
f 292 285 299
f 267 266 268
f 268 276 256
f 284 276 268
f 268 266 284
f 256 248 268
f 268 248 267
f 225 250 226
f 226 187 225
f 224 250 225
f 186 224 225
f 225 187 186
f 217 176 216
f 176 215 216
f 216 234 217
f 235 234 216
f 216 215 235
f 176 177 148
f 112 147 148
f 148 147 176
f 173 146 172
f 172 146 145
f 211 244 245
f 245 264 260
f 243 212 211
f 243 245 260
f 211 245 243
f 267 248 247
f 247 264 265
f 247 248 214
f 265 266 247
f 247 266 267
f 126 95 58
f 58 94 126
f 126 94 93
f 93 86 126
f 8 47 48
f 48 49 8
f 48 47 55
f 55 49 48
f 4 9 13
f 13 14 4
f 9 8 13
f 8 49 13
f 15 57 16
f 57 17 16
f 4 15 16
f 16 17 4
f 46 45 83
f 83 82 46
f 45 82 83
f 161 131 160
f 228 190 227
f 275 254 253
f 253 228 252
f 254 228 253
f 90 131 91
f 52 89 90
f 90 91 52
f 90 89 130
f 130 131 90
f 161 194 162
f 132 131 161
f 91 131 132
f 132 162 163
f 161 162 132
f 4 39 10
f 10 11 4
f 51 11 10
f 76 106 88
f 88 51 76
f 165 164 196
f 196 164 195
f 197 165 196
f 196 195 197
f 124 122 153
f 153 152 179
f 153 122 152
f 69 31 30
f 69 70 31
f 30 29 69
f 95 126 134
f 124 137 134
f 167 203 198
f 198 203 199
f 166 167 198
f 198 199 166
f 168 169 144
f 204 169 168
f 168 202 204
f 168 144 166
f 166 202 168
f 289 302 303
f 289 287 272
f 291 302 289
f 272 291 289
f 303 301 289
f 289 301 287
f 305 294 304
f 295 294 305
f 305 306 295
f 295 306 296
f 279 264 263
f 263 245 244
f 264 245 263
f 260 264 261
f 261 243 260
f 246 247 214
f 161 160 191
f 193 191 160
f 158 189 190
f 190 160 158
f 158 160 131
f 158 130 157
f 157 189 158
f 254 230 229
f 229 228 254
f 229 230 190
f 190 228 229
f 275 253 274
f 274 253 252
f 106 76 75
f 75 76 39
f 75 39 38
f 50 76 51
f 39 76 50
f 51 10 50
f 50 10 39
f 154 164 138
f 154 153 164
f 124 153 154
f 138 137 154
f 154 137 124
f 179 195 180
f 180 153 179
f 195 164 180
f 68 101 102
f 67 101 68
f 68 29 67
f 68 69 29
f 71 104 73
f 106 75 107
f 107 127 106
f 141 127 107
f 135 137 136
f 135 134 137
f 135 136 96
f 96 95 135
f 95 134 135
f 86 85 123
f 123 85 84
f 283 290 284
f 283 282 290
f 284 266 283
f 266 282 283
f 293 304 294
f 293 280 279
f 294 280 293
f 294 295 281
f 281 280 294
f 281 295 296
f 296 297 281
f 281 282 266
f 281 297 282
f 214 175 213
f 213 246 214
f 175 212 213
f 262 246 243
f 243 261 262
f 262 261 264
f 264 247 262
f 247 246 262
f 192 160 190
f 192 193 160
f 190 230 192
f 230 193 192
f 232 230 255
f 232 193 230
f 191 193 232
f 159 131 130
f 130 158 159
f 159 158 131
f 270 252 250
f 270 274 252
f 270 250 249
f 249 269 270
f 270 269 285
f 164 153 181
f 181 180 164
f 153 180 181
f 72 36 35
f 72 73 36
f 71 73 72
f 37 36 74
f 74 38 37
f 36 73 74
f 74 73 104
f 74 75 38
f 103 107 104
f 138 139 103
f 103 100 138
f 71 100 103
f 103 104 71
f 125 134 126
f 125 123 84
f 125 84 124
f 124 134 125
f 307 297 296
f 292 274 286
f 274 270 286
f 285 292 286
f 286 270 285
f 104 107 105
f 105 74 104
f 105 107 75
f 75 74 105
f 141 107 140
f 107 103 140
f 128 141 140
f 139 128 140
f 140 103 139
f 297 307 298
f 290 282 298
f 282 297 298
f 12 5 1
f 12 1 4
f 80 81 44
f 117 81 80
f 44 81 6
f 6 81 45
f 1 2 7
f 7 3 1
f 2 6 7
f 7 6 45
f 94 57 56
f 56 57 15
f 56 14 55
f 15 14 56
f 65 25 24
f 24 63 65
f 113 2 1
f 1 5 113
f 77 108 113
f 5 40 113
f 113 40 77
f 113 80 44
f 113 6 2
f 113 108 142
f 44 6 113
f 71 70 102
f 34 70 71
f 148 143 110
f 148 79 112
f 148 42 79
f 110 109 148
f 43 42 148
f 148 78 43
f 148 109 78
f 233 203 148
f 148 218 233
f 148 167 143
f 148 177 218
f 148 203 167
f 55 14 13
f 13 49 55
f 226 252 228
f 227 226 228
f 132 163 133
f 133 91 132
f 280 264 279
f 265 264 280
f 191 231 194
f 191 194 161
f 102 70 68
f 70 69 68
f 265 280 281
f 281 266 265
f 243 246 213
f 212 243 213
f 255 231 232
f 231 191 232
f 34 71 72
f 72 35 34
f 86 123 125
f 125 126 86
f 298 12 4
f 79 42 298
f 298 231 255
f 275 274 298
f 41 12 298
f 133 163 298
f 298 42 41
f 288 301 298
f 298 111 79
f 298 291 290
f 298 306 305
f 298 293 279
f 173 172 298
f 4 11 298
f 303 302 298
f 298 300 288
f 145 111 298
f 298 211 173
f 298 92 133
f 298 11 54
f 298 292 299
f 298 301 303
f 298 244 211
f 194 231 298
f 298 254 275
f 54 92 298
f 255 230 298
f 299 300 298
f 279 263 298
f 298 302 291
f 298 162 194
f 298 172 145
f 298 230 254
f 163 162 298
f 296 306 298
f 305 304 298
f 298 263 244
f 298 274 292
f 304 293 298
f 298 307 296
