v -0.000117 0.024744 0.013597
v -0.000117 0.024153 0.009063
v -0.001574 0.024080 0.009063
v -0.003030 0.023973 0.009063
v -0.003030 0.024500 0.013597
v -0.025083 0.010480 0.018663
v 0.001346 0.024686 0.013597
v 0.001346 0.024105 0.009063
v 0.002815 0.023504 0.008011
v 0.001346 0.023553 0.008011
v -0.000117 0.023572 0.008011
v -0.001574 0.023543 0.008011
v -0.003030 0.023494 0.008011
v -0.004506 0.023406 0.008034
v -0.005963 0.023269 0.008131
v -0.004506 0.023787 0.009063
v -0.004506 0.024339 0.013597
v -0.003651 0.024442 0.013597
v -0.039878 0.003211 0.018663
v -0.025083 -0.006725 0.018663
v 0.024823 0.000349 0.013597
v 0.024779 0.001824 0.013597
v 0.024640 0.002952 0.013597
v 0.024608 0.003187 0.013597
v 0.024431 0.004135 0.013597
v 0.024304 0.004750 0.013597
v 0.023614 0.007637 0.013597
v 0.023101 0.008951 0.013597
v 0.022290 0.010744 0.013597
v 0.021682 0.011946 0.013597
v 0.021517 0.012234 0.013597
v 0.020631 0.013763 0.013597
v 0.020238 0.014369 0.013597
v 0.019883 0.014867 0.013597
v 0.018541 0.016401 0.013597
v 0.017280 0.017759 0.013597
v 0.015925 0.018951 0.013597
v 0.014424 0.020177 0.013597
v 0.013563 0.020753 0.013597
v 0.011587 0.021906 0.013597
v 0.011448 0.021975 0.013597
v 0.010086 0.022610 0.013597
v 0.009947 0.022668 0.013597
v 0.008674 0.023181 0.013597
v 0.007939 0.023474 0.013597
v 0.007261 0.023719 0.013597
v 0.006957 0.023811 0.013597
v 0.005627 0.024119 0.013597
v 0.004278 0.024339 0.013597
v 0.003696 0.024417 0.013597
v 0.002815 0.024530 0.013597
v 0.001884 0.024637 0.013597
v -0.004740 0.024305 0.013597
v -0.005868 0.024080 0.013597
v -0.007432 0.023616 0.013597
v -0.007964 0.023421 0.013597
v -0.010453 0.022502 0.013597
v 0.002815 0.023992 0.009063
v 0.004278 0.023421 0.008026
v -0.007438 0.014730 0.002298
v -0.008895 0.014545 0.002371
v -0.006919 0.023152 0.008249
v -0.039878 0.003201 0.016394
v -0.039878 -0.006725 0.018663
v -0.011688 0.021887 0.013597
v -0.014240 0.020289 0.013597
v 0.000371 -0.025161 0.013597
v 0.001770 -0.025122 0.013597
v 0.004785 -0.024951 0.013597
v 0.009313 -0.023622 0.013597
v 0.012239 -0.022181 0.013597
v 0.013677 -0.021175 0.013597
v 0.014582 -0.020471 0.013597
v 0.014741 -0.020335 0.013597
v 0.015995 -0.019250 0.013597
v 0.017021 -0.018273 0.013597
v 0.017388 -0.017882 0.013597
v 0.018420 -0.016734 0.013597
v 0.018851 -0.016192 0.013597
v 0.019693 -0.015064 0.013597
v 0.020111 -0.014477 0.013597
v 0.021410 -0.012475 0.013597
v 0.021726 -0.011903 0.013597
v 0.022062 -0.011248 0.013597
v 0.022714 -0.009890 0.013597
v 0.022809 -0.009675 0.013597
v 0.023031 -0.009153 0.013597
v 0.023278 -0.008493 0.013597
v 0.023734 -0.007023 0.013597
v 0.024500 -0.004014 0.013597
v 0.024621 -0.002856 0.013597
v 0.024754 -0.001219 0.013597
v 0.024095 -0.002094 0.008303
v 0.024127 -0.001088 0.008252
v 0.024146 0.000349 0.008235
v 0.024101 0.001824 0.008290
v 0.024070 0.002566 0.008329
v 0.023696 0.004750 0.009063
v 0.023367 0.006225 0.009063
v 0.022645 0.008497 0.008288
v 0.021232 0.011501 0.008230
v 0.019643 0.014256 0.009063
v 0.018262 0.015820 0.008273
v 0.016850 0.017319 0.008235
v 0.015317 0.018716 0.008298
v 0.015893 0.018980 0.013595
v 0.013626 0.020016 0.009063
v 0.010922 0.021642 0.008299
v 0.007673 0.022971 0.009063
v 0.006774 0.023167 0.008228
v 0.005748 0.023518 0.009063
v 0.004278 0.023821 0.009063
v -0.010345 0.021916 0.009063
v -0.011074 0.021603 0.009063
v -0.008895 0.022488 0.009063
v 0.005748 0.023294 0.008110
v -0.006368 0.014574 0.002354
v -0.007438 0.013558 0.002128
v -0.008895 0.013558 0.002226
v -0.009649 0.014315 0.002453
v -0.010092 0.021809 0.008146
v -0.039878 0.002772 0.015196
v -0.013734 0.019947 0.009063
v -0.012847 0.020319 0.008167
v -0.011872 -0.022269 0.013597
v -0.008946 -0.023612 0.013597
v -0.004512 -0.024946 0.013597
v -0.001605 -0.025132 0.013597
v -0.039878 -0.006725 0.014503
v -0.012999 0.020421 0.009063
v 0.001346 -0.023994 0.008128
v -0.000117 -0.024228 0.009063
v 0.002815 -0.023940 0.008184
v 0.003841 -0.023881 0.008252
v 0.008389 -0.022533 0.008154
v 0.010149 -0.021976 0.009063
v 0.011568 -0.021277 0.009063
v 0.014032 -0.019587 0.008175
v 0.014886 -0.019104 0.009063
v 0.015767 -0.018366 0.009063
v 0.016489 -0.017731 0.009063
v 0.017236 -0.016998 0.009063
v 0.017971 -0.016221 0.009063
v 0.018604 -0.015484 0.009063
v 0.019332 -0.014590 0.009063
v 0.019883 -0.013857 0.009063
v 0.021036 -0.011962 0.009063
v 0.021467 -0.011224 0.009063
v 0.020510 -0.012826 0.009063
v 0.022068 -0.009890 0.009063
v 0.022809 -0.008190 0.009063
v 0.023196 -0.006959 0.009063
v 0.023525 -0.005484 0.009063
v 0.023842 -0.004028 0.009063
v 0.024032 -0.003017 0.009063
v 0.022740 -0.008015 0.008189
v 0.022885 -0.006959 0.008066
v 0.023037 -0.005484 0.008011
v 0.009560 -0.013886 0.002361
v 0.009592 -0.012826 0.002333
v 0.023341 0.000349 0.007916
v 0.023341 0.001824 0.007969
v 0.023113 0.004750 0.008011
v 0.022961 0.006225 0.008026
v 0.022778 0.007691 0.008154
v 0.021422 0.010617 0.008097
v 0.020422 0.012034 0.008018
v 0.019947 0.013284 0.008120
v 0.018591 0.015009 0.008131
v 0.017388 0.016376 0.008110
v 0.015881 0.017857 0.008125
v 0.014538 0.018980 0.008146
v 0.012708 0.020368 0.008142
v 0.010149 0.021799 0.008157
v 0.008674 0.022067 0.008021
v 0.011492 0.020856 0.008071
v 0.013145 0.019498 0.007963
v 0.014538 0.017954 0.007830
v 0.016007 0.016474 0.007781
v 0.017477 0.015009 0.007812
v 0.019073 0.013685 0.007950
v 0.020409 0.010617 0.007780
v 0.009510 -0.011957 0.002395
v 0.008680 -0.012826 0.002163
v 0.007217 -0.012826 0.002128
v -0.007438 0.012092 0.002147
v -0.008920 0.012092 0.002286
v -0.009731 0.012581 0.002388
v -0.009718 0.013558 0.002396
v -0.017002 0.017251 0.008286
v -0.014475 0.019009 0.008120
v -0.034659 0.001365 0.009686
v -0.033449 0.002996 0.009597
v -0.039878 0.002654 0.014927
v -0.011675 -0.021229 0.009063
v -0.011473 -0.021106 0.008136
v -0.010358 -0.021869 0.009063
v -0.008534 -0.022504 0.008173
v -0.039865 -0.006725 0.014193
v -0.003999 -0.023871 0.008261
v -0.003030 -0.023930 0.008194
v -0.001574 -0.023984 0.008134
v -0.039878 -0.005499 0.014193
v -0.000117 -0.024018 0.008105
v 0.007217 -0.015186 0.002348
v 0.008268 -0.015161 0.002364
v 0.011327 -0.021136 0.008121
v 0.015589 -0.018224 0.008131
v 0.017059 -0.016817 0.008120
v 0.018465 -0.015323 0.008136
v 0.019807 -0.013750 0.008197
v 0.021346 -0.011019 0.008134
v 0.008731 -0.014341 0.002275
v 0.021872 0.007691 0.007836
v 0.007217 -0.014292 0.002176
v 0.006140 -0.014292 0.002340
v -0.032360 -0.002563 0.009230
v -0.033823 -0.001097 0.009363
v -0.033823 0.000363 0.009306
v -0.034735 0.000363 0.009607
v -0.039878 0.002371 0.014565
v -0.039878 0.001746 0.014193
v -0.014183 -0.019533 0.008207
v -0.013290 -0.019802 0.008079
v 0.006375 -0.015098 0.002411
v -0.010358 -0.021356 0.008026
v -0.007432 -0.022670 0.008055
v -0.034678 -0.001097 0.009664
v -0.034589 -0.001889 0.009764
v -0.033291 -0.003486 0.009643
v -0.017211 -0.016759 0.008136
v -0.015735 -0.018166 0.008160
v -0.019155 -0.012826 0.007804
v -0.033798 -0.002451 0.009563
v -0.014709 -0.018669 0.008024
v -0.016223 -0.017238 0.007984
v -0.017698 -0.015743 0.007992
f 6 20 21
f 67 20 64
f 7 6 52
f 19 6 57
f 69 70 20
f 20 70 71
f 64 125 126
f 62 61 121
f 118 119 60
f 60 119 61
f 93 156 157
f 21 20 92
f 92 93 21
f 89 90 20
f 68 20 67
f 68 69 20
f 207 138 137
f 138 71 137
f 137 136 207
f 137 71 70
f 70 136 137
f 188 217 218
f 66 63 19
f 220 203 222
f 221 193 222
f 209 141 208
f 144 78 143
f 206 138 207
f 206 208 138
f 209 208 206
f 64 126 127
f 124 121 120
f 120 121 61
f 61 119 120
f 62 121 113
f 6 48 49
f 112 49 48
f 6 7 1
f 22 6 21
f 27 28 6
f 27 100 28
f 6 33 34
f 149 146 211
f 102 34 33
f 20 90 91
f 91 92 20
f 90 93 91
f 93 92 91
f 20 87 88
f 88 89 20
f 20 76 77
f 77 78 20
f 76 143 77
f 77 143 78
f 20 78 79
f 20 81 82
f 82 83 20
f 81 146 82
f 82 146 149
f 75 76 20
f 75 141 76
f 20 71 72
f 72 73 20
f 72 71 138
f 138 73 72
f 138 208 140
f 140 208 141
f 141 75 140
f 219 218 220
f 188 218 219
f 220 218 228
f 122 63 124
f 198 126 125
f 198 127 126
f 76 141 142
f 142 143 76
f 142 141 209
f 209 143 142
f 118 184 185
f 128 132 67
f 67 64 128
f 64 127 128
f 190 120 193
f 190 193 221
f 221 194 190
f 194 122 190
f 190 122 124
f 193 120 192
f 220 222 192
f 192 222 193
f 189 119 188
f 189 120 119
f 188 219 189
f 189 219 220
f 220 192 189
f 189 192 120
f 65 130 66
f 19 57 65
f 65 66 19
f 63 66 123
f 66 130 123
f 124 63 123
f 123 130 124
f 115 57 62
f 62 113 115
f 115 113 57
f 114 121 124
f 114 113 121
f 124 130 114
f 130 65 114
f 57 113 114
f 114 65 57
f 52 6 51
f 38 106 105
f 105 36 104
f 105 106 36
f 38 105 107
f 47 48 6
f 58 7 52
f 52 51 58
f 58 51 112
f 110 112 111
f 111 112 48
f 111 47 110
f 48 47 111
f 62 57 56
f 56 55 62
f 56 57 6
f 6 55 56
f 62 55 54
f 54 16 62
f 53 16 54
f 6 53 54
f 54 55 6
f 24 25 6
f 21 93 94
f 6 25 26
f 26 27 6
f 35 36 6
f 6 34 35
f 6 28 29
f 29 30 6
f 28 100 29
f 32 33 6
f 32 102 33
f 210 143 209
f 144 143 210
f 210 211 144
f 159 206 213
f 159 212 211
f 211 210 159
f 209 206 159
f 159 210 209
f 213 184 159
f 184 160 159
f 156 212 159
f 157 156 159
f 160 94 159
f 144 211 145
f 145 211 146
f 146 79 145
f 145 78 144
f 145 79 78
f 161 160 162
f 183 160 184
f 90 153 154
f 154 153 93
f 89 88 152
f 156 93 152
f 93 153 152
f 90 89 152
f 152 153 90
f 101 29 100
f 30 29 101
f 102 32 101
f 80 81 20
f 20 79 80
f 80 146 81
f 80 79 146
f 86 87 20
f 20 85 86
f 20 83 84
f 84 85 20
f 20 73 74
f 74 75 20
f 73 140 74
f 74 140 75
f 139 73 138
f 138 140 139
f 139 140 73
f 197 198 125
f 227 198 225
f 135 206 207
f 135 134 206
f 207 136 135
f 135 136 70
f 70 69 135
f 69 134 135
f 188 119 187
f 124 120 191
f 191 190 124
f 120 190 191
f 6 49 50
f 50 51 6
f 49 112 50
f 112 51 50
f 6 36 37
f 36 106 37
f 37 38 6
f 37 106 38
f 108 109 45
f 173 174 108
f 108 174 110
f 110 109 108
f 108 105 173
f 108 107 105
f 110 174 175
f 117 175 174
f 180 181 117
f 117 181 182
f 118 60 117
f 182 183 117
f 117 184 118
f 117 183 184
f 173 105 172
f 171 105 104
f 171 172 105
f 34 102 103
f 102 101 103
f 103 101 168
f 103 35 34
f 104 36 103
f 36 35 103
f 182 181 167
f 167 181 168
f 168 101 167
f 60 14 13
f 62 16 15
f 15 61 62
f 16 4 15
f 15 4 14
f 15 60 61
f 15 14 60
f 7 58 8
f 8 1 7
f 2 1 8
f 116 112 110
f 116 58 112
f 116 117 60
f 110 175 116
f 175 117 116
f 6 1 5
f 5 18 6
f 1 4 5
f 5 4 18
f 3 1 2
f 3 4 1
f 2 13 3
f 14 4 3
f 3 13 14
f 18 4 17
f 17 53 6
f 6 18 17
f 17 16 53
f 17 4 16
f 6 22 23
f 23 24 6
f 100 27 99
f 27 26 99
f 6 30 31
f 31 32 6
f 30 101 31
f 31 101 32
f 87 86 151
f 151 88 87
f 156 152 151
f 151 152 88
f 158 93 157
f 157 159 158
f 158 94 93
f 158 159 94
f 163 162 160
f 160 164 163
f 214 164 160
f 160 183 214
f 214 183 182
f 155 93 90
f 90 154 155
f 155 154 93
f 166 101 100
f 166 167 101
f 182 167 166
f 166 214 182
f 85 84 148
f 148 84 83
f 148 212 156
f 83 82 148
f 211 212 148
f 234 228 218
f 234 218 217
f 132 128 202
f 224 225 196
f 196 223 224
f 198 197 196
f 125 195 196
f 196 197 125
f 235 225 224
f 224 223 235
f 233 234 217
f 216 217 188
f 188 187 216
f 216 233 217
f 225 233 216
f 186 187 119
f 186 119 118
f 118 185 186
f 45 109 46
f 6 45 46
f 46 47 6
f 110 47 46
f 46 109 110
f 38 107 39
f 107 108 39
f 39 108 40
f 39 40 6
f 6 38 39
f 176 174 173
f 173 117 176
f 176 117 174
f 177 117 173
f 178 117 177
f 173 172 177
f 177 171 178
f 172 171 177
f 180 117 179
f 179 117 178
f 178 171 179
f 104 103 170
f 170 181 180
f 180 179 170
f 170 171 104
f 170 179 171
f 2 11 12
f 12 13 2
f 12 11 60
f 60 13 12
f 10 11 2
f 60 11 10
f 59 8 58
f 58 116 59
f 59 116 60
f 165 166 100
f 164 214 165
f 214 166 165
f 97 23 22
f 24 23 97
f 164 165 97
f 25 24 97
f 100 99 97
f 97 165 100
f 97 26 25
f 85 148 150
f 150 86 85
f 150 151 86
f 156 151 150
f 150 148 156
f 147 82 149
f 147 148 82
f 149 211 147
f 211 148 147
f 228 234 229
f 229 234 230
f 67 132 131
f 131 68 67
f 206 131 205
f 227 225 205
f 226 225 198
f 198 196 226
f 226 196 225
f 225 235 236
f 232 235 223
f 231 236 232
f 232 236 235
f 230 234 237
f 234 233 237
f 231 230 237
f 237 236 231
f 237 233 225
f 225 236 237
f 215 216 187
f 215 186 185
f 187 186 215
f 225 216 215
f 215 205 225
f 215 184 213
f 215 185 184
f 213 206 215
f 206 205 215
f 44 108 45
f 44 45 6
f 6 40 41
f 41 42 6
f 40 108 41
f 108 42 41
f 169 103 168
f 169 170 103
f 168 181 169
f 181 170 169
f 8 59 9
f 2 8 9
f 9 10 2
f 60 10 9
f 9 59 60
f 95 22 21
f 21 94 95
f 95 160 161
f 95 94 160
f 161 162 95
f 162 163 95
f 98 99 26
f 26 97 98
f 98 97 99
f 199 229 230
f 199 230 231
f 228 229 199
f 231 232 199
f 199 203 220
f 220 228 199
f 199 232 223
f 199 195 125
f 199 196 195
f 223 196 199
f 206 134 133
f 133 131 206
f 68 131 133
f 69 68 133
f 133 134 69
f 202 205 204
f 204 205 131
f 132 202 204
f 204 131 132
f 227 205 200
f 200 198 227
f 127 198 200
f 43 42 108
f 108 44 43
f 6 42 43
f 43 44 6
f 96 97 22
f 22 95 96
f 164 97 96
f 96 163 164
f 96 95 163
f 203 199 129
f 129 125 64
f 129 199 125
f 201 205 202
f 201 200 205
f 201 202 128
f 201 128 127
f 127 200 201
f 20 6 64
f 64 6 19
f 129 64 19
f 19 63 129
f 63 122 129
f 129 194 221
f 221 222 129
f 129 222 203
f 129 122 194
