v -0.028170 -0.028544 0.031892
v -0.028059 -0.028707 0.031892
v 0.039862 -0.000573 0.032030
v -0.022172 -0.033448 0.031882
v -0.015499 -0.036998 0.031877
v 0.039489 -0.005539 0.032015
v 0.038502 -0.010419 0.032000
v 0.035865 -0.017503 0.031976
v 0.031942 -0.023964 0.031954
v 0.026874 -0.029572 0.031933
v 0.020841 -0.034126 0.031915
v 0.014059 -0.037463 0.031899
v 0.006771 -0.039466 0.031887
v -0.000765 -0.040062 0.031879
v -0.008277 -0.039229 0.031876
v 0.000819 -0.049652 -0.103884
v 0.001373 -0.049641 -0.103597
v 0.002179 -0.049614 -0.102894
v 0.002920 -0.049580 -0.101399
v 0.000089 -0.049659 -0.104095
v -0.000894 -0.049651 -0.104132
v -0.001289 -0.049643 -0.104069
v -0.002379 -0.049605 -0.103635
v -0.003503 -0.049543 -0.102549
v -0.004013 -0.049508 -0.101266
v -0.003987 -0.049515 -0.099900
v -0.004058 -0.049506 -0.100927
v 0.047493 -0.000546 0.023420
v 0.047276 -0.000546 0.023744
v 0.056885 -0.000487 0.004044
v 0.056002 -0.009045 0.004018
v 0.056524 -0.006383 0.004026
v 0.056572 -0.005969 0.004028
v 0.056866 -0.001543 0.004041
v -0.013813 -0.047648 -0.104904
v -0.009552 -0.048672 -0.104904
v -0.005219 -0.049319 -0.104903
v -0.000845 -0.049583 -0.104900
v 0.003536 -0.049462 -0.104896
v 0.007888 -0.048958 -0.104891
v 0.012180 -0.048075 -0.104885
v -0.025865 -0.042462 -0.104649
v -0.022013 -0.044563 -0.104652
v -0.017992 -0.046318 -0.104654
v -0.013832 -0.047713 -0.104655
v -0.009565 -0.048739 -0.104654
v -0.005226 -0.049386 -0.104653
v -0.000846 -0.049651 -0.104650
v 0.003540 -0.049530 -0.104646
v 0.007899 -0.049025 -0.104641
v 0.012196 -0.048141 -0.104635
v 0.016400 -0.046882 -0.104628
v 0.020477 -0.045261 -0.104620
v 0.024396 -0.043288 -0.104611
v 0.000225 -0.049679 -0.097231
v 0.001300 -0.049661 -0.097657
v 0.007855 -0.049188 -0.050342
v -0.000174 -0.049679 -0.097168
v 0.003497 -0.049693 -0.050347
v -0.000866 -0.049673 -0.097165
v 0.002434 -0.049614 -0.098747
v 0.002947 -0.049583 -0.100032
v 0.002990 -0.049579 -0.100369
v -0.003248 -0.049572 -0.098408
v -0.009609 -0.048901 -0.050355
v -0.002439 -0.049620 -0.097702
v -0.001885 -0.049645 -0.097416
v -0.001154 -0.049667 -0.097204
v -0.005269 -0.049549 -0.050353
v -0.000890 -0.049813 -0.050351
v -0.025909 -0.042625 -0.050349
v -0.022057 -0.044726 -0.050352
v -0.018035 -0.046481 -0.050354
v -0.013875 -0.047876 -0.050355
v 0.012153 -0.048303 -0.050336
v 0.016356 -0.047045 -0.050329
v 0.020433 -0.045423 -0.050320
v 0.024353 -0.043450 -0.050311
v 0.051546 -0.017251 0.003990
v 0.052328 -0.016327 0.003993
v 0.054593 -0.012768 0.004006
v 0.055633 -0.010262 0.004014
v 0.053221 -0.015115 0.003997
v 0.054257 -0.013416 0.004003
v 0.054261 -0.013408 0.004003
v -0.031037 -0.036370 0.022866
v -0.026288 -0.039926 0.022859
v -0.021799 -0.042532 0.022855
v -0.021134 -0.042865 0.022855
v -0.004066 -0.047577 0.022854
v 0.001866 -0.047698 0.022859
v 0.002961 -0.047639 0.022860
v -0.015655 -0.045141 0.022852
v -0.013896 -0.045709 0.022852
v -0.009937 -0.046720 0.022852
v -0.005554 -0.047430 0.022853
v 0.019427 -0.043547 0.022885
v 0.019112 -0.043687 0.022885
v 0.013545 -0.045738 0.022874
v 0.007766 -0.047082 0.022865
v 0.011377 -0.046331 0.022870
v 0.024381 -0.040961 0.022897
v 0.026853 -0.039376 0.022904
v 0.029272 -0.037602 0.022911
v 0.033418 -0.033951 0.022925
v 0.033707 -0.033662 0.022926
v 0.037619 -0.029202 0.022943
v 0.038915 -0.027444 0.022949
v 0.046725 -0.008652 0.023358
v 0.047091 -0.004261 0.023732
v 0.047321 -0.004280 0.023371
v 0.046498 -0.008612 0.023719
v 0.045664 -0.012312 0.023707
v 0.045887 -0.012370 0.023346
v 0.045596 -0.013408 0.023343
v -0.030997 -0.036324 0.023212
v -0.030848 -0.036149 0.023574
v 0.043583 -0.018981 0.023324
v 0.040894 -0.024261 0.023306
v 0.037570 -0.029166 0.023289
v 0.033663 -0.033620 0.023272
v 0.024349 -0.040909 0.023243
v 0.029233 -0.037555 0.023257
v 0.013527 -0.045680 0.023220
v 0.019087 -0.043632 0.023231
v 0.007756 -0.047022 0.023212
v -0.004061 -0.047516 0.023201
v 0.001863 -0.047637 0.023205
v -0.009924 -0.046661 0.023198
v -0.021107 -0.042810 0.023201
v -0.015636 -0.045084 0.023199
v -0.026254 -0.039875 0.023206
v -0.026128 -0.039683 0.023567
v -0.021006 -0.042604 0.023563
v -0.015561 -0.044866 0.023560
v -0.009877 -0.046436 0.023560
v -0.004042 -0.047287 0.023562
v 0.001853 -0.047407 0.023567
v 0.007717 -0.046795 0.023573
v 0.013460 -0.045460 0.023582
v 0.018993 -0.043421 0.023592
v 0.024230 -0.040712 0.023605
v 0.029091 -0.037374 0.023619
v 0.033499 -0.033458 0.023634
v 0.037387 -0.029025 0.023650
v 0.040695 -0.024144 0.023668
v 0.043371 -0.018890 0.023685
v 0.045374 -0.013345 0.023704
v -0.035000 -0.000000 -0.186000
v -0.039000 0.017964 -0.177915
v -0.040000 0.020365 -0.172689
v -0.039000 0.021251 -0.173153
v -0.040000 0.022332 -0.167504
v -0.039000 0.023303 -0.167744
v -0.040000 0.013065 -0.180929
v -0.040000 0.016330 -0.178197
v -0.040000 0.017216 -0.177252
v -0.039000 0.013634 -0.181752
v -0.039000 0.008511 -0.184440
v -0.040000 0.008156 -0.183505
v -0.039000 0.002893 -0.185825
v -0.040000 0.002772 -0.184832
v -0.039000 -0.002893 -0.185825
v -0.040000 -0.002772 -0.184832
v -0.039000 -0.008511 -0.184440
v -0.040000 -0.008156 -0.183505
v -0.039000 -0.013634 -0.181752
v -0.040000 -0.013065 -0.180929
v -0.039000 -0.017964 -0.177915
v -0.040000 -0.017216 -0.177252
v -0.039000 -0.021251 -0.173153
v -0.040000 -0.020365 -0.172689
v -0.039000 -0.023303 -0.167744
v -0.040000 -0.022332 -0.167504
v -0.014091 0.037420 0.032101
v -0.021537 0.033726 0.032084
v -0.028059 0.028573 0.032063
v 0.039489 0.005405 0.032048
v 0.038502 0.010286 0.032062
v 0.035528 0.018048 0.032083
v 0.031015 0.025027 0.032100
v 0.025156 0.030923 0.032113
v 0.018205 0.035481 0.032121
v 0.010462 0.038504 0.032124
v 0.002262 0.039861 0.032121
v -0.006042 0.039495 0.032114
v 0.039862 0.000440 0.032033
v -0.003141 0.050240 -0.102713
v -0.003510 0.050215 -0.102240
v -0.003948 0.050179 -0.101258
v -0.003987 0.050171 -0.099601
v -0.002553 0.050275 -0.103223
v -0.001716 0.050312 -0.103649
v -0.001290 0.050325 -0.103769
v -0.000028 0.050341 -0.103814
v 0.001369 0.050320 -0.103300
v 0.002556 0.050269 -0.102052
v 0.002920 0.050246 -0.101100
v 0.047493 0.000464 0.023423
v 0.047276 0.000462 0.023747
v 0.056885 0.000521 0.004047
v 0.056002 0.009079 0.004072
v 0.055745 0.009955 0.004075
v 0.054712 0.012560 0.004082
v 0.054261 0.013442 0.004084
v 0.054257 0.013450 0.004084
v 0.053344 0.014967 0.004088
v 0.052328 0.016362 0.004091
v 0.051634 0.017187 0.004093
v 0.056873 0.001284 0.004049
v 0.056572 0.006003 0.004063
v 0.012180 0.048761 -0.104595
v 0.007888 0.049645 -0.104595
v 0.003536 0.050149 -0.104597
v -0.000845 0.050269 -0.104600
v -0.005219 0.050005 -0.104605
v -0.009553 0.049359 -0.104610
v -0.013813 0.048335 -0.104617
v 0.028127 0.041663 -0.104353
v 0.024396 0.043973 -0.104349
v 0.020477 0.045946 -0.104346
v 0.016400 0.047567 -0.104345
v 0.012196 0.048826 -0.104344
v 0.007899 0.049710 -0.104345
v 0.003540 0.050215 -0.104347
v -0.000846 0.050336 -0.104350
v -0.005226 0.050071 -0.104355
v -0.009566 0.049424 -0.104360
v -0.013832 0.048398 -0.104367
v -0.017992 0.047003 -0.104374
v -0.022013 0.045248 -0.104383
v -0.025866 0.043147 -0.104392
v 0.002880 0.050243 -0.099441
v 0.002443 0.050263 -0.098462
v 0.007855 0.049548 -0.050046
v 0.002074 0.050279 -0.097987
v 0.001488 0.050299 -0.097478
v 0.000644 0.050316 -0.097050
v 0.000225 0.050319 -0.096931
v 0.003496 0.050052 -0.050048
v -0.001040 0.050310 -0.096886
v -0.000890 0.050173 -0.050051
v -0.005269 0.049908 -0.050055
v -0.002438 0.050263 -0.097401
v -0.009609 0.049261 -0.050061
v -0.003623 0.050196 -0.098649
v 0.028083 0.041501 -0.050054
v 0.024352 0.043810 -0.050050
v 0.020433 0.045783 -0.050047
v 0.016356 0.047405 -0.050045
v 0.012153 0.048663 -0.050045
v -0.013875 0.048236 -0.050067
v -0.018035 0.046840 -0.050075
v -0.022057 0.045085 -0.050083
v -0.025909 0.042985 -0.050093
v 0.056535 0.006331 0.004064
v 0.038915 0.027364 0.023113
v 0.036749 0.030216 0.023120
v 0.033418 0.033871 0.023128
v 0.032454 0.034799 0.023130
v 0.027594 0.038778 0.023139
v 0.026852 0.039297 0.023139
v 0.022253 0.042084 0.023144
v 0.019426 0.043468 0.023146
v 0.016524 0.044659 0.023147
v 0.011377 0.046252 0.023148
v 0.010506 0.046460 0.023148
v 0.004304 0.047454 0.023146
v 0.002961 0.047560 0.023145
v -0.001975 0.047624 0.023141
v -0.005554 0.047350 0.023138
v -0.008222 0.046968 0.023134
v -0.014328 0.045497 0.023125
v -0.021799 0.042453 0.023110
v -0.020189 0.043237 0.023114
v -0.025701 0.040225 0.023100
v -0.030770 0.036516 0.023085
v -0.030731 0.036468 0.023431
v -0.025668 0.040172 0.023446
v -0.030582 0.036290 0.023791
v -0.008212 0.046906 0.023480
v -0.014310 0.045437 0.023471
v -0.020163 0.043179 0.023459
v -0.001973 0.047562 0.023487
v 0.010492 0.046398 0.023494
v 0.004298 0.047391 0.023492
v 0.016502 0.044600 0.023493
v 0.022224 0.042028 0.023490
v 0.027558 0.038726 0.023484
v 0.032411 0.034753 0.023476
v 0.036701 0.030175 0.023466
v 0.040352 0.025074 0.023454
v 0.043301 0.019537 0.023440
v 0.045497 0.013661 0.023424
v 0.045887 0.012289 0.023420
v 0.045663 0.012228 0.023781
v -0.025545 0.039976 0.023807
v -0.020066 0.042969 0.023820
v -0.014242 0.045216 0.023831
v -0.008173 0.046678 0.023841
v -0.001964 0.047330 0.023848
v 0.004276 0.047160 0.023852
v 0.010440 0.046172 0.023854
v 0.016421 0.044383 0.023853
v 0.022115 0.041823 0.023850
v 0.027423 0.038537 0.023845
v 0.032253 0.034583 0.023837
v 0.036522 0.030028 0.023827
v 0.040155 0.024951 0.023814
v 0.043090 0.019441 0.023800
v 0.045276 0.013594 0.023784
v 0.047321 0.004199 0.023397
v 0.047091 0.004177 0.023758
v 0.046498 0.008528 0.023770
v 0.046725 0.008571 0.023409
v -0.029135 0.027483 0.032060
v -0.039416 0.007485 0.031995
v -0.040021 0.002953 0.031981
v -0.038967 -0.009660 0.031940
v -0.036883 -0.015866 0.031920
v -0.033330 0.022251 0.032043
v -0.033815 0.021512 0.032040
v -0.036695 0.016163 0.032023
v -0.037283 0.014766 0.032019
v -0.038934 0.009662 0.032002
v -0.040135 -0.000067 0.031971
v -0.040021 -0.003086 0.031961
v -0.039416 -0.007619 0.031947
v -0.033872 -0.021556 0.031902
v -0.030088 -0.026577 0.031886
v -0.029135 -0.027616 0.031883
v -0.037283 -0.014899 0.031923
v -0.056011 0.003000 -0.094510
v -0.056019 0.002811 -0.093471
v -0.056041 0.002272 -0.092560
v -0.056063 0.001451 -0.091893
v -0.056049 0.002017 -0.092299
v -0.056069 -0.000481 -0.091558
v -0.056074 0.000576 -0.091575
v -0.056014 -0.002292 -0.092584
v -0.056025 -0.002031 -0.092311
v -0.056046 -0.001478 -0.091909
v -0.056065 -0.000742 -0.091612
v -0.055989 -0.002775 -0.093379
v -0.055976 -0.002996 -0.094359
v -0.055976 -0.003000 -0.094528
v -0.056004 0.003000 -0.054510
v -0.056013 0.002811 -0.053471
v -0.056036 0.002272 -0.052560
v -0.056060 0.001451 -0.051893
v -0.056045 0.002017 -0.052299
v -0.056071 -0.000480 -0.051558
v -0.056073 0.000576 -0.051575
v -0.056020 -0.002292 -0.052584
v -0.056031 -0.002031 -0.052311
v -0.056050 -0.001478 -0.051908
v -0.056067 -0.000742 -0.051612
v -0.055996 -0.002775 -0.053379
v -0.055984 -0.002996 -0.054359
v -0.055983 -0.003000 -0.054528
v -0.043278 -0.031789 -0.104058
v -0.043272 -0.031780 -0.104201
v -0.045236 -0.030369 -0.104069
v -0.045232 -0.030364 -0.104178
v -0.047004 -0.028746 -0.104067
v -0.047002 -0.028744 -0.104144
v -0.048577 -0.026931 -0.104062
v -0.048576 -0.026930 -0.104113
v -0.049944 -0.024930 -0.104068
v -0.049943 -0.024930 -0.104096
v -0.051070 -0.022786 -0.104106
v -0.051070 -0.022786 -0.104114
v -0.052974 -0.018020 -0.104133
v -0.053011 -0.017914 -0.104097
v -0.053014 -0.017904 -0.104097
v -0.051538 -0.021725 -0.104123
v -0.052213 -0.020082 -0.104153
v -0.052744 -0.018669 -0.104249
v -0.052756 -0.018636 -0.104264
v -0.052802 -0.018508 -0.104304
v -0.051626 -0.021519 -0.104068
v -0.052112 -0.020336 -0.104124
v -0.052448 -0.019471 -0.104074
v -0.052826 -0.018442 -0.104311
v -0.052831 -0.018427 -0.104310
v -0.052850 -0.018374 -0.104307
v -0.052869 -0.018319 -0.104295
v -0.052971 -0.018029 -0.104138
v -0.052980 -0.018005 -0.104124
v -0.050991 0.023669 -0.103954
v -0.050990 0.023669 -0.103971
v -0.051461 0.022611 -0.103988
v -0.051722 0.022000 -0.103975
v -0.051742 0.021953 -0.103980
v -0.051992 0.021345 -0.103909
v -0.052095 0.021088 -0.103910
v -0.052124 0.021015 -0.103903
v -0.052253 0.020686 -0.103925
v -0.052433 0.020219 -0.103987
v -0.052617 0.019727 -0.103980
v -0.052897 0.018949 -0.103910
v -0.052915 0.018897 -0.103913
v -0.052931 0.018852 -0.103913
v -0.052905 0.018928 -0.103913
v -0.053144 0.018232 -0.104027
v -0.052900 0.018942 -0.103913
v -0.053339 0.017643 -0.104217
v -0.053362 0.017572 -0.104224
v -0.053434 0.017349 -0.104191
v -0.052906 0.018925 -0.103913
v -0.053025 0.018583 -0.103936
v -0.052963 0.018762 -0.103916
v -0.053121 0.018302 -0.104004
v -0.052683 0.019547 -0.103967
v -0.052559 0.019884 -0.103994
v -0.053602 0.016810 -0.103985
v -0.053530 0.017044 -0.104062
v -0.053608 0.016791 -0.103984
v -0.049856 0.025810 -0.103930
v -0.043163 0.032628 -0.104022
v -0.043173 0.032641 -0.103842
v -0.043879 0.032155 -0.104016
v -0.045132 0.031230 -0.103864
v -0.045124 0.031223 -0.104006
v -0.046897 0.029615 -0.103994
v -0.046902 0.029618 -0.103888
v -0.047026 0.029483 -0.103994
v -0.048484 0.027805 -0.103911
v -0.048481 0.027804 -0.103984
v -0.049572 0.026264 -0.103975
v -0.049855 0.025810 -0.103973
v -0.053014 -0.017903 -0.104597
v -0.051946 -0.020743 -0.104606
v -0.051223 -0.022434 -0.104613
v -0.050642 -0.023654 -0.104620
v -0.048936 -0.026408 -0.104641
v -0.046822 -0.028866 -0.104665
v -0.046281 -0.029384 -0.104671
v -0.044355 -0.030961 -0.104692
v -0.054832 0.011940 -0.104681
v -0.053608 0.016793 -0.104493
v -0.054167 0.014850 -0.104499
v -0.054862 0.011946 -0.104508
v -0.055482 0.008266 -0.104692
v -0.055513 0.008270 -0.104520
v -0.055863 0.004852 -0.104703
v -0.055894 0.004854 -0.104530
v -0.056033 0.001421 -0.104713
v -0.056064 0.001421 -0.104541
v -0.054777 -0.011483 -0.104751
v -0.055400 -0.008105 -0.104741
v -0.055815 -0.004696 -0.104731
v -0.056073 -0.000102 -0.104545
v -0.055846 -0.004699 -0.104559
v -0.055431 -0.008110 -0.104569
v -0.054807 -0.011490 -0.104579
v -0.053978 -0.014825 -0.104588
v -0.043974 0.031986 -0.104523
v -0.044953 0.031266 -0.104516
v -0.047112 0.029318 -0.104502
v -0.047506 0.028898 -0.104499
v -0.049616 0.026149 -0.104486
v -0.051248 0.023080 -0.104480
v -0.051530 0.022437 -0.104481
v -0.052553 0.019894 -0.104485
v -0.049824 -0.024541 -0.025665
v -0.049528 -0.024936 -0.025620
v -0.049604 -0.024590 -0.023753
v -0.052399 -0.019532 -0.024160
v -0.051172 -0.022169 -0.023984
v -0.052395 -0.019531 -0.024131
v -0.047734 -0.026750 -0.023472
v -0.047642 -0.027074 -0.025331
v -0.045650 -0.028580 -0.023150
v -0.045227 -0.029118 -0.024960
v -0.052507 -0.019566 -0.026077
v -0.051211 -0.022370 -0.025877
v -0.050712 -0.023222 -0.025801
v -0.055355 -0.008844 -0.026041
v -0.054757 -0.011973 -0.026051
v -0.054431 -0.012870 -0.024108
v -0.055494 0.008146 -0.025985
v -0.055560 0.007679 -0.025986
v -0.055442 0.007657 -0.024040
v -0.053518 -0.016229 -0.024119
v -0.053632 -0.016257 -0.026066
v -0.055027 0.010887 -0.025976
v -0.054864 0.011089 -0.024029
v -0.055987 0.003242 -0.026001
v -0.056071 0.000719 -0.026009
v -0.055806 0.004191 -0.024052
v -0.055953 0.000711 -0.024063
v -0.054167 0.014597 -0.025964
v -0.054068 0.014501 -0.024018
v -0.053358 0.017333 -0.025955
v -0.052309 0.019965 -0.024031
v -0.052416 0.020012 -0.025947
v -0.052305 0.019963 -0.024001
v -0.055713 -0.006247 -0.026032
v -0.055595 -0.006241 -0.024086
v -0.055900 -0.004312 -0.026026
v -0.055883 -0.002758 -0.024075
v -0.045105 0.029515 -0.024776
v -0.047094 0.027895 -0.025090
v -0.047617 0.027152 -0.023300
v -0.047819 0.027192 -0.025205
v -0.049496 0.025001 -0.023594
v -0.049418 0.025359 -0.025458
v -0.050201 0.024278 -0.025584
v -0.051071 0.022595 -0.023838
v -0.051108 0.022809 -0.025730
v -0.031995 0.035361 0.023580
v -0.032089 0.035457 0.023081
v -0.032089 -0.035536 0.022868
v -0.031995 -0.035443 0.023368
v -0.033857 0.033689 0.023074
v -0.033762 0.033593 0.023574
v -0.033857 -0.033768 0.022872
v -0.033762 -0.033675 0.023372
v -0.043241 -0.031902 -0.077392
v -0.045208 -0.030480 -0.077387
v -0.046998 -0.028841 -0.077381
v -0.048577 -0.027019 -0.077375
v -0.049954 -0.025000 -0.077368
v -0.051066 -0.022880 -0.077360
v -0.043241 -0.031993 -0.050323
v -0.045207 -0.030572 -0.050318
v -0.046996 -0.028933 -0.050313
v -0.048574 -0.027112 -0.050306
v -0.049950 -0.025094 -0.050299
v -0.051063 -0.022975 -0.050292
v -0.048662 -0.026978 -0.046456
v -0.048790 -0.026727 -0.042617
v -0.050020 -0.024972 -0.046556
v -0.050168 -0.024678 -0.042823
v -0.051117 -0.022868 -0.046656
v -0.051273 -0.022529 -0.043027
v -0.043226 -0.031789 -0.042032
v -0.045234 -0.030510 -0.046261
v -0.045286 -0.030325 -0.042217
v -0.047058 -0.028839 -0.046357
v -0.047153 -0.028625 -0.042414
v -0.051522 -0.021971 -0.039407
v -0.050404 -0.024193 -0.039100
v -0.048993 -0.026312 -0.038791
v -0.045454 -0.029607 -0.034183
v -0.047491 -0.027795 -0.034571
v -0.050711 -0.023538 -0.035387
v -0.051845 -0.021216 -0.035794
v -0.051150 -0.022571 -0.029791
v -0.052254 -0.020210 -0.030759
v -0.043096 0.032536 -0.050129
v -0.045095 0.031104 -0.050133
v -0.046912 0.029449 -0.050137
v -0.048512 0.027607 -0.050142
v -0.049870 0.025621 -0.050147
v -0.050972 0.023537 -0.050152
v -0.043081 0.032283 -0.041832
v -0.045152 0.030827 -0.042025
v -0.048882 0.026804 -0.038632
v -0.048678 0.027241 -0.042445
v -0.050303 0.024693 -0.038953
v -0.050066 0.025196 -0.042662
v -0.051429 0.022478 -0.039271
v -0.051181 0.023051 -0.042878
v -0.047031 0.029133 -0.042231
v -0.047184 0.028754 -0.038317
v -0.045238 0.030493 -0.038014
v -0.051025 0.023409 -0.046504
v -0.049918 0.025512 -0.046393
v -0.048549 0.027515 -0.046281
v -0.051751 0.021712 -0.035682
v -0.050606 0.024029 -0.035263
v -0.051049 0.023030 -0.029656
v -0.052115 0.020805 -0.031344
v -0.051462 -0.022099 -0.043043
v -0.056073 0.000742 -0.097426
v -0.056063 0.001474 -0.097132
v -0.056049 0.002031 -0.096727
v -0.056040 0.002288 -0.096459
v -0.056021 0.002774 -0.095662
v -0.056011 0.002996 -0.094682
v -0.056060 0.001474 -0.057132
v -0.056072 0.000742 -0.057426
v -0.056074 0.000478 -0.057481
v -0.056045 0.002031 -0.056727
v -0.056036 0.002288 -0.056459
v -0.056015 0.002774 -0.055662
v -0.056005 0.002996 -0.054682
v -0.055987 -0.002811 -0.095567
v -0.055994 -0.002811 -0.055567
v -0.056050 -0.001455 -0.057143
v -0.056031 -0.002017 -0.056739
v -0.056020 -0.002274 -0.056476
v -0.056069 -0.000578 -0.057463
v -0.056014 -0.002274 -0.096476
v -0.056025 -0.002017 -0.096739
v -0.056046 -0.001455 -0.097143
v -0.056067 -0.000578 -0.097463
v -0.056074 0.000478 -0.097481
v -0.052879 -0.018292 -0.104173
v -0.052922 -0.018170 -0.104225
v -0.036778 -0.030361 0.023380
v -0.039258 -0.027085 0.023387
v -0.041445 -0.023608 0.023396
v -0.043325 -0.019955 0.023406
v -0.044882 -0.016153 0.023416
v -0.046105 -0.012232 0.023426
v -0.046986 -0.008219 0.023438
v -0.047517 -0.004145 0.023450
v -0.047694 -0.000041 0.023462
v -0.047517 0.004063 0.023474
v -0.046986 0.008137 0.023487
v -0.046105 0.012149 0.023500
v -0.044882 0.016071 0.023512
v -0.043325 0.019873 0.023525
v -0.041445 0.023526 0.023537
v -0.039258 0.027003 0.023550
v -0.036778 0.030278 0.023561
v -0.036881 -0.030445 0.022879
v -0.039368 -0.027160 0.022887
v -0.041561 -0.023673 0.022896
v -0.043446 -0.020010 0.022905
v -0.045008 -0.016197 0.022915
v -0.046234 -0.012265 0.022926
v -0.047117 -0.008241 0.022938
v -0.047650 -0.004155 0.022949
v -0.047828 -0.000040 0.022962
v -0.047650 0.004076 0.022974
v -0.047117 0.008161 0.022987
v -0.046234 0.012185 0.023000
v -0.045008 0.016118 0.023012
v -0.043446 0.019930 0.023025
v -0.041561 0.023594 0.023037
v -0.039368 0.027081 0.023050
v -0.036881 0.030365 0.023062
v 0.033500 0.021623 -0.172413
v 0.033500 0.021251 -0.173153
v 0.033500 0.018764 -0.176964
v 0.033500 0.017964 -0.177915
v 0.033500 0.014964 -0.180764
v 0.033500 0.013634 -0.181752
v 0.033500 0.010413 -0.183623
v 0.033500 0.008511 -0.184440
v 0.033500 0.005341 -0.185398
v 0.033500 0.002893 -0.185825
v 0.033500 -0.002893 -0.185825
v 0.033500 -0.005341 -0.185398
v 0.033500 -0.014964 -0.180764
v 0.033500 -0.008511 -0.184440
v 0.033500 -0.010413 -0.183623
v 0.033500 -0.013634 -0.181752
v 0.033500 -0.017964 -0.177915
v 0.033500 -0.018764 -0.176964
v 0.033500 -0.021251 -0.173153
v 0.033500 -0.021623 -0.172413
v 0.037300 -0.023398 -0.167341
v 0.037300 -0.021623 -0.172413
v 0.037300 -0.018764 -0.176964
v 0.037300 -0.014964 -0.180764
v 0.037300 -0.010413 -0.183623
v 0.037300 -0.005341 -0.185398
v 0.037300 -0.000000 -0.186000
v 0.037300 0.005341 -0.185398
v 0.037300 0.010413 -0.183623
v 0.037300 0.014964 -0.180764
v 0.037300 0.018764 -0.176964
v 0.037300 0.021623 -0.172413
v 0.037300 0.023398 -0.167341
v 0.058550 -0.023765 -0.120594
v 0.058550 -0.023641 -0.122330
v 0.058550 -0.023513 -0.123156
v 0.058550 -0.023084 -0.124915
v 0.058550 -0.022842 -0.125641
v 0.058550 -0.022099 -0.127368
v 0.058550 -0.021771 -0.127982
v 0.058550 -0.020713 -0.129619
v 0.058550 -0.020330 -0.130115
v 0.058550 -0.018967 -0.131603
v 0.058550 -0.018558 -0.131982
v 0.058550 -0.016910 -0.133264
v 0.058550 -0.016502 -0.133531
v 0.058550 -0.014602 -0.134554
v 0.058550 -0.014219 -0.134721
v 0.058550 -0.012110 -0.135435
v 0.058550 -0.011772 -0.135519
v 0.058550 -0.009504 -0.135882
v 0.058550 -0.009227 -0.135903
v 0.058550 -0.006861 -0.135882
v 0.058550 -0.006653 -0.135863
v 0.058550 -0.004255 -0.135436
v 0.058550 -0.004121 -0.135400
v 0.058550 -0.001763 -0.134555
v 0.058550 -0.001699 -0.134527
v 0.058550 0.000545 -0.133266
v 0.058550 0.002552 -0.131654
v 0.058550 0.004266 -0.129733
v 0.058550 0.002602 -0.131606
v 0.058550 0.006637 -0.125184
v 0.058550 0.005735 -0.127371
v 0.058550 0.005640 -0.127557
v 0.058550 0.004349 -0.129622
v 0.058561 -0.011793 -0.058574
v 0.058561 -0.014994 -0.060794
v 0.058561 -0.017786 -0.063510
v 0.058561 -0.020093 -0.066649
v 0.058561 -0.021852 -0.070124
v 0.058561 -0.023015 -0.073842
v 0.058561 -0.023550 -0.077701
v 0.058561 -0.023443 -0.081595
v 0.058561 -0.022696 -0.085418
v 0.058561 -0.021330 -0.089066
v 0.058561 -0.019382 -0.092439
v 0.058561 -0.016906 -0.095446
v 0.058561 -0.013968 -0.098005
v 0.058561 -0.010650 -0.100045
v 0.058561 -0.007041 -0.101510
v 0.058561 -0.003240 -0.102362
v 0.058561 0.000650 -0.102577
v 0.058561 0.004522 -0.102148
v 0.058561 0.008270 -0.101088
v 0.058561 0.011793 -0.099426
v 0.058561 0.014994 -0.097206
v 0.058561 0.017786 -0.094490
v 0.058561 0.020093 -0.091351
v 0.058561 0.021852 -0.087876
v 0.058561 0.023015 -0.084158
v 0.058561 0.023550 -0.080299
v 0.058561 0.023443 -0.076405
v 0.058561 0.022696 -0.072582
v 0.058561 0.021330 -0.068934
v 0.058561 0.019382 -0.065561
v 0.058561 0.016906 -0.062554
v 0.058561 0.013968 -0.059995
v 0.058561 0.010650 -0.057955
v 0.058561 0.007041 -0.056490
v 0.058561 0.003240 -0.055638
v 0.058561 -0.000650 -0.055423
v 0.058561 -0.004522 -0.055852
v 0.058561 -0.008270 -0.056912
v 0.055500 -0.021000 -0.162000
v 0.055500 -0.020390 -0.167026
v 0.055500 -0.018595 -0.171759
v 0.055500 -0.015719 -0.175926
v 0.055500 -0.011929 -0.179283
v 0.055500 -0.007447 -0.181635
v 0.055500 -0.002531 -0.182847
v 0.055500 0.002531 -0.182847
v 0.055500 0.007447 -0.181635
v 0.055500 0.011929 -0.179283
v 0.055500 0.015719 -0.175926
v 0.055500 0.018595 -0.171759
v 0.055500 0.020390 -0.167026
v 0.055500 0.021000 -0.162000
f 253 275 273
f 150 151 152
f 157 151 150
f 441 418 416
f 163 648 165
f 741 671 54
f 54 671 670
f 742 671 741
f 77 98 76
f 303 185 184
f 302 185 303
f 267 251 235
f 240 268 235
f 235 268 267
f 728 754 219
f 753 726 752
f 753 754 728
f 247 248 262
f 252 253 273
f 275 253 254
f 231 255 254
f 254 253 231
f 323 185 186
f 184 185 323
f 752 667 668
f 668 753 752
f 231 154 232
f 232 255 231
f 153 154 152
f 152 151 153
f 151 463 153
f 442 418 441
f 157 440 442
f 441 151 442
f 442 151 157
f 639 150 152
f 642 666 665
f 158 150 641
f 667 666 640
f 750 749 665
f 665 666 750
f 709 102 78
f 670 709 78
f 77 54 78
f 78 54 670
f 103 102 709
f 699 700 752
f 752 726 699
f 699 726 700
f 752 700 701
f 169 171 172
f 748 747 663
f 59 49 57
f 743 742 658
f 658 659 743
f 743 659 744
f 744 677 743
f 52 742 53
f 53 54 77
f 741 54 53
f 53 742 741
f 77 76 53
f 53 76 52
f 6 7 112
f 82 81 708
f 302 303 285
f 267 268 285
f 186 185 301
f 301 300 186
f 301 185 302
f 272 252 273
f 245 252 272
f 272 243 245
f 266 251 267
f 266 250 251
f 267 285 266
f 224 235 251
f 240 235 224
f 262 248 263
f 248 249 263
f 263 249 264
f 220 219 754
f 220 753 221
f 754 753 220
f 221 249 220
f 220 249 248
f 220 248 728
f 728 219 220
f 221 753 222
f 727 753 728
f 726 753 727
f 216 154 217
f 217 227 216
f 152 154 216
f 216 215 152
f 216 227 215
f 186 300 299
f 273 275 283
f 298 299 283
f 465 151 441
f 554 428 555
f 553 426 554
f 255 552 558
f 502 627 628
f 490 501 502
f 489 333 347
f 317 15 14
f 277 568 503
f 503 513 277
f 59 57 92
f 129 127 136
f 14 15 137
f 137 138 14
f 137 127 138
f 137 136 127
f 15 136 137
f 638 668 667
f 152 215 637
f 215 668 637
f 217 154 218
f 218 229 217
f 154 229 218
f 231 253 230
f 253 252 230
f 252 229 230
f 230 154 231
f 230 229 154
f 217 229 228
f 228 227 217
f 245 243 228
f 243 227 228
f 420 232 154
f 156 440 157
f 156 444 440
f 156 150 158
f 157 150 156
f 447 444 446
f 447 489 483
f 333 489 447
f 582 333 447
f 447 581 582
f 445 447 483
f 444 447 445
f 751 666 667
f 751 750 666
f 751 667 752
f 705 34 706
f 706 34 33
f 11 141 142
f 141 125 142
f 752 701 702
f 702 751 752
f 697 751 702
f 702 724 697
f 723 722 695
f 700 726 725
f 725 701 700
f 725 702 701
f 724 702 725
f 695 722 694
f 694 750 695
f 749 750 694
f 719 718 688
f 688 747 748
f 643 159 158
f 581 447 449
f 449 447 446
f 449 490 336
f 454 453 452
f 452 455 454
f 174 172 171
f 748 663 664
f 665 749 664
f 749 748 664
f 662 663 747
f 662 747 746
f 746 661 662
f 163 161 149
f 149 663 163
f 651 167 165
f 660 659 653
f 744 659 660
f 654 171 169
f 655 659 658
f 682 683 716
f 712 711 674
f 742 743 674
f 69 65 47
f 658 40 39
f 39 40 49
f 658 742 657
f 657 40 658
f 742 40 657
f 51 742 52
f 52 76 51
f 76 75 51
f 51 75 57
f 96 65 69
f 96 95 65
f 96 127 129
f 129 95 96
f 72 44 73
f 72 73 89
f 211 732 731
f 210 732 211
f 6 112 110
f 113 7 148
f 113 112 7
f 707 33 32
f 706 33 707
f 302 285 286
f 286 285 268
f 286 301 302
f 269 268 240
f 269 286 268
f 243 272 271
f 271 270 243
f 250 266 265
f 265 249 250
f 264 249 265
f 214 668 215
f 753 668 669
f 181 308 307
f 223 753 212
f 223 222 753
f 223 224 251
f 212 224 223
f 250 222 223
f 251 250 223
f 191 227 243
f 281 299 300
f 281 271 272
f 281 272 273
f 300 301 281
f 273 283 282
f 282 283 299
f 282 281 273
f 299 281 282
f 464 463 151
f 151 465 464
f 427 428 554
f 554 426 427
f 556 419 390
f 556 555 430
f 430 419 556
f 430 555 428
f 566 553 554
f 503 568 504
f 504 513 503
f 426 553 423
f 552 553 559
f 559 558 552
f 553 566 559
f 582 581 334
f 611 628 627
f 502 501 500
f 500 627 502
f 476 469 486
f 168 167 169
f 165 167 168
f 585 490 353
f 600 453 585
f 483 489 491
f 612 611 318
f 318 4 5
f 5 15 318
f 15 317 318
f 631 630 614
f 11 317 12
f 12 141 11
f 140 141 12
f 181 307 182
f 262 263 288
f 288 263 264
f 255 558 276
f 568 277 276
f 276 559 568
f 558 559 276
f 278 277 513
f 278 276 277
f 97 125 98
f 97 78 102
f 97 98 77
f 77 78 97
f 126 139 138
f 140 139 126
f 59 92 91
f 158 159 155
f 155 156 158
f 446 444 155
f 444 156 155
f 443 442 440
f 445 487 443
f 440 444 443
f 444 445 443
f 482 445 483
f 482 487 445
f 487 482 488
f 488 630 631
f 695 750 696
f 750 751 696
f 696 723 695
f 703 34 704
f 34 705 704
f 118 81 82
f 9 144 145
f 709 708 105
f 102 103 122
f 122 142 125
f 122 97 102
f 125 97 122
f 10 144 9
f 142 122 143
f 144 10 143
f 11 142 143
f 143 10 11
f 684 717 716
f 716 683 684
f 684 683 746
f 721 694 722
f 721 720 692
f 690 720 719
f 718 717 686
f 746 747 686
f 577 453 600
f 577 449 453
f 579 449 578
f 578 449 336
f 578 583 579
f 580 449 579
f 581 449 580
f 580 587 581
f 454 501 346
f 597 453 454
f 454 596 597
f 72 71 42
f 173 174 171
f 173 45 44
f 646 664 663
f 646 149 161
f 663 149 646
f 665 664 644
f 161 159 645
f 163 663 647
f 663 662 647
f 650 662 661
f 661 660 652
f 169 167 649
f 744 660 745
f 745 661 746
f 745 660 661
f 746 683 745
f 683 682 745
f 745 680 744
f 715 682 716
f 715 714 680
f 678 677 744
f 677 678 713
f 713 678 714
f 710 709 670
f 670 671 710
f 676 713 712
f 677 713 676
f 676 743 677
f 711 710 672
f 672 710 671
f 671 742 672
f 36 47 46
f 46 47 65
f 46 45 36
f 59 91 70
f 70 21 60
f 99 75 76
f 99 76 98
f 171 656 38
f 38 656 658
f 658 39 38
f 41 40 742
f 742 51 41
f 41 51 40
f 50 51 57
f 40 51 50
f 50 57 49
f 49 40 50
f 90 96 69
f 127 96 90
f 69 70 90
f 90 91 127
f 90 70 91
f 65 95 74
f 74 46 65
f 45 46 74
f 44 45 74
f 74 73 44
f 93 89 73
f 73 74 93
f 88 71 72
f 72 89 88
f 526 71 538
f 735 734 210
f 210 734 733
f 733 732 210
f 111 33 34
f 32 33 111
f 115 113 148
f 148 118 115
f 115 118 82
f 31 707 32
f 31 115 82
f 708 707 31
f 82 708 31
f 242 269 240
f 242 270 269
f 243 270 242
f 242 244 243
f 242 239 195
f 242 193 244
f 287 266 285
f 287 265 266
f 287 285 303
f 264 265 287
f 287 288 264
f 668 214 213
f 213 214 224
f 213 669 668
f 753 669 213
f 212 753 213
f 213 224 212
f 224 214 225
f 240 224 225
f 225 198 240
f 195 196 225
f 206 730 207
f 309 308 181
f 181 180 309
f 256 730 202
f 202 315 256
f 731 730 256
f 256 211 731
f 258 209 259
f 207 730 729
f 259 209 729
f 729 260 259
f 729 261 260
f 262 261 729
f 729 247 262
f 728 248 729
f 248 247 729
f 290 307 308
f 259 260 290
f 260 261 290
f 246 191 243
f 243 244 246
f 246 244 188
f 227 191 190
f 191 246 190
f 226 242 195
f 241 242 226
f 195 225 226
f 215 227 226
f 227 193 226
f 226 214 215
f 226 225 214
f 188 244 192
f 244 193 192
f 227 188 192
f 192 193 227
f 284 281 301
f 271 281 284
f 270 271 284
f 269 270 284
f 301 286 284
f 286 269 284
f 395 464 465
f 407 465 441
f 424 154 460
f 460 461 427
f 154 153 460
f 153 461 460
f 571 555 556
f 561 566 571
f 554 555 571
f 571 566 554
f 556 390 557
f 557 390 569
f 391 390 419
f 462 153 463
f 569 562 563
f 565 562 569
f 569 390 565
f 565 564 574
f 561 563 560
f 560 563 562
f 635 618 636
f 422 553 552
f 422 423 553
f 424 423 422
f 422 420 154
f 154 458 422
f 586 580 579
f 589 489 347
f 347 333 589
f 588 334 581
f 582 334 588
f 473 514 472
f 518 620 472
f 472 514 518
f 475 540 86
f 86 514 475
f 481 500 479
f 479 455 456
f 480 486 481
f 480 479 456
f 481 479 480
f 169 172 170
f 170 168 169
f 456 450 170
f 455 452 451
f 452 168 451
f 168 170 451
f 451 170 450
f 456 455 451
f 451 450 456
f 163 165 166
f 165 168 166
f 166 168 452
f 617 616 323
f 634 616 617
f 617 635 634
f 617 618 635
f 612 630 629
f 629 491 628
f 629 611 612
f 628 611 629
f 502 628 492
f 628 491 492
f 492 490 502
f 492 489 490
f 492 491 489
f 326 611 327
f 326 318 611
f 325 614 317
f 325 179 180
f 178 179 325
f 325 187 178
f 325 7 6
f 8 7 325
f 325 9 8
f 325 10 9
f 325 317 11
f 11 10 325
f 631 614 632
f 613 630 612
f 613 614 630
f 317 614 613
f 612 318 613
f 613 318 317
f 13 317 14
f 13 12 317
f 14 138 13
f 138 139 13
f 13 139 140
f 140 12 13
f 306 182 307
f 307 290 306
f 183 182 306
f 255 276 274
f 274 254 255
f 275 254 274
f 274 283 275
f 283 274 279
f 279 274 276
f 276 278 279
f 128 126 138
f 92 126 128
f 128 91 92
f 138 127 128
f 127 91 128
f 100 92 57
f 100 126 92
f 57 75 100
f 459 154 424
f 459 458 154
f 424 422 459
f 459 422 458
f 160 159 161
f 160 155 159
f 446 155 160
f 509 560 562
f 508 560 509
f 491 629 484
f 630 488 484
f 483 491 484
f 484 629 630
f 484 482 483
f 484 488 482
f 698 751 697
f 698 696 751
f 697 724 698
f 724 723 698
f 723 696 698
f 147 118 148
f 148 7 147
f 147 7 8
f 83 708 84
f 708 79 106
f 106 105 708
f 104 103 709
f 709 105 104
f 144 143 121
f 105 106 121
f 121 145 144
f 693 721 692
f 694 721 693
f 693 692 749
f 749 694 693
f 719 688 689
f 689 690 719
f 689 688 748
f 748 690 689
f 692 720 691
f 720 690 691
f 691 690 748
f 691 748 749
f 749 692 691
f 687 688 718
f 718 686 687
f 747 688 687
f 687 686 747
f 717 684 685
f 685 686 717
f 685 684 746
f 746 686 685
f 600 585 339
f 339 577 600
f 339 585 353
f 353 577 339
f 490 449 584
f 449 577 584
f 353 490 584
f 584 577 353
f 490 585 352
f 352 585 453
f 43 173 44
f 42 173 43
f 43 44 72
f 72 42 43
f 36 45 35
f 35 173 36
f 45 173 35
f 681 715 680
f 682 715 681
f 680 745 681
f 681 745 682
f 680 714 679
f 714 678 679
f 744 680 679
f 679 678 744
f 712 674 675
f 675 676 712
f 675 674 743
f 743 676 675
f 673 674 711
f 711 672 673
f 742 674 673
f 673 672 742
f 69 26 64
f 64 70 69
f 24 47 23
f 23 64 24
f 24 64 26
f 140 126 124
f 124 141 140
f 124 125 141
f 98 125 124
f 124 99 98
f 37 173 171
f 171 38 37
f 37 47 36
f 36 173 37
f 94 95 129
f 94 74 95
f 94 93 74
f 736 735 201
f 201 735 210
f 201 737 736
f 210 199 201
f 738 737 201
f 703 740 30
f 30 34 703
f 30 740 739
f 30 739 738
f 738 201 30
f 210 211 312
f 312 199 210
f 211 256 312
f 312 256 315
f 109 110 112
f 109 111 110
f 32 111 109
f 109 31 32
f 112 113 109
f 180 179 310
f 310 309 180
f 293 309 310
f 294 293 310
f 184 183 304
f 304 303 184
f 304 287 303
f 288 287 304
f 195 239 238
f 238 196 195
f 239 242 238
f 198 225 197
f 197 225 196
f 196 236 197
f 292 309 293
f 292 206 207
f 292 207 257
f 291 292 257
f 291 258 259
f 308 309 291
f 309 292 291
f 259 290 291
f 291 290 308
f 189 246 188
f 189 190 246
f 189 188 227
f 227 190 189
f 241 226 194
f 194 226 193
f 194 242 241
f 193 242 194
f 464 395 394
f 441 416 417
f 417 409 441
f 405 413 465
f 465 407 405
f 441 409 408
f 408 407 441
f 465 401 414
f 465 413 411
f 429 461 153
f 153 462 429
f 428 427 429
f 427 461 429
f 429 430 428
f 429 462 430
f 425 427 426
f 425 460 427
f 424 460 425
f 425 423 424
f 426 423 425
f 419 430 431
f 430 462 431
f 431 391 419
f 463 391 431
f 431 462 463
f 556 557 570
f 570 571 556
f 570 557 569
f 569 563 570
f 561 571 570
f 570 563 561
f 573 565 574
f 562 565 573
f 567 566 561
f 561 560 567
f 567 560 508
f 567 504 568
f 568 559 567
f 567 559 566
f 513 504 505
f 619 636 618
f 186 299 175
f 175 299 298
f 421 422 552
f 420 422 421
f 232 420 421
f 421 552 255
f 255 232 421
f 579 583 337
f 580 586 335
f 336 490 350
f 350 337 583
f 350 578 336
f 583 578 350
f 490 489 351
f 351 335 586
f 351 350 490
f 337 350 351
f 351 586 579
f 579 337 351
f 489 589 348
f 348 589 333
f 348 333 582
f 582 588 348
f 546 540 475
f 475 473 546
f 546 473 540
f 475 514 474
f 474 473 475
f 514 473 474
f 87 86 540
f 132 86 87
f 87 540 538
f 538 71 87
f 71 88 87
f 88 132 87
f 327 611 610
f 610 611 627
f 485 625 481
f 485 469 471
f 481 486 485
f 485 486 469
f 471 623 624
f 624 485 471
f 625 485 624
f 499 500 501
f 499 479 500
f 499 501 454
f 454 455 499
f 455 479 499
f 181 182 324
f 324 180 181
f 324 325 180
f 324 182 183
f 323 616 324
f 184 323 324
f 324 183 184
f 3 325 6
f 187 325 3
f 6 110 3
f 110 29 3
f 494 488 631
f 631 632 494
f 616 632 615
f 615 324 616
f 615 632 614
f 325 324 615
f 614 325 615
f 289 261 262
f 262 288 289
f 288 306 289
f 289 290 261
f 289 306 290
f 298 283 297
f 283 279 297
f 75 99 101
f 101 100 75
f 126 100 101
f 101 124 126
f 99 124 101
f 448 449 446
f 446 160 448
f 453 449 448
f 163 166 164
f 164 452 453
f 164 166 452
f 508 509 507
f 635 636 507
f 636 505 507
f 118 147 146
f 146 147 8
f 8 9 146
f 9 145 146
f 84 708 85
f 85 708 81
f 80 79 708
f 708 83 80
f 123 121 143
f 103 104 123
f 123 104 105
f 105 121 123
f 123 122 103
f 123 143 122
f 590 344 596
f 590 596 454
f 454 346 590
f 453 597 598
f 598 599 453
f 453 599 338
f 338 352 453
f 594 597 596
f 596 354 594
f 596 344 358
f 501 354 358
f 501 490 356
f 437 436 174
f 174 173 437
f 362 173 42
f 362 439 173
f 66 64 23
f 70 64 66
f 47 24 25
f 25 24 26
f 21 70 68
f 68 22 21
f 70 22 68
f 21 22 48
f 48 39 49
f 48 38 39
f 47 37 48
f 48 37 38
f 23 47 48
f 48 22 23
f 60 21 48
f 48 70 60
f 5 4 134
f 5 134 135
f 135 136 15
f 135 15 5
f 457 480 456
f 486 480 457
f 172 432 457
f 456 170 457
f 457 170 172
f 172 174 434
f 527 526 539
f 538 540 539
f 539 526 538
f 527 539 528
f 528 539 541
f 540 473 542
f 542 539 540
f 541 539 542
f 532 541 542
f 110 111 28
f 28 29 110
f 28 111 34
f 34 30 28
f 28 201 199
f 28 30 201
f 313 312 315
f 178 187 313
f 199 312 313
f 115 31 114
f 31 109 114
f 113 115 114
f 114 109 113
f 202 294 295
f 295 315 202
f 179 296 311
f 294 310 311
f 311 310 179
f 311 295 294
f 296 295 311
f 178 313 314
f 314 313 315
f 314 179 178
f 314 296 179
f 315 295 314
f 314 295 296
f 305 304 183
f 288 304 305
f 183 306 305
f 305 306 288
f 240 236 237
f 237 236 196
f 196 238 237
f 237 242 240
f 237 238 242
f 240 198 233
f 198 197 233
f 234 236 240
f 234 197 236
f 240 233 234
f 234 233 197
f 293 204 205
f 205 292 293
f 206 292 205
f 730 206 205
f 205 204 730
f 203 294 202
f 202 730 203
f 730 204 203
f 203 293 294
f 203 204 293
f 257 207 208
f 208 291 257
f 207 729 208
f 208 729 209
f 209 258 208
f 258 291 208
f 399 398 465
f 396 395 465
f 575 395 396
f 572 395 575
f 572 394 395
f 463 464 392
f 392 391 463
f 390 391 392
f 392 565 390
f 564 565 392
f 465 411 412
f 513 505 516
f 516 505 636
f 506 505 504
f 508 507 506
f 506 507 505
f 506 567 508
f 504 567 506
f 349 351 489
f 489 348 349
f 335 351 349
f 349 348 588
f 587 580 349
f 580 335 349
f 581 587 349
f 349 588 581
f 470 622 623
f 470 621 622
f 471 469 470
f 470 623 471
f 4 117 133
f 133 117 132
f 133 134 4
f 2 117 4
f 4 318 2
f 318 326 2
f 2 326 327
f 514 86 116
f 116 86 132
f 132 117 116
f 603 621 620
f 603 519 330
f 620 518 603
f 518 519 603
f 320 605 329
f 330 2 329
f 609 610 627
f 609 328 327
f 327 610 609
f 320 332 606
f 606 605 320
f 623 622 606
f 622 605 606
f 487 488 493
f 488 494 493
f 442 443 493
f 493 443 487
f 418 442 493
f 280 279 278
f 280 297 279
f 162 448 160
f 162 160 161
f 453 448 162
f 162 164 453
f 108 83 119
f 119 83 84
f 84 85 119
f 118 146 119
f 119 85 81
f 81 118 119
f 107 106 79
f 79 80 107
f 107 121 106
f 340 354 596
f 596 358 340
f 340 358 354
f 360 346 501
f 355 354 501
f 501 356 355
f 355 594 354
f 490 352 357
f 357 356 490
f 357 338 599
f 599 598 343
f 343 357 599
f 356 357 343
f 438 437 173
f 361 362 42
f 361 42 71
f 361 526 527
f 527 521 361
f 439 362 361
f 67 22 70
f 70 66 67
f 23 22 67
f 67 66 23
f 69 47 27
f 47 25 27
f 27 26 69
f 27 25 26
f 59 61 62
f 18 17 49
f 18 61 59
f 130 88 89
f 130 135 134
f 130 132 88
f 89 93 130
f 130 133 132
f 134 133 130
f 93 94 131
f 131 130 93
f 135 130 131
f 131 94 129
f 129 136 131
f 136 135 131
f 378 383 476
f 172 434 433
f 433 432 172
f 381 433 376
f 376 433 434
f 436 530 369
f 369 530 524
f 529 541 532
f 529 528 541
f 529 530 436
f 532 530 529
f 200 313 187
f 187 3 200
f 200 3 29
f 199 313 200
f 200 28 199
f 29 28 200
f 415 399 465
f 465 398 397
f 397 396 465
f 397 398 575
f 575 396 397
f 464 394 393
f 393 392 464
f 394 572 393
f 393 572 564
f 564 392 393
f 465 412 403
f 636 619 517
f 517 516 636
f 619 316 517
f 322 323 186
f 186 175 322
f 322 617 323
f 618 617 322
f 621 470 468
f 620 621 468
f 472 620 468
f 330 519 331
f 331 2 330
f 519 2 331
f 117 2 515
f 515 2 519
f 515 116 117
f 514 116 515
f 515 518 514
f 515 519 518
f 320 329 1
f 1 329 2
f 1 332 320
f 319 332 1
f 1 328 319
f 327 328 1
f 1 2 327
f 604 329 605
f 621 603 604
f 604 603 330
f 330 329 604
f 622 621 604
f 604 605 622
f 627 500 626
f 626 609 627
f 626 500 481
f 481 625 626
f 625 609 626
f 608 609 625
f 319 328 608
f 328 609 608
f 574 564 511
f 564 572 511
f 511 573 574
f 511 509 562
f 562 573 511
f 633 632 616
f 633 616 634
f 494 496 495
f 495 493 494
f 413 405 495
f 495 405 407
f 495 411 413
f 407 408 495
f 495 412 411
f 495 408 409
f 495 403 412
f 409 417 495
f 495 417 416
f 495 416 418
f 418 493 495
f 120 83 108
f 120 80 83
f 120 107 80
f 108 119 120
f 145 121 120
f 121 107 120
f 120 146 145
f 120 119 146
f 345 590 346
f 346 360 345
f 345 360 590
f 501 358 359
f 359 360 501
f 344 590 359
f 590 360 359
f 597 594 341
f 594 355 341
f 593 598 597
f 597 341 593
f 593 341 355
f 342 356 598
f 342 355 356
f 598 593 342
f 342 593 355
f 352 338 595
f 595 357 352
f 338 357 595
f 598 356 592
f 592 343 598
f 356 343 592
f 363 361 521
f 363 521 527
f 527 528 363
f 71 526 520
f 520 361 71
f 526 361 520
f 70 55 56
f 59 70 56
f 56 18 59
f 17 18 56
f 70 48 58
f 58 55 70
f 20 58 48
f 55 58 20
f 19 18 49
f 19 62 61
f 61 18 19
f 383 433 377
f 432 433 379
f 383 378 379
f 379 433 383
f 379 378 476
f 477 469 476
f 477 470 469
f 436 369 370
f 522 363 528
f 532 542 533
f 542 545 533
f 547 542 473
f 547 545 542
f 465 414 400
f 400 415 465
f 406 401 465
f 176 322 175
f 176 175 298
f 298 297 176
f 297 280 176
f 177 176 280
f 177 517 316
f 316 176 177
f 607 624 623
f 623 606 607
f 625 624 607
f 607 608 625
f 607 606 332
f 607 332 319
f 319 608 607
f 510 507 509
f 509 511 510
f 634 635 510
f 635 507 510
f 510 511 496
f 510 633 634
f 497 400 414
f 497 495 496
f 497 414 401
f 401 495 497
f 415 400 497
f 496 511 497
f 399 415 497
f 497 572 575
f 497 511 572
f 575 398 497
f 398 399 497
f 591 358 344
f 344 359 591
f 591 359 358
f 439 361 364
f 361 363 364
f 173 439 364
f 364 438 173
f 364 363 438
f 55 20 16
f 17 56 16
f 16 56 55
f 49 17 16
f 16 48 49
f 16 20 48
f 63 19 49
f 62 19 63
f 63 49 59
f 59 62 63
f 382 377 433
f 470 477 478
f 466 468 478
f 478 468 470
f 478 545 466
f 371 376 434
f 536 371 525
f 436 437 368
f 436 368 367
f 438 363 365
f 363 522 365
f 365 367 368
f 365 522 528
f 528 529 365
f 529 367 365
f 467 547 473
f 545 547 467
f 466 545 467
f 467 468 466
f 467 473 472
f 472 468 467
f 465 403 402
f 403 495 402
f 321 176 316
f 322 176 321
f 321 316 619
f 321 619 618
f 618 322 321
f 498 510 496
f 633 510 498
f 632 633 498
f 498 494 632
f 498 496 494
f 476 486 375
f 486 457 375
f 375 457 432
f 602 601 476
f 432 379 380
f 380 379 476
f 476 601 387
f 387 386 476
f 601 602 387
f 432 386 387
f 387 602 432
f 544 478 477
f 545 478 544
f 372 371 434
f 525 371 435
f 524 530 435
f 435 369 524
f 371 372 435
f 435 370 369
f 435 372 434
f 435 434 174
f 174 436 435
f 436 370 435
f 381 376 543
f 523 529 436
f 436 367 523
f 523 367 529
f 437 438 366
f 438 365 366
f 366 368 437
f 366 365 368
f 465 402 410
f 410 495 401
f 410 402 495
f 517 177 512
f 512 177 280
f 513 516 512
f 516 517 512
f 512 280 278
f 512 278 513
f 432 373 389
f 389 373 476
f 388 373 432
f 432 602 388
f 476 373 388
f 388 602 476
f 432 380 384
f 384 380 476
f 535 544 536
f 535 533 545
f 545 544 535
f 531 536 525
f 525 435 531
f 549 477 476
f 549 543 477
f 549 382 433
f 549 433 381
f 381 543 549
f 477 543 550
f 548 544 477
f 477 550 548
f 576 543 376
f 401 406 404
f 404 410 401
f 404 406 465
f 465 410 404
f 374 375 432
f 432 389 374
f 476 375 374
f 374 389 476
f 476 386 385
f 385 384 476
f 385 386 432
f 432 384 385
f 534 530 532
f 532 533 534
f 533 535 534
f 534 435 530
f 534 531 435
f 534 535 536
f 536 531 534
f 551 549 476
f 476 383 551
f 383 377 551
f 377 382 551
f 382 549 551
f 537 550 543
f 537 548 550
f 543 576 537
f 536 544 537
f 544 548 537
f 371 536 537
f 376 371 537
f 537 576 376
f 666 642 641
f 641 642 158
f 640 639 667
f 150 639 640
f 666 641 640
f 640 641 150
f 250 249 222
f 222 249 221
f 638 639 152
f 667 639 638
f 637 638 152
f 668 638 637
f 228 229 252
f 228 252 245
f 158 642 643
f 643 642 665
f 653 659 654
f 169 653 654
f 655 656 171
f 658 656 655
f 655 654 659
f 171 654 655
f 644 643 665
f 159 643 644
f 159 644 645
f 645 644 664
f 645 646 161
f 664 646 645
f 647 662 648
f 647 648 163
f 661 651 650
f 650 651 165
f 648 662 650
f 650 165 648
f 652 651 661
f 167 651 652
f 649 653 169
f 649 660 653
f 167 652 649
f 649 652 660
f 729 727 728
f 729 733 734
f 729 725 726
f 729 708 709
f 706 707 729
f 703 704 729
f 716 717 729
f 709 710 729
f 722 723 729
f 729 718 719
f 729 721 722
f 712 713 729
f 734 735 729
f 729 737 738
f 726 727 729
f 729 705 706
f 729 723 724
f 724 725 729
f 729 717 718
f 719 720 729
f 729 715 716
f 729 711 712
f 729 740 703
f 738 739 729
f 731 732 729
f 729 707 708
f 729 730 731
f 729 704 705
f 720 721 729
f 714 715 729
f 729 713 714
f 729 710 711
f 729 735 736
f 739 740 729
f 736 737 729
f 732 733 729
f 163 164 162
f 162 161 163
