v 0.007536 0.016346 0.006879
v 0.007219 0.016311 0.006879
v 0.008472 0.016225 0.006879
v 0.008036 0.015788 0.003758
v 0.007712 0.015788 0.003758
v 0.006462 0.016140 0.006879
v 0.008592 0.015306 0.003242
v 0.010011 0.014932 0.006879
v 0.009642 0.014583 0.003199
v 0.008687 0.014618 0.002334
v 0.007219 0.015493 0.003242
v 0.005947 0.014817 0.003199
v -0.006610 0.008894 0.006879
v 0.009501 0.014399 0.002403
v 0.017424 0.001848 0.006879
v 0.017100 0.001525 0.003200
v 0.008687 0.013559 0.002168
v 0.007219 0.014725 0.002296
v 0.006226 0.014545 0.002353
v -0.016164 0.002165 0.003189
v -0.015640 0.002613 0.003672
v -0.016316 0.002911 0.006879
v 0.016910 0.001297 0.002362
v 0.017963 0.000368 0.006879
v 0.017776 0.000368 0.004664
v 0.017533 0.000368 0.003200
v 0.016016 0.000368 0.002134
v 0.007219 0.013559 0.002127
v -0.016224 0.000368 0.002156
v -0.016224 0.001468 0.002324
v -0.017066 0.001240 0.002390
v -0.017221 0.001436 0.003199
v -0.017580 0.001766 0.006879
v 0.017016 0.000368 0.002303
v 0.017865 -0.000720 0.006879
v 0.017526 -0.001097 0.004664
v 0.017171 -0.001237 0.003059
v 0.016938 -0.000844 0.002354
v 0.014544 0.000368 0.002127
v 0.016160 -0.001237 0.002265
v -0.007438 -0.014295 0.002163
v -0.007438 -0.012830 0.002127
v -0.014766 0.000368 0.002127
v -0.016295 -0.001167 0.002268
v -0.017115 -0.000726 0.002356
v -0.017161 0.000368 0.002326
v -0.008907 -0.014276 0.002293
v -0.017566 0.000368 0.003199
v -0.017767 0.000368 0.004664
v -0.017725 0.001376 0.006879
v 0.017798 -0.001097 0.006879
v 0.017474 -0.001966 0.006879
v 0.016889 -0.001957 0.003453
v 0.016738 -0.001820 0.002476
v 0.015766 -0.001985 0.002356
v -0.006544 -0.015129 0.002388
v -0.007438 -0.015199 0.002333
v -0.008421 -0.015157 0.002368
v -0.016837 -0.001703 0.002663
v -0.017288 -0.001167 0.003170
v -0.009727 -0.013775 0.002389
v -0.017851 -0.001097 0.006879
v -0.018013 0.000368 0.006879
v 0.017245 -0.002328 0.006879
v -0.006322 -0.015278 0.003199
v -0.007438 -0.015573 0.003199
v -0.008702 -0.015322 0.003199
v -0.009435 -0.014796 0.003199
v -0.017038 -0.001900 0.003640
v -0.009868 -0.014063 0.003199
v -0.017411 -0.002274 0.006879
v -0.005966 -0.015649 0.006879
v -0.006360 -0.015773 0.006879
v -0.007438 -0.015773 0.004665
v -0.008945 -0.015795 0.006879
v -0.009875 -0.015268 0.006879
v -0.007438 -0.016048 0.006879
f 42 43 28
f 31 19 30
f 41 58 47
f 31 30 29
f 28 43 29
f 43 42 29
f 42 41 29
f 47 44 29
f 29 41 47
f 29 30 19
f 1 4 5
f 28 29 18
f 18 29 19
f 3 4 1
f 20 19 31
f 60 71 62
f 62 48 60
f 31 48 32
f 32 33 22
f 32 50 33
f 32 20 31
f 22 20 32
f 27 41 42
f 56 66 57
f 57 66 58
f 57 41 56
f 58 41 57
f 77 75 74
f 75 66 74
f 74 73 77
f 58 66 67
f 67 66 75
f 67 68 58
f 67 75 76
f 76 68 67
f 76 71 69
f 69 71 60
f 47 58 61
f 58 68 61
f 8 15 16
f 45 29 44
f 60 48 45
f 45 44 47
f 47 61 45
f 11 5 4
f 4 10 11
f 11 10 18
f 11 18 19
f 11 6 5
f 22 13 21
f 21 20 22
f 13 20 21
f 63 50 49
f 49 62 63
f 48 62 49
f 49 32 48
f 50 32 49
f 56 55 54
f 39 42 28
f 28 27 39
f 39 27 42
f 41 27 40
f 56 41 40
f 40 55 56
f 40 27 38
f 38 54 40
f 40 54 55
f 72 73 65
f 65 66 56
f 65 74 66
f 73 74 65
f 56 54 65
f 64 72 65
f 70 68 76
f 76 69 70
f 70 61 68
f 9 16 14
f 8 16 9
f 9 3 8
f 25 15 24
f 25 16 15
f 31 29 46
f 29 45 46
f 46 48 31
f 46 45 48
f 60 45 59
f 59 45 61
f 61 70 59
f 59 69 60
f 59 70 69
f 1 5 2
f 5 6 2
f 14 10 7
f 7 10 4
f 7 9 14
f 4 3 7
f 3 9 7
f 17 10 14
f 17 27 28
f 28 18 17
f 18 10 17
f 13 6 12
f 6 11 12
f 12 20 13
f 19 20 12
f 12 11 19
f 36 51 52
f 35 25 24
f 35 51 36
f 36 25 35
f 37 54 38
f 16 25 26
f 26 37 38
f 26 25 36
f 36 37 26
f 53 52 64
f 64 65 53
f 53 65 54
f 54 37 53
f 36 52 53
f 53 37 36
f 16 26 23
f 14 16 23
f 23 17 14
f 27 17 23
f 34 26 38
f 34 23 26
f 38 27 34
f 27 23 34
f 35 75 77
f 77 73 35
f 64 52 35
f 35 50 63
f 63 62 35
f 35 3 1
f 24 15 35
f 22 33 35
f 35 13 22
f 35 71 76
f 35 72 64
f 76 75 35
f 35 15 8
f 8 3 35
f 35 62 71
f 33 50 35
f 35 73 72
f 35 6 13
f 1 2 35
f 35 2 6
f 35 52 51
