v -0.000297 0.054455 0.025606
v -0.000297 0.053824 0.024337
v -0.000297 0.054342 0.027506
v -0.000128 0.054334 0.027506
v 0.001770 0.054286 0.025606
v 0.003668 0.053607 0.024249
v 0.001770 0.053683 0.024224
v -0.000297 0.053760 0.024216
v -0.000128 0.053755 0.024216
v -0.000297 0.054318 0.027670
v -0.000128 0.054001 0.029400
v 0.001770 0.053856 0.029400
v 0.001770 0.054173 0.027506
v 0.003668 0.054113 0.025606
v 0.005566 0.053478 0.024325
v 0.005566 0.052177 0.023883
v 0.003668 0.052177 0.023805
v -0.000297 0.052321 0.023809
v 0.001770 0.052177 0.023782
v -0.000297 0.054009 0.029400
v -0.000128 0.053639 0.031300
v 0.001770 0.053506 0.031300
v 0.002946 0.053169 0.032414
v 0.003668 0.053635 0.029400
v 0.003668 0.053972 0.027506
v 0.005566 0.053836 0.025606
v 0.008659 0.053177 0.024598
v 0.007464 0.053293 0.024473
v 0.011255 0.051859 0.024232
v 0.007464 0.052177 0.024029
v 0.013158 0.050280 0.023899
v 0.011255 0.050280 0.023790
v -0.000297 0.052177 0.023770
v -0.000297 0.053647 0.031300
v -0.000292 0.053289 0.032994
v -0.000124 0.053285 0.032963
v 0.001610 0.053209 0.032768
v 0.001770 0.053221 0.032659
v -0.000297 0.053338 0.032768
v 0.001775 0.052996 0.033607
v 0.001775 0.052639 0.035093
v 0.003668 0.052386 0.035093
v 0.005566 0.052044 0.035093
v 0.005566 0.052502 0.033198
v 0.004212 0.053056 0.031906
v 0.003616 0.053285 0.031281
v 0.004933 0.053185 0.030640
v 0.005566 0.053667 0.027506
v 0.008608 0.053169 0.026792
v 0.007464 0.053458 0.025606
v 0.008748 0.053193 0.025606
v 0.009695 0.052964 0.025606
v 0.011255 0.052522 0.025606
v 0.014531 0.051369 0.024512
v 0.013158 0.051582 0.024343
v 0.016950 0.049939 0.024255
v 0.018838 0.048380 0.024031
v 0.016950 0.048380 0.023813
v 0.020741 0.046484 0.023805
v 0.026430 0.042691 0.023798
v -0.000297 0.050686 0.024177
v 0.028329 0.040799 0.023833
v 0.032500 0.038521 0.023860
v 0.030602 0.038521 0.023887
v -0.000292 0.053077 0.033930
v -0.000124 0.052803 0.035093
v -0.000297 0.048119 0.032768
v -0.000292 0.048685 0.043658
v -0.000292 0.049039 0.043271
v -0.000292 0.049762 0.042323
v -0.000292 0.050795 0.040672
v -0.000292 0.051004 0.040322
v -0.000292 0.051441 0.039422
v -0.000292 0.051594 0.039033
v -0.000292 0.052257 0.037154
v -0.000292 0.052313 0.036991
v -0.000292 0.052815 0.035077
v 0.001775 0.052128 0.036991
v -0.000124 0.052301 0.036991
v 0.003668 0.051875 0.036991
v 0.005603 0.051510 0.037076
v 0.007464 0.051337 0.036409
v 0.008439 0.051237 0.036070
v 0.007464 0.051674 0.035093
v 0.007464 0.052136 0.033198
v 0.007464 0.052237 0.032768
v 0.007464 0.052566 0.031300
v 0.005566 0.052932 0.031281
v 0.006199 0.053068 0.030037
v 0.005566 0.053306 0.029404
v 0.006808 0.053189 0.028772
v 0.007450 0.053293 0.027456
v 0.008073 0.053056 0.028057
v 0.009287 0.052900 0.027456
v 0.011255 0.052369 0.027506
v 0.013158 0.051936 0.025606
v 0.014719 0.051429 0.025606
v 0.015665 0.051088 0.025606
v 0.019799 0.049332 0.024656
v 0.018838 0.049545 0.024477
v 0.022302 0.047745 0.024403
v 0.020554 0.048380 0.024325
v 0.022812 0.046665 0.024150
v 0.024528 0.044588 0.023848
v 0.032125 0.038899 0.023860
v -0.000297 0.050550 0.024216
v 0.033966 0.038843 0.024273
v 0.033981 0.038521 0.024203
v 0.047576 0.013416 0.032766
v 0.042088 0.013416 0.032766
v -0.000297 0.049320 0.026515
v -0.000292 0.040008 0.043658
v -0.000124 0.048673 0.043658
v -0.000124 0.049031 0.043265
v -0.000124 0.049758 0.042317
v -0.000044 0.050803 0.040637
v 0.000650 0.051212 0.039798
v -0.000044 0.051570 0.039052
v 0.001775 0.051538 0.038716
v 0.003668 0.051413 0.038412
v 0.004994 0.051305 0.038130
v 0.006260 0.051176 0.037768
v 0.007464 0.051052 0.037357
v 0.007895 0.052136 0.032768
v 0.009189 0.050783 0.036816
v 0.011255 0.050120 0.036991
v 0.011255 0.050630 0.035093
v 0.010763 0.051373 0.032796
v 0.009507 0.051606 0.033335
v 0.009357 0.052136 0.031300
v 0.009357 0.052522 0.029400
v 0.007450 0.052940 0.029404
v 0.011255 0.051992 0.029400
v 0.013749 0.051116 0.029766
v 0.013158 0.051755 0.027506
v 0.014414 0.051333 0.027506
v 0.015361 0.051012 0.027506
v 0.016950 0.050385 0.027506
v 0.016950 0.050566 0.025606
v 0.019012 0.049674 0.025454
v 0.019799 0.049332 0.024720
v 0.022578 0.047902 0.025606
v 0.023530 0.047396 0.025606
v 0.025826 0.045753 0.024467
v 0.024528 0.046158 0.024294
v 0.026445 0.044656 0.024195
v 0.030222 0.040799 0.023916
v 0.032012 0.040739 0.024313
v -0.000297 0.049605 0.025614
v 0.034285 0.038521 0.024278
v 0.033301 0.040064 0.024481
v 0.034548 0.038521 0.024380
v 0.047365 0.014203 0.032766
v 0.046939 0.013416 0.035126
v 0.033554 0.013416 0.043658
v -0.000297 0.049561 0.025680
v 0.001775 0.048485 0.043658
v 0.001775 0.048943 0.043146
v 0.001775 0.049670 0.042198
v 0.001775 0.050546 0.040781
v 0.001775 0.051156 0.039664
v 0.003668 0.051032 0.039360
v 0.005603 0.050907 0.038809
v 0.007464 0.050481 0.038887
v 0.009357 0.050007 0.038887
v 0.011096 0.049545 0.038809
v 0.012427 0.049405 0.038130
v 0.013097 0.049569 0.036909
v 0.013149 0.050043 0.035093
v 0.012029 0.051172 0.031999
v 0.011344 0.051542 0.031339
v 0.012483 0.051317 0.030736
v 0.015052 0.050329 0.031300
v 0.014878 0.050831 0.029241
v 0.014138 0.051241 0.028499
v 0.013130 0.050971 0.031339
v 0.016950 0.049979 0.029400
v 0.018576 0.049654 0.027506
v 0.019762 0.049316 0.025988
v 0.020554 0.048939 0.025454
v 0.022363 0.047810 0.027506
v 0.023309 0.047267 0.027506
v 0.025774 0.045725 0.027506
v 0.025976 0.045849 0.025606
v 0.026923 0.045234 0.025606
v 0.028286 0.044282 0.025606
v 0.029238 0.043607 0.025606
v 0.031305 0.041852 0.024559
v 0.028000 0.044069 0.024372
v 0.028507 0.042876 0.024130
v 0.030222 0.042290 0.024360
v 0.033395 0.040152 0.025606
v 0.034341 0.039208 0.025606
v 0.034899 0.038521 0.024868
v 0.046301 0.015007 0.035831
v 0.046686 0.014316 0.035155
v 0.046489 0.013741 0.036467
v 0.046109 0.018201 0.032766
v 0.046526 0.013416 0.036607
v 0.042693 0.013416 0.043658
v 0.003668 0.048227 0.043658
v 0.003668 0.048814 0.042979
v 0.003668 0.049545 0.042031
v 0.003668 0.050296 0.040781
v 0.005669 0.049855 0.040945
v 0.007464 0.049714 0.040509
v 0.009357 0.049473 0.040090
v 0.010351 0.049344 0.039856
v 0.011612 0.049139 0.039391
v 0.013097 0.048878 0.038809
v 0.013692 0.049184 0.037487
v 0.014250 0.049388 0.036222
v 0.013149 0.050517 0.033198
v 0.014648 0.049541 0.035093
v 0.013149 0.050622 0.032768
v 0.015164 0.049931 0.032768
v 0.016312 0.049477 0.032799
v 0.013589 0.050473 0.032768
v 0.016945 0.049593 0.031117
v 0.017906 0.049336 0.030364
v 0.018131 0.049445 0.029400
v 0.019077 0.049007 0.029400
v 0.019523 0.049208 0.027506
v 0.020741 0.048633 0.027506
v 0.021978 0.047601 0.029400
v 0.021753 0.047472 0.030504
v 0.025310 0.045435 0.029922
v 0.025554 0.045588 0.028659
v 0.026721 0.045118 0.027506
v 0.028094 0.044170 0.027506
v 0.029041 0.043455 0.027506
v 0.031276 0.041828 0.026866
v 0.031351 0.041884 0.025606
v 0.032303 0.041100 0.025606
v 0.033268 0.040036 0.027185
v 0.035012 0.038521 0.025606
v 0.042932 0.025364 0.032766
v 0.043761 0.023721 0.032766
v 0.044324 0.022479 0.032766
v 0.044746 0.021531 0.032766
v 0.045458 0.019904 0.032766
v 0.045500 0.018032 0.035093
v 0.045570 0.016132 0.036991
v 0.046128 0.014316 0.037057
v 0.046400 0.013416 0.037026
v 0.045331 0.019928 0.033197
v 0.044610 0.019350 0.036525
v 0.043461 0.013416 0.042691
v 0.042660 0.013556 0.043658
v 0.005585 0.047886 0.043658
v 0.005669 0.048758 0.042568
v 0.005107 0.049425 0.041862
v 0.006367 0.049300 0.041682
v 0.007464 0.049168 0.041461
v 0.009357 0.048914 0.041038
v 0.011096 0.048665 0.040606
v 0.013083 0.047874 0.040810
v 0.014639 0.047649 0.040199
v 0.015904 0.047396 0.039747
v 0.015183 0.047990 0.039021
v 0.016523 0.047665 0.038482
v 0.014953 0.048886 0.036909
v 0.015600 0.049172 0.035093
v 0.015947 0.049308 0.034063
v 0.015211 0.049774 0.033339
v 0.016950 0.048581 0.035093
v 0.018843 0.048207 0.033198
v 0.018805 0.048332 0.032768
v 0.018655 0.048810 0.031117
v 0.017573 0.049184 0.031629
v 0.020788 0.047781 0.031203
v 0.020741 0.048219 0.029400
v 0.021449 0.047307 0.031770
v 0.022489 0.046841 0.031203
v 0.025025 0.045258 0.031300
v 0.026562 0.044242 0.031343
v 0.026290 0.044949 0.029334
v 0.027761 0.043929 0.029400
v 0.027522 0.043752 0.030740
v 0.028713 0.043194 0.029400
v 0.030845 0.041486 0.029400
v 0.031066 0.041659 0.028131
v 0.030348 0.042406 0.027502
v 0.032176 0.040847 0.027658
v 0.033071 0.039847 0.028450
v 0.034116 0.038995 0.027804
v 0.034688 0.038521 0.027448
v 0.031965 0.040538 0.029400
v 0.039365 0.031085 0.032766
v 0.040293 0.029783 0.032766
v 0.040860 0.028879 0.032766
v 0.042402 0.026296 0.032766
v 0.042880 0.025243 0.033197
v 0.042683 0.024894 0.034559
v 0.043640 0.023725 0.033197
v 0.044689 0.021395 0.033197
v 0.044019 0.021724 0.035038
v 0.044863 0.018132 0.037090
v 0.044403 0.018831 0.037791
v 0.044619 0.017566 0.038371
v 0.044849 0.016168 0.038957
v 0.045477 0.014235 0.038887
v 0.046236 0.013416 0.037522
v 0.044343 0.020615 0.035636
v 0.044788 0.019960 0.035038
v 0.044160 0.019960 0.037090
v 0.044343 0.013416 0.041546
v 0.043171 0.014187 0.042780
v 0.042430 0.014786 0.043481
v 0.042285 0.014669 0.043658
v 0.007014 0.047597 0.043658
v 0.007539 0.048123 0.042835
v 0.009357 0.047970 0.042428
v 0.011255 0.047693 0.042070
v 0.012404 0.047504 0.041830
v 0.013669 0.047263 0.041461
v 0.015183 0.047054 0.040810
v 0.017029 0.046199 0.040888
v 0.018510 0.045837 0.040328
v 0.019776 0.045528 0.039817
v 0.017076 0.047183 0.039021
v 0.017788 0.047384 0.037795
v 0.017076 0.047930 0.037092
v 0.018229 0.047589 0.036529
v 0.019494 0.047291 0.035515
v 0.018852 0.047737 0.034968
v 0.019851 0.047460 0.034250
v 0.020132 0.047601 0.033198
v 0.020272 0.047641 0.032768
v 0.021191 0.047163 0.032768
v 0.022245 0.045877 0.035093
v 0.022761 0.046102 0.033249
v 0.022700 0.046275 0.032768
v 0.023576 0.045745 0.032768
v 0.026084 0.044049 0.033197
v 0.026196 0.044093 0.032768
v 0.024457 0.045066 0.033247
v 0.027283 0.043571 0.032007
v 0.028225 0.043021 0.031343
v 0.030508 0.041217 0.031300
v 0.031647 0.040269 0.031300
v 0.032912 0.039694 0.029400
v 0.033966 0.038521 0.029735
v 0.034074 0.038521 0.029400
v 0.031389 0.040036 0.032823
v 0.035185 0.036267 0.032766
v 0.036071 0.035239 0.032766
v 0.036652 0.034544 0.032766
v 0.036919 0.034222 0.032766
v 0.037163 0.033917 0.032766
v 0.038611 0.032069 0.032766
v 0.039276 0.031033 0.033197
v 0.040490 0.028180 0.035463
v 0.040678 0.028494 0.034197
v 0.038976 0.030643 0.035093
v 0.038803 0.030418 0.036156
v 0.039970 0.029241 0.034935
v 0.040823 0.028735 0.033197
v 0.041549 0.027517 0.033197
v 0.041029 0.027537 0.034935
v 0.042121 0.025565 0.035151
v 0.042491 0.024536 0.035825
v 0.043021 0.023833 0.035151
v 0.042576 0.022813 0.037982
v 0.042782 0.021704 0.038723
v 0.043490 0.019928 0.038887
v 0.044178 0.018132 0.038957
v 0.044375 0.016827 0.039636
v 0.045711 0.013416 0.038858
v 0.044572 0.015561 0.040037
v 0.044769 0.014235 0.040390
v 0.042749 0.023178 0.036991
v 0.043363 0.021824 0.036991
v 0.044511 0.013416 0.041256
v 0.044216 0.014235 0.041340
v 0.042735 0.017534 0.041965
v 0.042969 0.016132 0.042268
v 0.042205 0.016132 0.043217
v 0.041788 0.016132 0.043658
v 0.008162 0.047311 0.043658
v 0.008223 0.047384 0.043573
v 0.009357 0.047223 0.043380
v 0.011255 0.046930 0.043022
v 0.012783 0.045853 0.043658
v 0.013191 0.046496 0.042701
v 0.015047 0.046042 0.042366
v 0.016453 0.045749 0.042004
v 0.017714 0.045443 0.041593
v 0.019026 0.046235 0.039064
v 0.019026 0.045230 0.040888
v 0.020783 0.044302 0.040840
v 0.022138 0.043901 0.040246
v 0.023408 0.043527 0.039605
v 0.020849 0.045258 0.039064
v 0.020286 0.045813 0.038552
v 0.018852 0.047107 0.037092
v 0.020849 0.046078 0.037041
v 0.020586 0.046861 0.034968
v 0.021913 0.045672 0.036440
v 0.023370 0.045194 0.035112
v 0.025751 0.043820 0.034733
v 0.027124 0.043455 0.032766
v 0.024711 0.044322 0.035256
v 0.027893 0.042141 0.035093
v 0.029294 0.041755 0.032766
v 0.032598 0.039381 0.031300
v 0.033451 0.038521 0.031300
v 0.030255 0.040819 0.033267
v 0.031155 0.039827 0.034086
v 0.033296 0.038172 0.032766
v 0.034955 0.036030 0.034092
v 0.035574 0.034885 0.035093
v 0.037060 0.032491 0.036545
v 0.038245 0.031591 0.035093
v 0.039201 0.029434 0.036868
v 0.040307 0.027537 0.037148
v 0.040865 0.026919 0.036623
v 0.038564 0.030072 0.037421
v 0.037814 0.031306 0.036983
v 0.041334 0.025794 0.037148
v 0.042294 0.024122 0.036991
v 0.040964 0.025199 0.038887
v 0.041887 0.023556 0.038723
v 0.042304 0.022254 0.039247
v 0.042608 0.020989 0.039923
v 0.042824 0.019928 0.040285
v 0.043176 0.018112 0.040902
v 0.043977 0.016168 0.040717
v 0.044858 0.013416 0.040623
v 0.042482 0.018799 0.041614
v 0.041193 0.019796 0.042706
v 0.041952 0.018112 0.042632
v 0.040710 0.019085 0.043658
v 0.041095 0.018044 0.043658
v 0.009357 0.046950 0.043658
v 0.011255 0.046359 0.043658
v 0.013913 0.045411 0.043658
v 0.013974 0.045483 0.043569
v 0.015047 0.045258 0.043314
v 0.017029 0.044917 0.042656
v 0.018660 0.044101 0.042656
v 0.020179 0.043860 0.042004
v 0.021444 0.043487 0.041511
v 0.022719 0.043153 0.040840
v 0.023370 0.042772 0.040773
v 0.024425 0.042153 0.040664
v 0.025596 0.041820 0.039954
v 0.024509 0.043089 0.038938
v 0.023858 0.043816 0.038340
v 0.023370 0.043997 0.038597
v 0.022719 0.044234 0.038938
v 0.021552 0.045459 0.037705
v 0.022583 0.045070 0.037041
v 0.023370 0.044596 0.037016
v 0.025460 0.043623 0.035998
v 0.026402 0.043194 0.035256
v 0.027035 0.043386 0.033197
v 0.024247 0.044061 0.036991
v 0.027602 0.041908 0.036500
v 0.028844 0.041390 0.035093
v 0.032223 0.038991 0.033463
v 0.031933 0.038694 0.035093
v 0.032884 0.037758 0.035093
v 0.030002 0.040442 0.035093
v 0.030953 0.039642 0.035093
v 0.034777 0.035833 0.035093
v 0.033826 0.036806 0.035093
v 0.035237 0.034480 0.036991
v 0.036816 0.032198 0.037812
v 0.038995 0.028811 0.038427
v 0.040640 0.026537 0.037888
v 0.037289 0.030916 0.038887
v 0.038297 0.029434 0.038990
v 0.040415 0.026147 0.038887
v 0.040720 0.024773 0.039928
v 0.042243 0.019928 0.041235
v 0.040987 0.023725 0.040366
v 0.040650 0.022753 0.041718
v 0.040949 0.021487 0.042091
v 0.040420 0.020338 0.043355
v 0.038878 0.022969 0.043658
v 0.015047 0.044913 0.043658
v 0.016959 0.044057 0.043658
v 0.017812 0.043668 0.043658
v 0.017906 0.043643 0.043635
v 0.019171 0.043306 0.043267
v 0.020868 0.042768 0.042778
v 0.022639 0.042173 0.042226
v 0.023370 0.041944 0.041967
v 0.023717 0.041832 0.041840
v 0.024982 0.041390 0.041219
v 0.026356 0.040735 0.040695
v 0.027677 0.040084 0.040174
v 0.026923 0.041394 0.038887
v 0.025971 0.042089 0.038887
v 0.027288 0.041675 0.037766
v 0.025198 0.043443 0.036991
v 0.026566 0.042446 0.037076
v 0.028272 0.041153 0.037076
v 0.029594 0.040108 0.036991
v 0.031558 0.038320 0.036991
v 0.032504 0.037388 0.036991
v 0.033465 0.036436 0.036991
v 0.030541 0.039268 0.036991
v 0.034412 0.035428 0.036991
v 0.035030 0.034222 0.038069
v 0.036553 0.031868 0.038887
v 0.035513 0.033218 0.038774
v 0.038691 0.028357 0.039691
v 0.039469 0.027642 0.038990
v 0.036994 0.030534 0.040028
v 0.039089 0.027091 0.040345
v 0.039698 0.025601 0.040769
v 0.040387 0.023725 0.041316
v 0.038676 0.026429 0.041608
v 0.039047 0.025163 0.042068
v 0.039356 0.023624 0.042693
v 0.040181 0.022001 0.042706
v 0.038489 0.024195 0.043331
v 0.036844 0.026537 0.043608
v 0.036807 0.026501 0.043658
v 0.017938 0.043603 0.043658
v 0.020427 0.042201 0.043658
v 0.021566 0.041667 0.043549
v 0.023370 0.041667 0.042272
v 0.024382 0.040683 0.042578
v 0.025849 0.040124 0.042050
v 0.027115 0.039626 0.041439
v 0.028413 0.038963 0.040880
v 0.029674 0.038304 0.040320
v 0.028942 0.039566 0.039311
v 0.028319 0.040357 0.038762
v 0.029341 0.039899 0.038048
v 0.031290 0.038063 0.038159
v 0.033198 0.036179 0.038184
v 0.033957 0.035026 0.038756
v 0.034712 0.033857 0.039333
v 0.037360 0.029345 0.040709
v 0.038367 0.027642 0.040900
v 0.035237 0.032591 0.040215
v 0.035893 0.031278 0.040754
v 0.036549 0.029924 0.041293
v 0.037003 0.028666 0.041891
v 0.037378 0.027517 0.042309
v 0.037950 0.025850 0.042839
v 0.036511 0.027517 0.043259
v 0.035232 0.028787 0.043658
v 0.021496 0.041587 0.043658
v 0.023829 0.040040 0.043658
v 0.022639 0.041313 0.043178
v 0.023370 0.041052 0.042924
v 0.025043 0.039522 0.043316
v 0.026491 0.038943 0.042741
v 0.027883 0.038360 0.042169
v 0.029149 0.037830 0.041587
v 0.030386 0.037143 0.040980
v 0.031595 0.036460 0.040372
v 0.030939 0.037726 0.039422
v 0.030142 0.038814 0.038733
v 0.032073 0.036950 0.038803
v 0.032860 0.035821 0.039448
v 0.033446 0.034556 0.040329
v 0.034116 0.033314 0.040904
v 0.034782 0.032025 0.041478
v 0.035283 0.030759 0.042072
v 0.035850 0.029321 0.042615
v 0.034674 0.029976 0.043337
v 0.033563 0.030920 0.043658
v 0.024828 0.039289 0.043658
v 0.025995 0.038397 0.043658
v 0.027133 0.037746 0.043433
v 0.028507 0.037151 0.042835
v 0.029828 0.036565 0.042233
v 0.031094 0.035970 0.041638
v 0.032279 0.035263 0.040984
v 0.032964 0.034034 0.041595
v 0.033517 0.032772 0.042198
v 0.034098 0.031402 0.042769
v 0.032893 0.032049 0.043464
v 0.032757 0.031916 0.043658
v 0.026984 0.037589 0.043658
v 0.028043 0.036665 0.043658
v 0.029125 0.035906 0.043499
v 0.030438 0.035303 0.042872
v 0.031698 0.034705 0.042245
v 0.031042 0.034010 0.043510
v 0.032298 0.033391 0.042854
v 0.030939 0.033913 0.043658
v 0.029017 0.035797 0.043658
f 111 112 67
f 111 156 112
f 64 110 106
f 112 156 155
f 155 156 110
f 110 156 149
f 149 106 110
f 33 64 61
f 64 106 61
f 253 311 312
f 15 16 6
f 14 13 25
f 25 26 14
f 27 14 26
f 63 64 33
f 109 110 63
f 63 110 64
f 30 16 15
f 30 31 16
f 32 31 58
f 16 31 32
f 58 59 32
f 251 311 253
f 315 256 255
f 131 87 130
f 130 133 131
f 265 217 216
f 586 588 579
f 3 4 1
f 10 4 3
f 13 4 12
f 25 13 12
f 23 12 22
f 433 378 432
f 194 241 198
f 376 432 378
f 236 237 194
f 1 6 7
f 5 14 15
f 5 6 1
f 15 6 5
f 13 14 5
f 1 4 5
f 5 4 13
f 48 26 25
f 48 49 26
f 131 133 95
f 133 134 95
f 29 30 15
f 31 30 29
f 26 49 50
f 50 27 26
f 62 63 33
f 158 201 202
f 202 201 250
f 311 251 250
f 250 251 202
f 383 384 315
f 253 312 313
f 482 438 437
f 437 438 384
f 385 386 315
f 385 438 386
f 315 384 385
f 384 438 385
f 395 322 389
f 257 256 315
f 315 316 257
f 208 255 256
f 256 257 208
f 259 260 210
f 167 209 210
f 211 167 210
f 210 260 211
f 261 260 259
f 211 260 261
f 126 125 167
f 399 452 453
f 324 322 396
f 396 322 395
f 397 452 399
f 399 398 397
f 395 452 397
f 397 396 395
f 328 267 327
f 327 267 326
f 323 322 324
f 266 267 217
f 326 267 266
f 266 323 324
f 263 323 266
f 212 263 214
f 214 265 216
f 520 521 481
f 430 478 479
f 330 398 399
f 182 226 227
f 459 456 455
f 496 499 459
f 460 404 459
f 101 56 100
f 102 56 101
f 69 39 68
f 69 70 39
f 72 73 39
f 203 158 202
f 39 21 34
f 11 21 22
f 22 12 11
f 11 4 10
f 11 12 4
f 292 236 291
f 237 236 292
f 194 237 238
f 434 378 433
f 434 379 378
f 378 379 309
f 153 198 195
f 194 198 153
f 109 152 153
f 152 194 153
f 307 308 248
f 377 308 307
f 307 376 377
f 377 309 308
f 377 376 378
f 378 309 377
f 287 236 235
f 286 235 285
f 287 235 286
f 1 7 2
f 16 32 17
f 17 6 16
f 17 7 6
f 132 87 131
f 24 48 25
f 25 12 24
f 12 23 24
f 48 24 47
f 131 95 94
f 94 95 49
f 135 95 134
f 28 29 15
f 15 14 28
f 14 27 28
f 55 28 27
f 29 28 55
f 31 29 55
f 55 56 31
f 191 148 189
f 59 104 60
f 63 62 60
f 60 62 33
f 33 32 60
f 60 32 59
f 58 31 57
f 31 56 57
f 57 59 58
f 57 56 102
f 102 101 57
f 57 104 59
f 201 158 157
f 384 383 436
f 436 383 382
f 253 313 254
f 382 383 314
f 314 313 382
f 314 383 315
f 315 255 314
f 255 254 314
f 314 254 313
f 321 389 322
f 321 261 259
f 322 261 321
f 395 389 320
f 320 321 259
f 389 321 320
f 317 318 259
f 253 254 206
f 125 123 165
f 166 209 167
f 166 208 209
f 166 165 208
f 167 125 166
f 125 165 166
f 168 126 167
f 168 167 211
f 211 212 168
f 449 453 452
f 325 397 398
f 396 397 325
f 398 330 325
f 325 330 327
f 324 396 325
f 325 327 326
f 325 266 324
f 326 266 325
f 219 177 217
f 220 177 219
f 138 177 178
f 262 263 212
f 262 323 263
f 262 212 211
f 211 261 262
f 262 261 322
f 322 323 262
f 264 266 217
f 263 266 264
f 217 265 264
f 265 214 264
f 264 214 263
f 173 214 216
f 173 174 134
f 216 217 173
f 217 177 173
f 177 138 173
f 137 174 173
f 173 138 137
f 580 579 588
f 580 568 579
f 547 521 520
f 430 479 431
f 433 432 431
f 431 376 430
f 432 376 431
f 480 481 433
f 433 431 480
f 480 431 479
f 476 478 430
f 430 425 476
f 476 425 478
f 557 530 556
f 570 581 571
f 556 530 555
f 555 530 529
f 318 317 387
f 387 317 316
f 315 386 387
f 387 316 315
f 386 438 439
f 439 387 386
f 532 496 494
f 411 346 410
f 460 464 409
f 409 408 460
f 465 409 464
f 501 462 465
f 462 409 465
f 500 465 464
f 500 459 499
f 500 464 460
f 460 459 500
f 178 177 221
f 221 177 220
f 331 330 399
f 399 400 331
f 182 227 228
f 144 145 101
f 70 69 115
f 39 70 71
f 71 72 39
f 70 115 71
f 252 251 253
f 202 251 252
f 252 203 202
f 20 11 10
f 38 23 22
f 22 21 38
f 21 37 38
f 36 37 21
f 294 238 293
f 293 238 237
f 293 292 294
f 237 292 293
f 366 425 367
f 308 309 249
f 200 248 249
f 249 248 308
f 109 153 154
f 154 153 197
f 195 197 196
f 196 153 195
f 197 153 196
f 193 235 236
f 193 236 194
f 287 346 347
f 347 346 411
f 287 286 344
f 344 346 287
f 343 346 344
f 285 343 344
f 344 286 285
f 8 2 9
f 9 2 7
f 7 17 9
f 49 48 92
f 48 47 90
f 46 24 23
f 46 47 24
f 23 45 46
f 46 45 47
f 175 135 134
f 175 174 137
f 134 174 175
f 52 53 27
f 49 95 52
f 95 53 52
f 95 135 96
f 96 53 95
f 139 140 99
f 99 101 100
f 99 144 101
f 150 107 152
f 150 152 109
f 146 147 104
f 104 145 146
f 146 144 189
f 145 144 146
f 148 107 105
f 105 147 148
f 105 107 63
f 63 60 105
f 105 60 104
f 104 147 105
f 113 69 68
f 435 436 382
f 255 208 207
f 207 254 255
f 207 206 254
f 258 317 259
f 258 257 316
f 316 317 258
f 259 210 258
f 258 210 209
f 209 208 258
f 258 208 257
f 83 123 125
f 125 126 83
f 130 124 83
f 83 129 130
f 496 449 495
f 495 494 496
f 447 494 495
f 497 449 496
f 458 497 455
f 449 497 458
f 320 392 393
f 217 269 270
f 270 269 220
f 270 219 217
f 220 219 270
f 217 267 268
f 268 269 217
f 329 269 268
f 268 267 328
f 328 329 268
f 226 224 272
f 520 481 519
f 517 481 478
f 478 516 517
f 517 519 481
f 516 519 517
f 463 462 501
f 463 409 462
f 463 467 411
f 411 410 463
f 501 534 535
f 532 494 531
f 481 480 518
f 518 480 479
f 478 481 518
f 518 479 478
f 289 236 287
f 478 425 477
f 477 475 478
f 425 475 477
f 478 475 514
f 586 579 587
f 579 577 587
f 530 557 558
f 558 531 530
f 576 587 577
f 571 581 582
f 583 589 588
f 583 588 586
f 583 582 589
f 571 582 583
f 549 524 548
f 441 486 442
f 388 441 442
f 387 441 388
f 318 387 388
f 483 438 482
f 483 439 438
f 528 555 529
f 504 534 501
f 501 465 504
f 465 500 504
f 225 224 226
f 225 181 224
f 225 226 182
f 182 181 225
f 224 181 179
f 179 138 178
f 179 140 139
f 139 138 179
f 143 181 182
f 184 144 143
f 144 99 143
f 330 331 273
f 273 329 328
f 328 327 273
f 327 330 273
f 403 337 400
f 403 458 455
f 456 459 457
f 457 459 404
f 404 402 457
f 104 57 103
f 103 145 104
f 103 57 101
f 101 145 103
f 182 228 183
f 228 229 183
f 183 143 182
f 183 229 184
f 184 143 183
f 277 228 227
f 277 229 228
f 158 203 159
f 203 252 204
f 35 21 39
f 35 36 21
f 246 296 304
f 246 198 241
f 246 247 198
f 240 241 194
f 240 246 241
f 296 246 240
f 296 240 239
f 194 238 239
f 239 240 194
f 297 363 304
f 304 296 297
f 296 239 297
f 195 198 242
f 198 247 242
f 366 367 299
f 304 373 306
f 306 247 304
f 306 299 247
f 373 364 306
f 364 299 306
f 303 302 369
f 369 302 371
f 310 309 379
f 310 249 309
f 199 197 245
f 199 154 197
f 408 409 345
f 409 406 345
f 349 350 287
f 349 413 350
f 8 9 19
f 19 9 17
f 19 32 33
f 19 17 32
f 49 92 93
f 93 94 49
f 93 132 131
f 131 94 93
f 91 92 48
f 132 93 91
f 91 93 92
f 87 47 88
f 88 45 87
f 47 45 88
f 136 175 137
f 135 175 136
f 27 50 51
f 51 52 27
f 51 50 49
f 49 52 51
f 137 138 98
f 98 138 139
f 139 99 98
f 63 107 108
f 107 150 108
f 109 63 108
f 108 150 109
f 190 146 189
f 147 146 190
f 189 148 190
f 148 147 190
f 114 113 157
f 69 113 114
f 114 157 158
f 114 115 69
f 380 435 381
f 381 435 382
f 381 313 312
f 382 313 381
f 311 380 381
f 381 312 311
f 206 207 164
f 208 165 164
f 164 207 208
f 164 122 121
f 164 165 123
f 123 122 164
f 85 83 124
f 123 83 82
f 82 122 123
f 176 173 134
f 212 214 169
f 169 168 212
f 126 168 169
f 130 129 128
f 128 169 170
f 129 83 128
f 455 497 498
f 498 497 496
f 498 459 455
f 496 459 498
f 453 449 454
f 449 458 454
f 399 453 454
f 454 400 399
f 454 403 400
f 458 403 454
f 391 392 320
f 451 452 395
f 448 495 449
f 449 393 448
f 447 495 448
f 448 393 447
f 444 393 392
f 226 272 271
f 271 269 329
f 271 273 226
f 329 273 271
f 220 269 222
f 222 221 220
f 269 271 222
f 222 271 272
f 178 221 222
f 222 272 224
f 520 519 545
f 545 519 516
f 546 547 520
f 520 543 546
f 515 545 516
f 515 516 478
f 478 514 515
f 520 545 515
f 461 463 410
f 409 463 461
f 410 406 461
f 461 406 409
f 467 463 503
f 534 504 533
f 533 504 500
f 532 531 533
f 533 496 532
f 533 499 496
f 533 500 499
f 529 530 493
f 530 531 493
f 493 528 529
f 493 494 447
f 493 531 494
f 291 236 290
f 236 289 290
f 287 350 351
f 351 289 287
f 356 413 419
f 424 475 425
f 365 425 366
f 366 299 365
f 365 299 364
f 365 424 425
f 364 424 365
f 372 364 373
f 372 373 304
f 561 558 557
f 574 557 556
f 556 555 574
f 574 555 573
f 573 555 572
f 572 583 573
f 571 583 572
f 523 548 524
f 523 486 522
f 524 486 523
f 440 441 387
f 387 439 440
f 390 388 442
f 320 388 390
f 442 391 390
f 390 391 320
f 318 388 319
f 319 388 320
f 259 318 319
f 319 320 259
f 550 524 549
f 551 550 549
f 487 488 442
f 524 488 487
f 442 486 487
f 487 486 524
f 552 569 570
f 552 570 571
f 571 553 552
f 549 569 552
f 555 528 554
f 554 553 571
f 571 572 554
f 554 572 555
f 342 343 285
f 342 406 343
f 285 345 342
f 342 345 406
f 407 346 343
f 343 406 407
f 407 410 346
f 407 406 410
f 141 99 140
f 140 179 141
f 141 179 180
f 142 179 181
f 181 143 142
f 180 179 142
f 142 141 180
f 142 143 99
f 99 141 142
f 332 331 400
f 332 273 331
f 401 403 455
f 337 403 401
f 401 457 402
f 455 456 401
f 456 457 401
f 227 275 276
f 276 277 227
f 115 159 116
f 116 71 115
f 72 71 116
f 253 206 205
f 205 252 253
f 205 204 252
f 121 120 162
f 204 205 162
f 162 205 206
f 39 73 74
f 292 359 354
f 354 360 292
f 291 290 354
f 304 247 305
f 305 246 304
f 247 246 305
f 363 297 295
f 295 238 294
f 295 239 238
f 295 297 239
f 243 299 300
f 195 242 243
f 298 242 247
f 247 299 298
f 298 243 242
f 299 243 298
f 302 303 244
f 244 243 300
f 244 303 245
f 245 197 244
f 244 197 195
f 195 243 244
f 369 371 429
f 300 299 368
f 368 299 367
f 368 367 425
f 287 347 348
f 348 349 287
f 18 19 33
f 8 19 18
f 48 90 89
f 89 91 48
f 89 47 87
f 89 90 47
f 87 132 89
f 132 91 89
f 97 96 135
f 135 136 97
f 97 136 137
f 137 98 97
f 86 85 124
f 86 130 87
f 86 124 130
f 87 45 86
f 44 45 23
f 44 86 45
f 85 86 44
f 121 122 81
f 122 82 81
f 172 134 133
f 172 176 134
f 170 176 172
f 170 169 213
f 213 169 214
f 127 128 83
f 169 128 127
f 127 83 126
f 126 169 127
f 450 393 449
f 450 451 393
f 450 449 452
f 452 451 450
f 320 393 394
f 393 451 394
f 395 320 394
f 394 451 395
f 446 491 447
f 447 393 446
f 443 391 442
f 392 391 443
f 443 444 392
f 178 222 223
f 223 222 224
f 223 179 178
f 224 179 223
f 513 514 475
f 513 515 514
f 544 543 520
f 520 515 544
f 544 515 543
f 542 565 543
f 542 538 511
f 543 538 542
f 564 576 577
f 577 565 564
f 565 542 564
f 578 577 579
f 578 565 577
f 543 565 566
f 547 546 566
f 566 546 543
f 501 535 502
f 535 503 502
f 502 463 501
f 502 503 463
f 412 347 411
f 412 348 347
f 413 349 412
f 349 348 412
f 531 558 559
f 559 533 531
f 559 558 534
f 534 533 559
f 492 493 447
f 528 493 492
f 447 491 492
f 491 528 492
f 356 290 355
f 356 419 418
f 470 418 473
f 511 538 509
f 509 473 511
f 475 510 509
f 509 510 470
f 470 473 509
f 475 424 423
f 423 424 364
f 560 561 535
f 558 561 560
f 560 535 534
f 534 558 560
f 557 574 575
f 575 574 576
f 537 561 562
f 562 575 576
f 562 561 557
f 557 575 562
f 584 583 586
f 586 574 584
f 573 583 584
f 584 574 573
f 587 576 585
f 576 574 585
f 586 587 585
f 585 574 586
f 484 440 439
f 439 483 484
f 526 551 549
f 549 552 526
f 553 554 527
f 527 554 528
f 527 552 553
f 527 526 552
f 527 528 491
f 273 332 333
f 460 408 405
f 405 340 339
f 408 345 405
f 345 340 405
f 405 404 460
f 335 401 402
f 335 275 337
f 337 401 335
f 277 276 279
f 37 36 66
f 36 35 66
f 78 119 120
f 78 79 119
f 204 162 161
f 163 164 121
f 121 162 163
f 206 164 163
f 163 162 206
f 39 74 75
f 119 79 118
f 118 74 73
f 79 75 118
f 118 75 74
f 294 292 361
f 292 360 361
f 470 510 471
f 291 354 358
f 358 354 359
f 358 292 291
f 358 359 292
f 357 290 356
f 374 371 307
f 374 429 371
f 370 371 302
f 302 368 370
f 300 368 301
f 301 368 302
f 301 244 300
f 302 244 301
f 426 425 430
f 426 368 425
f 430 376 427
f 427 426 430
f 368 426 427
f 232 284 235
f 232 283 282
f 282 284 232
f 189 144 188
f 144 187 188
f 188 191 189
f 148 191 188
f 185 144 184
f 184 229 185
f 185 229 230
f 54 98 99
f 54 97 98
f 54 99 100
f 54 55 27
f 100 56 54
f 56 55 54
f 96 97 54
f 27 53 54
f 53 96 54
f 83 85 84
f 171 172 133
f 170 172 171
f 133 130 171
f 130 128 171
f 171 128 170
f 214 173 218
f 218 213 214
f 173 176 218
f 393 444 445
f 445 446 393
f 541 542 511
f 541 564 542
f 547 566 567
f 567 566 565
f 565 578 567
f 567 578 579
f 568 547 567
f 579 568 567
f 536 506 535
f 537 506 536
f 535 561 536
f 536 561 537
f 413 412 468
f 469 419 413
f 413 468 469
f 469 468 506
f 469 418 419
f 289 351 352
f 352 290 289
f 352 355 290
f 350 413 414
f 414 351 350
f 414 413 356
f 356 355 414
f 414 352 351
f 355 352 414
f 353 357 356
f 360 354 353
f 353 354 290
f 290 357 353
f 353 361 360
f 417 361 353
f 539 509 538
f 539 538 543
f 543 515 539
f 576 564 563
f 563 562 576
f 485 484 522
f 522 486 485
f 486 441 485
f 441 440 485
f 440 484 485
f 526 527 490
f 490 527 491
f 490 445 444
f 444 443 490
f 491 446 490
f 446 445 490
f 226 273 274
f 273 333 274
f 274 227 226
f 274 275 227
f 334 333 332
f 400 337 334
f 334 332 400
f 334 274 333
f 337 275 334
f 275 274 334
f 341 345 285
f 341 340 345
f 341 281 340
f 282 283 231
f 231 281 282
f 283 232 231
f 231 187 230
f 231 232 187
f 338 279 276
f 338 335 402
f 339 279 338
f 338 405 339
f 338 402 404
f 404 405 338
f 43 81 82
f 43 42 81
f 43 82 83
f 83 84 43
f 43 44 23
f 23 42 43
f 85 44 43
f 43 84 85
f 80 120 121
f 80 78 120
f 42 78 80
f 121 81 80
f 81 42 80
f 41 66 79
f 79 78 41
f 41 42 23
f 41 78 42
f 72 116 117
f 73 72 117
f 117 118 73
f 117 161 119
f 119 118 117
f 65 35 39
f 65 66 35
f 79 66 76
f 76 75 79
f 39 75 76
f 417 471 420
f 474 510 475
f 474 471 510
f 470 471 416
f 416 471 417
f 417 353 416
f 307 371 375
f 371 370 375
f 375 376 307
f 151 193 194
f 151 194 152
f 148 188 151
f 152 107 151
f 151 107 148
f 186 187 144
f 144 185 186
f 230 187 186
f 186 185 230
f 215 218 176
f 213 218 215
f 215 176 170
f 170 213 215
f 466 412 411
f 466 468 412
f 411 467 466
f 467 503 466
f 508 506 537
f 508 469 506
f 469 508 507
f 507 537 511
f 507 508 537
f 512 539 515
f 509 539 512
f 515 513 512
f 512 513 475
f 475 509 512
f 537 562 540
f 562 563 540
f 511 537 540
f 540 541 511
f 564 541 540
f 540 563 564
f 551 526 525
f 526 490 525
f 550 551 525
f 524 550 525
f 288 341 285
f 285 235 288
f 235 284 288
f 288 284 282
f 282 281 288
f 281 341 288
f 281 231 280
f 280 231 279
f 340 281 280
f 339 340 280
f 280 279 339
f 278 231 230
f 279 231 278
f 230 229 278
f 229 277 278
f 277 279 278
f 336 338 276
f 335 338 336
f 336 276 275
f 275 335 336
f 23 38 40
f 40 41 23
f 40 38 37
f 37 66 40
f 66 41 40
f 160 117 116
f 160 116 159
f 204 161 160
f 161 117 160
f 160 159 203
f 203 204 160
f 66 65 77
f 77 76 66
f 77 65 39
f 39 76 77
f 364 372 421
f 422 474 475
f 471 474 422
f 475 423 422
f 422 423 364
f 364 421 422
f 422 420 471
f 422 421 420
f 415 353 356
f 415 416 353
f 356 418 415
f 415 418 470
f 470 416 415
f 376 375 428
f 428 375 370
f 428 427 376
f 428 370 368
f 368 427 428
f 187 232 233
f 232 234 233
f 233 188 187
f 233 234 188
f 193 151 192
f 235 193 192
f 188 234 192
f 192 151 188
f 192 232 235
f 192 234 232
f 505 466 503
f 468 466 505
f 506 468 505
f 505 503 535
f 535 506 505
f 418 469 472
f 469 507 472
f 472 473 418
f 511 473 472
f 472 507 511
f 489 525 490
f 442 488 489
f 489 488 524
f 524 525 489
f 489 443 442
f 489 490 443
f 420 421 362
f 294 361 362
f 362 361 417
f 417 420 362
f 362 295 294
f 363 295 362
f 362 421 372
f 304 363 362
f 362 372 304
f 39 112 68
f 67 112 39
f 20 34 21
f 21 11 20
f 114 159 115
f 158 159 114
f 18 111 67
f 67 39 18
f 33 61 18
f 18 149 156
f 156 111 18
f 1 2 18
f 18 3 1
f 18 20 10
f 106 149 18
f 18 61 106
f 10 3 18
f 39 34 18
f 18 2 8
f 34 20 18
f 112 155 484
f 68 112 484
f 521 547 484
f 482 437 484
f 484 155 200
f 484 434 433
f 484 380 311
f 311 250 484
f 384 436 484
f 549 548 484
f 433 481 484
f 484 582 581
f 484 250 201
f 200 249 484
f 484 437 384
f 484 481 521
f 484 580 588
f 588 589 484
f 484 569 549
f 379 434 484
f 201 157 484
f 484 113 68
f 568 580 484
f 484 547 568
f 484 435 380
f 581 570 484
f 484 483 482
f 157 113 484
f 436 435 484
f 589 582 484
f 570 569 484
f 484 310 379
f 484 523 522
f 249 310 484
f 548 523 484
f 161 162 120
f 120 119 161
f 200 155 374
f 374 155 110
f 374 110 109
f 374 248 200
f 374 199 245
f 109 154 374
f 307 248 374
f 374 303 369
f 245 303 374
f 154 199 374
f 369 429 374
