v -0.067386 -0.042703 0.012246
v -0.067386 -0.042158 0.012807
v -0.067386 -0.017305 0.012246
v -0.066794 -0.055218 0.012246
v -0.066794 -0.055218 0.021655
v -0.067386 -0.040814 0.013968
v -0.067386 -0.017888 0.012845
v -0.066794 0.001816 0.021655
v -0.066785 0.004747 0.017864
v -0.066785 0.005668 0.014936
v -0.066794 0.005668 0.013468
v -0.066794 0.005668 0.012246
v -0.058324 -0.055218 0.012246
v -0.055309 -0.070007 0.017926
v -0.055309 -0.070026 0.017941
v -0.055309 -0.070261 0.019439
v -0.055309 -0.070289 0.019862
v -0.067386 -0.030403 0.017737
v -0.067386 -0.031869 0.017608
v -0.067386 -0.033344 0.017372
v -0.067386 -0.034810 0.017003
v -0.067386 -0.036294 0.016614
v -0.067386 -0.037732 0.015912
v -0.067386 -0.039254 0.015106
v -0.055309 -0.069904 0.021139
v -0.055309 -0.069500 0.021937
v -0.055309 -0.069087 0.022665
v -0.055309 -0.068448 0.023764
v -0.055309 -0.067921 0.024635
v -0.055309 -0.067790 0.024837
v -0.055309 -0.066211 0.027206
v -0.055309 -0.065948 0.027555
v -0.055309 -0.005222 0.032513
v -0.067386 -0.018611 0.013505
v -0.055309 0.001713 0.032513
v -0.066585 0.005668 0.021651
v -0.067386 -0.019532 0.014293
v -0.067386 -0.020331 0.014866
v -0.067386 -0.021157 0.015343
v -0.067386 -0.022219 0.015912
v -0.067386 -0.023168 0.016317
v -0.067386 -0.024051 0.016626
v -0.067386 -0.024465 0.016763
v -0.067386 -0.026006 0.017249
v -0.067386 -0.026645 0.017404
v -0.067386 -0.027866 0.017596
v -0.067386 -0.028947 0.017703
v -0.067386 -0.029163 0.017709
v -0.020135 0.021735 0.021290
v -0.006928 0.024611 0.015414
v -0.006300 0.024460 0.014436
v -0.005881 0.024075 0.013601
v -0.004752 0.024301 0.013601
v -0.003659 0.024423 0.013601
v -0.003039 0.024489 0.013601
v -0.001573 0.024620 0.013601
v -0.000097 0.024723 0.013601
v -0.058615 0.005668 0.012246
v 0.020113 -0.014486 0.013601
v 0.019694 -0.015078 0.013601
v 0.018847 -0.016196 0.013601
v 0.018419 -0.016732 0.013601
v 0.017390 -0.017878 0.013601
v 0.017025 -0.018263 0.013601
v 0.015987 -0.019250 0.013601
v 0.014739 -0.020349 0.013601
v 0.013674 -0.021186 0.013601
v 0.012234 -0.022200 0.013601
v -0.009633 -0.041406 0.014198
v -0.012557 -0.042872 0.014196
v -0.015490 -0.044328 0.014196
v -0.018532 -0.045700 0.014200
v -0.025745 -0.048735 0.014200
v -0.058278 -0.011433 0.012246
v 0.024812 0.000369 0.013601
v 0.024758 -0.001125 0.013601
v 0.024621 -0.002863 0.013601
v 0.024503 -0.004057 0.013601
v 0.023729 -0.007026 0.013601
v 0.023273 -0.008501 0.013601
v 0.023027 -0.009159 0.013601
v 0.022718 -0.009901 0.013601
v 0.022062 -0.011263 0.013601
v 0.021725 -0.011912 0.013601
v 0.021415 -0.012494 0.013601
v -0.011828 -0.048960 0.021225
v -0.032886 -0.060583 0.021344
v -0.035736 -0.062087 0.021286
v -0.038614 -0.063571 0.021262
v -0.041574 -0.065018 0.021282
v -0.044644 -0.066409 0.021395
v -0.044644 -0.066409 0.021709
v -0.048897 -0.067903 0.021764
v -0.053424 -0.069321 0.021629
v -0.054353 -0.069415 0.021790
v -0.054353 -0.069002 0.022518
v -0.054298 -0.068213 0.023840
v -0.053770 -0.067771 0.024405
v -0.054298 -0.067423 0.025099
v -0.054353 -0.066615 0.026333
v -0.052886 -0.066474 0.026119
v -0.052886 -0.065967 0.026853
v -0.053451 -0.065582 0.027555
v -0.039871 -0.058206 0.031890
v -0.050773 -0.010784 0.032513
v -0.039871 0.005339 0.032513
v -0.015326 0.021472 0.032182
v -0.015326 0.021745 0.031926
v -0.055309 0.002521 0.031745
v -0.055309 0.003921 0.030192
v -0.015326 0.021980 0.031606
v -0.015326 0.022318 0.031081
v -0.015326 0.022854 0.029595
v -0.020098 0.021726 0.022258
v -0.005972 0.024996 0.016398
v -0.005234 0.025156 0.016398
v -0.005881 0.024742 0.014928
v -0.005344 0.024564 0.014176
v -0.005234 0.024573 0.014166
v -0.004506 0.024620 0.014095
v -0.000097 0.024846 0.013783
v 0.001351 0.024686 0.013601
v 0.024302 0.004747 0.013601
v 0.024430 0.004127 0.013601
v 0.024603 0.003188 0.013601
v 0.024785 0.001835 0.013601
v -0.058306 -0.004113 0.012246
v 0.001870 0.024639 0.013601
v 0.002808 0.024526 0.013601
v 0.004283 0.024329 0.013601
v 0.005640 0.024113 0.013601
v 0.006961 0.023803 0.013601
v 0.007271 0.023709 0.013601
v 0.007945 0.023464 0.013601
v 0.009958 0.022656 0.013601
v 0.010049 0.022619 0.013601
v 0.011460 0.021970 0.013601
v 0.011597 0.021895 0.013601
v 0.012981 0.021087 0.013601
v 0.013573 0.020730 0.013601
v 0.014420 0.020166 0.013601
v 0.015896 0.018982 0.013601
v 0.017289 0.017761 0.013601
v 0.018528 0.016399 0.013601
v 0.019885 0.014858 0.013601
v 0.020240 0.014350 0.013601
v 0.020632 0.013758 0.013601
v 0.021515 0.012236 0.013601
v 0.021679 0.011935 0.013601
v 0.022280 0.010733 0.013601
v 0.023109 0.008938 0.013601
v 0.023619 0.007594 0.013601
v 0.019876 -0.015294 0.014007
v 0.018555 -0.016882 0.013876
v 0.016706 -0.019391 0.014238
v 0.015267 -0.020894 0.014198
v 0.006469 -0.029689 0.014196
v -0.000990 -0.035411 0.014200
v -0.005225 -0.038465 0.014196
v -0.004843 -0.044601 0.021185
v -0.006564 -0.045888 0.021381
v -0.009287 -0.047476 0.021221
v -0.058296 -0.005522 0.012246
v 0.025386 0.000369 0.014720
v 0.025395 0.001835 0.014714
v 0.025277 -0.001125 0.014652
v 0.025195 -0.004057 0.014936
v 0.024321 -0.005504 0.013902
v 0.024029 -0.007505 0.014299
v 0.022900 -0.009901 0.013855
v 0.022672 -0.010756 0.014134
v 0.021479 -0.012579 0.013777
v 0.021133 -0.013565 0.014208
v -0.011072 -0.048754 0.021493
v -0.032886 -0.060583 0.021854
v -0.035736 -0.062087 0.021939
v -0.038614 -0.063571 0.021957
v -0.041574 -0.065018 0.021889
v -0.042558 -0.065272 0.022330
v -0.044134 -0.065976 0.022221
v -0.045163 -0.066202 0.022683
v -0.045618 -0.066578 0.022221
v -0.047021 -0.067066 0.022262
v -0.050036 -0.068034 0.022254
v -0.051420 -0.068448 0.022262
v -0.048442 -0.067536 0.022254
v -0.050582 -0.067837 0.023044
v -0.051420 -0.067950 0.023236
v -0.052886 -0.068128 0.023526
v -0.052886 -0.067687 0.024260
v -0.051985 -0.066381 0.025982
v -0.051420 -0.065140 0.027555
v -0.052886 -0.065460 0.027555
v -0.050364 -0.064877 0.027555
v -0.039871 -0.058666 0.031350
v -0.038624 -0.057802 0.031890
v -0.044088 -0.013105 0.032513
v -0.045555 -0.013443 0.032513
v -0.047030 -0.013359 0.032513
v -0.048487 -0.012842 0.032513
v -0.049435 -0.012288 0.032513
v -0.050172 -0.011508 0.032513
v -0.039871 -0.007599 0.032513
v 0.024166 0.007679 0.021600
v 0.024084 0.008459 0.021540
v 0.022654 0.011419 0.021558
v 0.021133 0.014284 0.021524
v 0.019748 0.015835 0.021576
v 0.018346 0.017376 0.021608
v 0.016925 0.018804 0.021608
v 0.015331 0.020185 0.021558
v 0.012672 0.021764 0.021620
v 0.009803 0.023201 0.021616
v 0.006633 0.024582 0.021564
v -0.015326 0.009164 0.032182
v 0.005959 -0.033184 0.030995
v 0.005750 0.024639 0.021616
v 0.001351 0.025381 0.020792
v -0.000097 0.025400 0.020792
v -0.000097 0.025701 0.019326
v -0.004506 0.025118 0.020792
v -0.004506 0.025306 0.019326
v -0.005234 0.025156 0.019328
v -0.005972 0.024996 0.019328
v -0.004506 0.025306 0.016398
v -0.004506 0.025005 0.014938
v -0.003039 0.025146 0.014938
v -0.000097 0.025419 0.014938
v 0.001351 0.025381 0.014938
v 0.001351 0.024817 0.013823
v 0.024403 0.004747 0.013755
v 0.024111 0.007096 0.014160
v 0.025332 0.003235 0.015009
v 0.002808 0.024714 0.013956
v 0.006050 0.024489 0.014327
v 0.007307 0.024376 0.014864
v 0.008673 0.023333 0.013851
v 0.010522 0.022976 0.014539
v 0.012508 0.021698 0.014103
v 0.014238 0.020486 0.013805
v 0.016770 0.018701 0.014180
v 0.018237 0.017254 0.014170
v 0.020085 0.014726 0.013720
v 0.021069 0.014087 0.014444
v 0.022554 0.011193 0.014343
v 0.024002 0.008074 0.014396
v 0.019539 -0.016271 0.014547
v 0.018136 -0.017869 0.014343
v 0.008309 -0.034396 0.021161
v 0.005203 -0.037187 0.021286
v 0.003655 -0.038568 0.021379
v -0.002047 -0.037225 0.015224
v -0.002192 -0.042947 0.021389
v -0.006564 -0.045888 0.021879
v 0.025587 0.000369 0.015452
v 0.025568 -0.001125 0.015565
v 0.025359 -0.001125 0.014845
v 0.025568 0.002727 0.015549
v 0.025587 0.001835 0.015444
v 0.025359 -0.002534 0.015063
v 0.025550 -0.002018 0.015636
v 0.025423 -0.004057 0.016398
v 0.025140 -0.005504 0.016398
v 0.024849 -0.005504 0.014936
v 0.023938 -0.008567 0.014845
v 0.023455 -0.009901 0.014936
v 0.022490 -0.011808 0.014936
v 0.021752 -0.012983 0.014793
v 0.020914 -0.014373 0.014793
v -0.011072 -0.048754 0.021592
v -0.011337 -0.048613 0.022746
v -0.013286 -0.049120 0.024780
v -0.014005 -0.048763 0.027456
v -0.017147 -0.050125 0.028551
v -0.018131 -0.050379 0.029277
v -0.038168 -0.063186 0.022371
v -0.038997 -0.063383 0.022933
v -0.042021 -0.064811 0.022861
v -0.046147 -0.066399 0.023090
v -0.043004 -0.065018 0.023266
v -0.049608 -0.067677 0.022736
v -0.047021 -0.066540 0.023349
v -0.047950 -0.066277 0.024345
v -0.048934 -0.066427 0.024597
v -0.049945 -0.066578 0.024835
v -0.051420 -0.067517 0.023968
v -0.051466 -0.066719 0.025262
v -0.051010 -0.066258 0.025800
v -0.051466 -0.065864 0.026544
v -0.049945 -0.065319 0.026744
v -0.048478 -0.064670 0.027085
v -0.047540 -0.064060 0.027555
v -0.039871 -0.058742 0.031257
v -0.037512 -0.057529 0.031771
v -0.038123 -0.057633 0.031890
v -0.037421 -0.057389 0.031890
v -0.027048 -0.053235 0.031890
v -0.025554 -0.052531 0.031890
v -0.025071 -0.052296 0.031890
v -0.042850 -0.012466 0.032513
v -0.039944 -0.008388 0.032513
v -0.015353 0.008271 0.032182
v 0.024266 0.006213 0.021659
v 0.025395 0.001835 0.021241
v 0.025568 0.002690 0.020290
v 0.024393 0.007679 0.020792
v 0.024157 0.008590 0.020792
v 0.022718 0.011597 0.020792
v 0.021206 0.014350 0.020792
v 0.019867 0.015966 0.020792
v 0.018510 0.017582 0.020792
v 0.017854 0.018315 0.020792
v 0.017116 0.018964 0.020792
v 0.015459 0.020270 0.020792
v 0.013837 0.021613 0.020159
v 0.013655 0.021463 0.021135
v 0.010786 0.022985 0.021352
v 0.006897 0.024658 0.020792
v 0.005750 0.024883 0.020792
v 0.004247 0.025071 0.020792
v 0.002808 0.025231 0.020792
v 0.005841 -0.033288 0.030995
v 0.006041 -0.033184 0.030912
v 0.024138 -0.007937 0.021578
v 0.024239 -0.006969 0.021635
v 0.024357 -0.005504 0.021665
v 0.024457 -0.004057 0.021665
v 0.024539 -0.002572 0.021665
v 0.024667 0.000369 0.021665
v 0.024667 0.001835 0.021665
v 0.001351 0.025672 0.019326
v -0.000097 0.025701 0.016398
v 0.001351 0.025672 0.016398
v 0.002808 0.025484 0.016398
v 0.002808 0.025184 0.014938
v 0.024985 0.004747 0.014936
v 0.024667 0.006213 0.014936
v 0.005640 0.024733 0.014864
v 0.006870 0.024658 0.015303
v 0.008673 0.023868 0.014936
v 0.011515 0.022675 0.014989
v 0.013482 0.021463 0.014642
v 0.010978 0.023107 0.015515
v 0.015204 0.020091 0.014337
v 0.016998 0.018879 0.014936
v 0.017745 0.018221 0.014936
v 0.018437 0.017488 0.014936
v 0.019639 0.015703 0.014275
v 0.021224 0.014378 0.015422
v 0.021515 0.013570 0.014934
v 0.022308 0.012076 0.014872
v 0.020459 0.015036 0.014847
v 0.022718 0.011597 0.015319
v 0.024166 0.008609 0.015374
v 0.023756 0.009107 0.014906
v 0.024302 0.007613 0.014906
v 0.019721 -0.016535 0.015523
v 0.020058 -0.015773 0.014993
v 0.009502 -0.032865 0.021350
v 0.009101 -0.033617 0.022258
v 0.008373 -0.034443 0.022258
v -0.000544 -0.041622 0.021231
v 0.003655 -0.038568 0.021858
v -0.002192 -0.042947 0.021838
v -0.007320 -0.046273 0.022322
v -0.008522 -0.047053 0.022258
v -0.004059 -0.044159 0.022258
v -0.004779 -0.044638 0.022258
v 0.025659 0.001835 0.016400
v 0.025641 0.000369 0.016400
v 0.024958 0.006213 0.016400
v 0.025577 0.002765 0.016400
v 0.025523 -0.002845 0.016398
v 0.025587 -0.001125 0.016398
v 0.025168 -0.005504 0.019326
v 0.025423 -0.004057 0.019326
v 0.024740 -0.006969 0.017866
v 0.024712 -0.006969 0.016398
v 0.024211 -0.008153 0.015273
v 0.023738 -0.009901 0.016398
v 0.023018 -0.011348 0.016398
v 0.024056 -0.009121 0.016398
v 0.022599 -0.012090 0.016398
v 0.021342 -0.013922 0.015186
v -0.009260 -0.047504 0.022258
v -0.010499 -0.048274 0.022151
v -0.010271 -0.047701 0.023762
v -0.010571 -0.047588 0.024780
v -0.011874 -0.048340 0.024780
v -0.012293 -0.048575 0.024780
v -0.013085 -0.048481 0.026657
v -0.013440 -0.048284 0.028014
v -0.014287 -0.048622 0.028430
v -0.015271 -0.048885 0.029204
v -0.017666 -0.049975 0.029696
v -0.018504 -0.050182 0.030255
v -0.039981 -0.063618 0.023391
v -0.021419 -0.051638 0.030238
v -0.024406 -0.053076 0.030184
v -0.041064 -0.063900 0.023818
v -0.044116 -0.065225 0.023742
v -0.045618 -0.065883 0.023639
v -0.045555 -0.065131 0.024877
v -0.047021 -0.066127 0.024082
v -0.042558 -0.064576 0.023742
v -0.046393 -0.064840 0.025869
v -0.047367 -0.064990 0.026103
v -0.049945 -0.066108 0.025569
v -0.046939 -0.064511 0.026617
v -0.048478 -0.065159 0.026351
v -0.045946 -0.063562 0.027555
v -0.039871 -0.059230 0.030618
v -0.039680 -0.059193 0.030579
v -0.038842 -0.059042 0.030374
v -0.037858 -0.058873 0.030103
v -0.036747 -0.057915 0.030837
v -0.036747 -0.057379 0.031571
v -0.026064 -0.053001 0.031571
v -0.035673 -0.057689 0.030535
v -0.027949 -0.054184 0.031007
v -0.026528 -0.053527 0.031069
v -0.022084 -0.051525 0.030995
v -0.018978 -0.049984 0.030995
v -0.017785 -0.049374 0.030995
v -0.017384 -0.049167 0.030995
v -0.016273 -0.048575 0.030995
v -0.014652 -0.047673 0.030995
v -0.013368 -0.046940 0.030995
v -0.011965 -0.046113 0.030995
v -0.007375 -0.043294 0.030995
v -0.006045 -0.042421 0.030995
v -0.003130 -0.040335 0.030995
v -0.001464 -0.039141 0.030995
v -0.000189 -0.038211 0.030995
v 0.000595 -0.037610 0.030995
v 0.001241 -0.037084 0.030995
v 0.004019 -0.034800 0.030995
v -0.040746 -0.009835 0.032513
v -0.041502 -0.011132 0.032513
v -0.042112 -0.011865 0.032513
v 0.025587 0.001835 0.020509
v 0.025395 0.000369 0.021239
v 0.025659 0.001835 0.019326
v 0.025577 0.002746 0.019326
v 0.024885 0.006213 0.019326
v 0.024548 0.007679 0.019326
v 0.024211 0.008713 0.019326
v 0.022435 0.012443 0.019326
v 0.021834 0.013542 0.019326
v 0.021260 0.014425 0.019326
v 0.020668 0.015168 0.019326
v 0.018610 0.017705 0.019326
v 0.017963 0.018428 0.019326
v 0.017216 0.019067 0.019326
v 0.013136 0.021905 0.020701
v 0.016278 0.019791 0.019326
v 0.013847 0.021623 0.019326
v 0.013082 0.022102 0.019326
v 0.011761 0.022825 0.019326
v 0.010978 0.023107 0.020378
v 0.010240 0.023314 0.020834
v 0.007070 0.024714 0.019326
v 0.005750 0.025005 0.019326
v 0.007799 0.024489 0.019326
v 0.002808 0.025484 0.019326
v 0.005176 -0.034218 0.030503
v 0.006050 -0.033889 0.029702
v 0.008537 -0.033382 0.024776
v 0.021242 -0.013763 0.021594
v 0.022745 -0.010944 0.021616
v 0.022927 -0.011235 0.020792
v 0.024239 -0.008228 0.020792
v 0.024576 -0.006969 0.020792
v 0.024903 -0.005504 0.020792
v 0.025140 -0.004057 0.020792
v 0.005750 0.025005 0.016400
v 0.007070 0.024714 0.016400
v 0.007799 0.024489 0.016400
v 0.013837 0.021613 0.015620
v 0.013036 0.021867 0.015055
v 0.014521 0.020871 0.014978
v 0.008673 0.024122 0.016400
v 0.011761 0.022825 0.016400
v 0.015459 0.020270 0.015313
v 0.017963 0.018428 0.016400
v 0.017216 0.019067 0.016400
v 0.018610 0.017705 0.016400
v 0.019849 0.015957 0.015253
v 0.021834 0.013542 0.016400
v 0.022435 0.012443 0.016400
v 0.020668 0.015168 0.016400
v 0.021260 0.014425 0.016400
v 0.024211 0.008713 0.016400
v 0.024585 0.007679 0.016400
v 0.021024 -0.014824 0.016398
v 0.021024 -0.014824 0.019326
v 0.021370 -0.013969 0.020792
v 0.009274 -0.033194 0.022746
v 0.008937 -0.033260 0.023766
v 0.007089 -0.035411 0.022746
v 0.005185 -0.037168 0.022258
v 0.007954 -0.034096 0.024502
v 0.004201 -0.037986 0.022310
v 0.003609 -0.038362 0.022746
v 0.001587 -0.039940 0.022746
v 0.001915 -0.039809 0.022258
v 0.001187 -0.040363 0.022258
v -0.001655 -0.042439 0.022300
v -0.002384 -0.042825 0.022816
v -0.006764 -0.045775 0.022852
v -0.007693 -0.046123 0.023722
v -0.008968 -0.046912 0.023762
v -0.004533 -0.044018 0.023853
v -0.004451 -0.044281 0.022746
v -0.003313 -0.043210 0.023722
v -0.003540 -0.043060 0.024780
v -0.005034 -0.044469 0.023451
v 0.025641 0.000369 0.019326
v 0.024566 0.007679 0.017866
v 0.025523 -0.002845 0.019326
v 0.025587 -0.001125 0.019326
v 0.024749 -0.006969 0.019326
v 0.025550 -0.002018 0.020126
v 0.024302 -0.008398 0.019326
v 0.024284 -0.008388 0.016398
v 0.024056 -0.009130 0.017866
v 0.023738 -0.009901 0.019326
v 0.023018 -0.011348 0.019326
v 0.021452 -0.014101 0.016398
v 0.022599 -0.012090 0.019326
v -0.009460 -0.046921 0.024780
v -0.009460 -0.046555 0.026044
v -0.011746 -0.047711 0.026706
v -0.012165 -0.047523 0.028119
v -0.012429 -0.047372 0.029071
v -0.014770 -0.048443 0.029652
v -0.015617 -0.048688 0.030182
v -0.019470 -0.050426 0.030680
v -0.016601 -0.048951 0.030664
v -0.022403 -0.051873 0.030660
v -0.025071 -0.053235 0.030462
v -0.027457 -0.054504 0.030103
v -0.040518 -0.063364 0.024369
v -0.041502 -0.063580 0.024744
v -0.043642 -0.064755 0.024244
v -0.044626 -0.064952 0.024583
v -0.045555 -0.064680 0.025611
v -0.044944 -0.063364 0.027313
v -0.044698 -0.063111 0.027555
v -0.037103 -0.059164 0.029127
v -0.036665 -0.058695 0.029603
v -0.025071 -0.052831 0.031126
v -0.028441 -0.054711 0.030487
v -0.025399 -0.053311 0.030591
v -0.023641 -0.052249 0.030995
v -0.013750 -0.047448 0.030589
v -0.010981 -0.045897 0.030442
v -0.006491 -0.043041 0.030555
v -0.002183 -0.040053 0.030466
v -0.000526 -0.038728 0.030654
v 0.001059 -0.037384 0.030807
v 0.003609 -0.035599 0.030388
v 0.025587 0.000369 0.020507
v 0.025568 -0.001125 0.020284
v 0.016278 0.019791 0.016400
v 0.013847 0.021623 0.016400
v 0.013082 0.022102 0.016400
v 0.008673 0.024122 0.019326
v 0.006050 -0.033955 0.029587
v 0.008182 -0.033757 0.024776
v 0.009457 -0.032715 0.023308
v 0.024056 -0.009130 0.019326
v 0.021452 -0.014101 0.019326
v 0.005959 -0.035120 0.026655
v 0.006050 -0.035646 0.024780
v 0.005568 -0.036060 0.024780
v 0.005048 -0.037046 0.023082
v 0.006050 -0.034190 0.029031
v 0.006050 -0.034443 0.028381
v 0.006050 -0.034594 0.027962
v 0.002116 -0.038521 0.026016
v 0.002362 -0.038719 0.024780
v 0.002580 -0.038869 0.023722
v 0.004247 -0.037168 0.024780
v 0.001260 -0.039451 0.025177
v 0.000822 -0.039902 0.024780
v 0.000904 -0.040156 0.023722
v -0.000744 -0.041500 0.023264
v -0.001063 -0.041274 0.024780
v -0.002074 -0.042007 0.024780
v -0.005681 -0.044516 0.024780
v -0.006491 -0.044497 0.026655
v -0.008194 -0.045813 0.025897
v -0.005344 -0.044290 0.024780
v -0.004688 -0.043276 0.026655
v -0.003786 -0.042881 0.025905
v -0.001618 -0.041058 0.026762
v -0.009460 -0.046029 0.027799
v -0.011428 -0.047100 0.028119
v -0.009652 -0.045813 0.028843
v -0.012776 -0.047166 0.030049
v -0.013286 -0.047654 0.029571
v -0.010663 -0.046094 0.029587
v -0.008249 -0.044309 0.030243
v -0.007438 -0.044056 0.029688
v -0.005999 -0.043210 0.029480
v -0.005526 -0.042693 0.029896
v -0.003841 -0.041378 0.030222
v 0.000449 -0.038362 0.030053
v 0.002034 -0.036980 0.030240
v 0.003837 -0.035796 0.029587
v 0.005058 -0.035590 0.027488
v 0.002298 -0.037206 0.029263
v 0.004839 -0.035421 0.028462
v 0.001688 -0.038155 0.028119
v 0.000941 -0.038747 0.028119
v 0.000504 -0.039874 0.025653
v -0.006919 -0.044225 0.028442
v -0.005207 -0.042919 0.028918
v -0.008905 -0.045540 0.028262
v 0.000285 -0.039715 0.026655
v -0.000170 -0.039545 0.028190
v -0.000699 -0.040072 0.027748
v -0.007894 -0.044535 0.029267
v -0.000070 -0.038953 0.029573
v 0.000731 -0.038578 0.029075
v 0.001378 -0.037788 0.029658
v -0.000926 -0.039912 0.028722
f 5 32 33
f 33 32 104
f 4 5 1
f 12 49 50
f 5 4 17
f 216 302 299
f 299 302 301
f 216 107 215
f 215 302 216
f 12 3 11
f 11 3 10
f 11 49 12
f 11 10 49
f 49 10 36
f 36 114 49
f 14 4 13
f 13 73 14
f 297 416 419
f 415 419 416
f 192 194 104
f 70 13 69
f 70 71 13
f 69 14 70
f 70 14 71
f 72 73 13
f 13 71 72
f 72 14 73
f 71 14 72
f 216 330 303
f 74 75 13
f 74 163 75
f 75 163 127
f 35 106 107
f 109 36 35
f 33 104 105
f 104 202 105
f 298 197 297
f 299 197 298
f 301 302 203
f 302 215 203
f 345 485 346
f 12 52 53
f 12 50 51
f 51 52 12
f 115 50 49
f 49 114 113
f 113 115 49
f 114 36 113
f 36 112 113
f 113 112 218
f 5 24 6
f 5 21 22
f 110 36 109
f 9 36 10
f 10 3 9
f 5 17 25
f 25 26 5
f 16 17 4
f 69 161 162
f 162 161 174
f 162 86 69
f 174 86 162
f 157 252 158
f 252 159 158
f 253 161 160
f 160 252 253
f 160 159 252
f 160 161 69
f 69 159 160
f 69 13 68
f 68 159 69
f 157 64 156
f 156 249 157
f 360 249 359
f 87 86 174
f 294 415 416
f 104 194 195
f 551 415 550
f 103 104 32
f 216 303 204
f 204 107 216
f 205 107 204
f 216 325 326
f 329 330 216
f 216 328 329
f 493 447 494
f 258 372 369
f 369 259 258
f 220 218 331
f 206 107 205
f 206 207 107
f 209 210 107
f 207 206 308
f 308 206 205
f 107 213 214
f 212 213 107
f 8 35 36
f 8 18 5
f 36 9 8
f 8 38 39
f 37 38 8
f 3 7 8
f 8 9 3
f 439 440 299
f 300 197 299
f 299 440 300
f 201 202 104
f 104 197 198
f 198 199 104
f 338 335 339
f 333 229 228
f 235 338 339
f 335 338 235
f 229 335 235
f 141 142 58
f 58 142 143
f 347 485 487
f 347 346 485
f 56 12 55
f 118 53 52
f 52 51 118
f 111 112 36
f 111 214 112
f 225 228 227
f 115 113 224
f 220 222 221
f 221 113 220
f 222 113 221
f 219 218 220
f 220 113 219
f 219 113 218
f 1 5 2
f 5 6 2
f 23 24 5
f 5 22 23
f 20 21 5
f 32 5 31
f 31 103 32
f 28 29 5
f 4 14 15
f 15 16 4
f 86 87 15
f 15 14 69
f 69 86 15
f 299 298 422
f 360 359 495
f 251 252 157
f 247 249 248
f 248 154 247
f 430 558 431
f 430 431 299
f 429 299 428
f 429 430 299
f 89 15 88
f 88 15 87
f 296 294 297
f 297 197 296
f 417 416 297
f 297 294 417
f 417 294 416
f 415 294 414
f 104 195 196
f 196 195 294
f 196 197 104
f 548 415 549
f 549 411 548
f 415 414 549
f 549 414 411
f 293 411 412
f 412 294 293
f 294 195 293
f 553 551 550
f 193 192 104
f 104 103 193
f 327 328 216
f 216 326 327
f 354 493 494
f 372 258 371
f 371 446 445
f 445 305 371
f 371 258 337
f 371 354 494
f 337 354 371
f 334 476 339
f 339 335 334
f 334 229 333
f 334 335 229
f 107 207 208
f 208 209 107
f 307 308 205
f 307 446 447
f 218 112 217
f 217 214 218
f 112 214 217
f 567 479 483
f 483 479 343
f 486 479 565
f 486 485 345
f 165 258 259
f 165 164 75
f 255 256 164
f 255 165 259
f 164 165 255
f 255 259 369
f 369 370 255
f 255 370 256
f 442 329 328
f 328 327 442
f 442 327 326
f 442 326 325
f 47 8 46
f 40 8 39
f 37 8 34
f 34 8 7
f 438 299 301
f 438 439 299
f 104 199 200
f 200 201 104
f 57 12 56
f 57 58 12
f 57 122 58
f 236 235 339
f 131 235 132
f 58 131 132
f 136 238 137
f 136 137 58
f 341 238 343
f 343 479 341
f 140 141 58
f 144 145 58
f 58 143 144
f 349 244 352
f 490 354 353
f 493 354 490
f 353 349 490
f 346 347 242
f 242 144 143
f 145 144 242
f 12 53 54
f 54 55 12
f 117 51 50
f 117 118 51
f 36 110 108
f 108 111 36
f 108 110 109
f 107 214 108
f 214 111 108
f 108 35 107
f 109 35 108
f 333 228 332
f 228 225 332
f 225 117 116
f 50 115 116
f 116 117 50
f 5 18 19
f 19 20 5
f 5 29 30
f 30 31 5
f 5 26 27
f 27 28 5
f 194 192 289
f 192 191 289
f 17 92 93
f 17 16 91
f 91 92 17
f 16 15 91
f 428 299 427
f 299 426 427
f 299 424 425
f 425 426 299
f 423 424 299
f 299 422 423
f 260 167 166
f 261 167 260
f 256 370 261
f 360 497 498
f 498 497 571
f 496 497 360
f 360 495 496
f 382 266 379
f 357 495 359
f 357 249 247
f 357 359 249
f 13 75 76
f 75 164 76
f 164 166 76
f 76 166 167
f 13 78 79
f 85 59 13
f 153 173 247
f 247 154 153
f 153 85 173
f 59 85 153
f 13 64 65
f 65 66 13
f 65 64 157
f 157 66 65
f 67 68 13
f 13 66 67
f 67 158 159
f 159 68 67
f 157 158 67
f 67 66 157
f 157 249 250
f 250 251 157
f 362 251 253
f 253 252 362
f 252 251 362
f 561 435 560
f 560 609 561
f 561 609 610
f 216 299 322
f 299 437 322
f 299 435 436
f 436 437 299
f 436 435 561
f 561 437 436
f 299 431 432
f 432 433 299
f 431 560 432
f 432 560 433
f 434 435 299
f 299 433 434
f 434 560 435
f 433 560 434
f 571 497 469
f 469 468 571
f 360 468 361
f 361 249 360
f 361 250 249
f 363 251 361
f 251 250 361
f 626 628 622
f 509 364 508
f 412 411 413
f 411 414 413
f 413 294 412
f 413 414 294
f 294 296 295
f 295 196 294
f 295 296 197
f 197 196 295
f 297 419 420
f 551 553 420
f 419 415 420
f 415 551 420
f 542 554 421
f 421 553 542
f 421 420 553
f 297 420 421
f 554 552 421
f 102 193 103
f 102 101 191
f 102 191 192
f 192 193 102
f 103 31 102
f 31 101 102
f 369 372 443
f 443 305 441
f 441 563 443
f 443 563 518
f 519 371 494
f 446 371 519
f 494 447 519
f 447 446 519
f 372 371 444
f 444 371 305
f 444 443 372
f 305 443 444
f 348 347 352
f 352 244 348
f 348 242 347
f 151 152 58
f 151 246 152
f 462 463 318
f 209 208 312
f 210 209 312
f 445 446 306
f 446 307 306
f 306 305 445
f 205 305 306
f 306 307 205
f 218 214 321
f 214 320 321
f 321 331 218
f 321 320 331
f 319 214 318
f 319 320 214
f 319 463 465
f 318 463 319
f 465 331 319
f 331 320 319
f 107 210 211
f 211 212 107
f 459 315 458
f 213 212 317
f 318 214 317
f 317 214 213
f 484 486 345
f 479 486 484
f 481 479 484
f 345 344 484
f 484 344 481
f 233 165 125
f 258 165 233
f 126 165 75
f 125 165 126
f 58 125 126
f 126 127 58
f 75 127 126
f 330 329 304
f 329 442 304
f 304 303 330
f 304 204 303
f 205 204 304
f 304 305 205
f 441 305 304
f 475 442 325
f 18 8 48
f 8 47 48
f 46 8 45
f 8 44 45
f 43 8 42
f 43 44 8
f 42 8 41
f 8 40 41
f 541 554 542
f 542 399 541
f 541 422 554
f 343 238 340
f 238 236 340
f 339 343 340
f 340 236 339
f 133 134 58
f 58 132 133
f 133 236 134
f 235 236 133
f 133 132 235
f 122 57 121
f 121 230 122
f 121 57 56
f 121 228 229
f 229 230 121
f 130 235 131
f 130 129 235
f 130 131 58
f 58 129 130
f 58 122 128
f 128 129 58
f 122 230 128
f 229 235 234
f 235 129 234
f 234 230 229
f 234 128 230
f 129 128 234
f 134 236 237
f 237 236 238
f 137 238 239
f 139 140 58
f 141 140 240
f 142 141 240
f 140 139 240
f 240 139 239
f 346 242 241
f 241 242 143
f 345 346 241
f 241 344 345
f 241 143 142
f 142 240 241
f 241 240 344
f 491 349 487
f 492 349 491
f 488 347 487
f 487 349 488
f 352 347 488
f 488 349 352
f 350 349 353
f 244 349 350
f 353 351 350
f 351 244 350
f 489 349 492
f 489 490 349
f 55 54 120
f 120 54 53
f 228 121 120
f 227 228 120
f 56 55 120
f 120 121 56
f 226 225 227
f 226 117 225
f 118 117 226
f 227 120 226
f 223 113 222
f 223 224 113
f 29 28 97
f 97 98 29
f 31 30 100
f 100 101 31
f 183 93 92
f 183 186 93
f 90 15 89
f 90 91 15
f 554 422 555
f 555 552 554
f 422 552 555
f 260 166 257
f 257 166 164
f 257 261 260
f 164 256 257
f 256 261 257
f 374 261 370
f 571 468 499
f 499 498 571
f 499 468 360
f 360 498 499
f 530 497 573
f 497 496 573
f 324 325 216
f 324 475 325
f 471 497 530
f 471 324 470
f 471 469 497
f 470 469 471
f 265 379 266
f 265 170 169
f 266 170 265
f 167 261 262
f 358 357 247
f 380 266 382
f 380 381 266
f 382 526 380
f 77 78 13
f 13 76 77
f 167 78 77
f 77 76 167
f 13 79 80
f 80 79 169
f 169 170 80
f 169 79 168
f 168 79 78
f 168 78 167
f 63 64 13
f 13 62 63
f 63 156 64
f 13 59 60
f 59 153 60
f 13 82 83
f 82 170 83
f 173 85 172
f 431 558 559
f 559 560 431
f 559 558 608
f 608 609 559
f 609 560 559
f 216 322 323
f 468 469 323
f 323 469 470
f 323 324 216
f 470 324 323
f 613 578 611
f 611 578 569
f 502 361 468
f 502 578 579
f 363 361 501
f 623 597 622
f 622 628 623
f 625 609 608
f 625 626 609
f 386 271 270
f 175 274 176
f 175 270 271
f 597 623 619
f 619 623 628
f 619 625 608
f 628 626 619
f 626 625 619
f 297 421 418
f 418 421 552
f 418 552 422
f 418 298 297
f 418 422 298
f 356 354 337
f 337 246 356
f 356 246 354
f 231 233 125
f 354 246 355
f 245 244 351
f 245 149 244
f 245 355 246
f 246 151 245
f 245 351 353
f 353 354 245
f 354 355 245
f 148 149 58
f 58 147 148
f 244 149 148
f 148 147 244
f 244 147 243
f 243 348 244
f 145 242 243
f 242 348 243
f 58 149 150
f 150 151 58
f 149 245 150
f 150 245 151
f 339 476 477
f 313 312 453
f 210 312 313
f 313 211 210
f 212 211 316
f 316 211 315
f 316 317 212
f 566 479 567
f 565 479 566
f 460 315 459
f 442 475 523
f 523 520 521
f 521 518 523
f 398 422 540
f 422 541 540
f 540 399 398
f 540 541 399
f 238 136 135
f 135 237 238
f 134 237 135
f 58 134 135
f 135 136 58
f 342 240 239
f 238 341 342
f 342 239 238
f 342 479 481
f 481 344 342
f 344 240 342
f 137 239 138
f 239 139 138
f 58 137 138
f 138 139 58
f 309 449 450
f 207 308 309
f 308 449 309
f 311 452 453
f 453 312 311
f 311 208 207
f 311 312 208
f 448 449 308
f 448 307 447
f 308 307 448
f 53 118 119
f 119 120 53
f 118 226 119
f 119 226 120
f 288 289 191
f 194 289 288
f 288 290 194
f 191 101 190
f 190 101 98
f 194 290 291
f 290 288 291
f 283 284 187
f 186 183 279
f 26 25 95
f 99 100 30
f 101 100 99
f 98 101 99
f 99 30 29
f 29 98 99
f 182 92 181
f 182 183 92
f 181 279 182
f 182 279 183
f 187 185 184
f 184 185 93
f 93 186 184
f 178 177 277
f 277 278 178
f 398 399 277
f 400 399 542
f 92 178 179
f 178 278 179
f 179 278 181
f 556 427 426
f 428 427 556
f 556 429 428
f 398 277 396
f 396 425 424
f 475 324 474
f 169 168 264
f 264 168 167
f 264 265 169
f 379 265 264
f 373 262 261
f 261 374 373
f 375 262 376
f 520 523 376
f 376 523 475
f 376 474 375
f 475 474 376
f 263 262 375
f 379 264 263
f 167 262 263
f 263 264 167
f 495 357 384
f 357 358 384
f 384 529 495
f 81 170 82
f 81 80 170
f 81 82 13
f 13 80 81
f 155 63 62
f 154 248 155
f 155 62 154
f 156 63 155
f 249 156 155
f 155 248 249
f 61 62 13
f 13 60 61
f 154 62 61
f 61 153 154
f 61 60 153
f 84 85 13
f 13 83 84
f 171 83 170
f 171 170 266
f 171 84 83
f 171 172 85
f 85 84 171
f 466 322 437
f 466 323 322
f 467 569 468
f 468 323 467
f 467 466 569
f 323 466 467
f 613 626 614
f 614 578 613
f 579 578 614
f 614 626 615
f 615 612 614
f 614 612 579
f 627 611 610
f 627 610 609
f 609 626 627
f 627 626 613
f 613 611 627
f 363 504 505
f 617 597 590
f 570 502 468
f 578 502 570
f 468 569 570
f 569 578 570
f 579 612 580
f 580 502 579
f 503 504 363
f 363 501 503
f 503 501 504
f 504 501 577
f 584 504 577
f 274 175 273
f 597 619 596
f 608 558 607
f 607 619 608
f 58 152 123
f 152 246 232
f 232 123 152
f 231 123 232
f 232 246 337
f 145 243 146
f 146 243 147
f 58 145 146
f 146 147 58
f 482 483 343
f 456 315 454
f 454 313 453
f 455 316 315
f 317 316 455
f 315 460 455
f 455 460 317
f 457 458 315
f 457 315 456
f 318 317 461
f 461 460 318
f 317 460 461
f 563 442 564
f 442 523 564
f 518 563 564
f 564 523 518
f 480 341 479
f 479 342 480
f 480 342 341
f 451 309 450
f 452 309 451
f 310 309 452
f 452 311 310
f 207 309 310
f 310 311 207
f 287 288 191
f 191 190 287
f 287 190 286
f 187 284 285
f 285 286 187
f 285 287 286
f 288 287 285
f 98 97 189
f 189 190 98
f 286 190 189
f 194 291 292
f 292 195 194
f 292 293 195
f 411 293 292
f 415 547 546
f 550 415 546
f 546 545 550
f 404 279 403
f 403 546 547
f 282 283 187
f 187 279 282
f 404 283 282
f 282 279 404
f 281 279 187
f 186 279 281
f 187 184 281
f 281 184 186
f 28 27 96
f 96 97 28
f 96 189 97
f 94 185 187
f 94 95 25
f 94 96 95
f 189 96 94
f 93 185 94
f 94 25 17
f 17 93 94
f 278 277 397
f 397 400 278
f 397 277 399
f 399 400 397
f 542 553 544
f 544 553 550
f 550 545 544
f 181 92 180
f 180 179 181
f 92 179 180
f 429 556 557
f 558 430 557
f 430 429 557
f 276 277 177
f 424 423 538
f 538 396 424
f 538 423 422
f 538 422 398
f 398 396 538
f 425 396 539
f 539 396 537
f 426 425 539
f 539 556 426
f 537 556 539
f 393 394 274
f 393 273 392
f 274 273 393
f 537 396 395
f 601 557 556
f 601 556 537
f 375 474 473
f 473 474 324
f 324 471 472
f 472 473 324
f 375 473 472
f 527 472 471
f 572 472 527
f 377 263 375
f 379 263 378
f 263 377 378
f 247 173 269
f 269 358 247
f 269 384 358
f 529 384 383
f 267 171 266
f 266 381 267
f 381 383 267
f 267 383 384
f 173 172 267
f 172 171 267
f 562 437 561
f 562 466 437
f 561 610 562
f 569 466 562
f 610 611 562
f 562 611 569
f 588 509 508
f 508 505 588
f 586 617 588
f 507 364 363
f 508 364 507
f 507 505 508
f 590 509 589
f 589 617 590
f 509 588 589
f 589 588 617
f 622 597 621
f 597 617 621
f 581 504 584
f 581 612 615
f 584 612 581
f 584 577 576
f 392 273 391
f 272 175 271
f 272 273 175
f 516 509 590
f 590 597 516
f 597 596 516
f 595 596 619
f 595 516 596
f 606 607 558
f 619 607 606
f 558 605 606
f 624 606 605
f 618 619 624
f 619 606 624
f 270 254 366
f 387 271 386
f 387 388 271
f 620 593 618
f 598 593 620
f 532 593 598
f 598 599 532
f 124 231 125
f 124 123 231
f 124 125 58
f 58 123 124
f 233 231 336
f 231 232 336
f 336 232 337
f 337 258 336
f 258 233 336
f 464 462 318
f 318 460 464
f 314 454 315
f 313 454 314
f 315 211 314
f 211 313 314
f 187 286 188
f 286 189 188
f 188 94 187
f 189 94 188
f 411 292 409
f 409 292 291
f 291 407 409
f 408 285 284
f 284 407 408
f 288 285 408
f 408 291 288
f 406 283 404
f 284 283 406
f 406 407 284
f 406 403 547
f 404 403 406
f 406 409 407
f 411 409 406
f 548 411 406
f 406 415 548
f 406 547 415
f 278 400 280
f 181 278 280
f 280 279 181
f 280 401 279
f 545 546 402
f 402 401 545
f 279 401 402
f 402 403 279
f 546 403 402
f 543 400 542
f 542 544 543
f 543 544 400
f 604 605 558
f 558 557 604
f 604 624 605
f 274 394 275
f 394 395 275
f 275 177 176
f 176 274 275
f 275 276 177
f 275 395 396
f 275 396 277
f 277 276 275
f 394 393 535
f 392 534 535
f 535 393 392
f 534 599 535
f 375 472 522
f 522 377 375
f 528 471 530
f 528 527 471
f 525 377 382
f 525 378 377
f 382 379 525
f 379 378 525
f 268 269 173
f 173 267 268
f 384 269 268
f 268 267 384
f 587 505 586
f 586 588 587
f 587 588 505
f 363 505 506
f 506 507 363
f 505 507 506
f 616 626 622
f 622 621 616
f 615 626 616
f 616 581 615
f 616 621 617
f 585 617 586
f 586 505 585
f 585 616 617
f 581 616 585
f 574 612 584
f 584 576 574
f 574 580 612
f 502 580 574
f 500 576 577
f 361 502 500
f 502 574 500
f 500 501 361
f 500 577 501
f 271 388 389
f 364 509 367
f 367 254 364
f 386 270 385
f 270 366 385
f 385 387 386
f 510 366 365
f 365 366 254
f 511 366 510
f 600 599 598
f 598 620 600
f 600 535 599
f 618 624 600
f 600 620 618
f 601 535 600
f 624 604 600
f 388 532 533
f 533 532 599
f 533 389 388
f 391 389 533
f 533 599 534
f 533 534 392
f 392 391 533
f 388 387 531
f 531 532 388
f 568 460 459
f 568 464 460
f 339 477 478
f 478 343 339
f 478 482 343
f 410 407 291
f 291 408 410
f 410 408 407
f 545 401 405
f 401 280 405
f 405 544 545
f 400 544 405
f 405 280 400
f 394 535 536
f 537 395 536
f 536 395 394
f 524 472 572
f 524 522 472
f 524 572 526
f 524 526 382
f 382 377 524
f 377 522 524
f 504 581 582
f 581 585 582
f 582 585 505
f 575 574 576
f 576 500 575
f 575 500 574
f 390 389 391
f 390 391 273
f 273 272 390
f 390 272 271
f 271 389 390
f 509 516 515
f 515 367 509
f 516 367 515
f 592 619 618
f 592 595 619
f 618 593 592
f 593 511 592
f 510 591 592
f 592 511 510
f 510 365 368
f 254 367 368
f 368 365 254
f 516 595 513
f 513 367 516
f 557 601 603
f 601 600 603
f 603 604 557
f 603 600 604
f 366 511 512
f 512 385 366
f 512 511 593
f 387 385 512
f 512 531 387
f 593 532 512
f 532 531 512
f 602 601 537
f 537 536 602
f 602 535 601
f 602 536 535
f 583 505 504
f 504 582 583
f 583 582 505
f 595 592 594
f 594 592 591
f 594 513 595
f 591 513 594
f 517 513 591
f 517 591 510
f 510 368 517
f 514 368 367
f 514 517 368
f 367 513 514
f 513 517 514
f 12 58 127
f 127 4 1
f 1 3 127
f 13 4 127
f 127 3 12
f 127 74 13
f 163 74 127
f 107 106 203
f 203 215 107
f 33 35 8
f 8 5 33
f 364 251 363
f 253 251 364
f 334 331 465
f 333 331 334
f 465 463 334
f 334 463 476
f 197 300 200
f 33 105 200
f 200 35 33
f 301 203 200
f 106 35 200
f 200 105 202
f 200 198 197
f 202 201 200
f 200 203 106
f 440 439 200
f 200 300 440
f 200 438 301
f 199 198 200
f 439 438 200
f 332 331 333
f 220 331 332
f 332 225 222
f 332 222 220
f 518 370 443
f 443 370 369
f 458 483 459
f 567 483 458
f 304 442 563
f 304 563 441
f 41 3 1
f 18 48 41
f 41 7 3
f 24 23 41
f 39 38 41
f 41 22 21
f 41 40 39
f 41 6 24
f 1 2 41
f 21 20 41
f 41 47 46
f 41 38 37
f 41 2 6
f 41 23 22
f 37 34 41
f 41 19 18
f 46 45 41
f 41 43 42
f 41 34 7
f 20 19 41
f 41 48 47
f 41 45 44
f 44 43 41
f 485 453 452
f 487 485 452
f 450 449 489
f 492 450 489
f 222 225 223
f 225 116 223
f 115 224 223
f 223 116 115
f 90 178 92
f 92 91 90
f 177 88 176
f 89 88 177
f 178 90 177
f 177 90 89
f 374 370 518
f 374 518 521
f 176 88 175
f 175 88 87
f 175 87 174
f 174 270 175
f 476 463 477
f 463 462 477
f 493 490 448
f 447 493 448
f 448 489 449
f 490 489 448
f 529 573 496
f 529 496 495
f 373 374 521
f 521 520 373
f 376 373 520
f 262 373 376
f 253 364 254
f 254 161 253
f 254 270 174
f 174 161 254
f 454 486 565
f 454 565 456
f 454 453 485
f 485 486 454
f 567 458 457
f 457 566 567
f 456 565 457
f 565 566 457
f 451 450 492
f 492 491 451
f 487 452 451
f 451 491 487
f 26 95 96
f 96 27 26
f 526 572 527
f 527 380 526
f 573 529 383
f 530 573 383
f 530 383 528
f 528 383 381
f 380 527 528
f 381 380 528
f 459 483 568
f 483 482 568
f 478 477 462
f 462 464 478
f 478 568 482
f 464 568 478
