v -0.000301 0.048686 0.043664
v -0.074118 0.039492 0.043694
v -0.009638 0.047860 0.044339
v -0.007730 0.048043 0.044339
v -0.005833 0.048158 0.044339
v -0.003949 0.048196 0.044339
v -0.002040 0.048148 0.044339
v -0.000301 0.048091 0.044306
v -0.000132 0.048081 0.044301
v 0.001765 0.047985 0.044213
v 0.001765 0.048446 0.043664
v 0.047569 0.013406 0.032765
v 0.042085 0.013406 0.032765
v -0.074118 -0.031818 0.043360
v -0.074118 0.038761 0.044341
v -0.009638 0.047015 0.045167
v 0.028375 0.004356 0.032765
v 0.027469 0.003693 0.032765
v 0.026866 0.002789 0.032765
v 0.026153 0.000945 0.032765
v -0.007730 0.047091 0.045253
v -0.005833 0.047168 0.045306
v -0.003949 0.047187 0.045323
v -0.002040 0.047159 0.045303
v -0.000132 0.047082 0.045250
v 0.001765 0.047015 0.045162
v 0.003649 0.047860 0.044085
v 0.003649 0.048215 0.043664
v 0.032736 0.031882 0.043664
v 0.033545 0.030883 0.043664
v 0.035212 0.028779 0.043664
v 0.036795 0.026463 0.043664
v 0.046929 0.013406 0.035129
v 0.047243 0.012330 0.035094
v 0.047751 0.012330 0.033198
v 0.047859 0.012330 0.032765
v 0.005558 0.047889 0.043664
v 0.006983 0.047591 0.043664
v 0.008155 0.047312 0.043664
v 0.009350 0.046947 0.043664
v 0.011235 0.046361 0.043664
v 0.012769 0.045852 0.043664
v 0.015040 0.044910 0.043664
v 0.017806 0.043642 0.043664
v 0.020415 0.042201 0.043664
v 0.021478 0.041557 0.043664
v 0.023809 0.040030 0.043664
v 0.025984 0.038396 0.043664
v 0.028013 0.036667 0.043664
v 0.029004 0.035764 0.043664
v 0.030912 0.033900 0.043664
v -0.074118 -0.039860 0.043360
v -0.074118 0.037656 0.045288
v -0.011523 0.045929 0.045847
v -0.009638 0.046044 0.045950
v -0.007730 0.046159 0.046013
v 0.026153 -0.000948 0.032765
v -0.005833 0.046217 0.046053
v -0.003949 0.046236 0.046066
v -0.002040 0.046217 0.046048
v -0.000132 0.046159 0.046013
v 0.001765 0.046034 0.045945
v 0.003649 0.045929 0.045845
v 0.003649 0.046880 0.045034
v 0.005545 0.046697 0.044858
v 0.005545 0.047658 0.043908
v 0.031613 0.032737 0.043984
v 0.033388 0.030777 0.043919
v 0.035128 0.028702 0.043800
v 0.034777 0.026310 0.045406
v 0.036010 0.025752 0.044686
v 0.037193 0.025253 0.043964
v 0.038860 0.022956 0.043664
v 0.046398 0.013406 0.037030
v 0.046519 0.013406 0.036610
v 0.046651 0.012349 0.037060
v 0.047086 0.010428 0.036992
v 0.047642 0.010428 0.035094
v 0.048161 0.010899 0.032765
v 0.006947 0.047533 0.043752
v 0.008070 0.045448 0.045464
v 0.009350 0.046265 0.044354
v 0.011235 0.045977 0.044082
v 0.012696 0.045698 0.043840
v 0.015040 0.044305 0.044263
v 0.016924 0.043873 0.043868
v 0.018652 0.042672 0.044145
v 0.020282 0.042038 0.043913
v 0.022626 0.040356 0.044082
v 0.023761 0.039972 0.043760
v 0.025839 0.038223 0.043896
v 0.026346 0.036955 0.044571
v 0.027832 0.036446 0.043981
v 0.029752 0.034640 0.044007
v -0.000313 -0.049468 0.042713
v -0.009638 -0.047758 0.044450
v -0.009638 -0.047008 0.045170
v -0.074118 -0.039697 0.043516
v 0.026322 -0.001419 0.032765
v 0.026866 -0.002793 0.032765
v 0.038317 -0.022767 0.032765
v -0.074118 0.036715 0.046061
v -0.074118 0.035475 0.047013
v -0.074118 0.034543 0.047700
v -0.009638 0.044670 0.046897
v -0.007730 0.044785 0.046960
v -0.005833 0.044843 0.047000
v -0.003949 0.044862 0.047013
v -0.002040 0.044843 0.046998
v -0.000301 0.044795 0.046962
v -0.000132 0.044785 0.046960
v 0.001765 0.044661 0.046892
v 0.003552 0.044411 0.046892
v 0.005545 0.044584 0.046509
v 0.006802 0.045612 0.045593
v 0.030236 0.033237 0.044628
v 0.030731 0.031786 0.045250
v 0.032567 0.029740 0.045182
v 0.034355 0.027472 0.045089
v 0.033062 0.028442 0.045542
v 0.035200 0.025012 0.045706
v 0.036541 0.023687 0.045293
v 0.033413 0.027472 0.045761
v 0.037809 0.023600 0.044253
v 0.038824 0.022918 0.043720
v 0.040696 0.019046 0.043664
v 0.044852 0.013406 0.040623
v 0.045709 0.013406 0.038860
v 0.046229 0.013406 0.037524
v 0.046277 0.012993 0.037735
v 0.046434 0.011725 0.038156
v 0.046567 0.010428 0.038500
v 0.047425 0.008525 0.036992
v 0.048004 0.008506 0.035013
v 0.048186 0.009121 0.033908
v 0.048330 0.009947 0.032765
v 0.009350 0.044305 0.046026
v 0.009350 0.045266 0.045303
v 0.011235 0.044949 0.045034
v 0.013252 0.044622 0.044639
v 0.013808 0.043517 0.045434
v 0.015040 0.043239 0.045213
v 0.017721 0.041653 0.045464
v 0.018833 0.041336 0.045218
v 0.020826 0.040837 0.044644
v 0.021345 0.039626 0.045374
v 0.024450 0.038857 0.044236
v 0.022795 0.038925 0.045124
v 0.023544 0.037897 0.045520
v 0.024510 0.037512 0.045243
v 0.026866 0.035610 0.045245
v 0.028339 0.035101 0.044626
v 0.028834 0.033708 0.045273
v 0.001765 -0.049247 0.042713
v 0.001765 -0.048939 0.043151
v -0.000132 -0.049026 0.043266
v -0.000313 -0.049035 0.043271
v -0.003949 -0.048075 0.044450
v -0.005833 -0.048036 0.044450
v -0.007464 -0.047950 0.044450
v -0.007730 -0.047930 0.044450
v 0.044187 -0.022767 0.032765
v -0.007730 -0.047104 0.045253
v -0.009638 -0.046057 0.045950
v -0.011523 -0.045932 0.045850
v -0.074118 -0.037640 0.045303
v -0.074118 -0.038755 0.044352
v -0.074118 0.033189 0.048616
v -0.074118 0.032190 0.049289
v -0.009638 0.043738 0.047489
v -0.007730 0.043844 0.047541
v -0.005833 0.043902 0.047574
v -0.003949 0.043902 0.047582
v -0.002040 0.043892 0.047572
v -0.000132 0.043844 0.047541
v 0.001765 0.043738 0.047486
v 0.004132 0.043536 0.047375
v 0.005545 0.043364 0.047282
v 0.007442 0.043123 0.047139
v 0.007442 0.044718 0.046096
v 0.029463 0.032468 0.045658
v 0.031299 0.030499 0.045625
v 0.031999 0.029192 0.045819
v 0.032096 0.027472 0.046512
v 0.034089 0.025647 0.046127
v 0.033920 0.023677 0.046940
v 0.035587 0.023687 0.045953
v 0.036831 0.022726 0.045517
v 0.039102 0.021784 0.043974
v 0.037797 0.021957 0.045036
v 0.039730 0.019776 0.044251
v 0.038715 0.018883 0.045515
v 0.039633 0.018162 0.044963
v 0.040890 0.017989 0.043883
v 0.041759 0.016096 0.043664
v 0.044332 0.013406 0.041547
v 0.044501 0.013406 0.041257
v 0.044393 0.013041 0.041640
v 0.044960 0.012369 0.040917
v 0.046180 0.010428 0.039447
v 0.045999 0.012349 0.038825
v 0.046700 0.008564 0.039019
v 0.046313 0.009217 0.039739
v 0.047714 0.006633 0.036992
v 0.048125 0.006633 0.035608
v 0.048294 0.007862 0.034326
v 0.048584 0.008516 0.032765
v 0.009350 0.042874 0.046972
v 0.011102 0.042508 0.046819
v 0.011235 0.043978 0.045814
v 0.012539 0.043777 0.045638
v 0.015040 0.042297 0.045925
v 0.016453 0.041970 0.045698
v 0.018833 0.040385 0.045897
v 0.020077 0.040020 0.045661
v 0.022275 0.038367 0.045802
v 0.024510 0.036590 0.045857
v 0.025597 0.036129 0.045608
v 0.027566 0.034313 0.045651
v 0.003649 -0.049016 0.042713
v 0.001765 -0.047988 0.044213
v 0.003649 -0.048805 0.042982
v 0.003649 -0.047834 0.044085
v -0.000132 -0.048084 0.044299
v -0.000313 -0.048171 0.044216
v -0.002040 -0.048036 0.044450
v -0.003949 -0.047162 0.045318
v -0.005833 -0.047162 0.045306
v -0.002040 -0.047162 0.045303
v 0.045456 -0.019895 0.032765
v 0.044683 -0.021374 0.033198
v 0.043523 -0.022767 0.035094
v 0.034029 -0.031530 0.042713
v 0.032531 -0.033259 0.042713
v 0.032132 -0.033701 0.042713
v 0.030513 -0.035392 0.042713
v 0.028738 -0.037026 0.042713
v 0.028375 -0.037333 0.042713
v 0.024281 -0.040580 0.042713
v 0.022626 -0.041733 0.042713
v 0.020802 -0.042858 0.042713
v 0.018700 -0.044030 0.042713
v 0.017021 -0.044866 0.042713
v 0.016840 -0.044952 0.042713
v 0.015040 -0.045759 0.042713
v 0.013180 -0.046470 0.042713
v 0.011235 -0.047162 0.042713
v 0.009350 -0.047738 0.042713
v 0.008094 -0.048075 0.042713
v 0.007394 -0.048248 0.042713
v 0.005642 -0.048651 0.042713
v 0.004966 -0.048776 0.042713
v -0.005833 -0.046211 0.046053
v -0.007730 -0.046134 0.046013
v -0.007730 -0.044769 0.046962
v -0.009638 -0.044683 0.046897
v -0.074118 -0.034499 0.047698
v -0.074118 -0.035459 0.047003
v -0.074118 -0.036708 0.046053
v -0.074118 0.031238 0.049883
v -0.074118 0.029615 0.050832
v -0.074118 0.028673 0.051336
v -0.074118 0.027491 0.051952
v -0.007730 0.042681 0.048060
v -0.005833 0.042681 0.048121
v -0.074118 0.025426 0.052904
v -0.003949 0.042681 0.048138
v -0.002040 0.042681 0.048115
v -0.000132 0.042691 0.048063
v 0.001765 0.042691 0.047957
v 0.003552 0.042816 0.047760
v 0.002864 0.043633 0.047441
v 0.005545 0.042412 0.047750
v 0.007442 0.042172 0.047650
v 0.009350 0.041894 0.047524
v 0.010365 0.041769 0.047443
v 0.030139 0.031190 0.045918
v 0.028243 0.033141 0.045940
v 0.028230 0.031190 0.046879
v 0.030079 0.029298 0.046824
v 0.031142 0.026540 0.047418
v 0.032156 0.025752 0.047156
v 0.032821 0.024301 0.047315
v 0.033243 0.023062 0.047516
v 0.034862 0.020699 0.047383
v 0.034536 0.021784 0.047212
v 0.036070 0.021957 0.046250
v 0.037157 0.021438 0.045754
v 0.038474 0.019882 0.045321
v 0.037532 0.019882 0.046001
v 0.037979 0.018162 0.046212
v 0.038981 0.017643 0.045704
v 0.040213 0.016096 0.045165
v 0.041228 0.016096 0.044218
v 0.042617 0.013502 0.043715
v 0.043450 0.013406 0.042692
v 0.044550 0.011782 0.041864
v 0.045480 0.010428 0.040784
v 0.042689 0.013406 0.043657
v 0.043837 0.012369 0.042572
v 0.047038 0.006633 0.038888
v 0.045903 0.008564 0.040658
v 0.046410 0.007949 0.039943
v 0.047968 0.004605 0.036816
v 0.048210 0.005143 0.035917
v 0.047231 0.004740 0.038888
v 0.048379 0.006633 0.034661
v 0.048765 0.006633 0.033198
v 0.048874 0.006633 0.032765
v 0.013131 0.041202 0.047129
v 0.013155 0.042806 0.046116
v 0.015040 0.040693 0.046932
v 0.017021 0.040923 0.046172
v 0.018772 0.038781 0.046882
v 0.020717 0.038925 0.046074
v 0.020862 0.037013 0.047113
v 0.021587 0.035975 0.047398
v 0.022626 0.035581 0.047202
v 0.022795 0.037138 0.046273
v 0.024389 0.034957 0.046801
v 0.026310 0.034995 0.045897
v 0.001765 -0.047018 0.045162
v 0.005545 -0.047681 0.043911
v 0.005545 -0.046701 0.044858
v 0.003649 -0.046845 0.045034
v -0.000132 -0.047104 0.045248
v -0.000313 -0.047114 0.045253
v -0.003949 -0.046230 0.046064
v -0.000313 -0.046249 0.045950
v -0.002040 -0.046211 0.046051
v 0.045613 -0.019510 0.032765
v 0.044610 -0.019328 0.036529
v 0.045323 -0.019914 0.033198
v 0.044332 -0.020596 0.035623
v 0.042943 -0.022767 0.036992
v 0.035683 -0.029397 0.042713
v 0.034657 -0.029945 0.043339
v 0.033388 -0.030771 0.043924
v 0.032869 -0.032010 0.043458
v 0.042629 -0.022767 0.037952
v 0.042593 -0.022767 0.038052
v 0.031021 -0.034018 0.043521
v 0.030417 -0.035306 0.042881
v 0.029112 -0.035882 0.043508
v 0.028472 -0.037141 0.042826
v 0.027071 -0.037717 0.043407
v 0.025005 -0.039485 0.043279
v 0.023749 -0.039975 0.043755
v 0.022626 -0.041291 0.043181
v 0.021539 -0.041637 0.043548
v 0.020862 -0.042771 0.042775
v 0.019159 -0.043309 0.043269
v 0.017891 -0.043645 0.043644
v 0.015040 -0.045259 0.043317
v 0.013965 -0.045461 0.043584
v 0.011235 -0.046931 0.043027
v 0.008191 -0.047383 0.043574
v 0.007527 -0.048123 0.042838
v 0.006935 -0.047546 0.043755
v -0.005833 -0.044837 0.047000
v -0.007730 -0.043838 0.047544
v -0.009638 -0.043722 0.047489
v -0.010762 -0.043665 0.047446
v -0.074118 -0.031194 0.049878
v -0.074118 -0.032154 0.049266
v -0.074118 -0.033182 0.048586
v -0.074118 0.023014 0.053921
v -0.074118 0.021265 0.054654
v -0.074118 0.020055 0.055092
v -0.005833 0.040789 0.048780
v -0.003949 0.040789 0.048793
v -0.002040 0.040789 0.048780
v -0.000313 0.040789 0.048740
v -0.000132 0.040789 0.048735
v 0.001765 0.040789 0.048657
v 0.003649 0.040789 0.048561
v 0.005545 0.040789 0.048428
v 0.007442 0.040789 0.048249
v 0.009350 0.040789 0.048015
v 0.011102 0.040837 0.047718
v 0.013131 0.040251 0.047627
v 0.014400 0.039991 0.047506
v 0.026322 0.033112 0.046874
v 0.026914 0.031815 0.047232
v 0.028798 0.029826 0.047214
v 0.029366 0.028596 0.047478
v 0.031552 0.025272 0.047594
v 0.029813 0.027472 0.047635
v 0.030381 0.025752 0.047894
v 0.033594 0.021784 0.047662
v 0.032156 0.023677 0.047773
v 0.032096 0.021784 0.048229
v 0.034149 0.020007 0.047833
v 0.035164 0.019440 0.047534
v 0.036432 0.017989 0.047204
v 0.035840 0.020007 0.047015
v 0.036710 0.016769 0.047355
v 0.037689 0.016096 0.046930
v 0.039271 0.016096 0.045913
v 0.040479 0.014636 0.045386
v 0.042762 0.012301 0.043876
v 0.042955 0.012330 0.043657
v 0.040672 0.013339 0.045558
v 0.041759 0.012301 0.044825
v 0.042013 0.010437 0.045054
v 0.043958 0.010428 0.043017
v 0.044695 0.010428 0.042068
v 0.046494 0.006633 0.040112
v 0.046603 0.004740 0.040303
v 0.044864 0.008525 0.042300
v 0.045963 0.006633 0.041061
v 0.047992 0.002838 0.037111
v 0.048258 0.003875 0.036063
v 0.048439 0.004605 0.035207
v 0.048947 0.004740 0.033198
v 0.049019 0.005163 0.032765
v 0.047364 0.002838 0.038888
v 0.015668 0.039655 0.047338
v 0.016924 0.039328 0.047156
v 0.019364 0.037666 0.047292
v 0.018108 0.038070 0.047491
v 0.018772 0.037013 0.047735
v 0.020862 0.035245 0.047871
v 0.022626 0.034640 0.047617
v 0.023664 0.034226 0.047463
v 0.024933 0.033660 0.047214
v 0.001765 -0.046067 0.045948
v 0.003649 -0.045932 0.045845
v 0.006814 -0.045615 0.045605
v 0.005545 -0.045759 0.045709
v -0.003949 -0.044856 0.047010
v -0.000313 -0.044914 0.046879
v -0.002040 -0.044837 0.046998
v 0.046120 -0.018204 0.032765
v 0.045516 -0.018021 0.035094
v 0.044876 -0.018127 0.037096
v 0.044405 -0.018828 0.037793
v 0.043366 -0.021816 0.036992
v 0.035925 -0.029061 0.042713
v 0.035128 -0.028705 0.043800
v 0.042134 -0.022767 0.039059
v 0.033859 -0.029214 0.044495
v 0.032567 -0.029733 0.045190
v 0.032084 -0.031280 0.044588
v 0.031601 -0.032721 0.043986
v 0.042774 -0.021682 0.038740
v 0.042593 -0.020961 0.039908
v 0.042303 -0.022229 0.039273
v 0.030236 -0.033250 0.044628
v 0.029765 -0.034643 0.044004
v 0.027832 -0.036449 0.043971
v 0.025815 -0.038188 0.043868
v 0.024438 -0.038870 0.044206
v 0.022771 -0.038928 0.045109
v 0.022626 -0.040359 0.044080
v 0.020270 -0.042041 0.043921
v 0.018652 -0.042675 0.044148
v 0.017021 -0.042646 0.044916
v 0.016924 -0.043876 0.043868
v 0.015040 -0.044308 0.044263
v 0.012696 -0.045721 0.043830
v 0.011235 -0.045980 0.044082
v 0.009350 -0.046268 0.044354
v -0.005833 -0.043895 0.047574
v -0.007730 -0.042675 0.048065
v -0.074118 -0.025765 0.052788
v -0.074118 -0.027485 0.051947
v -0.074118 -0.029599 0.050827
v -0.074118 0.018018 0.055714
v -0.074118 0.016125 0.056288
v -0.074118 0.015885 0.056356
v -0.074118 0.014377 0.056766
v -0.074118 0.014232 0.056804
v -0.000132 0.039040 0.049165
v 0.001765 0.038982 0.049135
v 0.003601 0.038733 0.049135
v 0.005545 0.038857 0.048997
v 0.007442 0.038857 0.048858
v 0.009350 0.038857 0.048682
v 0.011235 0.038857 0.048460
v 0.013131 0.038857 0.048181
v 0.015040 0.038973 0.047786
v 0.016924 0.038377 0.047627
v 0.025646 0.032420 0.047499
v 0.027530 0.030518 0.047504
v 0.028230 0.029298 0.047657
v 0.028315 0.027472 0.048146
v 0.030211 0.023687 0.048450
v 0.032096 0.019882 0.048574
v 0.034004 0.017989 0.048269
v 0.035478 0.017989 0.047675
v 0.036976 0.015510 0.047496
v 0.038123 0.014194 0.047068
v 0.039778 0.014059 0.046018
v 0.042991 0.010437 0.044102
v 0.043390 0.010428 0.043657
v 0.039694 0.012301 0.046434
v 0.040817 0.012301 0.045666
v 0.041059 0.010437 0.045850
v 0.042194 0.008535 0.045230
v 0.043185 0.008535 0.044279
v 0.044139 0.008525 0.043249
v 0.046676 0.002838 0.040429
v 0.046072 0.004740 0.041250
v 0.044284 0.006633 0.043433
v 0.045009 0.006633 0.042481
v 0.048029 0.000945 0.037249
v 0.048282 0.002838 0.036162
v 0.048572 0.002838 0.035094
v 0.049176 0.002838 0.032765
v 0.049055 0.004740 0.032765
v 0.047449 0.000945 0.038888
v 0.016924 0.036993 0.048166
v 0.018833 0.035072 0.048400
v 0.022626 0.033198 0.048121
v 0.020729 0.033198 0.048569
v 0.024389 0.033112 0.047647
v 0.001765 -0.044693 0.046894
v 0.005545 -0.044587 0.046512
v 0.003577 -0.044404 0.046887
v 0.009350 -0.045259 0.045301
v 0.008082 -0.045432 0.045457
v 0.009350 -0.044308 0.046023
v 0.007442 -0.044721 0.046101
v -0.002040 -0.043886 0.047572
v -0.003949 -0.043905 0.047579
v -0.000132 -0.043838 0.047541
v -0.000313 -0.043847 0.047544
v 0.046494 -0.017012 0.032765
v 0.046651 -0.016157 0.033213
v 0.046120 -0.016157 0.035172
v 0.044622 -0.017570 0.038370
v 0.046301 -0.015004 0.035854
v 0.045564 -0.016119 0.036992
v 0.044175 -0.018127 0.038956
v 0.043475 -0.019914 0.038888
v 0.036988 -0.027485 0.042713
v 0.036493 -0.027485 0.043264
v 0.041832 -0.022767 0.039669
v 0.036831 -0.026495 0.043606
v 0.035538 -0.027485 0.044138
v 0.034777 -0.026313 0.045409
v 0.034355 -0.027485 0.045089
v 0.033062 -0.028475 0.045537
v 0.031299 -0.030521 0.045623
v 0.030731 -0.031751 0.045250
v 0.042484 -0.018790 0.041625
v 0.042243 -0.019914 0.041232
v 0.040648 -0.022767 0.041733
v 0.041312 -0.022767 0.040603
v 0.044368 -0.016811 0.039633
v 0.042810 -0.019914 0.040283
v 0.029475 -0.032481 0.045661
v 0.028834 -0.033711 0.045268
v 0.027578 -0.034345 0.045653
v 0.028339 -0.035104 0.044618
v 0.026841 -0.035613 0.045238
v 0.024510 -0.037496 0.045205
v 0.023507 -0.037861 0.045497
v 0.021333 -0.039600 0.045371
v 0.020814 -0.040840 0.044646
v 0.018833 -0.041311 0.045218
v 0.017709 -0.041637 0.045459
v 0.016441 -0.041974 0.045706
v 0.015040 -0.043251 0.045213
v 0.013252 -0.044635 0.044634
v 0.011235 -0.044962 0.045029
v -0.005833 -0.042675 0.048121
v -0.003949 -0.042675 0.048133
v -0.074118 -0.021643 0.054515
v -0.074118 -0.023699 0.053680
v -0.074118 -0.024833 0.053196
v -0.074118 0.012628 0.057149
v 0.002948 0.037983 0.049332
v 0.004205 0.037753 0.049306
v 0.010087 0.035946 0.049314
v 0.009399 0.036840 0.049173
v 0.011235 0.036993 0.048997
v 0.013131 0.036993 0.048778
v 0.015040 0.036993 0.048508
v 0.024510 0.031267 0.048201
v 0.026322 0.031190 0.047677
v 0.026406 0.029403 0.048209
v 0.028315 0.025608 0.048594
v 0.028315 0.023687 0.048936
v 0.030211 0.021784 0.048785
v 0.032096 0.017989 0.048846
v 0.034004 0.016096 0.048543
v 0.035901 0.014194 0.048141
v 0.035997 0.016096 0.047793
v 0.037181 0.014194 0.047597
v 0.038619 0.010937 0.047360
v 0.038401 0.012301 0.047244
v 0.043764 0.008525 0.043657
v 0.039537 0.010351 0.046884
v 0.041240 0.008535 0.045986
v 0.039851 0.008535 0.046932
v 0.042339 0.006642 0.045364
v 0.043318 0.006642 0.044417
v 0.044066 0.006633 0.043657
v 0.046712 0.000945 0.040492
v 0.046132 0.002838 0.041378
v 0.046180 0.000945 0.041439
v 0.045117 0.004740 0.042622
v 0.044405 0.004740 0.043569
v 0.048029 -0.000948 0.037221
v 0.048318 0.000945 0.036297
v 0.048657 0.000945 0.035094
v 0.049285 0.000945 0.032765
v 0.047437 -0.000948 0.038888
v 0.046712 -0.000948 0.040492
v 0.016924 0.035072 0.048742
v 0.022626 0.031267 0.048657
v 0.018833 0.033198 0.048904
v 0.020548 0.031123 0.049067
v 0.002888 -0.043674 0.047446
v 0.005545 -0.043367 0.047280
v 0.004156 -0.043530 0.047370
v 0.007442 -0.043127 0.047139
v 0.011235 -0.044010 0.045814
v 0.009350 -0.042867 0.046970
v -0.002040 -0.042675 0.048118
v 0.001765 -0.042675 0.047962
v -0.000313 -0.042790 0.048017
v 0.047376 -0.014197 0.032765
v 0.046470 -0.015552 0.034590
v 0.046120 -0.014313 0.037060
v 0.045468 -0.014226 0.038888
v 0.044840 -0.016157 0.038956
v 0.046688 -0.014313 0.035172
v 0.046482 -0.013736 0.036474
v 0.038015 -0.025900 0.042713
v 0.038474 -0.024180 0.043337
v 0.037217 -0.025256 0.043971
v 0.036541 -0.023719 0.045296
v 0.035200 -0.025045 0.045698
v 0.033413 -0.027485 0.045761
v 0.032096 -0.027485 0.046509
v 0.031999 -0.029214 0.045814
v 0.030079 -0.029272 0.046821
v 0.030151 -0.031213 0.045918
v 0.043173 -0.018108 0.040910
v 0.042726 -0.017531 0.041957
v 0.041953 -0.018108 0.042627
v 0.040733 -0.019049 0.043657
v 0.041192 -0.019789 0.042705
v 0.040938 -0.021499 0.042088
v 0.040406 -0.020337 0.043355
v 0.040177 -0.021999 0.042705
v 0.038957 -0.022767 0.043657
v 0.044562 -0.015542 0.040044
v 0.043970 -0.016157 0.040719
v 0.028230 -0.031232 0.046882
v 0.028255 -0.033115 0.045945
v 0.026914 -0.031818 0.047227
v 0.026322 -0.033086 0.046869
v 0.026298 -0.035027 0.045885
v 0.025573 -0.036113 0.045588
v 0.022239 -0.038332 0.045807
v 0.020077 -0.040033 0.045661
v 0.018833 -0.040388 0.045897
v 0.017021 -0.040926 0.046177
v 0.015040 -0.040686 0.046932
v 0.015040 -0.042300 0.045928
v 0.013808 -0.043511 0.045437
v 0.012539 -0.043770 0.045638
v -0.005833 -0.040782 0.048783
v -0.074118 -0.020586 0.054926
v -0.074118 -0.021259 0.054666
v -0.003949 -0.040782 0.048798
v -0.074118 0.010687 0.057501
v -0.074118 0.008535 0.057877
v 0.014122 0.034169 0.049326
v 0.014859 0.034918 0.049072
v 0.024510 0.029403 0.048695
v 0.026406 0.027472 0.048669
v 0.026237 0.025406 0.049077
v 0.028218 0.021842 0.049185
v 0.029306 0.019027 0.049332
v 0.030042 0.019776 0.049097
v 0.025476 0.024657 0.049326
v 0.026757 0.023687 0.049226
v 0.027155 0.022476 0.049304
v 0.031939 0.015943 0.049100
v 0.034004 0.014194 0.048770
v 0.035901 0.012301 0.048372
v 0.037459 0.012301 0.047723
v 0.038788 0.009678 0.047451
v 0.041397 0.006642 0.046089
v 0.038897 0.008535 0.047511
v 0.039996 0.006642 0.047035
v 0.042460 0.004740 0.045469
v 0.043438 0.004740 0.044518
v 0.045069 0.002972 0.042866
v 0.046180 -0.000948 0.041439
v 0.045286 0.000945 0.042682
v 0.044405 0.003683 0.043664
v 0.044441 0.003693 0.043624
v 0.047364 -0.002850 0.038888
v 0.047980 -0.002850 0.037086
v 0.048258 -0.003888 0.036066
v 0.048306 -0.000948 0.036272
v 0.048632 -0.000948 0.035094
v 0.049273 -0.000948 0.032765
v 0.046676 -0.002850 0.040429
v 0.019787 0.030364 0.049324
v 0.022469 0.029221 0.049095
v 0.007442 -0.042185 0.047652
v 0.005545 -0.042416 0.047750
v 0.003577 -0.042819 0.047763
v 0.009350 -0.041916 0.047524
v 0.011102 -0.042512 0.046821
v 0.013155 -0.042800 0.046114
v 0.010365 -0.041762 0.047438
v -0.002040 -0.040782 0.048783
v -0.000313 -0.042675 0.048065
v -0.000132 -0.040792 0.048737
v 0.001765 -0.040792 0.048664
v -0.000132 -0.042675 0.048058
v 0.005545 -0.040792 0.048425
v 0.003649 -0.040792 0.048561
v 0.047859 -0.012324 0.032765
v 0.047751 -0.012324 0.033198
v 0.046277 -0.012987 0.037738
v 0.045999 -0.012343 0.038820
v 0.044767 -0.014226 0.040386
v 0.047231 -0.012324 0.035094
v 0.046651 -0.012343 0.037060
v 0.038824 -0.022912 0.043712
v 0.037821 -0.023603 0.044253
v 0.036819 -0.022739 0.045505
v 0.037797 -0.021970 0.045031
v 0.035587 -0.023719 0.045950
v 0.033920 -0.023709 0.046937
v 0.034089 -0.025650 0.046127
v 0.032156 -0.025756 0.047156
v 0.031142 -0.026495 0.047416
v 0.030755 -0.027485 0.047227
v 0.029378 -0.028561 0.047476
v 0.028810 -0.029858 0.047214
v 0.044211 -0.014226 0.041333
v 0.042967 -0.016119 0.042269
v 0.042206 -0.016119 0.043219
v 0.040696 -0.019068 0.043684
v 0.040684 -0.019155 0.043657
v 0.041349 -0.017377 0.043657
v 0.040890 -0.018021 0.043888
v 0.039090 -0.021816 0.043971
v 0.038872 -0.022739 0.043747
v 0.027542 -0.030550 0.047506
v 0.025658 -0.032395 0.047501
v 0.024897 -0.033692 0.047204
v 0.024365 -0.034941 0.046774
v 0.022771 -0.037150 0.046257
v 0.020850 -0.037016 0.047108
v 0.020717 -0.038928 0.046074
v 0.018772 -0.038784 0.046879
v 0.016924 -0.039303 0.047156
v 0.014400 -0.039994 0.047506
v 0.013131 -0.041205 0.047129
v 0.018108 -0.038082 0.047496
v -0.074118 -0.018002 0.055742
v -0.074118 -0.016109 0.056303
v -0.074118 0.007228 0.058053
v -0.074118 0.006623 0.058133
v 0.024365 0.027366 0.049100
v 0.024897 0.025954 0.049231
v -0.074118 0.002828 0.058393
v -0.074118 0.000753 0.058486
v 0.031178 0.015222 0.049329
v 0.023628 0.026636 0.049334
v -0.074118 0.004730 0.058284
v 0.034004 0.012301 0.048951
v 0.035901 0.010437 0.048546
v 0.037797 0.008535 0.048002
v 0.037906 0.010351 0.047763
v 0.041518 0.004740 0.046162
v 0.037797 0.006642 0.048153
v 0.039041 0.006642 0.047592
v 0.040104 0.004740 0.047111
v 0.042520 0.003500 0.045512
v 0.044501 0.002444 0.043657
v 0.046132 -0.002850 0.041378
v 0.045286 -0.000948 0.042682
v 0.045069 -0.002994 0.042869
v 0.044538 0.000945 0.043664
v 0.047243 -0.004733 0.038888
v 0.047968 -0.004609 0.036816
v 0.049055 -0.004733 0.032765
v 0.048210 -0.005147 0.035912
v 0.046603 -0.004733 0.040303
v 0.021744 0.028481 0.049332
v 0.022988 0.027904 0.049241
v 0.009350 -0.040792 0.048015
v 0.007442 -0.040792 0.048251
v 0.011633 -0.041503 0.047307
v 0.013131 -0.040254 0.047627
v 0.011102 -0.040840 0.047715
v -0.000313 -0.039197 0.049135
v -0.074118 -0.014265 0.056804
v -0.074118 -0.015869 0.056368
v 0.003601 -0.038726 0.049138
v 0.001765 -0.038957 0.049143
v 0.005545 -0.038880 0.048997
v 0.007442 -0.038880 0.048866
v 0.047956 -0.011891 0.032765
v 0.047642 -0.010431 0.035094
v 0.046422 -0.011728 0.038148
v 0.046180 -0.010431 0.039442
v 0.044960 -0.012372 0.040910
v 0.044381 -0.013035 0.041625
v 0.047086 -0.010431 0.036992
v 0.037169 -0.021451 0.045756
v 0.038474 -0.019914 0.045316
v 0.035865 -0.022739 0.046116
v 0.034536 -0.021816 0.047212
v 0.033243 -0.023065 0.047519
v 0.032821 -0.024334 0.047315
v 0.031552 -0.025266 0.047597
v 0.030381 -0.025756 0.047894
v 0.029801 -0.027485 0.047632
v 0.028315 -0.027485 0.048143
v 0.028230 -0.029272 0.047660
v 0.043161 -0.014168 0.042788
v 0.042424 -0.014774 0.043488
v 0.042158 -0.015081 0.043657
v 0.039645 -0.018165 0.044961
v 0.039730 -0.019789 0.044251
v 0.041228 -0.016119 0.044218
v 0.040213 -0.016119 0.045170
v 0.026406 -0.029407 0.048209
v 0.026322 -0.031232 0.047677
v 0.024510 -0.031280 0.048199
v 0.022626 -0.033202 0.048093
v 0.024365 -0.033086 0.047635
v 0.023628 -0.034210 0.047451
v 0.022626 -0.035517 0.047181
v 0.021551 -0.035959 0.047388
v 0.016924 -0.038390 0.047627
v 0.015040 -0.038947 0.047786
v 0.013131 -0.038880 0.048186
v 0.016924 -0.036997 0.048168
v 0.020294 -0.036391 0.047582
v 0.018772 -0.037016 0.047738
v 0.030211 0.014194 0.049442
v -0.074118 -0.000765 0.058481
v 0.033437 -0.004724 0.049387
v 0.033437 0.004740 0.049384
v 0.032096 0.006642 0.049467
v 0.032096 0.008535 0.049437
v 0.033086 0.009611 0.049332
v 0.033835 0.010312 0.049123
v 0.035901 0.008535 0.048687
v 0.040189 0.002847 0.047161
v 0.041759 0.002857 0.046089
v 0.042569 0.002223 0.045552
v 0.037797 0.004740 0.048254
v 0.035901 0.006642 0.048805
v 0.039150 0.004740 0.047642
v 0.043535 0.000945 0.044651
v 0.046060 -0.004733 0.041250
v 0.045117 -0.004733 0.042617
v 0.044538 -0.000948 0.043657
v 0.044501 -0.002466 0.043657
v 0.044453 -0.003725 0.043626
v 0.043535 -0.000919 0.044651
v 0.046494 -0.006636 0.040112
v 0.047038 -0.006636 0.038888
v 0.047714 -0.006636 0.036992
v 0.048886 -0.006636 0.032765
v 0.048125 -0.006636 0.035613
v 0.048391 -0.006636 0.034666
v 0.045951 -0.006636 0.041061
v 0.011235 -0.038880 0.048458
v 0.009350 -0.038880 0.048684
v -0.074118 -0.013525 0.056970
v 0.004181 -0.037765 0.049304
v 0.002924 -0.037958 0.049332
v 0.009399 -0.036843 0.049173
v 0.007442 -0.037237 0.049213
v 0.011235 -0.036997 0.048997
v 0.048161 -0.010902 0.032765
v 0.048379 -0.009720 0.032765
v 0.048186 -0.009144 0.033908
v 0.048004 -0.008519 0.035019
v 0.047437 -0.008538 0.036992
v 0.046567 -0.010431 0.038493
v 0.046301 -0.009220 0.039737
v 0.045480 -0.010431 0.040784
v 0.044550 -0.011766 0.041869
v 0.043837 -0.012372 0.042574
v 0.038703 -0.018895 0.045507
v 0.037532 -0.019914 0.046001
v 0.035840 -0.019981 0.047015
v 0.036070 -0.021970 0.046252
v 0.034838 -0.020663 0.047378
v 0.035164 -0.019424 0.047534
v 0.033582 -0.021816 0.047662
v 0.032096 -0.021816 0.048229
v 0.032156 -0.023709 0.047773
v 0.030211 -0.023719 0.048448
v 0.028315 -0.025611 0.048596
v 0.026406 -0.027485 0.048674
v 0.042581 -0.013765 0.043664
v 0.040479 -0.014630 0.045391
v 0.039271 -0.016119 0.045910
v 0.038981 -0.017598 0.045706
v 0.024510 -0.029407 0.048695
v 0.022626 -0.031280 0.048649
v 0.020729 -0.033202 0.048549
v 0.018833 -0.035075 0.048402
v 0.020850 -0.035210 0.047861
v 0.022626 -0.034604 0.047599
v 0.015040 -0.036997 0.048511
v 0.013131 -0.036997 0.048788
v -0.074118 -0.002812 0.058380
v 0.029306 -0.019049 0.049332
v 0.031190 -0.015264 0.049332
v 0.030211 -0.014226 0.049442
v 0.033098 -0.009643 0.049332
v 0.032096 -0.008529 0.049442
v 0.032096 -0.006636 0.049475
v 0.033171 -0.008529 0.049347
v 0.034391 -0.004724 0.049226
v 0.034379 0.004740 0.049228
v 0.033159 0.008535 0.049344
v 0.034113 0.008535 0.049148
v 0.040225 0.000945 0.047186
v 0.041590 0.000945 0.046273
v 0.039235 0.002847 0.047677
v 0.042581 0.000945 0.045568
v 0.037797 0.002847 0.048317
v 0.035901 0.004740 0.048888
v 0.045009 -0.006636 0.042478
v 0.044393 -0.004733 0.043566
v 0.044284 -0.006636 0.043430
v 0.042557 -0.002226 0.045550
v 0.042520 -0.003475 0.045515
v 0.044308 -0.004733 0.043657
v 0.044284 -0.004945 0.043657
v 0.042460 -0.004724 0.045464
v 0.043438 -0.004724 0.044515
v 0.042581 -0.000919 0.045565
v 0.046470 -0.006982 0.040066
v 0.045951 -0.006982 0.040988
v 0.046398 -0.007952 0.039943
v 0.046700 -0.008567 0.039019
v 0.047666 -0.006982 0.036992
v 0.048004 -0.006982 0.035867
v 0.048113 -0.006982 0.035504
v 0.048294 -0.007875 0.034336
v 0.048584 -0.008519 0.032765
v 0.045758 -0.006982 0.041288
v -0.074118 -0.012631 0.057146
v 0.010063 -0.035901 0.049311
v 0.008795 -0.036122 0.049342
v -0.074118 -0.008538 0.057877
v -0.074118 -0.010690 0.057499
v 0.015040 -0.035075 0.049012
v 0.014049 -0.034105 0.049319
v 0.048463 -0.008519 0.033246
v 0.045903 -0.008567 0.040658
v 0.044695 -0.010431 0.042065
v 0.043958 -0.010431 0.043015
v 0.043076 -0.011863 0.043657
v 0.042641 -0.013534 0.043664
v 0.037966 -0.018165 0.046217
v 0.036432 -0.018021 0.047204
v 0.036710 -0.016743 0.047360
v 0.035478 -0.018021 0.047672
v 0.034004 -0.018021 0.048269
v 0.034137 -0.019981 0.047836
v 0.032096 -0.019914 0.048574
v 0.030211 -0.021816 0.048788
v 0.028315 -0.023719 0.048934
v 0.026249 -0.025429 0.049080
v 0.024365 -0.027360 0.049105
v 0.042762 -0.012324 0.043876
v 0.041759 -0.012324 0.044825
v 0.040672 -0.013361 0.045555
v 0.038123 -0.014226 0.047068
v 0.037689 -0.016128 0.046932
v 0.039778 -0.014082 0.046016
v 0.022481 -0.029234 0.049100
v 0.020536 -0.031117 0.049060
v 0.018833 -0.033202 0.048904
v 0.016924 -0.035075 0.048745
v -0.074118 -0.004724 0.058277
v 0.025513 -0.024718 0.049332
v 0.028230 -0.021816 0.049188
v 0.030042 -0.019779 0.049102
v 0.031939 -0.015984 0.049105
v 0.034004 -0.012324 0.048949
v 0.033847 -0.010335 0.049125
v 0.034125 -0.008529 0.049148
v 0.035901 -0.004724 0.048888
v 0.035901 -0.002831 0.048936
v 0.035901 0.002847 0.048936
v 0.040225 -0.000919 0.047184
v 0.039271 0.000945 0.047698
v 0.041590 -0.000919 0.046267
v 0.037797 0.000945 0.048352
v 0.044864 -0.008538 0.042297
v 0.044139 -0.008538 0.043246
v 0.044054 -0.006636 0.043664
v 0.043185 -0.008529 0.044279
v 0.041759 -0.002831 0.046086
v 0.041506 -0.004724 0.046162
v 0.043318 -0.006636 0.044414
v 0.042339 -0.006636 0.045364
v 0.041397 -0.006636 0.046089
v -0.074118 -0.006636 0.058133
v 0.016924 -0.033067 0.049173
v 0.017540 -0.031972 0.049299
v 0.019775 -0.030329 0.049324
v 0.043390 -0.010431 0.043657
v 0.042979 -0.010421 0.044102
v 0.036964 -0.015485 0.047494
v 0.036010 -0.016128 0.047791
v 0.034004 -0.016119 0.048546
v 0.035901 -0.014226 0.048143
v 0.032096 -0.018021 0.048846
v 0.024897 -0.025986 0.049233
v 0.023012 -0.027869 0.049241
v 0.042013 -0.010421 0.045051
v 0.040817 -0.012324 0.045671
v 0.038401 -0.012324 0.047244
v 0.037181 -0.014226 0.047597
v 0.039694 -0.012324 0.046436
v 0.021756 -0.028523 0.049337
v 0.021043 -0.029791 0.049228
v 0.018833 -0.031587 0.049216
v 0.034004 -0.014226 0.048773
v 0.035901 -0.010421 0.048549
v 0.035901 -0.008529 0.048690
v 0.035901 -0.006636 0.048800
v 0.037797 -0.004724 0.048254
v 0.037797 -0.002831 0.048317
v 0.037797 -0.000919 0.048350
v 0.040189 -0.002831 0.047159
v 0.039271 -0.000919 0.047695
v 0.039235 -0.002831 0.047677
v 0.043583 -0.009451 0.043657
v 0.042194 -0.008529 0.045225
v 0.040104 -0.004724 0.047108
v 0.041240 -0.008529 0.045988
v 0.039996 -0.006636 0.047035
v 0.039851 -0.008529 0.046935
v 0.035901 -0.012324 0.048372
v 0.037471 -0.012324 0.047720
v 0.041059 -0.010421 0.045855
v 0.038619 -0.010931 0.047360
v 0.039537 -0.010344 0.046887
v 0.037797 -0.008529 0.048005
v 0.037797 -0.006636 0.048153
v 0.039041 -0.006636 0.047594
v 0.039150 -0.004724 0.047642
v 0.038897 -0.008529 0.047514
v 0.038788 -0.009662 0.047451
v 0.037906 -0.010344 0.047760
f 95 52 101
f 20 14 2
f 95 101 162
f 100 101 52
f 96 52 95
f 19 20 2
f 2 18 19
f 2 13 17
f 17 18 2
f 171 263 266
f 513 481 580
f 369 265 368
f 573 574 473
f 171 265 172
f 845 770 769
f 52 57 99
f 99 100 52
f 468 364 363
f 920 919 918
f 769 770 679
f 673 765 706
f 368 265 264
f 264 265 171
f 171 266 264
f 16 3 2
f 16 53 54
f 104 54 103
f 260 261 170
f 261 262 170
f 170 262 263
f 170 263 171
f 2 3 1
f 1 13 2
f 1 12 13
f 371 470 372
f 372 470 471
f 475 473 574
f 671 574 573
f 671 672 574
f 764 765 673
f 673 672 764
f 576 672 673
f 574 672 576
f 584 583 676
f 1055 1034 1054
f 920 924 923
f 923 921 920
f 922 921 923
f 920 918 994
f 922 923 847
f 847 923 924
f 238 162 237
f 238 239 162
f 240 241 162
f 162 239 240
f 95 158 159
f 769 679 768
f 681 772 768
f 768 679 681
f 765 772 792
f 792 706 765
f 673 706 614
f 368 264 367
f 367 264 266
f 103 54 102
f 54 53 102
f 15 16 2
f 53 16 15
f 260 170 169
f 39 12 38
f 81 82 39
f 138 82 81
f 83 39 82
f 82 138 83
f 83 138 139
f 177 178 114
f 274 178 177
f 470 371 469
f 469 371 369
f 265 369 370
f 369 371 370
f 265 370 267
f 267 370 371
f 372 268 267
f 267 371 372
f 267 172 265
f 267 173 172
f 472 473 372
f 372 471 472
f 372 473 474
f 473 475 474
f 480 580 481
f 578 576 673
f 482 481 513
f 482 382 481
f 88 45 44
f 44 87 88
f 86 87 44
f 45 12 44
f 42 83 84
f 84 83 139
f 141 212 213
f 278 384 279
f 31 32 12
f 722 723 625
f 630 533 625
f 625 723 630
f 1029 1026 1051
f 1028 1050 1021
f 1060 1050 1059
f 1059 1054 1060
f 1051 1046 1048
f 993 994 918
f 1035 1034 1055
f 1055 1036 1035
f 1035 1036 994
f 1035 993 1034
f 994 993 1035
f 920 994 995
f 994 1036 995
f 995 924 920
f 778 853 858
f 904 979 905
f 789 704 701
f 789 790 870
f 701 790 789
f 162 241 242
f 435 332 434
f 728 724 631
f 533 630 631
f 533 631 627
f 627 631 724
f 625 530 529
f 529 530 434
f 625 533 626
f 626 530 625
f 237 162 236
f 162 235 236
f 364 365 256
f 363 364 256
f 256 365 366
f 257 256 366
f 164 256 257
f 254 164 163
f 52 96 97
f 96 163 97
f 97 163 164
f 254 163 253
f 992 993 918
f 459 565 460
f 846 918 919
f 846 919 920
f 920 921 846
f 846 921 922
f 846 847 769
f 922 847 846
f 957 955 1012
f 1012 955 960
f 667 670 668
f 668 568 667
f 667 568 670
f 466 467 361
f 668 670 762
f 684 679 770
f 771 772 681
f 771 792 772
f 673 614 674
f 674 578 673
f 513 580 514
f 8 24 25
f 106 170 171
f 105 169 170
f 170 106 105
f 80 65 81
f 81 39 80
f 80 39 38
f 310 276 382
f 41 83 42
f 42 12 41
f 63 114 115
f 81 65 115
f 177 114 113
f 113 114 63
f 63 112 113
f 380 276 379
f 481 380 379
f 379 480 481
f 273 274 177
f 12 1 11
f 11 28 12
f 63 115 64
f 64 115 65
f 373 268 372
f 475 374 373
f 372 474 373
f 373 474 475
f 476 475 574
f 574 477 476
f 476 374 475
f 478 479 377
f 377 477 478
f 478 578 479
f 376 477 377
f 377 270 376
f 376 476 477
f 574 576 575
f 575 477 574
f 576 477 575
f 110 109 175
f 175 111 110
f 579 480 479
f 479 578 579
f 580 480 579
f 578 674 579
f 381 276 380
f 382 276 381
f 381 380 481
f 481 382 381
f 178 274 179
f 179 114 178
f 137 138 81
f 81 115 137
f 513 514 422
f 216 215 315
f 315 316 216
f 143 87 86
f 86 44 43
f 43 12 42
f 43 44 12
f 140 84 139
f 311 212 211
f 212 141 211
f 139 138 211
f 211 140 139
f 141 140 211
f 146 215 216
f 46 45 88
f 46 12 45
f 50 94 51
f 51 12 50
f 312 310 382
f 213 212 312
f 312 313 213
f 312 212 311
f 311 310 312
f 583 584 487
f 487 486 583
f 386 486 487
f 425 517 484
f 484 426 425
f 584 585 488
f 488 487 584
f 389 487 488
f 386 487 388
f 388 487 389
f 391 488 392
f 389 488 391
f 681 679 683
f 680 585 679
f 679 684 680
f 680 684 587
f 681 585 677
f 676 766 677
f 677 584 676
f 677 585 584
f 70 32 69
f 32 31 69
f 118 120 69
f 69 68 118
f 31 68 69
f 723 722 806
f 882 807 806
f 806 807 723
f 951 952 870
f 951 950 885
f 870 790 872
f 872 951 870
f 950 951 872
f 1059 1050 1052
f 1050 1028 1052
f 1026 1029 983
f 983 1029 981
f 981 1028 1018
f 1018 1028 1021
f 1046 1010 1011
f 1011 1048 1046
f 1047 1048 1011
f 1044 1046 1051
f 1044 1010 1046
f 1047 1056 1058
f 1059 1048 1058
f 1058 1048 1047
f 1058 1054 1059
f 1055 1054 1058
f 1058 1056 1055
f 1049 1054 1034
f 1021 1050 1049
f 1050 1060 1049
f 1049 1060 1054
f 924 995 996
f 996 995 1036
f 773 684 770
f 769 847 848
f 979 904 978
f 95 162 154
f 162 220 154
f 434 332 331
f 332 230 331
f 531 435 434
f 531 626 533
f 434 530 531
f 530 626 531
f 437 332 436
f 332 435 436
f 436 531 533
f 435 531 436
f 727 630 723
f 727 631 630
f 728 631 727
f 723 807 727
f 727 812 728
f 807 812 727
f 258 259 165
f 165 257 258
f 164 257 165
f 165 259 166
f 166 97 165
f 165 97 164
f 161 163 96
f 161 96 95
f 228 159 158
f 228 253 163
f 167 97 166
f 993 992 1033
f 342 236 235
f 566 567 461
f 461 460 566
f 566 460 565
f 461 567 462
f 462 356 461
f 357 356 462
f 751 833 834
f 348 240 239
f 659 658 754
f 241 240 351
f 240 350 351
f 916 988 989
f 956 955 957
f 988 1012 1030
f 989 988 1030
f 669 568 668
f 669 570 568
f 465 570 571
f 568 570 465
f 571 572 465
f 465 572 466
f 466 361 465
f 362 361 467
f 362 467 468
f 362 468 363
f 363 256 362
f 256 361 362
f 568 465 464
f 464 465 361
f 464 361 360
f 360 361 255
f 255 361 256
f 254 253 255
f 255 253 360
f 255 164 254
f 255 256 164
f 763 762 670
f 878 957 958
f 958 954 878
f 878 954 876
f 715 799 800
f 715 763 670
f 840 841 759
f 842 841 840
f 759 841 797
f 767 771 681
f 766 771 767
f 681 677 767
f 767 677 766
f 793 771 766
f 792 771 793
f 706 792 793
f 612 674 614
f 612 514 580
f 580 579 612
f 612 579 674
f 615 614 706
f 675 766 676
f 676 583 675
f 613 615 675
f 3 16 4
f 4 1 3
f 4 5 1
f 5 4 22
f 1 5 6
f 5 22 6
f 171 172 107
f 107 106 171
f 168 105 104
f 169 105 168
f 54 104 55
f 104 105 55
f 55 16 54
f 55 56 16
f 55 106 56
f 55 105 106
f 39 83 40
f 83 41 40
f 12 39 40
f 40 41 12
f 378 379 274
f 378 273 377
f 274 273 378
f 377 479 378
f 479 480 378
f 480 379 378
f 271 270 377
f 377 273 271
f 271 273 177
f 177 272 271
f 27 64 65
f 8 25 26
f 64 27 26
f 63 64 26
f 576 578 577
f 578 478 577
f 577 477 576
f 577 478 477
f 374 476 375
f 476 376 375
f 176 271 272
f 270 271 176
f 176 113 112
f 112 111 176
f 111 175 176
f 176 272 177
f 177 113 176
f 174 267 268
f 173 267 174
f 174 175 109
f 269 174 268
f 175 174 269
f 270 176 269
f 269 176 175
f 268 373 269
f 269 373 374
f 374 375 269
f 269 376 270
f 269 375 376
f 275 179 274
f 276 179 275
f 274 379 275
f 275 379 276
f 180 115 114
f 180 137 115
f 114 179 180
f 425 426 320
f 320 318 425
f 217 318 320
f 320 321 217
f 319 217 216
f 216 318 319
f 319 318 217
f 216 316 317
f 317 318 216
f 425 318 317
f 316 315 314
f 314 315 215
f 215 143 214
f 214 314 215
f 313 314 214
f 213 313 214
f 214 143 213
f 142 143 86
f 142 141 213
f 213 143 142
f 311 211 209
f 209 310 311
f 276 310 209
f 89 146 90
f 89 46 88
f 90 46 89
f 144 143 215
f 215 146 144
f 88 87 144
f 87 143 144
f 47 90 48
f 47 46 90
f 47 48 12
f 12 46 47
f 216 217 149
f 149 146 216
f 149 147 90
f 94 153 116
f 12 48 49
f 49 50 12
f 278 279 181
f 279 277 181
f 385 279 384
f 280 385 386
f 280 277 279
f 279 385 280
f 384 484 485
f 386 385 485
f 485 385 384
f 485 486 386
f 583 486 485
f 383 384 278
f 278 321 383
f 383 484 384
f 426 484 383
f 383 320 426
f 321 320 383
f 219 321 278
f 278 181 219
f 219 181 153
f 392 488 489
f 489 490 392
f 392 490 393
f 393 490 394
f 284 391 392
f 682 585 681
f 681 683 682
f 682 683 585
f 679 585 678
f 678 683 679
f 585 683 678
f 182 120 118
f 182 181 277
f 277 280 182
f 186 185 282
f 123 120 184
f 184 185 123
f 70 120 123
f 29 12 51
f 119 120 70
f 70 69 119
f 119 69 120
f 71 32 70
f 70 122 71
f 121 122 70
f 70 123 121
f 121 123 185
f 121 185 186
f 887 812 886
f 885 950 886
f 886 807 885
f 886 812 807
f 883 807 882
f 871 872 790
f 950 872 871
f 871 790 869
f 869 950 871
f 981 1029 1027
f 1029 1052 1027
f 1027 1028 981
f 1027 1052 1028
f 1059 1052 1053
f 1051 1048 1053
f 1053 1048 1059
f 1053 1029 1051
f 1053 1052 1029
f 1026 983 980
f 905 979 980
f 816 817 734
f 819 817 900
f 737 817 819
f 941 1011 1010
f 1025 1044 1051
f 1051 1026 1025
f 979 978 1025
f 1025 980 979
f 1026 980 1025
f 1045 1056 1047
f 1037 1036 1055
f 1037 996 1036
f 1055 1056 1037
f 774 773 853
f 686 773 774
f 774 775 686
f 774 853 778
f 778 775 774
f 924 996 997
f 770 845 851
f 851 773 770
f 851 845 769
f 588 489 587
f 490 489 588
f 492 394 491
f 394 490 491
f 686 687 589
f 589 588 686
f 490 588 589
f 397 394 492
f 397 395 394
f 492 398 397
f 292 398 399
f 965 978 966
f 966 978 904
f 829 904 905
f 734 636 733
f 733 816 734
f 731 733 636
f 813 733 731
f 162 230 231
f 231 232 162
f 333 230 332
f 244 245 162
f 328 229 330
f 253 228 328
f 157 158 95
f 461 356 355
f 355 460 461
f 246 356 247
f 246 247 162
f 162 245 246
f 245 355 246
f 246 355 356
f 162 247 248
f 247 356 248
f 248 356 357
f 162 250 251
f 251 323 222
f 533 627 534
f 534 436 533
f 158 229 227
f 227 228 158
f 229 328 227
f 227 328 228
f 163 161 160
f 160 228 163
f 159 228 160
f 95 159 160
f 160 161 95
f 52 97 98
f 97 167 98
f 1022 1033 992
f 974 975 902
f 903 822 902
f 831 822 903
f 750 823 831
f 823 822 831
f 818 817 737
f 737 736 818
f 734 817 818
f 445 342 339
f 237 236 344
f 665 566 565
f 565 564 665
f 521 462 567
f 567 620 521
f 523 521 620
f 832 751 750
f 833 751 832
f 750 831 832
f 832 831 833
f 834 836 835
f 835 751 834
f 836 751 835
f 913 836 834
f 239 238 347
f 347 348 239
f 349 350 240
f 240 348 349
f 349 348 350
f 559 658 659
f 560 559 659
f 836 913 838
f 838 913 843
f 843 761 838
f 458 565 459
f 458 564 565
f 459 353 458
f 955 956 877
f 877 957 878
f 877 956 957
f 1015 1012 960
f 1015 1030 1012
f 903 977 908
f 908 977 984
f 908 831 903
f 833 831 908
f 1023 977 989
f 1024 1030 984
f 984 977 1024
f 977 1023 1024
f 989 1030 1024
f 1024 1023 989
f 431 464 360
f 526 464 431
f 360 253 431
f 253 328 431
f 801 715 800
f 763 715 801
f 802 877 878
f 670 568 569
f 568 464 569
f 569 464 526
f 986 959 987
f 987 911 986
f 759 796 760
f 712 620 713
f 713 760 712
f 712 760 796
f 714 712 796
f 714 794 711
f 714 796 759
f 759 797 714
f 798 797 841
f 841 794 798
f 798 714 797
f 794 714 798
f 423 422 514
f 423 317 422
f 613 515 516
f 516 423 514
f 515 423 516
f 516 612 614
f 514 612 516
f 614 615 516
f 516 615 613
f 581 515 613
f 613 675 581
f 581 675 583
f 517 515 581
f 581 484 517
f 707 675 615
f 706 793 707
f 707 615 706
f 707 793 766
f 766 675 707
f 16 56 21
f 56 22 21
f 21 4 16
f 21 22 4
f 7 24 8
f 8 1 7
f 1 6 7
f 23 6 22
f 23 60 24
f 24 7 23
f 23 7 6
f 172 173 108
f 108 107 172
f 173 174 108
f 108 174 109
f 56 106 58
f 106 107 58
f 58 22 56
f 58 23 22
f 61 109 110
f 61 60 109
f 110 111 61
f 61 26 25
f 61 25 24
f 24 60 61
f 65 80 66
f 66 27 65
f 28 27 37
f 37 80 38
f 37 66 80
f 27 66 37
f 38 12 37
f 12 28 37
f 10 26 27
f 10 11 1
f 28 11 10
f 10 27 28
f 313 312 419
f 419 314 313
f 86 43 85
f 85 142 86
f 84 140 85
f 85 140 141
f 141 142 85
f 42 84 85
f 85 43 42
f 276 209 208
f 208 209 137
f 208 179 276
f 208 180 179
f 137 180 208
f 137 209 210
f 210 209 211
f 138 137 210
f 210 211 138
f 145 89 88
f 146 89 145
f 88 144 145
f 145 144 146
f 48 90 91
f 90 147 91
f 90 146 148
f 148 149 90
f 146 149 148
f 583 485 582
f 582 485 484
f 582 581 583
f 484 581 582
f 151 219 153
f 586 680 587
f 587 489 586
f 585 680 586
f 586 488 585
f 586 489 488
f 392 393 390
f 390 284 392
f 281 388 389
f 386 388 281
f 281 280 386
f 184 280 281
f 281 185 184
f 281 282 185
f 181 182 117
f 117 116 153
f 153 181 117
f 118 68 117
f 117 182 118
f 184 120 183
f 120 182 183
f 183 280 184
f 183 182 280
f 283 284 186
f 186 282 283
f 283 281 284
f 282 281 283
f 30 68 31
f 30 29 68
f 30 31 12
f 12 29 30
f 32 71 72
f 72 71 122
f 961 883 952
f 952 951 961
f 884 951 885
f 885 807 884
f 807 883 884
f 884 961 951
f 883 961 884
f 895 813 894
f 894 816 895
f 737 819 820
f 820 819 900
f 1019 1018 1021
f 896 816 894
f 894 897 896
f 817 816 896
f 896 897 817
f 598 500 596
f 598 692 599
f 596 500 499
f 689 777 692
f 689 598 596
f 692 598 689
f 492 589 591
f 591 589 687
f 776 775 688
f 688 687 776
f 686 775 776
f 776 687 686
f 690 775 778
f 778 779 690
f 688 775 690
f 492 591 592
f 592 687 688
f 592 591 687
f 494 403 399
f 494 497 403
f 608 704 609
f 702 608 607
f 301 409 306
f 1040 1045 1008
f 1011 941 1008
f 1047 1011 1008
f 1008 1045 1047
f 1040 1042 1057
f 1056 1045 1057
f 1057 1045 1040
f 1057 1037 1056
f 1042 1037 1057
f 924 997 925
f 925 847 924
f 925 848 847
f 998 925 997
f 996 1037 1038
f 1038 997 996
f 1039 997 1038
f 1038 1037 1042
f 1038 1041 1039
f 1042 1041 1038
f 850 851 769
f 773 851 852
f 852 858 853
f 853 773 852
f 685 588 587
f 587 684 685
f 684 773 685
f 685 773 686
f 686 588 685
f 492 491 590
f 590 491 490
f 590 589 492
f 490 589 590
f 187 121 186
f 532 534 627
f 437 436 532
f 436 534 532
f 965 966 891
f 891 966 904
f 646 645 647
f 645 644 743
f 644 643 743
f 336 440 337
f 338 445 339
f 338 337 440
f 814 892 813
f 905 980 906
f 906 980 983
f 906 983 981
f 968 897 894
f 540 440 538
f 549 632 537
f 537 632 540
f 540 538 537
f 233 341 336
f 232 335 233
f 336 337 233
f 162 232 233
f 233 338 339
f 337 338 233
f 232 231 334
f 334 333 332
f 334 231 230
f 230 333 334
f 332 438 334
f 334 335 232
f 334 438 335
f 162 242 243
f 243 244 162
f 242 353 243
f 243 353 244
f 323 251 359
f 223 322 221
f 222 323 223
f 156 157 95
f 226 229 158
f 158 157 226
f 245 244 354
f 354 355 245
f 244 353 354
f 354 353 459
f 459 460 354
f 460 355 354
f 249 250 162
f 162 248 249
f 249 248 357
f 222 220 252
f 252 251 222
f 252 220 162
f 162 251 252
f 971 1019 1021
f 971 972 897
f 976 975 989
f 989 977 976
f 976 977 903
f 903 902 976
f 976 902 975
f 917 992 918
f 918 846 917
f 846 916 917
f 917 916 989
f 739 738 737
f 750 740 739
f 740 640 739
f 739 640 738
f 739 823 750
f 739 822 823
f 638 736 737
f 737 738 638
f 738 640 638
f 974 902 901
f 901 820 900
f 901 902 822
f 822 820 901
f 750 751 655
f 236 342 343
f 343 344 236
f 342 344 343
f 345 238 237
f 237 344 345
f 567 566 666
f 566 665 666
f 666 620 567
f 713 620 666
f 429 521 522
f 522 523 429
f 521 523 522
f 912 913 834
f 843 913 912
f 834 911 912
f 759 761 839
f 839 761 842
f 839 840 759
f 842 840 839
f 842 761 844
f 844 761 843
f 844 911 842
f 843 912 844
f 844 912 911
f 658 559 558
f 559 560 454
f 454 558 559
f 350 348 455
f 348 454 455
f 455 454 560
f 658 555 657
f 657 754 658
f 657 753 754
f 752 751 836
f 836 753 752
f 753 657 752
f 837 753 836
f 836 838 837
f 754 753 837
f 837 838 754
f 352 353 242
f 352 242 241
f 241 351 352
f 457 458 353
f 661 564 563
f 564 458 563
f 458 457 563
f 880 879 955
f 955 877 880
f 874 794 841
f 874 795 794
f 875 795 874
f 960 959 1013
f 1013 959 986
f 985 1015 986
f 833 908 909
f 909 985 986
f 909 908 984
f 984 985 909
f 623 718 719
f 803 802 878
f 800 799 803
f 803 876 800
f 878 876 803
f 720 795 805
f 805 795 875
f 622 569 526
f 621 523 620
f 620 712 621
f 712 714 621
f 621 714 711
f 711 619 621
f 424 423 515
f 424 517 425
f 424 515 517
f 425 317 424
f 317 423 424
f 60 23 59
f 23 58 59
f 109 60 59
f 59 108 109
f 62 112 63
f 63 26 62
f 26 61 62
f 62 111 112
f 62 61 111
f 9 1 8
f 9 10 1
f 8 26 9
f 26 10 9
f 418 312 382
f 418 419 312
f 316 314 420
f 420 317 316
f 147 149 150
f 150 91 147
f 152 153 94
f 152 151 153
f 48 91 92
f 91 150 92
f 92 150 151
f 218 149 217
f 217 321 218
f 218 150 149
f 151 150 218
f 321 219 218
f 219 151 218
f 391 284 387
f 284 281 387
f 389 391 387
f 387 281 389
f 68 29 67
f 67 117 68
f 67 29 51
f 116 117 67
f 51 94 67
f 94 116 67
f 124 72 122
f 125 72 124
f 73 74 32
f 32 72 73
f 73 72 125
f 12 32 33
f 949 886 950
f 949 948 886
f 949 950 869
f 869 948 949
f 816 733 815
f 815 895 816
f 815 733 813
f 813 895 815
f 1018 1019 970
f 970 971 897
f 1019 971 970
f 817 897 898
f 897 972 898
f 596 499 597
f 688 690 597
f 597 689 596
f 692 777 781
f 777 856 781
f 855 856 777
f 778 858 857
f 857 779 778
f 857 859 779
f 1000 928 930
f 930 932 1000
f 930 857 932
f 859 857 930
f 779 859 780
f 493 398 492
f 497 494 493
f 399 398 493
f 493 494 399
f 595 592 688
f 688 597 595
f 595 597 499
f 595 499 497
f 497 592 595
f 701 704 703
f 703 702 701
f 704 608 703
f 608 702 703
f 701 702 606
f 606 702 607
f 408 301 303
f 408 409 301
f 869 790 788
f 788 787 869
f 788 790 701
f 699 787 788
f 868 948 869
f 869 787 868
f 886 948 868
f 786 866 863
f 503 601 512
f 12 33 34
f 403 497 498
f 497 499 498
f 502 505 410
f 410 505 506
f 1040 1008 1007
f 937 1001 1007
f 1007 1001 1040
f 938 1008 941
f 941 865 938
f 937 1007 938
f 938 1007 1008
f 1040 1001 999
f 999 1042 1040
f 999 1041 1042
f 932 998 1002
f 1000 932 1002
f 1002 997 1039
f 1002 998 997
f 769 848 849
f 849 850 769
f 848 850 849
f 926 850 848
f 851 850 926
f 848 925 926
f 926 925 851
f 858 852 927
f 927 852 851
f 851 925 927
f 394 395 285
f 395 396 285
f 284 390 285
f 186 284 285
f 285 393 394
f 285 390 393
f 288 396 290
f 121 187 188
f 122 121 188
f 190 125 188
f 188 289 190
f 188 124 122
f 125 124 188
f 830 829 905
f 830 747 829
f 905 906 830
f 892 814 827
f 827 830 892
f 747 830 827
f 808 725 724
f 808 724 728
f 728 812 808
f 808 812 887
f 724 725 628
f 629 532 628
f 628 627 724
f 628 532 627
f 746 747 645
f 645 743 746
f 445 338 444
f 443 444 338
f 443 544 545
f 545 444 443
f 543 544 440
f 440 542 543
f 543 542 544
f 813 731 732
f 732 814 813
f 981 1018 982
f 982 906 981
f 967 982 968
f 906 982 967
f 635 731 636
f 636 542 635
f 542 634 635
f 635 732 731
f 541 542 440
f 541 634 542
f 541 440 540
f 540 634 541
f 540 632 633
f 633 634 540
f 633 632 549
f 446 341 437
f 341 448 441
f 441 448 539
f 336 341 441
f 551 651 652
f 551 532 629
f 551 628 651
f 629 628 551
f 549 537 550
f 550 537 539
f 539 537 439
f 336 441 439
f 439 441 539
f 439 537 538
f 439 440 336
f 439 538 440
f 341 233 340
f 340 233 335
f 335 438 340
f 437 341 340
f 340 332 437
f 340 438 332
f 234 233 339
f 234 342 235
f 339 342 234
f 234 235 162
f 162 233 234
f 324 359 429
f 323 359 324
f 324 223 323
f 463 359 357
f 357 462 463
f 462 521 463
f 463 521 429
f 429 359 463
f 155 220 222
f 155 154 220
f 221 156 155
f 95 154 155
f 155 156 95
f 222 223 155
f 155 223 221
f 229 226 224
f 224 322 326
f 221 322 224
f 224 156 221
f 157 156 224
f 358 249 357
f 250 249 358
f 357 359 358
f 358 251 250
f 358 359 251
f 1033 1022 1020
f 1020 971 1021
f 1049 1033 1020
f 1021 1049 1020
f 973 1022 974
f 974 901 973
f 973 1020 1022
f 971 1020 973
f 991 975 974
f 974 1022 991
f 991 1022 992
f 992 917 991
f 989 975 990
f 990 917 989
f 975 991 990
f 990 991 917
f 821 820 822
f 822 739 821
f 737 820 821
f 821 739 737
f 736 638 735
f 735 636 734
f 734 818 735
f 735 818 736
f 545 544 639
f 544 638 639
f 639 640 545
f 639 638 640
f 641 553 545
f 545 640 641
f 641 640 740
f 450 344 342
f 555 556 450
f 450 451 344
f 556 451 450
f 555 553 654
f 654 655 555
f 664 665 564
f 664 666 665
f 713 666 664
f 664 760 713
f 663 664 564
f 663 761 759
f 663 758 761
f 759 760 663
f 760 664 663
f 758 663 662
f 662 564 661
f 662 663 564
f 757 662 661
f 761 758 757
f 758 662 757
f 346 347 238
f 238 345 346
f 451 452 346
f 346 345 344
f 344 451 346
f 348 347 346
f 346 452 348
f 555 655 656
f 656 657 555
f 656 752 657
f 656 655 751
f 751 752 656
f 561 455 560
f 353 352 456
f 456 457 353
f 456 351 350
f 456 352 351
f 350 455 456
f 455 561 456
f 708 619 711
f 711 794 708
f 794 795 708
f 875 874 915
f 915 987 959
f 915 874 841
f 1014 1015 960
f 960 1013 1014
f 986 1015 1032
f 1032 1013 986
f 1015 1014 1032
f 1032 1014 1013
f 1031 985 984
f 1015 985 1031
f 984 1030 1031
f 1030 1015 1031
f 986 911 910
f 910 909 986
f 910 911 834
f 834 833 910
f 833 909 910
f 429 523 524
f 523 621 524
f 524 621 619
f 429 524 519
f 519 524 619
f 326 322 427
f 322 428 427
f 720 623 710
f 710 623 616
f 616 623 527
f 802 718 804
f 877 802 804
f 804 880 877
f 879 880 804
f 804 805 879
f 715 622 717
f 799 715 717
f 717 803 799
f 717 718 802
f 802 803 717
f 525 622 526
f 528 622 525
f 433 528 525
f 525 431 433
f 526 431 525
f 382 482 483
f 483 482 513
f 151 152 93
f 93 92 151
f 93 152 94
f 93 49 48
f 48 92 93
f 94 50 93
f 50 49 93
f 129 73 128
f 74 73 129
f 128 130 129
f 130 74 129
f 32 74 75
f 75 33 32
f 74 34 75
f 75 34 33
f 856 855 929
f 931 856 929
f 928 999 929
f 929 999 1001
f 933 998 932
f 932 857 933
f 933 857 858
f 925 998 933
f 858 927 933
f 933 927 925
f 854 855 777
f 777 780 854
f 928 929 854
f 854 929 855
f 854 930 928
f 859 930 854
f 854 780 859
f 779 780 691
f 691 690 779
f 691 597 690
f 689 597 691
f 777 689 691
f 691 780 777
f 593 592 497
f 497 493 593
f 492 592 593
f 593 493 492
f 510 511 415
f 415 511 416
f 416 305 415
f 415 305 414
f 414 510 415
f 301 306 204
f 204 202 301
f 133 202 204
f 207 206 309
f 610 606 512
f 699 606 610
f 700 606 699
f 699 788 700
f 701 606 700
f 700 788 701
f 887 886 947
f 886 868 947
f 943 866 931
f 937 866 943
f 943 1001 937
f 931 929 943
f 943 929 1001
f 860 856 931
f 931 866 860
f 866 786 860
f 782 781 856
f 856 860 782
f 782 860 786
f 782 786 696
f 864 866 937
f 937 938 864
f 864 938 865
f 863 866 864
f 942 865 941
f 200 131 201
f 201 130 128
f 201 131 130
f 303 301 203
f 301 202 203
f 203 302 303
f 132 202 133
f 132 203 202
f 132 131 200
f 200 203 132
f 399 403 400
f 400 292 399
f 400 293 292
f 127 201 128
f 200 201 127
f 128 73 127
f 302 203 298
f 403 404 295
f 295 400 403
f 409 408 411
f 411 408 303
f 303 302 411
f 411 302 410
f 410 506 411
f 287 187 186
f 288 188 287
f 287 188 187
f 287 396 288
f 287 285 396
f 398 292 291
f 291 396 395
f 291 290 396
f 291 397 398
f 395 397 291
f 288 290 192
f 192 291 292
f 290 291 192
f 192 188 288
f 289 188 192
f 292 293 192
f 293 193 192
f 892 830 907
f 907 830 906
f 906 967 907
f 645 747 744
f 747 827 744
f 744 827 814
f 651 628 726
f 726 628 725
f 809 808 887
f 725 808 809
f 809 726 725
f 741 643 652
f 741 726 811
f 652 651 741
f 651 726 741
f 824 891 904
f 824 811 891
f 826 746 743
f 904 829 826
f 829 747 826
f 747 746 826
f 545 553 546
f 546 444 545
f 440 544 442
f 544 443 442
f 442 338 440
f 442 443 338
f 969 982 1018
f 968 982 969
f 897 968 969
f 1018 970 969
f 969 970 897
f 894 813 893
f 893 968 894
f 893 967 968
f 813 892 893
f 892 907 893
f 893 907 967
f 634 633 729
f 437 532 535
f 532 551 535
f 647 549 547
f 547 646 647
f 547 643 644
f 547 644 645
f 645 646 547
f 325 428 322
f 322 223 325
f 223 324 325
f 327 224 326
f 229 224 327
f 225 226 157
f 157 224 225
f 225 224 226
f 972 971 899
f 971 973 899
f 899 898 972
f 900 817 899
f 817 898 899
f 899 901 900
f 899 973 901
f 637 638 544
f 637 735 638
f 636 735 637
f 637 542 636
f 544 542 637
f 342 445 449
f 449 450 342
f 449 546 553
f 445 444 449
f 444 546 449
f 554 553 555
f 555 450 554
f 554 449 553
f 450 449 554
f 653 654 553
f 655 654 653
f 653 641 740
f 553 641 653
f 653 740 750
f 750 655 653
f 755 757 756
f 754 838 755
f 755 838 761
f 761 757 755
f 659 754 755
f 755 756 659
f 453 452 451
f 348 452 453
f 453 454 348
f 558 454 453
f 660 561 560
f 661 563 660
f 660 757 661
f 756 757 660
f 660 560 659
f 659 756 660
f 881 959 960
f 881 915 959
f 960 955 881
f 955 879 881
f 879 805 881
f 881 805 875
f 875 915 881
f 914 841 842
f 914 915 841
f 987 915 914
f 842 911 914
f 911 987 914
f 429 519 430
f 430 519 428
f 430 324 429
f 428 325 430
f 430 325 324
f 520 519 616
f 428 519 520
f 617 519 619
f 619 708 617
f 432 433 330
f 432 528 433
f 432 527 528
f 709 708 795
f 709 795 720
f 720 710 709
f 616 708 709
f 709 710 616
f 624 623 719
f 624 527 623
f 528 527 624
f 624 622 528
f 721 804 718
f 721 623 720
f 718 623 721
f 720 805 721
f 805 804 721
f 716 717 622
f 716 624 719
f 622 624 716
f 719 718 716
f 718 717 716
f 314 419 421
f 421 420 314
f 419 418 421
f 421 418 382
f 382 483 421
f 422 317 421
f 317 420 421
f 513 422 421
f 421 483 513
f 308 416 309
f 305 416 308
f 307 305 308
f 308 206 307
f 309 206 308
f 413 414 305
f 304 204 306
f 305 204 304
f 306 412 304
f 304 413 305
f 412 413 304
f 205 305 307
f 205 204 305
f 307 206 205
f 133 204 205
f 512 606 507
f 507 606 607
f 417 412 306
f 417 503 512
f 512 507 417
f 417 507 412
f 417 306 409
f 409 503 417
f 867 868 787
f 692 781 693
f 599 692 693
f 1017 978 965
f 1017 1025 978
f 965 891 964
f 705 787 699
f 699 610 705
f 863 864 784
f 696 786 784
f 784 786 863
f 601 503 603
f 77 78 34
f 133 78 77
f 77 132 133
f 131 132 77
f 79 78 135
f 206 207 135
f 35 36 12
f 12 34 35
f 79 36 35
f 35 78 79
f 34 78 35
f 196 195 198
f 194 193 293
f 194 295 195
f 200 127 199
f 199 203 200
f 199 298 203
f 199 127 198
f 198 298 199
f 198 195 296
f 296 295 198
f 195 295 296
f 293 400 294
f 400 295 294
f 294 194 293
f 295 194 294
f 186 285 286
f 286 287 186
f 285 287 286
f 810 809 889
f 726 809 810
f 811 726 810
f 742 743 643
f 811 824 742
f 643 741 742
f 742 741 811
f 904 826 825
f 825 826 743
f 825 824 904
f 743 742 825
f 825 742 824
f 732 635 730
f 730 729 732
f 730 635 634
f 634 729 730
f 647 645 648
f 648 549 647
f 648 649 549
f 437 535 536
f 536 446 437
f 548 547 549
f 642 552 551
f 642 547 552
f 642 551 652
f 652 643 642
f 643 547 642
f 557 453 451
f 558 453 557
f 658 558 557
f 557 555 658
f 557 556 555
f 557 451 556
f 562 456 561
f 561 660 562
f 562 660 563
f 562 563 457
f 457 456 562
f 518 427 428
f 428 520 518
f 518 520 616
f 518 432 427
f 616 527 518
f 527 432 518
f 618 708 616
f 618 617 708
f 616 519 618
f 519 617 618
f 329 432 330
f 427 432 329
f 330 229 329
f 229 327 329
f 326 427 329
f 329 327 326
f 414 413 509
f 609 510 509
f 510 414 509
f 509 608 609
f 607 608 508
f 508 413 412
f 608 509 508
f 508 509 413
f 508 507 607
f 412 507 508
f 133 205 134
f 134 205 206
f 134 78 133
f 206 135 134
f 134 135 78
f 694 782 696
f 696 603 694
f 605 506 505
f 605 604 506
f 605 694 604
f 505 600 605
f 605 600 599
f 599 693 605
f 409 411 504
f 504 503 409
f 504 411 506
f 506 604 504
f 942 1009 940
f 1044 1025 1006
f 1025 1017 1006
f 1006 1009 1010
f 1010 1044 1006
f 1016 964 1004
f 1016 1017 965
f 965 964 1016
f 791 867 787
f 787 705 791
f 611 705 610
f 512 601 611
f 611 610 512
f 695 705 611
f 76 77 34
f 131 77 76
f 130 131 76
f 76 74 130
f 76 34 74
f 79 135 136
f 136 135 207
f 198 127 197
f 197 196 198
f 126 73 125
f 126 192 193
f 193 194 126
f 196 197 126
f 195 196 126
f 126 194 195
f 126 127 73
f 126 197 127
f 407 502 410
f 407 406 502
f 410 302 407
f 302 298 407
f 405 499 500
f 405 295 404
f 405 498 499
f 405 404 403
f 403 498 405
f 501 598 599
f 500 598 501
f 599 600 501
f 501 405 500
f 495 405 501
f 501 600 505
f 814 732 748
f 732 729 748
f 729 749 748
f 650 749 729
f 650 748 749
f 649 648 650
f 549 649 650
f 650 633 549
f 650 729 633
f 447 536 535
f 551 552 447
f 447 535 551
f 446 536 447
f 539 448 447
f 447 550 539
f 549 550 447
f 447 448 341
f 341 446 447
f 447 548 549
f 552 547 447
f 547 548 447
f 868 867 944
f 944 946 868
f 887 947 888
f 888 809 887
f 888 947 868
f 868 946 888
f 889 809 888
f 1004 964 963
f 963 1003 1004
f 946 944 945
f 945 944 867
f 697 605 693
f 781 782 697
f 697 693 781
f 602 694 603
f 602 603 503
f 503 504 602
f 604 694 602
f 602 504 604
f 865 942 939
f 939 940 865
f 942 940 939
f 936 1006 1004
f 1004 1003 936
f 1003 934 936
f 1043 1016 1004
f 1017 1016 1043
f 1004 1006 1043
f 1043 1006 1017
f 783 705 695
f 783 791 705
f 189 126 125
f 189 125 190
f 190 289 189
f 406 300 299
f 295 402 299
f 299 402 406
f 198 295 299
f 299 300 198
f 297 298 198
f 297 407 298
f 198 300 297
f 297 300 406
f 406 407 297
f 295 405 401
f 401 405 495
f 401 402 295
f 495 402 401
f 406 402 496
f 496 402 495
f 502 406 496
f 496 495 502
f 505 502 594
f 594 501 505
f 502 495 594
f 495 501 594
f 828 744 814
f 814 748 828
f 828 748 744
f 745 648 645
f 745 650 648
f 645 744 745
f 744 748 745
f 748 650 745
f 891 811 890
f 890 964 891
f 890 963 964
f 889 963 890
f 890 810 889
f 811 810 890
f 946 945 962
f 889 888 962
f 962 888 946
f 962 963 889
f 1003 963 962
f 962 945 1003
f 867 791 873
f 873 945 867
f 698 697 782
f 605 697 698
f 782 694 698
f 694 605 698
f 1005 940 1009
f 1005 936 940
f 1009 1006 1005
f 1006 936 1005
f 865 940 935
f 940 936 935
f 865 935 862
f 862 936 934
f 862 935 936
f 192 126 191
f 126 189 191
f 289 192 191
f 191 189 289
f 953 934 1003
f 953 873 934
f 1003 945 953
f 945 873 953
f 865 862 785
f 785 862 783
f 785 864 865
f 785 784 864
f 695 784 785
f 785 783 695
f 934 873 861
f 861 862 934
f 783 862 861
f 791 783 861
f 861 873 791
f 52 14 57
f 14 20 57
f 1033 1049 1034
f 1034 993 1033
f 431 328 330
f 330 433 431
f 2 14 801
f 801 261 260
f 364 468 801
f 801 14 52
f 52 98 801
f 263 262 801
f 801 467 466
f 765 764 801
f 573 473 801
f 769 768 801
f 103 102 801
f 801 369 368
f 801 471 470
f 957 1012 801
f 801 266 263
f 988 916 801
f 260 169 801
f 801 15 2
f 801 671 573
f 473 472 801
f 258 257 801
f 801 365 364
f 466 572 801
f 801 259 258
f 801 772 765
f 801 262 261
f 368 367 801
f 801 104 103
f 470 469 801
f 672 671 801
f 801 764 672
f 366 365 801
f 801 572 571
f 468 467 801
f 801 846 769
f 668 762 801
f 801 768 772
f 801 367 266
f 801 102 53
f 53 15 801
f 800 876 801
f 801 469 369
f 801 472 471
f 801 257 366
f 166 259 801
f 801 168 104
f 801 1012 988
f 571 570 801
f 801 669 668
f 801 958 957
f 801 167 166
f 801 916 846
f 570 669 801
f 762 763 801
f 954 958 801
f 801 876 954
f 169 168 801
f 801 98 167
f 670 569 622
f 622 715 670
f 59 58 107
f 107 108 59
f 1000 1041 999
f 999 928 1000
f 1002 1041 1000
f 1039 1041 1002
f 1009 942 941
f 1009 941 1010
f 603 784 695
f 696 784 603
f 611 603 695
f 601 603 611
f 136 162 101
f 136 17 13
f 101 100 136
f 136 57 20
f 609 704 136
f 100 99 136
f 20 19 136
f 136 883 882
f 136 230 162
f 136 19 18
f 18 17 136
f 13 12 136
f 136 722 625
f 136 789 870
f 136 99 57
f 870 952 136
f 625 529 136
f 434 331 136
f 704 789 136
f 882 806 136
f 136 529 434
f 136 806 722
f 136 331 230
f 952 883 136
f 136 207 309
f 309 416 136
f 136 510 609
f 511 510 136
f 136 416 511
f 12 36 136
f 136 36 79
