v -0.052004 0.008596 0.023134
v -0.052004 0.003263 0.023134
v -0.052004 0.009012 0.022254
v -0.079277 0.012894 0.021651
v -0.080741 0.013074 0.021651
v -0.081206 0.013131 0.021651
v -0.082212 0.013252 0.021651
v -0.083754 0.013418 0.021651
v -0.085126 0.013522 0.021651
v -0.055323 0.008845 0.023134
v -0.052899 0.003214 0.023134
v -0.052004 0.003229 0.023126
v -0.062359 0.011366 0.020073
v -0.082212 0.014161 0.019743
v -0.079277 0.013301 0.020788
v -0.052004 0.008914 0.020800
v -0.056293 0.014521 0.001704
v -0.056293 0.014521 0.001741
v -0.056314 0.014494 0.003203
v -0.056374 0.014438 0.004665
v -0.056453 0.014371 0.006132
v -0.056520 0.014319 0.007107
v -0.056765 0.014244 0.008082
v -0.056403 0.012957 0.013158
v -0.056662 0.012799 0.014137
v -0.057295 0.012161 0.016393
v -0.056851 0.011320 0.018491
v -0.057828 0.011383 0.018648
v -0.081206 0.013549 0.020788
v -0.082212 0.013670 0.020788
v -0.083676 0.013835 0.020788
v -0.084575 0.014281 0.020036
v -0.086039 0.013529 0.021651
v -0.085556 0.014309 0.020094
v -0.055323 0.003093 0.023134
v -0.086629 0.013531 0.021651
v -0.087201 0.013393 0.021651
v -0.087631 0.013162 0.021651
v -0.088115 0.012092 0.021651
v -0.088292 0.010630 0.021651
v -0.056488 0.008382 0.001704
v -0.052004 0.004114 0.021647
v -0.067710 0.005954 -0.019066
v -0.068901 0.012599 0.019260
v -0.080741 0.014064 0.019516
v -0.082212 0.014468 0.019012
v -0.083676 0.014557 0.019210
v -0.083676 0.014242 0.019941
v -0.052004 0.008243 0.020404
v -0.055870 0.013556 0.001704
v -0.067710 0.011603 -0.019066
v -0.067710 0.011689 -0.018884
v -0.067710 0.012400 -0.017315
v -0.067710 0.012769 -0.016447
v -0.067710 0.013052 -0.015720
v -0.067710 0.013116 -0.015551
v -0.067710 0.013547 -0.014390
v -0.067710 0.013592 -0.014258
v -0.067710 0.014067 -0.012829
v -0.057270 0.014874 0.001704
v -0.057291 0.014883 0.001741
v -0.057291 0.014819 0.003203
v -0.057291 0.014697 0.004665
v -0.057291 0.014558 0.006132
v -0.057270 0.014394 0.007594
v -0.057742 0.014333 0.008557
v -0.057270 0.014145 0.009052
v -0.057291 0.013835 0.010531
v -0.057291 0.013506 0.011998
v -0.057209 0.013067 0.013572
v -0.057639 0.012883 0.014385
v -0.058762 0.012384 0.016393
v -0.057323 0.011598 0.017942
v -0.058762 0.012729 0.015364
v -0.058762 0.011829 0.017855
v -0.063933 0.012818 0.017107
v -0.069320 0.012882 0.018723
v -0.085098 0.014554 0.019458
v -0.085144 0.015185 0.017855
v -0.086206 0.014309 0.020094
v -0.087944 0.009156 0.021651
v -0.087461 0.008336 0.021651
v -0.087201 0.008280 0.021651
v -0.075016 0.005898 0.021651
v -0.074870 0.005871 0.021651
v -0.074881 0.005821 -0.019066
v -0.086661 0.014011 0.020664
v -0.087187 0.014281 0.020032
v -0.087532 0.014468 0.019057
v -0.087773 0.013372 0.020788
v -0.088196 0.013558 0.017855
v -0.088253 0.012092 0.020788
v -0.088306 0.012092 0.019322
v -0.088303 0.012093 -0.017323
v -0.088239 0.010630 -0.019066
v -0.056104 0.009165 0.001704
v -0.052004 0.004443 0.021230
v -0.055735 0.012090 0.001704
v -0.055774 0.010630 0.001704
v -0.081206 0.014401 0.018851
v -0.082212 0.014909 0.017855
v -0.083676 0.015080 0.017855
v -0.052004 0.007697 0.020135
v -0.055735 0.012124 0.001704
v -0.069021 0.011782 -0.019066
v -0.073829 0.012868 -0.018145
v -0.072852 0.012802 -0.018000
v -0.071949 0.012741 -0.017860
v -0.068378 0.012814 -0.016559
v -0.080670 0.014343 -0.016790
v -0.082212 0.014909 -0.015856
v -0.075528 0.014303 -0.015150
v -0.074551 0.014239 -0.014972
v -0.071292 0.014282 -0.013626
v -0.080670 0.015843 -0.012465
v -0.068172 0.014308 -0.012238
v -0.067710 0.014276 -0.012143
v -0.057291 0.014881 0.001704
v -0.058759 0.015098 0.001704
v -0.058759 0.015098 0.001741
v -0.058759 0.015028 0.003203
v -0.058759 0.014899 0.004665
v -0.058759 0.014755 0.006132
v -0.058759 0.014595 0.007598
v -0.068456 0.015733 0.008144
v -0.069437 0.015796 0.008561
v -0.060226 0.014558 0.009065
v -0.058837 0.014385 0.009052
v -0.058400 0.014242 0.009536
v -0.058759 0.013724 0.011998
v -0.058837 0.014103 0.010420
v -0.058759 0.013380 0.013266
v -0.058762 0.013328 0.013456
v -0.058762 0.012962 0.014633
v -0.059718 0.012793 0.015563
v -0.061694 0.012923 0.015951
v -0.061694 0.012671 0.016686
v -0.067554 0.013540 0.016393
v -0.069018 0.013731 0.016393
v -0.081206 0.014779 0.017855
v -0.079863 0.014309 0.018636
v -0.085144 0.015601 0.016645
v -0.086608 0.015850 0.015934
v -0.086608 0.015591 0.016665
v -0.086608 0.015152 0.017855
v -0.086661 0.014539 0.019458
v -0.088150 0.010307 -0.019066
v -0.087766 0.009331 -0.019066
v -0.086608 0.008736 -0.019066
v -0.076349 0.006144 -0.019066
v -0.075155 0.005880 -0.019066
v -0.087422 0.015813 0.015819
v -0.087717 0.014694 0.017855
v -0.088043 0.015023 0.014922
v -0.088203 0.015023 0.013460
v -0.088292 0.013558 0.016393
v -0.088306 0.013558 0.014922
v -0.088306 0.015023 0.006132
v -0.088303 0.015025 -0.008528
v -0.088292 0.013559 -0.014390
v -0.088250 0.012093 -0.018789
v -0.088260 0.011822 -0.019066
v -0.052004 0.004877 0.020780
v -0.052004 0.007239 0.020119
v -0.052004 0.006233 0.020127
v -0.077806 0.014863 0.016393
v -0.082212 0.015412 0.016393
v -0.083552 0.015587 0.016327
v -0.083953 0.015803 0.015794
v -0.080670 0.013363 -0.019066
v -0.082212 0.013700 -0.018789
v -0.082212 0.014170 -0.017748
v -0.082212 0.014457 -0.017017
v -0.083406 0.014242 -0.017934
v -0.083676 0.015081 -0.015856
v -0.083676 0.015563 -0.014522
v -0.082340 0.015496 -0.014250
v -0.080744 0.015243 -0.014390
v -0.079277 0.015053 -0.014390
v -0.082916 0.015760 -0.013667
v -0.081942 0.015698 -0.013465
v -0.078815 0.015724 -0.012068
v -0.079792 0.015785 -0.012283
v -0.082340 0.015907 -0.012952
v -0.082212 0.016323 -0.011457
v -0.067710 0.014465 -0.011507
v -0.067710 0.014862 -0.009991
v -0.067710 0.015198 -0.008528
v -0.067710 0.015231 -0.008371
v -0.067710 0.015489 -0.007062
v -0.067710 0.015695 -0.005769
v -0.067710 0.015757 -0.005377
v -0.067710 0.015796 -0.005108
v -0.067710 0.015902 -0.004199
v -0.067710 0.016052 -0.002667
v -0.060226 0.015280 0.001741
v -0.067710 0.016150 -0.001200
v -0.067710 0.016196 0.000266
v -0.067710 0.016197 0.000419
v -0.082212 0.017644 0.006132
v -0.068666 0.016317 0.001741
v -0.071942 0.016719 0.001741
v -0.076797 0.017257 0.002831
v -0.079778 0.017251 0.007132
v -0.081206 0.017378 0.007607
v -0.080197 0.017198 0.008111
v -0.081206 0.017261 0.008561
v -0.081206 0.017146 0.009259
v -0.070109 0.015713 0.009540
v -0.068666 0.015615 0.009057
v -0.071079 0.015772 0.009879
v -0.059377 0.014305 0.009858
v -0.071949 0.015673 0.010870
v -0.070478 0.015221 0.011994
v -0.070478 0.014889 0.013266
v -0.070471 0.014835 0.013456
v -0.068119 0.014309 0.014257
v -0.069018 0.014370 0.014447
v -0.070471 0.014233 0.015484
v -0.085144 0.015842 0.015914
v -0.085144 0.016159 0.014922
v -0.086608 0.016151 0.014922
v -0.086608 0.016541 0.013460
v -0.087422 0.017279 0.010040
v -0.087560 0.015936 0.014922
v -0.087724 0.016120 0.013460
v -0.087802 0.016295 0.011994
v -0.088004 0.016491 0.009065
v -0.088111 0.016491 0.007598
v -0.088278 0.015023 0.011994
v -0.088303 0.015023 0.010531
v -0.088306 0.015023 0.009065
v -0.088264 0.016491 0.001695
v -0.088260 0.016491 -0.001200
v -0.088285 0.015025 -0.009991
v -0.088214 0.015025 -0.011457
v -0.088218 0.013559 -0.015856
v -0.088210 0.012093 -0.019066
v -0.082212 0.015944 0.014765
v -0.082212 0.015705 0.015501
v -0.082983 0.015753 0.015645
v -0.083552 0.016000 0.015063
v -0.082212 0.013571 -0.019066
v -0.084383 0.014296 -0.018062
v -0.083772 0.013759 -0.019066
v -0.083808 0.013959 -0.018645
v -0.085144 0.015185 -0.015856
v -0.085144 0.015612 -0.014675
v -0.083676 0.015799 -0.013787
v -0.083676 0.016067 -0.012924
v -0.076772 0.015796 -0.010866
v -0.070485 0.014832 -0.011457
v -0.083676 0.016488 -0.011457
v -0.082212 0.016688 -0.009991
v -0.075794 0.015735 -0.010627
v -0.069021 0.015028 -0.009991
v -0.069021 0.015364 -0.008528
v -0.071082 0.015775 -0.007872
v -0.070109 0.015713 -0.007525
v -0.069476 0.015793 -0.006546
v -0.080670 0.017327 -0.005587
v -0.079654 0.017267 -0.005149
v -0.067888 0.015807 -0.005187
v -0.081853 0.017178 -0.007496
v -0.078676 0.017207 -0.004707
v -0.076349 0.016978 -0.004133
v -0.078271 0.017257 -0.003728
v -0.077294 0.017198 -0.003096
v -0.076946 0.017241 -0.002121
v -0.067710 0.016202 0.001695
v -0.069021 0.016311 -0.001200
v -0.069021 0.016357 0.000266
v -0.074881 0.017079 0.000266
v -0.083676 0.017805 0.006132
v -0.083676 0.017666 0.007598
v -0.082212 0.017501 0.007598
v -0.082212 0.017885 0.003203
v -0.082212 0.017971 0.001741
v -0.068982 0.016357 0.001704
v -0.071914 0.016716 0.001695
v -0.082283 0.017313 0.009048
v -0.082820 0.017241 0.009866
v -0.071942 0.015770 0.010411
v -0.076306 0.015933 0.012084
v -0.076342 0.016295 0.010527
v -0.076772 0.015796 0.012857
v -0.070471 0.014463 0.014749
v -0.083676 0.016482 0.013460
v -0.085144 0.016581 0.013460
v -0.086608 0.017149 0.010977
v -0.086608 0.017324 0.010246
v -0.086608 0.017537 0.009065
v -0.086608 0.017728 0.007598
v -0.087525 0.017361 0.009065
v -0.087628 0.017450 0.007598
v -0.087695 0.017527 0.006132
v -0.087748 0.017604 0.004670
v -0.088178 0.016491 0.006132
v -0.088225 0.016491 0.004670
v -0.088260 0.016491 0.003203
v -0.088264 0.016491 0.001741
v -0.087788 0.017691 0.001695
v -0.087788 0.017690 0.000266
v -0.087780 0.017672 -0.001200
v -0.088235 0.016491 -0.002667
v -0.088186 0.016491 -0.004133
v -0.088118 0.016491 -0.005595
v -0.088008 0.016491 -0.007066
v -0.087805 0.016314 -0.009991
v -0.087731 0.016141 -0.011457
v -0.088036 0.015025 -0.012924
v -0.087738 0.014711 -0.015856
v -0.087820 0.013117 -0.019066
v -0.082212 0.016307 0.013460
v -0.085144 0.014607 -0.017323
v -0.085144 0.013848 -0.019066
v -0.085144 0.014303 -0.018079
v -0.086608 0.015172 -0.015856
v -0.086050 0.014305 -0.018083
v -0.086608 0.015600 -0.014659
v -0.086608 0.015843 -0.013927
v -0.085144 0.015847 -0.013940
v -0.085144 0.016163 -0.012924
v -0.085144 0.016583 -0.011457
v -0.083676 0.016852 -0.009991
v -0.082287 0.017049 -0.008425
v -0.080670 0.016808 -0.008603
v -0.080670 0.016495 -0.009991
v -0.082827 0.017238 -0.007863
v -0.082212 0.017515 -0.005595
v -0.082212 0.017703 -0.004133
v -0.082287 0.017303 -0.007029
v -0.080670 0.017645 -0.002741
v -0.082212 0.017841 -0.002667
v -0.082212 0.017933 -0.001200
v -0.080670 0.017745 -0.001200
v -0.077813 0.017393 -0.001200
v -0.080670 0.017790 0.000266
v -0.083676 0.018045 0.003203
v -0.085144 0.018029 0.004670
v -0.085144 0.017905 0.006132
v -0.085144 0.017759 0.007598
v -0.083676 0.017463 0.009065
v -0.083676 0.018130 0.001741
v -0.082212 0.017977 0.000266
v -0.083676 0.018137 0.000266
v -0.083676 0.018131 0.001695
v -0.083676 0.017282 0.010064
v -0.083676 0.017116 0.010796
v -0.083676 0.016836 0.011994
v -0.082212 0.016661 0.011994
v -0.077813 0.016476 0.010527
v -0.085144 0.016940 0.011994
v -0.085144 0.017331 0.010279
v -0.085144 0.017556 0.009065
v -0.085144 0.017167 0.011010
v -0.086608 0.017879 0.006132
v -0.086608 0.018026 0.004670
v -0.086608 0.018146 0.003203
v -0.087780 0.017666 0.003203
v -0.087763 0.017703 0.001704
v -0.086608 0.018208 0.001704
v -0.086608 0.018204 0.000266
v -0.086608 0.018164 -0.001200
v -0.087752 0.017622 -0.002667
v -0.087706 0.017544 -0.004133
v -0.087638 0.017463 -0.005595
v -0.087528 0.017362 -0.007066
v -0.087557 0.015941 -0.012924
v -0.087418 0.017278 -0.008057
v -0.087560 0.014485 -0.017025
v -0.087770 0.013352 -0.018789
v -0.087404 0.015803 -0.013799
v -0.087731 0.013291 -0.019066
v -0.086576 0.013814 -0.019066
v -0.086565 0.014543 -0.017439
v -0.087027 0.014262 -0.018004
v -0.086608 0.016154 -0.012924
v -0.086608 0.016563 -0.011457
v -0.085144 0.016944 -0.009991
v -0.085144 0.017169 -0.009008
v -0.083676 0.017122 -0.008789
v -0.083676 0.017281 -0.008062
v -0.083676 0.017450 -0.007066
v -0.083676 0.017676 -0.005595
v -0.083676 0.017863 -0.004133
v -0.083676 0.018001 -0.002667
v -0.083676 0.018091 -0.001200
v -0.085144 0.018149 0.003203
v -0.085144 0.018229 0.001741
v -0.085144 0.018231 0.001704
v -0.085144 0.018231 0.000266
v -0.086608 0.018208 0.001741
v -0.085144 0.018185 -0.001200
v -0.085144 0.018084 -0.002667
v -0.086608 0.018060 -0.002667
v -0.086608 0.017906 -0.004133
v -0.086608 0.017742 -0.005595
v -0.086608 0.017537 -0.007066
v -0.086608 0.017324 -0.008260
v -0.086608 0.017156 -0.008991
v -0.086608 0.016918 -0.009991
v -0.085144 0.017328 -0.008276
v -0.085144 0.017547 -0.007066
v -0.085144 0.017765 -0.005595
v -0.085144 0.017940 -0.004133
f 12 35 43
f 43 35 86
f 149 82 148
f 85 86 35
f 12 2 11
f 35 12 11
f 41 12 43
f 43 96 41
f 17 3 16
f 24 3 23
f 1 3 4
f 9 10 1
f 82 149 150
f 35 82 83
f 38 39 10
f 90 39 38
f 38 89 90
f 35 10 40
f 10 39 40
f 93 40 92
f 92 40 39
f 12 41 42
f 42 41 96
f 23 3 22
f 3 21 22
f 50 51 17
f 50 104 51
f 17 16 50
f 99 96 43
f 99 163 96
f 164 104 103
f 29 6 5
f 5 4 29
f 5 6 1
f 1 4 5
f 145 80 79
f 36 80 87
f 79 78 47
f 47 78 32
f 36 10 33
f 10 9 33
f 34 9 32
f 32 78 34
f 34 33 9
f 79 80 34
f 34 78 79
f 34 80 36
f 36 33 34
f 1 6 7
f 82 150 151
f 86 83 151
f 151 83 82
f 86 85 84
f 84 83 86
f 84 85 35
f 35 83 84
f 37 10 36
f 37 38 10
f 81 82 35
f 35 40 81
f 148 82 81
f 96 163 97
f 97 42 96
f 62 22 21
f 62 19 61
f 60 61 17
f 278 277 203
f 121 203 200
f 200 203 277
f 207 275 281
f 304 363 364
f 394 364 392
f 392 364 363
f 278 347 344
f 344 347 391
f 95 81 40
f 94 40 93
f 162 95 94
f 94 95 40
f 98 99 43
f 98 104 164
f 163 99 165
f 165 98 164
f 99 98 165
f 49 50 16
f 104 50 49
f 49 103 104
f 80 145 146
f 32 31 48
f 48 47 32
f 29 4 15
f 15 4 3
f 46 45 77
f 8 7 31
f 32 9 8
f 8 31 32
f 8 9 1
f 1 7 8
f 89 38 88
f 38 37 88
f 36 87 88
f 88 37 36
f 88 152 89
f 88 87 80
f 80 146 88
f 145 152 88
f 88 146 145
f 158 94 93
f 91 39 90
f 91 92 39
f 18 3 17
f 18 19 3
f 17 61 18
f 61 19 18
f 123 64 122
f 121 200 122
f 124 64 123
f 124 123 205
f 20 62 21
f 19 62 20
f 20 21 3
f 3 19 20
f 63 64 22
f 22 62 63
f 63 122 64
f 63 62 121
f 121 122 63
f 130 70 69
f 69 24 23
f 351 284 282
f 130 212 213
f 212 283 213
f 89 152 153
f 90 89 153
f 153 91 90
f 154 91 153
f 255 186 251
f 251 186 252
f 186 255 187
f 276 200 275
f 276 275 207
f 274 200 277
f 275 200 274
f 295 358 359
f 304 364 365
f 364 366 365
f 396 366 364
f 202 203 121
f 278 203 202
f 202 280 278
f 197 119 195
f 266 267 194
f 194 265 266
f 261 330 262
f 262 192 261
f 148 81 147
f 81 95 147
f 174 243 245
f 31 7 30
f 30 48 31
f 14 45 46
f 46 47 14
f 47 48 14
f 29 15 14
f 14 30 29
f 48 30 14
f 14 15 3
f 3 13 14
f 240 166 239
f 240 167 166
f 102 47 46
f 79 47 102
f 102 142 79
f 3 26 27
f 75 76 27
f 76 77 27
f 74 26 71
f 70 133 71
f 25 26 3
f 3 24 25
f 70 71 25
f 25 71 26
f 24 69 25
f 25 69 70
f 72 76 75
f 72 26 74
f 101 102 46
f 101 139 166
f 76 139 101
f 166 167 101
f 167 102 101
f 46 77 100
f 100 77 76
f 100 101 46
f 297 359 360
f 154 153 226
f 204 122 200
f 204 276 205
f 200 276 204
f 205 123 204
f 123 122 204
f 64 124 65
f 23 22 65
f 22 64 65
f 206 124 205
f 125 124 206
f 207 125 206
f 205 276 206
f 206 276 207
f 132 70 130
f 132 133 70
f 285 283 282
f 285 213 283
f 284 213 285
f 288 242 239
f 79 142 143
f 17 51 52
f 52 53 17
f 111 55 110
f 57 58 17
f 58 57 114
f 188 257 258
f 259 190 258
f 259 260 190
f 190 260 191
f 260 192 191
f 193 265 194
f 339 274 277
f 339 277 278
f 278 344 339
f 207 281 208
f 208 281 282
f 126 125 207
f 207 208 126
f 303 363 304
f 393 361 360
f 360 359 393
f 299 360 300
f 300 230 299
f 374 377 375
f 371 377 374
f 373 377 371
f 94 158 159
f 305 304 306
f 304 365 306
f 177 178 111
f 177 114 178
f 397 396 406
f 406 398 397
f 397 398 370
f 394 387 395
f 406 396 395
f 395 364 394
f 395 396 364
f 406 395 386
f 386 395 387
f 121 62 120
f 120 62 61
f 61 119 120
f 194 267 268
f 268 195 194
f 198 119 197
f 174 245 246
f 167 240 241
f 239 242 241
f 241 240 239
f 142 102 169
f 169 241 242
f 44 77 45
f 44 14 13
f 45 14 44
f 74 71 134
f 134 71 133
f 73 27 26
f 26 72 73
f 75 27 73
f 73 72 75
f 76 72 137
f 141 100 76
f 101 100 141
f 156 157 93
f 93 92 156
f 92 91 156
f 229 228 295
f 154 226 155
f 155 91 154
f 228 229 155
f 155 229 230
f 155 156 91
f 230 156 155
f 225 153 152
f 225 226 153
f 314 288 239
f 284 351 314
f 130 213 214
f 214 213 284
f 133 132 215
f 215 132 130
f 130 214 215
f 239 166 219
f 219 287 239
f 166 139 219
f 130 69 131
f 69 129 131
f 131 212 130
f 131 129 212
f 68 129 69
f 67 129 68
f 68 69 23
f 23 67 68
f 66 65 124
f 23 65 66
f 66 124 125
f 125 126 66
f 66 67 23
f 66 129 67
f 212 129 211
f 282 283 211
f 211 283 212
f 282 284 352
f 352 285 282
f 284 285 352
f 282 281 343
f 343 281 275
f 224 225 152
f 226 225 224
f 144 152 145
f 144 143 152
f 144 145 79
f 79 143 144
f 220 143 142
f 142 169 220
f 111 110 173
f 173 174 111
f 173 172 174
f 173 109 172
f 110 109 173
f 53 109 54
f 54 55 17
f 17 53 54
f 54 110 55
f 54 109 110
f 17 55 56
f 56 57 17
f 57 56 113
f 113 114 57
f 58 114 59
f 17 58 59
f 59 60 17
f 256 187 255
f 255 257 256
f 258 190 189
f 189 188 258
f 187 188 118
f 186 187 118
f 188 189 118
f 60 59 118
f 118 189 190
f 190 191 118
f 118 191 192
f 192 193 118
f 61 60 118
f 118 193 194
f 194 195 118
f 118 119 61
f 118 195 119
f 192 262 263
f 263 193 192
f 263 262 265
f 265 193 263
f 360 361 302
f 361 303 302
f 302 300 360
f 301 300 302
f 234 304 305
f 234 303 304
f 362 303 361
f 361 393 362
f 363 303 362
f 362 392 363
f 230 300 231
f 231 156 230
f 231 301 232
f 231 300 301
f 232 157 231
f 157 156 231
f 316 375 319
f 319 375 377
f 111 174 175
f 373 371 312
f 94 159 160
f 236 237 160
f 366 396 367
f 379 373 370
f 251 252 182
f 182 252 186
f 331 262 330
f 265 262 331
f 267 266 331
f 331 266 265
f 331 268 267
f 197 195 269
f 195 268 269
f 278 280 338
f 338 345 278
f 346 392 391
f 391 347 346
f 346 347 278
f 278 345 346
f 280 202 279
f 202 270 279
f 279 338 280
f 270 338 279
f 201 202 121
f 201 270 202
f 196 120 119
f 270 201 196
f 121 120 196
f 196 201 121
f 168 102 167
f 167 241 168
f 168 169 102
f 241 169 168
f 28 27 77
f 77 44 28
f 28 44 13
f 28 13 3
f 3 27 28
f 138 139 76
f 76 137 138
f 138 219 139
f 76 101 140
f 140 141 76
f 101 141 140
f 298 297 360
f 298 229 297
f 298 360 299
f 299 230 298
f 230 229 298
f 296 229 295
f 297 229 296
f 295 359 296
f 359 297 296
f 228 155 227
f 227 155 226
f 286 214 284
f 286 215 214
f 284 314 286
f 286 314 239
f 74 134 135
f 134 219 135
f 135 72 74
f 129 66 128
f 127 126 210
f 127 66 126
f 127 128 66
f 129 128 127
f 210 126 209
f 209 126 208
f 209 127 210
f 209 208 282
f 282 211 209
f 209 211 129
f 129 127 209
f 353 288 350
f 350 349 353
f 282 349 350
f 350 351 282
f 350 314 351
f 288 314 350
f 391 393 390
f 390 393 359
f 390 344 391
f 274 339 340
f 294 358 295
f 295 228 294
f 228 227 294
f 226 224 294
f 294 227 226
f 355 342 292
f 223 224 152
f 152 143 222
f 222 223 152
f 289 288 353
f 223 222 289
f 221 169 242
f 221 220 169
f 242 288 221
f 288 289 221
f 143 220 221
f 221 222 143
f 221 289 222
f 105 52 51
f 106 105 170
f 52 105 106
f 178 114 179
f 179 113 178
f 114 113 179
f 112 56 55
f 112 113 56
f 112 55 111
f 111 178 112
f 178 113 112
f 186 118 117
f 117 118 59
f 117 182 186
f 303 234 233
f 301 302 233
f 233 302 303
f 233 234 159
f 233 159 158
f 174 246 244
f 244 245 316
f 244 246 245
f 244 175 174
f 247 175 244
f 247 319 318
f 318 377 373
f 176 177 111
f 111 175 176
f 313 238 237
f 237 312 313
f 161 238 162
f 237 238 161
f 161 160 237
f 162 94 161
f 94 160 161
f 311 237 236
f 311 312 237
f 373 312 369
f 370 373 369
f 236 160 235
f 235 160 159
f 305 306 235
f 235 234 305
f 159 234 235
f 309 367 368
f 368 367 396
f 368 397 370
f 396 397 368
f 308 367 309
f 308 309 236
f 250 322 323
f 370 398 399
f 405 398 406
f 406 386 405
f 405 399 398
f 404 399 405
f 324 325 253
f 250 323 253
f 253 323 324
f 114 181 115
f 115 59 114
f 115 182 183
f 388 387 394
f 273 338 270
f 197 269 271
f 271 273 272
f 345 338 335
f 335 388 346
f 335 346 345
f 269 334 335
f 335 334 387
f 387 388 335
f 270 196 199
f 199 198 272
f 119 198 199
f 199 196 119
f 272 273 199
f 199 273 270
f 133 215 216
f 216 217 133
f 216 286 239
f 215 286 216
f 218 134 133
f 133 217 218
f 218 219 134
f 287 219 218
f 239 287 218
f 218 216 239
f 217 216 218
f 136 135 219
f 136 138 137
f 219 138 136
f 136 137 72
f 72 135 136
f 353 349 356
f 348 349 282
f 282 343 348
f 348 356 349
f 354 356 348
f 348 343 355
f 355 354 348
f 274 340 341
f 341 342 275
f 275 274 341
f 358 342 341
f 341 340 358
f 389 340 339
f 389 339 344
f 344 390 389
f 389 390 359
f 291 354 355
f 355 292 291
f 291 356 354
f 291 292 224
f 353 356 291
f 293 292 342
f 224 292 293
f 293 294 224
f 171 170 243
f 171 106 170
f 172 106 171
f 171 243 174
f 174 172 171
f 108 109 53
f 172 109 108
f 53 52 108
f 183 182 116
f 182 117 116
f 116 115 183
f 116 117 59
f 59 115 116
f 316 319 317
f 317 244 316
f 320 318 373
f 376 319 377
f 377 318 376
f 376 318 319
f 177 176 180
f 114 177 180
f 180 181 114
f 248 175 247
f 248 176 175
f 247 318 248
f 318 320 248
f 374 313 372
f 372 313 312
f 372 371 374
f 372 312 371
f 312 311 310
f 310 369 312
f 236 309 310
f 310 311 236
f 370 369 310
f 310 368 370
f 309 368 310
f 307 308 236
f 236 235 307
f 307 235 306
f 307 365 366
f 307 306 365
f 366 367 307
f 367 308 307
f 385 405 386
f 404 405 385
f 386 331 385
f 385 331 330
f 400 399 404
f 370 399 400
f 324 379 380
f 380 325 324
f 380 381 325
f 258 326 329
f 329 259 258
f 329 385 330
f 329 254 325
f 326 254 329
f 182 115 185
f 251 182 185
f 250 253 185
f 185 255 251
f 185 254 255
f 333 269 268
f 333 334 269
f 331 334 333
f 268 331 333
f 338 273 336
f 336 335 338
f 269 335 336
f 353 291 290
f 290 289 353
f 223 289 290
f 224 223 290
f 290 291 224
f 357 342 358
f 357 293 342
f 358 294 357
f 294 293 357
f 107 106 172
f 172 108 107
f 52 106 107
f 107 108 52
f 247 244 315
f 244 317 315
f 315 319 247
f 315 317 319
f 321 323 322
f 322 248 321
f 321 248 320
f 321 320 373
f 250 180 249
f 249 180 176
f 249 322 250
f 184 115 181
f 181 180 184
f 184 185 115
f 184 180 250
f 250 185 184
f 328 254 258
f 255 254 328
f 258 257 328
f 328 257 255
f 327 326 258
f 258 254 327
f 327 254 326
f 402 380 379
f 402 379 370
f 401 400 381
f 381 380 401
f 380 402 401
f 370 400 401
f 401 402 370
f 264 330 261
f 261 192 264
f 264 192 260
f 260 259 264
f 259 329 264
f 404 385 384
f 385 329 384
f 383 384 329
f 404 384 383
f 273 271 337
f 337 336 273
f 337 271 269
f 269 336 337
f 323 321 378
f 378 379 324
f 324 323 378
f 373 379 378
f 378 321 373
f 332 329 330
f 330 264 332
f 332 264 329
f 382 329 325
f 382 383 329
f 325 381 382
f 381 383 382
f 404 383 403
f 403 383 381
f 403 400 404
f 381 400 403
f 11 10 35
f 1 10 11
f 11 2 1
f 43 51 98
f 51 104 98
f 1 2 49
f 49 2 12
f 49 3 1
f 12 42 49
f 49 97 163
f 49 16 3
f 164 103 49
f 49 165 164
f 42 97 49
f 163 165 49
f 30 7 6
f 30 6 29
f 157 232 158
f 157 158 93
f 355 343 342
f 342 343 275
f 257 188 256
f 256 188 187
f 362 393 391
f 391 392 362
f 158 232 233
f 232 301 233
f 313 51 43
f 43 86 313
f 313 149 148
f 148 147 313
f 86 151 313
f 316 245 313
f 313 150 149
f 313 105 51
f 313 151 150
f 313 95 162
f 313 375 316
f 313 147 95
f 313 245 243
f 374 375 313
f 243 170 313
f 162 238 313
f 170 105 313
f 392 346 388
f 394 392 388
f 334 331 386
f 334 386 387
f 272 198 271
f 271 198 197
f 358 340 389
f 389 359 358
f 325 254 185
f 185 253 325
f 176 248 249
f 249 248 322
