v -0.085476 -0.073910 -0.019066
v -0.085144 -0.073908 -0.019066
v -0.086455 -0.073886 -0.019066
v -0.086064 -0.073684 -0.019548
v -0.085144 -0.073684 -0.019548
v -0.083976 -0.073850 -0.019066
v -0.084385 -0.073678 -0.019532
v -0.086696 -0.073871 -0.019066
v -0.087041 -0.073654 -0.019490
v -0.086576 -0.073388 -0.020126
v -0.085144 -0.073340 -0.020281
v -0.083670 -0.073817 -0.019066
v -0.083408 -0.073624 -0.019420
v -0.083678 -0.072556 -0.021626
v -0.083809 -0.073336 -0.020117
v -0.087649 -0.073227 -0.019066
v -0.087772 -0.072743 -0.020261
v -0.087594 -0.072456 -0.021436
v -0.086942 -0.072176 -0.022413
v -0.086517 -0.072524 -0.021846
v -0.085964 -0.072215 -0.022469
v -0.085192 -0.072531 -0.021862
v -0.082933 -0.073731 -0.019066
v -0.082211 -0.073549 -0.019263
v -0.082211 -0.073074 -0.020261
v -0.084733 -0.072198 -0.022440
v -0.083678 -0.072153 -0.022359
v -0.082211 -0.072466 -0.021465
v -0.087852 -0.073040 -0.019066
v -0.088253 -0.071476 -0.020261
v -0.088208 -0.070009 -0.023193
v -0.087878 -0.071603 -0.021846
v -0.087727 -0.071216 -0.023193
v -0.087536 -0.070918 -0.024224
v -0.087389 -0.069313 -0.026910
v -0.086610 -0.071034 -0.024413
v -0.086517 -0.071835 -0.023052
v -0.085710 -0.072215 -0.022469
v -0.085144 -0.071053 -0.024428
v -0.082211 -0.073641 -0.019066
v -0.081907 -0.073600 -0.019066
v -0.079279 -0.072677 -0.020261
v -0.079225 -0.073237 -0.019066
v -0.080745 -0.073444 -0.019066
v -0.079279 -0.072269 -0.021102
v -0.078504 -0.072215 -0.021005
v -0.085192 -0.071863 -0.023052
v -0.083678 -0.071004 -0.024341
v -0.083678 -0.071680 -0.023193
v -0.082211 -0.072060 -0.022198
v -0.088295 -0.071476 -0.019066
v -0.088303 -0.070009 -0.021727
v -0.088287 -0.068544 -0.024659
v -0.088192 -0.067077 -0.027592
v -0.088078 -0.068544 -0.026125
v -0.087828 -0.070082 -0.024691
v -0.087600 -0.069579 -0.026125
v -0.086610 -0.069360 -0.026971
v -0.086610 -0.069934 -0.026125
v -0.086610 -0.070585 -0.025146
v -0.087512 -0.067971 -0.028538
v -0.086610 -0.067500 -0.029405
v -0.086610 -0.068076 -0.028672
v -0.086610 -0.068810 -0.027704
v -0.085144 -0.070595 -0.025161
v -0.072880 -0.072183 -0.019472
v -0.070388 -0.072037 -0.019066
v -0.079279 -0.071854 -0.021835
v -0.070486 -0.070501 -0.022032
v -0.069019 -0.070812 -0.021117
v -0.068201 -0.070754 -0.021014
v -0.068008 -0.070849 -0.020783
v -0.068008 -0.071087 -0.020321
v -0.069019 -0.071848 -0.019066
v -0.083678 -0.070535 -0.025074
v -0.082211 -0.070911 -0.024193
v -0.082211 -0.071495 -0.023193
v -0.087961 -0.069915 -0.019066
v -0.088243 -0.070009 -0.020261
v -0.088287 -0.051966 -0.039318
v -0.088299 -0.052417 -0.039318
v -0.088303 -0.056816 -0.036386
v -0.088303 -0.067077 -0.026125
v -0.088241 -0.065612 -0.029058
v -0.087830 -0.065659 -0.030560
v -0.087778 -0.067090 -0.029040
v -0.087663 -0.068493 -0.027475
v -0.085144 -0.069371 -0.026989
v -0.085144 -0.069957 -0.026125
v -0.087578 -0.066611 -0.030100
v -0.086610 -0.066768 -0.030282
v -0.085144 -0.067509 -0.029410
v -0.085144 -0.066774 -0.030291
v -0.085144 -0.068084 -0.028677
v -0.085144 -0.068817 -0.027722
v -0.083974 -0.069330 -0.026933
v -0.080745 -0.071289 -0.023193
v -0.079388 -0.071051 -0.023276
v -0.068008 -0.070361 -0.021660
v -0.068008 -0.070615 -0.021214
v -0.079951 -0.070752 -0.023940
v -0.078973 -0.070681 -0.023821
v -0.068008 -0.071706 -0.019066
v -0.082211 -0.070436 -0.024926
v -0.083562 -0.069728 -0.026267
v -0.082996 -0.069270 -0.026850
v -0.080745 -0.070808 -0.024029
v -0.087600 -0.069096 -0.019066
v -0.087989 -0.051966 -0.037848
v -0.088108 -0.052417 -0.037852
v -0.087977 -0.051966 -0.040849
v -0.088176 -0.053884 -0.039318
v -0.088275 -0.055349 -0.037852
v -0.088233 -0.059748 -0.034920
v -0.088253 -0.061215 -0.033454
v -0.088269 -0.062680 -0.031988
v -0.088257 -0.064145 -0.030522
v -0.087854 -0.064216 -0.032053
v -0.087600 -0.065202 -0.031609
v -0.086610 -0.064719 -0.032553
v -0.086610 -0.065395 -0.031820
v -0.086610 -0.066128 -0.031013
v -0.085144 -0.066138 -0.031022
v -0.083678 -0.067449 -0.029333
v -0.083678 -0.066714 -0.030221
v -0.083678 -0.068024 -0.028600
v -0.083562 -0.068858 -0.027488
v -0.068008 -0.069592 -0.022982
v -0.069766 -0.069274 -0.023922
v -0.068008 -0.069146 -0.023716
v -0.068008 -0.066074 -0.019066
v -0.082211 -0.069702 -0.026029
v -0.079279 -0.069487 -0.025706
v -0.073907 -0.067848 -0.026908
v -0.072929 -0.067773 -0.026807
v -0.068008 -0.067921 -0.025552
v -0.068008 -0.068523 -0.024659
v -0.082211 -0.067923 -0.028470
v -0.082211 -0.068591 -0.027592
v -0.087484 -0.069034 -0.019066
v -0.087582 -0.069047 -0.019093
v -0.087520 -0.051966 -0.036940
v -0.087570 -0.051966 -0.041730
v -0.087852 -0.052486 -0.040883
v -0.087695 -0.053884 -0.040459
v -0.087798 -0.055345 -0.039370
v -0.088168 -0.058283 -0.036386
v -0.087820 -0.061239 -0.034956
v -0.087850 -0.062738 -0.033519
v -0.087617 -0.063776 -0.033073
v -0.085144 -0.064729 -0.032566
v -0.086610 -0.063984 -0.033277
v -0.085144 -0.065404 -0.031833
v -0.083678 -0.066070 -0.030952
v -0.083678 -0.065337 -0.031764
v -0.082211 -0.066613 -0.030100
v -0.082211 -0.067346 -0.029203
v -0.071950 -0.068946 -0.024897
v -0.074610 -0.065674 -0.019066
v -0.068008 -0.052437 -0.033535
v -0.069019 -0.066736 -0.027361
v -0.068008 -0.066656 -0.027260
v -0.077815 -0.067582 -0.028031
v -0.068008 -0.067391 -0.026285
v -0.068008 -0.067758 -0.025780
v -0.071256 -0.066338 -0.028316
v -0.070486 -0.066278 -0.028239
v -0.069019 -0.066164 -0.028094
v -0.076348 -0.065969 -0.019066
v -0.086610 -0.051966 -0.036747
v -0.076076 -0.065911 -0.019066
v -0.074882 -0.065659 -0.019066
v -0.086610 -0.051966 -0.041957
v -0.087558 -0.052044 -0.041713
v -0.087500 -0.054851 -0.040188
v -0.087623 -0.056559 -0.038915
v -0.087687 -0.058283 -0.037572
v -0.087755 -0.059708 -0.036386
v -0.087596 -0.062287 -0.034492
v -0.087568 -0.060764 -0.035900
v -0.086610 -0.063219 -0.034010
v -0.083678 -0.064663 -0.032497
v -0.085144 -0.063995 -0.033286
v -0.083678 -0.063928 -0.033218
v -0.085144 -0.063234 -0.034019
v -0.082211 -0.065962 -0.030831
v -0.082211 -0.065230 -0.031642
v -0.080745 -0.066497 -0.029968
v -0.078637 -0.066330 -0.029773
v -0.068008 -0.051966 -0.034091
v -0.068008 -0.066085 -0.027993
v -0.085144 -0.051966 -0.041966
v -0.086610 -0.052243 -0.041818
v -0.086610 -0.052976 -0.041417
v -0.086610 -0.053884 -0.040914
v -0.086610 -0.055008 -0.040285
v -0.086610 -0.055740 -0.039838
v -0.087212 -0.057536 -0.038574
v -0.087484 -0.059192 -0.037245
v -0.086610 -0.060943 -0.036048
v -0.086610 -0.061677 -0.035411
v -0.086610 -0.062489 -0.034678
v -0.085144 -0.062504 -0.034698
v -0.082211 -0.064547 -0.032376
v -0.082211 -0.063814 -0.033109
v -0.083678 -0.063166 -0.033952
v -0.083678 -0.062435 -0.034638
v -0.080745 -0.065842 -0.030699
v -0.069534 -0.063449 -0.031293
v -0.079279 -0.064987 -0.031376
v -0.073416 -0.065165 -0.030107
v -0.069019 -0.064800 -0.029706
v -0.068008 -0.064717 -0.029611
v -0.068008 -0.065155 -0.029107
v -0.068008 -0.065352 -0.028878
v -0.068008 -0.051966 -0.039726
v -0.083928 -0.051966 -0.041892
v -0.085144 -0.052258 -0.041818
v -0.085144 -0.052991 -0.041435
v -0.085144 -0.053884 -0.040946
v -0.085144 -0.055023 -0.040298
v -0.085144 -0.055755 -0.039850
v -0.085144 -0.056816 -0.039141
v -0.086235 -0.057585 -0.038610
v -0.086678 -0.056954 -0.039016
v -0.086678 -0.058157 -0.038166
v -0.086610 -0.059312 -0.037337
v -0.086610 -0.060047 -0.036781
v -0.085144 -0.060960 -0.036054
v -0.085144 -0.061692 -0.035431
v -0.082211 -0.063050 -0.033842
v -0.080745 -0.062923 -0.033716
v -0.079279 -0.062792 -0.033593
v -0.079279 -0.063554 -0.032860
v -0.082211 -0.062319 -0.034530
v -0.083678 -0.061617 -0.035371
v -0.076348 -0.063297 -0.032609
v -0.068008 -0.062581 -0.031873
v -0.068556 -0.063365 -0.031205
v -0.068008 -0.063950 -0.030461
v -0.070378 -0.064377 -0.030423
v -0.068008 -0.064457 -0.029901
v -0.068008 -0.052381 -0.039502
v -0.074360 -0.053096 -0.040022
v -0.071370 -0.051966 -0.040199
v -0.083678 -0.051966 -0.041874
v -0.083678 -0.052177 -0.041769
v -0.083678 -0.052909 -0.041392
v -0.083678 -0.053884 -0.040845
v -0.083678 -0.054924 -0.040237
v -0.083678 -0.055659 -0.039791
v -0.083775 -0.056924 -0.038971
v -0.084327 -0.057564 -0.038594
v -0.085144 -0.057585 -0.038612
v -0.085144 -0.058320 -0.038088
v -0.085144 -0.059332 -0.037355
v -0.085144 -0.060064 -0.036787
v -0.083678 -0.060882 -0.035987
v -0.083678 -0.059989 -0.036720
v -0.078373 -0.061980 -0.034216
v -0.071950 -0.062175 -0.032938
v -0.068654 -0.061883 -0.032658
v -0.082211 -0.061490 -0.035263
v -0.082211 -0.060758 -0.035879
v -0.071950 -0.062908 -0.032232
v -0.068008 -0.062270 -0.032174
v -0.068008 -0.063316 -0.031156
v -0.068008 -0.053139 -0.039072
v -0.081311 -0.054658 -0.040076
v -0.075337 -0.053216 -0.040090
v -0.082211 -0.052733 -0.041302
v -0.071950 -0.052044 -0.040240
v -0.068008 -0.053558 -0.038832
v -0.069019 -0.053678 -0.038906
v -0.071950 -0.053884 -0.039202
v -0.074862 -0.053777 -0.039684
v -0.079279 -0.054417 -0.039930
v -0.082211 -0.052001 -0.041679
v -0.079702 -0.051966 -0.041349
v -0.082259 -0.051966 -0.041701
v -0.082211 -0.053884 -0.040657
v -0.082211 -0.054763 -0.040141
v -0.082211 -0.055498 -0.039695
v -0.082211 -0.056638 -0.038962
v -0.083350 -0.057482 -0.038538
v -0.083775 -0.058144 -0.038117
v -0.083678 -0.059256 -0.037303
v -0.082211 -0.059128 -0.037204
v -0.082211 -0.059860 -0.036613
v -0.069884 -0.060457 -0.034164
v -0.068008 -0.060839 -0.033508
v -0.068008 -0.061132 -0.033243
v -0.068008 -0.061825 -0.032602
v -0.071392 -0.058982 -0.035626
v -0.079794 -0.060524 -0.035689
v -0.068008 -0.054293 -0.038388
v -0.076348 -0.053337 -0.040161
v -0.068008 -0.054063 -0.038527
v -0.081965 -0.051966 -0.041661
v -0.076474 -0.055433 -0.038910
v -0.077044 -0.056090 -0.038590
v -0.077815 -0.056174 -0.038646
v -0.079279 -0.056329 -0.038751
v -0.082211 -0.057373 -0.038460
v -0.082211 -0.058283 -0.037812
v -0.081343 -0.059042 -0.037139
v -0.069019 -0.059641 -0.034703
v -0.069019 -0.060373 -0.034095
v -0.068008 -0.060277 -0.034012
v -0.068008 -0.057910 -0.035924
v -0.068008 -0.058414 -0.035532
v -0.068008 -0.058642 -0.035355
v -0.068008 -0.059263 -0.034850
v -0.068008 -0.059542 -0.034622
v -0.076066 -0.055977 -0.038518
v -0.068008 -0.055435 -0.037657
v -0.068008 -0.056166 -0.037177
v -0.069019 -0.056273 -0.037254
v -0.073416 -0.056739 -0.037585
v -0.068008 -0.056565 -0.036895
v -0.068008 -0.056814 -0.036718
v -0.080811 -0.058384 -0.037529
v -0.070486 -0.057162 -0.036843
v -0.068008 -0.057596 -0.036153
v -0.068008 -0.056101 -0.037220
f 30 51 52
f 131 160 159
f 159 160 172
f 170 160 190
f 170 142 172
f 172 160 170
f 52 83 53
f 53 30 52
f 31 30 53
f 93 91 123
f 31 53 54
f 51 78 79
f 80 51 79
f 17 30 31
f 172 142 171
f 142 169 171
f 140 142 141
f 140 169 142
f 72 73 46
f 39 21 36
f 61 35 57
f 31 54 55
f 55 54 86
f 84 54 53
f 84 53 83
f 86 54 85
f 85 84 118
f 54 84 85
f 192 193 173
f 174 193 175
f 143 173 174
f 174 173 193
f 125 93 123
f 110 109 80
f 80 79 110
f 110 79 78
f 78 109 110
f 142 109 108
f 141 142 108
f 108 109 78
f 108 140 141
f 19 35 36
f 28 45 25
f 25 45 46
f 7 11 14
f 47 39 26
f 77 49 76
f 75 76 48
f 76 49 48
f 26 39 48
f 48 49 26
f 87 61 57
f 86 61 87
f 57 55 87
f 87 55 86
f 123 91 122
f 122 153 123
f 93 125 92
f 105 106 75
f 112 146 147
f 178 148 147
f 147 148 114
f 112 147 113
f 113 147 114
f 117 83 116
f 117 84 83
f 116 118 117
f 118 84 117
f 90 61 86
f 86 85 90
f 91 61 90
f 90 122 91
f 143 174 145
f 145 146 112
f 145 174 175
f 182 151 184
f 204 187 182
f 175 199 176
f 176 145 175
f 146 145 176
f 178 199 180
f 180 148 178
f 181 180 202
f 9 16 17
f 51 30 29
f 30 17 29
f 17 16 29
f 72 46 71
f 74 67 46
f 74 73 103
f 74 46 73
f 215 191 189
f 136 137 106
f 104 76 75
f 75 106 104
f 36 21 37
f 37 19 36
f 21 19 37
f 7 6 2
f 22 11 21
f 26 14 22
f 22 14 11
f 28 14 27
f 26 49 27
f 27 14 26
f 28 25 15
f 15 14 28
f 7 14 15
f 21 39 38
f 39 47 38
f 38 47 26
f 26 22 38
f 38 22 21
f 35 61 62
f 62 63 35
f 62 61 91
f 91 93 62
f 93 92 62
f 95 63 94
f 36 35 60
f 35 59 60
f 60 39 36
f 89 60 59
f 58 89 59
f 58 59 35
f 114 148 149
f 149 115 114
f 150 118 149
f 149 118 116
f 116 115 149
f 112 113 81
f 80 111 81
f 81 111 112
f 52 51 81
f 81 51 80
f 56 55 57
f 31 55 56
f 56 33 31
f 32 17 31
f 31 33 32
f 32 33 17
f 17 33 18
f 18 9 17
f 19 9 18
f 119 90 85
f 119 118 150
f 119 85 118
f 150 120 119
f 120 90 119
f 121 90 120
f 122 90 121
f 153 122 121
f 121 151 153
f 120 151 121
f 144 111 143
f 143 145 144
f 112 111 144
f 144 145 112
f 216 244 245
f 251 221 250
f 221 249 250
f 281 250 249
f 220 249 221
f 221 196 220
f 193 219 220
f 218 193 192
f 218 219 193
f 195 196 175
f 195 220 196
f 222 221 251
f 252 222 251
f 310 294 306
f 209 187 204
f 237 238 209
f 155 182 187
f 123 153 155
f 177 199 178
f 177 176 199
f 146 176 177
f 178 147 177
f 177 147 146
f 200 199 228
f 200 180 199
f 179 181 150
f 180 181 179
f 148 180 179
f 150 149 179
f 179 149 148
f 152 151 120
f 152 120 150
f 150 181 152
f 184 151 183
f 151 152 183
f 16 9 8
f 21 11 20
f 20 19 21
f 20 9 19
f 72 71 100
f 100 69 99
f 68 69 46
f 68 77 97
f 97 77 101
f 189 213 214
f 214 215 189
f 129 137 130
f 130 101 129
f 129 101 104
f 161 162 134
f 139 134 106
f 106 138 139
f 139 138 134
f 5 2 1
f 5 11 7
f 7 2 5
f 7 15 13
f 13 15 25
f 42 25 46
f 49 77 50
f 50 27 49
f 28 27 50
f 50 45 28
f 77 68 50
f 46 45 50
f 50 68 46
f 95 94 96
f 96 127 106
f 106 105 96
f 96 105 75
f 75 48 65
f 65 48 39
f 65 96 75
f 89 96 65
f 39 60 65
f 60 89 65
f 64 63 95
f 35 63 64
f 64 58 35
f 89 58 88
f 95 96 88
f 88 96 89
f 88 64 95
f 58 64 88
f 82 83 52
f 52 81 82
f 116 83 82
f 82 81 113
f 82 115 116
f 114 115 82
f 82 113 114
f 34 18 33
f 34 56 57
f 33 56 34
f 57 35 34
f 35 19 34
f 19 18 34
f 278 245 271
f 272 244 271
f 271 245 272
f 272 245 244
f 243 244 216
f 297 281 271
f 247 278 271
f 175 193 194
f 194 195 175
f 193 220 194
f 220 195 194
f 198 199 175
f 228 199 198
f 257 256 287
f 228 256 257
f 257 200 228
f 224 198 225
f 284 303 304
f 284 252 251
f 285 284 304
f 252 284 285
f 223 222 253
f 222 252 253
f 287 256 253
f 252 285 253
f 287 285 288
f 311 294 310
f 311 312 294
f 189 157 188
f 188 157 156
f 154 155 187
f 154 156 125
f 154 125 123
f 123 155 154
f 202 180 201
f 180 200 201
f 293 262 292
f 292 262 260
f 184 206 205
f 205 209 204
f 205 182 184
f 204 182 205
f 4 5 1
f 11 5 4
f 70 71 46
f 70 100 71
f 46 69 70
f 69 100 70
f 98 68 97
f 69 68 98
f 97 101 98
f 98 101 69
f 107 77 76
f 107 101 77
f 76 104 107
f 104 101 107
f 128 101 130
f 106 137 133
f 133 129 104
f 135 164 165
f 106 134 135
f 162 164 135
f 134 162 135
f 165 136 135
f 135 136 106
f 138 157 166
f 166 157 189
f 125 156 124
f 156 157 124
f 124 92 125
f 124 157 138
f 124 94 92
f 134 138 163
f 163 161 134
f 12 13 23
f 12 6 7
f 7 13 12
f 40 23 24
f 23 13 24
f 24 13 25
f 25 42 24
f 43 44 24
f 24 42 43
f 67 43 66
f 43 42 66
f 46 67 66
f 66 42 46
f 245 278 279
f 268 273 244
f 244 243 268
f 251 250 283
f 283 284 251
f 303 284 283
f 271 244 270
f 270 297 271
f 280 278 246
f 278 247 246
f 248 247 271
f 271 281 248
f 248 281 249
f 248 220 219
f 249 220 248
f 219 218 248
f 218 247 248
f 225 198 197
f 175 196 197
f 197 198 175
f 197 196 221
f 221 222 197
f 197 224 225
f 197 222 223
f 223 224 197
f 259 257 287
f 287 288 259
f 227 256 228
f 227 224 256
f 228 198 227
f 316 315 296
f 223 253 254
f 254 224 223
f 286 285 287
f 287 253 286
f 286 253 285
f 304 322 305
f 305 322 306
f 306 288 305
f 305 285 304
f 305 288 285
f 266 262 293
f 238 262 266
f 265 238 237
f 237 262 265
f 265 262 238
f 294 314 307
f 294 312 313
f 313 314 294
f 267 240 239
f 239 240 209
f 239 238 267
f 239 209 238
f 212 213 189
f 186 154 187
f 156 154 186
f 186 188 156
f 189 188 186
f 202 201 203
f 203 181 202
f 291 292 260
f 237 209 234
f 209 205 234
f 205 233 234
f 234 262 237
f 231 205 206
f 3 4 1
f 3 8 9
f 102 128 99
f 101 128 102
f 99 69 102
f 69 101 102
f 137 129 158
f 158 133 137
f 129 133 158
f 132 104 106
f 106 133 132
f 132 133 104
f 189 191 168
f 168 163 138
f 161 163 168
f 127 96 126
f 126 124 138
f 126 96 94
f 94 124 126
f 106 127 126
f 126 138 106
f 40 24 41
f 41 24 44
f 299 278 280
f 299 279 278
f 297 270 282
f 281 297 282
f 250 281 282
f 282 283 250
f 217 246 247
f 217 218 192
f 217 247 218
f 207 203 230
f 230 201 200
f 230 203 201
f 260 231 235
f 235 206 207
f 235 231 206
f 198 224 226
f 226 227 198
f 224 227 226
f 283 296 300
f 244 273 274
f 325 315 316
f 325 317 315
f 315 317 301
f 283 300 301
f 301 296 315
f 301 300 296
f 321 322 304
f 255 253 256
f 255 254 253
f 256 224 255
f 224 254 255
f 213 212 242
f 189 186 208
f 208 186 187
f 207 206 185
f 185 203 207
f 184 183 185
f 185 206 184
f 181 203 185
f 185 152 181
f 185 183 152
f 262 234 261
f 261 234 233
f 260 262 261
f 261 233 260
f 232 233 205
f 205 231 232
f 260 233 232
f 232 231 260
f 10 3 9
f 4 3 10
f 9 20 10
f 10 20 11
f 11 4 10
f 167 166 189
f 189 168 167
f 138 166 167
f 167 168 138
f 257 259 229
f 200 257 229
f 229 230 200
f 260 235 263
f 294 307 295
f 295 264 294
f 289 306 294
f 294 264 289
f 289 288 306
f 289 259 288
f 289 264 259
f 298 274 273
f 296 274 298
f 275 276 244
f 244 274 275
f 275 274 296
f 304 303 302
f 302 301 304
f 303 283 302
f 283 301 302
f 320 321 304
f 306 322 323
f 323 321 306
f 322 321 323
f 310 306 324
f 306 321 324
f 211 212 189
f 189 208 211
f 187 209 210
f 210 208 187
f 210 211 208
f 290 263 264
f 264 295 290
f 260 263 290
f 290 295 307
f 290 291 260
f 236 235 207
f 236 263 235
f 207 230 236
f 264 263 236
f 230 229 236
f 276 275 277
f 244 276 277
f 304 301 319
f 319 320 304
f 209 240 241
f 241 210 209
f 211 210 241
f 240 242 241
f 241 242 212
f 212 211 241
f 309 291 308
f 291 290 308
f 308 314 309
f 308 307 314
f 308 290 307
f 258 229 259
f 258 236 229
f 259 264 258
f 264 236 258
f 283 282 269
f 269 296 283
f 269 282 270
f 269 275 296
f 269 277 275
f 269 270 244
f 244 277 269
f 317 320 318
f 320 319 318
f 318 301 317
f 318 319 301
f 63 62 94
f 94 62 92
f 151 182 155
f 153 151 155
f 191 162 168
f 162 161 168
f 41 103 131
f 51 29 41
f 41 108 78
f 41 159 172
f 41 78 51
f 172 171 41
f 131 159 41
f 6 12 41
f 41 171 169
f 169 140 41
f 140 108 41
f 41 74 103
f 41 23 40
f 1 2 41
f 41 29 16
f 67 74 41
f 41 2 6
f 41 3 1
f 41 43 67
f 16 8 41
f 41 44 43
f 41 12 23
f 8 3 41
f 217 111 80
f 217 170 190
f 217 190 216
f 80 109 217
f 192 173 217
f 142 170 217
f 217 109 142
f 217 173 143
f 143 111 217
f 217 299 280
f 216 245 217
f 245 279 217
f 280 246 217
f 279 299 217
f 324 73 72
f 324 160 131
f 216 190 324
f 324 243 216
f 131 103 324
f 190 160 324
f 191 215 324
f 103 73 324
f 324 214 213
f 309 314 324
f 324 136 165
f 316 296 324
f 267 238 324
f 324 313 312
f 165 164 324
f 130 137 324
f 324 240 267
f 72 100 324
f 137 136 324
f 324 162 191
f 273 268 324
f 324 325 316
f 324 311 310
f 324 100 99
f 215 214 324
f 324 164 162
f 324 128 130
f 312 311 324
f 324 266 293
f 324 320 317
f 293 292 324
f 99 128 324
f 324 268 243
f 213 242 324
f 324 291 309
f 238 266 324
f 314 313 324
f 292 291 324
f 317 325 324
f 324 298 273
f 324 242 240
f 296 298 324
f 321 320 324
