v -0.055322 -0.063867 0.021656
v -0.066306 -0.063867 0.021656
v -0.055322 -0.069648 0.021656
v -0.055322 -0.063867 0.021549
v -0.068611 -0.061121 -0.002249
v -0.075743 -0.065852 0.021656
v -0.069073 -0.061121 -0.002615
v -0.069761 -0.061121 -0.003345
v -0.055625 -0.069696 0.021656
v -0.055832 -0.070167 0.020787
v -0.055322 -0.069910 0.021134
v -0.055322 -0.064222 0.020763
v -0.055696 -0.065615 -0.018783
v -0.055706 -0.065344 -0.019066
v -0.055825 -0.064432 -0.019066
v -0.068611 -0.061121 -0.005824
v -0.076341 -0.065978 0.021656
v -0.069761 -0.061121 -0.003592
v -0.087699 -0.068741 0.021656
v -0.086605 -0.068376 0.021656
v -0.056223 -0.069787 0.021656
v -0.057291 -0.070441 0.020688
v -0.056797 -0.070712 0.019986
v -0.057298 -0.071694 0.017858
v -0.055322 -0.070016 0.020787
v -0.056491 -0.072263 0.015833
v -0.055322 -0.064323 0.020624
v -0.055700 -0.067083 -0.019066
v -0.055700 -0.065615 -0.019066
v -0.055322 -0.066052 0.018292
v -0.055322 -0.067081 0.017742
v -0.055322 -0.067199 0.017722
v -0.055322 -0.068549 0.017527
v -0.066852 -0.064432 -0.019066
v -0.068986 -0.061121 -0.005485
v -0.074872 -0.065663 -0.019066
v -0.076341 -0.065973 -0.019066
v -0.069719 -0.061121 -0.004321
v -0.087483 -0.069037 -0.019066
v -0.087912 -0.069175 0.021656
v -0.087593 -0.069101 -0.019066
v -0.057330 -0.069950 0.021656
v -0.058760 -0.070494 0.021003
v -0.061427 -0.070679 0.021389
v -0.058086 -0.070061 0.021656
v -0.057772 -0.070778 0.020130
v -0.069024 -0.072271 0.020193
v -0.078669 -0.073657 0.020018
v -0.057291 -0.071032 0.019428
v -0.058773 -0.071943 0.017754
v -0.058292 -0.072172 0.017028
v -0.057298 -0.072093 0.016813
v -0.055322 -0.070290 0.019855
v -0.057298 -0.072350 0.016080
v -0.057298 -0.072715 0.014928
v -0.057298 -0.073164 0.013461
v -0.056607 -0.073664 0.011229
v -0.055751 -0.068277 -0.019066
v -0.055322 -0.070009 0.017917
v -0.055322 -0.070036 0.017933
v -0.055700 -0.068549 -0.017320
v -0.088203 -0.070013 0.021656
v -0.087961 -0.069917 -0.019066
v -0.059613 -0.070282 0.021656
v -0.062402 -0.070746 0.021529
v -0.069024 -0.071926 0.020927
v -0.079247 -0.072946 0.021656
v -0.079644 -0.073719 0.020154
v -0.082207 -0.074405 0.019324
v -0.080742 -0.074215 0.019324
v -0.079205 -0.073963 0.019448
v -0.061695 -0.072100 0.018328
v -0.062728 -0.072167 0.018495
v -0.060229 -0.072002 0.018089
v -0.059271 -0.072236 0.017200
v -0.082207 -0.074928 0.018013
v -0.081413 -0.075145 0.017148
v -0.070406 -0.073933 0.016518
v -0.058773 -0.072421 0.016478
v -0.055322 -0.070270 0.019432
v -0.056449 -0.073766 0.010248
v -0.056326 -0.073881 0.009060
v -0.056226 -0.073995 0.007593
v -0.056181 -0.074074 0.006130
v -0.055796 -0.072942 0.007593
v -0.055748 -0.072942 0.006130
v -0.055722 -0.072942 0.004663
v -0.055709 -0.072942 0.003201
v -0.055709 -0.072939 -0.001196
v -0.058760 -0.072932 0.014928
v -0.058812 -0.073464 0.013234
v -0.057572 -0.073277 0.013234
v -0.057275 -0.073226 0.013234
v -0.057175 -0.073554 0.012014
v -0.057585 -0.073739 0.011540
v -0.057175 -0.073876 0.010655
v -0.057295 -0.074217 0.009060
v -0.057295 -0.074449 0.007593
v -0.055825 -0.068566 -0.019066
v -0.055764 -0.068549 -0.018783
v -0.055719 -0.072939 -0.002663
v -0.055706 -0.071472 -0.009990
v -0.055709 -0.070013 -0.014390
v -0.088290 -0.070613 0.021656
v -0.088303 -0.071476 -0.018783
v -0.088290 -0.071476 -0.019066
v -0.062280 -0.070662 0.021656
v -0.063087 -0.070774 0.021656
v -0.081591 -0.073235 0.021656
v -0.082207 -0.073881 0.020484
v -0.083673 -0.074574 0.019324
v -0.083673 -0.075012 0.018244
v -0.082207 -0.075194 0.017284
v -0.082207 -0.075490 0.016395
v -0.078159 -0.075187 0.015801
v -0.077180 -0.075125 0.015617
v -0.057295 -0.074609 0.006130
v -0.057295 -0.074747 0.004663
v -0.057295 -0.074866 0.003201
v -0.056152 -0.074141 0.004663
v -0.056139 -0.074199 0.003201
v -0.056132 -0.074229 0.001694
v -0.056132 -0.074227 0.000267
v -0.063471 -0.073729 0.014362
v -0.062496 -0.073664 0.014158
v -0.058441 -0.073625 0.012516
v -0.077723 -0.075369 0.015051
v -0.058760 -0.074128 0.010531
v -0.058760 -0.074442 0.009060
v -0.058760 -0.074669 0.007593
v -0.058760 -0.074833 0.006130
v -0.056177 -0.069552 -0.019066
v -0.055784 -0.070013 -0.015849
v -0.056197 -0.069743 -0.018783
v -0.056135 -0.074205 -0.001196
v -0.055742 -0.072939 -0.004126
v -0.055758 -0.071472 -0.011457
v -0.088303 -0.071472 0.020787
v -0.088258 -0.071472 0.021656
v -0.088300 -0.072942 -0.015853
v -0.088300 -0.074407 -0.011457
v -0.088303 -0.075872 -0.004126
v -0.088306 -0.075874 0.003201
v -0.088306 -0.074407 0.011994
v -0.087851 -0.073038 -0.019066
v -0.088229 -0.072942 -0.017320
v -0.082207 -0.073311 0.021656
v -0.083673 -0.073963 0.020656
v -0.085136 -0.074676 0.019324
v -0.085136 -0.075063 0.018380
v -0.083673 -0.075275 0.017511
v -0.083673 -0.075648 0.016395
v -0.083673 -0.076126 0.014928
v -0.082207 -0.075966 0.014928
v -0.079276 -0.075603 0.014928
v -0.070490 -0.074468 0.014928
v -0.058760 -0.074974 0.004663
v -0.058738 -0.075086 0.003336
v -0.058279 -0.075110 0.001734
v -0.057295 -0.074932 0.001734
v -0.056161 -0.074247 0.001698
v -0.056135 -0.074230 0.001734
v -0.057295 -0.074928 0.000267
v -0.057295 -0.074932 0.001698
v -0.071062 -0.075162 0.012803
v -0.070542 -0.075287 0.012034
v -0.068162 -0.075157 0.011324
v -0.067181 -0.075093 0.011053
v -0.065357 -0.075140 0.009798
v -0.060226 -0.074629 0.009060
v -0.063687 -0.075166 0.008474
v -0.062709 -0.075105 0.008044
v -0.074446 -0.076568 0.008012
v -0.062225 -0.075164 0.007067
v -0.061247 -0.075105 0.006497
v -0.059506 -0.075139 0.003914
v -0.056236 -0.069681 -0.019066
v -0.056216 -0.071131 -0.015849
v -0.055909 -0.071472 -0.012919
v -0.056378 -0.070914 -0.016957
v -0.057295 -0.074880 -0.001196
v -0.056148 -0.074160 -0.002663
v -0.056174 -0.074093 -0.004126
v -0.055793 -0.072939 -0.005593
v -0.055884 -0.072939 -0.007060
v -0.056190 -0.072623 -0.011457
v -0.088303 -0.074405 0.013461
v -0.088297 -0.072939 0.017858
v -0.088226 -0.072939 0.019324
v -0.088132 -0.072076 0.021656
v -0.088258 -0.074407 -0.012919
v -0.088261 -0.075872 -0.007060
v -0.088293 -0.075872 -0.005593
v -0.087951 -0.077338 0.000271
v -0.088306 -0.075874 0.004663
v -0.088303 -0.075874 0.006130
v -0.087648 -0.073226 -0.019066
v -0.087564 -0.073879 -0.018508
v -0.087745 -0.074136 -0.017320
v -0.088122 -0.074407 -0.014390
v -0.083673 -0.073475 0.021656
v -0.085136 -0.074019 0.020752
v -0.086605 -0.074653 0.019324
v -0.086605 -0.075048 0.018360
v -0.087241 -0.073674 0.021525
v -0.087338 -0.073674 0.021525
v -0.086605 -0.075314 0.017626
v -0.085136 -0.075322 0.017646
v -0.085136 -0.075742 0.016395
v -0.085136 -0.076220 0.014928
v -0.085136 -0.076533 0.013903
v -0.083673 -0.076484 0.013728
v -0.082253 -0.076418 0.013365
v -0.080742 -0.076203 0.013461
v -0.077813 -0.075835 0.013461
v -0.067555 -0.076180 0.003201
v -0.063161 -0.075640 0.003201
v -0.059216 -0.075174 0.002933
v -0.071007 -0.076632 0.002786
v -0.070839 -0.076654 0.001734
v -0.058279 -0.075110 0.001698
v -0.058292 -0.075107 0.000267
v -0.082378 -0.076471 0.013234
v -0.082772 -0.076629 0.012811
v -0.077810 -0.076207 0.011994
v -0.078895 -0.076563 0.011061
v -0.070487 -0.075630 0.010531
v -0.077067 -0.076607 0.009802
v -0.064372 -0.075080 0.009451
v -0.075430 -0.076629 0.008462
v -0.082207 -0.077372 0.009060
v -0.082207 -0.077574 0.007593
v -0.077810 -0.077034 0.007593
v -0.074910 -0.076681 0.007553
v -0.073977 -0.076627 0.007035
v -0.073002 -0.076566 0.006429
v -0.072634 -0.076612 0.005453
v -0.057343 -0.070218 -0.019066
v -0.056865 -0.070677 -0.017938
v -0.056339 -0.072409 -0.012919
v -0.056481 -0.072268 -0.013820
v -0.058486 -0.075080 -0.001196
v -0.057295 -0.074784 -0.002663
v -0.056226 -0.074003 -0.005593
v -0.056316 -0.073887 -0.007060
v -0.056436 -0.073773 -0.008240
v -0.088261 -0.074405 0.014928
v -0.088297 -0.075874 0.007593
v -0.088261 -0.075874 0.009060
v -0.088122 -0.074405 0.016395
v -0.087990 -0.072939 0.020787
v -0.087783 -0.072930 0.021656
v -0.088180 -0.075872 -0.008527
v -0.087780 -0.077073 -0.007060
v -0.087816 -0.077167 -0.005593
v -0.087932 -0.077338 -0.001196
v -0.087464 -0.078161 0.000271
v -0.087938 -0.077359 0.001694
v -0.087948 -0.077338 0.001694
v -0.086692 -0.073871 -0.019066
v -0.087480 -0.075250 -0.015431
v -0.087645 -0.075419 -0.014390
v -0.087777 -0.075650 -0.012919
v -0.088038 -0.075872 -0.009986
v -0.084816 -0.073551 0.021656
v -0.085136 -0.073570 0.021656
v -0.086046 -0.073590 0.021656
v -0.086266 -0.073667 0.021509
v -0.087470 -0.075243 0.017423
v -0.087121 -0.073605 0.021656
v -0.087506 -0.073830 0.020787
v -0.087199 -0.073605 0.021656
v -0.087412 -0.073509 0.021656
v -0.086605 -0.075737 0.016395
v -0.086605 -0.076198 0.014928
v -0.086605 -0.076511 0.013848
v -0.086605 -0.076698 0.013110
v -0.085139 -0.076698 0.013234
v -0.083673 -0.076674 0.012994
v -0.071866 -0.076701 0.003244
v -0.082847 -0.078083 0.002603
v -0.076338 -0.077327 0.001734
v -0.076338 -0.077248 0.003201
v -0.082676 -0.078105 0.000271
v -0.069047 -0.076434 0.001698
v -0.059025 -0.075197 0.000267
v -0.059222 -0.075172 -0.001196
v -0.083673 -0.076913 0.011994
v -0.083673 -0.077246 0.010531
v -0.082207 -0.077083 0.010531
v -0.082253 -0.076745 0.012034
v -0.079873 -0.076622 0.011324
v -0.077810 -0.076654 0.010017
v -0.077810 -0.076497 0.010746
v -0.083673 -0.077532 0.009060
v -0.083673 -0.077735 0.007593
v -0.082207 -0.077715 0.006130
v -0.079276 -0.077360 0.006130
v -0.076338 -0.077002 0.006130
v -0.058760 -0.070455 -0.019066
v -0.057333 -0.070408 -0.018675
v -0.057843 -0.070774 -0.018117
v -0.057295 -0.071652 -0.015849
v -0.057333 -0.071017 -0.017396
v -0.056617 -0.073659 -0.009212
v -0.057295 -0.073174 -0.011457
v -0.057295 -0.072737 -0.012919
v -0.057295 -0.072360 -0.014059
v -0.059393 -0.075149 -0.002057
v -0.058848 -0.075031 -0.002595
v -0.057295 -0.074646 -0.004126
v -0.057295 -0.074614 -0.004389
v -0.057295 -0.074461 -0.005593
v -0.057295 -0.074224 -0.007060
v -0.088177 -0.075874 0.010531
v -0.087912 -0.077338 0.003201
v -0.087809 -0.077158 0.007593
v -0.087780 -0.077069 0.009060
v -0.088022 -0.075874 0.011994
v -0.087783 -0.075647 0.014928
v -0.087641 -0.075423 0.016395
v -0.087745 -0.074136 0.019324
v -0.087612 -0.073238 0.021656
v -0.087699 -0.076940 -0.008527
v -0.087402 -0.078114 -0.002276
v -0.087451 -0.078147 -0.001196
v -0.086608 -0.078285 0.000271
v -0.086605 -0.078287 0.001698
v -0.086605 -0.078287 0.001734
v -0.087464 -0.078159 0.001734
v -0.086453 -0.073884 -0.019066
v -0.086573 -0.073945 -0.018915
v -0.086608 -0.074646 -0.017320
v -0.086608 -0.075325 -0.015626
v -0.086608 -0.075747 -0.014390
v -0.087428 -0.076669 -0.010974
v -0.086608 -0.075046 -0.016356
v -0.087564 -0.076783 -0.009986
v -0.087409 -0.076654 0.012923
v -0.087138 -0.076607 0.013234
v -0.086605 -0.076965 0.011994
v -0.085139 -0.076994 0.011994
v -0.083673 -0.078199 0.001734
v -0.082705 -0.078102 0.001734
v -0.083244 -0.078045 0.003583
v -0.083709 -0.078124 0.003137
v -0.083676 -0.078206 0.000271
v -0.082811 -0.078088 -0.000873
v -0.082976 -0.078070 -0.001850
v -0.071178 -0.076608 -0.001981
v -0.085139 -0.077337 0.010531
v -0.085139 -0.077624 0.009060
v -0.085139 -0.077814 0.007593
v -0.083673 -0.077873 0.006130
v -0.059264 -0.070526 -0.019066
v -0.058760 -0.070840 -0.018253
v -0.058760 -0.071267 -0.017320
v -0.058357 -0.072164 -0.015004
v -0.058809 -0.071938 -0.015738
v -0.057595 -0.073741 -0.009551
v -0.057182 -0.073551 -0.010022
v -0.057182 -0.073882 -0.008646
v -0.057362 -0.073822 -0.009041
v -0.058379 -0.073627 -0.010532
v -0.058760 -0.072956 -0.012919
v -0.058825 -0.073447 -0.011345
v -0.058809 -0.072429 -0.014466
v -0.076338 -0.077187 -0.002663
v -0.059771 -0.075103 -0.003034
v -0.058760 -0.074870 -0.004126
v -0.058760 -0.074678 -0.005593
v -0.058760 -0.074436 -0.007060
v -0.058760 -0.074138 -0.008527
v -0.087696 -0.076936 0.010531
v -0.087438 -0.078139 0.003201
v -0.087386 -0.078104 0.004209
v -0.087538 -0.076765 0.011994
v -0.086608 -0.078248 -0.001196
v -0.086608 -0.077589 -0.007060
v -0.087092 -0.078048 -0.003253
v -0.086605 -0.078141 -0.002723
v -0.085142 -0.078300 0.000271
v -0.085139 -0.078299 0.001698
v -0.086605 -0.078220 0.003201
v -0.085472 -0.073908 -0.019066
v -0.085142 -0.074668 -0.017320
v -0.085142 -0.075337 -0.015630
v -0.085142 -0.075769 -0.014390
v -0.086608 -0.076210 -0.012919
v -0.086608 -0.076521 -0.011899
v -0.086608 -0.076719 -0.011166
v -0.086608 -0.077002 -0.009986
v -0.086608 -0.077322 -0.008527
v -0.085142 -0.075051 -0.016363
v -0.086605 -0.077589 0.009060
v -0.086605 -0.077310 0.010531
v -0.085139 -0.078297 0.001734
v -0.083705 -0.078203 0.001698
v -0.083709 -0.078001 0.004643
v -0.084219 -0.078088 0.004141
v -0.085139 -0.078210 0.003201
v -0.085142 -0.078255 -0.001196
v -0.083547 -0.078146 -0.001296
v -0.084057 -0.078105 -0.002663
v -0.083324 -0.078035 -0.002663
v -0.082211 -0.077907 -0.002663
v -0.080871 -0.077744 -0.002663
v -0.086605 -0.077767 0.007593
v -0.086605 -0.078115 0.004345
v -0.080871 -0.073459 -0.019066
v -0.079647 -0.073721 -0.018157
v -0.060223 -0.071999 -0.016057
v -0.063710 -0.072229 -0.016647
v -0.078672 -0.073655 -0.018010
v -0.082211 -0.075201 -0.015279
v -0.080871 -0.074863 -0.015698
v -0.060223 -0.072286 -0.015323
v -0.074249 -0.073659 -0.016547
v -0.058825 -0.073802 -0.010022
v -0.068311 -0.075135 -0.009432
v -0.081768 -0.076568 -0.010560
v -0.082743 -0.076630 -0.010815
v -0.071052 -0.075160 -0.010799
v -0.059358 -0.073687 -0.010779
v -0.080871 -0.075798 -0.012919
v -0.065605 -0.073642 -0.013549
v -0.074872 -0.075196 -0.012369
v -0.081410 -0.075147 -0.015144
v -0.066584 -0.073702 -0.013741
v -0.082211 -0.077771 -0.004126
v -0.080871 -0.077606 -0.004126
v -0.072515 -0.076625 -0.003596
v -0.060749 -0.075164 -0.003652
v -0.061401 -0.075171 -0.004389
v -0.061156 -0.075113 -0.004628
v -0.062131 -0.075176 -0.005091
v -0.077070 -0.076603 -0.007793
v -0.065363 -0.075139 -0.007789
v -0.086114 -0.078088 -0.003540
v -0.085142 -0.078161 -0.002663
v -0.085142 -0.077616 -0.007060
v -0.085142 -0.077836 -0.005593
v -0.086608 -0.077794 -0.005593
v -0.085142 -0.073908 -0.019066
v -0.085142 -0.074032 -0.018783
v -0.083676 -0.074574 -0.017320
v -0.083973 -0.073849 -0.019066
v -0.083676 -0.075287 -0.015502
v -0.083676 -0.075002 -0.016236
v -0.083676 -0.075670 -0.014390
v -0.083676 -0.076134 -0.012919
v -0.085142 -0.076232 -0.012919
v -0.085142 -0.076533 -0.011915
v -0.085142 -0.076728 -0.011182
v -0.085142 -0.077017 -0.009986
v -0.085142 -0.077343 -0.008527
v -0.084400 -0.078073 -0.003405
v -0.083812 -0.077957 -0.003987
v -0.082211 -0.073640 -0.019066
v -0.082211 -0.073892 -0.018524
v -0.082211 -0.074402 -0.017320
v -0.080871 -0.074225 -0.017320
v -0.082211 -0.075502 -0.014390
v -0.080871 -0.076679 -0.009591
v -0.082240 -0.076748 -0.010037
v -0.083676 -0.076677 -0.011002
v -0.083676 -0.076484 -0.011732
v -0.082240 -0.076418 -0.011365
v -0.080871 -0.076223 -0.011449
v -0.082211 -0.077084 -0.008527
v -0.083676 -0.077248 -0.008527
v -0.083676 -0.076920 -0.009986
v -0.074097 -0.075145 -0.012206
v -0.082211 -0.075968 -0.012919
v -0.077222 -0.075118 -0.013593
v -0.083676 -0.077744 -0.005593
v -0.082211 -0.077582 -0.005593
v -0.073897 -0.076635 -0.005055
v -0.072915 -0.076575 -0.004576
v -0.080871 -0.077190 -0.007060
v -0.079702 -0.076657 -0.009041
v -0.082211 -0.077355 -0.007060
v -0.085142 -0.078085 -0.003508
v -0.085142 -0.078008 -0.004246
v -0.083676 -0.077517 -0.007060
v -0.083802 -0.073919 -0.018871
v -0.083667 -0.073817 -0.019066
v -0.082931 -0.073729 -0.019066
f 1 5 2
f 7 2 5
f 15 4 14
f 41 19 39
f 19 18 39
f 16 15 34
f 34 36 16
f 16 36 37
f 4 15 16
f 19 20 8
f 8 18 19
f 8 20 17
f 17 6 8
f 8 6 2
f 2 7 8
f 37 39 35
f 35 16 37
f 38 39 18
f 38 35 39
f 187 196 248
f 105 142 143
f 486 487 460
f 198 260 261
f 261 260 333
f 101 102 60
f 89 123 101
f 134 100 133
f 376 374 318
f 376 318 375
f 375 318 317
f 376 409 408
f 206 272 273
f 138 139 104
f 104 105 138
f 62 105 104
f 40 19 41
f 144 187 138
f 143 195 144
f 144 195 196
f 196 187 144
f 144 105 143
f 138 105 144
f 330 375 316
f 316 375 317
f 143 142 194
f 194 195 143
f 196 195 194
f 194 256 257
f 255 254 325
f 198 145 197
f 197 260 198
f 199 145 198
f 198 261 199
f 262 199 261
f 240 186 246
f 60 102 103
f 103 61 60
f 133 100 103
f 100 61 103
f 58 61 100
f 58 100 99
f 164 163 123
f 99 100 132
f 100 134 132
f 239 241 303
f 460 487 488
f 488 459 460
f 302 300 238
f 33 59 28
f 61 58 28
f 28 59 60
f 60 61 28
f 81 98 82
f 82 53 81
f 330 257 329
f 329 375 330
f 376 375 329
f 249 187 248
f 317 318 249
f 248 316 249
f 249 316 317
f 346 399 400
f 346 281 345
f 345 399 346
f 299 235 298
f 299 236 235
f 201 265 202
f 202 265 266
f 149 205 206
f 202 205 149
f 321 339 269
f 248 196 259
f 196 194 259
f 259 316 248
f 326 255 325
f 256 255 326
f 257 256 326
f 63 106 105
f 63 105 62
f 62 40 63
f 63 40 41
f 254 255 192
f 192 255 256
f 487 486 447
f 445 385 444
f 444 447 445
f 146 106 145
f 145 199 146
f 246 186 245
f 311 245 244
f 178 240 241
f 178 134 133
f 133 179 178
f 178 179 186
f 186 240 178
f 183 182 181
f 89 53 88
f 88 53 87
f 85 53 84
f 89 101 80
f 80 53 89
f 80 101 60
f 239 238 177
f 177 132 134
f 305 240 246
f 241 240 305
f 246 314 305
f 446 486 460
f 460 461 446
f 446 447 486
f 336 262 261
f 301 238 239
f 239 302 301
f 301 302 238
f 239 303 304
f 304 302 239
f 304 303 359
f 355 300 356
f 300 302 356
f 33 28 13
f 30 31 13
f 13 27 30
f 12 27 13
f 4 12 13
f 14 4 13
f 42 22 21
f 10 22 23
f 221 220 285
f 159 220 221
f 163 164 221
f 57 98 81
f 81 53 57
f 53 26 57
f 161 121 160
f 160 164 161
f 161 164 123
f 160 121 120
f 120 85 84
f 160 120 119
f 119 120 84
f 119 159 160
f 117 82 98
f 98 131 117
f 83 119 84
f 118 119 83
f 84 53 83
f 53 82 83
f 83 117 118
f 82 117 83
f 384 409 376
f 376 329 384
f 383 329 382
f 383 384 329
f 392 336 391
f 393 336 392
f 282 281 344
f 219 220 159
f 281 282 219
f 219 282 220
f 281 219 283
f 283 219 280
f 297 345 281
f 297 283 298
f 281 283 297
f 409 384 353
f 353 408 409
f 377 374 376
f 377 339 321
f 237 299 298
f 298 283 237
f 237 283 280
f 236 299 237
f 235 236 175
f 322 323 252
f 322 250 321
f 321 269 322
f 189 139 138
f 315 318 374
f 315 249 318
f 321 250 320
f 374 377 320
f 320 377 321
f 202 266 267
f 203 149 206
f 207 269 274
f 277 276 340
f 340 339 277
f 24 10 23
f 71 75 72
f 330 316 258
f 316 259 258
f 258 259 194
f 258 257 330
f 258 194 257
f 378 326 325
f 378 402 382
f 257 326 327
f 326 378 327
f 327 378 382
f 193 192 256
f 193 194 142
f 256 194 193
f 331 385 333
f 200 146 199
f 200 262 263
f 199 262 200
f 105 106 140
f 106 146 140
f 123 163 135
f 135 101 123
f 163 181 135
f 135 181 182
f 183 244 184
f 313 314 246
f 246 245 313
f 243 181 242
f 311 244 243
f 243 244 183
f 183 181 243
f 3 10 11
f 11 24 26
f 10 24 11
f 134 178 180
f 180 177 134
f 180 178 241
f 180 241 239
f 239 177 180
f 241 305 306
f 359 303 358
f 462 414 413
f 461 414 462
f 459 410 411
f 460 459 411
f 411 461 460
f 411 414 461
f 411 410 355
f 355 356 411
f 386 445 447
f 447 446 386
f 333 385 386
f 385 445 386
f 325 254 324
f 359 413 412
f 357 356 302
f 302 304 357
f 413 414 357
f 357 412 413
f 414 411 357
f 357 411 356
f 357 304 359
f 359 412 357
f 33 13 32
f 32 13 31
f 14 13 29
f 29 13 28
f 9 10 3
f 9 21 22
f 22 10 9
f 23 22 44
f 126 128 95
f 56 57 26
f 122 161 123
f 122 123 89
f 89 88 122
f 87 121 122
f 122 88 87
f 85 120 86
f 87 53 86
f 53 85 86
f 86 121 87
f 86 120 121
f 218 219 159
f 384 383 397
f 455 392 391
f 222 181 163
f 242 181 222
f 163 221 222
f 221 286 222
f 399 345 354
f 345 297 354
f 354 297 296
f 354 400 399
f 354 353 400
f 296 353 354
f 400 353 401
f 401 353 384
f 384 397 401
f 346 400 401
f 401 397 346
f 408 353 395
f 376 408 395
f 395 396 339
f 395 377 376
f 339 377 395
f 98 57 97
f 97 129 98
f 128 129 96
f 96 95 128
f 57 95 96
f 96 97 57
f 129 97 96
f 169 128 168
f 169 129 128
f 216 237 280
f 280 219 216
f 216 218 217
f 219 218 216
f 217 218 158
f 158 216 217
f 158 119 118
f 159 119 158
f 158 218 159
f 236 237 176
f 176 175 236
f 131 175 176
f 237 216 176
f 216 158 176
f 130 175 131
f 130 131 98
f 98 129 130
f 130 129 171
f 323 322 271
f 273 323 271
f 206 273 271
f 271 269 206
f 271 322 269
f 139 189 190
f 250 189 247
f 247 315 250
f 187 249 247
f 249 315 247
f 250 315 319
f 319 320 250
f 319 315 374
f 374 320 319
f 147 201 148
f 148 110 147
f 148 201 202
f 202 149 148
f 205 267 270
f 268 205 202
f 202 267 268
f 268 267 205
f 149 203 204
f 204 203 206
f 206 269 204
f 204 269 207
f 340 276 275
f 275 339 340
f 275 269 339
f 275 274 269
f 339 396 341
f 341 277 339
f 72 75 74
f 52 24 51
f 26 24 52
f 72 74 49
f 49 24 23
f 75 71 70
f 51 78 79
f 342 341 396
f 126 165 166
f 439 443 442
f 382 329 328
f 328 327 382
f 328 329 257
f 257 327 328
f 260 331 332
f 333 260 332
f 332 331 333
f 146 200 191
f 191 140 146
f 102 101 136
f 136 184 102
f 101 135 136
f 136 135 182
f 136 182 183
f 183 184 136
f 102 184 137
f 137 179 133
f 186 179 137
f 133 103 137
f 137 103 102
f 185 184 244
f 185 245 186
f 185 244 245
f 186 137 185
f 185 137 184
f 312 311 370
f 370 313 312
f 312 245 311
f 312 313 245
f 438 420 373
f 314 313 371
f 371 313 370
f 25 26 53
f 25 11 26
f 364 306 361
f 361 306 305
f 241 306 307
f 307 306 364
f 359 358 417
f 423 364 422
f 423 424 364
f 364 424 366
f 366 307 364
f 365 307 366
f 335 336 261
f 338 336 325
f 325 324 338
f 338 324 263
f 263 262 338
f 262 336 338
f 264 200 263
f 263 324 264
f 126 95 94
f 94 95 57
f 92 91 126
f 126 94 92
f 121 161 162
f 162 122 121
f 161 122 162
f 344 281 343
f 343 281 346
f 346 397 343
f 383 398 343
f 343 397 383
f 370 311 310
f 311 243 310
f 310 243 242
f 242 309 310
f 368 309 350
f 368 310 309
f 442 443 379
f 325 336 379
f 379 336 393
f 284 282 344
f 284 348 286
f 220 282 284
f 285 220 284
f 284 221 285
f 284 286 221
f 286 348 287
f 242 222 287
f 287 222 286
f 287 309 242
f 350 309 287
f 396 395 352
f 352 395 353
f 352 296 295
f 352 353 296
f 171 129 170
f 129 169 170
f 131 176 157
f 157 176 158
f 157 158 118
f 118 117 157
f 157 117 131
f 172 130 171
f 173 130 172
f 171 230 172
f 230 173 172
f 235 175 174
f 175 130 174
f 174 130 173
f 252 190 251
f 251 322 252
f 251 190 189
f 250 322 251
f 251 189 250
f 188 189 138
f 188 247 189
f 138 187 188
f 187 247 188
f 147 110 109
f 110 67 109
f 48 49 23
f 48 71 72
f 69 70 48
f 48 70 71
f 51 24 50
f 50 75 51
f 50 74 75
f 24 49 50
f 50 49 74
f 54 52 51
f 51 79 54
f 54 79 90
f 26 52 54
f 91 90 125
f 125 124 91
f 90 124 125
f 276 277 211
f 211 275 276
f 76 70 69
f 75 70 76
f 51 75 76
f 126 166 167
f 168 128 167
f 167 128 126
f 225 167 166
f 484 439 442
f 443 439 380
f 325 379 380
f 380 379 443
f 192 193 141
f 141 191 192
f 140 191 141
f 141 193 142
f 142 105 141
f 105 140 141
f 372 373 314
f 438 373 372
f 314 371 372
f 419 420 364
f 364 373 419
f 419 373 420
f 464 420 438
f 422 470 471
f 241 307 308
f 308 303 241
f 308 358 303
f 308 307 365
f 449 446 461
f 461 415 449
f 416 417 358
f 358 415 416
f 416 415 461
f 334 335 261
f 391 336 390
f 253 191 200
f 200 264 253
f 192 191 253
f 254 192 253
f 253 324 254
f 253 264 324
f 44 64 65
f 108 67 65
f 45 22 42
f 57 56 93
f 93 94 57
f 56 92 93
f 93 92 94
f 344 343 347
f 347 284 344
f 347 343 398
f 347 383 382
f 347 398 383
f 348 284 347
f 382 402 347
f 430 368 407
f 407 406 430
f 402 404 403
f 403 347 402
f 348 347 403
f 234 233 235
f 173 233 234
f 235 174 234
f 234 174 173
f 232 173 230
f 232 233 173
f 296 297 232
f 235 233 232
f 298 235 232
f 232 297 298
f 171 170 229
f 229 170 169
f 293 290 228
f 171 229 228
f 228 229 169
f 68 67 110
f 68 48 67
f 68 110 69
f 69 48 68
f 72 49 73
f 73 48 72
f 49 48 73
f 55 54 90
f 55 90 91
f 91 92 55
f 55 92 56
f 55 56 26
f 26 54 55
f 351 288 342
f 351 342 396
f 396 352 351
f 278 211 277
f 277 341 278
f 341 342 278
f 274 275 210
f 275 211 210
f 77 78 51
f 51 76 77
f 111 148 149
f 69 110 111
f 110 148 111
f 91 124 127
f 127 124 156
f 126 91 127
f 127 165 126
f 439 484 483
f 325 380 381
f 381 380 439
f 381 378 325
f 381 439 378
f 360 373 364
f 360 363 373
f 305 363 360
f 364 361 360
f 360 361 305
f 362 305 314
f 362 363 305
f 314 373 362
f 373 363 362
f 420 464 421
f 422 364 421
f 364 420 421
f 465 470 422
f 465 464 470
f 422 421 465
f 465 421 464
f 481 464 438
f 470 464 481
f 422 471 472
f 472 471 455
f 455 471 456
f 393 392 456
f 392 455 456
f 370 433 434
f 435 371 370
f 435 436 371
f 370 434 435
f 482 471 470
f 424 423 469
f 469 423 422
f 427 366 424
f 365 366 427
f 359 417 418
f 417 416 418
f 418 413 359
f 418 416 461
f 418 462 413
f 461 462 418
f 463 415 428
f 463 428 426
f 426 428 429
f 333 386 337
f 337 261 333
f 337 334 261
f 334 337 387
f 336 335 389
f 389 390 336
f 391 390 453
f 108 65 107
f 107 65 64
f 67 48 66
f 66 65 67
f 23 44 46
f 44 65 46
f 65 66 46
f 43 45 64
f 22 45 43
f 43 44 22
f 43 64 44
f 370 310 369
f 369 433 370
f 310 368 369
f 406 407 349
f 349 368 350
f 349 407 368
f 350 287 349
f 349 287 348
f 348 403 349
f 349 403 404
f 288 351 289
f 289 352 295
f 289 351 352
f 231 230 171
f 171 228 231
f 231 232 230
f 231 228 290
f 295 296 231
f 296 232 231
f 231 289 295
f 290 289 231
f 211 278 279
f 342 288 279
f 279 278 342
f 207 274 208
f 153 210 211
f 153 154 114
f 114 77 113
f 113 77 76
f 116 127 156
f 78 77 116
f 156 124 116
f 116 124 90
f 90 79 116
f 116 79 78
f 227 294 293
f 227 228 169
f 293 228 227
f 227 169 168
f 168 167 227
f 226 290 293
f 293 294 226
f 167 225 226
f 226 227 167
f 294 227 226
f 440 404 402
f 439 483 440
f 402 378 440
f 378 439 440
f 441 379 393
f 393 456 441
f 442 379 441
f 441 456 471
f 431 368 430
f 371 436 437
f 438 372 437
f 437 372 371
f 437 482 470
f 437 481 438
f 470 481 437
f 468 469 422
f 474 469 468
f 424 469 473
f 473 427 424
f 450 415 463
f 463 474 450
f 474 451 450
f 463 426 475
f 367 426 429
f 429 428 367
f 358 308 367
f 367 415 358
f 367 428 415
f 367 308 365
f 365 426 367
f 394 386 446
f 446 449 394
f 449 387 394
f 394 337 386
f 394 387 337
f 454 455 391
f 391 453 454
f 390 389 452
f 452 453 390
f 451 453 452
f 422 472 466
f 466 472 455
f 455 454 466
f 47 66 48
f 47 46 66
f 47 48 23
f 23 46 47
f 405 349 404
f 405 458 430
f 430 406 405
f 406 349 405
f 224 279 288
f 224 226 225
f 224 290 291
f 224 166 165
f 224 225 166
f 288 289 224
f 224 289 290
f 150 204 207
f 207 208 150
f 149 204 150
f 150 111 149
f 274 210 209
f 209 208 274
f 211 279 212
f 212 153 211
f 279 224 212
f 212 213 154
f 154 153 212
f 155 214 215
f 165 127 155
f 155 215 165
f 155 116 154
f 127 116 155
f 154 213 155
f 213 214 155
f 115 77 114
f 115 116 77
f 114 154 115
f 154 116 115
f 291 290 292
f 290 226 292
f 292 224 291
f 226 224 292
f 404 440 457
f 457 440 483
f 458 405 457
f 457 405 404
f 457 483 484
f 457 484 442
f 432 369 368
f 368 431 432
f 433 369 432
f 432 434 433
f 432 431 434
f 430 477 478
f 478 477 436
f 430 458 476
f 476 477 430
f 476 457 442
f 458 457 476
f 442 441 476
f 480 437 436
f 482 437 480
f 436 477 480
f 480 477 482
f 427 473 425
f 425 469 474
f 425 473 469
f 425 475 426
f 365 427 425
f 425 426 365
f 425 474 463
f 463 475 425
f 448 387 449
f 448 449 415
f 415 450 448
f 387 448 388
f 388 448 450
f 388 450 451
f 451 452 388
f 335 334 388
f 334 387 388
f 388 389 335
f 388 452 389
f 422 466 467
f 467 468 422
f 467 453 451
f 467 451 474
f 474 468 467
f 467 454 453
f 467 466 454
f 111 150 112
f 112 76 69
f 69 111 112
f 112 113 76
f 213 212 223
f 223 212 224
f 223 224 165
f 223 214 213
f 165 215 223
f 215 214 223
f 436 435 479
f 479 478 436
f 479 435 434
f 434 431 479
f 479 431 430
f 430 478 479
f 471 482 485
f 485 441 471
f 485 476 441
f 151 150 208
f 151 112 150
f 208 209 151
f 113 112 151
f 152 153 114
f 114 113 152
f 113 151 152
f 152 151 209
f 16 5 1
f 1 4 16
f 5 16 38
f 38 7 5
f 18 8 38
f 38 8 7
f 16 35 38
f 160 159 221
f 221 164 160
f 29 36 34
f 29 15 14
f 41 39 29
f 34 15 29
f 29 197 145
f 29 39 37
f 37 36 29
f 29 63 41
f 29 331 260
f 355 410 29
f 29 177 238
f 238 300 29
f 29 488 487
f 29 300 355
f 260 197 29
f 145 106 29
f 487 447 29
f 29 58 99
f 99 132 29
f 459 488 29
f 29 410 459
f 29 28 58
f 106 63 29
f 29 447 444
f 444 385 29
f 132 177 29
f 385 331 29
f 270 272 206
f 206 205 270
f 25 4 1
f 1 3 25
f 25 12 4
f 25 31 30
f 30 27 25
f 60 59 25
f 25 27 12
f 25 59 33
f 3 11 25
f 25 80 60
f 53 80 25
f 33 32 25
f 25 32 31
f 107 3 1
f 1 2 107
f 2 6 107
f 107 20 19
f 17 20 107
f 107 6 17
f 107 104 139
f 272 270 107
f 42 21 107
f 19 40 107
f 107 9 3
f 107 273 272
f 107 201 147
f 62 104 107
f 107 40 62
f 252 323 107
f 107 323 273
f 265 201 107
f 107 266 265
f 147 109 107
f 139 190 107
f 107 267 266
f 21 9 107
f 107 190 252
f 107 67 108
f 107 270 267
f 107 45 42
f 107 109 67
f 64 45 107
f 477 476 485
f 482 477 485
f 152 209 210
f 210 153 152
