v 0.023455 0.005087 0.057016
v -0.023049 0.006689 0.057016
v -0.023836 0.002804 0.057016
v -0.010689 0.021488 0.057016
v -0.007006 0.022955 0.057016
v 0.000826 0.023986 0.057016
v -0.003133 0.023795 0.057016
v 0.004763 0.023523 0.057016
v 0.012143 0.020701 0.057016
v 0.008570 0.022418 0.057016
v 0.023972 0.001157 0.057016
v 0.023836 -0.002804 0.057016
v 0.023424 -0.002756 0.058561
v 0.023558 0.001137 0.058561
v 0.023050 0.004999 0.058561
v 0.021913 0.008725 0.058561
v 0.020178 0.012213 0.058561
v 0.017893 0.015367 0.058561
v 0.015119 0.018103 0.058561
v 0.011933 0.020344 0.058561
v 0.008422 0.022031 0.058561
v 0.004681 0.023117 0.058561
v 0.000812 0.023572 0.058561
v -0.003079 0.023384 0.058561
v -0.006886 0.022558 0.058561
v -0.010505 0.021117 0.058561
v -0.013837 0.019100 0.058561
v -0.016792 0.016562 0.058561
v -0.019289 0.013573 0.058561
v -0.021260 0.010213 0.058561
v -0.022651 0.006574 0.058561
v -0.023424 0.002756 0.058561
v -0.023558 -0.001137 0.058561
v -0.023050 -0.004999 0.058561
v -0.021913 -0.008725 0.058561
v -0.020178 -0.012213 0.058561
v -0.017893 -0.015367 0.058561
v -0.015119 -0.018103 0.058561
v -0.011933 -0.020344 0.058561
v -0.008422 -0.022031 0.058561
v -0.004681 -0.023117 0.058561
v -0.000812 -0.023572 0.058561
v 0.003079 -0.023384 0.058561
v 0.006886 -0.022558 0.058561
v 0.010505 -0.021117 0.058561
v 0.013837 -0.019100 0.058561
v 0.016792 -0.016562 0.058561
v 0.019289 -0.013573 0.058561
v 0.021260 -0.010213 0.058561
v 0.022651 -0.006574 0.058561
v -0.023972 -0.001157 0.057016
v -0.023455 -0.005087 0.057016
v -0.022298 -0.008878 0.057016
v -0.004763 -0.023523 0.057016
v -0.000826 -0.023986 0.057016
v 0.003133 -0.023795 0.057016
v 0.021634 -0.010392 0.057016
v 0.023049 -0.006689 0.057016
v -0.032499 -0.004226 0.000244
v -0.032497 -0.004180 0.000413
v -0.032493 -0.004039 0.000695
v -0.032487 -0.003843 0.000923
v -0.032484 -0.003716 0.001025
v -0.032477 -0.003306 0.001212
v -0.032477 -0.003217 0.001231
v -0.032478 -0.002677 0.001208
v -0.032486 -0.002197 0.000958
v -0.032496 -0.001867 0.000528
v -0.022460 -0.011500 -0.023491
v -0.026293 -0.011500 -0.019103
v -0.029281 -0.011500 -0.014101
v -0.031329 -0.011500 -0.008646
v -0.032369 -0.011500 -0.002913
v -0.032500 -0.011500 -0.000000
v 0.030428 -0.011500 -0.011420
v 0.027900 -0.011500 -0.016669
v 0.024475 -0.011500 -0.021383
v -0.031329 -0.011500 0.008646
v -0.032369 -0.011500 0.002913
v 0.009511 -0.003090 -0.038500
v 0.010000 0.000000 -0.038500
v 0.007686 0.005584 -0.039000
v -0.007686 0.005584 -0.039000
v -0.009035 0.002936 -0.039000
v 0.009035 0.002936 -0.039000
v -0.009500 0.000000 -0.039000
v -0.009035 -0.002936 -0.039000
v -0.007686 -0.005584 -0.039000
v -0.005584 -0.007686 -0.039000
v -0.002936 -0.009035 -0.039000
v -0.000000 -0.009500 -0.039000
v 0.002936 -0.009035 -0.039000
v 0.005584 -0.007686 -0.039000
v 0.007686 -0.005584 -0.039000
v 0.009035 -0.002936 -0.039000
v 0.009500 0.000000 -0.039000
v -0.031854 0.025000 0.003050
v -0.030847 0.025000 0.008513
v -0.025889 0.025000 0.018809
v -0.028831 0.025000 0.013884
v -0.022114 0.025000 -0.023129
v -0.025889 0.025000 -0.018809
v -0.017629 0.025000 -0.026706
v -0.031854 0.025000 -0.003050
v -0.030847 0.025000 -0.008513
v -0.028831 0.025000 -0.013884
v 0.027470 0.025000 -0.016413
v 0.024098 0.025000 -0.021054
v -0.007121 0.025000 -0.031198
v -0.012577 0.025000 -0.029425
v 0.029960 0.025000 -0.011244
v 0.031486 0.025000 -0.005714
v 0.032000 0.025000 -0.000000
v 0.031486 0.025000 0.005714
v 0.029960 0.025000 0.011244
v 0.024098 0.025000 0.021054
v 0.027470 0.025000 0.016413
v 0.019952 0.025000 -0.025019
v 0.015164 0.025000 -0.028179
v 0.009889 0.025000 -0.030434
v 0.004295 0.025000 -0.031710
v -0.001436 0.025000 -0.031968
v 0.032500 0.024500 -0.000000
v 0.031978 0.024500 0.005803
v -0.032357 0.021100 -0.003044
v -0.032357 0.024500 -0.003044
v -0.031329 0.024500 -0.008646
v 0.004363 0.024500 -0.032206
v -0.001458 0.024500 -0.032467
v -0.007232 0.024500 -0.031685
v -0.032486 -0.003803 -0.000958
v -0.032478 -0.003323 -0.001208
v -0.032477 -0.002783 -0.001231
v -0.032477 -0.002694 -0.001212
v -0.032484 -0.002284 -0.001025
v -0.032487 -0.002157 -0.000923
v -0.032493 -0.001961 -0.000696
v -0.012773 0.024500 -0.029885
v -0.017904 0.024500 -0.027124
v 0.010043 0.024500 -0.030909
v 0.015401 0.024500 -0.028619
v 0.031978 0.024500 -0.005803
v -0.032497 -0.001820 -0.000413
v -0.032499 -0.001774 -0.000245
v -0.032500 0.021100 -0.000000
v -0.032357 0.021100 0.003044
v -0.032496 -0.004133 -0.000528
v -0.031329 0.024500 0.008646
v -0.032357 0.024500 0.003044
v 0.020263 0.024500 -0.025410
v 0.024475 0.024500 -0.021383
v 0.027900 0.024500 -0.016669
v 0.030428 0.024500 -0.011420
v -0.022460 0.024500 -0.023491
v -0.026293 0.024500 -0.019103
v -0.029281 0.024500 -0.014101
v -0.029281 0.024500 0.014101
v 0.030428 0.024500 0.011420
v -0.010000 0.000000 -0.038500
v -0.009511 -0.003090 -0.038500
v -0.032140 0.024740 -0.002790
v -0.032140 0.024740 0.002790
v 0.023141 -0.031000 0.016290
v 0.025497 -0.031000 0.012279
v 0.016290 -0.031000 0.023141
v 0.019861 -0.031000 0.020160
v 0.020160 -0.031000 0.019861
v 0.020011 -0.031000 0.020011
v 0.012279 -0.031000 0.025497
v 0.027164 -0.031000 0.007936
v 0.028098 -0.031000 0.003379
v 0.024294 -0.031000 -0.014515
v 0.026344 -0.031000 -0.010339
v 0.027682 -0.031000 -0.005884
v 0.028272 -0.031000 -0.001270
v 0.021588 -0.031000 -0.018299
v 0.018299 -0.031000 -0.021588
v 0.014515 -0.031000 -0.024294
v 0.010339 -0.031000 -0.026344
v 0.005884 -0.031000 -0.027682
v -0.007936 -0.031000 -0.027164
v -0.003379 -0.031000 -0.028098
v 0.001270 -0.031000 -0.028272
v -0.020011 -0.031000 -0.020011
v -0.019861 -0.031000 -0.020160
v -0.016290 -0.031000 -0.023141
v -0.012279 -0.031000 -0.025497
v -0.023951 -0.031000 -0.015075
v -0.020160 -0.031000 -0.019861
v -0.023141 -0.031000 -0.016290
v -0.025497 -0.031000 -0.012279
v -0.027164 -0.031000 -0.007936
v -0.028098 -0.031000 -0.003379
v -0.024294 -0.031000 0.014515
v -0.026344 -0.031000 0.010339
v -0.027682 -0.031000 0.005884
v -0.028272 -0.031000 0.001270
v -0.014515 -0.031000 0.024294
v -0.018299 -0.031000 0.021588
v -0.021588 -0.031000 0.018299
v -0.010339 -0.031000 0.026344
v -0.005884 -0.031000 0.027682
v 0.007936 -0.031000 0.027164
v 0.003379 -0.031000 0.028098
v -0.001270 -0.031000 0.028272
v -0.020153 -0.030800 -0.020153
v -0.025678 -0.030800 -0.012366
v -0.027356 -0.030800 -0.007992
v -0.028296 -0.030800 -0.003403
v -0.028471 -0.030800 0.001279
v -0.027877 -0.030800 0.005925
v -0.026530 -0.030800 0.010412
v -0.024466 -0.030800 0.014618
v -0.020303 -0.030800 -0.020001
v -0.023305 -0.030800 -0.016405
v 0.025678 -0.030800 0.012366
v 0.027356 -0.030800 0.007992
v 0.028296 -0.030800 0.003403
v 0.028471 -0.030800 -0.001279
v 0.027877 -0.030800 -0.005925
v 0.026530 -0.030800 -0.010412
v 0.024466 -0.030800 -0.014618
v 0.021741 -0.030800 -0.018428
v 0.018428 -0.030800 -0.021741
v 0.014618 -0.030800 -0.024466
v 0.010412 -0.030800 -0.026530
v 0.005925 -0.030800 -0.027877
v 0.001279 -0.030800 -0.028471
v -0.003403 -0.030800 -0.028296
v -0.007992 -0.030800 -0.027356
v -0.012366 -0.030800 -0.025678
v -0.016405 -0.030800 -0.023305
v -0.020001 -0.030800 -0.020303
v -0.002650 0.028000 0.025983
v -0.002639 0.028000 0.026242
v -0.002602 0.028000 0.026500
v -0.002541 0.028000 0.026753
v -0.002455 0.028000 0.026998
v -0.002345 0.028000 0.027234
v -0.002213 0.028000 0.027458
v -0.002059 0.028000 0.027668
v -0.001886 0.028000 0.027861
v -0.001695 0.028000 0.028037
v -0.001487 0.028000 0.028194
v -0.001265 0.028000 0.028329
v -0.001030 0.028000 0.028442
v -0.000786 0.028000 0.028531
v -0.000534 0.028000 0.028596
v -0.000277 0.028000 0.028635
v -0.000017 0.028000 0.028650
v 0.002329 0.028000 0.027265
v 0.002442 0.028000 0.027030
v 0.002531 0.028000 0.026786
v 0.000242 0.028000 0.028639
v 0.000500 0.028000 0.028602
v 0.000753 0.028000 0.028541
v 0.002650 0.028000 0.026017
v 0.002596 0.028000 0.026534
v 0.002635 0.028000 0.026277
v 0.001668 0.028000 0.028059
v 0.001861 0.028000 0.027886
v 0.000998 0.028000 0.028455
v 0.001234 0.028000 0.028345
v 0.001458 0.028000 0.028213
v 0.002037 0.028000 0.027695
v 0.002194 0.028000 0.027487
v 0.002647 0.028000 -0.026129
v 0.002622 0.028000 -0.026387
v 0.002571 0.028000 -0.026643
v 0.002496 0.028000 -0.026891
v 0.002396 0.028000 -0.027132
v -0.002128 0.028000 -0.027580
v -0.002272 0.028000 -0.027364
v -0.002395 0.028000 -0.027134
v -0.002495 0.028000 -0.026894
v 0.000131 0.028000 -0.028647
v -0.000129 0.028000 -0.028647
v -0.000387 0.028000 -0.028622
v -0.002647 0.028000 -0.025871
v -0.001578 0.028000 -0.028129
v -0.001779 0.028000 -0.027964
v -0.001963 0.028000 -0.027781
v 0.002274 0.028000 -0.027361
v 0.002129 0.028000 -0.027578
v 0.001964 0.028000 -0.027779
v -0.001361 0.028000 -0.028274
v -0.001132 0.028000 -0.028396
v -0.000643 0.028000 -0.028571
v -0.000891 0.028000 -0.028496
v 0.001134 0.028000 -0.028395
v 0.000894 0.028000 -0.028495
v -0.002570 0.028000 -0.026645
v -0.002621 0.028000 -0.026390
v -0.002647 0.028000 -0.026131
v 0.001781 0.028000 -0.027963
v 0.001580 0.028000 -0.028128
v 0.001364 0.028000 -0.028272
v 0.000645 0.028000 -0.028570
v 0.000390 0.028000 -0.028621
v 0.002001 0.027987 -0.027812
v 0.001814 0.027987 -0.028000
v 0.001609 0.027987 -0.028168
v 0.001389 0.027987 -0.028315
v 0.001156 0.027987 -0.028440
v 0.000911 0.027987 -0.028542
v 0.000657 0.027987 -0.028619
v 0.000398 0.027987 -0.028671
v 0.000134 0.027987 -0.028697
v -0.000131 0.027987 -0.028697
v -0.000395 0.027987 -0.028671
v -0.000655 0.027987 -0.028619
v -0.000908 0.027987 -0.028543
v -0.001153 0.027987 -0.028441
v -0.001387 0.027987 -0.028317
v -0.001607 0.027987 -0.028169
v -0.001812 0.027987 -0.028001
v -0.002000 0.027987 -0.027814
v 0.035150 -0.001516 -0.000221
v 0.035150 -0.001510 0.000171
v 0.035150 -0.003221 -0.001484
v 0.035150 -0.002829 -0.001490
v 0.035150 -0.002449 -0.001395
v 0.035150 -0.002107 -0.001205
v 0.035150 -0.001825 -0.000933
v 0.035150 -0.001624 -0.000597
v 0.035150 -0.002403 0.001376
v 0.035150 -0.002067 0.001175
v 0.035150 -0.003597 -0.001376
v 0.035150 -0.001605 0.000551
v 0.035150 -0.001795 0.000893
v 0.035150 -0.004473 0.000284
v 0.035150 -0.004474 0.000278
v 0.035150 -0.004484 0.000221
v 0.035150 -0.004490 -0.000171
v 0.035150 -0.004395 -0.000551
v 0.035150 -0.004205 -0.000893
v 0.035150 -0.003933 -0.001175
v 0.035150 -0.002779 0.001484
v 0.035150 -0.003171 0.001490
v 0.035150 -0.003551 0.001395
v 0.035150 -0.003893 0.001205
v 0.035150 -0.004175 0.000933
v 0.035150 -0.004210 0.000887
v 0.035150 -0.004213 0.000882
v 0.035150 -0.004376 0.000597
v 0.000735 0.008307 -0.042150
v 0.000996 0.008238 -0.042097
v 0.001049 0.008072 -0.042150
v -0.001307 0.007735 -0.042150
v -0.001180 0.008073 -0.042093
v -0.001072 0.008049 -0.042150
v -0.000727 0.008327 -0.042142
v -0.000765 0.008291 -0.042150
v -0.000279 0.008564 -0.042097
v -0.000404 0.008444 -0.042150
v -0.000017 0.008500 -0.042150
v 0.000372 0.008453 -0.042150
v 0.001453 0.006628 -0.042150
v 0.001500 0.007017 -0.042150
v -0.001453 0.007372 -0.042150
v -0.001612 0.007801 -0.041953
v 0.001584 0.007735 -0.041992
v 0.001275 0.007814 -0.042142
v 0.001303 0.008160 -0.041993
v 0.001291 0.007765 -0.042150
v 0.001444 0.007404 -0.042150
v -0.000679 0.005663 -0.042150
v -0.000684 0.005665 -0.042150
v -0.000735 0.005693 -0.042150
v -0.001049 0.005928 -0.042150
v -0.001291 0.006235 -0.042150
v -0.001444 0.006596 -0.042150
v -0.001500 0.006983 -0.042150
v 0.001307 0.006265 -0.042150
v 0.001072 0.005951 -0.042150
v 0.000765 0.005709 -0.042150
v 0.000404 0.005556 -0.042150
v 0.000017 0.005500 -0.042150
v -0.000041 0.005501 -0.042150
v -0.000047 0.005501 -0.042150
v -0.000372 0.005547 -0.042150
f 342 58 217
f 126 145 149
f 66 65 149
f 149 145 66
f 342 341 12
f 12 58 342
f 13 58 12
f 341 340 12
f 12 340 339
f 218 217 171
f 342 217 218
f 171 217 170
f 145 126 133
f 148 2 31
f 148 97 149
f 149 97 162
f 11 12 339
f 1 15 11
f 50 58 13
f 50 49 58
f 57 217 58
f 58 49 57
f 57 49 217
f 217 49 48
f 132 133 73
f 73 133 126
f 126 125 73
f 207 208 71
f 71 215 207
f 21 8 22
f 97 234 104
f 104 126 161
f 267 257 113
f 19 115 117
f 19 18 158
f 158 115 19
f 158 18 17
f 158 15 1
f 67 66 145
f 67 63 66
f 67 62 63
f 61 62 67
f 145 68 67
f 67 68 61
f 30 148 31
f 29 148 30
f 235 97 236
f 235 234 97
f 338 11 339
f 326 11 338
f 14 11 15
f 13 12 14
f 12 11 14
f 219 218 171
f 219 333 218
f 223 77 76
f 143 144 145
f 145 136 137
f 137 143 145
f 147 143 137
f 147 137 131
f 131 137 136
f 132 131 135
f 135 131 136
f 135 136 145
f 149 65 79
f 79 146 149
f 72 73 125
f 71 208 72
f 215 190 188
f 188 207 215
f 8 260 6
f 9 21 20
f 19 117 20
f 20 117 9
f 106 102 155
f 294 104 279
f 279 104 234
f 187 232 231
f 228 92 227
f 92 93 227
f 227 93 226
f 101 102 282
f 282 317 101
f 114 253 115
f 265 8 116
f 8 117 116
f 251 117 115
f 8 21 10
f 10 117 8
f 10 21 9
f 9 117 10
f 16 158 17
f 15 158 16
f 1 11 124
f 124 158 1
f 124 11 326
f 115 158 124
f 124 114 115
f 326 327 124
f 124 123 113
f 113 114 124
f 129 121 128
f 128 121 120
f 329 123 330
f 123 124 330
f 330 124 327
f 151 77 81
f 174 173 221
f 76 221 222
f 222 223 76
f 55 202 205
f 201 202 55
f 77 223 224
f 225 224 178
f 226 225 178
f 178 179 226
f 134 133 132
f 132 135 134
f 145 133 134
f 134 135 145
f 61 68 60
f 60 68 145
f 210 79 74
f 147 131 74
f 61 60 74
f 74 143 147
f 144 143 74
f 132 73 74
f 74 131 132
f 74 62 61
f 63 62 74
f 196 210 197
f 210 193 197
f 208 193 209
f 209 72 208
f 73 72 209
f 209 193 210
f 209 74 73
f 210 74 209
f 208 207 191
f 207 188 191
f 41 199 198
f 52 79 78
f 261 8 265
f 261 260 8
f 5 25 24
f 5 24 7
f 26 25 5
f 22 8 23
f 8 6 23
f 7 24 23
f 23 6 7
f 262 6 263
f 256 6 262
f 254 6 255
f 255 6 256
f 263 6 264
f 264 6 260
f 106 155 156
f 70 215 71
f 154 102 101
f 154 155 102
f 126 104 127
f 104 105 127
f 127 105 106
f 106 156 127
f 232 187 186
f 95 224 94
f 94 224 225
f 94 225 226
f 226 93 94
f 180 183 228
f 228 227 180
f 226 179 180
f 180 227 226
f 228 183 182
f 182 229 228
f 231 89 230
f 230 187 231
f 229 182 230
f 229 230 90
f 90 230 89
f 276 299 308
f 138 139 103
f 103 154 101
f 139 154 103
f 312 311 109
f 313 287 312
f 129 109 122
f 122 309 308
f 122 121 129
f 308 121 122
f 130 109 129
f 113 257 259
f 259 114 113
f 117 251 266
f 265 116 266
f 266 116 117
f 115 253 252
f 252 251 115
f 85 141 150
f 150 108 151
f 82 141 85
f 119 141 120
f 113 123 142
f 151 108 152
f 140 128 120
f 120 141 140
f 26 100 27
f 27 100 28
f 29 28 157
f 28 100 157
f 157 148 29
f 157 100 148
f 97 148 98
f 148 100 98
f 236 97 98
f 7 244 243
f 85 150 96
f 151 81 96
f 96 150 151
f 80 81 77
f 80 224 95
f 77 224 80
f 95 96 80
f 80 96 81
f 218 345 344
f 331 345 218
f 175 219 171
f 175 174 219
f 220 174 221
f 219 174 220
f 223 222 172
f 221 173 172
f 172 222 221
f 204 55 205
f 56 204 203
f 55 204 56
f 42 56 43
f 55 56 42
f 201 55 54
f 54 198 201
f 41 198 54
f 54 42 41
f 55 42 54
f 46 45 163
f 177 178 224
f 64 79 65
f 64 74 79
f 63 74 64
f 65 66 64
f 66 63 64
f 59 60 145
f 145 74 59
f 59 74 60
f 192 193 208
f 208 191 192
f 200 199 40
f 40 199 41
f 4 100 26
f 26 5 4
f 249 248 6
f 159 70 155
f 159 154 86
f 155 154 159
f 70 159 69
f 232 186 185
f 231 232 88
f 232 87 88
f 88 89 231
f 187 230 181
f 181 230 182
f 91 92 228
f 228 229 91
f 229 90 91
f 139 83 84
f 86 154 84
f 84 154 139
f 308 309 277
f 277 276 308
f 277 309 278
f 120 121 306
f 306 305 120
f 306 298 305
f 273 102 106
f 106 274 273
f 315 103 101
f 138 103 110
f 313 312 110
f 110 312 109
f 110 130 138
f 109 130 110
f 311 312 288
f 253 114 258
f 114 259 258
f 120 305 304
f 304 119 120
f 304 305 290
f 118 150 141
f 141 119 118
f 108 150 118
f 113 142 112
f 269 268 112
f 112 268 267
f 112 267 113
f 242 241 7
f 7 243 242
f 238 98 100
f 342 218 343
f 218 344 343
f 218 333 332
f 332 331 218
f 223 172 176
f 43 165 44
f 164 47 46
f 46 163 164
f 164 170 217
f 167 163 45
f 45 44 167
f 167 44 168
f 200 40 39
f 195 212 196
f 36 212 37
f 53 34 52
f 52 34 51
f 149 146 51
f 146 79 51
f 79 52 51
f 100 4 99
f 99 4 5
f 99 5 7
f 7 241 99
f 99 240 100
f 241 240 99
f 250 6 254
f 250 249 6
f 245 244 7
f 7 246 245
f 7 6 247
f 247 246 7
f 6 248 247
f 86 87 160
f 160 159 86
f 160 69 159
f 215 70 214
f 70 69 214
f 290 305 291
f 305 298 291
f 307 121 308
f 307 306 121
f 308 299 307
f 299 298 307
f 298 306 307
f 105 292 275
f 106 105 275
f 275 274 106
f 293 104 294
f 293 105 104
f 293 292 105
f 272 282 102
f 102 273 272
f 314 287 313
f 103 315 314
f 315 280 314
f 313 110 314
f 314 110 103
f 310 122 109
f 109 311 310
f 309 122 310
f 278 309 310
f 310 288 278
f 311 288 310
f 289 312 287
f 289 288 312
f 153 152 111
f 271 270 111
f 111 142 153
f 111 112 142
f 111 270 269
f 269 112 111
f 324 142 123
f 153 321 75
f 75 221 76
f 75 220 221
f 220 75 337
f 303 304 290
f 119 304 303
f 303 118 119
f 100 240 239
f 239 238 100
f 236 98 237
f 98 238 237
f 169 56 203
f 43 56 169
f 169 165 43
f 168 44 166
f 166 44 165
f 48 47 216
f 47 164 216
f 217 48 216
f 216 164 217
f 194 39 38
f 200 39 194
f 212 195 194
f 196 212 211
f 211 53 52
f 211 52 78
f 78 79 211
f 211 210 196
f 211 79 210
f 34 53 35
f 35 212 36
f 35 211 212
f 53 211 35
f 33 51 34
f 189 190 215
f 215 214 189
f 69 160 233
f 233 160 87
f 233 87 232
f 232 185 233
f 316 280 315
f 101 317 316
f 316 315 101
f 287 314 286
f 286 314 280
f 107 152 108
f 107 111 152
f 271 111 107
f 108 284 107
f 153 142 322
f 322 321 153
f 219 220 335
f 320 75 321
f 297 303 290
f 118 303 302
f 300 295 285
f 108 300 285
f 285 284 108
f 95 94 374
f 349 139 138
f 38 37 213
f 213 194 38
f 213 37 212
f 212 194 213
f 51 33 3
f 2 148 3
f 3 148 149
f 149 51 3
f 206 214 69
f 69 233 206
f 280 316 281
f 317 282 281
f 281 316 317
f 271 107 283
f 283 107 284
f 319 123 329
f 319 318 123
f 325 324 123
f 123 318 325
f 142 324 323
f 323 322 142
f 333 219 334
f 219 335 334
f 220 337 336
f 336 335 220
f 328 337 75
f 75 320 328
f 118 302 301
f 301 302 295
f 108 118 301
f 301 300 108
f 301 295 300
f 295 302 296
f 303 297 296
f 296 302 303
f 358 96 95
f 95 374 358
f 375 94 93
f 375 374 94
f 361 84 83
f 361 349 84
f 361 83 139
f 139 349 361
f 138 130 353
f 86 84 360
f 84 349 360
f 141 82 362
f 362 365 141
f 362 82 85
f 85 365 362
f 85 96 366
f 366 365 85
f 32 3 33
f 31 2 32
f 2 3 32
f 184 233 185
f 184 206 233
f 184 189 214
f 214 206 184
f 376 93 92
f 376 375 93
f 350 349 138
f 354 130 129
f 372 87 86
f 141 365 363
f 363 364 141
f 96 358 359
f 359 366 96
f 92 91 377
f 377 376 92
f 349 350 351
f 138 353 351
f 351 350 138
f 130 354 355
f 129 128 356
f 356 354 129
f 356 355 354
f 86 360 373
f 373 372 86
f 371 88 87
f 87 372 371
f 381 91 90
f 352 355 353
f 352 353 130
f 130 355 352
f 128 140 346
f 89 88 370
f 88 371 370
f 378 377 91
f 367 90 89
f 367 381 90
f 357 356 128
f 128 346 357
f 348 140 141
f 141 364 348
f 364 363 348
f 348 363 365
f 91 381 380
f 89 370 369
f 347 348 346
f 347 346 140
f 140 348 347
f 379 378 91
f 91 380 379
f 368 367 89
f 89 369 368
f 162 126 149
f 161 126 162
f 161 162 104
f 104 162 97
f 145 144 74
f 70 156 155
f 71 156 70
f 127 72 125
f 127 125 126
f 127 156 71
f 71 72 127
f 152 77 151
f 76 77 152
f 176 224 223
f 176 177 224
f 76 152 75
f 75 152 153
f 328 341 342
f 328 338 339
f 328 327 326
f 339 340 328
f 328 340 341
f 342 343 328
f 326 338 328
f 329 330 328
f 328 332 333
f 328 330 327
f 321 322 328
f 328 344 345
f 345 331 328
f 328 343 344
f 331 332 328
f 328 320 321
f 328 323 324
f 328 319 329
f 324 325 328
f 333 334 328
f 328 336 337
f 318 319 328
f 328 325 318
f 322 323 328
f 328 334 335
f 335 336 328
f 296 259 257
f 253 258 296
f 296 262 263
f 296 235 236
f 241 242 296
f 296 250 254
f 296 293 294
f 296 243 244
f 263 264 296
f 294 279 296
f 257 267 296
f 267 268 296
f 234 235 296
f 254 255 296
f 296 261 265
f 296 279 234
f 296 277 278
f 296 247 248
f 296 270 271
f 265 266 296
f 296 252 253
f 260 261 296
f 256 262 296
f 296 255 256
f 296 264 260
f 296 239 240
f 299 276 296
f 274 275 296
f 282 272 296
f 269 270 296
f 296 268 269
f 278 288 296
f 296 266 251
f 251 252 296
f 296 289 287
f 296 240 241
f 248 249 296
f 244 245 296
f 276 277 296
f 296 298 299
f 290 291 296
f 296 273 274
f 296 285 295
f 296 258 259
f 287 286 296
f 296 242 243
f 296 281 282
f 249 250 296
f 296 245 246
f 246 247 296
f 296 291 298
f 296 275 292
f 292 293 296
f 296 272 273
f 236 237 296
f 288 289 296
f 296 297 290
f 238 239 296
f 296 237 238
f 296 286 280
f 271 283 296
f 284 285 296
f 280 281 296
f 296 283 284
f 17 18 32
f 32 45 46
f 46 47 32
f 32 21 22
f 26 27 32
f 13 14 32
f 22 23 32
f 32 30 31
f 32 50 13
f 32 18 19
f 19 20 32
f 49 50 32
f 32 48 49
f 32 40 41
f 32 25 26
f 29 30 32
f 32 28 29
f 32 14 15
f 41 42 32
f 32 47 48
f 32 16 17
f 24 25 32
f 32 20 21
f 15 16 32
f 38 39 32
f 32 23 24
f 32 27 28
f 32 42 43
f 32 35 36
f 43 44 32
f 36 37 32
f 32 44 45
f 32 39 40
f 32 37 38
f 34 35 32
f 32 33 34
f 171 170 184
f 184 188 190
f 201 198 184
f 177 176 184
f 200 194 184
f 184 202 201
f 184 182 183
f 203 204 184
f 184 167 168
f 184 175 171
f 187 181 184
f 193 192 184
f 184 195 196
f 196 197 184
f 184 199 200
f 183 180 184
f 173 174 184
f 205 202 184
f 184 176 172
f 179 178 184
f 184 197 193
f 184 191 188
f 184 198 199
f 184 186 187
f 184 180 179
f 184 185 186
f 174 175 184
f 184 172 173
f 184 204 205
f 170 164 184
f 178 177 184
f 184 192 191
f 184 181 182
f 184 169 203
f 184 164 163
f 163 167 184
f 168 166 184
f 165 169 184
f 184 166 165
f 184 194 195
f 190 189 184
f 368 358 374
f 374 375 368
f 349 351 368
f 368 360 349
f 376 377 368
f 365 366 368
f 368 370 371
f 375 376 368
f 368 359 358
f 366 359 368
f 368 373 360
f 368 351 353
f 353 355 368
f 355 356 368
f 372 373 368
f 368 371 372
f 356 357 368
f 381 367 368
f 377 378 368
f 368 348 365
f 368 380 381
f 368 357 346
f 346 348 368
f 368 369 370
f 378 379 368
f 368 379 380
