v 0.085204 -0.030544 0.049258
v 0.086427 -0.030544 0.049239
v 0.083675 -0.030544 0.049163
v 0.083675 -0.031896 0.049131
v 0.085143 -0.031896 0.049217
v 0.086610 -0.031896 0.049166
v 0.086534 -0.030544 0.049233
v 0.082212 -0.030544 0.049004
v 0.082212 -0.031896 0.048972
v 0.083675 -0.033362 0.049042
v 0.085143 -0.033362 0.049134
v 0.086610 -0.033362 0.049077
v 0.087791 -0.036295 0.048296
v 0.087814 -0.034828 0.048360
v 0.087825 -0.031896 0.048457
v 0.087728 -0.030544 0.048552
v 0.082097 -0.030544 0.048991
v 0.080743 -0.030544 0.048826
v 0.077814 -0.031896 0.048436
v 0.072782 -0.032242 0.047803
v 0.080743 -0.033362 0.048705
v 0.082212 -0.033362 0.048880
v 0.082212 -0.034828 0.048727
v 0.083675 -0.034828 0.048886
v 0.085143 -0.034828 0.048991
v 0.086610 -0.034828 0.048967
v 0.087730 -0.037761 0.048188
v 0.088107 -0.039227 0.047083
v 0.088210 -0.037761 0.047083
v 0.088271 -0.036295 0.047083
v 0.088298 -0.034828 0.047083
v 0.087823 -0.033362 0.048406
v 0.087825 -0.030544 0.048495
v 0.066830 -0.030544 0.047118
v 0.072660 -0.031264 0.047819
v 0.074884 -0.031896 0.048075
v 0.069019 -0.031896 0.047350
v 0.066830 -0.031896 0.047078
v 0.069019 -0.033362 0.047269
v 0.070484 -0.033362 0.047450
v 0.074884 -0.033362 0.047991
v 0.074085 -0.034163 0.047822
v 0.079280 -0.034828 0.048374
v 0.082212 -0.036295 0.048557
v 0.083675 -0.036295 0.048713
v 0.085143 -0.036295 0.048821
v 0.086610 -0.036295 0.048816
v 0.087625 -0.039227 0.048053
v 0.087951 -0.040693 0.047083
v 0.088231 -0.043621 0.045618
v 0.088298 -0.042155 0.045618
v 0.088304 -0.033362 0.047083
v 0.088306 -0.040693 0.045618
v 0.088306 -0.031896 0.047083
v 0.088306 -0.030544 0.047083
v 0.066830 -0.030544 0.042396
v 0.066830 -0.033362 0.046994
v 0.066830 -0.034828 0.046862
v 0.070484 -0.034828 0.047310
v 0.071951 -0.034828 0.047487
v 0.080743 -0.036295 0.048379
v 0.076992 -0.037103 0.047827
v 0.082212 -0.037761 0.048374
v 0.083675 -0.037761 0.048533
v 0.085143 -0.037761 0.048635
v 0.086610 -0.037761 0.048611
v 0.087472 -0.040693 0.047913
v 0.087751 -0.043621 0.046779
v 0.088063 -0.045087 0.045618
v 0.088210 -0.048020 0.044149
v 0.088300 -0.046553 0.044149
v 0.088306 -0.045087 0.044149
v 0.088121 -0.030544 0.045618
v 0.088306 -0.067075 0.028025
v 0.088304 -0.070008 0.023628
v 0.088283 -0.070008 0.022162
v 0.086610 -0.030544 0.044545
v 0.074884 -0.065664 0.021737
v 0.066830 -0.065542 0.021737
v 0.066830 -0.036295 0.046687
v 0.070484 -0.036295 0.047135
v 0.073419 -0.037761 0.047293
v 0.078529 -0.038502 0.047816
v 0.082212 -0.039227 0.048110
v 0.083675 -0.039227 0.048274
v 0.085143 -0.039227 0.048374
v 0.086610 -0.039227 0.048350
v 0.087369 -0.041489 0.047832
v 0.087579 -0.045087 0.046555
v 0.087728 -0.048020 0.045297
v 0.087747 -0.050952 0.043888
v 0.088229 -0.050952 0.042684
v 0.088304 -0.049486 0.042684
v 0.088306 -0.056816 0.038284
v 0.087642 -0.030544 0.044688
v 0.088224 -0.070008 0.021737
v 0.088306 -0.065609 0.029493
v 0.088275 -0.062677 0.033890
v 0.088250 -0.065609 0.030959
v 0.088287 -0.068541 0.026559
v 0.088248 -0.071474 0.022162
v 0.088264 -0.071474 0.021737
v 0.086847 -0.068352 0.021737
v 0.076349 -0.065971 0.021737
v 0.075309 -0.065752 0.021737
v 0.066830 -0.071221 0.021737
v 0.066830 -0.037719 0.046483
v 0.070484 -0.037761 0.046930
v 0.066830 -0.038511 0.046353
v 0.079280 -0.038704 0.047865
v 0.080406 -0.039745 0.047765
v 0.081386 -0.040002 0.047827
v 0.082212 -0.040209 0.047878
v 0.083675 -0.040529 0.047959
v 0.084468 -0.041409 0.047811
v 0.085031 -0.040832 0.047989
v 0.085445 -0.041519 0.047840
v 0.086610 -0.041544 0.047846
v 0.086610 -0.040693 0.048040
v 0.086610 -0.042277 0.047646
v 0.086610 -0.043621 0.047261
v 0.086610 -0.045087 0.046819
v 0.087428 -0.046010 0.046413
v 0.087545 -0.049132 0.045060
v 0.087560 -0.052110 0.043616
v 0.087716 -0.053880 0.042417
v 0.087732 -0.053724 0.042463
v 0.087857 -0.052523 0.042810
v 0.088199 -0.053880 0.041218
v 0.088279 -0.055346 0.039750
v 0.088304 -0.052414 0.041218
v 0.088266 -0.061215 0.035356
v 0.087705 -0.068693 0.021737
v 0.087865 -0.062770 0.035447
v 0.087863 -0.064223 0.033963
v 0.087842 -0.065668 0.032476
v 0.088203 -0.067075 0.029493
v 0.088229 -0.070008 0.025094
v 0.087768 -0.072940 0.021737
v 0.069019 -0.071528 0.021737
v 0.066830 -0.071040 0.022108
v 0.066830 -0.038911 0.046262
v 0.067551 -0.038704 0.046399
v 0.066830 -0.039248 0.046184
v 0.068687 -0.039741 0.046299
v 0.069666 -0.040002 0.046359
v 0.066830 -0.041409 0.045653
v 0.066830 -0.042155 0.045467
v 0.082212 -0.042155 0.047385
v 0.083675 -0.041262 0.047776
v 0.085031 -0.042071 0.047676
v 0.083675 -0.043621 0.047178
v 0.085143 -0.043621 0.047283
v 0.085143 -0.045087 0.046854
v 0.086610 -0.046166 0.046469
v 0.086610 -0.046899 0.046205
v 0.086610 -0.048020 0.045758
v 0.086610 -0.049385 0.045170
v 0.086610 -0.050118 0.044828
v 0.086610 -0.052355 0.043748
v 0.086610 -0.053088 0.043384
v 0.087522 -0.054874 0.042115
v 0.087585 -0.056816 0.040757
v 0.087812 -0.055359 0.041272
v 0.088065 -0.056816 0.039750
v 0.088199 -0.058278 0.038284
v 0.088237 -0.059745 0.036819
v 0.087831 -0.061257 0.036878
v 0.087613 -0.062340 0.036431
v 0.087623 -0.063785 0.035022
v 0.087590 -0.066637 0.032026
v 0.087793 -0.067105 0.030961
v 0.087608 -0.065222 0.033524
v 0.088084 -0.068541 0.028025
v 0.087846 -0.070088 0.026613
v 0.087747 -0.071259 0.025094
v 0.087697 -0.072936 0.022036
v 0.087524 -0.073332 0.021737
v 0.079240 -0.072919 0.021737
v 0.079280 -0.072721 0.022162
v 0.069019 -0.071318 0.022162
v 0.069019 -0.070838 0.023076
v 0.066830 -0.070787 0.022588
v 0.066830 -0.040693 0.045831
v 0.066830 -0.042766 0.045303
v 0.078491 -0.044375 0.046356
v 0.080743 -0.043621 0.046830
v 0.082212 -0.043621 0.047013
v 0.083675 -0.045087 0.046757
v 0.083675 -0.046052 0.046437
v 0.085143 -0.046187 0.046485
v 0.085143 -0.046920 0.046208
v 0.085143 -0.048020 0.045769
v 0.085143 -0.049435 0.045176
v 0.085143 -0.050168 0.044861
v 0.085143 -0.050952 0.044478
v 0.085143 -0.052359 0.043764
v 0.085143 -0.053092 0.043387
v 0.085143 -0.053724 0.043039
v 0.085143 -0.053880 0.042953
v 0.086610 -0.053880 0.042932
v 0.086610 -0.055055 0.042231
v 0.087377 -0.057592 0.040512
v 0.087518 -0.059239 0.039192
v 0.087663 -0.058160 0.039709
v 0.087777 -0.059736 0.038298
v 0.086610 -0.062546 0.036627
v 0.086610 -0.063279 0.035962
v 0.087571 -0.060798 0.037818
v 0.086610 -0.064012 0.035229
v 0.086610 -0.064745 0.034483
v 0.086610 -0.065428 0.033750
v 0.086610 -0.066165 0.032958
v 0.086610 -0.066806 0.032228
v 0.087529 -0.067985 0.030474
v 0.087674 -0.068499 0.029377
v 0.087560 -0.070951 0.026160
v 0.087602 -0.069586 0.028025
v 0.087585 -0.072447 0.023367
v 0.086610 -0.073580 0.021737
v 0.087222 -0.072198 0.024345
v 0.080743 -0.073104 0.021737
v 0.081678 -0.073218 0.021737
v 0.080743 -0.072898 0.022162
v 0.082212 -0.072464 0.023412
v 0.080743 -0.072375 0.023224
v 0.079280 -0.072283 0.023043
v 0.068077 -0.070770 0.022952
v 0.070484 -0.070939 0.023270
v 0.069019 -0.070437 0.023808
v 0.066830 -0.070682 0.022782
v 0.066830 -0.043579 0.045076
v 0.066933 -0.044304 0.044869
v 0.069019 -0.045454 0.044764
v 0.070120 -0.045673 0.044834
v 0.071098 -0.045858 0.044898
v 0.079280 -0.044527 0.046407
v 0.080743 -0.044809 0.046499
v 0.082206 -0.045180 0.046561
v 0.082691 -0.045909 0.046383
v 0.083675 -0.046785 0.046154
v 0.083675 -0.048020 0.045661
v 0.083675 -0.050067 0.044818
v 0.083675 -0.050952 0.044381
v 0.083675 -0.052254 0.043713
v 0.083675 -0.052987 0.043336
v 0.083675 -0.053724 0.042932
v 0.083675 -0.053880 0.042843
v 0.083675 -0.055009 0.042193
v 0.085143 -0.055089 0.042247
v 0.085143 -0.055822 0.041781
v 0.086610 -0.055788 0.041757
v 0.086610 -0.057634 0.040545
v 0.086610 -0.058367 0.040027
v 0.086610 -0.059378 0.039292
v 0.086610 -0.056816 0.041083
v 0.086610 -0.060111 0.038718
v 0.086610 -0.060992 0.037985
v 0.086610 -0.061725 0.037357
v 0.085143 -0.061737 0.037357
v 0.085143 -0.064033 0.035216
v 0.085143 -0.064767 0.034510
v 0.085143 -0.062529 0.036627
v 0.085143 -0.063262 0.035946
v 0.085143 -0.065449 0.033780
v 0.085143 -0.066182 0.032977
v 0.085143 -0.066814 0.032247
v 0.086610 -0.067539 0.031360
v 0.087390 -0.069312 0.028812
v 0.086244 -0.072232 0.024407
v 0.085143 -0.072232 0.024407
v 0.085143 -0.072624 0.023628
v 0.085256 -0.073559 0.021737
v 0.086610 -0.071078 0.026352
v 0.086681 -0.071887 0.024975
v 0.082212 -0.073281 0.021737
v 0.082212 -0.073075 0.022162
v 0.083352 -0.072169 0.024280
v 0.082212 -0.072097 0.024145
v 0.080743 -0.071996 0.023957
v 0.079280 -0.071891 0.023776
v 0.066830 -0.070252 0.023571
v 0.070484 -0.070538 0.024000
v 0.066830 -0.069548 0.024792
v 0.066830 -0.044283 0.044861
v 0.066830 -0.044401 0.044823
v 0.066830 -0.045058 0.044607
v 0.066830 -0.046553 0.044061
v 0.081714 -0.045728 0.046318
v 0.075519 -0.047320 0.044896
v 0.082206 -0.046461 0.046108
v 0.082212 -0.048020 0.045488
v 0.082212 -0.049119 0.045036
v 0.082212 -0.049856 0.044729
v 0.082212 -0.050952 0.044203
v 0.082212 -0.052081 0.043624
v 0.082212 -0.052814 0.043247
v 0.082469 -0.053724 0.042781
v 0.082212 -0.053880 0.042662
v 0.082212 -0.054862 0.042102
v 0.083675 -0.055738 0.041727
v 0.085143 -0.056816 0.041102
v 0.085143 -0.057621 0.040537
v 0.085143 -0.058354 0.040014
v 0.085143 -0.059374 0.039278
v 0.085143 -0.060107 0.038737
v 0.085143 -0.061004 0.038004
v 0.083675 -0.060928 0.037942
v 0.083675 -0.061661 0.037287
v 0.083675 -0.063970 0.035143
v 0.083675 -0.064703 0.034448
v 0.083675 -0.065386 0.033715
v 0.083675 -0.066119 0.032907
v 0.085143 -0.067547 0.031366
v 0.083675 -0.066751 0.032177
v 0.085143 -0.068124 0.030630
v 0.086610 -0.068103 0.030625
v 0.086610 -0.068836 0.029617
v 0.086610 -0.069363 0.028884
v 0.086610 -0.069953 0.028025
v 0.086610 -0.070597 0.027085
v 0.085143 -0.071819 0.025139
v 0.084327 -0.072215 0.024377
v 0.084749 -0.073530 0.021737
v 0.085143 -0.071086 0.026352
v 0.083675 -0.073441 0.021737
v 0.083774 -0.072481 0.023725
v 0.083774 -0.071828 0.024956
v 0.082212 -0.071558 0.025094
v 0.080743 -0.071356 0.025094
v 0.078830 -0.070699 0.025759
v 0.079301 -0.071090 0.025201
v 0.070484 -0.069359 0.025950
v 0.069635 -0.069291 0.025856
v 0.066830 -0.069076 0.025525
v 0.066830 -0.047059 0.043856
v 0.066830 -0.047704 0.043592
v 0.080743 -0.048887 0.044939
v 0.073026 -0.050113 0.043371
v 0.074005 -0.050257 0.043438
v 0.067551 -0.048550 0.043330
v 0.068472 -0.048694 0.043392
v 0.078765 -0.051626 0.043387
v 0.073152 -0.053025 0.041886
v 0.074129 -0.053151 0.041954
v 0.074884 -0.053244 0.042008
v 0.082212 -0.053724 0.042748
v 0.068380 -0.051660 0.041940
v 0.080038 -0.054609 0.041948
v 0.073419 -0.055005 0.040736
v 0.082212 -0.055590 0.041633
v 0.082212 -0.056661 0.040898
v 0.083726 -0.056930 0.040906
v 0.084245 -0.057575 0.040504
v 0.083675 -0.059285 0.039214
v 0.083675 -0.060023 0.038678
v 0.082212 -0.060810 0.037840
v 0.082212 -0.061544 0.037177
v 0.082212 -0.063852 0.035035
v 0.082212 -0.064585 0.034332
v 0.082212 -0.065281 0.033596
v 0.082212 -0.066014 0.032785
v 0.083675 -0.067484 0.031282
v 0.083675 -0.068065 0.030547
v 0.082212 -0.066646 0.032053
v 0.083675 -0.068798 0.029563
v 0.085143 -0.068857 0.029641
v 0.085143 -0.069380 0.028911
v 0.085143 -0.069974 0.028025
v 0.085143 -0.070602 0.027085
v 0.083675 -0.071027 0.026263
v 0.082212 -0.070939 0.026123
v 0.079807 -0.070770 0.025872
v 0.076681 -0.069338 0.027381
v 0.071951 -0.068980 0.026842
v 0.077814 -0.070037 0.026559
v 0.070484 -0.068857 0.026683
v 0.066830 -0.068327 0.026613
v 0.066830 -0.048437 0.043282
v 0.066830 -0.049010 0.043026
v 0.066830 -0.049486 0.042810
v 0.066830 -0.050046 0.042541
v 0.066830 -0.050720 0.042210
v 0.066830 -0.051082 0.042024
v 0.066830 -0.051453 0.041832
v 0.066830 -0.051976 0.041555
v 0.066830 -0.052414 0.041321
v 0.066830 -0.052911 0.041043
v 0.066830 -0.053509 0.040706
v 0.070810 -0.054710 0.040545
v 0.066830 -0.053724 0.040574
v 0.066830 -0.056016 0.039098
v 0.073419 -0.055738 0.040251
v 0.074884 -0.055898 0.040359
v 0.075937 -0.056012 0.040437
v 0.076913 -0.056117 0.040507
v 0.079280 -0.056361 0.040682
v 0.081268 -0.059058 0.039049
v 0.082212 -0.059155 0.039117
v 0.083267 -0.057495 0.040448
v 0.083726 -0.058152 0.040033
v 0.082212 -0.059888 0.038575
v 0.080743 -0.060680 0.037727
v 0.078544 -0.060482 0.037551
v 0.080743 -0.061413 0.037056
v 0.076349 -0.063326 0.034545
v 0.068361 -0.063397 0.033141
v 0.077743 -0.062694 0.035366
v 0.078142 -0.064943 0.033230
v 0.078472 -0.066355 0.031705
v 0.070484 -0.064973 0.031799
v 0.082212 -0.067379 0.031139
v 0.082336 -0.068765 0.029350
v 0.082212 -0.067952 0.030406
v 0.082912 -0.069279 0.028766
v 0.083675 -0.069321 0.028830
v 0.083675 -0.070543 0.026996
v 0.082336 -0.069633 0.028116
v 0.077814 -0.069418 0.027499
v 0.081935 -0.069211 0.028666
v 0.080743 -0.069123 0.028542
v 0.071951 -0.068247 0.027890
v 0.070484 -0.068124 0.027734
v 0.066830 -0.067345 0.028003
v 0.067551 -0.054331 0.040305
v 0.066830 -0.055397 0.039502
v 0.066830 -0.054246 0.040248
v 0.066830 -0.056109 0.039036
v 0.067551 -0.056913 0.038567
v 0.066830 -0.057339 0.038152
v 0.066830 -0.057849 0.037778
v 0.071174 -0.059024 0.037559
v 0.066830 -0.060212 0.035838
v 0.066830 -0.060604 0.035482
v 0.066830 -0.059028 0.036859
v 0.066830 -0.059483 0.036487
v 0.067551 -0.062593 0.033755
v 0.066830 -0.062525 0.033696
v 0.066830 -0.063262 0.033004
v 0.066830 -0.063599 0.032643
v 0.069607 -0.064901 0.031719
v 0.066830 -0.063937 0.032274
v 0.067551 -0.066073 0.029873
v 0.066830 -0.064670 0.031457
v 0.066830 -0.064973 0.031096
v 0.066830 -0.065285 0.030722
v 0.072880 -0.067779 0.028720
v 0.066830 -0.066292 0.029439
v 0.066830 -0.066574 0.029067
v 0.071951 -0.067707 0.028623
v 0.070484 -0.067593 0.028469
v 0.069019 -0.067480 0.028302
v 0.066830 -0.054916 0.039815
v 0.066830 -0.056791 0.038548
v 0.066830 -0.058582 0.037220
v 0.066830 -0.061737 0.034429
v 0.066830 -0.066014 0.029800
f 77 78 56
f 77 95 103
f 3 8 9
f 11 6 5
f 79 56 78
f 73 96 95
f 76 55 75
f 76 73 55
f 96 73 76
f 77 103 104
f 95 96 133
f 133 103 95
f 9 18 19
f 9 8 17
f 17 18 9
f 4 11 5
f 4 3 9
f 1 3 4
f 4 5 1
f 11 4 10
f 10 4 9
f 68 67 88
f 91 70 90
f 206 168 166
f 102 76 75
f 96 76 102
f 220 178 221
f 105 78 77
f 77 104 105
f 220 221 270
f 270 221 275
f 367 319 318
f 258 257 307
f 204 206 205
f 209 206 204
f 204 257 258
f 168 206 169
f 169 206 209
f 34 38 37
f 41 42 21
f 16 7 6
f 1 5 2
f 5 6 2
f 6 7 2
f 122 123 88
f 11 10 25
f 6 13 14
f 14 13 30
f 30 31 14
f 29 13 28
f 30 13 29
f 90 70 69
f 69 68 90
f 33 31 52
f 52 31 53
f 126 162 163
f 163 162 203
f 203 204 163
f 163 204 205
f 53 71 72
f 51 71 53
f 53 31 51
f 51 31 30
f 30 29 51
f 166 129 165
f 165 206 166
f 205 206 165
f 130 129 166
f 131 130 94
f 126 129 127
f 127 91 126
f 70 91 92
f 92 71 70
f 129 130 92
f 130 131 92
f 269 217 215
f 269 318 319
f 269 221 217
f 100 137 138
f 101 102 75
f 75 100 101
f 101 100 138
f 177 178 139
f 102 101 139
f 139 176 177
f 138 176 139
f 139 101 138
f 326 324 323
f 374 376 373
f 215 171 214
f 274 270 275
f 275 221 274
f 221 269 274
f 270 274 322
f 322 274 325
f 315 362 365
f 362 410 365
f 432 431 455
f 361 409 362
f 405 434 408
f 437 408 434
f 406 408 437
f 311 265 262
f 312 265 311
f 360 361 311
f 311 361 312
f 34 37 35
f 35 18 34
f 35 19 18
f 20 37 38
f 9 19 20
f 20 21 9
f 20 41 21
f 59 42 58
f 21 42 23
f 291 292 241
f 243 295 244
f 89 68 88
f 88 123 89
f 90 68 89
f 89 123 90
f 154 153 189
f 121 122 88
f 121 154 122
f 153 154 121
f 119 86 118
f 88 119 118
f 11 25 26
f 26 25 47
f 66 47 65
f 88 67 66
f 67 47 66
f 13 26 27
f 27 26 47
f 28 13 27
f 27 49 28
f 65 47 46
f 47 25 46
f 64 65 46
f 6 14 15
f 33 16 15
f 15 16 6
f 15 31 33
f 55 33 54
f 33 52 54
f 54 52 53
f 124 91 90
f 90 123 124
f 50 29 28
f 50 51 29
f 28 49 50
f 50 69 70
f 68 69 50
f 50 49 68
f 70 71 50
f 71 51 50
f 164 129 126
f 164 165 129
f 205 165 164
f 126 163 164
f 164 163 205
f 129 92 128
f 128 92 91
f 128 127 129
f 91 127 128
f 71 92 93
f 93 92 131
f 93 72 71
f 94 72 93
f 93 131 94
f 219 176 217
f 219 221 178
f 217 221 219
f 219 178 177
f 177 176 219
f 175 176 138
f 217 176 175
f 132 98 94
f 94 130 132
f 74 100 75
f 75 55 74
f 277 223 276
f 276 326 277
f 327 326 323
f 220 272 273
f 323 324 273
f 273 272 323
f 223 180 222
f 222 180 179
f 224 223 277
f 224 180 223
f 278 327 323
f 277 326 278
f 326 327 278
f 179 180 140
f 420 374 419
f 374 373 419
f 268 269 215
f 215 214 268
f 416 369 368
f 368 319 367
f 321 274 269
f 321 368 369
f 325 274 321
f 271 322 323
f 270 322 271
f 323 272 271
f 220 270 271
f 271 272 220
f 417 415 371
f 416 415 417
f 366 415 416
f 366 368 367
f 416 368 366
f 367 316 366
f 316 364 366
f 412 365 410
f 410 414 412
f 412 414 364
f 432 455 435
f 351 352 301
f 301 300 351
f 351 300 350
f 454 429 428
f 428 429 398
f 399 352 398
f 398 402 399
f 398 431 432
f 432 402 398
f 404 402 432
f 404 435 436
f 432 435 404
f 405 358 404
f 436 433 404
f 404 433 434
f 404 434 405
f 399 402 356
f 356 355 399
f 400 352 399
f 399 355 400
f 441 442 444
f 409 442 441
f 444 410 441
f 440 442 409
f 359 358 405
f 405 408 359
f 359 408 406
f 360 311 359
f 359 311 310
f 310 263 309
f 358 359 309
f 309 359 310
f 313 362 315
f 313 361 362
f 312 361 313
f 267 268 214
f 19 35 36
f 36 35 37
f 36 20 19
f 37 20 36
f 39 38 57
f 39 20 38
f 39 57 58
f 58 42 39
f 21 23 22
f 22 23 10
f 9 21 22
f 22 10 9
f 44 23 43
f 43 23 42
f 10 23 24
f 24 25 10
f 24 23 44
f 24 46 25
f 116 86 85
f 85 65 64
f 85 86 65
f 236 235 288
f 192 156 191
f 243 244 196
f 294 295 243
f 294 340 295
f 123 122 155
f 155 156 123
f 191 156 155
f 155 154 191
f 122 154 155
f 153 121 120
f 120 118 153
f 120 121 88
f 88 118 120
f 6 11 12
f 11 26 12
f 12 13 6
f 12 26 13
f 87 86 119
f 87 119 88
f 88 66 87
f 48 47 67
f 48 27 47
f 67 68 48
f 68 49 48
f 49 27 48
f 32 14 31
f 31 15 32
f 32 15 14
f 125 161 162
f 125 162 126
f 126 91 125
f 91 124 125
f 250 251 202
f 203 162 202
f 215 217 218
f 217 175 218
f 138 137 174
f 174 175 138
f 167 130 166
f 167 132 130
f 94 98 97
f 98 74 97
f 345 297 344
f 389 345 344
f 249 300 301
f 301 251 249
f 249 251 250
f 350 300 349
f 349 390 350
f 328 278 323
f 323 322 328
f 328 325 371
f 328 322 325
f 180 224 225
f 225 224 277
f 277 278 225
f 331 284 283
f 333 376 374
f 284 331 333
f 333 373 376
f 333 331 373
f 420 419 418
f 418 415 420
f 132 167 134
f 168 169 134
f 98 132 134
f 134 135 98
f 166 168 134
f 134 167 166
f 98 135 99
f 137 100 99
f 99 74 98
f 100 74 99
f 172 174 137
f 172 171 215
f 175 174 172
f 318 269 317
f 269 268 317
f 317 268 316
f 317 316 367
f 367 318 317
f 264 263 310
f 263 264 208
f 262 210 208
f 262 265 211
f 211 210 262
f 171 173 211
f 170 134 169
f 169 208 170
f 170 208 210
f 170 211 173
f 210 211 170
f 135 134 170
f 319 368 320
f 368 321 320
f 320 269 319
f 320 321 269
f 325 321 370
f 370 321 369
f 371 325 370
f 370 417 371
f 370 369 416
f 416 417 370
f 413 366 364
f 364 414 413
f 420 415 413
f 415 366 413
f 445 410 444
f 445 446 410
f 410 446 443
f 443 414 410
f 363 412 364
f 365 412 363
f 315 365 363
f 393 351 350
f 429 454 430
f 431 398 430
f 430 398 429
f 357 309 308
f 358 309 357
f 308 356 357
f 357 356 402
f 355 356 305
f 301 352 353
f 352 400 353
f 362 409 411
f 409 441 411
f 411 410 362
f 411 441 410
f 406 437 407
f 407 359 406
f 407 438 439
f 437 438 407
f 360 359 407
f 407 361 360
f 409 361 407
f 439 440 407
f 407 440 409
f 456 437 434
f 456 438 437
f 260 307 308
f 308 309 260
f 260 309 263
f 263 208 260
f 266 267 214
f 266 265 312
f 312 313 266
f 266 313 315
f 315 267 266
f 316 268 314
f 268 267 314
f 314 364 316
f 314 363 364
f 314 267 315
f 315 363 314
f 41 20 40
f 20 39 40
f 42 41 40
f 40 39 42
f 59 81 61
f 108 80 107
f 42 59 60
f 60 43 42
f 44 43 60
f 60 61 44
f 59 61 60
f 64 46 45
f 46 24 45
f 45 44 64
f 45 24 44
f 109 142 143
f 110 109 143
f 143 142 110
f 153 118 117
f 117 151 153
f 117 86 116
f 117 118 86
f 189 153 152
f 152 188 189
f 234 287 288
f 288 235 234
f 190 154 189
f 191 154 190
f 190 192 191
f 241 192 190
f 242 241 292
f 341 379 380
f 290 338 292
f 290 236 288
f 290 292 291
f 291 236 290
f 198 199 161
f 340 383 384
f 382 383 340
f 348 384 385
f 340 384 348
f 385 344 348
f 348 344 297
f 296 244 295
f 296 297 246
f 247 198 246
f 199 198 247
f 342 294 341
f 341 380 342
f 292 338 293
f 338 294 293
f 293 294 243
f 243 242 293
f 293 242 292
f 124 158 159
f 156 192 157
f 123 156 157
f 157 124 123
f 157 158 124
f 250 202 201
f 162 161 201
f 201 202 162
f 252 256 203
f 203 202 252
f 252 251 256
f 252 202 251
f 426 390 425
f 391 427 425
f 391 349 389
f 425 390 391
f 390 349 391
f 386 344 385
f 387 344 386
f 389 344 388
f 388 344 387
f 200 249 250
f 250 201 200
f 199 247 200
f 161 199 200
f 200 201 161
f 346 345 389
f 389 349 346
f 346 297 345
f 299 349 300
f 299 346 349
f 372 328 371
f 371 415 372
f 415 418 372
f 372 419 373
f 372 418 419
f 180 225 226
f 106 140 141
f 230 284 282
f 283 284 230
f 279 330 283
f 279 225 278
f 279 226 225
f 332 330 373
f 373 331 332
f 283 330 332
f 332 331 283
f 335 284 334
f 284 333 334
f 171 172 136
f 136 173 171
f 136 172 137
f 135 170 136
f 136 170 173
f 137 99 136
f 136 99 135
f 216 218 175
f 175 172 216
f 215 218 216
f 216 172 215
f 261 311 262
f 262 208 261
f 261 208 264
f 310 311 261
f 261 264 310
f 259 204 258
f 209 204 259
f 258 307 259
f 307 260 259
f 213 266 214
f 265 266 213
f 213 214 171
f 423 424 378
f 420 413 421
f 421 374 420
f 449 424 452
f 452 451 449
f 452 424 423
f 457 443 446
f 403 404 358
f 358 357 403
f 402 404 403
f 403 357 402
f 306 307 257
f 306 305 356
f 308 307 306
f 306 356 308
f 256 251 253
f 203 256 253
f 301 353 354
f 355 305 354
f 401 400 355
f 401 353 400
f 355 354 401
f 401 354 353
f 64 44 63
f 63 85 64
f 144 112 111
f 111 142 144
f 110 142 111
f 85 63 84
f 110 111 84
f 84 111 112
f 153 151 115
f 115 152 153
f 115 117 116
f 151 117 115
f 116 85 115
f 85 114 115
f 186 234 235
f 188 187 186
f 186 185 232
f 235 236 186
f 148 185 186
f 186 187 148
f 193 192 241
f 241 242 193
f 193 242 243
f 193 157 192
f 337 379 341
f 338 290 337
f 341 294 337
f 337 294 338
f 161 196 197
f 197 198 161
f 197 196 244
f 340 348 343
f 343 348 297
f 297 296 343
f 295 340 343
f 343 296 295
f 300 249 248
f 248 299 300
f 247 299 248
f 249 200 248
f 248 200 247
f 340 294 339
f 294 342 339
f 339 342 380
f 339 380 381
f 381 382 339
f 339 382 340
f 161 125 160
f 160 196 161
f 160 125 124
f 124 159 160
f 195 159 158
f 196 160 195
f 195 160 159
f 243 196 195
f 158 157 195
f 425 427 453
f 453 426 425
f 390 426 392
f 350 390 392
f 428 393 392
f 392 393 350
f 298 299 247
f 246 297 298
f 298 247 246
f 328 372 329
f 278 328 329
f 373 330 329
f 329 372 373
f 329 279 278
f 330 279 329
f 183 141 182
f 182 141 181
f 181 140 180
f 181 141 140
f 283 230 229
f 229 230 182
f 374 421 422
f 422 452 423
f 451 452 422
f 207 260 208
f 207 259 260
f 207 208 169
f 207 169 209
f 209 259 207
f 212 211 265
f 265 213 212
f 171 211 212
f 212 213 171
f 377 378 335
f 335 334 377
f 447 421 413
f 447 413 414
f 447 414 449
f 443 457 448
f 449 414 448
f 414 443 448
f 397 396 428
f 428 398 397
f 397 398 352
f 352 351 397
f 351 396 397
f 428 396 395
f 395 396 351
f 255 306 257
f 305 306 255
f 255 204 203
f 257 204 255
f 44 61 62
f 62 63 44
f 62 61 81
f 62 81 80
f 83 109 110
f 110 84 83
f 83 84 63
f 63 62 83
f 107 109 83
f 83 108 107
f 113 112 148
f 113 84 112
f 85 84 113
f 113 114 85
f 233 186 232
f 287 234 233
f 234 186 233
f 336 290 288
f 336 337 290
f 245 197 244
f 245 296 246
f 244 296 245
f 157 193 194
f 194 195 157
f 194 193 243
f 243 195 194
f 347 298 297
f 299 298 347
f 297 346 347
f 346 299 347
f 228 183 182
f 228 230 282
f 182 230 228
f 226 279 227
f 180 226 227
f 227 181 180
f 182 181 227
f 227 229 182
f 283 229 281
f 229 227 281
f 423 378 375
f 378 377 375
f 375 422 423
f 374 422 375
f 375 333 374
f 375 334 333
f 375 377 334
f 451 422 450
f 449 451 450
f 450 447 449
f 450 422 421
f 421 447 450
f 351 393 394
f 394 395 351
f 394 393 428
f 428 395 394
f 203 253 254
f 254 255 203
f 305 255 254
f 253 303 254
f 354 303 302
f 302 251 301
f 301 354 302
f 302 253 251
f 302 303 253
f 108 83 82
f 82 83 62
f 80 108 82
f 82 62 80
f 149 187 188
f 188 152 149
f 148 187 149
f 149 113 148
f 144 184 145
f 145 184 146
f 145 112 144
f 145 146 112
f 146 184 147
f 148 112 147
f 112 146 147
f 285 233 232
f 188 186 237
f 237 238 188
f 237 186 236
f 240 190 189
f 291 241 240
f 241 190 240
f 240 236 291
f 238 237 240
f 231 228 282
f 183 228 231
f 280 227 279
f 280 281 227
f 280 279 283
f 283 281 280
f 305 254 304
f 304 254 303
f 304 354 305
f 304 303 354
f 150 149 152
f 113 149 150
f 114 113 150
f 152 115 150
f 150 115 114
f 287 233 286
f 233 285 286
f 239 240 189
f 238 240 239
f 189 188 239
f 188 238 239
f 289 237 236
f 236 240 289
f 289 240 237
f 2 56 34
f 2 17 8
f 2 95 77
f 2 3 1
f 2 33 55
f 34 18 2
f 77 56 2
f 55 73 2
f 8 3 2
f 2 73 95
f 18 17 2
f 2 16 33
f 7 16 2
f 140 178 220
f 140 133 96
f 106 79 140
f 96 102 140
f 140 79 78
f 78 105 140
f 140 104 103
f 103 133 140
f 140 276 223
f 223 222 140
f 140 105 104
f 140 139 178
f 220 273 140
f 102 139 140
f 324 326 140
f 326 276 140
f 140 273 324
f 140 222 179
f 58 80 81
f 81 59 58
f 87 66 65
f 65 86 87
f 97 54 53
f 53 72 97
f 97 72 94
f 55 54 97
f 97 74 55
f 198 197 245
f 246 198 245
f 286 79 106
f 381 380 286
f 288 287 286
f 286 38 34
f 34 56 286
f 58 57 286
f 106 141 286
f 389 388 286
f 449 448 286
f 57 38 286
f 286 433 436
f 56 79 286
f 444 442 286
f 436 435 286
f 286 80 58
f 144 142 286
f 439 438 286
f 286 284 335
f 286 440 439
f 286 285 232
f 286 391 389
f 286 382 381
f 286 455 431
f 286 454 428
f 434 433 286
f 107 80 286
f 286 109 107
f 286 386 385
f 282 284 286
f 335 378 286
f 286 435 455
f 286 445 444
f 442 440 286
f 431 430 286
f 286 142 109
f 286 456 434
f 148 147 286
f 232 185 286
f 385 384 286
f 286 453 427
f 286 424 449
f 446 445 286
f 286 430 454
f 438 456 286
f 286 185 148
f 286 380 379
f 286 384 383
f 383 382 286
f 286 184 144
f 427 391 286
f 387 386 286
f 286 388 387
f 428 392 286
f 286 378 424
f 286 457 446
f 379 337 286
f 426 453 286
f 286 392 426
f 141 183 286
f 286 448 457
f 286 336 288
f 337 336 286
f 286 147 184
f 286 231 282
f 183 231 286
