v 0.100697 0.000959 0.058990
v 0.102594 0.000959 0.058932
v 0.101933 0.004070 0.058825
v 0.100697 0.002849 0.058902
v 0.089866 0.000959 0.058990
v 0.100697 -0.000454 0.058990
v 0.103591 0.000959 0.058842
v 0.103556 0.002085 0.058818
v 0.102579 0.002772 0.058852
v 0.102594 -0.000454 0.058932
v 0.100697 0.004213 0.058835
v 0.103198 0.003354 0.058775
v 0.102579 0.004729 0.058721
v 0.100697 0.005158 0.058778
v 0.096904 0.004233 0.058835
v 0.089866 0.002849 0.058902
v 0.077935 0.000949 0.058986
v 0.089866 -0.000454 0.058990
v 0.089708 -0.000950 0.058986
v 0.089708 -0.002840 0.058896
v 0.089708 -0.004223 0.058828
v 0.089708 -0.005168 0.058775
v 0.089708 -0.006638 0.058623
v 0.104089 0.000959 0.057861
v 0.104044 0.004748 0.057766
v 0.104044 0.006638 0.057649
v 0.103591 -0.000454 0.058842
v 0.103720 -0.000454 0.058590
v 0.104032 0.008537 0.057521
v 0.103984 0.010436 0.057390
v 0.103868 0.012326 0.057219
v 0.089708 -0.008528 0.058354
v 0.089708 -0.010427 0.058039
v 0.089708 -0.011925 0.057753
v 0.095008 0.005177 0.058781
v 0.102594 0.008537 0.058244
v 0.102594 0.006638 0.058502
v 0.103711 0.013901 0.057051
v 0.100697 0.006638 0.058617
v 0.089866 0.006638 0.058630
v 0.089866 0.004233 0.058835
v 0.077935 0.002858 0.058896
v 0.076015 0.000778 0.058875
v 0.075994 -0.000444 0.058875
v 0.075991 -0.000768 0.058875
v 0.077935 -0.000940 0.058986
v 0.076869 0.004089 0.058818
v 0.076631 0.002858 0.058852
v 0.078799 -0.000950 0.058986
v 0.077935 -0.002840 0.058896
v 0.077935 -0.004223 0.058828
v 0.077935 -0.005168 0.058775
v 0.081731 -0.006638 0.058630
v 0.104089 -0.000454 0.057861
v 0.104538 0.006638 0.055962
v 0.104532 0.008537 0.055962
v 0.104485 0.010436 0.055962
v 0.089708 -0.012317 0.057672
v 0.089708 -0.013825 0.057343
v 0.089708 -0.014225 0.057252
v 0.089708 -0.015380 0.056970
v 0.089708 -0.016325 0.056681
v 0.089708 -0.018024 0.056143
v 0.089708 -0.019914 0.055522
v 0.089708 -0.021097 0.055105
v 0.089708 -0.021775 0.054819
v 0.089708 -0.023703 0.053979
v 0.089708 -0.025163 0.053341
v 0.089708 -0.026117 0.052907
v 0.089708 -0.027501 0.052185
v 0.089708 -0.028856 0.051439
v 0.089708 -0.029801 0.050904
v 0.089708 -0.031290 0.049980
v 0.089708 -0.032273 0.049342
v 0.089708 -0.033227 0.048710
v 0.089708 -0.034611 0.047762
v 0.089708 -0.035556 0.047060
v 0.089708 -0.036759 0.046116
v 0.089708 -0.037713 0.045353
v 0.089708 -0.038830 0.044402
v 0.089708 -0.039774 0.043588
v 0.089708 -0.041702 0.041723
v 0.089708 -0.042428 0.040977
v 0.089708 -0.043554 0.039781
v 0.104369 0.012326 0.055962
v 0.103964 0.018023 0.055488
v 0.085519 -0.008528 0.058354
v 0.081731 -0.008528 0.058351
v 0.087415 -0.010427 0.058035
v 0.078799 -0.012326 0.057656
v 0.085519 -0.012317 0.057669
v 0.089312 -0.012317 0.057672
v 0.089866 0.005177 0.058781
v 0.081728 0.006638 0.058633
v 0.102594 0.010436 0.057965
v 0.100697 0.008537 0.058354
v 0.103746 0.019923 0.055202
v 0.103496 0.015160 0.056906
v 0.093108 0.008537 0.058368
v 0.077935 0.004233 0.058828
v 0.075089 0.000014 0.058805
v 0.075089 -0.000005 0.058805
v 0.076589 -0.002840 0.058852
v 0.076851 -0.004080 0.058818
v 0.077935 0.005177 0.058775
v 0.076039 0.006638 0.058512
v 0.076158 0.004729 0.058687
v 0.076036 -0.006638 0.058512
v 0.077935 -0.006638 0.058627
v 0.078799 -0.006638 0.058630
v 0.104193 -0.000454 0.057373
v 0.089708 -0.043897 0.039408
v 0.104488 -0.000454 0.055962
v 0.104517 0.025611 0.050273
v 0.104526 0.016124 0.054067
v 0.104461 0.018023 0.054067
v 0.083622 -0.014225 0.057262
v 0.077935 -0.015380 0.056970
v 0.077935 -0.016325 0.056684
v 0.078799 -0.018024 0.056150
v 0.077935 -0.019914 0.055522
v 0.087415 -0.021097 0.055105
v 0.077935 -0.021087 0.055105
v 0.077935 -0.022042 0.054698
v 0.077935 -0.023703 0.053979
v 0.077935 -0.025163 0.053341
v 0.078799 -0.026117 0.052910
v 0.079832 -0.027501 0.052188
v 0.078799 -0.028856 0.051445
v 0.078799 -0.029801 0.050908
v 0.077935 -0.031290 0.049984
v 0.077935 -0.032273 0.049342
v 0.078799 -0.032798 0.048999
v 0.078799 -0.033227 0.048713
v 0.077935 -0.034621 0.047762
v 0.078799 -0.035556 0.047070
v 0.077935 -0.036787 0.046122
v 0.079832 -0.037742 0.045366
v 0.083622 -0.037732 0.045363
v 0.089312 -0.039774 0.043588
v 0.078799 -0.041712 0.041727
v 0.087415 -0.041702 0.041730
v 0.089312 -0.041702 0.041727
v 0.078799 -0.042208 0.041209
v 0.077935 -0.043563 0.039788
v 0.078799 -0.043754 0.039579
v 0.104244 0.019923 0.054067
v 0.103949 0.021669 0.054097
v 0.103871 0.023712 0.053475
v 0.079832 -0.008528 0.058348
v 0.077935 -0.012326 0.057649
v 0.078799 -0.013366 0.057440
v 0.077935 -0.010427 0.057995
v 0.081731 -0.014225 0.057262
v 0.079832 0.006638 0.058633
v 0.102594 0.012326 0.057602
v 0.100697 0.010436 0.058062
v 0.103580 0.020934 0.055041
v 0.102594 0.019923 0.055458
v 0.102231 0.015294 0.056946
v 0.102755 0.014406 0.057125
v 0.098801 0.010436 0.058065
v 0.089866 0.008537 0.058365
v 0.095008 0.010436 0.058065
v 0.074330 0.000778 0.058553
v 0.074636 -0.000444 0.058660
v 0.074139 0.004748 0.058274
v 0.074124 0.004738 0.058270
v 0.074139 -0.002840 0.058395
v 0.074139 -0.004739 0.058287
v 0.075330 -0.001274 0.058775
v 0.075643 -0.002840 0.058738
v 0.076146 -0.004720 0.058694
v 0.077977 0.006676 0.058623
v 0.077935 0.006638 0.058627
v 0.074139 0.006638 0.058133
v 0.076039 0.008537 0.058227
v 0.074139 0.008537 0.057867
v 0.074139 -0.006638 0.058136
v 0.074121 -0.008528 0.057864
v 0.076036 -0.008528 0.058230
v 0.077935 -0.008528 0.058338
v 0.077935 -0.043907 0.039408
v 0.089044 -0.042313 0.024659
v 0.089711 -0.042313 0.032042
v 0.103990 -0.000454 0.054547
v 0.104193 0.028703 0.047077
v 0.104464 0.028703 0.048374
v 0.104366 0.027510 0.050273
v 0.104372 0.023712 0.052168
v 0.104517 0.021812 0.052168
v 0.104455 0.028703 0.049080
v 0.077935 -0.014225 0.057256
v 0.076607 -0.015304 0.056950
v 0.077935 -0.018024 0.056150
v 0.076036 -0.019914 0.055431
v 0.076036 -0.021002 0.055065
v 0.076036 -0.021956 0.054658
v 0.076036 -0.025086 0.053304
v 0.076036 -0.026031 0.052884
v 0.077935 -0.026117 0.052910
v 0.077935 -0.027501 0.052188
v 0.077935 -0.028856 0.051445
v 0.077935 -0.029801 0.050908
v 0.075979 -0.031471 0.049826
v 0.076575 -0.032263 0.049332
v 0.076036 -0.029763 0.050891
v 0.077935 -0.033227 0.048713
v 0.076036 -0.035537 0.047057
v 0.077935 -0.035556 0.047070
v 0.076036 -0.034592 0.047749
v 0.076036 -0.036759 0.046109
v 0.077935 -0.037732 0.045366
v 0.078799 -0.037742 0.045366
v 0.078799 -0.038820 0.044419
v 0.077935 -0.039765 0.043578
v 0.077935 -0.041712 0.041727
v 0.076036 -0.041693 0.041703
v 0.076036 -0.042590 0.040756
v 0.076036 -0.043525 0.039744
v 0.076036 -0.043831 0.039408
v 0.104011 0.025563 0.052228
v 0.103868 0.027510 0.051610
v 0.103675 0.024905 0.053230
v 0.076036 -0.012326 0.057545
v 0.081728 0.008537 0.058351
v 0.079832 0.008537 0.058348
v 0.100697 0.012326 0.057676
v 0.102594 0.025096 0.053317
v 0.102594 0.021030 0.055085
v 0.100697 0.018023 0.056150
v 0.100697 0.019923 0.055525
v 0.100697 0.016306 0.056688
v 0.100697 0.015351 0.056963
v 0.100697 0.014225 0.057235
v 0.098801 0.012326 0.057679
v 0.096904 0.012326 0.057679
v 0.083622 0.012326 0.057666
v 0.079832 0.012326 0.057659
v 0.089866 0.010436 0.058049
v 0.074124 0.000787 0.058472
v 0.074121 -0.000778 0.058479
v 0.074327 -0.000444 0.058556
v 0.074139 0.002858 0.058381
v 0.074327 -0.000768 0.058556
v 0.074124 0.006628 0.058126
v 0.074121 -0.000444 0.058475
v 0.074124 0.002858 0.058375
v 0.074121 -0.002859 0.058388
v 0.074121 -0.004739 0.058281
v 0.077977 0.008537 0.058341
v 0.074124 0.008527 0.057864
v 0.077977 0.008575 0.058334
v 0.076039 0.012326 0.057545
v 0.074604 0.013796 0.057030
v 0.074124 0.012593 0.057141
v 0.074124 0.010703 0.057477
v 0.074121 -0.006638 0.058129
v 0.074121 -0.010704 0.057477
v 0.074604 -0.013796 0.057030
v 0.078948 -0.042313 0.024659
v 0.089863 0.047295 0.024659
v 0.104017 0.028703 0.046589
v 0.089863 0.053412 0.024659
v 0.104118 0.028703 0.050289
v 0.089863 0.053346 0.024948
v 0.089863 0.053307 0.025092
v 0.076000 -0.014340 0.057118
v 0.076000 -0.016020 0.056661
v 0.076036 -0.018024 0.056032
v 0.075345 -0.015056 0.056876
v 0.075032 -0.020897 0.055021
v 0.074580 -0.024896 0.053216
v 0.074139 -0.027501 0.051966
v 0.076036 -0.027501 0.052138
v 0.076036 -0.028818 0.051418
v 0.074121 -0.032187 0.049278
v 0.075312 -0.032225 0.049311
v 0.074121 -0.031242 0.049873
v 0.075979 -0.033008 0.048814
v 0.074139 -0.029648 0.050827
v 0.074139 -0.035480 0.047013
v 0.074139 -0.033189 0.048619
v 0.074121 -0.034535 0.047698
v 0.076036 -0.037703 0.045343
v 0.074139 -0.036701 0.046065
v 0.076036 -0.038791 0.044395
v 0.076036 -0.039746 0.043558
v 0.074121 -0.039698 0.043504
v 0.074121 -0.040672 0.042553
v 0.074139 -0.041607 0.041613
v 0.074121 -0.043621 0.039408
v 0.103946 0.028703 0.050746
v 0.103687 0.028703 0.051227
v 0.103657 0.028636 0.051321
v 0.102594 0.026050 0.052850
v 0.100697 0.026117 0.052904
v 0.100697 0.025162 0.053347
v 0.100697 0.023712 0.053993
v 0.100697 0.022051 0.054708
v 0.100697 0.021106 0.055115
v 0.098801 0.018023 0.056153
v 0.095008 0.019923 0.055528
v 0.077977 0.016363 0.056671
v 0.077977 0.015370 0.056967
v 0.077977 0.014225 0.057252
v 0.083622 0.014225 0.057249
v 0.077935 0.014225 0.057252
v 0.077977 0.012373 0.057642
v 0.074124 0.013509 0.056967
v 0.074124 0.014263 0.056789
v 0.074124 0.014397 0.056755
v 0.074124 0.016124 0.056278
v 0.074124 0.018023 0.055713
v 0.074124 0.020037 0.055091
v 0.074124 0.020562 0.054923
v 0.074124 0.021660 0.054493
v 0.074124 0.025430 0.052904
v 0.074124 0.027262 0.052070
v 0.074124 0.027491 0.051963
v 0.074124 0.028694 0.051348
v 0.074124 0.029629 0.050827
v 0.074124 0.031194 0.049873
v 0.074124 0.033179 0.048586
v 0.074124 0.034515 0.047695
v 0.074124 0.035451 0.047003
v 0.074124 0.036691 0.046048
v 0.074124 0.037646 0.045292
v 0.074124 0.038743 0.044345
v 0.074124 0.039688 0.043518
v 0.074124 0.040623 0.042560
v 0.074124 0.041559 0.041579
v 0.074124 0.043592 0.039408
v 0.074124 0.049203 0.032082
v 0.074124 0.049767 0.031135
v 0.074124 0.050797 0.029273
v 0.074124 0.051675 0.027670
v 0.074124 0.052887 0.025395
v 0.074124 0.053174 0.024803
v 0.074124 0.053241 0.024659
v 0.074121 -0.000444 0.052910
v 0.077935 0.010427 0.057995
v 0.077935 0.012326 0.057649
v 0.075994 0.014349 0.057118
v 0.075336 0.015065 0.056879
v 0.074121 -0.012584 0.057141
v 0.074121 -0.014254 0.056789
v 0.074124 -0.042313 0.032916
v 0.074124 -0.038534 0.024659
v 0.089315 0.053594 0.024659
v 0.089315 0.052897 0.026121
v 0.089863 0.053059 0.025596
v 0.074121 -0.016125 0.056264
v 0.074121 -0.020047 0.055081
v 0.074121 -0.021259 0.054651
v 0.074294 -0.021641 0.054540
v 0.074121 -0.025430 0.052904
v 0.074121 -0.027253 0.052074
v 0.074121 -0.027501 0.051959
v 0.074121 -0.028704 0.051345
v 0.074121 -0.033189 0.048612
v 0.074121 -0.029639 0.050827
v 0.074121 -0.035480 0.047003
v 0.074121 -0.037656 0.045289
v 0.074121 -0.038753 0.044338
v 0.074121 -0.036701 0.046055
v 0.074121 -0.041607 0.041602
v 0.074121 -0.037293 0.039408
v 0.089863 0.051427 0.028863
v 0.089863 0.050902 0.029810
v 0.089863 0.050005 0.031303
v 0.089863 0.049547 0.032022
v 0.089863 0.049461 0.032146
v 0.089863 0.043897 0.039408
v 0.089863 0.043573 0.039791
v 0.089863 0.041969 0.041431
v 0.089863 0.041692 0.041707
v 0.089863 0.039784 0.043588
v 0.103216 0.028703 0.051355
v 0.102594 0.027510 0.052084
v 0.100697 0.027510 0.052171
v 0.096904 0.027510 0.052178
v 0.093108 0.026126 0.052910
v 0.095008 0.025172 0.053347
v 0.089866 0.024141 0.053804
v 0.091211 0.023712 0.053993
v 0.089866 0.022538 0.054500
v 0.089866 0.021106 0.055115
v 0.089866 0.018577 0.055972
v 0.089866 0.018023 0.056153
v 0.089866 0.019923 0.055528
v 0.076601 0.015313 0.056946
v 0.077935 0.015370 0.056967
v 0.077935 0.018023 0.056150
v 0.074139 0.018023 0.055717
v 0.075032 0.020896 0.055021
v 0.074297 0.019856 0.055186
v 0.074297 0.021641 0.054544
v 0.074574 0.024895 0.053216
v 0.074139 0.027491 0.051966
v 0.076039 0.026031 0.052884
v 0.076039 0.028808 0.051418
v 0.076039 0.029762 0.050891
v 0.076039 0.027491 0.052138
v 0.076000 0.031471 0.049826
v 0.075342 0.032225 0.049308
v 0.076039 0.034582 0.047742
v 0.076039 0.035527 0.047046
v 0.076000 0.033007 0.048811
v 0.076039 0.036758 0.046099
v 0.074139 0.037646 0.045296
v 0.074139 0.038743 0.044348
v 0.074139 0.039698 0.043511
v 0.076039 0.042580 0.040722
v 0.076039 0.043525 0.039741
v 0.074139 0.041568 0.041572
v 0.076039 0.043821 0.039408
v 0.075345 0.049347 0.032146
v 0.074654 0.049251 0.032146
v 0.074127 0.049165 0.032146
v 0.074714 0.051284 0.028594
v 0.074532 0.053221 0.024891
v 0.074443 0.053307 0.024659
v 0.075994 0.016019 0.056671
v 0.076039 0.018023 0.056059
v 0.077935 0.053594 0.024659
v 0.077935 0.053355 0.025153
v 0.077935 0.052868 0.026100
v 0.089315 0.052181 0.027505
v 0.074121 -0.021775 0.054440
v 0.089315 0.051437 0.028876
v 0.089315 0.050902 0.029824
v 0.087415 0.050005 0.031303
v 0.080139 0.049461 0.032146
v 0.077935 0.043907 0.039408
v 0.077935 0.043573 0.039791
v 0.077977 0.041711 0.041723
v 0.089315 0.039784 0.043588
v 0.083622 0.037732 0.045366
v 0.089315 0.037732 0.045359
v 0.089863 0.038829 0.044408
v 0.102594 0.028703 0.051449
v 0.102466 0.028703 0.051455
v 0.100697 0.028703 0.051519
v 0.095008 0.028703 0.051529
v 0.089866 0.027510 0.052188
v 0.089866 0.026126 0.052910
v 0.089866 0.025172 0.053347
v 0.079832 0.023702 0.053982
v 0.077977 0.025181 0.053334
v 0.077935 0.021097 0.055105
v 0.077935 0.019923 0.055522
v 0.076039 0.019923 0.055441
v 0.076039 0.020992 0.055065
v 0.076039 0.023702 0.053905
v 0.076039 0.025086 0.053304
v 0.077935 0.026107 0.052910
v 0.077935 0.028856 0.051445
v 0.077977 0.029839 0.050887
v 0.077935 0.031290 0.049984
v 0.077935 0.027491 0.052188
v 0.076607 0.032263 0.049332
v 0.077935 0.033217 0.048713
v 0.077935 0.034611 0.047762
v 0.077935 0.035565 0.047073
v 0.077977 0.036796 0.046109
v 0.076039 0.037713 0.045343
v 0.076039 0.038791 0.044395
v 0.076039 0.039736 0.043558
v 0.077935 0.041711 0.041723
v 0.076039 0.041654 0.041670
v 0.076441 0.049423 0.032146
v 0.075958 0.049786 0.031481
v 0.076039 0.050826 0.029669
v 0.076039 0.052028 0.027505
v 0.076039 0.052830 0.026027
v 0.076039 0.053326 0.025079
v 0.074824 0.053365 0.024659
v 0.076616 0.053536 0.024659
v 0.077935 0.052105 0.027505
v 0.085519 0.050902 0.029787
v 0.083622 0.049996 0.031303
v 0.077935 0.049452 0.032146
v 0.076735 0.049433 0.032146
v 0.077977 0.039793 0.043558
v 0.077935 0.038820 0.044415
v 0.077935 0.037732 0.045366
v 0.085519 0.036777 0.046126
v 0.089863 0.036777 0.046122
v 0.089863 0.037722 0.045356
v 0.089863 0.038047 0.045081
v 0.089863 0.035565 0.047073
v 0.089863 0.034611 0.047762
v 0.089863 0.033217 0.048713
v 0.089863 0.032273 0.049342
v 0.089863 0.031576 0.049799
v 0.089863 0.031290 0.049984
v 0.089863 0.030240 0.050639
v 0.089863 0.029801 0.050908
v 0.089866 0.028703 0.051536
v 0.077935 0.023702 0.053979
v 0.077977 0.032292 0.049328
v 0.083622 0.032273 0.049342
v 0.079832 0.036777 0.046126
v 0.077935 0.050864 0.029733
v 0.076039 0.053508 0.024659
v 0.077935 0.049957 0.031303
f 184 262 263
f 341 340 368
f 186 113 184
f 184 263 186
f 184 113 185
f 185 112 184
f 113 112 185
f 349 261 348
f 348 292 349
f 348 261 292
f 264 263 262
f 115 56 55
f 10 34 27
f 27 81 82
f 111 112 113
f 111 54 112
f 111 113 55
f 55 54 111
f 55 56 24
f 24 54 55
f 24 28 54
f 116 115 191
f 55 113 114
f 114 115 55
f 191 115 114
f 266 264 350
f 350 267 266
f 267 192 266
f 192 264 266
f 188 264 192
f 188 114 113
f 192 114 188
f 295 375 376
f 257 178 256
f 176 178 252
f 252 246 176
f 178 257 252
f 48 43 17
f 48 101 43
f 39 37 36
f 183 261 184
f 184 112 183
f 77 27 76
f 27 71 72
f 68 69 27
f 70 71 27
f 27 69 70
f 78 27 77
f 78 79 27
f 80 81 27
f 27 79 80
f 27 82 83
f 26 24 56
f 228 157 156
f 56 115 57
f 115 116 57
f 116 85 57
f 57 85 30
f 57 26 56
f 230 158 229
f 30 85 31
f 31 8 30
f 159 158 230
f 265 192 267
f 267 293 265
f 263 264 187
f 264 188 187
f 187 188 113
f 113 186 187
f 187 186 263
f 499 444 498
f 498 459 499
f 377 378 295
f 295 376 377
f 295 378 379
f 378 442 379
f 443 442 492
f 351 427 428
f 369 352 351
f 350 426 351
f 426 427 351
f 351 267 350
f 351 352 267
f 428 475 480
f 475 474 480
f 321 400 404
f 314 313 345
f 398 318 317
f 317 396 398
f 398 396 318
f 60 61 27
f 34 10 33
f 10 32 33
f 33 89 34
f 33 32 87
f 65 27 64
f 27 63 64
f 27 61 62
f 62 63 27
f 180 181 108
f 256 178 255
f 255 254 345
f 345 254 344
f 174 227 251
f 256 255 310
f 310 255 311
f 345 313 312
f 312 255 345
f 311 255 312
f 319 400 320
f 320 400 321
f 241 242 165
f 246 252 247
f 242 241 247
f 247 241 248
f 247 252 257
f 247 257 256
f 256 310 247
f 247 310 311
f 311 312 247
f 247 312 313
f 313 314 247
f 317 318 247
f 247 318 319
f 319 320 247
f 247 320 321
f 247 321 322
f 247 340 341
f 106 178 176
f 47 48 17
f 105 106 47
f 101 48 47
f 3 14 11
f 156 157 95
f 39 36 96
f 96 95 157
f 36 95 96
f 11 14 35
f 221 183 145
f 292 261 221
f 261 183 221
f 146 183 112
f 145 183 146
f 27 74 75
f 75 76 27
f 73 74 27
f 27 72 73
f 66 27 65
f 69 68 127
f 27 83 84
f 84 28 27
f 84 83 145
f 112 54 84
f 54 28 84
f 84 146 112
f 145 146 84
f 143 82 81
f 81 142 143
f 143 83 82
f 143 142 83
f 7 26 8
f 27 28 7
f 28 24 7
f 308 254 309
f 308 344 254
f 156 161 160
f 160 228 156
f 29 57 30
f 26 57 29
f 30 8 29
f 8 26 29
f 442 443 380
f 380 379 442
f 295 379 380
f 224 229 158
f 158 149 224
f 38 95 36
f 191 114 190
f 190 116 191
f 86 38 31
f 86 85 116
f 86 31 85
f 502 503 463
f 493 494 444
f 493 443 492
f 444 443 493
f 503 502 496
f 382 383 297
f 446 383 382
f 444 499 445
f 445 382 444
f 446 382 445
f 374 435 375
f 373 435 374
f 374 375 295
f 418 333 417
f 492 442 489
f 442 490 489
f 491 490 442
f 381 443 444
f 381 382 297
f 444 382 381
f 297 380 381
f 381 380 443
f 485 468 486
f 476 475 428
f 294 352 369
f 294 293 267
f 267 352 294
f 371 372 294
f 294 372 373
f 294 374 295
f 373 374 294
f 429 351 428
f 369 351 429
f 371 294 370
f 370 294 369
f 505 481 480
f 505 480 474
f 461 404 457
f 322 321 403
f 457 404 401
f 401 400 319
f 401 404 400
f 345 396 395
f 395 314 345
f 316 396 317
f 317 247 316
f 34 91 92
f 27 34 58
f 34 92 58
f 180 259 260
f 260 181 180
f 23 32 10
f 23 10 6
f 6 22 23
f 21 22 6
f 430 356 355
f 272 354 355
f 355 356 272
f 109 108 181
f 89 33 88
f 88 150 89
f 88 33 87
f 180 108 179
f 179 108 173
f 173 170 179
f 172 170 173
f 166 101 165
f 165 242 243
f 242 245 243
f 243 166 165
f 245 166 243
f 169 166 245
f 176 246 168
f 168 167 176
f 246 247 168
f 168 247 248
f 165 101 168
f 101 167 168
f 323 247 322
f 324 247 323
f 322 403 323
f 449 501 451
f 501 449 450
f 457 401 450
f 451 388 387
f 387 449 451
f 386 449 387
f 388 301 387
f 175 105 174
f 175 106 105
f 174 251 175
f 178 106 177
f 177 255 178
f 254 255 177
f 177 175 251
f 106 175 177
f 176 167 107
f 107 106 176
f 107 167 101
f 101 47 107
f 107 47 106
f 164 240 227
f 227 226 164
f 5 16 17
f 4 3 11
f 1 3 4
f 17 16 42
f 42 47 17
f 41 42 16
f 2 3 1
f 2 7 8
f 13 37 39
f 39 14 13
f 14 3 13
f 174 105 155
f 155 227 174
f 155 226 227
f 67 68 27
f 27 66 67
f 272 356 357
f 357 356 430
f 126 200 201
f 130 73 72
f 201 200 275
f 201 275 202
f 74 73 131
f 73 130 131
f 131 130 204
f 282 211 284
f 79 78 139
f 139 80 79
f 137 78 77
f 24 26 25
f 25 7 24
f 26 7 25
f 425 453 396
f 345 424 425
f 425 396 345
f 396 453 454
f 452 388 451
f 451 454 452
f 452 454 453
f 237 308 238
f 238 164 237
f 228 160 235
f 344 308 392
f 392 424 345
f 345 344 392
f 392 425 424
f 229 224 296
f 297 229 296
f 296 380 297
f 295 380 296
f 296 224 295
f 98 160 161
f 98 161 156
f 158 159 98
f 159 160 98
f 156 95 98
f 95 38 98
f 192 265 189
f 189 114 192
f 189 190 114
f 97 149 158
f 97 86 149
f 38 86 97
f 158 98 97
f 97 98 38
f 147 190 149
f 116 190 147
f 147 86 116
f 462 502 463
f 466 504 487
f 504 466 465
f 465 410 408
f 465 466 410
f 498 444 497
f 444 496 497
f 444 494 495
f 495 496 444
f 503 496 495
f 447 383 446
f 500 499 459
f 500 445 499
f 446 445 500
f 437 376 375
f 437 377 376
f 378 377 437
f 472 418 417
f 472 435 484
f 417 435 472
f 484 505 472
f 420 333 419
f 333 418 419
f 335 419 418
f 492 489 488
f 441 442 378
f 441 491 442
f 490 491 440
f 440 489 490
f 491 441 440
f 440 441 378
f 413 468 469
f 469 468 485
f 469 470 413
f 485 470 469
f 485 486 438
f 438 470 485
f 438 486 487
f 373 372 434
f 434 435 373
f 482 434 433
f 433 372 371
f 433 434 372
f 480 481 431
f 369 429 431
f 431 370 369
f 428 480 431
f 431 429 428
f 507 482 481
f 481 505 507
f 507 505 484
f 321 404 402
f 402 403 321
f 318 396 399
f 319 318 399
f 399 401 319
f 315 247 314
f 315 316 247
f 314 395 315
f 396 316 315
f 59 60 27
f 27 58 59
f 120 64 63
f 63 62 120
f 122 66 65
f 66 122 123
f 61 60 117
f 60 59 117
f 117 59 58
f 90 152 91
f 90 91 34
f 34 89 90
f 89 150 90
f 104 172 173
f 103 172 104
f 173 108 104
f 6 19 20
f 20 21 6
f 32 23 53
f 53 23 22
f 110 109 150
f 150 88 110
f 110 88 87
f 309 254 343
f 343 342 309
f 254 342 343
f 253 342 254
f 254 177 253
f 253 177 251
f 309 342 253
f 253 240 309
f 253 251 227
f 227 240 253
f 43 101 44
f 101 45 44
f 17 43 44
f 44 45 17
f 180 179 258
f 170 250 258
f 258 179 170
f 170 172 171
f 171 172 103
f 249 245 242
f 249 169 245
f 249 250 170
f 170 169 249
f 101 166 102
f 166 169 102
f 102 169 170
f 170 171 102
f 102 171 103
f 102 45 101
f 103 45 102
f 165 168 244
f 244 168 248
f 244 241 165
f 248 241 244
f 385 449 386
f 385 450 449
f 299 385 386
f 384 385 299
f 386 387 299
f 230 229 299
f 231 160 159
f 162 96 157
f 157 228 162
f 99 162 164
f 96 162 99
f 39 96 99
f 11 35 15
f 15 4 11
f 93 155 105
f 42 41 100
f 105 47 100
f 47 42 100
f 9 2 8
f 3 2 9
f 12 13 3
f 12 9 8
f 3 9 12
f 37 13 12
f 12 36 37
f 12 38 36
f 8 31 12
f 31 38 12
f 40 14 39
f 40 35 14
f 39 99 40
f 281 362 279
f 284 211 283
f 272 357 273
f 274 275 200
f 200 273 274
f 274 273 357
f 125 67 66
f 276 202 275
f 276 203 202
f 133 75 74
f 363 282 284
f 138 137 214
f 138 139 78
f 78 137 138
f 81 80 138
f 80 139 138
f 214 137 213
f 396 454 455
f 451 501 455
f 455 454 451
f 453 425 394
f 394 452 453
f 394 392 304
f 425 392 394
f 239 308 309
f 239 238 308
f 164 238 239
f 309 240 239
f 240 164 239
f 228 235 236
f 236 162 228
f 304 392 393
f 393 305 304
f 393 392 308
f 234 235 160
f 149 190 222
f 190 189 222
f 149 86 148
f 148 147 149
f 86 147 148
f 407 464 465
f 407 465 408
f 463 464 407
f 407 462 463
f 502 462 460
f 460 403 459
f 460 459 498
f 498 497 460
f 460 496 502
f 460 497 496
f 330 412 413
f 330 329 412
f 247 329 330
f 413 412 467
f 467 468 413
f 487 486 467
f 467 486 468
f 467 466 487
f 410 466 467
f 247 326 327
f 408 410 327
f 327 326 408
f 413 470 471
f 471 414 413
f 470 414 471
f 436 414 470
f 375 435 436
f 436 435 417
f 474 418 473
f 418 472 473
f 473 505 474
f 473 472 505
f 247 333 334
f 334 335 247
f 334 333 420
f 420 419 334
f 419 335 334
f 337 338 247
f 421 418 474
f 421 335 418
f 421 474 475
f 475 476 421
f 338 337 421
f 439 440 378
f 439 488 489
f 489 440 439
f 338 421 422
f 422 421 476
f 432 431 481
f 370 431 432
f 481 482 432
f 482 433 432
f 371 370 432
f 432 433 371
f 483 434 482
f 482 507 483
f 483 507 484
f 484 435 483
f 435 434 483
f 403 402 458
f 459 403 458
f 404 461 458
f 458 402 404
f 458 500 459
f 458 461 446
f 446 500 458
f 397 395 396
f 396 315 397
f 397 315 395
f 195 194 196
f 150 109 182
f 182 109 181
f 152 90 151
f 346 260 259
f 346 347 260
f 51 104 52
f 109 110 52
f 108 109 52
f 52 104 108
f 103 104 46
f 46 45 103
f 17 45 46
f 49 18 46
f 448 385 384
f 450 385 448
f 448 447 457
f 457 450 448
f 300 387 301
f 300 299 387
f 300 301 230
f 230 299 300
f 384 299 298
f 298 383 384
f 297 383 298
f 298 229 297
f 298 299 229
f 163 164 226
f 163 99 164
f 226 155 163
f 155 99 163
f 35 40 94
f 94 99 155
f 94 40 99
f 292 291 367
f 367 291 290
f 292 221 220
f 220 291 292
f 220 221 145
f 216 213 288
f 277 283 278
f 284 283 361
f 361 283 277
f 275 274 360
f 281 276 360
f 360 276 275
f 360 362 281
f 66 123 124
f 124 125 66
f 126 125 199
f 200 126 199
f 199 198 272
f 199 124 198
f 125 124 199
f 272 273 199
f 199 273 200
f 129 130 72
f 129 72 71
f 71 70 129
f 204 203 207
f 203 276 207
f 281 279 207
f 207 276 281
f 207 131 204
f 74 131 132
f 132 133 74
f 133 132 208
f 136 137 77
f 136 210 137
f 77 76 136
f 135 208 211
f 135 136 76
f 210 136 135
f 76 75 135
f 137 210 209
f 211 282 209
f 209 135 211
f 210 135 209
f 285 286 364
f 364 286 366
f 401 399 456
f 456 450 401
f 456 399 396
f 396 455 456
f 501 450 456
f 456 455 501
f 307 236 235
f 235 234 307
f 160 231 233
f 233 234 160
f 304 305 233
f 305 234 233
f 223 222 189
f 223 265 293
f 223 189 265
f 149 222 223
f 223 224 149
f 295 224 223
f 223 294 295
f 293 294 223
f 324 323 406
f 403 460 405
f 405 460 462
f 462 406 405
f 405 323 403
f 405 406 323
f 410 467 411
f 411 327 410
f 411 467 412
f 413 414 331
f 331 330 413
f 247 330 331
f 415 436 417
f 414 436 415
f 417 333 415
f 333 416 415
f 415 331 414
f 416 331 415
f 247 335 336
f 336 337 247
f 335 421 336
f 336 421 337
f 339 422 340
f 338 422 339
f 340 247 339
f 247 338 339
f 477 422 476
f 477 479 506
f 506 478 477
f 477 478 422
f 428 427 477
f 477 476 428
f 426 479 477
f 477 427 426
f 272 196 270
f 270 196 194
f 270 269 272
f 194 269 270
f 195 196 121
f 121 123 122
f 271 194 268
f 271 269 194
f 347 353 271
f 260 347 271
f 272 269 271
f 271 353 354
f 271 354 272
f 119 194 195
f 119 118 194
f 195 120 119
f 119 120 62
f 119 62 61
f 61 118 119
f 154 92 91
f 91 152 154
f 153 90 150
f 150 182 153
f 153 151 90
f 153 182 181
f 152 151 193
f 118 154 193
f 193 154 152
f 194 118 193
f 268 194 193
f 50 104 51
f 50 46 104
f 49 46 50
f 301 303 232
f 232 231 159
f 232 159 230
f 230 301 232
f 388 452 391
f 452 394 391
f 290 291 218
f 218 289 290
f 288 289 218
f 140 214 215
f 215 216 140
f 214 213 215
f 213 216 215
f 141 142 81
f 83 142 141
f 205 279 277
f 277 278 205
f 205 207 279
f 131 207 205
f 280 283 211
f 280 278 283
f 359 360 274
f 128 129 70
f 128 70 69
f 69 127 128
f 75 133 134
f 133 208 134
f 134 135 75
f 208 135 134
f 288 213 287
f 213 285 287
f 286 285 212
f 137 209 212
f 212 213 137
f 212 285 213
f 306 307 234
f 306 234 305
f 236 307 306
f 304 233 302
f 302 233 231
f 231 232 302
f 302 232 303
f 324 406 325
f 325 247 324
f 325 326 247
f 408 326 325
f 325 407 408
f 462 407 409
f 409 406 462
f 407 325 409
f 409 325 406
f 412 329 328
f 328 411 412
f 327 411 328
f 328 329 247
f 247 327 328
f 332 416 333
f 332 331 416
f 332 333 247
f 247 331 332
f 340 422 423
f 422 478 423
f 123 121 197
f 197 121 196
f 197 196 272
f 272 198 197
f 268 193 225
f 225 193 151
f 181 260 225
f 225 153 181
f 151 153 225
f 225 271 268
f 260 271 225
f 291 220 219
f 219 218 291
f 219 220 145
f 145 218 219
f 217 216 288
f 288 218 217
f 140 216 217
f 217 218 145
f 206 132 131
f 131 205 206
f 206 208 132
f 206 205 278
f 278 280 206
f 211 208 206
f 206 280 211
f 358 274 357
f 358 359 274
f 365 285 364
f 365 287 285
f 365 289 288
f 288 287 365
f 389 391 394
f 303 391 389
f 389 302 303
f 141 217 144
f 83 141 144
f 145 83 144
f 144 217 145
f 390 389 394
f 302 389 390
f 390 394 304
f 304 302 390
f 368 340 349
f 349 292 368
f 49 19 18
f 18 19 6
f 5 18 6
f 6 1 5
f 4 5 1
f 16 5 4
f 2 1 6
f 6 10 2
f 2 10 27
f 27 7 2
f 201 127 126
f 126 127 68
f 495 494 463
f 463 503 495
f 446 461 447
f 447 461 457
f 504 465 488
f 488 465 492
f 438 437 470
f 378 437 438
f 32 53 110
f 87 32 110
f 16 4 15
f 15 41 16
f 41 15 93
f 93 15 35
f 41 93 100
f 100 93 105
f 125 126 68
f 68 67 125
f 138 214 140
f 140 81 138
f 164 162 236
f 237 164 236
f 463 494 464
f 494 493 464
f 492 465 464
f 464 493 492
f 470 437 436
f 436 437 375
f 378 438 439
f 439 438 487
f 504 488 439
f 487 504 439
f 21 51 52
f 22 21 52
f 52 110 53
f 52 53 22
f 18 5 46
f 46 5 17
f 383 447 448
f 384 383 448
f 94 93 35
f 155 93 94
f 129 203 204
f 204 130 129
f 282 363 366
f 366 286 282
f 121 120 195
f 64 120 121
f 65 64 121
f 121 122 65
f 154 118 61
f 61 117 154
f 154 58 92
f 154 117 58
f 50 19 49
f 50 20 19
f 50 51 21
f 21 20 50
f 391 303 301
f 391 301 388
f 203 129 128
f 202 203 128
f 128 127 201
f 201 202 128
f 282 286 212
f 212 209 282
f 305 393 306
f 306 393 308
f 237 236 306
f 306 308 237
f 350 264 423
f 184 261 423
f 423 262 184
f 349 340 423
f 423 261 349
f 423 264 262
f 423 426 350
f 423 479 426
f 506 479 423
f 423 478 506
f 197 124 123
f 198 124 197
f 217 81 140
f 217 141 81
f 341 368 365
f 365 249 242
f 365 368 292
f 365 259 180
f 365 355 354
f 284 361 365
f 354 353 365
f 362 360 365
f 365 247 341
f 242 247 365
f 365 279 362
f 430 355 365
f 180 258 365
f 292 367 365
f 365 358 357
f 365 357 430
f 365 346 259
f 365 258 250
f 250 249 365
f 277 279 365
f 365 363 284
f 347 346 365
f 365 353 347
f 365 367 290
f 290 289 365
f 365 361 277
f 364 366 365
f 365 366 363
f 360 359 365
f 359 358 365
