v 0.067903 0.050045 0.025526
v 0.089026 0.021735 0.017140
v 0.067903 0.049879 0.024343
v 0.038292 0.047528 0.024538
v 0.038292 0.047567 0.025614
v 0.038292 0.047567 0.025645
v 0.038292 0.047557 0.025745
v 0.038292 0.047283 0.027412
v 0.067903 0.049898 0.026155
v 0.089026 0.021735 0.024655
v 0.074109 0.036987 0.019676
v 0.091252 0.008207 0.017140
v 0.022888 0.006640 0.008461
v 0.020996 0.010431 0.008459
v 0.019103 0.014222 0.008480
v 0.017211 0.016122 0.008459
v 0.015305 0.018013 0.008466
v 0.013412 0.019913 0.008506
v 0.009627 0.021813 0.008473
v 0.067903 0.048399 0.023743
v 0.003936 0.025154 0.008997
v 0.002044 0.025232 0.008968
v 0.000304 0.025262 0.008968
v 0.000137 0.025262 0.008968
v -0.001755 0.025242 0.008968
v -0.003647 0.025164 0.008985
v -0.001769 0.038143 0.020493
v -0.003661 0.038045 0.020647
v -0.004969 0.037977 0.020781
v -0.040438 0.032109 0.025605
v -0.038866 0.031707 0.032777
v 0.038292 0.046813 0.029181
v 0.038292 0.046754 0.029398
v 0.038292 0.046666 0.029669
v 0.067903 0.049546 0.027064
v 0.089332 -0.045484 0.024655
v 0.091252 0.000841 0.019133
v 0.091252 0.002800 0.018864
v 0.091252 0.004739 0.018402
v 0.091252 0.006669 0.017809
v 0.091252 0.007982 0.017262
v 0.067903 0.049154 0.027972
v 0.067903 0.048213 0.029903
v 0.067903 0.047880 0.030555
v 0.074109 0.036977 0.029374
v 0.074109 0.035097 0.029526
v 0.005829 0.023714 0.008592
v 0.091252 -0.008221 0.017140
v 0.022888 0.004739 0.008459
v 0.011520 0.019913 0.008459
v 0.007721 0.021813 0.008459
v 0.002044 0.023714 0.008459
v 0.003936 0.023714 0.008487
v -0.001755 0.023714 0.008459
v -0.003647 0.023714 0.008475
v -0.005554 0.023714 0.008575
v -0.005554 0.025007 0.009085
v -0.009325 0.036644 0.020214
v -0.011245 0.036341 0.020426
v -0.039729 0.031707 0.024183
v -0.041009 0.030865 0.024390
v -0.041190 0.031100 0.025605
v -0.040438 0.031707 0.027500
v -0.039228 0.031707 0.031643
v -0.038949 0.031707 0.032560
v -0.039047 0.031472 0.032777
v -0.040438 0.029484 0.032781
v -0.032173 0.031707 0.032777
v 0.089332 -0.045484 0.024567
v 0.091252 -0.007966 0.017290
v 0.091252 -0.006644 0.017816
v 0.091252 -0.004743 0.018393
v 0.091252 -0.002862 0.018826
v 0.091252 -0.001824 0.019007
v 0.091252 -0.000815 0.019114
v 0.091252 0.000752 0.019133
v 0.074109 0.033196 0.029529
v 0.074109 -0.033210 0.029529
v 0.074109 -0.035110 0.029526
v 0.067903 -0.047816 0.030555
v 0.067903 -0.048442 0.029312
v 0.067903 -0.049520 0.027014
v 0.067903 -0.050029 0.025526
v -0.026148 0.000948 0.032777
v 0.089095 -0.045484 0.017140
v 0.022888 -0.006634 0.008468
v 0.022888 -0.004733 0.008459
v -0.007446 0.021813 0.008459
v -0.009339 0.021813 0.008464
v -0.011245 0.021813 0.008666
v -0.009339 0.023469 0.008973
v -0.007029 0.024821 0.009271
v -0.011245 0.023077 0.009175
v -0.014529 0.021187 0.009183
v -0.016560 0.019433 0.009137
v -0.018453 0.017650 0.009137
v -0.021904 0.013605 0.009240
v -0.042679 0.028671 0.024529
v -0.020206 0.015740 0.009137
v -0.042136 0.029689 0.025605
v -0.041051 0.030884 0.027500
v -0.040647 0.030346 0.030345
v -0.039534 0.030816 0.032777
v -0.038351 0.022666 0.032781
v -0.040271 0.029748 0.032777
v -0.040870 0.028808 0.032781
v -0.026148 -0.000933 0.032777
v -0.030614 -0.033416 0.032779
v -0.037544 -0.033416 0.032779
v 0.038292 -0.046660 0.029669
v 0.038292 -0.046748 0.029398
v 0.038292 -0.047228 0.027593
v 0.038292 -0.047463 0.026629
v 0.038292 -0.047590 0.025638
v 0.067903 -0.050020 0.024976
v 0.009627 -0.021808 0.008478
v 0.013412 -0.019917 0.008521
v 0.015305 -0.018017 0.008459
v 0.017211 -0.016116 0.008459
v 0.019103 -0.014216 0.008485
v 0.020996 -0.010435 0.008459
v 0.067903 -0.049873 0.024343
v 0.078951 -0.045484 0.017140
v 0.000304 -0.025256 0.008968
v 0.002044 -0.025236 0.008968
v 0.003936 -0.023708 0.008480
v -0.015030 0.018013 0.008459
v -0.013137 0.019913 0.008492
v -0.013012 0.021813 0.009056
v -0.015113 0.020001 0.008892
v -0.017089 0.018169 0.008866
v -0.018982 0.016269 0.008866
v -0.020791 0.014222 0.008928
v -0.022224 0.012321 0.009044
v -0.044655 0.025066 0.024450
v -0.042999 0.027505 0.024338
v -0.042720 0.028749 0.025605
v -0.044752 0.025232 0.025605
v -0.042651 0.028622 0.026895
v -0.042066 0.029307 0.027519
v -0.042386 0.026271 0.032781
v -0.040438 0.030022 0.031700
v -0.043681 -0.005478 0.032781
v -0.038616 -0.032054 0.032779
v -0.037697 -0.033416 0.032305
v -0.048982 -0.005478 0.032781
v 0.038292 -0.047551 0.024517
v -0.037989 -0.033416 0.031384
v -0.038309 -0.033416 0.030348
v -0.039158 -0.033416 0.027507
v -0.039214 -0.033416 0.027276
v -0.039464 -0.033416 0.025605
v -0.039450 -0.033416 0.025390
v 0.011520 -0.019917 0.008459
v 0.002044 -0.023708 0.008459
v 0.007721 -0.021808 0.008459
v -0.001769 -0.038137 0.020493
v -0.005554 -0.025001 0.009080
v -0.003647 -0.025158 0.008990
v -0.001755 -0.025236 0.008968
v 0.000137 -0.025256 0.008968
v -0.018829 0.014222 0.008459
v -0.020721 0.012321 0.008535
v -0.022627 0.008520 0.008533
v -0.024033 0.008520 0.009042
v -0.023782 0.009921 0.009237
v -0.044961 0.023704 0.024281
v -0.046491 0.021206 0.024505
v -0.045462 0.023704 0.025605
v -0.046464 0.021128 0.027000
v -0.045197 0.023704 0.027500
v -0.044613 0.024948 0.027500
v -0.044070 0.025898 0.027500
v -0.043848 0.025448 0.029260
v -0.043096 0.025732 0.031362
v -0.042929 0.025320 0.032781
v -0.039339 -0.031074 0.032779
v -0.040647 -0.030350 0.030345
v -0.038908 -0.032446 0.030848
v -0.049024 -0.005145 0.032781
v -0.048871 -0.006624 0.032779
v -0.048565 -0.008495 0.032779
v -0.048481 -0.008995 0.032779
v -0.048133 -0.010846 0.032779
v -0.047827 -0.012325 0.032779
v -0.047744 -0.012668 0.032779
v -0.047354 -0.014186 0.032779
v -0.046408 -0.017272 0.032779
v -0.046116 -0.018193 0.032779
v -0.045462 -0.019888 0.032779
v -0.044321 -0.022474 0.032779
v -0.043750 -0.023708 0.032779
v -0.042929 -0.025324 0.032779
v -0.042275 -0.026451 0.032779
v -0.040341 -0.029615 0.032779
v -0.039130 -0.033416 0.024429
v -0.039019 -0.033416 0.024379
v -0.004969 -0.037980 0.020781
v -0.003661 -0.038039 0.020647
v -0.039130 -0.032720 0.029398
v -0.040355 -0.031848 0.027500
v -0.040494 -0.032044 0.025605
v -0.041190 -0.031104 0.025605
v -0.042679 -0.028674 0.024529
v -0.041009 -0.030869 0.024390
v 0.000304 -0.023708 0.008459
v -0.007029 -0.024825 0.009261
v -0.009339 -0.023463 0.008968
v -0.005554 -0.023698 0.008571
v -0.009325 -0.036648 0.020214
v -0.003647 -0.023698 0.008480
v -0.001755 -0.023698 0.008459
v -0.022627 0.006630 0.008459
v -0.024520 0.000938 0.008661
v -0.024520 0.002829 0.008747
v -0.024297 0.006630 0.008968
v -0.025633 0.002829 0.009256
v -0.025536 0.004191 0.009373
v -0.048634 0.014222 0.024312
v -0.048412 0.015769 0.024476
v -0.046742 0.019913 0.024324
v -0.047827 0.018013 0.025605
v -0.047118 0.019913 0.025605
v -0.046547 0.021324 0.025605
v -0.046394 0.019100 0.030576
v -0.045462 0.019884 0.032781
v -0.044585 0.021882 0.032781
v -0.047563 0.018013 0.027500
v -0.046784 0.020040 0.027579
v -0.044474 0.024703 0.028536
v -0.043750 0.023704 0.032781
v -0.040452 -0.030026 0.031610
v -0.040995 -0.029399 0.031103
v -0.042303 -0.028038 0.029398
v -0.042066 -0.029311 0.027526
v -0.040786 -0.030536 0.029398
v -0.049177 -0.002833 0.032781
v -0.049441 -0.004724 0.031293
v -0.050123 -0.005507 0.028405
v -0.049260 -0.006624 0.031293
v -0.048954 -0.008534 0.031293
v -0.048551 -0.010552 0.031441
v -0.048217 -0.011267 0.032169
v -0.048370 -0.012325 0.030807
v -0.048259 -0.013315 0.030400
v -0.048105 -0.014696 0.029398
v -0.046436 -0.017360 0.032576
v -0.047076 -0.018017 0.029398
v -0.046408 -0.019114 0.030576
v -0.046227 -0.018624 0.031843
v -0.045921 -0.019809 0.031243
v -0.044585 -0.023061 0.030843
v -0.044474 -0.024697 0.028538
v -0.043096 -0.025736 0.031357
v -0.042665 -0.026764 0.030769
v -0.039200 -0.033200 0.024383
v -0.020206 -0.015705 0.009137
v -0.037795 -0.033416 0.023990
v -0.018411 -0.017664 0.009137
v -0.016574 -0.019447 0.009137
v -0.014543 -0.021181 0.009173
v -0.011245 -0.023071 0.009173
v -0.041051 -0.030898 0.027500
v -0.042136 -0.029693 0.025605
v -0.021876 -0.013599 0.009254
v -0.042720 -0.028733 0.025605
v -0.044752 -0.025226 0.025605
v -0.044668 -0.025060 0.024448
v -0.037586 -0.033416 0.023931
v -0.011245 -0.021808 0.008661
v -0.009339 -0.021808 0.008459
v -0.022627 -0.006624 0.008459
v -0.024520 -0.000933 0.008664
v -0.025716 0.000938 0.009171
v -0.050346 0.006640 0.024429
v -0.050234 0.008148 0.024543
v -0.048189 0.016925 0.025605
v -0.049455 0.012321 0.025605
v -0.048996 0.014222 0.025605
v -0.048481 0.015975 0.025605
v -0.046227 0.018620 0.031841
v -0.046116 0.018189 0.032781
v -0.044140 0.023694 0.031403
v -0.046436 0.017347 0.032579
v -0.048384 0.015652 0.027119
v -0.048648 0.014369 0.027650
v -0.042860 -0.027087 0.029398
v -0.043068 -0.027616 0.027526
v -0.042651 -0.028616 0.026912
v -0.049274 -0.000933 0.032781
v -0.050624 -0.000933 0.027500
v -0.050360 -0.004812 0.027667
v -0.050304 -0.006624 0.027193
v -0.050207 -0.007956 0.026817
v -0.049107 -0.010425 0.029398
v -0.049219 -0.012325 0.027500
v -0.048648 -0.014372 0.027655
v -0.047563 -0.018017 0.027500
v -0.046032 -0.021778 0.027588
v -0.046784 -0.020034 0.027588
v -0.046464 -0.021132 0.027010
v -0.045197 -0.023708 0.027500
v -0.044613 -0.024962 0.027500
v -0.044070 -0.025912 0.027500
v -0.018954 -0.016243 0.008866
v -0.020791 -0.014226 0.008935
v -0.017103 -0.018183 0.008866
v -0.015113 -0.020005 0.008887
v -0.012998 -0.021817 0.009049
v -0.022238 -0.012325 0.009054
v -0.045462 -0.023708 0.025605
v -0.046491 -0.021210 0.024500
v -0.023768 -0.009945 0.009249
v -0.013137 -0.019917 0.008485
v -0.015030 -0.018017 0.008459
v -0.022627 -0.008524 0.008542
v -0.024520 -0.002833 0.008733
v -0.018829 -0.014216 0.008459
v -0.025702 -0.000933 0.009173
v -0.050527 -0.000933 0.024293
v -0.050527 0.000938 0.024293
v -0.050471 0.002839 0.024321
v -0.050415 0.004729 0.024355
v -0.050888 0.000938 0.025605
v -0.050680 0.004729 0.025605
v -0.050499 0.006640 0.025605
v -0.050262 0.008295 0.025605
v -0.050081 0.009245 0.025605
v -0.050207 0.007962 0.026817
v -0.049219 0.012321 0.027500
v -0.046310 0.017562 0.032781
v -0.047354 0.014182 0.032781
v -0.048245 0.013320 0.030398
v -0.049274 0.000938 0.032781
v -0.050026 0.000938 0.029884
v -0.050624 0.000938 0.027500
v -0.050902 -0.000933 0.025605
v -0.050680 -0.004724 0.025605
v -0.050499 -0.006624 0.025605
v -0.050262 -0.008299 0.025605
v -0.050081 -0.009249 0.025605
v -0.049455 -0.012325 0.025605
v -0.049580 -0.010425 0.027500
v -0.048996 -0.014216 0.025605
v -0.048384 -0.015656 0.027126
v -0.048203 -0.016939 0.025605
v -0.047827 -0.018017 0.025605
v -0.047131 -0.019917 0.025605
v -0.046547 -0.021328 0.025605
v -0.020721 -0.012325 0.008544
v -0.024019 -0.008524 0.009052
v -0.048412 -0.015763 0.024474
v -0.046742 -0.019917 0.024321
v -0.024283 -0.006624 0.008968
v -0.025633 -0.002833 0.009244
v -0.050401 -0.005478 0.024383
v -0.050415 -0.004724 0.024355
v -0.050471 -0.002833 0.024321
v -0.050360 0.004808 0.027667
v -0.050304 0.006640 0.027191
v -0.049580 0.010421 0.027500
v -0.049246 0.006640 0.031293
v -0.048954 0.008520 0.031293
v -0.048370 0.012321 0.030807
v -0.047841 0.012321 0.032781
v -0.049191 0.002427 0.032781
v -0.049553 0.002839 0.031293
v -0.049441 0.004729 0.031293
v -0.050555 -0.005478 0.025148
v -0.050234 -0.008152 0.024543
v -0.048481 -0.015989 0.025605
v -0.025563 -0.004175 0.009352
v -0.048634 -0.014216 0.024309
v -0.050346 -0.006624 0.024429
v -0.050123 0.005484 0.028402
v -0.049093 0.010421 0.029395
v -0.048857 0.006640 0.032781
v -0.048565 0.008481 0.032781
v -0.048133 0.010862 0.032781
v -0.048217 0.011273 0.032172
v -0.049052 0.004729 0.032781
f 2 10 12
f 1 10 2
f 37 10 36
f 69 36 83
f 83 85 69
f 48 69 85
f 36 69 48
f 36 10 46
f 13 2 12
f 85 126 116
f 112 113 83
f 109 113 112
f 83 113 114
f 114 149 150
f 114 113 109
f 80 108 109
f 60 29 59
f 59 92 60
f 10 39 40
f 10 37 38
f 38 39 10
f 10 44 45
f 45 46 10
f 44 46 45
f 9 10 1
f 9 35 10
f 1 8 9
f 10 35 42
f 84 44 68
f 1 2 3
f 2 11 3
f 3 4 1
f 118 85 117
f 117 116 118
f 85 116 117
f 125 126 85
f 85 122 123
f 123 122 147
f 270 314 271
f 264 266 204
f 115 85 83
f 115 122 85
f 147 122 115
f 83 114 115
f 115 114 147
f 149 114 148
f 338 291 337
f 324 325 275
f 325 324 336
f 337 291 336
f 336 324 337
f 268 204 267
f 204 266 267
f 79 80 36
f 84 108 107
f 108 80 107
f 83 36 82
f 5 6 1
f 1 4 5
f 1 6 7
f 7 8 1
f 27 57 28
f 29 4 28
f 28 4 27
f 92 59 58
f 58 57 92
f 58 59 29
f 29 28 58
f 58 28 57
f 27 4 26
f 26 57 27
f 4 3 26
f 12 10 41
f 10 40 41
f 43 44 10
f 10 42 43
f 44 43 34
f 34 43 42
f 34 42 35
f 35 9 34
f 363 377 378
f 362 377 363
f 20 3 11
f 15 16 2
f 49 13 12
f 86 87 48
f 86 48 85
f 118 116 154
f 116 156 154
f 157 123 147
f 212 211 271
f 209 211 159
f 271 211 209
f 209 270 271
f 203 264 204
f 158 209 159
f 159 123 158
f 123 157 158
f 76 37 36
f 36 75 76
f 36 73 74
f 74 75 36
f 36 48 70
f 70 71 36
f 72 73 36
f 36 71 72
f 145 114 109
f 145 148 114
f 291 338 292
f 368 367 366
f 80 79 78
f 78 79 36
f 36 80 81
f 81 82 36
f 170 138 169
f 169 138 168
f 216 165 164
f 361 364 330
f 337 324 321
f 369 338 337
f 265 204 268
f 268 310 265
f 136 98 97
f 92 57 91
f 60 94 95
f 52 22 53
f 33 34 9
f 30 7 6
f 30 63 64
f 6 5 30
f 30 5 4
f 30 29 60
f 30 4 29
f 16 15 14
f 13 49 14
f 2 13 14
f 14 15 2
f 2 18 19
f 19 11 2
f 19 47 11
f 53 47 19
f 51 52 19
f 19 52 53
f 2 16 17
f 17 18 2
f 17 19 18
f 87 86 121
f 121 86 85
f 155 116 126
f 155 156 116
f 126 125 155
f 160 123 159
f 159 211 160
f 211 212 160
f 210 158 198
f 207 158 210
f 198 147 197
f 198 158 199
f 199 158 157
f 199 147 198
f 199 157 147
f 150 149 200
f 200 201 150
f 179 200 149
f 237 290 291
f 291 292 237
f 294 339 340
f 381 368 366
f 77 46 44
f 36 46 77
f 77 78 36
f 82 81 110
f 83 82 110
f 110 81 80
f 110 80 109
f 31 67 68
f 31 68 44
f 44 34 31
f 34 33 31
f 8 7 31
f 7 30 31
f 84 68 104
f 68 67 104
f 104 108 84
f 104 143 108
f 185 186 146
f 290 334 335
f 335 336 291
f 291 290 335
f 367 368 335
f 335 334 366
f 366 367 335
f 223 228 170
f 375 381 377
f 375 377 362
f 368 381 375
f 364 361 376
f 376 361 363
f 285 228 277
f 276 326 327
f 275 325 276
f 325 326 276
f 337 321 320
f 372 374 355
f 213 214 164
f 272 214 213
f 168 167 166
f 166 221 168
f 165 221 166
f 165 166 134
f 164 165 134
f 134 163 164
f 57 26 56
f 56 91 57
f 130 95 94
f 94 129 130
f 25 26 3
f 21 22 3
f 3 20 21
f 21 47 53
f 53 22 21
f 11 47 21
f 21 20 11
f 64 63 102
f 61 30 60
f 99 97 61
f 61 97 98
f 50 17 16
f 51 19 50
f 19 17 50
f 120 121 85
f 161 160 212
f 123 160 161
f 262 197 261
f 202 201 203
f 204 265 205
f 147 114 153
f 204 205 153
f 153 203 204
f 153 202 203
f 296 294 342
f 344 297 296
f 296 342 344
f 341 294 340
f 342 294 341
f 111 112 83
f 83 110 111
f 109 112 111
f 111 110 109
f 8 31 32
f 32 31 33
f 32 9 8
f 32 33 9
f 170 228 229
f 222 223 168
f 277 228 222
f 228 223 222
f 224 169 168
f 168 223 224
f 170 169 224
f 224 223 170
f 323 324 275
f 215 216 164
f 164 214 215
f 273 214 272
f 329 361 330
f 327 326 329
f 330 278 329
f 362 363 329
f 363 361 329
f 359 335 368
f 368 375 359
f 336 335 359
f 325 336 359
f 279 278 330
f 328 276 327
f 278 276 328
f 327 329 328
f 328 329 278
f 374 372 370
f 370 372 373
f 342 341 370
f 370 341 340
f 340 339 370
f 370 369 374
f 370 339 338
f 338 369 370
f 272 318 316
f 268 267 312
f 373 372 351
f 351 316 310
f 164 163 162
f 162 213 164
f 163 132 162
f 99 132 133
f 133 132 163
f 163 134 133
f 133 97 99
f 133 134 97
f 96 132 99
f 60 95 96
f 96 61 60
f 99 61 96
f 135 166 167
f 135 134 166
f 97 134 135
f 136 97 135
f 135 98 136
f 135 167 168
f 168 138 135
f 138 98 135
f 60 92 93
f 92 91 93
f 93 94 60
f 93 129 94
f 91 56 90
f 128 130 90
f 90 130 129
f 90 93 91
f 129 93 90
f 127 162 131
f 131 162 132
f 128 127 131
f 131 130 128
f 132 96 131
f 95 130 131
f 131 96 95
f 3 22 23
f 22 52 23
f 55 56 26
f 26 25 55
f 63 30 62
f 62 61 98
f 30 61 62
f 101 102 63
f 140 102 101
f 63 62 101
f 121 120 119
f 119 85 118
f 119 120 85
f 206 161 212
f 124 155 125
f 124 125 85
f 269 262 207
f 207 210 269
f 309 262 261
f 270 262 309
f 208 158 207
f 207 262 208
f 208 262 270
f 270 209 208
f 209 158 208
f 261 197 260
f 197 259 260
f 307 260 259
f 310 316 350
f 350 316 318
f 152 153 114
f 202 153 152
f 238 180 237
f 238 237 292
f 294 296 343
f 228 285 286
f 286 279 330
f 285 279 286
f 170 226 227
f 146 195 177
f 146 192 193
f 193 253 254
f 192 253 193
f 146 186 187
f 146 189 190
f 345 371 346
f 345 297 344
f 344 371 345
f 184 185 146
f 146 183 184
f 322 321 324
f 324 323 322
f 274 215 214
f 214 273 274
f 273 319 274
f 274 323 275
f 274 322 323
f 321 322 274
f 274 320 321
f 274 319 320
f 360 375 362
f 362 329 360
f 360 359 375
f 325 359 360
f 360 326 325
f 360 329 326
f 280 285 277
f 280 279 285
f 220 276 278
f 278 279 220
f 168 221 220
f 279 280 220
f 220 221 165
f 220 280 277
f 220 222 168
f 277 222 220
f 347 346 352
f 352 312 347
f 346 371 352
f 353 312 352
f 352 371 344
f 373 351 352
f 352 351 353
f 352 370 373
f 344 342 352
f 342 370 352
f 313 312 353
f 353 351 313
f 268 312 313
f 313 310 268
f 313 351 310
f 354 372 355
f 354 351 372
f 316 351 354
f 128 90 89
f 89 90 56
f 56 55 89
f 89 88 127
f 89 127 128
f 24 25 3
f 3 23 24
f 137 98 138
f 67 31 66
f 66 103 67
f 142 103 102
f 197 262 258
f 262 269 258
f 198 197 258
f 258 210 198
f 258 269 210
f 196 197 147
f 147 153 196
f 196 153 205
f 205 256 196
f 314 307 315
f 315 307 318
f 271 314 315
f 308 307 314
f 314 270 308
f 261 260 308
f 260 307 308
f 308 309 261
f 270 309 308
f 150 201 151
f 151 114 150
f 151 152 114
f 201 202 151
f 202 152 151
f 311 312 267
f 303 311 267
f 303 304 254
f 254 253 303
f 146 180 181
f 180 240 181
f 294 240 293
f 293 292 338
f 338 339 293
f 339 294 293
f 294 343 295
f 295 296 244
f 295 343 296
f 379 363 378
f 228 286 284
f 284 286 332
f 225 229 228
f 225 226 170
f 170 229 225
f 330 364 333
f 333 286 330
f 332 286 333
f 333 365 332
f 364 365 333
f 140 101 139
f 138 172 139
f 139 137 138
f 170 227 171
f 171 227 230
f 230 172 171
f 171 138 170
f 171 172 138
f 109 146 144
f 146 177 144
f 144 145 109
f 148 145 144
f 149 148 144
f 144 179 149
f 201 200 178
f 200 179 178
f 179 144 178
f 178 144 177
f 194 195 146
f 146 193 194
f 194 193 254
f 235 178 234
f 178 194 234
f 188 189 146
f 146 187 188
f 191 253 192
f 191 192 146
f 146 190 191
f 165 216 217
f 217 218 165
f 216 215 217
f 215 274 217
f 217 274 275
f 320 319 358
f 319 357 358
f 356 369 337
f 374 369 356
f 356 358 357
f 355 374 356
f 337 320 356
f 320 358 356
f 356 319 355
f 356 357 319
f 219 220 165
f 276 220 219
f 165 218 219
f 218 217 219
f 275 276 219
f 219 217 275
f 317 354 355
f 355 319 317
f 317 319 273
f 316 354 317
f 317 273 272
f 272 316 317
f 88 89 54
f 54 89 55
f 54 55 25
f 25 24 54
f 100 62 98
f 98 137 100
f 137 139 100
f 100 101 62
f 100 139 101
f 102 103 65
f 103 66 65
f 64 102 65
f 65 66 31
f 65 30 64
f 65 31 30
f 67 103 105
f 103 142 105
f 306 265 310
f 310 350 306
f 257 259 197
f 197 196 257
f 257 196 256
f 257 256 205
f 257 205 265
f 265 306 257
f 182 183 146
f 146 181 182
f 292 293 239
f 239 293 240
f 239 240 180
f 239 238 292
f 180 238 239
f 294 295 241
f 183 182 241
f 241 240 294
f 241 181 240
f 241 182 181
f 242 184 183
f 183 241 242
f 242 241 295
f 242 295 244
f 380 379 365
f 380 365 364
f 364 376 380
f 380 376 363
f 363 379 380
f 331 284 332
f 282 284 331
f 281 225 228
f 228 284 281
f 281 284 282
f 281 282 226
f 226 225 281
f 173 172 230
f 173 139 172
f 231 176 230
f 67 105 106
f 106 105 142
f 106 142 102
f 232 177 195
f 232 178 177
f 203 201 263
f 264 203 263
f 195 194 233
f 233 194 178
f 233 232 195
f 178 232 233
f 235 234 289
f 289 267 266
f 266 264 289
f 289 303 267
f 304 303 289
f 264 263 289
f 289 263 235
f 255 194 254
f 255 234 194
f 254 304 255
f 251 191 190
f 298 345 346
f 297 345 298
f 298 246 297
f 298 346 347
f 347 312 348
f 348 298 347
f 312 311 349
f 349 348 312
f 305 257 306
f 318 307 305
f 305 307 259
f 259 257 305
f 305 350 318
f 305 306 350
f 243 242 244
f 184 242 243
f 244 185 243
f 185 184 243
f 139 173 174
f 174 173 230
f 227 231 283
f 230 227 283
f 283 231 230
f 139 174 141
f 140 139 141
f 141 102 140
f 141 106 102
f 236 178 235
f 235 263 236
f 201 178 236
f 236 263 201
f 304 289 288
f 288 289 234
f 287 255 304
f 234 255 287
f 304 288 287
f 287 288 234
f 247 188 187
f 187 246 247
f 189 188 247
f 297 246 245
f 244 296 245
f 245 296 297
f 245 246 187
f 245 187 186
f 245 185 244
f 186 185 245
f 253 191 252
f 191 251 252
f 189 247 248
f 246 298 248
f 248 247 246
f 302 303 253
f 311 303 302
f 253 252 302
f 348 349 301
f 300 298 301
f 298 348 301
f 301 349 311
f 311 302 301
f 176 141 175
f 175 141 174
f 230 176 175
f 175 174 230
f 249 298 300
f 249 248 298
f 300 301 249
f 189 248 249
f 249 251 190
f 299 301 302
f 299 249 301
f 251 249 299
f 299 252 251
f 299 302 252
f 250 190 189
f 189 249 250
f 250 249 190
f 107 80 44
f 107 44 84
f 143 146 109
f 109 108 143
f 12 48 49
f 48 87 49
f 72 38 37
f 72 48 12
f 72 74 73
f 12 41 72
f 72 40 39
f 39 38 72
f 37 76 72
f 72 70 48
f 72 41 40
f 72 76 75
f 75 74 72
f 71 70 72
f 44 80 77
f 80 78 77
f 124 206 155
f 161 206 124
f 85 123 124
f 123 161 124
f 118 154 54
f 16 14 54
f 51 50 54
f 54 212 271
f 54 49 87
f 156 155 54
f 54 52 51
f 54 154 156
f 127 88 54
f 54 206 212
f 54 162 127
f 54 14 49
f 87 121 54
f 54 119 118
f 54 318 272
f 272 213 54
f 54 50 16
f 213 162 54
f 271 315 54
f 121 119 54
f 155 206 54
f 54 315 318
f 54 23 52
f 54 24 23
f 146 143 141
f 143 104 141
f 141 180 146
f 366 334 141
f 378 377 141
f 141 381 366
f 141 334 290
f 290 237 141
f 377 381 141
f 141 104 67
f 226 282 141
f 237 180 141
f 141 379 378
f 332 365 141
f 141 231 227
f 141 227 226
f 365 379 141
f 141 331 332
f 282 331 141
f 176 231 141
f 67 106 141
