v 0.066803 -0.011539 0.012436
v 0.067337 0.014790 0.012006
v 0.058223 -0.011539 0.012436
v 0.069028 -0.018789 0.012436
v 0.067714 0.016185 0.001807
v 0.067337 0.014816 0.011909
v 0.058758 0.013688 0.012006
v 0.073639 -0.052411 0.003099
v 0.057281 0.013490 0.012006
v 0.057207 0.013464 0.012006
v 0.056267 0.013086 0.012006
v 0.055846 0.012087 0.012006
v 0.055695 0.010614 0.012006
v 0.058212 -0.017230 0.012436
v 0.069028 -0.041192 0.012436
v 0.073145 -0.052411 0.004351
v 0.067714 0.016202 0.001620
v 0.067337 0.015961 0.004555
v 0.067337 0.015755 0.006776
v 0.067337 0.015660 0.007552
v 0.067337 0.015453 0.008958
v 0.067337 0.015169 0.010425
v 0.059317 0.014300 0.009779
v 0.072322 -0.063880 0.004561
v 0.073522 -0.053875 0.003099
v 0.073625 -0.053875 0.001813
v 0.073635 -0.053875 0.001620
v 0.073710 -0.053875 0.000158
v 0.073758 -0.053875 -0.001309
v 0.073777 -0.053875 -0.002771
v 0.058338 0.014231 0.009473
v 0.057292 0.013852 0.010425
v 0.056727 0.014239 0.008017
v 0.056255 0.013103 0.011892
v 0.055823 0.012078 0.011892
v 0.055695 0.009151 0.012006
v 0.055740 0.012078 0.010425
v 0.055702 0.012078 0.008958
v 0.055695 0.012078 0.007490
v 0.055694 -0.008440 -0.033542
v 0.058251 -0.049346 0.012436
v 0.066803 -0.049346 0.012436
v 0.071949 -0.063880 0.005348
v 0.067337 0.016073 0.003099
v 0.067714 0.016202 0.001456
v 0.058758 0.015092 0.001620
v 0.058758 0.015083 0.001813
v 0.058758 0.015023 0.003099
v 0.061689 0.015384 0.003099
v 0.058758 0.014911 0.004566
v 0.058758 0.014765 0.006028
v 0.058758 0.014601 0.007490
v 0.057703 0.014325 0.008493
v 0.058798 0.014386 0.008975
v 0.067918 -0.071758 -0.019145
v 0.073761 -0.053875 -0.004238
v 0.067714 0.015824 -0.005026
v 0.067714 0.015901 -0.004335
v 0.067714 0.016039 -0.002771
v 0.067714 0.016134 -0.001309
v 0.067714 0.016194 0.000158
v 0.057246 0.014145 0.008975
v 0.057246 0.014386 0.007513
v 0.057292 0.014558 0.006028
v 0.056513 0.014308 0.007037
v 0.056166 0.013258 0.010425
v 0.056134 0.013421 0.008958
v 0.055694 -0.034821 -0.040879
v 0.055697 -0.067066 -0.019145
v 0.056016 0.013550 0.006028
v 0.055936 0.013550 0.004566
v 0.055879 0.013550 0.003099
v 0.055869 0.013550 0.001813
v 0.055695 0.012078 0.003099
v 0.055695 0.007437 -0.019139
v 0.055695 0.004751 -0.023287
v 0.055695 -0.002576 -0.030618
v 0.055695 -0.005504 -0.033542
v 0.055695 -0.006976 -0.035009
v 0.055695 -0.009903 -0.036477
v 0.055694 -0.023103 -0.040879
v 0.055805 -0.068546 -0.019145
v 0.059197 -0.063880 0.008584
v 0.066831 -0.063880 0.008584
v 0.071002 -0.063880 0.006023
v 0.058758 0.015083 0.000158
v 0.057292 0.014859 0.000158
v 0.057292 0.014868 0.001813
v 0.057292 0.014816 0.003099
v 0.057292 0.014696 0.004566
v 0.058775 -0.070501 -0.019145
v 0.061351 -0.070682 -0.019519
v 0.062323 -0.070751 -0.019655
v 0.067564 -0.071052 -0.020465
v 0.067918 -0.071112 -0.020437
v 0.067918 -0.070759 -0.021128
v 0.067918 -0.069795 -0.022805
v 0.067918 -0.069588 -0.023157
v 0.067918 -0.069166 -0.023859
v 0.067918 -0.068589 -0.024726
v 0.067918 -0.067944 -0.025689
v 0.067918 -0.067410 -0.026420
v 0.067918 -0.066867 -0.027157
v 0.067918 -0.066110 -0.028131
v 0.067918 -0.065559 -0.028800
v 0.067918 -0.064741 -0.029752
v 0.067918 -0.064026 -0.030550
v 0.067918 -0.063527 -0.031100
v 0.067918 -0.063337 -0.031298
v 0.073526 -0.053875 -0.005706
v 0.067918 -0.042148 -0.043826
v 0.067918 -0.040658 -0.044205
v 0.067918 -0.039462 -0.044477
v 0.067918 -0.038799 -0.044602
v 0.067918 -0.037834 -0.044777
v 0.067918 -0.036276 -0.045015
v 0.067918 -0.034821 -0.045191
v 0.067918 -0.033349 -0.045321
v 0.067918 -0.031885 -0.045401
v 0.067918 -0.030412 -0.045446
v 0.067918 -0.030068 -0.045440
v 0.067314 -0.009886 -0.040738
v 0.067314 -0.008233 -0.039899
v 0.067314 -0.006959 -0.039185
v 0.067314 -0.006175 -0.038715
v 0.067314 -0.005262 -0.038154
v 0.067314 -0.004315 -0.037531
v 0.067314 -0.003575 -0.037026
v 0.067314 -0.003411 -0.036913
v 0.067314 -0.002464 -0.036233
v 0.067314 -0.002301 -0.036114
v 0.067314 -0.001371 -0.035395
v 0.067314 -0.000200 -0.034426
v 0.067314 0.000661 -0.033678
v 0.067714 0.011656 -0.019139
v 0.067714 0.012483 -0.017309
v 0.067714 0.013008 -0.016029
v 0.067714 0.013576 -0.014493
v 0.067714 0.014136 -0.012777
v 0.067714 0.014472 -0.011627
v 0.067714 0.014859 -0.010097
v 0.067714 0.015212 -0.008641
v 0.067714 0.015488 -0.007173
v 0.067714 0.015763 -0.005445
v 0.066863 0.015746 -0.004912
v 0.067431 0.015867 -0.004352
v 0.066479 0.015789 -0.003932
v 0.058758 0.014945 -0.002771
v 0.065169 0.015763 -0.002301
v 0.063155 0.015574 -0.001309
v 0.058758 0.015031 -0.001309
v 0.056446 0.014368 0.006028
v 0.056368 0.014437 0.004566
v 0.055697 -0.039221 -0.040879
v 0.055697 -0.043612 -0.039412
v 0.055697 -0.049484 -0.036477
v 0.055697 -0.052394 -0.035009
v 0.055697 -0.056802 -0.032086
v 0.055697 -0.064138 -0.024754
v 0.055697 -0.067066 -0.020363
v 0.055727 -0.030068 -0.042341
v 0.056310 0.014480 0.003099
v 0.056295 0.014515 0.001813
v 0.055869 0.013550 0.001620
v 0.055697 0.012078 -0.005706
v 0.055697 0.007687 -0.018890
v 0.055702 0.006223 -0.021825
v 0.055697 0.010614 -0.011570
v 0.055697 0.009151 -0.015961
v 0.055702 0.001824 -0.027689
v 0.055699 0.000343 -0.029157
v 0.055702 -0.001112 -0.030618
v 0.055711 -0.002576 -0.032080
v 0.055736 -0.004048 -0.033542
v 0.055736 -0.008440 -0.036477
v 0.055724 -0.011384 -0.037944
v 0.055695 -0.015775 -0.039412
v 0.055695 -0.021630 -0.040879
v 0.055727 -0.028957 -0.042341
v 0.055789 -0.067066 -0.021825
v 0.056087 -0.068641 -0.020460
v 0.056219 -0.069692 -0.019145
v 0.057021 -0.070174 -0.019145
v 0.057280 -0.070260 -0.019145
v 0.057292 0.014825 -0.001309
v 0.056306 0.014489 -0.001309
v 0.056295 0.014506 0.000158
v 0.057170 0.014825 0.001813
v 0.058758 -0.069881 -0.020363
v 0.067086 -0.070699 -0.021026
v 0.058758 -0.069382 -0.021287
v 0.063638 -0.069304 -0.022618
v 0.058889 -0.068142 -0.023372
v 0.058889 -0.067332 -0.024613
v 0.065583 -0.067772 -0.025434
v 0.058758 -0.066532 -0.025751
v 0.063755 -0.066359 -0.026981
v 0.061108 -0.064844 -0.028392
v 0.062082 -0.064922 -0.028482
v 0.066081 -0.065232 -0.028851
v 0.067548 -0.064715 -0.029718
v 0.060816 -0.063432 -0.029916
v 0.064619 -0.062330 -0.031729
v 0.067918 -0.062614 -0.032012
v 0.058758 -0.063260 -0.029723
v 0.058758 -0.061813 -0.031230
v 0.067918 -0.055330 -0.037893
v 0.067918 -0.054340 -0.038528
v 0.067918 -0.053617 -0.038964
v 0.067918 -0.052385 -0.039672
v 0.067918 -0.051757 -0.040018
v 0.067918 -0.051593 -0.040103
v 0.067918 -0.050879 -0.040466
v 0.067918 -0.049914 -0.040942
v 0.067918 -0.049458 -0.041163
v 0.067918 -0.048606 -0.041548
v 0.067918 -0.047891 -0.041848
v 0.067918 -0.046548 -0.042392
v 0.067918 -0.045127 -0.042902
v 0.067918 -0.044481 -0.043123
v 0.067918 -0.043698 -0.043378
v 0.067918 -0.061856 -0.032737
v 0.067918 -0.061426 -0.033140
v 0.067918 -0.061116 -0.033423
v 0.067918 -0.060315 -0.034148
v 0.067918 -0.059618 -0.034732
v 0.067918 -0.058688 -0.035491
v 0.067918 -0.057956 -0.036063
v 0.067918 -0.056949 -0.036794
v 0.067918 -0.056217 -0.037315
v 0.063764 -0.042932 -0.043095
v 0.058758 -0.040254 -0.043157
v 0.057881 -0.040030 -0.043100
v 0.058758 -0.039221 -0.043378
v 0.066081 -0.039221 -0.044296
v 0.065174 -0.037137 -0.044562
v 0.067548 -0.036276 -0.044976
v 0.062719 -0.035208 -0.044505
v 0.062289 -0.034227 -0.044562
v 0.058758 -0.033349 -0.044194
v 0.061020 -0.032401 -0.044534
v 0.058758 -0.031885 -0.044279
v 0.058758 -0.030412 -0.044318
v 0.067314 -0.028957 -0.045361
v 0.067314 -0.027502 -0.045304
v 0.067314 -0.027270 -0.045293
v 0.067314 -0.026039 -0.045202
v 0.067314 -0.024558 -0.045038
v 0.067314 -0.023094 -0.044840
v 0.067314 -0.022887 -0.044811
v 0.067314 -0.021785 -0.044624
v 0.067314 -0.021286 -0.044534
v 0.067314 -0.020270 -0.044318
v 0.067314 -0.019951 -0.044250
v 0.067314 -0.018703 -0.043956
v 0.067314 -0.017230 -0.043559
v 0.067314 -0.016085 -0.043219
v 0.067314 -0.015353 -0.042970
v 0.067314 -0.014312 -0.042602
v 0.067314 -0.012822 -0.042041
v 0.067314 -0.012633 -0.041961
v 0.067314 -0.011238 -0.041367
v 0.060696 -0.010566 -0.040177
v 0.058758 -0.009903 -0.039570
v 0.058758 -0.008681 -0.038942
v 0.060829 -0.007682 -0.038698
v 0.064619 -0.006494 -0.038528
v 0.058758 -0.005986 -0.037372
v 0.063551 -0.004711 -0.037264
v 0.066084 -0.003704 -0.036936
v 0.058758 -0.003446 -0.035644
v 0.066897 -0.001862 -0.035735
v 0.058758 -0.001758 -0.034352
v 0.061689 -0.000742 -0.033978
v 0.058758 -0.000148 -0.033015
v 0.067314 0.001350 -0.033060
v 0.067314 0.002202 -0.032250
v 0.067314 0.002831 -0.031633
v 0.067314 0.003563 -0.030862
v 0.067314 0.004234 -0.030125
v 0.067314 0.005113 -0.029134
v 0.067314 0.005603 -0.028562
v 0.067314 0.006516 -0.027400
v 0.067314 0.007050 -0.026703
v 0.067314 0.007506 -0.026057
v 0.067314 0.008247 -0.024998
v 0.067314 0.008755 -0.024233
v 0.067314 0.009736 -0.022635
v 0.067314 0.009917 -0.022324
v 0.067314 0.010330 -0.021593
v 0.067314 0.011036 -0.020284
v 0.067314 0.011605 -0.019139
v 0.066081 0.012216 -0.017423
v 0.057782 0.011389 -0.016782
v 0.063155 0.012440 -0.015961
v 0.067295 0.012750 -0.016527
v 0.064873 0.012888 -0.015394
v 0.060567 0.012870 -0.013899
v 0.065008 0.014325 -0.010981
v 0.059593 0.012801 -0.013723
v 0.058758 0.012750 -0.013547
v 0.058758 0.013344 -0.011570
v 0.064034 0.014265 -0.010754
v 0.059326 0.014308 -0.007995
v 0.058804 0.014386 -0.007179
v 0.058758 0.014610 -0.005706
v 0.058758 0.014799 -0.004238
v 0.057292 0.014601 -0.004238
v 0.057292 0.014730 -0.002771
v 0.055715 -0.040667 -0.040879
v 0.055711 -0.045067 -0.039412
v 0.055736 -0.031885 -0.042341
v 0.055754 -0.033349 -0.042341
v 0.055699 -0.048011 -0.037944
v 0.055699 -0.055330 -0.033542
v 0.055761 -0.061202 -0.029157
v 0.055782 -0.062666 -0.027689
v 0.055722 -0.065602 -0.023287
v 0.056156 -0.030412 -0.043520
v 0.056292 0.014506 0.001620
v 0.055887 0.013550 -0.001309
v 0.055702 0.012078 -0.007173
v 0.055706 0.007678 -0.019139
v 0.055748 0.004751 -0.024754
v 0.055718 0.003287 -0.026222
v 0.055754 0.009151 -0.017423
v 0.055761 0.007678 -0.020358
v 0.055711 0.010614 -0.013032
v 0.055906 0.001824 -0.029157
v 0.055904 0.000343 -0.030618
v 0.055798 -0.005504 -0.035009
v 0.055890 -0.009903 -0.037944
v 0.055743 -0.014312 -0.039412
v 0.055743 -0.018703 -0.040879
v 0.055699 -0.020175 -0.040879
v 0.055743 -0.027502 -0.042341
v 0.056161 -0.028957 -0.043508
v 0.056157 -0.030068 -0.043520
v 0.056136 -0.067109 -0.023292
v 0.056219 -0.068245 -0.021825
v 0.055832 -0.064138 -0.026222
v 0.055940 -0.065602 -0.024754
v 0.056347 -0.069485 -0.020029
v 0.056832 -0.069209 -0.021003
v 0.057308 -0.069597 -0.020460
v 0.056428 0.014386 -0.004238
v 0.056354 0.014446 -0.002771
v 0.055922 0.013550 -0.002771
v 0.057809 -0.069304 -0.021162
v 0.058758 -0.068960 -0.022012
v 0.057290 -0.068107 -0.023032
v 0.057290 -0.067625 -0.023763
v 0.057290 -0.066411 -0.025581
v 0.058758 -0.065232 -0.027423
v 0.058758 -0.064655 -0.028154
v 0.058758 -0.063923 -0.028992
v 0.058758 -0.061082 -0.031933
v 0.057290 -0.063122 -0.029570
v 0.057290 -0.062382 -0.030352
v 0.057290 -0.061658 -0.031083
v 0.057290 -0.060927 -0.031791
v 0.060586 -0.054684 -0.037264
v 0.059609 -0.054572 -0.037196
v 0.063880 -0.053143 -0.038681
v 0.057982 -0.051688 -0.038687
v 0.066081 -0.051352 -0.039978
v 0.067548 -0.050810 -0.040454
v 0.064619 -0.050422 -0.040250
v 0.062636 -0.050155 -0.040114
v 0.058758 -0.048881 -0.040205
v 0.057970 -0.048769 -0.040148
v 0.060222 -0.048011 -0.040777
v 0.066081 -0.048313 -0.041429
v 0.063985 -0.047245 -0.041599
v 0.059570 -0.045790 -0.041599
v 0.058758 -0.045635 -0.041548
v 0.066944 -0.044292 -0.043061
v 0.058758 -0.060307 -0.032664
v 0.067548 -0.061099 -0.033389
v 0.060222 -0.058843 -0.034148
v 0.058758 -0.057973 -0.034630
v 0.063840 -0.057543 -0.035757
v 0.057703 -0.056157 -0.035808
v 0.058758 -0.055330 -0.036545
v 0.058758 -0.042148 -0.042658
v 0.060222 -0.043612 -0.042415
v 0.058758 -0.043612 -0.042222
v 0.056906 -0.039660 -0.042998
v 0.057356 -0.039186 -0.043180
v 0.057290 -0.037748 -0.043440
v 0.057290 -0.042148 -0.042437
v 0.058758 -0.037748 -0.043650
v 0.064203 -0.036715 -0.044505
v 0.058758 -0.036276 -0.043882
v 0.058758 -0.034821 -0.044058
v 0.057290 -0.034821 -0.043843
v 0.057290 -0.033349 -0.043973
v 0.057290 -0.031885 -0.044052
v 0.057290 -0.030412 -0.044092
v 0.058758 -0.028957 -0.044307
v 0.060361 -0.027623 -0.044454
v 0.061087 -0.027218 -0.044528
v 0.062061 -0.026357 -0.044585
v 0.058758 -0.026039 -0.044143
v 0.060222 -0.024558 -0.044165
v 0.063902 -0.023852 -0.044539
v 0.064877 -0.023464 -0.044602
v 0.058758 -0.023103 -0.043780
v 0.065511 -0.022500 -0.044522
v 0.066488 -0.022147 -0.044585
v 0.058758 -0.021630 -0.043525
v 0.058788 -0.020123 -0.043219
v 0.058320 -0.019598 -0.043044
v 0.058788 -0.018789 -0.042896
v 0.063151 -0.017687 -0.043157
v 0.064311 -0.016697 -0.043021
v 0.065286 -0.016481 -0.043083
v 0.066084 -0.016326 -0.043140
v 0.058758 -0.014837 -0.041684
v 0.061209 -0.013666 -0.041576
v 0.062181 -0.013494 -0.041638
v 0.063151 -0.013347 -0.041706
v 0.058758 -0.012839 -0.040908
v 0.058758 -0.011591 -0.040375
v 0.058758 -0.010859 -0.040046
v 0.057290 -0.009903 -0.039332
v 0.057290 -0.008896 -0.038823
v 0.058758 -0.007949 -0.038551
v 0.058758 -0.006976 -0.037973
v 0.057634 -0.006123 -0.037281
v 0.058758 -0.005254 -0.036902
v 0.060222 -0.005090 -0.037015
v 0.058758 -0.004186 -0.036165
v 0.057290 -0.004358 -0.036041
v 0.057290 -0.003627 -0.035514
v 0.057409 -0.002499 -0.034687
v 0.057979 -0.001836 -0.034290
v 0.058758 -0.002576 -0.034987
v 0.057561 -0.000277 -0.032907
v 0.058758 0.000584 -0.032335
v 0.064911 0.002633 -0.031429
v 0.058758 0.001350 -0.031604
v 0.065128 0.004062 -0.029927
v 0.058758 0.002797 -0.030148
v 0.065504 0.005466 -0.028386
v 0.058758 0.004191 -0.028607
v 0.058174 0.005466 -0.026924
v 0.058758 0.006800 -0.025270
v 0.060892 0.006955 -0.025502
v 0.063151 0.007799 -0.024754
v 0.061689 0.008247 -0.023751
v 0.057912 0.008436 -0.022590
v 0.066084 0.009168 -0.023287
v 0.066084 0.010167 -0.021593
v 0.066937 0.011329 -0.019593
v 0.058758 0.009650 -0.020664
v 0.058758 0.010038 -0.019933
v 0.059051 0.010477 -0.019139
v 0.058758 0.010554 -0.018890
v 0.062300 0.011364 -0.018193
v 0.058758 0.011122 -0.017666
v 0.057071 0.010175 -0.019139
v 0.056614 0.009874 -0.019604
v 0.056805 0.011286 -0.016578
v 0.057294 0.011605 -0.016046
v 0.058758 0.011854 -0.015961
v 0.058758 0.012414 -0.014493
v 0.057163 0.012664 -0.013032
v 0.057565 0.012888 -0.012544
v 0.057163 0.013068 -0.011700
v 0.058758 0.013749 -0.010097
v 0.058349 0.014239 -0.007666
v 0.057749 0.014325 -0.006692
v 0.057273 0.014411 -0.005723
v 0.056501 0.014325 -0.005241
v 0.055791 -0.034821 -0.042341
v 0.055855 -0.036276 -0.042341
v 0.055787 -0.042148 -0.040879
v 0.055812 -0.046548 -0.039412
v 0.055782 -0.049484 -0.037944
v 0.056164 -0.031885 -0.043497
v 0.055702 -0.050947 -0.036477
v 0.055727 -0.053875 -0.035009
v 0.055786 -0.058275 -0.032086
v 0.055766 -0.059730 -0.030618
v 0.056147 -0.061211 -0.030624
v 0.056161 -0.062666 -0.029140
v 0.055736 0.012078 -0.008641
v 0.055835 0.006223 -0.023287
v 0.056099 0.004820 -0.026273
v 0.055803 0.010614 -0.014493
v 0.056186 0.010373 -0.017423
v 0.056191 0.008935 -0.020358
v 0.056095 0.007782 -0.021899
v 0.055825 0.012078 -0.010097
v 0.056062 0.003416 -0.027814
v 0.056297 0.004381 -0.027406
v 0.056336 0.002908 -0.029157
v 0.056363 0.001686 -0.030488
v 0.056331 0.000343 -0.031729
v 0.056056 -0.000966 -0.032228
v 0.056087 -0.002499 -0.033633
v 0.056156 -0.004057 -0.035038
v 0.056230 -0.005504 -0.036211
v 0.056072 -0.006847 -0.036613
v 0.056205 -0.008534 -0.037961
v 0.056320 -0.009903 -0.038942
v 0.056207 -0.011470 -0.039440
v 0.055924 -0.012839 -0.039412
v 0.055862 -0.017230 -0.040879
v 0.055902 -0.023103 -0.042341
v 0.055816 -0.024558 -0.042341
v 0.055770 -0.026039 -0.042341
v 0.056172 -0.027502 -0.043486
v 0.057290 -0.028957 -0.044080
v 0.056320 -0.065516 -0.026074
v 0.056366 -0.066575 -0.024754
v 0.056395 -0.067961 -0.022805
v 0.056214 -0.064104 -0.027621
v 0.057308 -0.068882 -0.021723
v 0.056166 0.013258 -0.008641
v 0.056133 0.013413 -0.007173
v 0.055996 0.013550 -0.004238
v 0.056556 -0.066334 -0.025491
v 0.057290 -0.065102 -0.027253
v 0.057290 -0.064517 -0.027989
v 0.057290 -0.063776 -0.028834
v 0.056356 -0.062175 -0.030142
v 0.056384 -0.063604 -0.028641
v 0.056363 -0.060720 -0.031593
v 0.056389 -0.059222 -0.032992
v 0.057290 -0.060143 -0.032516
v 0.058758 -0.054478 -0.037128
v 0.058758 -0.053746 -0.037576
v 0.061689 -0.052876 -0.038522
v 0.057290 -0.053548 -0.037457
v 0.057005 -0.051524 -0.038585
v 0.057411 -0.050991 -0.038942
v 0.058758 -0.049604 -0.039848
v 0.058758 -0.050947 -0.039174
v 0.060222 -0.050947 -0.039378
v 0.057405 -0.049346 -0.039757
v 0.056991 -0.048571 -0.040052
v 0.057405 -0.048054 -0.040352
v 0.057290 -0.046548 -0.040959
v 0.058758 -0.046548 -0.041185
v 0.058758 -0.048011 -0.040579
v 0.057290 -0.045316 -0.041429
v 0.057290 -0.044576 -0.041689
v 0.058758 -0.044895 -0.041797
v 0.057290 -0.059403 -0.033168
v 0.058758 -0.059566 -0.033293
v 0.058758 -0.058697 -0.034029
v 0.057290 -0.057810 -0.034494
v 0.058758 -0.057009 -0.035361
v 0.057290 -0.058542 -0.033899
v 0.056726 -0.056019 -0.035706
v 0.057246 -0.055459 -0.036199
v 0.057290 -0.043612 -0.042007
v 0.056504 -0.038678 -0.043117
v 0.056541 -0.044387 -0.041621
v 0.057290 -0.036276 -0.043673
v 0.056403 -0.037748 -0.043202
v 0.056287 -0.036276 -0.043316
v 0.056223 -0.034821 -0.043401
v 0.056187 -0.033349 -0.043457
v 0.057290 -0.027502 -0.044029
v 0.058758 -0.027502 -0.044250
v 0.057290 -0.026039 -0.043922
v 0.057290 -0.024558 -0.043775
v 0.058758 -0.024558 -0.043978
v 0.057290 -0.023103 -0.043576
v 0.057156 -0.021501 -0.043270
v 0.057556 -0.020580 -0.043151
v 0.056579 -0.020924 -0.043072
v 0.057290 -0.018703 -0.042636
v 0.057290 -0.017230 -0.042239
v 0.058758 -0.017230 -0.042460
v 0.058758 -0.015775 -0.041995
v 0.057931 -0.014992 -0.041627
v 0.058758 -0.014114 -0.041412
v 0.057290 -0.012839 -0.040681
v 0.057290 -0.011841 -0.040256
v 0.057290 -0.011109 -0.039922
v 0.056492 -0.009068 -0.038732
v 0.057290 -0.008173 -0.038420
v 0.057202 -0.006847 -0.037638
v 0.056655 -0.006270 -0.037191
v 0.057202 -0.005590 -0.036845
v 0.056407 -0.004565 -0.035893
v 0.056998 -0.001965 -0.034177
v 0.056582 -0.000389 -0.032805
v 0.057157 0.000274 -0.032313
v 0.057290 0.001204 -0.031463
v 0.063151 0.002478 -0.031276
v 0.058758 0.002082 -0.030879
v 0.058758 0.003528 -0.029344
v 0.057290 0.002650 -0.030001
v 0.057665 0.004088 -0.028505
v 0.063151 0.005276 -0.028154
v 0.056688 0.003985 -0.028380
v 0.057290 0.005362 -0.026811
v 0.057290 0.005939 -0.026080
v 0.057290 0.006671 -0.025083
v 0.057290 0.007170 -0.024346
v 0.058758 0.007291 -0.024539
v 0.056933 0.008333 -0.022437
v 0.057368 0.008729 -0.021899
v 0.057177 0.009590 -0.020301
v 0.057595 0.009960 -0.019768
v 0.058758 0.008996 -0.021825
v 0.056345 0.010106 -0.018618
v 0.056395 0.011493 -0.015610
v 0.056453 0.007050 -0.024171
v 0.056356 0.008617 -0.021462
v 0.056588 0.012810 -0.012278
v 0.057292 0.012164 -0.014493
v 0.057292 0.013516 -0.010097
v 0.057292 0.013852 -0.008641
v 0.056772 0.014231 -0.006221
v 0.056395 0.012956 -0.011304
v 0.056255 0.013111 -0.010097
v 0.055973 -0.037748 -0.042341
v 0.056145 -0.040667 -0.042143
v 0.056219 -0.042148 -0.041961
v 0.055972 -0.043612 -0.040879
v 0.056246 -0.046548 -0.040483
v 0.056212 -0.049484 -0.039106
v 0.056111 -0.050991 -0.038035
v 0.055819 -0.052394 -0.036477
v 0.055839 -0.056802 -0.033542
v 0.056170 -0.059713 -0.032080
v 0.056191 0.006223 -0.024698
v 0.056341 0.005741 -0.025819
v 0.056140 0.011949 -0.013032
v 0.056233 0.011699 -0.014493
v 0.056267 0.007325 -0.023287
v 0.056538 0.002573 -0.029910
v 0.056536 0.001100 -0.031378
v 0.056290 -0.001362 -0.033202
v 0.056322 -0.002938 -0.034568
v 0.056322 -0.007251 -0.037480
v 0.056511 -0.012021 -0.040177
v 0.056354 -0.012839 -0.040347
v 0.056172 -0.014312 -0.040630
v 0.056295 -0.017230 -0.041865
v 0.056172 -0.018703 -0.042052
v 0.056246 -0.024558 -0.043367
v 0.056200 -0.026039 -0.043435
v 0.056448 -0.064982 -0.027089
v 0.056228 -0.058197 -0.033514
v 0.056457 -0.057655 -0.034375
v 0.057290 -0.054271 -0.036998
v 0.056428 -0.053332 -0.037327
v 0.056379 -0.050543 -0.038845
v 0.056407 -0.047590 -0.040273
v 0.056403 -0.043612 -0.041746
v 0.056336 -0.023103 -0.043265
v 0.056448 -0.021897 -0.043163
v 0.056437 -0.016206 -0.041712
v 0.056954 -0.015233 -0.041531
v 0.057382 -0.015741 -0.041786
v 0.057382 -0.014424 -0.041310
v 0.057290 0.001927 -0.030737
v 0.056249 -0.052394 -0.037599
v 0.056161 -0.053840 -0.036511
v 0.056069 -0.055459 -0.035134
v 0.056271 -0.056802 -0.034687
v 0.056313 -0.055037 -0.036041
f 8 2 4
f 8 5 2
f 30 17 8
f 17 5 8
f 4 2 1
f 2 3 1
f 36 69 41
f 41 14 36
f 16 8 4
f 15 42 43
f 15 16 4
f 43 16 15
f 41 69 82
f 82 83 41
f 12 3 11
f 7 3 2
f 7 9 3
f 123 56 122
f 13 14 3
f 13 36 14
f 13 3 12
f 40 36 13
f 30 56 57
f 25 26 8
f 83 82 182
f 55 84 83
f 42 84 85
f 43 42 85
f 85 55 43
f 84 55 85
f 137 56 136
f 136 56 135
f 3 9 10
f 10 11 3
f 35 13 12
f 121 56 120
f 121 122 56
f 30 57 58
f 58 57 145
f 145 146 58
f 613 636 621
f 30 8 29
f 8 28 29
f 8 26 27
f 27 28 8
f 183 184 83
f 83 182 183
f 183 182 343
f 43 55 24
f 24 55 56
f 24 56 30
f 30 29 24
f 24 29 28
f 28 27 24
f 24 27 26
f 26 25 24
f 24 25 8
f 24 16 43
f 8 16 24
f 157 314 315
f 159 318 160
f 160 82 69
f 135 56 134
f 137 136 296
f 18 5 17
f 18 19 5
f 50 19 18
f 18 49 50
f 77 78 40
f 40 76 77
f 77 171 78
f 76 171 77
f 75 76 40
f 122 121 262
f 120 56 119
f 56 118 119
f 660 577 575
f 181 182 82
f 480 630 483
f 484 315 483
f 480 314 311
f 311 314 155
f 284 285 135
f 145 148 147
f 147 146 145
f 48 49 17
f 50 49 48
f 185 347 186
f 622 495 521
f 622 621 636
f 523 522 521
f 521 495 523
f 523 347 522
f 328 495 491
f 138 56 137
f 485 315 484
f 485 316 315
f 315 316 158
f 158 316 159
f 158 157 315
f 317 318 159
f 159 316 317
f 155 314 156
f 314 157 156
f 110 111 56
f 484 483 631
f 631 483 630
f 56 131 132
f 135 134 276
f 124 56 123
f 292 136 135
f 294 136 293
f 293 460 294
f 136 292 293
f 293 292 460
f 13 35 37
f 37 38 13
f 37 72 38
f 38 72 73
f 71 37 70
f 72 37 71
f 17 49 44
f 44 18 17
f 49 18 44
f 261 121 260
f 261 262 121
f 260 121 259
f 575 413 574
f 575 577 576
f 576 413 575
f 577 413 576
f 333 176 332
f 80 81 40
f 123 122 263
f 263 264 123
f 122 262 263
f 478 625 626
f 625 627 626
f 155 156 68
f 68 156 157
f 157 158 68
f 68 158 159
f 159 160 68
f 68 160 69
f 69 36 68
f 40 81 68
f 68 36 40
f 658 647 659
f 658 659 570
f 570 659 575
f 120 119 242
f 242 243 120
f 518 524 351
f 56 100 101
f 315 314 482
f 482 483 315
f 482 314 480
f 480 483 482
f 480 311 479
f 479 311 478
f 478 626 479
f 479 626 627
f 478 311 310
f 279 135 278
f 279 280 135
f 443 280 279
f 281 282 135
f 135 280 281
f 281 280 443
f 445 282 281
f 135 282 283
f 283 284 135
f 283 282 445
f 287 288 135
f 324 327 489
f 492 636 613
f 613 612 492
f 492 491 636
f 59 58 146
f 146 147 59
f 30 58 59
f 59 147 148
f 188 187 163
f 163 73 72
f 164 73 163
f 309 185 148
f 148 185 151
f 151 185 86
f 86 185 87
f 88 46 87
f 87 46 86
f 87 188 88
f 87 187 188
f 87 185 186
f 186 187 87
f 635 622 636
f 495 622 635
f 636 491 635
f 635 491 495
f 488 523 495
f 488 495 328
f 74 165 75
f 74 75 40
f 164 165 74
f 328 491 326
f 491 492 326
f 56 140 141
f 141 142 56
f 56 142 143
f 139 140 56
f 56 138 139
f 298 139 138
f 465 617 467
f 465 466 294
f 467 466 465
f 487 317 316
f 368 369 214
f 366 369 368
f 208 110 207
f 211 110 210
f 212 110 211
f 366 212 211
f 214 110 213
f 213 110 212
f 207 110 230
f 629 630 480
f 629 665 630
f 133 134 56
f 56 132 133
f 272 132 131
f 272 133 132
f 278 135 277
f 135 276 277
f 440 277 276
f 125 126 56
f 56 124 125
f 56 128 129
f 56 126 127
f 127 128 56
f 460 292 459
f 291 292 135
f 5 21 22
f 51 19 50
f 51 52 19
f 19 52 20
f 5 19 20
f 20 21 5
f 170 171 76
f 332 331 505
f 332 176 175
f 175 331 332
f 75 165 168
f 167 327 324
f 324 325 167
f 167 326 327
f 167 170 76
f 325 170 167
f 76 75 167
f 75 166 167
f 121 257 258
f 258 259 121
f 412 574 413
f 414 255 413
f 414 413 577
f 577 578 414
f 115 237 116
f 56 115 116
f 388 233 391
f 391 385 559
f 233 385 391
f 334 333 510
f 176 333 177
f 177 80 176
f 334 335 177
f 177 333 334
f 335 178 177
f 177 178 81
f 81 80 177
f 262 261 423
f 642 585 507
f 565 397 564
f 624 625 478
f 478 623 624
f 624 564 625
f 623 564 624
f 561 391 559
f 656 627 561
f 561 560 388
f 388 391 561
f 648 647 658
f 513 335 334
f 404 570 571
f 121 249 250
f 244 121 120
f 120 243 244
f 241 119 118
f 241 242 119
f 351 520 344
f 344 518 351
f 343 518 344
f 344 183 343
f 184 183 344
f 344 345 184
f 524 518 517
f 517 516 650
f 650 524 517
f 104 56 103
f 99 194 100
f 99 100 56
f 56 98 99
f 340 518 343
f 343 182 340
f 182 181 340
f 155 68 154
f 154 311 155
f 154 310 311
f 444 597 443
f 443 279 444
f 447 283 445
f 284 283 447
f 452 288 453
f 453 287 452
f 288 287 453
f 493 492 612
f 327 326 493
f 493 326 492
f 320 187 164
f 164 163 320
f 320 163 187
f 47 48 17
f 17 46 47
f 30 59 60
f 307 148 145
f 145 143 305
f 475 622 521
f 621 622 475
f 621 475 620
f 620 475 474
f 302 471 303
f 302 139 301
f 472 471 619
f 321 187 186
f 164 187 321
f 40 13 39
f 39 74 40
f 13 38 39
f 38 73 39
f 303 142 299
f 142 141 299
f 299 141 140
f 140 139 299
f 299 302 303
f 139 302 299
f 304 143 142
f 304 471 472
f 472 305 304
f 304 305 143
f 304 142 303
f 303 471 304
f 145 57 144
f 144 143 145
f 144 57 56
f 56 143 144
f 297 466 467
f 467 298 297
f 297 138 137
f 297 298 138
f 294 466 295
f 295 136 294
f 295 296 136
f 137 296 295
f 295 297 137
f 466 297 295
f 300 467 301
f 300 298 467
f 301 139 300
f 139 298 300
f 463 612 613
f 317 487 341
f 318 317 341
f 316 485 486
f 486 487 316
f 486 485 484
f 111 110 221
f 110 220 221
f 210 110 209
f 110 208 209
f 366 368 367
f 367 212 366
f 367 213 212
f 367 368 214
f 214 213 367
f 215 110 214
f 215 216 110
f 214 369 215
f 218 110 217
f 110 216 217
f 217 374 218
f 217 216 373
f 373 374 217
f 109 110 56
f 56 108 109
f 227 228 110
f 110 228 229
f 229 230 110
f 628 629 480
f 480 479 628
f 628 479 627
f 628 627 656
f 665 629 628
f 656 561 543
f 541 369 366
f 666 631 630
f 630 665 666
f 665 669 666
f 130 131 56
f 56 129 130
f 130 272 131
f 588 434 589
f 588 585 642
f 591 437 436
f 592 437 591
f 269 129 128
f 128 127 269
f 269 127 126
f 266 124 123
f 294 460 461
f 461 459 294
f 460 459 461
f 458 459 292
f 610 459 458
f 289 288 452
f 135 288 289
f 452 611 454
f 454 289 452
f 153 71 70
f 54 21 53
f 53 31 54
f 21 20 53
f 53 20 52
f 2 5 6
f 5 22 6
f 6 7 2
f 23 21 54
f 23 22 21
f 54 31 23
f 9 7 23
f 23 31 9
f 7 6 23
f 23 6 22
f 52 51 63
f 63 53 52
f 176 80 79
f 79 175 176
f 40 78 79
f 79 80 40
f 79 172 173
f 78 171 79
f 171 172 79
f 169 166 75
f 75 168 169
f 169 168 328
f 328 326 169
f 323 167 166
f 326 167 323
f 166 169 323
f 323 169 326
f 413 255 254
f 254 412 413
f 254 255 121
f 417 578 418
f 417 416 578
f 255 414 415
f 578 416 415
f 415 414 578
f 395 239 238
f 117 118 56
f 56 116 117
f 117 116 237
f 117 239 118
f 237 238 117
f 117 238 239
f 232 385 233
f 56 111 112
f 112 113 56
f 111 232 112
f 233 113 112
f 112 232 233
f 647 510 646
f 646 660 575
f 575 659 646
f 646 659 647
f 424 263 262
f 262 423 424
f 422 261 260
f 422 423 261
f 259 258 419
f 419 257 418
f 419 258 257
f 577 660 661
f 429 266 428
f 642 507 506
f 506 507 332
f 332 505 506
f 332 507 508
f 563 560 625
f 625 564 563
f 562 560 563
f 396 564 397
f 395 562 396
f 562 563 396
f 396 563 564
f 625 560 657
f 560 561 657
f 657 627 625
f 657 561 627
f 179 178 335
f 81 178 179
f 647 648 511
f 334 510 511
f 511 510 647
f 570 404 569
f 658 570 569
f 569 648 658
f 568 569 404
f 121 246 247
f 252 121 251
f 121 250 251
f 252 251 411
f 411 412 252
f 574 412 411
f 242 241 240
f 240 239 395
f 118 239 240
f 240 241 118
f 397 242 240
f 395 396 240
f 240 396 397
f 91 92 55
f 83 184 91
f 91 55 83
f 56 101 102
f 102 103 56
f 104 103 197
f 197 198 104
f 197 354 198
f 351 524 352
f 352 194 351
f 354 197 196
f 196 102 101
f 103 102 196
f 196 197 103
f 349 520 351
f 351 350 349
f 349 344 520
f 345 344 349
f 351 194 193
f 194 99 193
f 193 350 351
f 192 99 98
f 350 193 192
f 192 193 99
f 180 181 82
f 180 340 181
f 82 160 180
f 180 160 318
f 318 341 180
f 180 341 342
f 339 342 516
f 516 517 339
f 339 180 342
f 340 180 339
f 339 517 518
f 518 340 339
f 313 476 310
f 313 154 312
f 310 154 313
f 477 476 565
f 565 564 477
f 477 564 623
f 477 623 478
f 478 310 477
f 310 476 477
f 565 476 566
f 445 281 446
f 443 597 446
f 446 281 443
f 638 598 664
f 452 606 605
f 605 607 452
f 135 285 286
f 286 287 135
f 452 287 451
f 451 606 452
f 490 497 496
f 490 489 633
f 324 489 490
f 634 490 633
f 497 490 634
f 634 638 497
f 633 489 494
f 494 489 327
f 327 493 494
f 148 151 150
f 45 46 17
f 86 46 45
f 45 17 30
f 308 307 474
f 308 475 309
f 474 475 308
f 308 309 148
f 148 307 308
f 145 305 306
f 306 307 145
f 474 307 306
f 473 305 472
f 473 620 474
f 474 306 473
f 473 306 305
f 472 619 473
f 473 619 620
f 309 475 346
f 347 185 346
f 185 309 346
f 346 475 521
f 521 522 346
f 522 347 346
f 621 620 616
f 620 619 616
f 613 621 616
f 523 488 348
f 488 321 348
f 348 321 186
f 186 347 348
f 347 523 348
f 322 321 488
f 322 488 328
f 322 165 164
f 164 321 322
f 328 168 322
f 322 168 165
f 464 463 613
f 613 616 464
f 464 616 465
f 464 465 294
f 294 463 464
f 462 463 294
f 610 463 462
f 294 459 462
f 462 459 610
f 615 493 612
f 612 463 615
f 609 610 452
f 609 463 610
f 531 651 652
f 668 651 631
f 668 666 669
f 668 669 652
f 652 651 668
f 342 341 519
f 519 341 487
f 516 342 519
f 487 529 519
f 650 516 519
f 519 529 650
f 528 529 487
f 487 486 528
f 528 486 530
f 484 631 632
f 632 486 484
f 631 651 632
f 530 486 632
f 632 531 530
f 651 531 632
f 111 221 231
f 231 232 111
f 385 232 231
f 372 547 546
f 546 374 372
f 372 374 373
f 373 216 372
f 549 561 559
f 219 376 220
f 219 110 218
f 219 220 110
f 105 56 104
f 107 108 56
f 206 109 205
f 110 109 204
f 384 230 383
f 383 533 384
f 364 209 208
f 210 209 364
f 110 225 226
f 226 227 110
f 655 628 656
f 665 628 655
f 656 543 655
f 655 543 537
f 371 543 544
f 547 372 371
f 546 547 371
f 371 372 216
f 438 437 272
f 133 272 273
f 272 437 273
f 275 273 437
f 134 133 275
f 275 276 134
f 275 440 276
f 277 440 442
f 641 640 592
f 435 591 436
f 271 130 129
f 434 435 271
f 272 130 271
f 271 438 272
f 271 435 436
f 436 437 271
f 437 438 271
f 267 266 429
f 126 125 267
f 267 125 124
f 124 266 267
f 292 291 455
f 455 458 292
f 291 458 455
f 291 454 456
f 456 454 611
f 452 610 456
f 456 611 452
f 290 454 291
f 289 454 290
f 290 291 135
f 135 289 290
f 88 188 162
f 188 163 162
f 71 153 162
f 72 71 162
f 162 163 72
f 64 51 50
f 50 90 64
f 64 63 51
f 64 90 65
f 65 90 89
f 88 162 89
f 89 162 153
f 48 47 89
f 50 48 89
f 89 90 50
f 89 46 88
f 89 47 46
f 53 63 33
f 33 62 53
f 33 64 65
f 63 64 33
f 11 10 33
f 33 10 9
f 502 503 331
f 502 641 503
f 640 641 502
f 252 412 253
f 412 254 253
f 253 121 252
f 253 254 121
f 255 415 256
f 418 257 256
f 256 417 418
f 256 257 121
f 121 255 256
f 416 417 256
f 256 415 416
f 393 392 394
f 394 562 395
f 395 238 394
f 237 393 394
f 394 238 237
f 390 560 562
f 236 392 393
f 236 237 115
f 236 393 237
f 114 115 56
f 56 113 114
f 234 113 233
f 234 390 392
f 233 390 234
f 264 263 425
f 263 424 425
f 418 578 579
f 259 419 420
f 419 581 420
f 420 581 423
f 644 508 507
f 586 428 427
f 587 428 586
f 586 588 587
f 427 585 586
f 585 588 586
f 265 264 427
f 427 428 265
f 123 264 265
f 265 266 123
f 265 428 266
f 335 513 336
f 336 179 335
f 336 513 514
f 337 514 515
f 337 336 514
f 179 336 337
f 161 154 68
f 312 154 161
f 161 319 312
f 161 179 319
f 512 513 334
f 334 511 512
f 514 513 512
f 512 649 514
f 648 649 512
f 512 511 648
f 402 568 404
f 569 568 567
f 515 514 567
f 514 649 567
f 567 649 648
f 648 569 567
f 400 244 243
f 400 399 515
f 243 399 400
f 515 567 400
f 400 567 568
f 407 408 250
f 405 404 571
f 405 247 404
f 250 408 409
f 572 570 575
f 411 408 572
f 353 196 194
f 353 352 524
f 194 352 353
f 354 196 353
f 195 196 101
f 194 196 195
f 195 101 100
f 100 194 195
f 476 313 481
f 481 566 476
f 312 319 481
f 481 313 312
f 319 399 481
f 398 242 397
f 398 397 565
f 565 566 398
f 398 481 399
f 566 481 398
f 600 447 445
f 445 446 600
f 600 446 447
f 603 447 602
f 497 638 498
f 285 284 449
f 449 286 285
f 448 447 603
f 603 604 448
f 284 447 448
f 448 449 284
f 448 605 606
f 448 604 605
f 286 449 448
f 606 451 450
f 450 448 606
f 286 448 450
f 287 286 450
f 450 451 287
f 607 605 614
f 605 604 614
f 614 604 603
f 614 463 607
f 614 615 463
f 148 150 149
f 149 150 60
f 149 59 148
f 149 60 59
f 60 150 61
f 86 45 61
f 61 151 86
f 61 150 151
f 30 60 61
f 61 45 30
f 471 302 470
f 469 302 301
f 469 470 302
f 616 470 469
f 301 467 468
f 467 617 468
f 468 469 301
f 616 469 468
f 617 465 468
f 465 616 468
f 607 463 608
f 463 609 608
f 452 607 608
f 608 609 452
f 631 666 667
f 667 668 631
f 666 668 667
f 559 385 387
f 385 231 387
f 387 549 559
f 561 549 548
f 548 549 376
f 375 219 218
f 376 219 375
f 218 374 375
f 375 374 546
f 546 376 375
f 201 105 200
f 106 105 201
f 201 107 106
f 56 105 106
f 106 107 56
f 108 107 202
f 202 109 108
f 202 205 109
f 202 107 201
f 198 354 355
f 206 205 359
f 224 110 223
f 224 225 110
f 223 110 222
f 110 204 222
f 203 109 206
f 203 204 109
f 203 222 204
f 230 384 363
f 363 384 533
f 363 364 208
f 654 655 537
f 537 536 654
f 652 669 654
f 654 557 652
f 654 669 665
f 665 655 654
f 543 371 542
f 365 536 537
f 210 364 365
f 365 211 210
f 366 211 365
f 365 541 366
f 370 215 369
f 216 215 370
f 370 371 216
f 653 536 533
f 557 654 653
f 653 654 536
f 439 437 592
f 439 275 437
f 592 593 439
f 439 593 440
f 440 275 439
f 133 273 274
f 274 275 133
f 273 275 274
f 277 442 441
f 441 442 595
f 278 277 441
f 441 279 278
f 441 444 279
f 441 595 444
f 440 593 594
f 594 442 440
f 594 638 664
f 639 638 594
f 592 639 594
f 594 593 592
f 444 595 596
f 595 442 596
f 664 598 596
f 598 444 596
f 596 594 664
f 442 594 596
f 642 506 504
f 504 506 505
f 504 505 331
f 331 503 504
f 591 435 590
f 434 588 590
f 590 435 434
f 592 591 590
f 590 641 592
f 590 588 642
f 642 504 590
f 503 641 590
f 590 504 503
f 129 269 270
f 270 271 129
f 269 271 270
f 589 434 430
f 434 431 430
f 430 588 589
f 587 588 430
f 429 428 430
f 430 428 587
f 433 271 269
f 434 271 433
f 433 431 434
f 457 456 610
f 291 456 457
f 610 458 457
f 457 458 291
f 65 66 34
f 11 33 34
f 34 33 65
f 34 66 35
f 12 11 34
f 34 35 12
f 67 153 70
f 35 66 67
f 67 37 35
f 70 37 67
f 65 89 152
f 152 89 153
f 152 66 65
f 153 67 152
f 152 67 66
f 32 33 9
f 62 33 32
f 9 31 32
f 31 53 32
f 53 62 32
f 331 175 174
f 174 79 173
f 175 79 174
f 389 233 388
f 389 390 233
f 388 560 389
f 560 390 389
f 235 114 113
f 113 234 235
f 235 234 392
f 392 236 235
f 235 236 115
f 115 114 235
f 580 581 419
f 580 419 418
f 418 579 580
f 580 579 578
f 259 420 421
f 260 259 421
f 421 422 260
f 423 422 421
f 421 420 423
f 508 644 645
f 645 646 510
f 660 646 645
f 645 644 660
f 319 179 338
f 179 337 338
f 338 337 515
f 515 399 338
f 338 399 319
f 404 247 403
f 403 402 404
f 403 247 246
f 246 402 403
f 245 402 246
f 244 402 245
f 245 246 121
f 121 244 245
f 568 402 401
f 401 400 568
f 401 402 244
f 244 400 401
f 247 405 248
f 248 249 121
f 121 247 248
f 410 408 411
f 410 409 408
f 410 411 251
f 410 251 250
f 250 409 410
f 573 572 575
f 411 572 573
f 575 574 573
f 574 411 573
f 350 192 191
f 192 96 191
f 96 190 191
f 191 349 350
f 97 192 98
f 97 96 192
f 97 98 56
f 56 96 97
f 601 602 447
f 638 634 601
f 603 602 601
f 601 614 603
f 634 614 601
f 173 172 330
f 330 174 173
f 330 172 171
f 330 502 331
f 331 174 330
f 500 639 592
f 592 640 500
f 615 614 637
f 633 494 637
f 637 634 633
f 637 614 634
f 637 494 493
f 493 615 637
f 618 616 619
f 618 470 616
f 618 619 471
f 471 470 618
f 376 549 550
f 549 387 550
f 386 387 231
f 386 550 387
f 545 376 546
f 545 548 376
f 545 371 544
f 546 371 545
f 544 543 545
f 545 543 561
f 561 548 545
f 198 201 199
f 201 200 199
f 199 200 105
f 104 198 199
f 199 105 104
f 356 201 198
f 356 202 201
f 205 202 356
f 198 355 356
f 354 353 525
f 525 355 354
f 525 353 524
f 361 532 378
f 530 531 361
f 531 532 361
f 228 227 382
f 382 229 228
f 382 555 383
f 383 230 382
f 230 229 382
f 378 532 551
f 551 531 652
f 551 532 531
f 223 222 379
f 379 222 378
f 379 224 223
f 379 378 225
f 225 224 379
f 357 203 206
f 222 203 357
f 378 222 357
f 206 361 357
f 357 361 378
f 207 230 362
f 230 363 362
f 362 208 207
f 362 363 208
f 538 542 371
f 371 365 538
f 538 365 537
f 537 543 538
f 543 542 538
f 535 365 364
f 533 536 534
f 536 365 534
f 365 535 534
f 534 363 533
f 364 363 534
f 534 535 364
f 539 365 371
f 371 370 539
f 539 370 369
f 383 557 558
f 557 653 558
f 558 533 383
f 558 653 533
f 268 430 431
f 268 269 126
f 126 267 268
f 268 267 429
f 429 430 268
f 426 585 427
f 426 584 585
f 425 584 426
f 427 264 426
f 264 425 426
f 585 584 643
f 643 507 585
f 643 644 507
f 643 661 660
f 660 644 643
f 423 581 582
f 581 580 582
f 661 643 582
f 662 578 577
f 662 580 578
f 577 661 662
f 661 580 662
f 332 508 509
f 508 645 509
f 509 333 332
f 509 510 333
f 509 645 510
f 406 248 405
f 408 407 406
f 249 248 406
f 571 408 406
f 406 405 571
f 406 250 249
f 406 407 250
f 94 190 96
f 189 191 190
f 92 91 189
f 184 345 189
f 189 91 184
f 345 349 189
f 349 191 189
f 599 446 597
f 598 638 599
f 638 601 599
f 447 446 599
f 599 601 447
f 597 444 599
f 599 444 598
f 496 497 329
f 497 498 329
f 324 490 329
f 329 490 496
f 329 325 324
f 329 170 325
f 171 170 329
f 329 330 171
f 640 502 501
f 502 330 501
f 501 500 640
f 330 500 501
f 377 386 231
f 377 221 220
f 377 231 221
f 550 386 377
f 220 376 377
f 376 550 377
f 526 356 355
f 355 525 526
f 650 529 526
f 526 524 650
f 526 525 524
f 206 359 360
f 360 361 206
f 530 361 360
f 360 528 530
f 360 359 528
f 227 226 381
f 381 382 227
f 555 382 381
f 541 365 540
f 365 539 540
f 369 541 540
f 540 539 369
f 269 268 432
f 432 268 431
f 432 433 269
f 431 433 432
f 583 643 584
f 583 582 643
f 583 425 424
f 583 584 425
f 583 424 423
f 423 582 583
f 663 580 661
f 661 582 663
f 663 582 580
f 55 94 95
f 95 94 96
f 56 55 95
f 95 96 56
f 92 189 93
f 93 189 190
f 190 94 93
f 55 92 93
f 93 94 55
f 499 500 330
f 330 329 499
f 499 329 498
f 499 498 638
f 499 638 639
f 639 500 499
f 358 359 205
f 205 356 358
f 529 528 358
f 528 359 358
f 652 557 554
f 554 557 383
f 383 555 554
f 555 381 554
f 356 526 527
f 527 358 356
f 527 526 529
f 529 358 527
f 378 551 552
f 381 553 556
f 556 554 381
f 556 552 551
f 553 552 556
f 556 551 652
f 652 554 556
f 380 552 553
f 380 226 225
f 225 378 380
f 378 552 380
f 380 381 226
f 380 553 381
f 15 14 41
f 41 42 15
f 4 1 15
f 3 14 15
f 15 1 3
f 84 42 41
f 41 83 84
f 164 74 39
f 39 73 164
f 390 394 392
f 562 394 390
f 81 179 161
f 161 68 81
f 572 408 571
f 571 570 572
f 398 399 243
f 243 242 398
