v 0.060847 -0.025470 0.030560
v 0.060847 -0.025889 0.042628
v 0.061897 -0.025573 0.030560
v 0.056593 -0.025644 0.029678
v 0.036725 -0.026173 0.044446
v 0.038292 -0.026116 0.044446
v 0.060899 -0.025897 0.042628
v 0.062597 -0.026227 0.042628
v 0.062781 -0.025755 0.030560
v 0.027403 -0.028232 0.044446
v 0.089039 -0.042324 0.024663
v 0.074116 -0.052177 0.019394
v 0.038082 -0.043252 0.024294
v 0.000297 -0.050552 0.024216
v 0.000306 -0.035323 0.044446
v 0.063551 -0.026632 0.042628
v 0.038292 -0.039303 0.044446
v 0.074116 -0.032824 0.042625
v 0.063656 -0.026003 0.030560
v 0.089713 -0.042324 0.032037
v 0.089713 -0.046967 0.024663
v 0.074116 -0.052727 0.019343
v 0.064575 -0.026580 0.030560
v 0.036182 -0.044590 0.023945
v 0.000297 -0.052177 0.023773
v 0.000297 -0.050686 0.024176
v 0.000297 -0.049581 0.025719
v 0.000297 -0.049347 0.026638
v 0.000297 -0.047782 0.034121
v 0.000306 -0.047938 0.044446
v 0.019124 -0.045564 0.044446
v 0.074116 -0.040604 0.042625
v 0.089713 -0.042324 0.039396
v 0.089713 -0.053552 0.024663
v 0.074116 -0.053920 0.019999
v 0.000297 -0.053760 0.024216
v 0.000297 -0.052320 0.023813
v 0.000297 -0.053034 0.034121
v 0.000306 -0.048004 0.044380
v 0.002039 -0.048138 0.044348
v 0.002039 -0.048038 0.044446
v 0.017216 -0.046167 0.044446
v 0.089713 -0.043907 0.039396
v 0.016533 -0.046358 0.044446
v 0.015281 -0.046700 0.044446
v 0.013426 -0.047141 0.044446
v 0.011535 -0.047497 0.044446
v 0.089713 -0.053350 0.025115
v 0.089310 -0.053604 0.024663
v 0.074116 -0.053954 0.020026
v 0.000297 -0.053826 0.024336
v 0.000297 -0.053293 0.032990
v 0.001400 -0.053111 0.034079
v 0.000306 -0.052809 0.035079
v 0.000306 -0.052303 0.036991
v 0.000306 -0.052248 0.037153
v 0.000306 -0.051582 0.039038
v 0.000306 -0.051423 0.039438
v 0.000306 -0.051010 0.040293
v 0.000306 -0.050794 0.040664
v 0.000306 -0.049760 0.042318
v 0.000306 -0.049034 0.043267
v 0.000306 -0.048083 0.044296
v 0.002039 -0.049086 0.043331
v 0.003938 -0.049105 0.043355
v 0.003938 -0.048155 0.044365
v 0.003938 -0.048078 0.044446
v 0.002231 -0.048044 0.044446
v 0.089713 -0.045154 0.037947
v 0.009636 -0.047759 0.044446
v 0.009636 -0.047995 0.044213
v 0.009636 -0.048946 0.043149
v 0.089713 -0.052026 0.027781
v 0.089310 -0.053376 0.025171
v 0.074116 -0.054187 0.021685
v 0.007255 -0.051263 0.039900
v 0.005837 -0.051736 0.038885
v 0.005837 -0.052385 0.036991
v 0.003938 -0.052918 0.035175
v 0.005006 -0.053157 0.034123
v 0.003938 -0.053393 0.033194
v 0.003938 -0.053809 0.031300
v 0.003938 -0.054159 0.029403
v 0.003938 -0.054463 0.027506
v 0.002039 -0.054555 0.025609
v 0.000297 -0.054452 0.025609
v 0.000297 -0.053652 0.031300
v 0.002039 -0.053769 0.031300
v 0.002039 -0.053316 0.033344
v 0.001435 -0.053103 0.034123
v 0.002039 -0.052935 0.034941
v 0.002039 -0.052388 0.036991
v 0.002039 -0.051730 0.038885
v 0.000621 -0.051258 0.039893
v 0.002039 -0.050757 0.040910
v 0.002039 -0.049809 0.042385
v 0.003938 -0.049826 0.042407
v 0.005837 -0.049088 0.043335
v 0.005837 -0.048140 0.044348
v 0.005837 -0.048044 0.044446
v 0.089713 -0.045350 0.037716
v 0.007737 -0.047935 0.044446
v 0.007737 -0.048083 0.044296
v 0.007737 -0.049031 0.043264
v 0.007737 -0.049757 0.042316
v 0.009636 -0.049669 0.042203
v 0.089713 -0.046108 0.036767
v 0.089713 -0.051352 0.029066
v 0.089310 -0.052194 0.027506
v 0.089310 -0.052906 0.026118
v 0.003938 -0.054552 0.025609
v 0.007824 -0.050802 0.040635
v 0.005837 -0.050757 0.040910
v 0.005837 -0.051295 0.039962
v 0.089713 -0.050925 0.029816
v 0.003938 -0.051770 0.038885
v 0.003938 -0.052425 0.036991
v 0.002669 -0.053140 0.034207
v 0.003938 -0.053171 0.034123
v 0.002608 -0.053160 0.034121
v 0.002039 -0.054125 0.029403
v 0.002039 -0.054452 0.027506
v 0.000297 -0.054443 0.025771
v 0.000297 -0.054011 0.029403
v 0.002039 -0.051295 0.039959
v 0.003938 -0.051312 0.039994
v 0.003938 -0.050774 0.040942
v 0.005837 -0.049809 0.042385
v 0.006039 -0.048032 0.044446
v 0.089713 -0.050016 0.031297
v 0.089713 -0.049373 0.032305
v 0.089713 -0.047059 0.035509
v 0.089713 -0.050737 0.030138
v 0.000297 -0.054344 0.027506
f 14 15 4
f 5 1 4
f 14 4 13
f 5 4 10
f 10 4 15
f 12 11 22
f 4 11 12
f 12 13 4
f 27 15 14
f 6 1 5
f 6 2 1
f 20 11 23
f 23 19 20
f 11 19 23
f 1 2 3
f 3 4 1
f 16 19 8
f 8 6 16
f 14 13 24
f 24 12 14
f 13 12 24
f 22 11 21
f 21 34 22
f 21 11 20
f 16 6 18
f 18 19 16
f 2 6 7
f 6 8 7
f 7 3 2
f 7 8 3
f 9 8 19
f 3 8 9
f 4 3 9
f 9 11 4
f 9 19 11
f 30 40 41
f 63 40 39
f 39 40 30
f 123 85 122
f 122 134 123
f 85 50 75
f 75 111 85
f 68 40 67
f 68 41 40
f 25 12 22
f 35 36 22
f 50 36 35
f 22 34 35
f 34 50 35
f 85 123 86
f 15 27 28
f 28 29 15
f 74 110 76
f 64 40 63
f 20 19 33
f 19 18 33
f 32 17 31
f 47 43 32
f 69 43 72
f 72 43 71
f 112 76 115
f 22 36 37
f 37 25 22
f 14 12 26
f 12 25 26
f 85 86 51
f 51 50 85
f 51 36 50
f 84 83 122
f 111 75 84
f 122 85 84
f 85 111 84
f 121 134 122
f 122 83 121
f 121 83 82
f 82 88 121
f 89 52 88
f 115 76 108
f 76 73 108
f 76 110 109
f 109 73 76
f 110 73 109
f 49 74 76
f 78 79 49
f 82 83 49
f 83 84 49
f 49 84 75
f 49 50 34
f 49 75 50
f 48 49 34
f 74 49 48
f 48 73 110
f 110 74 48
f 62 64 63
f 32 31 42
f 32 45 46
f 46 47 32
f 71 43 70
f 43 47 70
f 106 131 132
f 88 52 87
f 82 49 81
f 81 88 82
f 52 89 53
f 77 49 76
f 78 49 77
f 44 45 32
f 32 42 44
f 107 72 106
f 106 132 107
f 67 99 100
f 104 72 71
f 65 64 96
f 40 64 65
f 65 98 99
f 133 112 115
f 133 130 112
f 105 130 131
f 105 131 106
f 112 130 105
f 106 72 105
f 72 104 105
f 105 104 98
f 98 128 105
f 134 121 124
f 124 121 88
f 88 87 124
f 52 53 38
f 38 62 63
f 63 39 38
f 38 39 30
f 78 77 117
f 117 77 116
f 117 79 78
f 80 49 79
f 80 81 49
f 120 89 88
f 88 81 120
f 96 64 61
f 64 62 61
f 62 38 61
f 61 38 60
f 116 126 125
f 125 93 116
f 114 77 76
f 114 126 116
f 116 77 114
f 69 72 101
f 72 107 101
f 71 70 102
f 66 99 67
f 66 65 99
f 67 40 66
f 40 65 66
f 113 128 127
f 112 105 113
f 113 105 128
f 76 112 113
f 113 114 76
f 113 127 126
f 126 114 113
f 96 127 97
f 127 128 97
f 97 65 96
f 98 65 97
f 97 128 98
f 58 38 57
f 57 93 58
f 91 55 54
f 55 38 54
f 54 38 53
f 116 93 92
f 92 117 116
f 92 55 91
f 91 79 92
f 79 117 92
f 119 80 79
f 81 80 119
f 58 93 94
f 93 125 94
f 95 127 96
f 95 94 125
f 126 127 95
f 95 125 126
f 96 61 95
f 95 61 60
f 99 98 103
f 98 104 103
f 103 104 71
f 71 102 103
f 56 38 55
f 56 57 38
f 93 57 56
f 55 92 56
f 56 92 93
f 91 54 90
f 90 54 53
f 90 120 91
f 90 53 89
f 89 120 90
f 118 120 81
f 81 119 118
f 118 119 79
f 118 79 91
f 91 120 118
f 59 95 60
f 94 95 59
f 58 94 59
f 59 38 58
f 60 38 59
f 129 103 102
f 129 100 99
f 99 103 129
f 32 18 17
f 17 18 6
f 33 18 32
f 32 43 33
f 38 123 134
f 38 27 14
f 14 26 38
f 38 37 36
f 36 51 38
f 38 28 27
f 38 86 123
f 29 28 38
f 25 37 38
f 38 26 25
f 38 51 86
f 134 124 38
f 38 87 52
f 38 124 87
f 38 30 15
f 15 29 38
f 101 133 115
f 101 21 20
f 20 33 101
f 34 21 101
f 101 43 69
f 115 108 101
f 101 33 43
f 101 48 34
f 101 108 73
f 73 48 101
f 101 132 131
f 131 130 101
f 101 107 132
f 130 133 101
f 129 6 5
f 5 10 129
f 129 10 15
f 129 31 17
f 15 30 129
f 129 17 6
f 30 41 129
f 129 68 67
f 41 68 129
f 129 46 45
f 45 44 129
f 129 42 31
f 47 46 129
f 129 70 47
f 129 44 42
f 67 100 129
f 129 102 70
