v 0.000109 0.027504 0.030257
v 0.000109 0.027115 0.030990
v 0.001579 0.027499 0.030246
v 0.000036 0.027504 0.029371
v -0.002127 0.027493 0.030232
v -0.001356 0.027496 0.030244
v -0.001356 0.027110 0.030977
v 0.001579 0.027107 0.030979
v -0.001356 0.026378 0.032162
v 0.000109 0.026384 0.032171
v 0.002322 0.027487 0.030225
v 0.002322 0.027487 0.030153
v 0.001512 0.027499 0.029594
v -0.000506 0.027484 0.028803
v -0.001356 0.027496 0.029714
v -0.002127 0.027493 0.029986
v 0.000981 0.027490 0.028752
v 0.000472 0.027490 0.028752
v -0.002172 0.027484 0.030181
v -0.002172 0.027467 0.030272
v -0.002172 0.027110 0.030879
v -0.002172 0.026674 0.031599
v -0.002172 0.026349 0.032127
v 0.001579 0.026375 0.032159
v 0.003043 0.026312 0.032076
v 0.002904 0.027089 0.030811
v -0.001356 0.026361 0.032184
v -0.002172 0.026306 0.032184
v 0.000087 0.026373 0.032184
v 0.000109 0.026373 0.032184
v 0.001579 0.026355 0.032184
v 0.004508 0.026767 0.030955
v 0.006073 0.026422 0.031082
v 0.007442 0.026268 0.030684
v 0.005978 0.026828 0.029490
v 0.001959 0.027467 0.029175
v 0.002904 0.027351 0.029594
v -0.002172 0.026698 0.028475
v -0.001356 0.027475 0.028980
v 0.019621 0.021738 0.022217
v -0.002172 0.027417 0.029292
v -0.002172 0.027484 0.029952
v 0.020102 0.021738 0.022217
v 0.003043 0.026225 0.032184
v 0.004094 0.026065 0.032184
v 0.004508 0.026201 0.031936
v -0.002172 0.016831 0.032184
v 0.005648 0.026103 0.031805
v 0.006621 0.026001 0.031654
v 0.007442 0.025865 0.031418
v 0.008923 0.025662 0.030905
v 0.008443 0.026106 0.030383
v 0.007442 0.026477 0.029490
v 0.008409 0.026091 0.028686
v -0.002172 0.025287 0.028194
v 0.018889 0.021329 0.022217
v 0.018850 0.021300 0.022217
v 0.018163 0.020598 0.022217
v 0.054929 0.008809 0.023123
v 0.037329 0.010893 0.022273
v 0.020845 0.021219 0.022217
v 0.008549 0.026137 0.029490
v 0.009281 0.025871 0.029490
v 0.004508 0.026001 0.032184
v 0.020639 0.005109 0.032184
v -0.002172 0.023082 0.028749
v 0.017419 0.016201 0.022217
v 0.019923 0.014123 0.022217
v 0.043488 -0.002143 0.023131
v 0.005151 0.025885 0.032184
v 0.005944 0.025725 0.032184
v 0.006201 0.025664 0.032184
v 0.008649 0.024922 0.032184
v 0.008907 0.024840 0.032184
v 0.008907 0.024895 0.032117
v 0.010002 0.024704 0.031885
v 0.010444 0.025032 0.031046
v 0.011550 0.024785 0.030618
v 0.010371 0.025456 0.029490
v -0.002172 0.023764 0.028485
v 0.017402 0.019408 0.022217
v 0.016614 0.017957 0.022217
v 0.016765 0.017208 0.022217
v 0.054929 0.008688 0.023347
v 0.054929 0.003281 0.023123
v 0.037329 0.005861 0.022273
v 0.020940 0.021140 0.022217
v 0.020935 0.004964 0.032184
v 0.020940 0.013641 0.022217
v 0.032371 0.007776 0.022273
v 0.022567 0.012521 0.022273
v 0.021533 0.013026 0.022273
v 0.043488 -0.002128 0.023123
v 0.043628 -0.002143 0.023123
v 0.043533 -0.002143 0.028090
v 0.037329 -0.000245 0.031540
v 0.009667 0.024573 0.032184
v 0.010259 0.024327 0.032184
v 0.010706 0.024118 0.032184
v 0.010980 0.024495 0.031595
v 0.054929 0.008261 0.024079
v 0.054929 -0.000463 0.028090
v 0.048770 -0.002143 0.023123
v 0.036876 0.005997 0.022273
v 0.020935 0.016860 0.032184
v 0.036747 0.006041 0.022273
v 0.035216 0.006581 0.022273
v 0.034808 0.006734 0.022273
v 0.034020 0.007042 0.022273
v 0.033723 0.007164 0.022273
v 0.048748 -0.002143 0.028090
v 0.037329 0.007303 0.031540
v 0.011942 0.023520 0.032184
v 0.054929 0.005562 0.028090
v 0.054929 0.005815 0.027738
v 0.054929 0.006102 0.027324
v 0.054929 0.006549 0.026665
v 0.054929 0.007602 0.025093
v 0.020421 0.017312 0.032184
v 0.015966 0.021001 0.032184
v 0.017017 0.020203 0.032184
v 0.017469 0.019837 0.032184
v 0.012629 0.023166 0.032184
v 0.013154 0.022879 0.032184
v 0.013590 0.022623 0.032184
v 0.014434 0.022092 0.032184
v 0.014686 0.021932 0.032184
v 0.015267 0.021517 0.032184
f 69 96 88
f 69 47 68
f 68 47 67
f 111 102 96
f 36 43 17
f 65 47 69
f 69 88 65
f 95 96 69
f 95 111 96
f 102 111 103
f 103 85 102
f 103 86 85
f 67 47 66
f 4 16 5
f 69 68 93
f 89 90 68
f 60 43 59
f 15 16 4
f 55 38 58
f 55 82 83
f 20 5 19
f 4 5 1
f 68 90 91
f 90 93 91
f 69 93 94
f 86 103 94
f 94 93 86
f 90 89 110
f 110 93 90
f 107 89 106
f 106 93 107
f 54 43 35
f 43 36 35
f 81 82 55
f 55 58 81
f 57 58 38
f 55 83 80
f 80 83 67
f 67 66 80
f 41 39 38
f 42 16 41
f 16 39 41
f 16 15 14
f 14 39 16
f 14 15 4
f 40 38 14
f 38 39 14
f 17 4 13
f 7 20 21
f 5 20 7
f 92 93 68
f 68 91 92
f 92 91 93
f 109 110 89
f 93 110 109
f 104 89 86
f 104 106 89
f 86 93 104
f 93 106 104
f 60 87 61
f 43 60 61
f 59 43 63
f 63 79 59
f 98 99 76
f 56 38 40
f 56 57 38
f 18 4 17
f 18 14 4
f 40 14 18
f 34 35 11
f 6 1 5
f 5 7 6
f 6 7 1
f 22 7 21
f 1 7 2
f 108 89 107
f 108 109 89
f 107 93 108
f 93 109 108
f 54 35 53
f 59 78 84
f 59 79 52
f 52 78 59
f 79 63 52
f 77 78 52
f 52 35 34
f 52 53 35
f 120 112 114
f 114 128 120
f 98 76 97
f 100 99 113
f 100 76 99
f 100 113 114
f 114 115 100
f 100 115 116
f 116 117 100
f 100 117 118
f 118 101 100
f 101 84 100
f 100 84 78
f 100 78 77
f 77 76 100
f 37 35 36
f 12 36 17
f 17 13 12
f 12 37 36
f 12 11 35
f 35 37 12
f 7 22 23
f 31 44 25
f 1 2 3
f 4 1 3
f 3 13 4
f 3 12 13
f 11 12 3
f 62 52 63
f 53 52 62
f 62 63 43
f 62 43 54
f 54 53 62
f 114 113 123
f 127 128 114
f 74 97 76
f 9 23 28
f 7 23 9
f 9 2 7
f 11 3 8
f 8 3 2
f 51 76 77
f 51 50 76
f 77 52 51
f 51 52 34
f 34 50 51
f 26 8 25
f 11 8 26
f 34 11 33
f 124 125 114
f 114 123 124
f 114 125 126
f 126 127 114
f 75 74 76
f 27 9 28
f 24 8 2
f 24 31 25
f 25 8 24
f 46 26 25
f 46 64 48
f 71 48 70
f 48 64 70
f 49 50 34
f 34 33 49
f 49 33 48
f 71 72 49
f 49 48 71
f 76 50 49
f 49 75 76
f 49 72 73
f 73 74 49
f 74 75 49
f 48 33 32
f 32 46 48
f 26 46 32
f 11 26 32
f 32 33 11
f 119 105 112
f 112 122 119
f 112 120 121
f 121 122 112
f 31 24 10
f 9 27 10
f 2 9 10
f 10 24 2
f 64 46 45
f 25 44 45
f 45 46 25
f 31 10 30
f 29 10 27
f 29 30 10
f 5 42 19
f 5 16 42
f 59 85 60
f 85 86 60
f 102 114 112
f 96 102 112
f 111 95 94
f 94 95 69
f 94 103 111
f 87 60 86
f 86 89 87
f 40 43 56
f 56 68 67
f 67 83 56
f 82 81 56
f 56 89 68
f 43 61 56
f 56 83 82
f 56 87 89
f 56 81 58
f 58 57 56
f 56 61 87
f 18 43 40
f 17 43 18
f 102 85 84
f 84 85 59
f 84 114 102
f 118 117 84
f 84 115 114
f 84 101 118
f 84 117 116
f 116 115 84
f 23 66 47
f 47 28 23
f 19 42 23
f 55 80 23
f 23 38 55
f 23 20 19
f 42 41 23
f 21 20 23
f 23 80 66
f 23 41 38
f 23 22 21
f 96 112 105
f 105 88 96
f 29 65 88
f 47 65 29
f 29 28 47
f 88 105 29
f 29 121 120
f 29 99 98
f 29 126 125
f 113 99 29
f 98 97 29
f 29 74 73
f 29 120 128
f 29 123 113
f 128 127 29
f 44 31 29
f 73 72 29
f 105 119 29
f 125 124 29
f 97 74 29
f 29 27 28
f 29 72 71
f 71 70 29
f 29 124 123
f 127 126 29
f 29 45 44
f 29 70 64
f 29 119 122
f 122 121 29
f 64 45 29
f 31 30 29
