v -0.032502 -0.022774 0.041923
v -0.038317 -0.022774 0.032784
v -0.040456 -0.022774 0.041923
v 0.000293 -0.043062 0.041923
v -0.033883 -0.033429 0.024350
v -0.033970 -0.033429 0.024311
v -0.034087 -0.033429 0.024280
v -0.035695 -0.033429 0.023873
v -0.035917 -0.033429 0.023870
v -0.044202 -0.022774 0.032784
v 0.000293 -0.049583 0.025720
v 0.000293 -0.049676 0.025569
v 0.000293 -0.050554 0.024215
v -0.040660 -0.022774 0.041731
v -0.039114 -0.025211 0.041923
v 0.000293 -0.050008 0.041923
v 0.000293 -0.050690 0.024175
v 0.000293 -0.052179 0.023770
v -0.035917 -0.035107 0.023875
v -0.037594 -0.033429 0.023934
v -0.026430 -0.042696 0.023795
v -0.039463 -0.033429 0.025391
v -0.039467 -0.033429 0.025606
v -0.043762 -0.023720 0.032784
v -0.043648 -0.023723 0.033194
v -0.043831 -0.022774 0.034083
v -0.037803 -0.033429 0.023992
v -0.039031 -0.033429 0.024382
v -0.039131 -0.033429 0.024430
v -0.041318 -0.022774 0.040601
v -0.040987 -0.023723 0.040372
v -0.040713 -0.024768 0.039919
v -0.040395 -0.023723 0.041321
v -0.038674 -0.026427 0.041607
v -0.038491 -0.026278 0.041923
v 0.000293 -0.050799 0.040665
v 0.000105 -0.049999 0.041923
v 0.000293 -0.052318 0.023809
v -0.001772 -0.052179 0.023779
v -0.011259 -0.050281 0.023788
v -0.034018 -0.037005 0.023866
v -0.033970 -0.038841 0.024273
v -0.035852 -0.036937 0.024286
v -0.024531 -0.044590 0.023850
v -0.032119 -0.038897 0.023859
v -0.020737 -0.046485 0.023802
v -0.038831 -0.034251 0.024590
v -0.038844 -0.034267 0.025606
v -0.038800 -0.034208 0.026685
v -0.039223 -0.033429 0.027282
v -0.042934 -0.025351 0.032784
v -0.043539 -0.022774 0.035103
v -0.042882 -0.025233 0.033194
v -0.042681 -0.024889 0.034557
v -0.043034 -0.023834 0.035153
v -0.037738 -0.034974 0.024346
v -0.042141 -0.022774 0.039064
v -0.041889 -0.023571 0.038742
v -0.040957 -0.025208 0.038886
v -0.040429 -0.026160 0.038886
v -0.038687 -0.028356 0.039682
v -0.039092 -0.027088 0.040344
v -0.039698 -0.025596 0.040763
v -0.038374 -0.027640 0.040900
v -0.037006 -0.028666 0.041899
v -0.037028 -0.028598 0.041923
v 0.000293 -0.051010 0.040296
v 0.000031 -0.050802 0.040630
v -0.001772 -0.049838 0.041923
v 0.000293 -0.053760 0.024216
v 0.000127 -0.053757 0.024216
v -0.003667 -0.052179 0.023806
v -0.013154 -0.050281 0.023898
v -0.016948 -0.048383 0.023809
v -0.005566 -0.052179 0.023880
v -0.032010 -0.040739 0.024314
v -0.033303 -0.040066 0.024479
v -0.035181 -0.038174 0.024492
v -0.037054 -0.036258 0.024502
v -0.022810 -0.046668 0.024149
v -0.024531 -0.046160 0.024293
v -0.026443 -0.044655 0.024193
v -0.030224 -0.040798 0.023918
v -0.018847 -0.048383 0.024030
v -0.037128 -0.036335 0.025606
v -0.038073 -0.035213 0.025606
v -0.038613 -0.033969 0.027950
v -0.037023 -0.036227 0.027097
v -0.036836 -0.036025 0.028362
v -0.037454 -0.034893 0.029400
v -0.038600 -0.033429 0.029400
v -0.039358 -0.031091 0.032784
v -0.040351 -0.029630 0.032784
v -0.040856 -0.028806 0.032784
v -0.042385 -0.026284 0.032784
v -0.042115 -0.025562 0.035153
v -0.042769 -0.023199 0.036990
v -0.042960 -0.022774 0.036990
v -0.042490 -0.024541 0.035823
v -0.042564 -0.022774 0.038151
v -0.042590 -0.022842 0.038016
v -0.040656 -0.026557 0.037916
v -0.037359 -0.029345 0.040701
v -0.038979 -0.028802 0.038417
v -0.038291 -0.029426 0.038984
v -0.036984 -0.030524 0.040011
v -0.036540 -0.029931 0.041277
v -0.034784 -0.032037 0.041495
v -0.035346 -0.030831 0.041923
v -0.036997 -0.028644 0.041923
v 0.000293 -0.051428 0.039439
v -0.000661 -0.051218 0.039809
v -0.001772 -0.050545 0.040784
v -0.003671 -0.049608 0.041923
v 0.000293 -0.053826 0.024337
v -0.001772 -0.053683 0.024223
v -0.003667 -0.053609 0.024250
v -0.007465 -0.052179 0.024028
v -0.011259 -0.051859 0.024232
v -0.013154 -0.051580 0.024344
v -0.016948 -0.049943 0.024255
v -0.005566 -0.053478 0.024325
v -0.029218 -0.042020 0.024042
v -0.028508 -0.042879 0.024133
v -0.030220 -0.042292 0.024360
v -0.030538 -0.042020 0.024353
v -0.033395 -0.040153 0.025606
v -0.034344 -0.039207 0.025606
v -0.030899 -0.042020 0.024483
v -0.031304 -0.041852 0.024558
v -0.036213 -0.037284 0.025606
v -0.022296 -0.047744 0.024403
v -0.025825 -0.045750 0.024467
v -0.028002 -0.044066 0.024373
v -0.020554 -0.048380 0.024325
v -0.037167 -0.034540 0.031298
v -0.038400 -0.033690 0.029400
v -0.035150 -0.038143 0.027159
v -0.034959 -0.037945 0.028423
v -0.035730 -0.036838 0.029400
v -0.035429 -0.036527 0.031298
v -0.036679 -0.035842 0.029400
v -0.038613 -0.032074 0.032784
v -0.038003 -0.033429 0.031387
v -0.039266 -0.031041 0.033194
v -0.038966 -0.030641 0.035092
v -0.040869 -0.026892 0.036653
v -0.038800 -0.030415 0.036144
v -0.041105 -0.027270 0.035092
v -0.042294 -0.024148 0.036990
v -0.042603 -0.022774 0.038056
v -0.041331 -0.025804 0.037168
v -0.038561 -0.030068 0.037408
v -0.037276 -0.030905 0.038886
v -0.036553 -0.031854 0.038886
v -0.035242 -0.032595 0.040230
v -0.035891 -0.031280 0.040754
v -0.034114 -0.033318 0.040914
v -0.032964 -0.034040 0.041596
v -0.033643 -0.032887 0.041923
v -0.034554 -0.031826 0.041923
v 0.000293 -0.051587 0.039037
v 0.000031 -0.051565 0.039059
v -0.001772 -0.051159 0.039661
v -0.001772 -0.051537 0.038712
v -0.003671 -0.050293 0.040784
v -0.004582 -0.049472 0.041923
v 0.000293 -0.054455 0.025608
v 0.000127 -0.054443 0.025608
v -0.001772 -0.054285 0.025608
v -0.007465 -0.053295 0.024474
v -0.014534 -0.051369 0.024510
v -0.008663 -0.053177 0.024597
v -0.018847 -0.049546 0.024474
v -0.003667 -0.054114 0.025608
v -0.032297 -0.041102 0.025606
v -0.031274 -0.041827 0.026864
v -0.033273 -0.040038 0.027188
v -0.029231 -0.043607 0.025608
v -0.031191 -0.042020 0.025606
v -0.019796 -0.049335 0.024655
v -0.023520 -0.047397 0.025608
v -0.025973 -0.045849 0.025608
v -0.026922 -0.045235 0.025608
v -0.028281 -0.044286 0.025608
v -0.036379 -0.035489 0.031298
v -0.036967 -0.034288 0.032560
v -0.037163 -0.033950 0.032784
v -0.034802 -0.037786 0.029400
v -0.033068 -0.039846 0.028449
v -0.033547 -0.038435 0.031298
v -0.035181 -0.036273 0.032782
v -0.038243 -0.031593 0.035092
v -0.037807 -0.031302 0.036967
v -0.037049 -0.032499 0.036526
v -0.036805 -0.032186 0.037790
v -0.035041 -0.034245 0.038088
v -0.035521 -0.033218 0.038787
v -0.034706 -0.033860 0.039352
v -0.033438 -0.034571 0.040333
v -0.032280 -0.035271 0.040980
v -0.031086 -0.035969 0.041628
v -0.032789 -0.033876 0.041923
v 0.000293 -0.052253 0.037155
v 0.000127 -0.052300 0.036990
v -0.003671 -0.051028 0.039350
v -0.003671 -0.051413 0.038401
v -0.001772 -0.052129 0.036990
v -0.005100 -0.049425 0.041863
v -0.005666 -0.049853 0.040942
v -0.005022 -0.049394 0.041923
v 0.000293 -0.054343 0.027506
v 0.000127 -0.054337 0.027506
v -0.001772 -0.054176 0.027506
v -0.011259 -0.052526 0.025608
v -0.013154 -0.051934 0.025608
v -0.014713 -0.051432 0.025608
v -0.015658 -0.051087 0.025608
v -0.005566 -0.053835 0.025608
v -0.007465 -0.053457 0.025608
v -0.008750 -0.053196 0.025608
v -0.009700 -0.052967 0.025608
v -0.003667 -0.053971 0.027506
v -0.031191 -0.042020 0.025608
v -0.029039 -0.043458 0.027506
v -0.030350 -0.042407 0.027500
v -0.030720 -0.042020 0.027826
v -0.031065 -0.041657 0.028130
v -0.032175 -0.040847 0.027659
v -0.031966 -0.040537 0.029400
v -0.031648 -0.040267 0.031298
v -0.028090 -0.044172 0.027506
v -0.016948 -0.050566 0.025608
v -0.019017 -0.049676 0.025467
v -0.019796 -0.049335 0.024744
v -0.022575 -0.047905 0.025608
v -0.022357 -0.047809 0.027506
v -0.023303 -0.047267 0.027506
v -0.024531 -0.046504 0.027506
v -0.025777 -0.045725 0.027506
v -0.026726 -0.045121 0.027506
v -0.035608 -0.034902 0.035092
v -0.036932 -0.034242 0.032784
v -0.034950 -0.036037 0.034097
v -0.036553 -0.033761 0.035092
v -0.037293 -0.032812 0.035092
v -0.031396 -0.040038 0.032784
v -0.032911 -0.039691 0.029400
v -0.033286 -0.038165 0.032864
v -0.032593 -0.039380 0.031298
v -0.032898 -0.037780 0.035092
v -0.035264 -0.034505 0.036990
v -0.036309 -0.033163 0.037091
v -0.033948 -0.035042 0.038767
v -0.034405 -0.035454 0.036990
v -0.033195 -0.036180 0.038183
v -0.032859 -0.035833 0.039446
v -0.031596 -0.036465 0.040363
v -0.030381 -0.037145 0.040969
v -0.029131 -0.037830 0.041577
v -0.030934 -0.035814 0.041923
v 0.000293 -0.052309 0.036990
v 0.000127 -0.052802 0.035092
v -0.001772 -0.052638 0.035092
v -0.007465 -0.049713 0.040509
v -0.005605 -0.050911 0.038812
v -0.005000 -0.051301 0.038129
v -0.003671 -0.051872 0.036990
v -0.003671 -0.052387 0.035092
v -0.005148 -0.049369 0.041923
v -0.006363 -0.049301 0.041680
v 0.000293 -0.054319 0.027671
v 0.000293 -0.054012 0.029400
v 0.000127 -0.053999 0.029400
v -0.001772 -0.053857 0.029400
v -0.011259 -0.052371 0.027506
v -0.013154 -0.051754 0.027506
v -0.014413 -0.051332 0.027506
v -0.015362 -0.051010 0.027506
v -0.016948 -0.050383 0.027506
v -0.005566 -0.053667 0.027506
v -0.008606 -0.053168 0.026791
v -0.003667 -0.053633 0.029400
v -0.030180 -0.042020 0.029400
v -0.027759 -0.043933 0.029400
v -0.027519 -0.043753 0.030738
v -0.028708 -0.043192 0.029400
v -0.030559 -0.042020 0.028297
v -0.030847 -0.041483 0.029400
v -0.030511 -0.041216 0.031298
v -0.019757 -0.049317 0.026008
v -0.020554 -0.048938 0.025467
v -0.020737 -0.048634 0.027506
v -0.021752 -0.047478 0.030504
v -0.025311 -0.045434 0.029921
v -0.025555 -0.045589 0.028656
v -0.026286 -0.044947 0.029333
v -0.034776 -0.035848 0.035092
v -0.033826 -0.036828 0.035092
v -0.031152 -0.039821 0.034085
v -0.032345 -0.039117 0.032784
v -0.030315 -0.040922 0.032782
v -0.030254 -0.040822 0.033264
v -0.030002 -0.040444 0.035092
v -0.031949 -0.038698 0.035092
v -0.031583 -0.038338 0.036990
v -0.032528 -0.037402 0.036990
v -0.033456 -0.036450 0.036990
v -0.031313 -0.038078 0.038184
v -0.030938 -0.037731 0.039451
v -0.029675 -0.038286 0.040310
v -0.028956 -0.037638 0.041923
v -0.028386 -0.038937 0.040850
v -0.027066 -0.039591 0.041387
v -0.025833 -0.040134 0.041923
v 0.000293 -0.052815 0.035080
v -0.001772 -0.052998 0.033605
v -0.001772 -0.053224 0.032658
v 0.000127 -0.053289 0.032958
v 0.000293 -0.053078 0.033932
v -0.002953 -0.053168 0.032412
v -0.002582 -0.053115 0.032784
v -0.007465 -0.050483 0.038886
v -0.007465 -0.049165 0.041458
v -0.009360 -0.049475 0.040088
v -0.006263 -0.051180 0.037779
v -0.005605 -0.051512 0.037084
v -0.005566 -0.052052 0.035092
v -0.006176 -0.049152 0.041923
v -0.007487 -0.048814 0.041923
v -0.009360 -0.048315 0.041923
v 0.000293 -0.053981 0.029565
v -0.001772 -0.053506 0.031298
v -0.011259 -0.051993 0.029400
v -0.013746 -0.051115 0.029763
v -0.014134 -0.051239 0.028497
v -0.009290 -0.052901 0.027456
v -0.009364 -0.052523 0.029400
v -0.014879 -0.050833 0.029238
v -0.015053 -0.050327 0.031298
v -0.016948 -0.049980 0.029400
v -0.018581 -0.049655 0.027506
v -0.004934 -0.053187 0.030637
v -0.005566 -0.053308 0.029402
v -0.006812 -0.053190 0.028771
v -0.008075 -0.053060 0.028057
v -0.007452 -0.053292 0.027456
v -0.003619 -0.053289 0.031280
v -0.029505 -0.042020 0.031300
v -0.027279 -0.043570 0.032005
v -0.028225 -0.043024 0.031343
v -0.026561 -0.044243 0.031343
v -0.029353 -0.041806 0.032443
v -0.029292 -0.041753 0.032782
v -0.019531 -0.049208 0.027506
v -0.020737 -0.048222 0.029400
v -0.020785 -0.047785 0.031200
v -0.021451 -0.047310 0.031767
v -0.022697 -0.046274 0.032782
v -0.023773 -0.045657 0.032652
v -0.025023 -0.045260 0.031298
v -0.030951 -0.039644 0.035092
v -0.028839 -0.041393 0.035092
v -0.029592 -0.040106 0.036990
v -0.030538 -0.039284 0.036990
v -0.029335 -0.039895 0.038032
v -0.028900 -0.039548 0.039297
v -0.027637 -0.040044 0.040121
v -0.025572 -0.041809 0.039933
v -0.024984 -0.041359 0.041200
v -0.023721 -0.041837 0.041845
v -0.023790 -0.041706 0.041923
v 0.000293 -0.053652 0.031298
v 0.000127 -0.053326 0.032784
v 0.000293 -0.053292 0.032993
v -0.005566 -0.052504 0.033194
v -0.004211 -0.053057 0.031904
v -0.007465 -0.051053 0.037365
v -0.010344 -0.049341 0.039853
v -0.009360 -0.050008 0.038886
v -0.011242 -0.047788 0.041923
v -0.009360 -0.048920 0.041035
v -0.007465 -0.051342 0.036418
v -0.007465 -0.051683 0.035092
v -0.007465 -0.052142 0.033194
v -0.011346 -0.051543 0.031341
v -0.012487 -0.051320 0.030735
v -0.009364 -0.052135 0.031298
v -0.013132 -0.050973 0.031341
v -0.007452 -0.052942 0.029402
v -0.007465 -0.052567 0.031298
v -0.015210 -0.049775 0.033335
v -0.016312 -0.049478 0.032796
v -0.016948 -0.049596 0.031117
v -0.013149 -0.050622 0.032784
v -0.013568 -0.050479 0.032784
v -0.017906 -0.049338 0.030363
v -0.018137 -0.049444 0.029400
v -0.019086 -0.049006 0.029400
v -0.005566 -0.052932 0.031280
v -0.006198 -0.053066 0.030035
v -0.027889 -0.042137 0.035092
v -0.028421 -0.042333 0.033123
v -0.028978 -0.042020 0.032718
v -0.026086 -0.044051 0.033194
v -0.025751 -0.043821 0.034763
v -0.027118 -0.043452 0.032782
v -0.018664 -0.048811 0.031117
v -0.019321 -0.048092 0.032784
v -0.020136 -0.047605 0.033194
v -0.022253 -0.045884 0.035092
v -0.019857 -0.047462 0.034253
v -0.021194 -0.047164 0.032784
v -0.023743 -0.045639 0.032782
v -0.024461 -0.045065 0.033249
v -0.024592 -0.045114 0.032782
v -0.027597 -0.041905 0.036478
v -0.028268 -0.041145 0.037061
v -0.027279 -0.041663 0.037742
v -0.026892 -0.041359 0.038886
v -0.024509 -0.043080 0.038925
v -0.023390 -0.043514 0.039583
v -0.024422 -0.042144 0.040653
v -0.025947 -0.042085 0.038886
v -0.023499 -0.041905 0.041923
v -0.023655 -0.041806 0.041923
v -0.022706 -0.043151 0.040845
v -0.021451 -0.043489 0.041520
v -0.005980 -0.052520 0.032784
v -0.007465 -0.052235 0.032784
v -0.009190 -0.050790 0.036818
v -0.008441 -0.051239 0.036071
v -0.011089 -0.048665 0.040605
v -0.013084 -0.047871 0.040816
v -0.011607 -0.049140 0.039400
v -0.011089 -0.049546 0.038815
v -0.012435 -0.049410 0.038136
v -0.011956 -0.047577 0.041923
v -0.012405 -0.047505 0.041827
v -0.012030 -0.051174 0.032002
v -0.010771 -0.051379 0.032782
v -0.009469 -0.051754 0.032782
v -0.014648 -0.049540 0.035092
v -0.015946 -0.049310 0.034060
v -0.016948 -0.049047 0.033335
v -0.018847 -0.048209 0.033194
v -0.018812 -0.048330 0.032782
v -0.017575 -0.049186 0.031629
v -0.013154 -0.050520 0.033194
v -0.026400 -0.043195 0.035273
v -0.025476 -0.043632 0.036029
v -0.019321 -0.047989 0.033194
v -0.021922 -0.045673 0.036453
v -0.024718 -0.044321 0.035273
v -0.019321 -0.047614 0.034641
v -0.019321 -0.047419 0.035364
v -0.019500 -0.047288 0.035519
v -0.020593 -0.046864 0.034970
v -0.026561 -0.042451 0.037061
v -0.025206 -0.043455 0.036990
v -0.023856 -0.043812 0.038319
v -0.022706 -0.044237 0.038925
v -0.020855 -0.045260 0.039057
v -0.019770 -0.045521 0.039803
v -0.022122 -0.043905 0.040255
v -0.021268 -0.043257 0.041923
v -0.020794 -0.044302 0.040845
v -0.017727 -0.045456 0.041611
v -0.020227 -0.043883 0.041923
v -0.011259 -0.050129 0.036990
v -0.009512 -0.051608 0.033336
v -0.011259 -0.050638 0.035092
v -0.013668 -0.047270 0.041470
v -0.014635 -0.047648 0.040207
v -0.013101 -0.048882 0.038815
v -0.013698 -0.049189 0.037491
v -0.013101 -0.049571 0.036912
v -0.012309 -0.047456 0.041923
v -0.012492 -0.047391 0.041923
v -0.016499 -0.045769 0.041923
v -0.013154 -0.050048 0.035092
v -0.014251 -0.049391 0.036228
v -0.015597 -0.049171 0.035092
v -0.016948 -0.048582 0.035092
v -0.018860 -0.047741 0.034970
v -0.022584 -0.045071 0.037049
v -0.024261 -0.044057 0.036990
v -0.021560 -0.045462 0.037717
v -0.020855 -0.046076 0.037049
v -0.018233 -0.047592 0.036514
v -0.019321 -0.047236 0.035963
v -0.020297 -0.045809 0.038538
v -0.019021 -0.046234 0.039057
v -0.017070 -0.047183 0.039021
v -0.015902 -0.047391 0.039745
v -0.018503 -0.045843 0.040345
v -0.019321 -0.045344 0.040464
v -0.019021 -0.045229 0.040900
v -0.017523 -0.045294 0.041923
v -0.017039 -0.046197 0.040900
v -0.015183 -0.047053 0.040816
v -0.015183 -0.047995 0.039021
v -0.016512 -0.047667 0.038479
v -0.014953 -0.048889 0.036912
v -0.017070 -0.047933 0.037083
v -0.019321 -0.046864 0.037074
v -0.017780 -0.047378 0.037776
v -0.018860 -0.047099 0.037083
f 10 2 9
f 11 2 4
f 4 2 1
f 18 9 8
f 8 9 2
f 2 11 12
f 12 13 2
f 18 8 17
f 17 8 13
f 2 13 5
f 38 39 18
f 70 39 38
f 6 5 13
f 2 5 6
f 473 434 439
f 480 473 439
f 499 469 468
f 468 469 428
f 468 480 499
f 501 473 468
f 473 480 468
f 168 117 116
f 116 117 72
f 133 132 181
f 13 8 7
f 7 6 13
f 7 8 2
f 2 6 7
f 206 267 207
f 207 267 268
f 163 111 112
f 112 165 163
f 164 165 112
f 206 207 164
f 164 207 165
f 428 469 466
f 439 478 479
f 479 480 439
f 168 116 115
f 117 170 122
f 122 170 175
f 212 213 168
f 432 472 441
f 46 74 84
f 72 117 75
f 117 122 75
f 75 122 118
f 172 120 173
f 73 75 118
f 73 84 74
f 10 9 20
f 65 34 64
f 105 106 61
f 203 202 261
f 258 202 201
f 312 261 260
f 260 261 202
f 208 207 268
f 165 207 208
f 348 283 321
f 348 321 377
f 268 267 327
f 327 383 328
f 266 267 206
f 206 265 266
f 112 111 67
f 111 163 162
f 271 270 329
f 210 265 206
f 271 265 210
f 470 472 432
f 439 434 433
f 428 466 425
f 474 473 501
f 434 473 474
f 70 115 71
f 71 115 116
f 71 116 72
f 72 39 71
f 71 39 70
f 169 117 168
f 169 170 117
f 168 213 169
f 213 170 169
f 175 170 214
f 214 170 213
f 223 175 214
f 171 175 173
f 171 122 175
f 173 120 171
f 219 175 223
f 173 175 219
f 219 220 173
f 213 212 272
f 384 383 432
f 328 383 384
f 432 441 471
f 46 44 21
f 21 44 45
f 21 9 18
f 82 133 134
f 134 124 82
f 80 84 132
f 80 44 46
f 46 84 80
f 134 133 130
f 133 179 130
f 181 132 174
f 174 172 181
f 119 73 118
f 120 73 119
f 118 122 119
f 119 171 120
f 122 171 119
f 121 73 120
f 84 73 121
f 120 172 121
f 172 174 121
f 121 174 132
f 72 75 40
f 75 73 40
f 40 73 74
f 40 39 72
f 40 74 46
f 18 39 40
f 40 21 18
f 46 21 40
f 143 146 145
f 145 92 143
f 146 92 145
f 93 92 146
f 94 50 93
f 50 92 93
f 27 56 28
f 27 28 10
f 10 20 27
f 43 56 27
f 27 20 43
f 43 20 19
f 19 20 9
f 9 21 19
f 369 423 371
f 371 425 426
f 428 425 371
f 309 257 256
f 420 366 419
f 109 110 65
f 61 64 62
f 62 64 34
f 62 32 61
f 65 64 103
f 61 106 103
f 103 64 61
f 34 35 15
f 65 110 66
f 66 34 65
f 66 35 34
f 101 151 98
f 94 149 95
f 95 50 94
f 95 51 50
f 143 144 188
f 243 245 188
f 253 196 195
f 195 196 194
f 242 245 243
f 243 186 242
f 106 105 154
f 259 202 258
f 259 260 202
f 369 314 313
f 314 260 313
f 374 373 375
f 318 373 374
f 165 208 205
f 205 163 165
f 205 208 264
f 205 263 262
f 264 263 205
f 262 263 316
f 319 263 318
f 318 374 319
f 319 374 375
f 318 263 317
f 317 263 264
f 269 321 264
f 269 208 268
f 264 208 269
f 328 321 269
f 268 327 269
f 269 327 328
f 430 377 429
f 376 321 328
f 376 377 321
f 376 429 377
f 281 219 223
f 223 283 281
f 281 283 348
f 391 377 430
f 391 430 388
f 37 36 16
f 113 164 112
f 204 162 163
f 204 205 262
f 163 205 204
f 330 331 271
f 271 329 330
f 438 478 439
f 218 172 217
f 181 172 218
f 218 233 181
f 481 441 472
f 472 470 481
f 476 504 482
f 503 504 476
f 439 433 382
f 381 438 382
f 382 438 439
f 419 417 459
f 459 417 451
f 419 421 424
f 424 421 369
f 424 420 419
f 369 420 424
f 422 423 369
f 369 421 422
f 501 468 500
f 468 496 500
f 498 496 468
f 275 321 283
f 275 283 223
f 223 214 275
f 275 214 213
f 213 272 273
f 442 441 388
f 442 471 441
f 442 388 432
f 432 471 442
f 81 80 132
f 132 133 81
f 133 82 81
f 81 82 44
f 44 80 81
f 179 232 225
f 77 130 127
f 131 88 85
f 132 84 135
f 135 121 132
f 84 121 135
f 47 85 86
f 86 48 47
f 47 48 22
f 28 56 47
f 41 21 45
f 41 19 21
f 370 314 369
f 369 371 370
f 312 260 315
f 315 260 314
f 314 370 315
f 315 370 371
f 309 256 307
f 141 191 192
f 365 366 309
f 108 109 65
f 161 109 108
f 63 62 34
f 32 62 63
f 34 33 63
f 63 33 32
f 150 102 101
f 10 25 26
f 26 25 52
f 55 25 54
f 52 25 55
f 24 25 10
f 51 25 24
f 53 51 54
f 54 25 53
f 53 25 51
f 147 95 149
f 147 149 94
f 94 93 147
f 59 58 101
f 101 102 59
f 32 58 59
f 104 105 61
f 61 102 104
f 61 32 60
f 60 102 61
f 32 59 60
f 60 59 102
f 193 146 143
f 143 188 193
f 89 90 49
f 49 88 89
f 49 48 86
f 86 85 49
f 49 85 88
f 142 90 89
f 89 141 142
f 141 192 142
f 142 192 186
f 243 188 187
f 187 186 243
f 254 256 257
f 257 199 254
f 197 196 253
f 197 254 199
f 255 256 197
f 256 254 197
f 367 420 369
f 366 420 367
f 320 316 263
f 320 319 375
f 263 319 320
f 264 321 322
f 322 317 264
f 322 321 318
f 318 317 322
f 430 429 385
f 429 376 385
f 385 376 328
f 328 384 385
f 385 384 432
f 432 388 385
f 388 430 385
f 343 281 348
f 344 281 343
f 348 377 343
f 215 172 173
f 401 391 390
f 344 343 401
f 401 343 391
f 68 37 69
f 36 37 68
f 69 113 68
f 68 113 112
f 68 67 36
f 112 67 68
f 209 270 271
f 271 210 209
f 164 113 166
f 206 164 166
f 166 210 206
f 166 209 210
f 233 218 280
f 342 291 280
f 280 291 233
f 490 484 505
f 504 503 505
f 483 482 504
f 504 505 483
f 483 505 484
f 483 484 444
f 477 481 470
f 477 482 481
f 476 482 477
f 323 266 265
f 379 382 433
f 380 323 379
f 379 433 434
f 431 470 432
f 331 381 324
f 381 382 324
f 271 331 324
f 324 265 271
f 451 417 450
f 450 407 451
f 460 459 451
f 419 459 460
f 427 371 423
f 423 422 427
f 428 371 427
f 493 494 464
f 493 464 492
f 506 508 492
f 495 475 474
f 495 494 503
f 495 500 496
f 496 464 495
f 495 464 494
f 495 474 501
f 501 500 495
f 318 321 333
f 321 275 333
f 333 373 318
f 332 373 333
f 333 273 332
f 83 76 45
f 45 44 83
f 44 82 83
f 45 76 42
f 42 41 45
f 42 76 77
f 43 19 42
f 19 41 42
f 42 78 43
f 77 78 42
f 125 124 134
f 125 76 124
f 140 141 89
f 89 139 140
f 140 139 141
f 178 139 138
f 138 139 89
f 89 88 138
f 141 139 189
f 189 191 141
f 190 139 178
f 190 189 139
f 191 189 190
f 286 225 285
f 285 225 232
f 285 241 286
f 232 241 285
f 181 233 234
f 233 291 234
f 235 291 292
f 181 234 235
f 235 234 291
f 85 47 79
f 131 85 79
f 79 47 56
f 79 56 43
f 43 78 79
f 28 47 29
f 29 47 22
f 10 28 29
f 29 22 10
f 372 371 426
f 372 315 371
f 308 256 255
f 308 307 256
f 255 298 308
f 251 307 308
f 244 192 251
f 186 192 244
f 244 242 186
f 298 242 244
f 251 192 249
f 249 192 191
f 191 250 249
f 362 365 306
f 306 305 362
f 309 307 306
f 306 365 309
f 306 307 251
f 251 305 306
f 419 366 418
f 418 417 419
f 364 365 362
f 362 304 364
f 366 365 364
f 364 418 366
f 417 418 364
f 417 364 363
f 363 364 304
f 107 108 65
f 65 103 107
f 107 103 106
f 161 108 160
f 108 156 158
f 102 150 152
f 152 147 102
f 97 98 52
f 52 55 97
f 101 98 97
f 97 150 101
f 99 55 54
f 99 152 150
f 150 97 99
f 99 97 55
f 147 152 99
f 148 93 146
f 148 147 93
f 102 147 148
f 146 193 148
f 148 195 194
f 148 193 195
f 246 188 245
f 246 193 188
f 245 195 246
f 195 193 246
f 50 49 87
f 87 49 90
f 22 48 23
f 48 49 23
f 23 49 50
f 50 51 23
f 51 24 23
f 10 22 23
f 23 24 10
f 136 142 186
f 90 142 136
f 186 187 136
f 136 87 90
f 136 188 144
f 136 187 188
f 155 154 196
f 196 197 155
f 106 154 155
f 155 156 106
f 255 197 252
f 252 298 255
f 252 242 298
f 252 197 253
f 245 242 252
f 253 195 252
f 252 195 245
f 369 313 368
f 368 367 369
f 311 313 260
f 260 259 311
f 311 368 313
f 367 368 311
f 311 259 258
f 377 391 400
f 400 343 377
f 391 343 400
f 216 276 217
f 216 215 276
f 217 172 216
f 172 215 216
f 222 215 173
f 276 215 222
f 345 401 390
f 345 281 344
f 344 401 345
f 338 391 388
f 390 391 338
f 388 334 338
f 338 334 276
f 388 441 386
f 386 334 388
f 276 334 335
f 114 113 69
f 114 166 113
f 342 280 341
f 340 394 341
f 341 280 340
f 441 481 440
f 440 386 441
f 481 482 443
f 444 392 443
f 443 483 444
f 482 483 443
f 357 399 408
f 393 394 340
f 393 392 444
f 340 392 393
f 453 458 489
f 451 411 453
f 453 486 451
f 413 453 411
f 458 453 413
f 491 506 489
f 491 508 506
f 490 508 491
f 286 241 297
f 297 241 295
f 183 241 184
f 133 183 184
f 184 241 232
f 451 407 406
f 406 415 451
f 416 415 406
f 507 508 490
f 490 505 507
f 507 505 503
f 493 492 507
f 507 492 508
f 507 494 493
f 503 494 507
f 267 266 326
f 266 323 326
f 326 327 267
f 383 327 326
f 382 379 325
f 265 324 325
f 325 324 382
f 325 323 265
f 325 379 323
f 470 431 437
f 437 431 380
f 437 475 476
f 476 477 437
f 437 477 470
f 451 486 487
f 487 460 451
f 461 421 419
f 419 460 461
f 460 487 461
f 461 422 421
f 496 498 497
f 497 464 496
f 422 464 465
f 428 427 465
f 465 427 422
f 502 503 476
f 502 495 503
f 476 475 502
f 475 495 502
f 274 333 275
f 273 333 274
f 274 275 213
f 213 273 274
f 124 76 123
f 76 83 123
f 123 82 124
f 123 83 82
f 134 130 129
f 129 125 134
f 129 130 77
f 77 76 126
f 76 125 126
f 126 129 77
f 125 129 126
f 128 127 178
f 178 138 128
f 128 88 131
f 128 138 88
f 131 79 128
f 128 79 78
f 128 78 77
f 77 127 128
f 191 190 248
f 248 250 191
f 176 127 130
f 180 130 179
f 179 224 180
f 180 176 130
f 224 176 180
f 182 133 181
f 182 183 133
f 293 237 291
f 295 241 296
f 250 248 247
f 247 248 190
f 299 244 251
f 298 244 299
f 251 308 299
f 299 308 298
f 417 363 402
f 402 450 417
f 407 450 402
f 106 156 157
f 157 156 108
f 157 107 106
f 108 107 157
f 203 160 159
f 159 160 108
f 108 158 159
f 159 202 203
f 159 201 202
f 200 257 258
f 258 201 200
f 200 158 156
f 201 159 200
f 200 159 158
f 200 199 257
f 200 156 199
f 14 15 3
f 14 30 31
f 14 33 34
f 34 15 14
f 32 33 14
f 14 31 32
f 31 30 57
f 57 58 32
f 32 31 57
f 96 99 54
f 147 99 96
f 95 147 96
f 54 51 96
f 51 95 96
f 153 104 102
f 102 148 153
f 153 154 105
f 105 104 153
f 153 148 194
f 194 196 153
f 196 154 153
f 50 87 91
f 91 92 50
f 143 92 91
f 91 144 143
f 198 197 199
f 198 155 197
f 199 156 198
f 156 155 198
f 367 311 310
f 309 366 310
f 366 367 310
f 310 311 258
f 258 257 310
f 310 257 309
f 281 347 282
f 276 222 282
f 220 219 282
f 219 281 282
f 346 347 281
f 281 345 346
f 346 345 390
f 346 282 347
f 390 338 346
f 339 335 340
f 334 386 387
f 387 335 334
f 386 440 387
f 209 166 167
f 166 114 167
f 398 399 342
f 342 341 398
f 449 440 481
f 395 440 449
f 481 443 449
f 396 443 392
f 340 395 396
f 396 392 340
f 395 449 396
f 396 449 443
f 447 452 409
f 409 408 447
f 357 408 409
f 447 408 448
f 448 393 447
f 394 393 448
f 444 484 445
f 445 393 444
f 445 484 485
f 458 413 412
f 185 179 133
f 133 184 185
f 185 232 179
f 185 184 232
f 454 411 451
f 451 415 454
f 454 415 411
f 416 406 361
f 380 431 378
f 378 323 380
f 378 326 323
f 378 431 432
f 432 383 378
f 383 326 378
f 380 379 436
f 436 437 380
f 475 437 435
f 474 475 435
f 435 436 379
f 437 436 435
f 434 474 435
f 435 379 434
f 488 487 486
f 488 461 487
f 488 453 489
f 486 453 488
f 489 506 488
f 506 492 488
f 428 465 467
f 467 465 464
f 464 497 467
f 467 497 498
f 467 468 428
f 467 498 468
f 287 225 286
f 177 176 224
f 179 225 177
f 177 224 179
f 178 127 177
f 127 176 177
f 292 291 236
f 236 235 292
f 291 237 236
f 237 182 236
f 181 235 236
f 236 182 181
f 238 182 237
f 342 399 355
f 355 291 342
f 355 293 291
f 356 399 357
f 356 355 399
f 293 355 356
f 362 305 300
f 300 304 362
f 300 247 304
f 300 305 251
f 251 247 300
f 301 247 251
f 250 247 301
f 251 249 301
f 301 249 250
f 231 190 178
f 231 247 190
f 290 247 231
f 363 354 404
f 353 354 290
f 302 247 290
f 290 354 302
f 100 151 101
f 101 58 100
f 58 57 100
f 137 136 144
f 144 91 137
f 87 136 137
f 137 91 87
f 220 282 221
f 221 282 222
f 173 220 221
f 221 222 173
f 337 338 276
f 276 282 337
f 337 346 338
f 282 346 337
f 389 440 395
f 389 387 440
f 389 395 340
f 340 335 389
f 335 387 389
f 270 209 211
f 209 167 211
f 397 408 399
f 399 398 397
f 394 448 397
f 397 448 408
f 397 341 394
f 397 398 341
f 447 393 446
f 393 445 446
f 446 452 447
f 446 445 485
f 455 412 452
f 455 446 485
f 452 446 455
f 452 412 410
f 357 409 410
f 410 409 452
f 360 415 416
f 416 361 360
f 360 359 411
f 405 361 406
f 422 461 462
f 461 488 462
f 349 353 290
f 225 287 284
f 284 349 290
f 287 349 284
f 240 296 241
f 240 241 183
f 183 182 240
f 294 356 357
f 237 293 294
f 293 356 294
f 294 238 237
f 359 360 294
f 294 360 361
f 294 361 295
f 295 238 294
f 178 177 229
f 230 231 178
f 178 229 230
f 403 402 363
f 363 404 403
f 303 354 363
f 303 302 354
f 303 363 304
f 304 247 303
f 247 302 303
f 335 339 336
f 276 335 336
f 217 276 277
f 277 278 217
f 276 336 277
f 277 336 278
f 458 412 457
f 489 458 457
f 457 491 489
f 490 491 457
f 358 412 413
f 358 410 412
f 359 294 358
f 357 410 358
f 358 294 357
f 358 413 411
f 411 359 358
f 411 415 414
f 414 360 411
f 415 360 414
f 350 406 407
f 350 405 406
f 350 403 404
f 407 402 350
f 402 403 350
f 286 297 352
f 352 350 286
f 405 350 352
f 361 405 352
f 352 297 295
f 295 361 352
f 463 464 422
f 422 462 463
f 463 492 464
f 463 488 492
f 463 462 488
f 353 349 351
f 286 350 351
f 351 287 286
f 351 349 287
f 351 350 404
f 351 404 354
f 354 353 351
f 226 177 225
f 225 284 226
f 289 284 290
f 290 231 289
f 231 230 289
f 296 240 239
f 295 296 239
f 239 238 295
f 182 238 239
f 239 240 182
f 279 336 339
f 278 336 279
f 340 280 279
f 279 339 340
f 279 280 218
f 279 218 217
f 217 278 279
f 412 455 456
f 456 457 412
f 456 455 485
f 490 457 456
f 456 484 490
f 485 484 456
f 228 229 177
f 228 230 229
f 228 289 230
f 289 228 227
f 177 226 227
f 227 228 177
f 288 226 284
f 288 227 226
f 284 289 288
f 289 227 288
f 320 12 11
f 4 16 320
f 16 36 320
f 320 11 4
f 320 38 18
f 18 17 320
f 168 115 320
f 13 12 320
f 320 17 13
f 70 38 320
f 320 204 262
f 320 67 111
f 320 212 168
f 320 373 332
f 320 115 70
f 262 316 320
f 375 373 320
f 36 67 320
f 111 162 320
f 320 272 212
f 332 273 320
f 162 204 320
f 320 273 272
f 3 1 100
f 100 2 10
f 100 1 2
f 10 26 100
f 100 98 151
f 52 98 100
f 100 26 52
f 100 14 3
f 30 14 100
f 100 57 30
f 211 16 4
f 4 1 211
f 211 1 3
f 331 330 211
f 203 261 211
f 478 438 211
f 211 329 270
f 110 109 211
f 211 372 426
f 211 469 499
f 499 480 211
f 211 479 478
f 211 66 110
f 211 466 469
f 480 479 211
f 426 425 211
f 3 15 211
f 211 261 312
f 211 160 203
f 211 37 16
f 211 381 331
f 211 425 466
f 211 109 161
f 211 15 35
f 35 66 211
f 69 37 211
f 211 330 329
f 211 438 381
f 312 315 211
f 315 372 211
f 161 160 211
f 211 114 69
f 211 167 114
