v 0.140409 -0.008538 -0.012342
v 0.140321 -0.008538 -0.014242
v 0.140405 -0.006644 -0.012342
v 0.140398 -0.006644 0.012316
v 0.140398 -0.008536 0.012316
v 0.140367 -0.016127 0.000935
v 0.140360 -0.016127 -0.000958
v 0.139858 -0.009761 -0.014242
v 0.139662 -0.009554 -0.015250
v 0.139844 -0.008538 -0.015432
v 0.140318 -0.006644 -0.014242
v 0.139858 -0.005419 -0.014242
v 0.139911 -0.005359 -0.012342
v 0.137039 0.002161 -0.000958
v 0.137039 0.002161 0.001620
v 0.139904 -0.005365 0.012316
v 0.139858 -0.005417 0.014216
v 0.140321 -0.006644 0.014216
v 0.140321 -0.008536 0.014216
v 0.139862 -0.009765 0.014216
v 0.139886 -0.017385 0.000935
v 0.139883 -0.017381 -0.000958
v 0.139686 -0.017167 -0.001999
v 0.134048 -0.017177 -0.007823
v 0.133908 -0.015182 -0.011401
v 0.134010 -0.013367 -0.013379
v 0.132958 -0.011381 -0.015187
v 0.132958 -0.010432 -0.015827
v 0.132958 -0.008868 -0.016775
v 0.134062 -0.007811 -0.017195
v 0.132958 -0.004746 -0.018355
v 0.139837 -0.006644 -0.015429
v 0.133922 -0.000149 -0.018995
v 0.133922 0.000157 -0.018995
v 0.139651 -0.005639 -0.015243
v 0.134679 0.002161 -0.017255
v 0.135041 0.002161 -0.016139
v 0.136839 0.002161 -0.004751
v 0.137018 0.002161 -0.002854
v 0.137018 0.002161 0.002832
v 0.135037 0.002159 0.016113
v 0.134802 0.002159 0.016849
v 0.139655 -0.005637 0.015224
v 0.136994 0.002161 0.003516
v 0.136843 0.002161 0.004732
v 0.139841 -0.006644 0.015414
v 0.139848 -0.008536 0.015417
v 0.139665 -0.009556 0.015231
v 0.139693 -0.017173 0.001980
v 0.138649 -0.017752 0.000935
v 0.138649 -0.017739 -0.000958
v 0.132951 -0.018348 -0.004747
v 0.132951 -0.017756 -0.006648
v 0.132951 -0.017233 -0.007935
v 0.132958 -0.017151 -0.008113
v 0.133754 -0.017072 -0.008113
v 0.132958 -0.016773 -0.008891
v 0.132958 -0.015833 -0.010445
v 0.132958 -0.015184 -0.011405
v 0.132958 -0.014359 -0.012353
v 0.132958 -0.013410 -0.013424
v 0.132958 -0.012330 -0.014369
v 0.129161 -0.011392 -0.015198
v 0.129161 -0.010436 -0.015838
v 0.131058 -0.008872 -0.016779
v 0.132958 -0.007921 -0.017247
v 0.132958 -0.006644 -0.017757
v 0.131058 -0.004746 -0.018382
v 0.131058 -0.002848 -0.018768
v 0.132958 -0.002848 -0.018731
v 0.134438 0.002161 -0.017991
v 0.132958 -0.001175 -0.018917
v 0.132958 -0.000226 -0.019003
v 0.132958 0.000240 -0.019003
v 0.132958 0.001189 -0.018925
v 0.132958 0.002161 -0.018802
v 0.134434 0.002159 0.017980
v 0.136618 0.002161 0.005275
v 0.133933 0.000271 0.018980
v 0.133933 -0.000257 0.018980
v 0.132951 -0.004748 0.018359
v 0.134069 -0.007831 0.017176
v 0.133908 -0.011387 0.015172
v 0.134010 -0.013373 0.013364
v 0.133915 -0.015186 0.011382
v 0.134052 -0.017186 0.007812
v 0.132951 -0.018340 0.004740
v 0.133954 -0.018995 0.000266
v 0.133954 -0.018995 -0.000273
v 0.132951 -0.018721 -0.002854
v 0.131054 -0.018746 -0.002854
v 0.131054 -0.018369 -0.004747
v 0.131054 -0.017756 -0.006648
v 0.131054 -0.017233 -0.007935
v 0.131058 -0.017151 -0.008113
v 0.131058 -0.016773 -0.008891
v 0.131058 -0.015833 -0.010445
v 0.131058 -0.015184 -0.011405
v 0.131058 -0.014361 -0.012353
v 0.131058 -0.013412 -0.013428
v 0.129161 -0.012341 -0.014369
v 0.127264 -0.011394 -0.015198
v 0.104589 -0.011394 -0.015198
v 0.104589 -0.010436 -0.015834
v 0.104589 -0.008863 -0.016775
v 0.131058 -0.007925 -0.017247
v 0.129161 -0.006644 -0.017768
v 0.131058 -0.006644 -0.017764
v 0.104589 -0.006644 -0.017764
v 0.104589 -0.004839 -0.018337
v 0.104589 -0.004746 -0.018363
v 0.131058 -0.001204 -0.018939
v 0.104589 -0.002848 -0.018750
v 0.131058 -0.000255 -0.019003
v 0.131058 0.000242 -0.019003
v 0.131058 0.001191 -0.018936
v 0.131843 0.002161 -0.018820
v 0.133768 0.002159 0.018352
v 0.136247 0.002161 0.006134
v 0.135447 0.002161 0.007094
v 0.132951 0.001359 0.018917
v 0.132951 0.000412 0.018991
v 0.132951 0.002159 0.018805
v 0.132951 -0.000386 0.018991
v 0.132951 -0.001333 0.018909
v 0.132951 -0.002850 0.018731
v 0.131054 -0.002850 0.018764
v 0.131054 -0.004748 0.018378
v 0.132951 -0.006644 0.017757
v 0.132951 -0.007947 0.017236
v 0.132951 -0.008890 0.016756
v 0.129157 -0.011410 0.015190
v 0.131054 -0.012351 0.014372
v 0.132951 -0.012341 0.014361
v 0.132951 -0.013420 0.013413
v 0.132951 -0.010432 0.015811
v 0.132951 -0.014370 0.012338
v 0.132951 -0.015188 0.011386
v 0.132951 -0.015847 0.010423
v 0.132951 -0.016778 0.008879
v 0.132951 -0.017238 0.007927
v 0.132951 -0.017762 0.006625
v 0.131054 -0.018371 0.004740
v 0.131054 -0.018746 0.002839
v 0.132951 -0.018707 0.002839
v 0.132951 -0.018920 0.001348
v 0.132951 -0.019009 0.000403
v 0.132951 -0.019009 -0.000407
v 0.132951 -0.018916 -0.001356
v 0.104592 -0.018740 -0.002854
v 0.131054 -0.018924 -0.001356
v 0.104592 -0.018379 -0.004655
v 0.104592 -0.018361 -0.004747
v 0.104592 -0.017752 -0.006648
v 0.104592 -0.017254 -0.007864
v 0.104592 -0.017225 -0.007927
v 0.104589 -0.017138 -0.008113
v 0.104589 -0.016769 -0.008879
v 0.104589 -0.015868 -0.010363
v 0.104589 -0.015820 -0.010438
v 0.104589 -0.015174 -0.011390
v 0.104589 -0.014353 -0.012342
v 0.104589 -0.013408 -0.013417
v 0.104589 -0.012395 -0.014317
v 0.104589 -0.011441 -0.015157
v 0.104589 -0.007916 -0.017232
v 0.104589 -0.000951 -0.018943
v 0.104589 0.000947 -0.018936
v 0.104589 0.002161 -0.018817
v 0.129946 0.002161 -0.018824
v 0.131058 0.002161 -0.018824
v 0.104592 0.002159 0.018824
v 0.131054 0.002159 0.018831
v 0.104589 0.002161 -0.008113
v 0.131054 0.001397 0.018928
v 0.131054 0.000447 0.018991
v 0.131054 -0.000406 0.018991
v 0.131054 -0.001355 0.018921
v 0.104592 -0.002850 0.018749
v 0.104592 -0.004748 0.018352
v 0.104592 -0.006644 0.017768
v 0.129157 -0.006644 0.017768
v 0.131054 -0.006644 0.017764
v 0.129157 -0.007966 0.017247
v 0.131054 -0.008901 0.016756
v 0.131054 -0.010432 0.015823
v 0.104592 -0.011410 0.015190
v 0.104592 -0.012316 0.014421
v 0.129157 -0.012359 0.014380
v 0.129157 -0.010432 0.015826
v 0.104592 -0.011365 0.015220
v 0.129157 -0.013441 0.013431
v 0.129157 -0.014390 0.012330
v 0.131054 -0.015188 0.011386
v 0.104592 -0.014347 0.012382
v 0.131054 -0.015847 0.010423
v 0.131054 -0.016778 0.008887
v 0.129157 -0.017254 0.007942
v 0.131054 -0.017244 0.007942
v 0.131054 -0.017772 0.006625
v 0.129157 -0.017774 0.006625
v 0.104592 -0.018338 0.004829
v 0.104592 -0.018365 0.004740
v 0.104592 -0.018738 0.002932
v 0.127260 -0.018757 0.002839
v 0.131054 -0.018924 0.001348
v 0.131054 -0.019009 0.000403
v 0.131054 -0.019009 -0.000407
v 0.104592 -0.018927 -0.001170
v 0.104592 -0.018931 -0.001125
v 0.104592 -0.018989 -0.000221
v 0.104592 -0.018989 0.000199
v 0.104592 -0.018924 0.001147
v 0.104592 -0.018757 0.002839
v 0.104592 -0.017764 0.006625
v 0.104592 -0.017741 0.006692
v 0.104592 -0.017256 0.007927
v 0.104592 -0.017233 0.007979
v 0.104592 -0.016755 0.008879
v 0.104592 -0.015785 0.010471
v 0.104592 -0.015184 0.011378
v 0.104592 -0.013441 0.013428
v 0.104592 -0.010432 0.015819
v 0.104592 -0.008901 0.016741
v 0.104592 -0.007958 0.017247
v 0.104592 -0.001103 0.018928
v 0.104592 -0.001055 0.018932
v 0.104592 -0.000154 0.018961
v 0.104592 0.001225 0.018928
v 0.104592 0.000238 0.018961
v 0.104592 0.001140 0.018935
f 1 6 7
f 120 174 172
f 22 7 6
f 25 9 24
f 12 38 39
f 37 38 12
f 7 22 8
f 154 92 153
f 92 152 153
f 146 206 147
f 145 146 88
f 88 146 147
f 23 24 9
f 23 8 22
f 9 8 23
f 52 91 92
f 24 23 52
f 12 3 11
f 147 206 207
f 13 39 14
f 14 3 13
f 13 3 12
f 12 39 13
f 36 37 12
f 26 9 25
f 26 27 9
f 114 167 115
f 159 97 158
f 161 162 98
f 150 91 151
f 150 152 92
f 92 91 150
f 148 208 151
f 90 52 89
f 91 52 90
f 89 52 51
f 51 23 22
f 51 52 23
f 155 94 154
f 53 52 92
f 24 52 53
f 15 3 14
f 2 8 9
f 1 7 2
f 7 8 2
f 12 11 35
f 71 36 35
f 35 36 12
f 172 174 229
f 174 231 229
f 230 231 174
f 21 22 6
f 198 142 199
f 203 143 202
f 212 207 213
f 213 207 206
f 206 214 213
f 204 143 203
f 163 164 100
f 170 116 169
f 170 171 116
f 116 171 117
f 168 115 167
f 169 116 168
f 116 115 168
f 161 98 160
f 97 159 160
f 160 98 97
f 25 58 59
f 59 60 25
f 57 58 25
f 151 208 210
f 151 91 149
f 91 90 149
f 149 148 151
f 89 148 149
f 149 90 89
f 157 155 154
f 154 153 157
f 157 153 152
f 152 150 157
f 212 213 157
f 157 213 214
f 214 204 157
f 157 204 203
f 203 202 157
f 157 216 217
f 221 195 157
f 157 195 222
f 222 188 157
f 157 188 187
f 157 223 224
f 224 225 157
f 157 225 181
f 181 180 157
f 157 180 179
f 179 226 157
f 157 226 227
f 157 227 228
f 154 94 93
f 93 92 154
f 93 53 92
f 32 35 11
f 71 35 32
f 228 227 177
f 5 6 1
f 175 229 231
f 172 229 175
f 142 143 87
f 145 88 87
f 205 214 206
f 205 204 214
f 143 204 205
f 206 146 205
f 201 202 143
f 217 216 201
f 201 198 217
f 99 162 163
f 163 100 99
f 99 100 60
f 99 98 162
f 99 59 98
f 60 59 99
f 60 100 61
f 61 26 25
f 25 60 61
f 165 100 164
f 106 166 109
f 105 166 106
f 106 65 105
f 29 64 65
f 74 115 116
f 24 53 54
f 95 157 158
f 209 157 150
f 210 157 209
f 209 150 151
f 151 210 209
f 212 157 211
f 211 157 210
f 211 210 208
f 216 157 215
f 215 157 202
f 215 201 216
f 202 201 215
f 218 157 217
f 219 157 218
f 217 198 218
f 221 157 220
f 220 157 219
f 191 157 187
f 223 157 191
f 11 2 10
f 10 32 11
f 10 2 9
f 9 31 10
f 31 33 10
f 227 226 178
f 178 177 227
f 178 226 179
f 231 230 176
f 176 175 231
f 17 44 45
f 17 40 44
f 181 225 184
f 50 87 88
f 21 49 50
f 50 49 87
f 50 88 89
f 89 51 50
f 50 51 22
f 22 21 50
f 143 205 144
f 145 87 144
f 144 87 143
f 144 146 145
f 144 205 146
f 200 143 142
f 200 201 143
f 142 198 200
f 198 201 200
f 62 61 100
f 27 26 62
f 26 61 62
f 100 165 101
f 101 62 100
f 68 69 31
f 103 64 102
f 102 165 103
f 102 101 165
f 104 64 103
f 65 64 104
f 104 105 65
f 66 65 106
f 66 29 65
f 64 29 28
f 9 27 28
f 28 29 9
f 112 113 167
f 112 69 113
f 112 167 114
f 114 73 112
f 70 33 31
f 31 69 70
f 75 74 116
f 75 117 76
f 116 117 75
f 25 24 56
f 56 57 25
f 96 95 158
f 158 97 96
f 94 155 156
f 156 95 94
f 155 157 156
f 157 95 156
f 179 180 128
f 128 180 181
f 175 176 122
f 15 40 16
f 40 17 16
f 172 175 173
f 173 120 172
f 173 123 120
f 77 119 120
f 77 78 119
f 45 78 77
f 185 225 224
f 185 184 225
f 224 223 185
f 192 188 222
f 222 195 192
f 142 87 86
f 87 49 86
f 111 68 110
f 110 68 109
f 63 102 64
f 63 28 27
f 64 28 63
f 27 62 63
f 62 101 63
f 101 102 63
f 67 68 31
f 72 73 33
f 72 112 73
f 69 112 72
f 33 70 72
f 72 70 69
f 74 75 34
f 34 75 76
f 34 76 71
f 71 32 34
f 34 10 33
f 32 10 34
f 57 56 55
f 24 54 55
f 55 56 24
f 127 178 179
f 179 128 127
f 177 178 124
f 175 122 121
f 121 173 175
f 123 173 121
f 122 79 121
f 121 79 123
f 43 77 46
f 77 79 46
f 3 15 4
f 15 16 4
f 1 3 4
f 4 5 1
f 4 16 17
f 120 123 118
f 118 77 120
f 123 79 118
f 118 79 77
f 41 17 45
f 130 184 131
f 184 185 131
f 131 82 130
f 66 67 30
f 9 29 30
f 29 66 30
f 30 31 9
f 30 67 31
f 109 68 107
f 106 109 107
f 107 66 106
f 81 127 128
f 182 128 181
f 182 183 128
f 181 184 182
f 184 183 182
f 129 184 130
f 129 183 184
f 130 82 129
f 82 81 129
f 128 183 129
f 129 81 128
f 48 81 82
f 48 86 49
f 18 4 17
f 17 43 18
f 43 46 18
f 45 77 42
f 42 41 45
f 42 77 43
f 42 43 17
f 17 41 42
f 188 192 189
f 132 191 187
f 187 188 132
f 188 189 132
f 194 195 221
f 194 138 195
f 193 192 195
f 195 138 193
f 140 198 199
f 68 67 108
f 108 107 68
f 108 67 66
f 66 107 108
f 126 81 80
f 127 81 126
f 82 131 83
f 83 48 82
f 131 136 83
f 134 135 83
f 83 136 132
f 20 49 21
f 20 48 49
f 20 21 6
f 47 18 46
f 47 79 80
f 47 46 79
f 80 81 47
f 81 48 47
f 142 86 141
f 86 140 141
f 199 142 141
f 141 140 199
f 137 135 192
f 192 193 137
f 137 193 138
f 127 126 125
f 178 127 125
f 125 124 178
f 80 124 125
f 125 126 80
f 186 131 185
f 186 136 131
f 132 136 186
f 48 83 84
f 84 83 135
f 133 132 189
f 133 83 132
f 134 83 133
f 133 189 192
f 133 135 134
f 192 135 133
f 6 5 19
f 19 20 6
f 18 47 19
f 48 20 19
f 19 47 48
f 196 194 221
f 221 220 196
f 196 220 219
f 190 185 223
f 190 186 185
f 223 191 190
f 191 132 190
f 132 186 190
f 85 137 138
f 135 137 85
f 85 84 135
f 138 139 85
f 86 48 85
f 48 84 85
f 85 140 86
f 85 139 140
f 139 196 197
f 140 139 197
f 197 196 219
f 219 218 197
f 197 218 198
f 198 140 197
f 89 88 148
f 148 88 147
f 147 207 148
f 148 207 208
f 2 11 3
f 2 3 1
f 59 58 97
f 97 98 59
f 157 230 174
f 228 230 157
f 120 119 40
f 40 78 45
f 169 174 40
f 174 120 40
f 40 36 71
f 14 39 40
f 71 76 40
f 40 15 14
f 40 39 38
f 38 37 40
f 119 78 40
f 45 44 40
f 37 36 40
f 40 170 169
f 76 117 40
f 171 170 40
f 40 117 171
f 74 73 114
f 114 115 74
f 53 93 54
f 54 93 94
f 208 207 211
f 211 207 212
f 176 230 228
f 228 177 176
f 111 113 68
f 113 69 68
f 97 58 96
f 58 57 96
f 110 174 169
f 169 168 110
f 110 162 161
f 161 160 110
f 110 104 103
f 110 113 111
f 110 157 174
f 163 162 110
f 110 164 163
f 167 113 110
f 110 159 158
f 103 165 110
f 110 168 167
f 110 160 159
f 158 157 110
f 110 165 164
f 110 109 166
f 166 105 110
f 105 104 110
f 73 74 34
f 33 73 34
f 55 96 57
f 95 96 55
f 55 54 94
f 94 95 55
f 124 176 177
f 124 122 176
f 122 124 79
f 79 124 80
f 4 18 19
f 5 4 19
f 196 139 138
f 138 194 196
