v 0.003934 0.048819 0.043680
v 0.002050 0.048761 0.043680
v 0.002050 0.048123 0.044354
v 0.003934 0.048161 0.044374
v 0.005843 0.048142 0.044359
v 0.005843 0.048761 0.043680
v 0.066825 0.040325 0.041454
v -0.042104 0.013402 0.032787
v -0.047553 0.013402 0.032787
v 0.001373 0.048732 0.043680
v 0.000298 0.048084 0.044307
v 0.002050 0.047165 0.045303
v 0.003934 0.047184 0.045323
v 0.005843 0.047165 0.045308
v 0.007739 0.048084 0.044304
v 0.007739 0.048655 0.043680
v 0.009624 0.048461 0.043680
v 0.011521 0.048210 0.043680
v 0.074121 0.038642 0.044445
v 0.074121 -0.032792 0.042634
v 0.066825 0.031483 0.041454
v -0.026146 0.000942 0.032782
v -0.026315 0.001396 0.032782
v -0.026871 0.002789 0.032782
v -0.027342 0.003525 0.032782
v -0.027463 0.003689 0.032782
v -0.027632 0.003824 0.032782
v -0.028369 0.004357 0.032782
v -0.030253 0.005218 0.032782
v -0.032114 0.005382 0.032782
v -0.034023 0.004782 0.032782
v -0.034953 0.004211 0.032782
v -0.035219 0.004037 0.032782
v -0.036112 0.002799 0.032782
v -0.036777 0.001483 0.032782
v -0.048821 -0.006982 0.032785
v -0.047843 0.012328 0.032787
v -0.047504 0.013402 0.033021
v -0.036668 0.026636 0.043680
v -0.035206 0.028755 0.043680
v -0.035013 0.029026 0.043680
v -0.033902 0.030438 0.043680
v -0.033117 0.031435 0.043680
v -0.032343 0.032325 0.043680
v -0.031220 0.033563 0.043680
v -0.030580 0.034221 0.043680
v -0.029323 0.035449 0.043680
v -0.028647 0.036107 0.043680
v -0.027439 0.037152 0.043680
v -0.026436 0.038003 0.043680
v -0.025530 0.038729 0.043680
v -0.023984 0.039890 0.043680
v -0.023803 0.040025 0.043680
v -0.021121 0.041786 0.043680
v -0.019876 0.042492 0.043680
v -0.017944 0.043566 0.043680
v -0.017726 0.043672 0.043680
v -0.016289 0.044340 0.043680
v -0.014114 0.045298 0.043680
v -0.013450 0.045578 0.043680
v -0.012399 0.045965 0.043680
v -0.010152 0.046681 0.043680
v -0.008146 0.047300 0.043680
v -0.007470 0.047455 0.043680
v -0.005561 0.047852 0.043680
v -0.005078 0.047948 0.043680
v -0.003652 0.048190 0.043680
v -0.002831 0.048316 0.043680
v -0.001768 0.048461 0.043680
v 0.000298 0.048664 0.043680
v 0.000298 0.047116 0.045255
v 0.000141 0.048074 0.044302
v 0.000141 0.047107 0.045252
v 0.000141 0.046159 0.046012
v 0.002050 0.046217 0.046050
v 0.003934 0.046226 0.046065
v 0.005843 0.046217 0.046052
v 0.007739 0.046159 0.046012
v 0.007739 0.047107 0.045252
v 0.009624 0.047987 0.044221
v 0.011521 0.047852 0.044090
v 0.074121 0.037655 0.045300
v 0.009624 0.047010 0.045167
v 0.074121 -0.040599 0.042634
v -0.026146 -0.000945 0.032782
v -0.036958 0.000584 0.032782
v -0.048567 -0.008500 0.032785
v -0.048821 -0.006982 0.032787
v -0.048869 -0.006633 0.032787
v -0.049026 -0.005144 0.032787
v -0.049063 -0.004737 0.032787
v -0.049183 -0.002841 0.032787
v -0.049292 -0.000945 0.032787
v -0.049280 0.000942 0.032787
v -0.049196 0.002431 0.032787
v -0.049171 0.002847 0.032787
v -0.049051 0.004734 0.032787
v -0.048857 0.006630 0.032787
v -0.048567 0.008478 0.032787
v -0.048145 0.010858 0.032787
v -0.036958 -0.000597 0.032782
v -0.047226 0.012328 0.035097
v -0.046647 0.013402 0.036153
v -0.036886 0.026288 0.043680
v -0.037200 0.025253 0.043967
v -0.036004 0.025775 0.044684
v -0.035545 0.027507 0.044141
v -0.035122 0.028687 0.043801
v -0.033853 0.029209 0.044493
v -0.033382 0.030757 0.043919
v -0.032078 0.031280 0.044586
v -0.031606 0.032741 0.043985
v -0.029746 0.034627 0.044007
v -0.028333 0.035111 0.044626
v -0.027837 0.036455 0.043982
v -0.025844 0.038245 0.043897
v -0.023754 0.039977 0.043758
v -0.022619 0.040354 0.044085
v -0.020819 0.040828 0.044644
v -0.020275 0.042028 0.043914
v -0.018644 0.042666 0.044146
v -0.017726 0.041641 0.045466
v -0.016929 0.043876 0.043869
v -0.015044 0.044301 0.044264
v -0.012701 0.045723 0.043839
v -0.011227 0.045975 0.044085
v -0.009354 0.046265 0.044354
v -0.008074 0.045443 0.045464
v -0.006938 0.047513 0.043751
v -0.005537 0.047677 0.043909
v -0.003652 0.047852 0.044085
v -0.001768 0.047977 0.044213
v -0.001768 0.047010 0.045162
v -0.001768 0.046062 0.045942
v 0.000141 0.044785 0.046958
v 0.000298 0.044795 0.046961
v -0.001768 0.044688 0.046890
v 0.002050 0.044843 0.046998
v 0.003934 0.044862 0.047011
v 0.005843 0.044843 0.047001
v 0.007739 0.044785 0.046961
v 0.009624 0.046062 0.045947
v 0.074121 0.036697 0.046050
v 0.011521 0.045926 0.045846
v -0.026871 -0.002793 0.032782
v 0.074121 -0.039700 0.043509
v 0.009624 -0.047758 0.044450
v 0.000298 -0.050012 0.041927
v -0.038311 -0.022770 0.032785
v -0.048132 -0.010851 0.032785
v -0.048290 -0.007823 0.034334
v -0.048132 -0.006633 0.035605
v -0.048205 -0.005260 0.035902
v -0.048447 -0.004679 0.035200
v -0.048265 -0.004002 0.036108
v -0.048592 -0.002841 0.035097
v -0.048302 -0.002841 0.036209
v -0.048676 -0.000945 0.035097
v -0.048676 0.000942 0.035097
v -0.048290 0.002847 0.036178
v -0.048954 0.004734 0.033197
v -0.048205 0.005121 0.035894
v -0.048749 0.006630 0.033197
v -0.048459 0.008468 0.033222
v -0.047613 0.010432 0.035097
v -0.036789 -0.001487 0.032782
v -0.047069 0.010432 0.036993
v -0.046647 0.012347 0.037056
v -0.046284 0.012996 0.037728
v -0.046514 0.013402 0.036598
v -0.038843 0.022941 0.043680
v -0.038831 0.022912 0.043720
v -0.036547 0.023705 0.045295
v -0.037816 0.023608 0.044254
v -0.034772 0.026298 0.045406
v -0.034349 0.027507 0.045089
v -0.033068 0.028455 0.045542
v -0.032561 0.029732 0.045185
v -0.031304 0.030506 0.045627
v -0.030725 0.031783 0.045252
v -0.030229 0.033234 0.044631
v -0.028840 0.033737 0.045273
v -0.026871 0.035604 0.045247
v -0.024503 0.037539 0.045242
v -0.023549 0.037926 0.045519
v -0.024443 0.038884 0.044239
v -0.022788 0.038951 0.045124
v -0.021338 0.039619 0.045376
v -0.018825 0.041322 0.045217
v -0.020070 0.040025 0.045660
v -0.018825 0.040373 0.045894
v -0.017013 0.040925 0.046173
v -0.016446 0.041960 0.045700
v -0.015044 0.043237 0.045212
v -0.017013 0.042628 0.044920
v -0.013800 0.043508 0.045436
v -0.013244 0.044620 0.044639
v -0.011227 0.044949 0.045034
v -0.009354 0.045259 0.045303
v -0.009354 0.044301 0.046022
v -0.007446 0.044717 0.046095
v -0.005537 0.045752 0.045705
v -0.005537 0.046681 0.044857
v -0.003652 0.046875 0.045036
v -0.003652 0.045926 0.045844
v 0.000141 0.043837 0.047544
v -0.003556 0.044408 0.046890
v -0.002867 0.043653 0.047439
v -0.001768 0.043721 0.047486
v 0.000298 0.043847 0.047544
v 0.002050 0.043895 0.047569
v 0.003934 0.043914 0.047582
v 0.005843 0.043895 0.047572
v 0.007739 0.043837 0.047544
v 0.009624 0.043740 0.047489
v 0.009624 0.044688 0.046895
v 0.074121 0.034511 0.047698
v 0.074121 0.035449 0.047006
v -0.027463 -0.003692 0.032782
v 0.074121 -0.038761 0.044344
v 0.009624 -0.047013 0.045169
v 0.007739 -0.047932 0.044450
v 0.000298 -0.049751 0.042324
v 0.000141 -0.049751 0.042319
v -0.001768 -0.049838 0.041927
v -0.044194 -0.022770 0.032785
v -0.032114 -0.005385 0.032782
v -0.030253 -0.005221 0.032782
v -0.028828 -0.004573 0.032782
v -0.028369 -0.004360 0.032782
v -0.047843 -0.012331 0.032785
v -0.047589 -0.010426 0.035097
v -0.047988 -0.008491 0.035019
v -0.047420 -0.008530 0.036993
v -0.047722 -0.006633 0.036993
v -0.047975 -0.004679 0.036842
v -0.048000 -0.002841 0.037157
v -0.048338 -0.000945 0.036329
v -0.048338 0.000942 0.036334
v -0.048253 0.003853 0.036060
v -0.048434 0.004589 0.035195
v -0.047988 0.002847 0.037127
v -0.047963 0.004589 0.036812
v -0.047698 0.006630 0.036993
v -0.048120 0.006630 0.035562
v -0.047975 0.008468 0.034991
v -0.047408 0.008536 0.036993
v -0.036125 -0.002802 0.032782
v -0.044750 -0.021532 0.032785
v -0.045463 -0.019897 0.032785
v -0.046115 -0.018194 0.032785
v -0.046320 -0.017565 0.032785
v -0.047359 -0.014189 0.032785
v -0.046562 0.010432 0.038498
v -0.046429 0.011728 0.038156
v -0.046236 0.013402 0.037517
v -0.046006 0.012347 0.038825
v -0.046018 0.013402 0.038115
v -0.039725 0.021103 0.043680
v -0.045704 0.013402 0.038858
v -0.045306 0.013402 0.039705
v -0.039096 0.021809 0.043974
v -0.037780 0.021973 0.045036
v -0.036825 0.022718 0.045517
v -0.035194 0.025040 0.045703
v -0.033406 0.027507 0.045758
v -0.032102 0.027507 0.046510
v -0.031993 0.029209 0.045816
v -0.030084 0.029277 0.046822
v -0.030145 0.031212 0.045917
v -0.029468 0.032470 0.045657
v -0.027572 0.034337 0.045650
v -0.025603 0.036136 0.045607
v -0.022788 0.037152 0.046271
v -0.022280 0.038342 0.045801
v -0.024503 0.036581 0.045856
v -0.018765 0.038777 0.046880
v -0.020722 0.038951 0.046070
v -0.016929 0.039329 0.047154
v -0.015044 0.040683 0.046930
v -0.015044 0.042289 0.045922
v -0.012532 0.043769 0.045640
v -0.011227 0.043992 0.045811
v -0.009354 0.042860 0.046971
v -0.007446 0.043121 0.047139
v -0.005537 0.044582 0.046508
v -0.001768 0.042686 0.047957
v 0.000141 0.042686 0.048062
v 0.000298 0.042686 0.048068
v -0.004124 0.043527 0.047376
v -0.003556 0.042811 0.047761
v 0.002050 0.042686 0.048115
v 0.003934 0.042686 0.048138
v 0.005843 0.042686 0.048120
v 0.007739 0.042686 0.048060
v 0.074121 0.025427 0.052905
v 0.074121 0.027275 0.052070
v 0.074121 0.027507 0.051964
v 0.074121 0.028687 0.051351
v 0.074121 0.029635 0.050830
v 0.074121 0.031193 0.049879
v 0.074121 0.033195 0.048588
v 0.074121 -0.037668 0.045293
v 0.011521 -0.045930 0.045849
v 0.009624 -0.046065 0.045947
v 0.007739 -0.047100 0.045252
v 0.005843 -0.047159 0.045305
v 0.005843 -0.048039 0.044450
v 0.000298 -0.049035 0.043275
v -0.001768 -0.048939 0.043152
v -0.001768 -0.049654 0.042203
v -0.003652 -0.049538 0.042035
v -0.003652 -0.049606 0.041927
v -0.030906 -0.035801 0.041927
v -0.032766 -0.033866 0.041927
v -0.033624 -0.032860 0.041927
v -0.034530 -0.031796 0.041927
v -0.035327 -0.030809 0.041927
v -0.043832 -0.022770 0.034085
v -0.044267 -0.022354 0.033197
v -0.035907 -0.003112 0.032782
v -0.035231 -0.004041 0.032782
v -0.034023 -0.004786 0.032782
v -0.004993 -0.049384 0.041927
v -0.006153 -0.049151 0.041927
v -0.007470 -0.048813 0.041927
v -0.009354 -0.048310 0.041927
v -0.011215 -0.047787 0.041927
v -0.011940 -0.047565 0.041927
v -0.012471 -0.047391 0.041927
v -0.016482 -0.045756 0.041927
v -0.017509 -0.045282 0.041927
v -0.020203 -0.043869 0.041927
v -0.021229 -0.043250 0.041927
v -0.023633 -0.041799 0.041927
v -0.023778 -0.041702 0.041927
v -0.025808 -0.040125 0.041927
v -0.028925 -0.037620 0.041927
v -0.047239 -0.014228 0.033197
v -0.046477 -0.013715 0.036458
v -0.047202 -0.012331 0.035097
v -0.047057 -0.010426 0.036993
v -0.046562 -0.010426 0.038488
v -0.046695 -0.008568 0.039016
v -0.047033 -0.006633 0.038885
v -0.047239 -0.004737 0.038885
v -0.047371 -0.002841 0.038885
v -0.048036 -0.000945 0.037278
v -0.048036 0.000942 0.037283
v -0.047371 0.002847 0.038885
v -0.047226 0.004734 0.038885
v -0.047021 0.006630 0.038885
v -0.046695 0.008565 0.039019
v -0.044025 -0.021725 0.035061
v -0.044520 -0.021029 0.034405
v -0.044351 -0.020613 0.035670
v -0.044798 -0.019955 0.035061
v -0.045523 -0.018020 0.035097
v -0.046272 -0.016811 0.033849
v -0.046308 0.009223 0.039736
v -0.046188 0.010432 0.039446
v -0.040679 0.019052 0.043680
v -0.044847 0.013402 0.040626
v -0.044967 0.012376 0.040918
v -0.039737 0.019787 0.044249
v -0.038480 0.019913 0.045323
v -0.037151 0.021460 0.045751
v -0.035593 0.023705 0.045952
v -0.033914 0.023695 0.046940
v -0.034083 0.025640 0.046125
v -0.031123 0.026520 0.047418
v -0.030761 0.027507 0.047227
v -0.032150 0.025775 0.047154
v -0.029372 0.028571 0.047479
v -0.028792 0.029848 0.047217
v -0.028224 0.031212 0.046880
v -0.028248 0.033128 0.045939
v -0.026327 0.033108 0.046875
v -0.026291 0.035014 0.045896
v -0.024382 0.034946 0.046802
v -0.022619 0.035565 0.047202
v -0.021580 0.035972 0.047396
v -0.020867 0.036997 0.047114
v -0.018101 0.038071 0.047489
v -0.019369 0.037655 0.047293
v -0.015660 0.039658 0.047338
v -0.014404 0.039987 0.047507
v -0.013136 0.041186 0.047127
v -0.013160 0.042792 0.046115
v -0.011094 0.042502 0.046817
v -0.010369 0.041757 0.047441
v -0.009354 0.041912 0.047524
v -0.005537 0.043363 0.047283
v -0.005537 0.040789 0.048427
v -0.003652 0.040789 0.048561
v -0.001768 0.040789 0.048661
v 0.000141 0.040789 0.048737
v -0.007446 0.042173 0.047650
v -0.005537 0.042405 0.047751
v 0.002050 0.040789 0.048782
v 0.003934 0.040789 0.048797
v 0.005843 0.040789 0.048782
v 0.074121 0.020561 0.054925
v 0.074121 0.021257 0.054654
v 0.074121 0.021644 0.054495
v 0.074121 -0.036710 0.046060
v 0.074121 -0.035482 0.047006
v 0.074121 -0.034543 0.047700
v 0.009624 -0.044692 0.046895
v 0.007739 -0.044788 0.046961
v 0.007739 -0.046143 0.046012
v 0.005843 -0.046210 0.046050
v 0.003934 -0.046239 0.046060
v 0.003934 -0.047168 0.045320
v 0.003934 -0.048068 0.044450
v 0.002050 -0.048029 0.044450
v 0.000298 -0.048000 0.044387
v -0.001768 -0.047991 0.044216
v -0.003652 -0.047855 0.044085
v -0.003652 -0.048803 0.042981
v -0.029794 -0.036556 0.042244
v -0.030411 -0.035298 0.042880
v -0.031679 -0.034689 0.042256
v -0.031027 -0.034002 0.043524
v -0.032271 -0.033382 0.042855
v -0.033503 -0.032754 0.042193
v -0.035255 -0.030761 0.042075
v -0.036970 -0.028632 0.041927
v -0.042950 -0.022770 0.036993
v -0.043530 -0.022770 0.035107
v -0.005646 -0.048745 0.042576
v -0.006938 -0.047536 0.043756
v -0.007518 -0.048126 0.042840
v -0.009354 -0.047961 0.042435
v -0.011227 -0.047671 0.042080
v -0.011227 -0.046917 0.043029
v -0.013957 -0.045485 0.043585
v -0.015044 -0.046027 0.042369
v -0.016446 -0.045736 0.042000
v -0.017013 -0.044914 0.042654
v -0.017895 -0.043637 0.043642
v -0.018644 -0.044092 0.042656
v -0.020166 -0.043840 0.042002
v -0.020855 -0.042766 0.042777
v -0.021544 -0.041654 0.043549
v -0.022619 -0.041296 0.043182
v -0.023742 -0.039971 0.043756
v -0.024358 -0.040667 0.042563
v -0.025772 -0.040077 0.042015
v -0.027837 -0.038307 0.042143
v -0.028478 -0.037117 0.042827
v -0.029106 -0.035907 0.043509
v -0.046465 -0.015543 0.034563
v -0.046683 -0.014295 0.035154
v -0.046635 -0.012341 0.037051
v -0.046284 -0.014973 0.035829
v -0.045584 -0.016124 0.036993
v -0.046115 -0.014295 0.037051
v -0.046272 -0.012970 0.037723
v -0.046429 -0.011712 0.038143
v -0.046188 -0.010426 0.039436
v -0.046308 -0.009226 0.039736
v -0.046405 -0.007959 0.039944
v -0.046502 -0.006633 0.040110
v -0.046598 -0.004737 0.040302
v -0.046671 -0.002841 0.040427
v -0.047444 -0.000945 0.038885
v -0.047456 0.000942 0.038885
v -0.046671 0.002847 0.040427
v -0.046598 0.004734 0.040302
v -0.046502 0.006630 0.040113
v -0.046405 0.007955 0.039942
v -0.044605 -0.019355 0.036531
v -0.043385 -0.021812 0.036993
v -0.044158 -0.019955 0.037094
v -0.046115 -0.016153 0.035154
v -0.044883 -0.018126 0.037094
v -0.045898 0.008565 0.040659
v -0.045475 0.010432 0.040785
v -0.041295 0.017426 0.043680
v -0.040896 0.018007 0.043884
v -0.038710 0.018906 0.045514
v -0.044339 0.013402 0.041549
v -0.044545 0.011777 0.041864
v -0.044388 0.013044 0.041640
v -0.036076 0.021973 0.046249
v -0.037526 0.019913 0.045997
v -0.035823 0.020009 0.047016
v -0.034542 0.021809 0.047212
v -0.033225 0.023057 0.047517
v -0.032815 0.024314 0.047315
v -0.030386 0.025775 0.047894
v -0.029807 0.027507 0.047632
v -0.031546 0.025262 0.047592
v -0.028309 0.027507 0.048143
v -0.028224 0.029277 0.047657
v -0.027535 0.030535 0.047501
v -0.026907 0.031802 0.047232
v -0.025651 0.032421 0.047499
v -0.024938 0.033689 0.047215
v -0.023670 0.034221 0.047464
v -0.022619 0.034627 0.047615
v -0.020867 0.035217 0.047869
v -0.020323 0.036378 0.047577
v -0.018765 0.036997 0.047735
v -0.016929 0.036978 0.048166
v -0.016929 0.038381 0.047627
v -0.015044 0.038951 0.047786
v -0.013136 0.038884 0.048181
v -0.013136 0.040248 0.047625
v -0.011094 0.040828 0.047718
v -0.009354 0.040789 0.048012
v -0.007446 0.040789 0.048251
v -0.007446 0.038884 0.048862
v -0.005537 0.038884 0.048998
v -0.003616 0.038710 0.049139
v -0.001768 0.038980 0.049139
v 0.074121 0.014244 0.056792
v 0.074121 0.015869 0.056352
v 0.000298 0.039193 0.049134
v 0.074121 0.018016 0.055715
v 0.074121 0.020029 0.055091
v 0.074121 -0.033199 0.048613
v 0.010759 -0.043656 0.047444
v 0.009624 -0.043734 0.047489
v 0.074121 -0.032202 0.049285
v 0.074121 -0.031244 0.049881
v 0.007739 -0.043840 0.047544
v 0.005843 -0.044837 0.046998
v 0.003934 -0.044846 0.047011
v 0.002050 -0.044837 0.046998
v 0.002050 -0.046210 0.046050
v 0.002050 -0.047159 0.045303
v 0.000141 -0.047100 0.045250
v -0.001768 -0.047013 0.045162
v -0.003652 -0.046878 0.045036
v -0.005537 -0.047691 0.043912
v -0.031594 -0.032744 0.043987
v -0.032875 -0.032018 0.043456
v -0.029758 -0.034640 0.044002
v -0.034083 -0.031380 0.042767
v -0.035823 -0.029310 0.042621
v -0.034663 -0.029968 0.043341
v -0.035134 -0.028700 0.043801
v -0.036487 -0.027510 0.043265
v -0.037357 -0.027510 0.042314
v -0.038468 -0.026262 0.041927
v -0.042141 -0.022770 0.039066
v -0.042600 -0.022770 0.038060
v -0.005537 -0.046694 0.044857
v -0.006805 -0.045611 0.045602
v -0.007506 -0.046491 0.044606
v -0.009354 -0.046269 0.044354
v -0.008195 -0.047371 0.043574
v -0.009354 -0.047217 0.043386
v -0.012701 -0.045717 0.043829
v -0.013244 -0.044624 0.044631
v -0.015044 -0.044305 0.044264
v -0.016929 -0.043869 0.043866
v -0.015044 -0.045253 0.043318
v -0.018644 -0.042679 0.044148
v -0.020275 -0.042041 0.043924
v -0.019164 -0.043308 0.043268
v -0.017013 -0.042641 0.044915
v -0.022619 -0.040348 0.044080
v -0.024431 -0.038848 0.044206
v -0.025808 -0.038210 0.043866
v -0.027076 -0.037707 0.043408
v -0.025011 -0.039468 0.043278
v -0.021338 -0.039622 0.045371
v -0.022764 -0.038945 0.045109
v -0.023513 -0.037871 0.045499
v -0.027837 -0.036440 0.043972
v -0.028333 -0.035114 0.044621
v -0.044629 -0.017565 0.038377
v -0.044847 -0.016153 0.038961
v -0.045463 -0.014228 0.038888
v -0.045994 -0.012341 0.038817
v -0.044762 -0.014228 0.040385
v -0.044967 -0.012370 0.040910
v -0.045475 -0.010426 0.040785
v -0.045898 -0.008568 0.040659
v -0.045958 -0.006633 0.041061
v -0.046067 -0.004737 0.041247
v -0.046139 -0.002841 0.041378
v -0.046707 -0.000945 0.040490
v -0.046707 0.000942 0.040493
v -0.046139 0.002847 0.041378
v -0.046067 0.004734 0.041250
v -0.045958 0.006630 0.041061
v -0.044400 -0.018833 0.037796
v -0.044871 0.008536 0.042302
v -0.044690 0.010432 0.042068
v -0.044001 0.013402 0.042000
v -0.042104 0.015124 0.043680
v -0.041247 0.016091 0.044219
v -0.040196 0.016091 0.045169
v -0.039628 0.018152 0.044963
v -0.038963 0.017639 0.045703
v -0.037973 0.018152 0.046213
v -0.043953 0.010432 0.043019
v -0.043844 0.012376 0.042571
v -0.042745 0.013402 0.043602
v -0.034856 0.020696 0.047383
v -0.036414 0.018007 0.047202
v -0.033588 0.021809 0.047663
v -0.032102 0.021809 0.048229
v -0.032150 0.023695 0.047771
v -0.030193 0.023705 0.048447
v -0.028309 0.025611 0.048596
v -0.026412 0.027507 0.048671
v -0.026412 0.029393 0.048206
v -0.026327 0.031212 0.047675
v -0.024503 0.031299 0.048201
v -0.024382 0.033108 0.047645
v -0.022619 0.033195 0.048120
v -0.018825 0.035082 0.048405
v -0.015044 0.036978 0.048510
v -0.011227 0.038884 0.048460
v -0.009354 0.038884 0.048684
v -0.011227 0.036978 0.048996
v -0.009403 0.036862 0.049174
v -0.004208 0.037771 0.049308
v -0.002952 0.037974 0.049330
v 0.074121 0.013508 0.056968
v 0.074121 -0.029648 0.050822
v 0.074121 -0.028700 0.051348
v 0.074121 -0.027491 0.051967
v 0.074121 -0.025440 0.052905
v 0.007739 -0.042679 0.048062
v 0.005843 -0.042679 0.048118
v 0.005843 -0.043889 0.047572
v 0.003934 -0.043908 0.047579
v 0.002050 -0.043889 0.047569
v 0.000298 -0.043840 0.047544
v 0.000298 -0.044788 0.046961
v 0.000298 -0.046162 0.046012
v -0.001768 -0.046065 0.045947
v -0.003652 -0.045920 0.045844
v -0.005537 -0.045746 0.045708
v -0.030241 -0.033228 0.044626
v -0.030725 -0.031767 0.045252
v -0.032066 -0.031274 0.044588
v -0.033394 -0.030761 0.043927
v -0.028840 -0.033731 0.045268
v -0.035545 -0.027510 0.044141
v -0.036825 -0.026514 0.043607
v -0.033853 -0.029223 0.044493
v -0.034349 -0.027510 0.045089
v -0.037937 -0.025827 0.042840
v -0.039024 -0.025140 0.042075
v -0.040655 -0.022770 0.041733
v -0.041307 -0.022770 0.040603
v -0.042310 -0.022228 0.039283
v -0.042600 -0.020961 0.039909
v -0.042781 -0.021686 0.038744
v -0.043482 -0.019916 0.038888
v -0.007446 -0.044711 0.046100
v -0.009354 -0.044305 0.046022
v -0.008074 -0.045437 0.045459
v -0.005537 -0.044576 0.046510
v -0.009354 -0.045253 0.045303
v -0.011227 -0.044953 0.045031
v -0.011227 -0.045959 0.044083
v -0.013788 -0.043502 0.045436
v -0.015044 -0.043250 0.045212
v -0.018825 -0.041335 0.045220
v -0.020807 -0.040841 0.044646
v -0.017714 -0.041635 0.045461
v -0.016446 -0.041973 0.045705
v -0.024503 -0.037484 0.045205
v -0.026835 -0.035598 0.045237
v -0.020070 -0.040029 0.045663
v -0.022232 -0.038345 0.045806
v -0.024503 -0.036546 0.045829
v -0.025566 -0.036120 0.045587
v -0.027572 -0.034340 0.045655
v -0.044170 -0.018126 0.038961
v -0.044363 -0.016811 0.039642
v -0.044569 -0.015543 0.040042
v -0.044206 -0.014228 0.041336
v -0.044388 -0.013028 0.041625
v -0.044545 -0.011770 0.041869
v -0.044690 -0.010426 0.042065
v -0.044871 -0.008530 0.042297
v -0.044980 -0.006982 0.042447
v -0.045004 -0.006633 0.042480
v -0.045112 -0.004737 0.042619
v -0.046175 -0.000945 0.041439
v -0.045064 -0.002986 0.042870
v -0.046175 0.000942 0.041441
v -0.045064 0.002983 0.042868
v -0.045112 0.004734 0.042621
v -0.045004 0.006630 0.042483
v -0.044291 0.006630 0.043431
v -0.044134 0.008536 0.043250
v -0.042684 0.013402 0.043678
v -0.040449 0.014611 0.045388
v -0.041537 0.014069 0.044551
v -0.039253 0.016091 0.045909
v -0.037683 0.016130 0.046930
v -0.043578 0.009484 0.043678
v -0.043373 0.010432 0.043678
v -0.043047 0.011893 0.043680
v -0.035158 0.019429 0.047534
v -0.036704 0.016739 0.047356
v -0.034119 0.020009 0.047834
v -0.033998 0.018007 0.048269
v -0.032102 0.019913 0.048571
v -0.030193 0.021809 0.048787
v -0.028309 0.023705 0.048938
v -0.026231 0.025427 0.049076
v -0.024358 0.027362 0.049101
v -0.024503 0.029393 0.048696
v -0.022619 0.031299 0.048661
v -0.020734 0.033195 0.048568
v -0.016929 0.035082 0.048744
v -0.013136 0.036978 0.048779
v -0.014114 0.034172 0.049328
v -0.010091 0.035923 0.049313
v -0.008823 0.036136 0.049343
v 0.074121 0.008526 0.057864
v 0.074121 0.012599 0.057142
v 0.074121 -0.023031 0.053919
v 0.074121 -0.021773 0.054442
v 0.074121 -0.021251 0.054654
v 0.005843 -0.040783 0.048777
v 0.003934 -0.040783 0.048795
v 0.003934 -0.042679 0.048133
v 0.074121 -0.020042 0.055086
v 0.002050 -0.042679 0.048118
v 0.000298 -0.042689 0.048062
v 0.000141 -0.042689 0.048057
v -0.001768 -0.043734 0.047489
v -0.001768 -0.044682 0.046893
v -0.003568 -0.044411 0.046885
v -0.029468 -0.032473 0.045663
v -0.031292 -0.030500 0.045622
v -0.032561 -0.029735 0.045190
v -0.034784 -0.026301 0.045408
v -0.036004 -0.025779 0.044691
v -0.037212 -0.025237 0.043972
v -0.038831 -0.022915 0.043713
v -0.038468 -0.024163 0.043341
v -0.033056 -0.028468 0.045539
v -0.040184 -0.022006 0.042704
v -0.040413 -0.020342 0.043353
v -0.040945 -0.021493 0.042088
v -0.042479 -0.018794 0.041625
v -0.042237 -0.019916 0.041232
v -0.042817 -0.019916 0.040284
v -0.007446 -0.043134 0.047139
v -0.011094 -0.042515 0.046820
v -0.011227 -0.044005 0.045808
v -0.009354 -0.042863 0.046968
v -0.005537 -0.043366 0.047283
v -0.012532 -0.043753 0.045635
v -0.015044 -0.042302 0.045927
v -0.018825 -0.040377 0.045894
v -0.015044 -0.040686 0.046933
v -0.017013 -0.040919 0.046176
v -0.018765 -0.038781 0.046878
v -0.020710 -0.038945 0.046070
v -0.020843 -0.037010 0.047109
v -0.022764 -0.037146 0.046259
v -0.026279 -0.035027 0.045884
v -0.024358 -0.034930 0.046774
v -0.028248 -0.033141 0.045942
v -0.026327 -0.033112 0.046870
v -0.043965 -0.016153 0.040719
v -0.043167 -0.018107 0.040910
v -0.042720 -0.017527 0.041957
v -0.042962 -0.016124 0.042269
v -0.043155 -0.014170 0.042787
v -0.043832 -0.012370 0.042573
v -0.043953 -0.010426 0.043013
v -0.044134 -0.008530 0.043245
v -0.044255 -0.006982 0.043396
v -0.044279 -0.006633 0.043429
v -0.044400 -0.004737 0.043567
v -0.044448 -0.003712 0.043625
v -0.045282 -0.000945 0.042681
v -0.044484 -0.002444 0.043678
v -0.045282 0.000942 0.042681
v -0.044484 0.002441 0.043678
v -0.044448 0.003699 0.043622
v -0.044400 0.004734 0.043569
v -0.044267 0.004976 0.043678
v -0.043324 0.006640 0.044417
v -0.043965 0.007181 0.043678
v -0.043747 0.008536 0.043678
v -0.042769 0.012328 0.043876
v -0.041754 0.012328 0.044825
v -0.040667 0.013373 0.045554
v -0.039773 0.014089 0.046017
v -0.038118 0.014224 0.047069
v -0.036970 0.015491 0.047496
v -0.043167 0.008516 0.044279
v -0.042986 0.010432 0.044103
v -0.035484 0.018007 0.047673
v -0.036004 0.016130 0.047793
v -0.035895 0.014224 0.048143
v -0.033998 0.016091 0.048548
v -0.032102 0.018007 0.048845
v -0.030048 0.019758 0.049099
v -0.028224 0.021818 0.049190
v -0.026750 0.023705 0.049227
v -0.025482 0.024682 0.049325
v -0.024890 0.025949 0.049235
v -0.022993 0.027894 0.049240
v -0.022474 0.029229 0.049099
v -0.020541 0.031096 0.049071
v -0.018825 0.033195 0.048908
v -0.014851 0.034898 0.049074
v -0.019792 0.030351 0.049325
v 0.074121 0.006640 0.058128
v 0.002050 -0.040783 0.048779
v 0.074121 -0.016124 0.056261
v 0.074121 -0.014392 0.056757
v 0.000141 -0.040783 0.048729
v -0.001768 -0.040783 0.048661
v -0.001768 -0.042689 0.047959
v -0.002891 -0.043666 0.047446
v -0.004148 -0.043521 0.047371
v -0.030145 -0.031196 0.045914
v -0.028224 -0.031225 0.046880
v -0.031993 -0.029223 0.045813
v -0.030084 -0.029290 0.046820
v -0.035194 -0.025034 0.045700
v -0.036535 -0.023718 0.045298
v -0.033406 -0.027510 0.045758
v -0.037828 -0.023612 0.044254
v -0.038867 -0.022770 0.043751
v -0.032102 -0.027510 0.046508
v -0.040703 -0.019074 0.043678
v -0.041186 -0.019790 0.042704
v -0.041947 -0.018107 0.042626
v -0.007446 -0.042186 0.047652
v -0.009354 -0.041915 0.047524
v -0.010357 -0.041760 0.047439
v -0.011626 -0.041499 0.047305
v -0.013136 -0.041199 0.047129
v -0.013160 -0.042795 0.046115
v -0.014404 -0.039990 0.047504
v -0.015660 -0.039651 0.047338
v -0.016929 -0.039332 0.047154
v -0.019369 -0.037649 0.047288
v -0.018113 -0.038074 0.047494
v -0.021544 -0.035956 0.047388
v -0.022619 -0.035550 0.047179
v -0.024890 -0.033682 0.047202
v -0.025651 -0.032425 0.047499
v -0.026907 -0.031796 0.047230
v -0.042201 -0.016124 0.043217
v -0.042431 -0.014769 0.043489
v -0.042636 -0.013531 0.043678
v -0.042938 -0.012331 0.043678
v -0.042769 -0.012322 0.043876
v -0.043373 -0.010426 0.043678
v -0.042986 -0.010416 0.044103
v -0.043735 -0.008530 0.043678
v -0.043167 -0.008520 0.044279
v -0.044037 -0.006624 0.043680
v -0.044291 -0.004737 0.043678
v -0.044400 -0.003683 0.043678
v -0.044520 -0.000935 0.043680
v -0.044533 0.000942 0.043680
v -0.042515 -0.003489 0.045514
v -0.042551 -0.002212 0.045549
v -0.042576 -0.000935 0.045564
v -0.042551 0.002219 0.045554
v -0.042515 0.003476 0.045514
v -0.044388 0.003757 0.043678
v -0.044291 0.004734 0.043678
v -0.043445 0.004734 0.044518
v -0.042455 0.004734 0.045469
v -0.042334 0.006640 0.045366
v -0.042189 0.008516 0.045227
v -0.041996 0.010432 0.045051
v -0.040800 0.012328 0.045668
v -0.039688 0.012328 0.046432
v -0.038408 0.012328 0.047242
v -0.037163 0.014224 0.047597
v -0.038625 0.010925 0.047361
v -0.035895 0.012328 0.048374
v -0.037453 0.012328 0.047720
v -0.033998 0.014224 0.048774
v -0.031933 0.015966 0.049107
v -0.029299 0.019042 0.049330
v -0.027161 0.022486 0.049303
v -0.023633 0.026617 0.049333
v 0.074121 0.002828 0.058377
v 0.074121 0.004724 0.058274
v -0.021749 0.028503 0.049333
v 0.074121 -0.014257 0.056792
v -0.001768 -0.038984 0.049139
v -0.003580 -0.038713 0.049134
v -0.005537 -0.038877 0.048996
v -0.003652 -0.040783 0.048561
v -0.005537 -0.040783 0.048425
v -0.003568 -0.042815 0.047761
v -0.005537 -0.042409 0.047748
v -0.028804 -0.029861 0.047215
v -0.027535 -0.030538 0.047507
v -0.029372 -0.028584 0.047476
v -0.030749 -0.027510 0.047227
v -0.034083 -0.025643 0.046123
v -0.033914 -0.023708 0.046935
v -0.035593 -0.023718 0.045949
v -0.036813 -0.022770 0.045504
v -0.037792 -0.021977 0.045031
v -0.039096 -0.021812 0.043972
v -0.032150 -0.025779 0.047154
v -0.031123 -0.026514 0.047416
v -0.040896 -0.017991 0.043889
v -0.039737 -0.019781 0.044251
v -0.038468 -0.019906 0.045318
v -0.038698 -0.018891 0.045509
v -0.040208 -0.016124 0.045169
v -0.007446 -0.040783 0.048254
v -0.009354 -0.040783 0.048012
v -0.011094 -0.040832 0.047715
v -0.013136 -0.040251 0.047625
v -0.015044 -0.038964 0.047786
v -0.016929 -0.038374 0.047627
v -0.013136 -0.038877 0.048186
v -0.018765 -0.037010 0.047738
v -0.020275 -0.036391 0.047579
v -0.016929 -0.036981 0.048166
v -0.020843 -0.035230 0.047864
v -0.023633 -0.034205 0.047451
v -0.024358 -0.033112 0.047635
v -0.024503 -0.031293 0.048196
v -0.026327 -0.031225 0.047680
v -0.041766 -0.016124 0.043678
v -0.041247 -0.016124 0.044221
v -0.041766 -0.012322 0.044822
v -0.040461 -0.014624 0.045391
v -0.040667 -0.013357 0.045554
v -0.041996 -0.010416 0.045051
v -0.042189 -0.008520 0.045227
v -0.043312 -0.006624 0.044415
v -0.043433 -0.004718 0.044515
v -0.042455 -0.004718 0.045464
v -0.042576 0.000942 0.045567
v -0.041512 -0.004718 0.046161
v -0.041766 -0.002851 0.046085
v -0.041585 -0.000935 0.046269
v -0.041585 0.000942 0.046271
v -0.041766 0.002847 0.046085
v -0.041512 0.004734 0.046163
v -0.041380 0.006640 0.046085
v -0.041247 0.008516 0.045987
v -0.041041 0.010432 0.045849
v -0.039531 0.010354 0.046885
v -0.038782 0.009668 0.047449
v -0.037900 0.010354 0.047761
v -0.037792 0.008516 0.048000
v -0.035895 0.010432 0.048548
v -0.033998 0.012328 0.048953
v -0.031184 0.015240 0.049330
v 0.074121 0.000777 0.058477
v 0.074121 -0.012593 0.057144
v -0.002916 -0.037958 0.049330
v -0.007446 -0.037252 0.049210
v -0.009391 -0.036865 0.049169
v -0.007446 -0.038877 0.048862
v -0.028224 -0.029290 0.047660
v -0.026412 -0.029406 0.048206
v -0.029794 -0.027510 0.047632
v -0.028309 -0.027510 0.048143
v -0.034530 -0.021812 0.047210
v -0.035859 -0.022770 0.046115
v -0.032815 -0.024327 0.047315
v -0.033237 -0.023070 0.047517
v -0.037151 -0.021445 0.045756
v -0.030386 -0.025779 0.047894
v -0.031546 -0.025256 0.047597
v -0.038963 -0.017604 0.045705
v -0.037526 -0.019906 0.046002
v -0.039253 -0.016124 0.045907
v -0.009354 -0.038877 0.048681
v -0.011227 -0.038877 0.048457
v -0.015044 -0.036981 0.048513
v -0.018825 -0.035095 0.048400
v -0.022619 -0.033199 0.048093
v -0.022619 -0.031293 0.048651
v -0.024503 -0.029406 0.048694
v -0.040812 -0.012322 0.045670
v -0.039773 -0.014073 0.046012
v -0.039688 -0.012322 0.046437
v -0.041041 -0.010416 0.045851
v -0.042334 -0.006624 0.045363
v -0.041247 -0.008520 0.045987
v -0.041380 -0.006624 0.046085
v -0.039990 -0.006624 0.047034
v -0.040099 -0.004718 0.047109
v -0.040171 -0.002802 0.047159
v -0.040220 -0.000935 0.047182
v -0.040220 0.000942 0.047187
v -0.040171 0.002828 0.047159
v -0.040099 0.004734 0.047109
v -0.039990 0.006640 0.047034
v -0.039833 0.008516 0.046933
v -0.038903 0.008516 0.047512
v -0.037792 0.006640 0.048153
v -0.035895 0.008516 0.048689
v -0.033817 0.010316 0.049124
v -0.033080 0.009610 0.049330
v 0.074121 -0.000771 0.058483
v -0.032102 0.008516 0.049436
v -0.032102 0.006640 0.049469
v -0.033406 0.004734 0.049386
v 0.074121 -0.011828 0.057280
v -0.008787 -0.036140 0.049343
v 0.074121 -0.008539 0.057861
v -0.010043 -0.035917 0.049313
v -0.011227 -0.036981 0.048996
v -0.026412 -0.027510 0.048671
v -0.028309 -0.025604 0.048596
v -0.034844 -0.020680 0.047378
v -0.036076 -0.021977 0.046251
v -0.032150 -0.023708 0.047773
v -0.032102 -0.021812 0.048229
v -0.033588 -0.021812 0.047663
v -0.030193 -0.023718 0.048442
v -0.037961 -0.018126 0.046216
v -0.037683 -0.016124 0.046930
v -0.035823 -0.019984 0.047016
v -0.036427 -0.017991 0.047202
v -0.036717 -0.016772 0.047361
v -0.038118 -0.014199 0.047066
v -0.013136 -0.036981 0.048785
v -0.016929 -0.035095 0.048739
v -0.018825 -0.033199 0.048903
v -0.020722 -0.033199 0.048548
v -0.020541 -0.031109 0.049059
v -0.022474 -0.029261 0.049099
v -0.024358 -0.027355 0.049099
v -0.039531 -0.010348 0.046885
v -0.038408 -0.012322 0.047242
v -0.038625 -0.010929 0.047361
v -0.039833 -0.008520 0.046933
v -0.038903 -0.008520 0.047514
v -0.039048 -0.006624 0.047592
v -0.039145 -0.004718 0.047642
v -0.039229 -0.002802 0.047678
v -0.039253 -0.000935 0.047695
v -0.039265 0.000942 0.047698
v -0.039229 0.002828 0.047678
v -0.039157 0.004734 0.047642
v -0.039048 0.006640 0.047592
v -0.037792 0.004734 0.048254
v -0.035895 0.006640 0.048802
v -0.034107 0.008516 0.049149
v -0.033153 0.008516 0.049343
v -0.034228 0.006640 0.049190
v -0.034361 0.004734 0.049220
v -0.029299 -0.019026 0.049330
v 0.074121 -0.002851 0.058389
v -0.033431 -0.004718 0.049388
v -0.032102 -0.006624 0.049476
v -0.032102 -0.008520 0.049441
v -0.033092 -0.009642 0.049333
v -0.031184 -0.015263 0.049330
v 0.074121 -0.006624 0.058130
v -0.014042 -0.034118 0.049320
v -0.015044 -0.035095 0.049006
v -0.026243 -0.025440 0.049076
v -0.028309 -0.023718 0.048928
v -0.030193 -0.021812 0.048785
v -0.035158 -0.019403 0.047534
v -0.032102 -0.019906 0.048571
v -0.033998 -0.017991 0.048269
v -0.034119 -0.019984 0.047836
v -0.036970 -0.015485 0.047494
v -0.035484 -0.017991 0.047673
v -0.019780 -0.030354 0.049323
v -0.016929 -0.033092 0.049169
v -0.021048 -0.029793 0.049227
v -0.021749 -0.028516 0.049335
v -0.023005 -0.027878 0.049237
v -0.025494 -0.024705 0.049330
v -0.038782 -0.009642 0.047449
v -0.037163 -0.014199 0.047597
v -0.037453 -0.012322 0.047720
v -0.037792 -0.008520 0.048002
v -0.037792 -0.006624 0.048153
v -0.037792 -0.004718 0.048254
v -0.037792 -0.002802 0.048317
v -0.037792 -0.000935 0.048347
v -0.037792 0.000942 0.048352
v -0.037792 0.002828 0.048319
v -0.035895 0.004734 0.048880
v -0.035895 0.002828 0.048933
v -0.034385 -0.004718 0.049222
v -0.030048 -0.019771 0.049101
v 0.074121 -0.004718 0.058284
v -0.033177 -0.008520 0.049348
v -0.034119 -0.008520 0.049147
v -0.033829 -0.010319 0.049122
v -0.033998 -0.012322 0.048946
v -0.031933 -0.015979 0.049101
v -0.017545 -0.031980 0.049298
v -0.032102 -0.017991 0.048842
v -0.033998 -0.016124 0.048543
v -0.035895 -0.014199 0.048143
v -0.036004 -0.016124 0.047791
v -0.037900 -0.010348 0.047761
v -0.035895 -0.012322 0.048369
v -0.035895 -0.010416 0.048546
v -0.035895 -0.008520 0.048689
v -0.035895 -0.006624 0.048800
v -0.035895 -0.004718 0.048883
v -0.035895 -0.002802 0.048935
v -0.033998 -0.014199 0.048769
f 149 84 148
f 20 7 19
f 84 85 21
f 84 149 145
f 145 85 84
f 148 84 147
f 19 7 18
f 7 17 18
f 18 81 19
f 17 81 18
f 7 28 8
f 226 149 148
f 215 300 301
f 1 8 9
f 7 8 1
f 506 509 508
f 508 509 387
f 1063 1064 1010
f 1010 1062 1063
f 9 35 36
f 253 231 166
f 299 300 215
f 215 298 299
f 80 81 17
f 19 81 80
f 121 122 56
f 387 509 510
f 510 391 387
f 618 509 506
f 1010 962 1013
f 961 962 889
f 94 36 93
f 335 336 226
f 7 22 23
f 23 24 7
f 27 28 7
f 7 26 27
f 7 24 25
f 25 26 7
f 9 8 30
f 30 31 9
f 149 226 227
f 86 36 35
f 526 527 409
f 146 147 84
f 148 147 222
f 307 222 306
f 631 630 726
f 729 631 728
f 1010 1064 1065
f 1065 1059 1010
f 712 711 808
f 69 70 9
f 69 132 70
f 2 1 9
f 2 3 1
f 202 286 205
f 201 286 202
f 207 286 290
f 205 286 207
f 82 144 143
f 144 218 143
f 19 80 83
f 83 82 19
f 83 144 82
f 83 80 79
f 4 5 1
f 1 3 4
f 14 78 79
f 79 80 15
f 122 121 189
f 189 190 122
f 384 505 506
f 277 384 279
f 58 59 9
f 60 61 9
f 9 59 60
f 625 518 517
f 720 816 722
f 719 816 720
f 722 723 624
f 624 623 722
f 723 625 624
f 624 625 517
f 893 816 894
f 1090 1115 1091
f 1089 1114 1090
f 1090 1114 1115
f 1064 1063 1099
f 1099 1063 1062
f 1096 1013 1058
f 1058 1095 1096
f 1096 1095 1115
f 1115 1114 1096
f 1064 1099 1096
f 1009 962 961
f 890 889 808
f 892 889 962
f 892 893 808
f 808 889 892
f 103 38 102
f 161 162 98
f 96 160 161
f 96 36 95
f 36 94 95
f 95 160 96
f 94 160 95
f 88 36 87
f 334 226 333
f 334 335 226
f 455 340 459
f 549 428 548
f 226 318 319
f 318 430 319
f 318 428 429
f 429 430 318
f 429 428 549
f 34 35 9
f 9 33 34
f 9 31 32
f 32 33 9
f 29 8 28
f 29 30 8
f 36 86 101
f 101 87 36
f 409 408 523
f 523 526 409
f 407 304 406
f 408 304 407
f 305 408 409
f 305 304 408
f 406 304 303
f 147 146 221
f 221 146 220
f 221 222 147
f 306 222 221
f 221 305 306
f 304 305 221
f 220 303 221
f 221 303 304
f 626 627 525
f 527 626 525
f 525 627 628
f 148 222 223
f 416 415 533
f 416 309 415
f 533 415 414
f 415 307 414
f 308 307 415
f 222 307 308
f 308 223 222
f 415 309 308
f 309 223 308
f 630 629 724
f 818 728 730
f 730 631 726
f 895 963 964
f 1064 1101 1102
f 1102 1065 1064
f 1102 1101 1112
f 1081 1066 1098
f 1098 1083 1081
f 964 963 1014
f 1014 1016 964
f 1078 1066 1081
f 1078 1067 1066
f 1017 1016 1066
f 1066 1067 1017
f 47 9 46
f 47 48 9
f 186 116 185
f 49 48 115
f 9 48 49
f 185 116 184
f 184 273 185
f 11 70 72
f 70 132 72
f 68 9 67
f 68 69 9
f 9 70 10
f 10 2 9
f 10 70 11
f 11 3 10
f 3 2 10
f 204 202 205
f 203 202 204
f 130 203 204
f 67 9 66
f 9 65 66
f 66 65 130
f 129 203 130
f 130 65 129
f 285 286 201
f 140 213 214
f 296 297 214
f 214 297 298
f 214 298 215
f 403 404 294
f 294 402 403
f 294 214 213
f 213 212 294
f 301 302 216
f 215 301 216
f 216 302 217
f 511 510 509
f 391 510 511
f 208 207 290
f 290 291 208
f 12 3 11
f 11 71 12
f 13 4 12
f 12 4 3
f 12 75 13
f 12 71 74
f 74 75 12
f 77 14 13
f 78 14 77
f 140 77 139
f 139 213 140
f 139 212 213
f 136 75 74
f 517 518 520
f 518 519 400
f 400 520 518
f 400 397 517
f 517 520 400
f 287 206 209
f 209 208 287
f 287 208 291
f 144 83 142
f 79 78 142
f 142 83 79
f 142 216 217
f 217 218 142
f 142 218 144
f 16 80 17
f 16 15 80
f 16 17 7
f 5 15 16
f 117 186 185
f 116 186 117
f 117 51 116
f 54 118 119
f 9 53 54
f 53 117 54
f 54 117 118
f 119 118 188
f 188 189 119
f 190 189 188
f 277 190 278
f 122 190 191
f 191 190 277
f 506 508 507
f 507 384 506
f 507 508 387
f 387 384 507
f 386 384 387
f 386 279 384
f 56 122 123
f 59 58 123
f 124 60 59
f 59 123 124
f 199 282 283
f 283 200 199
f 201 202 128
f 128 200 201
f 199 200 128
f 128 202 203
f 203 129 128
f 128 129 63
f 387 391 388
f 722 623 721
f 721 720 722
f 623 720 721
f 515 396 395
f 808 893 891
f 893 894 891
f 815 816 719
f 815 894 816
f 1100 1101 1064
f 1064 1096 1100
f 1100 1096 1114
f 1013 1096 1061
f 1061 1096 1099
f 1061 1099 1062
f 1061 1062 1010
f 1010 1013 1061
f 1012 1013 962
f 1055 1009 1008
f 159 160 94
f 93 158 159
f 159 94 93
f 157 158 93
f 93 156 157
f 743 647 742
f 915 855 854
f 854 835 915
f 808 711 807
f 807 890 808
f 889 890 806
f 711 805 806
f 806 805 889
f 806 807 711
f 890 807 806
f 167 165 247
f 102 165 167
f 100 165 102
f 93 36 92
f 36 91 92
f 92 156 93
f 262 259 362
f 98 162 163
f 162 245 163
f 96 161 97
f 97 161 98
f 97 36 96
f 97 98 36
f 341 232 231
f 341 340 455
f 231 340 341
f 88 87 151
f 151 152 88
f 233 152 151
f 231 232 150
f 150 232 233
f 87 101 150
f 233 151 150
f 150 151 87
f 150 101 166
f 150 166 231
f 88 152 89
f 89 36 88
f 854 855 773
f 773 772 854
f 652 748 749
f 233 232 342
f 342 341 455
f 232 341 342
f 317 318 226
f 314 226 338
f 314 315 226
f 423 315 314
f 427 428 318
f 318 317 427
f 652 655 653
f 654 655 549
f 549 548 654
f 654 653 655
f 548 653 654
f 549 655 656
f 678 655 679
f 430 429 356
f 226 166 248
f 323 227 226
f 226 322 323
f 219 145 149
f 149 230 219
f 149 227 228
f 411 307 306
f 306 305 411
f 409 527 524
f 524 525 409
f 527 525 524
f 409 525 410
f 410 305 409
f 410 411 305
f 633 631 729
f 309 416 417
f 417 418 309
f 417 416 533
f 413 414 307
f 533 414 413
f 226 328 329
f 329 330 226
f 726 630 725
f 630 724 725
f 727 728 631
f 631 730 727
f 727 730 728
f 819 728 818
f 896 895 964
f 1111 1102 1112
f 1110 1102 1111
f 741 647 646
f 742 647 741
f 1010 1059 1060
f 1059 1083 1060
f 1083 1098 1060
f 964 1016 1015
f 1016 1017 1015
f 731 633 729
f 634 633 731
f 115 48 114
f 52 53 9
f 9 51 52
f 52 117 53
f 51 117 52
f 115 116 50
f 50 49 115
f 116 51 50
f 50 51 9
f 9 49 50
f 269 179 267
f 9 38 39
f 185 273 276
f 273 380 276
f 385 384 277
f 277 278 385
f 719 720 621
f 711 610 609
f 803 887 804
f 804 709 803
f 133 204 205
f 205 134 133
f 130 204 131
f 131 133 132
f 204 133 131
f 67 66 131
f 131 66 130
f 131 68 67
f 132 69 131
f 69 68 131
f 127 126 199
f 63 126 127
f 199 128 127
f 127 128 63
f 61 126 62
f 62 126 63
f 9 61 62
f 62 63 9
f 198 282 199
f 199 126 198
f 64 129 65
f 63 129 64
f 64 65 9
f 9 63 64
f 290 286 393
f 286 285 393
f 393 398 290
f 398 393 392
f 392 393 285
f 295 404 405
f 295 294 404
f 295 405 296
f 296 214 295
f 214 294 295
f 141 77 140
f 78 77 141
f 140 214 141
f 141 214 215
f 215 216 141
f 512 511 509
f 391 511 512
f 512 392 391
f 512 513 398
f 398 392 512
f 398 513 399
f 290 398 399
f 399 291 290
f 74 71 73
f 73 134 74
f 73 133 134
f 73 71 11
f 11 72 73
f 73 72 132
f 132 133 73
f 75 139 76
f 76 139 77
f 13 75 76
f 76 77 13
f 74 134 137
f 205 207 137
f 137 134 205
f 207 208 137
f 137 208 209
f 209 206 137
f 138 139 75
f 75 136 138
f 138 136 206
f 403 402 401
f 519 521 401
f 401 400 519
f 397 400 292
f 1 5 6
f 5 16 6
f 7 1 6
f 6 16 7
f 120 189 121
f 120 121 56
f 119 189 120
f 120 54 119
f 185 188 187
f 187 188 118
f 187 117 185
f 118 117 187
f 275 278 190
f 275 188 185
f 190 188 275
f 279 386 280
f 280 386 387
f 387 388 280
f 56 123 57
f 57 123 58
f 9 56 57
f 57 58 9
f 60 124 125
f 125 198 126
f 61 60 125
f 125 126 61
f 193 280 281
f 194 124 123
f 122 193 194
f 200 283 284
f 391 392 284
f 284 392 285
f 201 200 284
f 284 285 201
f 390 388 391
f 390 283 282
f 391 284 390
f 390 284 283
f 516 624 517
f 396 515 516
f 623 624 516
f 516 515 623
f 517 397 516
f 397 396 516
f 394 515 395
f 395 287 394
f 394 287 291
f 291 399 394
f 394 399 513
f 1112 1101 1113
f 1101 1100 1113
f 1113 1100 1114
f 1113 1114 1089
f 960 1009 961
f 1008 1009 960
f 962 1009 1011
f 1011 1012 962
f 1009 1012 1011
f 1013 1012 1056
f 1056 1012 1009
f 1058 1013 1056
f 1056 1009 1058
f 1058 1009 1057
f 1009 1055 1057
f 241 161 160
f 160 240 241
f 162 161 241
f 241 240 162
f 480 362 483
f 155 157 156
f 155 91 154
f 155 92 91
f 156 92 155
f 428 545 546
f 546 545 647
f 747 748 652
f 835 748 747
f 652 651 744
f 744 743 652
f 647 743 744
f 832 743 742
f 917 912 911
f 102 167 168
f 168 103 102
f 169 103 168
f 165 100 164
f 98 163 164
f 164 163 245
f 37 38 9
f 9 36 37
f 36 100 37
f 102 38 37
f 37 100 102
f 258 260 171
f 171 256 258
f 258 256 169
f 171 103 170
f 170 256 171
f 170 103 169
f 169 256 170
f 365 262 362
f 366 262 365
f 362 482 365
f 365 482 366
f 487 482 600
f 481 362 480
f 481 482 362
f 90 91 36
f 36 89 90
f 154 91 90
f 336 335 446
f 446 447 336
f 750 655 652
f 652 749 750
f 750 749 655
f 679 655 751
f 655 749 751
f 837 749 835
f 772 749 837
f 837 835 854
f 854 772 837
f 836 748 835
f 835 749 836
f 836 749 748
f 234 152 233
f 233 342 234
f 226 315 316
f 316 317 226
f 423 314 422
f 428 427 542
f 542 427 543
f 543 539 644
f 655 678 657
f 657 678 591
f 657 656 655
f 657 591 549
f 549 656 657
f 458 459 340
f 340 457 458
f 458 457 459
f 549 591 475
f 354 319 430
f 430 356 354
f 355 354 356
f 321 322 226
f 226 248 321
f 229 230 149
f 149 228 229
f 631 633 632
f 433 434 325
f 325 434 326
f 325 326 226
f 307 411 412
f 412 413 307
f 411 410 412
f 533 413 532
f 327 434 328
f 326 434 327
f 327 328 226
f 226 326 327
f 333 226 332
f 895 896 817
f 817 819 895
f 728 819 817
f 897 896 964
f 821 896 897
f 1028 1027 1031
f 1065 1102 1103
f 1106 1074 1073
f 1073 1105 1106
f 1106 1110 1107
f 1107 1074 1106
f 1071 1105 1073
f 336 449 337
f 338 226 337
f 226 336 337
f 450 451 338
f 338 337 450
f 450 337 449
f 634 731 635
f 113 114 48
f 182 114 113
f 48 47 113
f 113 47 46
f 183 114 182
f 115 114 183
f 183 116 115
f 183 184 116
f 273 184 183
f 177 179 178
f 178 179 111
f 178 109 177
f 271 179 270
f 270 179 269
f 269 375 270
f 46 9 45
f 45 113 46
f 112 113 45
f 111 112 43
f 182 113 181
f 181 113 112
f 111 179 180
f 180 112 111
f 180 179 271
f 180 181 112
f 271 182 180
f 182 181 180
f 266 267 177
f 268 179 177
f 177 267 268
f 268 267 179
f 263 262 366
f 366 264 263
f 40 41 9
f 9 39 40
f 374 495 496
f 374 375 269
f 611 495 610
f 611 713 714
f 712 713 611
f 711 712 611
f 611 610 711
f 496 495 612
f 612 611 714
f 495 611 612
f 380 500 501
f 501 500 499
f 499 615 501
f 501 616 502
f 501 615 616
f 505 384 504
f 379 380 273
f 379 500 380
f 618 717 718
f 718 717 814
f 718 814 719
f 719 621 718
f 622 621 720
f 622 720 623
f 623 515 622
f 882 797 796
f 796 797 701
f 803 709 708
f 605 600 701
f 711 609 710
f 710 609 709
f 710 805 711
f 710 804 805
f 709 804 710
f 610 495 492
f 492 609 610
f 371 494 492
f 888 804 887
f 888 960 961
f 887 960 888
f 805 804 888
f 961 889 888
f 889 805 888
f 135 136 74
f 74 137 135
f 206 136 135
f 135 137 206
f 211 138 210
f 210 138 206
f 210 292 211
f 403 401 522
f 522 401 521
f 402 294 293
f 293 401 402
f 293 294 212
f 400 401 293
f 293 292 400
f 293 212 211
f 211 292 293
f 288 396 397
f 395 396 288
f 288 287 395
f 206 287 288
f 55 120 56
f 54 120 55
f 55 56 9
f 9 54 55
f 384 385 382
f 382 504 384
f 382 501 502
f 282 198 197
f 198 125 197
f 197 125 124
f 122 191 192
f 192 193 122
f 277 279 192
f 192 191 277
f 279 280 192
f 280 193 192
f 195 123 122
f 122 194 195
f 195 194 123
f 389 390 282
f 388 390 389
f 282 281 389
f 281 280 389
f 389 280 388
f 514 394 513
f 515 394 514
f 514 622 515
f 621 622 514
f 808 891 809
f 809 712 808
f 809 713 712
f 810 891 894
f 810 809 891
f 713 809 810
f 714 713 811
f 713 810 811
f 811 815 812
f 894 815 811
f 811 810 894
f 1095 1093 1092
f 1091 1115 1092
f 1115 1095 1092
f 1054 1055 1008
f 1006 1053 1054
f 260 258 257
f 257 258 169
f 994 996 995
f 153 155 154
f 153 89 152
f 154 90 153
f 153 90 89
f 650 546 647
f 650 744 651
f 647 744 650
f 652 743 746
f 746 747 652
f 743 747 746
f 835 747 833
f 833 747 743
f 833 912 835
f 911 912 833
f 833 832 911
f 743 832 833
f 855 915 935
f 935 936 855
f 915 936 935
f 919 915 835
f 919 936 915
f 919 938 936
f 835 912 916
f 916 917 835
f 912 917 916
f 98 164 99
f 99 164 100
f 36 98 99
f 99 100 36
f 247 165 246
f 165 164 246
f 246 245 247
f 246 164 245
f 599 600 482
f 700 701 599
f 701 600 599
f 451 450 568
f 568 450 449
f 771 749 772
f 679 751 771
f 771 751 749
f 774 773 855
f 774 682 773
f 772 773 681
f 773 682 681
f 157 155 237
f 317 316 426
f 426 427 317
f 426 316 315
f 315 425 426
f 426 425 539
f 421 314 338
f 421 422 314
f 423 422 424
f 424 315 423
f 424 425 315
f 539 425 424
f 543 644 544
f 646 647 544
f 647 545 544
f 544 542 543
f 544 545 428
f 428 542 544
f 339 454 340
f 339 231 253
f 339 340 231
f 339 453 454
f 456 457 340
f 340 454 456
f 459 457 577
f 457 576 577
f 679 680 577
f 577 576 679
f 679 576 575
f 575 678 679
f 591 678 575
f 575 576 457
f 457 358 477
f 591 575 477
f 477 575 457
f 250 356 357
f 476 358 457
f 457 456 476
f 454 453 476
f 476 456 454
f 166 250 251
f 250 357 251
f 251 357 358
f 549 475 474
f 474 475 356
f 474 429 549
f 474 356 429
f 249 356 250
f 249 355 356
f 249 166 226
f 249 250 166
f 319 354 249
f 354 355 249
f 528 410 525
f 528 525 628
f 630 631 528
f 631 632 528
f 628 629 528
f 528 629 630
f 224 223 309
f 148 223 224
f 530 413 529
f 413 412 529
f 529 412 410
f 529 633 530
f 529 632 633
f 410 528 529
f 529 528 632
f 555 434 433
f 226 330 331
f 331 332 226
f 330 439 331
f 439 332 331
f 820 896 821
f 820 817 896
f 821 733 820
f 731 817 820
f 898 897 964
f 821 897 898
f 1108 1074 1107
f 1081 1083 1082
f 1083 1039 1082
f 1083 1070 1069
f 1069 1039 1083
f 1105 1103 1116
f 1116 1106 1105
f 1116 1103 1102
f 1116 1102 1110
f 1110 1106 1116
f 1097 1071 1070
f 1097 1083 1059
f 1097 1070 1083
f 1105 1071 1097
f 1097 1103 1105
f 1059 1065 1097
f 1065 1103 1097
f 1078 1035 1079
f 1037 1035 1078
f 929 984 985
f 1034 1035 985
f 985 984 1034
f 984 1033 1034
f 926 1033 984
f 844 923 926
f 984 929 926
f 755 752 839
f 635 733 734
f 734 636 635
f 732 635 731
f 732 733 635
f 731 820 732
f 732 820 733
f 312 311 310
f 418 419 310
f 309 418 310
f 310 224 309
f 311 224 310
f 41 109 110
f 109 178 110
f 110 178 111
f 111 43 110
f 112 45 44
f 44 43 112
f 44 45 9
f 9 43 44
f 370 266 265
f 267 266 370
f 265 369 370
f 173 264 265
f 104 105 39
f 104 103 171
f 38 103 104
f 104 39 38
f 177 109 176
f 39 107 108
f 108 40 39
f 41 40 108
f 107 176 108
f 108 109 41
f 108 176 109
f 372 267 371
f 371 374 372
f 269 267 372
f 372 374 269
f 614 612 714
f 614 615 499
f 616 615 614
f 499 613 614
f 614 613 612
f 499 500 378
f 378 498 499
f 500 379 378
f 376 270 375
f 271 270 376
f 375 374 497
f 497 376 375
f 498 376 497
f 499 498 497
f 497 374 496
f 497 613 499
f 496 612 497
f 612 613 497
f 714 811 715
f 715 811 812
f 715 614 714
f 715 716 616
f 616 614 715
f 717 716 813
f 814 717 813
f 813 715 812
f 716 715 813
f 719 814 813
f 813 815 719
f 812 815 813
f 617 716 717
f 617 618 506
f 617 717 618
f 506 505 617
f 616 716 617
f 273 183 272
f 272 379 273
f 272 183 182
f 272 182 271
f 272 378 379
f 509 618 619
f 618 718 619
f 619 512 509
f 513 512 619
f 367 482 487
f 366 482 367
f 367 264 366
f 265 264 368
f 368 369 265
f 264 367 368
f 368 367 486
f 885 960 887
f 885 887 803
f 701 797 706
f 706 605 701
f 488 605 604
f 604 486 488
f 487 600 488
f 600 605 488
f 488 367 487
f 486 367 488
f 495 374 493
f 493 492 495
f 493 374 371
f 371 492 493
f 709 609 607
f 607 708 709
f 604 606 490
f 490 494 371
f 606 607 490
f 397 292 289
f 289 288 397
f 292 210 289
f 289 210 206
f 206 288 289
f 278 275 383
f 383 385 278
f 383 382 385
f 380 501 381
f 501 382 381
f 124 194 196
f 196 197 124
f 282 197 196
f 196 281 282
f 196 193 281
f 196 194 193
f 884 797 882
f 884 883 797
f 1094 1054 1053
f 1094 1093 1095
f 1094 1053 1093
f 1094 1095 1058
f 1058 1057 1094
f 1094 1057 1055
f 1055 1054 1094
f 595 481 480
f 255 257 169
f 169 168 255
f 255 168 167
f 483 364 485
f 479 364 360
f 363 364 483
f 363 483 362
f 362 259 363
f 162 240 243
f 243 240 160
f 1110 1111 1087
f 547 650 651
f 546 650 547
f 428 546 547
f 547 548 428
f 547 653 548
f 547 651 652
f 652 653 547
f 979 1027 1028
f 482 481 598
f 879 954 880
f 880 794 879
f 700 599 698
f 698 794 700
f 700 794 795
f 795 701 700
f 795 796 701
f 451 568 452
f 452 568 573
f 422 421 452
f 338 451 452
f 452 421 338
f 540 424 452
f 452 424 422
f 567 568 447
f 573 568 567
f 447 566 567
f 447 568 569
f 569 568 449
f 772 681 770
f 770 681 680
f 770 771 772
f 770 680 679
f 679 771 770
f 455 459 460
f 460 342 455
f 427 426 541
f 541 426 539
f 543 427 541
f 541 539 543
f 540 641 538
f 538 424 540
f 538 644 539
f 539 424 538
f 740 741 646
f 579 577 680
f 680 681 579
f 579 681 682
f 473 477 358
f 358 357 473
f 591 477 473
f 473 357 356
f 473 475 591
f 356 475 473
f 253 166 252
f 166 251 252
f 226 319 320
f 320 249 226
f 319 249 320
f 148 224 225
f 225 224 311
f 225 226 148
f 225 313 226
f 225 311 312
f 312 313 225
f 324 431 325
f 324 313 312
f 324 325 226
f 226 313 324
f 438 439 330
f 330 437 438
f 439 438 560
f 560 438 437
f 330 329 436
f 436 555 556
f 436 437 330
f 556 437 436
f 434 555 435
f 328 434 435
f 435 329 328
f 435 436 329
f 555 436 435
f 554 555 433
f 965 898 964
f 966 898 965
f 964 1015 965
f 965 1015 1017
f 1017 966 965
f 967 898 966
f 1076 1108 1107
f 1028 1031 1076
f 1074 1108 1077
f 1077 1076 1031
f 1108 1076 1077
f 1067 1078 1104
f 1104 1079 1067
f 1078 1079 1104
f 1080 1078 1081
f 1080 1037 1078
f 1018 1017 1067
f 1018 966 1017
f 1018 1033 982
f 982 967 1018
f 1018 967 966
f 1068 1034 1033
f 1068 1018 1067
f 1033 1018 1068
f 1035 1034 1068
f 1067 1079 1068
f 1068 1079 1035
f 573 567 672
f 839 921 840
f 840 755 839
f 844 841 840
f 840 923 844
f 983 926 921
f 982 1033 983
f 1033 926 983
f 844 926 924
f 924 926 929
f 982 983 920
f 920 983 921
f 920 967 982
f 900 967 920
f 821 898 899
f 898 967 899
f 899 967 900
f 533 532 637
f 531 413 530
f 531 532 413
f 530 633 531
f 531 633 634
f 634 635 531
f 635 636 531
f 312 310 420
f 537 431 420
f 420 419 537
f 420 310 419
f 420 324 312
f 431 324 420
f 844 760 842
f 842 841 844
f 41 110 42
f 42 110 43
f 9 41 42
f 42 43 9
f 373 370 369
f 371 267 373
f 267 370 373
f 174 173 105
f 105 173 106
f 39 105 106
f 106 107 39
f 172 104 171
f 105 104 172
f 172 174 105
f 172 263 264
f 264 173 172
f 173 174 172
f 262 263 172
f 171 259 172
f 259 262 172
f 498 378 377
f 377 376 498
f 271 376 377
f 377 272 271
f 378 272 377
f 616 617 503
f 502 616 503
f 505 504 503
f 503 617 505
f 503 382 502
f 504 382 503
f 620 514 513
f 513 619 620
f 621 514 620
f 620 718 621
f 620 619 718
f 705 606 604
f 705 706 797
f 604 605 705
f 605 706 705
f 958 1005 1006
f 959 958 1006
f 885 958 959
f 960 885 959
f 802 885 803
f 803 708 802
f 708 801 802
f 802 801 797
f 797 883 802
f 708 607 707
f 707 607 606
f 707 705 708
f 606 705 707
f 609 492 608
f 608 607 609
f 608 490 607
f 608 492 494
f 494 490 608
f 604 490 489
f 489 490 369
f 489 486 604
f 369 368 489
f 489 368 486
f 274 383 275
f 382 383 274
f 274 381 382
f 274 275 185
f 185 276 274
f 274 276 380
f 380 381 274
f 1006 1005 1052
f 1052 1053 1006
f 1052 1051 1053
f 1005 1003 1052
f 1093 1053 1050
f 1053 1051 1050
f 878 954 879
f 871 785 867
f 1001 1050 1051
f 951 1003 952
f 257 255 361
f 360 364 361
f 254 255 167
f 254 167 247
f 247 353 254
f 254 353 360
f 360 361 254
f 254 361 255
f 704 792 697
f 697 601 704
f 602 601 697
f 484 479 593
f 602 485 484
f 484 485 364
f 364 479 484
f 593 601 484
f 484 601 602
f 260 257 261
f 261 363 259
f 364 363 261
f 171 260 261
f 261 259 171
f 257 361 261
f 261 361 364
f 162 243 244
f 247 245 244
f 244 245 162
f 244 353 247
f 1089 1045 1088
f 1112 1113 1088
f 1088 1113 1089
f 1088 1111 1112
f 1088 1087 1111
f 996 994 1043
f 1028 1076 1032
f 1110 1087 1109
f 783 869 870
f 867 785 784
f 785 692 784
f 947 869 868
f 869 783 868
f 583 686 687
f 918 979 919
f 835 917 918
f 918 919 835
f 938 919 981
f 919 979 981
f 990 939 981
f 981 939 938
f 981 979 1028
f 1028 1032 981
f 981 1032 990
f 597 698 599
f 597 599 482
f 482 598 597
f 597 598 481
f 879 794 793
f 793 792 879
f 794 697 793
f 793 697 792
f 799 792 704
f 879 792 799
f 799 878 879
f 668 565 562
f 443 334 333
f 333 332 443
f 335 334 443
f 443 444 335
f 336 447 448
f 447 569 448
f 448 449 336
f 448 569 449
f 462 581 582
f 343 234 342
f 342 460 343
f 152 234 235
f 235 153 152
f 360 353 472
f 346 464 465
f 160 159 239
f 239 159 158
f 646 544 649
f 649 740 646
f 577 579 578
f 459 577 578
f 578 460 459
f 461 578 579
f 460 578 461
f 462 343 461
f 461 343 460
f 580 579 682
f 580 461 579
f 580 581 462
f 462 461 580
f 359 251 358
f 359 252 251
f 358 476 359
f 359 476 453
f 453 339 359
f 359 339 253
f 253 252 359
f 536 419 418
f 418 535 536
f 537 419 536
f 536 550 537
f 536 535 639
f 536 551 550
f 638 736 639
f 638 637 636
f 639 535 638
f 665 663 757
f 432 554 433
f 432 431 537
f 433 325 432
f 325 431 432
f 537 550 432
f 550 551 432
f 980 1031 1027
f 1027 979 980
f 979 918 980
f 1031 1029 1021
f 1039 1069 1019
f 1019 988 1039
f 1081 1082 1038
f 1038 1080 1081
f 1038 1082 1039
f 1039 988 1038
f 1037 1080 1038
f 845 760 844
f 845 846 760
f 927 929 985
f 930 927 985
f 928 927 930
f 572 447 571
f 572 566 447
f 574 672 677
f 573 672 574
f 540 452 574
f 574 452 573
f 671 567 566
f 671 672 567
f 566 572 671
f 671 572 672
f 642 538 641
f 641 737 642
f 645 641 540
f 645 737 641
f 677 737 645
f 540 574 645
f 645 574 677
f 922 840 921
f 923 840 922
f 921 926 922
f 922 926 923
f 755 840 753
f 753 840 841
f 841 842 753
f 753 842 843
f 838 921 839
f 838 920 921
f 839 752 838
f 752 756 838
f 902 838 823
f 920 838 902
f 822 733 821
f 821 899 822
f 823 734 822
f 822 734 733
f 822 899 900
f 556 555 664
f 664 663 556
f 752 755 659
f 755 753 659
f 663 664 553
f 554 432 553
f 555 554 553
f 553 664 555
f 533 637 534
f 534 417 533
f 534 638 535
f 637 638 534
f 418 417 534
f 534 535 418
f 369 490 491
f 491 373 369
f 491 490 371
f 371 373 491
f 175 176 107
f 107 106 175
f 177 176 175
f 175 173 265
f 175 106 173
f 175 266 177
f 265 266 175
f 800 801 708
f 708 705 800
f 797 801 800
f 800 705 797
f 957 958 885
f 1006 1054 1007
f 1007 959 1006
f 960 959 1007
f 1008 960 1007
f 1007 1054 1008
f 884 955 956
f 1005 958 956
f 958 957 956
f 1004 1003 1005
f 1005 956 1004
f 1004 956 955
f 794 880 881
f 881 795 794
f 881 880 954
f 954 955 881
f 882 796 881
f 796 795 881
f 881 884 882
f 881 955 884
f 1049 1092 1093
f 1093 1050 1049
f 1091 1092 1049
f 996 1045 997
f 1046 1045 1089
f 1046 997 1045
f 998 997 1046
f 947 998 948
f 870 869 948
f 948 869 947
f 954 878 953
f 953 878 877
f 877 952 953
f 953 955 954
f 953 1004 955
f 953 952 1003
f 1003 1004 953
f 951 952 876
f 876 952 877
f 1002 1003 951
f 951 1001 1002
f 1002 1052 1003
f 1051 1052 1002
f 1002 1001 1051
f 693 694 589
f 693 589 588
f 588 692 693
f 789 876 877
f 877 878 789
f 702 601 696
f 603 485 602
f 602 697 603
f 603 697 595
f 1044 1045 996
f 996 1043 1044
f 1044 1088 1045
f 1087 1088 1044
f 1041 1076 1042
f 1041 1032 1076
f 1107 1110 1086
f 1110 1109 1086
f 781 783 690
f 866 870 867
f 866 783 870
f 690 689 585
f 690 783 782
f 782 689 690
f 783 866 782
f 867 784 782
f 782 866 867
f 947 868 946
f 995 996 946
f 996 997 946
f 946 998 947
f 946 997 998
f 993 994 995
f 682 774 775
f 685 686 583
f 583 582 685
f 858 937 940
f 991 939 990
f 991 1041 1042
f 990 1032 991
f 1032 1041 991
f 481 595 596
f 596 597 481
f 595 697 596
f 698 597 596
f 703 799 704
f 702 799 703
f 704 601 703
f 703 601 702
f 445 446 335
f 335 444 445
f 447 446 445
f 445 565 447
f 445 562 565
f 442 443 332
f 462 582 463
f 583 464 463
f 463 582 583
f 234 343 344
f 344 343 462
f 344 235 234
f 593 479 478
f 478 479 360
f 360 472 478
f 235 346 236
f 155 153 236
f 153 235 236
f 236 237 155
f 236 346 237
f 238 239 158
f 158 157 238
f 157 237 238
f 237 348 238
f 648 544 644
f 648 649 544
f 1035 1037 987
f 987 988 933
f 1037 1038 987
f 987 1038 988
f 768 737 677
f 824 736 823
f 824 756 736
f 823 838 824
f 824 838 756
f 736 756 661
f 639 736 661
f 661 756 752
f 735 638 636
f 735 734 823
f 636 734 735
f 823 736 735
f 736 638 735
f 556 663 557
f 663 665 557
f 557 437 556
f 557 558 437
f 557 665 666
f 666 558 557
f 563 445 444
f 562 445 563
f 444 443 563
f 443 442 563
f 562 563 441
f 441 442 332
f 441 563 442
f 760 670 758
f 758 842 760
f 843 842 758
f 757 843 758
f 758 665 757
f 666 665 758
f 758 670 666
f 666 670 564
f 1030 1029 1031
f 1031 980 1030
f 1030 980 1029
f 976 918 917
f 976 980 918
f 1026 1071 1073
f 933 988 969
f 988 1019 969
f 929 927 848
f 848 845 844
f 846 845 848
f 762 846 848
f 848 927 928
f 986 930 985
f 986 987 933
f 933 852 932
f 932 986 933
f 644 538 643
f 538 642 643
f 738 642 737
f 738 828 827
f 901 902 823
f 823 822 901
f 901 822 900
f 900 920 901
f 920 902 901
f 752 659 658
f 658 659 551
f 658 661 752
f 551 661 658
f 754 659 753
f 754 843 757
f 754 753 843
f 757 663 754
f 552 432 551
f 552 553 432
f 883 884 886
f 886 802 883
f 884 956 886
f 886 956 957
f 885 802 886
f 886 957 885
f 1047 1090 1091
f 1089 1090 1047
f 1047 1046 1089
f 998 1046 1047
f 1050 1001 1000
f 1000 1049 1050
f 951 876 872
f 873 785 872
f 785 871 872
f 786 693 692
f 786 785 873
f 786 692 785
f 788 789 695
f 798 789 878
f 798 799 702
f 878 799 798
f 483 485 594
f 485 603 594
f 594 603 595
f 480 483 594
f 594 595 480
f 1084 1044 1043
f 1042 1086 1084
f 1084 1086 1109
f 1084 1109 1087
f 1087 1044 1084
f 1085 1076 1107
f 1107 1086 1085
f 1042 1076 1085
f 1085 1086 1042
f 865 781 780
f 865 868 783
f 783 781 865
f 586 585 689
f 348 467 468
f 467 586 468
f 586 587 468
f 347 348 237
f 347 467 348
f 237 346 347
f 347 346 465
f 584 585 465
f 584 464 583
f 465 464 584
f 583 687 584
f 995 946 944
f 944 993 995
f 944 946 868
f 868 865 944
f 994 993 941
f 940 992 941
f 941 992 994
f 684 582 581
f 684 685 582
f 856 774 855
f 856 775 774
f 855 936 856
f 937 858 856
f 936 938 856
f 938 939 856
f 939 937 856
f 1040 991 1042
f 992 991 1040
f 1042 1084 1040
f 1040 1084 1043
f 1040 1043 994
f 994 992 1040
f 939 991 989
f 989 991 992
f 989 992 940
f 940 937 989
f 989 937 939
f 794 698 699
f 698 596 699
f 699 697 794
f 699 596 697
f 464 346 345
f 345 463 464
f 345 346 235
f 235 344 345
f 462 463 345
f 345 344 462
f 472 471 590
f 590 478 472
f 590 471 589
f 589 694 590
f 985 1035 1036
f 1035 987 1036
f 1036 986 985
f 987 986 1036
f 765 674 764
f 769 851 852
f 769 768 677
f 827 828 834
f 834 907 831
f 639 661 640
f 640 661 551
f 640 536 639
f 551 536 640
f 559 558 666
f 666 564 559
f 559 564 441
f 437 558 559
f 559 560 437
f 559 441 560
f 439 560 440
f 560 441 440
f 440 332 439
f 440 441 332
f 761 846 762
f 762 759 761
f 761 759 670
f 760 846 761
f 761 670 760
f 763 762 764
f 764 674 763
f 668 562 667
f 910 917 911
f 910 976 917
f 911 832 910
f 1029 980 1022
f 980 976 1022
f 1022 1021 1029
f 1072 1077 1031
f 1031 1021 1072
f 1074 1077 1072
f 1072 1075 1074
f 1073 1074 1024
f 1074 1075 1024
f 1024 1026 1073
f 925 924 929
f 929 848 925
f 844 924 925
f 925 848 844
f 764 762 847
f 762 848 847
f 825 738 737
f 828 738 825
f 739 643 642
f 642 738 739
f 644 643 739
f 739 648 644
f 662 754 663
f 663 553 662
f 659 754 662
f 1091 1049 1048
f 1048 1047 1091
f 999 948 998
f 999 1000 948
f 998 1047 999
f 1047 1048 999
f 1049 1000 999
f 999 1048 1049
f 949 1000 1001
f 948 1000 949
f 870 948 949
f 787 786 873
f 787 788 695
f 693 786 787
f 876 789 875
f 789 788 875
f 873 872 875
f 875 872 876
f 791 798 702
f 702 696 791
f 791 696 695
f 695 789 790
f 789 798 790
f 790 791 695
f 798 791 790
f 691 586 689
f 691 587 586
f 588 587 691
f 691 692 588
f 691 784 692
f 691 782 784
f 689 782 691
f 242 243 160
f 160 239 242
f 469 468 587
f 469 587 588
f 466 586 467
f 467 347 466
f 466 347 465
f 465 585 466
f 585 586 466
f 688 584 687
f 688 687 780
f 690 585 688
f 585 584 688
f 780 781 688
f 688 781 690
f 864 865 780
f 940 941 860
f 860 858 940
f 682 775 683
f 683 684 581
f 683 776 684
f 775 776 683
f 683 580 682
f 581 580 683
f 593 478 592
f 478 590 592
f 592 590 694
f 592 601 593
f 592 696 601
f 694 695 592
f 695 696 592
f 850 765 764
f 766 769 677
f 851 769 766
f 768 769 826
f 737 768 826
f 826 825 737
f 974 975 908
f 670 759 669
f 669 564 670
f 669 667 564
f 668 667 570
f 570 565 668
f 570 572 571
f 674 572 570
f 571 447 570
f 447 565 570
f 441 564 561
f 564 667 561
f 562 441 561
f 561 667 562
f 741 740 830
f 742 741 830
f 830 832 742
f 830 910 832
f 1021 1022 972
f 908 975 972
f 972 975 1021
f 976 910 973
f 973 1022 976
f 908 972 973
f 973 972 1022
f 975 1024 1025
f 1025 1024 1075
f 1075 1072 1025
f 1021 975 1025
f 1025 1072 1021
f 1023 975 978
f 1023 1024 975
f 1026 1024 1023
f 977 1023 978
f 1026 1023 977
f 745 738 827
f 745 739 738
f 827 834 745
f 745 834 831
f 740 649 745
f 745 831 740
f 649 648 745
f 648 739 745
f 660 662 553
f 660 552 551
f 553 552 660
f 551 659 660
f 659 662 660
f 871 949 950
f 951 872 950
f 950 872 871
f 950 1001 951
f 950 949 1001
f 870 949 945
f 945 949 871
f 867 870 945
f 945 871 867
f 788 787 874
f 874 875 788
f 874 787 873
f 873 875 874
f 349 242 239
f 348 468 349
f 349 238 348
f 239 238 349
f 468 469 350
f 350 349 468
f 242 349 350
f 943 944 865
f 865 864 943
f 942 943 864
f 857 856 858
f 858 776 857
f 775 856 857
f 857 776 775
f 777 776 859
f 859 860 777
f 858 860 859
f 859 776 858
f 849 850 764
f 764 847 849
f 849 848 928
f 849 847 848
f 928 930 849
f 675 572 674
f 674 765 675
f 765 850 767
f 767 675 765
f 766 675 767
f 767 850 851
f 851 766 767
f 853 769 852
f 853 826 769
f 852 904 853
f 853 904 826
f 914 977 978
f 978 975 914
f 975 974 914
f 673 669 759
f 667 669 673
f 673 570 667
f 673 759 762
f 762 763 673
f 673 763 674
f 674 570 673
f 829 830 740
f 910 830 829
f 740 831 829
f 831 907 829
f 829 907 908
f 934 904 852
f 969 904 934
f 934 852 933
f 933 969 934
f 968 904 969
f 905 904 968
f 903 904 905
f 826 904 903
f 903 905 828
f 828 825 903
f 825 826 903
f 1026 977 1020
f 1020 1069 1070
f 1020 1019 1069
f 1070 1071 1020
f 1071 1026 1020
f 243 242 351
f 242 350 351
f 351 244 243
f 863 864 780
f 863 942 864
f 931 849 930
f 930 986 931
f 986 932 931
f 931 932 852
f 852 851 931
f 851 850 931
f 850 849 931
f 572 675 676
f 676 675 766
f 672 572 676
f 677 672 676
f 676 766 677
f 906 914 834
f 905 914 906
f 906 834 828
f 828 905 906
f 834 914 913
f 913 914 974
f 907 834 913
f 908 907 913
f 913 974 908
f 970 914 905
f 977 914 970
f 909 973 910
f 910 829 909
f 908 973 909
f 909 829 908
f 353 244 352
f 244 351 352
f 352 472 353
f 352 471 472
f 352 351 471
f 470 350 469
f 470 351 350
f 471 351 470
f 589 471 470
f 588 589 470
f 470 469 588
f 779 863 780
f 780 687 779
f 779 687 686
f 905 968 971
f 971 970 905
f 971 968 969
f 971 969 1019
f 1019 1020 971
f 971 1020 977
f 977 970 971
f 778 685 777
f 686 685 778
f 778 779 686
f 942 863 862
f 863 779 862
f 779 778 862
f 862 860 941
f 777 860 861
f 860 862 861
f 861 778 777
f 861 862 778
f 21 20 84
f 7 20 21
f 7 21 22
f 22 21 85
f 5 4 14
f 14 4 13
f 5 14 15
f 15 14 79
f 216 142 141
f 141 142 78
f 212 139 138
f 211 212 138
f 229 86 35
f 85 145 229
f 229 22 85
f 24 23 229
f 229 32 31
f 28 27 229
f 229 25 24
f 166 101 229
f 229 23 22
f 229 27 26
f 26 25 229
f 35 34 229
f 31 30 229
f 229 29 28
f 227 323 229
f 229 34 33
f 33 32 229
f 30 29 229
f 229 248 166
f 145 219 229
f 229 101 86
f 229 228 227
f 229 323 322
f 229 219 230
f 322 321 229
f 229 321 248
f 817 731 729
f 729 728 817
f 522 20 19
f 522 301 300
f 628 627 522
f 522 819 818
f 19 82 522
f 84 20 522
f 522 404 403
f 722 816 522
f 1010 1060 522
f 217 302 522
f 522 723 722
f 522 962 1010
f 527 526 522
f 522 626 527
f 963 895 522
f 296 405 522
f 300 299 522
f 522 297 296
f 522 218 217
f 518 625 522
f 522 523 408
f 522 407 406
f 522 146 84
f 522 730 726
f 406 303 522
f 522 302 301
f 405 404 522
f 522 299 298
f 298 297 522
f 522 1014 963
f 82 143 522
f 522 816 893
f 893 892 522
f 220 146 522
f 522 627 626
f 522 629 628
f 1066 1016 522
f 522 519 518
f 522 143 218
f 522 625 723
f 522 892 962
f 526 523 522
f 408 407 522
f 522 303 220
f 522 724 629
f 818 730 522
f 726 725 522
f 522 1098 1066
f 1016 1014 522
f 522 521 519
f 522 725 724
f 895 819 522
f 522 1060 1098
f 636 637 531
f 531 637 532
f 694 693 787
f 787 695 694
f 685 684 776
f 777 685 776
f 944 943 942
f 993 944 942
f 993 942 862
f 862 941 993
