v 0.108599 -0.030419 0.016743
v 0.111532 -0.030419 0.016740
v 0.111532 -0.028957 0.016710
v 0.088326 -0.030419 0.016743
v 0.107133 -0.031890 0.016641
v 0.111532 -0.031890 0.016638
v 0.112995 -0.030419 0.016625
v 0.112995 -0.028957 0.016599
v 0.112995 -0.031890 0.016530
v 0.112995 -0.027491 0.016458
v 0.111532 -0.027491 0.016553
v 0.088326 -0.028711 0.016684
v 0.088326 -0.028957 0.016710
v 0.088326 -0.031890 0.016641
v 0.111532 -0.033352 0.016402
v 0.112995 -0.033352 0.016330
v 0.119753 -0.036285 0.012775
v 0.119728 -0.023435 0.012752
v 0.113991 -0.026029 0.015858
v 0.113928 -0.034814 0.015766
v 0.114010 -0.033352 0.015907
v 0.113887 -0.024827 0.015717
v 0.112995 -0.026029 0.016212
v 0.088326 -0.027491 0.016553
v 0.111532 -0.026029 0.016265
v 0.088326 -0.033352 0.016396
v 0.088326 -0.034572 0.016088
v 0.111532 -0.034814 0.016032
v 0.112995 -0.034814 0.016002
v 0.113812 -0.035732 0.015632
v 0.119672 -0.037134 0.012696
v 0.120155 -0.036285 0.011893
v 0.119964 -0.023008 0.012001
v 0.119810 -0.022089 0.011582
v 0.113881 -0.001491 0.005441
v 0.113385 -0.023853 0.015540
v 0.120108 -0.024563 0.011893
v 0.112939 -0.024428 0.015766
v 0.088326 -0.027245 0.016504
v 0.088326 -0.025783 0.016183
v 0.088326 -0.026029 0.016251
v 0.111532 -0.024563 0.015832
v 0.088326 -0.024563 0.015825
v 0.088326 -0.034814 0.016025
v 0.111532 -0.035858 0.015685
v 0.112995 -0.035853 0.015678
v 0.112995 -0.036582 0.015337
v 0.112995 -0.037746 0.014787
v 0.113846 -0.038665 0.014207
v 0.113916 -0.040275 0.012883
v 0.113922 -0.041737 0.011493
v 0.119634 -0.038517 0.011228
v 0.119825 -0.037672 0.011785
v 0.120064 -0.037746 0.010425
v 0.120403 -0.036285 0.010425
v 0.120381 -0.024563 0.010425
v 0.120325 -0.023096 0.010425
v 0.120347 -0.017236 0.000162
v 0.119816 -0.016196 0.001296
v 0.113925 -0.000136 0.004212
v 0.113002 -0.000558 0.005162
v 0.113002 -0.001291 0.005526
v 0.112408 -0.023820 0.015563
v 0.111532 -0.023820 0.015563
v 0.088326 -0.023830 0.015560
v 0.088326 -0.035839 0.015675
v 0.088326 -0.036577 0.015390
v 0.111532 -0.036596 0.015383
v 0.111532 -0.037746 0.014839
v 0.112995 -0.038777 0.014275
v 0.112995 -0.039510 0.013771
v 0.112995 -0.040466 0.013040
v 0.112995 -0.041199 0.012424
v 0.112995 -0.041927 0.011690
v 0.112995 -0.042661 0.010917
v 0.113909 -0.043106 0.010006
v 0.113815 -0.044429 0.008354
v 0.119653 -0.044401 0.000994
v 0.120117 -0.043612 0.000162
v 0.120403 -0.042146 0.000162
v 0.120397 -0.036285 -0.010095
v 0.120378 -0.024563 -0.010095
v 0.120362 -0.018702 0.000162
v 0.120149 -0.017236 -0.001293
v 0.119816 -0.016196 -0.001293
v 0.119945 -0.016015 0.000162
v 0.120322 -0.023096 -0.010095
v 0.120171 -0.023096 -0.011556
v 0.114019 0.000013 0.003098
v 0.113002 0.000486 0.003098
v 0.113002 0.000018 0.004428
v 0.111535 -0.000549 0.005169
v 0.111535 -0.001282 0.005529
v 0.111532 -0.023083 0.015245
v 0.088326 -0.023092 0.015236
v 0.088326 -0.037556 0.014918
v 0.088326 -0.037746 0.014823
v 0.111532 -0.038781 0.014282
v 0.111532 -0.039519 0.013797
v 0.111532 -0.040489 0.013066
v 0.111532 -0.041227 0.012450
v 0.111532 -0.041965 0.011716
v 0.111532 -0.042702 0.010946
v 0.112995 -0.043245 0.010183
v 0.112995 -0.044480 0.008436
v 0.112995 -0.044921 0.007496
v 0.113759 -0.045835 0.005356
v 0.112995 -0.043974 0.009167
v 0.113862 -0.045941 0.004563
v 0.113985 -0.046090 0.003098
v 0.112995 -0.046586 0.001630
v 0.119716 -0.044452 0.000162
v 0.119898 -0.043607 -0.001264
v 0.119882 -0.037742 -0.011484
v 0.120259 -0.036285 -0.011556
v 0.119694 -0.044433 -0.000759
v 0.120237 -0.024563 -0.011556
v 0.113884 -0.000173 -0.004229
v 0.114019 0.000032 -0.002764
v 0.114019 0.000069 -0.001296
v 0.114019 0.000083 0.000165
v 0.114019 0.000059 0.001630
v 0.119794 -0.023096 -0.012497
v 0.119659 -0.022294 -0.012356
v 0.119822 -0.022089 -0.011556
v 0.113002 0.000607 0.001630
v 0.111535 0.000500 0.003098
v 0.111535 0.000022 0.004435
v 0.110599 -0.000126 0.004219
v 0.088326 -0.017751 0.011388
v 0.088326 -0.018465 0.012123
v 0.088326 -0.019203 0.012820
v 0.088326 -0.020164 0.013532
v 0.088326 -0.020804 0.013981
v 0.088326 -0.020934 0.014069
v 0.088326 -0.021542 0.014433
v 0.088326 -0.021667 0.014505
v 0.088326 -0.038577 0.014354
v 0.088326 -0.038739 0.014259
v 0.088326 -0.039477 0.013790
v 0.088326 -0.040470 0.013056
v 0.088326 -0.041204 0.012427
v 0.088326 -0.041969 0.011690
v 0.088326 -0.042702 0.010953
v 0.110066 -0.042707 0.010953
v 0.111532 -0.043264 0.010212
v 0.111532 -0.043997 0.009180
v 0.111532 -0.044484 0.008452
v 0.111532 -0.044972 0.007496
v 0.112995 -0.045858 0.005408
v 0.112995 -0.046090 0.004563
v 0.112995 -0.046405 0.003098
v 0.111532 -0.046661 0.001630
v 0.111532 -0.046740 0.000162
v 0.112995 -0.046651 0.000162
v 0.119653 -0.038531 -0.010950
v 0.119744 -0.037250 -0.012458
v 0.119854 -0.036285 -0.012575
v 0.112995 -0.046605 -0.001296
v 0.112995 -0.046461 -0.002758
v 0.113897 -0.045979 -0.004226
v 0.113790 -0.045863 -0.005107
v 0.113862 -0.044480 -0.008135
v 0.119835 -0.024563 -0.012546
v 0.113743 -0.000358 -0.004973
v 0.113002 0.000533 -0.002764
v 0.113002 0.000621 -0.001296
v 0.113002 0.000649 0.000165
v 0.113743 -0.029519 -0.016701
v 0.113837 -0.023588 -0.015325
v 0.111535 0.000667 0.000165
v 0.111535 0.000621 0.001630
v 0.110496 0.000027 0.003098
v 0.088326 -0.013630 0.003478
v 0.088326 -0.013857 0.004382
v 0.088326 -0.013904 0.004563
v 0.088326 -0.014317 0.005785
v 0.088326 -0.014400 0.006031
v 0.088326 -0.014860 0.007132
v 0.088326 -0.015161 0.007745
v 0.088326 -0.015226 0.007866
v 0.088326 -0.015769 0.008780
v 0.088326 -0.015881 0.008964
v 0.088326 -0.016428 0.009806
v 0.088326 -0.016915 0.010415
v 0.088326 -0.017017 0.010536
v 0.088326 -0.017625 0.011248
v 0.088326 -0.043166 0.010340
v 0.088326 -0.043988 0.009180
v 0.088326 -0.044484 0.008449
v 0.088326 -0.044883 0.007656
v 0.088326 -0.044962 0.007496
v 0.088326 -0.045556 0.006175
v 0.111532 -0.045561 0.006168
v 0.111532 -0.045867 0.005438
v 0.111532 -0.046113 0.004563
v 0.111532 -0.046452 0.003098
v 0.088326 -0.046624 0.001876
v 0.088326 -0.046656 0.001630
v 0.088326 -0.046726 0.000162
v 0.088326 -0.046684 -0.001296
v 0.111532 -0.046689 -0.001296
v 0.113922 -0.043180 -0.009797
v 0.113897 -0.035992 -0.015400
v 0.113652 -0.031069 -0.016688
v 0.113922 -0.041853 -0.011281
v 0.112995 -0.041384 -0.012261
v 0.113909 -0.038809 -0.013968
v 0.113743 -0.030094 -0.016701
v 0.111532 -0.046503 -0.002758
v 0.112995 -0.046169 -0.004226
v 0.112995 -0.045593 -0.005940
v 0.112995 -0.045069 -0.007162
v 0.112995 -0.045895 -0.005209
v 0.112995 -0.044563 -0.008276
v 0.112995 -0.044104 -0.009010
v 0.112995 -0.043375 -0.010039
v 0.112995 -0.042828 -0.010770
v 0.113002 -0.001105 -0.005334
v 0.113002 -0.000344 -0.004989
v 0.113002 0.000083 -0.004229
v 0.112995 -0.023445 -0.015387
v 0.111535 0.000547 -0.002764
v 0.111535 0.000635 -0.001296
v 0.113099 -0.030521 -0.016717
v 0.112995 -0.029291 -0.016714
v 0.112995 -0.028563 -0.016655
v 0.112995 -0.027491 -0.016475
v 0.112995 -0.026029 -0.016174
v 0.112995 -0.024563 -0.015784
v 0.110496 0.000083 -0.001296
v 0.110496 0.000096 0.000165
v 0.110496 0.000073 0.001630
v 0.088326 -0.013268 0.000162
v 0.088326 -0.013328 0.001384
v 0.088326 -0.013342 0.001630
v 0.088326 -0.013500 0.002744
v 0.088326 -0.013607 0.003354
v 0.088326 -0.045876 0.005438
v 0.110066 -0.045876 0.005438
v 0.110066 -0.046113 0.004563
v 0.088326 -0.046447 0.003098
v 0.088326 -0.046494 -0.002758
v 0.112995 -0.036971 -0.015194
v 0.112995 -0.036238 -0.015508
v 0.112995 -0.034814 -0.015970
v 0.113099 -0.031788 -0.016596
v 0.112675 -0.031240 -0.016701
v 0.112995 -0.033352 -0.016305
v 0.112995 -0.042094 -0.011530
v 0.111532 -0.041403 -0.012277
v 0.111532 -0.040670 -0.012874
v 0.111532 -0.039737 -0.013611
v 0.112995 -0.039723 -0.013572
v 0.112995 -0.038990 -0.014096
v 0.112995 -0.037746 -0.014794
v 0.111532 -0.046201 -0.004226
v 0.111532 -0.045640 -0.005963
v 0.111532 -0.045125 -0.007162
v 0.111532 -0.045914 -0.005232
v 0.111532 -0.044572 -0.008286
v 0.111532 -0.044141 -0.009023
v 0.111532 -0.043403 -0.010049
v 0.111532 -0.042846 -0.010786
v 0.111535 -0.001105 -0.005343
v 0.111532 -0.022688 -0.015086
v 0.111535 -0.000340 -0.004993
v 0.111535 0.000092 -0.004229
v 0.111532 -0.023412 -0.015397
v 0.111532 -0.024563 -0.015836
v 0.110637 -0.000159 -0.004229
v 0.110496 0.000045 -0.002764
v 0.111532 -0.030419 -0.016734
v 0.111532 -0.029148 -0.016721
v 0.111532 -0.028419 -0.016681
v 0.111532 -0.027491 -0.016550
v 0.111532 -0.026029 -0.016269
v 0.088326 -0.013300 -0.001296
v 0.088326 -0.046108 0.004563
v 0.088326 -0.046192 -0.004226
v 0.111532 -0.037746 -0.014833
v 0.111532 -0.036990 -0.015213
v 0.111532 -0.036257 -0.015528
v 0.111532 -0.034814 -0.016036
v 0.111532 -0.033352 -0.016400
v 0.111532 -0.031983 -0.016622
v 0.111532 -0.031259 -0.016704
v 0.111532 -0.042113 -0.011547
v 0.088326 -0.041394 -0.012277
v 0.088326 -0.040665 -0.012874
v 0.088326 -0.039886 -0.013483
v 0.088326 -0.039728 -0.013604
v 0.088326 -0.038995 -0.014116
v 0.111532 -0.039009 -0.014116
v 0.088326 -0.045918 -0.005219
v 0.110066 -0.045918 -0.005225
v 0.088326 -0.045677 -0.005828
v 0.088326 -0.045208 -0.006959
v 0.088326 -0.045120 -0.007162
v 0.088326 -0.044572 -0.008250
v 0.088326 -0.044108 -0.008977
v 0.088326 -0.043375 -0.010039
v 0.088326 -0.042837 -0.010770
v 0.088326 -0.042224 -0.011415
v 0.088326 -0.041514 -0.012153
v 0.110066 -0.022683 -0.015089
v 0.088326 -0.022688 -0.015089
v 0.110785 -0.000354 -0.004976
v 0.088326 -0.024563 -0.015833
v 0.088326 -0.023602 -0.015462
v 0.088326 -0.023412 -0.015387
v 0.088326 -0.022809 -0.015141
v 0.088326 -0.024804 -0.015905
v 0.088326 -0.014266 -0.005697
v 0.088326 -0.013806 -0.004226
v 0.088326 -0.013607 -0.003325
v 0.088326 -0.013444 -0.002591
v 0.088326 -0.031217 -0.016698
v 0.088326 -0.030419 -0.016724
v 0.088326 -0.029380 -0.016717
v 0.088326 -0.029171 -0.016714
v 0.088326 -0.028568 -0.016688
v 0.088326 -0.028447 -0.016681
v 0.088326 -0.027491 -0.016544
v 0.088326 -0.026029 -0.016265
v 0.088326 -0.037960 -0.014709
v 0.088326 -0.037746 -0.014827
v 0.088326 -0.036971 -0.015207
v 0.088326 -0.036359 -0.015476
v 0.088326 -0.036238 -0.015528
v 0.088326 -0.034814 -0.016029
v 0.088326 -0.033598 -0.016331
v 0.088326 -0.033352 -0.016390
v 0.088326 -0.031950 -0.016622
v 0.088326 -0.031343 -0.016688
v 0.088326 -0.021806 -0.014594
v 0.088326 -0.021630 -0.014492
v 0.088326 -0.020841 -0.013998
v 0.088326 -0.020683 -0.013896
v 0.088326 -0.020071 -0.013473
v 0.088326 -0.019950 -0.013388
v 0.088326 -0.019041 -0.012654
v 0.088326 -0.018433 -0.012081
v 0.088326 -0.017593 -0.011232
v 0.088326 -0.016855 -0.010354
v 0.088326 -0.016410 -0.009744
v 0.088326 -0.016321 -0.009620
v 0.088326 -0.015672 -0.008627
v 0.088326 -0.015212 -0.007860
v 0.088326 -0.015120 -0.007703
v 0.088326 -0.014795 -0.006972
f 55 56 32
f 56 58 57
f 88 58 87
f 82 56 55
f 82 87 58
f 88 124 125
f 125 124 165
f 170 222 165
f 165 124 170
f 158 169 164
f 25 43 40
f 25 24 11
f 18 35 36
f 18 7 17
f 17 32 18
f 37 32 56
f 37 57 33
f 56 57 37
f 33 18 37
f 37 18 32
f 15 28 29
f 6 5 15
f 84 58 88
f 88 85 84
f 84 85 58
f 119 166 167
f 83 58 56
f 56 82 83
f 83 82 58
f 55 80 81
f 81 82 55
f 221 166 165
f 317 278 272
f 272 271 317
f 307 267 265
f 265 306 307
f 273 319 320
f 274 320 321
f 273 320 274
f 229 170 169
f 123 124 88
f 123 164 169
f 169 170 123
f 123 170 124
f 2 3 1
f 1 6 2
f 5 6 1
f 15 5 14
f 14 26 15
f 116 112 155
f 36 63 38
f 41 25 40
f 64 94 65
f 64 63 94
f 65 43 64
f 94 63 62
f 36 35 62
f 62 63 36
f 168 167 171
f 171 126 168
f 126 122 168
f 17 21 20
f 17 7 9
f 9 21 17
f 9 20 21
f 9 7 2
f 2 6 9
f 118 119 85
f 118 85 88
f 165 166 118
f 166 119 118
f 88 125 118
f 118 125 165
f 58 85 86
f 85 119 86
f 79 112 116
f 79 80 55
f 88 87 117
f 87 82 117
f 158 164 117
f 117 123 88
f 164 123 117
f 163 116 162
f 163 156 116
f 157 205 158
f 284 330 331
f 174 129 173
f 129 127 173
f 233 234 173
f 171 233 173
f 220 221 165
f 220 265 267
f 268 220 267
f 221 220 268
f 271 314 315
f 308 267 307
f 308 268 267
f 271 268 308
f 350 351 308
f 308 351 314
f 308 314 271
f 273 274 226
f 228 229 169
f 30 29 46
f 46 29 28
f 27 44 28
f 15 26 27
f 27 28 15
f 243 210 201
f 162 116 161
f 159 155 154
f 116 155 159
f 12 13 3
f 11 24 12
f 12 3 11
f 24 25 39
f 25 41 39
f 42 64 43
f 63 64 42
f 42 38 63
f 43 25 42
f 25 38 42
f 94 62 93
f 7 18 8
f 18 19 8
f 2 7 8
f 8 3 2
f 30 20 16
f 20 9 16
f 16 29 30
f 15 29 16
f 16 6 15
f 16 9 6
f 122 86 121
f 121 168 122
f 89 86 122
f 60 86 89
f 89 90 60
f 89 122 126
f 126 90 89
f 33 57 34
f 34 57 58
f 34 60 35
f 34 18 33
f 35 18 34
f 115 81 80
f 80 79 115
f 115 157 158
f 158 117 115
f 82 81 115
f 115 117 82
f 55 32 54
f 54 79 55
f 209 169 158
f 158 205 209
f 248 287 273
f 248 205 247
f 318 319 273
f 273 287 318
f 208 157 207
f 207 157 206
f 156 163 203
f 203 157 156
f 203 206 157
f 302 262 301
f 262 300 301
f 298 259 258
f 213 163 162
f 213 258 259
f 299 259 298
f 328 282 327
f 285 284 331
f 285 248 247
f 282 330 283
f 330 284 283
f 232 234 233
f 232 233 171
f 237 173 236
f 236 173 235
f 235 173 234
f 171 173 172
f 172 173 127
f 172 126 171
f 306 265 266
f 266 269 306
f 222 269 266
f 271 272 223
f 223 268 271
f 166 221 223
f 221 268 223
f 317 271 316
f 271 315 316
f 343 308 342
f 342 308 341
f 344 308 343
f 345 308 344
f 275 226 274
f 99 140 141
f 30 49 31
f 31 32 17
f 31 20 30
f 17 20 31
f 67 69 68
f 28 44 45
f 45 46 28
f 44 66 45
f 45 66 67
f 67 68 45
f 45 68 46
f 96 69 67
f 96 97 69
f 145 102 144
f 144 102 143
f 154 199 200
f 200 201 154
f 202 159 154
f 154 201 202
f 202 201 210
f 162 161 160
f 160 202 210
f 159 202 160
f 160 161 116
f 116 159 160
f 65 94 95
f 94 93 95
f 137 95 92
f 92 95 93
f 92 93 62
f 11 3 10
f 3 8 10
f 10 8 19
f 175 129 174
f 175 176 129
f 178 179 129
f 184 129 183
f 129 179 180
f 180 181 129
f 185 129 184
f 120 86 119
f 120 121 86
f 168 121 120
f 120 119 167
f 167 168 120
f 59 86 60
f 60 34 59
f 58 86 59
f 59 34 58
f 156 157 114
f 157 115 114
f 116 156 114
f 114 115 79
f 225 248 273
f 205 248 225
f 225 209 205
f 273 226 225
f 225 226 169
f 169 209 225
f 287 334 335
f 335 318 287
f 262 216 215
f 215 213 259
f 215 216 163
f 163 213 215
f 206 203 218
f 218 203 163
f 251 252 207
f 289 290 251
f 251 290 252
f 327 282 281
f 252 290 253
f 292 293 253
f 253 293 294
f 207 252 253
f 304 264 303
f 302 303 263
f 303 264 263
f 263 262 302
f 264 218 263
f 298 258 297
f 297 258 295
f 257 280 295
f 261 299 300
f 259 299 261
f 261 215 259
f 261 300 262
f 262 215 261
f 329 330 282
f 282 328 329
f 334 285 333
f 286 334 287
f 286 285 334
f 287 248 286
f 248 285 286
f 249 285 247
f 247 205 249
f 245 283 284
f 234 232 231
f 278 234 231
f 231 272 278
f 231 232 171
f 174 173 238
f 173 237 238
f 265 220 219
f 219 266 265
f 222 266 219
f 165 222 219
f 219 220 165
f 224 223 272
f 224 231 171
f 272 231 224
f 171 167 224
f 336 308 307
f 336 337 308
f 308 347 348
f 346 308 345
f 346 347 308
f 226 275 227
f 169 226 227
f 227 228 169
f 270 309 269
f 270 269 222
f 99 141 100
f 69 97 98
f 98 70 69
f 98 140 99
f 99 70 98
f 69 70 48
f 48 68 69
f 48 49 30
f 48 70 49
f 53 54 32
f 32 31 53
f 79 54 53
f 142 143 101
f 101 143 102
f 101 141 142
f 101 100 141
f 196 197 151
f 239 279 241
f 241 279 242
f 242 197 241
f 241 197 196
f 154 155 111
f 111 155 112
f 198 197 242
f 109 110 78
f 78 111 112
f 110 111 78
f 112 79 78
f 79 53 78
f 136 92 135
f 137 92 136
f 132 92 131
f 131 92 130
f 129 187 130
f 130 92 129
f 128 127 129
f 129 92 128
f 61 92 62
f 35 60 61
f 61 62 35
f 23 25 11
f 11 10 23
f 23 38 25
f 36 38 23
f 129 176 177
f 177 178 129
f 129 181 182
f 182 183 129
f 186 187 129
f 129 185 186
f 113 79 116
f 116 114 113
f 113 114 79
f 163 216 217
f 217 218 163
f 217 263 218
f 217 216 262
f 262 263 217
f 289 251 288
f 294 293 326
f 327 281 326
f 326 281 294
f 294 281 255
f 255 253 294
f 292 253 291
f 291 253 290
f 264 304 305
f 289 288 305
f 305 288 264
f 258 213 212
f 212 214 258
f 212 213 162
f 162 214 212
f 162 160 211
f 211 214 162
f 257 214 211
f 210 257 211
f 211 160 210
f 296 257 295
f 295 258 296
f 332 285 331
f 332 333 285
f 244 281 282
f 246 245 284
f 284 285 246
f 285 249 246
f 246 249 205
f 341 308 340
f 308 339 340
f 308 337 338
f 338 339 308
f 350 308 349
f 308 348 349
f 275 323 276
f 228 227 276
f 276 227 275
f 322 274 321
f 322 275 274
f 322 323 275
f 269 311 312
f 307 306 312
f 306 269 312
f 269 309 310
f 310 311 269
f 230 270 222
f 222 170 230
f 170 229 230
f 309 270 313
f 100 101 72
f 140 98 139
f 46 68 47
f 68 48 47
f 30 46 47
f 47 48 30
f 146 147 108
f 102 145 103
f 145 146 103
f 51 75 76
f 108 147 105
f 73 101 102
f 73 72 101
f 149 192 193
f 191 149 190
f 191 192 149
f 196 151 150
f 154 111 153
f 153 199 154
f 153 198 199
f 197 198 153
f 152 151 197
f 197 153 152
f 152 153 111
f 152 110 109
f 152 111 110
f 92 132 133
f 91 90 127
f 127 128 91
f 60 90 91
f 91 61 60
f 91 128 92
f 92 61 91
f 36 23 22
f 22 18 36
f 22 19 18
f 22 10 19
f 22 23 10
f 207 206 250
f 206 218 250
f 254 208 207
f 254 255 208
f 207 253 254
f 253 255 254
f 260 214 257
f 257 296 260
f 258 214 260
f 260 296 258
f 208 255 256
f 256 244 208
f 256 255 281
f 281 244 256
f 204 244 245
f 245 246 204
f 157 208 204
f 208 244 204
f 205 157 204
f 204 246 205
f 325 276 324
f 324 276 323
f 277 230 229
f 270 230 277
f 229 228 277
f 228 276 277
f 277 276 325
f 325 313 277
f 277 313 270
f 71 70 99
f 99 100 71
f 100 72 71
f 49 70 71
f 71 72 49
f 138 98 97
f 138 139 98
f 188 145 144
f 188 146 145
f 147 146 188
f 104 76 75
f 104 146 108
f 75 103 104
f 104 103 146
f 52 78 53
f 52 53 31
f 31 51 52
f 51 76 52
f 190 149 148
f 149 105 148
f 148 147 190
f 148 105 147
f 74 75 51
f 51 73 74
f 74 73 102
f 102 103 74
f 74 103 75
f 49 72 50
f 72 73 50
f 50 31 49
f 50 51 31
f 50 73 51
f 239 240 194
f 194 193 239
f 149 193 194
f 194 150 149
f 195 240 196
f 196 150 195
f 195 194 240
f 150 194 195
f 106 105 149
f 149 150 106
f 107 150 151
f 107 152 109
f 151 152 107
f 107 106 150
f 109 78 107
f 135 92 134
f 92 133 134
f 190 147 189
f 147 188 189
f 105 106 77
f 106 107 77
f 108 105 77
f 77 107 78
f 77 104 108
f 76 104 77
f 78 52 77
f 77 52 76
f 14 1 4
f 5 1 14
f 4 1 13
f 13 1 3
f 127 90 172
f 172 90 126
f 243 280 257
f 257 210 243
f 166 223 224
f 167 166 224
f 241 240 239
f 196 240 241
f 283 245 244
f 282 283 244
f 250 288 251
f 250 251 207
f 250 218 264
f 264 288 250
f 189 180 179
f 189 27 26
f 40 43 189
f 189 280 243
f 189 234 278
f 189 41 40
f 189 332 331
f 236 235 189
f 199 198 189
f 319 318 189
f 189 328 327
f 189 320 319
f 189 141 140
f 24 39 189
f 189 303 302
f 189 278 317
f 317 316 189
f 189 344 343
f 189 14 4
f 67 66 189
f 189 43 65
f 4 13 189
f 189 279 239
f 189 136 135
f 189 290 289
f 292 291 189
f 189 299 298
f 189 351 350
f 174 238 189
f 343 342 189
f 321 320 189
f 189 96 67
f 26 14 189
f 189 138 97
f 243 201 189
f 189 200 199
f 189 12 24
f 65 95 189
f 179 178 189
f 330 329 189
f 189 335 334
f 187 186 189
f 302 301 189
f 331 330 189
f 289 305 189
f 314 351 189
f 189 315 314
f 189 346 345
f 350 349 189
f 189 313 325
f 189 322 321
f 44 27 189
f 295 280 189
f 144 143 189
f 140 139 189
f 13 12 189
f 189 39 41
f 189 175 174
f 184 183 189
f 189 191 190
f 189 185 184
f 189 301 300
f 300 299 189
f 298 297 189
f 189 237 236
f 189 235 234
f 189 316 315
f 189 336 307
f 189 342 341
f 345 344 189
f 189 338 337
f 189 310 309
f 142 141 189
f 189 66 44
f 97 96 189
f 189 143 142
f 201 200 189
f 242 279 189
f 189 95 137
f 176 175 189
f 131 130 189
f 189 177 176
f 181 180 189
f 189 182 181
f 318 335 189
f 327 326 189
f 189 293 292
f 189 304 303
f 189 297 295
f 189 329 328
f 334 333 189
f 189 238 237
f 337 336 189
f 341 340 189
f 189 348 347
f 347 346 189
f 189 188 144
f 307 312 189
f 239 193 189
f 189 198 242
f 137 136 189
f 189 132 131
f 189 130 187
f 178 177 189
f 183 182 189
f 189 186 185
f 189 326 293
f 189 291 290
f 189 305 304
f 333 332 189
f 189 340 339
f 339 338 189
f 189 349 348
f 323 322 189
f 189 312 311
f 311 310 189
f 309 313 189
f 325 324 189
f 189 193 192
f 192 191 189
f 189 133 132
f 189 324 323
f 139 138 189
f 135 134 189
f 189 134 133
