v 0.074119 0.052174 0.019379
v 0.074119 0.053916 0.019990
v 0.103695 0.053277 0.024669
v 0.103939 0.052847 0.024669
v 0.104174 0.052209 0.024669
v 0.104439 0.051228 0.024669
v 0.104439 0.050279 0.024669
v 0.104194 0.049333 0.024669
v 0.103939 0.048651 0.024669
v 0.102593 0.048022 0.024669
v 0.056592 0.025625 0.029679
v 0.038299 0.043237 0.024288
v 0.038085 0.043249 0.024295
v 0.036188 0.044590 0.023945
v 0.000297 0.050551 0.024216
v 0.000297 0.052179 0.023772
v 0.000297 0.053761 0.024216
v 0.074119 0.053960 0.020081
v 0.102593 0.053509 0.024669
v 0.002031 0.054545 0.025607
v 0.103664 0.053234 0.024896
v 0.103868 0.051617 0.027508
v 0.104001 0.052241 0.025563
v 0.104358 0.050279 0.027508
v 0.104521 0.050279 0.025613
v 0.104460 0.028711 0.048368
v 0.104184 0.028711 0.047074
v 0.104011 0.028711 0.046580
v 0.089034 0.031264 0.032152
v 0.062784 0.025751 0.030563
v 0.060856 0.025475 0.030563
v 0.056592 0.024632 0.044362
v 0.045665 0.026295 0.044362
v 0.043768 0.026667 0.044362
v 0.038299 0.027815 0.044362
v 0.000297 0.039966 0.043676
v 0.055531 0.026002 0.029679
v 0.000297 0.049573 0.025701
v 0.000297 0.054440 0.025607
v 0.074119 0.054182 0.021686
v 0.100695 0.053591 0.024669
v 0.005847 0.051298 0.039969
v 0.007357 0.051260 0.039893
v 0.102593 0.053318 0.025088
v 0.002031 0.054434 0.027508
v 0.003939 0.054443 0.027508
v 0.003939 0.054542 0.025607
v 0.074119 0.054194 0.021865
v 0.103654 0.051330 0.028637
v 0.102593 0.052862 0.026035
v 0.103827 0.049682 0.030966
v 0.103980 0.050297 0.029326
v 0.104409 0.046481 0.033200
v 0.104501 0.048379 0.029408
v 0.104113 0.048560 0.031479
v 0.104501 0.029416 0.048368
v 0.104501 0.042689 0.036989
v 0.104501 0.037006 0.042678
v 0.104449 0.028711 0.049073
v 0.102603 0.028711 0.045718
v 0.104113 0.028711 0.050281
v 0.103939 0.028711 0.050741
v 0.103684 0.028711 0.051219
v 0.103215 0.028711 0.051348
v 0.102593 0.028711 0.051442
v 0.102460 0.028711 0.051449
v 0.100695 0.028711 0.051515
v 0.096900 0.028711 0.051521
v 0.091207 0.028711 0.051527
v 0.089861 0.028711 0.051527
v 0.000297 0.048666 0.043676
v 0.000297 0.054311 0.027508
v 0.003939 0.054138 0.029402
v 0.003939 0.053802 0.031299
v 0.003939 0.053395 0.033197
v 0.005133 0.053140 0.034204
v 0.003939 0.052914 0.035179
v 0.005847 0.052399 0.036989
v 0.005847 0.051746 0.038886
v 0.005847 0.050762 0.040916
v 0.003939 0.051316 0.039997
v 0.003939 0.050780 0.040948
v 0.007887 0.050809 0.040627
v 0.008622 0.051225 0.039824
v 0.002031 0.054106 0.029402
v 0.103358 0.049310 0.032231
v 0.102593 0.052094 0.027508
v 0.102593 0.051412 0.028782
v 0.103909 0.048022 0.033200
v 0.103705 0.047600 0.034386
v 0.104480 0.044590 0.035098
v 0.103990 0.046493 0.035050
v 0.104082 0.044657 0.037046
v 0.104480 0.035112 0.044576
v 0.104419 0.033214 0.046470
v 0.104113 0.042818 0.039006
v 0.104113 0.040930 0.040916
v 0.104113 0.039026 0.042804
v 0.104113 0.031475 0.048535
v 0.103980 0.029334 0.050294
v 0.103837 0.030951 0.049677
v 0.103715 0.034409 0.047597
v 0.103154 0.032216 0.049277
v 0.102593 0.029753 0.050854
v 0.102593 0.028802 0.051395
v 0.100695 0.029812 0.050904
v 0.007734 0.048663 0.043676
v 0.005847 0.048777 0.043676
v 0.003939 0.048812 0.043676
v 0.003337 0.048800 0.043676
v 0.002041 0.048768 0.043676
v 0.001368 0.048733 0.043676
v 0.002041 0.049087 0.043336
v 0.000297 0.049038 0.043267
v 0.000297 0.053977 0.029402
v 0.002031 0.053761 0.031299
v 0.003939 0.053146 0.034232
v 0.002041 0.053315 0.033348
v 0.002623 0.053157 0.034122
v 0.002776 0.053160 0.034122
v 0.003939 0.052431 0.036989
v 0.002684 0.053140 0.034201
v 0.002052 0.052932 0.034937
v 0.002041 0.052384 0.036989
v 0.003939 0.051775 0.038886
v 0.005847 0.049814 0.042389
v 0.007734 0.049758 0.042320
v 0.002041 0.051298 0.039963
v 0.003939 0.049828 0.042411
v 0.002041 0.050762 0.040913
v 0.002041 0.049814 0.042386
v 0.102093 0.049360 0.032297
v 0.102674 0.049808 0.031479
v 0.102593 0.050850 0.029732
v 0.000297 0.053641 0.031299
v 0.102593 0.047723 0.034556
v 0.102593 0.047032 0.035500
v 0.103807 0.045866 0.036451
v 0.102593 0.046083 0.036712
v 0.103837 0.044077 0.038455
v 0.104082 0.037059 0.044648
v 0.104001 0.035068 0.046477
v 0.103919 0.033214 0.047997
v 0.103858 0.042271 0.040375
v 0.103858 0.040391 0.042254
v 0.103848 0.038476 0.044063
v 0.102593 0.034579 0.047720
v 0.103797 0.036464 0.045847
v 0.102593 0.037671 0.045284
v 0.102593 0.036719 0.046058
v 0.102593 0.035527 0.047005
v 0.102552 0.033036 0.048774
v 0.101889 0.032286 0.049331
v 0.102552 0.031475 0.049796
v 0.007734 0.049035 0.043267
v 0.005847 0.049090 0.043336
v 0.102593 0.038789 0.044334
v 0.102593 0.039732 0.043519
v 0.102593 0.040710 0.042571
v 0.102593 0.041653 0.041643
v 0.102593 0.042584 0.040696
v 0.102593 0.043536 0.039717
v 0.003939 0.049111 0.043358
v 0.000297 0.049761 0.042320
v 0.000297 0.053330 0.032816
v 0.000297 0.053096 0.033861
v 0.001419 0.053113 0.034078
v 0.001450 0.053105 0.034122
v 0.002041 0.051734 0.038886
v 0.000297 0.052812 0.035082
v 0.000297 0.052352 0.036813
v 0.000297 0.052302 0.036989
v 0.000634 0.051269 0.039906
v 0.000297 0.051002 0.040321
v 0.000297 0.050794 0.040671
v 0.000297 0.049846 0.042191
v 0.102593 0.045293 0.037656
v 0.000297 0.051588 0.039031
v 0.000297 0.051439 0.039421
v 0.000297 0.051251 0.039881
f 13 11 15
f 11 1 10
f 11 10 30
f 30 10 29
f 71 36 70
f 69 109 70
f 32 69 70
f 35 36 11
f 35 70 36
f 37 36 38
f 11 36 37
f 37 38 15
f 15 11 37
f 15 1 14
f 14 13 15
f 1 13 14
f 12 1 11
f 11 13 12
f 12 13 1
f 16 1 15
f 16 17 1
f 1 17 2
f 9 28 29
f 29 10 9
f 9 10 1
f 29 28 60
f 60 30 29
f 28 30 60
f 31 28 32
f 31 30 28
f 32 11 31
f 11 30 31
f 33 11 32
f 32 70 33
f 110 109 163
f 110 70 109
f 110 111 70
f 71 70 112
f 70 111 112
f 20 2 17
f 2 20 18
f 1 6 7
f 7 6 25
f 68 69 32
f 32 67 68
f 68 109 69
f 68 67 109
f 26 59 32
f 26 7 25
f 32 59 61
f 25 6 24
f 2 18 19
f 34 35 11
f 11 33 34
f 70 35 34
f 34 33 70
f 109 67 108
f 67 107 108
f 163 109 108
f 46 48 47
f 47 20 46
f 48 20 47
f 39 20 17
f 46 20 45
f 45 73 46
f 45 39 72
f 20 39 45
f 8 9 1
f 1 7 8
f 32 63 64
f 64 65 32
f 66 67 32
f 32 65 66
f 106 107 67
f 32 28 27
f 27 26 32
f 28 9 27
f 9 8 27
f 7 26 27
f 27 8 7
f 56 26 25
f 59 26 56
f 62 63 32
f 32 61 62
f 78 79 41
f 41 77 78
f 79 42 41
f 41 42 19
f 76 77 41
f 41 73 74
f 46 73 41
f 41 48 46
f 41 19 18
f 158 107 157
f 107 149 157
f 157 148 158
f 157 149 148
f 148 149 102
f 102 142 148
f 86 137 90
f 90 51 86
f 83 88 84
f 136 137 86
f 86 127 136
f 136 127 137
f 137 127 155
f 155 107 162
f 158 148 146
f 103 102 147
f 103 64 63
f 63 102 103
f 105 66 65
f 67 66 105
f 105 106 67
f 65 64 105
f 58 56 25
f 171 172 124
f 75 41 74
f 76 41 75
f 48 41 40
f 40 41 18
f 40 20 48
f 40 18 20
f 5 6 1
f 5 24 6
f 147 102 151
f 151 107 147
f 139 90 137
f 137 155 139
f 90 139 138
f 43 83 84
f 19 42 43
f 84 50 43
f 127 83 80
f 80 43 42
f 83 43 80
f 163 108 156
f 156 108 107
f 107 155 156
f 161 144 162
f 161 160 144
f 162 107 161
f 107 160 161
f 159 107 158
f 159 160 107
f 85 45 72
f 74 73 85
f 73 45 85
f 152 103 147
f 64 103 104
f 104 105 64
f 103 154 104
f 106 105 104
f 107 106 104
f 59 56 95
f 95 61 59
f 95 99 61
f 142 95 141
f 148 142 141
f 141 146 148
f 63 62 101
f 101 102 63
f 78 77 121
f 77 124 121
f 121 79 78
f 121 125 79
f 79 125 81
f 81 42 79
f 125 121 169
f 169 121 124
f 169 124 172
f 113 110 163
f 111 110 113
f 113 112 111
f 113 114 71
f 71 112 113
f 117 77 76
f 76 75 117
f 24 22 52
f 52 22 51
f 44 21 19
f 44 50 21
f 19 43 44
f 44 43 50
f 21 50 49
f 49 88 86
f 49 22 21
f 86 51 49
f 51 22 49
f 21 22 4
f 4 5 1
f 150 102 149
f 150 151 102
f 150 149 107
f 107 151 150
f 162 144 140
f 140 138 162
f 162 138 177
f 177 138 139
f 177 155 162
f 177 139 155
f 51 90 89
f 86 133 132
f 132 133 83
f 132 127 86
f 132 83 127
f 88 83 134
f 83 133 134
f 86 88 134
f 134 133 86
f 127 80 126
f 126 129 163
f 163 156 126
f 144 160 145
f 160 159 145
f 158 146 145
f 145 159 158
f 115 85 72
f 135 85 115
f 116 135 165
f 116 85 135
f 74 85 116
f 116 75 74
f 118 116 165
f 119 75 118
f 75 116 118
f 123 170 171
f 171 124 123
f 123 124 77
f 103 152 153
f 153 154 103
f 147 107 153
f 153 152 147
f 107 104 153
f 153 104 154
f 56 58 94
f 94 95 56
f 94 141 95
f 144 145 97
f 61 99 100
f 100 62 61
f 100 101 62
f 143 95 142
f 99 95 143
f 142 102 143
f 102 101 143
f 143 100 99
f 101 100 143
f 129 126 82
f 82 126 80
f 82 80 42
f 42 81 82
f 128 81 125
f 125 169 128
f 178 169 172
f 114 113 131
f 129 82 131
f 163 129 131
f 131 113 163
f 120 75 119
f 120 117 75
f 77 117 120
f 88 49 87
f 87 49 50
f 84 88 87
f 87 50 84
f 23 4 22
f 5 4 23
f 23 22 24
f 24 5 23
f 19 21 3
f 21 4 3
f 3 4 1
f 1 2 3
f 2 19 3
f 90 138 92
f 92 89 90
f 166 118 165
f 122 123 77
f 119 123 122
f 77 120 122
f 122 120 119
f 96 140 144
f 144 97 96
f 141 94 98
f 98 97 145
f 98 94 58
f 58 97 98
f 146 141 98
f 98 145 146
f 173 128 169
f 114 131 164
f 164 131 176
f 24 52 55
f 55 52 51
f 51 89 55
f 167 166 170
f 118 166 167
f 138 140 93
f 140 96 93
f 93 92 138
f 57 97 58
f 57 96 97
f 57 58 25
f 180 173 179
f 169 178 179
f 179 173 169
f 170 123 168
f 168 167 170
f 168 123 119
f 119 118 168
f 118 167 168
f 25 24 54
f 54 57 25
f 91 93 96
f 96 57 91
f 57 54 91
f 174 173 180
f 130 175 176
f 176 131 130
f 130 131 82
f 128 173 130
f 130 174 175
f 173 174 130
f 92 93 53
f 93 91 53
f 89 92 53
f 53 55 89
f 24 55 53
f 53 54 24
f 53 91 54
f 126 156 155
f 126 155 127
f 174 36 71
f 15 38 174
f 71 114 174
f 38 36 174
f 174 39 17
f 174 16 15
f 17 16 174
f 171 170 174
f 174 166 165
f 72 39 174
f 174 172 171
f 165 135 174
f 174 115 72
f 174 178 172
f 180 179 174
f 135 115 174
f 114 164 174
f 170 166 174
f 174 164 176
f 174 179 178
f 176 175 174
f 81 128 130
f 130 82 81
