v 0.099464 0.053603 0.024654
v 0.077939 0.053603 0.024654
v 0.100697 0.053593 0.024654
v 0.100697 0.054033 0.023701
v 0.077939 0.054043 0.023701
v 0.076039 0.053532 0.024654
v 0.102594 0.053511 0.024654
v 0.102594 0.054688 0.021927
v 0.100697 0.054739 0.022006
v 0.087425 0.054739 0.022040
v 0.102594 0.053931 0.023701
v 0.076039 0.053961 0.023701
v 0.077939 0.054739 0.022025
v 0.076039 0.054698 0.021962
v 0.074824 0.053378 0.024654
v 0.103701 0.053276 0.024654
v 0.103558 0.055035 0.020882
v 0.102594 0.055066 0.020974
v 0.100697 0.055097 0.021058
v 0.089325 0.055117 0.021092
v 0.087425 0.055117 0.021092
v 0.075038 0.055046 0.020916
v 0.077939 0.055107 0.021072
v 0.076039 0.055087 0.021014
v 0.074410 0.053317 0.024654
v 0.103940 0.052846 0.024654
v 0.103868 0.053491 0.023701
v 0.103728 0.055199 0.019904
v 0.103713 0.057061 0.013840
v 0.103377 0.056918 0.014974
v 0.103332 0.056897 0.015106
v 0.102594 0.056079 0.018008
v 0.102594 0.055445 0.019904
v 0.100697 0.055506 0.019904
v 0.089325 0.055537 0.019904
v 0.077939 0.055537 0.019904
v 0.074124 0.054186 0.021849
v 0.074124 0.053654 0.023745
v 0.074124 0.053501 0.024112
v 0.077939 0.056202 0.018008
v 0.076902 0.056959 0.015316
v 0.076700 0.057102 0.014212
v 0.076441 0.057317 0.012316
v 0.076301 0.057501 0.010420
v 0.074124 0.053255 0.024654
v 0.104184 0.052212 0.024654
v 0.104362 0.052181 0.023701
v 0.104222 0.054074 0.019904
v 0.103960 0.055506 0.018008
v 0.103874 0.057235 0.012316
v 0.102597 0.058258 0.008524
v 0.102597 0.057961 0.010420
v 0.102597 0.057613 0.012316
v 0.102662 0.057133 0.014368
v 0.102263 0.057010 0.014974
v 0.102070 0.056948 0.015267
v 0.102656 0.056693 0.015981
v 0.100697 0.056713 0.016269
v 0.100697 0.056171 0.018008
v 0.089325 0.056191 0.018008
v 0.079835 0.056202 0.018008
v 0.074124 0.054176 0.021668
v 0.074121 0.038534 0.021800
v 0.074121 0.038534 0.023711
v 0.076944 0.058841 0.004048
v 0.076887 0.058872 0.002831
v 0.076816 0.058902 0.000935
v 0.076122 0.057869 0.002831
v 0.076057 0.057869 0.000935
v 0.076045 0.057869 -0.000233
v 0.076039 0.057869 -0.000956
v 0.077939 0.056713 0.016342
v 0.077939 0.056989 0.015394
v 0.077227 0.057061 0.014974
v 0.077936 0.057716 0.012316
v 0.077936 0.058074 0.010420
v 0.074121 0.037665 0.024654
v 0.104440 0.051230 0.024654
v 0.104517 0.052181 0.021800
v 0.104461 0.054074 0.018008
v 0.104371 0.055966 0.012316
v 0.103984 0.057399 0.010420
v 0.103552 0.058821 0.002025
v 0.102597 0.058493 0.006628
v 0.100697 0.058350 0.008524
v 0.100697 0.058064 0.010420
v 0.100697 0.057695 0.012316
v 0.100697 0.057245 0.014212
v 0.100697 0.057051 0.014974
v 0.089325 0.056713 0.016337
v 0.098800 0.057061 0.014974
v 0.089322 0.057092 0.014974
v 0.089325 0.056979 0.015389
v 0.083632 0.056713 0.016342
v 0.074124 0.053961 0.020066
v 0.075479 0.055966 -0.008544
v 0.074121 0.038227 0.020364
v 0.077936 0.058350 0.008524
v 0.077936 0.058596 0.006628
v 0.077936 0.058769 0.005128
v 0.077936 0.058851 0.004180
v 0.077936 0.058923 0.002831
v 0.077936 0.058994 0.000935
v 0.077936 0.059015 -0.000233
v 0.077936 0.059025 -0.000956
v 0.076792 0.058923 -0.000956
v 0.076101 0.057869 -0.002852
v 0.075539 0.055966 -0.010445
v 0.079835 0.056989 0.015394
v 0.077936 0.057092 0.014974
v 0.077936 0.057276 0.014212
v 0.096903 0.057716 0.012316
v 0.074121 0.021726 0.024654
v 0.104446 0.050278 0.024654
v 0.104487 0.050278 -0.025261
v 0.104523 0.052181 -0.021826
v 0.104529 0.054074 0.016108
v 0.104481 0.055966 0.010420
v 0.104032 0.057532 0.008524
v 0.103588 0.058851 0.000935
v 0.102597 0.058943 0.000935
v 0.102597 0.058861 0.002430
v 0.102597 0.058667 0.004727
v 0.100697 0.058565 0.006628
v 0.079832 0.058769 0.005108
v 0.096903 0.057266 0.014212
v 0.089322 0.057276 0.014212
v 0.075470 0.054074 -0.016133
v 0.075488 0.052181 -0.021826
v 0.074124 0.053920 0.019973
v 0.074121 0.036979 0.019660
v 0.085526 0.058851 0.004102
v 0.085526 0.058923 0.002831
v 0.098800 0.059015 0.000935
v 0.100700 0.059025 -0.000956
v 0.077936 0.058943 -0.002852
v 0.076935 0.058841 -0.004093
v 0.076858 0.058882 -0.002852
v 0.076220 0.057767 -0.006648
v 0.076241 0.057644 -0.008544
v 0.076301 0.057501 -0.010445
v 0.075679 0.055966 -0.012341
v 0.075556 0.054074 -0.018029
v 0.074121 0.021726 0.019445
v 0.078626 -0.044545 -0.025266
v 0.078960 -0.045487 0.017129
v 0.089039 0.021726 0.024654
v 0.104202 0.049337 0.024654
v 0.089102 -0.045487 0.017129
v 0.089093 -0.045487 -0.000233
v 0.089072 -0.044545 -0.025266
v 0.089042 -0.025190 -0.025266
v 0.104080 0.052232 -0.025261
v 0.104377 0.052181 -0.023722
v 0.104467 0.054074 -0.018029
v 0.104532 0.054074 -0.016133
v 0.104541 0.055966 -0.006648
v 0.104535 0.055966 0.006628
v 0.104529 0.055966 0.008524
v 0.104041 0.057654 0.006628
v 0.103600 0.058861 -0.000233
v 0.102594 0.058964 -0.000956
v 0.104082 0.057869 0.000935
v 0.100697 0.059015 0.000935
v 0.100697 0.058902 0.002724
v 0.075681 0.052181 -0.023722
v 0.075515 0.050647 -0.025261
v 0.075476 0.050278 -0.025261
v 0.074124 0.052181 0.019372
v 0.074121 0.035097 0.019445
v 0.102665 0.058882 -0.002920
v 0.100700 0.058943 -0.002852
v 0.077936 0.058851 -0.004235
v 0.077936 0.058769 -0.005183
v 0.077936 0.058626 -0.006648
v 0.077936 0.058381 -0.008544
v 0.077936 0.058074 -0.010445
v 0.076706 0.057092 -0.014232
v 0.076441 0.057307 -0.012341
v 0.075941 0.055966 -0.014232
v 0.075854 0.054074 -0.019930
v 0.076322 0.055598 -0.018029
v 0.078960 -0.045487 -0.000233
v 0.078960 -0.025190 -0.025266
v 0.103946 0.048652 0.024654
v 0.100700 0.053327 -0.025261
v 0.102594 0.053255 -0.025261
v 0.103853 0.052723 -0.025261
v 0.103880 0.053491 -0.023722
v 0.104240 0.054074 -0.019930
v 0.103966 0.055506 -0.018029
v 0.104377 0.055966 -0.012341
v 0.104487 0.055966 -0.010445
v 0.104532 0.055966 -0.008544
v 0.104100 0.057869 -0.000956
v 0.104094 0.057869 -0.000233
v 0.103609 0.058861 -0.000956
v 0.103576 0.058841 -0.002334
v 0.076131 0.052263 -0.025261
v 0.076444 0.053572 -0.023722
v 0.103347 0.058800 -0.003599
v 0.102079 0.058841 -0.004093
v 0.100700 0.058851 -0.004235
v 0.100700 0.058769 -0.005183
v 0.100700 0.058626 -0.006648
v 0.100700 0.058381 -0.008544
v 0.100700 0.058074 -0.010445
v 0.077936 0.057705 -0.012341
v 0.076911 0.056959 -0.015322
v 0.076616 0.055281 -0.019930
v 0.076277 0.052529 -0.025261
v 0.076533 0.052877 -0.025261
v 0.077010 0.053194 -0.025261
v 0.077936 0.053327 -0.025261
v 0.100700 0.054023 -0.023722
v 0.102594 0.053337 -0.025105
v 0.103678 0.053245 -0.024914
v 0.103564 0.055035 -0.020917
v 0.103743 0.055209 -0.019930
v 0.103546 0.056918 -0.015190
v 0.103675 0.057030 -0.014232
v 0.103880 0.057235 -0.012341
v 0.103990 0.057409 -0.010445
v 0.104032 0.057542 -0.008544
v 0.104041 0.057665 -0.006648
v 0.104041 0.057777 -0.004753
v 0.103960 0.058043 -0.002920
v 0.076736 0.053286 -0.025002
v 0.076884 0.055076 -0.021019
v 0.102594 0.057982 -0.010445
v 0.102594 0.058278 -0.008544
v 0.102594 0.058514 -0.006648
v 0.102665 0.058729 -0.004733
v 0.102594 0.057634 -0.012341
v 0.100700 0.057705 -0.012341
v 0.077936 0.057266 -0.014232
v 0.077936 0.056979 -0.015390
v 0.077936 0.056693 -0.016338
v 0.077936 0.056181 -0.018029
v 0.077936 0.054023 -0.023722
v 0.102594 0.054688 -0.021963
v 0.102594 0.053941 -0.023722
v 0.100700 0.054728 -0.022036
v 0.102594 0.055076 -0.021015
v 0.102594 0.055465 -0.019930
v 0.102594 0.056089 -0.018029
v 0.102594 0.056948 -0.015293
v 0.102594 0.057204 -0.014232
v 0.077936 0.055107 -0.021088
v 0.077936 0.054728 -0.022036
v 0.077936 0.055537 -0.019930
v 0.100700 0.057266 -0.014232
v 0.100700 0.056979 -0.015390
v 0.079832 0.056703 -0.016338
v 0.100700 0.056181 -0.018029
v 0.100700 0.055107 -0.021088
v 0.100700 0.055537 -0.019930
v 0.100700 0.056703 -0.016338
f 113 145 146
f 113 144 145
f 145 144 168
f 145 168 184
f 146 145 183
f 149 115 114
f 199 184 167
f 167 184 168
f 168 129 167
f 168 169 130
f 130 129 168
f 170 168 144
f 170 169 168
f 217 187 216
f 187 217 188
f 157 116 156
f 185 147 149
f 115 149 150
f 150 151 115
f 64 37 63
f 64 77 45
f 37 64 38
f 129 130 95
f 63 95 97
f 97 95 130
f 213 214 184
f 228 214 213
f 216 187 186
f 187 188 152
f 188 153 152
f 152 186 187
f 115 151 152
f 152 153 115
f 148 149 114
f 148 185 149
f 39 64 45
f 39 38 64
f 7 16 17
f 17 16 27
f 131 130 169
f 131 97 130
f 169 170 131
f 189 188 217
f 189 153 188
f 28 17 27
f 212 213 184
f 228 213 212
f 230 221 220
f 95 96 108
f 159 118 117
f 117 158 159
f 117 116 157
f 157 158 117
f 37 38 22
f 38 39 22
f 14 22 12
f 6 12 15
f 15 12 22
f 14 12 5
f 2 1 5
f 5 1 4
f 5 6 2
f 5 12 6
f 62 96 95
f 63 37 62
f 62 95 63
f 153 189 154
f 154 116 115
f 115 153 154
f 49 28 27
f 81 50 49
f 211 184 199
f 211 212 184
f 220 247 248
f 253 247 258
f 255 258 247
f 240 214 228
f 228 229 240
f 209 208 236
f 177 208 209
f 46 78 47
f 46 47 27
f 79 78 114
f 116 117 79
f 47 78 79
f 114 115 79
f 115 116 79
f 22 40 41
f 71 62 37
f 96 62 71
f 71 108 96
f 25 39 45
f 25 22 39
f 25 15 22
f 59 90 60
f 7 4 3
f 4 1 3
f 11 4 7
f 11 8 4
f 7 17 11
f 17 8 11
f 4 8 9
f 19 20 9
f 17 33 18
f 18 8 17
f 19 9 18
f 18 9 8
f 191 189 219
f 191 222 192
f 221 222 191
f 191 219 220
f 220 221 191
f 27 47 48
f 48 49 27
f 159 158 195
f 195 196 159
f 195 158 157
f 197 196 195
f 160 118 159
f 200 229 228
f 228 212 200
f 212 211 200
f 200 211 199
f 221 230 201
f 201 222 221
f 216 186 215
f 209 236 237
f 239 229 209
f 95 108 128
f 108 143 128
f 129 95 128
f 128 143 129
f 141 108 140
f 206 230 207
f 248 235 234
f 234 230 220
f 220 248 234
f 235 207 234
f 234 207 230
f 252 235 248
f 252 247 253
f 252 248 247
f 27 16 26
f 26 46 27
f 24 22 14
f 24 40 22
f 35 59 60
f 90 109 94
f 73 41 72
f 72 41 40
f 33 59 34
f 19 18 34
f 34 18 33
f 59 35 34
f 34 20 19
f 34 35 20
f 32 59 33
f 32 33 17
f 10 9 20
f 10 5 4
f 4 9 10
f 190 154 189
f 189 191 190
f 67 105 106
f 105 138 106
f 106 69 67
f 81 49 80
f 49 48 80
f 80 118 81
f 80 117 118
f 80 79 117
f 47 79 80
f 80 48 47
f 104 67 103
f 104 105 67
f 121 83 120
f 162 121 120
f 85 86 51
f 50 83 51
f 98 85 99
f 85 100 99
f 65 100 101
f 101 102 65
f 65 99 100
f 65 102 103
f 98 99 65
f 122 83 121
f 101 100 132
f 164 121 162
f 162 135 164
f 164 122 121
f 165 122 164
f 164 132 165
f 53 30 29
f 50 51 29
f 29 49 50
f 28 49 29
f 17 28 29
f 29 30 17
f 31 53 54
f 31 30 53
f 57 32 31
f 17 30 31
f 31 32 17
f 74 41 73
f 74 75 41
f 192 222 223
f 223 193 192
f 226 225 197
f 226 195 225
f 159 196 163
f 163 160 159
f 163 120 160
f 163 196 197
f 81 118 82
f 82 50 81
f 82 83 50
f 166 200 199
f 129 143 166
f 199 167 166
f 166 167 129
f 231 201 230
f 231 230 206
f 206 205 231
f 203 172 202
f 202 204 203
f 202 201 233
f 205 204 202
f 241 215 243
f 243 244 241
f 257 244 256
f 256 244 243
f 220 219 218
f 218 189 217
f 219 189 218
f 218 241 244
f 218 217 216
f 257 255 245
f 245 244 257
f 220 218 245
f 245 218 244
f 250 240 229
f 229 249 250
f 229 239 251
f 251 249 229
f 142 143 108
f 108 141 142
f 75 74 111
f 57 31 56
f 56 32 57
f 87 86 112
f 53 86 87
f 90 59 58
f 58 56 89
f 59 32 58
f 32 56 58
f 14 5 13
f 13 24 14
f 13 23 24
f 5 10 13
f 61 35 60
f 60 90 61
f 90 94 61
f 37 67 68
f 68 69 37
f 67 69 68
f 155 191 192
f 155 190 191
f 192 193 155
f 155 193 156
f 155 156 116
f 116 154 155
f 154 190 155
f 137 174 175
f 105 136 137
f 137 138 105
f 175 176 137
f 140 138 137
f 137 141 140
f 137 176 177
f 70 106 71
f 69 106 70
f 70 71 37
f 37 69 70
f 107 106 138
f 71 106 107
f 140 108 107
f 108 71 107
f 41 75 76
f 76 85 98
f 76 86 85
f 76 75 112
f 112 86 76
f 98 65 76
f 161 197 162
f 162 120 161
f 161 163 197
f 120 163 161
f 52 86 53
f 52 51 86
f 53 29 52
f 52 29 51
f 103 67 66
f 66 65 103
f 66 67 37
f 37 65 66
f 37 22 44
f 44 65 37
f 22 43 44
f 43 65 44
f 42 65 43
f 22 41 42
f 42 43 22
f 41 76 42
f 42 76 65
f 84 51 83
f 85 51 84
f 125 100 85
f 125 132 100
f 105 104 134
f 134 104 103
f 103 102 134
f 133 102 101
f 101 132 133
f 132 164 133
f 225 195 194
f 194 193 225
f 194 195 157
f 157 156 194
f 156 193 194
f 197 225 198
f 162 197 198
f 222 201 198
f 198 223 222
f 197 195 227
f 227 226 197
f 195 226 227
f 118 160 119
f 119 82 118
f 83 82 119
f 119 120 83
f 160 120 119
f 229 200 210
f 200 182 210
f 209 229 210
f 210 182 209
f 209 182 178
f 178 177 209
f 178 137 177
f 181 182 200
f 200 166 181
f 143 182 181
f 181 166 143
f 233 201 232
f 201 231 232
f 232 231 205
f 232 202 233
f 205 202 232
f 171 202 172
f 172 135 171
f 171 135 162
f 201 202 171
f 162 198 171
f 171 198 201
f 216 215 242
f 215 241 242
f 242 218 216
f 241 218 242
f 246 255 247
f 246 245 255
f 246 247 220
f 220 245 246
f 237 254 238
f 238 254 239
f 209 237 238
f 238 239 209
f 179 142 141
f 179 178 182
f 141 137 179
f 137 178 179
f 110 74 73
f 110 111 74
f 55 87 56
f 55 31 54
f 55 56 31
f 54 53 55
f 53 87 55
f 127 126 112
f 89 56 88
f 56 87 88
f 93 109 90
f 90 58 93
f 91 58 89
f 91 88 126
f 89 88 91
f 23 13 21
f 21 10 20
f 21 13 10
f 40 24 36
f 24 23 36
f 23 21 36
f 174 137 173
f 173 137 136
f 139 138 140
f 140 107 139
f 139 107 138
f 83 122 123
f 123 84 83
f 123 122 165
f 85 84 124
f 165 132 124
f 124 123 165
f 84 123 124
f 124 125 85
f 132 125 124
f 224 198 225
f 223 198 224
f 225 193 224
f 193 223 224
f 180 179 182
f 142 179 180
f 180 182 143
f 143 142 180
f 126 127 92
f 92 91 126
f 109 93 92
f 92 93 58
f 58 91 92
f 147 113 146
f 146 149 147
f 150 149 146
f 146 183 150
f 150 183 145
f 145 151 150
f 152 151 145
f 145 184 152
f 184 214 152
f 214 186 152
f 113 77 131
f 131 64 63
f 144 113 131
f 131 170 144
f 77 64 131
f 63 97 131
f 215 186 214
f 214 240 215
f 208 177 207
f 207 235 208
f 252 237 236
f 253 237 252
f 208 235 252
f 252 236 208
f 176 205 206
f 175 205 176
f 176 207 177
f 206 207 176
f 26 148 114
f 26 77 113
f 113 147 26
f 45 77 26
f 114 78 26
f 147 185 26
f 7 3 26
f 185 148 26
f 26 16 7
f 2 6 26
f 26 25 45
f 6 15 26
f 26 1 2
f 78 46 26
f 15 25 26
f 26 3 1
f 72 109 73
f 72 94 109
f 136 135 172
f 105 135 136
f 204 205 175
f 175 174 204
f 254 237 253
f 253 258 254
f 258 255 254
f 255 239 254
f 250 215 240
f 243 215 250
f 250 256 243
f 249 256 250
f 251 239 255
f 251 255 257
f 251 256 249
f 257 256 251
f 94 72 61
f 61 72 40
f 134 135 105
f 134 164 135
f 164 134 133
f 133 134 102
f 75 111 127
f 112 75 127
f 112 126 88
f 88 87 112
f 36 61 40
f 35 61 36
f 20 35 36
f 36 21 20
f 173 204 174
f 203 204 173
f 173 136 172
f 173 172 203
f 73 109 92
f 92 110 73
f 92 127 111
f 111 110 92
