v 0.038500 -0.084918 -0.137000
v 0.036500 -0.084918 -0.137000
v 0.036500 -0.084918 -0.143000
v 0.038500 -0.084918 -0.143000
v 0.055000 -0.051567 -0.181760
v 0.055000 -0.044278 -0.184779
v 0.051029 -0.051051 -0.189631
v 0.050991 -0.050632 -0.189831
v 0.054028 -0.045410 -0.188429
v 0.054559 -0.044745 -0.187378
v 0.051075 -0.049995 -0.190037
v 0.051271 -0.049419 -0.190135
v 0.051531 -0.052112 -0.188819
v 0.051266 -0.051710 -0.189190
v 0.054893 -0.052472 -0.182756
v 0.051890 -0.052501 -0.188352
v 0.054740 -0.052840 -0.183378
v 0.054560 -0.053074 -0.183926
v 0.053940 -0.053362 -0.185312
v 0.053360 -0.053321 -0.186312
v 0.052730 -0.053087 -0.187244
v 0.051755 -0.048497 -0.190130
v 0.052340 -0.047615 -0.189941
v 0.052673 -0.047279 -0.189704
v 0.053734 -0.045780 -0.188832
v 0.053365 -0.046251 -0.189234
v 0.054893 -0.044344 -0.186126
v 0.054971 -0.044268 -0.185492
v 0.055000 -0.015722 -0.184779
v 0.055000 -0.008433 -0.181760
v 0.051029 -0.009791 -0.189980
v 0.050991 -0.009354 -0.189825
v 0.052673 -0.007072 -0.187364
v 0.052340 -0.007142 -0.187769
v 0.053365 -0.006678 -0.186305
v 0.053734 -0.006629 -0.185688
v 0.054028 -0.006652 -0.185141
v 0.051271 -0.008281 -0.189182
v 0.051755 -0.007632 -0.188527
v 0.051075 -0.008757 -0.189520
v 0.051531 -0.011116 -0.190156
v 0.051266 -0.010569 -0.190133
v 0.054893 -0.015657 -0.186123
v 0.051890 -0.011720 -0.190101
v 0.054740 -0.015477 -0.186823
v 0.054560 -0.015255 -0.187376
v 0.053940 -0.014479 -0.188560
v 0.053360 -0.013743 -0.189238
v 0.052730 -0.012919 -0.189731
v 0.054559 -0.006925 -0.183928
v 0.054971 -0.007922 -0.182256
v 0.054893 -0.007526 -0.182759
v 0.044000 -0.046996 -0.192308
v 0.044000 -0.049257 -0.191519
v 0.044000 -0.045433 -0.192790
v 0.044000 -0.039341 -0.194201
v 0.044000 -0.030000 -0.195000
v 0.044000 -0.033127 -0.194911
v 0.044000 -0.038604 -0.194323
v 0.044000 -0.013004 -0.192308
v 0.044000 -0.014567 -0.192790
v 0.044000 -0.020659 -0.194201
v 0.044000 -0.021396 -0.194323
v 0.044000 -0.026873 -0.194911
v 0.044000 -0.010743 -0.191519
v 0.034500 0.016733 -0.169000
v 0.044000 0.016733 -0.169000
v 0.044000 0.002328 -0.184496
v 0.044000 0.001303 -0.185223
v 0.044000 -0.005031 -0.189005
v 0.044000 -0.007187 -0.190046
v 0.044000 -0.003318 -0.188094
v 0.044000 0.005618 -0.181909
v 0.044000 0.008891 -0.178891
v 0.034500 -0.076726 -0.169012
v 0.044000 -0.076726 -0.169012
v 0.044000 -0.074397 -0.172464
v 0.044000 -0.068891 -0.178891
v 0.044000 -0.070602 -0.177101
v 0.044000 -0.054969 -0.189005
v 0.044000 -0.056534 -0.188176
v 0.044000 -0.061617 -0.185004
v 0.044000 -0.062328 -0.184496
v 0.044000 -0.066325 -0.181298
v 0.044000 -0.052813 -0.190046
v 0.034500 -0.052813 -0.190046
v 0.034500 -0.049257 -0.191519
v 0.034500 -0.010743 -0.191519
v 0.034500 -0.007187 -0.190046
v 0.034500 -0.079005 -0.164969
v 0.034500 -0.080813 -0.161048
v 0.034500 -0.082308 -0.156996
v 0.034500 -0.083480 -0.152839
v 0.034500 -0.084323 -0.148604
v 0.034500 -0.084830 -0.144315
v 0.034500 -0.085000 -0.140000
v 0.034500 -0.084830 -0.135685
v 0.048663 0.023103 -0.153634
v 0.047000 0.022308 -0.156996
v 0.048663 0.021184 -0.159648
v 0.047000 0.021347 -0.159710
v 0.047000 0.019005 -0.164969
v 0.048663 0.018586 -0.165400
v 0.047000 0.018741 -0.165481
v 0.048663 0.015345 -0.170816
v 0.047000 0.015489 -0.170915
v 0.048663 0.008767 -0.178767
v 0.047000 0.008891 -0.178891
v 0.047000 0.011635 -0.175938
v 0.050817 0.008205 -0.178205
v 0.048663 0.011502 -0.175824
v 0.047000 0.014496 -0.172328
v 0.052657 0.007234 -0.177234
v 0.050817 0.010901 -0.175305
v 0.054031 0.005933 -0.175933
v 0.052657 0.009861 -0.174407
v 0.054825 0.004410 -0.174410
v 0.054031 0.008468 -0.173205
v 0.055000 0.003234 -0.173234
v 0.054825 0.006838 -0.171798
v 0.055000 0.005579 -0.170711
v 0.054825 0.010248 -0.167353
v 0.055000 0.008873 -0.166418
v 0.054825 0.013126 -0.162546
v 0.055000 0.011652 -0.161775
v 0.054825 0.015431 -0.157439
v 0.055000 0.013878 -0.156843
v 0.054825 0.017134 -0.152102
v 0.054825 0.018213 -0.146604
v 0.054825 0.018653 -0.141019
v 0.054031 0.012030 -0.168564
v 0.054031 0.015034 -0.163543
v 0.054031 0.017442 -0.158211
v 0.054031 0.019221 -0.152638
v 0.054031 0.020347 -0.146897
v 0.054031 0.020806 -0.141064
v 0.052657 0.013551 -0.169598
v 0.052657 0.016665 -0.164396
v 0.052657 0.019159 -0.158871
v 0.052657 0.021003 -0.153095
v 0.052657 0.022170 -0.147146
v 0.052657 0.022645 -0.141103
v 0.050817 0.014688 -0.170370
v 0.050817 0.017882 -0.165032
v 0.050817 0.020442 -0.159363
v 0.050817 0.022333 -0.153437
v 0.050817 0.023531 -0.147333
v 0.055000 -0.074545 -0.154991
v 0.055000 -0.072527 -0.160012
v 0.055000 -0.076565 -0.133621
v 0.055000 -0.076990 -0.139016
v 0.055000 -0.076791 -0.144423
v 0.055000 0.000711 -0.175579
v 0.055000 -0.075973 -0.149772
v 0.055000 -0.069945 -0.164767
v 0.055000 -0.066834 -0.169194
v 0.055000 -0.063234 -0.173234
v 0.055000 -0.054767 -0.179945
v 0.055000 -0.059194 -0.176834
v 0.055000 -0.039772 -0.185973
v 0.055000 -0.034423 -0.186791
v 0.055000 -0.029016 -0.186990
v 0.055000 -0.023621 -0.186565
v 0.055000 -0.018312 -0.185523
v 0.055000 -0.003582 -0.178873
v 0.044000 0.014529 -0.172282
v 0.044000 0.011634 -0.175939
v 0.047000 -0.079005 -0.164969
v 0.047000 0.005938 -0.181635
v 0.047000 0.002328 -0.184496
v 0.047000 0.000915 -0.185489
v 0.047000 -0.004519 -0.188741
v 0.047000 -0.005031 -0.189005
v 0.047000 -0.046996 -0.192308
v 0.047000 -0.041435 -0.193798
v 0.047000 -0.038604 -0.194323
v 0.047000 -0.035176 -0.194756
v 0.047000 -0.030000 -0.195000
v 0.047000 -0.028848 -0.194988
v 0.047000 -0.022536 -0.194491
v 0.047000 -0.021396 -0.194323
v 0.047000 -0.016322 -0.193272
v 0.047000 -0.013004 -0.192308
v 0.047000 -0.010290 -0.191347
v 0.047000 -0.064163 -0.183103
v 0.047000 -0.062328 -0.184496
v 0.047000 -0.058983 -0.186744
v 0.047000 -0.054969 -0.189005
v 0.047000 -0.053418 -0.189765
v 0.047000 -0.047543 -0.192127
v 0.047000 -0.068891 -0.178891
v 0.047000 -0.073103 -0.174163
v 0.047000 -0.076744 -0.168983
v 0.047000 -0.074496 -0.172328
v 0.047000 -0.084491 -0.132536
v 0.047000 -0.084988 -0.138848
v 0.047000 -0.079765 -0.163418
v 0.047000 -0.082127 -0.157543
v 0.047000 -0.082308 -0.156996
v 0.047000 -0.083798 -0.151435
v 0.047000 -0.084323 -0.148604
v 0.047000 -0.084756 -0.145176
v 0.047000 -0.085000 -0.140000
v 0.054825 -0.040118 -0.187600
v 0.054031 -0.040566 -0.189707
v 0.052657 -0.046795 -0.189907
v 0.050817 -0.053005 -0.188888
v 0.054825 -0.055643 -0.181359
v 0.054825 -0.075431 -0.122561
v 0.054825 -0.077134 -0.127898
v 0.054825 -0.078213 -0.133396
v 0.054825 -0.078653 -0.138981
v 0.054825 -0.078447 -0.144580
v 0.054825 -0.077600 -0.150118
v 0.054825 -0.076122 -0.155522
v 0.054825 -0.074032 -0.160720
v 0.054825 -0.071359 -0.165643
v 0.054825 -0.068137 -0.170227
v 0.054825 -0.064410 -0.174410
v 0.054825 -0.060227 -0.178137
v 0.054031 -0.056778 -0.183189
v 0.050817 -0.058472 -0.185920
v 0.050817 -0.047234 -0.191208
v 0.054825 -0.017898 -0.187134
v 0.054825 -0.034580 -0.188447
v 0.054825 -0.028981 -0.188653
v 0.054825 -0.023396 -0.188213
v 0.054031 -0.017362 -0.189221
v 0.052657 -0.016905 -0.191003
v 0.050817 -0.016563 -0.192333
v 0.050817 -0.010637 -0.190442
v 0.052657 -0.005604 -0.186665
v 0.050817 -0.004968 -0.187882
v 0.054031 -0.006457 -0.185034
v 0.054825 -0.002647 -0.180248
v 0.054825 0.001798 -0.176838
v 0.054031 0.003205 -0.178468
v 0.052657 0.004407 -0.179861
v 0.050817 0.005305 -0.180901
v 0.048663 0.005824 -0.181502
v 0.048663 0.000816 -0.185345
v 0.048663 -0.004600 -0.188586
v 0.048663 -0.010352 -0.191184
v 0.048663 -0.028852 -0.194813
v 0.048663 -0.022559 -0.194318
v 0.048663 -0.016366 -0.193103
v 0.048663 -0.035160 -0.194582
v 0.048663 -0.041399 -0.193627
v 0.048663 -0.047487 -0.191962
v 0.048663 -0.053343 -0.189607
v 0.048663 -0.072966 -0.174055
v 0.048663 -0.068767 -0.178767
v 0.048663 -0.064055 -0.182966
v 0.048663 -0.058890 -0.186596
v 0.048663 -0.076596 -0.168890
v 0.048663 -0.079607 -0.163343
v 0.048663 -0.081962 -0.157487
v 0.048663 -0.083627 -0.151399
v 0.048663 -0.084318 -0.132559
v 0.048663 -0.084813 -0.138852
v 0.048663 -0.084582 -0.145160
v 0.048663 -0.083103 -0.126366
v 0.054031 -0.034782 -0.190592
v 0.054031 -0.028936 -0.190806
v 0.054031 -0.023103 -0.190347
v 0.054031 -0.077442 -0.121789
v 0.054031 -0.079221 -0.127362
v 0.054031 -0.080347 -0.133103
v 0.054031 -0.080806 -0.138936
v 0.054031 -0.080592 -0.144782
v 0.054031 -0.079707 -0.150566
v 0.054031 -0.078163 -0.156209
v 0.054031 -0.075981 -0.161637
v 0.054031 -0.073189 -0.166778
v 0.054031 -0.069825 -0.171565
v 0.054031 -0.065933 -0.175933
v 0.054031 -0.061565 -0.179825
v 0.052657 -0.040948 -0.191506
v 0.052657 -0.034955 -0.192423
v 0.052657 -0.028897 -0.192645
v 0.052657 -0.022854 -0.192170
v 0.052657 -0.079159 -0.121129
v 0.052657 -0.081003 -0.126905
v 0.052657 -0.082170 -0.132854
v 0.052657 -0.082645 -0.138897
v 0.052657 -0.082423 -0.144955
v 0.052657 -0.081506 -0.150948
v 0.052657 -0.079907 -0.156795
v 0.052657 -0.077645 -0.162420
v 0.052657 -0.074753 -0.167748
v 0.052657 -0.071267 -0.172708
v 0.052657 -0.067234 -0.177234
v 0.052657 -0.062708 -0.181267
v 0.052657 -0.057748 -0.184753
v 0.054031 -0.001436 -0.182030
v 0.052657 -0.000402 -0.183551
v 0.050817 0.000370 -0.184688
v 0.050817 -0.041234 -0.192850
v 0.050817 -0.035085 -0.193791
v 0.050817 -0.028868 -0.194019
v 0.050817 -0.022667 -0.193531
v 0.050817 -0.082333 -0.126563
v 0.050817 -0.083531 -0.132667
v 0.050817 -0.084019 -0.138868
v 0.050817 -0.083791 -0.145085
v 0.050817 -0.082850 -0.151234
v 0.050817 -0.081208 -0.157234
v 0.050817 -0.078888 -0.163005
v 0.050817 -0.075920 -0.168472
v 0.050817 -0.072343 -0.173561
v 0.050817 -0.068205 -0.178205
v 0.050817 -0.063561 -0.182343
v 0.000496 0.056647 -0.072610
v 0.000496 0.059223 -0.057604
v 0.000496 0.060037 -0.047585
v 0.000512 -0.056952 0.025668
v 0.002490 0.056462 0.026130
v 0.002542 0.057636 0.024425
v 0.006698 0.057683 0.022770
v 0.009622 0.056884 0.024425
v 0.009685 0.057257 0.022770
v 0.013648 0.056444 0.022770
v 0.016556 0.055266 0.024425
v 0.016664 0.055628 0.022770
v 0.020396 0.054371 0.022770
v 0.023238 0.052806 0.024425
v 0.023390 0.053152 0.022770
v 0.026842 0.051495 0.022770
v 0.029565 0.049542 0.024425
v 0.029759 0.049866 0.022770
v 0.032893 0.047858 0.022770
v 0.035443 0.045523 0.024425
v 0.035675 0.045821 0.022770
v 0.038457 0.043513 0.022770
v 0.040781 0.040811 0.024425
v 0.041048 0.041078 0.022770
v 0.045497 0.035477 0.024425
v 0.045795 0.035709 0.022770
v 0.043452 0.038526 0.022770
v 0.049521 0.029603 0.024425
v 0.052791 0.023278 0.024425
v 0.053137 0.023430 0.022770
v 0.051454 0.026925 0.022770
v 0.049846 0.029797 0.022770
v 0.047806 0.032969 0.022770
v 0.057253 0.009729 0.022770
v 0.056425 0.013739 0.022770
v 0.055256 0.016598 0.024425
v 0.055619 0.016707 0.022770
v 0.054341 0.020484 0.022770
v 0.056880 0.009666 0.024425
v 0.057638 0.002586 0.024425
v 0.057676 0.006792 0.022770
v 0.057696 -0.000004 0.024425
v 0.058075 -0.000004 0.022770
v 0.009426 0.055725 0.026130
v 0.016219 0.054140 0.026130
v 0.022764 0.051730 0.026130
v 0.028963 0.048532 0.026130
v 0.034721 0.044595 0.026130
v 0.039950 0.039979 0.026130
v 0.044570 0.034754 0.026130
v 0.048512 0.028999 0.026130
v 0.051715 0.022803 0.026130
v 0.054130 0.016260 0.026130
v 0.055721 0.009469 0.026130
v 0.056464 0.002533 0.026130
v 0.056521 -0.000004 0.026130
v 0.001993 0.047995 0.033500
v 0.009939 0.047283 0.033500
v 0.018504 0.044956 0.033500
v 0.026494 0.041093 0.033500
v 0.033637 0.035824 0.033500
v 0.039687 0.029330 0.033500
v 0.044439 0.021833 0.033500
v 0.047728 0.013590 0.033500
v 0.049444 0.004882 0.033500
v 0.049527 -0.003993 0.033500
v 0.047975 -0.012732 0.033500
v 0.044841 -0.021035 0.033500
v 0.040231 -0.028620 0.033500
v 0.034303 -0.035226 0.033500
v 0.027261 -0.040628 0.033500
v 0.019344 -0.044641 0.033500
v 0.010824 -0.047127 0.033500
v 0.001992 -0.048003 0.033500
v 0.029742 0.050856 -0.059870
v 0.032383 0.049560 -0.057796
v 0.033595 0.048813 -0.057354
v 0.031048 0.050289 -0.058559
v 0.038074 0.045348 -0.057713
v 0.036987 0.046316 -0.057228
v 0.036771 0.046496 -0.057176
v 0.034649 0.048104 -0.057130
v 0.034163 0.048438 -0.057215
v 0.008300 0.057644 -0.063415
v 0.009915 0.057649 -0.062278
v 0.011021 0.057116 -0.063470
v 0.014457 0.056666 -0.062170
v 0.018882 0.055274 -0.062312
v 0.059364 0.009211 -0.046950
v 0.059912 0.004273 -0.047166
v 0.060001 0.002656 -0.047253
v 0.028389 0.051630 -0.059832
v 0.027548 0.052086 -0.059818
v 0.027804 0.051949 -0.059821
v 0.021560 0.054820 -0.059917
v 0.014140 0.057094 -0.060494
v 0.014304 0.057056 -0.060476
v 0.018862 0.055781 -0.060070
v 0.021219 0.054950 -0.059933
v 0.009692 0.057911 -0.061132
v 0.007669 0.057956 -0.062533
v 0.008118 0.058099 -0.061456
v 0.005544 0.058113 -0.063041
v 0.005191 0.058280 -0.062354
v 0.004391 0.058282 -0.062720
v 0.010098 -0.065432 0.011912
v 0.011483 -0.068546 0.002375
v 0.013579 -0.068288 0.002466
v 0.010583 -0.066465 0.009678
v 0.008915 -0.066910 0.006876
v 0.010967 -0.067343 0.007322
v 0.009295 -0.068009 0.002151
v 0.011913 -0.065121 0.012265
v 0.011878 -0.065058 0.012386
v 0.009489 -0.064253 0.014022
v 0.011349 -0.064149 0.014022
v 0.013489 -0.068125 0.003430
v 0.013053 -0.067280 0.006912
v 0.012954 -0.067086 0.007532
v 0.012492 -0.066190 0.009957
v 0.012120 -0.065495 0.011511
v 0.028004 -0.050506 0.024301
v 0.019607 -0.054349 0.024228
v 0.027601 -0.060476 0.011543
v 0.027576 -0.061751 0.008998
v 0.029357 -0.061038 0.008752
v 0.027635 -0.058804 0.014154
v 0.027603 -0.060354 0.011758
v 0.029382 -0.058281 0.013654
v 0.029365 -0.059778 0.011282
v 0.031063 -0.057610 0.012944
v 0.031061 -0.058989 0.010682
v 0.032632 -0.056748 0.012101
v 0.032640 -0.057993 0.009966
v 0.034055 -0.056809 0.009149
v 0.034107 -0.058486 0.004810
v 0.032677 -0.059890 0.005311
v 0.027505 -0.063379 0.004190
v 0.029310 -0.062784 0.003348
v 0.031058 -0.061778 0.003114
v 0.031072 -0.061083 0.005747
v 0.029343 -0.062040 0.006107
v 0.027544 -0.062752 0.006387
v 0.027693 -0.056937 0.016470
v 0.029422 -0.056584 0.015821
v 0.031091 -0.056052 0.015012
v 0.031069 -0.060153 0.008270
v 0.032660 -0.059046 0.007691
v 0.034081 -0.057739 0.007027
v 0.024474 -0.062927 0.008919
v 0.020069 -0.064413 0.008941
v 0.020412 -0.065275 0.006205
v 0.023913 -0.060311 0.014095
v 0.024236 -0.061737 0.011573
v 0.024682 -0.064544 0.003370
v 0.016695 -0.067177 0.003277
v 0.016234 -0.066614 0.006104
v 0.015689 -0.065783 0.008876
v 0.019646 -0.063299 0.011585
v 0.014375 -0.063347 0.014088
v 0.019146 -0.061949 0.014099
v 0.020670 -0.065879 0.003416
v 0.059489 -0.009698 -0.004421
v 0.060123 -0.004260 -0.004267
v 0.060077 -0.004867 -0.004421
v 0.060274 -0.000004 -0.004421
v 0.060273 -0.000004 -0.004267
v 0.045639 0.039283 -0.043797
v 0.040479 0.044581 -0.043797
v 0.039941 0.045136 -0.041249
v 0.056730 0.020197 -0.043797
v 0.053826 0.026999 -0.043797
v 0.053360 0.028026 -0.041249
v 0.007373 0.059763 -0.043797
v 0.060274 -0.000004 -0.041249
v 0.060220 -0.000004 -0.043797
v 0.059834 0.007266 -0.041249
v 0.059940 0.005788 -0.043797
v 0.059357 0.010470 -0.041249
v 0.058779 0.013091 -0.043797
v 0.056351 0.021384 -0.041249
v 0.056634 0.020625 -0.041249
v 0.058520 0.014431 -0.041249
v 0.045094 0.039989 -0.041249
v 0.046153 0.038763 -0.041249
v 0.050110 0.033393 -0.043797
v 0.049589 0.034257 -0.041249
v 0.052187 0.030153 -0.041249
v 0.028415 0.053090 -0.043797
v 0.030097 0.052218 -0.041249
v 0.034709 0.049207 -0.043797
v 0.034204 0.049625 -0.041249
v 0.038714 0.046193 -0.041249
v 0.014643 0.058408 -0.043797
v 0.020564 0.056653 -0.041249
v 0.021693 0.056173 -0.043797
v 0.021323 0.056372 -0.041249
v 0.027968 0.053388 -0.041249
v 0.007201 0.059838 -0.041249
v 0.010405 0.059365 -0.041249
v 0.014367 0.058532 -0.041249
v 0.007196 0.058330 -0.060789
v 0.007306 0.059224 -0.053206
v 0.014511 0.057882 -0.053206
v 0.021497 0.055667 -0.053206
v 0.028159 0.052612 -0.053206
v 0.034396 0.048764 -0.053206
v 0.040114 0.044180 -0.053206
v 0.060198 -0.001603 -0.043797
v 0.045228 0.038929 -0.053206
v 0.060044 0.005253 -0.004421
v 0.059357 0.010470 -0.004421
v 0.058217 0.015607 -0.004421
v 0.056633 0.020625 -0.004421
v 0.054618 0.025486 -0.004421
v 0.052187 0.030153 -0.004421
v 0.049358 0.034590 -0.004421
v 0.046152 0.038763 -0.004421
v 0.042595 0.042640 -0.004421
v 0.038714 0.046193 -0.004421
v 0.034537 0.049394 -0.004421
v 0.030097 0.052218 -0.004421
v 0.025427 0.054644 -0.004421
v 0.020564 0.056653 -0.004421
v 0.015544 0.058231 -0.004421
v 0.010405 0.059365 -0.004421
v 0.005188 0.060046 -0.004421
v 0.059971 -0.000004 0.004088
v 0.059821 -0.004239 0.004088
v 0.058619 -0.007428 0.012400
v 0.058984 -0.010843 0.004088
v 0.057419 -0.017313 0.004088
v 0.057286 -0.014485 0.012400
v 0.006815 0.058689 0.012400
v 0.013886 0.057429 0.012400
v 0.020752 0.055320 0.012400
v 0.033466 0.048693 0.012400
v 0.027311 0.052393 0.012400
v 0.039127 0.044272 0.012400
v 0.044210 0.039198 0.012400
v 0.048640 0.033544 0.012400
v 0.052351 0.027395 0.012400
v 0.055289 0.020841 0.012400
v 0.057409 0.013979 0.012400
v 0.058682 0.006910 0.012400
v 0.047518 -0.033391 0.022770
v 0.049849 -0.029799 0.022770
v 0.051218 -0.027379 0.022770
v 0.053139 -0.023433 0.022770
v 0.054161 -0.020963 0.022770
v 0.055620 -0.016711 0.022770
v 0.056304 -0.014237 0.022770
v 0.057254 -0.009735 0.022770
v 0.058074 -0.000256 0.022770
v 0.057615 -0.007300 0.022770
v 0.002623 0.059910 0.004088
v 0.060213 0.002702 -0.004267
v 0.002637 0.060212 -0.004267
v 0.009985 0.059130 0.004088
v 0.017194 0.057450 0.004088
v 0.024141 0.054894 0.004088
v 0.030720 0.051501 0.004088
v 0.036831 0.047324 0.004088
v 0.042381 0.042426 0.004088
v 0.047286 0.036882 0.004088
v 0.051470 0.030775 0.004088
v 0.054870 0.024200 0.004088
v 0.057434 0.017256 0.004088
v 0.059911 0.002689 0.004088
v 0.059123 0.010049 0.004088
v 0.059420 0.010099 -0.004267
v 0.057723 0.017343 -0.004267
v 0.055146 0.024322 -0.004267
v 0.051729 0.030931 -0.004267
v 0.047524 0.037068 -0.004267
v 0.042595 0.042640 -0.004267
v 0.037017 0.047563 -0.004267
v 0.030875 0.051761 -0.004267
v 0.024262 0.055170 -0.004267
v 0.017280 0.057739 -0.004267
v 0.010035 0.059428 -0.004267
v 0.060123 -0.004260 -0.041249
v 0.057638 -0.002593 0.024425
v 0.056881 -0.009672 0.024425
v 0.055257 -0.016603 0.024425
v 0.052793 -0.023281 0.024425
v 0.049524 -0.029605 0.024425
v 0.045502 -0.035478 0.024425
v 0.040788 -0.040812 0.024425
v 0.035452 -0.045524 0.024425
v 0.029577 -0.049543 0.024425
v 0.002509 -0.056469 0.026130
v 0.003227 -0.057298 0.025047
v 0.009443 -0.055730 0.026130
v 0.016234 -0.054143 0.026130
v 0.022777 -0.051732 0.026130
v 0.028974 -0.048534 0.026130
v 0.034729 -0.044596 0.026130
v 0.039956 -0.039980 0.026130
v 0.044575 -0.034755 0.026130
v 0.048515 -0.029002 0.026130
v 0.051717 -0.022807 0.026130
v 0.054131 -0.016264 0.026130
v 0.055722 -0.009475 0.026130
v 0.056464 -0.002541 0.026130
v -0.014000 0.016830 -0.166888
v -0.014000 0.010499 -0.175719
v -0.014000 0.002527 -0.183104
v -0.014000 -0.006761 -0.188744
v -0.014000 -0.016990 -0.192409
v -0.014000 -0.027746 -0.193953
v -0.014000 -0.038593 -0.193312
v -0.014000 -0.049093 -0.190512
v -0.014000 -0.058819 -0.185667
v -0.014000 -0.067378 -0.178972
v -0.014000 -0.074424 -0.170700
v -0.014000 -0.079671 -0.161184
v -0.014000 -0.082907 -0.150811
v -0.014000 -0.084000 -0.140000
v -0.014000 -0.082978 -0.129449
v -0.000530 0.047945 0.033500
v -0.000519 -0.047953 0.033500
v -0.046308 -0.000004 0.033500
v -0.045439 0.009088 0.033500
v -0.042864 0.017850 0.033500
v -0.038676 0.025966 0.033500
v -0.033026 0.033142 0.033500
v -0.026119 0.039118 0.033500
v -0.018206 0.043678 0.033500
v -0.009572 0.046656 0.033500
v -0.000290 0.056779 -0.072714
v -0.000513 0.059006 -0.059964
v -0.000508 0.060345 -0.043020
v -0.000506 0.060367 -0.042500
v -0.000522 0.059762 -0.053170
v -0.000522 0.059909 -0.051229
v -0.000512 0.057714 0.024599
v -0.000513 0.058169 0.022770
v -0.000511 0.056616 0.026129
v -0.000513 0.060071 0.004017
v -0.000513 0.060368 -0.004421
v -0.000498 -0.056622 0.026131
v -0.000499 -0.057721 0.024602
v -0.036972 0.045885 -0.064537
v -0.037041 0.045727 -0.065573
v -0.037210 0.045538 -0.066053
v -0.037608 0.045133 -0.066698
v -0.038034 0.044715 -0.067142
v -0.039060 0.043711 -0.067772
v -0.040198 0.042574 -0.068037
v -0.041423 0.041318 -0.067894
v -0.043183 0.039508 -0.066631
v -0.043856 0.038899 -0.065308
v -0.044020 0.038815 -0.064548
v -0.042323 0.040384 -0.067457
v -0.037011 0.045877 -0.064297
v -0.037485 0.045595 -0.063148
v -0.038397 0.044916 -0.062129
v -0.042408 0.041118 -0.061262
v -0.040848 0.042754 -0.061062
v -0.043556 0.039705 -0.062223
v -0.044000 0.039011 -0.063399
v -0.039600 0.043910 -0.061397
v -0.034746 0.028672 -0.130272
v -0.035126 0.028038 -0.130724
v -0.034928 0.029831 -0.127668
v -0.034524 0.029613 -0.128893
v -0.034577 0.029055 -0.129870
v -0.039301 0.023539 -0.129833
v -0.038464 0.024259 -0.130514
v -0.037375 0.025329 -0.131031
v -0.036707 0.026049 -0.131161
v -0.035612 0.027363 -0.131013
v -0.040099 0.022988 -0.128856
v -0.040720 0.022770 -0.127649
v -0.039570 0.026240 -0.124148
v -0.038405 0.027606 -0.124406
v -0.037782 0.028205 -0.124715
v -0.035702 0.029626 -0.126499
v -0.037163 0.028722 -0.125121
v -0.041028 0.022992 -0.126414
v -0.041048 0.023290 -0.125806
v -0.040906 0.023883 -0.125084
v -0.040783 0.024199 -0.124824
v -0.040365 0.025033 -0.124373
v -0.039987 0.025646 -0.124204
v -0.028557 0.047923 -0.093094
v -0.023959 0.050384 -0.092708
v -0.025105 0.047764 -0.099750
v -0.030935 0.034072 -0.126249
v -0.030817 0.030709 -0.133382
v -0.035121 0.027743 -0.131282
v -0.034914 0.025160 -0.136205
v -0.022407 0.034706 -0.137941
v -0.022432 0.031922 -0.143403
v -0.026392 0.030295 -0.140905
v -0.022457 0.030760 -0.145258
v -0.026356 0.029031 -0.143020
v -0.022534 0.028942 -0.147438
v -0.026325 0.027876 -0.144628
v -0.026298 0.026806 -0.145756
v -0.022402 0.035396 -0.136433
v -0.026474 0.033244 -0.135067
v -0.022397 0.035966 -0.135152
v -0.026510 0.036709 -0.127341
v -0.022339 0.038913 -0.128160
v -0.022239 0.041014 -0.122884
v -0.026377 0.040452 -0.118409
v -0.022077 0.043041 -0.117631
v -0.021857 0.044887 -0.112732
v -0.025950 0.044220 -0.108977
v -0.021621 0.046348 -0.108792
v -0.021089 0.048675 -0.102407
v -0.020750 0.049774 -0.099351
v -0.019663 0.052246 -0.092394
v -0.020505 0.050447 -0.097470
v -0.037384 0.041048 -0.093772
v -0.037256 0.041176 -0.093767
v -0.035082 0.041194 -0.100380
v -0.034978 0.043282 -0.093647
v -0.034586 0.043617 -0.093621
v -0.039594 0.026505 -0.123568
v -0.039632 0.026929 -0.122637
v -0.037487 0.029024 -0.123780
v -0.029050 0.047621 -0.093139
v -0.029968 0.045014 -0.100137
v -0.030625 0.041483 -0.109033
v -0.030909 0.037749 -0.117935
v -0.030669 0.027905 -0.138759
v -0.030546 0.025674 -0.142200
v -0.030496 0.024709 -0.143251
v -0.037669 0.032314 -0.116449
v -0.040055 0.033104 -0.107977
v -0.037740 0.035652 -0.108487
v -0.040111 0.034603 -0.104027
v -0.037640 0.038781 -0.100357
v -0.040136 0.035981 -0.100182
v -0.035320 0.030893 -0.124747
v -0.035433 0.034358 -0.117083
v -0.035380 0.037879 -0.108793
v -0.040102 0.038058 -0.093793
v -0.039112 0.021894 -0.133055
v -0.037020 0.023602 -0.134716
v -0.038930 0.020489 -0.135488
v -0.036819 0.021731 -0.137749
v -0.038859 0.019974 -0.136237
v -0.036730 0.020946 -0.138694
v -0.038713 0.018961 -0.137341
v -0.034738 0.023155 -0.139371
v -0.034663 0.022306 -0.140350
v -0.005612 -0.056346 0.026130
v -0.005772 0.057884 0.022770
v -0.005742 0.057507 0.024425
v -0.013441 0.056597 0.022770
v -0.013361 0.056228 0.024425
v -0.020871 0.054299 0.022770
v -0.020741 0.053944 0.024425
v -0.027927 0.051030 0.022770
v -0.027751 0.050696 0.024425
v -0.034484 0.046850 0.022770
v -0.034264 0.046542 0.024425
v -0.040426 0.041832 0.022770
v -0.040166 0.041557 0.024425
v -0.045645 0.036066 0.022770
v -0.045350 0.035829 0.024425
v -0.050048 0.029656 0.022770
v -0.049724 0.029461 0.024425
v -0.053557 0.022716 0.022770
v -0.053209 0.022566 0.024425
v -0.056109 0.015370 0.022770
v -0.055744 0.015268 0.024425
v -0.057658 0.007749 0.022770
v -0.057283 0.007697 0.024425
v -0.058177 -0.000011 0.022770
v -0.057798 -0.000011 0.024425
v -0.057656 -0.007770 0.022770
v -0.057281 -0.007719 0.024425
v -0.056105 -0.015391 0.022770
v -0.055740 -0.015289 0.024425
v -0.053551 -0.022736 0.022770
v -0.053204 -0.022586 0.024425
v -0.050041 -0.029676 0.022770
v -0.049717 -0.029480 0.024425
v -0.045636 -0.036085 0.022770
v -0.045342 -0.035847 0.024425
v -0.040416 -0.041849 0.022770
v -0.040156 -0.041574 0.024425
v -0.034473 -0.046866 0.022770
v -0.034253 -0.046558 0.024425
v -0.027915 -0.051045 0.022770
v -0.027739 -0.050710 0.024425
v -0.020858 -0.054312 0.022770
v -0.020728 -0.053956 0.024425
v -0.013428 -0.056608 0.022770
v -0.013348 -0.056239 0.024425
v -0.005728 -0.057516 0.024425
v -0.013076 -0.055095 0.026130
v -0.020307 -0.052859 0.026130
v -0.027174 -0.049679 0.026130
v -0.033557 -0.045611 0.026130
v -0.039339 -0.040728 0.026130
v -0.044419 -0.035118 0.026130
v -0.048706 -0.028881 0.026130
v -0.052122 -0.022127 0.026130
v -0.054607 -0.014978 0.026130
v -0.056116 -0.007562 0.026130
v -0.056623 -0.000011 0.026130
v -0.056118 0.007541 0.026130
v -0.054610 0.014957 0.026130
v -0.052127 0.022107 0.026130
v -0.048712 0.028861 0.026130
v -0.044428 0.035100 0.026130
v -0.039349 0.040711 0.026130
v -0.033567 0.045595 0.026130
v -0.027186 0.049664 0.026130
v -0.020319 0.052846 0.026130
v -0.013089 0.055084 0.026130
v -0.005625 0.056337 0.026130
v -0.019185 0.052270 -0.092497
v -0.020104 0.050493 -0.097540
v -0.020704 0.048677 -0.102613
v -0.021458 0.044964 -0.112780
v -0.021841 0.041112 -0.122930
v -0.022008 0.034833 -0.137999
v -0.021988 0.037035 -0.133009
v -0.022347 0.029005 -0.147519
v -0.022048 0.030921 -0.145306
v -0.022025 0.032372 -0.142918
v -0.021798 0.030924 -0.145311
v -0.012931 0.056792 -0.078343
v -0.017133 0.054856 -0.085029
v -0.017354 0.054979 -0.084432
v -0.017132 0.055146 -0.083916
v -0.015391 0.055970 -0.081500
v -0.015954 0.055870 -0.081583
v -0.015768 0.055962 -0.081267
v -0.012956 0.056801 -0.078320
v -0.014260 0.056548 -0.079104
v -0.013285 0.056806 -0.078002
v -0.018369 0.053599 -0.088721
v -0.018564 0.053822 -0.087876
v -0.003526 0.057182 -0.073268
v -0.007020 0.057351 -0.074249
v -0.012924 0.056883 -0.077640
v -0.010908 0.057179 -0.075986
v -0.006932 0.057293 -0.074471
v -0.010169 0.057199 -0.076053
v -0.027034 0.051522 -0.074899
v -0.040151 0.042544 -0.068652
v -0.036000 0.046285 -0.068446
v -0.036441 0.046542 -0.062073
v -0.035944 0.045527 -0.075774
v -0.035895 0.045996 -0.071980
v -0.031703 0.048709 -0.075392
v -0.031457 0.049230 -0.071623
v -0.026613 0.052035 -0.071127
v -0.039927 0.042302 -0.072224
v -0.039802 0.041902 -0.076036
v -0.031458 0.049539 -0.068144
v -0.031757 0.049855 -0.061908
v -0.005116 0.059615 -0.051265
v -0.041839 0.042788 -0.051059
v -0.037414 0.046667 -0.051495
v -0.004856 0.059271 -0.055714
v -0.042523 0.031382 -0.103498
v -0.048711 0.010361 -0.120224
v -0.049881 0.007103 -0.117793
v -0.050000 -0.000835 -0.117312
v -0.049676 0.002581 -0.120059
v -0.050892 0.028697 -0.062284
v -0.049976 0.028644 -0.068814
v -0.052319 0.023334 -0.068761
v -0.053306 0.023348 -0.062260
v -0.056589 0.012036 -0.062168
v -0.041796 0.024087 -0.122118
v -0.041417 0.020934 -0.129061
v -0.044592 0.038456 -0.062254
v -0.043876 0.038318 -0.068773
v -0.055194 -0.016850 -0.061959
v -0.054720 -0.022934 -0.051476
v -0.056693 -0.017383 -0.051480
v -0.053280 -0.022265 -0.061923
v -0.058125 -0.011659 -0.051484
v -0.058997 -0.005815 -0.051488
v -0.039886 0.040475 -0.084410
v -0.042971 0.036575 -0.084468
v -0.042785 0.034462 -0.093635
v -0.045748 0.032233 -0.084382
v -0.045254 0.030437 -0.093307
v -0.048185 0.027520 -0.084180
v -0.047465 0.026047 -0.092843
v -0.049375 0.021360 -0.092272
v -0.049028 0.028324 -0.076140
v -0.046362 0.033240 -0.076201
v -0.047982 0.033755 -0.062285
v -0.059293 0.000094 -0.051493
v -0.059000 0.006012 -0.051500
v -0.055211 0.017773 -0.062219
v -0.058131 0.011881 -0.051506
v -0.056702 0.017643 -0.051513
v -0.060373 0.000030 -0.042500
v -0.043280 0.037790 -0.076174
v -0.047157 0.033662 -0.068823
v -0.054732 0.023239 -0.051518
v -0.050668 0.003577 -0.115336
v -0.051011 -0.000226 -0.112885
v -0.048289 0.009261 -0.123721
v -0.046812 0.011968 -0.126315
v -0.046598 0.011430 -0.127449
v -0.045077 0.014424 -0.128819
v -0.044882 0.013774 -0.130000
v -0.043145 0.016649 -0.131202
v -0.042969 0.015887 -0.132430
v -0.042794 0.015222 -0.133161
v -0.048926 0.005671 -0.122806
v -0.047805 0.008458 -0.125521
v -0.046371 0.010963 -0.128172
v -0.044681 0.013209 -0.130728
v -0.047635 0.015271 -0.116778
v -0.047219 0.013363 -0.122598
v -0.045876 0.018462 -0.118691
v -0.045466 0.016119 -0.124884
v -0.043910 0.021403 -0.120482
v -0.043511 0.018639 -0.127048
v -0.048103 0.017457 -0.109339
v -0.046332 0.021165 -0.110789
v -0.044338 0.024605 -0.112119
v -0.042179 0.027746 -0.113295
v -0.049288 -0.012894 -0.105838
v -0.050276 -0.008554 -0.108114
v -0.049843 -0.008586 -0.110486
v -0.050428 -0.004468 -0.113069
v -0.050868 -0.004298 -0.110470
v -0.050568 -0.000574 -0.115712
v -0.050227 0.003010 -0.118389
v -0.049447 0.006281 -0.121069
v -0.048669 0.019595 -0.100948
v -0.046854 0.023828 -0.101925
v -0.044788 0.027773 -0.102786
v -0.054108 -0.026788 -0.042500
v -0.056338 -0.021709 -0.042500
v -0.058787 -0.013761 -0.042500
v -0.058093 -0.016447 -0.042500
v -0.060312 -0.002764 -0.042500
v -0.060120 -0.005552 -0.042500
v -0.059801 -0.008308 -0.042500
v -0.059357 -0.011046 -0.042500
v -0.048301 -0.036227 -0.042500
v -0.049914 -0.033970 -0.042500
v -0.051422 -0.031641 -0.042500
v -0.002593 0.060314 -0.042500
v -0.001900 0.060340 -0.042500
v -0.003286 0.060280 -0.042500
v -0.004670 0.060189 -0.042500
v -0.006052 0.060066 -0.004421
v -0.006052 0.060066 -0.042500
v -0.008805 0.059724 -0.042500
v -0.011539 0.059257 -0.004421
v -0.011539 0.059257 -0.042500
v -0.016929 0.057948 -0.004421
v -0.016929 0.057948 -0.042500
v -0.022177 0.056150 -0.004421
v -0.022177 0.056150 -0.042500
v -0.027237 0.053877 -0.004421
v -0.027237 0.053877 -0.042500
v -0.032067 0.051150 -0.004421
v -0.036627 0.047992 -0.042500
v -0.036627 0.047992 -0.004421
v -0.034383 0.049623 -0.042500
v -0.032067 0.051150 -0.042500
v -0.044782 0.040489 -0.004421
v -0.045701 0.039449 -0.042500
v -0.046595 0.038389 -0.042500
v -0.048310 0.036208 -0.004421
v -0.038793 0.046258 -0.042500
v -0.039846 0.045355 -0.042500
v -0.040877 0.044428 -0.004421
v -0.040877 0.044428 -0.042500
v -0.041887 0.043477 -0.042500
v -0.042875 0.042503 -0.042500
v -0.043840 0.041507 -0.042500
v -0.044782 0.040489 -0.042500
v -0.048310 0.036208 -0.042500
v -0.049922 0.033950 -0.042500
v -0.051429 0.031621 -0.004421
v -0.051429 0.031621 -0.042500
v -0.054115 0.026768 -0.004421
v -0.054115 0.026768 -0.042500
v -0.056344 0.021688 -0.004421
v -0.056344 0.021688 -0.042500
v -0.058097 0.016426 -0.004421
v -0.058097 0.016426 -0.042500
v -0.059359 0.011024 -0.004421
v -0.060374 -0.000409 -0.004421
v -0.060120 -0.005552 -0.004421
v -0.059359 0.011024 -0.042500
v -0.059803 0.008286 -0.042500
v -0.060121 0.005530 -0.004421
v -0.060121 0.005530 -0.042500
v -0.060374 0.000395 -0.004421
v -0.060375 -0.000004 -0.004421
v -0.059357 -0.011046 -0.004421
v -0.048301 -0.036227 -0.004421
v -0.051422 -0.031641 -0.004421
v -0.058093 -0.016447 -0.004421
v -0.056338 -0.021709 -0.004421
v -0.054108 -0.026788 -0.004421
v -0.044773 -0.040507 -0.004421
v -0.048064 -0.036049 0.004017
v -0.056061 -0.021603 0.004017
v -0.059824 -0.005525 0.004017
v -0.060078 -0.000004 0.004017
v -0.059065 -0.010992 0.004017
v -0.057807 -0.016366 0.004017
v -0.053842 -0.026657 0.004017
v -0.051169 -0.031486 0.004017
v -0.044553 -0.040308 0.004017
v -0.040665 -0.044226 0.004017
v -0.036435 -0.047772 0.004017
v -0.060077 -0.000407 0.004017
v -0.024240 0.052667 -0.078920
v -0.028178 0.050538 -0.079085
v -0.036180 0.044827 -0.079845
v -0.036537 0.043878 -0.084198
v -0.027108 0.050202 -0.086525
v -0.030547 0.047789 -0.088283
v -0.026124 0.051231 -0.083397
v -0.029463 0.049265 -0.083550
v -0.024515 0.052488 -0.079482
v -0.032277 0.047894 -0.079483
v -0.033730 0.045454 -0.088581
v -0.033018 0.046801 -0.083883
v -0.022741 0.052122 -0.087884
v -0.021144 0.053620 -0.083555
v -0.019056 0.054876 -0.079820
v -0.023504 0.052571 -0.083412
v -0.021423 0.053949 -0.079295
v -0.009562 -0.046666 0.033500
v -0.018198 -0.043689 0.033500
v -0.026114 -0.039130 0.033500
v -0.033022 -0.033154 0.033500
v -0.038673 -0.025978 0.033500
v -0.042863 -0.017861 0.033500
v -0.045439 -0.009097 0.033500
v -0.053849 0.026636 0.004017
v -0.044562 0.040289 0.004017
v -0.027103 0.053612 0.004017
v -0.011482 0.058965 0.004017
v -0.006022 0.059770 0.004017
v -0.016846 0.057663 0.004017
v -0.022068 0.055873 0.004017
v -0.031909 0.050899 0.004017
v -0.036447 0.047755 0.004017
v -0.040676 0.044209 0.004017
v -0.048072 0.036029 0.004017
v -0.051176 0.031466 0.004017
v -0.056066 0.021581 0.004017
v -0.057811 0.016345 0.004017
v -0.060077 0.000393 0.004017
v -0.059825 0.005503 0.004017
v -0.059067 0.010970 0.004017
f 57 623 64
f 543 210 475
f 475 541 543
f 625 87 86
f 63 64 623
f 622 63 623
f 62 63 622
f 93 94 630
f 629 91 92
f 93 630 92
f 92 630 629
f 92 199 93
f 629 941 628
f 192 77 628
f 313 643 398
f 540 541 476
f 198 92 91
f 199 92 198
f 200 94 93
f 93 199 200
f 453 283 449
f 58 623 57
f 57 64 179
f 87 625 55
f 626 625 86
f 625 626 881
f 51 488 30
f 194 77 192
f 851 971 969
f 379 614 615
f 140 134 139
f 969 971 970
f 357 371 358
f 498 136 142
f 518 519 388
f 1011 908 913
f 743 619 620
f 620 762 743
f 620 621 760
f 892 630 952
f 629 630 892
f 75 628 77
f 77 194 75
f 133 134 126
f 132 139 133
f 133 139 134
f 130 129 136
f 136 129 135
f 135 134 140
f 135 142 136
f 485 484 136
f 565 567 596
f 543 567 565
f 542 543 541
f 541 567 542
f 542 567 543
f 540 476 479
f 477 541 475
f 477 476 541
f 475 210 477
f 96 2 97
f 94 200 201
f 468 262 474
f 474 464 468
f 450 262 302
f 283 453 302
f 302 453 452
f 476 477 151
f 215 272 216
f 214 272 215
f 287 270 286
f 270 269 286
f 613 381 612
f 460 453 449
f 443 601 602
f 602 609 603
f 445 601 443
f 608 609 383
f 603 609 457
f 457 602 603
f 266 558 282
f 449 283 282
f 282 448 449
f 283 267 282
f 282 267 266
f 612 601 600
f 600 613 612
f 266 560 559
f 559 558 266
f 209 267 210
f 266 267 209
f 210 543 209
f 543 544 209
f 561 560 266
f 178 58 57
f 57 179 178
f 177 58 178
f 64 63 180
f 180 179 64
f 624 55 625
f 623 58 624
f 624 58 177
f 909 908 1011
f 292 311 312
f 291 310 292
f 292 310 311
f 291 292 275
f 244 178 179
f 124 133 126
f 132 133 124
f 256 309 308
f 309 289 308
f 251 194 192
f 627 78 79
f 79 628 627
f 192 628 79
f 84 78 627
f 191 84 185
f 78 84 191
f 192 79 191
f 191 79 78
f 81 626 86
f 980 1066 1065
f 785 820 783
f 783 820 821
f 787 820 785
f 989 980 987
f 1066 980 989
f 774 1066 1058
f 1058 776 774
f 636 820 635
f 821 820 636
f 636 637 821
f 821 637 822
f 779 824 777
f 639 824 638
f 825 824 639
f 974 1063 1062
f 616 378 379
f 379 615 616
f 126 134 128
f 134 135 128
f 128 135 129
f 88 622 621
f 839 618 619
f 619 618 66
f 116 143 137
f 114 143 116
f 619 167 74
f 620 619 74
f 111 143 114
f 138 139 132
f 516 515 512
f 511 593 512
f 370 371 357
f 369 370 317
f 363 374 375
f 497 587 499
f 532 588 531
f 530 587 497
f 530 531 588
f 577 587 530
f 532 575 576
f 576 588 532
f 576 575 551
f 576 552 577
f 577 530 576
f 576 530 588
f 498 142 480
f 480 499 498
f 497 499 480
f 481 480 520
f 520 480 522
f 390 518 388
f 388 147 390
f 407 518 405
f 956 913 908
f 259 260 304
f 632 97 419
f 759 762 620
f 620 760 759
f 926 760 621
f 621 622 926
f 953 892 952
f 955 893 953
f 953 893 892
f 894 891 941
f 894 941 629
f 629 892 894
f 894 893 891
f 892 893 894
f 90 91 629
f 629 628 90
f 628 75 90
f 193 90 75
f 498 499 500
f 500 499 586
f 500 136 498
f 500 485 136
f 527 578 579
f 484 485 527
f 596 567 595
f 595 616 596
f 478 479 476
f 585 527 579
f 484 527 585
f 491 128 129
f 95 630 94
f 258 200 199
f 261 201 258
f 258 201 200
f 467 262 450
f 467 474 262
f 450 464 467
f 464 474 467
f 450 302 451
f 451 302 452
f 452 453 451
f 283 302 284
f 284 267 283
f 288 272 287
f 289 272 288
f 271 272 214
f 271 270 287
f 287 272 271
f 150 151 477
f 210 267 211
f 151 150 211
f 211 477 210
f 211 150 477
f 305 306 287
f 287 286 305
f 305 260 261
f 304 260 305
f 261 258 305
f 305 258 306
f 464 462 463
f 471 470 463
f 463 462 471
f 380 613 614
f 381 613 380
f 380 614 379
f 614 613 598
f 560 561 598
f 601 445 446
f 447 600 446
f 446 600 601
f 446 460 447
f 611 602 601
f 611 601 612
f 381 382 611
f 612 381 611
f 455 464 450
f 455 462 464
f 441 457 439
f 609 608 434
f 434 457 609
f 608 457 434
f 456 608 439
f 439 457 456
f 456 457 608
f 443 602 458
f 602 457 458
f 458 441 443
f 457 441 458
f 448 282 461
f 461 282 558
f 558 600 461
f 461 600 447
f 447 460 461
f 449 448 461
f 461 460 449
f 599 600 558
f 558 559 599
f 613 600 599
f 599 598 613
f 599 559 560
f 560 598 599
f 181 63 62
f 181 180 63
f 627 628 943
f 943 944 627
f 943 628 941
f 880 626 627
f 627 944 880
f 880 881 626
f 896 956 908
f 1009 909 1011
f 291 275 290
f 290 289 309
f 290 310 291
f 309 310 290
f 276 275 292
f 276 219 275
f 289 290 274
f 274 290 275
f 179 180 245
f 245 244 179
f 180 181 245
f 247 244 299
f 177 178 247
f 178 244 247
f 177 247 176
f 176 247 248
f 299 244 300
f 300 245 301
f 244 245 300
f 265 280 281
f 281 229 265
f 281 300 301
f 280 300 281
f 126 127 125
f 125 124 126
f 132 124 131
f 131 116 137
f 137 138 131
f 131 138 132
f 185 253 252
f 252 191 185
f 312 311 252
f 252 253 312
f 311 310 252
f 310 251 252
f 252 251 192
f 192 191 252
f 85 189 86
f 54 189 85
f 80 81 86
f 188 81 80
f 86 189 80
f 80 189 188
f 626 81 187
f 187 81 188
f 987 980 979
f 1008 1009 1005
f 908 909 917
f 1067 1058 986
f 776 1058 1067
f 1006 1032 1013
f 1007 1032 1006
f 1006 956 1007
f 1013 913 1006
f 913 956 1006
f 1023 1032 1007
f 1010 1071 1072
f 1010 1009 1011
f 1010 1005 1009
f 1010 1072 1073
f 1073 1005 1010
f 786 787 785
f 1072 1071 786
f 1032 1023 786
f 983 985 986
f 986 1058 983
f 983 989 992
f 1066 989 983
f 983 1058 1066
f 781 783 821
f 821 822 781
f 781 822 779
f 779 780 781
f 823 637 638
f 823 822 637
f 638 824 823
f 779 822 823
f 823 824 779
f 775 824 825
f 775 777 824
f 774 776 775
f 776 777 775
f 641 827 640
f 825 639 640
f 768 1062 1063
f 766 764 1060
f 1060 1062 766
f 766 768 767
f 1062 768 766
f 974 1062 972
f 1060 970 972
f 972 1062 1060
f 72 621 620
f 242 243 173
f 296 233 297
f 89 88 621
f 621 72 89
f 166 167 619
f 619 66 166
f 166 66 106
f 618 839 841
f 841 66 618
f 841 839 840
f 840 66 841
f 296 297 239
f 620 74 73
f 143 111 105
f 106 104 105
f 102 104 840
f 106 66 67
f 67 104 106
f 67 66 840
f 840 104 67
f 643 313 98
f 98 313 398
f 398 399 98
f 399 400 98
f 400 411 98
f 327 325 326
f 859 842 849
f 859 99 842
f 643 98 854
f 854 98 99
f 410 411 400
f 410 400 399
f 516 408 412
f 412 515 516
f 322 324 572
f 572 592 537
f 572 325 548
f 572 324 325
f 407 411 517
f 517 410 516
f 411 410 517
f 517 518 407
f 511 512 486
f 486 512 515
f 486 646 511
f 515 648 486
f 538 512 593
f 537 592 513
f 513 538 537
f 512 538 513
f 356 370 357
f 356 317 370
f 641 642 828
f 828 827 641
f 553 578 577
f 529 578 586
f 586 499 529
f 529 499 587
f 529 587 577
f 577 578 529
f 579 578 554
f 359 358 372
f 372 358 371
f 575 533 574
f 574 533 590
f 575 574 549
f 496 530 497
f 531 530 496
f 497 480 496
f 496 480 481
f 141 520 522
f 522 480 141
f 141 480 142
f 141 135 140
f 142 135 141
f 147 394 141
f 518 390 404
f 303 302 262
f 262 259 303
f 303 259 304
f 304 284 303
f 303 284 302
f 260 259 195
f 195 419 97
f 259 419 195
f 632 419 424
f 814 1054 815
f 815 795 814
f 816 795 815
f 816 815 1055
f 1055 815 1054
f 1053 1054 814
f 607 608 384
f 384 385 607
f 384 608 383
f 1016 961 1015
f 1027 1019 1028
f 1028 1019 1016
f 1028 794 1027
f 1028 1021 794
f 1016 1015 1028
f 1028 1015 1021
f 962 961 1016
f 952 630 962
f 631 962 630
f 961 962 631
f 631 97 632
f 630 95 631
f 1020 1015 631
f 631 96 97
f 631 95 96
f 954 959 895
f 954 893 955
f 895 893 954
f 955 1017 954
f 895 959 958
f 958 896 895
f 1014 1026 1025
f 1017 1026 1014
f 1014 954 1017
f 959 954 1014
f 1025 1023 1014
f 1014 1023 1007
f 1007 958 1014
f 1014 958 959
f 762 759 761
f 840 839 707
f 76 75 194
f 194 193 76
f 76 193 75
f 255 309 256
f 255 310 309
f 255 251 310
f 194 251 255
f 255 193 194
f 90 193 168
f 168 255 256
f 193 255 168
f 528 527 485
f 528 500 586
f 485 500 528
f 586 578 528
f 578 527 528
f 376 377 366
f 377 367 366
f 366 367 352
f 377 378 368
f 368 367 377
f 352 367 368
f 566 595 567
f 566 567 541
f 566 541 540
f 484 585 493
f 136 484 493
f 126 128 490
f 490 127 126
f 487 488 490
f 488 403 490
f 490 125 127
f 3 95 4
f 96 95 3
f 4 95 202
f 202 201 261
f 94 201 202
f 202 95 94
f 199 198 257
f 257 258 199
f 257 198 256
f 454 451 453
f 438 455 454
f 450 451 454
f 454 455 450
f 267 284 268
f 268 284 269
f 268 211 267
f 269 211 268
f 285 286 269
f 269 284 285
f 285 284 304
f 304 305 285
f 285 305 286
f 487 478 594
f 594 478 476
f 476 151 594
f 151 152 594
f 216 149 148
f 148 215 216
f 151 211 212
f 212 211 269
f 470 430 469
f 464 463 469
f 469 463 470
f 468 464 469
f 471 462 466
f 466 473 471
f 438 436 437
f 462 455 437
f 437 455 438
f 437 466 462
f 436 466 437
f 597 615 614
f 614 598 597
f 596 616 597
f 597 616 615
f 460 446 459
f 453 460 459
f 459 454 453
f 438 454 459
f 609 602 610
f 602 611 610
f 610 611 382
f 610 382 383
f 383 609 610
f 435 608 607
f 432 470 471
f 442 436 438
f 443 441 442
f 545 544 543
f 930 926 622
f 941 891 942
f 942 943 941
f 891 893 942
f 942 893 895
f 944 943 942
f 895 896 945
f 945 942 895
f 944 942 945
f 956 896 957
f 1007 956 957
f 896 958 957
f 957 958 1007
f 277 276 293
f 293 276 292
f 293 292 312
f 222 293 312
f 294 293 222
f 312 253 222
f 21 26 20
f 20 294 21
f 216 274 217
f 217 274 275
f 217 149 216
f 273 272 289
f 289 274 273
f 216 272 273
f 273 274 216
f 59 624 177
f 177 176 59
f 190 54 87
f 190 189 54
f 264 280 265
f 264 263 280
f 265 229 228
f 52 235 51
f 153 403 488
f 153 119 403
f 626 187 82
f 186 253 185
f 186 82 187
f 978 982 981
f 981 980 978
f 981 979 980
f 975 1047 1049
f 1049 977 975
f 997 1067 986
f 910 912 885
f 885 882 883
f 911 912 910
f 911 1009 1008
f 909 1009 911
f 946 880 944
f 944 945 946
f 881 880 946
f 623 624 928
f 881 946 947
f 879 910 878
f 879 917 909
f 909 911 879
f 999 1001 1057
f 1057 997 999
f 1003 1005 1073
f 1057 1001 1069
f 1069 780 1057
f 778 780 779
f 1057 780 778
f 776 1067 778
f 779 777 778
f 778 777 776
f 783 781 782
f 782 781 780
f 780 1069 782
f 1013 1071 1012
f 1071 1010 1012
f 1012 1010 1011
f 1012 913 1013
f 1011 913 1012
f 787 786 789
f 818 1056 635
f 784 786 785
f 1072 786 784
f 785 783 784
f 783 782 784
f 784 782 1073
f 1073 1072 784
f 1032 786 1024
f 1024 786 1071
f 1013 1032 1024
f 1024 1071 1013
f 793 816 791
f 793 795 816
f 992 989 991
f 989 990 991
f 988 989 987
f 988 990 989
f 1065 1066 772
f 772 1066 774
f 773 775 825
f 774 775 773
f 773 772 774
f 825 640 826
f 826 640 827
f 826 773 825
f 69 170 171
f 69 72 620
f 171 72 69
f 232 233 296
f 246 245 181
f 172 242 173
f 172 72 171
f 233 242 241
f 241 297 233
f 241 172 171
f 242 172 241
f 171 170 241
f 241 170 240
f 240 239 241
f 241 239 297
f 619 743 713
f 619 711 838
f 110 111 114
f 296 239 238
f 296 238 295
f 236 235 295
f 116 131 118
f 118 115 116
f 111 109 112
f 106 105 112
f 112 105 111
f 112 166 106
f 167 166 112
f 112 109 167
f 108 74 167
f 167 109 108
f 108 109 111
f 103 105 104
f 104 102 103
f 146 411 407
f 146 98 411
f 407 405 146
f 146 405 147
f 146 141 140
f 147 141 146
f 140 139 146
f 362 374 363
f 363 340 362
f 552 576 339
f 577 552 339
f 327 326 328
f 328 574 550
f 330 574 328
f 323 326 325
f 325 324 323
f 357 358 323
f 358 326 323
f 323 324 322
f 855 859 644
f 849 851 856
f 856 851 969
f 99 859 858
f 858 859 855
f 858 854 99
f 855 854 858
f 967 970 1060
f 969 970 967
f 399 408 409
f 409 410 399
f 409 408 516
f 516 410 409
f 397 408 399
f 397 412 408
f 397 399 398
f 398 643 397
f 315 486 648
f 320 321 319
f 322 321 320
f 320 323 322
f 320 356 357
f 357 323 320
f 827 828 771
f 771 826 827
f 773 826 771
f 772 773 771
f 765 830 649
f 765 766 767
f 764 766 765
f 650 764 765
f 765 649 650
f 317 649 651
f 649 830 651
f 369 317 651
f 829 828 642
f 642 830 829
f 767 828 829
f 829 765 767
f 830 765 829
f 633 830 642
f 369 651 633
f 633 651 830
f 344 340 343
f 343 578 344
f 343 554 578
f 579 554 343
f 579 350 555
f 589 575 532
f 589 533 575
f 510 591 535
f 592 572 536
f 389 147 388
f 388 519 389
f 392 520 391
f 391 141 392
f 520 141 391
f 392 141 393
f 393 141 394
f 393 394 519
f 393 520 392
f 519 520 393
f 406 405 518
f 518 404 406
f 147 405 406
f 406 404 147
f 387 404 390
f 387 390 147
f 147 404 387
f 4 202 203
f 261 260 203
f 203 202 261
f 96 203 196
f 2 96 196
f 260 195 196
f 196 203 260
f 632 424 804
f 429 423 419
f 430 423 429
f 468 469 429
f 429 469 430
f 429 262 468
f 1051 811 810
f 805 809 810
f 810 811 805
f 1029 1015 1020
f 1021 1015 1029
f 1020 631 1029
f 813 1053 814
f 814 799 813
f 813 799 812
f 1052 811 1051
f 812 811 1052
f 1052 813 812
f 1053 813 1052
f 655 654 763
f 606 428 607
f 607 385 606
f 960 1015 961
f 961 631 960
f 960 631 1015
f 1018 1019 1027
f 1027 1022 1018
f 1018 1026 1017
f 1018 1022 1026
f 91 90 197
f 90 168 197
f 197 198 91
f 256 198 197
f 197 168 256
f 376 366 365
f 378 616 617
f 617 368 378
f 616 595 617
f 595 368 617
f 352 368 354
f 354 368 595
f 595 566 354
f 353 581 557
f 483 495 129
f 494 495 483
f 129 130 483
f 483 130 136
f 136 493 483
f 483 493 494
f 492 491 129
f 129 495 492
f 492 495 491
f 584 495 494
f 489 490 128
f 569 478 487
f 487 490 569
f 479 478 569
f 540 479 569
f 569 581 540
f 306 258 307
f 258 257 307
f 256 308 307
f 307 257 256
f 287 306 307
f 307 288 287
f 307 308 289
f 289 288 307
f 521 148 149
f 594 148 521
f 521 488 487
f 487 594 521
f 521 6 488
f 154 594 152
f 154 148 594
f 214 215 154
f 215 148 154
f 213 269 270
f 213 212 269
f 213 271 214
f 270 271 213
f 214 154 213
f 213 154 152
f 213 152 151
f 151 212 213
f 808 763 809
f 655 763 808
f 422 424 419
f 419 423 422
f 422 804 424
f 473 466 465
f 439 608 465
f 608 435 465
f 607 473 465
f 465 435 607
f 562 598 561
f 562 597 598
f 266 209 562
f 562 561 266
f 431 430 470
f 470 432 431
f 431 423 430
f 431 432 423
f 438 459 444
f 444 442 438
f 443 442 444
f 444 459 446
f 444 445 443
f 444 446 445
f 189 190 250
f 250 190 249
f 188 189 250
f 25 9 19
f 19 20 25
f 25 20 26
f 275 219 218
f 218 217 275
f 277 293 221
f 221 293 294
f 294 20 221
f 221 20 19
f 220 157 219
f 220 276 277
f 219 276 220
f 277 221 220
f 220 221 208
f 56 59 176
f 624 59 56
f 87 55 53
f 53 190 87
f 175 176 248
f 175 56 176
f 55 624 175
f 624 56 175
f 24 26 21
f 21 23 24
f 298 249 248
f 298 278 23
f 298 247 299
f 248 247 298
f 263 264 225
f 280 263 279
f 299 300 279
f 279 300 280
f 279 298 299
f 278 298 279
f 165 235 236
f 236 153 165
f 51 235 165
f 488 51 165
f 165 153 488
f 403 119 121
f 121 123 403
f 125 490 402
f 402 123 125
f 402 490 403
f 403 123 402
f 124 125 122
f 125 123 122
f 123 121 122
f 122 131 124
f 626 82 83
f 627 626 83
f 83 186 185
f 82 186 83
f 83 84 627
f 185 84 83
f 872 981 982
f 872 860 871
f 982 977 872
f 977 860 872
f 987 979 875
f 1041 977 1033
f 1033 1049 1041
f 977 1049 1033
f 1041 1049 1048
f 850 851 849
f 850 973 971
f 971 851 850
f 868 977 1041
f 1041 860 868
f 868 860 977
f 871 860 1034
f 1034 860 1041
f 992 991 874
f 874 991 990
f 760 926 925
f 925 930 923
f 926 930 925
f 998 882 1000
f 1068 997 1057
f 1067 997 1068
f 1057 778 1068
f 1068 778 1067
f 1004 911 1008
f 912 911 1004
f 1002 912 1004
f 916 1002 1000
f 1000 882 916
f 882 885 916
f 916 912 1002
f 916 885 912
f 918 945 896
f 918 946 945
f 918 896 908
f 908 917 918
f 917 947 918
f 918 947 946
f 623 928 929
f 929 622 623
f 929 930 622
f 927 928 624
f 881 947 927
f 625 881 927
f 927 624 625
f 878 919 948
f 948 879 878
f 919 928 948
f 928 927 948
f 948 927 947
f 948 947 917
f 917 879 948
f 886 911 910
f 910 879 886
f 886 879 911
f 1001 1003 1070
f 1070 1069 1001
f 1070 1003 1073
f 1073 782 1070
f 1070 782 1069
f 1025 1026 790
f 1026 1022 790
f 790 793 791
f 635 820 819
f 819 818 635
f 820 787 819
f 787 789 819
f 789 818 819
f 1056 818 817
f 817 1055 1056
f 816 1055 817
f 791 816 817
f 817 789 791
f 817 818 789
f 794 795 792
f 795 793 792
f 1027 794 792
f 793 790 792
f 792 1022 1027
f 792 790 1022
f 985 983 984
f 983 994 984
f 10 204 27
f 27 204 28
f 28 15 27
f 68 73 170
f 170 69 68
f 620 73 68
f 68 69 620
f 233 232 34
f 34 232 33
f 33 49 34
f 229 49 48
f 48 228 229
f 47 228 48
f 301 245 230
f 245 246 230
f 230 246 243
f 243 231 230
f 230 281 301
f 229 281 230
f 182 181 62
f 182 246 181
f 62 622 182
f 70 89 72
f 72 172 70
f 70 172 173
f 742 743 762
f 762 761 742
f 709 838 711
f 709 839 619
f 619 838 709
f 709 707 839
f 116 115 113
f 115 238 113
f 114 116 113
f 113 110 114
f 239 110 113
f 113 238 239
f 237 115 236
f 236 295 237
f 237 238 115
f 237 295 238
f 235 52 50
f 50 295 235
f 52 45 50
f 169 73 74
f 74 108 169
f 169 108 240
f 240 170 169
f 170 73 169
f 240 108 107
f 107 108 111
f 111 110 107
f 107 239 240
f 107 110 239
f 137 143 144
f 144 138 137
f 143 105 144
f 105 103 144
f 139 138 144
f 329 358 359
f 329 326 358
f 330 328 329
f 329 328 326
f 360 372 373
f 359 372 360
f 360 329 359
f 332 329 360
f 335 332 360
f 331 574 330
f 331 549 574
f 330 329 331
f 331 329 332
f 575 549 331
f 334 332 335
f 334 576 551
f 551 575 334
f 337 362 340
f 337 339 335
f 647 644 859
f 314 644 647
f 647 515 314
f 647 648 515
f 1061 967 1060
f 1060 764 1061
f 546 319 571
f 319 321 571
f 571 538 593
f 571 321 322
f 571 572 537
f 537 538 571
f 969 967 968
f 967 966 968
f 648 647 873
f 873 968 966
f 873 856 969
f 969 968 873
f 643 854 396
f 396 397 643
f 397 396 413
f 413 396 854
f 314 515 514
f 514 644 314
f 515 412 514
f 645 315 648
f 646 486 645
f 486 315 645
f 318 320 319
f 318 319 650
f 650 649 318
f 318 649 317
f 317 356 318
f 356 320 318
f 769 771 828
f 767 768 769
f 769 828 767
f 1059 768 1063
f 974 976 1059
f 1059 1063 974
f 1059 976 978
f 341 343 340
f 346 347 351
f 351 366 352
f 351 365 366
f 352 353 351
f 351 353 346
f 481 520 505
f 505 520 519
f 505 589 532
f 510 502 501
f 518 517 501
f 590 533 504
f 504 502 590
f 533 589 504
f 589 505 504
f 510 535 534
f 534 502 510
f 590 502 534
f 534 574 590
f 534 535 574
f 574 535 573
f 550 574 573
f 573 535 591
f 327 328 573
f 573 328 550
f 573 325 327
f 573 572 548
f 573 536 572
f 591 536 573
f 548 325 573
f 506 517 516
f 516 512 506
f 512 513 506
f 507 513 592
f 592 536 507
f 507 506 513
f 395 394 147
f 147 389 395
f 519 394 395
f 395 389 519
f 97 2 1
f 2 196 1
f 1 195 97
f 1 196 195
f 420 419 259
f 420 429 419
f 420 259 262
f 262 429 420
f 814 795 797
f 797 799 814
f 797 795 794
f 798 1029 1030
f 1030 800 798
f 1030 631 632
f 1030 1029 631
f 801 799 798
f 798 800 801
f 812 799 801
f 803 801 800
f 805 811 803
f 803 811 812
f 812 801 803
f 634 763 654
f 428 606 605
f 604 606 385
f 604 605 606
f 364 375 376
f 376 365 364
f 365 341 364
f 363 375 364
f 364 340 363
f 364 341 340
f 352 354 355
f 355 354 566
f 355 353 352
f 581 353 355
f 355 566 540
f 540 581 355
f 526 584 494
f 494 493 526
f 526 493 585
f 526 585 579
f 579 555 580
f 580 526 579
f 584 526 580
f 580 555 350
f 350 349 580
f 347 556 580
f 580 349 347
f 491 495 524
f 128 491 401
f 401 489 128
f 491 489 401
f 490 489 523
f 523 569 490
f 581 569 523
f 805 804 807
f 807 422 423
f 807 809 805
f 807 808 809
f 440 466 436
f 440 465 466
f 439 465 440
f 440 441 439
f 436 442 440
f 440 442 441
f 597 562 563
f 563 562 209
f 433 432 471
f 471 425 433
f 471 473 472
f 472 425 471
f 472 473 607
f 607 428 472
f 418 433 425
f 8 250 249
f 254 187 188
f 188 250 254
f 254 250 222
f 254 222 253
f 253 186 254
f 254 186 187
f 205 279 263
f 278 279 205
f 9 25 205
f 26 278 205
f 205 25 26
f 10 9 205
f 205 204 10
f 263 225 205
f 205 225 204
f 217 218 156
f 219 157 156
f 156 218 219
f 157 521 156
f 17 15 208
f 10 27 17
f 17 27 15
f 6 521 5
f 5 28 6
f 5 15 28
f 157 220 159
f 159 521 157
f 174 53 55
f 190 53 174
f 55 175 174
f 174 175 248
f 248 249 174
f 249 190 174
f 23 278 206
f 206 24 23
f 206 278 26
f 26 24 206
f 226 225 264
f 265 227 226
f 226 264 265
f 46 227 265
f 265 228 46
f 46 228 47
f 46 50 45
f 43 163 227
f 43 52 51
f 43 45 52
f 117 121 119
f 117 153 236
f 119 153 117
f 236 115 117
f 981 872 863
f 979 981 863
f 863 872 871
f 863 875 979
f 866 1042 862
f 1040 1042 866
f 866 1034 1040
f 1035 864 1044
f 1044 864 1042
f 1044 1042 1040
f 670 988 987
f 987 875 670
f 1046 1049 1047
f 1046 1048 1049
f 846 850 849
f 849 842 846
f 101 843 846
f 842 99 846
f 846 99 101
f 1041 1048 1039
f 1039 1034 1041
f 1040 1034 1039
f 992 874 993
f 993 874 994
f 993 983 992
f 993 994 983
f 883 882 900
f 667 870 897
f 901 903 902
f 902 900 901
f 884 903 904
f 910 885 884
f 885 902 884
f 884 902 903
f 878 910 937
f 937 931 878
f 936 934 935
f 741 742 705
f 705 742 761
f 1048 1046 1045
f 1045 1046 853
f 996 998 997
f 996 997 986
f 906 900 882
f 923 930 921
f 930 929 921
f 921 928 919
f 921 929 928
f 788 789 786
f 788 786 1023
f 788 1023 1025
f 791 789 788
f 788 790 791
f 1025 790 788
f 162 163 488
f 488 161 162
f 227 163 162
f 162 226 227
f 162 161 225
f 225 226 162
f 204 225 160
f 225 161 160
f 28 204 160
f 6 28 160
f 488 6 160
f 160 161 488
f 622 88 61
f 61 182 622
f 89 71 184
f 88 89 184
f 184 71 173
f 173 243 184
f 712 713 743
f 743 742 712
f 712 709 711
f 712 711 619
f 619 713 712
f 145 146 139
f 139 144 145
f 361 360 373
f 361 373 374
f 374 362 361
f 335 360 361
f 361 337 335
f 362 337 361
f 335 339 336
f 336 334 335
f 336 339 576
f 576 334 336
f 333 331 332
f 332 334 333
f 575 331 333
f 333 334 575
f 339 337 338
f 577 339 338
f 539 571 593
f 539 593 511
f 511 646 539
f 646 570 539
f 322 572 547
f 547 571 322
f 572 571 547
f 653 570 646
f 965 963 648
f 648 873 965
f 965 873 966
f 965 966 967
f 967 653 965
f 965 653 963
f 644 514 416
f 416 854 855
f 416 514 413
f 414 514 412
f 413 514 414
f 412 397 414
f 397 413 414
f 648 963 964
f 964 645 648
f 646 645 964
f 964 653 646
f 963 653 964
f 342 341 350
f 343 341 342
f 342 350 579
f 579 343 342
f 365 351 348
f 348 341 365
f 347 349 348
f 348 351 347
f 350 341 348
f 348 349 350
f 481 505 482
f 482 505 532
f 532 531 482
f 482 496 481
f 531 496 482
f 503 505 519
f 503 504 505
f 502 504 503
f 503 501 502
f 519 518 503
f 518 501 503
f 510 501 508
f 508 501 517
f 517 506 508
f 506 507 508
f 509 536 591
f 509 507 536
f 509 508 507
f 509 591 510
f 510 508 509
f 798 799 796
f 799 797 796
f 796 1029 798
f 796 797 794
f 1021 1029 796
f 794 1021 796
f 632 800 1031
f 1031 1030 632
f 800 1030 1031
f 802 800 632
f 802 803 800
f 632 804 802
f 802 804 805
f 805 803 802
f 1051 810 1050
f 1050 810 809
f 809 763 1050
f 763 634 1050
f 316 654 655
f 655 605 316
f 316 604 654
f 605 604 316
f 386 604 385
f 386 634 654
f 654 604 386
f 740 751 752
f 748 731 752
f 699 701 738
f 495 584 525
f 525 524 495
f 584 580 525
f 583 489 491
f 491 524 583
f 583 523 489
f 804 422 806
f 806 807 804
f 422 807 806
f 597 563 564
f 564 565 596
f 596 597 564
f 543 565 564
f 564 545 543
f 544 545 564
f 564 209 544
f 564 563 209
f 426 472 428
f 425 472 426
f 428 418 426
f 426 418 425
f 432 433 421
f 433 418 421
f 423 432 421
f 421 807 423
f 808 807 421
f 421 418 808
f 655 808 427
f 808 418 427
f 427 418 428
f 427 605 655
f 428 605 427
f 249 298 223
f 223 8 249
f 223 298 23
f 16 23 21
f 21 294 16
f 294 222 16
f 222 250 207
f 250 8 207
f 207 16 222
f 149 217 155
f 217 156 155
f 155 521 149
f 155 156 521
f 208 221 18
f 18 17 208
f 18 221 19
f 10 17 18
f 18 9 10
f 19 9 18
f 158 5 521
f 521 159 158
f 15 5 158
f 208 15 158
f 158 220 208
f 158 159 220
f 227 46 224
f 224 46 45
f 224 43 227
f 45 43 224
f 29 43 51
f 29 51 30
f 30 488 29
f 120 122 121
f 121 117 120
f 120 118 131
f 131 122 120
f 115 118 120
f 120 117 115
f 867 866 862
f 867 863 871
f 862 863 867
f 871 1034 867
f 1034 866 867
f 862 1042 865
f 1042 864 865
f 1038 1044 1040
f 875 863 669
f 669 670 875
f 844 843 853
f 853 1046 844
f 848 846 847
f 850 846 848
f 973 850 848
f 975 973 848
f 848 1047 975
f 848 847 1047
f 853 843 852
f 727 1045 853
f 853 852 727
f 727 852 831
f 663 870 667
f 661 672 675
f 675 672 874
f 675 874 990
f 990 988 675
f 988 670 675
f 667 897 664
f 664 897 890
f 889 666 890
f 753 729 748
f 897 729 753
f 1036 870 1035
f 1036 897 870
f 1036 729 897
f 1035 1044 1036
f 883 900 905
f 900 902 905
f 905 885 883
f 905 902 885
f 910 884 949
f 949 937 910
f 949 884 904
f 949 950 937
f 904 903 949
f 903 950 949
f 878 931 932
f 932 919 878
f 935 934 933
f 933 939 935
f 933 932 931
f 934 932 933
f 935 939 940
f 887 936 935
f 935 940 887
f 887 940 735
f 924 925 923
f 758 759 760
f 760 925 758
f 925 924 758
f 758 924 756
f 757 705 761
f 757 761 759
f 759 758 757
f 757 758 756
f 755 757 756
f 705 757 755
f 699 1038 1037
f 1037 1039 1048
f 1048 1045 1037
f 1040 1039 1037
f 1037 1038 1040
f 700 701 699
f 699 1037 700
f 700 1037 1045
f 1045 727 700
f 700 727 728
f 995 996 986
f 986 985 995
f 985 889 995
f 998 996 907
f 882 998 907
f 996 995 907
f 907 995 889
f 907 889 890
f 897 753 898
f 900 906 898
f 923 921 922
f 922 924 923
f 934 936 922
f 936 924 922
f 39 38 233
f 233 34 39
f 233 38 40
f 40 242 233
f 182 61 183
f 246 182 183
f 243 246 183
f 183 184 243
f 710 742 741
f 710 712 742
f 709 712 710
f 707 709 710
f 295 50 234
f 98 146 100
f 146 145 100
f 101 99 100
f 99 98 100
f 100 102 101
f 100 103 102
f 100 144 103
f 100 145 144
f 345 337 340
f 345 338 337
f 345 340 344
f 344 578 345
f 578 553 345
f 345 553 577
f 577 338 345
f 857 647 859
f 856 873 857
f 857 859 849
f 849 856 857
f 571 539 568
f 546 571 568
f 568 539 570
f 568 319 546
f 650 319 568
f 855 644 417
f 417 416 855
f 644 416 417
f 415 413 854
f 854 416 415
f 415 416 413
f 772 771 770
f 770 769 768
f 771 769 770
f 768 1059 770
f 1065 772 1064
f 772 770 1064
f 1064 1059 978
f 1064 770 1059
f 1064 980 1065
f 978 980 1064
f 741 705 704
f 705 685 704
f 740 717 702
f 702 717 715
f 702 751 740
f 836 102 840
f 101 102 836
f 720 717 740
f 581 523 582
f 523 583 582
f 557 581 582
f 582 580 556
f 582 583 524
f 582 347 346
f 582 353 557
f 346 353 582
f 582 556 347
f 582 525 580
f 524 525 582
f 22 223 23
f 23 16 22
f 163 43 164
f 43 29 164
f 488 163 164
f 164 29 488
f 737 1038 699
f 699 738 737
f 1044 1038 1043
f 732 1036 1043
f 1043 1036 1044
f 656 863 862
f 661 675 660
f 660 675 670
f 1035 661 660
f 660 864 1035
f 845 844 1046
f 1047 847 845
f 845 1046 1047
f 847 846 845
f 845 846 843
f 843 844 845
f 890 666 665
f 665 664 890
f 985 984 673
f 673 889 985
f 667 664 673
f 730 731 748
f 748 729 730
f 732 731 730
f 730 1036 732
f 729 1036 730
f 951 903 901
f 951 950 903
f 939 933 938
f 938 951 939
f 950 951 938
f 938 933 931
f 931 937 938
f 937 950 938
f 735 940 745
f 683 689 690
f 936 887 888
f 888 924 936
f 697 887 735
f 101 835 834
f 915 906 882
f 882 907 915
f 915 898 906
f 890 897 914
f 897 898 914
f 914 907 890
f 914 915 907
f 898 915 914
f 899 898 753
f 901 900 899
f 900 898 899
f 920 922 921
f 920 921 919
f 919 932 920
f 920 932 934
f 934 922 920
f 243 242 32
f 242 40 32
f 32 231 243
f 32 31 231
f 40 31 32
f 60 61 88
f 60 183 61
f 88 184 65
f 184 183 65
f 708 715 707
f 707 710 708
f 708 710 741
f 35 232 296
f 296 295 35
f 33 232 35
f 35 49 33
f 35 48 49
f 50 46 37
f 37 234 50
f 37 46 47
f 876 873 647
f 647 857 876
f 876 857 873
f 570 653 652
f 652 568 570
f 967 1061 652
f 652 653 967
f 650 568 652
f 652 764 650
f 652 1061 764
f 684 685 705
f 684 755 683
f 705 755 684
f 677 704 685
f 679 702 703
f 703 702 715
f 703 708 741
f 715 708 703
f 837 835 101
f 101 836 837
f 840 707 706
f 706 836 840
f 707 715 706
f 739 720 740
f 740 752 739
f 739 752 731
f 731 738 739
f 723 738 701
f 719 720 723
f 723 739 738
f 720 739 723
f 223 22 12
f 7 207 8
f 7 14 207
f 16 207 13
f 207 14 13
f 13 22 16
f 13 12 22
f 14 12 13
f 732 1043 733
f 733 1043 1038
f 1038 737 733
f 733 737 738
f 733 731 732
f 733 738 731
f 668 669 863
f 863 656 668
f 862 865 658
f 870 663 869
f 663 861 869
f 869 861 661
f 869 661 1035
f 1035 870 869
f 662 861 663
f 662 672 661
f 661 861 662
f 671 984 994
f 671 673 984
f 994 874 671
f 874 672 671
f 672 662 671
f 671 662 663
f 671 663 667
f 667 673 671
f 666 889 674
f 889 673 674
f 674 673 664
f 674 665 666
f 664 665 674
f 877 940 939
f 939 951 877
f 877 745 940
f 877 951 901
f 901 899 877
f 744 689 735
f 735 745 744
f 756 924 754
f 924 888 754
f 754 755 756
f 698 697 735
f 726 725 701
f 726 700 728
f 701 700 726
f 831 852 832
f 832 726 728
f 728 727 832
f 832 727 831
f 724 834 722
f 701 725 724
f 724 723 701
f 722 723 724
f 42 40 38
f 42 31 40
f 231 31 42
f 295 234 36
f 36 35 295
f 234 37 36
f 36 37 47
f 47 48 36
f 48 35 36
f 679 703 680
f 680 703 741
f 691 677 685
f 719 835 718
f 835 837 718
f 718 720 719
f 717 720 718
f 716 837 836
f 716 718 837
f 717 718 716
f 719 723 721
f 721 723 722
f 721 835 719
f 721 834 835
f 722 834 721
f 11 12 14
f 14 7 11
f 11 7 8
f 8 223 11
f 223 12 11
f 657 656 862
f 862 658 657
f 657 668 656
f 669 668 657
f 657 658 669
f 659 658 865
f 659 865 864
f 864 660 659
f 659 660 670
f 670 669 659
f 669 658 659
f 745 877 747
f 746 752 751
f 751 744 746
f 746 744 745
f 748 752 746
f 746 747 748
f 745 747 746
f 686 754 888
f 697 698 686
f 686 698 688
f 887 695 694
f 694 695 693
f 694 888 887
f 693 888 694
f 887 697 696
f 696 695 887
f 734 698 735
f 688 698 734
f 735 689 734
f 689 688 734
f 101 834 833
f 833 843 101
f 833 852 843
f 833 832 852
f 833 724 725
f 834 724 833
f 725 726 833
f 726 832 833
f 38 39 41
f 41 42 38
f 41 230 231
f 231 42 41
f 704 677 676
f 741 704 676
f 676 680 741
f 677 691 676
f 685 684 692
f 692 691 685
f 683 690 692
f 692 684 683
f 679 680 678
f 680 676 678
f 678 676 691
f 836 706 714
f 714 716 836
f 717 716 714
f 715 717 714
f 714 706 715
f 749 877 899
f 749 747 877
f 749 899 753
f 749 753 748
f 748 747 749
f 682 689 683
f 682 688 689
f 683 755 682
f 755 754 682
f 697 686 687
f 687 696 697
f 687 888 693
f 687 686 888
f 693 695 687
f 695 696 687
f 44 41 39
f 44 39 34
f 44 34 49
f 44 49 229
f 229 230 44
f 230 41 44
f 736 692 690
f 736 690 689
f 689 744 736
f 750 678 691
f 750 744 751
f 751 702 750
f 750 736 744
f 750 702 679
f 679 678 750
f 691 692 750
f 692 736 750
f 681 686 688
f 688 682 681
f 754 686 681
f 681 682 754
f 87 54 85
f 86 87 85
f 977 982 978
f 978 976 977
f 977 974 975
f 977 976 974
f 972 970 971
f 971 973 972
f 975 974 972
f 972 973 975
f 1016 1019 962
f 962 1019 952
f 1002 1001 999
f 1000 1002 999
f 203 3 4
f 96 3 203
f 952 1019 1018
f 1018 953 952
f 1018 1017 955
f 955 953 1018
f 1000 999 998
f 998 999 997
f 1005 1003 1004
f 1008 1005 1004
f 1004 1001 1002
f 1004 1003 1001
f 70 71 89
f 173 71 70
f 386 377 376
f 371 370 386
f 369 633 386
f 635 1056 386
f 386 636 635
f 383 382 386
f 379 378 386
f 386 642 641
f 386 372 371
f 638 637 386
f 386 378 377
f 386 380 379
f 376 375 386
f 641 640 386
f 386 382 381
f 637 636 386
f 386 639 638
f 386 370 369
f 386 384 383
f 386 375 374
f 374 373 386
f 1056 1055 386
f 386 1052 1051
f 381 380 386
f 386 640 639
f 373 372 386
f 386 1055 1054
f 1054 1053 386
f 385 384 386
f 386 633 642
f 1053 1052 386
f 1051 1050 386
f 386 1050 634
f 183 60 65
f 65 60 88
