v 0.088306 -0.074408 0.011889
v 0.088297 -0.071471 0.020690
v 0.088297 -0.072938 0.017754
v 0.088297 -0.074408 0.013329
v 0.088297 -0.075872 0.007496
v 0.088306 -0.075872 0.004559
v 0.088306 -0.075872 0.003099
v 0.088297 -0.071477 -0.018885
v 0.088225 -0.070014 0.021735
v 0.088264 -0.071471 0.021735
v 0.088287 -0.071231 -0.019137
v 0.088274 -0.074406 0.014825
v 0.088238 -0.072938 0.019222
v 0.088270 -0.075872 0.008960
v 0.087924 -0.077338 0.003099
v 0.087947 -0.077338 0.001627
v 0.087950 -0.077338 0.000166
v 0.088300 -0.075872 -0.004231
v 0.088300 -0.074408 -0.011560
v 0.088297 -0.072941 -0.015957
v 0.088293 -0.071477 -0.019137
v 0.087705 -0.068699 0.021735
v 0.087937 -0.069925 -0.019137
v 0.087836 -0.069655 -0.019137
v 0.087767 -0.072934 0.021735
v 0.088022 -0.072938 0.020690
v 0.088140 -0.074406 0.016294
v 0.088182 -0.075872 0.010428
v 0.087787 -0.077076 0.008960
v 0.087813 -0.077163 0.007496
v 0.087437 -0.078142 0.003099
v 0.087460 -0.078159 0.001803
v 0.087463 -0.078159 0.001627
v 0.087463 -0.078161 0.000166
v 0.087927 -0.077338 -0.001298
v 0.088297 -0.075872 -0.005695
v 0.088267 -0.074408 -0.013024
v 0.088267 -0.075872 -0.007163
v 0.088238 -0.072941 -0.017421
v 0.088045 -0.072698 -0.019137
v 0.086843 -0.068358 0.021735
v 0.087630 -0.069246 -0.019137
v 0.087473 -0.069093 -0.019137
v 0.069792 -0.059291 -0.004247
v 0.069795 -0.059291 -0.003686
v 0.069775 -0.059291 -0.003286
v 0.087526 -0.073332 0.021735
v 0.087539 -0.073853 0.020690
v 0.087754 -0.074156 0.019222
v 0.087656 -0.075438 0.016294
v 0.087790 -0.075662 0.014825
v 0.088035 -0.075872 0.011889
v 0.087709 -0.076948 0.010428
v 0.087392 -0.078107 0.004143
v 0.086611 -0.078235 0.003099
v 0.086712 -0.078271 0.001803
v 0.086604 -0.078287 0.001627
v 0.086604 -0.078285 0.000166
v 0.087447 -0.078148 -0.001298
v 0.087813 -0.077176 -0.005695
v 0.088137 -0.074408 -0.014493
v 0.088192 -0.075872 -0.008631
v 0.087787 -0.077081 -0.007163
v 0.087999 -0.072941 -0.018885
v 0.087944 -0.072943 -0.019137
v 0.076339 -0.065980 0.021735
v 0.068282 -0.059291 0.001811
v 0.076342 -0.065973 -0.019137
v 0.066812 -0.059291 -0.008579
v 0.069599 -0.059291 -0.005111
v 0.069759 -0.059291 -0.004783
v 0.069782 -0.059291 -0.004475
v 0.086611 -0.073578 0.021735
v 0.087369 -0.073691 0.021459
v 0.087483 -0.075254 0.017358
v 0.087414 -0.076661 0.012857
v 0.087552 -0.076774 0.011889
v 0.086611 -0.077790 0.007496
v 0.086911 -0.078044 0.005115
v 0.086490 -0.078120 0.004603
v 0.086611 -0.077606 0.008960
v 0.085134 -0.078224 0.003099
v 0.085324 -0.078293 0.001815
v 0.085938 -0.078073 0.005323
v 0.085814 -0.078073 0.005323
v 0.085137 -0.078300 0.001627
v 0.085137 -0.078298 0.000166
v 0.086604 -0.078246 -0.001298
v 0.087401 -0.078112 -0.002430
v 0.088052 -0.075872 -0.010092
v 0.087787 -0.075667 -0.013024
v 0.087656 -0.075437 -0.014493
v 0.087754 -0.074162 -0.017421
v 0.087709 -0.076951 -0.008631
v 0.087552 -0.073674 -0.019137
v 0.075307 -0.065761 0.021735
v 0.059203 -0.059291 0.001811
v 0.066423 -0.063892 0.021735
v 0.075120 -0.065716 -0.019137
v 0.059200 -0.059291 -0.008579
v 0.074875 -0.065666 -0.019137
v 0.066819 -0.064045 -0.019137
v 0.085846 -0.073568 0.021735
v 0.086611 -0.073704 0.021487
v 0.086611 -0.074065 0.020690
v 0.086611 -0.074694 0.019222
v 0.086611 -0.075066 0.018314
v 0.086611 -0.075334 0.017582
v 0.086611 -0.075781 0.016294
v 0.086611 -0.076525 0.013805
v 0.086611 -0.076650 0.013329
v 0.086611 -0.076715 0.013073
v 0.086611 -0.077000 0.011889
v 0.086611 -0.077336 0.010428
v 0.086611 -0.076233 0.014825
v 0.085134 -0.077839 0.007496
v 0.085134 -0.077640 0.008960
v 0.083700 -0.078127 0.003051
v 0.083680 -0.078192 0.001815
v 0.085248 -0.078112 0.004559
v 0.084833 -0.078051 0.005051
v 0.084200 -0.078094 0.004075
v 0.085248 -0.077997 0.005903
v 0.083677 -0.078200 0.001627
v 0.083677 -0.078204 0.000166
v 0.085137 -0.078252 -0.001298
v 0.085137 -0.078157 -0.002766
v 0.086601 -0.078137 -0.002858
v 0.087078 -0.078058 -0.003406
v 0.086604 -0.077601 -0.007163
v 0.087437 -0.076680 -0.011120
v 0.087575 -0.076797 -0.010092
v 0.087486 -0.075260 -0.015573
v 0.087519 -0.073840 -0.018885
v 0.087460 -0.073784 -0.019137
v 0.054929 -0.063892 0.021735
v 0.059200 -0.059291 -0.002762
v 0.055916 -0.064045 -0.019137
v 0.054929 -0.063892 0.021595
v 0.085248 -0.073559 0.021735
v 0.085444 -0.073697 0.021471
v 0.085144 -0.074720 0.019222
v 0.085144 -0.075085 0.018338
v 0.085144 -0.075342 0.017602
v 0.085144 -0.075785 0.016294
v 0.085144 -0.076257 0.014825
v 0.085144 -0.076547 0.013865
v 0.085134 -0.076732 0.013125
v 0.085134 -0.077029 0.011889
v 0.085134 -0.077361 0.010428
v 0.083677 -0.077549 0.008960
v 0.083677 -0.077746 0.007496
v 0.082831 -0.078086 0.002531
v 0.083677 -0.077880 0.006031
v 0.082700 -0.078101 0.001627
v 0.082684 -0.078103 0.000166
v 0.082818 -0.078088 -0.000934
v 0.083556 -0.078144 -0.001374
v 0.084053 -0.078107 -0.002766
v 0.084366 -0.078075 -0.003538
v 0.085137 -0.078081 -0.003586
v 0.086104 -0.078081 -0.003582
v 0.086604 -0.077800 -0.005695
v 0.085137 -0.077843 -0.005695
v 0.085137 -0.077623 -0.007163
v 0.086604 -0.077340 -0.008631
v 0.086604 -0.077026 -0.010092
v 0.086604 -0.076732 -0.011328
v 0.086604 -0.076540 -0.012064
v 0.086604 -0.076242 -0.013024
v 0.086604 -0.075779 -0.014493
v 0.086604 -0.075345 -0.015785
v 0.086604 -0.075072 -0.016517
v 0.086604 -0.074694 -0.017421
v 0.086604 -0.074058 -0.018885
v 0.086604 -0.073948 -0.019137
v 0.054929 -0.069525 0.021735
v 0.055870 -0.064149 -0.019137
v 0.054929 -0.063904 0.021571
v 0.055700 -0.065617 -0.019137
v 0.084752 -0.073531 0.021735
v 0.084458 -0.073667 0.021419
v 0.085029 -0.073981 0.020830
v 0.083677 -0.074616 0.019222
v 0.083677 -0.073989 0.020606
v 0.083677 -0.075031 0.018190
v 0.083677 -0.075288 0.017462
v 0.083677 -0.075678 0.016294
v 0.083677 -0.076157 0.014825
v 0.083677 -0.076501 0.013673
v 0.083677 -0.076681 0.012937
v 0.083677 -0.076931 0.011889
v 0.083677 -0.077264 0.010428
v 0.082210 -0.077385 0.008960
v 0.082210 -0.077584 0.007496
v 0.082210 -0.077718 0.006031
v 0.059500 -0.075139 0.003819
v 0.070991 -0.076633 0.002663
v 0.073415 -0.076972 0.001631
v 0.081965 -0.078014 0.001627
v 0.080870 -0.077882 0.000166
v 0.058295 -0.075107 0.000166
v 0.069014 -0.076376 -0.001298
v 0.080870 -0.077833 -0.001306
v 0.082994 -0.078066 -0.001906
v 0.083317 -0.078036 -0.002766
v 0.083801 -0.077967 -0.004107
v 0.083677 -0.077759 -0.005695
v 0.085137 -0.078010 -0.004327
v 0.083677 -0.077532 -0.007163
v 0.085137 -0.077362 -0.008631
v 0.085137 -0.077042 -0.010092
v 0.085137 -0.076737 -0.011336
v 0.085137 -0.076547 -0.012068
v 0.085137 -0.076263 -0.013024
v 0.085137 -0.075801 -0.014493
v 0.085137 -0.075357 -0.015785
v 0.085137 -0.075074 -0.016517
v 0.085137 -0.074715 -0.017421
v 0.085137 -0.074088 -0.018885
v 0.085137 -0.073976 -0.019137
v 0.055825 -0.069685 0.021735
v 0.054929 -0.069927 0.020690
v 0.055825 -0.070210 0.020690
v 0.054929 -0.064354 0.020786
v 0.054929 -0.068550 0.018214
v 0.054929 -0.066957 0.018298
v 0.054929 -0.066263 0.018722
v 0.054929 -0.065669 0.019250
v 0.054929 -0.065372 0.019530
v 0.055700 -0.067082 -0.019137
v 0.083677 -0.073440 0.021735
v 0.082210 -0.074449 0.019222
v 0.082210 -0.073907 0.020438
v 0.083037 -0.073371 0.021735
v 0.082210 -0.073282 0.021735
v 0.082210 -0.073552 0.021178
v 0.082210 -0.074947 0.017950
v 0.082210 -0.075206 0.017214
v 0.082210 -0.075509 0.016294
v 0.082210 -0.075987 0.014825
v 0.070494 -0.074940 0.013329
v 0.071000 -0.075171 0.012737
v 0.082762 -0.076631 0.012733
v 0.082210 -0.077100 0.010428
v 0.080743 -0.076923 0.010428
v 0.077812 -0.076659 0.009964
v 0.077022 -0.076609 0.009728
v 0.080743 -0.077204 0.008960
v 0.075385 -0.076633 0.008396
v 0.074408 -0.076574 0.007920
v 0.058755 -0.074681 0.007496
v 0.058755 -0.074836 0.006031
v 0.058755 -0.074977 0.004559
v 0.058726 -0.075089 0.003239
v 0.059193 -0.075176 0.002839
v 0.064623 -0.075892 0.001631
v 0.057292 -0.074919 0.000166
v 0.057292 -0.074873 -0.001298
v 0.058500 -0.075079 -0.001298
v 0.059232 -0.075171 -0.001298
v 0.061692 -0.075531 0.001631
v 0.058268 -0.075109 0.001631
v 0.057292 -0.074934 0.001631
v 0.071193 -0.076609 -0.002062
v 0.080870 -0.077746 -0.002766
v 0.082210 -0.077910 -0.002766
v 0.082210 -0.077781 -0.004231
v 0.082210 -0.077599 -0.005695
v 0.082210 -0.077372 -0.007163
v 0.083677 -0.077268 -0.008631
v 0.083677 -0.076948 -0.010092
v 0.083677 -0.076691 -0.011152
v 0.083677 -0.076166 -0.013024
v 0.083677 -0.076499 -0.011884
v 0.083677 -0.075705 -0.014493
v 0.083677 -0.075304 -0.015653
v 0.083677 -0.075020 -0.016385
v 0.083677 -0.074614 -0.017421
v 0.083827 -0.073892 -0.019137
v 0.084856 -0.073963 -0.019137
v 0.057262 -0.069897 0.021735
v 0.057220 -0.070474 0.020606
v 0.058759 -0.070520 0.020958
v 0.054929 -0.070003 0.019350
v 0.056132 -0.074203 0.003099
v 0.056148 -0.074145 0.004559
v 0.056174 -0.074080 0.006031
v 0.056220 -0.074004 0.007496
v 0.056315 -0.073888 0.008960
v 0.056468 -0.073749 0.010428
v 0.056556 -0.073674 0.011165
v 0.056475 -0.072271 0.015761
v 0.057292 -0.072111 0.016766
v 0.057292 -0.071732 0.017754
v 0.056681 -0.070725 0.019922
v 0.054929 -0.069495 0.018354
v 0.055808 -0.068565 -0.019137
v 0.055753 -0.068548 -0.018889
v 0.055700 -0.068548 -0.017425
v 0.054929 -0.069568 0.018402
v 0.080746 -0.073814 0.020254
v 0.079544 -0.073734 0.020090
v 0.078567 -0.073671 0.019950
v 0.080746 -0.074257 0.019222
v 0.069730 -0.073674 0.017034
v 0.080746 -0.073464 0.020986
v 0.080746 -0.073103 0.021735
v 0.077100 -0.075135 0.015549
v 0.070487 -0.074506 0.014825
v 0.059314 -0.073697 0.012697
v 0.058334 -0.073635 0.012461
v 0.070497 -0.075301 0.011957
v 0.076339 -0.076053 0.011889
v 0.079809 -0.076629 0.011245
v 0.078832 -0.076570 0.010996
v 0.079302 -0.076737 0.010476
v 0.077812 -0.076508 0.010696
v 0.076457 -0.076423 0.010300
v 0.065299 -0.075148 0.009728
v 0.076045 -0.076551 0.009372
v 0.063640 -0.075171 0.008408
v 0.062663 -0.075111 0.007956
v 0.058755 -0.074463 0.008960
v 0.057292 -0.074460 0.007496
v 0.057292 -0.074616 0.006031
v 0.057292 -0.074752 0.004559
v 0.057292 -0.074873 0.003099
v 0.058317 -0.075107 0.001811
v 0.059030 -0.075197 0.001815
v 0.056128 -0.074233 0.001631
v 0.056138 -0.074222 0.000166
v 0.056142 -0.074197 -0.001298
v 0.056142 -0.074162 -0.002762
v 0.056168 -0.074099 -0.004231
v 0.057292 -0.074789 -0.002762
v 0.058857 -0.075037 -0.002690
v 0.059409 -0.075148 -0.002150
v 0.057292 -0.074927 0.001815
v 0.056128 -0.074229 0.001811
v 0.077812 -0.077370 -0.002762
v 0.072543 -0.076635 -0.003770
v 0.080870 -0.077617 -0.004231
v 0.072872 -0.076583 -0.004715
v 0.073849 -0.076642 -0.005199
v 0.080870 -0.077208 -0.007163
v 0.077032 -0.076609 -0.007923
v 0.082210 -0.077104 -0.008631
v 0.082200 -0.076761 -0.010164
v 0.082684 -0.076639 -0.010948
v 0.082210 -0.075999 -0.013024
v 0.082200 -0.076436 -0.011488
v 0.082210 -0.075537 -0.014493
v 0.082210 -0.075221 -0.015429
v 0.082210 -0.074936 -0.016165
v 0.082210 -0.074443 -0.017421
v 0.082210 -0.073914 -0.018673
v 0.083716 -0.073946 -0.018989
v 0.083598 -0.073868 -0.019137
v 0.058759 -0.070113 0.021735
v 0.060222 -0.070621 0.021170
v 0.055707 -0.072939 0.003099
v 0.055717 -0.072939 0.004559
v 0.055700 -0.070011 -0.014493
v 0.055700 -0.071473 -0.010096
v 0.055733 -0.072941 -0.004231
v 0.055710 -0.072941 -0.002762
v 0.057292 -0.073730 0.011409
v 0.057292 -0.073546 0.012137
v 0.057292 -0.073206 0.013329
v 0.057292 -0.074238 0.008960
v 0.057292 -0.073942 0.010428
v 0.057292 -0.072748 0.014825
v 0.057292 -0.072364 0.016033
v 0.058183 -0.072184 0.016966
v 0.058706 -0.071966 0.017678
v 0.057220 -0.071056 0.019342
v 0.068145 -0.072234 0.020014
v 0.069021 -0.072292 0.020146
v 0.069021 -0.071950 0.020878
v 0.056220 -0.069709 -0.019137
v 0.056187 -0.069771 -0.018889
v 0.055776 -0.070011 -0.015957
v 0.079139 -0.073434 0.020626
v 0.061692 -0.072123 0.018278
v 0.059160 -0.072249 0.017134
v 0.070487 -0.074026 0.016294
v 0.079240 -0.072915 0.021735
v 0.064616 -0.073823 0.014553
v 0.063156 -0.073727 0.014253
v 0.058798 -0.073462 0.013253
v 0.058706 -0.072444 0.016398
v 0.058755 -0.074158 0.010428
v 0.067122 -0.075102 0.010988
v 0.068093 -0.075165 0.011253
v 0.071951 -0.075833 0.010428
v 0.060225 -0.074648 0.008960
v 0.055785 -0.072941 -0.005695
v 0.056217 -0.074011 -0.005695
v 0.057292 -0.074659 -0.004231
v 0.058759 -0.074884 -0.004231
v 0.059167 -0.074979 -0.003770
v 0.059742 -0.075109 -0.003126
v 0.060683 -0.075167 -0.003770
v 0.060229 -0.075064 -0.004263
v 0.061108 -0.075120 -0.004771
v 0.062088 -0.075182 -0.005227
v 0.061634 -0.075051 -0.005707
v 0.076339 -0.076637 -0.007231
v 0.076051 -0.076551 -0.007543
v 0.065299 -0.075146 -0.007927
v 0.078858 -0.076566 -0.009180
v 0.080743 -0.076685 -0.009704
v 0.080743 -0.076516 -0.010436
v 0.081707 -0.076575 -0.010700
v 0.058311 -0.073637 -0.010672
v 0.070991 -0.075169 -0.010932
v 0.074875 -0.075211 -0.012520
v 0.058759 -0.072986 -0.013028
v 0.077146 -0.075130 -0.013728
v 0.078123 -0.075195 -0.013920
v 0.059291 -0.073697 -0.010912
v 0.080870 -0.075304 -0.014677
v 0.080870 -0.075131 -0.015197
v 0.081311 -0.075161 -0.015277
v 0.065531 -0.073650 -0.013688
v 0.080870 -0.074893 -0.015821
v 0.060225 -0.072022 -0.016213
v 0.062630 -0.072180 -0.016621
v 0.075130 -0.073738 -0.016849
v 0.080743 -0.074249 -0.017425
v 0.078557 -0.073671 -0.018149
v 0.079534 -0.073738 -0.018293
v 0.082210 -0.073699 -0.019137
v 0.062274 -0.070762 0.021459
v 0.062561 -0.070654 0.021735
v 0.055753 -0.071473 -0.011560
v 0.058759 -0.072964 0.014825
v 0.060222 -0.072022 0.018042
v 0.057020 -0.070180 -0.019137
v 0.056775 -0.070694 -0.018077
v 0.056367 -0.070926 -0.017097
v 0.056207 -0.071149 -0.015957
v 0.055897 -0.071473 -0.013028
v 0.064414 -0.070907 0.021735
v 0.055874 -0.072941 -0.007159
v 0.056302 -0.073900 -0.007159
v 0.057292 -0.074478 -0.005695
v 0.058759 -0.074696 -0.005695
v 0.064319 -0.075085 -0.007567
v 0.063682 -0.075165 -0.006587
v 0.064819 -0.075202 -0.007231
v 0.058759 -0.074454 -0.007159
v 0.058759 -0.074441 -0.007231
v 0.058759 -0.074162 -0.008631
v 0.058788 -0.073818 -0.010148
v 0.057292 -0.073204 -0.011560
v 0.057292 -0.072766 -0.013028
v 0.058788 -0.073466 -0.011464
v 0.057550 -0.073749 -0.009692
v 0.056573 -0.073669 -0.009352
v 0.057154 -0.073568 -0.010148
v 0.060225 -0.073537 -0.011844
v 0.057292 -0.072374 -0.014213
v 0.058752 -0.072450 -0.014589
v 0.060225 -0.072677 -0.014493
v 0.066508 -0.073714 -0.013876
v 0.058255 -0.072177 -0.015145
v 0.058752 -0.071961 -0.015861
v 0.058759 -0.071309 -0.017425
v 0.058759 -0.070863 -0.018405
v 0.058759 -0.070519 -0.019137
v 0.080870 -0.073520 -0.019137
v 0.056184 -0.072636 -0.011560
v 0.057282 -0.070273 -0.019137
v 0.057275 -0.070440 -0.018797
v 0.057752 -0.070790 -0.018253
v 0.057275 -0.071041 -0.017521
v 0.057292 -0.071693 -0.015957
v 0.056468 -0.072279 -0.013956
v 0.056328 -0.072424 -0.013028
v 0.055883 -0.072947 -0.007231
v 0.056308 -0.073892 -0.007231
v 0.056426 -0.073781 -0.008375
v 0.057239 -0.074216 -0.007231
v 0.057292 -0.074242 -0.007159
v 0.058687 -0.074432 -0.007231
v 0.057154 -0.073898 -0.008767
v 0.057285 -0.074227 -0.007231
f 44 22 43
f 136 97 137
f 139 100 138
f 42 43 22
f 22 24 42
f 38 19 36
f 36 19 18
f 18 17 36
f 18 19 7
f 7 17 18
f 96 67 98
f 66 67 96
f 41 67 66
f 10 2 9
f 9 2 11
f 11 23 9
f 9 23 24
f 9 24 22
f 67 41 46
f 46 41 22
f 68 69 43
f 43 69 70
f 223 285 286
f 74 47 73
f 48 47 74
f 1 2 3
f 3 2 10
f 10 13 3
f 25 47 48
f 291 290 325
f 223 290 291
f 38 36 35
f 35 36 17
f 399 447 400
f 469 478 470
f 336 399 400
f 195 194 250
f 45 22 44
f 45 46 22
f 102 69 101
f 43 70 71
f 289 290 223
f 106 74 105
f 107 74 106
f 107 143 108
f 106 143 107
f 75 107 108
f 74 107 75
f 48 74 75
f 108 143 144
f 10 25 26
f 26 13 10
f 26 27 13
f 13 27 12
f 12 3 13
f 57 56 55
f 151 195 152
f 194 195 151
f 145 144 187
f 187 144 143
f 374 293 373
f 294 293 374
f 224 177 223
f 223 293 224
f 224 296 283
f 295 296 224
f 224 294 295
f 224 293 294
f 254 195 253
f 370 312 373
f 373 293 370
f 377 296 295
f 222 224 283
f 177 224 222
f 185 234 184
f 39 40 21
f 21 20 39
f 37 20 19
f 39 20 37
f 37 61 39
f 37 19 38
f 135 133 173
f 94 63 89
f 38 35 60
f 60 63 38
f 413 456 416
f 210 165 208
f 159 160 126
f 205 206 159
f 159 206 160
f 162 163 129
f 129 89 128
f 89 88 128
f 128 162 129
f 301 297 231
f 231 300 301
f 231 297 226
f 480 443 442
f 475 472 477
f 470 478 477
f 478 469 479
f 457 461 480
f 339 286 264
f 339 328 286
f 339 264 263
f 263 328 339
f 259 336 260
f 258 334 259
f 156 199 201
f 157 156 201
f 329 328 263
f 69 68 99
f 99 101 69
f 44 43 72
f 43 71 72
f 288 289 223
f 328 289 288
f 325 290 326
f 290 289 326
f 254 253 326
f 367 285 366
f 367 362 285
f 366 334 367
f 363 286 285
f 285 362 363
f 82 119 86
f 104 74 73
f 104 105 74
f 184 143 142
f 142 143 106
f 106 105 142
f 105 104 142
f 142 185 184
f 183 185 142
f 50 75 76
f 50 51 27
f 33 16 15
f 17 16 33
f 1 3 4
f 3 12 4
f 5 4 12
f 1 4 5
f 15 16 5
f 82 55 85
f 85 55 84
f 79 84 80
f 84 55 80
f 78 84 79
f 150 151 117
f 241 242 190
f 309 242 241
f 438 374 373
f 310 242 309
f 325 326 252
f 252 326 253
f 252 253 195
f 292 291 325
f 325 371 292
f 292 370 293
f 292 293 223
f 223 291 292
f 435 384 388
f 380 384 435
f 304 305 233
f 184 234 233
f 385 377 439
f 304 377 385
f 385 305 304
f 232 185 182
f 183 140 182
f 182 185 183
f 388 384 307
f 235 185 232
f 235 236 185
f 302 233 234
f 234 307 302
f 302 307 384
f 379 380 296
f 379 384 380
f 304 384 379
f 8 21 11
f 11 2 8
f 8 2 1
f 20 21 8
f 1 7 8
f 8 7 19
f 19 20 8
f 133 93 92
f 131 133 92
f 61 91 92
f 92 93 61
f 89 131 132
f 132 94 89
f 91 94 132
f 131 92 132
f 132 92 91
f 38 63 62
f 63 94 62
f 62 37 38
f 61 37 62
f 270 271 210
f 348 271 270
f 480 461 481
f 481 443 480
f 474 443 481
f 474 481 484
f 484 481 461
f 412 348 411
f 411 413 412
f 412 413 348
f 414 413 416
f 211 165 210
f 210 271 211
f 212 167 211
f 272 271 348
f 350 273 272
f 272 273 212
f 212 211 272
f 272 211 271
f 268 208 207
f 207 208 160
f 207 206 268
f 160 206 207
f 160 208 164
f 164 208 165
f 163 162 164
f 269 208 268
f 346 270 269
f 398 437 446
f 446 437 474
f 446 399 398
f 447 399 446
f 398 366 365
f 365 437 398
f 366 285 365
f 335 366 398
f 335 334 366
f 398 399 335
f 399 336 335
f 336 259 335
f 335 259 334
f 474 437 444
f 444 443 474
f 443 444 383
f 383 444 437
f 180 226 227
f 180 231 226
f 230 225 180
f 225 179 180
f 180 179 139
f 473 433 472
f 441 442 381
f 441 477 478
f 480 442 441
f 441 479 480
f 478 479 441
f 472 433 471
f 471 477 472
f 470 477 471
f 416 461 462
f 462 457 416
f 461 457 462
f 480 479 464
f 428 469 470
f 470 429 428
f 432 429 470
f 470 471 432
f 432 471 433
f 431 429 432
f 432 356 431
f 433 356 432
f 202 259 260
f 258 259 202
f 263 264 202
f 264 258 202
f 202 157 201
f 124 153 155
f 119 153 124
f 124 86 119
f 200 156 155
f 199 156 200
f 155 153 200
f 200 153 199
f 156 157 125
f 86 124 125
f 155 156 125
f 125 124 155
f 263 330 256
f 256 329 263
f 286 328 287
f 328 288 287
f 223 286 287
f 287 288 223
f 327 289 328
f 327 326 289
f 254 326 327
f 362 367 331
f 331 363 362
f 331 367 334
f 331 258 264
f 57 55 83
f 83 86 57
f 83 55 82
f 82 86 83
f 126 88 87
f 88 58 87
f 87 125 126
f 86 125 87
f 103 104 73
f 27 26 49
f 49 50 27
f 49 25 48
f 49 26 25
f 48 75 49
f 75 50 49
f 34 35 17
f 17 33 34
f 57 58 34
f 34 33 57
f 77 50 76
f 76 81 77
f 51 50 77
f 77 53 51
f 28 12 27
f 28 53 29
f 29 53 54
f 79 80 54
f 54 80 55
f 54 78 79
f 81 78 54
f 54 77 81
f 53 77 54
f 6 7 1
f 1 5 6
f 17 7 6
f 6 16 17
f 6 5 16
f 82 85 120
f 190 244 191
f 191 148 190
f 191 149 148
f 312 394 395
f 190 242 243
f 243 244 190
f 316 245 315
f 315 245 244
f 193 151 150
f 150 149 193
f 148 149 112
f 109 75 108
f 76 75 109
f 109 115 76
f 108 144 109
f 109 144 145
f 190 148 147
f 148 112 147
f 123 85 116
f 152 123 116
f 116 85 84
f 116 151 152
f 116 117 151
f 84 78 116
f 116 78 81
f 81 117 116
f 189 241 190
f 190 147 189
f 187 238 239
f 376 377 295
f 439 377 376
f 186 238 187
f 186 143 184
f 186 187 143
f 184 233 186
f 186 233 238
f 374 438 392
f 242 310 311
f 312 243 311
f 311 243 242
f 389 438 390
f 390 310 389
f 389 392 438
f 310 392 389
f 250 322 323
f 322 252 323
f 312 370 369
f 369 292 312
f 370 292 369
f 324 252 322
f 324 371 325
f 325 252 324
f 445 435 388
f 436 435 445
f 360 435 436
f 232 182 181
f 181 182 140
f 388 307 308
f 237 307 234
f 234 185 237
f 185 236 237
f 236 308 237
f 237 308 307
f 303 384 304
f 303 302 384
f 304 233 303
f 233 302 303
f 378 379 296
f 304 379 378
f 296 377 378
f 378 377 304
f 129 163 130
f 130 89 129
f 130 131 89
f 163 164 130
f 130 164 165
f 135 95 134
f 134 95 93
f 134 133 135
f 134 93 133
f 93 95 65
f 90 91 61
f 61 62 90
f 90 94 91
f 90 62 94
f 405 344 342
f 261 202 260
f 260 338 261
f 261 338 265
f 205 157 204
f 204 265 205
f 205 265 266
f 409 410 346
f 411 348 347
f 347 410 411
f 348 270 347
f 346 410 347
f 347 270 346
f 350 416 417
f 417 352 350
f 416 352 417
f 275 352 351
f 275 273 350
f 350 352 275
f 447 474 483
f 483 484 447
f 474 484 483
f 400 447 448
f 447 484 448
f 448 401 400
f 460 461 416
f 460 488 461
f 455 413 411
f 456 413 455
f 488 460 455
f 416 456 455
f 455 460 416
f 415 416 350
f 415 414 416
f 346 269 345
f 345 409 346
f 345 269 268
f 268 344 345
f 162 128 127
f 127 161 162
f 127 88 126
f 127 128 88
f 126 160 127
f 160 161 127
f 209 164 162
f 162 161 209
f 160 164 209
f 209 161 160
f 482 474 447
f 447 446 482
f 482 446 474
f 298 381 382
f 443 383 382
f 381 442 382
f 382 442 443
f 364 365 285
f 437 365 364
f 364 383 437
f 364 285 301
f 301 300 364
f 228 180 227
f 178 139 138
f 178 180 139
f 475 441 440
f 440 441 381
f 475 477 476
f 476 441 475
f 477 441 476
f 431 356 355
f 355 428 429
f 274 275 351
f 357 356 433
f 425 354 353
f 419 464 465
f 419 420 351
f 351 418 419
f 469 428 468
f 465 464 468
f 425 465 468
f 468 479 469
f 468 464 479
f 201 199 257
f 257 202 201
f 257 256 330
f 126 125 158
f 158 159 126
f 205 159 158
f 158 157 205
f 158 125 157
f 154 196 153
f 153 122 154
f 152 195 154
f 195 196 154
f 153 196 197
f 197 195 254
f 197 196 195
f 82 122 118
f 118 122 153
f 118 119 82
f 118 153 119
f 286 363 340
f 363 331 340
f 264 286 340
f 340 331 264
f 333 334 258
f 333 331 334
f 393 394 312
f 320 394 393
f 393 324 320
f 396 394 320
f 316 395 396
f 396 395 394
f 141 103 140
f 104 103 141
f 141 140 183
f 183 142 141
f 141 142 104
f 35 34 59
f 59 60 35
f 59 34 58
f 89 63 59
f 63 60 59
f 59 88 89
f 59 58 88
f 51 53 52
f 53 28 52
f 27 51 52
f 52 28 27
f 14 5 12
f 12 28 14
f 15 5 14
f 14 30 15
f 29 30 14
f 14 28 29
f 31 30 29
f 29 54 31
f 15 30 31
f 31 55 56
f 31 54 55
f 312 395 313
f 313 243 312
f 149 191 192
f 192 193 149
f 192 191 244
f 245 193 192
f 244 245 192
f 76 115 110
f 115 147 110
f 114 81 76
f 150 117 114
f 114 117 81
f 114 149 150
f 145 189 146
f 146 189 147
f 146 109 145
f 115 109 146
f 146 147 115
f 309 241 240
f 240 239 309
f 294 374 375
f 374 392 375
f 295 294 375
f 375 376 295
f 387 310 309
f 387 392 310
f 387 375 392
f 391 310 390
f 391 311 310
f 390 438 391
f 312 311 391
f 373 312 391
f 391 438 373
f 251 195 250
f 250 323 251
f 251 252 195
f 251 323 252
f 372 292 371
f 371 324 372
f 324 393 372
f 322 320 397
f 397 324 322
f 320 324 397
f 284 222 283
f 283 296 284
f 176 220 221
f 135 173 174
f 219 174 173
f 220 174 219
f 166 211 167
f 166 167 131
f 131 130 166
f 64 65 40
f 93 65 64
f 64 40 39
f 39 61 64
f 61 93 64
f 404 342 403
f 405 342 404
f 343 344 268
f 343 342 344
f 268 266 343
f 343 266 342
f 405 401 406
f 406 344 405
f 407 345 406
f 406 345 344
f 157 202 203
f 202 261 203
f 203 204 157
f 203 261 265
f 265 204 203
f 268 206 267
f 267 266 268
f 267 206 205
f 205 266 267
f 342 266 341
f 265 338 341
f 341 266 265
f 215 169 214
f 273 275 214
f 214 274 215
f 275 274 214
f 131 167 168
f 168 169 131
f 168 167 212
f 168 214 169
f 485 484 461
f 485 448 484
f 413 414 349
f 414 415 349
f 349 415 350
f 348 413 349
f 350 272 349
f 349 272 348
f 298 382 299
f 299 382 383
f 299 231 298
f 300 231 299
f 299 364 300
f 383 364 299
f 230 180 229
f 180 228 229
f 430 429 431
f 431 355 430
f 430 355 429
f 172 217 173
f 172 173 133
f 276 353 354
f 433 473 434
f 434 357 433
f 463 419 418
f 420 419 426
f 416 457 458
f 458 419 416
f 464 419 458
f 458 457 480
f 480 464 458
f 428 355 427
f 427 468 428
f 427 355 354
f 427 354 425
f 425 468 427
f 263 202 262
f 202 257 262
f 262 330 263
f 262 257 330
f 121 154 122
f 121 123 152
f 152 154 121
f 121 85 123
f 121 120 85
f 121 122 82
f 82 120 121
f 153 197 198
f 199 153 198
f 198 257 199
f 256 257 198
f 258 331 332
f 332 333 258
f 331 333 332
f 312 292 368
f 368 393 312
f 292 372 368
f 368 372 393
f 32 33 15
f 15 31 32
f 32 31 56
f 32 56 57
f 57 33 32
f 244 243 314
f 243 313 314
f 316 315 314
f 314 315 244
f 314 395 316
f 314 313 395
f 321 320 322
f 321 248 320
f 321 322 250
f 194 245 246
f 246 245 316
f 316 317 246
f 319 396 320
f 320 248 319
f 111 112 76
f 76 110 111
f 111 147 112
f 111 110 147
f 76 112 113
f 113 114 76
f 113 112 149
f 149 114 113
f 187 239 188
f 239 240 188
f 145 187 188
f 188 189 145
f 305 385 386
f 386 385 439
f 439 376 386
f 376 375 386
f 375 387 306
f 306 386 375
f 306 239 238
f 238 233 306
f 309 239 306
f 306 387 309
f 306 233 305
f 305 386 306
f 222 284 282
f 435 360 361
f 380 435 361
f 360 282 361
f 361 282 284
f 296 380 361
f 361 284 296
f 281 221 220
f 281 219 280
f 220 219 281
f 175 220 176
f 175 174 220
f 175 176 135
f 135 174 175
f 173 217 218
f 218 219 173
f 402 404 403
f 402 401 405
f 405 404 402
f 337 341 338
f 337 402 403
f 403 342 337
f 342 341 337
f 401 402 337
f 337 336 400
f 400 401 337
f 260 336 337
f 337 338 260
f 213 168 212
f 214 168 213
f 212 273 213
f 273 214 213
f 461 488 489
f 488 455 489
f 131 169 170
f 170 169 215
f 171 172 133
f 171 133 131
f 131 170 171
f 217 276 277
f 277 218 217
f 278 218 277
f 277 276 354
f 354 355 277
f 355 278 277
f 357 434 359
f 280 358 359
f 358 357 359
f 422 463 418
f 422 418 351
f 422 352 416
f 351 352 422
f 420 426 421
f 421 426 353
f 421 353 351
f 351 420 421
f 353 426 423
f 466 419 465
f 466 426 419
f 466 467 426
f 466 465 425
f 256 198 255
f 255 198 197
f 255 197 254
f 254 327 255
f 255 327 328
f 328 329 255
f 329 256 255
f 194 248 249
f 248 321 249
f 250 194 249
f 249 321 250
f 247 248 194
f 194 246 247
f 247 246 317
f 247 319 248
f 318 317 316
f 316 396 318
f 396 319 318
f 318 247 317
f 319 247 318
f 219 218 279
f 279 218 278
f 279 358 280
f 280 219 279
f 356 357 279
f 279 357 358
f 279 355 356
f 279 278 355
f 486 485 461
f 461 489 486
f 448 485 486
f 216 170 215
f 216 171 170
f 216 276 217
f 217 172 216
f 172 171 216
f 416 419 459
f 459 422 416
f 419 463 459
f 463 422 459
f 425 353 424
f 353 423 424
f 424 423 426
f 426 467 424
f 424 466 425
f 467 466 424
f 411 410 450
f 410 452 450
f 487 489 455
f 487 486 489
f 454 455 411
f 454 487 455
f 411 450 453
f 453 454 411
f 487 454 453
f 486 487 453
f 449 450 452
f 449 453 450
f 407 406 449
f 410 409 449
f 401 448 449
f 449 406 401
f 448 486 449
f 486 453 449
f 407 449 408
f 408 449 409
f 408 345 407
f 409 345 408
f 451 452 410
f 410 449 451
f 451 449 452
f 136 98 67
f 67 97 136
f 139 137 100
f 136 137 139
f 69 102 138
f 138 100 69
f 72 45 44
f 72 137 97
f 97 67 72
f 100 137 72
f 72 69 100
f 67 46 72
f 72 70 69
f 46 45 72
f 72 71 70
f 269 270 210
f 210 208 269
f 57 86 87
f 87 58 57
f 193 245 194
f 194 151 193
f 166 130 165
f 165 211 166
f 229 297 301
f 301 285 229
f 136 139 229
f 139 179 229
f 227 226 229
f 229 177 136
f 226 297 229
f 229 285 223
f 223 177 229
f 229 225 230
f 229 179 225
f 229 228 227
f 351 353 276
f 276 274 351
f 188 240 241
f 241 189 188
f 282 98 136
f 22 41 282
f 73 47 282
f 282 9 22
f 136 177 282
f 282 96 98
f 66 96 282
f 282 41 66
f 10 9 282
f 177 222 282
f 282 25 10
f 282 235 232
f 47 25 282
f 282 103 73
f 282 445 388
f 282 360 436
f 232 181 282
f 236 235 282
f 140 103 282
f 436 445 282
f 388 308 282
f 282 181 140
f 282 308 236
f 359 68 43
f 43 42 359
f 138 102 359
f 359 23 11
f 359 178 138
f 11 21 359
f 24 23 359
f 359 42 24
f 359 99 68
f 102 101 359
f 40 65 359
f 475 440 359
f 359 381 298
f 359 472 475
f 359 95 135
f 359 21 40
f 298 231 359
f 101 99 359
f 135 176 359
f 359 281 280
f 231 180 359
f 359 473 472
f 359 65 95
f 180 178 359
f 359 440 381
f 176 221 359
f 359 434 473
f 221 281 359
f 274 276 216
f 215 274 216
