v 0.066830 -0.003707 0.038841
v 0.058728 -0.003449 0.037470
v 0.066084 -0.003869 0.038841
v 0.066830 -0.014085 0.038841
v 0.066830 -0.002558 0.038019
v 0.060622 -0.003236 0.037602
v 0.058728 -0.004172 0.037959
v 0.062839 -0.004576 0.038841
v 0.058728 -0.002592 0.036817
v 0.054929 0.005108 0.028687
v 0.066748 -0.026571 0.038841
v 0.066805 -0.026022 0.038285
v 0.066804 -0.039684 0.031425
v 0.066802 -0.045081 0.021736
v 0.066804 -0.043612 0.021736
v 0.066830 0.005719 0.021736
v 0.066830 -0.001874 0.037527
v 0.058728 -0.005489 0.038841
v 0.058728 -0.001818 0.036221
v 0.066830 0.005551 0.030303
v 0.066830 0.005752 0.030048
v 0.054929 0.005276 0.028473
v 0.054929 -0.001034 0.028687
v 0.058910 -0.000182 0.034802
v 0.058910 0.002071 0.032694
v 0.058910 0.002827 0.031962
v 0.058910 0.002906 0.031880
v 0.058910 0.003556 0.031170
v 0.065093 0.004071 0.031738
v 0.066830 0.004211 0.031895
v 0.066830 0.004996 0.030978
v 0.066705 -0.028039 0.038841
v 0.066754 -0.040676 0.031425
v 0.066798 -0.046072 0.022160
v 0.066798 -0.046072 0.021736
v 0.066830 0.011177 0.021736
v 0.066830 -0.001107 0.036904
v 0.059462 -0.001673 0.036221
v 0.058728 -0.017930 0.038841
v 0.058910 -0.001723 0.036170
v 0.058910 -0.001000 0.035536
v 0.066830 0.006184 0.029487
v 0.066830 0.006789 0.028687
v 0.054929 0.005808 0.027739
v 0.054929 -0.046072 0.022863
v 0.065388 -0.000384 0.036080
v 0.066366 -0.000289 0.036159
v 0.066830 0.002396 0.033724
v 0.066830 0.002777 0.033364
v 0.066830 0.003152 0.032992
v 0.066830 0.003516 0.032629
v 0.066279 -0.030538 0.038841
v 0.066681 -0.041152 0.031425
v 0.065965 -0.042699 0.031425
v 0.066191 -0.046072 0.023627
v 0.054929 -0.046072 0.021736
v 0.054936 0.009546 0.021736
v 0.054929 0.009356 0.022111
v 0.066830 0.010975 0.022118
v 0.066830 -0.000277 0.036221
v 0.059307 -0.030538 0.038841
v 0.066830 0.008375 0.026477
v 0.066830 0.008633 0.026117
v 0.054929 0.006094 0.027324
v 0.055823 -0.046072 0.023471
v 0.060858 -0.043338 0.031425
v 0.060612 -0.043214 0.031425
v 0.059539 -0.042043 0.031425
v 0.059381 -0.041752 0.031425
v 0.063150 -0.043646 0.031425
v 0.063715 -0.043601 0.031425
v 0.064618 -0.043523 0.031425
v 0.065559 -0.043125 0.031425
v 0.065471 -0.046072 0.024462
v 0.054929 0.008958 0.021736
v 0.066830 0.010196 0.023565
v 0.054929 0.008963 0.022830
v 0.061686 -0.043612 0.031425
v 0.054929 0.007831 0.024732
v 0.054929 0.007591 0.025094
v 0.054929 0.006733 0.026378
v 0.066830 0.009020 0.025514
v 0.066085 0.009188 0.025094
v 0.056177 -0.046072 0.023702
v 0.056963 -0.046072 0.024183
v 0.062165 -0.046072 0.024685
v 0.063150 -0.046072 0.024685
v 0.064618 -0.046072 0.024625
v 0.058755 -0.046072 0.024648
v 0.059236 -0.046072 0.024672
v 0.060701 -0.046072 0.024682
v 0.066830 0.009821 0.024236
v 0.054929 0.008678 0.023345
v 0.057203 -0.046072 0.024302
v 0.057696 -0.046072 0.024491
v 0.058062 -0.046072 0.024576
v 0.054929 0.008252 0.024081
v 0.066830 0.009328 0.025032
f 70 52 61
f 34 54 55
f 58 57 75
f 36 57 58
f 83 79 63
f 34 35 14
f 10 19 24
f 4 11 12
f 4 14 15
f 15 16 4
f 10 30 31
f 31 20 10
f 10 20 21
f 76 58 77
f 77 93 76
f 76 93 92
f 63 44 62
f 62 44 43
f 43 44 22
f 42 43 22
f 22 21 42
f 10 21 22
f 92 83 98
f 97 83 92
f 79 83 97
f 92 93 97
f 1 2 3
f 2 8 3
f 18 8 7
f 7 8 2
f 10 18 7
f 7 2 10
f 6 2 1
f 29 30 10
f 10 28 29
f 25 26 10
f 10 24 25
f 25 49 26
f 41 24 19
f 30 29 51
f 47 25 24
f 47 37 60
f 52 70 71
f 71 72 52
f 73 54 52
f 52 72 73
f 73 55 54
f 12 11 32
f 52 54 53
f 53 32 52
f 33 32 53
f 53 54 34
f 34 33 53
f 69 68 61
f 36 58 59
f 58 76 59
f 63 79 80
f 80 81 63
f 64 44 63
f 63 81 64
f 82 83 63
f 82 98 83
f 5 6 1
f 17 6 5
f 9 17 19
f 9 6 17
f 2 6 9
f 9 19 10
f 10 2 9
f 27 29 28
f 10 26 27
f 27 28 10
f 26 51 27
f 27 51 29
f 26 49 50
f 50 51 26
f 48 47 60
f 49 25 48
f 25 47 48
f 40 41 19
f 37 47 38
f 17 37 38
f 19 17 38
f 38 40 19
f 41 40 38
f 12 32 13
f 13 32 33
f 13 33 34
f 34 14 13
f 13 4 12
f 14 4 13
f 74 71 70
f 70 88 74
f 72 71 74
f 55 73 74
f 74 73 72
f 78 70 61
f 61 66 78
f 61 68 67
f 67 66 61
f 41 38 46
f 46 38 47
f 24 41 46
f 46 47 24
f 87 88 70
f 96 78 95
f 89 78 96
f 89 90 70
f 70 78 89
f 70 90 91
f 85 78 66
f 86 87 70
f 70 91 86
f 94 95 78
f 78 85 94
f 66 67 45
f 45 67 68
f 68 69 45
f 45 69 61
f 61 39 45
f 39 23 45
f 84 85 66
f 66 45 65
f 65 84 66
f 14 56 75
f 14 57 36
f 75 57 14
f 36 16 14
f 35 56 14
f 14 16 15
f 23 39 18
f 23 18 10
f 32 39 61
f 32 4 1
f 61 52 32
f 18 39 32
f 1 3 32
f 32 8 18
f 11 4 32
f 32 3 8
f 42 21 48
f 30 51 48
f 60 37 48
f 1 4 48
f 63 62 48
f 48 82 63
f 48 31 30
f 48 43 42
f 48 16 36
f 36 59 48
f 48 50 49
f 48 4 16
f 20 31 48
f 48 21 20
f 48 76 92
f 48 62 43
f 92 98 48
f 48 37 17
f 48 5 1
f 48 59 76
f 98 82 48
f 17 5 48
f 51 50 48
f 45 93 77
f 45 58 75
f 79 97 45
f 75 56 45
f 77 58 45
f 45 23 10
f 10 22 45
f 44 64 45
f 45 80 79
f 45 22 44
f 45 97 93
f 81 80 45
f 45 64 81
f 65 56 35
f 65 35 34
f 34 55 65
f 88 87 65
f 65 91 90
f 55 74 65
f 65 74 88
f 65 89 96
f 96 95 65
f 90 89 65
f 95 94 65
f 87 86 65
f 65 86 91
f 65 94 85
f 65 45 56
f 85 84 65
