v -0.027502 0.000351 0.029493
v -0.027261 0.000351 0.030742
v -0.027217 0.001812 0.030666
v -0.027147 0.003289 0.030531
v -0.027407 0.001812 0.029493
v -0.027128 0.003289 0.028628
v -0.027185 0.001812 0.028581
v -0.027217 0.000351 0.028557
v -0.027198 -0.001109 0.028569
v -0.027160 -0.002570 0.028600
v -0.027445 -0.001109 0.029493
v -0.027236 -0.001109 0.030705
v -0.026874 0.000351 0.031476
v -0.026830 0.001812 0.031397
v -0.026760 0.003289 0.031266
v -0.027077 0.004508 0.030385
v -0.027280 0.003289 0.029493
v -0.027058 0.004441 0.028691
v -0.025897 0.007680 0.028504
v -0.026259 0.003289 0.028346
v -0.026259 0.001812 0.028299
v -0.026259 0.000351 0.028277
v -0.026259 -0.001109 0.028288
v -0.026259 -0.002570 0.028318
v -0.026259 -0.004039 0.028382
v -0.027090 -0.004039 0.028662
v -0.027350 -0.002570 0.029493
v -0.027185 -0.002570 0.030606
v -0.026798 -0.002570 0.031340
v -0.026849 -0.001109 0.031437
v -0.026348 0.000351 0.032188
v -0.026291 0.001294 0.032188
v -0.026259 0.001795 0.032188
v -0.026297 -0.001151 0.032188
v -0.026151 0.003047 0.032188
v -0.026126 0.003289 0.032188
v -0.025948 0.004717 0.032188
v -0.026728 0.004892 0.030908
v -0.026976 0.005426 0.029493
v -0.027103 0.004691 0.029493
v -0.026405 0.006219 0.030958
v -0.025745 0.009149 0.030627
v -0.025586 0.010017 0.030327
v -0.025574 0.009983 0.028717
v -0.025707 0.009149 0.028612
v -0.024793 0.007680 0.028223
v -0.024793 0.009149 0.028330
v -0.009104 -0.031900 0.024803
v -0.025999 -0.006977 0.028484
v -0.025821 -0.008446 0.028540
v -0.027027 -0.004924 0.028726
v -0.027204 -0.004039 0.029493
v -0.027039 -0.004974 0.030314
v -0.027109 -0.004039 0.030457
v -0.026716 -0.004039 0.031190
v -0.026050 -0.004039 0.032188
v -0.026202 -0.002570 0.032188
v -0.025542 -0.000759 0.033186
v -0.026164 0.000351 0.032425
v -0.025529 0.001253 0.033177
v -0.025980 0.001770 0.032550
v -0.026018 0.003298 0.032335
v -0.026056 -0.002578 0.032380
v -0.026005 -0.001185 0.032565
v -0.025440 0.003298 0.033066
v -0.025326 0.004750 0.032939
v -0.025942 0.004750 0.032188
v -0.025770 0.006219 0.032008
v -0.026341 0.007680 0.029493
v -0.025624 0.007321 0.031826
v -0.025498 0.008306 0.031634
v -0.025942 0.007771 0.031072
v -0.025605 0.010058 0.029493
v -0.025916 0.009149 0.029493
v -0.025333 0.009149 0.031360
v -0.024127 0.011477 0.031752
v -0.024616 0.011477 0.030906
v -0.024368 0.012003 0.030927
v -0.024184 0.013021 0.030419
v -0.024222 0.013096 0.029492
v -0.024165 0.012996 0.028674
v -0.024356 0.012087 0.028559
v -0.023341 0.012087 0.028278
v -0.023341 0.011477 0.028246
v -0.023328 0.010618 0.028203
v -0.008724 -0.030740 0.024803
v -0.009047 -0.032175 0.024803
v -0.025663 -0.009498 0.028648
v -0.026157 -0.008446 0.029493
v -0.027052 -0.005041 0.029493
v -0.025682 -0.009531 0.030491
v -0.025827 -0.008388 0.030972
v -0.026227 -0.006977 0.030958
v -0.026582 -0.005650 0.030875
v -0.025834 -0.005650 0.032089
v -0.025847 -0.005516 0.032108
v -0.025479 -0.002578 0.033114
v -0.025910 -0.004840 0.032188
v -0.025973 -0.004056 0.032281
v -0.024787 0.000351 0.033901
v -0.025548 0.000351 0.033193
v -0.024749 -0.002578 0.033816
v -0.024927 -0.001185 0.033731
v -0.024000 -0.001101 0.034582
v -0.024914 0.001770 0.033712
v -0.024705 0.003298 0.033786
v -0.024597 0.004750 0.033692
v -0.024419 0.006219 0.033536
v -0.025155 0.006219 0.032740
v -0.025910 0.004908 0.032188
v -0.025244 0.007613 0.032188
v -0.024102 0.008539 0.033217
v -0.024857 0.008823 0.032188
v -0.024299 0.010618 0.031983
v -0.025161 0.007888 0.032188
v -0.024121 0.011477 0.031759
v -0.023569 0.011836 0.032185
v -0.023087 0.012746 0.032185
v -0.022846 0.013547 0.031959
v -0.023893 0.012445 0.031396
v -0.023569 0.013531 0.030927
v -0.022846 0.014649 0.030957
v -0.022357 0.015383 0.030957
v -0.021266 0.017370 0.030417
v -0.022567 0.015692 0.029492
v -0.023772 0.013831 0.029492
v -0.021247 0.017345 0.028676
v -0.022871 0.014732 0.028590
v -0.023353 0.013514 0.028494
v -0.020410 0.016494 0.028274
v -0.021875 0.013547 0.028209
v -0.008578 -0.030423 0.024803
v -0.008533 -0.033394 0.024803
v -0.024260 -0.012494 0.028609
v -0.024387 -0.012736 0.029493
v -0.025003 -0.011384 0.029493
v -0.025739 -0.009690 0.029493
v -0.025402 -0.008822 0.031470
v -0.024299 -0.012536 0.030637
v -0.024565 -0.011459 0.031059
v -0.025225 -0.009974 0.030972
v -0.025580 -0.007853 0.031752
v -0.025770 -0.006977 0.031754
v -0.025758 -0.005642 0.032188
v -0.025675 -0.006977 0.031898
v -0.025808 -0.005383 0.032188
v -0.025390 -0.004056 0.033013
v -0.024654 -0.004056 0.033743
v -0.024019 0.000351 0.034593
v -0.023975 0.001829 0.034564
v -0.023950 -0.002578 0.034546
v -0.023214 -0.002578 0.035044
v -0.023264 -0.001101 0.035074
v -0.023905 0.003298 0.034514
v -0.023785 0.004750 0.034420
v -0.023594 0.006219 0.034267
v -0.024229 0.007680 0.033347
v -0.023245 0.007771 0.034172
v -0.022554 0.008322 0.034596
v -0.023372 0.009082 0.033659
v -0.022916 0.010609 0.033479
v -0.023893 0.009524 0.032988
v -0.024394 0.009975 0.032188
v -0.024121 0.010618 0.032188
v -0.023651 0.010609 0.032714
v -0.022693 0.011569 0.033273
v -0.022440 0.012554 0.033020
v -0.022630 0.013547 0.032185
v -0.022611 0.014298 0.031697
v -0.021317 0.015993 0.031888
v -0.021602 0.016485 0.030927
v -0.020930 0.016969 0.031394
v -0.020391 0.017938 0.030932
v -0.019845 0.018864 0.030469
v -0.019223 0.019682 0.029492
v -0.019915 0.018939 0.029492
v -0.021317 0.017428 0.029492
v -0.022008 0.016494 0.029492
v -0.019826 0.018847 0.028654
v -0.020352 0.017887 0.028534
v -0.021558 0.016494 0.028555
v -0.021996 0.015141 0.028432
v -0.018900 0.019373 0.028515
v -0.018944 0.017954 0.028257
v -0.004023 -0.023345 0.024803
v -0.004759 -0.024346 0.024803
v -0.008172 -0.029713 0.024803
v -0.008413 -0.033536 0.024803
v -0.018341 -0.021049 0.030423
v -0.019705 -0.019464 0.030281
v -0.019122 -0.020198 0.029493
v -0.019712 -0.019464 0.029493
v -0.021019 -0.017819 0.029493
v -0.021590 -0.017085 0.029493
v -0.022325 -0.016100 0.029493
v -0.022725 -0.015240 0.028655
v -0.023988 -0.013462 0.029493
v -0.024019 -0.012002 0.031615
v -0.024216 -0.011042 0.031895
v -0.022751 -0.015265 0.030469
v -0.023816 -0.012953 0.031059
v -0.025066 -0.006977 0.032630
v -0.024444 -0.009915 0.032163
v -0.024793 -0.008446 0.032423
v -0.024184 -0.008045 0.033301
v -0.025225 -0.005658 0.032821
v -0.025237 -0.005516 0.032843
v -0.024489 -0.005658 0.033601
v -0.023848 -0.004056 0.034474
v -0.023283 0.000351 0.035084
v -0.023239 0.001829 0.035059
v -0.023176 0.003298 0.035015
v -0.023112 -0.004056 0.034976
v -0.021710 -0.002478 0.035832
v -0.021888 -0.001101 0.035807
v -0.021856 -0.004056 0.035661
v -0.023049 0.004750 0.034929
v -0.022865 0.006219 0.034800
v -0.022706 0.007337 0.034698
v -0.021977 0.007771 0.035058
v -0.021634 0.009149 0.034941
v -0.021139 0.011369 0.034630
v -0.022370 0.009149 0.034471
v -0.022040 0.010609 0.034209
v -0.021793 0.011970 0.033856
v -0.021399 0.013539 0.033402
v -0.021145 0.014315 0.033183
v -0.022135 0.013539 0.032695
v -0.021875 0.014716 0.032185
v -0.020790 0.016260 0.032185
v -0.020168 0.017003 0.032185
v -0.019953 0.017520 0.031962
v -0.020816 0.015292 0.032867
v -0.019832 0.015968 0.033322
v -0.019496 0.018497 0.031448
v -0.018957 0.019432 0.030972
v -0.018405 0.020325 0.030497
v -0.018487 0.020400 0.029492
v -0.018386 0.020308 0.028645
v -0.017479 0.019423 0.028250
v -0.017371 0.020834 0.028550
v -0.003211 -0.022610 0.024803
v -0.008356 -0.033035 0.026559
v -0.014091 -0.025598 0.030598
v -0.016933 -0.022560 0.030485
v -0.007912 -0.034053 0.024803
v -0.017453 -0.021600 0.030943
v -0.017973 -0.020615 0.031400
v -0.021145 -0.016501 0.031702
v -0.021387 -0.016801 0.030958
v -0.022808 -0.015365 0.029493
v -0.022795 -0.013888 0.031754
v -0.022744 -0.013821 0.031876
v -0.023030 -0.012836 0.032196
v -0.022592 -0.012110 0.033156
v -0.023404 -0.011576 0.032527
v -0.023810 -0.009915 0.032893
v -0.024000 -0.009030 0.033091
v -0.022446 -0.014806 0.031446
v -0.023055 -0.014305 0.030958
v -0.024337 -0.006977 0.033458
v -0.023074 -0.009915 0.033618
v -0.023322 -0.008446 0.033913
v -0.023506 -0.006977 0.034187
v -0.023677 -0.005658 0.034329
v -0.022960 -0.005516 0.034864
v -0.021907 0.000351 0.035816
v -0.021856 0.003298 0.035723
v -0.021856 0.004750 0.035588
v -0.021862 -0.005658 0.035471
v -0.021088 -0.002904 0.036073
v -0.021126 -0.001927 0.036086
v -0.021158 -0.001101 0.036095
v -0.020816 -0.005516 0.035978
v -0.020981 -0.004056 0.036039
v -0.021856 0.006219 0.035393
v -0.020391 0.009149 0.035593
v -0.020333 0.007746 0.035876
v -0.020391 0.010609 0.035259
v -0.020359 0.011953 0.034870
v -0.019851 0.013105 0.034732
v -0.019528 0.014090 0.034546
v -0.020835 0.012345 0.034432
v -0.020359 0.013581 0.034184
v -0.020352 0.014883 0.033520
v -0.019401 0.016936 0.032939
v -0.019521 0.017729 0.032185
v -0.018519 0.019014 0.031995
v -0.018995 0.015125 0.034370
v -0.018912 0.016460 0.033653
v -0.018424 0.017462 0.033350
v -0.018024 0.019982 0.031476
v -0.017428 0.020850 0.030904
v -0.016831 0.021693 0.030333
v -0.017599 0.021134 0.029492
v -0.016812 0.021677 0.028713
v -0.016013 0.021969 0.028584
v -0.016013 0.020884 0.028302
v -0.013082 0.022353 0.028223
v -0.014548 0.020884 0.028195
v -0.014636 0.022453 0.028444
v -0.002475 -0.022118 0.024803
v -0.008121 -0.032785 0.028025
v -0.012670 -0.027084 0.030652
v -0.013190 -0.026149 0.031113
v -0.015138 -0.023670 0.031520
v -0.016559 -0.022151 0.031464
v -0.007651 -0.034279 0.024803
v -0.006992 -0.034279 0.026559
v -0.007582 -0.033761 0.026559
v -0.018449 -0.019697 0.031754
v -0.017098 -0.021258 0.031754
v -0.016984 -0.021158 0.031978
v -0.021025 -0.016592 0.031754
v -0.021114 -0.016476 0.031754
v -0.021000 -0.014840 0.033035
v -0.021621 -0.012836 0.033590
v -0.020981 -0.011877 0.034534
v -0.021926 -0.011501 0.033958
v -0.022814 -0.011125 0.033384
v -0.021304 -0.013855 0.033331
v -0.022218 -0.009915 0.034348
v -0.022649 -0.007853 0.034654
v -0.022440 -0.008822 0.034519
v -0.022776 -0.006977 0.034740
v -0.021862 -0.006977 0.035285
v -0.021171 0.000351 0.036101
v -0.021152 0.001403 0.036095
v -0.021723 0.001854 0.035847
v -0.021050 0.003298 0.036060
v -0.020898 0.004750 0.036011
v -0.020714 0.006219 0.035943
v -0.020587 -0.006977 0.035897
v -0.020251 -0.004056 0.036284
v -0.020511 -0.002478 0.036276
v -0.020391 -0.001101 0.036350
v -0.020080 -0.005516 0.036228
v -0.019858 -0.006977 0.036151
v -0.019401 0.009149 0.036002
v -0.018900 0.010676 0.035897
v -0.019801 0.007304 0.036135
v -0.019598 0.008281 0.036066
v -0.018919 0.012078 0.035542
v -0.018995 0.013581 0.035029
v -0.018557 0.014732 0.034825
v -0.017967 0.018438 0.032973
v -0.018703 0.018597 0.032185
v -0.018107 0.019198 0.032185
v -0.018151 0.015701 0.034601
v -0.017586 0.016627 0.034431
v -0.017466 0.017946 0.033687
v -0.016984 0.018914 0.033360
v -0.017047 0.020391 0.031944
v -0.015448 0.021752 0.031836
v -0.016425 0.021368 0.031312
v -0.016863 0.021710 0.029492
v -0.015962 0.022011 0.030875
v -0.014243 0.023329 0.030633
v -0.015163 0.023004 0.029492
v -0.016013 0.022361 0.029492
v -0.012359 0.024556 0.028754
v -0.014205 0.023288 0.028609
v -0.011617 0.023822 0.028348
v -0.010145 0.023822 0.028212
v -0.002253 -0.022034 0.024803
v -0.007981 -0.032643 0.028818
v -0.011211 -0.028536 0.030629
v -0.012289 -0.026692 0.031629
v -0.007734 -0.032409 0.029795
v -0.012226 -0.026633 0.031754
v 0.002303 -0.034279 0.024803
v 0.037310 -0.057783 0.031306
v 0.036320 -0.057416 0.031306
v 0.033516 -0.056314 0.031306
v 0.032317 -0.055830 0.031306
v 0.028808 -0.054377 0.031306
v 0.026195 -0.053242 0.031306
v 0.025554 -0.052950 0.031306
v 0.022794 -0.051682 0.031306
v 0.020910 -0.050730 0.031306
v 0.014350 -0.047007 0.031755
v 0.012421 -0.045864 0.031755
v 0.007847 -0.043051 0.031755
v 0.007067 -0.042550 0.031755
v -0.006713 -0.034279 0.027286
v -0.007163 -0.033611 0.028105
v -0.017440 -0.020115 0.032425
v -0.015080 -0.022135 0.032997
v -0.016502 -0.020607 0.032954
v -0.019642 -0.016442 0.033143
v -0.017891 -0.019013 0.032871
v -0.020016 -0.015499 0.033468
v -0.020682 -0.012836 0.034320
v -0.020352 -0.014239 0.033890
v -0.019705 -0.013646 0.034645
v -0.019959 -0.012836 0.034790
v -0.020460 -0.011384 0.035004
v -0.021260 -0.010900 0.034704
v -0.021482 -0.009915 0.034846
v -0.021919 -0.008388 0.034967
v -0.020391 -0.009915 0.035439
v -0.020264 -0.008363 0.035794
v -0.020391 0.000351 0.036358
v -0.020524 0.001854 0.036287
v -0.021101 0.002363 0.036079
v -0.020314 0.003298 0.036305
v -0.020168 0.004750 0.036256
v -0.019978 0.006219 0.036193
v -0.019490 -0.008788 0.036032
v -0.019699 -0.007812 0.036098
v -0.018919 -0.004056 0.036593
v -0.018919 -0.002578 0.036644
v -0.018925 -0.005658 0.036508
v -0.018919 -0.001101 0.036667
v -0.018925 -0.006977 0.036415
v -0.018976 -0.008363 0.036253
v -0.018671 0.009149 0.036236
v -0.018398 0.010250 0.036151
v -0.018100 0.011202 0.036060
v -0.017821 0.012078 0.035971
v -0.019033 0.007746 0.036302
v -0.017352 0.013455 0.035786
v -0.017586 0.015125 0.035118
v -0.017174 0.016226 0.034846
v -0.017269 0.019949 0.032185
v -0.016724 0.017211 0.034618
v -0.016140 0.018046 0.034428
v -0.015937 0.019407 0.033619
v -0.015417 0.020266 0.033270
v -0.016394 0.019882 0.032923
v -0.016425 0.020633 0.032185
v -0.015759 0.021151 0.032185
v -0.014522 0.021335 0.032898
v -0.013786 0.021602 0.033153
v -0.014548 0.022027 0.032185
v -0.013723 0.023037 0.031612
v -0.014655 0.022820 0.031057
v -0.012378 0.024573 0.030255
v -0.014433 0.023421 0.029492
v -0.012378 0.024573 0.029492
v -0.011617 0.024932 0.029492
v -0.010145 0.025533 0.029492
v -0.008248 0.026117 0.028665
v -0.011617 0.024723 0.028630
v -0.012942 0.023797 0.028553
v -0.010145 0.025007 0.028494
v -0.007214 0.025283 0.028280
v -0.005748 0.025283 0.028212
v -0.001352 -0.021709 0.024803
v -0.006440 -0.034045 0.028646
v -0.007233 -0.033044 0.029379
v -0.009726 -0.029989 0.030602
v -0.009104 -0.030339 0.030915
v -0.010728 -0.028069 0.031754
v -0.008787 -0.030515 0.031076
v -0.009104 -0.029964 0.031377
v -0.007829 -0.031040 0.031552
v -0.006218 -0.033862 0.029490
v -0.006757 -0.032852 0.030547
v -0.008248 -0.031433 0.030574
v -0.010785 -0.026650 0.033091
v -0.011769 -0.026183 0.032596
v -0.012238 -0.025164 0.033080
v 0.004999 -0.029062 0.024803
v 0.037310 -0.057616 0.031526
v 0.005272 -0.028328 0.024803
v 0.005297 -0.028161 0.024803
v 0.005386 -0.027485 0.024803
v 0.037310 -0.050997 0.031306
v 0.036472 -0.057349 0.031464
v 0.034220 -0.056189 0.031844
v 0.033243 -0.055997 0.031597
v 0.030077 -0.054628 0.031725
v 0.029100 -0.054428 0.031424
v 0.026969 -0.053251 0.031832
v 0.025992 -0.053017 0.031516
v 0.022972 -0.051598 0.031582
v 0.020098 -0.050071 0.031755
v 0.017966 -0.048986 0.031755
v 0.017186 -0.048585 0.031755
v 0.015219 -0.047408 0.031884
v 0.013278 -0.046131 0.032088
v 0.012440 -0.045864 0.031785
v 0.007917 -0.043018 0.031882
v 0.006223 -0.041716 0.032077
v 0.005310 -0.041340 0.031755
v -0.006548 -0.034279 0.027707
v -0.015518 -0.021158 0.033352
v -0.016920 -0.019631 0.033310
v -0.019356 -0.014631 0.034443
v -0.016305 -0.018671 0.034330
v -0.018893 -0.014197 0.034877
v -0.018925 -0.012836 0.035331
v -0.018817 -0.011301 0.035789
v -0.019217 -0.009915 0.035944
v -0.018919 0.000351 0.036672
v -0.018919 0.001829 0.036657
v -0.018919 0.003298 0.036622
v -0.018919 0.004750 0.036558
v -0.018919 0.006219 0.036471
v -0.018481 -0.009915 0.036177
v -0.018919 -0.005516 0.036517
v -0.017460 -0.006977 0.036681
v -0.017460 -0.005658 0.036724
v -0.017460 -0.005516 0.036728
v -0.017460 -0.004056 0.036752
v -0.017460 -0.008454 0.036589
v -0.017460 -0.002578 0.036765
v -0.017460 -0.001101 0.036774
v -0.017460 -0.009915 0.036440
v -0.017460 0.009149 0.036523
v -0.017548 0.010676 0.036301
v -0.017079 0.012078 0.036190
v -0.016800 0.012913 0.036107
v -0.016381 0.013889 0.035995
v -0.015931 0.014958 0.035826
v -0.016140 0.016627 0.035139
v -0.015747 0.017637 0.034849
v -0.015176 0.018605 0.034586
v -0.014624 0.019457 0.034315
v -0.014522 0.020592 0.033535
v -0.013545 0.019966 0.034522
v -0.013177 0.020942 0.033964
v -0.012809 0.021860 0.033405
v -0.010931 0.023112 0.033198
v -0.011915 0.022854 0.032926
v -0.012955 0.022971 0.032185
v -0.013450 0.022678 0.032185
v -0.012752 0.023304 0.031947
v -0.010868 0.024548 0.031684
v -0.011617 0.024348 0.031343
v -0.011617 0.024765 0.030609
v -0.008286 0.026134 0.030438
v -0.008425 0.026176 0.029492
v -0.007214 0.026535 0.029492
v -0.005748 0.026852 0.029492
v -0.002164 0.027411 0.029294
v -0.007214 0.026259 0.028562
v -0.005748 0.026401 0.028492
v -0.004283 0.026518 0.028478
v -0.002817 0.026660 0.028478
v -0.002164 0.026693 0.028478
v -0.004283 0.025283 0.028197
v 0.000107 -0.021559 0.024803
v -0.006237 -0.034279 0.028466
v -0.005716 -0.034279 0.029490
v -0.007734 -0.030940 0.031752
v -0.007296 -0.031958 0.031050
v -0.006332 -0.032484 0.031526
v -0.005253 -0.034279 0.030259
v -0.005767 -0.033361 0.030980
v -0.005114 -0.034279 0.030473
v -0.006313 -0.030982 0.033034
v -0.006827 -0.030014 0.033405
v -0.009802 -0.027117 0.033437
v -0.011255 -0.025673 0.033449
v -0.012676 -0.024196 0.033418
v 0.037310 -0.057349 0.031866
v 0.005348 -0.026216 0.024803
v 0.037310 0.007287 0.031544
v 0.030877 -0.054786 0.031916
v 0.035267 -0.056397 0.032080
v 0.032336 -0.054453 0.032983
v 0.028929 -0.053034 0.033047
v 0.027946 -0.052817 0.032813
v 0.025814 -0.051631 0.033124
v 0.022781 -0.050221 0.033173
v 0.023942 -0.051815 0.031890
v 0.020910 -0.050304 0.031992
v 0.020910 -0.050438 0.031808
v 0.018049 -0.048927 0.031931
v 0.016342 -0.047617 0.032394
v 0.015942 -0.047007 0.032861
v 0.014109 -0.045739 0.033103
v 0.013278 -0.045497 0.032819
v 0.008602 -0.042584 0.032858
v 0.006845 -0.041282 0.033053
v 0.003616 -0.040063 0.031848
v 0.001059 -0.038285 0.031755
v -0.014820 -0.020398 0.034324
v -0.015880 -0.020014 0.033820
v -0.015271 -0.019414 0.034626
v -0.016641 -0.017819 0.034573
v -0.018379 -0.015274 0.034718
v -0.017460 -0.014297 0.035525
v -0.017460 -0.012903 0.035912
v -0.017948 -0.011735 0.036012
v -0.018259 -0.010741 0.036103
v -0.017460 0.000351 0.036774
v -0.017460 0.001829 0.036769
v -0.017460 0.003298 0.036759
v -0.017460 0.004750 0.036743
v -0.017460 0.006219 0.036710
v -0.017460 0.007680 0.036639
v -0.017460 -0.011301 0.036234
v -0.015994 -0.009915 0.036678
v -0.015994 -0.008454 0.036744
v 0.037310 -0.034796 0.039835
v 0.037310 -0.034229 0.039849
v 0.037310 -0.032835 0.039874
v 0.037310 -0.031892 0.039889
v 0.037310 -0.030348 0.039903
v -0.015994 -0.011384 0.036548
v -0.015988 0.010609 0.036619
v -0.015988 0.012078 0.036446
v -0.015931 0.013455 0.036209
v -0.015404 0.014415 0.036120
v -0.014922 0.015409 0.036005
v -0.014471 0.016402 0.035822
v -0.014624 0.018046 0.035094
v -0.014205 0.018998 0.034791
v -0.013057 0.019457 0.034987
v -0.012568 0.020291 0.034706
v -0.011598 0.021293 0.034404
v -0.011496 0.022345 0.033595
v -0.010132 0.023288 0.033372
v -0.010468 0.024256 0.032185
v -0.011299 0.023864 0.032185
v -0.010189 0.022286 0.034175
v -0.012143 0.023413 0.032185
v -0.009891 0.024723 0.031906
v -0.006497 0.026025 0.031697
v -0.007474 0.025858 0.031415
v -0.008736 0.025700 0.030939
v -0.010291 0.025074 0.031100
v -0.007080 0.026242 0.030939
v -0.005748 0.026543 0.030957
v -0.002164 0.027486 0.030184
v -0.002164 0.027486 0.029954
v -0.002697 0.027378 0.029496
v 0.006179 0.025650 0.032188
v 0.008881 0.024823 0.032188
v 0.009636 0.024556 0.032188
v 0.010233 0.024306 0.032188
v 0.010677 0.024114 0.032188
v -0.002164 0.025283 0.028194
v -0.002817 0.025283 0.028194
v 0.011920 0.023505 0.032188
v 0.012605 0.023154 0.032188
v 0.013132 0.022870 0.032188
v 0.020910 0.017395 0.031544
v 0.001579 -0.021801 0.024803
v -0.006833 -0.031483 0.032058
v -0.004771 -0.032409 0.032979
v -0.006218 -0.032359 0.031752
v -0.004765 -0.033870 0.031414
v -0.002253 -0.035673 0.031755
v -0.005450 -0.033010 0.031752
v -0.005330 -0.032877 0.032005
v -0.000616 -0.037008 0.031755
v -0.004498 -0.034279 0.031159
v -0.005831 -0.031933 0.032519
v -0.005336 -0.031424 0.033387
v -0.005704 -0.030364 0.033885
v -0.006072 -0.029279 0.034379
v -0.008686 -0.027485 0.033916
v -0.010157 -0.026032 0.033931
v -0.010525 -0.024922 0.034423
v -0.011610 -0.024555 0.033921
v 0.037310 -0.056130 0.033220
v 0.036320 -0.055938 0.033035
v 0.035267 -0.055755 0.032812
v 0.005227 -0.025623 0.024803
v 0.005195 -0.025482 0.024803
v 0.004815 -0.024555 0.024803
v 0.004123 -0.023445 0.024803
v 0.013563 0.022612 0.032188
v 0.014655 0.021911 0.032188
v 0.037310 0.007087 0.031850
v 0.033091 -0.054594 0.033149
v 0.029900 -0.053226 0.033250
v 0.026791 -0.051848 0.033340
v 0.025973 -0.050071 0.034536
v 0.022972 -0.048652 0.034568
v 0.020910 -0.049052 0.033397
v 0.019825 -0.048752 0.033183
v 0.020910 -0.049820 0.032561
v 0.022210 -0.050571 0.032419
v 0.026385 -0.050972 0.033935
v 0.019260 -0.049119 0.032420
v 0.016919 -0.047275 0.033170
v 0.014693 -0.045096 0.033925
v 0.013278 -0.044762 0.033520
v 0.009579 -0.042884 0.033177
v 0.011349 -0.044153 0.032986
v 0.007822 -0.041607 0.033338
v 0.005950 -0.040230 0.033408
v 0.005183 -0.039963 0.033183
v 0.002575 -0.038285 0.032979
v 0.004231 -0.039621 0.032822
v 0.000913 -0.036950 0.033118
v 0.000126 -0.037309 0.032054
v -0.011965 -0.023412 0.034391
v -0.014529 -0.018671 0.035251
v -0.015575 -0.018671 0.034772
v -0.010988 -0.023946 0.034686
v -0.011528 -0.022986 0.034846
v -0.016096 -0.017277 0.035052
v -0.016077 -0.014447 0.035977
v -0.014440 -0.017127 0.035800
v -0.016971 -0.012452 0.036157
v -0.016609 -0.013429 0.036054
v -0.015988 0.006219 0.036790
v -0.015988 0.007680 0.036763
v -0.015988 0.009149 0.036718
v -0.016077 -0.012903 0.036298
v -0.014529 -0.012836 0.036599
v -0.014529 -0.011384 0.036718
v 0.037310 -0.036274 0.039778
v 0.037310 -0.028929 0.039863
v -0.014522 0.010609 0.036749
v -0.014522 0.009149 0.036789
v -0.013057 -0.015733 0.036452
v -0.014522 0.012078 0.036667
v -0.014522 0.013539 0.036491
v -0.014471 0.014958 0.036224
v -0.013951 0.015884 0.036120
v -0.013342 0.016852 0.035984
v -0.012936 0.017812 0.035752
v -0.011598 0.019407 0.035467
v -0.011598 0.020558 0.034868
v -0.010716 0.021535 0.034571
v -0.008667 0.022720 0.034358
v -0.008667 0.023563 0.033629
v -0.006732 0.024632 0.033260
v -0.008667 0.024289 0.032889
v -0.010113 0.024389 0.032185
v -0.009739 0.021769 0.034728
v -0.008679 0.024899 0.032185
v -0.008679 0.024924 0.032156
v -0.005748 0.026092 0.031789
v -0.004283 0.026802 0.030957
v -0.006935 0.025475 0.032185
v -0.005736 0.024748 0.033383
v -0.005748 0.025767 0.032185
v -0.002164 0.027461 0.030275
v 0.003051 0.026201 0.032188
v 0.004517 0.025992 0.032188
v 0.005132 0.025875 0.032188
v 0.007378 0.025032 0.032505
v 0.006046 0.025550 0.032351
v 0.006870 0.024598 0.033221
v 0.008881 0.024256 0.032853
v 0.010093 0.023304 0.033393
v 0.010525 0.023889 0.032519
v 0.011070 0.023071 0.033151
v 0.003292 -0.022710 0.024803
v 0.002556 -0.022185 0.024803
v 0.011812 0.022879 0.032948
v 0.012948 0.021835 0.033380
v 0.013405 0.022411 0.032507
v -0.002215 -0.035639 0.031824
v 0.000126 -0.036641 0.032784
v -0.000667 -0.035573 0.033193
v -0.002240 -0.034195 0.033258
v -0.004175 -0.031783 0.033844
v -0.004549 -0.030723 0.034360
v -0.005095 -0.029755 0.034666
v -0.007556 -0.027844 0.034394
v -0.009047 -0.026383 0.034410
v -0.009548 -0.025415 0.034694
v 0.037310 -0.054778 0.034432
v 0.036472 -0.054428 0.034475
v 0.035267 -0.055003 0.033545
v 0.034074 -0.054786 0.033329
v 0.013925 0.021543 0.033106
v 0.037310 0.006403 0.032608
v 0.030877 -0.053418 0.033427
v 0.027946 -0.052099 0.033559
v 0.027946 -0.051264 0.034286
v 0.026950 -0.050304 0.034703
v 0.019260 -0.048017 0.033578
v 0.023949 -0.048885 0.034720
v 0.018106 -0.045964 0.034720
v 0.020047 -0.047174 0.034564
v 0.019140 -0.046941 0.034394
v 0.017674 -0.047475 0.033349
v 0.017135 -0.045705 0.034548
v 0.014306 -0.044153 0.034500
v 0.013278 -0.043852 0.034250
v 0.009763 -0.041307 0.034562
v 0.009008 -0.042108 0.033536
v 0.008881 -0.041031 0.034344
v 0.007441 -0.040664 0.033890
v 0.005900 -0.039187 0.034191
v 0.001890 -0.037309 0.033409
v 0.001516 -0.036315 0.033943
v 0.000069 -0.034821 0.034218
v 0.000126 -0.035898 0.033445
v -0.013025 -0.018654 0.035844
v -0.010132 -0.023078 0.035417
v -0.013057 -0.020131 0.035312
v -0.010081 -0.024472 0.034874
v -0.013494 -0.017577 0.036010
v -0.015639 -0.014038 0.036185
v -0.013900 -0.016592 0.036110
v -0.013025 -0.017127 0.036211
v -0.011591 -0.017202 0.036493
v -0.013057 -0.014297 0.036635
v -0.011591 -0.015733 0.036670
v 0.037310 -0.037743 0.039649
v 0.037310 -0.028361 0.039838
v -0.008667 0.015000 0.036784
v -0.011598 0.013539 0.036762
v -0.013057 0.012078 0.036763
v -0.013057 0.013539 0.036678
v -0.013057 0.015000 0.036486
v -0.012936 0.016402 0.036196
v -0.012365 0.017236 0.036092
v -0.011598 0.018221 0.035949
v -0.010126 0.019340 0.035841
v -0.008667 0.020876 0.035473
v -0.010189 0.020976 0.035055
v -0.007499 0.022920 0.034515
v -0.008667 0.021977 0.034862
v -0.006522 0.023087 0.034632
v -0.005736 0.023922 0.034113
v -0.004283 0.026034 0.032185
v -0.004283 0.026217 0.031959
v -0.002697 0.027110 0.030816
v -0.004264 0.024865 0.033514
v -0.002805 0.025725 0.032834
v -0.004264 0.025600 0.032694
v -0.004264 0.024064 0.034244
v -0.002164 0.027110 0.030881
v 0.000101 0.026368 0.032188
v 0.000126 0.026368 0.032188
v 0.001592 0.026343 0.032188
v 0.003051 0.025700 0.032812
v 0.004517 0.025583 0.032673
v 0.005950 0.024723 0.033352
v 0.006077 0.023738 0.034184
v 0.007378 0.023889 0.033705
v 0.008881 0.023530 0.033607
v 0.008881 0.022678 0.034336
v 0.010474 0.022403 0.033968
v 0.011812 0.021243 0.034363
v 0.011812 0.022136 0.033634
v 0.013322 0.020909 0.033930
v -0.001231 -0.034730 0.033488
v -0.001460 -0.033394 0.034326
v -0.002024 -0.032551 0.034595
v -0.003579 -0.031166 0.034641
v -0.004143 -0.030298 0.034817
v -0.004270 -0.028929 0.035381
v -0.005647 -0.028845 0.034843
v -0.008064 -0.026867 0.034686
v -0.008603 -0.025941 0.034874
v 0.037310 -0.054444 0.034712
v 0.034233 -0.053259 0.034712
v 0.035267 -0.054194 0.034274
v 0.037310 0.005693 0.033341
v 0.030877 -0.052591 0.034157
v 0.032336 -0.052875 0.034407
v 0.030071 -0.051682 0.034641
v 0.031689 -0.050171 0.036066
v 0.027946 -0.049470 0.035480
v 0.030877 -0.051848 0.034759
v 0.030877 -0.050930 0.035371
v 0.023492 -0.048084 0.035049
v 0.019140 -0.046231 0.034870
v 0.017643 -0.045163 0.035013
v 0.015276 -0.044428 0.034686
v 0.012517 -0.042884 0.034630
v 0.008881 -0.040297 0.034811
v 0.008025 -0.040005 0.034669
v 0.007048 -0.039662 0.034438
v 0.005386 -0.038352 0.034550
v 0.002772 -0.036666 0.034380
v 0.001142 -0.035297 0.034478
v -0.000457 -0.033920 0.034540
v -0.010151 -0.021642 0.035894
v -0.012073 -0.019113 0.036021
v -0.008711 -0.023119 0.035919
v -0.008673 -0.024538 0.035442
v -0.012517 -0.018128 0.036126
v -0.011585 -0.018654 0.036234
v -0.008711 -0.021642 0.036270
v -0.008673 -0.020131 0.036540
v -0.007201 -0.021600 0.036561
v -0.008673 -0.018671 0.036698
v 0.037310 -0.040030 0.039447
v 0.037310 -0.025999 0.039729
v -0.007201 0.016485 0.036752
v -0.010132 0.015000 0.036740
v -0.011598 0.015000 0.036654
v -0.010132 0.016485 0.036599
v -0.011598 0.016485 0.036416
v -0.011598 0.017487 0.036169
v -0.010601 0.018522 0.036041
v -0.008667 0.019774 0.035961
v -0.007100 0.020742 0.035791
v -0.005736 0.021034 0.035874
v -0.005736 0.022336 0.035216
v -0.007087 0.022395 0.034948
v -0.005736 0.023188 0.034692
v -0.002817 0.026259 0.032185
v -0.002817 0.026326 0.032101
v -0.002805 0.024990 0.033624
v -0.002805 0.024197 0.034354
v -0.002157 0.025758 0.032864
v -0.002164 0.026676 0.031600
v -0.001371 0.026343 0.032188
v -0.001345 0.025775 0.032899
v 0.000126 0.025792 0.032907
v 0.001592 0.025775 0.032893
v 0.003051 0.024965 0.033603
v 0.004517 0.024857 0.033499
v 0.004517 0.024056 0.034230
v 0.005665 0.023204 0.034704
v 0.006642 0.023054 0.034611
v 0.007422 0.022937 0.034522
v 0.008881 0.021944 0.034834
v 0.009877 0.021744 0.034701
v 0.010861 0.021493 0.034543
v 0.012720 0.020258 0.034689
v 0.013703 0.019907 0.034481
v 0.037310 0.004157 0.034536
v 0.037310 0.004767 0.034074
v 0.000520 -0.034329 0.034750
v -0.001047 -0.032960 0.034797
v -0.002805 -0.031483 0.034800
v -0.001460 -0.031984 0.035097
v -0.004333 -0.027510 0.035902
v -0.005736 -0.027468 0.035409
v 0.000177 -0.031783 0.035761
v -0.007201 -0.026007 0.035429
v 0.037310 -0.053893 0.035102
v 0.036872 -0.053910 0.034981
v 0.035267 -0.053451 0.034865
v 0.032336 -0.052141 0.034964
v 0.036732 -0.050930 0.036783
v 0.037310 -0.049837 0.037408
v 0.029690 -0.048952 0.036182
v 0.028720 -0.048718 0.036076
v 0.034778 -0.051540 0.036021
v 0.035755 -0.051748 0.036143
v 0.027946 -0.048510 0.035987
v 0.025015 -0.047984 0.035507
v 0.035267 -0.052308 0.035658
v 0.019140 -0.045063 0.035463
v 0.016215 -0.043594 0.035405
v 0.013278 -0.042141 0.035256
v 0.010296 -0.040764 0.035022
v 0.008881 -0.039195 0.035352
v 0.007498 -0.039187 0.034892
v 0.005900 -0.037809 0.035015
v 0.003755 -0.037033 0.034633
v 0.002119 -0.035673 0.034701
v -0.009231 -0.022143 0.036045
v -0.009675 -0.021183 0.036147
v -0.007271 -0.024597 0.035922
v -0.007791 -0.023662 0.036052
v -0.005812 -0.026066 0.035916
v -0.008254 -0.022677 0.036157
v -0.007271 -0.023119 0.036282
v -0.005736 -0.023078 0.036571
v -0.005736 -0.021600 0.036721
v 0.037310 -0.040664 0.039382
v 0.037310 -0.024530 0.039648
v -0.004264 0.017946 0.036721
v -0.005736 0.016485 0.036777
v -0.008667 0.016485 0.036703
v -0.005736 0.017946 0.036678
v -0.007201 0.017946 0.036599
v -0.008667 0.017946 0.036475
v -0.010126 0.017996 0.036274
v -0.009618 0.018797 0.036122
v -0.008667 0.019023 0.036197
v -0.007518 0.019999 0.036038
v -0.006548 0.020174 0.036092
v -0.005736 0.020300 0.036135
v -0.004264 0.021209 0.035943
v -0.004264 0.022336 0.035384
v -0.004264 0.023321 0.034794
v -0.002690 0.026267 0.032185
v -0.002164 0.026301 0.032185
v -0.002164 0.026343 0.032129
v -0.001345 0.025049 0.033674
v -0.002805 0.023455 0.034879
v -0.001345 0.024256 0.034404
v 0.000126 0.025057 0.033681
v 0.001592 0.025049 0.033669
v 0.003051 0.024164 0.034332
v 0.004517 0.023321 0.034784
v 0.004517 0.022336 0.035371
v 0.006077 0.022478 0.035077
v 0.007422 0.022211 0.035001
v 0.008881 0.020876 0.035427
v 0.010360 0.020942 0.035015
v 0.011812 0.020508 0.034840
v 0.011812 0.019407 0.035412
v 0.013240 0.019423 0.034944
v 0.037310 0.003306 0.035052
v 0.037310 0.003882 0.034712
v 0.001617 -0.034821 0.034936
v -0.004854 -0.026592 0.036048
v 0.000697 -0.031241 0.036122
v 0.003051 -0.034796 0.035448
v 0.001725 -0.033185 0.035684
v 0.001332 -0.032217 0.035949
v 0.037310 -0.052783 0.035869
v 0.036732 -0.052691 0.035800
v 0.037310 -0.051531 0.036593
v 0.037310 -0.050872 0.036929
v 0.036732 -0.051949 0.036253
v 0.037310 -0.049152 0.037671
v 0.036732 -0.048952 0.037634
v 0.035958 -0.048752 0.037557
v 0.026778 -0.047475 0.036175
v 0.025801 -0.047216 0.036073
v 0.025015 -0.047016 0.035984
v 0.026366 -0.047984 0.035853
v 0.017681 -0.043519 0.035807
v 0.017199 -0.042709 0.036041
v 0.011812 -0.040672 0.035516
v 0.010391 -0.039120 0.035803
v 0.007416 -0.037743 0.035545
v 0.004517 -0.036274 0.035269
v 0.003178 -0.036207 0.034828
v -0.006338 -0.025139 0.036054
v -0.006820 -0.024163 0.036162
v -0.005812 -0.024597 0.036286
v -0.004270 -0.024538 0.036573
v 0.037310 -0.041841 0.039229
v 0.037310 -0.022994 0.039520
v 0.004517 0.017938 0.036716
v 0.003051 0.017938 0.036737
v 0.001592 0.017938 0.036747
v 0.000126 0.017938 0.036752
v -0.001345 0.017938 0.036749
v -0.002805 0.017946 0.036740
v -0.001345 0.019407 0.036573
v -0.002805 0.019407 0.036537
v -0.004264 0.019407 0.036480
v -0.005736 0.019407 0.036395
v -0.007100 0.019465 0.036255
v -0.004264 0.020467 0.036197
v -0.002805 0.021335 0.035990
v -0.002805 0.022336 0.035519
v -0.001345 0.023521 0.034923
v 0.000126 0.023530 0.034927
v 0.000126 0.024256 0.034410
v 0.001592 0.024239 0.034398
v 0.003051 0.023421 0.034861
v 0.003051 0.022336 0.035492
v 0.004517 0.021176 0.035939
v 0.005950 0.021001 0.035860
v 0.007276 0.020734 0.035772
v 0.008881 0.019715 0.035943
v 0.010296 0.019315 0.035813
v 0.010753 0.018497 0.036032
v 0.011939 0.017979 0.035950
v 0.037310 0.001161 0.036113
v 0.037310 0.001870 0.035789
v -0.003883 -0.027042 0.036168
v 0.002315 -0.032601 0.036086
v 0.001725 -0.031783 0.036181
v 0.003051 -0.031858 0.036387
v -0.004333 -0.026066 0.036287
v 0.004479 -0.034796 0.035878
v 0.003051 -0.033594 0.035930
v 0.037310 -0.052049 0.036316
v 0.037310 -0.048560 0.037859
v 0.023923 -0.045997 0.036157
v 0.014458 -0.041131 0.036005
v 0.037310 -0.047984 0.038027
v 0.012688 -0.039854 0.036061
v 0.009941 -0.038243 0.036029
v 0.008786 -0.037743 0.035922
v 0.005595 -0.035264 0.036011
v -0.005361 -0.025615 0.036166
v 0.003051 -0.030389 0.036639
v 0.037310 -0.042141 0.039188
v 0.037310 -0.020140 0.039251
v 0.005950 0.017938 0.036669
v 0.003051 0.019407 0.036528
v 0.001592 0.019407 0.036567
v 0.000126 0.019407 0.036582
v 0.000126 0.020684 0.036274
v -0.001345 0.020667 0.036268
v -0.002805 0.020600 0.036242
v -0.001345 0.021410 0.036015
v -0.001345 0.022336 0.035587
v 0.001592 0.023513 0.034914
v 0.000126 0.022336 0.035596
v 0.001592 0.022336 0.035575
v 0.003051 0.021310 0.035983
v 0.004517 0.020450 0.036190
v 0.005950 0.020266 0.036123
v 0.006686 0.020141 0.036085
v 0.007670 0.019974 0.036032
v 0.008881 0.018981 0.036181
v 0.009776 0.018755 0.036109
v 0.010296 0.017979 0.036255
v 0.011527 0.017520 0.036177
v 0.037310 0.000376 0.036355
v 0.006033 -0.034796 0.036215
v 0.004479 -0.033394 0.036276
v 0.004517 -0.031858 0.036588
v 0.007416 -0.034796 0.036434
v 0.005950 -0.033319 0.036517
v 0.037310 -0.047416 0.038172
v 0.010391 -0.037743 0.036237
v 0.009211 -0.037275 0.036156
v 0.008234 -0.036950 0.036069
v 0.037310 -0.042842 0.039064
v 0.037310 -0.018679 0.039092
v 0.008881 0.016460 0.036691
v 0.007422 0.017938 0.036583
v 0.004517 0.019407 0.036469
v 0.003051 0.020575 0.036234
v 0.001592 0.020659 0.036265
v 0.001592 0.021401 0.036011
v 0.000126 0.021426 0.036018
v 0.005950 0.019407 0.036379
v 0.007276 0.019457 0.036242
v 0.008881 0.017938 0.036452
v 0.010347 0.016460 0.036579
v 0.037310 -0.001109 0.036712
v 0.008786 -0.036365 0.036305
v 0.037310 -0.046532 0.038375
v 0.037310 -0.045964 0.038487
v 0.037310 -0.017744 0.038981
v 0.037310 -0.014314 0.038560
v 0.037310 -0.012836 0.038369
v 0.037310 -0.007336 0.037611
v 0.037310 -0.002578 0.036938
f 372 468 469
f 468 560 469
f 372 308 371
f 560 636 542
f 666 636 560
f 372 371 464
f 372 464 466
f 299 364 302
f 537 635 542
f 560 542 641
f 559 560 468
f 665 666 560
f 560 664 665
f 748 642 636
f 850 849 930
f 380 381 308
f 308 379 380
f 1 10 11
f 467 468 372
f 372 466 467
f 240 299 300
f 636 642 544
f 447 448 364
f 46 48 21
f 48 22 21
f 801 709 800
f 800 882 801
f 959 882 957
f 957 1024 959
f 602 506 601
f 800 709 708
f 709 596 708
f 597 596 709
f 1024 957 1023
f 536 537 443
f 640 641 542
f 663 664 560
f 560 559 663
f 636 666 747
f 747 748 636
f 1021 997 1056
f 308 376 377
f 308 381 382
f 26 11 10
f 364 448 449
f 543 448 542
f 544 449 543
f 543 449 448
f 542 448 541
f 448 540 541
f 541 537 542
f 443 537 538
f 298 299 240
f 443 538 446
f 446 538 447
f 23 22 48
f 48 24 23
f 48 49 25
f 25 24 48
f 10 24 25
f 25 26 10
f 49 26 25
f 46 21 20
f 7 20 21
f 131 186 187
f 185 186 131
f 602 589 509
f 602 592 591
f 881 882 800
f 880 881 800
f 957 881 880
f 600 601 506
f 598 597 709
f 707 708 596
f 596 603 707
f 954 997 1021
f 710 711 602
f 1075 1027 1026
f 1026 1027 960
f 703 592 602
f 604 705 714
f 714 705 711
f 628 631 629
f 629 631 537
f 629 536 628
f 537 631 632
f 542 635 638
f 560 641 667
f 641 640 667
f 558 660 661
f 763 849 850
f 850 930 931
f 935 857 856
f 1003 931 930
f 1122 1121 1103
f 1103 1121 1104
f 1104 1067 1103
f 1107 1074 1100
f 959 1024 1025
f 1024 1074 1025
f 1073 1074 1024
f 1100 1074 1073
f 1021 1056 1072
f 378 379 308
f 308 377 378
f 857 939 860
f 939 861 860
f 856 857 771
f 771 859 856
f 381 380 480
f 381 480 481
f 481 480 571
f 681 571 676
f 478 380 379
f 383 384 308
f 308 382 383
f 11 26 27
f 27 26 51
f 28 11 27
f 243 188 246
f 302 364 365
f 364 449 365
f 636 544 637
f 544 543 637
f 637 542 636
f 637 543 542
f 447 538 539
f 539 540 448
f 448 447 539
f 539 538 537
f 537 541 539
f 539 541 540
f 628 536 533
f 359 361 296
f 363 447 364
f 363 446 447
f 364 299 363
f 9 10 1
f 9 24 10
f 9 23 24
f 8 21 22
f 8 7 21
f 22 23 8
f 23 9 8
f 1 7 8
f 8 9 1
f 20 7 6
f 6 7 1
f 131 187 132
f 242 185 240
f 240 300 242
f 242 299 302
f 242 300 299
f 240 185 184
f 184 183 240
f 17 40 18
f 508 506 602
f 602 509 508
f 590 589 602
f 602 591 590
f 1 11 12
f 12 11 28
f 28 29 12
f 40 17 16
f 958 957 882
f 882 881 958
f 958 881 957
f 800 798 879
f 879 880 800
f 956 1023 957
f 957 880 956
f 505 598 599
f 599 600 505
f 505 600 506
f 597 598 505
f 496 509 589
f 589 590 496
f 496 590 591
f 263 324 323
f 322 324 263
f 798 707 713
f 713 707 603
f 799 798 800
f 799 707 798
f 800 708 799
f 708 707 799
f 997 954 924
f 260 201 200
f 925 924 954
f 700 794 699
f 1127 1119 1126
f 1076 1027 1075
f 805 710 804
f 711 710 805
f 805 714 711
f 1032 960 1031
f 960 1030 1031
f 1079 1031 1030
f 1032 1031 1079
f 602 711 712
f 537 536 630
f 630 629 537
f 536 629 630
f 537 632 633
f 739 631 628
f 628 738 739
f 639 640 542
f 542 638 639
f 1095 1119 1120
f 1120 1097 1095
f 1095 1097 1096
f 1118 1119 1095
f 662 558 661
f 849 763 762
f 762 763 660
f 938 939 857
f 857 935 938
f 932 933 856
f 934 935 856
f 856 933 934
f 934 933 935
f 929 930 849
f 929 1003 930
f 1004 932 1006
f 1003 1002 1006
f 856 859 936
f 931 1003 940
f 940 936 859
f 1003 936 940
f 1123 1107 1102
f 1102 1107 1100
f 1069 1104 1105
f 1105 1104 1121
f 998 926 1001
f 998 924 926
f 998 1056 997
f 997 924 998
f 470 465 558
f 470 558 471
f 373 308 372
f 373 374 308
f 372 465 373
f 465 470 373
f 373 470 471
f 857 860 773
f 773 771 857
f 674 771 773
f 773 860 861
f 773 774 674
f 861 774 773
f 859 771 858
f 858 940 859
f 931 940 858
f 850 931 858
f 676 772 777
f 777 681 676
f 572 481 571
f 571 681 572
f 574 681 682
f 477 478 379
f 379 378 477
f 571 480 479
f 479 478 571
f 479 480 380
f 380 478 479
f 569 477 568
f 384 383 484
f 458 546 550
f 550 459 458
f 546 579 550
f 946 866 945
f 203 258 204
f 204 142 203
f 28 27 54
f 27 53 54
f 54 29 28
f 92 53 91
f 135 134 197
f 386 366 310
f 188 189 133
f 737 738 628
f 829 738 737
f 725 816 817
f 628 533 627
f 627 533 626
f 435 354 434
f 433 429 434
f 434 354 433
f 437 357 354
f 434 526 527
f 527 526 529
f 622 627 626
f 626 533 622
f 622 731 732
f 732 627 622
f 621 622 530
f 525 526 434
f 443 446 444
f 444 361 443
f 446 363 444
f 438 441 440
f 440 441 361
f 239 183 179
f 239 238 296
f 295 238 294
f 296 238 295
f 294 238 237
f 131 132 84
f 84 132 85
f 84 83 131
f 84 85 46
f 46 83 84
f 46 85 86
f 85 132 86
f 86 48 46
f 130 185 131
f 130 184 185
f 131 83 130
f 183 184 130
f 46 20 19
f 18 45 19
f 19 6 18
f 20 6 19
f 44 45 18
f 81 82 44
f 44 82 45
f 280 344 281
f 226 283 284
f 31 13 34
f 34 13 30
f 30 12 29
f 30 13 12
f 41 71 72
f 70 71 41
f 5 16 17
f 5 17 18
f 5 6 1
f 18 6 5
f 1 12 2
f 12 13 2
f 880 879 878
f 878 956 880
f 878 879 798
f 798 877 878
f 596 597 503
f 414 508 509
f 509 496 414
f 506 508 414
f 492 493 395
f 395 490 492
f 266 326 270
f 399 324 322
f 322 398 399
f 323 324 399
f 399 398 401
f 395 493 396
f 397 493 401
f 401 398 397
f 397 396 493
f 797 877 798
f 798 713 797
f 847 759 758
f 1001 926 1000
f 1000 1062 1001
f 491 490 392
f 201 260 259
f 259 260 200
f 489 491 392
f 581 582 489
f 582 491 489
f 190 250 200
f 200 195 190
f 190 133 189
f 243 304 244
f 244 188 243
f 313 306 370
f 370 388 313
f 463 388 370
f 313 248 312
f 307 244 306
f 307 312 248
f 307 306 313
f 313 312 307
f 138 92 91
f 142 92 138
f 200 201 139
f 139 140 91
f 139 197 200
f 135 197 139
f 793 697 696
f 582 658 696
f 696 697 582
f 791 697 793
f 793 875 791
f 872 791 874
f 874 791 875
f 493 492 585
f 585 700 699
f 794 700 790
f 792 791 790
f 790 791 872
f 790 873 794
f 872 873 790
f 1120 1119 1128
f 1119 1127 1128
f 1109 1076 1075
f 1124 1125 1109
f 1109 1125 1126
f 1126 1119 1109
f 804 710 803
f 960 1027 1028
f 705 593 704
f 592 703 704
f 704 593 592
f 704 703 602
f 602 712 704
f 711 705 704
f 704 712 711
f 966 887 965
f 995 916 994
f 635 537 634
f 537 633 634
f 471 558 562
f 558 662 562
f 941 861 939
f 1009 1065 1010
f 1010 933 1009
f 935 933 1010
f 1008 1007 1064
f 1064 1009 1008
f 933 1007 1008
f 1009 933 1008
f 1005 932 1004
f 933 932 1005
f 928 1002 1003
f 928 929 849
f 1003 929 928
f 1004 1006 1063
f 1063 1006 1002
f 856 936 937
f 937 932 856
f 937 1006 932
f 1003 1006 937
f 937 936 1003
f 1101 1122 1123
f 1123 1102 1101
f 1121 1122 1101
f 1059 1102 1100
f 1059 1101 1102
f 1100 1073 1059
f 1059 1073 1024
f 1121 1101 1098
f 1098 1059 1099
f 1101 1059 1098
f 476 378 377
f 476 477 378
f 375 376 308
f 308 374 375
f 471 561 473
f 473 375 374
f 674 774 775
f 673 771 674
f 778 777 772
f 778 775 774
f 778 863 779
f 774 863 778
f 779 682 778
f 681 777 778
f 778 682 681
f 481 572 573
f 573 681 574
f 573 572 681
f 678 569 568
f 676 571 680
f 680 569 676
f 571 569 680
f 571 478 570
f 570 569 571
f 478 477 570
f 477 569 570
f 381 481 482
f 482 573 574
f 481 573 482
f 483 383 382
f 483 484 383
f 483 482 484
f 483 382 381
f 381 482 483
f 577 484 576
f 578 691 579
f 486 579 546
f 546 545 486
f 486 578 579
f 459 550 552
f 552 550 579
f 458 459 369
f 304 366 369
f 450 366 386
f 450 546 458
f 450 545 546
f 303 304 243
f 303 366 304
f 243 246 303
f 246 310 303
f 303 310 366
f 683 682 779
f 574 682 683
f 866 867 783
f 924 925 845
f 923 926 845
f 926 924 845
f 579 691 692
f 142 202 145
f 205 204 258
f 205 202 142
f 142 204 205
f 52 53 27
f 52 90 53
f 52 27 51
f 51 90 52
f 93 92 142
f 53 92 93
f 142 94 93
f 93 94 53
f 251 195 200
f 200 197 251
f 91 137 136
f 136 139 91
f 135 139 136
f 89 90 51
f 53 90 89
f 91 53 89
f 89 137 91
f 88 89 51
f 137 89 88
f 88 136 137
f 88 134 135
f 135 136 88
f 88 133 134
f 196 133 195
f 134 133 196
f 195 251 196
f 196 197 134
f 196 251 197
f 195 133 194
f 194 190 195
f 736 737 628
f 732 820 736
f 628 627 736
f 736 627 732
f 732 731 819
f 819 820 732
f 434 429 521
f 521 522 434
f 434 522 523
f 896 817 816
f 900 821 824
f 824 896 900
f 817 896 824
f 436 437 354
f 354 435 436
f 529 530 436
f 436 527 529
f 436 435 434
f 358 359 294
f 438 359 358
f 294 357 358
f 357 437 358
f 358 436 438
f 437 436 358
f 730 622 621
f 618 530 529
f 526 525 618
f 618 525 530
f 532 533 438
f 438 530 532
f 623 622 533
f 623 530 622
f 296 361 362
f 361 444 362
f 361 359 439
f 439 440 361
f 439 359 438
f 438 440 439
f 356 295 294
f 296 295 356
f 179 183 180
f 183 130 180
f 47 83 46
f 46 19 47
f 47 82 83
f 47 19 45
f 45 82 47
f 129 130 83
f 83 82 129
f 129 82 81
f 18 40 39
f 39 44 18
f 40 16 39
f 120 79 78
f 285 226 284
f 234 290 291
f 71 114 76
f 76 75 71
f 76 120 78
f 29 56 57
f 34 30 57
f 57 30 29
f 202 205 261
f 55 54 53
f 53 94 55
f 29 54 55
f 55 56 29
f 55 94 95
f 15 14 36
f 33 14 13
f 38 16 15
f 38 41 16
f 1 2 3
f 3 14 15
f 13 14 3
f 3 2 13
f 951 878 877
f 597 505 504
f 504 503 597
f 507 603 596
f 596 503 507
f 411 334 413
f 413 337 415
f 334 337 413
f 415 507 413
f 413 507 503
f 402 326 401
f 412 505 506
f 506 414 412
f 412 504 505
f 412 414 336
f 411 503 412
f 503 504 412
f 412 334 411
f 336 334 412
f 395 396 318
f 318 397 398
f 396 397 318
f 315 314 316
f 257 320 258
f 255 320 257
f 254 255 198
f 198 139 201
f 140 139 198
f 400 326 323
f 323 399 400
f 401 326 400
f 400 399 401
f 876 797 794
f 877 797 876
f 794 873 876
f 876 951 877
f 873 951 876
f 794 797 796
f 656 759 760
f 759 847 760
f 846 847 758
f 758 845 846
f 846 845 925
f 927 925 954
f 954 875 927
f 1057 998 1001
f 1001 1062 1057
f 583 491 582
f 490 491 583
f 582 695 583
f 658 556 657
f 656 760 657
f 657 760 658
f 580 582 581
f 463 556 557
f 389 314 387
f 389 387 313
f 313 388 389
f 311 248 313
f 313 387 311
f 387 314 311
f 189 248 249
f 249 190 189
f 248 311 249
f 249 311 314
f 250 190 249
f 249 314 315
f 200 250 249
f 249 259 200
f 315 316 249
f 390 489 392
f 392 316 390
f 390 316 314
f 192 133 191
f 191 190 192
f 133 190 191
f 463 370 462
f 368 370 306
f 454 370 368
f 247 248 189
f 247 307 248
f 91 140 141
f 141 138 91
f 140 198 141
f 141 198 138
f 793 696 761
f 761 696 658
f 658 760 761
f 761 760 847
f 952 874 875
f 952 954 1021
f 952 875 954
f 694 585 698
f 700 585 694
f 698 695 694
f 792 790 694
f 694 790 700
f 694 695 582
f 582 697 694
f 694 791 792
f 697 791 694
f 1108 1109 1075
f 1124 1109 1108
f 1110 1119 1118
f 1110 1109 1119
f 1076 1109 1110
f 1111 1076 1110
f 804 803 885
f 885 803 884
f 961 964 884
f 961 883 960
f 961 960 1032
f 884 964 963
f 963 885 884
f 965 887 963
f 963 964 965
f 887 886 963
f 886 885 963
f 965 964 1035
f 802 883 884
f 802 803 710
f 884 803 802
f 631 739 741
f 739 831 741
f 631 741 742
f 742 741 831
f 830 738 829
f 830 739 738
f 830 831 739
f 981 1043 982
f 1029 1079 1030
f 1029 1028 1079
f 1029 1030 960
f 960 1028 1029
f 497 591 592
f 497 496 591
f 592 593 497
f 593 498 497
f 497 498 406
f 813 812 728
f 720 812 813
f 613 522 612
f 612 720 613
f 612 719 720
f 343 344 280
f 343 422 344
f 806 805 804
f 714 805 806
f 804 885 806
f 806 885 886
f 807 886 887
f 807 806 886
f 1037 969 966
f 668 669 560
f 560 667 668
f 1054 992 1053
f 1055 992 1054
f 918 916 995
f 640 639 749
f 749 639 638
f 939 938 1013
f 1013 941 939
f 1015 1065 1009
f 1015 1009 1064
f 1064 1067 1015
f 1017 1066 1069
f 1069 1070 1017
f 1018 945 1017
f 1017 1070 1018
f 1060 1059 1024
f 1024 1023 1060
f 1056 998 1060
f 998 1059 1060
f 1023 1072 1060
f 1060 1072 1056
f 376 375 474
f 375 473 474
f 471 473 472
f 472 473 374
f 472 373 471
f 374 373 472
f 779 863 864
f 771 673 770
f 770 673 679
f 568 477 475
f 477 476 475
f 475 474 473
f 475 476 377
f 475 377 376
f 376 474 475
f 471 562 563
f 563 562 662
f 566 475 565
f 776 778 772
f 775 778 776
f 776 772 674
f 674 775 776
f 676 569 677
f 574 683 684
f 684 683 782
f 577 576 684
f 575 482 574
f 574 684 575
f 484 482 575
f 575 576 484
f 691 578 689
f 577 688 689
f 689 688 691
f 386 310 309
f 309 385 386
f 309 310 246
f 309 246 308
f 308 384 309
f 384 385 309
f 577 578 485
f 578 486 485
f 485 486 384
f 384 484 485
f 485 484 577
f 650 552 579
f 579 692 650
f 650 692 691
f 458 369 451
f 451 369 366
f 451 450 458
f 366 450 451
f 545 450 487
f 487 486 545
f 386 385 487
f 487 450 386
f 487 385 384
f 384 486 487
f 788 691 787
f 780 683 779
f 784 783 867
f 757 843 758
f 843 757 756
f 756 757 653
f 788 756 840
f 656 657 555
f 555 657 556
f 923 845 844
f 758 843 844
f 844 845 758
f 143 94 142
f 142 145 143
f 95 94 143
f 143 145 95
f 50 88 51
f 50 26 49
f 51 26 50
f 133 88 87
f 88 50 87
f 87 49 48
f 87 50 49
f 193 133 192
f 193 194 133
f 192 190 193
f 190 194 193
f 899 821 900
f 829 737 828
f 828 906 829
f 737 736 828
f 906 828 905
f 825 736 820
f 903 825 902
f 977 901 903
f 818 819 731
f 614 522 613
f 614 523 522
f 728 812 815
f 815 723 728
f 724 723 725
f 723 724 616
f 725 726 616
f 616 724 725
f 531 530 438
f 438 436 531
f 531 436 530
f 434 527 528
f 528 436 434
f 527 436 528
f 725 622 733
f 733 730 725
f 622 730 733
f 529 526 620
f 620 618 529
f 526 618 620
f 533 532 625
f 625 532 530
f 624 623 533
f 530 623 624
f 533 625 624
f 624 625 530
f 729 730 621
f 621 726 729
f 725 730 729
f 729 726 725
f 297 239 296
f 296 362 297
f 445 444 363
f 363 362 445
f 445 362 444
f 535 536 443
f 443 534 535
f 535 533 536
f 535 534 533
f 443 361 442
f 442 534 443
f 361 441 442
f 442 441 438
f 438 533 442
f 533 534 442
f 360 359 296
f 296 356 360
f 294 359 360
f 360 356 294
f 181 180 130
f 81 44 80
f 175 239 179
f 238 239 175
f 175 237 238
f 594 705 604
f 604 511 594
f 594 593 705
f 233 234 170
f 169 170 123
f 121 120 169
f 79 120 121
f 280 281 222
f 226 285 227
f 227 167 226
f 227 234 233
f 285 234 227
f 283 226 225
f 226 167 225
f 225 167 166
f 225 222 283
f 354 431 432
f 429 433 432
f 432 433 354
f 430 352 429
f 429 432 430
f 430 432 431
f 425 352 430
f 429 352 428
f 428 521 429
f 428 352 427
f 354 292 353
f 353 431 354
f 425 430 353
f 353 430 431
f 354 357 355
f 355 292 354
f 355 357 294
f 236 292 237
f 172 170 232
f 77 76 78
f 166 167 117
f 117 165 166
f 164 114 163
f 264 261 205
f 264 263 323
f 264 205 263
f 266 270 213
f 35 36 14
f 14 33 35
f 62 36 35
f 35 33 62
f 37 36 62
f 15 36 37
f 37 38 15
f 4 5 1
f 1 3 4
f 16 5 4
f 15 16 4
f 4 3 15
f 950 951 873
f 950 873 872
f 872 874 950
f 510 507 415
f 603 507 510
f 333 402 409
f 326 402 333
f 274 270 333
f 333 270 326
f 415 337 338
f 338 337 274
f 274 333 338
f 502 503 411
f 411 413 502
f 502 413 503
f 401 493 494
f 584 695 698
f 698 585 584
f 584 585 492
f 584 583 695
f 584 492 490
f 490 583 584
f 393 490 395
f 395 318 393
f 319 398 322
f 319 318 398
f 322 320 319
f 255 318 319
f 319 320 255
f 253 255 254
f 253 316 255
f 253 249 316
f 259 249 253
f 254 198 253
f 262 205 258
f 258 320 262
f 263 205 262
f 322 263 262
f 262 320 322
f 199 258 203
f 199 257 258
f 203 142 199
f 142 138 199
f 138 198 199
f 848 846 925
f 847 846 848
f 925 927 848
f 848 761 847
f 848 927 875
f 848 875 793
f 793 761 848
f 1058 1059 998
f 998 1057 1058
f 1099 1059 1058
f 1058 1098 1099
f 1058 1057 1098
f 1071 1062 1061
f 1071 1057 1062
f 1018 1070 1071
f 1071 1061 1018
f 1098 1057 1071
f 581 489 488
f 488 580 581
f 488 557 580
f 489 389 488
f 488 389 388
f 488 388 463
f 463 557 488
f 659 556 658
f 659 557 556
f 580 557 659
f 489 390 391
f 391 390 314
f 391 389 489
f 314 389 391
f 305 244 304
f 304 368 305
f 306 244 305
f 305 368 306
f 460 369 459
f 244 307 245
f 307 247 245
f 245 247 189
f 245 189 188
f 188 244 245
f 884 883 962
f 962 961 884
f 883 961 962
f 964 961 1034
f 1034 1035 964
f 1081 1082 1034
f 1034 1082 1035
f 908 830 829
f 831 830 908
f 740 632 631
f 631 742 740
f 740 742 632
f 743 633 632
f 632 742 743
f 1078 1028 1027
f 1079 1028 1078
f 1088 1113 1112
f 1079 1078 1080
f 1080 1078 1113
f 891 812 811
f 811 812 720
f 613 720 721
f 720 813 721
f 611 612 522
f 422 343 420
f 714 806 715
f 806 807 715
f 972 1037 1036
f 965 1035 1036
f 1036 966 965
f 1036 1037 966
f 971 1037 972
f 972 893 971
f 891 969 970
f 969 1037 970
f 1037 971 970
f 970 893 891
f 970 971 893
f 669 668 767
f 640 749 750
f 1052 1095 1096
f 1054 1053 1052
f 1052 1097 1054
f 1096 1097 1052
f 1052 1053 992
f 993 1055 994
f 993 994 916
f 916 992 993
f 992 1055 993
f 991 992 916
f 852 839 919
f 839 918 919
f 917 839 916
f 916 918 917
f 917 918 839
f 1012 938 935
f 1012 1013 938
f 941 1013 1012
f 1068 1015 1067
f 1068 1104 1069
f 1067 1104 1068
f 1069 1066 1068
f 1066 1015 1068
f 865 864 944
f 945 866 865
f 865 944 945
f 850 858 855
f 855 858 771
f 771 770 855
f 853 770 769
f 564 473 561
f 564 561 471
f 471 563 564
f 564 475 473
f 565 475 564
f 564 566 565
f 670 662 661
f 670 563 662
f 661 660 670
f 670 564 563
f 675 772 676
f 674 772 675
f 567 678 568
f 568 475 567
f 475 566 567
f 676 677 567
f 567 675 676
f 569 678 567
f 567 677 569
f 674 675 567
f 567 673 674
f 679 673 567
f 577 684 686
f 686 684 782
f 782 783 686
f 783 784 686
f 685 684 576
f 576 575 685
f 685 575 684
f 690 578 577
f 577 689 690
f 690 689 578
f 753 650 691
f 996 926 923
f 947 945 1018
f 947 946 945
f 866 946 947
f 868 867 866
f 785 784 868
f 868 784 867
f 786 787 691
f 869 787 786
f 786 868 869
f 785 868 786
f 691 688 786
f 866 783 781
f 683 780 781
f 779 864 781
f 781 780 779
f 781 865 866
f 864 865 781
f 782 683 781
f 781 783 782
f 687 688 577
f 577 686 687
f 687 686 784
f 687 784 785
f 785 786 687
f 687 786 688
f 653 757 654
f 841 756 788
f 789 691 788
f 788 840 789
f 754 753 691
f 644 753 754
f 691 789 754
f 754 789 840
f 463 462 461
f 461 556 463
f 461 555 556
f 461 370 454
f 461 462 370
f 900 981 979
f 979 899 900
f 979 981 982
f 901 899 979
f 982 905 979
f 903 901 904
f 901 979 904
f 904 979 905
f 827 905 828
f 827 828 736
f 903 902 978
f 978 977 903
f 819 818 897
f 725 817 734
f 817 824 734
f 734 824 821
f 734 622 725
f 524 525 434
f 434 523 524
f 523 614 524
f 349 350 290
f 351 352 291
f 291 290 351
f 290 350 351
f 900 896 975
f 816 815 895
f 895 815 812
f 814 815 816
f 723 815 814
f 814 816 725
f 725 723 814
f 892 812 891
f 891 893 892
f 892 893 812
f 973 893 972
f 619 616 525
f 728 723 619
f 723 616 619
f 617 616 726
f 621 530 617
f 530 525 617
f 525 616 617
f 239 297 241
f 183 239 241
f 241 298 240
f 240 183 241
f 301 297 362
f 301 362 363
f 298 241 301
f 301 241 297
f 299 298 301
f 301 363 299
f 130 129 182
f 182 181 130
f 129 181 182
f 44 39 69
f 69 74 44
f 128 129 81
f 128 181 129
f 499 498 593
f 593 594 499
f 406 498 499
f 417 421 511
f 417 512 418
f 511 512 417
f 500 594 511
f 511 421 500
f 500 499 594
f 31 60 32
f 32 60 33
f 13 31 32
f 32 33 13
f 65 37 62
f 66 37 65
f 60 106 65
f 62 33 61
f 33 60 61
f 61 65 62
f 60 65 61
f 403 497 406
f 496 497 403
f 403 414 496
f 336 414 403
f 274 337 275
f 275 337 334
f 335 334 336
f 336 272 335
f 327 328 267
f 327 403 328
f 336 403 327
f 171 170 172
f 171 123 170
f 122 123 79
f 79 121 122
f 169 123 122
f 122 121 169
f 224 225 166
f 222 225 224
f 166 165 162
f 163 112 162
f 162 164 163
f 113 112 163
f 71 112 113
f 163 114 113
f 113 114 71
f 115 112 71
f 108 109 66
f 220 218 276
f 276 218 217
f 217 218 155
f 167 227 228
f 522 521 520
f 521 428 520
f 293 355 294
f 292 355 293
f 294 237 293
f 237 292 293
f 286 234 291
f 231 232 170
f 234 286 231
f 231 286 232
f 79 80 43
f 78 79 43
f 43 77 78
f 74 69 43
f 71 75 43
f 75 76 43
f 76 77 43
f 43 39 16
f 43 69 39
f 165 117 116
f 116 117 76
f 116 162 165
f 164 162 116
f 116 76 114
f 114 164 116
f 169 120 119
f 120 76 119
f 96 55 95
f 56 55 96
f 95 145 144
f 144 145 202
f 144 96 95
f 146 96 144
f 325 264 323
f 323 326 325
f 325 326 266
f 266 213 209
f 209 213 151
f 63 57 56
f 56 97 63
f 34 57 63
f 58 31 34
f 1023 956 1022
f 1021 1072 1022
f 1022 1072 1023
f 1021 1022 953
f 953 950 874
f 953 952 1021
f 874 952 953
f 415 338 416
f 409 501 416
f 416 510 415
f 416 501 510
f 410 333 409
f 410 338 333
f 409 416 410
f 410 416 338
f 586 701 587
f 586 585 699
f 587 494 586
f 493 585 586
f 586 494 493
f 706 701 795
f 706 713 603
f 706 797 713
f 795 796 706
f 706 796 797
f 401 494 495
f 495 402 401
f 409 402 495
f 495 501 409
f 495 494 587
f 317 318 255
f 317 393 318
f 259 253 252
f 252 253 198
f 201 259 252
f 252 198 201
f 256 198 255
f 256 199 198
f 255 257 256
f 257 199 256
f 1106 1070 1069
f 1106 1071 1070
f 1069 1105 1106
f 1098 1071 1106
f 1106 1105 1121
f 1121 1098 1106
f 693 659 658
f 580 659 693
f 693 658 582
f 582 580 693
f 367 368 304
f 304 369 367
f 1033 1034 961
f 1032 1079 1033
f 1033 961 1032
f 1081 1034 1033
f 1033 1080 1081
f 1079 1080 1033
f 829 906 907
f 907 908 829
f 909 984 985
f 831 908 909
f 909 907 984
f 908 907 909
f 744 634 633
f 633 743 744
f 1027 1076 1077
f 1077 1078 1027
f 1077 1076 1111
f 1113 1078 1077
f 1111 1112 1077
f 1077 1112 1113
f 1085 1046 1045
f 985 984 1045
f 984 1044 1045
f 1045 1044 1085
f 418 419 340
f 340 420 343
f 340 419 420
f 720 719 810
f 810 811 720
f 887 966 888
f 888 807 887
f 604 714 605
f 714 715 605
f 605 511 604
f 605 512 511
f 715 606 605
f 1035 1082 1038
f 1038 1036 1035
f 972 1036 1038
f 1038 973 972
f 1038 1082 1039
f 1039 973 1038
f 852 767 766
f 766 767 668
f 766 839 852
f 766 750 839
f 766 668 667
f 916 839 837
f 839 750 837
f 1118 1095 1093
f 1093 1117 1118
f 992 991 990
f 990 991 914
f 1047 1046 1088
f 832 742 831
f 831 909 832
f 935 1010 1011
f 1011 1012 935
f 1015 1012 1011
f 1011 1010 1065
f 1065 1015 1011
f 941 1012 1014
f 1014 1012 1015
f 1014 942 941
f 1015 942 1014
f 862 863 774
f 862 942 863
f 862 774 861
f 861 941 862
f 941 942 862
f 945 944 943
f 944 864 943
f 943 864 863
f 863 942 943
f 770 853 854
f 850 855 854
f 854 855 770
f 566 564 672
f 672 567 566
f 679 567 672
f 672 770 679
f 769 770 672
f 765 670 660
f 647 650 752
f 650 753 752
f 752 753 644
f 921 996 923
f 999 1000 926
f 926 996 999
f 1061 1062 999
f 1062 1000 999
f 1018 1061 999
f 869 868 948
f 866 947 948
f 948 868 866
f 655 759 656
f 758 759 655
f 655 757 758
f 655 654 757
f 656 555 554
f 554 655 656
f 654 655 554
f 653 654 554
f 555 461 554
f 647 549 646
f 548 460 459
f 459 549 548
f 755 754 840
f 755 756 653
f 755 840 756
f 653 644 755
f 644 754 755
f 645 549 644
f 547 461 454
f 826 825 903
f 903 904 826
f 736 825 826
f 826 827 736
f 826 904 905
f 905 827 826
f 901 977 976
f 976 897 901
f 822 899 901
f 901 897 822
f 821 899 822
f 822 897 818
f 822 734 821
f 735 818 731
f 735 734 818
f 731 622 735
f 622 734 735
f 525 524 615
f 615 524 614
f 615 619 525
f 282 285 284
f 282 234 285
f 282 344 345
f 282 281 344
f 284 283 282
f 282 222 281
f 283 222 282
f 893 973 974
f 728 619 722
f 722 615 614
f 619 615 722
f 722 813 728
f 722 721 813
f 722 614 613
f 613 721 722
f 727 726 621
f 621 617 727
f 727 617 726
f 237 175 174
f 174 236 237
f 127 175 179
f 179 180 127
f 180 181 127
f 181 128 127
f 127 128 81
f 125 127 81
f 278 220 276
f 277 220 278
f 276 217 269
f 269 217 212
f 406 499 407
f 499 500 407
f 407 330 406
f 331 330 407
f 155 108 107
f 107 108 66
f 66 65 107
f 107 65 106
f 154 217 155
f 212 217 154
f 155 107 154
f 154 107 106
f 404 403 406
f 328 403 404
f 151 213 152
f 271 275 334
f 334 335 271
f 271 335 272
f 273 272 336
f 336 327 273
f 273 327 267
f 159 222 223
f 222 224 223
f 66 109 68
f 70 41 68
f 41 38 68
f 111 71 70
f 111 115 71
f 70 68 111
f 111 68 109
f 112 115 111
f 159 112 158
f 109 108 157
f 112 111 157
f 157 111 109
f 157 158 112
f 219 220 159
f 218 220 219
f 155 218 219
f 221 222 159
f 159 220 221
f 221 220 277
f 229 170 169
f 233 170 229
f 229 227 233
f 229 228 227
f 519 428 427
f 519 520 428
f 519 518 611
f 519 611 522
f 522 520 519
f 291 352 346
f 346 286 291
f 348 352 425
f 292 288 348
f 348 346 352
f 288 346 348
f 425 353 348
f 348 353 292
f 232 288 235
f 172 232 235
f 292 236 235
f 235 288 292
f 230 170 234
f 234 231 230
f 230 231 170
f 44 74 73
f 74 43 73
f 73 80 44
f 73 43 80
f 42 43 16
f 42 41 72
f 16 41 42
f 72 71 42
f 71 43 42
f 118 117 167
f 167 119 118
f 76 117 118
f 118 119 76
f 261 264 265
f 264 325 265
f 265 325 266
f 266 209 265
f 148 209 151
f 56 96 98
f 98 96 146
f 99 97 56
f 56 98 99
f 202 261 206
f 261 207 206
f 206 144 202
f 206 207 144
f 64 63 97
f 97 58 64
f 34 63 64
f 64 58 34
f 955 1022 956
f 955 953 1022
f 956 878 955
f 878 951 955
f 951 950 955
f 950 953 955
f 587 701 595
f 510 501 595
f 701 706 595
f 603 510 595
f 595 706 603
f 702 586 699
f 701 586 702
f 795 701 702
f 699 794 702
f 794 796 702
f 702 796 795
f 588 495 587
f 501 495 588
f 587 595 588
f 588 595 501
f 490 393 394
f 393 317 394
f 392 490 394
f 368 367 453
f 983 1044 984
f 984 907 983
f 982 1043 983
f 1043 1044 983
f 983 907 906
f 983 905 982
f 906 905 983
f 635 634 745
f 634 744 745
f 746 750 749
f 746 744 750
f 746 745 744
f 635 745 746
f 746 638 635
f 746 749 638
f 834 743 742
f 834 744 743
f 609 719 610
f 611 518 610
f 719 612 610
f 612 611 610
f 517 516 609
f 609 610 517
f 517 610 518
f 966 969 967
f 967 888 966
f 807 888 808
f 808 717 807
f 809 717 808
f 716 715 807
f 807 717 716
f 607 606 716
f 716 606 715
f 609 717 718
f 718 717 809
f 718 719 609
f 718 810 719
f 809 810 718
f 609 516 608
f 608 717 609
f 607 716 608
f 608 716 717
f 422 420 514
f 514 605 606
f 751 667 640
f 751 766 667
f 640 750 751
f 750 766 751
f 915 991 916
f 916 837 915
f 914 991 915
f 750 744 838
f 838 837 750
f 744 837 838
f 1095 1052 1094
f 1094 1093 1095
f 1093 1094 1050
f 1050 1094 1052
f 1048 1047 1090
f 910 909 985
f 910 832 909
f 912 988 913
f 1016 943 942
f 1066 1017 1016
f 1016 1017 945
f 945 943 1016
f 1016 1015 1066
f 1016 942 1015
f 660 763 764
f 764 765 660
f 851 854 853
f 851 764 763
f 765 764 851
f 851 763 850
f 850 854 851
f 768 853 769
f 768 851 853
f 765 851 768
f 644 549 649
f 649 752 644
f 647 752 649
f 922 921 923
f 843 921 922
f 923 844 922
f 922 844 843
f 842 921 843
f 842 841 788
f 843 756 842
f 756 841 842
f 1019 947 1018
f 1018 999 1019
f 1020 948 1019
f 1019 948 947
f 1019 996 1020
f 1019 999 996
f 871 842 788
f 652 645 644
f 647 646 651
f 651 646 552
f 651 650 647
f 552 650 651
f 552 646 551
f 551 646 549
f 459 552 551
f 551 549 459
f 454 368 457
f 457 547 454
f 549 547 457
f 457 548 549
f 549 645 553
f 645 652 553
f 461 547 553
f 553 554 461
f 553 652 644
f 553 644 653
f 653 554 553
f 897 976 898
f 898 978 902
f 977 978 898
f 898 976 977
f 898 825 820
f 898 902 825
f 820 819 898
f 819 897 898
f 818 734 823
f 823 822 818
f 734 822 823
f 234 282 289
f 290 234 289
f 289 349 290
f 345 349 289
f 289 282 345
f 980 981 900
f 980 1041 981
f 900 975 980
f 975 974 980
f 1042 1041 1084
f 1084 1086 1042
f 1042 1044 1043
f 1085 1044 1042
f 1043 981 1042
f 981 1041 1042
f 1088 1046 1087
f 1087 1046 1085
f 1085 1042 1087
f 1087 1042 1086
f 1115 1086 1084
f 894 975 896
f 894 974 975
f 894 896 816
f 816 895 894
f 893 974 894
f 812 893 894
f 894 895 812
f 175 127 176
f 176 127 177
f 124 176 177
f 124 171 172
f 124 125 79
f 124 174 175
f 175 176 124
f 79 123 124
f 123 171 124
f 126 80 79
f 79 125 126
f 81 80 126
f 126 125 81
f 421 417 341
f 418 340 339
f 339 417 418
f 339 340 277
f 277 278 339
f 267 328 329
f 268 330 331
f 331 269 268
f 268 329 330
f 268 269 212
f 267 329 268
f 267 268 211
f 211 268 212
f 105 106 60
f 267 211 210
f 216 270 274
f 274 275 216
f 216 213 270
f 216 152 213
f 275 271 216
f 153 152 215
f 267 210 215
f 215 210 153
f 215 271 272
f 215 273 267
f 272 273 215
f 160 112 159
f 159 223 160
f 66 68 110
f 38 37 67
f 67 68 38
f 67 110 68
f 67 37 66
f 66 110 67
f 156 157 108
f 158 157 156
f 156 108 155
f 155 219 156
f 159 158 156
f 156 219 159
f 222 221 279
f 279 221 277
f 280 222 279
f 279 343 280
f 279 340 343
f 277 340 279
f 228 229 168
f 167 228 168
f 168 119 167
f 169 119 168
f 168 229 169
f 232 286 287
f 286 346 287
f 287 288 232
f 102 148 151
f 97 148 102
f 102 58 97
f 151 103 102
f 103 58 102
f 147 148 97
f 97 99 147
f 147 99 98
f 147 98 146
f 146 144 147
f 144 207 147
f 208 265 209
f 209 148 208
f 261 265 208
f 148 147 208
f 208 207 261
f 208 147 207
f 31 58 59
f 58 101 59
f 59 60 31
f 59 101 60
f 321 316 392
f 392 394 321
f 321 394 317
f 255 316 321
f 321 317 255
f 460 453 452
f 452 453 367
f 369 460 452
f 452 367 369
f 835 834 912
f 835 913 914
f 912 913 835
f 744 834 835
f 914 915 835
f 833 834 742
f 912 834 833
f 742 832 833
f 833 832 912
f 345 344 423
f 344 422 423
f 422 516 423
f 516 517 423
f 426 517 518
f 350 349 426
f 426 351 350
f 426 519 427
f 518 519 426
f 427 352 426
f 352 351 426
f 888 967 889
f 809 808 889
f 889 808 888
f 889 810 809
f 968 969 891
f 968 967 969
f 515 606 607
f 515 514 606
f 607 608 515
f 515 608 516
f 515 516 422
f 422 514 515
f 420 419 513
f 513 514 420
f 513 419 418
f 418 512 513
f 512 605 513
f 605 514 513
f 836 837 744
f 836 915 837
f 744 835 836
f 836 835 915
f 1051 1052 992
f 1051 1050 1052
f 1049 988 1048
f 1089 1090 1047
f 1088 1112 1089
f 1089 1047 1088
f 1089 1112 1111
f 1091 1090 1117
f 1048 1090 1091
f 912 832 911
f 832 910 911
f 911 988 912
f 911 910 988
f 986 910 985
f 985 1045 986
f 986 1045 1046
f 1046 1047 986
f 986 1047 1048
f 989 990 914
f 914 913 989
f 1050 1051 989
f 989 1049 1050
f 992 990 989
f 989 1051 992
f 989 913 988
f 988 1049 989
f 670 765 671
f 765 768 671
f 564 670 671
f 671 768 769
f 769 672 671
f 671 672 564
f 648 549 647
f 647 649 648
f 648 649 549
f 1020 996 949
f 949 948 1020
f 456 457 368
f 548 457 455
f 460 548 455
f 455 453 460
f 457 456 455
f 368 453 455
f 455 456 368
f 643 547 549
f 549 553 643
f 643 553 547
f 1084 1041 1040
f 1041 980 1040
f 1040 980 974
f 1039 1084 1040
f 1040 973 1039
f 1040 974 973
f 1114 1113 1088
f 1088 1087 1114
f 1114 1080 1113
f 1114 1115 1080
f 1114 1087 1086
f 1086 1115 1114
f 1083 1082 1081
f 1039 1082 1083
f 1081 1080 1083
f 1080 1115 1083
f 1083 1084 1039
f 1083 1115 1084
f 178 124 177
f 125 124 178
f 177 127 178
f 127 125 178
f 172 235 173
f 173 124 172
f 174 124 173
f 236 174 173
f 173 235 236
f 331 407 408
f 408 407 500
f 408 500 421
f 421 341 408
f 278 341 342
f 342 339 278
f 342 341 417
f 417 339 342
f 405 329 328
f 330 329 405
f 406 330 405
f 405 404 406
f 328 404 405
f 153 210 149
f 149 210 211
f 152 216 214
f 214 215 152
f 214 216 271
f 271 215 214
f 161 223 224
f 161 160 223
f 161 224 166
f 112 160 161
f 166 162 161
f 161 162 112
f 347 346 288
f 288 287 347
f 347 287 346
f 424 426 349
f 424 349 345
f 345 423 424
f 424 423 517
f 517 426 424
f 967 968 890
f 810 889 890
f 890 889 967
f 811 810 890
f 891 811 890
f 890 968 891
f 1117 1090 1116
f 1090 1089 1116
f 1116 1089 1111
f 1111 1110 1116
f 1116 1110 1118
f 1118 1117 1116
f 1092 1091 1117
f 1117 1093 1092
f 1093 1050 1092
f 1048 1091 1092
f 1092 1049 1048
f 1050 1049 1092
f 988 910 987
f 910 986 987
f 1048 988 987
f 987 986 1048
f 996 921 920
f 920 949 996
f 921 842 920
f 842 871 920
f 869 948 870
f 948 949 870
f 788 787 870
f 870 787 869
f 870 871 788
f 870 920 871
f 949 920 870
f 331 408 332
f 332 408 341
f 332 341 278
f 332 269 331
f 332 278 276
f 276 269 332
f 104 58 103
f 104 103 151
f 153 149 104
f 151 152 104
f 104 152 153
f 150 154 106
f 106 105 150
f 150 149 211
f 212 154 150
f 150 211 212
f 58 104 100
f 100 104 149
f 100 101 58
f 60 101 100
f 149 150 100
f 100 105 60
f 100 150 105
f 87 371 308
f 87 747 666
f 468 467 87
f 664 663 87
f 87 464 371
f 48 86 87
f 87 559 468
f 666 665 87
f 87 466 464
f 302 365 87
f 87 665 664
f 642 748 87
f 87 467 466
f 87 544 642
f 308 246 87
f 87 663 559
f 748 747 87
f 87 242 302
f 87 449 544
f 87 187 186
f 186 185 87
f 87 246 188
f 87 365 449
f 87 132 187
f 185 242 87
f 188 133 87
f 87 86 132
f 919 882 959
f 709 801 919
f 372 469 919
f 919 469 560
f 960 883 919
f 1004 1063 919
f 959 1025 919
f 1075 1026 919
f 919 1067 1064
f 919 1097 1120
f 919 600 599
f 602 601 919
f 919 598 709
f 849 762 919
f 919 801 882
f 919 1107 1123
f 919 1005 1004
f 919 710 602
f 560 669 919
f 919 465 372
f 1064 1007 919
f 1103 1067 919
f 1123 1122 919
f 601 600 919
f 599 598 919
f 1126 1125 919
f 919 1026 960
f 660 558 919
f 995 994 919
f 919 1122 1103
f 1074 1107 919
f 919 1025 1074
f 919 1127 1126
f 1120 1128 919
f 919 1055 1054
f 1054 1097 919
f 558 465 919
f 919 762 660
f 919 1007 933
f 919 928 849
f 919 1128 1127
f 919 1125 1124
f 919 1108 1075
f 919 918 995
f 919 802 710
f 933 1005 919
f 1002 928 919
f 919 1063 1002
f 1124 1108 919
f 883 802 919
f 994 1055 919
f 919 767 852
f 669 767 919
