v -0.059988 -0.029000 -0.120706
v -0.059832 -0.029000 -0.123989
v 0.059467 -0.029000 -0.127482
v 0.059114 -0.029000 -0.129772
v 0.058112 -0.029000 -0.134431
v 0.056633 -0.029000 -0.139317
v 0.055949 -0.029000 -0.141173
v 0.053006 -0.029000 -0.147613
v 0.047188 -0.029000 -0.156557
v 0.049326 -0.029000 -0.153661
v 0.052622 -0.029000 -0.148327
v 0.039965 -0.029000 -0.164253
v 0.040480 -0.029000 -0.163787
v 0.044958 -0.029000 -0.159233
v 0.032678 -0.029000 -0.169820
v 0.034415 -0.029000 -0.168649
v 0.014660 -0.029000 -0.177681
v 0.015231 -0.029000 -0.177535
v 0.021961 -0.029000 -0.175336
v 0.023994 -0.029000 -0.174494
v 0.028386 -0.029000 -0.172361
v 0.008289 -0.029000 -0.178925
v 0.004931 -0.029000 -0.179297
v 0.001231 -0.029000 -0.179487
v -0.004931 -0.029000 -0.179297
v -0.005844 -0.029000 -0.179215
v -0.012837 -0.029000 -0.178111
v -0.014660 -0.029000 -0.177681
v -0.019652 -0.029000 -0.176190
v -0.023994 -0.029000 -0.174494
v -0.026193 -0.029000 -0.173481
v -0.032370 -0.029000 -0.170019
v -0.040480 -0.029000 -0.163787
v -0.038095 -0.029000 -0.165855
v -0.032678 -0.029000 -0.169820
v -0.052622 -0.029000 -0.148327
v -0.051808 -0.029000 -0.149764
v -0.047883 -0.029000 -0.155656
v -0.047188 -0.029000 -0.156557
v -0.043290 -0.029000 -0.161044
v -0.054060 -0.029000 -0.145529
v -0.054060 0.004000 -0.145529
v -0.059832 0.004000 -0.123989
v -0.056633 0.004000 -0.139317
v -0.059114 0.004000 -0.129772
v -0.059956 0.008450 -0.121800
v -0.059948 0.008650 -0.122000
v -0.059948 0.009000 -0.122000
v -0.053166 0.008650 -0.147309
v -0.053166 0.009000 -0.147309
v -0.053073 0.008450 -0.147486
v -0.050773 0.008450 -0.151470
v -0.052622 0.008450 -0.148327
v -0.050666 0.008650 -0.151639
v -0.050666 0.009000 -0.151639
v -0.002500 0.008650 -0.179448
v -0.002500 0.009000 -0.179448
v -0.002300 0.008450 -0.179456
v 0.002300 0.008450 -0.179456
v 0.002500 0.008650 -0.179448
v 0.002500 0.009000 -0.179448
v 0.027809 0.008650 -0.172666
v 0.027809 0.009000 -0.172666
v 0.027986 0.008450 -0.172573
v 0.031970 0.008450 -0.170273
v 0.032139 0.008650 -0.170166
v 0.032139 0.009000 -0.170166
v 0.050666 0.008650 -0.151639
v 0.050666 0.009000 -0.151639
v 0.050773 0.008450 -0.151470
v 0.053073 0.008450 -0.147486
v 0.052622 0.008450 -0.148327
v 0.053166 0.008650 -0.147309
v 0.053166 0.009000 -0.147309
v 0.056633 0.009000 -0.139317
v 0.059114 0.009000 -0.129772
v -0.058061 0.009000 -0.134631
v -0.059114 0.009000 -0.129772
v -0.056633 0.009000 -0.139317
v -0.047188 0.009000 -0.156557
v -0.032139 0.009000 -0.170166
v -0.032678 0.009000 -0.169820
v -0.040480 0.009000 -0.163787
v -0.023994 0.009000 -0.174494
v -0.027809 0.009000 -0.172666
v -0.014660 0.009000 -0.177681
v -0.004931 0.009000 -0.179297
v 0.004931 0.009000 -0.179297
v 0.032678 0.009000 -0.169820
v 0.014660 0.009000 -0.177681
v 0.023994 0.009000 -0.174494
v 0.047188 0.009000 -0.156557
v 0.040480 0.009000 -0.163787
v -0.032139 0.008650 -0.170166
v -0.027986 0.008450 -0.172573
v -0.031970 0.008450 -0.170273
v 0.009513 0.064323 0.005687
v 0.009882 0.064228 0.005778
v 0.008592 0.064563 0.004128
v 0.008601 0.064560 0.004520
v 0.008708 0.064532 0.004895
v 0.008906 0.064481 0.005229
v 0.009180 0.064410 0.005499
v 0.011209 0.063883 0.005170
v 0.010948 0.063951 0.005454
v 0.010261 0.064129 0.005769
v 0.010624 0.064035 0.005658
v 0.011390 0.063836 0.004826
v 0.010221 0.061659 0.058500
v 0.028686 0.055528 0.058500
v 0.055756 0.028241 0.058500
v 0.005377 0.062268 0.058500
v 0.000500 0.062498 0.058500
v 0.024264 0.057598 0.058500
v 0.019694 0.059316 0.058500
v 0.015003 0.060672 0.058500
v 0.044371 0.044017 0.058500
v 0.061738 0.009728 0.058500
v 0.040799 0.047346 0.058500
v 0.036979 0.050387 0.058500
v 0.032933 0.053119 0.058500
v 0.053381 0.032507 0.058500
v 0.050681 0.036575 0.058500
v 0.047671 0.040419 0.058500
v 0.060791 0.014517 0.058500
v 0.059472 0.019218 0.058500
v 0.057790 0.023802 0.058500
v 0.062309 -0.004879 0.058500
v 0.062500 0.000000 0.058500
v 0.062309 0.004879 0.058500
v 0.060791 -0.014517 0.058500
v 0.061738 -0.009728 0.058500
v 0.057790 -0.023802 0.058500
v 0.059472 -0.019218 0.058500
v 0.053381 -0.032507 0.058500
v 0.055756 -0.028241 0.058500
v 0.047671 -0.040419 0.058500
v 0.050681 -0.036575 0.058500
v 0.024264 -0.057598 0.058500
v 0.015003 -0.060672 0.058500
v 0.019694 -0.059316 0.058500
v 0.000500 -0.062498 0.058500
v 0.005377 -0.062268 0.058500
v 0.010221 -0.061659 0.058500
v 0.040799 -0.047346 0.058500
v 0.044371 -0.044017 0.058500
v 0.028686 -0.055528 0.058500
v 0.032933 -0.053119 0.058500
v 0.036979 -0.050387 0.058500
v 0.051086 -0.036867 0.058000
v 0.056202 0.028467 0.058000
v 0.059948 0.019372 0.058000
v 0.058253 0.023993 0.058000
v 0.059948 -0.019372 0.058000
v 0.056202 -0.028467 0.058000
v 0.058253 -0.023993 0.058000
v 0.053808 -0.032767 0.058000
v 0.000504 -0.062998 0.058000
v 0.005420 -0.062766 0.058000
v 0.010303 -0.062152 0.058000
v 0.015123 -0.061158 0.058000
v 0.019851 -0.059791 0.058000
v 0.024458 -0.058059 0.058000
v 0.028915 -0.055972 0.058000
v 0.033196 -0.053544 0.058000
v 0.037275 -0.050790 0.058000
v 0.041126 -0.047725 0.058000
v 0.044726 -0.044369 0.058000
v 0.048053 -0.040743 0.058000
v 0.000504 0.062998 0.058000
v 0.005420 0.062766 0.058000
v 0.010303 0.062152 0.058000
v 0.015123 0.061158 0.058000
v 0.019851 0.059791 0.058000
v 0.024458 0.058059 0.058000
v 0.028915 0.055972 0.058000
v 0.033196 0.053544 0.058000
v 0.037275 0.050790 0.058000
v 0.041126 0.047725 0.058000
v 0.044726 0.044369 0.000000
v 0.044726 0.044369 0.058000
v 0.047469 0.041421 0.000000
v 0.048053 0.040743 0.058000
v 0.050018 0.038304 0.000000
v 0.051086 0.036867 0.058000
v 0.053808 0.032767 0.058000
v 0.072000 0.005171 -0.020000
v 0.072000 0.005171 0.028763
v 0.072000 0.003513 0.028912
v 0.072000 -0.005171 0.028763
v 0.072000 -0.005171 -0.020000
v 0.072000 -0.001664 0.029012
v 0.072000 0.000000 0.029041
v 0.071231 -0.009399 0.028763
v 0.071523 -0.008519 -0.020000
v 0.071919 -0.006559 0.028763
v 0.071880 -0.006862 -0.020000
v 0.071314 -0.005598 0.032738
v 0.071373 -0.007041 0.032102
v 0.070847 -0.009737 0.031106
v 0.069678 -0.012162 0.029970
v 0.069826 -0.012032 0.029380
v 0.071134 -0.009485 0.029962
v 0.071781 -0.006681 0.030472
v 0.071845 -0.005377 0.030676
v 0.069652 0.012301 -0.020000
v 0.069876 0.011988 0.028763
v 0.070132 0.011602 -0.020000
v 0.070132 0.011602 0.028763
v 0.070937 0.010110 -0.020000
v 0.071231 0.009399 0.028763
v 0.071731 0.007697 -0.020000
v 0.071919 0.006559 0.028763
v 0.071845 0.005377 0.030676
v 0.071319 0.003803 0.032886
v 0.071314 0.005598 0.032738
v 0.071324 0.000000 0.033013
v 0.071323 -0.001802 0.032984
v 0.069678 0.012162 0.029970
v 0.069826 0.012032 0.029380
v 0.071781 0.006681 0.030472
v 0.071373 0.007041 0.032102
v 0.071134 0.009485 0.029962
v 0.070847 0.009737 0.031106
v 0.000502 -0.062748 0.058433
v 0.005399 -0.062517 0.058433
v 0.000503 -0.062931 0.058250
v 0.005414 -0.062700 0.058250
v 0.010292 -0.062086 0.058250
v 0.015107 -0.061093 0.058250
v 0.019830 -0.059727 0.058250
v 0.024432 -0.057997 0.058250
v 0.028885 -0.055913 0.058250
v 0.033161 -0.053487 0.058250
v 0.037235 -0.050736 0.058250
v 0.041082 -0.047674 0.058250
v 0.044678 -0.044322 0.058250
v 0.048001 -0.040699 0.058250
v 0.051032 -0.036828 0.058250
v 0.053751 -0.032732 0.058250
v 0.056142 -0.028436 0.058250
v 0.058191 -0.023967 0.058250
v 0.059884 -0.019352 0.058250
v 0.061212 -0.014618 0.058250
v 0.062166 -0.009795 0.058250
v 0.062741 -0.004913 0.058250
v 0.062933 0.000000 0.058250
v 0.062741 0.004913 0.058250
v 0.062166 0.009795 0.058250
v 0.061212 0.014618 0.058250
v 0.059884 0.019352 0.058250
v 0.058191 0.023967 0.058250
v 0.056142 0.028436 0.058250
v 0.053751 0.032732 0.058250
v 0.051032 0.036828 0.058250
v 0.048001 0.040699 0.058250
v 0.044678 0.044322 0.058250
v 0.041082 0.047674 0.058250
v 0.037235 0.050736 0.058250
v 0.033161 0.053487 0.058250
v 0.028885 0.055913 0.058250
v 0.024432 0.057997 0.058250
v 0.019830 0.059727 0.058250
v 0.015107 0.061093 0.058250
v 0.010292 0.062086 0.058250
v 0.005414 0.062700 0.058250
v 0.000503 0.062931 0.058250
v 0.010262 -0.061905 0.058433
v 0.015063 -0.060915 0.058433
v 0.019772 -0.059553 0.058433
v 0.024361 -0.057828 0.058433
v 0.028801 -0.055750 0.058433
v 0.033065 -0.053332 0.058433
v 0.037127 -0.050588 0.058433
v 0.040962 -0.047536 0.058433
v 0.044548 -0.044193 0.058433
v 0.047862 -0.040581 0.058433
v 0.050884 -0.036721 0.058433
v 0.053595 -0.032637 0.058433
v 0.055979 -0.028354 0.058433
v 0.058021 -0.023897 0.058433
v 0.059710 -0.019295 0.058433
v 0.061034 -0.014575 0.058433
v 0.061985 -0.009767 0.058433
v 0.062559 -0.004898 0.058433
v 0.062750 0.000000 0.058433
v 0.062559 0.004898 0.058433
v 0.061985 0.009767 0.058433
v 0.061034 0.014575 0.058433
v 0.059710 0.019295 0.058433
v 0.058021 0.023897 0.058433
v 0.055979 0.028354 0.058433
v 0.053595 0.032637 0.058433
v 0.050884 0.036721 0.058433
v 0.047862 0.040581 0.058433
v 0.044548 0.044193 0.058433
v 0.040962 0.047536 0.058433
v 0.037127 0.050588 0.058433
v 0.033065 0.053332 0.058433
v 0.028801 0.055750 0.058433
v 0.024361 0.057828 0.058433
v 0.019772 0.059553 0.058433
v 0.015063 0.060915 0.058433
v 0.010262 0.061905 0.058433
v 0.005399 0.062517 0.058433
v 0.000502 0.062748 0.058433
v 0.030451 -0.039000 -0.171150
v 0.028678 -0.039000 -0.172165
v 0.026117 -0.031234 -0.173496
v 0.025978 -0.032000 -0.173563
v 0.010761 -0.032000 -0.178508
v 0.010577 -0.031160 -0.178540
v 0.010066 -0.030482 -0.178627
v 0.025978 -0.042000 -0.173563
v 0.025911 -0.043088 -0.173596
v 0.025531 -0.044762 -0.173778
v 0.024827 -0.046314 -0.174108
v 0.024228 -0.047196 -0.174379
v 0.022714 -0.048653 -0.175029
v 0.021697 -0.049265 -0.175437
v 0.021286 -0.049452 -0.175596
v 0.020291 -0.049783 -0.175966
v 0.019731 -0.049901 -0.176165
v 0.018542 -0.050000 -0.176566
v 0.018095 -0.049986 -0.176709
v 0.016467 -0.049701 -0.177197
v 0.015326 -0.049265 -0.177507
v 0.014913 -0.049053 -0.177614
v 0.013523 -0.048079 -0.177948
v 0.012542 -0.047056 -0.178163
v 0.012358 -0.046818 -0.178201
v 0.011488 -0.045344 -0.178374
v 0.011059 -0.044172 -0.178454
v 0.010945 -0.043709 -0.178475
v 0.010761 -0.042000 -0.178508
v -0.059094 -0.030000 -0.129763
v -0.039260 -0.066403 -0.086641
v 0.019144 -0.066403 -0.071984
v 0.046493 -0.062378 -0.148940
v 0.046257 -0.063285 -0.148511
v 0.044114 -0.059671 -0.154457
v 0.044581 -0.059140 -0.154272
v 0.044347 -0.066259 -0.146932
v 0.043417 -0.066403 -0.146689
v 0.045644 -0.065124 -0.147763
v 0.045094 -0.065835 -0.147323
v 0.044865 -0.066008 -0.147181
v 0.045827 -0.064686 -0.147951
v 0.046526 -0.058356 -0.152292
v 0.046715 -0.058650 -0.151784
v 0.046875 -0.059531 -0.150813
v 0.046867 -0.060072 -0.150364
v 0.046807 -0.060714 -0.149904
v 0.045340 -0.058476 -0.153805
v 0.045906 -0.058206 -0.153267
v 0.046380 -0.058247 -0.152586
v -0.015142 -0.059671 -0.173710
v -0.012760 -0.065124 -0.171613
v -0.012517 -0.065835 -0.170951
v -0.012384 -0.066259 -0.170119
v -0.014412 -0.060727 -0.173389
v -0.013607 -0.062375 -0.172791
v -0.012880 -0.064685 -0.171846
v -0.012448 -0.066403 -0.169160
v -0.012387 -0.066368 -0.169642
v 0.008131 -0.066403 -0.068969
v 0.012448 -0.066403 -0.069840
v 0.005636 -0.066403 -0.068635
v 0.000506 -0.066403 -0.068323
v -0.001602 -0.066403 -0.068340
v -0.006924 -0.066403 -0.068763
v -0.008805 -0.066403 -0.069046
v -0.014225 -0.066403 -0.070278
v -0.015858 -0.066403 -0.070778
v -0.021172 -0.066403 -0.072857
v -0.022526 -0.066403 -0.073503
v -0.027887 -0.066403 -0.076575
v -0.028795 -0.066403 -0.077183
v -0.033940 -0.066403 -0.081198
v -0.037056 -0.066403 -0.084192
v 0.050248 -0.065943 -0.103174
v 0.044051 -0.066403 -0.093410
v 0.044756 -0.066403 -0.094625
v 0.047404 -0.066293 -0.098058
v 0.046672 -0.066403 -0.098393
v 0.048007 -0.066403 -0.101600
v 0.031841 -0.066403 -0.079402
v 0.033175 -0.066403 -0.080509
v 0.037308 -0.066403 -0.084468
v 0.038613 -0.066403 -0.085914
v 0.040820 -0.066403 -0.088630
v 0.028816 -0.066403 -0.077155
v 0.025782 -0.066403 -0.075226
v 0.024016 -0.066403 -0.074240
v 0.049495 -0.066293 -0.103418
v 0.048730 -0.066403 -0.103667
v -0.009387 -0.066293 -0.170634
v -0.012580 -0.064685 -0.171918
v -0.008131 -0.066403 -0.170031
v -0.005724 -0.066293 -0.171164
v -0.005636 -0.066403 -0.170365
v -0.002046 -0.066293 -0.171441
v -0.000506 -0.066403 -0.170677
v 0.001624 -0.066293 -0.171464
v 0.001602 -0.066403 -0.170660
v 0.005286 -0.066293 -0.171234
v 0.006924 -0.066403 -0.170237
v 0.008939 -0.066293 -0.170746
v 0.008805 -0.066403 -0.169954
v 0.012569 -0.066293 -0.169994
v 0.014225 -0.066403 -0.168722
v 0.016107 -0.066293 -0.168986
v 0.015858 -0.066403 -0.168222
v 0.019545 -0.066293 -0.167725
v 0.021171 -0.066403 -0.166143
v 0.022883 -0.066293 -0.166217
v 0.022526 -0.066403 -0.165497
v 0.026124 -0.066293 -0.164466
v 0.027887 -0.066403 -0.162426
v 0.029249 -0.066293 -0.162481
v 0.028795 -0.066403 -0.161817
v 0.032210 -0.066293 -0.160299
v 0.033940 -0.066403 -0.157802
v 0.035005 -0.066293 -0.157926
v 0.037637 -0.066293 -0.155364
v 0.037056 -0.066403 -0.154808
v 0.039538 -0.066355 -0.152853
v 0.039260 -0.066403 -0.152359
v -0.009528 -0.065943 -0.171413
v -0.005811 -0.065943 -0.171952
v -0.002078 -0.065943 -0.172232
v 0.001646 -0.065943 -0.172256
v 0.005363 -0.065943 -0.172023
v 0.009072 -0.065943 -0.171527
v 0.012758 -0.065943 -0.170763
v 0.016352 -0.065943 -0.169739
v 0.019844 -0.065943 -0.168458
v 0.023235 -0.065943 -0.166927
v 0.026525 -0.065943 -0.165149
v 0.029697 -0.065943 -0.163134
v 0.032702 -0.065943 -0.160920
v 0.035538 -0.065943 -0.158513
v 0.038209 -0.065943 -0.155912
v 0.040130 -0.066035 -0.153559
v -0.009645 -0.065381 -0.172062
v -0.009393 -0.064685 -0.172570
v -0.005883 -0.065380 -0.172607
v -0.006124 -0.064685 -0.173040
v -0.002105 -0.065380 -0.172891
v -0.002832 -0.064685 -0.173314
v 0.001665 -0.065381 -0.172915
v 0.000495 -0.064685 -0.173391
v 0.005427 -0.065381 -0.172679
v 0.026858 -0.065381 -0.165717
v 0.028308 -0.064685 -0.165374
v 0.030070 -0.065381 -0.163678
v 0.031041 -0.064685 -0.163558
v 0.033111 -0.065380 -0.161437
v 0.033662 -0.064685 -0.161581
v 0.035982 -0.065380 -0.159000
v 0.036189 -0.064685 -0.159429
v 0.038685 -0.065381 -0.156369
v 0.038583 -0.064685 -0.157129
v 0.040766 -0.065395 -0.154050
v 0.040839 -0.064685 -0.154684
v 0.041188 -0.064685 -0.154278
v 0.003820 -0.064685 -0.173269
v 0.007121 -0.064685 -0.172946
v 0.009182 -0.065381 -0.172177
v 0.010394 -0.064685 -0.172422
v 0.012915 -0.065381 -0.171404
v 0.013559 -0.064685 -0.171713
v 0.016556 -0.065381 -0.170366
v 0.016671 -0.064685 -0.170809
v 0.020094 -0.065381 -0.169068
v 0.019697 -0.064685 -0.169720
v 0.023527 -0.065381 -0.167517
v 0.022651 -0.064685 -0.168446
v 0.025524 -0.064685 -0.166995
v -0.050248 -0.065943 -0.135826
v -0.050875 -0.065381 -0.136030
v -0.048723 -0.065381 -0.141545
v -0.021747 -0.064686 -0.168867
v -0.020352 -0.064686 -0.169454
v -0.020269 -0.065395 -0.168981
v -0.041568 -0.066293 -0.150714
v -0.044051 -0.066403 -0.145590
v -0.044741 -0.066293 -0.146003
v -0.044756 -0.066403 -0.144375
v -0.047404 -0.066293 -0.140942
v -0.046672 -0.066403 -0.140607
v -0.048007 -0.066403 -0.137400
v -0.031841 -0.066403 -0.159598
v -0.033175 -0.066403 -0.158491
v -0.033769 -0.066293 -0.159041
v -0.037308 -0.066403 -0.154532
v -0.037895 -0.066293 -0.155082
v -0.038613 -0.066403 -0.153086
v -0.040820 -0.066403 -0.150370
v -0.028816 -0.066403 -0.161845
v -0.029271 -0.066293 -0.162508
v -0.025782 -0.066403 -0.163774
v -0.024393 -0.066293 -0.165470
v -0.024016 -0.066403 -0.164760
v -0.019524 -0.066356 -0.167436
v -0.019144 -0.066403 -0.167016
v -0.025289 -0.064686 -0.167154
v -0.020006 -0.066035 -0.168221
v -0.024765 -0.065943 -0.166169
v -0.029720 -0.065943 -0.163160
v -0.034286 -0.065943 -0.159641
v -0.038473 -0.065943 -0.155623
v -0.042201 -0.065943 -0.151191
v -0.045421 -0.065943 -0.146410
v -0.048124 -0.065943 -0.141271
v -0.049495 -0.066293 -0.135582
v -0.048730 -0.066403 -0.135333
v -0.045986 -0.065381 -0.146748
v -0.042727 -0.065380 -0.151588
v -0.038955 -0.065380 -0.156074
v -0.034716 -0.065381 -0.160141
v -0.030093 -0.065381 -0.163704
v -0.025075 -0.065381 -0.166751
v -0.030352 -0.064685 -0.164080
v -0.035014 -0.064685 -0.160487
v -0.039288 -0.064685 -0.156386
v -0.043092 -0.064685 -0.151863
v -0.046378 -0.064685 -0.146983
v -0.049138 -0.064686 -0.141735
v -0.051309 -0.064686 -0.136171
v -0.059404 -0.030000 -0.127715
v 0.004356 -0.051217 -0.179294
v 0.023756 -0.051217 -0.174587
v 0.020459 -0.051217 -0.175905
v 0.020281 -0.051217 -0.175970
v 0.026964 -0.051217 -0.173073
v 0.027618 -0.051217 -0.172735
v 0.007003 -0.051217 -0.179054
v 0.012561 -0.051217 -0.178159
v 0.017123 -0.051217 -0.177007
v -0.027241 -0.051217 -0.172963
v -0.027241 -0.030000 -0.172963
v -0.021050 -0.051217 -0.175672
v -0.019864 -0.051217 -0.176096
v -0.014217 -0.051217 -0.177745
v -0.012095 -0.051217 -0.178214
v -0.007157 -0.051217 -0.179006
v -0.003949 -0.051217 -0.179303
v 0.000028 -0.051217 -0.179439
v 0.038907 -0.051217 -0.165088
v 0.034520 -0.051217 -0.168503
v 0.033161 -0.051217 -0.169439
v 0.043979 -0.051217 -0.160234
v 0.040915 -0.051217 -0.163297
v 0.051373 -0.030000 -0.150488
v 0.050464 -0.051217 -0.151936
v 0.046600 -0.051217 -0.157233
v 0.055044 -0.030000 -0.143371
v 0.053899 -0.051217 -0.145866
v 0.051373 -0.051217 -0.150488
v 0.057707 -0.030000 -0.135798
v 0.057707 -0.051217 -0.135798
v 0.057675 -0.051217 -0.135912
v 0.056608 -0.051217 -0.139329
v 0.055342 -0.051217 -0.142666
v 0.055044 -0.051217 -0.143371
v 0.058578 -0.051217 -0.132248
v 0.059226 -0.051217 -0.128713
v 0.059355 -0.051217 -0.127829
v 0.059898 -0.051217 -0.121606
v -0.059404 -0.051217 -0.127715
v -0.058910 -0.042748 -0.130795
v -0.058701 -0.045934 -0.131859
v -0.058558 -0.046871 -0.132530
v -0.058501 -0.047166 -0.132791
v -0.058803 -0.051217 -0.131352
v -0.058230 -0.048177 -0.133948
v -0.057954 -0.048811 -0.135029
v -0.057748 -0.051217 -0.135784
v -0.057883 -0.048931 -0.135294
v -0.054282 -0.042000 -0.145023
v -0.057751 -0.049116 -0.135775
v -0.057486 -0.049365 -0.136691
v -0.057066 -0.051217 -0.138042
v -0.057066 -0.049500 -0.138042
v -0.056997 -0.049497 -0.138253
v -0.055058 -0.051217 -0.143321
v -0.056467 -0.049270 -0.139787
v -0.055945 -0.048721 -0.141177
v -0.055410 -0.047804 -0.142499
v -0.055049 -0.046916 -0.143342
v -0.052356 -0.051217 -0.148733
v -0.054953 -0.046627 -0.143561
v -0.051356 -0.051217 -0.150440
v -0.054607 -0.045293 -0.144328
v -0.054364 -0.043680 -0.144850
v -0.059939 -0.051217 -0.119420
v -0.059745 -0.051217 -0.124525
v -0.048449 -0.051217 -0.154790
v -0.046651 -0.051217 -0.157127
v -0.041021 -0.051217 -0.163210
v -0.041346 -0.051217 -0.162901
v -0.043866 -0.051217 -0.160341
v -0.046242 -0.051217 -0.157628
v -0.038686 -0.051217 -0.165304
v -0.034610 -0.030000 -0.168485
v -0.034610 -0.051217 -0.168485
v -0.033194 -0.051217 -0.169465
v -0.028129 -0.030000 -0.172500
v -0.028129 -0.051217 -0.172500
v -0.049930 -0.066403 -0.108205
v -0.050529 -0.066403 -0.111356
v -0.050773 -0.066403 -0.113078
v -0.051176 -0.066403 -0.118963
v -0.051166 -0.066403 -0.120849
v 0.044601 -0.066403 -0.144714
v -0.043417 -0.066403 -0.092311
v -0.044601 -0.066403 -0.094286
v -0.046013 -0.066403 -0.096960
v -0.047797 -0.066403 -0.101077
v -0.048194 -0.066403 -0.102156
v 0.046013 -0.066403 -0.142040
v 0.047797 -0.066403 -0.137923
v 0.048194 -0.066403 -0.136844
v 0.050773 -0.066403 -0.125922
v 0.051176 -0.066403 -0.120037
v 0.051166 -0.066403 -0.118151
v -0.050161 -0.066403 -0.129880
v -0.050474 -0.066403 -0.128187
v -0.050969 -0.066403 -0.124335
v 0.050529 -0.066403 -0.127644
v 0.050161 -0.066403 -0.109120
v 0.050474 -0.066403 -0.110813
v 0.050969 -0.066403 -0.114665
v 0.042017 -0.062963 -0.154559
v -0.020375 -0.064069 -0.169759
v 0.051603 -0.052500 -0.149540
v 0.046621 -0.064686 -0.146640
v 0.054634 -0.052500 -0.143591
v 0.048449 -0.064686 -0.143231
v 0.055959 -0.052500 -0.140294
v 0.050750 -0.064685 -0.137751
v 0.057083 -0.052500 -0.136921
v 0.058014 -0.052500 -0.133445
v 0.052423 -0.064685 -0.132059
v 0.058737 -0.052500 -0.129918
v 0.053464 -0.064685 -0.126258
v 0.059258 -0.052500 -0.126300
v 0.059563 -0.052500 -0.122656
v 0.053884 -0.064685 -0.120348
v 0.059611 -0.052500 -0.121595
v 0.059650 -0.052500 -0.118974
v 0.059516 -0.052500 -0.115294
v 0.053670 -0.064685 -0.114421
v -0.054409 -0.052500 -0.144068
v -0.055590 -0.052500 -0.141292
v -0.056792 -0.052500 -0.137953
v -0.054185 -0.052500 -0.144552
v -0.052580 -0.052500 -0.147733
v -0.052105 -0.052500 -0.148591
v -0.050787 -0.052500 -0.150815
v -0.048778 -0.052500 -0.153840
v -0.046591 -0.052500 -0.156742
v -0.044210 -0.052500 -0.159540
v -0.041665 -0.052500 -0.162191
v -0.038960 -0.052500 -0.164689
v -0.036109 -0.052500 -0.167018
v -0.033146 -0.052500 -0.169150
v -0.033033 -0.052500 -0.169225
v -0.024071 -0.052500 -0.174143
v -0.027110 -0.052500 -0.172706
v -0.030058 -0.052500 -0.171092
v -0.020950 -0.052500 -0.175401
v -0.020774 -0.052500 -0.175466
v -0.019835 -0.060223 -0.171919
v -0.020242 -0.061853 -0.170938
v -0.020370 -0.063286 -0.170160
v -0.018361 -0.058353 -0.173380
v -0.018566 -0.058466 -0.173254
v -0.019251 -0.059117 -0.172689
v -0.013924 -0.052500 -0.177519
v -0.016102 -0.058739 -0.173896
v -0.017400 -0.052500 -0.176589
v -0.017018 -0.058268 -0.173854
v -0.017821 -0.058195 -0.173637
v -0.010397 -0.052500 -0.178241
v -0.006778 -0.052500 -0.178760
v -0.003134 -0.052500 -0.179064
v 0.000548 -0.052500 -0.179150
v 0.004228 -0.052500 -0.179014
v 0.006970 -0.052500 -0.178768
v 0.007882 -0.052500 -0.178657
v 0.011505 -0.052500 -0.178077
v 0.013637 -0.052500 -0.177626
v 0.045203 -0.052500 -0.158444
v 0.047531 -0.052500 -0.155592
v 0.043124 -0.061047 -0.154645
v 0.043769 -0.052500 -0.160038
v 0.042706 -0.052500 -0.161150
v 0.040056 -0.052500 -0.163695
v 0.037259 -0.052500 -0.166078
v 0.034358 -0.052500 -0.168266
v 0.031333 -0.052500 -0.170276
v 0.028252 -0.052500 -0.172070
v 0.025071 -0.052500 -0.173677
v 0.021802 -0.052500 -0.175087
v 0.018453 -0.052500 -0.176292
v 0.015007 -0.052500 -0.177292
v 0.049661 -0.052500 -0.152628
v -0.053464 -0.064685 -0.112742
v -0.059258 -0.052500 -0.112700
v -0.059563 -0.052500 -0.116343
v -0.053884 -0.064685 -0.118652
v -0.059611 -0.052500 -0.117405
v -0.059650 -0.052500 -0.120026
v -0.059516 -0.052500 -0.123706
v -0.053670 -0.064685 -0.124579
v -0.059160 -0.052500 -0.127360
v -0.058581 -0.052500 -0.130983
v -0.052819 -0.064686 -0.130418
v -0.057795 -0.052500 -0.134497
v 0.053833 -0.051874 -0.145834
v 0.059825 -0.051874 -0.121603
v 0.059852 -0.051874 -0.118036
v 0.055274 -0.051874 -0.142638
v 0.056539 -0.051874 -0.139306
v 0.057605 -0.051874 -0.135893
v 0.057649 -0.051874 -0.135733
v 0.058507 -0.051874 -0.132233
v 0.059155 -0.051874 -0.128702
v 0.052203 -0.051874 -0.148929
v 0.050403 -0.051874 -0.151896
v 0.048424 -0.051874 -0.154761
v 0.043926 -0.051874 -0.160185
v 0.038860 -0.051874 -0.165033
v 0.036062 -0.051874 -0.167283
v 0.033121 -0.051874 -0.169378
v 0.030070 -0.051874 -0.171291
v 0.026931 -0.051874 -0.173008
v 0.023727 -0.051874 -0.174520
v 0.020434 -0.051874 -0.175836
v 0.013686 -0.051874 -0.177836
v 0.017102 -0.051874 -0.176937
v 0.006994 -0.051874 -0.178981
v 0.000028 -0.051874 -0.179366
v -0.003556 -0.051874 -0.179255
v -0.007148 -0.051874 -0.178934
v -0.010703 -0.051874 -0.178405
v -0.014200 -0.051874 -0.177675
v -0.021025 -0.051874 -0.175603
v -0.017640 -0.051874 -0.176741
v -0.027208 -0.051874 -0.172898
v -0.058732 -0.051874 -0.131338
v -0.057967 -0.051874 -0.134693
v -0.056997 -0.051874 -0.138019
v -0.059825 -0.051874 -0.117397
v -0.059852 -0.051874 -0.120964
v -0.059672 -0.051874 -0.124519
v -0.033153 -0.051874 -0.169404
v -0.038639 -0.051874 -0.165249
v -0.041296 -0.051874 -0.162848
v -0.043812 -0.051874 -0.160292
v -0.046186 -0.051874 -0.157582
v -0.048391 -0.051874 -0.154747
v -0.050428 -0.051874 -0.151786
v -0.052293 -0.051874 -0.148697
v -0.054605 -0.051874 -0.144158
v -0.046735 -0.066293 -0.096607
v -0.048952 -0.066293 -0.101887
v -0.050566 -0.066293 -0.107379
v -0.051571 -0.066293 -0.112978
v -0.051977 -0.066293 -0.118686
v -0.051770 -0.066293 -0.124407
v -0.050949 -0.066293 -0.130040
v -0.051725 -0.065943 -0.130197
v -0.052559 -0.065943 -0.124478
v -0.052769 -0.065943 -0.118672
v -0.052357 -0.065943 -0.112880
v -0.051337 -0.065943 -0.107197
v -0.051978 -0.065381 -0.107046
v -0.053011 -0.065380 -0.112798
v -0.053428 -0.065380 -0.118660
v -0.053215 -0.065381 -0.124538
v -0.052371 -0.065381 -0.130328
v 0.051725 -0.065943 -0.108803
v 0.052371 -0.065381 -0.108672
v 0.046735 -0.066293 -0.142393
v 0.048952 -0.066293 -0.137113
v 0.050566 -0.066293 -0.131621
v 0.049930 -0.066403 -0.130795
v 0.051571 -0.066293 -0.126022
v 0.051977 -0.066293 -0.120314
v 0.051770 -0.066293 -0.114593
v 0.050949 -0.066293 -0.108960
v 0.048039 -0.065381 -0.143030
v 0.052559 -0.065943 -0.114522
v 0.052769 -0.065943 -0.120328
v 0.052357 -0.065943 -0.126120
v 0.051337 -0.065943 -0.131803
v 0.049698 -0.065943 -0.137378
v 0.047447 -0.065943 -0.142741
v 0.053215 -0.065381 -0.114462
v 0.053428 -0.065380 -0.120340
v 0.053011 -0.065380 -0.126202
v 0.051978 -0.065381 -0.131954
v 0.050319 -0.065381 -0.137598
v -0.000500 -0.062498 0.058500
v -0.004954 -0.062303 0.058500
v -0.009383 -0.061792 0.058500
v -0.013971 -0.060919 0.058500
v -0.018480 -0.059705 0.058500
v -0.022887 -0.058159 0.058500
v -0.027166 -0.056287 0.058500
v -0.031293 -0.054101 0.058500
v -0.035246 -0.051614 0.058500
v -0.039002 -0.048838 0.058500
v -0.000500 0.062498 0.058500
v -0.004954 0.062303 0.058500
v -0.009383 0.061792 0.058500
v -0.013971 0.060919 0.058500
v -0.018480 0.059705 0.058500
v -0.022887 0.058159 0.058500
v -0.027166 0.056287 0.058500
v -0.031293 0.054101 0.058500
v -0.035246 0.051614 0.058500
v -0.039002 0.048838 0.058500
v -0.042540 0.045789 0.058500
v -0.045840 0.042484 0.058500
v -0.048885 0.038943 0.058500
v -0.051656 0.035184 0.058500
v -0.054139 0.031228 0.058500
v -0.056320 0.027098 0.058500
v -0.058186 0.022817 0.058500
v -0.059728 0.018408 0.058500
v -0.060935 0.013897 0.058500
v -0.061803 0.009308 0.058500
v -0.062326 0.004667 0.058500
v -0.062500 -0.000000 0.058500
v -0.062326 -0.004667 0.058500
v -0.061803 -0.009308 0.058500
v -0.060935 -0.013897 0.058500
v -0.059728 -0.018408 0.058500
v -0.058186 -0.022817 0.058500
v -0.056320 -0.027098 0.058500
v -0.054139 -0.031228 0.058500
v -0.051656 -0.035184 0.058500
v -0.048885 -0.038943 0.058500
v -0.045840 -0.042484 0.058500
v -0.042540 -0.045789 0.058500
v -0.042880 -0.046155 0.058000
v -0.049276 -0.039254 0.058000
v -0.046207 -0.042824 0.058000
v -0.000504 -0.062998 0.058000
v -0.004993 -0.062802 0.058000
v -0.009458 -0.062286 0.058000
v -0.014082 -0.061406 0.058000
v -0.018628 -0.060183 0.058000
v -0.023070 -0.058624 0.058000
v -0.027384 -0.056737 0.058000
v -0.031544 -0.054534 0.058000
v -0.035528 -0.052027 0.058000
v -0.039314 -0.049228 0.058000
v -0.042880 0.046155 0.058000
v -0.046207 0.042824 0.058000
v -0.049276 0.039254 0.058000
v -0.052069 0.035465 0.058000
v -0.054572 0.031478 0.058000
v -0.054572 0.031478 0.000000
v -0.056770 0.027315 0.058000
v -0.056770 0.027315 0.000000
v -0.058652 0.023000 0.058000
v -0.058652 0.023000 0.000000
v -0.060205 0.018556 0.058000
v -0.060205 0.018556 0.000000
v -0.061423 0.014008 0.058000
v -0.061423 0.014008 0.000000
v -0.062297 0.009383 0.058000
v -0.062297 0.009383 0.000000
v -0.062824 0.004704 0.058000
v -0.062824 0.004704 0.000000
v -0.063000 -0.000000 0.058000
v -0.063000 -0.000000 0.000000
v -0.062824 -0.004704 0.058000
v -0.062824 -0.004704 0.000000
v -0.062297 -0.009383 0.058000
v -0.061423 -0.014008 0.058000
v -0.060205 -0.018556 0.058000
v -0.058652 -0.023000 0.058000
v -0.056770 -0.027315 0.058000
v -0.054572 -0.031478 0.058000
v -0.052069 -0.035465 0.058000
v -0.039314 0.049228 0.058000
v -0.035528 0.052027 0.058000
v -0.031544 0.054534 0.058000
v -0.027384 0.056737 0.058000
v -0.023070 0.058624 0.058000
v -0.018628 0.060183 0.058000
v -0.014082 0.061406 0.058000
v -0.009458 0.062286 0.058000
v -0.004993 0.062802 0.058000
v -0.000504 0.062998 0.058000
v -0.000503 0.062931 0.058250
v -0.000502 0.062748 0.058433
v -0.000503 -0.062852 0.058354
v -0.000502 -0.062748 0.058433
v -0.004974 -0.062553 0.058433
v -0.009420 -0.062039 0.058433
v -0.014026 -0.061162 0.058433
v -0.018554 -0.059944 0.058433
v -0.022979 -0.058391 0.058433
v -0.027275 -0.056512 0.058433
v -0.031419 -0.054318 0.058433
v -0.035387 -0.051820 0.058433
v -0.039158 -0.049033 0.058433
v -0.042710 -0.045972 0.058433
v -0.046023 -0.042654 0.058433
v -0.049080 -0.039099 0.058433
v -0.051863 -0.035325 0.058433
v -0.054356 -0.031353 0.058433
v -0.056545 -0.027207 0.058433
v -0.058419 -0.022908 0.058433
v -0.059966 -0.018482 0.058433
v -0.061179 -0.013953 0.058433
v -0.062050 -0.009345 0.058433
v -0.062575 -0.004686 0.058433
v -0.062750 -0.000000 0.058433
v -0.062575 0.004686 0.058433
v -0.062050 0.009345 0.058433
v -0.061179 0.013953 0.058433
v -0.059966 0.018482 0.058433
v -0.058419 0.022908 0.058433
v -0.056545 0.027207 0.058433
v -0.054356 0.031353 0.058433
v -0.051863 0.035325 0.058433
v -0.049080 0.039099 0.058433
v -0.046023 0.042654 0.058433
v -0.042710 0.045972 0.058433
v -0.039158 0.049033 0.058433
v -0.035387 0.051820 0.058433
v -0.031419 0.054318 0.058433
v -0.027275 0.056512 0.058433
v -0.022979 0.058391 0.058433
v -0.018554 0.059944 0.058433
v -0.014026 0.061162 0.058433
v -0.009420 0.062039 0.058433
v -0.004974 0.062553 0.058433
v -0.000504 -0.062960 0.058191
v -0.000503 -0.062931 0.058250
v -0.004988 -0.062735 0.058250
v -0.009448 -0.062220 0.058250
v -0.014067 -0.061341 0.058250
v -0.018608 -0.060119 0.058250
v -0.023046 -0.058562 0.058250
v -0.027354 -0.056677 0.058250
v -0.031510 -0.054476 0.058250
v -0.035490 -0.051971 0.058250
v -0.039272 -0.049176 0.058250
v -0.042834 -0.046106 0.058250
v -0.046158 -0.042779 0.058250
v -0.049223 -0.039213 0.058250
v -0.052014 -0.035428 0.058250
v -0.054514 -0.031445 0.058250
v -0.056710 -0.027286 0.058250
v -0.058589 -0.022975 0.058250
v -0.060141 -0.018536 0.058250
v -0.061358 -0.013993 0.058250
v -0.062231 -0.009373 0.058250
v -0.062757 -0.004699 0.058250
v -0.062933 -0.000000 0.058250
v -0.062757 0.004699 0.058250
v -0.062231 0.009373 0.058250
v -0.061358 0.013993 0.058250
v -0.060141 0.018536 0.058250
v -0.058589 0.022975 0.058250
v -0.056710 0.027286 0.058250
v -0.054514 0.031445 0.058250
v -0.052014 0.035428 0.058250
v -0.049223 0.039213 0.058250
v -0.046158 0.042779 0.058250
v -0.042834 0.046106 0.058250
v -0.039272 0.049176 0.058250
v -0.035490 0.051971 0.058250
v -0.031510 0.054476 0.058250
v -0.027354 0.056677 0.058250
v -0.023046 0.058562 0.058250
v -0.018608 0.060119 0.058250
v -0.014067 0.061341 0.058250
v -0.009448 0.062220 0.058250
v -0.004988 0.062735 0.058250
v -0.000428 -0.062675 0.058462
v -0.018406 0.019000 -0.173354
v -0.022801 0.019000 -0.171645
v -0.046545 0.019000 -0.152250
v -0.050904 0.019000 -0.144952
v -0.056901 0.019000 -0.120638
v -0.051786 0.019000 -0.143105
v -0.056542 0.019000 -0.125979
v -0.056788 0.019000 -0.123258
v -0.054127 0.019000 -0.137087
v -0.054427 0.019000 -0.136135
v -0.055357 0.019000 -0.132714
v -0.055444 0.019000 -0.132342
v -0.056142 0.019000 -0.128829
v -0.033452 0.019000 -0.165543
v -0.029803 0.019000 -0.167985
v -0.026222 0.019000 -0.170012
v -0.036306 0.019000 -0.163328
v -0.039937 0.019000 -0.160047
v -0.042093 0.019000 -0.157804
v -0.042202 0.019000 -0.157684
v -0.044697 0.019000 -0.154730
v -0.045530 0.019000 -0.153647
v -0.016763 0.019000 -0.173887
v -0.008476 0.019000 -0.175777
v -0.007772 0.019000 -0.175879
v -0.000000 0.019000 -0.176412
v 0.007772 0.019000 -0.175879
v 0.008476 0.019000 -0.175777
v 0.016763 0.019000 -0.173887
v 0.018406 0.019000 -0.173354
v 0.022801 0.019000 -0.171645
v 0.026222 0.019000 -0.170012
v 0.029803 0.019000 -0.167985
v 0.033452 0.019000 -0.165543
v 0.039937 0.019000 -0.160047
v 0.036306 0.019000 -0.163328
v 0.042202 0.019000 -0.157684
v 0.045530 0.019000 -0.153647
v 0.042093 0.019000 -0.157804
v 0.050904 0.019000 -0.144952
v 0.046545 0.019000 -0.152250
v 0.056788 0.019000 -0.123258
v 0.055357 0.019000 -0.132714
v 0.054427 0.019000 -0.136135
v 0.056542 0.019000 -0.125979
v 0.056142 0.019000 -0.128829
v 0.055444 0.019000 -0.132342
v 0.051786 0.019000 -0.143105
v 0.054127 0.019000 -0.137087
v -0.017118 0.018827 -0.173837
v -0.017690 0.018737 -0.173685
v -0.045790 0.018826 -0.153394
v -0.046160 0.018737 -0.152940
v -0.015412 0.018930 -0.174310
v -0.022792 0.018119 -0.171962
v -0.029789 0.017002 -0.168729
v -0.036284 0.015600 -0.164668
v -0.047341 0.016481 -0.152473
v -0.051717 0.017038 -0.144701
v -0.055221 0.017728 -0.134873
v 0.055221 0.017728 -0.134873
v 0.051717 0.017038 -0.144701
v 0.047341 0.016481 -0.152473
v 0.045820 0.018811 -0.153363
v 0.046064 0.018737 -0.153071
v 0.046390 0.018829 -0.152567
v 0.036284 0.015600 -0.164668
v 0.029789 0.017002 -0.168729
v 0.022792 0.018119 -0.171962
v 0.018095 0.018829 -0.173519
v 0.017535 0.018737 -0.173735
v 0.015412 0.018930 -0.174310
v 0.034774 0.054446 -0.052576
v 0.034776 0.054532 -0.051500
v 0.034868 0.054454 -0.051500
v 0.034772 0.054368 -0.052985
v 0.034774 0.054443 -0.052596
v 0.034865 0.054292 -0.052967
v 0.034776 0.054532 -0.047500
v 0.034868 0.054454 -0.047500
v 0.034804 0.054496 -0.046280
v 0.023184 0.060579 -0.036000
v 0.024304 0.060123 -0.036054
v 0.025398 0.059654 -0.036212
v 0.026197 0.059295 -0.036395
v 0.026468 0.059170 -0.036471
v 0.027512 0.058675 -0.036832
v 0.028513 0.058178 -0.037287
v 0.029462 0.057687 -0.037832
v 0.030359 0.057203 -0.038468
v 0.031203 0.056730 -0.039195
v 0.031972 0.056284 -0.040001
v 0.032663 0.055871 -0.040881
v 0.033274 0.055496 -0.041839
v 0.033798 0.055167 -0.042876
v 0.034216 0.054899 -0.043967
v 0.034522 0.054699 -0.045108
v 0.034712 0.054574 -0.046295
v 0.019914 0.061770 -0.036000
v 0.018707 0.062158 -0.036000
v 0.013405 0.063557 -0.036000
v -0.019914 0.061770 -0.036000
v -0.023184 0.060579 -0.036000
v -0.018707 0.062158 -0.036000
v -0.014124 0.063396 -0.036000
v -0.013405 0.063557 -0.036000
v 0.004744 0.064821 -0.036000
v -0.000000 0.065000 -0.036000
v -0.004744 0.064821 -0.036000
v -0.006741 0.064638 -0.036000
v -0.009461 0.064286 -0.036000
v 0.014124 0.063396 -0.036000
v -0.027516 0.058674 -0.036833
v -0.028514 0.058178 -0.037288
v -0.029464 0.057686 -0.037834
v -0.030364 0.057200 -0.038472
v -0.031206 0.056728 -0.039199
v -0.031976 0.056282 -0.040005
v -0.032672 0.055866 -0.040894
v -0.033287 0.055488 -0.041861
v -0.033804 0.055163 -0.042891
v -0.034221 0.054895 -0.043985
v -0.034527 0.054696 -0.045131
v -0.034713 0.054574 -0.046302
v -0.034776 0.054532 -0.047500
v -0.025399 0.059653 -0.036212
v -0.026197 0.059295 -0.036395
v -0.026470 0.059169 -0.036472
v -0.024304 0.060123 -0.036054
v -0.034940 0.054352 -0.051500
v -0.034776 0.054532 -0.051500
v -0.034769 0.054268 -0.053380
v -0.034772 0.054371 -0.052974
v -0.034774 0.054443 -0.052599
v 0.030717 0.056918 -0.052596
v 0.030513 0.056552 -0.054269
v 0.026318 0.059156 -0.052596
v 0.030754 0.056984 -0.051500
v 0.019914 0.061770 -0.051500
v 0.021784 0.061114 -0.051500
v 0.021758 0.061043 -0.052596
v 0.026196 0.059296 -0.051500
v 0.026350 0.059225 -0.051500
v 0.017083 0.062640 -0.051500
v 0.017063 0.062567 -0.052596
v 0.013405 0.063557 -0.051500
v 0.012263 0.063718 -0.052596
v 0.012278 0.063792 -0.051500
v 0.007388 0.064489 -0.052596
v 0.007397 0.064564 -0.051500
v 0.002468 0.064876 -0.052596
v 0.002471 0.064952 -0.051500
v 0.006741 0.064638 -0.051500
v -0.013405 0.063557 -0.051500
v -0.012278 0.063792 -0.051500
v -0.012263 0.063718 -0.052596
v -0.007397 0.064564 -0.051500
v -0.007388 0.064489 -0.052596
v -0.006741 0.064638 -0.051500
v -0.002468 0.064876 -0.052596
v -0.002471 0.064952 -0.051500
v -0.000000 0.065000 -0.051500
v -0.017083 0.062640 -0.051500
v -0.017063 0.062567 -0.052596
v -0.019914 0.061770 -0.051500
v -0.021758 0.061043 -0.052596
v -0.021784 0.061114 -0.051500
v -0.026196 0.059296 -0.051500
v -0.026318 0.059156 -0.052596
v -0.026350 0.059225 -0.051500
v -0.030717 0.056918 -0.052596
v -0.030754 0.056984 -0.051500
v -0.030513 0.056552 -0.054269
v 0.026143 0.058776 -0.054269
v 0.021613 0.060650 -0.054269
v 0.016949 0.062164 -0.054269
v 0.012182 0.063307 -0.054269
v 0.007339 0.064073 -0.054269
v 0.002451 0.064457 -0.054269
v -0.002451 0.064457 -0.054269
v -0.007339 0.064073 -0.054269
v -0.012182 0.063307 -0.054269
v -0.016949 0.062164 -0.054269
v -0.021613 0.060650 -0.054269
v -0.026143 0.058776 -0.054269
v -0.046195 0.045234 0.005433
v -0.045444 0.045985 0.003411
v -0.046096 0.045333 0.005900
v -0.045827 0.045602 0.005992
v -0.046704 0.044725 0.003961
v -0.046769 0.044660 0.004341
v -0.046762 0.044667 0.004733
v -0.046684 0.044745 0.005108
v -0.046540 0.044889 0.005443
v -0.046339 0.045090 0.005712
v -0.044857 0.046572 0.005383
v -0.045048 0.046381 0.005667
v -0.046572 0.044857 0.003617
v -0.045550 0.045879 0.005982
v -0.045284 0.046145 0.005871
v -0.045291 0.046137 0.003124
v -0.045295 0.046134 0.003122
v -0.045333 0.046096 0.003100
v -0.045602 0.045827 0.003008
v -0.045879 0.045550 0.003018
v -0.046145 0.045284 0.003129
v -0.046381 0.045048 0.003333
v -0.044725 0.046704 0.005039
v -0.044660 0.046769 0.004659
v -0.044667 0.046762 0.004267
v -0.044745 0.046684 0.003892
v -0.044889 0.046540 0.003557
v -0.044916 0.046513 0.003513
v -0.044918 0.046510 0.003509
v -0.045090 0.046339 0.003288
f 878 876 48
f 179 181 1070
f 183 184 182
f 182 181 183
f 258 181 179
f 179 178 258
f 260 178 177
f 177 1080 176
f 174 1072 1089
f 1089 1129 1090
f 175 1072 174
f 263 175 174
f 262 175 263
f 170 267 171
f 1180 998 1181
f 48 876 874
f 570 197 723
f 570 191 197
f 1028 1031 1056
f 260 177 261
f 261 177 176
f 176 175 261
f 261 175 262
f 295 294 255
f 1088 178 179
f 181 182 180
f 1065 182 184
f 1065 180 182
f 1065 184 206
f 181 258 257
f 259 258 178
f 298 258 259
f 259 178 260
f 260 298 259
f 1083 177 1084
f 174 1089 108
f 108 1089 1090
f 1130 1089 1072
f 1129 1089 1130
f 1083 1084 1128
f 1091 1102 1136
f 862 850 780
f 810 908 809
f 857 856 951
f 858 857 952
f 857 951 952
f 1057 89 1024
f 93 89 1057
f 795 640 806
f 264 263 174
f 174 173 264
f 266 171 267
f 304 264 265
f 265 266 304
f 997 998 1124
f 1124 1003 997
f 48 998 997
f 723 197 195
f 893 983 894
f 895 1104 894
f 597 883 884
f 884 882 597
f 885 883 597
f 880 878 48
f 48 882 880
f 187 76 212
f 1030 69 1031
f 1028 1056 1054
f 1054 1056 1055
f 1054 92 1028
f 1055 92 1054
f 299 298 260
f 260 261 299
f 151 224 219
f 255 254 186
f 186 151 219
f 186 254 253
f 253 151 186
f 256 295 255
f 256 257 295
f 183 181 256
f 181 257 256
f 179 1070 1071
f 1071 1088 179
f 1069 1071 1070
f 1088 1071 1069
f 297 119 117
f 297 258 298
f 117 295 296
f 295 257 296
f 296 297 117
f 296 257 258
f 258 297 296
f 105 173 174
f 170 171 100
f 100 901 170
f 100 1102 1091
f 1098 1099 100
f 1076 176 1077
f 1076 175 176
f 1073 1074 1132
f 1073 1130 1072
f 1132 1130 1073
f 1072 175 1073
f 175 1074 1073
f 1077 176 1078
f 1081 1128 1080
f 1080 177 1081
f 1063 1065 1068
f 1131 1130 1132
f 1129 1130 1131
f 1027 1165 1028
f 1028 92 1027
f 1026 1057 1024
f 1026 1025 93
f 93 1057 1026
f 1129 1131 1135
f 1134 1102 1090
f 1134 1136 1102
f 1134 1135 1136
f 1090 1129 1134
f 1129 1135 1134
f 861 955 956
f 860 955 861
f 956 862 861
f 50 994 55
f 912 955 911
f 911 955 954
f 954 859 858
f 954 955 860
f 860 859 954
f 954 910 911
f 812 910 811
f 908 810 811
f 858 952 953
f 953 952 910
f 953 954 858
f 910 954 953
f 909 951 908
f 909 952 951
f 908 811 909
f 910 952 909
f 909 811 910
f 891 851 960
f 15 307 65
f 93 92 14
f 14 553 93
f 722 639 640
f 806 640 642
f 640 639 642
f 642 643 645
f 640 795 638
f 72 555 70
f 70 69 72
f 69 70 68
f 1053 1056 1031
f 1031 69 1053
f 1053 69 92
f 1053 92 1055
f 1055 1056 1053
f 537 307 738
f 85 1006 1045
f 91 1059 63
f 1020 1059 91
f 17 90 18
f 996 79 999
f 50 79 996
f 894 1104 1105
f 1120 1121 1124
f 1124 998 1120
f 998 1180 1120
f 1093 896 1092
f 1093 1119 896
f 901 100 900
f 900 100 1099
f 999 79 1000
f 1002 1003 1124
f 1181 998 868
f 867 1181 868
f 154 200 243
f 200 154 156
f 156 243 242
f 156 154 243
f 222 250 249
f 809 908 907
f 907 906 809
f 908 951 907
f 904 906 949
f 949 948 904
f 949 854 947
f 947 948 949
f 162 163 231
f 231 230 162
f 785 165 164
f 166 165 785
f 785 167 166
f 723 195 724
f 724 195 194
f 203 653 194
f 200 202 203
f 304 266 305
f 305 112 304
f 898 1096 1095
f 902 900 989
f 901 900 902
f 945 819 946
f 946 902 989
f 981 892 980
f 896 895 984
f 894 983 984
f 984 895 894
f 1 597 882
f 886 885 756
f 885 597 756
f 756 597 757
f 965 966 886
f 211 212 210
f 210 209 211
f 1035 212 76
f 1035 210 212
f 213 212 211
f 213 188 187
f 187 212 213
f 220 186 219
f 219 224 220
f 224 151 153
f 224 153 152
f 1164 1030 1031
f 1164 1031 1028
f 1028 1165 1164
f 1165 1131 1164
f 300 261 262
f 262 301 300
f 300 299 261
f 110 299 300
f 121 299 110
f 298 299 121
f 222 249 248
f 248 216 222
f 178 1086 1085
f 1085 177 178
f 1085 1084 177
f 178 1088 1087
f 1087 1086 178
f 174 108 104
f 104 105 174
f 1102 105 104
f 104 108 1090
f 1090 1102 104
f 98 173 106
f 106 1102 98
f 171 266 172
f 266 265 172
f 172 264 173
f 172 265 264
f 102 172 173
f 1091 1136 99
f 99 100 1091
f 1097 1142 99
f 1098 100 99
f 99 1142 1098
f 1132 1074 1075
f 1075 1074 175
f 175 1076 1075
f 1133 1078 1128
f 1077 1078 1133
f 1133 1076 1077
f 1132 1075 1133
f 1133 1075 1076
f 1080 1128 1079
f 1128 1078 1079
f 176 1080 1079
f 1079 1078 176
f 1083 1128 1082
f 1128 1081 1082
f 1082 177 1083
f 1082 1081 177
f 1065 1063 1064
f 1064 1128 1084
f 1084 1085 1064
f 1064 1085 1086
f 1086 1087 1064
f 1088 1069 1064
f 1064 1087 1088
f 1025 1165 1029
f 1165 1027 1029
f 93 1025 1029
f 1029 92 93
f 1029 1027 92
f 63 1059 1022
f 1022 1058 63
f 1136 1135 1137
f 1139 1137 1167
f 48 997 78
f 1003 1002 78
f 78 997 1003
f 35 82 32
f 34 33 83
f 34 82 606
f 83 82 34
f 83 33 40
f 80 83 40
f 971 970 928
f 879 970 971
f 873 875 973
f 976 866 867
f 980 864 979
f 979 864 865
f 959 851 852
f 959 960 851
f 959 917 960
f 890 891 962
f 967 885 886
f 886 966 967
f 967 883 885
f 967 968 883
f 881 883 969
f 883 968 969
f 969 879 881
f 970 879 969
f 67 65 63
f 63 1058 67
f 67 1058 89
f 63 65 64
f 16 89 93
f 15 89 16
f 71 8 72
f 72 8 11
f 559 722 731
f 559 11 8
f 739 537 738
f 1015 1170 1016
f 88 1016 1017
f 87 1016 57
f 1015 1016 87
f 85 1045 84
f 1049 994 50
f 50 996 1049
f 1049 996 994
f 1109 893 894
f 1159 1158 1156
f 1157 1158 1119
f 1119 1093 1157
f 1156 1158 1157
f 1157 1093 1092
f 1008 1007 83
f 1100 900 1099
f 1100 1147 1101
f 1017 1016 1169
f 1169 1016 1170
f 1151 1099 1098
f 1006 1172 992
f 992 1172 1171
f 992 1045 1006
f 1014 1013 1171
f 1014 1170 1015
f 1171 1170 1014
f 1015 87 1014
f 1014 87 86
f 1001 1000 1050
f 1050 1000 79
f 995 868 998
f 870 868 995
f 995 872 870
f 874 872 995
f 995 998 48
f 48 874 995
f 892 893 1199
f 1199 1198 892
f 1199 1121 1200
f 1182 866 865
f 1182 1181 867
f 867 866 1182
f 1185 864 1178
f 863 1190 1189
f 863 864 980
f 863 1198 1186
f 980 892 863
f 892 1198 863
f 201 202 200
f 157 202 201
f 222 216 214
f 188 213 214
f 190 192 205
f 5 75 76
f 187 191 3
f 3 76 187
f 1039 75 1038
f 76 75 1051
f 294 295 123
f 253 254 293
f 255 294 293
f 293 254 255
f 294 123 293
f 283 244 245
f 243 244 283
f 268 229 230
f 228 229 268
f 950 907 951
f 950 856 855
f 950 951 856
f 855 854 950
f 950 854 949
f 949 906 950
f 906 907 950
f 389 158 388
f 158 338 394
f 367 338 158
f 905 904 225
f 906 904 905
f 227 904 948
f 948 947 227
f 228 225 227
f 225 904 227
f 227 947 158
f 227 159 228
f 158 159 227
f 158 947 853
f 371 370 853
f 853 854 337
f 853 947 854
f 163 164 233
f 233 164 165
f 167 168 236
f 236 166 167
f 165 166 234
f 234 233 165
f 569 570 723
f 191 570 569
f 569 3 191
f 568 3 569
f 194 653 652
f 652 724 194
f 723 724 652
f 196 203 194
f 196 190 205
f 196 195 197
f 194 195 196
f 191 190 196
f 197 191 196
f 200 203 204
f 204 196 205
f 203 196 204
f 803 802 797
f 797 804 803
f 786 167 785
f 786 168 167
f 654 203 202
f 654 202 157
f 157 802 654
f 653 203 654
f 650 652 654
f 654 652 653
f 654 803 650
f 802 803 654
f 647 649 650
f 650 803 647
f 647 803 804
f 647 804 645
f 645 646 647
f 645 804 805
f 806 642 805
f 805 642 645
f 798 804 797
f 798 805 804
f 797 802 796
f 796 786 785
f 802 786 796
f 797 796 792
f 161 162 230
f 381 794 785
f 785 164 381
f 381 164 163
f 391 159 158
f 304 112 109
f 109 116 304
f 303 264 304
f 304 116 303
f 112 305 306
f 306 266 267
f 306 305 266
f 1095 1096 1144
f 1092 896 897
f 897 1094 1092
f 1095 1094 897
f 897 898 1095
f 899 1100 1101
f 900 1100 899
f 1101 1096 899
f 1096 898 899
f 902 946 903
f 818 946 819
f 817 903 818
f 818 903 946
f 46 882 48
f 46 1 882
f 712 889 888
f 888 889 964
f 209 210 208
f 210 1035 208
f 76 1037 1036
f 1036 1035 76
f 1036 1037 1068
f 1068 1035 1036
f 255 186 185
f 186 220 185
f 185 184 183
f 183 256 185
f 185 256 255
f 209 220 223
f 223 220 224
f 211 209 223
f 223 213 211
f 1039 1038 1066
f 1127 1131 1132
f 1127 1164 1131
f 1132 1133 1127
f 1127 1133 1128
f 298 121 120
f 120 297 298
f 119 297 120
f 288 248 249
f 216 248 247
f 173 105 107
f 107 106 173
f 107 105 1102
f 1102 106 107
f 101 100 171
f 171 172 101
f 172 102 101
f 1102 100 101
f 101 102 1102
f 97 173 98
f 98 1102 97
f 1021 1059 1020
f 1021 1022 1059
f 1021 1167 1022
f 1141 1142 1143
f 1143 1139 1141
f 1143 1142 1097
f 1097 99 1143
f 1166 1137 1135
f 1166 1167 1137
f 1166 1026 1024
f 1024 1167 1166
f 1166 1165 1025
f 1025 1026 1166
f 1166 1131 1165
f 1166 1135 1131
f 1023 1167 1024
f 1022 1167 1023
f 1058 1022 1023
f 1024 89 1023
f 89 1058 1023
f 337 854 617
f 854 618 617
f 619 618 854
f 619 854 855
f 855 768 619
f 576 754 753
f 47 46 48
f 1 46 47
f 757 597 598
f 597 1 598
f 77 1050 79
f 1001 1050 77
f 77 1002 1001
f 77 78 1002
f 48 78 43
f 43 78 531
f 42 79 50
f 42 590 79
f 79 44 586
f 80 55 1048
f 1048 1043 80
f 80 1043 1042
f 80 40 39
f 39 40 604
f 608 35 32
f 606 82 608
f 82 35 608
f 604 40 603
f 891 960 961
f 961 962 891
f 956 955 913
f 955 912 913
f 927 928 970
f 970 969 927
f 877 879 971
f 971 875 877
f 971 928 929
f 866 976 977
f 977 976 934
f 957 862 956
f 17 18 328
f 742 539 540
f 691 692 468
f 468 453 467
f 467 691 468
f 690 691 467
f 15 65 66
f 65 67 66
f 21 65 307
f 21 64 65
f 12 554 550
f 12 16 93
f 550 16 12
f 734 554 553
f 551 16 550
f 442 424 441
f 554 734 699
f 553 14 557
f 557 734 553
f 557 733 695
f 695 734 557
f 556 68 70
f 74 75 558
f 558 559 74
f 74 1038 75
f 69 1030 74
f 74 71 72
f 72 69 74
f 787 788 623
f 639 722 725
f 455 454 479
f 787 347 801
f 801 788 787
f 346 347 444
f 795 801 346
f 346 801 347
f 536 739 533
f 537 739 536
f 536 21 537
f 310 91 63
f 310 316 91
f 533 739 740
f 740 739 705
f 705 706 740
f 1018 1062 90
f 90 88 1018
f 1018 88 1017
f 1017 1169 1018
f 57 1016 61
f 1016 88 61
f 22 88 90
f 90 323 324
f 90 91 19
f 19 323 90
f 741 740 706
f 31 84 30
f 85 84 31
f 85 609 95
f 86 84 1041
f 532 690 745
f 745 549 532
f 86 87 27
f 28 86 27
f 547 546 27
f 1188 1120 1180
f 1121 1120 1188
f 1195 1194 1121
f 1121 1196 1195
f 1175 1174 1011
f 1156 1174 1175
f 1175 1159 1156
f 1162 1105 1104
f 80 1011 1010
f 1011 1174 1010
f 1046 1006 85
f 83 1007 1047
f 1007 1004 1047
f 1047 82 83
f 1047 1004 82
f 1062 1018 1019
f 90 1062 1019
f 1019 1061 90
f 1099 1151 1149
f 1149 1100 1099
f 1147 1100 1149
f 1098 1142 1152
f 1152 1151 1098
f 1152 1142 1141
f 1150 1152 1141
f 1151 1152 1150
f 1150 1149 1151
f 1150 1170 1171
f 1171 1172 1148
f 1147 1149 1148
f 1148 1150 1171
f 1149 1150 1148
f 1005 1172 1006
f 1004 1172 1005
f 1006 1046 1005
f 82 1004 1005
f 1005 1046 82
f 1171 1013 991
f 991 992 1171
f 1045 992 991
f 991 84 1045
f 991 1041 84
f 86 1013 1044
f 1044 1014 86
f 1013 1014 1044
f 1111 1199 893
f 1184 864 1185
f 1179 1178 864
f 1179 863 1189
f 864 863 1179
f 278 138 277
f 150 802 157
f 155 156 242
f 242 241 155
f 200 156 155
f 155 241 157
f 155 201 200
f 157 201 155
f 279 138 278
f 205 192 193
f 193 214 205
f 222 214 221
f 221 214 213
f 213 223 221
f 221 224 222
f 221 223 224
f 205 218 198
f 198 247 246
f 218 247 198
f 4 5 76
f 76 3 4
f 4 3 568
f 1033 1037 76
f 76 1051 1033
f 1068 1037 1033
f 1033 1066 1068
f 1034 75 1039
f 1034 1051 75
f 1034 1033 1051
f 1039 1066 1034
f 1066 1033 1034
f 558 75 7
f 75 6 7
f 563 6 75
f 124 295 117
f 124 123 295
f 253 293 292
f 292 293 111
f 111 293 122
f 122 293 123
f 284 283 245
f 132 283 284
f 284 245 246
f 243 283 282
f 242 243 282
f 282 281 242
f 809 906 808
f 269 268 230
f 226 225 228
f 228 268 226
f 158 392 387
f 387 388 158
f 393 392 158
f 158 394 393
f 369 368 158
f 158 853 369
f 369 853 370
f 158 368 366
f 366 367 158
f 378 853 379
f 373 853 374
f 371 853 372
f 372 853 373
f 380 853 337
f 379 853 380
f 231 163 232
f 163 233 232
f 237 236 168
f 237 168 238
f 238 277 237
f 649 647 648
f 648 647 646
f 723 649 648
f 650 649 651
f 651 652 650
f 651 649 723
f 723 652 651
f 200 204 199
f 243 200 199
f 199 244 243
f 199 204 205
f 205 198 199
f 245 244 199
f 246 245 199
f 199 198 246
f 788 801 800
f 800 795 806
f 800 801 795
f 788 800 789
f 382 383 159
f 159 391 382
f 390 158 389
f 390 391 158
f 632 794 395
f 162 161 395
f 794 381 395
f 163 162 395
f 395 381 163
f 159 383 385
f 110 300 114
f 114 300 301
f 262 263 302
f 302 301 262
f 115 114 302
f 302 114 301
f 263 264 302
f 264 303 302
f 116 115 302
f 302 303 116
f 112 306 113
f 944 820 819
f 944 819 945
f 821 820 944
f 1101 1147 1145
f 1145 1096 1101
f 1145 1144 1096
f 1147 1148 1145
f 1153 1094 1095
f 1095 1144 1153
f 986 897 896
f 988 899 898
f 988 946 989
f 945 946 988
f 989 900 988
f 900 899 988
f 821 942 822
f 942 823 822
f 935 934 830
f 825 939 938
f 938 981 980
f 983 893 982
f 982 939 983
f 982 893 892
f 892 981 982
f 981 938 982
f 982 938 939
f 940 939 825
f 983 939 940
f 756 712 887
f 886 756 887
f 887 965 886
f 887 712 888
f 888 964 887
f 887 964 965
f 715 756 757
f 757 716 715
f 965 964 922
f 963 964 889
f 963 889 890
f 890 962 963
f 963 962 919
f 206 208 1032
f 1032 208 1035
f 1032 1065 206
f 1068 1065 1032
f 1032 1035 1068
f 206 184 207
f 184 185 207
f 207 185 220
f 207 220 209
f 207 208 206
f 209 208 207
f 1067 1063 1068
f 1068 1066 1067
f 1125 1127 1128
f 1125 1067 1066
f 1063 1067 1125
f 1128 1064 1125
f 1125 1064 1063
f 1125 1038 1030
f 1125 1066 1038
f 289 125 118
f 118 288 289
f 289 249 250
f 289 288 249
f 217 247 218
f 205 214 217
f 217 218 205
f 103 102 173
f 173 97 103
f 1102 102 103
f 103 97 1102
f 1140 1143 99
f 1139 1143 1140
f 482 529 518
f 858 859 779
f 780 778 779
f 779 859 860
f 860 861 779
f 862 780 779
f 779 861 862
f 889 712 711
f 655 529 656
f 656 767 655
f 754 657 721
f 720 719 721
f 753 754 721
f 721 719 753
f 571 576 753
f 78 77 574
f 2 598 1
f 1 47 2
f 2 571 598
f 579 576 577
f 754 576 579
f 525 665 666
f 666 667 525
f 526 665 525
f 663 526 527
f 518 529 528
f 960 917 918
f 918 961 960
f 918 917 846
f 846 919 918
f 919 962 918
f 962 961 918
f 813 910 812
f 911 910 813
f 813 912 911
f 813 814 912
f 846 917 847
f 917 959 916
f 848 847 916
f 916 847 917
f 912 814 815
f 815 913 912
f 838 927 926
f 926 927 969
f 837 927 838
f 928 927 837
f 837 836 928
f 834 929 835
f 928 836 835
f 835 929 928
f 972 875 971
f 971 929 972
f 972 973 875
f 972 929 973
f 830 934 933
f 934 976 933
f 956 913 914
f 914 957 956
f 914 815 816
f 913 815 914
f 845 919 846
f 845 844 919
f 430 429 445
f 360 429 397
f 505 508 360
f 365 506 505
f 397 399 365
f 505 360 365
f 365 360 397
f 505 506 504
f 525 667 524
f 507 522 524
f 510 509 501
f 446 398 686
f 686 448 446
f 401 402 403
f 432 453 433
f 432 402 431
f 17 328 329
f 329 328 539
f 329 90 17
f 326 90 540
f 326 18 90
f 451 467 453
f 453 432 451
f 431 449 451
f 451 432 431
f 472 471 470
f 468 692 470
f 692 693 470
f 307 537 308
f 308 21 307
f 537 21 308
f 13 12 93
f 554 12 13
f 93 553 13
f 553 554 13
f 737 703 738
f 424 442 443
f 442 462 443
f 698 695 465
f 698 734 695
f 698 699 734
f 460 459 461
f 460 462 442
f 9 14 92
f 9 557 14
f 733 557 9
f 560 70 555
f 560 556 70
f 560 559 731
f 11 559 560
f 640 638 637
f 637 638 348
f 731 722 637
f 637 722 640
f 733 556 732
f 732 709 733
f 732 560 731
f 556 560 732
f 731 637 732
f 732 637 709
f 733 709 696
f 695 733 696
f 465 695 466
f 8 71 73
f 71 74 73
f 73 559 8
f 73 74 559
f 1030 1038 1052
f 1052 74 1030
f 1038 74 1052
f 426 427 428
f 426 424 425
f 425 427 426
f 444 427 425
f 425 443 444
f 424 443 425
f 444 347 343
f 343 427 444
f 343 347 787
f 787 616 343
f 624 623 788
f 624 789 790
f 788 789 624
f 622 616 787
f 787 623 622
f 727 643 726
f 705 479 478
f 738 703 704
f 704 739 738
f 704 703 455
f 455 479 704
f 705 739 704
f 704 479 705
f 423 424 426
f 348 638 345
f 345 466 348
f 345 638 795
f 795 346 345
f 317 536 533
f 316 536 317
f 91 316 317
f 317 20 91
f 21 536 62
f 63 64 62
f 64 21 62
f 473 471 472
f 472 474 473
f 1020 91 1060
f 1060 1019 1020
f 1061 1019 1060
f 1060 91 90
f 90 1061 1060
f 532 549 24
f 549 58 24
f 692 691 744
f 744 693 692
f 744 690 532
f 744 691 690
f 539 742 744
f 742 693 744
f 88 22 23
f 532 24 23
f 57 58 56
f 548 58 549
f 540 90 325
f 325 324 540
f 90 324 325
f 534 320 533
f 533 740 534
f 740 741 534
f 91 20 319
f 319 19 91
f 319 20 533
f 533 320 319
f 320 19 319
f 707 474 472
f 706 474 707
f 707 741 706
f 542 609 85
f 85 31 542
f 96 95 609
f 85 95 96
f 1040 1013 86
f 86 1041 1040
f 1040 991 1013
f 1041 991 1040
f 689 745 690
f 545 544 28
f 28 27 545
f 545 27 546
f 29 86 28
f 28 544 29
f 29 84 86
f 541 31 30
f 541 542 31
f 1108 1109 894
f 894 1107 1108
f 1108 1162 1109
f 1107 1162 1108
f 1121 1204 1203
f 1203 1202 1121
f 1121 1194 1193
f 1205 1204 1121
f 1121 1191 1205
f 994 1175 993
f 993 1042 1043
f 1043 1048 993
f 993 55 994
f 993 1048 55
f 1161 1162 1159
f 1124 1121 1161
f 1121 1162 1161
f 994 996 1161
f 1158 1159 1160
f 1159 1162 1160
f 1160 1162 1104
f 1105 1162 1106
f 1106 1162 1107
f 894 1105 1106
f 1106 1107 894
f 1174 1008 1009
f 1009 1010 1174
f 1009 1008 83
f 1009 83 80
f 80 1010 1009
f 1168 1018 1169
f 1168 1019 1018
f 1168 1169 1141
f 1141 1139 1168
f 1020 1019 1168
f 1139 1167 1168
f 1168 1021 1020
f 1167 1021 1168
f 1121 1111 1110
f 1110 1162 1121
f 1109 1162 1110
f 893 1109 1110
f 1110 1111 893
f 146 277 137
f 137 277 138
f 169 150 238
f 802 150 169
f 169 786 802
f 238 168 169
f 168 786 169
f 238 150 239
f 239 277 238
f 278 277 239
f 239 150 157
f 239 279 278
f 157 241 240
f 241 279 240
f 240 239 157
f 279 239 240
f 136 279 280
f 280 279 241
f 280 281 136
f 242 281 280
f 280 241 242
f 135 279 136
f 138 279 135
f 188 214 189
f 214 193 189
f 730 729 568
f 646 729 730
f 568 569 730
f 730 648 646
f 730 569 723
f 723 648 730
f 645 643 644
f 644 646 645
f 644 729 646
f 729 644 728
f 728 643 727
f 728 644 643
f 5 4 567
f 729 728 567
f 567 4 568
f 568 729 567
f 75 5 561
f 561 563 75
f 5 563 561
f 906 905 990
f 990 808 906
f 225 142 990
f 990 905 225
f 144 268 140
f 268 269 140
f 143 268 144
f 143 226 268
f 143 142 225
f 225 226 143
f 376 853 377
f 853 378 377
f 375 853 376
f 375 374 853
f 272 232 233
f 276 277 146
f 276 237 277
f 146 275 276
f 236 237 276
f 276 275 236
f 791 798 797
f 797 792 791
f 805 798 799
f 799 789 800
f 798 791 799
f 799 791 789
f 806 805 799
f 799 800 806
f 793 792 796
f 785 794 793
f 793 796 785
f 632 395 396
f 396 395 386
f 160 395 161
f 230 229 160
f 160 161 230
f 160 229 228
f 228 159 160
f 1146 1148 1172
f 1146 1145 1148
f 1144 1145 1146
f 1092 1094 1155
f 1094 1153 1155
f 1155 1157 1092
f 1156 1157 1155
f 985 986 896
f 942 986 985
f 896 984 985
f 985 984 942
f 943 942 821
f 943 986 942
f 821 944 943
f 987 988 898
f 898 897 987
f 897 986 987
f 987 943 944
f 986 943 987
f 987 944 945
f 945 988 987
f 829 935 830
f 978 977 934
f 934 935 978
f 865 866 978
f 866 977 978
f 978 979 865
f 978 935 979
f 825 938 826
f 937 938 980
f 937 826 938
f 824 940 825
f 823 940 824
f 941 984 983
f 983 940 941
f 941 940 823
f 942 984 941
f 941 823 942
f 1119 1158 1116
f 896 1119 1116
f 1116 895 896
f 714 712 756
f 756 715 714
f 842 922 921
f 921 922 964
f 923 922 842
f 923 967 966
f 966 965 923
f 965 922 923
f 1164 1127 1126
f 1127 1125 1126
f 1030 1164 1126
f 1126 1125 1030
f 125 289 290
f 215 214 216
f 215 217 214
f 216 247 215
f 247 217 215
f 1138 1140 99
f 1138 99 1136
f 1136 1137 1138
f 1138 1137 1139
f 1139 1140 1138
f 358 484 363
f 363 398 358
f 446 445 358
f 358 398 446
f 677 484 636
f 508 509 485
f 484 358 485
f 488 486 487
f 659 528 529
f 55 54 52
f 515 480 481
f 481 482 515
f 515 490 480
f 488 490 515
f 514 486 488
f 488 515 514
f 514 482 518
f 514 515 482
f 718 719 720
f 753 719 718
f 718 571 753
f 576 571 572
f 572 571 336
f 657 656 530
f 530 721 657
f 530 656 529
f 720 721 530
f 530 482 481
f 529 482 530
f 481 784 530
f 530 784 720
f 573 576 78
f 78 574 573
f 573 574 576
f 577 576 575
f 576 574 575
f 575 77 577
f 575 574 77
f 577 77 578
f 578 579 577
f 583 77 79
f 755 657 754
f 754 579 755
f 755 656 657
f 767 656 755
f 755 587 767
f 604 603 763
f 915 914 816
f 838 926 925
f 925 969 968
f 925 926 969
f 833 931 834
f 832 931 833
f 834 931 930
f 930 929 834
f 973 929 930
f 974 871 873
f 873 973 974
f 973 930 974
f 974 930 931
f 974 869 871
f 830 933 831
f 831 933 832
f 446 448 447
f 447 445 446
f 447 448 450
f 450 449 447
f 430 445 447
f 447 431 430
f 447 449 431
f 359 360 508
f 429 360 359
f 508 485 359
f 359 485 358
f 359 445 429
f 359 358 445
f 506 365 364
f 364 365 399
f 501 500 493
f 505 504 503
f 501 509 503
f 503 508 505
f 503 509 508
f 668 667 759
f 668 524 667
f 497 512 511
f 522 510 511
f 748 546 547
f 361 363 357
f 361 362 363
f 400 401 399
f 400 399 397
f 402 401 400
f 400 429 430
f 397 429 400
f 430 431 400
f 431 402 400
f 327 328 18
f 18 326 327
f 327 326 540
f 540 539 327
f 539 328 327
f 469 453 468
f 468 470 469
f 469 470 471
f 471 434 469
f 433 453 469
f 469 434 433
f 413 414 415
f 433 434 406
f 412 410 436
f 414 413 412
f 437 473 475
f 436 473 437
f 437 412 436
f 414 412 437
f 435 434 471
f 435 473 436
f 471 473 435
f 436 410 435
f 738 307 552
f 552 737 738
f 551 737 552
f 552 307 15
f 15 16 552
f 16 551 552
f 736 551 550
f 736 737 551
f 465 462 463
f 461 699 463
f 463 460 461
f 462 460 463
f 463 698 465
f 699 698 463
f 456 454 455
f 455 457 456
f 456 439 454
f 456 440 439
f 441 440 456
f 458 442 441
f 458 460 442
f 441 456 458
f 459 460 458
f 458 457 459
f 458 456 457
f 10 556 733
f 733 9 10
f 10 9 92
f 69 68 10
f 68 556 10
f 92 69 10
f 709 637 339
f 341 697 695
f 695 696 341
f 341 466 697
f 695 697 635
f 635 466 695
f 697 466 635
f 444 443 464
f 464 443 462
f 466 345 464
f 464 462 465
f 465 466 464
f 464 346 444
f 464 345 346
f 344 428 427
f 344 343 616
f 427 343 344
f 639 725 641
f 725 726 641
f 641 642 639
f 643 642 641
f 641 726 643
f 564 726 725
f 564 7 6
f 6 563 564
f 564 563 727
f 727 726 564
f 477 479 454
f 477 478 479
f 475 478 477
f 454 439 477
f 476 474 706
f 476 706 705
f 705 478 476
f 476 478 475
f 475 473 476
f 476 473 474
f 422 423 421
f 424 423 422
f 441 424 422
f 533 20 318
f 318 317 533
f 20 317 318
f 314 62 536
f 59 24 58
f 331 311 90
f 90 311 312
f 532 23 538
f 538 23 22
f 538 744 532
f 22 334 538
f 539 744 538
f 60 23 24
f 60 59 61
f 24 59 60
f 549 745 746
f 746 548 549
f 26 548 547
f 547 27 26
f 26 27 87
f 321 19 320
f 320 534 321
f 321 534 19
f 323 19 322
f 19 534 322
f 708 707 472
f 32 82 81
f 85 96 81
f 81 1046 85
f 82 1046 81
f 450 689 452
f 467 451 452
f 690 467 452
f 452 689 690
f 452 449 450
f 452 451 449
f 543 29 544
f 543 541 30
f 30 84 543
f 84 29 543
f 759 608 610
f 610 608 32
f 32 96 610
f 610 96 609
f 1192 1191 1121
f 1121 1193 1192
f 1042 993 1012
f 1012 1011 80
f 80 1042 1012
f 1012 1175 1011
f 1012 993 1175
f 1159 1175 1163
f 1163 1161 1159
f 1163 1175 994
f 994 1161 1163
f 1122 1161 996
f 1122 996 999
f 1103 1160 1104
f 1118 1160 1103
f 1104 895 1103
f 895 1118 1103
f 1121 1199 1115
f 1115 1114 1121
f 1199 1114 1115
f 1199 1111 1112
f 1112 1111 1121
f 562 567 728
f 727 563 562
f 562 728 727
f 562 563 5
f 5 567 562
f 285 284 246
f 246 247 285
f 247 286 285
f 130 288 118
f 136 281 133
f 281 282 133
f 282 134 133
f 131 283 132
f 131 282 283
f 131 134 282
f 807 990 142
f 808 990 807
f 270 140 269
f 270 230 231
f 270 269 230
f 231 232 270
f 147 272 273
f 233 234 273
f 273 272 233
f 145 275 146
f 149 275 145
f 166 236 235
f 235 234 166
f 792 626 625
f 625 791 792
f 384 385 386
f 386 395 384
f 395 160 384
f 159 385 384
f 384 160 159
f 1173 1146 1172
f 1173 1174 1156
f 1173 1008 1174
f 1007 1008 1173
f 1173 1004 1007
f 1173 1172 1004
f 980 979 936
f 936 937 980
f 979 935 936
f 936 829 828
f 935 829 936
f 826 937 827
f 827 936 828
f 937 936 827
f 1117 1116 1158
f 1158 1160 1117
f 1117 1160 1118
f 1117 1118 895
f 895 1116 1117
f 712 714 713
f 713 714 715
f 842 921 843
f 843 921 844
f 964 963 920
f 920 921 964
f 844 921 920
f 919 844 920
f 920 963 919
f 841 923 842
f 251 152 153
f 251 250 222
f 251 289 250
f 251 290 289
f 222 224 251
f 224 152 251
f 523 485 509
f 523 522 507
f 523 510 522
f 509 510 523
f 776 784 775
f 481 480 775
f 775 784 481
f 480 490 516
f 516 775 480
f 774 775 516
f 499 487 486
f 489 490 488
f 488 487 489
f 655 767 658
f 767 659 658
f 658 529 655
f 658 659 529
f 661 528 660
f 528 659 660
f 588 586 44
f 588 44 79
f 590 42 591
f 591 587 590
f 50 55 53
f 55 52 53
f 53 52 37
f 54 599 594
f 594 52 54
f 37 52 594
f 38 54 55
f 38 599 54
f 38 55 80
f 80 39 38
f 600 39 604
f 604 763 600
f 600 38 39
f 599 38 600
f 662 663 527
f 662 528 661
f 527 528 662
f 598 571 758
f 571 718 758
f 758 718 716
f 758 716 757
f 757 598 758
f 45 572 336
f 336 571 45
f 78 576 45
f 576 572 45
f 580 578 77
f 579 578 580
f 77 583 582
f 582 583 579
f 582 580 77
f 579 580 582
f 79 586 585
f 585 583 79
f 761 666 665
f 602 40 33
f 33 601 602
f 602 603 40
f 601 761 602
f 33 34 605
f 605 601 33
f 520 526 525
f 527 526 520
f 497 486 513
f 513 512 497
f 486 514 513
f 513 514 518
f 513 520 512
f 762 761 665
f 762 763 603
f 603 602 762
f 762 602 761
f 849 915 816
f 848 916 849
f 916 915 849
f 958 916 959
f 958 915 916
f 852 850 958
f 958 959 852
f 958 850 862
f 862 957 958
f 957 914 958
f 914 915 958
f 838 925 839
f 968 967 924
f 924 925 968
f 967 923 924
f 840 839 924
f 924 839 925
f 924 841 840
f 923 841 924
f 869 974 975
f 867 869 975
f 975 976 867
f 975 933 976
f 502 503 504
f 502 500 501
f 501 503 502
f 524 668 669
f 669 668 759
f 495 510 501
f 495 511 510
f 497 511 495
f 495 493 494
f 501 493 495
f 495 494 496
f 496 497 495
f 681 748 686
f 681 361 357
f 362 361 681
f 681 686 398
f 363 362 681
f 681 398 363
f 411 409 410
f 410 412 411
f 411 412 413
f 410 409 408
f 408 406 434
f 408 435 410
f 434 435 408
f 439 440 420
f 420 418 439
f 420 440 441
f 441 422 420
f 420 422 421
f 554 699 700
f 700 699 461
f 737 736 702
f 703 737 702
f 459 457 702
f 455 703 702
f 702 457 455
f 340 637 348
f 348 339 340
f 340 339 637
f 348 466 355
f 565 564 725
f 7 564 565
f 558 7 565
f 438 477 439
f 438 437 475
f 475 477 438
f 315 536 316
f 315 314 536
f 310 314 315
f 316 310 315
f 63 62 309
f 309 310 63
f 62 314 309
f 309 314 310
f 330 331 90
f 539 331 330
f 90 329 330
f 330 329 539
f 335 334 22
f 335 312 311
f 311 334 335
f 332 331 539
f 311 331 332
f 745 689 688
f 688 746 745
f 688 689 450
f 450 448 688
f 547 548 747
f 548 746 747
f 747 748 547
f 686 748 747
f 25 26 87
f 548 26 25
f 25 56 58
f 58 548 25
f 323 322 535
f 535 322 534
f 535 324 323
f 540 324 535
f 535 534 741
f 694 693 742
f 742 708 694
f 694 470 693
f 472 470 694
f 694 708 472
f 707 708 743
f 741 707 743
f 743 742 540
f 743 708 742
f 540 535 743
f 743 535 741
f 94 96 32
f 32 81 94
f 94 81 96
f 357 363 682
f 363 684 682
f 484 485 483
f 483 523 507
f 485 523 483
f 750 543 544
f 541 543 750
f 683 682 684
f 683 681 357
f 357 682 683
f 679 678 484
f 484 680 679
f 675 680 484
f 1189 1190 1187
f 1186 1198 1187
f 1187 1179 1189
f 1187 863 1186
f 1190 863 1187
f 999 1000 1123
f 1123 1122 999
f 1123 1000 1001
f 1124 1161 1123
f 1161 1122 1123
f 1123 1002 1124
f 1001 1002 1123
f 1113 1114 1199
f 1199 1112 1113
f 1121 1114 1113
f 1113 1112 1121
f 132 284 128
f 284 285 128
f 128 285 286
f 248 288 287
f 288 130 287
f 287 130 286
f 287 247 248
f 287 286 247
f 140 270 141
f 232 272 271
f 271 270 232
f 147 273 148
f 236 275 274
f 274 235 236
f 274 275 149
f 149 148 274
f 274 148 273
f 274 273 234
f 234 235 274
f 791 625 631
f 790 789 631
f 789 791 631
f 793 634 627
f 627 626 792
f 792 793 627
f 633 794 632
f 633 793 794
f 633 634 793
f 1146 1173 1154
f 1154 1153 1144
f 1144 1146 1154
f 1154 1173 1156
f 1156 1155 1154
f 1154 1155 1153
f 710 711 712
f 712 713 710
f 889 711 710
f 890 889 710
f 710 891 890
f 782 710 713
f 717 715 716
f 717 713 715
f 716 718 717
f 717 718 720
f 717 782 713
f 125 290 126
f 290 127 126
f 111 127 291
f 291 292 111
f 291 127 290
f 773 772 776
f 776 775 773
f 773 775 774
f 771 779 778
f 778 772 771
f 498 497 496
f 498 486 497
f 498 499 486
f 490 489 491
f 590 587 589
f 587 588 589
f 79 590 589
f 589 588 79
f 593 591 42
f 587 591 593
f 41 49 36
f 36 53 37
f 661 660 766
f 766 660 659
f 766 659 767
f 765 594 599
f 765 662 661
f 661 766 765
f 765 766 594
f 599 600 764
f 764 600 763
f 764 765 599
f 662 765 764
f 764 763 663
f 663 662 764
f 584 755 579
f 579 583 584
f 583 585 584
f 584 585 586
f 586 588 584
f 587 755 584
f 584 588 587
f 607 605 34
f 607 34 606
f 606 608 607
f 607 608 759
f 759 667 607
f 760 761 601
f 601 605 760
f 666 761 760
f 667 666 760
f 760 607 667
f 605 607 760
f 521 511 512
f 512 520 521
f 521 520 525
f 522 511 521
f 525 524 521
f 521 524 522
f 527 520 519
f 520 513 519
f 519 513 518
f 518 528 519
f 519 528 527
f 663 763 664
f 763 762 664
f 526 663 664
f 665 526 664
f 664 762 665
f 932 974 931
f 932 975 974
f 932 931 832
f 832 933 932
f 933 975 932
f 671 483 507
f 748 681 749
f 749 545 546
f 546 748 749
f 681 683 749
f 407 405 406
f 407 408 409
f 406 408 407
f 404 405 403
f 403 402 404
f 406 405 404
f 402 432 404
f 404 432 433
f 433 406 404
f 419 417 418
f 419 420 421
f 418 420 419
f 416 417 415
f 415 414 416
f 418 417 416
f 414 437 416
f 437 438 416
f 439 418 416
f 416 438 439
f 735 736 550
f 550 554 735
f 554 700 735
f 696 355 354
f 354 355 466
f 566 559 558
f 558 565 566
f 566 565 725
f 722 559 566
f 566 725 722
f 313 335 22
f 312 335 313
f 313 22 90
f 90 312 313
f 333 332 539
f 539 538 333
f 333 538 334
f 333 334 311
f 311 332 333
f 746 688 687
f 687 747 746
f 687 688 448
f 448 686 687
f 686 747 687
f 678 683 685
f 685 683 684
f 484 678 685
f 363 484 685
f 685 684 363
f 674 683 678
f 678 679 674
f 673 750 674
f 674 679 680
f 674 675 673
f 680 675 674
f 676 484 677
f 676 675 484
f 677 673 676
f 673 675 676
f 1181 1182 1183
f 864 1184 1183
f 1183 1184 1185
f 865 864 1183
f 1183 1182 865
f 1185 1178 1183
f 1191 1192 1177
f 1177 1192 1193
f 1177 1193 1194
f 286 130 129
f 129 128 286
f 139 272 147
f 139 271 272
f 139 141 270
f 270 271 139
f 777 772 778
f 778 782 777
f 776 772 777
f 781 782 778
f 710 782 781
f 781 778 780
f 781 850 852
f 781 780 850
f 852 851 781
f 781 851 891
f 891 710 781
f 783 784 776
f 782 717 783
f 720 784 783
f 783 717 720
f 776 777 783
f 783 777 782
f 252 151 253
f 252 153 151
f 253 292 252
f 292 291 252
f 252 251 153
f 290 251 252
f 252 291 290
f 855 856 769
f 769 768 855
f 769 856 857
f 769 857 858
f 772 773 615
f 615 614 772
f 517 516 492
f 492 516 490
f 490 491 492
f 42 41 595
f 595 593 42
f 41 596 595
f 595 596 587
f 587 593 595
f 581 596 41
f 37 594 592
f 592 36 37
f 594 766 592
f 596 581 592
f 587 596 592
f 41 36 592
f 592 581 41
f 767 587 592
f 592 766 767
f 51 49 50
f 50 53 51
f 51 36 49
f 53 36 51
f 672 671 507
f 507 524 672
f 524 669 672
f 672 669 759
f 759 610 672
f 752 610 541
f 541 750 752
f 752 672 610
f 671 672 752
f 483 671 670
f 670 673 677
f 670 750 673
f 677 636 670
f 670 752 750
f 671 752 670
f 670 636 484
f 484 483 670
f 736 735 701
f 459 702 701
f 701 702 736
f 701 735 700
f 461 459 701
f 701 700 461
f 466 341 342
f 342 354 466
f 342 341 696
f 696 354 342
f 348 355 356
f 356 696 709
f 356 355 696
f 751 674 750
f 683 674 751
f 751 750 544
f 751 749 683
f 544 545 751
f 545 749 751
f 1176 1183 1178
f 1178 1179 1176
f 1179 1187 1176
f 1201 1205 1191
f 1191 1177 1201
f 1204 1205 1201
f 1201 1203 1204
f 1202 1203 1201
f 1200 1121 1201
f 1121 1202 1201
f 1201 1199 1200
f 1194 1195 1197
f 1197 1177 1194
f 1197 1195 1196
f 1197 1196 1121
f 1121 1188 1197
f 1197 1188 1180
f 1197 1180 1181
f 1181 1183 1197
f 613 771 772
f 772 614 613
f 779 771 770
f 611 621 770
f 770 621 769
f 858 779 770
f 770 769 858
f 629 773 774
f 349 350 348
f 348 356 349
f 709 350 349
f 349 356 709
f 351 350 709
f 709 352 351
f 348 350 351
f 351 352 348
f 353 339 348
f 348 352 353
f 709 339 353
f 353 352 709
f 771 613 612
f 612 770 771
f 611 770 612
f 620 619 768
f 768 769 620
f 769 621 620
f 630 615 773
f 773 629 630
f 628 629 774
f 628 516 517
f 774 516 628
f 884 883 882
f 882 883 881
f 181 180 1065
f 1065 1070 181
f 873 874 875
f 875 874 876
f 902 267 170
f 170 901 902
f 1070 1065 1064
f 1064 1069 1070
f 879 882 881
f 879 880 882
f 267 902 903
f 903 306 267
f 880 879 877
f 878 880 877
f 877 875 876
f 876 878 877
f 871 874 873
f 871 872 874
f 66 67 89
f 66 89 15
f 1150 1169 1170
f 1141 1169 1150
f 306 903 113
f 113 903 817
f 48 43 2
f 2 47 48
f 2 43 531
f 531 571 2
f 869 868 870
f 867 868 869
f 872 871 869
f 870 872 869
f 72 11 560
f 560 555 72
f 187 188 189
f 189 191 187
f 189 190 191
f 192 190 189
f 189 193 192
f 59 58 57
f 57 61 59
f 88 23 60
f 60 61 88
f 542 541 610
f 609 542 610
f 45 571 531
f 531 78 45
f 57 56 25
f 25 87 57
f 49 41 42
f 49 42 50
f 139 129 130
f 139 135 136
f 117 119 139
f 139 813 812
f 139 810 809
f 139 121 110
f 139 109 112
f 139 849 816
f 817 818 139
f 110 114 139
f 812 811 139
f 119 120 139
f 834 835 139
f 118 125 139
f 139 811 810
f 816 815 139
f 146 137 139
f 830 831 139
f 139 130 118
f 809 808 139
f 111 122 139
f 139 820 821
f 139 113 817
f 139 143 144
f 821 822 139
f 139 833 834
f 139 124 117
f 139 841 842
f 132 128 139
f 116 109 139
f 139 115 116
f 819 820 139
f 139 818 819
f 825 826 139
f 139 829 830
f 139 120 121
f 846 847 139
f 139 127 111
f 139 837 838
f 139 824 825
f 139 827 828
f 842 843 139
f 139 845 846
f 123 124 139
f 139 122 123
f 139 131 132
f 139 807 142
f 139 114 115
f 112 113 139
f 139 822 823
f 814 813 139
f 139 847 848
f 139 815 814
f 836 837 139
f 139 835 836
f 844 845 139
f 139 137 138
f 138 135 139
f 136 133 139
f 144 140 139
f 142 143 139
f 828 829 139
f 139 145 146
f 823 824 139
f 832 833 139
f 139 831 832
f 838 839 139
f 139 133 134
f 134 131 139
f 808 807 139
f 149 145 139
f 826 827 139
f 139 843 844
f 840 841 139
f 147 148 139
f 848 849 139
f 139 839 840
f 125 126 139
f 140 141 139
f 139 148 149
f 139 126 127
f 128 129 139
f 1201 1187 1198
f 1198 1199 1201
f 1187 1201 1197
f 1197 1176 1187
f 1183 1176 1197
f 1197 1201 1177
f 426 428 628
f 338 367 628
f 628 394 338
f 376 377 628
f 628 504 506
f 628 375 376
f 409 411 628
f 371 372 628
f 628 380 337
f 628 401 403
f 389 388 628
f 628 370 371
f 628 366 368
f 628 423 426
f 383 382 628
f 337 617 628
f 628 385 383
f 632 396 628
f 616 622 628
f 628 387 392
f 392 393 628
f 368 369 628
f 628 344 616
f 628 390 389
f 628 617 618
f 618 619 628
f 626 627 628
f 496 494 628
f 628 624 790
f 403 405 628
f 388 387 628
f 628 393 394
f 628 369 370
f 367 366 628
f 628 378 379
f 373 374 628
f 628 372 373
f 379 380 628
f 415 417 628
f 628 382 391
f 391 390 628
f 386 385 628
f 628 633 632
f 506 364 628
f 628 498 496
f 399 401 628
f 628 493 500
f 628 413 415
f 623 624 628
f 628 622 623
f 421 423 628
f 628 377 378
f 374 375 628
f 628 396 386
f 628 419 421
f 628 364 399
f 494 493 628
f 500 502 628
f 428 344 628
f 628 625 626
f 790 631 628
f 487 499 628
f 628 489 487
f 628 502 504
f 628 411 413
f 611 612 628
f 628 407 409
f 628 631 625
f 628 627 634
f 634 633 628
f 628 613 614
f 499 498 628
f 628 491 489
f 405 407 628
f 417 419 628
f 517 492 628
f 614 615 628
f 628 492 491
f 615 630 628
f 628 621 611
f 619 620 628
f 628 612 613
f 628 620 621
f 628 630 629
