v 0.086605 0.013479 0.021735
v 0.086605 0.013263 0.022163
v 0.087368 0.012845 0.022937
v 0.087598 0.013181 0.021735
v 0.085143 0.013466 0.021735
v 0.085143 0.012501 0.023695
v 0.086605 0.012858 0.022964
v 0.087583 0.011600 0.024828
v 0.087558 0.013039 0.022163
v 0.086605 0.012479 0.023698
v 0.086151 0.011372 0.025850
v 0.086630 0.011678 0.025227
v 0.087129 0.011346 0.025807
v 0.087693 0.012087 0.023506
v 0.088037 0.012091 0.022163
v 0.087947 0.012483 0.021735
v 0.084215 0.013410 0.021735
v 0.037341 0.009058 0.028094
v 0.037341 0.008627 0.029224
v 0.037341 0.008300 0.029958
v 0.085103 0.011695 0.025233
v 0.085567 0.011372 0.025850
v 0.087708 0.010363 0.026559
v 0.087872 0.010764 0.025227
v 0.087508 0.010045 0.027511
v 0.085143 0.008903 0.029456
v 0.085143 0.008399 0.030189
v 0.086605 0.010126 0.027633
v 0.086630 0.010954 0.026425
v 0.086605 0.008373 0.030160
v 0.087423 0.007033 0.031778
v 0.088102 0.012091 0.021735
v 0.088187 0.009157 0.026559
v 0.088242 0.010626 0.023628
v 0.083736 0.013375 0.021735
v 0.043493 -0.002149 0.023134
v 0.042949 -0.002787 0.023124
v 0.041552 -0.004411 0.023124
v 0.041043 -0.005506 0.023124
v 0.040594 -0.006867 0.023124
v 0.040250 -0.008337 0.023124
v 0.037341 0.003629 0.028094
v 0.082210 0.013203 0.021735
v 0.079276 0.012841 0.021735
v 0.069018 0.011475 0.021735
v 0.067147 0.011221 0.021735
v 0.066828 0.011173 0.021735
v 0.037341 0.007714 0.030947
v 0.087603 0.008718 0.029175
v 0.087793 0.009187 0.028010
v 0.085143 0.007791 0.030958
v 0.086605 0.007084 0.031843
v 0.086605 0.007765 0.030958
v 0.037341 0.007084 0.031848
v 0.087458 0.005611 0.033280
v 0.087653 0.006149 0.032331
v 0.087638 0.007339 0.030958
v 0.086605 0.006434 0.032576
v 0.086605 0.005697 0.033375
v 0.086605 0.005016 0.034105
v 0.086605 0.004284 0.034888
v 0.088291 0.011049 0.021735
v 0.088257 0.007692 0.028027
v 0.088117 0.006227 0.030958
v 0.088301 0.009157 0.025092
v 0.066828 0.005723 0.021735
v 0.040779 -0.009896 0.023124
v 0.037341 -0.025007 0.034788
v 0.087877 0.007804 0.029596
v 0.085143 0.007089 0.031845
v 0.085143 0.006451 0.032576
v 0.037341 0.006421 0.032609
v 0.087488 0.004176 0.034782
v 0.087693 0.004706 0.033817
v 0.085143 0.005719 0.033399
v 0.085143 0.005034 0.034132
v 0.085143 0.004301 0.034890
v 0.086605 0.003538 0.035616
v 0.087488 0.002724 0.036233
v 0.088301 0.010626 0.022163
v 0.088291 0.010626 0.021735
v 0.088296 0.006227 0.029494
v 0.088152 0.004762 0.032425
v 0.088301 0.004762 0.030958
v 0.074880 0.005865 0.021735
v 0.045639 -0.013766 0.023124
v 0.044097 -0.013210 0.023124
v 0.043453 -0.012973 0.023124
v 0.042770 -0.012619 0.023124
v 0.042346 -0.012257 0.023124
v 0.041737 -0.011646 0.023124
v 0.041368 -0.011228 0.023124
v 0.041013 -0.010538 0.023124
v 0.037341 -0.025007 0.039675
v 0.059309 -0.030540 0.038841
v 0.054933 -0.030540 0.040853
v 0.037341 0.005697 0.033337
v 0.087713 0.003245 0.035306
v 0.086605 0.002806 0.036311
v 0.087428 0.001194 0.037638
v 0.087678 0.001742 0.036762
v 0.088301 -0.030540 0.047078
v 0.088117 -0.030540 0.045613
v 0.088127 0.009584 0.021735
v 0.088172 0.003293 0.033890
v 0.088177 0.001832 0.035357
v 0.088301 0.000363 0.035357
v 0.075923 0.006063 0.021735
v 0.046422 -0.013654 0.023124
v 0.066274 -0.030540 0.038841
v 0.043109 -0.025007 0.041840
v 0.037341 -0.024555 0.039650
v 0.054933 -0.030540 0.045573
v 0.037341 0.004797 0.034068
v 0.085458 -0.000335 0.039046
v 0.085143 0.001268 0.037708
v 0.086605 0.001996 0.037045
v 0.087343 -0.000365 0.039019
v 0.087563 -0.001102 0.039286
v 0.087583 0.000221 0.038189
v 0.086605 0.001263 0.037703
v 0.088037 -0.001102 0.038283
v 0.088122 0.000363 0.036819
v 0.088301 -0.028954 0.047078
v 0.087817 -0.030415 0.048496
v 0.087817 -0.030540 0.048494
v 0.087633 -0.030540 0.044685
v 0.087962 0.009157 0.021735
v 0.088281 -0.002567 0.038283
v 0.088296 -0.001102 0.036819
v 0.088301 -0.005501 0.039750
v 0.087473 0.008312 0.021735
v 0.047165 -0.013404 0.023124
v 0.048492 -0.012951 0.023124
v 0.043628 -0.025007 0.042029
v 0.037341 -0.020151 0.039254
v 0.037341 -0.023008 0.039524
v 0.055827 -0.030540 0.045732
v 0.055827 -0.030419 0.045737
v 0.054933 -0.030419 0.045575
v 0.047694 -0.025007 0.043437
v 0.045564 -0.025007 0.042706
v 0.037341 0.004159 0.034542
v 0.085143 -0.004644 0.042034
v 0.086605 -0.001102 0.039569
v 0.086605 -0.000339 0.039038
v 0.086605 0.000393 0.038437
v 0.087368 -0.004734 0.041970
v 0.087543 -0.003002 0.040675
v 0.086605 -0.002132 0.040279
v 0.086605 -0.002864 0.040778
v 0.086605 -0.004678 0.042010
v 0.087832 -0.002537 0.039820
v 0.088052 -0.005501 0.041217
v 0.088212 -0.004036 0.039750
v 0.088301 -0.018686 0.045613
v 0.088291 -0.026020 0.047078
v 0.087817 -0.028954 0.048483
v 0.086515 -0.029019 0.049224
v 0.086525 -0.030540 0.049232
v 0.087633 0.008498 0.021735
v 0.049575 -0.012434 0.023124
v 0.088276 -0.006966 0.041217
v 0.088291 -0.009353 0.042140
v 0.088301 -0.008431 0.041217
v 0.045564 -0.024555 0.042655
v 0.037341 -0.018686 0.039095
v 0.057298 -0.030540 0.045948
v 0.057298 -0.030419 0.045953
v 0.055827 -0.028954 0.045726
v 0.054933 -0.028954 0.045567
v 0.054933 -0.029842 0.045573
v 0.048432 -0.025007 0.043661
v 0.048033 -0.023085 0.043329
v 0.047026 -0.023085 0.042986
v 0.037341 0.003879 0.034718
v 0.085143 -0.005501 0.042558
v 0.086605 -0.005501 0.042523
v 0.087463 -0.007505 0.043512
v 0.087573 -0.005501 0.042210
v 0.086605 -0.006652 0.043197
v 0.087668 -0.004161 0.041185
v 0.087773 -0.006997 0.042733
v 0.088132 -0.008431 0.042682
v 0.088301 -0.014296 0.044149
v 0.088271 -0.017221 0.045613
v 0.088286 -0.024555 0.047078
v 0.087817 -0.026020 0.048380
v 0.086515 -0.030423 0.049235
v 0.087802 -0.024555 0.048334
v 0.086605 -0.027485 0.049106
v 0.085981 -0.029540 0.049286
v 0.085981 -0.029941 0.049286
v 0.086420 -0.030540 0.049235
v 0.088276 -0.009905 0.042682
v 0.088271 -0.012831 0.044149
v 0.037341 -0.017755 0.038981
v 0.082200 -0.030540 0.049003
v 0.080738 -0.030415 0.048828
v 0.072580 -0.029260 0.047825
v 0.060776 -0.028954 0.046368
v 0.057298 -0.028954 0.045940
v 0.057298 -0.027485 0.045872
v 0.055827 -0.027485 0.045651
v 0.054933 -0.028377 0.045538
v 0.052574 -0.025007 0.044791
v 0.051426 -0.025007 0.044497
v 0.049959 -0.025007 0.044098
v 0.049510 -0.025007 0.043971
v 0.049959 -0.023085 0.043898
v 0.048777 -0.023085 0.043553
v 0.049011 -0.021948 0.043485
v 0.047026 -0.021620 0.042795
v 0.037341 -0.012826 0.038372
v 0.037341 -0.014304 0.038561
v 0.037341 0.003319 0.035055
v 0.085143 -0.006643 0.043205
v 0.087428 -0.010482 0.044952
v 0.087618 -0.011366 0.045155
v 0.087648 -0.008431 0.043725
v 0.086605 -0.007384 0.043569
v 0.086605 -0.010353 0.045014
v 0.088102 -0.011366 0.044149
v 0.088242 -0.023085 0.047078
v 0.088152 -0.015756 0.045613
v 0.088152 -0.021616 0.047078
v 0.087758 -0.023085 0.048251
v 0.086605 -0.024555 0.048858
v 0.085138 -0.027485 0.049168
v 0.085732 -0.029540 0.049286
v 0.085732 -0.029941 0.049286
v 0.085198 -0.030540 0.049254
v 0.083666 -0.030540 0.049162
v 0.083666 -0.030415 0.049165
v 0.082200 -0.030415 0.049003
v 0.082200 -0.028954 0.048995
v 0.072690 -0.028282 0.047811
v 0.060891 -0.028092 0.046355
v 0.077804 -0.027485 0.048399
v 0.061160 -0.027110 0.046322
v 0.057298 -0.026020 0.045751
v 0.054933 -0.027485 0.045489
v 0.055827 -0.026020 0.045527
v 0.053307 -0.025007 0.044950
v 0.053412 -0.024555 0.044928
v 0.053591 -0.023753 0.044888
v 0.052673 -0.024555 0.044766
v 0.051426 -0.023085 0.044302
v 0.051426 -0.024555 0.044454
v 0.049849 -0.021526 0.043647
v 0.049281 -0.020974 0.043402
v 0.037341 -0.001111 0.036713
v 0.037341 -0.002571 0.036943
v 0.037341 -0.007337 0.037614
v 0.037341 0.001871 0.035794
v 0.083676 -0.008431 0.044033
v 0.085143 -0.007380 0.043577
v 0.086605 -0.011366 0.045465
v 0.087219 -0.013580 0.046336
v 0.087508 -0.014554 0.046487
v 0.087783 -0.012831 0.045457
v 0.087718 -0.009353 0.044011
v 0.085143 -0.008431 0.044106
v 0.085143 -0.009353 0.044567
v 0.085433 -0.009353 0.044561
v 0.085138 -0.009586 0.044680
v 0.085138 -0.010314 0.045028
v 0.087673 -0.015756 0.046673
v 0.087783 -0.017221 0.046900
v 0.088027 -0.020151 0.047078
v 0.087673 -0.021616 0.048121
v 0.086605 -0.023085 0.048715
v 0.085203 -0.029019 0.049251
v 0.085138 -0.026020 0.049025
v 0.083666 -0.026020 0.048979
v 0.083666 -0.027485 0.049098
v 0.085203 -0.030423 0.049259
v 0.085083 -0.030540 0.049249
v 0.083666 -0.028954 0.049154
v 0.082200 -0.027485 0.048939
v 0.080738 -0.027485 0.048761
v 0.062143 -0.026356 0.046382
v 0.073888 -0.026451 0.047844
v 0.067541 -0.026020 0.047024
v 0.062492 -0.025373 0.046336
v 0.057298 -0.024555 0.045608
v 0.055827 -0.024555 0.045387
v 0.054933 -0.026912 0.045441
v 0.054933 -0.025007 0.045268
v 0.054933 -0.026020 0.045362
v 0.054365 -0.025007 0.045160
v 0.054365 -0.024555 0.045117
v 0.054933 -0.024555 0.045222
v 0.055827 -0.023085 0.045203
v 0.054405 -0.023197 0.044963
v 0.053951 -0.022779 0.044826
v 0.053023 -0.023197 0.044696
v 0.051426 -0.021620 0.044084
v 0.037341 0.000376 0.036357
v 0.052893 -0.021620 0.044424
v 0.052893 -0.020151 0.044124
v 0.052893 -0.018686 0.043777
v 0.037341 0.001164 0.036117
v 0.083666 -0.009681 0.044645
v 0.083676 -0.009353 0.044486
v 0.085138 -0.011366 0.045476
v 0.086241 -0.013516 0.046366
v 0.086680 -0.012943 0.046115
v 0.086680 -0.014162 0.046549
v 0.086605 -0.015756 0.047056
v 0.086605 -0.017221 0.047477
v 0.087428 -0.019087 0.047884
v 0.083666 -0.010418 0.044977
v 0.087548 -0.020151 0.047986
v 0.086605 -0.021616 0.048485
v 0.085138 -0.021616 0.048518
v 0.085138 -0.023085 0.048720
v 0.083666 -0.023085 0.048628
v 0.082200 -0.023085 0.048472
v 0.082200 -0.026020 0.048817
v 0.080738 -0.026020 0.048639
v 0.063450 -0.024813 0.046398
v 0.057298 -0.023085 0.045419
v 0.060232 -0.024555 0.045972
v 0.063894 -0.023839 0.046341
v 0.055921 -0.021672 0.044974
v 0.054923 -0.022202 0.044912
v 0.054365 -0.018686 0.044027
v 0.054933 -0.018686 0.044119
v 0.055827 -0.018682 0.044257
v 0.055827 -0.017217 0.043860
v 0.057298 -0.017217 0.044068
v 0.065311 -0.016480 0.044885
v 0.080034 -0.015041 0.046341
v 0.082200 -0.014627 0.046484
v 0.054405 -0.021676 0.044718
v 0.054365 -0.020151 0.044391
v 0.083402 -0.013697 0.046298
v 0.084380 -0.013554 0.046347
v 0.083666 -0.011366 0.045376
v 0.085138 -0.013524 0.046363
v 0.085138 -0.014296 0.046630
v 0.085138 -0.015756 0.047088
v 0.086605 -0.018221 0.047741
v 0.086605 -0.018953 0.047919
v 0.086605 -0.020151 0.048186
v 0.085138 -0.020151 0.048202
v 0.083666 -0.020151 0.048116
v 0.083666 -0.021616 0.048421
v 0.082200 -0.021616 0.048262
v 0.078183 -0.022112 0.047857
v 0.077210 -0.022491 0.047795
v 0.067541 -0.024555 0.046870
v 0.070480 -0.024555 0.047226
v 0.064478 -0.024417 0.046482
v 0.057298 -0.021616 0.045163
v 0.065446 -0.022443 0.046336
v 0.056460 -0.020819 0.044899
v 0.055492 -0.021224 0.044815
v 0.054933 -0.020190 0.044494
v 0.057298 -0.019867 0.044769
v 0.057298 -0.018682 0.044462
v 0.077006 -0.016459 0.046355
v 0.082200 -0.015756 0.046819
v 0.083666 -0.015756 0.046986
v 0.083796 -0.014227 0.046522
v 0.083666 -0.017221 0.047369
v 0.085138 -0.017221 0.047469
v 0.083666 -0.018458 0.047687
v 0.082823 -0.019367 0.047827
v 0.082274 -0.020117 0.047951
v 0.080738 -0.020608 0.047884
v 0.079870 -0.020819 0.047830
v 0.078887 -0.021129 0.047768
v 0.079331 -0.021616 0.047911
v 0.058740 -0.021642 0.045349
v 0.068135 -0.020815 0.046366
v 0.066828 -0.021935 0.046414
v 0.057298 -0.020599 0.044952
v 0.058740 -0.019509 0.044861
v 0.082200 -0.017221 0.047204
f 68 86 95
f 95 86 110
f 96 68 95
f 127 110 134
f 18 47 36
f 162 132 127
f 127 134 162
f 162 134 132
f 109 110 86
f 86 66 85
f 85 109 86
f 47 66 41
f 41 42 18
f 41 68 42
f 47 38 37
f 37 36 47
f 37 38 18
f 18 36 37
f 133 134 110
f 110 109 133
f 132 134 133
f 133 109 132
f 132 109 108
f 109 85 108
f 39 38 47
f 18 38 39
f 53 27 52
f 152 144 178
f 97 77 72
f 106 101 123
f 98 101 106
f 56 64 57
f 107 106 130
f 52 27 51
f 51 27 54
f 18 43 44
f 80 62 65
f 88 89 66
f 68 89 88
f 90 91 66
f 66 89 90
f 68 91 90
f 90 89 68
f 47 41 40
f 40 39 47
f 40 41 18
f 18 39 40
f 66 91 92
f 92 93 66
f 92 91 68
f 68 93 92
f 67 41 66
f 66 93 67
f 68 41 67
f 67 93 68
f 57 64 69
f 69 50 57
f 64 50 69
f 57 50 49
f 144 115 143
f 54 72 70
f 52 51 70
f 70 51 54
f 79 101 98
f 64 56 74
f 74 83 64
f 98 83 74
f 179 218 219
f 219 260 261
f 54 27 48
f 48 22 20
f 18 44 45
f 35 43 18
f 18 17 35
f 18 19 5
f 5 17 18
f 19 20 5
f 5 6 1
f 20 6 5
f 81 80 102
f 62 80 81
f 102 103 81
f 1 3 4
f 233 234 198
f 87 66 86
f 87 88 66
f 86 68 87
f 68 88 87
f 144 152 151
f 151 150 144
f 151 152 118
f 118 150 151
f 144 150 145
f 145 115 144
f 146 115 145
f 118 146 145
f 145 150 118
f 114 115 97
f 114 143 115
f 99 77 97
f 147 115 146
f 147 146 118
f 118 121 147
f 101 79 100
f 118 119 100
f 100 121 118
f 79 99 100
f 31 56 57
f 31 53 52
f 31 60 61
f 57 49 31
f 31 49 25
f 98 106 105
f 105 83 98
f 131 107 130
f 129 106 123
f 130 106 129
f 129 131 130
f 163 131 129
f 149 119 118
f 268 261 260
f 225 261 268
f 268 269 225
f 270 227 226
f 226 225 270
f 225 269 270
f 272 228 227
f 312 268 260
f 315 272 312
f 269 268 312
f 253 212 252
f 26 48 27
f 22 48 26
f 27 53 30
f 30 28 27
f 53 31 30
f 13 3 12
f 28 30 13
f 13 31 25
f 13 30 31
f 20 22 21
f 21 6 20
f 22 6 21
f 7 6 10
f 7 10 3
f 46 47 18
f 18 45 46
f 104 103 127
f 104 81 103
f 160 193 194
f 193 232 194
f 278 232 277
f 277 233 278
f 234 233 277
f 144 143 176
f 219 218 259
f 259 260 219
f 259 312 260
f 259 310 311
f 311 312 259
f 256 216 255
f 255 305 256
f 255 303 304
f 304 305 255
f 78 61 77
f 77 99 78
f 78 79 61
f 78 99 79
f 116 99 97
f 97 115 116
f 115 147 116
f 116 147 121
f 76 72 77
f 76 75 72
f 77 61 76
f 61 60 76
f 60 75 76
f 71 70 72
f 72 75 71
f 52 70 71
f 58 31 52
f 52 71 58
f 58 71 75
f 101 100 120
f 120 100 119
f 73 79 98
f 98 74 73
f 61 79 73
f 73 74 56
f 83 105 82
f 82 105 106
f 64 83 82
f 156 196 186
f 186 196 225
f 186 225 226
f 185 196 156
f 223 261 225
f 225 196 223
f 219 261 223
f 123 101 122
f 101 120 122
f 122 120 119
f 163 129 155
f 155 122 154
f 155 129 123
f 123 122 155
f 183 154 182
f 148 152 178
f 118 152 148
f 148 149 118
f 160 126 125
f 125 126 102
f 160 125 159
f 159 125 158
f 156 186 187
f 271 272 227
f 227 270 271
f 271 270 269
f 167 136 135
f 215 175 214
f 142 135 113
f 113 141 142
f 252 212 251
f 212 250 251
f 252 251 298
f 298 251 250
f 252 301 302
f 252 302 299
f 299 302 328
f 22 26 11
f 27 28 11
f 11 26 27
f 11 13 12
f 12 3 11
f 3 10 11
f 11 6 22
f 10 6 11
f 2 3 1
f 2 7 3
f 1 6 2
f 6 7 2
f 127 132 161
f 25 49 23
f 23 49 50
f 231 232 193
f 231 277 232
f 230 277 231
f 198 169 168
f 199 169 198
f 234 277 273
f 273 277 230
f 303 299 335
f 335 299 334
f 216 256 217
f 313 304 303
f 117 116 121
f 99 116 117
f 121 100 117
f 117 100 99
f 59 75 60
f 59 58 75
f 60 31 59
f 31 58 59
f 56 31 55
f 55 73 56
f 55 31 61
f 61 73 55
f 65 82 84
f 106 107 84
f 84 82 106
f 63 82 65
f 64 82 63
f 164 131 163
f 196 185 164
f 184 223 196
f 163 155 184
f 184 155 154
f 154 183 184
f 119 149 153
f 153 122 119
f 153 149 182
f 182 154 153
f 154 122 153
f 180 183 182
f 179 183 180
f 182 149 180
f 180 148 179
f 149 148 180
f 220 179 219
f 220 183 179
f 220 184 183
f 223 184 220
f 190 159 188
f 188 159 158
f 188 187 190
f 158 187 188
f 189 159 192
f 160 159 189
f 192 193 189
f 189 193 160
f 191 190 227
f 191 159 190
f 227 228 191
f 192 159 191
f 190 187 224
f 226 227 224
f 227 190 224
f 224 186 226
f 224 187 186
f 158 125 124
f 124 125 102
f 314 312 272
f 272 271 314
f 269 312 314
f 314 271 269
f 197 175 215
f 197 167 175
f 254 214 213
f 213 253 254
f 212 253 213
f 175 167 166
f 166 141 175
f 166 142 141
f 166 167 135
f 135 142 166
f 212 211 210
f 209 208 210
f 210 173 209
f 210 211 173
f 329 299 328
f 356 377 358
f 377 379 358
f 328 360 358
f 358 329 328
f 358 379 361
f 28 13 29
f 29 11 28
f 13 11 29
f 128 104 127
f 127 161 128
f 4 15 16
f 15 32 16
f 62 32 34
f 65 62 34
f 34 63 65
f 34 32 15
f 23 24 8
f 8 24 15
f 25 23 8
f 8 13 25
f 3 13 8
f 113 139 140
f 140 141 113
f 140 173 141
f 206 207 171
f 207 208 171
f 171 208 209
f 209 173 171
f 138 139 113
f 235 199 198
f 198 234 235
f 199 235 236
f 236 235 234
f 376 356 357
f 376 377 356
f 344 312 311
f 344 345 312
f 371 377 373
f 317 272 316
f 316 272 315
f 229 230 192
f 229 273 230
f 192 191 229
f 229 191 228
f 276 273 229
f 229 275 276
f 228 272 229
f 320 283 280
f 280 275 320
f 276 275 280
f 355 324 322
f 349 348 350
f 349 316 348
f 241 203 240
f 204 203 241
f 286 287 241
f 286 322 324
f 339 303 338
f 303 335 338
f 334 299 333
f 310 259 309
f 309 307 310
f 259 307 309
f 308 307 259
f 178 144 177
f 216 217 177
f 177 176 216
f 144 176 177
f 264 256 305
f 340 303 339
f 339 313 340
f 340 313 303
f 131 164 165
f 165 164 185
f 195 164 163
f 196 164 195
f 163 184 195
f 195 184 196
f 219 223 262
f 262 220 219
f 223 220 262
f 157 187 158
f 158 124 157
f 157 124 156
f 156 187 157
f 111 112 94
f 94 113 111
f 113 135 111
f 137 112 111
f 136 137 111
f 135 136 111
f 212 213 174
f 174 211 212
f 174 214 175
f 174 213 214
f 175 141 174
f 141 173 174
f 173 211 174
f 248 210 208
f 212 210 248
f 248 250 212
f 248 298 250
f 337 358 360
f 337 302 301
f 328 302 337
f 337 360 328
f 356 358 326
f 330 358 361
f 329 358 330
f 299 329 330
f 15 24 33
f 33 34 15
f 33 50 64
f 64 63 33
f 63 34 33
f 33 23 50
f 33 24 23
f 9 4 3
f 3 8 9
f 172 140 139
f 139 171 172
f 173 140 172
f 172 171 173
f 169 199 200
f 199 236 200
f 279 236 234
f 234 273 279
f 279 273 276
f 377 376 374
f 374 373 377
f 350 373 374
f 325 324 355
f 325 286 324
f 318 275 317
f 317 316 318
f 316 349 318
f 372 348 371
f 371 373 372
f 350 348 372
f 372 373 350
f 346 316 315
f 315 312 346
f 312 345 346
f 368 348 347
f 348 316 347
f 345 344 347
f 347 344 368
f 347 346 345
f 316 346 347
f 317 275 274
f 275 229 274
f 274 272 317
f 274 229 272
f 238 203 202
f 321 283 320
f 355 322 321
f 284 240 283
f 283 321 284
f 284 321 322
f 281 280 283
f 283 240 281
f 236 280 281
f 205 204 242
f 205 242 206
f 206 171 205
f 202 203 170
f 203 204 170
f 170 171 139
f 170 205 171
f 204 205 170
f 170 139 169
f 170 169 202
f 242 204 243
f 241 287 243
f 243 204 241
f 339 338 366
f 366 338 335
f 335 365 366
f 366 342 339
f 369 348 368
f 342 366 343
f 343 366 365
f 343 344 311
f 368 344 343
f 311 310 343
f 310 307 343
f 307 342 343
f 364 335 334
f 364 365 335
f 334 333 364
f 364 333 363
f 361 379 380
f 380 379 377
f 178 177 181
f 181 177 217
f 217 221 181
f 181 221 179
f 181 148 178
f 179 148 181
f 218 179 222
f 179 221 222
f 256 264 263
f 263 264 221
f 305 304 266
f 266 264 305
f 249 207 206
f 206 248 249
f 249 208 207
f 249 248 208
f 356 326 323
f 357 356 323
f 323 325 357
f 286 325 323
f 358 337 359
f 332 333 299
f 14 8 15
f 14 9 8
f 14 15 4
f 4 9 14
f 378 376 357
f 357 374 378
f 378 374 376
f 357 351 375
f 375 374 357
f 375 351 350
f 350 374 375
f 320 275 319
f 275 318 319
f 350 351 319
f 319 349 350
f 319 318 349
f 201 238 202
f 202 169 201
f 169 200 201
f 241 284 285
f 285 284 322
f 285 286 241
f 322 286 285
f 241 240 282
f 282 284 241
f 240 284 282
f 239 240 203
f 239 281 240
f 203 238 239
f 238 281 239
f 236 281 237
f 237 281 238
f 238 201 237
f 237 200 236
f 237 201 200
f 242 243 288
f 289 243 287
f 367 369 368
f 368 343 367
f 367 343 365
f 221 264 265
f 265 222 221
f 264 266 265
f 265 266 222
f 257 221 217
f 257 263 221
f 257 217 256
f 256 263 257
f 304 313 267
f 267 266 304
f 222 266 267
f 247 248 206
f 206 242 244
f 244 245 206
f 242 288 244
f 291 245 244
f 246 245 291
f 206 245 246
f 246 247 206
f 299 330 331
f 331 332 299
f 330 332 331
f 333 332 362
f 363 333 362
f 362 380 363
f 361 380 362
f 362 330 361
f 362 332 330
f 352 319 351
f 352 351 357
f 357 325 352
f 353 321 320
f 355 321 353
f 353 325 355
f 353 352 325
f 319 352 353
f 290 289 291
f 291 244 290
f 290 244 288
f 290 288 243
f 243 289 290
f 365 364 381
f 381 367 365
f 381 364 363
f 363 380 381
f 381 377 371
f 381 380 377
f 306 313 339
f 306 267 313
f 291 289 292
f 292 246 291
f 294 246 287
f 287 286 294
f 286 323 294
f 294 323 326
f 298 248 297
f 248 247 297
f 247 246 297
f 320 319 354
f 354 353 320
f 319 353 354
f 369 367 370
f 367 381 370
f 370 381 371
f 371 348 370
f 348 369 370
f 341 306 339
f 307 306 341
f 339 342 341
f 341 342 307
f 307 308 258
f 258 306 307
f 258 308 259
f 222 267 258
f 267 306 258
f 258 259 218
f 218 222 258
f 287 246 293
f 246 292 293
f 293 289 287
f 293 292 289
f 298 297 300
f 300 301 252
f 252 298 300
f 301 300 336
f 336 337 301
f 336 359 337
f 359 336 327
f 327 326 358
f 358 359 327
f 327 294 326
f 327 336 300
f 294 327 296
f 296 297 246
f 296 300 297
f 296 327 300
f 246 294 295
f 295 296 246
f 294 296 295
f 94 68 96
f 96 113 94
f 192 230 231
f 231 193 192
f 18 42 197
f 197 68 94
f 42 68 197
f 197 19 18
f 97 72 197
f 197 20 19
f 215 214 197
f 197 176 143
f 197 114 97
f 197 72 54
f 255 216 197
f 54 48 197
f 94 112 197
f 197 48 20
f 197 253 252
f 143 114 197
f 197 303 255
f 252 299 197
f 254 253 197
f 216 176 197
f 197 137 136
f 136 167 197
f 197 214 254
f 197 299 303
f 197 112 137
f 16 5 1
f 16 66 47
f 132 108 16
f 16 85 66
f 43 35 16
f 47 46 16
f 16 108 85
f 16 44 43
f 1 4 16
f 16 45 44
f 16 35 17
f 17 5 16
f 62 81 16
f 16 161 132
f 16 46 45
f 81 104 16
f 16 32 62
f 104 128 16
f 16 128 161
f 95 110 138
f 160 194 138
f 138 110 127
f 138 96 95
f 113 96 138
f 138 126 160
f 127 103 138
f 138 233 198
f 102 126 138
f 138 103 102
f 138 232 278
f 278 233 138
f 138 194 232
f 198 168 138
f 138 168 169
f 169 139 138
f 65 84 165
f 165 185 156
f 165 80 65
f 102 80 165
f 107 131 165
f 156 124 165
f 165 84 107
f 165 124 102
f 279 280 236
f 276 280 279
