v 0.100698 -0.000460 0.058986
v 0.089714 -0.000460 0.058986
v 0.100698 -0.000954 0.058986
v 0.102597 -0.000460 0.058933
v 0.089714 -0.000460 0.053190
v 0.089713 -0.031228 0.050035
v 0.089714 -0.000954 0.058986
v 0.102597 -0.000954 0.058933
v 0.100698 -0.002853 0.058902
v 0.101933 -0.004071 0.058825
v 0.103591 -0.000460 0.058842
v 0.102597 -0.000460 0.053993
v 0.102597 -0.048012 0.024665
v 0.089713 -0.046966 0.024665
v 0.089713 -0.031400 0.042803
v 0.089713 -0.031228 0.043015
v 0.089714 -0.029813 0.050912
v 0.089714 -0.028866 0.051446
v 0.089714 -0.027509 0.052188
v 0.089714 -0.026130 0.052911
v 0.089714 -0.025927 0.053005
v 0.089714 -0.025178 0.053348
v 0.089714 -0.023721 0.053986
v 0.089714 -0.022061 0.054705
v 0.089714 -0.021109 0.055115
v 0.089714 -0.019928 0.055525
v 0.089714 -0.018029 0.056150
v 0.089714 -0.016338 0.056688
v 0.089714 -0.016141 0.056748
v 0.089714 -0.015392 0.056973
v 0.089714 -0.014237 0.057259
v 0.089714 -0.012338 0.057679
v 0.089714 -0.011942 0.057756
v 0.089714 -0.010444 0.058045
v 0.089714 -0.008545 0.058361
v 0.089714 -0.008144 0.058418
v 0.089714 -0.006646 0.058627
v 0.089714 -0.006339 0.058660
v 0.089714 -0.005179 0.058781
v 0.089714 -0.004232 0.058832
v 0.089714 -0.002853 0.058902
v 0.089713 -0.031306 0.049988
v 0.102578 -0.002770 0.058852
v 0.103556 -0.002083 0.058818
v 0.103591 -0.000954 0.058842
v 0.096906 -0.004232 0.058832
v 0.098802 -0.004227 0.058832
v 0.100698 -0.004216 0.058832
v 0.103199 -0.003347 0.058775
v 0.100698 -0.005163 0.058778
v 0.102578 -0.004721 0.058717
v 0.103720 -0.000460 0.058590
v 0.103631 -0.000460 0.054403
v 0.103949 -0.048652 0.024665
v 0.103055 -0.048179 0.024665
v 0.089713 -0.053553 0.024665
v 0.095008 -0.031228 0.050038
v 0.093112 -0.029813 0.050912
v 0.098802 -0.029808 0.050912
v 0.100698 -0.028856 0.051436
v 0.100698 -0.027509 0.052172
v 0.100698 -0.026125 0.052904
v 0.093112 -0.026130 0.052911
v 0.093112 -0.025178 0.053348
v 0.098802 -0.023721 0.053990
v 0.096906 -0.022061 0.054709
v 0.095008 -0.021114 0.055115
v 0.100698 -0.019928 0.055525
v 0.100698 -0.018029 0.056150
v 0.095008 -0.016338 0.056688
v 0.095008 -0.015392 0.056973
v 0.091213 -0.014237 0.057259
v 0.091213 -0.012338 0.057682
v 0.093112 -0.010444 0.058062
v 0.091213 -0.008545 0.058365
v 0.091213 -0.006646 0.058627
v 0.098802 -0.005179 0.058781
v 0.089713 -0.032290 0.049346
v 0.093112 -0.032295 0.049346
v 0.100698 -0.031306 0.049988
v 0.103869 -0.012338 0.057219
v 0.103985 -0.010444 0.057390
v 0.104033 -0.008545 0.057521
v 0.104043 -0.006646 0.057652
v 0.104043 -0.004747 0.057766
v 0.104088 -0.000954 0.057861
v 0.102597 -0.006646 0.058502
v 0.102597 -0.008545 0.058244
v 0.103710 -0.013904 0.057051
v 0.100698 -0.006646 0.058617
v 0.104088 -0.000460 0.057861
v 0.103990 -0.000460 0.054547
v 0.104451 -0.050281 0.024665
v 0.098802 -0.053610 0.024665
v 0.089713 -0.053350 0.025112
v 0.098900 -0.031228 0.050038
v 0.100698 -0.029803 0.050912
v 0.102597 -0.028794 0.051402
v 0.102597 -0.027509 0.052084
v 0.102597 -0.026052 0.052850
v 0.102597 -0.025105 0.053318
v 0.100698 -0.025173 0.053348
v 0.100698 -0.023721 0.053990
v 0.100698 -0.022061 0.054709
v 0.100698 -0.021114 0.055115
v 0.102597 -0.021042 0.055085
v 0.102597 -0.019928 0.055458
v 0.102232 -0.015308 0.056947
v 0.100698 -0.016318 0.056688
v 0.100698 -0.015371 0.056967
v 0.098802 -0.014237 0.057246
v 0.093112 -0.014237 0.057256
v 0.098802 -0.012338 0.057682
v 0.095008 -0.010444 0.058066
v 0.095008 -0.008545 0.058365
v 0.096906 -0.006646 0.058623
v 0.089713 -0.033242 0.048711
v 0.100698 -0.032295 0.049346
v 0.101896 -0.032285 0.049339
v 0.100793 -0.031228 0.050035
v 0.103962 -0.018029 0.055492
v 0.104367 -0.012338 0.055962
v 0.104483 -0.010444 0.055962
v 0.104532 -0.008545 0.055962
v 0.104537 -0.006646 0.055962
v 0.100698 -0.008545 0.058355
v 0.102597 -0.010444 0.057965
v 0.103498 -0.015168 0.056906
v 0.103746 -0.019928 0.055203
v 0.104524 -0.004747 0.055962
v 0.104508 -0.002853 0.055962
v 0.104488 -0.000460 0.055962
v 0.104521 -0.050281 0.025606
v 0.104186 -0.052211 0.024665
v 0.100698 -0.053595 0.024665
v 0.098802 -0.053371 0.025179
v 0.098802 -0.052918 0.026126
v 0.089713 -0.052029 0.027780
v 0.102597 -0.029740 0.050865
v 0.103657 -0.028643 0.051318
v 0.103675 -0.024912 0.053230
v 0.103580 -0.020938 0.055041
v 0.102758 -0.014419 0.057125
v 0.102597 -0.012338 0.057602
v 0.100698 -0.012338 0.057679
v 0.100698 -0.014237 0.057239
v 0.098802 -0.010444 0.058066
v 0.096906 -0.008545 0.058361
v 0.089713 -0.034626 0.047760
v 0.100698 -0.033242 0.048711
v 0.100698 -0.034626 0.047760
v 0.102597 -0.034574 0.047723
v 0.102556 -0.033034 0.048778
v 0.103163 -0.032212 0.049285
v 0.102562 -0.031228 0.049954
v 0.103872 -0.023721 0.053475
v 0.103949 -0.021671 0.054094
v 0.104244 -0.019928 0.054064
v 0.104461 -0.018029 0.054064
v 0.104527 -0.016130 0.054064
v 0.100698 -0.010444 0.058062
v 0.104511 -0.037003 0.042679
v 0.104509 -0.042690 0.036993
v 0.104506 -0.048382 0.029403
v 0.104371 -0.050281 0.027504
v 0.104012 -0.052237 0.025559
v 0.103708 -0.053282 0.024665
v 0.102015 -0.053537 0.024665
v 0.102597 -0.053324 0.025081
v 0.100698 -0.052918 0.026113
v 0.100698 -0.052195 0.027504
v 0.098802 -0.052200 0.027504
v 0.089713 -0.051352 0.029063
v 0.103839 -0.030942 0.049685
v 0.103868 -0.027509 0.051611
v 0.103720 -0.034402 0.047598
v 0.089713 -0.035375 0.047205
v 0.100698 -0.035573 0.047057
v 0.102597 -0.035521 0.047007
v 0.104013 -0.025573 0.052229
v 0.104371 -0.023721 0.052168
v 0.104518 -0.021822 0.052168
v 0.104517 -0.025615 0.050273
v 0.104486 -0.035104 0.044578
v 0.104120 -0.039022 0.042807
v 0.104128 -0.040931 0.040922
v 0.104506 -0.029407 0.048375
v 0.104119 -0.042820 0.039013
v 0.104490 -0.044589 0.035098
v 0.104418 -0.046488 0.033200
v 0.103988 -0.050301 0.029322
v 0.103874 -0.051623 0.027504
v 0.104119 -0.048564 0.031476
v 0.103669 -0.053230 0.024890
v 0.103460 -0.053371 0.024665
v 0.102597 -0.053511 0.024665
v 0.102597 -0.052861 0.026029
v 0.102597 -0.052101 0.027504
v 0.102597 -0.051420 0.028781
v 0.100698 -0.051456 0.028845
v 0.096906 -0.051467 0.028875
v 0.089713 -0.050926 0.029813
v 0.103988 -0.029329 0.050300
v 0.103926 -0.033205 0.048002
v 0.104366 -0.027509 0.050273
v 0.102597 -0.036712 0.046063
v 0.102597 -0.037664 0.045287
v 0.103803 -0.036457 0.045851
v 0.104004 -0.035063 0.046479
v 0.089713 -0.035573 0.047057
v 0.089713 -0.036780 0.046110
v 0.100698 -0.036769 0.046110
v 0.104425 -0.033205 0.046473
v 0.104084 -0.037055 0.044651
v 0.103853 -0.038471 0.044070
v 0.103863 -0.040390 0.042259
v 0.103866 -0.042274 0.040381
v 0.103848 -0.044074 0.038462
v 0.104086 -0.044662 0.037051
v 0.104003 -0.046493 0.035051
v 0.103919 -0.048023 0.033200
v 0.103836 -0.049682 0.030962
v 0.103660 -0.051331 0.028633
v 0.103358 -0.049313 0.032229
v 0.102597 -0.050858 0.029732
v 0.100698 -0.050910 0.029796
v 0.096906 -0.050926 0.029823
v 0.089713 -0.050738 0.030132
v 0.104120 -0.031468 0.048539
v 0.100698 -0.037716 0.045337
v 0.100698 -0.038840 0.044389
v 0.102597 -0.038783 0.044339
v 0.102597 -0.039735 0.043522
v 0.089713 -0.037727 0.045347
v 0.102597 -0.040713 0.042575
v 0.102597 -0.041660 0.041654
v 0.102597 -0.042586 0.040703
v 0.102597 -0.043533 0.039722
v 0.103810 -0.045869 0.036452
v 0.103711 -0.047601 0.034383
v 0.102597 -0.047029 0.035501
v 0.102597 -0.047721 0.034554
v 0.102093 -0.049360 0.032292
v 0.100698 -0.050005 0.031301
v 0.096906 -0.050020 0.031301
v 0.093112 -0.050026 0.031301
v 0.091213 -0.050026 0.031301
v 0.089713 -0.050020 0.031301
v 0.096906 -0.038845 0.044393
v 0.093112 -0.039797 0.043586
v 0.100698 -0.039787 0.043576
v 0.089713 -0.038850 0.044399
v 0.100698 -0.040765 0.042625
v 0.100698 -0.041712 0.041701
v 0.100698 -0.042633 0.040757
v 0.100698 -0.043585 0.039776
v 0.102597 -0.044344 0.038774
v 0.102597 -0.046082 0.036715
v 0.102597 -0.045291 0.037662
v 0.100698 -0.047076 0.035545
v 0.100698 -0.046124 0.036768
v 0.100698 -0.047752 0.034598
v 0.100698 -0.048704 0.033260
v 0.100698 -0.049375 0.032313
v 0.089713 -0.049375 0.032309
v 0.089713 -0.039797 0.043586
v 0.089713 -0.041727 0.041721
v 0.091213 -0.041727 0.041718
v 0.098802 -0.041717 0.041708
v 0.089713 -0.043585 0.039776
v 0.089713 -0.044402 0.038825
v 0.089713 -0.045151 0.037951
v 0.100698 -0.045343 0.037716
v 0.089713 -0.042638 0.040770
v 0.096906 -0.047071 0.035535
v 0.096906 -0.046124 0.036772
v 0.089713 -0.046108 0.036775
v 0.089713 -0.047055 0.035515
v 0.089713 -0.045348 0.037719
f 14 5 13
f 13 5 12
f 15 16 5
f 5 14 15
f 7 2 6
f 132 93 92
f 133 93 132
f 92 93 54
f 54 53 92
f 12 53 54
f 130 91 125
f 125 133 130
f 125 91 86
f 187 184 162
f 122 123 82
f 159 123 122
f 13 12 55
f 12 54 55
f 90 50 77
f 25 26 6
f 131 132 91
f 91 130 131
f 133 132 131
f 131 130 133
f 133 162 163
f 124 86 84
f 84 123 124
f 125 86 124
f 213 184 187
f 107 142 128
f 101 142 106
f 142 107 106
f 128 142 129
f 129 142 156
f 41 7 6
f 38 77 39
f 38 39 6
f 6 37 38
f 17 18 6
f 101 62 100
f 97 139 98
f 139 140 98
f 102 62 101
f 19 20 6
f 6 18 19
f 52 86 91
f 45 52 11
f 86 52 45
f 133 163 164
f 164 163 189
f 189 163 188
f 123 159 160
f 160 124 123
f 125 124 160
f 160 133 125
f 160 162 133
f 180 181 156
f 159 181 182
f 182 160 159
f 156 181 158
f 158 181 159
f 122 82 81
f 134 93 133
f 6 39 40
f 40 41 6
f 126 161 127
f 145 161 113
f 6 26 27
f 176 140 154
f 154 140 139
f 156 142 141
f 141 142 101
f 101 100 141
f 141 100 140
f 59 80 97
f 62 19 61
f 99 100 62
f 62 61 99
f 99 61 98
f 140 100 99
f 99 98 140
f 62 102 63
f 20 19 63
f 63 19 62
f 84 86 85
f 85 45 84
f 86 45 85
f 83 123 84
f 83 82 123
f 51 50 90
f 133 164 165
f 165 134 133
f 218 188 217
f 181 180 205
f 205 213 187
f 203 205 175
f 175 205 180
f 175 180 156
f 156 141 175
f 175 141 140
f 183 182 181
f 183 205 187
f 181 205 183
f 187 162 183
f 162 160 183
f 160 182 183
f 121 129 156
f 122 81 121
f 121 159 122
f 121 158 159
f 203 204 229
f 229 204 213
f 229 205 203
f 213 205 229
f 174 204 203
f 203 175 174
f 174 175 140
f 174 140 176
f 176 204 174
f 214 213 209
f 213 204 209
f 209 204 176
f 250 266 267
f 208 209 176
f 208 215 214
f 214 209 208
f 80 59 96
f 97 80 120
f 211 178 210
f 222 240 224
f 224 223 222
f 90 77 116
f 128 127 144
f 127 161 144
f 161 145 144
f 128 144 143
f 105 106 68
f 68 106 107
f 107 69 68
f 6 27 28
f 6 30 31
f 31 32 6
f 33 34 6
f 6 32 33
f 74 34 33
f 33 32 74
f 150 151 119
f 119 120 80
f 119 139 97
f 97 120 119
f 18 17 58
f 58 59 18
f 58 96 59
f 97 98 60
f 98 61 60
f 60 59 97
f 18 59 60
f 60 19 18
f 60 61 19
f 103 102 101
f 101 106 103
f 87 51 90
f 265 247 264
f 240 220 239
f 191 165 193
f 193 222 191
f 190 193 165
f 190 164 189
f 190 165 164
f 188 218 219
f 220 190 219
f 218 239 219
f 219 239 220
f 189 188 219
f 219 190 189
f 156 158 157
f 157 121 156
f 158 121 157
f 89 121 81
f 89 127 128
f 128 129 89
f 129 121 89
f 217 188 186
f 186 216 217
f 186 163 162
f 186 188 163
f 214 215 185
f 215 216 185
f 216 186 185
f 184 213 185
f 185 213 214
f 185 162 184
f 185 186 162
f 212 178 211
f 231 250 251
f 234 212 211
f 230 212 234
f 152 151 178
f 176 154 152
f 152 119 151
f 177 151 149
f 177 210 178
f 178 151 177
f 221 220 240
f 240 222 221
f 222 193 221
f 221 190 220
f 193 190 221
f 195 167 194
f 223 197 194
f 192 165 191
f 191 222 192
f 192 222 223
f 223 194 192
f 192 194 167
f 95 137 138
f 172 173 138
f 138 137 172
f 228 202 227
f 199 223 224
f 224 225 199
f 48 77 50
f 35 34 74
f 6 34 35
f 76 115 116
f 76 38 37
f 77 38 76
f 76 116 77
f 116 115 148
f 161 126 148
f 108 144 145
f 108 143 144
f 128 143 108
f 108 107 128
f 108 69 107
f 32 31 73
f 74 32 73
f 73 114 74
f 155 154 139
f 139 119 155
f 155 119 154
f 23 22 65
f 65 66 23
f 6 22 23
f 20 63 21
f 6 20 21
f 21 22 6
f 25 66 67
f 26 25 67
f 102 103 64
f 22 21 64
f 64 63 102
f 64 21 63
f 104 106 105
f 104 103 106
f 127 89 88
f 88 126 127
f 90 126 88
f 88 87 90
f 51 87 49
f 87 88 49
f 49 89 81
f 49 88 89
f 228 247 248
f 248 247 265
f 224 240 241
f 274 256 267
f 274 270 256
f 254 253 269
f 269 253 251
f 251 250 269
f 117 79 78
f 150 119 118
f 118 119 80
f 266 250 252
f 154 119 153
f 153 152 154
f 119 152 153
f 178 212 179
f 179 152 178
f 176 152 179
f 166 167 134
f 166 192 167
f 134 165 166
f 165 192 166
f 94 95 56
f 171 199 200
f 171 137 170
f 171 172 137
f 169 196 195
f 195 194 169
f 169 194 197
f 169 197 170
f 170 135 169
f 201 202 173
f 201 227 202
f 173 172 201
f 200 227 201
f 201 171 200
f 172 171 201
f 246 247 228
f 228 227 246
f 246 227 245
f 245 264 246
f 246 264 247
f 244 264 245
f 245 227 244
f 9 46 47
f 47 48 9
f 47 46 77
f 77 48 47
f 9 48 10
f 8 3 10
f 10 3 9
f 10 48 50
f 50 51 10
f 51 49 10
f 161 148 147
f 147 148 115
f 113 161 147
f 74 114 75
f 75 35 74
f 109 71 70
f 110 71 109
f 70 69 109
f 69 108 109
f 109 108 110
f 29 28 70
f 70 71 29
f 29 71 30
f 29 30 6
f 6 28 29
f 72 112 113
f 71 112 72
f 111 145 113
f 113 112 111
f 111 71 110
f 111 112 71
f 24 66 25
f 24 23 66
f 24 25 6
f 6 23 24
f 45 8 44
f 82 83 44
f 44 81 82
f 44 49 81
f 84 45 44
f 44 83 84
f 224 241 242
f 256 270 271
f 255 269 256
f 254 269 255
f 256 237 255
f 268 250 267
f 268 269 250
f 267 256 268
f 256 269 268
f 238 218 217
f 217 237 238
f 238 239 218
f 238 257 239
f 238 237 256
f 256 257 238
f 217 216 236
f 236 237 217
f 236 253 254
f 254 255 236
f 236 255 237
f 42 78 79
f 42 57 17
f 42 17 6
f 234 252 249
f 249 231 230
f 230 234 249
f 250 231 249
f 249 252 250
f 207 212 230
f 230 231 207
f 207 208 176
f 137 95 136
f 95 94 136
f 170 137 136
f 136 94 135
f 136 135 170
f 199 171 198
f 198 197 223
f 223 199 198
f 170 197 198
f 198 171 170
f 168 169 135
f 196 169 168
f 226 227 200
f 226 244 227
f 200 199 226
f 226 199 225
f 264 244 243
f 224 242 243
f 243 225 224
f 243 226 225
f 244 226 243
f 36 75 37
f 35 75 36
f 36 37 6
f 6 35 36
f 145 111 146
f 146 111 110
f 146 108 145
f 110 108 146
f 8 10 43
f 43 44 8
f 43 10 49
f 49 44 43
f 276 279 277
f 261 276 260
f 260 243 242
f 260 242 241
f 241 261 260
f 260 276 277
f 273 257 256
f 279 276 273
f 273 276 261
f 258 261 241
f 258 241 240
f 258 273 261
f 240 239 258
f 256 271 272
f 272 273 256
f 279 273 272
f 233 216 215
f 215 208 233
f 233 231 251
f 206 179 212
f 212 207 206
f 176 179 206
f 206 207 176
f 275 278 265
f 265 260 275
f 277 278 275
f 275 260 277
f 265 264 263
f 264 243 263
f 239 257 259
f 259 258 239
f 257 273 259
f 273 258 259
f 235 236 216
f 216 233 235
f 235 233 251
f 251 253 235
f 253 236 235
f 232 207 231
f 231 233 232
f 208 207 232
f 232 233 208
f 262 260 265
f 265 263 262
f 243 260 262
f 262 263 243
f 2 16 6
f 5 16 2
f 92 53 4
f 4 2 1
f 5 2 4
f 4 12 5
f 4 132 92
f 91 132 4
f 4 53 12
f 4 52 91
f 11 52 4
f 151 117 149
f 150 117 151
f 46 40 39
f 39 77 46
f 41 40 46
f 46 9 41
f 69 27 68
f 68 27 26
f 28 27 69
f 28 69 70
f 11 4 8
f 8 45 11
f 90 116 148
f 148 126 90
f 67 68 26
f 105 68 67
f 64 103 65
f 65 22 64
f 105 67 104
f 104 67 66
f 65 103 104
f 104 66 65
f 3 4 1
f 3 8 4
f 1 2 3
f 2 7 3
f 41 9 3
f 7 41 3
f 96 58 57
f 57 58 17
f 118 117 150
f 118 79 117
f 114 73 147
f 147 73 113
f 114 147 75
f 75 147 115
f 75 76 37
f 115 76 75
f 113 73 72
f 72 73 31
f 72 31 30
f 30 71 72
f 79 118 42
f 42 118 80
f 96 57 42
f 80 96 42
f 13 55 168
f 168 14 13
f 168 54 93
f 168 55 54
f 168 56 14
f 168 167 195
f 93 134 168
f 134 167 168
f 195 196 168
f 168 94 56
f 135 94 168
f 6 16 272
f 272 15 14
f 267 266 272
f 16 15 272
f 272 95 138
f 14 56 272
f 272 202 228
f 272 177 149
f 138 173 272
f 211 210 272
f 272 278 277
f 277 279 272
f 173 202 272
f 228 248 272
f 149 117 272
f 272 234 211
f 272 274 267
f 272 271 270
f 210 177 272
f 56 95 272
f 272 248 265
f 265 278 272
f 270 274 272
f 266 252 272
f 117 78 272
f 272 252 234
f 272 42 6
f 78 42 272
