v 0.140410 0.006643 -0.012342
v 0.139908 0.005366 -0.012342
v 0.139863 0.005420 -0.014240
v 0.140315 0.006643 -0.014240
v 0.140406 0.008539 -0.012342
v 0.140399 0.006643 0.012322
v 0.139905 0.005372 0.012322
v 0.137043 0.002165 0.001620
v 0.137043 0.002165 -0.000961
v 0.137019 0.002165 -0.002856
v 0.136840 0.002165 -0.004755
v 0.135045 0.002165 -0.016135
v 0.134680 0.002165 -0.017252
v 0.134438 0.002165 -0.017990
v 0.139666 0.005626 -0.015254
v 0.139845 0.006643 -0.015435
v 0.140308 0.008539 -0.014240
v 0.140361 0.016128 -0.000957
v 0.140368 0.016128 0.000934
v 0.140396 0.008539 0.012322
v 0.140318 0.006643 0.014217
v 0.139863 0.005415 0.014217
v 0.136994 0.002165 0.003515
v 0.137019 0.002165 0.002833
v 0.132959 0.002165 -0.018801
v 0.139838 0.008539 -0.015428
v 0.139656 0.009545 -0.015243
v 0.139859 0.009762 -0.014240
v 0.139877 0.017383 -0.000957
v 0.139884 0.017388 0.000934
v 0.139859 0.009767 0.014217
v 0.140315 0.008539 0.014217
v 0.139849 0.006643 0.015419
v 0.139666 0.005623 0.015235
v 0.136844 0.002165 0.004728
v 0.134438 0.002165 0.017985
v 0.135045 0.002165 0.016116
v 0.131837 0.002165 -0.018816
v 0.131051 0.002850 -0.018742
v 0.132959 0.002850 -0.018712
v 0.132959 0.004745 -0.018351
v 0.134053 0.007813 -0.017186
v 0.133916 0.011403 -0.015199
v 0.132955 0.028326 -0.003767
v 0.134263 0.028797 -0.002513
v 0.134452 0.028985 -0.000957
v 0.134452 0.028985 0.000934
v 0.134263 0.028797 0.002505
v 0.139659 0.009550 0.015227
v 0.139842 0.008539 0.015415
v 0.132955 0.002165 0.018807
v 0.131051 0.002165 -0.018823
v 0.127264 0.002850 -0.018749
v 0.131051 0.004745 -0.018370
v 0.129947 0.002165 -0.018827
v 0.132959 0.006643 -0.017765
v 0.132959 0.007925 -0.017238
v 0.132959 0.008873 -0.016777
v 0.132959 0.010436 -0.015844
v 0.132955 0.010913 -0.015531
v 0.132955 0.011408 -0.015203
v 0.131058 0.028326 -0.003767
v 0.132955 0.028966 -0.002819
v 0.132955 0.029507 -0.000957
v 0.132955 0.029510 0.000934
v 0.132955 0.028966 0.002814
v 0.132955 0.028393 0.003762
v 0.133926 0.011411 0.015183
v 0.134067 0.007829 0.017174
v 0.132955 0.004745 0.018350
v 0.132955 0.002850 0.018715
v 0.131055 0.002850 0.018748
v 0.131055 0.002165 0.018837
v 0.104589 0.002756 -0.018760
v 0.104589 0.002850 -0.018749
v 0.104589 0.004745 -0.018351
v 0.104589 0.006550 -0.017798
v 0.129154 0.006643 -0.017776
v 0.131051 0.006643 -0.017776
v 0.104589 0.002165 -0.018816
v 0.129154 0.007944 -0.017256
v 0.131051 0.007939 -0.017245
v 0.131051 0.008889 -0.016777
v 0.131051 0.010436 -0.015844
v 0.131058 0.010913 -0.015534
v 0.131058 0.011408 -0.015203
v 0.104589 0.011405 -0.015203
v 0.104589 0.012353 -0.014392
v 0.104589 0.013437 -0.013440
v 0.104589 0.014385 -0.012342
v 0.104589 0.015180 -0.011391
v 0.129743 0.028797 -0.002513
v 0.131058 0.028966 -0.002819
v 0.131058 0.029507 -0.000957
v 0.131058 0.029510 0.000934
v 0.131058 0.028966 0.002814
v 0.131058 0.028393 0.003762
v 0.132955 0.011424 0.015194
v 0.133428 0.010913 0.015519
v 0.132955 0.008897 0.016757
v 0.132955 0.007950 0.017225
v 0.132955 0.006643 0.017764
v 0.131055 0.004745 0.018372
v 0.104589 0.002850 0.018748
v 0.104589 0.002165 0.018826
v 0.104589 0.006643 -0.017769
v 0.104589 0.007934 -0.017260
v 0.104589 0.008881 -0.016751
v 0.104589 0.010436 -0.015818
v 0.104589 0.008836 -0.016777
v 0.104589 0.010913 -0.015516
v 0.104589 0.015806 -0.010439
v 0.104589 0.016751 -0.008891
v 0.104589 0.017252 -0.007944
v 0.104589 0.017758 -0.006650
v 0.104589 0.018363 -0.004751
v 0.104589 0.018756 -0.002856
v 0.129557 0.028985 -0.000957
v 0.129557 0.028985 0.000934
v 0.129743 0.028797 0.002505
v 0.104589 0.015833 0.010420
v 0.104589 0.015185 0.011375
v 0.104589 0.014374 0.012326
v 0.104589 0.013424 0.013402
v 0.104589 0.012415 0.014306
v 0.104589 0.011459 0.015146
v 0.104589 0.011414 0.015183
v 0.104589 0.010910 0.015522
v 0.131058 0.011424 0.015194
v 0.131966 0.010913 0.015533
v 0.132955 0.010436 0.015839
v 0.131055 0.008897 0.016768
v 0.131055 0.007950 0.017225
v 0.131055 0.006643 0.017767
v 0.129158 0.006643 0.017767
v 0.104589 0.006643 0.017764
v 0.104589 0.004745 0.018365
v 0.104589 0.018922 -0.001167
v 0.104589 0.018989 -0.000216
v 0.104589 0.018989 0.000215
v 0.104589 0.018928 0.001163
v 0.104589 0.018754 0.002752
v 0.104589 0.018743 0.002833
v 0.104589 0.018368 0.004731
v 0.104589 0.017758 0.006626
v 0.104589 0.017233 0.007917
v 0.104589 0.016778 0.008864
v 0.104589 0.015879 0.010346
v 0.104589 0.010436 0.015836
v 0.131058 0.010913 0.015533
v 0.131055 0.010436 0.015847
v 0.104589 0.008889 0.016765
v 0.104589 0.007942 0.017222
f 43 27 42
f 55 80 74
f 44 27 43
f 25 16 14
f 14 16 15
f 11 12 3
f 3 14 15
f 1 6 7
f 7 6 22
f 23 7 22
f 50 33 32
f 36 37 22
f 22 6 21
f 32 33 21
f 104 105 73
f 56 54 79
f 79 81 56
f 53 55 74
f 65 46 64
f 61 44 43
f 27 44 45
f 46 29 45
f 45 64 46
f 116 92 115
f 117 92 116
f 5 17 18
f 26 16 25
f 27 17 26
f 17 16 26
f 4 16 17
f 4 5 1
f 17 5 4
f 1 3 4
f 15 16 4
f 4 3 15
f 13 3 12
f 14 3 13
f 22 37 35
f 35 23 22
f 11 3 10
f 72 104 73
f 136 137 103
f 103 135 136
f 137 104 103
f 104 72 103
f 49 67 68
f 49 50 32
f 32 31 49
f 33 50 51
f 51 36 33
f 51 72 73
f 34 36 22
f 33 36 34
f 22 21 34
f 34 21 33
f 136 135 133
f 75 76 54
f 75 53 74
f 54 53 75
f 54 76 77
f 83 81 107
f 54 56 41
f 27 26 41
f 41 42 27
f 41 56 42
f 55 53 39
f 39 53 54
f 54 41 39
f 43 59 60
f 60 61 43
f 27 45 28
f 28 45 29
f 28 17 27
f 18 17 28
f 28 29 18
f 94 93 92
f 63 45 44
f 64 45 63
f 86 87 62
f 92 93 62
f 62 91 92
f 92 113 114
f 114 115 92
f 2 10 3
f 2 3 1
f 1 7 2
f 7 23 24
f 48 49 31
f 67 49 48
f 69 49 68
f 50 49 70
f 102 103 70
f 70 69 102
f 49 69 70
f 70 103 72
f 66 48 65
f 67 48 66
f 136 133 153
f 135 103 134
f 134 103 102
f 152 151 149
f 132 151 152
f 152 153 132
f 132 153 133
f 57 56 81
f 42 56 57
f 55 39 52
f 25 39 40
f 40 39 41
f 40 26 25
f 40 41 26
f 85 60 59
f 85 87 86
f 86 61 85
f 61 60 85
f 112 113 92
f 92 91 112
f 95 94 118
f 92 117 118
f 118 94 92
f 89 62 88
f 88 62 87
f 90 62 89
f 91 62 90
f 8 2 7
f 7 24 8
f 47 46 65
f 65 48 47
f 30 48 31
f 18 29 30
f 30 47 48
f 30 29 46
f 46 47 30
f 102 69 101
f 101 134 102
f 101 132 133
f 71 51 50
f 50 70 71
f 72 51 71
f 71 70 72
f 97 124 125
f 123 97 122
f 123 124 97
f 120 144 145
f 143 144 120
f 151 132 131
f 128 97 127
f 128 129 97
f 150 149 151
f 150 128 149
f 129 128 150
f 78 106 107
f 78 81 79
f 107 81 78
f 77 106 78
f 79 54 78
f 54 77 78
f 81 83 58
f 58 83 59
f 42 57 58
f 43 42 58
f 58 59 43
f 110 83 107
f 110 108 83
f 83 108 109
f 38 39 25
f 38 52 39
f 138 118 117
f 10 2 9
f 2 8 9
f 18 30 19
f 32 20 19
f 19 31 32
f 19 30 31
f 20 5 19
f 19 5 18
f 127 97 126
f 97 125 126
f 146 120 145
f 147 120 146
f 122 97 121
f 97 120 121
f 95 120 96
f 96 120 97
f 141 142 119
f 140 141 119
f 119 120 95
f 95 118 119
f 119 142 143
f 143 120 119
f 100 101 69
f 100 69 68
f 132 101 100
f 100 131 132
f 68 99 100
f 100 99 131
f 151 131 130
f 130 150 151
f 82 57 81
f 81 58 82
f 82 58 57
f 84 85 59
f 87 85 84
f 59 83 84
f 83 109 84
f 118 138 139
f 148 120 147
f 148 121 120
f 131 99 98
f 98 130 131
f 98 99 68
f 68 67 98
f 87 84 111
f 111 84 109
f 6 20 21
f 21 20 32
f 5 20 6
f 5 6 1
f 94 95 65
f 65 64 94
f 63 94 64
f 93 94 63
f 93 63 62
f 62 63 44
f 62 61 86
f 44 61 62
f 135 134 101
f 101 133 135
f 73 105 9
f 105 80 9
f 9 12 11
f 9 24 23
f 9 35 37
f 25 14 9
f 80 55 9
f 11 10 9
f 9 13 12
f 37 36 9
f 14 13 9
f 23 35 9
f 9 51 73
f 36 51 9
f 9 38 25
f 55 52 9
f 9 8 24
f 52 38 9
f 65 95 96
f 96 66 65
f 96 97 67
f 67 66 96
f 140 119 139
f 139 119 118
f 67 97 98
f 97 129 98
f 129 150 98
f 150 130 98
f 111 114 113
f 105 104 111
f 116 115 111
f 136 153 111
f 113 112 111
f 74 80 111
f 111 80 105
f 111 137 136
f 127 126 111
f 143 142 111
f 111 117 116
f 111 90 89
f 111 104 137
f 111 141 140
f 111 75 74
f 107 106 111
f 89 88 111
f 111 148 147
f 145 144 111
f 76 75 111
f 111 77 76
f 111 128 127
f 115 114 111
f 122 121 111
f 111 146 145
f 111 144 143
f 111 123 122
f 111 153 152
f 152 149 111
f 111 106 77
f 111 110 107
f 111 112 91
f 111 88 87
f 91 90 111
f 111 125 124
f 124 123 111
f 111 142 141
f 149 128 111
f 108 110 111
f 111 109 108
f 111 138 117
f 111 126 125
f 147 146 111
f 140 139 111
f 111 139 138
f 121 148 111
