v -0.010449 -0.021606 -0.057016
v -0.002868 -0.023828 -0.057016
v -0.006751 -0.023031 -0.057016
v 0.001093 -0.023975 -0.057016
v 0.008819 -0.022321 -0.057016
v 0.005025 -0.023468 -0.057016
v 0.012372 -0.020565 -0.057016
v 0.020312 -0.011987 -0.058561
v 0.018062 -0.015167 -0.058561
v 0.015320 -0.017933 -0.058561
v 0.012159 -0.020210 -0.058561
v 0.008667 -0.021936 -0.058561
v 0.004938 -0.023063 -0.058561
v 0.001074 -0.023561 -0.058561
v -0.002818 -0.023417 -0.058561
v -0.006634 -0.022634 -0.058561
v -0.010269 -0.021233 -0.058561
v -0.013624 -0.019253 -0.058561
v -0.016607 -0.016748 -0.058561
v -0.019137 -0.013786 -0.058561
v -0.021145 -0.010448 -0.058561
v -0.022577 -0.006825 -0.058561
v -0.023392 -0.003016 -0.058561
v -0.023570 0.000875 -0.058561
v -0.023104 0.004742 -0.058561
v -0.022008 0.008481 -0.058561
v -0.020312 0.011987 -0.058561
v -0.018062 0.015167 -0.058561
v -0.015320 0.017933 -0.058561
v -0.012159 0.020210 -0.058561
v -0.008667 0.021936 -0.058561
v -0.004938 0.023063 -0.058561
v -0.001074 0.023561 -0.058561
v 0.002818 0.023417 -0.058561
v 0.006634 0.022634 -0.058561
v 0.010269 0.021233 -0.058561
v 0.013624 0.019253 -0.058561
v 0.016607 0.016748 -0.058561
v 0.019137 0.013786 -0.058561
v 0.021145 0.010448 -0.058561
v 0.022577 0.006825 -0.058561
v 0.023392 0.003016 -0.058561
v 0.023570 -0.000875 -0.058561
v 0.023104 -0.004742 -0.058561
v 0.022008 -0.008481 -0.058561
v -0.005025 0.023468 -0.057016
v -0.001093 0.023975 -0.057016
v 0.002868 0.023828 -0.057016
v 0.021517 0.010632 -0.057016
v 0.022973 0.006945 -0.057016
v 0.023803 0.003069 -0.057016
v 0.023983 -0.000890 -0.057016
v 0.023510 -0.004826 -0.057016
v 0.025889 -0.025000 -0.018809
v 0.031854 -0.025000 -0.003050
v 0.030847 -0.025000 -0.008513
v 0.028831 -0.025000 -0.013884
v 0.031854 -0.025000 0.003050
v 0.030847 -0.025000 0.008513
v 0.028831 -0.025000 0.013884
v -0.019952 -0.025000 0.025019
v -0.024098 -0.025000 0.021054
v -0.027470 -0.025000 0.016413
v -0.029960 -0.025000 0.011244
v 0.007121 -0.025000 0.031198
v 0.012577 -0.025000 0.029425
v 0.017629 -0.025000 0.026706
v 0.025889 -0.025000 0.018809
v 0.022114 -0.025000 0.023129
v -0.024098 -0.025000 -0.021054
v -0.004295 -0.025000 0.031710
v 0.001436 -0.025000 0.031968
v -0.031486 -0.025000 0.005714
v -0.032000 -0.025000 0.000000
v -0.031486 -0.025000 -0.005714
v -0.029960 -0.025000 -0.011244
v -0.027470 -0.025000 -0.016413
v -0.009889 -0.025000 0.030434
v -0.015164 -0.025000 0.028179
v 0.032497 0.004180 -0.000413
v 0.032493 0.004047 -0.000682
v 0.032369 0.011500 -0.002913
v 0.032487 0.003843 -0.000923
v 0.032483 0.003682 -0.001048
v 0.032478 0.003305 -0.001212
v 0.032477 0.003208 -0.001233
v 0.032369 -0.021100 -0.002913
v 0.032478 0.002677 -0.001208
v 0.032485 0.002219 -0.000976
v -0.031978 -0.024500 -0.005803
v -0.032500 -0.024500 0.000000
v -0.031978 -0.024500 0.005803
v -0.015401 -0.024500 0.028619
v -0.010043 -0.024500 0.030909
v -0.004363 -0.024500 0.032206
v 0.001458 -0.024500 0.032467
v 0.007232 -0.024500 0.031685
v 0.012773 -0.024500 0.029885
v 0.032497 0.001820 0.000413
v 0.032493 0.001953 0.000683
v 0.032369 -0.021100 0.002913
v 0.032487 0.002157 -0.000923
v 0.032495 0.001869 -0.000533
v 0.032500 -0.021100 0.000000
v 0.032499 0.001767 0.000205
v 0.032487 0.002157 0.000923
v 0.032483 0.002318 0.001048
v 0.032478 0.002695 0.001212
v 0.032477 0.002792 0.001233
v 0.032478 0.003323 0.001207
v 0.032369 0.011500 0.002913
v 0.032485 0.003781 0.000976
v 0.032487 0.003843 0.000923
v 0.032495 0.004131 0.000533
v 0.032500 0.011500 0.000000
v 0.032499 0.004233 -0.000204
v 0.031329 -0.024500 0.008646
v 0.032360 -0.024500 0.003010
v 0.032360 -0.021100 0.003010
v 0.031329 0.011500 -0.008646
v 0.032357 -0.021100 -0.003044
v -0.030428 -0.024500 -0.011420
v 0.029281 -0.024500 -0.014101
v 0.031329 -0.024500 -0.008646
v 0.032357 -0.024500 -0.003044
v 0.017904 -0.024500 0.027124
v 0.022460 -0.024500 0.023491
v 0.022460 0.011500 0.023491
v 0.026293 -0.024500 0.019103
v 0.026293 0.011500 0.019103
v 0.029281 -0.024500 0.014101
v 0.029281 0.011500 0.014101
v 0.031329 0.011500 0.008646
v -0.020263 -0.024500 0.025410
v -0.024475 0.011500 0.021383
v -0.024475 -0.024500 0.021383
v -0.027900 -0.024500 0.016669
v -0.030428 -0.024500 0.011420
v 0.032139 -0.024740 0.002790
v 0.032140 -0.024740 -0.002790
v -0.010000 -0.000000 0.038500
v -0.009511 0.003090 0.038500
v 0.007686 -0.005584 0.039000
v -0.007686 -0.005584 0.039000
v -0.009035 -0.002936 0.039000
v 0.009035 -0.002936 0.039000
v -0.009500 -0.000000 0.039000
v -0.009035 0.002936 0.039000
v -0.007686 0.005584 0.039000
v -0.005584 0.007686 0.039000
v -0.002936 0.009035 0.039000
v -0.000000 0.009500 0.039000
v 0.002936 0.009035 0.039000
v 0.005584 0.007686 0.039000
v 0.007686 0.005584 0.039000
v 0.009035 0.002936 0.039000
v 0.009500 -0.000000 0.039000
v 0.009511 0.003090 0.038500
v 0.010000 -0.000000 0.038500
v -0.023141 0.031000 0.016290
v -0.025497 0.031000 0.012279
v -0.016290 0.031000 0.023141
v -0.019861 0.031000 0.020160
v -0.020160 0.031000 0.019861
v -0.020011 0.031000 0.020011
v -0.012279 0.031000 0.025497
v -0.027164 0.031000 0.007936
v -0.028098 0.031000 0.003379
v -0.024294 0.031000 -0.014515
v -0.026344 0.031000 -0.010339
v -0.027682 0.031000 -0.005884
v -0.028272 0.031000 -0.001270
v -0.021588 0.031000 -0.018299
v -0.018299 0.031000 -0.021588
v -0.014515 0.031000 -0.024294
v -0.010339 0.031000 -0.026344
v -0.005884 0.031000 -0.027682
v 0.007936 0.031000 -0.027164
v 0.003379 0.031000 -0.028098
v -0.001270 0.031000 -0.028272
v 0.020011 0.031000 -0.020011
v 0.019861 0.031000 -0.020160
v 0.016290 0.031000 -0.023141
v 0.012279 0.031000 -0.025497
v 0.023951 0.031000 -0.015075
v 0.020160 0.031000 -0.019861
v 0.023141 0.031000 -0.016290
v 0.025497 0.031000 -0.012279
v 0.027164 0.031000 -0.007936
v 0.028098 0.031000 -0.003379
v 0.024294 0.031000 0.014515
v 0.026344 0.031000 0.010339
v 0.027682 0.031000 0.005884
v 0.028272 0.031000 0.001270
v 0.014515 0.031000 0.024294
v 0.018299 0.031000 0.021588
v 0.021588 0.031000 0.018299
v 0.010339 0.031000 0.026344
v 0.005884 0.031000 0.027682
v -0.007936 0.031000 0.027164
v -0.003379 0.031000 0.028098
v 0.001270 0.031000 0.028272
v 0.025678 0.030800 -0.012366
v 0.027356 0.030800 -0.007992
v 0.028296 0.030800 -0.003403
v 0.028471 0.030800 0.001279
v 0.027877 0.030800 0.005925
v 0.026530 0.030800 0.010412
v 0.024466 0.030800 0.014618
v 0.021741 0.030800 0.018428
v 0.018428 0.030800 0.021741
v 0.014618 0.030800 0.024466
v 0.010412 0.030800 0.026530
v 0.005925 0.030800 0.027877
v 0.001279 0.030800 0.028471
v -0.003403 0.030800 0.028296
v -0.007992 0.030800 0.027356
v -0.012366 0.030800 0.025678
v -0.016405 0.030800 0.023305
v -0.020001 0.030800 0.020303
v -0.020153 0.030800 0.020153
v -0.020303 0.030800 0.020001
v -0.023305 0.030800 0.016405
v -0.025678 0.030800 0.012366
v -0.027356 0.030800 0.007992
v -0.028296 0.030800 0.003403
v -0.028471 0.030800 -0.001279
v -0.027877 0.030800 -0.005925
v -0.026530 0.030800 -0.010412
v -0.024466 0.030800 -0.014618
v -0.002650 -0.028000 -0.025983
v -0.002639 -0.028000 -0.026242
v -0.002602 -0.028000 -0.026500
v -0.002541 -0.028000 -0.026753
v -0.002455 -0.028000 -0.026998
v -0.002345 -0.028000 -0.027234
v -0.002213 -0.028000 -0.027458
v -0.002059 -0.028000 -0.027668
v -0.001886 -0.028000 -0.027861
v -0.001695 -0.028000 -0.028037
v -0.001487 -0.028000 -0.028194
v -0.001265 -0.028000 -0.028329
v -0.001030 -0.028000 -0.028442
v -0.000786 -0.028000 -0.028531
v -0.000534 -0.028000 -0.028596
v -0.000277 -0.028000 -0.028635
v -0.000017 -0.028000 -0.028650
v 0.002329 -0.028000 -0.027265
v 0.002442 -0.028000 -0.027030
v 0.002531 -0.028000 -0.026786
v 0.000242 -0.028000 -0.028639
v 0.000500 -0.028000 -0.028602
v 0.000753 -0.028000 -0.028541
v 0.002650 -0.028000 -0.026017
v 0.002596 -0.028000 -0.026534
v 0.002635 -0.028000 -0.026277
v 0.001668 -0.028000 -0.028059
v 0.001861 -0.028000 -0.027886
v 0.000998 -0.028000 -0.028455
v 0.001234 -0.028000 -0.028345
v 0.001458 -0.028000 -0.028213
v 0.002037 -0.028000 -0.027695
v 0.002194 -0.028000 -0.027487
v -0.039424 0.007783 0.007000
v -0.039466 0.007659 0.007000
v -0.039466 0.007650 0.007067
v -0.039500 0.007400 0.007000
v -0.039466 0.007400 0.007259
v -0.039466 0.007467 0.007250
v -0.039366 0.007529 0.007483
v -0.039424 0.007400 0.007383
v -0.039366 0.007400 0.007500
v -0.039207 0.007583 0.007683
v -0.039207 0.007400 0.007707
v -0.039366 0.007900 0.007000
v -0.039366 0.007883 0.007129
v -0.039366 0.007833 0.007250
v -0.039466 0.007624 0.007129
v -0.039466 0.007583 0.007183
v -0.039366 0.007754 0.007354
v -0.039207 0.007754 0.007612
v -0.039366 0.007650 0.007433
v -0.039466 0.007529 0.007224
v -0.039207 -0.001400 0.007707
v -0.039366 -0.001400 0.007500
v -0.039424 -0.001400 0.007383
v -0.039466 -0.001400 0.007259
v -0.039500 -0.001400 0.007000
v -0.039466 -0.001467 0.007250
v -0.039466 -0.001659 0.007000
v -0.039466 -0.001650 0.007067
v -0.039366 -0.001529 0.007483
v -0.039207 -0.001583 0.007683
v -0.039366 -0.001650 0.007433
v -0.039466 -0.001529 0.007224
v -0.039466 -0.001583 0.007183
v -0.039366 -0.001754 0.007354
v -0.039366 -0.001833 0.007250
v -0.039466 -0.001624 0.007129
v -0.039424 0.007783 -0.007000
v -0.039466 0.007659 -0.007000
v -0.039500 0.007400 -0.007000
v -0.039466 0.007400 -0.007259
v -0.039466 0.007467 -0.007250
v -0.039466 0.007650 -0.007067
v -0.039366 0.007883 -0.007129
v -0.039366 0.007650 -0.007433
v -0.039466 0.007529 -0.007224
v -0.039466 0.007583 -0.007183
v -0.039366 0.007754 -0.007354
v -0.039366 0.007833 -0.007250
v -0.039466 0.007624 -0.007129
v -0.039466 -0.001400 -0.007259
v -0.039500 -0.001400 -0.007000
v -0.039466 -0.001659 -0.007000
v -0.039466 -0.001650 -0.007067
v -0.039466 -0.001467 -0.007250
v -0.039366 -0.001833 -0.007250
v -0.039466 -0.001624 -0.007129
v -0.039466 -0.001583 -0.007183
v -0.039366 -0.001754 -0.007354
v -0.039466 -0.001529 -0.007224
v 0.000031 -0.005500 0.042150
v -0.000358 -0.005543 0.042150
v 0.001500 -0.007031 0.042150
v 0.001457 -0.006642 0.042150
v 0.001314 -0.006277 0.042150
v 0.001082 -0.005962 0.042150
v 0.000777 -0.005717 0.042150
v 0.000418 -0.005559 0.042150
v -0.001441 -0.006582 0.042150
v -0.001283 -0.006223 0.042150
v 0.001441 -0.007418 0.042150
v -0.000723 -0.005686 0.042150
v -0.001038 -0.005918 0.042150
v -0.000095 -0.008497 0.042150
v -0.000089 -0.008497 0.042150
v -0.000031 -0.008500 0.042150
v 0.000358 -0.008457 0.042150
v 0.000723 -0.008314 0.042150
v 0.001038 -0.008082 0.042150
v 0.001283 -0.007777 0.042150
v -0.001500 -0.006969 0.042150
v -0.001457 -0.007358 0.042150
v -0.001314 -0.007723 0.042150
v -0.001082 -0.008038 0.042150
v -0.000777 -0.008283 0.042150
v -0.000727 -0.008312 0.042150
v -0.000722 -0.008315 0.042150
v -0.000418 -0.008441 0.042150
v 0.001142 -0.008115 0.042092
v -0.001302 -0.007782 0.042139
v -0.001340 -0.008128 0.041988
v -0.001608 -0.007693 0.041989
v 0.000224 -0.008583 0.042091
v -0.001037 -0.008216 0.042091
v 0.000681 -0.008357 0.042139
v 0.001584 -0.007855 0.041952
v 0.002647 -0.028000 0.026129
v 0.002622 -0.028000 0.026387
v 0.002571 -0.028000 0.026643
v 0.002496 -0.028000 0.026891
v 0.002396 -0.028000 0.027132
v -0.002128 -0.028000 0.027580
v -0.002272 -0.028000 0.027364
v -0.002395 -0.028000 0.027134
v -0.002495 -0.028000 0.026894
v 0.000131 -0.028000 0.028647
v -0.000129 -0.028000 0.028647
v -0.000387 -0.028000 0.028622
v -0.002647 -0.028000 0.025871
v -0.001578 -0.028000 0.028129
v -0.001779 -0.028000 0.027964
v -0.001963 -0.028000 0.027781
v 0.002274 -0.028000 0.027361
v 0.002129 -0.028000 0.027578
v 0.001964 -0.028000 0.027779
v -0.001361 -0.028000 0.028274
v -0.001132 -0.028000 0.028396
v -0.000643 -0.028000 0.028571
v -0.000891 -0.028000 0.028496
v 0.001134 -0.028000 0.028395
v 0.000894 -0.028000 0.028495
v -0.002570 -0.028000 0.026645
v -0.002621 -0.028000 0.026390
v -0.002647 -0.028000 0.026131
v 0.001781 -0.028000 0.027963
v 0.001580 -0.028000 0.028128
v 0.001364 -0.028000 0.028272
v 0.000645 -0.028000 0.028570
v 0.000390 -0.028000 0.028621
v 0.002001 -0.027987 0.027812
v 0.001814 -0.027987 0.028000
v 0.001609 -0.027987 0.028168
v 0.001389 -0.027987 0.028315
v 0.001156 -0.027987 0.028440
v 0.000911 -0.027987 0.028542
v 0.000657 -0.027987 0.028619
v 0.000398 -0.027987 0.028671
v 0.000134 -0.027987 0.028697
v -0.000131 -0.027987 0.028697
v -0.000395 -0.027987 0.028671
v -0.000655 -0.027987 0.028619
v -0.000908 -0.027987 0.028543
v -0.001153 -0.027987 0.028441
v -0.001387 -0.027987 0.028317
v -0.001607 -0.027987 0.028169
v -0.001812 -0.027987 0.028001
v -0.002000 -0.027987 0.027814
f 82 120 205
f 205 120 51
f 120 82 51
f 226 225 168
f 227 171 228
f 226 168 227
f 92 91 74
f 167 225 161
f 167 168 225
f 306 227 228
f 171 227 172
f 172 227 168
f 5 12 7
f 132 209 130
f 311 306 228
f 228 171 229
f 229 311 228
f 205 51 50
f 41 49 50
f 205 50 204
f 204 50 49
f 205 204 190
f 161 225 224
f 73 64 92
f 92 74 73
f 64 137 138
f 92 64 138
f 136 147 141
f 142 141 147
f 7 12 11
f 198 199 213
f 209 191 210
f 130 209 210
f 136 137 62
f 134 147 136
f 136 62 134
f 111 207 133
f 209 132 208
f 207 193 208
f 133 207 208
f 208 132 133
f 208 191 209
f 21 122 22
f 4 14 13
f 12 5 13
f 306 311 312
f 26 25 310
f 310 311 26
f 170 229 171
f 169 229 170
f 40 49 41
f 40 204 49
f 183 182 35
f 189 190 204
f 227 306 300
f 7 11 57
f 57 5 7
f 57 11 10
f 195 198 213
f 197 210 191
f 128 159 130
f 130 210 128
f 63 137 64
f 63 62 137
f 61 134 62
f 147 134 145
f 93 61 79
f 134 61 93
f 93 145 134
f 42 50 51
f 41 50 42
f 124 55 56
f 124 45 44
f 8 45 124
f 56 57 124
f 58 55 140
f 58 117 59
f 196 195 211
f 211 128 210
f 206 193 207
f 207 111 206
f 205 190 206
f 117 58 118
f 191 208 192
f 192 208 193
f 104 87 88
f 217 166 218
f 273 142 135
f 141 142 273
f 161 224 223
f 277 224 225
f 269 268 271
f 267 268 269
f 218 166 219
f 219 149 218
f 19 122 20
f 122 21 20
f 76 122 19
f 4 13 6
f 6 13 5
f 2 15 14
f 2 14 4
f 16 15 2
f 309 311 310
f 309 312 311
f 27 26 311
f 311 229 27
f 230 229 169
f 184 48 178
f 178 48 179
f 92 138 297
f 291 91 92
f 92 299 291
f 316 315 314
f 91 315 316
f 24 23 317
f 317 313 24
f 314 313 317
f 185 38 37
f 187 37 36
f 185 37 187
f 38 203 39
f 204 40 39
f 39 203 204
f 188 38 185
f 188 203 38
f 204 203 188
f 188 189 204
f 10 9 123
f 123 57 10
f 123 124 57
f 123 9 8
f 8 124 123
f 213 155 212
f 212 195 213
f 155 211 212
f 212 211 195
f 354 93 352
f 52 42 51
f 52 51 82
f 82 121 52
f 156 211 155
f 194 206 190
f 193 206 194
f 115 82 205
f 205 206 115
f 115 206 111
f 115 111 110
f 119 111 133
f 104 118 125
f 125 118 140
f 125 87 104
f 125 52 121
f 124 52 125
f 140 55 125
f 55 124 125
f 139 58 140
f 140 118 139
f 139 118 58
f 86 87 82
f 86 88 87
f 166 217 200
f 200 217 201
f 218 149 150
f 150 217 218
f 154 155 213
f 270 269 271
f 281 223 282
f 282 270 281
f 281 270 273
f 281 273 222
f 222 223 281
f 161 223 160
f 224 277 280
f 280 223 224
f 282 223 280
f 276 225 226
f 276 277 225
f 162 219 166
f 135 142 220
f 77 76 19
f 19 18 77
f 77 18 17
f 77 17 1
f 5 57 54
f 54 6 5
f 310 25 307
f 304 25 24
f 298 299 92
f 92 297 298
f 294 138 137
f 294 297 138
f 290 315 91
f 91 291 290
f 288 291 299
f 288 290 291
f 322 23 22
f 322 317 23
f 314 317 322
f 186 187 36
f 186 36 35
f 147 145 344
f 145 93 144
f 144 354 145
f 93 354 144
f 69 68 127
f 127 68 129
f 130 159 129
f 159 127 129
f 157 127 159
f 157 146 127
f 157 156 326
f 146 157 333
f 43 52 44
f 42 52 43
f 53 124 44
f 44 52 53
f 53 52 124
f 128 211 158
f 211 156 158
f 159 128 158
f 158 157 159
f 156 157 158
f 81 115 80
f 108 101 118
f 108 118 104
f 104 88 89
f 89 102 104
f 82 115 85
f 85 86 82
f 88 86 85
f 201 217 216
f 216 215 201
f 202 215 199
f 201 215 202
f 199 215 214
f 214 215 153
f 153 154 214
f 213 199 214
f 214 154 213
f 222 165 164
f 164 223 222
f 164 160 223
f 226 227 264
f 221 165 222
f 221 220 165
f 135 220 221
f 221 273 135
f 222 273 221
f 148 220 142
f 219 220 148
f 149 219 148
f 148 142 147
f 147 331 148
f 165 220 163
f 219 162 163
f 163 220 219
f 3 77 1
f 3 17 16
f 1 17 3
f 16 2 3
f 70 3 2
f 77 3 70
f 25 304 308
f 308 307 25
f 308 309 310
f 310 307 308
f 24 313 303
f 303 304 24
f 34 33 48
f 34 183 35
f 184 183 34
f 34 48 184
f 29 230 169
f 47 176 177
f 177 180 47
f 46 176 47
f 47 180 179
f 33 32 47
f 47 32 46
f 179 48 47
f 48 33 47
f 292 137 136
f 292 294 137
f 91 316 90
f 75 74 90
f 90 74 91
f 90 76 75
f 122 76 90
f 22 122 321
f 122 90 321
f 321 90 318
f 35 182 181
f 181 186 35
f 329 154 153
f 217 150 151
f 151 216 217
f 335 150 149
f 352 93 353
f 345 344 145
f 345 354 352
f 145 354 345
f 343 331 147
f 147 344 343
f 94 356 93
f 347 356 94
f 95 350 94
f 66 97 65
f 95 71 96
f 96 65 97
f 98 97 66
f 67 69 127
f 67 98 66
f 117 131 60
f 59 117 60
f 131 129 60
f 60 129 68
f 325 157 326
f 325 333 157
f 116 115 104
f 104 80 116
f 116 80 115
f 103 80 104
f 81 80 103
f 104 102 103
f 103 102 81
f 99 100 104
f 104 100 106
f 111 101 109
f 101 108 109
f 110 111 109
f 109 108 110
f 83 115 81
f 81 102 83
f 102 89 83
f 275 276 226
f 226 264 275
f 275 264 276
f 305 301 300
f 306 312 305
f 305 300 306
f 304 303 302
f 302 308 304
f 309 308 302
f 312 309 302
f 302 305 312
f 301 305 302
f 175 32 174
f 175 176 46
f 46 32 175
f 28 27 229
f 229 230 28
f 230 29 28
f 30 29 169
f 169 173 30
f 136 141 284
f 272 270 271
f 287 288 289
f 288 295 289
f 289 286 287
f 292 286 289
f 294 292 289
f 289 295 294
f 296 288 299
f 296 295 288
f 299 298 296
f 296 298 297
f 297 294 296
f 294 295 296
f 320 321 318
f 320 322 22
f 22 321 320
f 314 322 320
f 155 154 328
f 154 329 328
f 215 216 152
f 216 151 152
f 153 215 152
f 324 323 152
f 152 151 324
f 150 335 334
f 334 151 150
f 324 151 334
f 332 335 149
f 149 148 332
f 332 148 331
f 346 345 352
f 346 356 347
f 352 353 346
f 93 356 346
f 346 353 93
f 336 350 95
f 95 96 336
f 336 96 337
f 340 98 341
f 340 357 97
f 97 98 340
f 78 93 79
f 78 94 93
f 78 71 95
f 95 94 78
f 349 94 350
f 72 96 71
f 65 96 72
f 98 67 126
f 127 146 126
f 126 67 127
f 104 115 105
f 105 99 104
f 115 99 105
f 114 99 115
f 100 99 114
f 110 108 107
f 107 108 104
f 104 106 107
f 84 85 115
f 115 83 84
f 84 83 89
f 84 89 88
f 88 85 84
f 279 280 277
f 31 30 173
f 31 173 174
f 174 32 31
f 293 292 136
f 136 284 293
f 141 273 274
f 274 284 141
f 273 270 274
f 270 272 274
f 292 293 285
f 285 293 284
f 285 286 292
f 319 90 316
f 319 316 314
f 314 320 319
f 318 90 319
f 319 320 318
f 155 328 327
f 327 156 155
f 326 156 327
f 330 329 153
f 153 152 330
f 330 152 323
f 347 94 348
f 94 349 348
f 337 96 338
f 96 355 338
f 97 357 339
f 339 338 355
f 339 96 97
f 339 355 96
f 357 340 339
f 98 126 342
f 146 333 342
f 113 114 115
f 113 106 100
f 100 114 113
f 267 279 278
f 278 279 277
f 277 276 278
f 267 269 283
f 283 279 267
f 283 270 282
f 269 270 283
f 282 280 283
f 280 279 283
f 238 70 2
f 351 342 341
f 341 98 351
f 98 342 351
f 146 342 358
f 358 342 126
f 112 107 106
f 106 113 112
f 110 107 112
f 112 115 110
f 112 113 115
f 266 265 267
f 267 278 266
f 264 265 266
f 276 264 266
f 266 278 276
f 401 72 71
f 366 63 64
f 244 2 4
f 77 70 237
f 70 238 237
f 143 126 146
f 146 358 143
f 143 358 126
f 71 78 403
f 65 72 399
f 64 73 384
f 4 6 258
f 76 77 236
f 77 237 236
f 402 401 71
f 71 403 402
f 405 78 79
f 72 401 400
f 400 399 72
f 400 401 369
f 66 65 397
f 367 366 64
f 64 384 367
f 386 73 74
f 68 69 377
f 59 60 362
f 60 363 362
f 2 241 240
f 242 241 2
f 6 54 262
f 262 258 6
f 75 76 234
f 404 403 78
f 78 405 404
f 79 61 406
f 406 405 79
f 399 400 391
f 65 399 398
f 398 397 65
f 395 67 66
f 385 384 73
f 73 386 385
f 375 60 68
f 375 363 60
f 360 58 59
f 239 238 2
f 2 240 239
f 2 244 243
f 243 242 2
f 248 54 57
f 76 236 235
f 235 234 76
f 232 74 75
f 408 61 62
f 405 406 379
f 379 404 405
f 368 400 369
f 368 391 400
f 397 398 390
f 399 391 390
f 390 398 399
f 66 397 396
f 396 395 66
f 69 67 394
f 67 395 394
f 68 377 376
f 376 375 68
f 59 362 361
f 361 360 59
f 58 360 359
f 245 244 4
f 4 246 245
f 4 252 251
f 261 260 4
f 4 260 259
f 263 262 54
f 54 248 263
f 249 57 56
f 249 248 57
f 75 234 233
f 233 232 75
f 74 232 231
f 407 406 61
f 61 408 407
f 380 402 403
f 403 404 380
f 395 396 382
f 382 396 397
f 69 394 393
f 247 246 4
f 4 251 247
f 4 258 257
f 257 261 4
f 253 252 4
f 4 259 253
f 56 55 255
f 371 386 74
f 74 231 371
f 406 407 372
f 372 407 408
f 364 374 62
f 62 63 364
f 409 408 62
f 62 374 409
f 402 380 370
f 369 401 370
f 401 402 370
f 404 379 381
f 381 380 404
f 397 390 383
f 383 382 397
f 388 394 395
f 392 377 69
f 69 393 392
f 250 249 56
f 56 255 250
f 55 58 254
f 58 359 254
f 378 379 406
f 406 372 378
f 373 372 408
f 408 409 373
f 373 409 374
f 63 366 365
f 365 364 63
f 377 392 387
f 387 392 393
f 387 393 394
f 394 388 387
f 395 382 389
f 389 388 395
f 256 255 55
f 55 254 256
f 211 197 196
f 210 197 211
f 117 118 119
f 119 133 117
f 101 119 118
f 111 119 101
f 82 87 125
f 125 121 82
f 288 268 267
f 288 287 268
f 314 315 288
f 315 290 288
f 117 133 131
f 133 132 131
f 129 131 132
f 129 132 130
f 227 300 264
f 300 301 265
f 265 264 300
f 314 288 302
f 302 288 267
f 302 313 314
f 302 303 313
f 302 265 301
f 267 265 302
f 191 192 175
f 175 180 177
f 175 170 171
f 199 198 175
f 175 183 184
f 166 200 175
f 175 167 161
f 171 172 175
f 165 163 175
f 168 167 175
f 175 172 168
f 175 195 196
f 175 197 191
f 184 178 175
f 175 173 169
f 185 187 175
f 175 188 185
f 175 194 190
f 161 160 175
f 169 170 175
f 175 162 166
f 182 183 175
f 190 189 175
f 198 195 175
f 196 197 175
f 175 192 193
f 174 173 175
f 179 180 175
f 175 178 179
f 177 176 175
f 189 188 175
f 193 194 175
f 175 200 201
f 175 202 199
f 175 164 165
f 175 181 182
f 187 186 175
f 201 202 175
f 160 164 175
f 175 163 162
f 186 181 175
f 268 287 286
f 271 268 286
f 31 11 12
f 31 23 24
f 19 20 31
f 31 18 19
f 41 42 31
f 31 40 41
f 24 25 31
f 8 9 31
f 12 13 31
f 31 15 16
f 35 36 31
f 31 9 10
f 10 11 31
f 31 45 8
f 16 17 31
f 31 21 22
f 31 13 14
f 14 15 31
f 25 26 31
f 22 23 31
f 38 39 31
f 31 37 38
f 44 45 31
f 31 34 35
f 17 18 31
f 31 20 21
f 26 27 31
f 36 37 31
f 31 39 40
f 31 43 44
f 42 43 31
f 31 32 33
f 33 34 31
f 27 28 31
f 31 28 29
f 29 30 31
f 285 274 272
f 284 274 285
f 271 286 285
f 285 272 271
f 342 332 331
f 342 336 337
f 342 339 340
f 342 325 326
f 324 334 342
f 331 343 342
f 342 340 341
f 329 330 342
f 342 323 324
f 344 345 342
f 342 343 344
f 342 346 347
f 333 325 342
f 342 328 329
f 326 327 342
f 342 334 335
f 335 332 342
f 345 346 342
f 350 336 342
f 347 348 342
f 342 349 350
f 342 327 328
f 342 330 323
f 342 348 349
f 337 338 342
f 338 339 342
f 256 233 234
f 256 254 359
f 256 236 237
f 256 362 363
f 256 237 238
f 238 239 256
f 256 376 377
f 256 257 258
f 366 367 256
f 256 367 384
f 258 262 256
f 384 385 256
f 256 243 244
f 256 240 241
f 241 242 256
f 256 359 360
f 363 375 256
f 256 235 236
f 256 368 369
f 256 385 386
f 256 373 374
f 256 251 252
f 256 239 240
f 242 243 256
f 244 245 256
f 246 247 256
f 256 361 362
f 234 235 256
f 248 249 256
f 249 250 256
f 391 368 256
f 256 390 391
f 375 376 256
f 360 361 256
f 262 263 256
f 256 245 246
f 256 383 390
f 260 261 256
f 256 259 260
f 256 263 248
f 252 253 256
f 232 233 256
f 256 231 232
f 386 371 256
f 369 370 256
f 256 381 379
f 256 247 251
f 261 257 256
f 256 253 259
f 256 365 366
f 256 371 231
f 379 378 256
f 374 364 256
f 256 370 380
f 380 381 256
f 382 383 256
f 377 387 256
f 256 250 255
f 256 389 382
f 256 378 372
f 372 373 256
f 364 365 256
f 256 387 388
f 388 389 256
