v 0.100700 0.053327 -0.025268
v 0.089902 0.053327 -0.025268
v 0.102597 0.053259 -0.025268
v 0.100700 0.052910 -0.026131
v 0.089902 0.053228 -0.025473
v 0.089902 0.047080 -0.025268
v 0.102597 0.052858 -0.026065
v 0.103855 0.052722 -0.025268
v 0.103667 0.051340 -0.028668
v 0.100700 0.052195 -0.027528
v 0.089902 0.052691 -0.026560
v 0.089902 0.052910 -0.026131
v 0.102597 0.047685 -0.025268
v 0.089902 0.000066 -0.053480
v 0.102597 0.052107 -0.027528
v 0.104078 0.052227 -0.025268
v 0.104017 0.052237 -0.025589
v 0.103878 0.051627 -0.027528
v 0.102597 0.051429 -0.028823
v 0.103841 0.049692 -0.030978
v 0.103726 0.047617 -0.034423
v 0.103299 0.049307 -0.032240
v 0.089902 0.052195 -0.027528
v 0.100700 0.051460 -0.028880
v 0.103991 0.048457 -0.025268
v 0.100700 0.000055 -0.053880
v 0.102597 0.000055 -0.053973
v 0.089902 0.000055 -0.056553
v 0.090589 0.000055 -0.053665
v 0.104491 0.050282 -0.025268
v 0.104518 0.050282 -0.025632
v 0.104376 0.050282 -0.027528
v 0.103994 0.050308 -0.029352
v 0.102597 0.050866 -0.029775
v 0.100700 0.050918 -0.029831
v 0.103931 0.048029 -0.033221
v 0.102597 0.047747 -0.034599
v 0.104010 0.046491 -0.035081
v 0.103808 0.045865 -0.036492
v 0.102597 0.045317 -0.037708
v 0.102597 0.046074 -0.036756
v 0.102597 0.047023 -0.035547
v 0.102640 0.048806 -0.033056
v 0.102034 0.049359 -0.032312
v 0.102640 0.049818 -0.031496
v 0.089902 0.051460 -0.028880
v 0.103998 0.000055 -0.054551
v 0.089902 0.000055 -0.059021
v 0.104497 0.000055 -0.055988
v 0.104513 0.042689 -0.037017
v 0.104511 0.048384 -0.029428
v 0.104540 0.006646 -0.055988
v 0.104533 0.016132 -0.054088
v 0.104428 0.046485 -0.033221
v 0.104120 0.048556 -0.031496
v 0.100700 0.050005 -0.031324
v 0.089902 0.050918 -0.029831
v 0.100700 0.047075 -0.035596
v 0.100700 0.047784 -0.034648
v 0.104086 0.044671 -0.037080
v 0.103853 0.044092 -0.038481
v 0.102597 0.044374 -0.038791
v 0.100700 0.045370 -0.037764
v 0.100700 0.046120 -0.036812
v 0.100700 0.048733 -0.033280
v 0.100700 0.049374 -0.032332
v 0.100700 0.000055 -0.059021
v 0.089902 0.000952 -0.059021
v 0.104096 0.000055 -0.057884
v 0.104513 0.037000 -0.042703
v 0.104129 0.040937 -0.040955
v 0.104121 0.042814 -0.039032
v 0.104488 0.044587 -0.035121
v 0.104096 0.000952 -0.057884
v 0.104534 0.008545 -0.055988
v 0.104484 0.010443 -0.055988
v 0.104465 0.018030 -0.054088
v 0.104523 0.021821 -0.052192
v 0.104518 0.025617 -0.050295
v 0.089902 0.050005 -0.031324
v 0.089902 0.045891 -0.037106
v 0.089902 0.047075 -0.035596
v 0.089902 0.047784 -0.034648
v 0.102597 0.043529 -0.039739
v 0.103866 0.042267 -0.040420
v 0.100700 0.043576 -0.039792
v 0.100700 0.044421 -0.038841
v 0.089902 0.045370 -0.037764
v 0.089902 0.048733 -0.033280
v 0.089902 0.049374 -0.032332
v 0.100700 0.000952 -0.059021
v 0.102597 0.000055 -0.058965
v 0.089902 0.002850 -0.058952
v 0.103597 0.000055 -0.058869
v 0.104490 0.035102 -0.044599
v 0.104121 0.039023 -0.042832
v 0.104508 0.029413 -0.048396
v 0.103865 0.040411 -0.042283
v 0.103597 0.000952 -0.058869
v 0.103955 0.002892 -0.058063
v 0.104043 0.004748 -0.057795
v 0.104043 0.006646 -0.057673
v 0.104034 0.008545 -0.057554
v 0.103987 0.010443 -0.057415
v 0.104378 0.012336 -0.055988
v 0.103967 0.018030 -0.055525
v 0.104247 0.019923 -0.054088
v 0.104384 0.023724 -0.052192
v 0.104382 0.027510 -0.050295
v 0.102597 0.042580 -0.040750
v 0.102597 0.041683 -0.041702
v 0.089902 0.044160 -0.039135
v 0.100700 0.042627 -0.040800
v 0.089902 0.043284 -0.040103
v 0.089902 0.043576 -0.039792
v 0.089902 0.044421 -0.038841
v 0.100700 0.002850 -0.058952
v 0.102597 0.000952 -0.058965
v 0.089902 0.003825 -0.058899
v 0.104422 0.033204 -0.046496
v 0.104087 0.037058 -0.044679
v 0.103855 0.038471 -0.044097
v 0.102597 0.039738 -0.043546
v 0.103564 0.002292 -0.058846
v 0.103879 0.012336 -0.057250
v 0.103398 0.003554 -0.058816
v 0.103749 0.019923 -0.055231
v 0.103886 0.023724 -0.053513
v 0.103722 0.013895 -0.057088
v 0.104023 0.025580 -0.052251
v 0.103885 0.027510 -0.051647
v 0.104280 0.028000 -0.050302
v 0.104119 0.031494 -0.048581
v 0.100700 0.041730 -0.041748
v 0.100700 0.039785 -0.043595
v 0.089902 0.041730 -0.041748
v 0.100700 0.004258 -0.058872
v 0.102132 0.004107 -0.058859
v 0.102697 0.002892 -0.058889
v 0.089902 0.004258 -0.058872
v 0.103925 0.033204 -0.048049
v 0.104005 0.035066 -0.046509
v 0.103809 0.036468 -0.045881
v 0.102597 0.038789 -0.044372
v 0.102697 0.004743 -0.058743
v 0.102597 0.006646 -0.058529
v 0.102597 0.008545 -0.058288
v 0.102597 0.010443 -0.057990
v 0.103581 0.020940 -0.055066
v 0.103689 0.024923 -0.053266
v 0.103445 0.015157 -0.056923
v 0.103679 0.028667 -0.051363
v 0.103836 0.030983 -0.049701
v 0.103998 0.029345 -0.050315
v 0.089902 0.040478 -0.042941
v 0.100700 0.038836 -0.044421
v 0.089902 0.039785 -0.043595
v 0.100700 0.005207 -0.058790
v 0.100700 0.006646 -0.058641
v 0.089902 0.005207 -0.058790
v 0.103719 0.034403 -0.047623
v 0.102597 0.037678 -0.045320
v 0.100700 0.037735 -0.045373
v 0.100700 0.008545 -0.058397
v 0.100700 0.010443 -0.058086
v 0.102597 0.012336 -0.057640
v 0.102597 0.018030 -0.056107
v 0.102597 0.019923 -0.055492
v 0.102597 0.021044 -0.055106
v 0.102597 0.023724 -0.053966
v 0.102597 0.025122 -0.053361
v 0.102726 0.014406 -0.057164
v 0.102181 0.015303 -0.056966
v 0.102726 0.016012 -0.056718
v 0.102597 0.028000 -0.051878
v 0.102597 0.028824 -0.051452
v 0.103479 0.032250 -0.049337
v 0.089902 0.038836 -0.044421
v 0.089902 0.006646 -0.058641
v 0.102597 0.035530 -0.047048
v 0.102597 0.036729 -0.046099
v 0.100700 0.036786 -0.046149
v 0.089902 0.037735 -0.045373
v 0.089902 0.008545 -0.058397
v 0.089902 0.010443 -0.058086
v 0.100700 0.012336 -0.057716
v 0.100700 0.018030 -0.056203
v 0.100700 0.019923 -0.055559
v 0.100700 0.021117 -0.055136
v 0.100700 0.022066 -0.054739
v 0.100700 0.023724 -0.054045
v 0.100700 0.025184 -0.053391
v 0.100700 0.026133 -0.052919
v 0.100700 0.027510 -0.052212
v 0.100700 0.014234 -0.057277
v 0.100700 0.015365 -0.056982
v 0.100700 0.016309 -0.056728
v 0.100700 0.028881 -0.051488
v 0.100700 0.029830 -0.050923
v 0.102214 0.032312 -0.049384
v 0.100700 0.028000 -0.051954
v 0.102747 0.033053 -0.048822
v 0.102597 0.034581 -0.047748
v 0.100700 0.035582 -0.047097
v 0.089902 0.036416 -0.046443
v 0.089902 0.036786 -0.046149
v 0.089902 0.012336 -0.057716
v 0.089902 0.013650 -0.057412
v 0.089902 0.018030 -0.056203
v 0.089902 0.019923 -0.055559
v 0.089902 0.020752 -0.055268
v 0.089902 0.021117 -0.055136
v 0.089902 0.021774 -0.054865
v 0.089902 0.023724 -0.054045
v 0.089902 0.025184 -0.053391
v 0.089902 0.026133 -0.052919
v 0.089902 0.027510 -0.052212
v 0.089902 0.014234 -0.057277
v 0.089902 0.015365 -0.056982
v 0.089902 0.016309 -0.056728
v 0.089902 0.028881 -0.051488
v 0.089902 0.029538 -0.051098
v 0.100700 0.031306 -0.050031
v 0.089902 0.029830 -0.050923
v 0.100700 0.032344 -0.049403
v 0.100700 0.033293 -0.048733
v 0.100700 0.034633 -0.047784
v 0.089902 0.028000 -0.051954
v 0.089902 0.035582 -0.047097
v 0.089902 0.031306 -0.050031
v 0.089902 0.033001 -0.048941
v 0.089902 0.032344 -0.049403
v 0.089902 0.034633 -0.047784
f 26 14 29
f 13 14 26
f 28 29 14
f 14 13 6
f 27 13 26
f 25 13 27
f 27 47 25
f 31 49 52
f 52 49 69
f 53 31 52
f 50 31 53
f 47 49 30
f 49 31 30
f 25 47 30
f 120 95 97
f 97 95 70
f 50 53 70
f 70 71 50
f 32 54 55
f 138 145 126
f 152 150 171
f 148 151 129
f 129 126 148
f 127 106 129
f 75 53 52
f 95 120 121
f 33 32 55
f 51 32 31
f 54 32 51
f 51 73 54
f 51 31 50
f 50 73 51
f 177 180 161
f 155 135 157
f 109 120 97
f 137 138 117
f 165 148 164
f 151 148 166
f 166 165 186
f 148 165 166
f 164 148 147
f 147 159 164
f 147 148 126
f 187 173 197
f 9 3 8
f 52 69 74
f 74 75 52
f 99 100 74
f 50 71 72
f 72 73 50
f 95 121 96
f 96 70 95
f 71 70 96
f 96 98 71
f 96 122 98
f 121 122 96
f 142 121 120
f 204 229 205
f 200 225 226
f 226 227 200
f 200 227 203
f 180 177 203
f 203 227 204
f 204 180 203
f 111 135 134
f 134 155 136
f 135 155 134
f 144 156 135
f 144 163 156
f 126 124 118
f 118 124 99
f 91 117 118
f 79 109 97
f 97 70 79
f 79 70 53
f 106 107 77
f 77 105 106
f 158 138 137
f 158 159 138
f 218 195 208
f 186 207 208
f 208 195 186
f 129 151 149
f 149 127 129
f 171 150 149
f 172 173 151
f 151 166 172
f 172 195 173
f 186 195 172
f 172 166 186
f 138 159 146
f 159 147 146
f 145 138 146
f 126 145 146
f 146 147 126
f 173 187 167
f 167 187 168
f 167 149 151
f 168 149 167
f 189 212 213
f 213 190 189
f 191 190 213
f 213 214 191
f 3 4 1
f 9 19 15
f 31 32 16
f 16 30 31
f 9 8 18
f 32 33 18
f 103 75 102
f 75 74 102
f 102 124 103
f 76 75 103
f 105 77 76
f 53 75 76
f 76 77 53
f 129 106 125
f 106 105 125
f 125 126 129
f 141 142 120
f 161 142 141
f 22 19 9
f 36 33 55
f 55 54 36
f 54 73 60
f 73 72 60
f 72 61 60
f 60 61 39
f 231 225 232
f 231 226 225
f 233 227 231
f 227 226 231
f 202 177 200
f 200 203 202
f 202 203 177
f 171 191 192
f 113 134 136
f 111 134 113
f 182 205 206
f 204 205 182
f 182 180 204
f 123 135 111
f 123 144 135
f 111 98 123
f 98 122 123
f 163 144 162
f 139 138 126
f 126 118 139
f 139 117 138
f 139 118 117
f 128 107 106
f 106 127 128
f 128 149 150
f 127 149 128
f 78 79 53
f 53 77 78
f 109 79 78
f 119 140 137
f 137 117 119
f 117 93 119
f 197 173 196
f 173 195 196
f 169 149 168
f 189 190 169
f 169 190 191
f 189 169 188
f 168 187 188
f 188 169 168
f 151 173 174
f 174 167 151
f 173 167 174
f 10 19 24
f 10 15 19
f 7 4 3
f 7 3 9
f 9 15 7
f 7 10 4
f 15 10 7
f 8 16 17
f 17 18 8
f 17 16 32
f 32 18 17
f 101 74 100
f 101 102 74
f 101 100 99
f 99 124 101
f 124 102 101
f 104 125 105
f 104 76 103
f 105 76 104
f 103 124 104
f 104 124 126
f 126 125 104
f 120 109 133
f 133 141 120
f 141 133 154
f 24 19 35
f 43 22 37
f 66 56 44
f 22 43 44
f 56 35 44
f 44 65 66
f 44 43 37
f 37 22 21
f 39 40 21
f 21 22 9
f 85 98 111
f 85 61 72
f 71 98 85
f 85 72 71
f 38 60 39
f 39 21 38
f 38 21 36
f 38 36 54
f 54 60 38
f 223 225 200
f 200 199 223
f 176 177 152
f 200 177 176
f 176 198 199
f 176 199 200
f 222 224 199
f 199 198 222
f 222 198 221
f 114 113 136
f 114 115 86
f 86 113 114
f 81 63 88
f 58 81 82
f 63 40 62
f 39 61 62
f 62 40 39
f 86 115 112
f 87 62 86
f 63 62 87
f 87 112 116
f 86 112 87
f 181 182 163
f 163 162 181
f 180 182 181
f 161 180 181
f 181 162 161
f 161 162 143
f 143 142 161
f 143 162 144
f 143 122 121
f 121 142 143
f 143 123 122
f 144 123 143
f 109 78 108
f 108 78 77
f 108 77 107
f 107 128 108
f 108 130 109
f 108 128 130
f 170 191 171
f 170 169 191
f 171 149 170
f 149 169 170
f 2 1 5
f 5 1 4
f 4 12 5
f 11 12 4
f 11 10 23
f 4 10 11
f 141 154 153
f 161 141 153
f 153 177 161
f 152 177 153
f 130 128 131
f 152 153 131
f 131 153 154
f 109 130 131
f 150 152 131
f 131 128 150
f 19 22 34
f 34 35 19
f 34 44 35
f 20 21 9
f 36 21 20
f 33 36 20
f 9 18 20
f 20 18 33
f 193 194 171
f 171 192 193
f 171 194 175
f 194 176 175
f 175 152 171
f 175 176 152
f 201 176 194
f 198 176 201
f 37 58 59
f 59 44 37
f 65 44 59
f 42 58 37
f 37 21 42
f 63 81 64
f 81 58 64
f 86 62 84
f 84 62 61
f 61 85 84
f 211 212 189
f 189 188 211
f 188 210 211
f 109 131 132
f 132 131 154
f 132 133 109
f 132 154 133
f 22 44 45
f 45 34 22
f 44 34 45
f 41 21 40
f 41 42 21
f 41 40 63
f 63 64 41
f 58 42 41
f 41 64 58
f 110 85 111
f 110 84 85
f 86 84 110
f 111 113 110
f 110 113 86
f 68 67 48
f 91 67 68
f 227 233 229
f 227 229 204
f 92 28 48
f 94 69 92
f 26 29 92
f 92 27 26
f 29 28 92
f 47 27 92
f 92 49 47
f 92 69 49
f 48 67 92
f 179 184 164
f 164 159 179
f 74 69 94
f 94 99 74
f 157 135 178
f 135 156 178
f 183 178 163
f 163 178 156
f 118 67 91
f 118 92 67
f 94 92 118
f 118 99 94
f 91 68 93
f 93 117 91
f 164 184 185
f 185 165 164
f 185 207 186
f 186 165 185
f 197 220 209
f 209 187 197
f 2 6 16
f 16 6 13
f 16 13 25
f 25 30 16
f 16 1 2
f 16 8 3
f 3 1 16
f 192 214 215
f 191 214 192
f 182 206 183
f 183 163 182
f 137 140 160
f 160 158 137
f 160 179 159
f 159 158 160
f 196 219 220
f 196 220 197
f 218 219 196
f 196 195 218
f 46 23 10
f 24 46 10
f 80 66 90
f 80 56 66
f 35 57 46
f 35 46 24
f 35 80 57
f 56 80 35
f 65 89 90
f 90 66 65
f 87 116 88
f 88 63 87
f 187 209 210
f 210 188 187
f 232 225 230
f 225 223 230
f 199 224 230
f 230 223 199
f 193 216 217
f 193 217 194
f 193 192 215
f 215 216 193
f 217 228 201
f 194 217 201
f 201 228 221
f 221 198 201
f 83 89 59
f 89 65 59
f 59 82 83
f 59 58 82
f 211 6 2
f 48 28 211
f 211 208 207
f 211 80 90
f 211 114 136
f 211 28 14
f 14 6 211
f 211 205 229
f 211 68 48
f 184 179 211
f 232 230 211
f 90 89 211
f 211 155 157
f 229 233 211
f 211 213 212
f 211 231 232
f 157 178 211
f 88 116 211
f 211 185 184
f 215 214 211
f 183 206 211
f 211 11 23
f 136 155 211
f 140 119 211
f 220 219 211
f 211 209 220
f 46 57 211
f 211 160 140
f 206 205 211
f 221 228 211
f 211 178 183
f 211 93 68
f 207 185 211
f 211 219 218
f 218 208 211
f 211 112 115
f 214 213 211
f 211 23 46
f 211 89 83
f 233 231 211
f 211 216 215
f 211 222 221
f 83 82 211
f 211 81 88
f 211 119 93
f 179 160 211
f 2 5 211
f 57 80 211
f 217 216 211
f 224 222 211
f 211 228 217
f 115 114 211
f 82 81 211
f 116 112 211
f 211 210 209
f 211 5 12
f 12 11 211
f 211 230 224
