v 0.074883 -0.065659 -0.019137
v 0.073418 -0.065754 -0.019137
v 0.075128 -0.065711 -0.019137
v 0.086610 -0.030082 -0.042860
v 0.067920 -0.030082 -0.040507
v 0.067920 -0.066360 -0.019137
v 0.076349 -0.065969 -0.019137
v 0.087496 -0.030082 -0.042979
v 0.067920 -0.030082 -0.045445
v 0.067920 -0.071757 -0.019137
v 0.087474 -0.069088 -0.019137
v 0.087975 -0.030082 -0.043817
v 0.087630 -0.069243 -0.019137
v 0.087837 -0.069651 -0.019137
v 0.087941 -0.069922 -0.019137
v 0.073144 -0.030082 -0.046092
v 0.067920 -0.030426 -0.045448
v 0.067920 -0.071262 -0.020142
v 0.077405 -0.072160 -0.021002
v 0.069503 -0.071976 -0.019137
v 0.088306 -0.030082 -0.045282
v 0.088290 -0.071232 -0.019137
v 0.081869 -0.030082 -0.047160
v 0.082210 -0.030426 -0.047204
v 0.069020 -0.030426 -0.045584
v 0.067920 -0.030795 -0.045440
v 0.067920 -0.071116 -0.020439
v 0.067920 -0.070764 -0.021129
v 0.078379 -0.072229 -0.021135
v 0.077862 -0.072487 -0.020455
v 0.082210 -0.073123 -0.020361
v 0.080743 -0.073471 -0.019204
v 0.080743 -0.073501 -0.019137
v 0.088306 -0.040691 -0.043817
v 0.088306 -0.030426 -0.045282
v 0.087823 -0.030426 -0.046708
v 0.087823 -0.030082 -0.046705
v 0.088294 -0.071473 -0.019137
v 0.088304 -0.070008 -0.021828
v 0.082210 -0.030082 -0.047201
v 0.083677 -0.030426 -0.047362
v 0.082210 -0.031895 -0.047163
v 0.072674 -0.031195 -0.046017
v 0.083336 -0.030082 -0.047323
v 0.067920 -0.031895 -0.045409
v 0.082210 -0.072087 -0.022347
v 0.080743 -0.071984 -0.022164
v 0.067920 -0.070661 -0.021312
v 0.082210 -0.072491 -0.021615
v 0.083721 -0.073364 -0.020239
v 0.083262 -0.073639 -0.019556
v 0.082210 -0.073570 -0.019415
v 0.082210 -0.073699 -0.019137
v 0.088302 -0.049486 -0.040885
v 0.088300 -0.042156 -0.043817
v 0.088302 -0.033360 -0.045282
v 0.088302 -0.056812 -0.036485
v 0.087823 -0.031895 -0.046691
v 0.086610 -0.031895 -0.047404
v 0.086526 -0.030417 -0.047446
v 0.086526 -0.030082 -0.047443
v 0.088045 -0.072698 -0.019137
v 0.088260 -0.071473 -0.020361
v 0.088290 -0.068543 -0.024761
v 0.088300 -0.067073 -0.026228
v 0.085203 -0.030417 -0.047459
v 0.085142 -0.031895 -0.047415
v 0.083677 -0.031895 -0.047321
v 0.083677 -0.030082 -0.047360
v 0.082210 -0.033360 -0.047090
v 0.072819 -0.032175 -0.045997
v 0.073091 -0.033360 -0.045967
v 0.067920 -0.033360 -0.045329
v 0.080743 -0.071344 -0.023293
v 0.082210 -0.071550 -0.023293
v 0.083360 -0.072160 -0.022480
v 0.067920 -0.070493 -0.021607
v 0.070484 -0.070528 -0.022184
v 0.083779 -0.072508 -0.021926
v 0.085142 -0.073364 -0.020447
v 0.084240 -0.073690 -0.019667
v 0.083830 -0.073892 -0.019137
v 0.083603 -0.073866 -0.019137
v 0.088300 -0.052412 -0.039420
v 0.088243 -0.050952 -0.040885
v 0.088296 -0.046552 -0.042349
v 0.088237 -0.043621 -0.043817
v 0.088225 -0.037760 -0.045282
v 0.088274 -0.036291 -0.045282
v 0.088294 -0.034826 -0.045282
v 0.088278 -0.062677 -0.032090
v 0.088264 -0.061212 -0.033552
v 0.088288 -0.055510 -0.037791
v 0.087823 -0.033360 -0.046641
v 0.087813 -0.034826 -0.046569
v 0.087792 -0.036291 -0.046497
v 0.086610 -0.033360 -0.047312
v 0.085142 -0.033360 -0.047340
v 0.085555 -0.030082 -0.047479
v 0.086167 -0.030082 -0.047470
v 0.086301 -0.030082 -0.047462
v 0.087945 -0.072942 -0.019137
v 0.087883 -0.071619 -0.021970
v 0.088221 -0.070008 -0.023293
v 0.088205 -0.067073 -0.027693
v 0.088251 -0.065608 -0.029158
v 0.088266 -0.064147 -0.030623
v 0.083677 -0.033360 -0.047249
v 0.083677 -0.034826 -0.047121
v 0.082210 -0.034826 -0.046960
v 0.074068 -0.034185 -0.046025
v 0.067920 -0.034826 -0.045196
v 0.078838 -0.070700 -0.023954
v 0.083779 -0.071825 -0.023157
v 0.079815 -0.070768 -0.024070
v 0.082210 -0.070936 -0.024342
v 0.084337 -0.072216 -0.022575
v 0.067920 -0.069797 -0.022811
v 0.085142 -0.072650 -0.021828
v 0.086608 -0.073355 -0.020422
v 0.085142 -0.073712 -0.019712
v 0.085142 -0.073978 -0.019137
v 0.084856 -0.073961 -0.019137
v 0.088284 -0.055347 -0.037952
v 0.087762 -0.050952 -0.042127
v 0.088207 -0.048021 -0.042349
v 0.088201 -0.053882 -0.039420
v 0.088071 -0.045086 -0.043817
v 0.087756 -0.043621 -0.044990
v 0.088117 -0.039226 -0.045282
v 0.087742 -0.037760 -0.046397
v 0.087869 -0.064237 -0.032179
v 0.087867 -0.062755 -0.033636
v 0.088245 -0.059747 -0.035017
v 0.086610 -0.034826 -0.047171
v 0.085142 -0.034826 -0.047207
v 0.087694 -0.072951 -0.020219
v 0.087604 -0.072470 -0.021576
v 0.087554 -0.073677 -0.019137
v 0.087740 -0.071250 -0.023293
v 0.087843 -0.070094 -0.024816
v 0.088105 -0.068543 -0.026228
v 0.087798 -0.067107 -0.029161
v 0.087847 -0.065677 -0.030681
v 0.085142 -0.036291 -0.047049
v 0.083677 -0.036291 -0.046960
v 0.082210 -0.036291 -0.046799
v 0.075477 -0.035706 -0.046033
v 0.071951 -0.034826 -0.045695
v 0.067920 -0.036291 -0.045026
v 0.067920 -0.069595 -0.023157
v 0.067920 -0.069170 -0.023859
v 0.069616 -0.069294 -0.024056
v 0.083677 -0.071030 -0.024492
v 0.070484 -0.069359 -0.024153
v 0.082210 -0.070468 -0.025074
v 0.083677 -0.070566 -0.025224
v 0.085142 -0.071073 -0.024578
v 0.085142 -0.071808 -0.023329
v 0.085142 -0.072225 -0.022594
v 0.086293 -0.072225 -0.022594
v 0.086712 -0.072551 -0.021970
v 0.087271 -0.072203 -0.022555
v 0.087345 -0.073677 -0.019637
v 0.086608 -0.073703 -0.019687
v 0.086608 -0.073948 -0.019137
v 0.088195 -0.058278 -0.036485
v 0.087869 -0.052520 -0.041004
v 0.087722 -0.053882 -0.040613
v 0.087580 -0.052103 -0.041842
v 0.087542 -0.049173 -0.043262
v 0.087728 -0.048021 -0.043501
v 0.087825 -0.055377 -0.039492
v 0.088071 -0.056812 -0.037949
v 0.087592 -0.045086 -0.044763
v 0.087359 -0.041468 -0.046025
v 0.087468 -0.040691 -0.046108
v 0.087636 -0.039226 -0.046258
v 0.086610 -0.036291 -0.047024
v 0.087630 -0.063812 -0.033208
v 0.087612 -0.065230 -0.031746
v 0.087839 -0.061255 -0.035073
v 0.087462 -0.073785 -0.019137
v 0.087552 -0.070936 -0.024364
v 0.087622 -0.069612 -0.026228
v 0.087690 -0.068508 -0.027596
v 0.087530 -0.067997 -0.028672
v 0.087592 -0.066635 -0.030232
v 0.086610 -0.037760 -0.046819
v 0.085142 -0.037760 -0.046841
v 0.083677 -0.037760 -0.046744
v 0.076916 -0.037137 -0.046036
v 0.075938 -0.036682 -0.045975
v 0.082210 -0.037760 -0.046583
v 0.067920 -0.037846 -0.044785
v 0.067920 -0.068757 -0.024483
v 0.085142 -0.070626 -0.025313
v 0.079277 -0.069518 -0.025859
v 0.070484 -0.068869 -0.024886
v 0.082292 -0.069651 -0.026323
v 0.082835 -0.069290 -0.026983
v 0.083677 -0.069900 -0.026228
v 0.085142 -0.070021 -0.026228
v 0.086608 -0.070618 -0.025299
v 0.086608 -0.071056 -0.024567
v 0.086712 -0.071873 -0.023166
v 0.087412 -0.069337 -0.027041
v 0.087786 -0.059738 -0.036507
v 0.087528 -0.054905 -0.040321
v 0.086610 -0.053087 -0.041581
v 0.086610 -0.052357 -0.041972
v 0.086610 -0.050952 -0.042677
v 0.086610 -0.050169 -0.043057
v 0.087432 -0.046019 -0.044616
v 0.086610 -0.049435 -0.043376
v 0.087804 -0.055510 -0.039445
v 0.087660 -0.058157 -0.037902
v 0.086610 -0.043621 -0.045484
v 0.086610 -0.042306 -0.045861
v 0.086610 -0.041572 -0.046053
v 0.086610 -0.040691 -0.046244
v 0.086610 -0.039226 -0.046544
v 0.086608 -0.064766 -0.032703
v 0.086608 -0.064031 -0.033411
v 0.086608 -0.063258 -0.034143
v 0.087610 -0.062321 -0.034618
v 0.087584 -0.060795 -0.036032
v 0.086608 -0.067541 -0.029557
v 0.086608 -0.066807 -0.030434
v 0.086608 -0.066171 -0.031166
v 0.086608 -0.065440 -0.031971
v 0.085142 -0.039226 -0.046569
v 0.083677 -0.039226 -0.046475
v 0.076397 -0.037683 -0.045873
v 0.071951 -0.037760 -0.045304
v 0.082210 -0.039226 -0.046314
v 0.073416 -0.039226 -0.045218
v 0.067920 -0.039470 -0.044485
v 0.067920 -0.068594 -0.024728
v 0.067920 -0.068139 -0.025407
v 0.083677 -0.069342 -0.027055
v 0.067920 -0.067945 -0.025693
v 0.072761 -0.067795 -0.026941
v 0.082292 -0.068775 -0.027560
v 0.082210 -0.067962 -0.028620
v 0.083677 -0.068796 -0.027787
v 0.085142 -0.069402 -0.027138
v 0.086608 -0.069999 -0.026228
v 0.086608 -0.069393 -0.027119
v 0.086608 -0.068843 -0.027854
v 0.086608 -0.068113 -0.028822
v 0.087516 -0.059240 -0.037381
v 0.086610 -0.055089 -0.040432
v 0.086610 -0.053882 -0.041129
v 0.087590 -0.056812 -0.038979
v 0.087376 -0.057586 -0.038712
v 0.086608 -0.055824 -0.039988
v 0.085142 -0.053104 -0.041595
v 0.085142 -0.053882 -0.041154
v 0.085142 -0.050952 -0.042693
v 0.085142 -0.052369 -0.041975
v 0.085142 -0.050187 -0.043068
v 0.086610 -0.048021 -0.043969
v 0.086610 -0.046900 -0.044411
v 0.086610 -0.046169 -0.044666
v 0.086610 -0.045086 -0.045021
v 0.085142 -0.049456 -0.043384
v 0.085142 -0.043621 -0.045509
v 0.085142 -0.042332 -0.045873
v 0.085142 -0.041602 -0.046061
v 0.085142 -0.040691 -0.046266
v 0.085142 -0.065453 -0.031985
v 0.085142 -0.064774 -0.032717
v 0.085142 -0.064044 -0.033419
v 0.085142 -0.063270 -0.034152
v 0.085142 -0.062536 -0.034840
v 0.085142 -0.061745 -0.035575
v 0.086608 -0.062523 -0.034815
v 0.086608 -0.061719 -0.035547
v 0.086608 -0.060989 -0.036196
v 0.085142 -0.067550 -0.029563
v 0.085142 -0.066815 -0.030448
v 0.085142 -0.066184 -0.031178
v 0.083701 -0.040764 -0.046158
v 0.082210 -0.040308 -0.046097
v 0.081284 -0.040059 -0.046039
v 0.080308 -0.039758 -0.045978
v 0.068575 -0.039763 -0.044513
v 0.067920 -0.040669 -0.044214
v 0.067920 -0.067421 -0.026425
v 0.067920 -0.066871 -0.027158
v 0.067920 -0.066686 -0.027402
v 0.069018 -0.066772 -0.027513
v 0.083677 -0.068061 -0.028750
v 0.067920 -0.066261 -0.027951
v 0.071089 -0.066364 -0.028451
v 0.082210 -0.067387 -0.029355
v 0.085142 -0.068856 -0.027871
v 0.085142 -0.068121 -0.028828
v 0.086608 -0.060117 -0.036928
v 0.085978 -0.055510 -0.040185
v 0.085142 -0.055098 -0.040441
v 0.086608 -0.057637 -0.038748
v 0.086608 -0.056812 -0.039320
v 0.086608 -0.059382 -0.037486
v 0.086608 -0.058372 -0.038221
v 0.085142 -0.056812 -0.039339
v 0.085142 -0.055833 -0.039997
v 0.083677 -0.053005 -0.041542
v 0.083677 -0.053882 -0.041040
v 0.083677 -0.052271 -0.041919
v 0.083677 -0.050952 -0.042585
v 0.083677 -0.050066 -0.043018
v 0.085142 -0.048021 -0.043986
v 0.085142 -0.046917 -0.044422
v 0.085142 -0.046186 -0.044674
v 0.085142 -0.045086 -0.045043
v 0.083677 -0.049336 -0.043329
v 0.083677 -0.048021 -0.043881
v 0.083677 -0.043621 -0.045409
v 0.083677 -0.045086 -0.044946
v 0.084206 -0.041507 -0.046036
v 0.083677 -0.065384 -0.031915
v 0.083677 -0.064714 -0.032651
v 0.083677 -0.066119 -0.031105
v 0.083677 -0.063979 -0.033366
v 0.083677 -0.063219 -0.034102
v 0.083677 -0.062484 -0.034787
v 0.083677 -0.061676 -0.035519
v 0.085142 -0.061010 -0.036204
v 0.083677 -0.067486 -0.029485
v 0.083677 -0.066755 -0.030373
v 0.083226 -0.041301 -0.045986
v 0.082210 -0.041043 -0.045925
v 0.069553 -0.040059 -0.044574
v 0.071506 -0.041279 -0.044513
v 0.067920 -0.041060 -0.044114
v 0.067920 -0.066115 -0.028134
v 0.069018 -0.066201 -0.028245
v 0.078455 -0.066355 -0.029907
v 0.079277 -0.066424 -0.029982
v 0.082210 -0.066652 -0.030251
v 0.085142 -0.059395 -0.037503
v 0.085142 -0.060125 -0.036937
v 0.083677 -0.055510 -0.040074
v 0.083677 -0.054999 -0.040382
v 0.085142 -0.057654 -0.038759
v 0.085142 -0.058389 -0.038238
v 0.084040 -0.057607 -0.038729
v 0.083677 -0.055734 -0.039939
v 0.083601 -0.056950 -0.039128
v 0.082210 -0.052825 -0.041450
v 0.082210 -0.052094 -0.041828
v 0.082210 -0.053882 -0.040857
v 0.082210 -0.050952 -0.042408
v 0.082210 -0.049860 -0.042926
v 0.082210 -0.049125 -0.043240
v 0.083677 -0.046775 -0.044369
v 0.083677 -0.046040 -0.044624
v 0.082210 -0.048021 -0.043709
v 0.082210 -0.043621 -0.045240
v 0.082210 -0.042156 -0.045645
v 0.083701 -0.042061 -0.045842
v 0.082240 -0.045168 -0.044757
v 0.082749 -0.045894 -0.044574
v 0.082210 -0.065273 -0.031793
v 0.082210 -0.064598 -0.032529
v 0.082210 -0.063863 -0.033261
v 0.082210 -0.066007 -0.030983
v 0.082210 -0.063103 -0.033988
v 0.082210 -0.062368 -0.034679
v 0.082210 -0.061547 -0.035411
v 0.083677 -0.060946 -0.036138
v 0.072484 -0.041524 -0.044574
v 0.067920 -0.042156 -0.043831
v 0.067920 -0.065569 -0.028803
v 0.067920 -0.065354 -0.029055
v 0.067920 -0.064753 -0.029754
v 0.083677 -0.059317 -0.037453
v 0.083677 -0.060052 -0.036870
v 0.083308 -0.055510 -0.040027
v 0.082210 -0.054840 -0.040288
v 0.082210 -0.055579 -0.039844
v 0.083601 -0.058170 -0.038277
v 0.083062 -0.057526 -0.038671
v 0.082210 -0.056705 -0.039109
v 0.067920 -0.051605 -0.040111
v 0.074126 -0.053151 -0.040155
v 0.073474 -0.050831 -0.041273
v 0.076351 -0.050578 -0.041797
v 0.074003 -0.050255 -0.041636
v 0.073027 -0.050114 -0.041570
v 0.069449 -0.048842 -0.041659
v 0.067920 -0.048610 -0.041556
v 0.078975 -0.048618 -0.043026
v 0.082240 -0.046453 -0.044313
v 0.073416 -0.048021 -0.042538
v 0.076351 -0.047471 -0.043159
v 0.075473 -0.047329 -0.043101
v 0.079279 -0.044498 -0.044599
v 0.078536 -0.044356 -0.044549
v 0.075441 -0.042964 -0.044571
v 0.074462 -0.042736 -0.044510
v 0.073416 -0.042483 -0.044444
v 0.067920 -0.045138 -0.042910
v 0.067920 -0.044493 -0.043129
v 0.071161 -0.045843 -0.043090
v 0.073418 -0.064547 -0.030992
v 0.068373 -0.063395 -0.031338
v 0.079277 -0.063606 -0.033011
v 0.077740 -0.062574 -0.033738
v 0.067920 -0.064031 -0.030556
v 0.077201 -0.061926 -0.034265
v 0.079277 -0.062110 -0.034437
v 0.069674 -0.060495 -0.034299
v 0.082210 -0.060817 -0.036030
v 0.067920 -0.042526 -0.043725
v 0.082210 -0.059188 -0.037353
v 0.082210 -0.059923 -0.036762
v 0.079277 -0.056396 -0.038898
v 0.076822 -0.056138 -0.038721
v 0.076299 -0.055510 -0.039034
v 0.069020 -0.054488 -0.038612
v 0.071951 -0.053882 -0.039403
v 0.082210 -0.057440 -0.038607
v 0.082210 -0.058278 -0.038010
v 0.067920 -0.051768 -0.040022
v 0.067920 -0.050896 -0.040474
v 0.067920 -0.053624 -0.038976
v 0.067920 -0.052752 -0.039475
v 0.067920 -0.052391 -0.039681
v 0.067920 -0.049461 -0.041167
v 0.067920 -0.047896 -0.041855
v 0.074499 -0.047162 -0.043037
v 0.067920 -0.046960 -0.042233
v 0.067920 -0.043703 -0.043381
v 0.069020 -0.043621 -0.043548
v 0.069020 -0.045434 -0.042951
v 0.067920 -0.046552 -0.042396
v 0.067920 -0.063356 -0.031297
v 0.067920 -0.062952 -0.031694
v 0.067920 -0.062622 -0.032018
v 0.077078 -0.063412 -0.032823
v 0.067920 -0.062072 -0.032551
v 0.073418 -0.062355 -0.033214
v 0.067920 -0.061865 -0.032748
v 0.067920 -0.061436 -0.033150
v 0.067920 -0.060327 -0.034157
v 0.067920 -0.059627 -0.034737
v 0.078604 -0.060469 -0.035744
v 0.071183 -0.059021 -0.035758
v 0.080143 -0.058986 -0.037198
v 0.067920 -0.056224 -0.037320
v 0.075844 -0.056026 -0.038649
v 0.079277 -0.057130 -0.038388
v 0.067920 -0.054359 -0.038532
v 0.067920 -0.053809 -0.038865
v 0.067920 -0.058694 -0.035497
v 0.067920 -0.058149 -0.035924
v 0.067920 -0.057964 -0.036066
v 0.067920 -0.056958 -0.036798
v 0.073929 -0.057594 -0.037253
v 0.067920 -0.055510 -0.037794
v 0.067920 -0.055347 -0.037902
f 21 36 37
f 1 4 5
f 35 36 21
f 35 56 36
f 21 12 22
f 90 56 55
f 55 89 90
f 5 6 2
f 2 1 5
f 8 4 7
f 11 8 7
f 60 61 37
f 60 37 36
f 15 12 8
f 15 22 12
f 21 39 34
f 34 35 21
f 56 35 34
f 34 55 56
f 87 55 86
f 86 126 87
f 85 126 86
f 4 1 3
f 3 7 4
f 38 63 39
f 38 39 21
f 21 22 38
f 13 8 11
f 316 359 321
f 39 63 64
f 85 86 54
f 55 34 54
f 54 86 55
f 164 183 166
f 153 113 152
f 152 113 151
f 43 25 24
f 16 17 9
f 25 17 16
f 24 25 16
f 24 40 44
f 112 73 111
f 61 60 101
f 60 100 101
f 58 56 90
f 36 56 58
f 63 38 62
f 14 15 8
f 8 13 14
f 195 150 192
f 192 150 193
f 193 147 192
f 192 147 194
f 57 34 39
f 57 54 34
f 19 20 10
f 19 27 28
f 19 28 29
f 340 297 296
f 341 297 340
f 378 341 340
f 115 153 155
f 113 153 115
f 115 75 113
f 205 206 161
f 196 153 152
f 155 153 196
f 49 31 29
f 76 75 114
f 125 126 85
f 127 125 85
f 342 297 341
f 415 413 448
f 330 373 344
f 256 252 300
f 300 330 344
f 205 161 158
f 223 272 273
f 26 43 45
f 26 17 25
f 25 43 26
f 23 40 24
f 24 16 23
f 42 43 24
f 45 43 42
f 112 111 149
f 110 149 111
f 72 111 73
f 72 73 45
f 189 190 145
f 428 432 392
f 391 428 392
f 392 432 394
f 393 392 394
f 389 428 391
f 238 195 237
f 237 194 236
f 270 220 269
f 146 145 190
f 109 145 146
f 266 268 218
f 359 316 315
f 316 265 315
f 263 314 315
f 39 64 65
f 65 57 39
f 64 91 65
f 65 91 57
f 124 127 85
f 167 127 124
f 32 20 31
f 18 19 10
f 27 19 18
f 29 31 30
f 30 19 29
f 31 20 30
f 20 19 30
f 339 340 296
f 376 339 338
f 340 339 376
f 165 166 122
f 164 166 165
f 165 120 164
f 118 151 113
f 46 49 29
f 46 75 76
f 76 49 46
f 28 48 46
f 79 49 76
f 215 262 267
f 267 263 215
f 267 314 263
f 312 262 260
f 262 212 260
f 169 125 168
f 168 127 169
f 125 127 168
f 174 127 167
f 217 252 255
f 256 209 255
f 255 252 256
f 170 209 210
f 171 125 170
f 170 125 169
f 169 209 170
f 388 352 354
f 352 309 354
f 386 383 350
f 450 451 416
f 416 415 450
f 277 328 329
f 329 330 277
f 373 330 329
f 329 416 373
f 243 242 290
f 243 201 242
f 243 292 293
f 156 115 155
f 155 196 199
f 378 412 369
f 369 341 378
f 369 412 408
f 369 342 341
f 448 413 447
f 413 446 447
f 413 370 411
f 411 370 368
f 208 252 217
f 208 174 167
f 217 174 208
f 280 300 252
f 280 279 277
f 277 330 280
f 330 300 280
f 276 328 277
f 107 64 106
f 107 91 64
f 138 139 183
f 138 183 164
f 103 62 102
f 102 138 103
f 103 138 140
f 63 62 103
f 205 158 204
f 41 44 69
f 24 44 41
f 99 100 59
f 59 67 99
f 59 100 60
f 59 60 36
f 36 58 59
f 112 149 148
f 148 150 112
f 148 110 147
f 149 110 148
f 148 193 150
f 147 193 148
f 70 72 45
f 111 72 70
f 70 110 111
f 109 110 70
f 70 108 109
f 189 145 179
f 98 59 97
f 67 59 98
f 108 67 98
f 109 108 98
f 88 55 87
f 89 55 88
f 87 126 128
f 129 175 176
f 87 128 129
f 176 175 214
f 214 171 215
f 215 263 214
f 265 266 214
f 218 176 214
f 214 266 218
f 269 220 219
f 218 268 219
f 219 268 269
f 219 176 218
f 219 220 176
f 189 176 222
f 321 359 365
f 365 364 321
f 407 365 396
f 405 364 407
f 364 365 407
f 319 315 314
f 314 267 319
f 311 355 312
f 312 260 311
f 387 352 388
f 428 389 387
f 388 429 430
f 430 431 388
f 464 456 454
f 454 463 464
f 453 463 454
f 421 453 454
f 424 429 388
f 388 383 424
f 355 311 353
f 352 387 353
f 353 387 389
f 353 309 352
f 353 311 309
f 236 286 287
f 287 237 236
f 194 237 234
f 192 194 234
f 191 190 233
f 191 146 190
f 317 265 316
f 317 266 265
f 268 266 317
f 317 316 321
f 321 268 317
f 263 315 264
f 264 315 265
f 264 214 263
f 265 214 264
f 406 436 401
f 401 400 406
f 406 364 405
f 406 400 364
f 417 375 403
f 54 57 84
f 85 54 84
f 84 124 85
f 57 91 92
f 33 32 53
f 20 32 33
f 53 32 52
f 52 32 31
f 123 81 122
f 123 82 81
f 338 339 295
f 293 292 295
f 295 339 296
f 378 340 377
f 340 376 377
f 122 81 121
f 81 80 121
f 121 165 122
f 77 118 78
f 78 118 113
f 78 48 77
f 29 28 47
f 47 46 29
f 28 46 47
f 76 114 117
f 117 79 76
f 80 79 117
f 117 114 154
f 154 158 117
f 256 300 305
f 257 209 256
f 257 253 209
f 301 253 257
f 302 253 301
f 302 259 253
f 215 171 213
f 213 262 215
f 213 212 262
f 171 170 213
f 213 170 212
f 254 259 210
f 253 259 254
f 210 209 254
f 209 253 254
f 210 259 258
f 258 259 309
f 173 174 217
f 169 127 173
f 127 174 173
f 173 209 169
f 449 458 451
f 449 415 448
f 449 451 450
f 450 415 449
f 451 458 459
f 460 452 459
f 459 452 451
f 418 385 384
f 384 379 418
f 344 373 380
f 380 379 344
f 418 379 380
f 382 383 388
f 388 354 382
f 310 354 309
f 309 259 310
f 259 302 310
f 421 383 420
f 383 386 420
f 461 452 460
f 426 385 418
f 418 452 426
f 371 329 328
f 291 243 290
f 292 243 291
f 245 243 293
f 293 295 245
f 296 297 245
f 245 295 296
f 115 156 116
f 75 115 116
f 154 114 116
f 116 114 75
f 157 156 201
f 154 116 157
f 157 116 156
f 198 156 155
f 155 199 198
f 242 201 240
f 201 198 240
f 240 198 199
f 368 367 409
f 409 412 440
f 408 412 409
f 366 369 408
f 408 409 366
f 366 409 367
f 275 276 225
f 225 276 277
f 180 225 226
f 252 208 227
f 227 280 252
f 279 280 227
f 226 225 227
f 188 229 230
f 251 207 250
f 250 207 249
f 187 229 188
f 187 188 143
f 102 139 137
f 137 138 102
f 139 138 137
f 140 138 184
f 104 103 140
f 63 103 104
f 104 64 63
f 248 247 249
f 249 207 248
f 207 204 248
f 197 204 158
f 197 158 154
f 154 157 197
f 323 272 325
f 342 369 325
f 325 332 342
f 297 342 331
f 342 332 331
f 66 69 99
f 66 41 69
f 99 67 66
f 67 41 66
f 68 67 108
f 68 41 67
f 68 42 24
f 24 41 68
f 96 131 97
f 97 59 96
f 96 88 131
f 42 70 71
f 45 42 71
f 71 70 45
f 178 179 131
f 131 129 178
f 189 179 178
f 136 98 97
f 136 179 145
f 136 145 109
f 109 98 136
f 126 125 172
f 172 128 126
f 172 125 171
f 171 214 172
f 172 214 175
f 175 129 172
f 172 129 128
f 131 88 130
f 130 129 131
f 130 88 87
f 87 129 130
f 220 270 271
f 399 433 435
f 438 439 405
f 405 407 438
f 438 407 439
f 439 407 434
f 434 435 439
f 399 435 434
f 434 396 399
f 434 407 396
f 358 365 359
f 396 365 358
f 359 315 358
f 315 319 358
f 318 319 267
f 398 433 399
f 388 431 427
f 427 387 388
f 422 383 421
f 421 454 422
f 429 424 457
f 457 424 456
f 355 353 390
f 390 353 389
f 391 355 390
f 390 389 391
f 235 195 192
f 192 234 235
f 235 237 195
f 235 234 237
f 288 289 238
f 335 289 288
f 238 237 288
f 237 287 288
f 286 335 288
f 288 287 286
f 285 335 286
f 285 236 233
f 285 286 236
f 322 270 269
f 322 271 270
f 402 417 403
f 403 362 402
f 93 84 57
f 124 84 93
f 57 92 93
f 182 208 167
f 182 180 226
f 226 227 182
f 182 227 208
f 53 52 51
f 81 82 51
f 51 52 31
f 113 75 74
f 74 78 113
f 48 78 74
f 75 46 74
f 74 46 48
f 159 158 161
f 159 117 158
f 80 117 119
f 119 161 162
f 120 80 119
f 162 120 119
f 306 303 256
f 256 305 306
f 256 303 304
f 304 257 256
f 303 347 304
f 349 384 385
f 379 384 349
f 344 379 343
f 343 300 344
f 343 305 300
f 210 258 211
f 211 170 210
f 212 170 211
f 211 260 212
f 217 255 216
f 216 173 217
f 216 255 209
f 209 173 216
f 418 380 419
f 419 452 418
f 451 452 419
f 419 416 451
f 346 310 302
f 383 382 346
f 346 382 354
f 354 310 346
f 462 461 453
f 452 461 462
f 452 462 455
f 455 453 421
f 455 462 453
f 329 371 372
f 416 329 372
f 413 415 372
f 415 416 372
f 201 243 244
f 244 245 201
f 243 245 244
f 201 156 200
f 200 198 201
f 156 198 200
f 239 199 196
f 239 240 199
f 441 409 440
f 442 409 441
f 443 409 442
f 442 444 443
f 323 366 324
f 324 366 367
f 324 326 273
f 324 367 368
f 368 326 324
f 324 272 323
f 324 273 272
f 368 370 327
f 327 326 368
f 327 371 328
f 370 371 327
f 327 275 274
f 274 273 327
f 273 326 327
f 328 276 327
f 327 276 275
f 445 444 446
f 445 446 413
f 413 411 445
f 223 273 224
f 224 273 274
f 224 180 223
f 225 180 224
f 274 275 224
f 275 225 224
f 181 188 223
f 223 180 181
f 180 182 133
f 133 92 91
f 279 227 278
f 278 227 225
f 277 279 278
f 278 225 277
f 231 272 223
f 231 230 272
f 223 188 231
f 188 230 231
f 283 229 282
f 283 230 229
f 272 230 283
f 283 325 272
f 282 332 283
f 332 325 283
f 249 247 298
f 298 250 249
f 251 250 298
f 229 187 228
f 282 229 228
f 228 207 251
f 228 187 207
f 207 187 185
f 185 184 207
f 163 204 207
f 207 184 163
f 163 206 205
f 205 204 163
f 162 161 163
f 163 161 206
f 164 120 163
f 163 120 162
f 163 138 164
f 163 184 138
f 141 104 140
f 142 104 141
f 141 185 142
f 140 184 141
f 184 185 141
f 105 104 142
f 105 142 143
f 106 64 105
f 64 104 105
f 247 248 203
f 203 241 247
f 203 248 204
f 204 197 203
f 203 197 157
f 281 332 282
f 281 331 332
f 282 228 281
f 94 59 58
f 90 89 94
f 94 58 90
f 177 129 176
f 177 178 129
f 177 176 189
f 189 178 177
f 135 136 97
f 179 136 135
f 97 131 135
f 131 179 135
f 220 271 221
f 176 220 221
f 221 222 176
f 232 190 189
f 189 222 232
f 233 190 232
f 232 271 233
f 222 221 232
f 232 221 271
f 312 355 313
f 313 262 312
f 313 267 262
f 313 318 267
f 319 318 360
f 396 358 360
f 360 358 319
f 399 396 360
f 360 398 399
f 423 454 456
f 423 422 454
f 383 422 423
f 423 424 383
f 456 424 423
f 336 289 335
f 335 362 336
f 403 375 404
f 404 362 403
f 334 362 335
f 333 362 334
f 335 285 334
f 334 285 333
f 284 285 233
f 333 285 284
f 284 322 333
f 233 271 284
f 271 322 284
f 363 362 333
f 333 322 363
f 436 417 437
f 417 402 437
f 401 436 437
f 437 402 401
f 401 402 361
f 361 402 362
f 361 400 401
f 364 400 361
f 134 93 92
f 92 133 134
f 167 124 134
f 124 93 134
f 134 182 167
f 134 133 182
f 53 51 83
f 83 51 82
f 50 51 31
f 81 51 50
f 31 49 50
f 49 79 50
f 50 80 81
f 50 79 80
f 117 159 160
f 160 119 117
f 160 159 161
f 161 119 160
f 351 349 385
f 351 386 350
f 385 386 351
f 308 351 350
f 349 351 308
f 308 302 301
f 301 257 308
f 379 349 348
f 348 343 379
f 348 349 347
f 348 347 303
f 303 306 348
f 348 306 305
f 305 343 348
f 260 211 261
f 261 211 258
f 261 311 260
f 309 311 261
f 261 258 309
f 345 346 302
f 345 308 350
f 302 308 345
f 425 426 452
f 452 455 425
f 385 426 425
f 425 455 421
f 421 420 425
f 425 386 385
f 425 420 386
f 413 372 414
f 414 372 371
f 414 370 413
f 414 371 370
f 202 157 201
f 201 241 202
f 202 203 157
f 241 203 202
f 331 281 294
f 410 411 368
f 368 409 410
f 409 443 410
f 410 445 411
f 410 443 444
f 444 445 410
f 132 181 180
f 180 133 132
f 132 107 106
f 91 107 132
f 132 133 91
f 143 142 186
f 142 185 186
f 186 187 143
f 186 185 187
f 95 96 59
f 59 94 95
f 95 94 89
f 89 88 95
f 88 96 95
f 318 313 357
f 357 360 318
f 398 360 397
f 394 433 397
f 433 398 397
f 337 336 375
f 289 336 337
f 375 336 374
f 374 336 362
f 374 404 375
f 362 404 374
f 321 364 320
f 364 361 320
f 320 268 321
f 362 363 320
f 320 361 362
f 320 363 322
f 269 268 320
f 320 322 269
f 347 349 307
f 349 308 307
f 307 304 347
f 257 304 307
f 307 308 257
f 383 346 381
f 346 345 381
f 350 383 381
f 381 345 350
f 246 294 298
f 247 241 246
f 246 298 247
f 246 241 201
f 245 294 246
f 201 245 246
f 298 294 299
f 299 294 281
f 251 298 299
f 299 228 251
f 299 281 228
f 143 188 144
f 144 105 143
f 188 181 144
f 181 132 144
f 106 105 144
f 144 132 106
f 356 357 313
f 392 393 356
f 356 393 394
f 391 392 356
f 356 355 391
f 356 313 355
f 394 397 395
f 395 356 394
f 357 356 395
f 360 357 395
f 395 397 360
f 23 12 21
f 23 9 5
f 5 4 23
f 99 69 23
f 23 4 8
f 8 12 23
f 21 37 23
f 37 61 23
f 23 100 99
f 23 16 9
f 23 44 40
f 61 101 23
f 69 44 23
f 23 101 100
f 147 110 146
f 146 110 109
f 236 194 191
f 233 236 191
f 147 146 191
f 191 194 147
f 121 80 120
f 120 165 121
f 369 366 325
f 325 366 323
f 68 70 42
f 108 70 68
f 419 380 373
f 373 416 419
f 83 6 10
f 10 20 83
f 83 139 102
f 83 2 6
f 11 7 83
f 83 3 1
f 1 2 83
f 83 13 11
f 22 15 83
f 15 14 83
f 122 166 83
f 7 3 83
f 83 38 22
f 102 62 83
f 83 166 183
f 183 139 83
f 83 62 38
f 83 14 13
f 83 33 53
f 83 123 122
f 20 33 83
f 82 123 83
f 297 331 294
f 294 245 297
f 378 377 337
f 337 6 5
f 5 9 337
f 10 6 337
f 152 151 337
f 337 432 428
f 337 26 45
f 112 150 337
f 337 456 464
f 238 289 337
f 151 118 337
f 337 73 112
f 337 195 238
f 337 461 460
f 337 412 378
f 45 73 337
f 9 17 337
f 337 433 394
f 337 430 429
f 28 27 337
f 337 18 10
f 290 242 337
f 337 196 152
f 337 48 28
f 464 463 337
f 394 432 337
f 405 439 337
f 150 195 337
f 337 291 290
f 338 295 337
f 460 459 337
f 440 412 337
f 448 447 337
f 17 26 337
f 337 239 196
f 428 387 337
f 337 427 431
f 337 406 405
f 27 18 337
f 375 417 337
f 337 376 338
f 337 118 77
f 77 48 337
f 337 449 448
f 337 463 453
f 337 447 446
f 242 240 337
f 446 444 337
f 439 435 337
f 431 430 337
f 337 441 440
f 436 406 337
f 337 417 436
f 337 295 292
f 337 377 376
f 458 449 337
f 337 459 458
f 453 461 337
f 292 291 337
f 429 457 337
f 337 444 442
f 337 435 433
f 387 427 337
f 337 457 456
f 240 239 337
f 442 441 337
