v 0.085143 0.013901 -0.019142
v 0.085330 0.013896 -0.019142
v 0.086610 0.013307 -0.020361
v 0.086610 0.012902 -0.021240
v 0.085143 0.013328 -0.020361
v 0.083986 0.012872 -0.021182
v 0.084060 0.013832 -0.019142
v 0.086692 0.013862 -0.019142
v 0.085143 0.012906 -0.021249
v 0.087398 0.012863 -0.021174
v 0.086610 0.012493 -0.021976
v 0.085923 0.011361 -0.024032
v 0.085143 0.012506 -0.021984
v 0.084779 0.011348 -0.024010
v 0.083678 0.011718 -0.023197
v 0.083569 0.012523 -0.021734
v 0.083008 0.012820 -0.021079
v 0.083696 0.013806 -0.019142
v 0.086912 0.013802 -0.019142
v 0.087579 0.013044 -0.020361
v 0.087589 0.011610 -0.022997
v 0.087532 0.010060 -0.025755
v 0.086901 0.011322 -0.023974
v 0.086492 0.011679 -0.023407
v 0.086492 0.010969 -0.024617
v 0.086610 0.010164 -0.025908
v 0.085143 0.010168 -0.025908
v 0.085757 0.011361 -0.024032
v 0.085219 0.011692 -0.023430
v 0.085219 0.010986 -0.024617
v 0.083678 0.010784 -0.024759
v 0.083678 0.011305 -0.023932
v 0.082211 0.011627 -0.023036
v 0.074678 0.012609 -0.019142
v 0.082211 0.013629 -0.019142
v 0.082211 0.012299 -0.021829
v 0.072619 0.011365 -0.021110
v 0.070485 0.011218 -0.020818
v 0.067917 0.011408 -0.019731
v 0.067319 0.011610 -0.019142
v 0.087744 0.013319 -0.019142
v 0.088060 0.012092 -0.020361
v 0.087717 0.012092 -0.021726
v 0.087723 0.010357 -0.024759
v 0.087809 0.009204 -0.026235
v 0.087610 0.008743 -0.027395
v 0.087427 0.007034 -0.029981
v 0.086610 0.009660 -0.026643
v 0.085143 0.009677 -0.026643
v 0.083678 0.010108 -0.025816
v 0.082211 0.010594 -0.024759
v 0.082211 0.011210 -0.023768
v 0.067319 0.010202 -0.021851
v 0.072059 0.010960 -0.021693
v 0.069018 0.011115 -0.020616
v 0.067319 0.011094 -0.020186
v 0.067319 0.011150 -0.020075
v 0.067319 0.005579 -0.019142
v 0.088226 0.012092 -0.019142
v 0.088251 0.010624 -0.021829
v 0.088204 0.009161 -0.024759
v 0.088122 0.006224 -0.029160
v 0.087641 0.007348 -0.029160
v 0.087663 0.006155 -0.030528
v 0.087472 0.005622 -0.031499
v 0.086610 0.005045 -0.032334
v 0.086610 0.005712 -0.031602
v 0.086610 0.006444 -0.030780
v 0.086610 0.007090 -0.030048
v 0.086610 0.007779 -0.029160
v 0.086610 0.008381 -0.028369
v 0.086610 0.008928 -0.027636
v 0.085143 0.008945 -0.027648
v 0.083678 0.008885 -0.027575
v 0.083678 0.009617 -0.026549
v 0.082211 0.010009 -0.025669
v 0.074099 0.009901 -0.024040
v 0.067319 0.009931 -0.022325
v 0.067319 0.011042 -0.020286
v 0.074883 0.005828 -0.019142
v 0.067319 -0.030082 -0.039779
v 0.088226 0.010624 -0.019142
v 0.088302 0.010624 -0.020361
v 0.088302 0.009161 -0.023294
v 0.088265 0.007692 -0.026227
v 0.088161 0.004761 -0.030622
v 0.087711 0.004718 -0.032029
v 0.087507 0.004201 -0.032995
v 0.085143 0.005049 -0.032345
v 0.085143 0.005721 -0.031610
v 0.086610 0.004309 -0.033103
v 0.085143 0.006457 -0.030780
v 0.085143 0.007090 -0.030051
v 0.085143 0.007791 -0.029160
v 0.085143 0.008390 -0.028380
v 0.083678 0.008334 -0.028311
v 0.082211 0.008786 -0.027448
v 0.082211 0.009518 -0.026402
v 0.081196 0.009936 -0.025555
v 0.074883 0.008734 -0.025955
v 0.067319 0.008175 -0.025120
v 0.067319 0.008665 -0.024387
v 0.067319 0.009415 -0.023188
v 0.067319 0.009746 -0.022639
v 0.068190 0.009905 -0.022583
v 0.076350 0.006130 -0.019142
v 0.067319 -0.030082 -0.045371
v 0.087495 -0.030082 -0.042979
v 0.086610 0.008795 -0.019142
v 0.087754 0.009363 -0.019142
v 0.087976 -0.030082 -0.043814
v 0.088304 -0.030082 -0.045282
v 0.088304 0.004761 -0.029160
v 0.088306 -0.018690 -0.043814
v 0.088298 0.006224 -0.027692
v 0.088187 0.003297 -0.032090
v 0.087717 0.003241 -0.033508
v 0.086610 0.003551 -0.033836
v 0.087483 0.002716 -0.034421
v 0.085143 0.004317 -0.033109
v 0.083678 0.004248 -0.033042
v 0.083678 0.004980 -0.032271
v 0.083678 0.005656 -0.031535
v 0.083678 0.006388 -0.030708
v 0.083678 0.007034 -0.029978
v 0.083678 0.007675 -0.029160
v 0.082211 0.008235 -0.028180
v 0.082825 0.006978 -0.029915
v 0.079278 0.008571 -0.027154
v 0.078142 0.008485 -0.027040
v 0.077168 0.008411 -0.026940
v 0.067319 0.007370 -0.026274
v 0.067551 -0.030082 -0.045401
v 0.067319 -0.028954 -0.045363
v 0.087400 0.009152 -0.019142
v 0.088193 -0.030082 -0.045612
v 0.088304 -0.027490 -0.045282
v 0.088302 -0.001103 -0.035018
v 0.088302 -0.026022 -0.045282
v 0.088288 -0.024558 -0.045282
v 0.088280 -0.017226 -0.043814
v 0.088304 -0.014295 -0.042349
v 0.088302 -0.005499 -0.037951
v 0.088169 0.001829 -0.033553
v 0.088130 0.000365 -0.035018
v 0.087674 0.001738 -0.034954
v 0.085143 0.003559 -0.033838
v 0.086610 0.002819 -0.034521
v 0.085143 0.002828 -0.034535
v 0.087433 0.001192 -0.035836
v 0.083678 0.003491 -0.033772
v 0.082211 0.004136 -0.032931
v 0.082082 0.004993 -0.031993
v 0.082484 0.005570 -0.031438
v 0.080744 0.008123 -0.028033
v 0.077813 0.005841 -0.030284
v 0.073953 0.005527 -0.029929
v 0.067319 0.005609 -0.028569
v 0.067319 0.006362 -0.027611
v 0.079278 0.007275 -0.028830
v 0.077720 0.007994 -0.027595
v 0.069018 0.007047 -0.027070
v 0.068157 0.006978 -0.026984
v 0.067319 0.007051 -0.026707
v 0.073145 -0.030082 -0.046092
v 0.072597 -0.029389 -0.046026
v 0.082209 -0.028954 -0.047191
v 0.067319 -0.027490 -0.045310
v 0.087824 -0.030082 -0.046706
v 0.087824 -0.028954 -0.046703
v 0.088278 -0.002567 -0.036483
v 0.087824 -0.027490 -0.046669
v 0.087822 -0.026022 -0.046606
v 0.088255 -0.023090 -0.045282
v 0.088183 -0.021622 -0.045282
v 0.088175 -0.015763 -0.043814
v 0.088271 -0.012831 -0.042349
v 0.088288 -0.009895 -0.040884
v 0.088274 -0.006967 -0.039416
v 0.088224 -0.004035 -0.037951
v 0.087834 -0.002537 -0.038012
v 0.087896 -0.000957 -0.036630
v 0.087649 0.000365 -0.036183
v 0.083678 0.002759 -0.034471
v 0.086610 0.002010 -0.035254
v 0.085143 0.002022 -0.035270
v 0.086610 0.001273 -0.035908
v 0.087341 -0.000371 -0.037218
v 0.082211 0.003379 -0.033661
v 0.081295 0.004059 -0.032853
v 0.081507 0.005488 -0.031352
v 0.074883 0.004209 -0.031552
v 0.067319 0.004244 -0.030134
v 0.069018 0.005118 -0.029462
v 0.067319 0.005118 -0.029140
v 0.067319 0.006521 -0.027406
v 0.067319 0.006758 -0.027098
v 0.082209 -0.030082 -0.047202
v 0.082209 -0.027490 -0.047138
v 0.083678 -0.028954 -0.047352
v 0.067319 -0.027258 -0.045293
v 0.067551 -0.026022 -0.045235
v 0.073862 -0.026410 -0.046051
v 0.086525 -0.030082 -0.047441
v 0.086525 -0.029053 -0.047430
v 0.086607 -0.027490 -0.047341
v 0.087805 -0.024558 -0.046536
v 0.087774 -0.023090 -0.046456
v 0.087700 -0.021622 -0.046337
v 0.088045 -0.020158 -0.045282
v 0.087799 -0.017226 -0.045104
v 0.087694 -0.015763 -0.044885
v 0.087789 -0.012831 -0.043656
v 0.088107 -0.011363 -0.042349
v 0.088146 -0.008431 -0.040884
v 0.088074 -0.005499 -0.039416
v 0.087626 -0.001344 -0.037562
v 0.087696 -0.004138 -0.039396
v 0.087557 -0.003006 -0.038894
v 0.083678 0.001949 -0.035206
v 0.082211 0.002642 -0.034363
v 0.085143 0.001291 -0.035917
v 0.086755 0.000240 -0.036758
v 0.086363 -0.000328 -0.037251
v 0.087396 -0.004698 -0.040193
v 0.086610 -0.002825 -0.039025
v 0.080440 0.002487 -0.034213
v 0.073417 0.002629 -0.032887
v 0.071952 0.003964 -0.031288
v 0.067319 0.002208 -0.032251
v 0.067319 0.002840 -0.031635
v 0.067551 0.003594 -0.030886
v 0.067319 0.003572 -0.030864
v 0.083335 -0.030082 -0.047324
v 0.083678 -0.027490 -0.047297
v 0.082209 -0.026022 -0.047039
v 0.083678 -0.026022 -0.047199
v 0.085202 -0.029053 -0.047441
v 0.085730 -0.029608 -0.047488
v 0.083678 -0.030082 -0.047360
v 0.067319 -0.026022 -0.045204
v 0.067319 -0.025790 -0.045179
v 0.067551 -0.024558 -0.045077
v 0.075249 -0.024873 -0.046062
v 0.079280 -0.024558 -0.046525
v 0.082209 -0.024558 -0.046886
v 0.086301 -0.030082 -0.047463
v 0.085981 -0.029608 -0.047488
v 0.085145 -0.026022 -0.047274
v 0.086607 -0.026022 -0.047238
v 0.086607 -0.024558 -0.047111
v 0.087565 -0.020158 -0.046187
v 0.086607 -0.023090 -0.046936
v 0.087524 -0.014566 -0.044697
v 0.087628 -0.011363 -0.043359
v 0.087433 -0.019116 -0.046078
v 0.087776 -0.009933 -0.042410
v 0.087665 -0.008431 -0.041958
v 0.087785 -0.007010 -0.040925
v 0.087591 -0.005499 -0.040418
v 0.083678 0.001213 -0.035847
v 0.082725 0.001140 -0.035786
v 0.082226 0.001708 -0.035201
v 0.073795 0.001161 -0.034343
v 0.085143 0.000408 -0.036649
v 0.084302 -0.000350 -0.037232
v 0.085143 -0.000324 -0.037251
v 0.085143 -0.002804 -0.039036
v 0.085143 -0.002072 -0.038514
v 0.085143 -0.001103 -0.037818
v 0.086610 -0.004629 -0.040234
v 0.086610 -0.003897 -0.039757
v 0.087474 -0.007509 -0.041725
v 0.086969 -0.007010 -0.041525
v 0.086607 -0.007389 -0.041786
v 0.086610 -0.006657 -0.041381
v 0.086610 -0.005499 -0.040734
v 0.067319 0.001471 -0.032959
v 0.085145 -0.027490 -0.047363
v 0.083678 -0.024558 -0.047047
v 0.085145 -0.024558 -0.047141
v 0.085730 -0.029910 -0.047488
v 0.084857 -0.030082 -0.047435
v 0.067319 -0.024558 -0.045046
v 0.067319 -0.023082 -0.044849
v 0.067551 -0.023090 -0.044880
v 0.075682 -0.023895 -0.046006
v 0.082209 -0.023090 -0.046700
v 0.086166 -0.030082 -0.047471
v 0.085981 -0.029910 -0.047488
v 0.085145 -0.023090 -0.046953
v 0.086607 -0.021622 -0.046686
v 0.087150 -0.013588 -0.044538
v 0.087450 -0.010441 -0.043168
v 0.086607 -0.020158 -0.046392
v 0.086607 -0.018888 -0.046131
v 0.086607 -0.018156 -0.045962
v 0.086607 -0.017226 -0.045712
v 0.072817 0.001071 -0.034263
v 0.083327 -0.000432 -0.037168
v 0.082226 0.000481 -0.036253
v 0.067551 -0.000169 -0.034452
v 0.083678 -0.002149 -0.038461
v 0.083760 -0.000996 -0.037634
v 0.085143 -0.003889 -0.039768
v 0.083678 -0.002881 -0.038980
v 0.085143 -0.004625 -0.040240
v 0.085143 -0.005499 -0.040759
v 0.086607 -0.009567 -0.042890
v 0.086607 -0.008431 -0.042327
v 0.085143 -0.006640 -0.041403
v 0.085145 -0.008431 -0.042338
v 0.067319 0.001355 -0.033067
v 0.083678 -0.023090 -0.046861
v 0.085554 -0.030082 -0.047477
v 0.067319 -0.022879 -0.044816
v 0.076658 -0.023473 -0.046067
v 0.078226 -0.022139 -0.046056
v 0.077254 -0.022496 -0.045992
v 0.082209 -0.021622 -0.046459
v 0.083678 -0.021622 -0.046620
v 0.085145 -0.021622 -0.046700
v 0.085145 -0.020158 -0.046420
v 0.086642 -0.014165 -0.044752
v 0.086174 -0.013528 -0.044563
v 0.086642 -0.012956 -0.044319
v 0.086607 -0.011363 -0.043686
v 0.086607 -0.015763 -0.045274
v 0.086607 -0.010299 -0.043231
v 0.085145 -0.018862 -0.046148
v 0.085145 -0.018135 -0.045973
v 0.085145 -0.017226 -0.045734
v 0.085145 -0.015763 -0.045301
v 0.071952 0.000989 -0.034191
v 0.067319 -0.000190 -0.034432
v 0.082211 -0.001271 -0.037632
v 0.082211 -0.000539 -0.037085
v 0.067878 -0.001758 -0.035814
v 0.067319 -0.001357 -0.035398
v 0.082211 -0.002287 -0.038364
v 0.084013 -0.004690 -0.040198
v 0.083586 -0.004134 -0.039793
v 0.082211 -0.003019 -0.038883
v 0.083678 -0.006722 -0.041353
v 0.085145 -0.009546 -0.042904
v 0.083678 -0.007458 -0.041741
v 0.083678 -0.007010 -0.041505
v 0.083678 -0.008431 -0.042244
v 0.067319 0.000524 -0.033816
v 0.067319 -0.021777 -0.044627
v 0.067319 -0.021278 -0.044536
v 0.079925 -0.020834 -0.046026
v 0.082176 -0.020081 -0.046162
v 0.083678 -0.020158 -0.046345
v 0.085484 -0.013528 -0.044563
v 0.085145 -0.011363 -0.043709
v 0.085145 -0.010282 -0.043242
v 0.083678 -0.019056 -0.046109
v 0.083678 -0.017226 -0.045634
v 0.083678 -0.015763 -0.045204
v 0.084506 -0.013571 -0.044547
v 0.085052 -0.014152 -0.044760
v 0.076964 -0.001809 -0.037235
v 0.067319 -0.002291 -0.036119
v 0.073417 -0.002184 -0.036968
v 0.080744 -0.003174 -0.038775
v 0.083586 -0.005365 -0.040556
v 0.083035 -0.004789 -0.040140
v 0.082211 -0.004035 -0.039546
v 0.082211 -0.005615 -0.040526
v 0.082525 -0.007591 -0.041675
v 0.082104 -0.007049 -0.041325
v 0.083678 -0.009666 -0.042851
v 0.082104 -0.008293 -0.041980
v 0.067319 -0.020933 -0.044466
v 0.068190 -0.020834 -0.044561
v 0.081665 -0.019547 -0.045990
v 0.082641 -0.019280 -0.046053
v 0.085052 -0.012956 -0.044333
v 0.083678 -0.011363 -0.043598
v 0.083678 -0.010398 -0.043187
v 0.082209 -0.017226 -0.045465
v 0.082209 -0.015763 -0.045035
v 0.082209 -0.014665 -0.044672
v 0.083678 -0.014419 -0.044755
v 0.083678 -0.012831 -0.044186
v 0.083678 -0.013683 -0.044508
v 0.067455 -0.002429 -0.036239
v 0.067319 -0.003566 -0.037032
v 0.067551 -0.003540 -0.037049
v 0.073755 -0.004681 -0.038742
v 0.072778 -0.004793 -0.038672
v 0.067319 -0.004298 -0.037540
v 0.079278 -0.005960 -0.040315
v 0.077813 -0.008220 -0.041350
v 0.069020 -0.007974 -0.040010
v 0.071165 -0.007690 -0.040157
v 0.071950 -0.007591 -0.040212
v 0.079278 -0.006967 -0.040884
v 0.082634 -0.010536 -0.043123
v 0.082170 -0.009989 -0.042810
v 0.080746 -0.009895 -0.042574
v 0.079280 -0.008754 -0.041825
v 0.075828 -0.009223 -0.041589
v 0.067551 -0.008904 -0.040284
v 0.070600 -0.008353 -0.040423
v 0.067319 -0.020249 -0.044325
v 0.069020 -0.019857 -0.044458
v 0.069996 -0.019569 -0.044519
v 0.070972 -0.019306 -0.044580
v 0.067319 -0.018690 -0.043958
v 0.082170 -0.011251 -0.043367
v 0.082209 -0.012831 -0.044011
v 0.077813 -0.017226 -0.044907
v 0.075908 -0.016637 -0.044511
v 0.076886 -0.016421 -0.044574
v 0.081087 -0.014880 -0.044599
v 0.080656 -0.014351 -0.044366
v 0.082209 -0.013933 -0.044425
v 0.067551 -0.005408 -0.038292
v 0.067319 -0.006166 -0.038725
v 0.067319 -0.005253 -0.038156
v 0.077051 -0.006226 -0.040154
v 0.067319 -0.008220 -0.039902
v 0.067319 -0.007949 -0.039749
v 0.067551 -0.006967 -0.039230
v 0.071950 -0.007010 -0.039879
v 0.081656 -0.010687 -0.043059
v 0.071950 -0.010497 -0.041680
v 0.067319 -0.008934 -0.040268
v 0.067551 -0.009895 -0.040784
v 0.067319 -0.017226 -0.043564
v 0.080746 -0.011565 -0.043309
v 0.078150 -0.011970 -0.043134
v 0.067319 -0.011944 -0.041680
v 0.070175 -0.010764 -0.041561
v 0.072739 -0.013584 -0.043076
v 0.067319 -0.017084 -0.043523
v 0.067319 -0.016081 -0.043223
v 0.080110 -0.015065 -0.044536
v 0.071950 -0.014467 -0.043276
v 0.067319 -0.005452 -0.038281
v 0.067319 -0.006954 -0.039188
v 0.067319 -0.009877 -0.040742
v 0.067551 -0.011173 -0.041383
v 0.070487 -0.012831 -0.042471
v 0.067319 -0.012818 -0.042044
v 0.067319 -0.011225 -0.041372
v 0.067319 -0.015147 -0.042904
v 0.067551 -0.014295 -0.042640
v 0.067319 -0.014295 -0.042610
v 0.067319 -0.015349 -0.042973
v 0.067319 -0.010967 -0.041253
f 81 80 58
f 81 108 109
f 83 112 114
f 10 4 8
f 108 110 135
f 135 109 108
f 106 80 81
f 81 109 106
f 77 102 103
f 34 17 40
f 34 35 17
f 17 35 18
f 42 41 59
f 59 60 42
f 59 83 60
f 42 44 43
f 45 22 44
f 1 4 5
f 183 145 182
f 188 183 217
f 10 8 19
f 3 4 1
f 3 8 4
f 179 178 215
f 114 141 142
f 215 178 177
f 141 176 177
f 177 142 141
f 178 142 177
f 176 213 214
f 215 177 214
f 214 177 176
f 77 103 104
f 254 256 293
f 293 294 254
f 256 254 212
f 212 176 211
f 212 213 176
f 175 176 141
f 141 174 175
f 108 111 82
f 82 110 108
f 83 59 82
f 82 111 112
f 112 83 82
f 21 22 10
f 44 22 21
f 21 43 44
f 10 22 23
f 20 19 41
f 10 19 20
f 20 21 10
f 43 21 20
f 20 41 42
f 42 43 20
f 47 22 46
f 22 45 46
f 1 5 6
f 17 18 6
f 117 145 146
f 145 183 146
f 182 145 181
f 181 183 182
f 181 217 183
f 2 3 1
f 8 3 2
f 327 294 293
f 413 419 437
f 437 419 418
f 143 142 178
f 178 179 143
f 143 138 114
f 114 142 143
f 171 138 143
f 143 179 171
f 307 305 271
f 105 104 78
f 105 78 77
f 77 104 105
f 40 17 39
f 17 38 39
f 33 36 17
f 33 53 54
f 199 168 203
f 203 236 199
f 352 353 320
f 256 212 252
f 211 209 252
f 252 212 211
f 322 323 292
f 288 314 246
f 246 314 280
f 280 314 281
f 281 314 291
f 322 292 291
f 322 291 321
f 321 291 314
f 255 254 294
f 213 212 255
f 255 212 254
f 255 214 213
f 114 112 137
f 137 139 114
f 114 139 140
f 140 141 114
f 140 174 141
f 206 207 173
f 173 207 174
f 174 140 173
f 211 176 210
f 176 175 210
f 210 209 211
f 210 175 209
f 174 207 208
f 208 175 174
f 209 175 208
f 208 207 206
f 206 250 208
f 11 4 10
f 10 23 11
f 26 23 22
f 61 62 45
f 42 60 61
f 61 44 42
f 61 45 44
f 1 6 7
f 7 6 18
f 17 6 16
f 16 33 17
f 9 5 4
f 9 6 5
f 180 181 145
f 216 181 180
f 180 145 171
f 171 179 180
f 215 216 180
f 180 179 215
f 159 128 158
f 160 128 159
f 132 131 163
f 163 131 162
f 101 131 132
f 101 102 77
f 98 131 99
f 77 76 99
f 99 76 98
f 162 131 161
f 160 159 161
f 161 159 162
f 51 32 31
f 31 50 51
f 51 50 76
f 51 76 77
f 158 128 157
f 150 183 188
f 150 146 183
f 117 88 87
f 87 116 117
f 88 65 87
f 91 89 66
f 47 65 66
f 66 88 91
f 66 65 88
f 332 359 360
f 293 256 298
f 298 328 293
f 298 256 297
f 297 332 298
f 293 328 324
f 382 416 383
f 383 359 382
f 360 359 383
f 418 416 439
f 404 374 403
f 447 437 451
f 372 344 371
f 348 374 371
f 373 374 348
f 345 373 348
f 380 413 412
f 400 380 412
f 381 380 400
f 373 381 400
f 371 374 395
f 424 395 406
f 406 395 374
f 300 262 266
f 300 301 262
f 337 301 300
f 266 262 261
f 261 222 266
f 266 222 265
f 265 222 224
f 224 222 187
f 187 150 188
f 339 301 338
f 338 301 337
f 369 391 366
f 393 389 366
f 294 327 329
f 188 217 219
f 219 225 188
f 217 181 219
f 368 369 342
f 308 307 271
f 311 344 308
f 368 342 341
f 341 308 344
f 307 308 341
f 305 307 341
f 341 306 305
f 341 342 306
f 266 265 267
f 267 265 224
f 305 306 268
f 266 269 268
f 268 269 224
f 40 39 57
f 37 53 38
f 54 53 37
f 37 38 17
f 17 36 37
f 36 33 37
f 37 33 54
f 78 53 52
f 53 33 52
f 77 78 52
f 52 33 32
f 52 51 77
f 32 51 52
f 165 166 198
f 167 200 198
f 198 166 167
f 199 200 167
f 166 134 167
f 202 203 168
f 236 203 202
f 246 236 202
f 351 352 320
f 285 243 284
f 249 250 206
f 206 248 249
f 249 248 279
f 297 256 296
f 330 297 296
f 296 323 330
f 256 252 253
f 253 292 256
f 253 252 209
f 281 291 253
f 253 291 292
f 287 288 246
f 354 323 322
f 322 321 354
f 330 323 354
f 354 321 320
f 320 353 354
f 205 248 206
f 239 240 200
f 279 248 239
f 136 137 112
f 169 137 136
f 172 140 139
f 172 173 140
f 206 173 172
f 172 205 206
f 48 22 47
f 48 26 22
f 47 68 69
f 144 145 117
f 117 116 144
f 171 145 144
f 144 138 171
f 144 116 138
f 62 61 85
f 85 61 60
f 32 33 15
f 33 16 15
f 15 16 6
f 32 15 14
f 14 15 6
f 31 32 14
f 132 163 164
f 164 163 197
f 197 163 196
f 162 159 196
f 196 163 162
f 100 101 77
f 131 101 100
f 77 99 100
f 100 99 131
f 155 128 160
f 160 161 155
f 155 161 131
f 98 97 129
f 158 157 195
f 232 229 231
f 193 229 232
f 231 229 190
f 146 150 119
f 117 146 119
f 119 88 117
f 86 87 62
f 116 87 86
f 62 85 86
f 47 46 63
f 63 46 45
f 45 62 63
f 64 65 47
f 64 87 65
f 47 63 64
f 62 87 64
f 64 63 62
f 67 68 47
f 47 66 67
f 359 332 331
f 331 297 330
f 331 332 297
f 409 411 410
f 415 411 432
f 415 416 382
f 378 411 382
f 410 411 378
f 382 359 378
f 378 409 410
f 377 409 378
f 353 377 378
f 378 354 353
f 360 383 384
f 418 419 384
f 384 383 416
f 438 439 416
f 438 415 432
f 416 415 438
f 441 437 418
f 418 439 441
f 448 445 435
f 412 435 436
f 435 445 436
f 401 374 373
f 373 400 401
f 401 400 429
f 385 361 360
f 360 384 385
f 387 419 413
f 361 385 387
f 387 384 419
f 387 385 384
f 333 332 360
f 360 361 333
f 328 298 333
f 333 298 332
f 356 329 327
f 361 380 356
f 356 380 381
f 434 447 435
f 434 435 412
f 413 437 434
f 346 348 371
f 405 430 424
f 424 406 405
f 405 406 374
f 374 404 405
f 405 404 430
f 426 443 421
f 425 443 426
f 304 300 266
f 343 369 366
f 306 342 343
f 343 342 369
f 335 349 334
f 334 299 335
f 188 224 223
f 223 187 188
f 224 187 223
f 186 187 222
f 339 338 364
f 344 372 370
f 372 394 370
f 398 372 371
f 366 391 392
f 392 393 366
f 392 369 368
f 391 369 392
f 394 421 392
f 368 370 392
f 392 370 394
f 294 329 309
f 309 273 294
f 310 273 309
f 345 310 309
f 309 329 345
f 218 181 216
f 218 219 181
f 275 273 310
f 311 276 275
f 275 276 225
f 214 255 257
f 215 214 258
f 214 257 258
f 258 257 255
f 258 255 294
f 294 273 258
f 277 276 311
f 311 308 277
f 277 308 271
f 271 225 277
f 225 276 277
f 224 269 270
f 270 267 224
f 270 269 266
f 266 267 270
f 271 305 272
f 305 268 272
f 272 225 271
f 55 53 79
f 38 53 55
f 55 39 38
f 198 200 234
f 200 240 234
f 107 134 133
f 133 134 166
f 166 165 133
f 241 202 201
f 201 202 168
f 244 202 243
f 353 352 376
f 352 351 376
f 376 377 353
f 242 202 241
f 243 202 242
f 242 284 243
f 237 280 281
f 281 249 237
f 199 236 237
f 256 292 295
f 295 296 256
f 295 292 323
f 323 296 295
f 251 253 209
f 209 208 251
f 251 208 250
f 281 253 251
f 251 249 281
f 250 249 251
f 288 287 317
f 290 289 315
f 169 204 170
f 204 205 170
f 205 172 170
f 170 172 139
f 170 137 169
f 139 137 170
f 240 239 283
f 279 239 238
f 238 239 200
f 47 71 72
f 72 48 47
f 71 73 72
f 73 48 72
f 70 71 47
f 47 69 70
f 92 69 68
f 138 116 113
f 113 83 114
f 114 138 113
f 60 83 84
f 84 85 60
f 83 113 84
f 6 9 13
f 13 14 6
f 13 9 4
f 23 26 25
f 27 50 31
f 31 14 27
f 130 155 131
f 130 131 98
f 98 129 130
f 127 129 97
f 128 155 127
f 155 130 127
f 127 130 129
f 96 74 73
f 96 126 128
f 128 127 96
f 97 74 96
f 96 127 97
f 193 195 194
f 194 157 193
f 194 195 157
f 156 157 128
f 128 154 156
f 128 124 123
f 123 154 128
f 124 92 123
f 233 232 231
f 193 232 233
f 152 190 153
f 148 119 150
f 148 186 149
f 407 411 408
f 411 409 408
f 408 376 407
f 408 409 377
f 377 376 408
f 382 411 414
f 414 415 382
f 411 415 414
f 359 331 358
f 358 378 359
f 358 331 330
f 330 354 358
f 354 378 358
f 440 416 418
f 437 441 449
f 444 445 453
f 445 448 453
f 431 445 444
f 431 436 445
f 429 436 431
f 431 404 429
f 444 430 431
f 430 404 431
f 428 400 412
f 412 436 428
f 429 400 428
f 428 436 429
f 402 404 403
f 403 374 402
f 374 401 402
f 429 404 402
f 402 401 429
f 413 380 386
f 386 387 413
f 386 380 361
f 361 387 386
f 325 324 328
f 328 333 325
f 293 324 325
f 325 356 327
f 345 329 357
f 329 356 357
f 357 356 381
f 357 373 345
f 357 381 373
f 437 447 446
f 446 434 437
f 447 434 446
f 412 413 433
f 433 434 412
f 413 434 433
f 347 344 311
f 311 346 347
f 371 344 347
f 347 346 371
f 345 348 312
f 348 346 312
f 312 346 311
f 312 310 345
f 311 275 312
f 312 275 310
f 337 300 336
f 336 338 337
f 339 335 302
f 302 301 339
f 262 301 302
f 302 299 262
f 302 335 299
f 334 349 313
f 313 299 334
f 313 278 299
f 231 190 230
f 262 299 264
f 299 278 264
f 220 261 262
f 262 221 220
f 222 261 220
f 220 186 222
f 189 190 152
f 120 89 91
f 363 364 338
f 338 336 363
f 367 370 368
f 344 370 367
f 368 341 367
f 367 341 344
f 394 398 423
f 426 421 423
f 423 421 394
f 399 394 372
f 372 398 399
f 399 398 394
f 371 395 396
f 396 395 424
f 424 425 396
f 396 425 426
f 420 421 442
f 420 392 421
f 442 422 420
f 420 422 393
f 393 392 420
f 260 273 225
f 225 219 260
f 219 218 260
f 260 258 273
f 225 273 274
f 274 275 225
f 273 275 274
f 259 216 215
f 215 258 259
f 258 260 259
f 259 218 216
f 259 260 218
f 226 268 224
f 226 272 268
f 226 224 188
f 188 225 226
f 225 272 226
f 56 55 79
f 56 57 39
f 39 55 56
f 245 244 243
f 245 287 246
f 243 287 245
f 246 202 245
f 202 244 245
f 407 376 375
f 375 376 351
f 235 200 199
f 199 237 235
f 279 238 235
f 235 238 200
f 235 249 279
f 235 237 249
f 288 317 286
f 286 319 288
f 286 317 287
f 286 243 285
f 286 287 243
f 282 290 315
f 315 283 282
f 282 283 239
f 289 290 247
f 247 290 248
f 247 205 204
f 248 205 247
f 69 92 93
f 115 113 116
f 116 86 115
f 115 86 85
f 85 84 115
f 115 84 113
f 4 11 12
f 12 13 4
f 23 25 12
f 12 25 26
f 26 27 12
f 26 48 49
f 49 27 26
f 49 48 73
f 73 74 49
f 50 27 49
f 157 156 191
f 191 156 154
f 193 157 191
f 191 229 193
f 154 153 191
f 89 123 90
f 90 123 92
f 90 66 89
f 90 67 66
f 68 67 90
f 90 92 68
f 192 190 229
f 192 153 190
f 229 191 192
f 192 191 153
f 154 123 122
f 122 153 154
f 152 153 122
f 122 123 89
f 119 148 118
f 91 88 118
f 88 119 118
f 118 148 149
f 118 120 91
f 187 186 185
f 186 148 185
f 150 187 185
f 185 148 150
f 417 384 416
f 416 440 417
f 418 384 417
f 417 440 418
f 452 441 439
f 452 449 441
f 450 449 451
f 451 437 450
f 437 449 450
f 355 325 333
f 356 325 355
f 326 327 293
f 293 325 326
f 326 325 327
f 306 343 303
f 303 304 266
f 300 304 303
f 303 336 300
f 266 268 303
f 303 268 306
f 278 230 228
f 228 230 190
f 190 189 228
f 263 221 262
f 262 264 263
f 263 264 221
f 227 264 278
f 221 264 227
f 278 228 227
f 227 189 221
f 227 228 189
f 184 220 221
f 221 189 184
f 184 189 151
f 149 186 184
f 186 220 184
f 151 120 147
f 149 184 147
f 147 184 151
f 147 118 149
f 120 118 147
f 364 363 365
f 340 343 366
f 366 365 340
f 340 365 363
f 340 363 336
f 340 303 343
f 336 303 340
f 427 398 426
f 426 423 427
f 427 423 398
f 397 398 371
f 371 396 397
f 426 398 397
f 397 396 426
f 319 286 318
f 320 288 318
f 288 319 318
f 318 350 351
f 318 351 320
f 128 126 125
f 125 124 128
f 125 92 124
f 125 93 92
f 95 96 73
f 95 73 71
f 71 70 95
f 14 13 29
f 24 11 23
f 23 12 24
f 24 12 11
f 30 27 14
f 50 49 75
f 75 49 74
f 98 76 75
f 76 50 75
f 75 97 98
f 75 74 97
f 89 120 121
f 121 122 89
f 121 120 151
f 152 122 121
f 362 333 361
f 361 355 362
f 362 355 333
f 361 356 379
f 379 355 361
f 356 355 379
f 389 364 388
f 388 365 389
f 364 365 388
f 366 389 390
f 390 365 366
f 389 365 390
f 350 318 316
f 316 286 285
f 316 318 286
f 126 96 94
f 96 95 94
f 94 125 126
f 93 125 94
f 69 93 94
f 94 70 69
f 94 95 70
f 13 12 28
f 28 29 13
f 14 29 28
f 28 30 14
f 28 12 27
f 27 30 28
f 314 288 321
f 321 288 320
f 40 58 7
f 7 135 110
f 7 58 80
f 80 106 7
f 7 2 1
f 110 82 7
f 7 34 40
f 41 19 7
f 109 135 7
f 7 106 109
f 35 34 7
f 7 18 35
f 7 59 41
f 7 19 8
f 7 82 59
f 8 2 7
f 167 134 168
f 167 168 199
f 246 280 237
f 237 236 246
f 248 290 282
f 282 239 248
f 81 107 247
f 247 108 81
f 315 289 247
f 247 111 108
f 112 111 247
f 107 133 247
f 198 234 247
f 247 204 169
f 247 136 112
f 247 165 198
f 247 283 315
f 169 136 247
f 247 234 240
f 247 133 165
f 240 283 247
f 151 189 121
f 121 189 152
f 316 107 81
f 316 134 107
f 102 101 316
f 316 58 40
f 81 58 316
f 231 230 316
f 316 103 102
f 78 104 316
f 316 438 432
f 316 159 158
f 316 53 78
f 316 430 444
f 197 196 316
f 40 57 316
f 451 449 316
f 316 411 407
f 316 233 231
f 316 447 451
f 316 104 103
f 316 313 349
f 339 364 316
f 316 56 79
f 241 201 316
f 316 452 439
f 424 430 316
f 316 425 424
f 79 53 316
f 132 164 316
f 316 101 132
f 432 411 316
f 158 195 316
f 435 447 316
f 442 421 316
f 316 335 339
f 389 393 316
f 316 422 442
f 168 134 316
f 316 242 241
f 285 284 316
f 316 164 197
f 316 196 159
f 316 195 193
f 439 438 316
f 316 448 435
f 316 421 443
f 443 425 316
f 349 335 316
f 444 453 316
f 316 364 389
f 316 201 168
f 284 242 316
f 351 350 316
f 193 233 316
f 407 375 316
f 316 453 448
f 278 313 316
f 316 230 278
f 393 422 316
f 57 56 316
f 316 375 351
f 449 452 316
