v 0.037336 -0.062778 0.022283
v 0.037336 -0.062276 0.023491
v 0.037336 -0.062706 0.021505
v 0.038627 -0.063574 0.021188
v 0.038627 -0.063574 0.021876
v 0.038174 -0.063203 0.022283
v 0.038999 -0.063393 0.022854
v 0.037336 -0.062027 0.024011
v 0.037336 -0.062529 0.020900
v 0.054924 -0.069562 0.018408
v 0.041583 -0.065026 0.021203
v 0.041583 -0.065026 0.021816
v 0.037501 -0.061941 0.024356
v 0.041993 -0.064831 0.022795
v 0.039975 -0.063628 0.023324
v 0.037336 -0.061914 0.024246
v 0.054924 -0.069485 0.018360
v 0.037336 -0.061846 0.020535
v 0.066830 -0.071218 0.021737
v 0.054924 -0.069996 0.019361
v 0.044661 -0.066410 0.021310
v 0.044661 -0.066410 0.021624
v 0.042542 -0.065279 0.022249
v 0.040495 -0.063379 0.024303
v 0.038087 -0.061778 0.025216
v 0.037336 -0.061457 0.025145
v 0.044141 -0.065998 0.022133
v 0.045126 -0.066224 0.022603
v 0.042972 -0.065039 0.023202
v 0.042542 -0.064610 0.023666
v 0.041058 -0.063927 0.023740
v 0.054924 -0.068540 0.018221
v 0.037336 -0.061209 0.020295
v 0.066830 -0.071037 0.022108
v 0.064616 -0.070915 0.021765
v 0.064408 -0.070901 0.021737
v 0.054924 -0.069924 0.020696
v 0.066830 -0.065537 0.021737
v 0.054350 -0.069739 0.020696
v 0.048913 -0.067902 0.021689
v 0.048913 -0.067902 0.021265
v 0.047025 -0.067097 0.022161
v 0.045593 -0.066591 0.022133
v 0.041474 -0.063601 0.024682
v 0.039017 -0.061919 0.025785
v 0.037336 -0.060801 0.026367
v 0.046104 -0.066414 0.023030
v 0.044098 -0.065256 0.023666
v 0.043610 -0.064773 0.024181
v 0.054924 -0.066948 0.018303
v 0.066799 -0.046080 0.021737
v 0.066804 -0.049065 0.021737
v 0.037336 -0.060318 0.020210
v 0.066830 -0.070779 0.022591
v 0.063149 -0.070729 0.021737
v 0.062015 -0.070571 0.021737
v 0.057251 -0.069892 0.021737
v 0.055819 -0.069680 0.021737
v 0.054350 -0.069440 0.021737
v 0.053391 -0.069341 0.021559
v 0.066804 -0.030548 0.031428
v 0.066830 -0.030548 0.042394
v 0.050005 -0.068052 0.022170
v 0.049549 -0.067708 0.022665
v 0.048452 -0.067559 0.022170
v 0.042161 -0.063307 0.025657
v 0.037336 -0.059083 0.029408
v 0.037336 -0.059852 0.028093
v 0.037336 -0.060390 0.027123
v 0.047025 -0.066157 0.024037
v 0.045562 -0.065166 0.024832
v 0.045593 -0.065917 0.023562
v 0.047025 -0.066573 0.023307
v 0.044589 -0.064972 0.024518
v 0.037336 -0.059743 0.020261
v 0.054921 -0.046080 0.021737
v 0.037336 -0.025012 0.034785
v 0.066830 -0.070250 0.023573
v 0.057274 -0.069617 0.022275
v 0.055819 -0.069562 0.021963
v 0.054924 -0.069494 0.021825
v 0.054350 -0.069029 0.022470
v 0.052883 -0.068151 0.023479
v 0.051425 -0.067979 0.023191
v 0.050524 -0.067857 0.022985
v 0.054924 -0.025012 0.040552
v 0.066830 -0.030548 0.047117
v 0.037336 -0.058825 0.029818
v 0.046335 -0.064863 0.025807
v 0.042631 -0.061982 0.028093
v 0.047897 -0.066297 0.024286
v 0.037336 -0.058721 0.020631
v 0.041329 -0.046654 0.022888
v 0.042744 -0.045270 0.022888
v 0.044095 -0.044705 0.022888
v 0.045562 -0.044433 0.022888
v 0.037336 -0.025012 0.039673
v 0.066830 -0.069544 0.024792
v 0.063582 -0.069313 0.024430
v 0.062601 -0.069241 0.024311
v 0.056784 -0.069237 0.022837
v 0.055819 -0.069155 0.022699
v 0.054921 -0.069078 0.022560
v 0.054924 -0.068870 0.022922
v 0.054231 -0.068251 0.023762
v 0.052883 -0.067721 0.024212
v 0.051425 -0.067550 0.023924
v 0.049959 -0.066613 0.024783
v 0.050005 -0.067378 0.023533
v 0.054924 -0.025012 0.045267
v 0.059050 -0.030548 0.046167
v 0.060825 -0.031457 0.046362
v 0.066830 -0.031896 0.047075
v 0.054924 -0.026930 0.045443
v 0.054924 -0.027495 0.045494
v 0.037842 -0.058884 0.030030
v 0.037336 -0.058056 0.030933
v 0.042631 -0.061751 0.028455
v 0.043460 -0.061910 0.028709
v 0.048873 -0.066446 0.024529
v 0.047311 -0.065008 0.026036
v 0.046904 -0.064555 0.026537
v 0.045879 -0.063569 0.027513
v 0.043347 -0.025247 0.041955
v 0.043111 -0.025012 0.041842
v 0.037336 -0.026034 0.039732
v 0.043264 -0.026034 0.041989
v 0.066830 -0.069074 0.025524
v 0.057283 -0.068119 0.024846
v 0.057274 -0.068920 0.023522
v 0.055819 -0.068621 0.023629
v 0.054641 -0.067893 0.024489
v 0.053663 -0.067794 0.024345
v 0.052883 -0.067147 0.025092
v 0.051913 -0.066401 0.025920
v 0.051422 -0.066758 0.025182
v 0.050934 -0.066279 0.025731
v 0.049959 -0.066134 0.025516
v 0.054350 -0.025012 0.045160
v 0.054350 -0.026034 0.045256
v 0.057283 -0.030548 0.045949
v 0.057283 -0.031896 0.045904
v 0.058752 -0.031896 0.046085
v 0.061030 -0.032439 0.046336
v 0.066830 -0.033366 0.046995
v 0.054350 -0.027495 0.045389
v 0.054350 -0.028965 0.045468
v 0.054924 -0.028391 0.045539
v 0.038815 -0.059065 0.030302
v 0.037336 -0.057631 0.031521
v 0.042106 -0.060408 0.030132
v 0.045564 -0.062262 0.029185
v 0.048492 -0.064705 0.027035
v 0.047025 -0.063755 0.027770
v 0.046546 -0.063370 0.028093
v 0.043627 -0.025012 0.042029
v 0.044095 -0.026034 0.042295
v 0.045562 -0.026034 0.042821
v 0.043162 -0.027495 0.042026
v 0.037336 -0.028965 0.039865
v 0.044095 -0.027495 0.042377
v 0.066830 -0.068323 0.026613
v 0.057283 -0.066414 0.027400
v 0.057283 -0.066984 0.026560
v 0.060470 -0.067898 0.025892
v 0.057283 -0.067432 0.025892
v 0.055819 -0.067997 0.024662
v 0.055909 -0.066704 0.026639
v 0.054924 -0.066668 0.026413
v 0.054350 -0.066645 0.026283
v 0.052883 -0.066500 0.026070
v 0.052883 -0.066007 0.026800
v 0.051422 -0.065908 0.026466
v 0.050351 -0.064972 0.027420
v 0.049372 -0.064831 0.027230
v 0.053296 -0.025012 0.044950
v 0.052745 -0.027373 0.045058
v 0.055816 -0.030548 0.045734
v 0.054924 -0.028965 0.045567
v 0.055816 -0.031896 0.045689
v 0.057283 -0.033366 0.045805
v 0.058752 -0.033366 0.045989
v 0.062304 -0.034243 0.046362
v 0.064616 -0.034831 0.046588
v 0.066830 -0.034085 0.046928
v 0.052883 -0.028965 0.045182
v 0.052883 -0.030435 0.045197
v 0.054350 -0.030435 0.045477
v 0.054924 -0.029856 0.045576
v 0.037478 -0.057554 0.031696
v 0.037336 -0.057355 0.031863
v 0.045564 -0.061701 0.029917
v 0.043082 -0.060566 0.030339
v 0.047025 -0.063226 0.028506
v 0.046589 -0.061864 0.030126
v 0.047025 -0.063524 0.028093
v 0.045562 -0.025012 0.042705
v 0.045562 -0.027495 0.042914
v 0.046633 -0.027495 0.043299
v 0.046794 -0.026034 0.043245
v 0.047366 -0.027495 0.043553
v 0.037336 -0.030381 0.039902
v 0.043111 -0.028965 0.042043
v 0.044095 -0.028965 0.042411
v 0.066830 -0.067342 0.027999
v 0.057283 -0.065858 0.028130
v 0.056463 -0.066351 0.027312
v 0.066830 -0.066573 0.029063
v 0.055487 -0.066261 0.027179
v 0.054921 -0.066206 0.027100
v 0.054350 -0.066152 0.027015
v 0.052883 -0.065270 0.027818
v 0.051425 -0.065112 0.027603
v 0.051422 -0.064555 0.028339
v 0.048928 -0.063488 0.028865
v 0.047952 -0.063357 0.028687
v 0.052563 -0.025012 0.044792
v 0.052164 -0.026803 0.044877
v 0.051991 -0.027780 0.044925
v 0.055701 -0.030548 0.045714
v 0.054924 -0.031896 0.045533
v 0.054350 -0.033366 0.045341
v 0.054924 -0.033366 0.045440
v 0.055816 -0.033366 0.045590
v 0.057283 -0.034831 0.045686
v 0.060219 -0.034831 0.046048
v 0.062696 -0.035225 0.046314
v 0.066830 -0.034831 0.046857
v 0.051890 -0.028965 0.044956
v 0.051873 -0.030435 0.044965
v 0.051925 -0.031896 0.044948
v 0.052883 -0.031896 0.045157
v 0.054924 -0.030435 0.045578
v 0.054350 -0.031896 0.045431
v 0.042608 -0.059951 0.030882
v 0.038229 -0.057681 0.031840
v 0.038229 -0.057025 0.032573
v 0.037336 -0.056134 0.033221
v 0.044095 -0.060729 0.030539
v 0.044095 -0.060114 0.031269
v 0.046327 -0.060467 0.031682
v 0.045564 -0.060964 0.030811
v 0.049959 -0.063628 0.029040
v 0.049959 -0.063031 0.029776
v 0.047568 -0.061991 0.030282
v 0.047686 -0.025075 0.043443
v 0.047617 -0.025012 0.043412
v 0.045562 -0.028965 0.042945
v 0.046581 -0.028965 0.043313
v 0.047314 -0.028965 0.043570
v 0.047528 -0.026034 0.043494
v 0.048492 -0.027495 0.043915
v 0.048492 -0.028965 0.043955
v 0.042337 -0.030435 0.041785
v 0.037336 -0.031928 0.039890
v 0.043059 -0.031896 0.042063
v 0.043070 -0.030435 0.042057
v 0.044095 -0.030435 0.042436
v 0.066830 -0.066012 0.029798
v 0.057283 -0.065130 0.029077
v 0.055819 -0.065003 0.028927
v 0.055909 -0.065813 0.027892
v 0.054921 -0.065474 0.028093
v 0.054601 -0.065410 0.028093
v 0.052880 -0.065067 0.028093
v 0.052880 -0.064718 0.028557
v 0.051422 -0.063823 0.029269
v 0.051422 -0.025012 0.044495
v 0.051471 -0.027373 0.044747
v 0.050975 -0.025012 0.044376
v 0.049956 -0.026034 0.044204
v 0.049956 -0.027495 0.044342
v 0.052883 -0.033366 0.045072
v 0.052141 -0.034117 0.044883
v 0.054350 -0.034831 0.045211
v 0.055816 -0.034831 0.045468
v 0.057283 -0.036297 0.045513
v 0.063672 -0.035749 0.046370
v 0.066830 -0.036297 0.046684
v 0.051157 -0.028965 0.044750
v 0.051139 -0.030435 0.044750
v 0.049956 -0.031896 0.044382
v 0.049956 -0.028965 0.044402
v 0.049956 -0.033366 0.044320
v 0.051324 -0.033366 0.044704
v 0.052057 -0.033366 0.044908
v 0.041884 -0.059015 0.031696
v 0.042631 -0.059146 0.031829
v 0.044095 -0.059381 0.032078
v 0.040804 -0.057427 0.033028
v 0.041780 -0.057581 0.033187
v 0.038229 -0.056288 0.033351
v 0.038229 -0.055695 0.033885
v 0.037481 -0.054619 0.034629
v 0.037336 -0.054782 0.034434
v 0.045564 -0.060345 0.031543
v 0.051422 -0.063217 0.030002
v 0.051422 -0.062479 0.030828
v 0.051422 -0.061824 0.031558
v 0.049959 -0.060910 0.032143
v 0.048489 -0.060001 0.032692
v 0.046812 -0.059797 0.032477
v 0.046321 -0.059001 0.033147
v 0.045564 -0.059616 0.032307
v 0.048492 -0.026034 0.043791
v 0.048428 -0.025012 0.043661
v 0.047698 -0.025012 0.043437
v 0.045562 -0.030435 0.042965
v 0.046578 -0.030435 0.043318
v 0.047311 -0.030435 0.043567
v 0.048492 -0.030435 0.043949
v 0.037336 -0.032864 0.039873
v 0.037336 -0.034257 0.039848
v 0.037336 -0.034831 0.039837
v 0.042400 -0.033366 0.041766
v 0.044095 -0.031896 0.042444
v 0.066830 -0.065279 0.030720
v 0.062125 -0.064917 0.030276
v 0.057283 -0.064533 0.029810
v 0.055819 -0.064402 0.029660
v 0.054921 -0.064886 0.028865
v 0.054867 -0.064917 0.028811
v 0.052941 -0.063886 0.029592
v 0.052490 -0.063339 0.030146
v 0.049956 -0.025012 0.044096
v 0.048492 -0.034831 0.043746
v 0.049956 -0.034831 0.044173
v 0.051567 -0.034695 0.044651
v 0.051422 -0.036297 0.044413
v 0.052433 -0.035098 0.044829
v 0.052906 -0.034695 0.044962
v 0.053411 -0.035840 0.044919
v 0.055816 -0.036297 0.045290
v 0.059050 -0.036297 0.045731
v 0.055744 -0.037830 0.045041
v 0.057283 -0.037762 0.045284
v 0.066215 -0.037690 0.046410
v 0.065191 -0.037151 0.046365
v 0.064215 -0.036726 0.046305
v 0.066830 -0.037721 0.046478
v 0.049956 -0.030435 0.044396
v 0.048492 -0.031896 0.043941
v 0.048492 -0.033366 0.043887
v 0.042631 -0.057712 0.033303
v 0.042553 -0.057038 0.033888
v 0.042322 -0.056971 0.033885
v 0.040206 -0.056319 0.033885
v 0.045564 -0.058884 0.033037
v 0.039701 -0.055695 0.034298
v 0.041967 -0.056052 0.034604
v 0.042940 -0.056202 0.034728
v 0.039701 -0.054967 0.034904
v 0.043422 -0.054592 0.036075
v 0.041168 -0.054212 0.035814
v 0.038231 -0.053877 0.035351
v 0.037336 -0.053904 0.035105
v 0.037336 -0.054447 0.034714
v 0.052254 -0.061919 0.031665
v 0.051422 -0.061091 0.032310
v 0.049959 -0.060177 0.032873
v 0.046930 -0.058300 0.033908
v 0.046563 -0.057473 0.034561
v 0.045781 -0.058006 0.033888
v 0.051422 -0.060354 0.033043
v 0.047300 -0.059123 0.033255
v 0.049508 -0.025012 0.043969
v 0.045562 -0.031896 0.042965
v 0.046586 -0.031896 0.043316
v 0.047320 -0.031896 0.043565
v 0.037336 -0.036297 0.039777
v 0.043134 -0.033366 0.042034
v 0.044095 -0.033366 0.042382
v 0.066830 -0.064696 0.031428
v 0.057283 -0.063796 0.030664
v 0.055819 -0.063669 0.030520
v 0.053466 -0.063438 0.030257
v 0.047591 -0.034831 0.043471
v 0.047736 -0.035627 0.043423
v 0.047941 -0.036604 0.043364
v 0.048189 -0.037762 0.043290
v 0.048919 -0.037762 0.043502
v 0.049127 -0.038635 0.043446
v 0.051422 -0.037762 0.044198
v 0.052906 -0.036319 0.044764
v 0.053772 -0.036821 0.044854
v 0.054924 -0.036310 0.045129
v 0.054754 -0.037387 0.044942
v 0.054924 -0.038196 0.044837
v 0.055210 -0.038364 0.044857
v 0.056186 -0.038775 0.044945
v 0.066793 -0.038504 0.046351
v 0.066830 -0.038513 0.046351
v 0.047392 -0.033366 0.043539
v 0.045562 -0.057323 0.034434
v 0.044095 -0.056374 0.034875
v 0.045562 -0.055663 0.035786
v 0.044401 -0.054741 0.036188
v 0.042628 -0.053723 0.036476
v 0.041168 -0.053479 0.036315
v 0.039031 -0.053117 0.036075
v 0.038231 -0.052972 0.035981
v 0.037336 -0.052805 0.035874
v 0.055816 -0.062850 0.031430
v 0.053232 -0.062018 0.031773
v 0.052262 -0.060453 0.033133
v 0.047542 -0.057595 0.034669
v 0.047043 -0.056916 0.035122
v 0.045562 -0.056595 0.035051
v 0.045562 -0.033366 0.042903
v 0.046659 -0.033366 0.043290
v 0.037336 -0.037762 0.039653
v 0.041168 -0.036297 0.041126
v 0.066830 -0.064668 0.031459
v 0.057577 -0.063167 0.031430
v 0.057283 -0.063144 0.031399
v 0.046858 -0.034831 0.043231
v 0.045562 -0.036297 0.042642
v 0.047158 -0.036188 0.043171
v 0.047025 -0.037762 0.042934
v 0.047025 -0.039227 0.042705
v 0.048579 -0.039164 0.043183
v 0.049488 -0.039612 0.043341
v 0.049970 -0.039164 0.043562
v 0.051422 -0.039227 0.043932
v 0.052883 -0.037762 0.044538
v 0.052883 -0.039227 0.044260
v 0.054924 -0.038653 0.044750
v 0.057372 -0.039250 0.044999
v 0.054350 -0.039227 0.044526
v 0.054924 -0.039241 0.044622
v 0.054924 -0.040100 0.044427
v 0.055816 -0.040697 0.044436
v 0.056945 -0.039752 0.044832
v 0.057921 -0.040010 0.044894
v 0.066830 -0.039250 0.046181
v 0.047025 -0.055876 0.035945
v 0.045562 -0.054926 0.036315
v 0.048492 -0.053547 0.037797
v 0.041168 -0.052412 0.036963
v 0.048492 -0.054279 0.037342
v 0.037336 -0.052072 0.036318
v 0.055816 -0.062276 0.032038
v 0.054924 -0.062185 0.031951
v 0.054924 -0.061444 0.032681
v 0.055816 -0.061530 0.032768
v 0.054350 -0.060657 0.033323
v 0.054924 -0.060399 0.033665
v 0.055816 -0.059273 0.034861
v 0.054350 -0.059114 0.034720
v 0.048492 -0.057703 0.034768
v 0.049956 -0.056989 0.035648
v 0.048492 -0.056699 0.035591
v 0.048007 -0.056012 0.036041
v 0.045562 -0.034831 0.042787
v 0.037336 -0.040046 0.039449
v 0.044187 -0.036297 0.042176
v 0.066830 -0.063931 0.032273
v 0.059050 -0.063289 0.031566
v 0.066830 -0.063257 0.033003
v 0.057283 -0.062412 0.032169
v 0.042628 -0.037762 0.041491
v 0.037336 -0.040679 0.039384
v 0.044413 -0.037762 0.042091
v 0.045562 -0.037762 0.042467
v 0.037336 -0.042163 0.039195
v 0.037336 -0.043099 0.039025
v 0.037336 -0.045994 0.038490
v 0.037336 -0.046550 0.038380
v 0.047025 -0.040697 0.042413
v 0.048492 -0.040697 0.042832
v 0.050470 -0.040200 0.043477
v 0.051422 -0.040693 0.043607
v 0.052883 -0.040697 0.043932
v 0.054350 -0.040697 0.044190
v 0.057372 -0.040580 0.044685
v 0.055816 -0.042163 0.044060
v 0.057283 -0.042163 0.044274
v 0.058752 -0.040222 0.044945
v 0.066080 -0.040693 0.045737
v 0.066830 -0.040693 0.045827
v 0.050672 -0.054614 0.037557
v 0.047025 -0.055143 0.036465
v 0.049696 -0.054465 0.037461
v 0.052883 -0.052995 0.038931
v 0.049956 -0.052529 0.038666
v 0.049217 -0.051679 0.039022
v 0.041168 -0.051498 0.037469
v 0.037336 -0.050901 0.036935
v 0.057283 -0.061661 0.032901
v 0.055816 -0.060792 0.033456
v 0.054921 -0.060711 0.033374
v 0.057283 -0.060141 0.034313
v 0.057283 -0.059404 0.034991
v 0.061186 -0.058961 0.036049
v 0.059050 -0.058748 0.035871
v 0.057283 -0.058567 0.035724
v 0.055816 -0.058409 0.035597
v 0.049956 -0.057875 0.034912
v 0.051422 -0.057161 0.035789
v 0.048980 -0.056134 0.036134
v 0.066830 -0.063592 0.032644
v 0.066830 -0.062520 0.033696
v 0.059050 -0.061701 0.033161
v 0.037336 -0.041855 0.039234
v 0.037336 -0.047441 0.038176
v 0.048492 -0.042163 0.042478
v 0.051910 -0.041683 0.043482
v 0.052505 -0.042656 0.043352
v 0.052947 -0.042167 0.043562
v 0.054350 -0.042163 0.043811
v 0.054924 -0.042163 0.043910
v 0.058752 -0.042163 0.044461
v 0.062800 -0.042701 0.044832
v 0.053481 -0.042968 0.043440
v 0.054350 -0.043203 0.043516
v 0.055845 -0.043687 0.043613
v 0.057283 -0.043624 0.043845
v 0.063770 -0.042932 0.044894
v 0.066830 -0.042158 0.045465
v 0.051422 -0.055442 0.037090
v 0.051422 -0.054709 0.037625
v 0.053720 -0.053113 0.039002
v 0.052883 -0.052258 0.039359
v 0.052938 -0.050824 0.040136
v 0.051422 -0.050942 0.039803
v 0.052485 -0.050100 0.040431
v 0.051422 -0.049901 0.040332
v 0.049849 -0.049440 0.040241
v 0.050267 -0.048929 0.040572
v 0.038881 -0.050250 0.037574
v 0.037336 -0.049847 0.037413
v 0.059050 -0.061118 0.033704
v 0.059050 -0.059567 0.035138
v 0.066830 -0.058581 0.037220
v 0.061677 -0.058391 0.036567
v 0.057283 -0.057834 0.036315
v 0.066080 -0.060141 0.035781
v 0.062162 -0.059051 0.036128
v 0.055816 -0.057676 0.036191
v 0.054944 -0.057572 0.036114
v 0.052883 -0.057332 0.035925
v 0.049956 -0.056251 0.036225
v 0.066830 -0.060209 0.035843
v 0.037336 -0.048015 0.038032
v 0.047559 -0.043081 0.042003
v 0.048148 -0.044058 0.041865
v 0.037336 -0.048590 0.037865
v 0.051422 -0.043624 0.042801
v 0.051307 -0.045211 0.042255
v 0.052947 -0.043520 0.043163
v 0.054350 -0.043936 0.043276
v 0.054924 -0.044089 0.043327
v 0.055378 -0.044207 0.043367
v 0.056356 -0.044451 0.043446
v 0.058752 -0.043624 0.044034
v 0.057283 -0.044641 0.043511
v 0.066830 -0.044288 0.044860
v 0.066830 -0.042769 0.045298
v 0.066830 -0.043587 0.045072
v 0.055816 -0.055980 0.037486
v 0.055816 -0.054121 0.038702
v 0.055816 -0.053384 0.039175
v 0.054696 -0.053244 0.039084
v 0.056564 -0.056071 0.037554
v 0.052883 -0.054886 0.037744
v 0.054924 -0.053081 0.039220
v 0.054263 -0.052534 0.039426
v 0.055816 -0.052412 0.039749
v 0.055816 -0.051376 0.040326
v 0.054350 -0.051136 0.040210
v 0.055816 -0.049476 0.041290
v 0.052938 -0.049558 0.040773
v 0.051422 -0.049169 0.040688
v 0.055816 -0.050634 0.040705
v 0.051422 -0.048015 0.041203
v 0.049289 -0.048703 0.040467
v 0.049849 -0.048137 0.040821
v 0.051720 -0.046066 0.042051
v 0.037336 -0.049160 0.037673
v 0.066830 -0.059024 0.036861
v 0.066830 -0.057843 0.037780
v 0.064616 -0.057622 0.037613
v 0.066830 -0.059476 0.036490
v 0.055816 -0.056808 0.036858
v 0.054924 -0.056871 0.036649
v 0.050741 -0.045781 0.041938
v 0.052883 -0.045085 0.042631
v 0.054924 -0.044596 0.043157
v 0.055845 -0.044994 0.043174
v 0.057283 -0.045369 0.043259
v 0.059541 -0.045799 0.043406
v 0.066830 -0.045053 0.044605
v 0.057283 -0.053556 0.039285
v 0.059050 -0.054365 0.039028
v 0.063813 -0.053162 0.040490
v 0.062838 -0.053036 0.040422
v 0.065759 -0.055989 0.038960
v 0.064616 -0.055130 0.039350
v 0.066830 -0.057332 0.038154
v 0.066830 -0.056785 0.038550
v 0.057419 -0.052267 0.040071
v 0.057023 -0.051548 0.040416
v 0.057419 -0.051018 0.040753
v 0.057404 -0.049336 0.041593
v 0.056994 -0.048599 0.041890
v 0.055816 -0.048395 0.041800
v 0.052883 -0.048015 0.041474
v 0.052883 -0.047084 0.041867
v 0.052883 -0.046351 0.042164
v 0.054350 -0.045085 0.042889
v 0.054924 -0.045048 0.042999
v 0.055816 -0.046550 0.042580
v 0.057283 -0.046550 0.042798
v 0.059050 -0.046269 0.043149
v 0.063975 -0.047251 0.043400
v 0.061683 -0.046152 0.043545
v 0.066830 -0.046550 0.044057
v 0.066830 -0.054239 0.040250
v 0.066830 -0.052412 0.041319
v 0.059050 -0.051815 0.040558
v 0.064616 -0.053253 0.040549
v 0.057999 -0.051679 0.040484
v 0.066830 -0.056102 0.039036
v 0.066830 -0.056007 0.039098
v 0.066830 -0.054913 0.039814
v 0.066830 -0.051448 0.041831
v 0.063600 -0.050290 0.041986
v 0.059050 -0.049644 0.041675
v 0.057973 -0.048757 0.041955
v 0.057404 -0.048074 0.042170
v 0.055816 -0.047663 0.042111
v 0.054924 -0.047251 0.042145
v 0.054924 -0.047839 0.041893
v 0.054246 -0.047966 0.041726
v 0.054246 -0.046677 0.042266
v 0.059050 -0.048015 0.042416
v 0.063149 -0.048015 0.042965
v 0.066830 -0.047699 0.043590
v 0.066830 -0.053506 0.040702
v 0.066830 -0.052909 0.041042
v 0.066830 -0.050715 0.042210
v 0.066830 -0.049476 0.042809
v 0.066830 -0.048427 0.043279
f 19 32 38
f 61 51 77
f 86 61 77
f 51 61 52
f 52 61 38
f 52 32 51
f 52 38 32
f 19 20 10
f 77 94 93
f 94 75 93
f 51 32 50
f 77 51 76
f 76 96 77
f 51 50 76
f 76 50 75
f 95 94 77
f 77 96 95
f 96 76 95
f 95 75 94
f 95 76 75
f 61 86 62
f 38 61 62
f 17 32 19
f 19 10 17
f 9 17 10
f 37 20 19
f 77 93 92
f 92 93 75
f 11 10 20
f 32 17 33
f 20 37 39
f 4 9 10
f 10 11 4
f 21 11 20
f 17 9 18
f 18 33 17
f 32 33 53
f 53 50 32
f 75 50 53
f 3 4 1
f 9 4 3
f 27 14 23
f 14 12 23
f 1 4 5
f 27 23 22
f 22 23 12
f 83 60 82
f 64 60 85
f 58 57 80
f 37 57 58
f 40 39 37
f 37 60 40
f 20 39 40
f 28 14 27
f 27 22 28
f 121 122 89
f 89 122 123
f 123 119 89
f 87 110 114
f 114 115 87
f 642 627 641
f 622 601 596
f 620 595 619
f 622 596 620
f 620 596 595
f 618 595 593
f 523 569 570
f 204 248 198
f 258 248 204
f 258 256 316
f 89 120 108
f 108 121 89
f 195 241 242
f 481 500 520
f 7 5 12
f 7 12 14
f 59 82 60
f 59 60 37
f 37 58 59
f 84 60 83
f 84 85 60
f 91 120 89
f 63 60 64
f 64 40 63
f 63 40 60
f 41 21 20
f 20 40 41
f 65 40 64
f 78 98 99
f 22 40 42
f 40 65 42
f 64 47 42
f 42 65 64
f 119 123 152
f 192 151 152
f 152 151 119
f 195 192 152
f 74 71 66
f 89 119 90
f 149 151 150
f 119 151 149
f 193 192 195
f 193 151 192
f 240 235 193
f 142 141 178
f 284 274 285
f 326 274 284
f 178 141 179
f 231 284 285
f 282 284 231
f 622 620 626
f 626 620 619
f 626 641 627
f 618 639 621
f 621 595 618
f 619 595 621
f 618 593 594
f 561 565 564
f 564 594 561
f 561 594 593
f 595 596 562
f 562 593 595
f 562 561 593
f 602 601 622
f 601 602 568
f 568 602 569
f 569 523 568
f 568 523 567
f 568 596 601
f 568 562 596
f 524 523 570
f 486 439 438
f 523 524 486
f 438 481 484
f 629 627 642
f 316 371 372
f 370 372 371
f 255 256 202
f 159 160 202
f 200 197 158
f 410 393 369
f 316 367 308
f 308 258 316
f 202 256 254
f 206 208 259
f 163 208 206
f 162 163 128
f 99 98 128
f 245 241 195
f 195 244 245
f 300 358 359
f 300 301 241
f 297 244 267
f 267 324 297
f 241 245 297
f 297 245 244
f 109 108 120
f 85 108 109
f 120 91 109
f 109 91 85
f 241 288 296
f 296 288 240
f 296 242 241
f 240 242 296
f 289 288 241
f 302 303 241
f 241 301 302
f 302 301 303
f 400 439 441
f 600 597 564
f 623 597 600
f 564 565 521
f 481 520 521
f 521 562 563
f 565 561 521
f 561 562 521
f 483 481 438
f 438 440 483
f 482 481 483
f 450 449 498
f 500 499 542
f 542 520 500
f 580 534 538
f 46 26 45
f 1 7 2
f 1 5 6
f 6 7 1
f 5 7 6
f 81 58 80
f 81 59 58
f 82 59 81
f 85 91 73
f 73 47 64
f 64 85 73
f 101 81 80
f 102 81 101
f 83 82 105
f 131 101 130
f 102 101 131
f 132 105 131
f 99 128 129
f 43 28 22
f 22 42 43
f 47 28 43
f 43 42 47
f 47 71 72
f 72 71 74
f 29 30 14
f 14 28 29
f 29 28 47
f 154 123 122
f 243 244 195
f 267 244 243
f 67 68 45
f 67 66 71
f 67 71 89
f 89 90 67
f 67 90 88
f 119 88 118
f 118 90 119
f 88 90 118
f 240 288 287
f 117 149 150
f 239 193 195
f 240 193 239
f 195 242 239
f 239 242 240
f 180 142 178
f 340 391 392
f 392 391 435
f 390 391 336
f 336 277 335
f 335 277 333
f 335 390 336
f 389 390 335
f 333 387 335
f 115 147 148
f 147 179 148
f 148 141 115
f 148 179 141
f 178 179 189
f 189 179 147
f 285 274 286
f 286 231 285
f 619 621 640
f 640 621 639
f 564 597 598
f 598 594 564
f 597 625 598
f 598 625 618
f 618 594 598
f 563 562 566
f 562 568 566
f 566 568 567
f 567 523 566
f 528 486 527
f 525 486 524
f 523 486 485
f 485 484 523
f 485 486 438
f 438 484 485
f 522 484 481
f 522 521 563
f 481 521 522
f 563 566 522
f 523 484 522
f 522 566 523
f 617 592 591
f 590 613 591
f 590 591 556
f 556 591 592
f 477 517 518
f 517 555 518
f 603 602 622
f 569 602 603
f 622 626 603
f 603 626 627
f 605 629 630
f 630 613 605
f 526 524 570
f 526 525 524
f 527 486 526
f 486 525 526
f 410 367 409
f 409 370 410
f 372 370 409
f 409 367 316
f 316 372 409
f 314 256 313
f 313 256 312
f 256 255 312
f 160 159 126
f 161 198 157
f 204 198 161
f 156 158 197
f 326 284 343
f 343 284 282
f 326 343 377
f 377 343 393
f 368 367 410
f 410 369 368
f 256 258 257
f 257 254 256
f 257 258 204
f 204 254 257
f 203 159 202
f 202 254 203
f 203 161 159
f 203 254 204
f 204 161 203
f 531 488 530
f 487 488 441
f 441 439 487
f 439 486 487
f 530 488 487
f 486 528 487
f 317 318 259
f 373 318 317
f 205 163 162
f 205 208 163
f 259 318 260
f 260 206 259
f 303 364 365
f 365 364 406
f 404 358 403
f 444 442 445
f 459 503 489
f 414 459 460
f 460 442 414
f 459 489 460
f 445 442 460
f 460 489 445
f 301 300 360
f 303 301 360
f 360 364 303
f 359 364 360
f 360 300 359
f 376 375 403
f 403 358 376
f 358 324 376
f 403 375 415
f 415 442 403
f 414 442 415
f 414 415 374
f 374 415 375
f 323 321 324
f 298 297 324
f 241 297 298
f 241 303 304
f 288 289 238
f 294 295 238
f 624 597 623
f 624 625 597
f 564 581 599
f 599 600 564
f 564 521 560
f 560 521 520
f 560 542 564
f 520 542 560
f 451 499 500
f 500 452 451
f 498 499 451
f 451 450 498
f 406 450 451
f 451 452 406
f 406 452 407
f 582 534 581
f 582 581 564
f 580 538 583
f 583 538 543
f 564 539 536
f 536 582 564
f 534 582 536
f 564 542 584
f 584 539 564
f 541 542 499
f 495 536 496
f 496 536 539
f 45 68 69
f 69 46 45
f 45 26 25
f 25 24 45
f 14 30 31
f 8 2 7
f 47 73 70
f 89 71 70
f 70 71 47
f 70 91 89
f 70 73 91
f 36 37 19
f 36 55 37
f 54 78 55
f 55 34 54
f 100 78 99
f 100 101 78
f 130 101 100
f 99 129 100
f 100 129 130
f 80 57 79
f 79 101 80
f 78 101 79
f 83 105 106
f 106 84 83
f 102 131 103
f 82 81 103
f 103 81 102
f 132 131 167
f 167 168 132
f 167 131 130
f 130 129 167
f 166 129 128
f 166 167 129
f 168 167 166
f 49 72 74
f 74 66 49
f 153 154 122
f 122 121 153
f 121 108 153
f 155 152 123
f 123 154 155
f 267 243 214
f 44 67 45
f 66 67 44
f 44 49 66
f 30 49 44
f 45 24 44
f 44 31 30
f 24 31 44
f 116 117 88
f 149 117 116
f 116 88 119
f 119 149 116
f 200 158 201
f 276 277 225
f 333 277 276
f 145 113 144
f 144 182 145
f 142 181 144
f 144 181 182
f 87 115 111
f 115 141 111
f 145 182 183
f 183 181 225
f 182 181 183
f 279 228 278
f 433 391 428
f 428 390 433
f 391 390 428
f 330 331 274
f 388 387 425
f 389 335 388
f 388 335 387
f 385 333 386
f 385 387 333
f 385 384 425
f 425 387 385
f 462 417 461
f 461 456 462
f 417 456 461
f 462 456 455
f 579 586 547
f 547 508 546
f 558 518 559
f 519 518 558
f 559 518 557
f 557 518 555
f 557 556 592
f 557 555 517
f 517 556 557
f 434 391 433
f 435 391 434
f 434 479 435
f 478 479 434
f 477 518 512
f 643 629 642
f 617 591 616
f 627 629 628
f 628 603 627
f 572 526 571
f 615 616 591
f 615 638 617
f 617 616 615
f 612 613 590
f 256 314 315
f 315 371 316
f 316 256 315
f 315 314 370
f 315 370 371
f 97 126 127
f 127 126 159
f 127 161 157
f 159 161 127
f 124 156 125
f 124 127 157
f 157 158 124
f 158 156 124
f 124 125 97
f 97 127 124
f 326 377 378
f 458 457 501
f 501 459 458
f 458 459 414
f 303 365 361
f 361 365 406
f 502 503 459
f 532 533 492
f 492 489 532
f 532 489 503
f 532 502 543
f 503 502 532
f 403 442 443
f 443 404 403
f 319 318 373
f 373 374 319
f 319 260 318
f 319 374 375
f 261 260 319
f 321 323 266
f 267 214 266
f 266 324 267
f 266 323 324
f 241 298 299
f 299 300 241
f 358 300 299
f 299 324 358
f 299 298 324
f 357 295 294
f 294 356 357
f 355 356 294
f 355 402 356
f 438 439 398
f 398 440 438
f 190 193 235
f 150 151 190
f 151 193 190
f 241 304 291
f 406 407 362
f 362 407 408
f 362 361 406
f 303 361 362
f 453 452 500
f 453 407 452
f 453 500 481
f 349 350 294
f 543 538 537
f 537 532 543
f 533 532 537
f 495 496 448
f 448 447 492
f 534 536 535
f 497 496 539
f 497 541 499
f 449 448 497
f 497 448 496
f 498 449 497
f 497 499 498
f 539 584 540
f 540 497 539
f 541 497 540
f 542 541 540
f 13 26 16
f 13 25 26
f 24 25 13
f 16 8 13
f 13 8 7
f 15 7 14
f 14 31 15
f 15 13 7
f 15 31 24
f 24 13 15
f 19 34 35
f 35 36 19
f 35 34 55
f 55 36 35
f 56 79 57
f 56 57 37
f 37 55 56
f 55 78 56
f 78 79 56
f 133 105 132
f 133 106 105
f 84 106 107
f 107 108 85
f 85 84 107
f 82 103 104
f 104 103 131
f 104 105 82
f 104 131 105
f 165 166 128
f 166 165 164
f 164 128 163
f 164 165 128
f 30 29 48
f 48 49 30
f 48 29 47
f 47 72 48
f 72 49 48
f 154 153 175
f 175 137 174
f 175 153 137
f 108 137 138
f 138 153 108
f 137 153 138
f 152 155 194
f 174 216 194
f 194 175 174
f 195 152 194
f 194 216 195
f 215 243 195
f 195 216 215
f 215 216 174
f 174 214 215
f 215 214 243
f 217 177 176
f 199 201 158
f 157 198 199
f 199 158 157
f 252 201 253
f 282 231 230
f 231 187 230
f 220 180 178
f 220 221 180
f 178 189 220
f 220 189 233
f 232 187 231
f 231 286 232
f 232 286 274
f 180 221 222
f 274 331 275
f 275 222 274
f 276 222 275
f 331 330 275
f 333 276 275
f 112 144 113
f 141 142 112
f 112 111 141
f 112 113 87
f 87 111 112
f 145 183 184
f 340 279 337
f 279 338 337
f 337 391 340
f 336 391 337
f 337 277 336
f 337 338 277
f 339 338 279
f 384 330 329
f 329 330 274
f 410 370 412
f 412 454 410
f 412 455 456
f 456 454 412
f 416 393 410
f 410 454 416
f 416 377 393
f 417 377 416
f 416 456 417
f 416 454 456
f 467 420 466
f 420 465 466
f 463 417 462
f 476 517 477
f 554 556 517
f 590 556 554
f 389 388 427
f 427 390 389
f 545 507 506
f 544 547 545
f 545 547 546
f 546 508 545
f 508 507 545
f 579 531 578
f 578 586 579
f 578 531 577
f 508 547 548
f 548 547 586
f 435 479 480
f 480 479 519
f 513 518 519
f 519 479 513
f 513 479 478
f 513 512 518
f 478 434 475
f 475 513 478
f 512 513 475
f 477 512 475
f 475 434 433
f 569 603 574
f 603 571 574
f 570 569 574
f 574 526 570
f 574 571 526
f 604 628 629
f 604 629 605
f 605 571 604
f 603 628 604
f 604 571 603
f 613 630 636
f 636 615 613
f 636 630 629
f 614 591 613
f 613 615 614
f 614 615 591
f 637 643 638
f 638 615 637
f 615 636 637
f 629 643 637
f 637 636 629
f 606 571 605
f 572 571 606
f 606 607 572
f 572 607 573
f 527 526 573
f 573 526 572
f 573 528 527
f 528 573 529
f 530 487 529
f 529 487 528
f 418 377 417
f 418 378 377
f 457 458 413
f 413 458 414
f 413 374 373
f 414 374 413
f 491 446 445
f 491 447 446
f 490 489 492
f 492 447 490
f 445 489 490
f 490 491 445
f 447 491 490
f 404 443 405
f 442 444 405
f 405 443 442
f 358 404 405
f 359 358 405
f 405 364 359
f 445 446 405
f 405 444 445
f 405 448 449
f 446 447 405
f 447 448 405
f 449 450 405
f 406 364 405
f 405 450 406
f 261 319 320
f 320 319 375
f 320 321 261
f 375 376 320
f 324 321 320
f 320 376 324
f 261 321 322
f 322 262 261
f 321 266 322
f 441 402 401
f 401 400 441
f 401 355 400
f 402 355 401
f 354 353 400
f 400 355 354
f 294 353 354
f 354 355 294
f 482 483 437
f 437 483 440
f 440 398 437
f 352 353 294
f 352 396 353
f 294 350 351
f 351 352 294
f 400 353 399
f 353 398 399
f 439 400 399
f 399 398 439
f 150 190 191
f 236 287 288
f 240 287 236
f 236 235 240
f 236 190 235
f 303 345 344
f 344 291 303
f 345 291 344
f 348 304 303
f 303 291 348
f 348 291 304
f 290 238 289
f 290 291 238
f 290 289 241
f 241 291 290
f 363 345 303
f 303 362 363
f 482 437 436
f 436 437 396
f 436 481 482
f 436 453 481
f 407 453 436
f 408 407 436
f 436 396 408
f 350 349 347
f 494 537 538
f 533 537 494
f 495 448 494
f 494 536 495
f 494 535 536
f 494 538 534
f 534 535 494
f 585 584 542
f 542 540 585
f 585 540 584
f 196 155 154
f 196 194 155
f 154 175 196
f 175 194 196
f 219 177 218
f 218 177 217
f 271 270 325
f 325 305 271
f 271 218 270
f 200 201 251
f 251 201 252
f 252 305 251
f 140 114 110
f 140 176 177
f 249 198 248
f 249 199 198
f 248 258 249
f 258 308 249
f 342 343 282
f 342 369 393
f 393 343 342
f 341 342 282
f 280 230 229
f 229 230 187
f 188 220 233
f 187 232 188
f 147 187 188
f 188 189 147
f 233 189 188
f 142 180 224
f 224 181 142
f 224 276 225
f 225 181 224
f 273 232 274
f 274 222 273
f 386 333 332
f 333 275 332
f 332 385 386
f 384 385 332
f 332 330 384
f 332 275 330
f 142 144 143
f 143 112 142
f 144 112 143
f 145 184 185
f 185 184 228
f 227 184 183
f 225 277 227
f 277 278 227
f 227 278 228
f 228 184 227
f 277 338 334
f 338 339 334
f 334 339 279
f 279 278 334
f 334 278 277
f 327 274 326
f 411 412 370
f 455 412 411
f 504 463 462
f 465 463 504
f 419 465 420
f 378 418 419
f 506 507 472
f 515 476 514
f 473 507 508
f 473 472 507
f 516 554 517
f 517 476 516
f 516 476 515
f 589 612 590
f 590 554 589
f 612 589 609
f 508 548 549
f 586 578 549
f 549 548 586
f 608 607 632
f 575 578 577
f 575 607 608
f 608 609 575
f 575 609 578
f 575 573 607
f 575 529 573
f 530 529 576
f 576 531 530
f 577 531 576
f 576 575 577
f 529 575 576
f 174 137 173
f 137 135 173
f 136 107 106
f 106 135 136
f 136 135 137
f 136 137 108
f 108 107 136
f 106 133 134
f 134 135 106
f 134 133 132
f 263 322 266
f 262 322 263
f 163 206 207
f 207 209 168
f 262 263 207
f 207 263 209
f 261 262 207
f 207 164 163
f 207 260 261
f 206 260 207
f 168 166 207
f 166 164 207
f 132 168 169
f 169 170 132
f 353 396 397
f 396 437 397
f 397 398 353
f 397 437 398
f 396 352 395
f 352 351 395
f 408 396 395
f 395 362 408
f 190 236 237
f 238 191 237
f 237 191 190
f 288 238 237
f 237 236 288
f 394 350 345
f 345 363 394
f 394 351 350
f 394 363 362
f 362 395 394
f 394 395 351
f 346 291 345
f 346 347 291
f 345 350 346
f 350 347 346
f 238 291 292
f 291 347 292
f 533 494 493
f 493 494 448
f 492 533 493
f 493 448 492
f 268 218 217
f 270 218 268
f 219 218 269
f 218 271 269
f 305 306 246
f 246 251 305
f 200 251 246
f 247 197 246
f 246 197 200
f 366 305 325
f 366 306 305
f 139 140 110
f 176 140 139
f 115 114 146
f 114 140 146
f 146 140 177
f 146 147 115
f 201 199 250
f 199 249 250
f 250 253 201
f 250 249 308
f 369 342 311
f 311 341 253
f 342 341 311
f 282 230 281
f 281 341 282
f 219 229 186
f 186 177 219
f 186 187 147
f 186 229 187
f 147 146 186
f 186 146 177
f 234 188 232
f 232 273 234
f 221 220 234
f 220 188 234
f 234 222 221
f 234 273 222
f 223 222 276
f 276 224 223
f 180 222 223
f 223 224 180
f 226 183 225
f 225 227 226
f 226 227 183
f 328 329 274
f 274 327 328
f 328 327 329
f 329 327 381
f 464 463 465
f 465 419 464
f 464 419 418
f 417 463 464
f 464 418 417
f 470 468 505
f 506 470 505
f 544 545 505
f 505 545 506
f 467 468 421
f 421 420 467
f 471 470 506
f 506 472 471
f 508 514 510
f 433 390 432
f 432 476 477
f 432 475 433
f 477 475 432
f 390 427 429
f 635 609 608
f 612 609 635
f 608 632 635
f 635 632 612
f 612 632 631
f 631 632 606
f 631 606 605
f 605 613 631
f 613 612 631
f 607 606 634
f 634 632 607
f 135 134 171
f 171 170 211
f 132 170 171
f 171 134 132
f 264 266 265
f 264 263 266
f 265 212 264
f 209 263 264
f 210 212 211
f 211 170 210
f 209 264 210
f 210 264 212
f 170 169 210
f 168 209 210
f 210 169 168
f 174 173 213
f 213 214 174
f 213 212 265
f 265 266 213
f 213 266 214
f 294 238 293
f 238 292 293
f 293 292 347
f 293 349 294
f 293 347 349
f 219 269 272
f 272 305 252
f 272 229 219
f 280 229 272
f 272 271 305
f 272 269 271
f 247 246 307
f 307 246 306
f 253 250 310
f 369 311 310
f 310 311 253
f 283 230 280
f 283 281 230
f 252 253 283
f 253 341 283
f 341 281 283
f 283 272 252
f 280 272 283
f 378 419 379
f 326 378 379
f 379 327 326
f 469 468 470
f 470 421 469
f 469 421 468
f 382 419 420
f 420 421 382
f 329 381 382
f 424 471 472
f 511 514 476
f 511 510 514
f 509 473 508
f 508 510 509
f 509 510 473
f 390 429 430
f 473 429 426
f 425 424 426
f 426 429 427
f 472 473 426
f 426 424 472
f 426 388 425
f 426 427 388
f 553 589 554
f 553 588 589
f 554 516 553
f 553 516 515
f 606 632 633
f 633 634 606
f 632 634 633
f 172 173 135
f 172 213 173
f 172 171 211
f 135 171 172
f 211 212 172
f 212 213 172
f 367 368 309
f 309 310 250
f 309 308 367
f 309 250 308
f 419 382 380
f 380 382 381
f 380 379 419
f 380 381 327
f 327 379 380
f 470 471 422
f 422 421 470
f 422 382 421
f 471 424 422
f 383 424 425
f 425 384 383
f 384 329 383
f 329 382 383
f 382 424 383
f 473 510 474
f 510 511 474
f 476 432 474
f 474 511 476
f 515 514 551
f 589 588 611
f 588 610 611
f 611 609 589
f 611 610 609
f 578 609 587
f 609 610 587
f 587 549 578
f 587 610 588
f 423 424 382
f 382 422 423
f 423 422 424
f 431 430 429
f 431 429 473
f 473 474 431
f 390 430 431
f 431 432 390
f 431 474 432
f 552 553 515
f 515 551 552
f 588 553 552
f 552 587 588
f 551 587 552
f 550 551 514
f 550 587 551
f 550 514 508
f 508 549 550
f 549 587 550
f 87 62 110
f 110 62 86
f 11 12 5
f 5 4 11
f 22 12 11
f 11 21 22
f 41 22 21
f 41 40 22
f 185 626 619
f 19 38 185
f 162 128 185
f 185 62 87
f 623 600 185
f 38 62 185
f 185 639 618
f 185 558 559
f 642 641 185
f 185 459 501
f 185 34 19
f 185 413 373
f 78 54 185
f 185 317 259
f 185 599 581
f 501 457 185
f 185 534 580
f 185 279 340
f 340 392 185
f 619 640 185
f 559 557 185
f 618 625 185
f 98 78 185
f 87 113 185
f 641 626 185
f 185 592 617
f 543 502 185
f 259 208 185
f 185 128 98
f 185 643 642
f 185 205 162
f 185 624 623
f 581 534 185
f 580 583 185
f 185 113 145
f 185 228 279
f 185 392 435
f 185 640 639
f 617 638 185
f 373 317 185
f 435 480 185
f 208 205 185
f 625 624 185
f 600 599 185
f 185 583 543
f 185 54 34
f 519 558 185
f 185 557 592
f 638 643 185
f 185 502 459
f 185 480 519
f 457 413 185
f 77 92 505
f 505 117 150
f 467 466 505
f 505 18 9
f 505 504 462
f 505 97 77
f 505 92 75
f 75 53 505
f 505 314 313
f 505 531 579
f 505 3 1
f 33 18 505
f 505 53 33
f 68 67 505
f 462 455 505
f 441 488 505
f 313 312 505
f 9 3 505
f 1 2 505
f 202 160 505
f 16 26 505
f 505 8 16
f 505 255 202
f 505 126 97
f 295 357 505
f 579 547 505
f 26 46 505
f 505 69 68
f 505 67 88
f 88 117 505
f 370 314 505
f 505 312 255
f 160 126 505
f 488 531 505
f 505 402 441
f 505 238 295
f 46 69 505
f 2 8 505
f 150 191 505
f 505 411 370
f 505 547 544
f 356 402 505
f 505 357 356
f 505 466 465
f 505 191 238
f 455 411 505
f 465 504 505
f 505 468 467
f 77 97 307
f 307 86 77
f 307 110 86
f 307 197 247
f 97 125 307
f 125 156 307
f 307 139 110
f 307 156 197
f 307 366 325
f 325 270 307
f 217 176 307
f 307 268 217
f 270 268 307
f 306 366 307
f 176 139 307
f 369 310 309
f 309 368 369
