v -0.028599 0.027966 0.032000
v -0.000565 -0.039996 0.032000
v -0.005530 -0.039616 0.032000
v -0.010410 -0.038622 0.032000
v -0.017490 -0.035974 0.032000
v -0.023945 -0.032041 0.032000
v -0.029545 -0.026965 0.032000
v -0.034090 -0.020925 0.032000
v -0.037418 -0.014139 0.032000
v -0.039410 -0.006847 0.032000
v -0.039994 0.000689 0.032000
v -0.033349 0.022087 0.032000
v -0.036909 0.015419 0.032000
v -0.039150 0.008200 0.032000
v -0.049983 -0.001321 -0.103451
v -0.049946 -0.002320 -0.102504
v -0.049937 -0.002509 -0.102204
v -0.049917 -0.002874 -0.101252
v -0.049969 0.001766 -0.103797
v -0.049982 0.001338 -0.103918
v -0.049992 0.000905 -0.103985
v -0.050000 0.000078 -0.103965
v -0.049932 0.002600 -0.103371
v -0.049898 0.003190 -0.102860
v -0.049873 0.003556 -0.102387
v -0.049840 0.003994 -0.101403
v -0.049837 0.004031 -0.099748
v -0.000574 -0.047403 0.023707
v -0.000575 -0.047620 0.023384
v -0.000589 -0.056997 0.004000
v -0.017345 -0.051633 0.004000
v -0.016422 -0.052416 0.004000
v -0.015211 -0.053311 0.004000
v -0.013513 -0.054349 0.004000
v -0.013505 -0.054354 0.004000
v -0.012866 -0.054687 0.004000
v -0.010362 -0.055731 0.004000
v -0.009145 -0.056100 0.004000
v -0.006070 -0.056676 0.004000
v -0.004714 -0.056805 0.004000
v -0.004447 -0.056827 0.004000
v -0.000796 -0.056994 0.004000
v -0.047971 0.013859 -0.104750
v -0.049002 0.009600 -0.104750
v -0.049654 0.005267 -0.104750
v -0.049925 0.000893 -0.104750
v -0.049811 -0.003487 -0.104750
v -0.049314 -0.007841 -0.104750
v -0.048436 -0.012134 -0.104750
v -0.042767 0.025903 -0.104500
v -0.044873 0.022054 -0.104500
v -0.046634 0.018035 -0.104500
v -0.048036 0.013877 -0.104500
v -0.049067 0.009613 -0.104500
v -0.049721 0.005274 -0.104500
v -0.049992 0.000895 -0.104500
v -0.049878 -0.003492 -0.104500
v -0.049380 -0.007851 -0.104500
v -0.048501 -0.012150 -0.104500
v -0.047249 -0.016355 -0.104500
v -0.045634 -0.020435 -0.104500
v -0.043666 -0.024357 -0.104500
v -0.041363 -0.028091 -0.104500
v -0.049865 0.003667 -0.098796
v -0.049067 0.009613 -0.050200
v -0.049879 0.003478 -0.098496
v -0.049938 0.002480 -0.097549
v -0.049721 0.005274 -0.050200
v -0.049988 0.001080 -0.097035
v -0.049992 0.000895 -0.050200
v -0.049878 -0.003492 -0.050200
v -0.050000 -0.000182 -0.097082
v -0.049380 -0.007851 -0.050200
v -0.049996 -0.000604 -0.097202
v -0.049979 -0.001445 -0.097630
v -0.049959 -0.002032 -0.098140
v -0.049942 -0.002399 -0.098614
v -0.049919 -0.002836 -0.099595
v -0.048036 0.013877 -0.050200
v -0.046634 0.018035 -0.050200
v -0.044873 0.022054 -0.050200
v -0.042767 0.025903 -0.050200
v -0.048501 -0.012150 -0.050200
v -0.047249 -0.016355 -0.050200
v -0.045634 -0.020435 -0.050200
v -0.043666 -0.024357 -0.050200
v -0.006484 -0.056627 0.004000
v -0.039848 0.026219 0.023000
v -0.042461 0.021734 0.023000
v -0.042794 0.021070 0.023000
v -0.045079 0.015594 0.023000
v -0.045649 0.013836 0.023000
v -0.046666 0.009878 0.023000
v -0.047382 0.005497 0.023000
v -0.047531 0.004009 0.023000
v -0.047661 -0.001923 0.023000
v -0.047604 -0.003018 0.023000
v -0.047054 -0.007824 0.023000
v -0.046309 -0.011436 0.023000
v -0.043537 -0.019490 0.023000
v -0.043676 -0.019175 0.023000
v -0.045719 -0.013605 0.023000
v -0.040958 -0.024448 0.023000
v -0.039376 -0.026922 0.023000
v -0.037606 -0.029344 0.023000
v -0.033961 -0.033496 0.023000
v -0.033673 -0.033785 0.023000
v -0.029218 -0.037704 0.023000
v -0.027462 -0.039002 0.023000
v -0.012398 -0.045997 0.023346
v -0.013435 -0.045704 0.023346
v -0.019005 -0.043683 0.023346
v -0.024281 -0.040986 0.023346
v -0.029181 -0.037655 0.023346
v -0.033629 -0.033741 0.023346
v -0.040905 -0.024417 0.023346
v -0.037558 -0.029306 0.023346
v -0.045659 -0.013587 0.023346
v -0.043620 -0.019150 0.023346
v -0.046993 -0.007814 0.023346
v -0.047470 0.004003 0.023346
v -0.047599 -0.001920 0.023346
v -0.046606 0.009865 0.023346
v -0.042739 0.021042 0.023346
v -0.045020 0.015574 0.023346
v -0.039796 0.026185 0.023346
v -0.036238 0.030923 0.023346
v -0.039603 0.026058 0.023707
v -0.042532 0.020940 0.023707
v -0.044802 0.015499 0.023707
v -0.046379 0.009817 0.023707
v -0.047239 0.003984 0.023707
v -0.047369 -0.001911 0.023707
v -0.046765 -0.007776 0.023707
v -0.045438 -0.013521 0.023707
v -0.043408 -0.019057 0.023707
v -0.040707 -0.024298 0.023707
v -0.037375 -0.029164 0.023707
v -0.033466 -0.033578 0.023707
v -0.029039 -0.037472 0.023707
v -0.024163 -0.040787 0.023707
v -0.018913 -0.043471 0.023707
v -0.013370 -0.045483 0.023707
v -0.012338 -0.045774 0.023707
v -0.008681 -0.046841 0.023346
v -0.008639 -0.046613 0.023707
v -0.004289 -0.047213 0.023707
v -0.004310 -0.047443 0.023346
v -0.027711 0.028165 0.032060
v -0.027440 0.029176 0.032060
v -0.027538 0.029069 0.032060
v -0.027668 0.028851 0.032060
v -0.027733 0.028643 0.032060
v -0.027752 0.028464 0.032061
v 0.027659 0.029094 0.031883
v 0.025652 0.030882 0.031889
v -0.007427 0.039427 0.031995
v -0.010291 0.038771 0.032005
v -0.016540 0.036525 0.032025
v -0.021462 0.033847 0.032040
v -0.022391 0.033235 0.032043
v -0.014710 0.037305 0.032019
v -0.003828 0.039945 0.031984
v 0.000126 0.040135 0.031971
v 0.002637 0.040052 0.031963
v 0.007677 0.039404 0.031947
v 0.009008 0.039123 0.031943
v 0.015055 0.037221 0.031923
v 0.020641 0.034438 0.031905
v 0.021696 0.033783 0.031902
v 0.002788 0.055989 -0.093221
v 0.003067 0.055972 -0.094211
v 0.003083 0.055971 -0.094528
v 0.001374 0.056050 -0.091811
v 0.002210 0.056018 -0.092404
v 0.000466 0.056070 -0.091544
v 0.000825 0.056063 -0.091612
v -0.001512 0.056062 -0.091978
v -0.000544 0.056075 -0.091585
v -0.002732 0.056023 -0.093481
v -0.002293 0.056040 -0.092687
v -0.001935 0.056052 -0.092299
v -0.002917 0.056015 -0.094510
v 0.002790 0.055996 -0.053227
v 0.003068 0.055980 -0.054217
v 0.003083 0.055979 -0.054528
v 0.001387 0.056053 -0.051817
v 0.002210 0.056024 -0.052404
v 0.000476 0.056071 -0.051545
v 0.000825 0.056066 -0.051612
v -0.001506 0.056059 -0.051975
v -0.000536 0.056074 -0.051584
v -0.002732 0.056017 -0.053482
v -0.002285 0.056036 -0.052677
v -0.001935 0.056048 -0.052299
v -0.002917 0.056009 -0.054510
v 0.031844 0.043225 -0.104201
v 0.031853 0.043231 -0.104058
v 0.030431 0.045187 -0.104178
v 0.030436 0.045191 -0.104069
v 0.028813 0.046960 -0.104144
v 0.028816 0.046962 -0.104067
v 0.027002 0.048536 -0.104113
v 0.027003 0.048538 -0.104062
v 0.025004 0.049906 -0.104096
v 0.025004 0.049907 -0.104068
v 0.022861 0.051036 -0.104114
v 0.022861 0.051036 -0.104106
v 0.017983 0.052988 -0.104097
v 0.018084 0.052953 -0.104124
v 0.018207 0.052910 -0.104199
v 0.018249 0.052895 -0.104224
v 0.018499 0.052806 -0.104311
v 0.018506 0.052803 -0.104310
v 0.018632 0.052758 -0.104293
v 0.018748 0.052716 -0.104248
v 0.018758 0.052713 -0.104245
v 0.019193 0.052553 -0.104079
v 0.019170 0.052561 -0.104085
v 0.019546 0.052420 -0.104073
v 0.020121 0.052198 -0.104152
v 0.020413 0.052082 -0.104124
v 0.020413 0.052082 -0.104127
v 0.021489 0.051639 -0.104045
v 0.021833 0.051492 -0.104130
v -0.023593 0.051025 -0.103971
v -0.023593 0.051026 -0.103954
v -0.022602 0.051466 -0.103981
v -0.021978 0.051732 -0.103980
v -0.021877 0.051774 -0.103980
v -0.021039 0.052115 -0.103902
v -0.021011 0.052126 -0.103910
v -0.018829 0.052940 -0.103913
v -0.018153 0.053171 -0.104027
v -0.017551 0.053369 -0.104221
v -0.017539 0.053374 -0.104220
v -0.016964 0.053555 -0.104062
v -0.020141 0.052463 -0.103987
v -0.019756 0.052607 -0.103987
v -0.019703 0.052626 -0.103989
v -0.019309 0.052770 -0.103945
v -0.019182 0.052815 -0.103935
v -0.018871 0.052925 -0.103910
v -0.018223 0.053148 -0.104004
v -0.017241 0.053469 -0.104182
v -0.016876 0.053582 -0.104020
v -0.016772 0.053615 -0.103991
v -0.025737 0.049893 -0.103973
v -0.029109 0.047356 -0.103992
v -0.029549 0.046946 -0.103888
v -0.027734 0.048525 -0.103911
v -0.025737 0.049894 -0.103930
v -0.025934 0.049772 -0.103974
v -0.027732 0.048522 -0.103984
v -0.029546 0.046941 -0.103994
v -0.031157 0.045170 -0.104006
v -0.031164 0.045178 -0.103864
v -0.031770 0.044376 -0.104013
v -0.032577 0.043222 -0.103842
v -0.032565 0.043211 -0.104022
v 0.017981 0.052987 -0.104597
v 0.020820 0.051915 -0.104606
v 0.023729 0.050607 -0.104620
v 0.026480 0.048897 -0.104641
v 0.028935 0.046779 -0.104665
v 0.031027 0.044309 -0.104692
v 0.011793 0.054711 -0.104747
v 0.014497 0.054069 -0.104587
v 0.015009 0.053895 -0.104756
v -0.016714 0.053632 -0.104493
v -0.014770 0.054188 -0.104499
v -0.012545 0.054702 -0.104674
v -0.007953 0.055528 -0.104688
v -0.004653 0.055880 -0.104699
v -0.001339 0.056037 -0.104709
v 0.001957 0.055998 -0.104718
v 0.005245 0.055765 -0.104728
v 0.008535 0.055335 -0.104738
v -0.012551 0.054731 -0.104506
v -0.007253 0.055649 -0.104523
v -0.001339 0.056066 -0.104541
v -0.000299 0.056075 -0.104544
v 0.005248 0.055794 -0.104560
v 0.006996 0.055590 -0.104566
v 0.008674 0.055342 -0.104570
v 0.011800 0.054740 -0.104579
v -0.019816 0.052583 -0.104485
v -0.022181 0.051640 -0.104481
v -0.028945 0.047441 -0.104500
v -0.028827 0.047548 -0.104499
v -0.026076 0.049655 -0.104486
v -0.025780 0.049841 -0.104485
v -0.023005 0.051282 -0.104480
v -0.031199 0.045000 -0.104516
v -0.031601 0.044470 -0.104520
v 0.029185 0.045184 -0.024960
v 0.022245 0.051140 -0.023984
v 0.024663 0.049568 -0.023753
v 0.024431 0.049920 -0.025685
v 0.027957 0.046727 -0.025198
v 0.027281 0.047461 -0.025310
v 0.026820 0.047694 -0.023472
v 0.019609 0.052370 -0.024160
v 0.019608 0.052366 -0.024131
v 0.019643 0.052478 -0.026077
v 0.020622 0.052080 -0.026016
v 0.022446 0.051178 -0.025877
v 0.006539 0.055561 -0.024087
v 0.006546 0.055679 -0.026033
v 0.005679 0.055775 -0.026030
v -0.010479 0.054983 -0.024031
v -0.010472 0.055107 -0.025977
v -0.014517 0.054188 -0.025964
v -0.019886 0.052335 -0.024001
v -0.002876 0.056006 -0.026002
v -0.007182 0.055626 -0.025988
v -0.007160 0.055508 -0.024042
v -0.008064 0.055506 -0.025985
v 0.009888 0.055057 -0.024098
v 0.013181 0.054356 -0.024109
v 0.016450 0.053573 -0.026066
v 0.016422 0.053459 -0.024120
v -0.001015 0.055949 -0.024062
v -0.001023 0.056067 -0.026008
v 0.005674 0.055657 -0.024084
v 0.004738 0.055865 -0.026027
v 0.008926 0.055342 -0.026041
v 0.009902 0.055174 -0.026044
v 0.012318 0.054680 -0.026052
v 0.002323 0.055904 -0.024073
v -0.019887 0.052338 -0.024031
v -0.013782 0.054254 -0.024020
v 0.000437 0.056072 -0.026013
v -0.017254 0.053384 -0.025955
v -0.019934 0.052446 -0.025947
v -0.022734 0.051142 -0.025730
v -0.024067 0.050329 -0.025598
v -0.025286 0.049456 -0.025458
v -0.024928 0.049533 -0.023594
v -0.027121 0.047860 -0.025205
v -0.027082 0.047657 -0.023300
v -0.022520 0.051104 -0.023838
v -0.029448 0.045149 -0.024776
v -0.028901 0.045573 -0.022969
v -0.027604 0.047370 -0.025127
v -0.035409 0.032141 0.023081
v -0.035313 0.032047 0.023580
v 0.035584 0.032036 0.022868
v 0.035490 0.031942 0.023368
v -0.033543 0.033812 0.023574
v -0.033639 0.033906 0.023074
v 0.033818 0.033807 0.022872
v 0.033725 0.033712 0.023372
v 0.031966 0.043194 -0.077392
v 0.030547 0.045163 -0.077387
v 0.028911 0.046956 -0.077381
v 0.027091 0.048537 -0.077375
v 0.025074 0.049917 -0.077368
v 0.022955 0.051032 -0.077360
v 0.032057 0.043193 -0.050323
v 0.030639 0.045161 -0.050318
v 0.029003 0.046953 -0.050313
v 0.027184 0.048534 -0.050306
v 0.025168 0.049913 -0.050299
v 0.023050 0.051029 -0.050292
v 0.026384 0.048954 -0.038791
v 0.027866 0.047450 -0.034571
v 0.031853 0.043179 -0.042032
v 0.025046 0.049983 -0.046556
v 0.030392 0.045241 -0.042217
v 0.030577 0.045189 -0.046261
v 0.028695 0.047111 -0.042414
v 0.028908 0.047016 -0.046357
v 0.021292 0.051813 -0.035794
v 0.023613 0.050677 -0.035387
v 0.024268 0.050368 -0.039100
v 0.022047 0.051489 -0.039407
v 0.024752 0.050131 -0.042823
v 0.022605 0.051240 -0.043031
v 0.022943 0.051083 -0.046656
v 0.026799 0.048750 -0.042617
v 0.027050 0.048622 -0.046456
v 0.029674 0.045411 -0.034183
v 0.022646 0.051117 -0.029791
v 0.020326 0.052209 -0.030985
v -0.032472 0.043144 -0.050129
v -0.031037 0.045141 -0.050133
v -0.029379 0.046955 -0.050137
v -0.027535 0.048553 -0.050142
v -0.025547 0.049908 -0.050147
v -0.023462 0.051006 -0.050152
v -0.022402 0.051463 -0.039271
v -0.022975 0.051215 -0.042878
v -0.024619 0.050339 -0.038953
v -0.025122 0.050104 -0.042662
v -0.026731 0.048922 -0.038632
v -0.027169 0.048718 -0.042445
v -0.028685 0.047227 -0.038317
v -0.029063 0.047074 -0.042231
v -0.030426 0.045283 -0.038014
v -0.030760 0.045198 -0.042025
v -0.032219 0.043129 -0.041832
v -0.023334 0.051059 -0.046504
v -0.025438 0.049955 -0.046393
v -0.027443 0.048590 -0.046281
v -0.029302 0.046977 -0.046171
v -0.030972 0.045142 -0.046065
v -0.023954 0.050641 -0.035263
v -0.021635 0.051783 -0.035682
v -0.020702 0.052155 -0.031199
v -0.022955 0.051083 -0.029656
v -0.002905 0.056016 -0.094790
v -0.002635 0.056028 -0.095790
v -0.002631 0.056022 -0.055797
v -0.002043 0.056045 -0.056636
v -0.002043 0.056049 -0.096636
v -0.001281 0.056067 -0.097191
v -0.000659 0.056074 -0.097426
v -0.000368 0.056075 -0.097485
v 0.000653 0.056066 -0.097464
v 0.001645 0.056040 -0.097080
v 0.002100 0.056022 -0.096739
v 0.002438 0.056007 -0.096377
v 0.002899 0.055982 -0.095553
v 0.000669 0.056068 -0.057461
v -0.001263 0.056065 -0.057200
v -0.000659 0.056073 -0.057426
v -0.000349 0.056075 -0.057488
v 0.001654 0.056044 -0.057075
v 0.002100 0.056028 -0.056739
v 0.002440 0.056013 -0.056375
v 0.002899 0.055989 -0.055553
v 0.022175 0.051429 -0.043043
v -0.030224 0.036823 0.023561
v -0.026945 0.039298 0.023550
v -0.023464 0.041480 0.023537
v -0.019809 0.043354 0.023525
v -0.016005 0.044906 0.023512
v -0.012081 0.046123 0.023499
v -0.008067 0.046998 0.023487
v -0.003993 0.047523 0.023474
v 0.000112 0.047694 0.023462
v 0.004216 0.047510 0.023450
v 0.008288 0.046974 0.023438
v 0.012300 0.046087 0.023426
v 0.016220 0.044858 0.023416
v 0.020019 0.043295 0.023405
v 0.023669 0.041410 0.023396
v 0.027143 0.039218 0.023387
v 0.030415 0.036733 0.023380
v -0.030311 0.036926 0.023062
v -0.027022 0.039408 0.023050
v -0.023532 0.041596 0.023037
v -0.019866 0.043476 0.023025
v -0.016052 0.045031 0.023012
v -0.012117 0.046252 0.023000
v -0.008092 0.047129 0.022987
v -0.004006 0.047656 0.022974
v 0.000110 0.047828 0.022962
v 0.004226 0.047644 0.022949
v 0.008310 0.047105 0.022938
v 0.012333 0.046216 0.022926
v 0.016264 0.044984 0.022915
v 0.020074 0.043416 0.022905
v 0.023734 0.041526 0.022896
v 0.027218 0.039327 0.022887
v 0.030499 0.036836 0.022879
v -0.016712 0.053633 -0.103984
v -0.017208 0.053479 -0.104120
v -0.017516 0.053381 -0.104024
v -0.022552 0.051402 -0.042917
v -0.017913 0.035027 -0.177915
v -0.021199 0.035031 -0.173153
v -0.013582 0.035020 -0.181752
v -0.008459 0.035013 -0.184440
v 0.000052 0.035000 -0.186000
v 0.018022 0.038973 -0.177915
v 0.020425 0.039970 -0.172689
v 0.021309 0.038969 -0.173153
v 0.022391 0.039967 -0.167504
v 0.023360 0.038966 -0.167744
v 0.013125 0.039981 -0.180929
v 0.016389 0.039976 -0.178197
v 0.017275 0.039975 -0.177252
v 0.013691 0.038980 -0.181752
v 0.008568 0.038987 -0.184440
v 0.008215 0.039988 -0.183505
v 0.002951 0.038996 -0.185825
v 0.002831 0.039996 -0.184832
v -0.002835 0.039004 -0.185825
v -0.002713 0.040004 -0.184832
v -0.008453 0.039013 -0.184440
v -0.008097 0.040012 -0.183505
v -0.013576 0.039020 -0.181752
v -0.013006 0.040019 -0.180929
v -0.017907 0.039027 -0.177915
v -0.017157 0.040025 -0.177252
v -0.021193 0.039031 -0.173153
v -0.020306 0.040030 -0.172689
v -0.023245 0.039034 -0.167744
v -0.022273 0.040033 -0.167504
v 0.002945 0.034996 -0.185825
v -0.020689 -0.058530 -0.067519
v -0.022298 -0.058528 -0.071067
v -0.023301 -0.058527 -0.074831
v -0.023671 -0.058526 -0.078709
v -0.023397 -0.058526 -0.082594
v -0.022487 -0.058528 -0.086382
v -0.020967 -0.058530 -0.089968
v -0.018877 -0.058533 -0.093256
v -0.016274 -0.058537 -0.096154
v -0.013230 -0.058542 -0.098584
v -0.009827 -0.058547 -0.100481
v -0.006159 -0.058552 -0.101791
v -0.002325 -0.058558 -0.102479
v 0.001571 -0.058563 -0.102528
v 0.005420 -0.058569 -0.101934
v 0.009120 -0.058575 -0.100715
v 0.012569 -0.058580 -0.098903
v 0.015672 -0.058584 -0.096549
v 0.018346 -0.058588 -0.093716
v 0.020516 -0.058591 -0.090481
v 0.022125 -0.058594 -0.086933
v 0.023128 -0.058595 -0.083169
v 0.023498 -0.058596 -0.079291
v 0.023224 -0.058595 -0.075406
v 0.022314 -0.058594 -0.071618
v 0.020794 -0.058592 -0.068032
v 0.018704 -0.058589 -0.064744
v 0.016101 -0.058585 -0.061846
v 0.013057 -0.058580 -0.059416
v 0.009654 -0.058575 -0.057519
v 0.005986 -0.058570 -0.056209
v 0.002152 -0.058564 -0.055521
v -0.001744 -0.058558 -0.055472
v -0.005594 -0.058553 -0.056066
v -0.009293 -0.058547 -0.057285
v -0.012742 -0.058542 -0.059097
v -0.015845 -0.058538 -0.061451
v -0.018519 -0.058534 -0.064284
v 0.037507 0.013900 0.032000
v 0.033824 0.021352 0.032000
v 0.005413 -0.039632 0.032000
v 0.010296 -0.038652 0.032000
v 0.018062 -0.035690 0.032000
v 0.025048 -0.031187 0.032000
v 0.030953 -0.025336 0.032000
v 0.035521 -0.018392 0.032000
v 0.038555 -0.010654 0.032000
v 0.039925 -0.002456 0.032000
v 0.039570 0.005849 0.032000
v 0.000447 -0.039997 0.032000
v 0.028519 0.027993 0.032000
v 0.028681 0.027882 0.032000
v 0.049909 -0.003021 -0.101252
v 0.049884 0.003403 -0.102397
v 0.049843 0.003956 -0.100774
v 0.049849 0.003884 -0.099748
v 0.049948 0.002273 -0.103487
v 0.049986 0.001190 -0.103918
v 0.049948 -0.002278 -0.102748
v 0.049978 -0.001473 -0.103449
v 0.049992 -0.000916 -0.103736
v 0.050000 -0.000188 -0.103946
v 0.049994 0.000796 -0.103981
v 0.000435 -0.047622 0.023384
v 0.000434 -0.047405 0.023707
v 0.000420 -0.056998 0.004000
v 0.008979 -0.056127 0.004000
v 0.006230 -0.056657 0.004000
v 0.005902 -0.056694 0.004000
v 0.001183 -0.056988 0.004000
v 0.048400 -0.012277 -0.104750
v 0.049290 -0.007986 -0.104750
v 0.049801 -0.003634 -0.104750
v 0.049927 0.000746 -0.104750
v 0.049670 0.005120 -0.104750
v 0.049030 0.009455 -0.104750
v 0.048012 0.013717 -0.104750
v 0.043594 -0.024486 -0.104500
v 0.045573 -0.020570 -0.104500
v 0.047201 -0.016495 -0.104500
v 0.048465 -0.012293 -0.104500
v 0.049356 -0.007997 -0.104500
v 0.049867 -0.003639 -0.104500
v 0.049994 0.000747 -0.104500
v 0.049736 0.005127 -0.104500
v 0.049095 0.009468 -0.104500
v 0.048076 0.013735 -0.104500
v 0.046687 0.017897 -0.104500
v 0.044938 0.021922 -0.104500
v 0.042843 0.025777 -0.104500
v 0.049901 0.003143 -0.098254
v 0.049904 -0.003093 -0.100223
v 0.049936 -0.002537 -0.098599
v 0.049356 -0.007997 -0.050200
v 0.049945 0.002335 -0.097551
v 0.049095 0.009468 -0.050200
v 0.049968 0.001779 -0.097264
v 0.049736 0.005127 -0.050200
v 0.049989 0.001049 -0.097054
v 0.049994 0.000747 -0.050200
v 0.050000 0.000066 -0.097019
v 0.049867 -0.003639 -0.050200
v 0.049999 -0.000330 -0.097082
v 0.049980 -0.001399 -0.097505
v 0.043594 -0.024486 -0.050200
v 0.045573 -0.020570 -0.050200
v 0.047201 -0.016495 -0.050200
v 0.048465 -0.012293 -0.050200
v 0.048076 0.013735 -0.050200
v 0.046687 0.017897 -0.050200
v 0.044938 0.021922 -0.050200
v 0.042843 0.025777 -0.050200
v 0.014871 -0.053478 0.004000
v 0.016267 -0.052465 0.004000
v 0.017093 -0.051772 0.004000
v 0.013353 -0.054389 0.004000
v 0.013345 -0.054394 0.004000
v 0.012461 -0.054843 0.004000
v 0.009856 -0.055872 0.004000
v 0.027347 -0.039083 0.023000
v 0.030201 -0.036922 0.023000
v 0.033861 -0.033596 0.023000
v 0.034790 -0.032633 0.023000
v 0.038777 -0.027779 0.023000
v 0.039297 -0.027038 0.023000
v 0.042090 -0.022443 0.023000
v 0.043479 -0.019618 0.023000
v 0.044674 -0.016718 0.023000
v 0.046275 -0.011573 0.023000
v 0.046484 -0.010703 0.023000
v 0.047487 -0.004502 0.023000
v 0.047595 -0.003159 0.023000
v 0.047667 0.001777 0.023000
v 0.047398 0.005356 0.023000
v 0.047020 0.008025 0.023000
v 0.045558 0.014133 0.023000
v 0.043306 0.019997 0.023000
v 0.042525 0.021608 0.023000
v 0.040303 0.025514 0.023000
v 0.004169 -0.047455 0.023346
v 0.004149 -0.047225 0.023707
v 0.012202 -0.045810 0.023707
v 0.008501 -0.046639 0.023707
v 0.012262 -0.046033 0.023346
v 0.008543 -0.046866 0.023346
v 0.013635 -0.045645 0.023346
v 0.013568 -0.045424 0.023707
v 0.036376 0.030400 0.023707
v 0.036554 0.030549 0.023346
v 0.040251 0.025481 0.023346
v 0.043250 0.019971 0.023346
v 0.045499 0.014115 0.023346
v 0.046959 0.008014 0.023346
v 0.047605 0.001774 0.023346
v 0.047426 -0.004496 0.023346
v 0.046424 -0.010689 0.023346
v 0.042036 -0.022414 0.023346
v 0.044617 -0.016696 0.023346
v 0.034745 -0.032591 0.023346
v 0.038726 -0.027743 0.023346
v 0.030162 -0.036874 0.023346
v 0.019514 -0.043458 0.023346
v 0.025055 -0.040517 0.023346
v 0.019419 -0.043247 0.023707
v 0.024934 -0.040321 0.023707
v 0.030015 -0.036695 0.023707
v 0.034577 -0.032433 0.023707
v 0.038539 -0.027608 0.023707
v 0.041832 -0.022305 0.023707
v 0.044400 -0.016615 0.023707
v 0.046198 -0.010637 0.023707
v 0.047195 -0.004474 0.023707
v 0.047374 0.001766 0.023707
v 0.046731 0.007975 0.023707
v 0.045278 0.014046 0.023707
v 0.043040 0.019874 0.023707
v 0.040056 0.025357 0.023707
v 0.021574 -0.033532 -0.172413
v 0.021201 -0.033531 -0.173153
v 0.018714 -0.033528 -0.176964
v 0.017915 -0.033527 -0.177915
v 0.014914 -0.033522 -0.180764
v 0.013584 -0.033520 -0.181752
v 0.010364 -0.033515 -0.183623
v 0.008461 -0.033513 -0.184440
v 0.005291 -0.033508 -0.185398
v 0.002843 -0.033504 -0.185825
v -0.000050 -0.033500 -0.186000
v -0.002942 -0.033496 -0.185825
v -0.005390 -0.033492 -0.185398
v -0.015013 -0.033478 -0.180764
v -0.008560 -0.033487 -0.184440
v -0.010463 -0.033485 -0.183623
v -0.013683 -0.033480 -0.181752
v -0.018014 -0.033473 -0.177915
v -0.018813 -0.033472 -0.176964
v -0.021300 -0.033469 -0.173153
v -0.021673 -0.033468 -0.172413
v -0.023453 -0.037265 -0.167341
v -0.021678 -0.037268 -0.172413
v -0.018819 -0.037272 -0.176964
v -0.015019 -0.037278 -0.180764
v -0.010468 -0.037285 -0.183623
v -0.005396 -0.037292 -0.185398
v -0.000055 -0.037300 -0.186000
v 0.005285 -0.037308 -0.185398
v 0.010358 -0.037315 -0.183623
v 0.014909 -0.037322 -0.180764
v 0.018709 -0.037328 -0.176964
v 0.021568 -0.037332 -0.172413
v 0.023343 -0.037335 -0.167341
v -0.004350 -0.058544 -0.127074
v -0.003649 -0.058545 -0.128357
v -0.003036 -0.058546 -0.129287
v -0.002087 -0.058547 -0.130490
v -0.001375 -0.058548 -0.131254
v -0.000187 -0.058550 -0.132328
v 0.000588 -0.058551 -0.132920
v 0.001996 -0.058553 -0.133819
v 0.002797 -0.058554 -0.134241
v 0.004400 -0.058557 -0.134919
v 0.005194 -0.058558 -0.135180
v 0.006955 -0.058561 -0.135597
v 0.007713 -0.058562 -0.135711
v 0.009588 -0.058565 -0.135833
v 0.010284 -0.058566 -0.135821
v 0.012223 -0.058568 -0.135622
v 0.012839 -0.058569 -0.135506
v 0.014784 -0.058572 -0.134967
v 0.015307 -0.058573 -0.134775
v 0.017198 -0.058576 -0.133890
v 0.017621 -0.058576 -0.133647
v 0.019395 -0.058579 -0.132420
v 0.019718 -0.058579 -0.132155
v 0.021313 -0.058582 -0.130600
v 0.021541 -0.058582 -0.130337
v 0.022894 -0.058584 -0.128482
v 0.023040 -0.058584 -0.128244
v 0.024096 -0.058586 -0.126127
v 0.024173 -0.058586 -0.125933
v 0.024882 -0.058587 -0.123603
v 0.024911 -0.058587 -0.123467
v 0.025230 -0.058588 -0.120982
v 0.025233 -0.058588 -0.120913
v 0.025130 -0.058587 -0.118341
v 0.007365 -0.055511 -0.181635
v 0.011847 -0.055518 -0.179283
v 0.015637 -0.055523 -0.175926
v 0.018513 -0.055527 -0.171759
v 0.020308 -0.055530 -0.167026
v -0.021082 -0.055469 -0.162000
v -0.020472 -0.055470 -0.167026
v -0.018677 -0.055472 -0.171759
v -0.015801 -0.055477 -0.175926
v -0.012011 -0.055482 -0.179283
v -0.007529 -0.055489 -0.181635
v -0.002613 -0.055496 -0.182847
v 0.002449 -0.055504 -0.182847
f 752 581 744
f 751 712 752
f 10 9 154
f 154 9 149
f 9 8 149
f 506 535 539
f 754 755 508
f 753 62 754
f 628 627 607
f 613 639 612
f 582 581 752
f 583 582 752
f 736 749 750
f 516 729 517
f 95 68 70
f 136 8 9
f 154 14 11
f 11 10 154
f 10 11 133
f 9 10 135
f 135 136 9
f 118 136 135
f 65 93 79
f 537 539 535
f 521 535 506
f 8 138 7
f 7 149 8
f 270 499 287
f 251 389 253
f 158 162 553
f 553 162 159
f 553 159 160
f 160 161 553
f 553 161 150
f 92 91 79
f 79 93 92
f 94 68 95
f 94 65 68
f 93 65 94
f 79 91 80
f 708 748 760
f 507 508 506
f 754 508 507
f 506 753 507
f 507 753 754
f 86 62 506
f 506 62 63
f 63 753 506
f 62 753 63
f 746 607 627
f 628 607 608
f 608 629 628
f 542 679 650
f 551 677 541
f 541 677 678
f 678 679 542
f 542 541 678
f 547 669 670
f 659 627 628
f 628 629 659
f 671 670 659
f 752 712 713
f 712 751 711
f 751 750 711
f 742 751 752
f 748 732 731
f 71 70 75
f 754 62 61
f 61 60 754
f 66 70 68
f 115 106 107
f 107 114 115
f 105 104 506
f 137 138 8
f 8 136 137
f 84 85 101
f 71 73 97
f 132 133 11
f 132 11 14
f 10 133 134
f 134 135 10
f 153 14 154
f 153 13 14
f 153 541 542
f 154 551 153
f 153 551 541
f 54 43 44
f 53 43 54
f 568 535 534
f 533 534 535
f 533 532 568
f 568 534 533
f 536 537 535
f 539 537 538
f 535 521 531
f 531 521 529
f 531 533 535
f 532 533 531
f 531 529 530
f 568 532 531
f 529 521 524
f 524 521 522
f 522 523 524
f 515 516 518
f 518 516 517
f 517 731 518
f 518 731 732
f 740 522 739
f 522 521 739
f 521 738 739
f 739 738 750
f 739 750 751
f 751 740 739
f 32 33 114
f 114 33 109
f 504 39 87
f 506 539 504
f 547 149 546
f 149 545 546
f 546 669 547
f 139 7 138
f 115 114 139
f 282 491 275
f 235 270 287
f 499 270 271
f 287 499 288
f 501 289 290
f 253 389 390
f 227 390 391
f 391 390 404
f 706 705 694
f 493 275 491
f 493 274 275
f 493 490 492
f 491 490 493
f 158 439 438
f 438 162 158
f 268 329 321
f 333 176 282
f 206 205 263
f 347 346 127
f 12 1 347
f 553 166 165
f 456 438 439
f 323 315 317
f 131 132 14
f 129 13 12
f 90 89 81
f 81 80 90
f 90 80 91
f 47 48 58
f 492 490 692
f 706 694 692
f 707 708 760
f 486 482 485
f 506 508 511
f 511 521 506
f 515 518 511
f 511 518 521
f 477 485 483
f 485 482 483
f 483 482 278
f 488 490 489
f 489 490 491
f 489 491 282
f 282 276 489
f 199 265 201
f 680 576 712
f 680 479 576
f 481 592 591
f 481 265 199
f 610 596 632
f 745 744 581
f 745 524 744
f 745 746 525
f 525 524 745
f 607 746 580
f 580 745 581
f 746 745 580
f 747 627 525
f 525 746 747
f 747 746 627
f 614 641 640
f 613 614 640
f 640 639 613
f 651 348 349
f 349 650 651
f 636 600 637
f 637 600 598
f 598 611 637
f 638 612 639
f 638 611 612
f 638 637 611
f 677 551 676
f 627 659 662
f 662 659 670
f 712 576 575
f 585 584 575
f 712 711 681
f 681 711 479
f 681 680 712
f 479 680 681
f 477 479 682
f 682 711 477
f 479 711 682
f 741 740 751
f 751 742 741
f 741 522 740
f 741 523 522
f 742 523 741
f 752 744 743
f 743 742 752
f 743 523 742
f 744 524 743
f 743 524 523
f 517 729 730
f 730 731 517
f 748 731 730
f 760 748 730
f 730 729 760
f 71 75 76
f 75 15 76
f 74 75 70
f 22 15 74
f 74 15 75
f 70 69 21
f 64 68 27
f 64 66 68
f 67 19 70
f 70 66 67
f 108 107 31
f 114 107 108
f 31 32 108
f 108 32 114
f 104 105 117
f 138 137 117
f 115 139 117
f 117 139 138
f 117 106 115
f 117 105 106
f 58 48 59
f 754 60 59
f 119 136 118
f 118 101 119
f 119 137 136
f 85 86 100
f 100 101 85
f 100 119 101
f 95 70 96
f 96 70 71
f 71 97 96
f 133 132 121
f 121 94 95
f 118 135 120
f 135 134 120
f 120 134 133
f 151 553 150
f 151 1 12
f 150 347 151
f 151 347 1
f 27 68 55
f 733 518 732
f 733 732 748
f 733 748 749
f 749 734 733
f 521 518 519
f 519 733 734
f 518 733 519
f 737 738 521
f 736 750 737
f 750 738 737
f 38 504 87
f 37 504 38
f 37 36 505
f 505 504 37
f 34 33 505
f 33 32 505
f 506 504 505
f 505 32 31
f 31 107 505
f 505 107 106
f 505 105 506
f 106 105 505
f 539 538 42
f 42 538 537
f 539 42 540
f 540 42 41
f 39 504 503
f 503 540 41
f 503 504 539
f 539 540 503
f 530 529 572
f 568 531 572
f 572 531 530
f 528 572 529
f 39 503 40
f 40 503 41
f 41 42 29
f 526 524 525
f 529 524 526
f 526 528 529
f 7 139 6
f 6 5 149
f 149 7 6
f 234 235 287
f 234 334 235
f 272 271 279
f 279 273 272
f 468 271 270
f 293 228 288
f 293 288 499
f 499 501 293
f 291 251 253
f 254 501 290
f 251 291 254
f 254 291 501
f 253 390 252
f 252 390 227
f 392 228 471
f 392 471 393
f 394 408 393
f 393 411 392
f 393 408 411
f 393 228 227
f 393 471 228
f 403 391 404
f 394 393 403
f 227 391 403
f 403 393 227
f 396 398 338
f 499 496 498
f 498 501 499
f 756 716 755
f 758 705 706
f 758 757 705
f 81 89 82
f 82 259 50
f 386 259 82
f 387 386 407
f 387 250 257
f 388 250 387
f 413 274 412
f 315 274 316
f 318 317 316
f 316 317 315
f 196 274 315
f 497 496 499
f 272 273 497
f 497 271 272
f 499 271 497
f 280 316 274
f 318 316 280
f 159 162 437
f 162 438 437
f 261 268 209
f 268 321 209
f 209 321 305
f 319 329 328
f 328 327 319
f 320 321 329
f 320 329 319
f 301 348 300
f 370 348 641
f 220 221 262
f 169 553 170
f 158 553 157
f 553 163 157
f 157 439 158
f 167 166 553
f 446 445 167
f 444 166 167
f 167 445 444
f 169 447 168
f 447 446 168
f 446 167 168
f 168 553 169
f 168 167 553
f 298 301 299
f 378 380 376
f 307 299 376
f 353 155 349
f 349 348 353
f 448 447 169
f 169 170 448
f 452 451 434
f 150 161 434
f 346 345 344
f 341 346 351
f 341 345 346
f 351 451 341
f 442 165 443
f 443 460 442
f 443 166 444
f 443 165 166
f 164 165 442
f 442 441 164
f 164 441 163
f 164 163 553
f 553 165 164
f 460 325 330
f 330 333 323
f 123 92 93
f 93 94 123
f 94 121 123
f 132 131 123
f 123 121 132
f 91 92 125
f 92 123 125
f 125 90 91
f 12 347 128
f 128 129 12
f 89 90 124
f 124 125 129
f 90 125 124
f 338 398 340
f 340 398 345
f 345 341 340
f 257 250 255
f 249 250 388
f 389 251 249
f 249 388 389
f 249 254 290
f 251 254 249
f 249 255 250
f 290 289 249
f 289 255 249
f 57 47 58
f 71 18 57
f 57 15 22
f 492 692 475
f 475 692 694
f 475 705 492
f 475 694 705
f 691 707 706
f 490 707 691
f 706 692 691
f 691 692 490
f 476 490 488
f 708 707 689
f 707 476 689
f 488 486 688
f 688 486 708
f 710 750 749
f 710 711 750
f 710 685 485
f 685 710 709
f 748 708 709
f 749 748 709
f 709 710 749
f 509 511 508
f 509 508 755
f 755 714 509
f 515 511 513
f 478 479 477
f 478 262 263
f 261 262 478
f 478 481 479
f 278 482 284
f 282 176 420
f 482 486 487
f 487 489 276
f 487 486 488
f 488 489 487
f 200 198 199
f 199 201 200
f 199 198 266
f 266 481 199
f 614 592 360
f 264 205 206
f 264 263 205
f 557 600 558
f 558 556 557
f 608 609 630
f 629 608 630
f 639 640 653
f 653 638 639
f 679 678 653
f 653 678 677
f 652 640 641
f 679 653 652
f 652 653 640
f 652 650 679
f 652 651 650
f 641 348 652
f 348 651 652
f 636 637 655
f 586 563 585
f 586 575 576
f 585 575 586
f 586 602 603
f 603 602 605
f 573 584 583
f 573 583 752
f 71 76 77
f 72 70 22
f 22 74 72
f 72 74 70
f 20 21 69
f 70 19 20
f 20 69 70
f 66 64 25
f 104 117 116
f 116 117 137
f 137 119 116
f 119 100 116
f 49 48 754
f 754 59 49
f 49 59 48
f 118 120 99
f 122 120 133
f 97 120 122
f 122 96 97
f 133 121 122
f 95 96 122
f 122 121 95
f 553 151 554
f 542 650 554
f 554 650 349
f 349 155 554
f 155 156 554
f 554 170 553
f 156 170 554
f 13 153 152
f 12 13 152
f 152 151 12
f 152 554 151
f 152 153 542
f 542 554 152
f 45 55 54
f 45 54 44
f 46 55 45
f 45 498 46
f 521 519 520
f 736 737 520
f 520 737 521
f 735 519 734
f 735 749 736
f 735 734 749
f 736 520 735
f 735 520 519
f 34 505 35
f 35 505 36
f 537 536 30
f 30 42 537
f 30 536 535
f 30 535 568
f 568 29 30
f 30 29 42
f 571 570 642
f 642 572 571
f 571 528 570
f 572 528 571
f 642 570 647
f 544 545 149
f 149 543 544
f 544 666 545
f 552 643 543
f 552 149 2
f 552 543 149
f 642 643 566
f 566 572 642
f 568 572 566
f 566 29 568
f 148 40 41
f 41 29 148
f 39 40 148
f 87 39 148
f 627 662 626
f 525 627 626
f 626 526 525
f 625 526 626
f 661 670 669
f 661 662 670
f 625 626 661
f 661 626 662
f 140 139 114
f 140 6 139
f 324 315 323
f 323 333 324
f 273 279 312
f 318 280 312
f 312 280 273
f 238 335 239
f 238 239 287
f 241 335 242
f 241 242 287
f 231 288 230
f 230 409 231
f 257 255 256
f 292 291 253
f 292 293 501
f 501 291 292
f 337 396 338
f 394 396 337
f 395 403 404
f 394 403 395
f 395 396 394
f 405 390 389
f 404 390 405
f 389 388 405
f 492 705 695
f 695 494 492
f 705 494 695
f 705 757 704
f 757 756 704
f 759 758 706
f 759 707 760
f 706 707 759
f 50 259 260
f 386 82 402
f 407 386 402
f 282 275 281
f 275 274 281
f 274 413 281
f 180 413 412
f 183 315 412
f 183 196 315
f 412 274 183
f 274 196 183
f 495 493 492
f 492 494 495
f 495 497 273
f 495 494 496
f 496 497 495
f 273 280 495
f 274 493 495
f 495 280 274
f 160 159 436
f 159 437 436
f 305 321 303
f 464 446 447
f 447 448 464
f 464 448 465
f 186 173 172
f 300 348 296
f 348 370 296
f 440 157 163
f 163 441 440
f 439 157 440
f 440 456 439
f 458 441 442
f 323 317 458
f 458 440 441
f 444 445 462
f 462 445 446
f 384 307 375
f 307 376 375
f 352 353 348
f 351 346 350
f 346 347 350
f 350 451 351
f 350 434 451
f 350 347 150
f 150 434 350
f 346 344 343
f 343 344 345
f 308 325 460
f 319 327 308
f 442 460 459
f 460 330 459
f 459 330 323
f 323 458 459
f 459 458 442
f 455 437 438
f 438 456 455
f 13 129 130
f 129 125 130
f 14 13 130
f 130 131 14
f 130 123 131
f 130 125 123
f 126 347 127
f 126 128 347
f 127 346 126
f 89 124 126
f 129 128 126
f 126 124 129
f 407 399 406
f 388 387 406
f 406 387 407
f 406 405 388
f 399 405 406
f 289 501 500
f 500 255 289
f 500 256 255
f 294 256 500
f 295 294 500
f 50 260 500
f 52 51 500
f 500 51 50
f 501 498 500
f 53 52 500
f 500 43 53
f 44 43 500
f 500 45 44
f 498 45 500
f 690 707 490
f 490 476 690
f 690 476 707
f 708 689 502
f 488 688 502
f 502 688 708
f 502 476 488
f 502 689 476
f 711 710 683
f 477 711 683
f 683 710 477
f 684 485 477
f 477 710 684
f 684 710 485
f 708 486 687
f 687 709 708
f 686 486 485
f 485 685 686
f 685 709 686
f 686 687 486
f 709 687 686
f 715 509 714
f 755 716 715
f 715 714 755
f 511 509 510
f 510 715 716
f 509 715 510
f 515 513 514
f 477 483 484
f 484 478 477
f 268 478 484
f 484 267 268
f 483 267 484
f 269 268 261
f 261 478 269
f 269 478 268
f 286 329 268
f 268 267 286
f 286 328 329
f 172 173 424
f 176 333 189
f 277 487 276
f 277 284 482
f 482 487 277
f 197 266 198
f 481 266 197
f 197 198 592
f 592 481 197
f 592 198 354
f 354 360 592
f 198 360 354
f 368 641 614
f 614 360 368
f 368 370 641
f 371 370 368
f 368 360 371
f 372 370 371
f 371 373 372
f 300 370 372
f 372 301 300
f 367 301 372
f 362 373 371
f 590 481 591
f 481 579 578
f 265 481 480
f 480 264 265
f 481 478 480
f 480 478 263
f 263 264 480
f 203 201 265
f 265 264 203
f 364 264 206
f 602 599 597
f 550 551 154
f 154 549 550
f 602 634 604
f 633 632 596
f 596 604 633
f 633 604 634
f 635 634 602
f 635 600 636
f 602 600 635
f 548 549 154
f 154 149 548
f 548 149 547
f 547 670 548
f 548 670 671
f 672 548 671
f 549 548 672
f 671 659 672
f 654 653 677
f 638 653 654
f 677 676 654
f 676 655 654
f 637 638 654
f 654 655 637
f 564 586 603
f 563 586 564
f 603 605 564
f 564 605 563
f 561 604 595
f 574 573 752
f 584 573 574
f 752 713 574
f 574 713 712
f 712 575 574
f 574 575 584
f 78 18 71
f 71 77 78
f 15 57 16
f 16 76 15
f 16 77 76
f 19 55 56
f 56 20 19
f 56 55 46
f 21 20 56
f 56 57 22
f 22 70 56
f 70 21 56
f 46 47 56
f 47 57 56
f 24 67 66
f 66 25 24
f 24 25 55
f 26 64 27
f 26 25 64
f 27 55 26
f 55 25 26
f 103 100 86
f 103 116 100
f 104 116 103
f 506 104 103
f 103 86 506
f 118 99 102
f 102 99 83
f 102 83 84
f 84 101 102
f 102 101 118
f 98 99 120
f 98 97 73
f 98 120 97
f 73 83 98
f 83 99 98
f 645 643 642
f 642 647 645
f 543 643 645
f 645 544 543
f 645 647 646
f 664 666 648
f 648 621 664
f 643 552 567
f 567 566 643
f 567 552 2
f 29 566 567
f 664 621 620
f 570 528 527
f 528 526 527
f 526 620 527
f 527 620 621
f 646 647 569
f 569 648 646
f 621 648 569
f 569 647 570
f 570 527 569
f 569 527 621
f 615 622 665
f 665 666 664
f 625 661 624
f 624 526 625
f 663 665 622
f 663 624 661
f 315 324 195
f 192 324 333
f 287 242 243
f 243 233 287
f 242 335 243
f 243 335 334
f 334 233 243
f 244 234 287
f 287 233 244
f 334 234 244
f 244 233 334
f 332 455 456
f 314 455 332
f 335 409 336
f 392 411 336
f 336 409 392
f 411 408 336
f 336 408 394
f 394 337 336
f 231 409 410
f 410 409 335
f 335 238 410
f 239 335 240
f 335 241 240
f 287 239 240
f 240 241 287
f 334 469 245
f 237 469 334
f 270 245 237
f 237 245 469
f 288 228 229
f 229 230 288
f 229 228 392
f 392 409 229
f 409 230 229
f 253 252 248
f 248 292 253
f 339 337 338
f 339 451 452
f 339 341 451
f 338 340 339
f 339 340 341
f 396 395 397
f 397 405 399
f 397 395 404
f 404 405 397
f 398 396 397
f 397 399 398
f 705 704 696
f 496 494 693
f 693 696 704
f 703 756 755
f 703 704 756
f 716 756 717
f 756 718 717
f 717 510 716
f 717 718 511
f 511 510 717
f 757 758 722
f 258 260 259
f 257 256 258
f 258 387 257
f 258 294 295
f 258 256 294
f 295 500 258
f 258 500 260
f 258 259 386
f 386 387 258
f 282 281 418
f 418 419 282
f 179 419 418
f 418 192 179
f 435 161 160
f 160 436 435
f 435 434 161
f 452 434 435
f 435 436 452
f 305 303 306
f 306 307 384
f 384 377 306
f 304 303 322
f 321 320 322
f 322 303 321
f 320 462 322
f 297 464 465
f 304 464 297
f 297 303 304
f 298 299 297
f 297 299 307
f 307 306 297
f 297 306 303
f 188 187 333
f 333 330 326
f 326 330 325
f 326 188 333
f 173 186 326
f 383 370 300
f 300 296 383
f 383 296 370
f 380 365 208
f 225 377 433
f 225 262 224
f 224 377 225
f 223 262 221
f 221 222 223
f 223 222 262
f 457 458 317
f 440 458 457
f 456 440 457
f 444 462 461
f 319 308 461
f 461 320 319
f 461 462 320
f 461 308 460
f 461 443 444
f 460 443 461
f 379 433 377
f 379 376 380
f 379 375 376
f 379 377 384
f 384 375 379
f 380 208 379
f 379 208 225
f 225 433 379
f 348 301 302
f 302 352 348
f 302 301 298
f 467 302 298
f 352 302 467
f 437 455 454
f 454 455 314
f 88 126 346
f 89 126 88
f 88 82 89
f 88 402 82
f 285 286 267
f 285 483 278
f 285 267 483
f 328 286 285
f 327 328 285
f 278 284 285
f 285 284 327
f 430 188 422
f 333 187 190
f 276 424 283
f 283 277 276
f 283 424 173
f 173 326 283
f 284 277 283
f 356 362 200
f 361 362 371
f 200 362 361
f 371 360 361
f 361 360 198
f 481 578 577
f 576 479 577
f 479 481 577
f 577 586 576
f 589 578 579
f 589 579 481
f 481 590 589
f 206 263 358
f 358 364 206
f 263 364 358
f 373 362 363
f 264 364 363
f 593 600 602
f 602 597 593
f 593 558 600
f 556 558 593
f 560 599 602
f 602 601 560
f 594 604 585
f 549 672 673
f 673 550 549
f 673 674 550
f 629 630 660
f 660 659 629
f 660 672 659
f 585 563 562
f 562 561 585
f 17 78 77
f 77 16 17
f 18 78 17
f 17 57 18
f 17 16 57
f 19 67 23
f 67 24 23
f 23 55 19
f 23 24 55
f 644 645 646
f 544 645 644
f 28 567 2
f 29 567 28
f 149 5 4
f 5 142 4
f 615 665 618
f 526 615 618
f 545 666 667
f 666 665 667
f 667 546 545
f 624 663 623
f 623 617 526
f 526 624 623
f 616 615 526
f 526 617 616
f 616 622 615
f 616 663 622
f 617 623 616
f 616 623 663
f 315 195 194
f 416 281 413
f 191 195 324
f 428 192 333
f 428 333 282
f 282 419 428
f 428 419 179
f 179 192 428
f 334 332 313
f 313 332 312
f 271 468 313
f 313 468 334
f 313 279 271
f 313 312 279
f 335 336 331
f 334 335 331
f 331 332 334
f 314 332 331
f 342 454 314
f 314 331 342
f 342 331 336
f 342 339 452
f 342 336 337
f 337 339 342
f 231 410 232
f 232 410 238
f 232 238 287
f 287 288 232
f 232 288 231
f 334 245 470
f 246 237 334
f 270 237 246
f 292 248 226
f 293 292 226
f 226 252 227
f 226 248 252
f 227 228 226
f 228 293 226
f 474 693 494
f 696 693 474
f 474 494 705
f 705 696 474
f 698 498 496
f 704 703 697
f 697 693 704
f 703 698 697
f 702 47 46
f 48 47 702
f 702 703 755
f 702 755 754
f 727 759 760
f 727 516 515
f 758 759 724
f 417 281 324
f 417 418 281
f 324 192 427
f 192 418 427
f 427 417 324
f 418 417 427
f 305 220 218
f 218 219 305
f 220 219 218
f 217 219 220
f 220 262 217
f 217 216 305
f 305 219 217
f 210 209 305
f 261 209 210
f 213 212 305
f 261 212 213
f 374 306 377
f 262 222 374
f 374 224 262
f 377 224 374
f 463 462 446
f 463 322 462
f 304 322 463
f 446 464 463
f 463 464 304
f 188 326 184
f 325 308 310
f 310 326 325
f 310 283 326
f 359 365 263
f 263 208 359
f 359 208 365
f 263 262 207
f 207 208 263
f 207 262 225
f 225 208 207
f 311 457 317
f 312 332 311
f 311 332 456
f 456 457 311
f 311 317 318
f 318 312 311
f 353 352 450
f 352 467 450
f 450 156 155
f 155 353 450
f 400 343 345
f 346 343 400
f 400 88 346
f 345 398 400
f 425 420 176
f 425 190 420
f 176 189 425
f 425 189 333
f 333 190 425
f 198 200 355
f 355 361 198
f 200 361 355
f 587 577 578
f 587 600 557
f 557 556 587
f 586 577 587
f 578 589 588
f 588 587 578
f 204 203 264
f 382 372 373
f 373 363 382
f 382 363 364
f 586 560 565
f 565 560 601
f 602 586 565
f 565 601 602
f 585 561 555
f 555 594 585
f 555 561 595
f 595 604 555
f 604 594 555
f 657 633 634
f 631 660 630
f 610 632 631
f 631 609 610
f 631 630 609
f 604 561 606
f 561 562 606
f 602 604 606
f 606 562 563
f 606 605 602
f 563 605 606
f 544 644 649
f 666 544 649
f 649 648 666
f 646 648 649
f 649 644 646
f 147 148 29
f 29 28 147
f 147 28 2
f 141 142 5
f 5 6 141
f 6 140 141
f 141 140 114
f 37 38 111
f 144 4 143
f 143 4 142
f 143 111 144
f 142 111 143
f 110 111 38
f 144 111 110
f 619 665 664
f 619 618 665
f 664 620 619
f 619 620 526
f 526 618 619
f 665 663 668
f 668 667 665
f 546 667 668
f 669 546 668
f 668 661 669
f 668 663 661
f 413 180 414
f 414 194 413
f 315 194 414
f 414 180 412
f 413 194 181
f 181 416 413
f 178 191 426
f 426 191 324
f 426 281 178
f 324 281 426
f 182 416 195
f 195 191 182
f 182 191 178
f 178 281 182
f 281 416 182
f 452 436 453
f 453 342 452
f 454 342 453
f 453 436 437
f 437 454 453
f 235 334 236
f 334 470 236
f 236 470 245
f 270 235 236
f 236 245 270
f 334 468 247
f 247 246 334
f 247 468 270
f 270 246 247
f 496 693 472
f 693 697 472
f 472 698 496
f 472 697 698
f 46 498 700
f 700 702 46
f 703 702 699
f 699 698 703
f 754 48 701
f 701 702 754
f 48 702 701
f 757 720 719
f 719 756 757
f 719 718 756
f 511 718 719
f 757 722 721
f 721 720 757
f 721 722 513
f 512 513 511
f 511 719 512
f 512 719 720
f 512 721 513
f 720 721 512
f 760 729 728
f 728 727 760
f 729 516 728
f 516 727 728
f 723 722 758
f 758 724 723
f 513 722 723
f 723 514 513
f 723 724 514
f 759 727 726
f 726 727 515
f 305 212 211
f 211 210 305
f 211 212 261
f 261 210 211
f 305 216 215
f 215 262 261
f 215 217 262
f 216 217 215
f 305 306 385
f 306 374 385
f 385 220 305
f 385 221 220
f 385 222 221
f 385 374 222
f 184 432 171
f 184 171 423
f 423 171 424
f 423 424 276
f 276 422 423
f 309 308 327
f 309 310 308
f 327 284 309
f 284 283 309
f 283 310 309
f 449 170 156
f 156 450 449
f 449 448 170
f 402 88 401
f 88 400 401
f 407 402 401
f 401 399 407
f 398 399 401
f 401 400 398
f 177 174 420
f 187 174 177
f 420 190 177
f 177 190 187
f 420 174 421
f 282 420 421
f 430 422 421
f 421 276 282
f 421 422 276
f 559 560 586
f 586 587 559
f 559 587 556
f 556 593 559
f 559 593 597
f 559 597 599
f 599 560 559
f 201 203 202
f 203 204 202
f 202 200 201
f 202 356 200
f 362 356 202
f 202 363 362
f 202 204 363
f 264 363 357
f 357 204 264
f 363 204 357
f 372 382 381
f 369 382 364
f 378 381 369
f 369 381 382
f 369 380 378
f 369 365 380
f 263 365 369
f 369 364 263
f 634 635 656
f 656 657 634
f 656 635 636
f 636 655 656
f 660 631 658
f 658 673 672
f 672 660 658
f 658 631 632
f 632 633 658
f 633 657 658
f 674 673 658
f 658 657 674
f 146 4 144
f 144 110 146
f 148 147 146
f 142 141 112
f 112 36 37
f 37 111 112
f 112 111 142
f 412 315 193
f 193 414 412
f 315 414 193
f 195 416 415
f 416 181 415
f 415 194 195
f 415 181 194
f 498 698 473
f 698 699 473
f 473 699 702
f 473 700 498
f 702 700 473
f 725 724 759
f 759 726 725
f 514 724 725
f 515 514 725
f 725 726 515
f 214 213 305
f 305 215 214
f 261 213 214
f 214 215 261
f 185 186 172
f 172 424 185
f 185 432 184
f 424 171 185
f 185 171 432
f 185 326 186
f 185 184 326
f 175 422 188
f 175 423 422
f 188 184 431
f 184 423 431
f 431 175 188
f 423 175 431
f 466 450 467
f 466 449 450
f 466 467 298
f 298 297 466
f 466 297 465
f 465 448 466
f 448 449 466
f 429 174 187
f 429 421 174
f 430 421 429
f 429 188 430
f 187 188 429
f 367 372 366
f 372 381 366
f 366 376 299
f 378 376 366
f 366 381 378
f 366 301 367
f 366 299 301
f 674 657 675
f 657 656 675
f 550 674 675
f 551 550 675
f 675 676 551
f 675 655 676
f 675 656 655
f 4 146 3
f 2 149 3
f 149 4 3
f 3 147 2
f 3 146 147
f 145 110 38
f 145 146 110
f 145 38 87
f 87 148 145
f 148 146 145
f 113 112 141
f 34 35 113
f 113 35 36
f 36 112 113
f 113 33 34
f 113 109 33
f 114 109 113
f 113 141 114
f 592 614 613
f 613 591 592
f 61 86 85
f 62 86 61
f 84 60 61
f 61 85 84
f 79 80 52
f 52 53 79
f 79 53 54
f 54 65 79
f 580 608 607
f 581 608 580
f 582 583 609
f 609 583 610
f 609 608 581
f 581 582 609
f 610 583 584
f 584 596 610
f 59 83 73
f 59 73 58
f 59 60 84
f 84 83 59
f 51 52 80
f 51 80 81
f 65 54 55
f 68 65 55
f 82 51 81
f 50 51 82
f 58 73 57
f 57 73 71
f 590 591 613
f 613 612 590
f 596 584 604
f 604 584 585
f 589 590 612
f 612 611 589
f 588 589 611
f 588 611 598
f 598 600 588
f 600 587 588
