v 0.069031 -0.030422 0.016750
v 0.069031 -0.031887 0.016645
v 0.088323 -0.031887 0.016639
v 0.088323 -0.030422 0.016740
v 0.088323 -0.028960 0.016707
v 0.069031 -0.028960 0.016714
v 0.069031 -0.033343 0.016403
v 0.088323 -0.033356 0.016393
v 0.088323 -0.027495 0.016553
v 0.069031 -0.027495 0.016557
v 0.069031 -0.034808 0.016042
v 0.088323 -0.034821 0.016026
v 0.088323 -0.026029 0.016252
v 0.069031 -0.026029 0.016262
v 0.069031 -0.035847 0.015678
v 0.088323 -0.035844 0.015672
v 0.088323 -0.024561 0.015826
v 0.069031 -0.026016 0.016258
v 0.069031 -0.036581 0.015390
v 0.088323 -0.036578 0.015390
v 0.088323 -0.023830 0.015560
v 0.069031 -0.024554 0.015829
v 0.069031 -0.037755 0.014826
v 0.088323 -0.037755 0.014820
v 0.069031 -0.023830 0.015560
v 0.088323 -0.023095 0.015236
v 0.069031 -0.023095 0.015239
v 0.069031 -0.038748 0.014263
v 0.088323 -0.038748 0.014259
v 0.069031 -0.023082 0.015233
v 0.088323 -0.021670 0.014502
v 0.069031 -0.039479 0.013791
v 0.088323 -0.039479 0.013791
v 0.069031 -0.021663 0.014502
v 0.088323 -0.021545 0.014430
v 0.069031 -0.040466 0.013067
v 0.088323 -0.040308 0.013181
v 0.088323 -0.020935 0.014069
v 0.069031 -0.020935 0.014069
v 0.069031 -0.041207 0.012424
v 0.088323 -0.041207 0.012424
v 0.088323 -0.040476 0.013057
v 0.088323 -0.020162 0.013532
v 0.069031 -0.020162 0.013539
v 0.069031 -0.041974 0.011694
v 0.088323 -0.041974 0.011694
v 0.088323 -0.019201 0.012824
v 0.069031 -0.019191 0.012821
v 0.069031 -0.042708 0.010950
v 0.088323 -0.042708 0.010950
v 0.088323 -0.018467 0.012120
v 0.069031 -0.018457 0.012120
v 0.069031 -0.043259 0.010219
v 0.088323 -0.043259 0.010219
v 0.088323 -0.017749 0.011389
v 0.069031 -0.017746 0.011392
v 0.069031 -0.043983 0.009193
v 0.088323 -0.043990 0.009184
v 0.088323 -0.017624 0.011245
v 0.088323 -0.017015 0.010537
v 0.069031 -0.017011 0.010537
v 0.069031 -0.044494 0.008453
v 0.088323 -0.044409 0.008571
v 0.088323 -0.016421 0.009803
v 0.069031 -0.016412 0.009796
v 0.069031 -0.044970 0.007506
v 0.088323 -0.044488 0.008449
v 0.088323 -0.016330 0.009662
v 0.088323 -0.015877 0.008964
v 0.069031 -0.015867 0.008954
v 0.088323 -0.045557 0.006175
v 0.088323 -0.044967 0.007496
v 0.069031 -0.045881 0.005441
v 0.088323 -0.015766 0.008780
v 0.069031 -0.015222 0.007869
v 0.088323 -0.045878 0.005441
v 0.069031 -0.046120 0.004573
v 0.088323 -0.015222 0.007866
v 0.088323 -0.015159 0.007745
v 0.069031 -0.014845 0.007126
v 0.088323 -0.046107 0.004566
v 0.069031 -0.046458 0.003098
v 0.088323 -0.046389 0.003344
v 0.088323 -0.014858 0.007135
v 0.088323 -0.014399 0.006031
v 0.069031 -0.014386 0.006018
v 0.088323 -0.046445 0.003098
v 0.069031 -0.046638 0.001814
v 0.069036 -0.046665 0.001650
v 0.088323 -0.046635 0.001814
v 0.088323 -0.013904 0.004566
v 0.069031 -0.013901 0.004566
v 0.069036 -0.030419 -0.016727
v 0.069036 -0.031232 -0.016698
v 0.069036 -0.031972 -0.016622
v 0.069036 -0.033352 -0.016393
v 0.069036 -0.034818 -0.016033
v 0.069036 -0.036240 -0.015531
v 0.069036 -0.036985 -0.015200
v 0.069036 -0.037755 -0.014827
v 0.069036 -0.038997 -0.014116
v 0.069036 -0.039741 -0.013595
v 0.069036 -0.040676 -0.012864
v 0.069036 -0.041400 -0.012277
v 0.069036 -0.042105 -0.011543
v 0.069036 -0.042839 -0.010770
v 0.069036 -0.043387 -0.010026
v 0.069036 -0.044118 -0.008971
v 0.069036 -0.044576 -0.008250
v 0.069036 -0.045134 -0.007149
v 0.069036 -0.045632 -0.005953
v 0.069036 -0.045924 -0.005222
v 0.069036 -0.046206 -0.004229
v 0.069036 -0.046507 -0.002764
v 0.069036 -0.046691 -0.001299
v 0.069036 -0.046733 0.000165
v 0.069031 -0.013353 0.001814
v 0.088323 -0.046727 0.000165
v 0.088323 -0.046658 0.001630
v 0.088323 -0.013629 0.003478
v 0.069031 -0.013625 0.003485
v 0.069031 -0.013897 0.004556
v 0.069036 -0.029180 -0.016717
v 0.088323 -0.029386 -0.016717
v 0.088323 -0.030419 -0.016721
v 0.088323 -0.030553 -0.016717
v 0.088323 -0.031218 -0.016698
v 0.088323 -0.031953 -0.016622
v 0.088323 -0.033352 -0.016386
v 0.088323 -0.033602 -0.016328
v 0.088323 -0.034818 -0.016029
v 0.088323 -0.036240 -0.015528
v 0.088323 -0.036975 -0.015204
v 0.088323 -0.037755 -0.014827
v 0.088323 -0.038997 -0.014116
v 0.088323 -0.039732 -0.013604
v 0.088323 -0.040666 -0.012870
v 0.088323 -0.041400 -0.012277
v 0.088323 -0.042105 -0.011543
v 0.088323 -0.042839 -0.010770
v 0.088323 -0.043377 -0.010039
v 0.088323 -0.043501 -0.009862
v 0.088323 -0.044111 -0.008981
v 0.088323 -0.044573 -0.008250
v 0.088323 -0.045117 -0.007162
v 0.088323 -0.045632 -0.005953
v 0.088323 -0.045914 -0.005222
v 0.088323 -0.046193 -0.004229
v 0.088323 -0.046245 -0.003987
v 0.088323 -0.046497 -0.002764
v 0.088323 -0.046530 -0.002518
v 0.088323 -0.046681 -0.001299
v 0.088323 -0.046694 -0.001054
v 0.069031 -0.013491 0.002741
v 0.069036 -0.013324 0.001630
v 0.069036 -0.013245 0.000165
v 0.069036 -0.013284 -0.001316
v 0.069036 -0.013435 -0.002607
v 0.069036 -0.013809 -0.004249
v 0.069036 -0.014255 -0.005697
v 0.069036 -0.014261 -0.005713
v 0.069036 -0.014789 -0.006982
v 0.069036 -0.015120 -0.007703
v 0.069036 -0.015664 -0.008627
v 0.069036 -0.016310 -0.009620
v 0.069036 -0.016317 -0.009629
v 0.069036 -0.016851 -0.010354
v 0.069036 -0.017592 -0.011238
v 0.069036 -0.018306 -0.011963
v 0.069036 -0.019041 -0.012654
v 0.069036 -0.019949 -0.013385
v 0.069036 -0.020693 -0.013909
v 0.069036 -0.021630 -0.014499
v 0.069036 -0.022682 -0.015089
v 0.069036 -0.023430 -0.015400
v 0.069036 -0.024561 -0.015839
v 0.069036 -0.026026 -0.016269
v 0.069036 -0.027495 -0.016547
v 0.069036 -0.028445 -0.016681
v 0.088323 -0.013606 0.003357
v 0.088323 -0.028567 -0.016688
v 0.088323 -0.029180 -0.016714
v 0.088323 -0.013497 0.002744
v 0.088323 -0.013340 0.001630
v 0.088323 -0.013471 0.002561
v 0.088323 -0.013265 0.000165
v 0.088323 -0.013301 -0.001299
v 0.088323 -0.013327 0.001384
v 0.088323 -0.013324 -0.001516
v 0.088323 -0.013442 -0.002594
v 0.088323 -0.013602 -0.003325
v 0.088323 -0.013806 -0.004229
v 0.088323 -0.013881 -0.004478
v 0.088323 -0.014261 -0.005697
v 0.088323 -0.014350 -0.005910
v 0.088323 -0.014792 -0.006972
v 0.088323 -0.015120 -0.007703
v 0.088323 -0.015671 -0.008627
v 0.088323 -0.016317 -0.009620
v 0.088323 -0.016405 -0.009741
v 0.088323 -0.016851 -0.010350
v 0.088323 -0.017585 -0.011229
v 0.088323 -0.018310 -0.011963
v 0.088323 -0.019041 -0.012654
v 0.088323 -0.019949 -0.013385
v 0.088323 -0.020070 -0.013470
v 0.088323 -0.020683 -0.013896
v 0.088323 -0.020840 -0.013998
v 0.088323 -0.021630 -0.014492
v 0.088323 -0.021804 -0.014594
v 0.088323 -0.022682 -0.015089
v 0.088323 -0.023417 -0.015387
v 0.088323 -0.024561 -0.015829
v 0.088323 -0.026026 -0.016265
v 0.088323 -0.027495 -0.016544
v 0.088323 -0.027652 -0.016567
v 0.088323 -0.028445 -0.016681
f 89 88 116
f 1 3 4
f 51 52 47
f 1 4 5
f 13 14 9
f 9 14 10
f 25 22 21
f 21 22 17
f 44 39 38
f 38 39 34
f 156 186 187
f 118 89 116
f 79 84 80
f 80 75 79
f 79 75 78
f 120 121 91
f 17 22 18
f 18 13 17
f 14 13 18
f 6 5 9
f 9 10 6
f 1 5 6
f 43 44 38
f 47 44 43
f 48 47 52
f 48 44 47
f 27 21 26
f 25 21 27
f 12 8 11
f 153 118 116
f 95 96 88
f 97 98 88
f 88 96 97
f 88 101 102
f 100 101 88
f 116 88 115
f 152 153 115
f 115 153 116
f 112 113 88
f 106 107 88
f 109 110 88
f 36 41 42
f 40 41 36
f 36 33 32
f 24 20 23
f 23 20 19
f 65 61 60
f 60 64 65
f 60 61 56
f 188 186 156
f 156 184 188
f 156 187 157
f 187 189 157
f 157 189 190
f 190 158 157
f 80 84 85
f 86 85 91
f 80 85 86
f 191 158 190
f 191 192 158
f 203 169 202
f 38 34 35
f 34 31 35
f 30 27 26
f 26 31 30
f 30 31 34
f 7 8 3
f 7 11 8
f 19 20 15
f 204 169 203
f 175 211 212
f 89 118 119
f 94 88 93
f 94 95 88
f 138 104 103
f 103 104 88
f 88 102 103
f 88 98 99
f 99 100 88
f 136 103 102
f 136 102 101
f 101 135 136
f 100 99 134
f 131 97 96
f 88 113 114
f 114 115 88
f 88 110 111
f 111 112 88
f 88 104 105
f 105 106 88
f 88 107 108
f 108 109 88
f 107 106 140
f 140 141 107
f 144 145 110
f 110 109 144
f 113 112 147
f 147 148 113
f 37 36 42
f 33 36 37
f 24 23 29
f 69 70 65
f 55 56 52
f 55 52 51
f 155 184 156
f 154 183 155
f 162 197 163
f 168 202 169
f 169 204 170
f 174 211 175
f 176 212 213
f 175 212 176
f 213 214 176
f 176 214 177
f 122 91 121
f 196 162 195
f 196 197 162
f 2 3 1
f 2 7 3
f 16 15 20
f 11 15 16
f 12 11 16
f 89 119 90
f 88 89 82
f 82 90 87
f 89 90 82
f 127 94 93
f 95 94 127
f 138 103 137
f 103 136 137
f 133 134 99
f 98 132 133
f 133 99 98
f 96 129 130
f 130 131 96
f 150 114 113
f 109 108 143
f 143 144 109
f 110 145 146
f 146 111 110
f 112 111 146
f 146 147 112
f 28 29 23
f 33 29 28
f 32 33 28
f 70 69 74
f 75 70 74
f 78 75 74
f 65 64 68
f 68 69 65
f 59 60 56
f 56 55 59
f 180 183 154
f 180 154 121
f 180 121 120
f 117 155 156
f 154 155 117
f 156 157 117
f 117 157 158
f 162 163 117
f 117 168 169
f 169 170 117
f 117 174 175
f 175 176 117
f 117 176 177
f 93 88 117
f 184 155 185
f 185 155 183
f 194 160 193
f 161 194 195
f 161 160 194
f 195 162 161
f 162 117 161
f 161 117 160
f 181 179 217
f 92 86 91
f 91 122 92
f 166 199 200
f 200 201 166
f 172 205 206
f 206 207 172
f 172 207 208
f 67 63 62
f 62 66 67
f 67 66 72
f 58 57 62
f 62 63 58
f 77 76 73
f 71 66 73
f 73 76 71
f 72 66 71
f 93 124 125
f 95 127 128
f 96 95 128
f 128 129 96
f 113 148 149
f 149 150 113
f 152 115 151
f 115 114 151
f 114 150 151
f 107 141 142
f 142 108 107
f 142 143 108
f 159 117 158
f 160 117 159
f 158 192 159
f 192 193 159
f 159 193 160
f 164 117 163
f 197 198 164
f 164 163 197
f 167 117 166
f 168 117 167
f 166 201 167
f 167 201 202
f 202 168 167
f 172 117 171
f 171 117 170
f 171 205 172
f 173 117 172
f 174 117 173
f 173 208 209
f 172 208 173
f 209 210 173
f 173 210 211
f 211 174 173
f 178 117 177
f 179 117 178
f 215 216 178
f 178 216 217
f 217 179 178
f 93 117 123
f 123 117 179
f 123 182 124
f 123 124 93
f 123 181 182
f 179 181 123
f 53 57 54
f 57 58 54
f 76 77 81
f 126 127 93
f 93 125 126
f 165 198 199
f 165 164 198
f 165 199 166
f 166 117 165
f 117 164 165
f 83 81 77
f 83 77 82
f 83 82 87
f 101 100 134
f 134 135 101
f 131 132 98
f 98 97 131
f 46 45 49
f 46 49 50
f 40 45 46
f 46 41 40
f 139 104 138
f 139 105 104
f 106 105 139
f 139 140 106
f 19 15 77
f 77 48 52
f 77 75 80
f 77 22 25
f 14 18 77
f 77 61 65
f 52 56 77
f 1 6 77
f 25 27 77
f 77 45 40
f 65 70 77
f 77 10 14
f 39 44 77
f 77 34 39
f 77 2 1
f 77 30 34
f 40 36 77
f 56 61 77
f 77 23 19
f 32 28 77
f 77 18 22
f 77 6 10
f 44 48 77
f 80 86 77
f 77 122 121
f 77 53 49
f 49 45 77
f 77 36 32
f 77 66 62
f 77 70 75
f 121 154 77
f 62 57 77
f 27 30 77
f 11 7 77
f 77 15 11
f 88 82 77
f 77 57 53
f 77 117 88
f 7 2 77
f 86 92 77
f 73 66 77
f 77 28 23
f 154 117 77
f 77 92 122
f 171 204 205
f 171 170 204
f 214 215 178
f 177 214 178
f 49 53 54
f 50 49 54
f 83 191 190
f 9 5 83
f 83 187 186
f 83 4 3
f 83 21 17
f 83 37 42
f 51 47 83
f 17 13 83
f 83 20 24
f 3 8 83
f 50 54 83
f 84 79 83
f 83 181 217
f 83 43 38
f 186 188 83
f 190 189 83
f 83 153 152
f 83 119 118
f 83 130 129
f 83 5 4
f 152 151 83
f 83 146 145
f 83 13 9
f 26 21 83
f 124 182 83
f 83 8 12
f 195 194 83
f 83 204 203
f 87 90 83
f 132 131 83
f 42 41 83
f 83 79 78
f 24 29 83
f 83 55 51
f 120 91 83
f 83 85 84
f 203 202 83
f 83 193 192
f 47 43 83
f 83 31 26
f 83 189 187
f 199 198 83
f 38 35 83
f 83 212 211
f 118 153 83
f 83 200 199
f 72 71 83
f 138 137 83
f 83 149 148
f 145 144 83
f 83 46 50
f 64 60 83
f 83 188 184
f 91 85 83
f 192 191 83
f 184 185 83
f 60 59 83
f 83 196 195
f 211 210 83
f 83 35 31
f 12 16 83
f 205 204 83
f 213 212 83
f 83 214 213
f 209 208 83
f 83 67 72
f 83 136 135
f 135 134 83
f 83 133 132
f 141 140 83
f 83 139 138
f 148 147 83
f 41 46 83
f 33 37 83
f 83 29 33
f 78 74 83
f 83 68 64
f 83 180 120
f 202 201 83
f 197 196 83
f 83 198 197
f 83 16 20
f 83 206 205
f 83 215 214
f 83 90 119
f 217 216 83
f 83 142 141
f 83 125 124
f 83 137 136
f 134 133 83
f 131 130 83
f 129 128 83
f 140 139 83
f 144 143 83
f 147 146 83
f 83 74 69
f 69 68 83
f 83 59 55
f 183 180 83
f 83 185 183
f 194 193 83
f 83 210 209
f 182 181 83
f 201 200 83
f 207 206 83
f 83 208 207
f 83 216 215
f 63 67 83
f 83 58 63
f 83 71 76
f 127 126 83
f 83 128 127
f 150 149 83
f 83 151 150
f 143 142 83
f 83 54 58
f 76 81 83
f 83 126 125
