v 0.104538 -0.055974 0.006631
v 0.104529 -0.054077 0.016112
v 0.104529 -0.055974 0.008527
v 0.104100 -0.057871 0.000938
v 0.104100 -0.057872 -0.000230
v 0.104538 -0.055974 -0.006652
v 0.104526 -0.052181 -0.021830
v 0.104481 -0.055974 0.010423
v 0.104517 -0.052182 0.021805
v 0.104458 -0.054077 0.018013
v 0.104041 -0.057658 0.006631
v 0.103603 -0.058864 0.000938
v 0.103609 -0.058866 -0.000958
v 0.104100 -0.057872 -0.000958
v 0.104532 -0.055974 -0.008548
v 0.104532 -0.054078 -0.016137
v 0.104467 -0.054078 -0.018033
v 0.104377 -0.052181 -0.023726
v 0.104487 -0.050648 -0.025261
v 0.104487 -0.050286 -0.025261
v 0.103987 -0.057399 0.010423
v 0.104029 -0.057537 0.008527
v 0.104371 -0.055974 0.012315
v 0.104446 -0.050287 0.024654
v 0.104362 -0.052182 0.023706
v 0.104225 -0.054077 0.019909
v 0.103957 -0.055509 0.018013
v 0.103573 -0.058841 0.002179
v 0.102594 -0.058958 0.000938
v 0.102594 -0.058966 -0.000230
v 0.102594 -0.058968 -0.000958
v 0.103606 -0.058866 -0.000230
v 0.103576 -0.058847 -0.002336
v 0.104041 -0.057667 -0.006652
v 0.104041 -0.057780 -0.004755
v 0.103960 -0.058049 -0.002923
v 0.104487 -0.055974 -0.010449
v 0.103966 -0.055511 -0.018033
v 0.104240 -0.054078 -0.019934
v 0.104377 -0.055974 -0.012345
v 0.103880 -0.053498 -0.023726
v 0.104080 -0.052231 -0.025261
v 0.104091 -0.048738 -0.025261
v 0.103874 -0.057235 0.012315
v 0.103946 -0.048661 0.024654
v 0.104184 -0.052214 0.024654
v 0.103868 -0.053492 0.023706
v 0.103728 -0.055203 0.019909
v 0.103710 -0.057068 0.013844
v 0.102594 -0.058876 0.002526
v 0.102594 -0.058259 0.008527
v 0.102594 -0.058495 0.006631
v 0.100697 -0.059015 0.000938
v 0.100700 -0.059025 -0.000958
v 0.100700 -0.058951 -0.002854
v 0.102665 -0.058888 -0.002923
v 0.103347 -0.058800 -0.003602
v 0.103880 -0.057242 -0.012345
v 0.103990 -0.057409 -0.010449
v 0.104032 -0.057546 -0.008548
v 0.103743 -0.055215 -0.019934
v 0.103675 -0.057035 -0.014236
v 0.103546 -0.056926 -0.015194
v 0.103678 -0.053245 -0.024919
v 0.103853 -0.052727 -0.025261
v 0.103993 -0.052458 -0.025261
v 0.103567 -0.055043 -0.020921
v 0.103990 -0.048463 -0.025261
v 0.103052 -0.048183 0.024654
v 0.102671 -0.047707 -0.025261
v 0.103704 -0.053285 0.024654
v 0.103555 -0.055037 0.020886
v 0.103329 -0.056899 0.015110
v 0.102594 -0.057622 0.012315
v 0.102594 -0.057967 0.010423
v 0.100697 -0.058905 0.002697
v 0.100697 -0.058551 0.006631
v 0.100697 -0.058348 0.008527
v 0.100697 -0.058058 0.010423
v 0.098797 -0.059021 0.000938
v 0.079829 -0.059025 -0.000958
v 0.096900 -0.059022 0.000938
v 0.077936 -0.058951 -0.002854
v 0.100700 -0.058859 -0.004237
v 0.102081 -0.058847 -0.004096
v 0.102665 -0.058729 -0.004736
v 0.102594 -0.058522 -0.006652
v 0.102594 -0.058279 -0.008548
v 0.102594 -0.057988 -0.010449
v 0.102594 -0.057634 -0.012345
v 0.102594 -0.057207 -0.014236
v 0.102594 -0.056955 -0.015296
v 0.102594 -0.056091 -0.018033
v 0.102594 -0.055473 -0.019934
v 0.102594 -0.053338 -0.025109
v 0.103353 -0.053131 -0.025261
v 0.102594 -0.055081 -0.021019
v 0.102594 -0.054687 -0.021967
v 0.102594 -0.053947 -0.023726
v 0.102594 -0.048015 0.024654
v 0.089075 -0.044559 -0.025261
v 0.089045 -0.044559 -0.000230
v 0.103454 -0.053370 0.024654
v 0.102594 -0.054693 0.021932
v 0.102594 -0.055071 0.020979
v 0.102594 -0.055448 0.019909
v 0.102594 -0.056086 0.018013
v 0.102594 -0.053941 0.023706
v 0.102653 -0.056698 0.015985
v 0.102067 -0.056949 0.015266
v 0.103210 -0.056943 0.014978
v 0.102659 -0.057140 0.014372
v 0.100697 -0.057699 0.012315
v 0.077933 -0.058858 0.004109
v 0.096900 -0.058912 0.002731
v 0.077933 -0.058086 0.010423
v 0.077933 -0.058355 0.008527
v 0.098797 -0.057708 0.012315
v 0.096900 -0.057714 0.012315
v 0.077933 -0.058941 0.002834
v 0.077933 -0.059021 -0.000230
v 0.077936 -0.059024 -0.000958
v 0.095004 -0.059022 0.000938
v 0.089322 -0.059021 0.000938
v 0.076935 -0.058847 -0.004096
v 0.077936 -0.058858 -0.004237
v 0.079829 -0.058859 -0.004237
v 0.100700 -0.058776 -0.005185
v 0.100700 -0.058636 -0.006652
v 0.100700 -0.058388 -0.008548
v 0.100700 -0.058082 -0.010449
v 0.100700 -0.057708 -0.012345
v 0.100700 -0.057266 -0.014236
v 0.100700 -0.056983 -0.015394
v 0.100700 -0.056702 -0.016342
v 0.100700 -0.056184 -0.018033
v 0.100700 -0.055541 -0.019934
v 0.100700 -0.054029 -0.023726
v 0.100700 -0.053370 -0.025173
v 0.100700 -0.053328 -0.025261
v 0.102308 -0.053274 -0.025261
v 0.102594 -0.053260 -0.025261
v 0.100700 -0.055111 -0.021092
v 0.100700 -0.054737 -0.022040
v 0.089334 -0.045488 0.024654
v 0.078626 -0.044559 -0.025261
v 0.078960 -0.044559 -0.000230
v 0.102594 -0.053513 0.024654
v 0.100697 -0.054747 0.022010
v 0.100697 -0.054033 0.023706
v 0.100697 -0.055101 0.021057
v 0.100697 -0.055517 0.019909
v 0.100697 -0.056186 0.018013
v 0.100697 -0.056717 0.016268
v 0.101691 -0.057032 0.014978
v 0.102257 -0.057011 0.014978
v 0.100697 -0.057250 0.014216
v 0.096900 -0.057273 0.014216
v 0.076932 -0.058847 0.004017
v 0.089322 -0.057722 0.012315
v 0.087422 -0.057722 0.012315
v 0.077933 -0.057715 0.012315
v 0.076902 -0.056967 0.015320
v 0.076837 -0.057010 0.014978
v 0.076700 -0.057102 0.014216
v 0.089322 -0.057286 0.014216
v 0.077933 -0.059015 0.000938
v 0.076798 -0.058920 -0.000230
v 0.076795 -0.058923 -0.000958
v 0.076807 -0.058916 0.000938
v 0.076858 -0.058886 -0.002854
v 0.076241 -0.057653 -0.008548
v 0.076301 -0.057501 -0.010449
v 0.076441 -0.057316 -0.012345
v 0.076706 -0.057095 -0.014236
v 0.077936 -0.058080 -0.010449
v 0.077936 -0.058385 -0.008548
v 0.077936 -0.058628 -0.006652
v 0.077936 -0.058773 -0.005185
v 0.079829 -0.058776 -0.005185
v 0.079829 -0.058636 -0.006652
v 0.079829 -0.058388 -0.008548
v 0.079829 -0.058082 -0.010449
v 0.077936 -0.057708 -0.012345
v 0.077936 -0.057266 -0.014236
v 0.077936 -0.056983 -0.015394
v 0.079829 -0.056702 -0.016342
v 0.079829 -0.056184 -0.018033
v 0.077936 -0.055541 -0.019934
v 0.079829 -0.054029 -0.023726
v 0.077936 -0.053370 -0.025173
v 0.077936 -0.053328 -0.025261
v 0.077936 -0.055111 -0.021092
v 0.079829 -0.054737 -0.022040
v 0.078912 -0.045488 0.024654
v 0.076468 -0.046965 -0.025261
v 0.074124 -0.047418 0.024654
v 0.102013 -0.053540 0.024654
v 0.098797 -0.054748 0.022015
v 0.089322 -0.055113 0.021082
v 0.089322 -0.055550 0.019909
v 0.098797 -0.054046 0.023706
v 0.100697 -0.053595 0.024654
v 0.098797 -0.053609 0.024654
v 0.098797 -0.055528 0.019909
v 0.098797 -0.056194 0.018013
v 0.096900 -0.056974 0.015344
v 0.100104 -0.057058 0.014978
v 0.100697 -0.057054 0.014978
v 0.098797 -0.056718 0.016288
v 0.089322 -0.056986 0.015384
v 0.089322 -0.057090 0.014978
v 0.076867 -0.058881 0.002834
v 0.076438 -0.057318 0.012315
v 0.076298 -0.057507 0.010423
v 0.074121 -0.054186 0.021668
v 0.077933 -0.057282 0.014216
v 0.077933 -0.057093 0.014978
v 0.077933 -0.056988 0.015398
v 0.077933 -0.056718 0.016346
v 0.077933 -0.056204 0.018013
v 0.075038 -0.055051 0.020920
v 0.076048 -0.057871 0.000938
v 0.076506 -0.058517 -0.000230
v 0.076042 -0.057872 -0.000958
v 0.076101 -0.057872 -0.002854
v 0.076107 -0.057871 0.002834
v 0.076220 -0.057773 -0.006652
v 0.075539 -0.055974 -0.010449
v 0.075679 -0.055974 -0.012345
v 0.075941 -0.055974 -0.014236
v 0.076322 -0.055603 -0.018033
v 0.076911 -0.056963 -0.015326
v 0.077936 -0.056701 -0.016342
v 0.077936 -0.056183 -0.018033
v 0.076884 -0.055082 -0.021024
v 0.077936 -0.054027 -0.023726
v 0.076736 -0.053289 -0.025007
v 0.076533 -0.052882 -0.025261
v 0.077936 -0.054735 -0.022040
v 0.075732 -0.048367 -0.025261
v 0.074121 -0.047432 0.024630
v 0.074121 -0.047470 0.024654
v 0.087422 -0.055113 0.021087
v 0.087422 -0.054747 0.022039
v 0.087422 -0.055550 0.019909
v 0.085529 -0.056205 0.018013
v 0.089322 -0.056204 0.018013
v 0.087422 -0.054053 0.023706
v 0.088658 -0.053614 0.024654
v 0.089322 -0.056715 0.016336
v 0.074121 -0.053958 0.020011
v 0.075479 -0.055974 -0.008548
v 0.074121 -0.053883 0.022958
v 0.079835 -0.056718 0.016346
v 0.079835 -0.056205 0.018013
v 0.077933 -0.055544 0.019909
v 0.076036 -0.055087 0.021013
v 0.076036 -0.054707 0.021966
v 0.076036 -0.053969 0.023706
v 0.074419 -0.053322 0.024654
v 0.074121 -0.053512 0.024097
v 0.074121 -0.053612 0.023857
v 0.075470 -0.054078 -0.016137
v 0.075556 -0.054078 -0.018033
v 0.075854 -0.054078 -0.019934
v 0.076444 -0.053578 -0.023726
v 0.076616 -0.055283 -0.019934
v 0.076131 -0.052263 -0.025261
v 0.075476 -0.050286 -0.025261
v 0.074121 -0.047882 0.023750
v 0.074121 -0.053245 0.024654
v 0.079835 -0.054747 0.022030
v 0.077933 -0.054745 0.022030
v 0.077933 -0.055109 0.021077
v 0.083629 -0.054051 0.023706
v 0.086770 -0.053614 0.024654
v 0.074121 -0.053920 0.019982
v 0.075485 -0.052181 -0.021830
v 0.077933 -0.054046 0.023706
v 0.076036 -0.053533 0.024654
v 0.075679 -0.052181 -0.023726
v 0.074121 -0.052730 0.019337
v 0.074121 -0.052182 0.019381
v 0.074121 -0.050686 0.020148
v 0.074121 -0.049736 0.021101
v 0.074121 -0.048862 0.022044
v 0.084877 -0.053612 0.024654
v 0.077933 -0.053605 0.024654
f 197 146 196
f 8 2 10
f 23 10 27
f 27 44 23
f 23 8 10
f 107 73 72
f 147 197 195
f 146 197 147
f 252 229 216
f 264 229 252
f 145 100 102
f 101 102 70
f 70 102 100
f 70 45 68
f 24 20 43
f 43 45 24
f 68 45 43
f 1 2 3
f 2 8 3
f 46 25 24
f 24 25 9
f 9 25 10
f 10 2 9
f 9 20 24
f 27 10 26
f 10 25 26
f 49 72 73
f 49 44 27
f 44 28 21
f 21 23 44
f 8 23 21
f 241 197 196
f 283 270 278
f 278 270 252
f 69 70 100
f 45 70 69
f 20 9 7
f 7 9 2
f 1 16 7
f 7 2 1
f 41 42 18
f 39 41 18
f 216 222 254
f 222 263 254
f 47 46 71
f 71 72 47
f 25 46 47
f 27 26 47
f 47 26 25
f 103 72 71
f 108 103 148
f 72 103 108
f 107 72 106
f 48 49 27
f 72 49 48
f 27 47 48
f 48 47 72
f 107 106 153
f 184 176 233
f 41 39 38
f 6 16 1
f 6 15 16
f 16 15 37
f 22 21 28
f 8 21 22
f 170 167 213
f 170 213 216
f 164 222 165
f 222 214 165
f 215 222 216
f 215 214 222
f 28 52 50
f 50 52 77
f 33 57 58
f 89 57 88
f 88 130 89
f 130 88 129
f 216 229 253
f 253 225 216
f 229 225 253
f 226 225 229
f 229 172 226
f 169 225 226
f 226 171 169
f 233 176 175
f 285 286 270
f 270 286 287
f 64 95 96
f 96 95 142
f 20 7 19
f 19 7 18
f 18 42 19
f 42 41 66
f 18 7 17
f 17 39 18
f 17 7 16
f 16 37 17
f 17 38 39
f 150 202 149
f 150 204 202
f 150 148 198
f 150 108 148
f 280 259 274
f 289 281 280
f 72 108 104
f 104 150 149
f 108 150 104
f 107 153 154
f 163 222 164
f 163 220 221
f 163 221 222
f 89 130 131
f 188 235 189
f 236 193 189
f 236 235 233
f 189 235 236
f 216 225 223
f 169 171 122
f 77 114 76
f 76 50 77
f 53 50 76
f 116 163 164
f 164 165 116
f 120 167 124
f 59 33 58
f 28 50 29
f 29 50 53
f 30 29 53
f 57 33 56
f 1 3 4
f 87 129 88
f 87 88 57
f 57 86 87
f 126 127 83
f 172 171 228
f 228 226 172
f 171 226 228
f 174 230 231
f 232 174 231
f 175 174 232
f 233 175 232
f 270 282 279
f 264 252 279
f 252 270 279
f 269 282 270
f 269 239 267
f 267 282 269
f 284 270 283
f 284 285 270
f 65 41 64
f 65 66 41
f 64 96 65
f 58 38 40
f 38 17 40
f 40 17 37
f 40 59 58
f 37 59 40
f 262 261 272
f 262 263 222
f 222 261 262
f 281 261 260
f 260 261 222
f 222 259 260
f 260 280 281
f 259 280 260
f 203 150 198
f 204 150 203
f 149 202 199
f 202 245 199
f 276 274 273
f 276 280 274
f 273 245 276
f 105 106 72
f 72 104 105
f 105 104 149
f 105 153 106
f 258 259 222
f 222 221 258
f 274 259 258
f 258 275 274
f 221 220 256
f 149 201 151
f 201 205 151
f 151 105 149
f 206 205 201
f 153 205 206
f 201 248 206
f 206 154 153
f 109 73 107
f 133 134 92
f 136 93 92
f 93 63 92
f 62 57 89
f 89 63 62
f 58 57 62
f 62 38 58
f 62 63 38
f 38 63 61
f 41 38 61
f 185 184 233
f 233 186 185
f 176 184 183
f 183 182 176
f 235 188 187
f 142 95 141
f 95 140 141
f 238 239 192
f 267 239 238
f 238 236 267
f 136 137 94
f 94 93 136
f 94 63 93
f 170 223 168
f 227 170 216
f 216 223 227
f 227 223 170
f 81 122 83
f 127 126 180
f 51 52 28
f 49 75 51
f 51 28 44
f 44 49 51
f 163 116 162
f 115 76 114
f 114 120 115
f 57 56 85
f 85 86 57
f 85 87 86
f 129 87 85
f 31 56 33
f 34 37 15
f 11 4 3
f 11 3 8
f 8 22 11
f 11 22 28
f 179 180 126
f 125 126 83
f 83 122 125
f 125 122 171
f 125 179 126
f 178 179 125
f 125 175 176
f 125 174 175
f 125 171 172
f 230 174 173
f 173 172 229
f 229 230 173
f 173 125 172
f 174 125 173
f 265 232 231
f 231 230 265
f 265 229 264
f 265 230 229
f 264 279 265
f 265 279 282
f 267 236 268
f 268 232 267
f 268 236 233
f 233 232 268
f 270 287 271
f 244 199 245
f 244 246 201
f 244 245 273
f 273 274 244
f 274 275 244
f 249 245 202
f 249 276 245
f 202 204 249
f 277 276 249
f 288 276 277
f 289 280 288
f 280 276 288
f 257 258 221
f 275 258 257
f 221 256 257
f 257 256 246
f 257 244 275
f 246 244 257
f 255 248 247
f 247 248 201
f 152 205 153
f 152 151 205
f 153 105 152
f 105 151 152
f 112 113 74
f 74 49 73
f 74 75 49
f 79 113 118
f 79 51 75
f 75 74 79
f 79 74 113
f 251 248 255
f 251 206 248
f 91 132 133
f 133 92 91
f 91 92 63
f 131 132 90
f 89 131 90
f 132 91 90
f 90 63 89
f 90 91 63
f 235 187 234
f 234 187 186
f 233 235 234
f 234 186 233
f 136 92 135
f 135 92 134
f 98 138 99
f 99 138 95
f 139 140 95
f 95 138 139
f 144 138 98
f 236 238 237
f 67 61 63
f 63 94 67
f 98 99 67
f 64 41 67
f 41 61 67
f 67 95 64
f 67 99 95
f 169 168 224
f 224 168 223
f 224 225 169
f 224 223 225
f 170 168 121
f 167 170 121
f 169 122 121
f 121 168 169
f 122 81 121
f 124 167 121
f 121 81 124
f 181 179 178
f 180 179 181
f 128 85 84
f 129 85 128
f 159 117 116
f 114 117 159
f 214 215 159
f 159 165 214
f 159 116 165
f 159 120 114
f 216 213 159
f 159 215 216
f 213 167 159
f 167 120 159
f 120 82 80
f 80 115 120
f 53 76 80
f 76 115 80
f 124 81 123
f 123 120 124
f 123 82 120
f 14 34 15
f 15 6 14
f 60 59 37
f 37 34 60
f 33 59 60
f 60 34 33
f 30 31 12
f 31 32 12
f 29 30 12
f 28 29 12
f 12 11 28
f 4 11 12
f 177 125 176
f 178 125 177
f 176 182 177
f 182 181 177
f 177 181 178
f 266 265 282
f 232 265 266
f 266 282 267
f 267 232 266
f 242 243 197
f 270 271 242
f 242 241 270
f 197 241 242
f 200 244 201
f 199 244 200
f 200 201 149
f 149 199 200
f 250 249 204
f 277 249 250
f 154 155 110
f 107 154 110
f 110 109 107
f 73 109 110
f 118 113 158
f 158 212 166
f 211 212 158
f 116 117 78
f 78 79 116
f 78 114 77
f 78 117 114
f 51 79 78
f 77 52 78
f 52 51 78
f 210 251 211
f 154 206 210
f 206 251 210
f 193 236 240
f 236 237 240
f 161 162 116
f 116 160 161
f 161 160 166
f 119 79 118
f 166 160 119
f 116 79 119
f 119 160 116
f 118 158 119
f 119 158 166
f 163 162 217
f 217 218 163
f 166 218 217
f 217 161 166
f 162 161 217
f 166 212 219
f 219 218 166
f 219 212 211
f 255 220 219
f 220 163 219
f 163 218 219
f 219 251 255
f 211 251 219
f 54 80 82
f 53 80 54
f 54 30 53
f 54 31 30
f 1 4 5
f 73 110 111
f 111 74 73
f 112 74 111
f 157 158 113
f 157 113 112
f 112 155 157
f 211 158 207
f 207 210 211
f 207 158 154
f 154 210 207
f 137 143 97
f 97 94 137
f 98 67 97
f 97 67 94
f 97 144 98
f 97 143 144
f 191 190 237
f 191 238 192
f 191 237 238
f 193 240 194
f 84 85 55
f 55 85 56
f 56 31 55
f 31 54 55
f 33 34 13
f 13 36 14
f 13 31 33
f 13 32 31
f 14 5 13
f 13 5 4
f 4 12 13
f 13 12 32
f 34 14 35
f 14 36 35
f 35 13 34
f 36 13 35
f 112 111 156
f 156 111 110
f 156 155 112
f 156 110 155
f 209 155 154
f 209 157 155
f 158 157 208
f 157 209 208
f 154 158 208
f 208 209 154
f 101 146 102
f 146 147 102
f 195 145 102
f 102 147 195
f 136 188 137
f 137 188 189
f 185 186 134
f 185 134 133
f 132 185 133
f 184 185 132
f 184 132 183
f 183 132 131
f 130 182 183
f 183 131 130
f 141 146 101
f 42 66 141
f 196 146 141
f 101 70 141
f 68 43 141
f 141 96 142
f 141 70 68
f 141 43 20
f 141 241 196
f 270 241 141
f 192 239 141
f 141 140 192
f 20 19 141
f 141 19 42
f 141 269 270
f 141 65 96
f 239 269 141
f 66 65 141
f 247 256 220
f 247 220 255
f 201 246 247
f 246 256 247
f 135 188 136
f 135 187 188
f 134 186 135
f 186 187 135
f 181 182 130
f 130 129 181
f 127 180 128
f 84 127 128
f 128 181 129
f 180 181 128
f 283 278 242
f 242 252 216
f 216 254 242
f 272 243 242
f 242 284 283
f 242 278 252
f 242 254 263
f 286 285 242
f 242 287 286
f 285 284 242
f 242 262 272
f 263 262 242
f 242 271 287
f 195 197 250
f 24 45 250
f 250 145 195
f 272 261 250
f 250 46 24
f 250 243 272
f 250 100 145
f 250 69 100
f 198 148 250
f 71 46 250
f 250 103 71
f 45 69 250
f 250 281 289
f 148 103 250
f 250 261 281
f 250 203 198
f 197 243 250
f 204 203 250
f 289 288 250
f 250 288 277
f 143 137 189
f 189 193 143
f 82 123 54
f 54 123 81
f 5 14 6
f 5 6 1
f 192 140 191
f 140 139 191
f 191 139 138
f 138 190 191
f 194 190 138
f 138 144 194
f 194 240 237
f 237 190 194
f 194 143 193
f 144 143 194
f 55 127 84
f 83 127 55
f 55 54 81
f 55 81 83
