v -0.011704 -0.001484 0.006946
v -0.011704 -0.001471 0.006889
v -0.010498 -0.012826 0.006946
v -0.011704 0.001505 0.006946
v -0.011704 -0.000745 0.006124
v -0.011704 -0.000726 0.006108
v -0.010192 -0.012826 0.004567
v -0.010323 -0.014290 0.006946
v -0.010489 0.013557 0.006946
v -0.010178 0.013557 0.004567
v -0.011704 0.000509 0.006264
v -0.011704 0.000356 0.006166
v -0.009885 0.013557 0.003099
v -0.009499 0.013557 0.002313
v -0.009501 0.012621 0.002313
v -0.009504 -0.012826 0.002309
v -0.009499 -0.013733 0.002314
v -0.009896 -0.012826 0.003099
v -0.009669 -0.014252 0.003165
v -0.009912 -0.014290 0.004567
v -0.009887 -0.015493 0.006946
v -0.010153 0.014725 0.006946
v -0.009599 0.014525 0.003099
v -0.011704 0.000372 0.006176
v -0.009444 0.014324 0.002349
v -0.008686 0.013557 0.002227
v -0.008688 -0.012826 0.002222
v -0.008640 -0.014252 0.002271
v -0.008123 -0.015095 0.002317
v -0.009099 -0.014713 0.002720
v -0.009465 -0.015070 0.003697
v -0.008688 -0.015502 0.004567
v -0.008688 -0.015919 0.006946
v -0.010060 0.014970 0.006946
v -0.008690 0.016176 0.006946
v -0.008043 0.015788 0.003705
v -0.008686 0.014454 0.002310
v -0.007221 0.014534 0.002280
v -0.007221 0.013557 0.002194
v -0.007221 -0.012826 0.002194
v -0.007221 -0.014290 0.002235
v 0.007437 -0.014293 0.002226
v 0.007437 -0.015105 0.002312
v 0.007437 -0.015474 0.003099
v -0.007221 -0.015448 0.003099
v -0.008640 -0.015261 0.003165
v -0.007221 -0.015741 0.004567
v -0.007221 -0.016069 0.006946
v -0.008518 0.016275 0.006946
v -0.007176 0.016310 0.006946
v 0.007424 0.016415 0.006946
v -0.007714 0.015788 0.003705
v -0.007223 0.015342 0.003170
v 0.007437 0.014540 0.002280
v 0.007437 0.013557 0.002194
v 0.007437 -0.012826 0.002194
v 0.008291 -0.015086 0.002322
v 0.008829 -0.014198 0.002288
v 0.008605 -0.015273 0.003099
v 0.007437 -0.015770 0.004567
v 0.007437 -0.016098 0.006946
v 0.007628 0.016405 0.006946
v 0.008216 0.015775 0.003751
v 0.007378 0.015358 0.003197
v 0.008523 0.014467 0.002309
v 0.008968 0.013586 0.002278
v 0.008986 -0.012785 0.002281
v 0.009672 -0.013644 0.002338
v 0.009338 -0.014697 0.003099
v 0.009849 -0.015531 0.006946
v 0.008929 -0.015837 0.006946
v 0.008625 -0.015935 0.006946
v 0.009590 -0.014971 0.004567
v 0.008686 0.016249 0.006946
v 0.009781 0.014490 0.003411
v 0.008859 0.014964 0.003092
v 0.009502 0.014092 0.002434
v 0.009679 0.013111 0.002334
v 0.009679 0.012714 0.002334
v 0.009827 -0.013965 0.003099
v 0.011496 0.000356 0.006901
v 0.011496 -0.000166 0.006946
v 0.009881 -0.012785 0.002981
v 0.010126 -0.015242 0.006946
v 0.010210 0.014900 0.006946
v 0.010587 0.013557 0.006946
v 0.010197 0.013557 0.004567
v 0.009886 0.013586 0.002993
v 0.011496 0.000359 0.006901
v 0.010197 -0.012826 0.004567
v 0.010481 -0.013988 0.006946
v 0.010401 -0.014322 0.006946
v 0.010585 -0.012826 0.006946
v 0.011496 0.000677 0.006946
f 57 68 69
f 82 68 81
f 57 69 59
f 80 69 68
f 52 36 51
f 91 80 90
f 39 40 27
f 14 6 13
f 15 6 14
f 51 36 50
f 36 49 50
f 35 49 36
f 70 59 73
f 73 59 69
f 83 82 90
f 90 80 83
f 68 82 83
f 83 80 68
f 58 68 57
f 40 56 42
f 42 58 57
f 56 58 42
f 88 94 89
f 89 78 88
f 86 94 87
f 87 94 88
f 90 82 93
f 93 91 90
f 70 73 84
f 69 80 84
f 84 73 69
f 68 58 67
f 67 58 56
f 63 52 51
f 63 64 52
f 36 52 53
f 52 64 53
f 53 38 36
f 13 6 12
f 13 12 10
f 4 9 10
f 16 27 17
f 17 6 16
f 16 6 15
f 41 27 40
f 40 42 41
f 41 42 29
f 13 10 23
f 34 35 23
f 23 35 36
f 17 29 30
f 30 31 17
f 29 31 30
f 57 59 44
f 43 42 57
f 29 42 43
f 57 44 43
f 43 44 29
f 80 91 92
f 92 84 80
f 68 67 79
f 81 68 79
f 75 87 88
f 75 74 85
f 63 74 75
f 75 85 86
f 86 87 75
f 64 63 54
f 54 55 39
f 39 38 54
f 54 53 64
f 38 53 54
f 26 38 39
f 39 27 26
f 15 14 26
f 26 16 15
f 27 16 26
f 2 3 1
f 8 3 7
f 7 3 6
f 22 10 9
f 34 23 22
f 22 23 10
f 4 10 11
f 28 41 29
f 27 41 28
f 28 29 17
f 17 27 28
f 25 26 14
f 25 14 13
f 13 23 25
f 25 23 36
f 71 59 70
f 71 72 59
f 48 33 47
f 60 72 61
f 59 72 60
f 60 44 59
f 62 63 51
f 62 74 63
f 88 78 77
f 77 75 88
f 6 3 5
f 3 2 5
f 17 31 19
f 24 10 12
f 24 11 10
f 38 26 37
f 26 25 37
f 36 38 37
f 37 25 36
f 32 33 21
f 21 31 32
f 32 47 33
f 29 44 45
f 45 60 47
f 44 60 45
f 66 56 55
f 66 67 56
f 78 79 66
f 66 79 67
f 65 54 63
f 55 54 65
f 65 66 55
f 65 77 78
f 78 66 65
f 8 7 20
f 7 19 20
f 21 8 20
f 20 31 21
f 20 19 31
f 17 19 18
f 18 19 7
f 18 6 17
f 18 7 6
f 46 31 29
f 46 32 31
f 29 45 46
f 47 32 46
f 46 45 47
f 76 65 63
f 77 65 76
f 63 75 76
f 75 77 76
f 39 55 56
f 56 40 39
f 89 94 82
f 89 82 81
f 79 89 81
f 78 89 79
f 61 48 60
f 48 47 60
f 62 94 86
f 62 93 82
f 62 4 1
f 21 33 62
f 62 35 34
f 70 84 62
f 62 92 91
f 51 50 62
f 62 8 21
f 82 94 62
f 1 3 62
f 86 85 62
f 62 9 4
f 62 50 49
f 49 35 62
f 34 22 62
f 91 93 62
f 62 71 70
f 62 3 8
f 61 72 62
f 62 48 61
f 84 92 62
f 85 74 62
f 62 22 9
f 72 71 62
f 62 33 48
f 1 4 24
f 24 2 1
f 24 12 6
f 4 11 24
f 6 5 24
f 24 5 2
