v 0.090069 -0.047211 -0.025266
v 0.090069 -0.053319 -0.025266
v 0.093873 -0.047347 -0.025266
v 0.089898 0.053329 -0.025269
v 0.079832 0.053329 -0.025269
v 0.077933 0.053319 -0.025269
v 0.077011 0.053204 -0.025269
v 0.076535 0.052880 -0.025269
v 0.076279 0.052536 -0.025269
v 0.076128 0.052254 -0.025269
v 0.075516 0.050636 -0.025269
v 0.075476 0.050281 -0.025269
v 0.075476 -0.050281 -0.025269
v 0.076131 -0.052254 -0.025269
v 0.076535 -0.052870 -0.025269
v 0.077933 -0.053319 -0.025269
v 0.079832 -0.053329 -0.025269
v 0.100699 -0.053319 -0.025266
v 0.100953 -0.047608 -0.025266
v 0.104497 0.000052 -0.055981
v 0.089898 0.052912 -0.026135
v 0.102595 -0.047681 -0.025266
v 0.102672 -0.047692 -0.025266
v 0.103990 -0.048454 -0.025266
v 0.104093 -0.048725 -0.025266
v 0.104491 -0.050270 -0.025266
v 0.077933 0.052912 -0.026135
v 0.076752 0.051377 -0.028748
v 0.076444 0.051701 -0.027532
v 0.076236 0.052275 -0.025642
v 0.075681 0.050281 -0.027532
v 0.075476 0.050281 -0.025633
v 0.075465 0.048381 -0.027532
v 0.075465 -0.048381 -0.027532
v 0.075476 -0.050281 -0.025633
v 0.076239 -0.052275 -0.025642
v 0.075684 -0.050281 -0.027532
v 0.076444 -0.051701 -0.027532
v 0.076752 -0.051377 -0.028748
v 0.077933 -0.052901 -0.026135
v 0.090066 -0.053329 -0.025269
v 0.102308 -0.053267 -0.025266
v 0.100699 -0.052901 -0.026131
v 0.104540 -0.006640 -0.055981
v 0.104093 0.000052 -0.057884
v 0.089898 0.052191 -0.027532
v 0.089898 0.052693 -0.026564
v 0.104517 -0.050270 -0.025629
v 0.104491 -0.050636 -0.025266
v 0.077933 0.052191 -0.027532
v 0.077933 0.051461 -0.028884
v 0.076940 0.049352 -0.032310
v 0.076612 0.049665 -0.031326
v 0.076268 0.050343 -0.029399
v 0.075849 0.048381 -0.031326
v 0.075607 0.046481 -0.033222
v 0.075502 0.048381 -0.029429
v 0.075456 0.046481 -0.031326
v 0.075462 -0.046481 -0.031326
v 0.075505 -0.048381 -0.029429
v 0.076268 -0.050343 -0.029399
v 0.075610 -0.046481 -0.033222
v 0.075852 -0.048381 -0.031326
v 0.076612 -0.049665 -0.031326
v 0.077933 -0.051461 -0.028884
v 0.077933 -0.052191 -0.027532
v 0.076940 -0.049352 -0.032310
v 0.090066 -0.052901 -0.026135
v 0.102595 -0.053256 -0.025266
v 0.100699 -0.052191 -0.027529
v 0.104531 -0.016120 -0.054085
v 0.104534 -0.008540 -0.055981
v 0.104093 -0.000950 -0.057884
v 0.103595 0.000052 -0.058869
v 0.089898 0.043275 -0.040108
v 0.089898 0.043568 -0.039797
v 0.089898 0.045029 -0.038162
v 0.089898 0.045363 -0.037762
v 0.089898 0.045885 -0.037108
v 0.089898 0.046115 -0.036814
v 0.089898 0.046773 -0.035971
v 0.089898 0.047065 -0.035595
v 0.089898 0.047566 -0.034940
v 0.089898 0.047786 -0.034646
v 0.089898 0.048725 -0.033278
v 0.089898 0.049362 -0.032330
v 0.089898 0.049801 -0.031636
v 0.089898 0.050907 -0.029832
v 0.089898 0.051294 -0.029178
v 0.089898 0.051461 -0.028884
v 0.104511 -0.048381 -0.029426
v 0.104511 -0.042680 -0.037015
v 0.104375 -0.050270 -0.027529
v 0.104079 -0.052223 -0.025266
v 0.077933 0.050907 -0.029832
v 0.077933 0.048725 -0.033278
v 0.077933 0.047786 -0.034646
v 0.076675 0.047660 -0.034488
v 0.077933 0.049999 -0.031326
v 0.077933 0.049362 -0.032330
v 0.076467 0.048328 -0.033054
v 0.076245 0.046522 -0.035119
v 0.076151 0.044706 -0.037124
v 0.075530 0.044580 -0.035119
v 0.075491 0.042691 -0.037015
v 0.075482 0.041553 -0.038155
v 0.075476 0.040780 -0.038915
v 0.075456 0.031290 -0.046502
v 0.075456 0.000042 -0.055984
v 0.075462 -0.031290 -0.046502
v 0.075476 -0.040780 -0.038915
v 0.075491 -0.042680 -0.037015
v 0.075533 -0.044580 -0.035119
v 0.076467 -0.048328 -0.033054
v 0.076151 -0.044706 -0.037124
v 0.076245 -0.046522 -0.035119
v 0.076675 -0.047660 -0.034488
v 0.090066 -0.051461 -0.028884
v 0.077933 -0.050907 -0.029832
v 0.090069 -0.050918 -0.029829
v 0.090066 -0.052191 -0.027532
v 0.077933 -0.048725 -0.033278
v 0.077933 -0.049372 -0.032330
v 0.077933 -0.049999 -0.031326
v 0.077933 -0.047065 -0.035595
v 0.077933 -0.047775 -0.034646
v 0.103353 -0.053121 -0.025266
v 0.102595 -0.052849 -0.026062
v 0.103666 -0.051335 -0.028672
v 0.100699 -0.051461 -0.028881
v 0.102595 -0.051429 -0.028824
v 0.102595 -0.052097 -0.027529
v 0.104483 -0.010430 -0.055981
v 0.104511 -0.036990 -0.042702
v 0.104523 -0.021820 -0.052188
v 0.104463 -0.018020 -0.054085
v 0.104033 -0.008540 -0.057557
v 0.104042 -0.006640 -0.057673
v 0.103595 -0.000950 -0.058869
v 0.104042 -0.004740 -0.057792
v 0.102595 0.000052 -0.058962
v 0.089898 0.012330 -0.057713
v 0.089898 0.013646 -0.057409
v 0.089898 0.014220 -0.057273
v 0.089898 0.015337 -0.056982
v 0.089898 0.016016 -0.056804
v 0.089898 0.016297 -0.056725
v 0.089898 0.017498 -0.056361
v 0.089898 0.018020 -0.056199
v 0.089898 0.019920 -0.055558
v 0.089898 0.021100 -0.055135
v 0.089898 0.021768 -0.054861
v 0.089898 0.023198 -0.054260
v 0.089898 0.023710 -0.054042
v 0.089898 0.025172 -0.053391
v 0.089898 0.026122 -0.052915
v 0.089898 0.027500 -0.052211
v 0.089898 0.028878 -0.051484
v 0.089898 0.029525 -0.051098
v 0.089898 0.029818 -0.050923
v 0.089898 0.032334 -0.049399
v 0.089898 0.032992 -0.048940
v 0.089898 0.034213 -0.048081
v 0.089898 0.034620 -0.047787
v 0.089898 0.035570 -0.047100
v 0.089898 0.036771 -0.046151
v 0.089898 0.037439 -0.045613
v 0.089898 0.039778 -0.043601
v 0.089898 0.041427 -0.042034
v 0.089898 0.041709 -0.041753
v 0.077933 0.043568 -0.039797
v 0.077933 0.041709 -0.041753
v 0.079832 0.045029 -0.038162
v 0.077933 0.045363 -0.037762
v 0.077933 0.046115 -0.036814
v 0.077933 0.047065 -0.035595
v 0.104426 -0.046481 -0.033222
v 0.104486 -0.044580 -0.035119
v 0.104121 -0.042806 -0.039037
v 0.104127 -0.040937 -0.040957
v 0.104016 -0.052233 -0.025586
v 0.103876 -0.051617 -0.027529
v 0.103993 -0.050302 -0.029353
v 0.104118 -0.048548 -0.031494
v 0.103990 -0.052452 -0.025266
v 0.076569 0.045927 -0.036563
v 0.076416 0.044309 -0.038155
v 0.076128 0.043724 -0.038162
v 0.076108 0.042847 -0.039080
v 0.076097 0.040968 -0.041003
v 0.075479 0.038890 -0.040815
v 0.075491 0.036990 -0.042705
v 0.075528 0.035080 -0.044602
v 0.075505 0.029400 -0.048398
v 0.075476 0.025600 -0.050291
v 0.075456 0.019920 -0.052188
v 0.075456 0.004740 -0.055984
v 0.076043 0.000042 -0.057881
v 0.075462 -0.006630 -0.055984
v 0.075462 -0.014220 -0.054088
v 0.075462 -0.019920 -0.052188
v 0.075508 -0.029400 -0.048398
v 0.075530 -0.035080 -0.044602
v 0.075491 -0.036990 -0.042705
v 0.075479 -0.038890 -0.040815
v 0.075479 -0.025600 -0.050291
v 0.076100 -0.040968 -0.041003
v 0.075835 -0.042785 -0.038155
v 0.076108 -0.042847 -0.039080
v 0.076416 -0.044309 -0.038155
v 0.076569 -0.045927 -0.036563
v 0.077933 -0.045363 -0.037762
v 0.077933 -0.046115 -0.036814
v 0.100699 -0.050918 -0.029829
v 0.079832 -0.050009 -0.031326
v 0.090066 -0.048161 -0.034104
v 0.090066 -0.048986 -0.032902
v 0.090066 -0.049372 -0.032330
v 0.090069 -0.047065 -0.035598
v 0.090069 -0.047775 -0.034650
v 0.103851 -0.052713 -0.025266
v 0.103299 -0.049299 -0.032241
v 0.103726 -0.047608 -0.034422
v 0.103839 -0.049686 -0.030979
v 0.102595 -0.050865 -0.029773
v 0.104375 -0.012330 -0.055981
v 0.103985 -0.010430 -0.057418
v 0.104121 -0.039016 -0.042827
v 0.104489 -0.035101 -0.044598
v 0.104508 -0.029411 -0.048395
v 0.104517 -0.025610 -0.050291
v 0.104397 -0.027730 -0.050070
v 0.104383 -0.023721 -0.052188
v 0.104247 -0.019920 -0.054085
v 0.103965 -0.018020 -0.055522
v 0.103563 -0.002286 -0.058846
v 0.102595 -0.000950 -0.058962
v 0.100699 0.000052 -0.059021
v 0.089898 0.006630 -0.058638
v 0.089898 0.007945 -0.058469
v 0.089898 0.008530 -0.058393
v 0.089898 0.010419 -0.058083
v 0.077933 0.012330 -0.057713
v 0.077933 0.014220 -0.057273
v 0.077933 0.015337 -0.056982
v 0.077933 0.016297 -0.056725
v 0.077933 0.018020 -0.056199
v 0.077933 0.019920 -0.055558
v 0.077933 0.021100 -0.055135
v 0.077933 0.022060 -0.054739
v 0.077933 0.023710 -0.054042
v 0.077933 0.025172 -0.053391
v 0.077933 0.026122 -0.052915
v 0.077933 0.027500 -0.052211
v 0.077933 0.028878 -0.051484
v 0.079832 0.029818 -0.050923
v 0.077933 0.032334 -0.049399
v 0.077933 0.033284 -0.048732
v 0.077933 0.034620 -0.047787
v 0.077933 0.035570 -0.047100
v 0.077933 0.036771 -0.046151
v 0.077933 0.037711 -0.045375
v 0.077933 0.038817 -0.044427
v 0.077933 0.039778 -0.043601
v 0.077933 0.040780 -0.042649
v 0.076498 0.042315 -0.040495
v 0.076518 0.044152 -0.038555
v 0.077933 0.044413 -0.038849
v 0.076501 0.040467 -0.042352
v 0.077933 0.045019 -0.038162
v 0.104007 -0.046491 -0.035082
v 0.104084 -0.044664 -0.037078
v 0.103928 -0.048015 -0.033222
v 0.103851 -0.044090 -0.038482
v 0.103865 -0.042263 -0.040425
v 0.103862 -0.040404 -0.042282
v 0.076108 0.039057 -0.042874
v 0.076151 0.037095 -0.044721
v 0.075616 0.033190 -0.046502
v 0.075673 0.027500 -0.050291
v 0.075673 0.023710 -0.052188
v 0.075491 0.021810 -0.052188
v 0.075468 0.016120 -0.054088
v 0.075456 0.014220 -0.054088
v 0.075462 0.006630 -0.055984
v 0.076043 0.000940 -0.057881
v 0.076404 0.000042 -0.058373
v 0.076809 -0.000940 -0.058922
v 0.076046 -0.000940 -0.057881
v 0.075479 -0.008530 -0.055984
v 0.075471 -0.016120 -0.054088
v 0.075619 -0.033190 -0.046502
v 0.075673 -0.027500 -0.050291
v 0.076151 -0.037095 -0.044721
v 0.076108 -0.039057 -0.042874
v 0.075491 -0.021810 -0.052188
v 0.075676 -0.023710 -0.052188
v 0.076501 -0.040456 -0.042352
v 0.076498 -0.042315 -0.040495
v 0.076518 -0.044152 -0.038555
v 0.077227 -0.044768 -0.038155
v 0.077933 -0.045019 -0.038162
v 0.079832 -0.045029 -0.038162
v 0.100699 -0.045363 -0.037762
v 0.100699 -0.046115 -0.036814
v 0.090066 -0.050009 -0.031326
v 0.100699 -0.049999 -0.031326
v 0.102032 -0.049352 -0.032310
v 0.100699 -0.047775 -0.034650
v 0.100699 -0.048725 -0.033282
v 0.100699 -0.049362 -0.032333
v 0.100699 -0.047065 -0.035598
v 0.102638 -0.049811 -0.031494
v 0.102638 -0.048798 -0.033054
v 0.102595 -0.047744 -0.034597
v 0.102595 -0.047023 -0.035545
v 0.102595 -0.046073 -0.036758
v 0.102595 -0.045322 -0.037706
v 0.103805 -0.045865 -0.036493
v 0.103879 -0.012330 -0.057250
v 0.103854 -0.038462 -0.044096
v 0.104087 -0.037053 -0.044674
v 0.104420 -0.033200 -0.046495
v 0.104380 -0.027500 -0.050291
v 0.103885 -0.023721 -0.053510
v 0.104022 -0.025579 -0.052247
v 0.103748 -0.019920 -0.055228
v 0.103720 -0.013886 -0.057088
v 0.103395 -0.003550 -0.058813
v 0.102695 -0.002892 -0.058889
v 0.100699 -0.000950 -0.059021
v 0.089898 0.000940 -0.059021
v 0.089898 0.002840 -0.058948
v 0.089898 0.004239 -0.058872
v 0.089898 0.005199 -0.058786
v 0.089898 0.006191 -0.058684
v 0.079832 0.006630 -0.058638
v 0.077933 0.008530 -0.058393
v 0.077933 0.010419 -0.058083
v 0.076925 0.015285 -0.056966
v 0.076863 0.021027 -0.055102
v 0.076720 0.024994 -0.053305
v 0.076735 0.028732 -0.051402
v 0.076920 0.032292 -0.049379
v 0.077933 0.031290 -0.050030
v 0.076686 0.034464 -0.047675
v 0.076569 0.036531 -0.045950
v 0.076515 0.038525 -0.044169
v 0.102595 -0.044361 -0.038793
v 0.102595 -0.043515 -0.039741
v 0.102595 -0.042576 -0.040752
v 0.102595 -0.041678 -0.041701
v 0.102595 -0.039736 -0.043544
v 0.076251 0.035080 -0.046551
v 0.075838 0.031290 -0.048398
v 0.076439 0.027500 -0.051725
v 0.076231 0.025621 -0.052290
v 0.076262 0.029369 -0.050354
v 0.076439 0.023710 -0.053589
v 0.075844 0.019920 -0.054088
v 0.075562 0.018020 -0.054088
v 0.075542 0.010419 -0.055984
v 0.075476 0.008530 -0.055984
v 0.076108 0.002840 -0.057881
v 0.076809 0.000940 -0.058922
v 0.077933 -0.000940 -0.059018
v 0.076868 -0.002829 -0.058889
v 0.076108 -0.002829 -0.057881
v 0.075542 -0.010419 -0.055984
v 0.075562 -0.018010 -0.054088
v 0.075838 -0.031290 -0.048398
v 0.076251 -0.035101 -0.046551
v 0.076231 -0.025621 -0.052290
v 0.076439 -0.027500 -0.051725
v 0.076265 -0.029369 -0.050354
v 0.076518 -0.038525 -0.044169
v 0.076569 -0.036531 -0.045950
v 0.075846 -0.019920 -0.054088
v 0.076439 -0.023710 -0.053589
v 0.077933 -0.039778 -0.043601
v 0.077933 -0.041730 -0.041753
v 0.077933 -0.043568 -0.039797
v 0.090066 -0.045029 -0.038162
v 0.100699 -0.044413 -0.038846
v 0.103805 -0.036458 -0.045880
v 0.104005 -0.035059 -0.046505
v 0.103922 -0.033200 -0.048045
v 0.104116 -0.031488 -0.048580
v 0.104335 -0.027730 -0.050291
v 0.103896 -0.027730 -0.051484
v 0.103882 -0.027500 -0.051646
v 0.103580 -0.020933 -0.055066
v 0.103686 -0.024921 -0.053265
v 0.103444 -0.015149 -0.056923
v 0.102595 -0.010430 -0.057990
v 0.102595 -0.008540 -0.058284
v 0.102595 -0.006640 -0.058525
v 0.102695 -0.004740 -0.058740
v 0.102131 -0.004103 -0.058856
v 0.100699 -0.002840 -0.058948
v 0.090069 -0.000950 -0.059021
v 0.079832 0.000940 -0.059021
v 0.077933 0.002840 -0.058948
v 0.077933 0.004239 -0.058872
v 0.079832 0.005199 -0.058786
v 0.077933 0.005199 -0.058783
v 0.077933 0.006630 -0.058631
v 0.076931 0.004093 -0.058859
v 0.076712 0.014220 -0.057105
v 0.076607 0.019920 -0.055297
v 0.076601 0.031290 -0.049687
v 0.076461 0.033044 -0.048345
v 0.100699 -0.043568 -0.039794
v 0.100699 -0.041730 -0.041753
v 0.100699 -0.039788 -0.043597
v 0.100699 -0.037731 -0.045372
v 0.102595 -0.038776 -0.044370
v 0.076325 0.018020 -0.055618
v 0.075949 0.014220 -0.055984
v 0.075676 0.012330 -0.055984
v 0.076239 0.008530 -0.057660
v 0.076222 0.006630 -0.057779
v 0.076868 0.002840 -0.058889
v 0.077933 0.000940 -0.059018
v 0.079832 -0.000940 -0.059021
v 0.077933 -0.002829 -0.058948
v 0.076931 -0.004093 -0.058859
v 0.076239 -0.008530 -0.057660
v 0.076222 -0.006630 -0.057779
v 0.075678 -0.012330 -0.055984
v 0.076325 -0.018010 -0.055618
v 0.075949 -0.014220 -0.055984
v 0.076461 -0.033033 -0.048345
v 0.076686 -0.034464 -0.047675
v 0.076737 -0.028732 -0.051402
v 0.076601 -0.031290 -0.049687
v 0.076723 -0.024994 -0.053305
v 0.077933 -0.036771 -0.046151
v 0.077933 -0.037711 -0.045375
v 0.077933 -0.038817 -0.044427
v 0.076609 -0.019920 -0.055297
v 0.076866 -0.021027 -0.055102
v 0.090069 -0.039788 -0.043597
v 0.090069 -0.038170 -0.044998
v 0.090066 -0.043568 -0.039797
v 0.102595 -0.037669 -0.045319
v 0.103717 -0.034401 -0.047625
v 0.103834 -0.030977 -0.049697
v 0.103996 -0.029337 -0.050315
v 0.103677 -0.028669 -0.051359
v 0.102595 -0.025120 -0.053358
v 0.102595 -0.023721 -0.053962
v 0.102595 -0.021037 -0.055109
v 0.102595 -0.019920 -0.055489
v 0.102595 -0.018020 -0.056107
v 0.102726 -0.016005 -0.056715
v 0.102180 -0.015295 -0.056963
v 0.102726 -0.014397 -0.057161
v 0.102595 -0.012330 -0.057640
v 0.100699 -0.010430 -0.058086
v 0.100699 -0.008540 -0.058397
v 0.100699 -0.006640 -0.058641
v 0.100699 -0.005199 -0.058786
v 0.100699 -0.004260 -0.058869
v 0.090069 -0.003404 -0.058922
v 0.090069 -0.002840 -0.058948
v 0.076305 0.010419 -0.057504
v 0.076439 0.012330 -0.057323
v 0.090069 -0.037731 -0.045372
v 0.090066 -0.037157 -0.045844
v 0.100699 -0.036781 -0.046148
v 0.102595 -0.036729 -0.046098
v 0.077933 -0.004249 -0.058872
v 0.077933 -0.005199 -0.058783
v 0.077933 -0.006630 -0.058631
v 0.077933 -0.008530 -0.058390
v 0.077933 -0.010419 -0.058083
v 0.076712 -0.014220 -0.057105
v 0.076439 -0.012330 -0.057323
v 0.076305 -0.010419 -0.057504
v 0.076920 -0.032292 -0.049379
v 0.077933 -0.035570 -0.047100
v 0.077933 -0.027500 -0.052211
v 0.077933 -0.028878 -0.051484
v 0.077933 -0.025172 -0.053391
v 0.077933 -0.026111 -0.052915
v 0.090069 -0.036781 -0.046148
v 0.076925 -0.015285 -0.056966
v 0.077933 -0.019920 -0.055558
v 0.077933 -0.021100 -0.055135
v 0.077933 -0.022060 -0.054739
v 0.077933 -0.023710 -0.054042
v 0.077933 -0.018010 -0.056199
v 0.103478 -0.032240 -0.049333
v 0.102595 -0.035529 -0.047043
v 0.102595 -0.028826 -0.051451
v 0.100699 -0.023721 -0.054045
v 0.101018 -0.027730 -0.052082
v 0.100699 -0.026122 -0.052915
v 0.100699 -0.025182 -0.053394
v 0.100699 -0.022060 -0.054739
v 0.100699 -0.021110 -0.055135
v 0.100699 -0.019920 -0.055558
v 0.100699 -0.018020 -0.056199
v 0.100699 -0.016308 -0.056728
v 0.100699 -0.014230 -0.057276
v 0.100699 -0.015358 -0.056982
v 0.100699 -0.012330 -0.057713
v 0.090069 -0.010430 -0.058086
v 0.090069 -0.008540 -0.058397
v 0.090069 -0.007392 -0.058545
v 0.090069 -0.006640 -0.058641
v 0.090069 -0.005774 -0.058730
v 0.079832 -0.005199 -0.058786
v 0.090066 -0.004249 -0.058872
v 0.100699 -0.035581 -0.047096
v 0.079832 -0.006630 -0.058638
v 0.079832 -0.008530 -0.058393
v 0.077933 -0.012330 -0.057713
v 0.077933 -0.032334 -0.049399
v 0.077933 -0.034620 -0.047787
v 0.077933 -0.031290 -0.050030
v 0.090069 -0.034631 -0.047787
v 0.090069 -0.035581 -0.047096
v 0.090069 -0.025558 -0.053206
v 0.100699 -0.027500 -0.052211
v 0.090069 -0.028053 -0.051927
v 0.090069 -0.029254 -0.051263
v 0.090069 -0.029828 -0.050923
v 0.079832 -0.029818 -0.050923
v 0.100699 -0.028878 -0.051484
v 0.090069 -0.025182 -0.053394
v 0.077933 -0.014220 -0.057273
v 0.077933 -0.015337 -0.056982
v 0.077933 -0.016297 -0.056725
v 0.090069 -0.021110 -0.055135
v 0.090069 -0.018782 -0.055945
v 0.090069 -0.023721 -0.054045
v 0.090069 -0.018020 -0.056199
v 0.090069 -0.016308 -0.056728
v 0.102595 -0.034578 -0.047744
v 0.102211 -0.032302 -0.049379
v 0.100699 -0.029828 -0.050923
v 0.100699 -0.027730 -0.052092
v 0.090069 -0.014679 -0.057161
v 0.090069 -0.014230 -0.057276
v 0.090069 -0.015358 -0.056982
v 0.100699 -0.034631 -0.047787
v 0.090069 -0.031300 -0.050030
v 0.090069 -0.032334 -0.049403
v 0.090066 -0.033816 -0.048362
v 0.100699 -0.033284 -0.048735
v 0.100699 -0.032334 -0.049403
v 0.100699 -0.031300 -0.050030
f 44 20 48
f 26 20 4
f 49 48 26
f 26 48 20
f 32 57 58
f 58 33 32
f 32 33 12
f 4 24 25
f 25 26 4
f 36 15 14
f 2 14 15
f 13 14 2
f 7 1 6
f 12 1 11
f 1 10 11
f 11 32 12
f 8 1 7
f 7 28 8
f 31 56 57
f 31 11 10
f 57 32 31
f 32 11 31
f 23 24 4
f 4 22 23
f 19 22 4
f 17 2 16
f 16 2 15
f 7 6 27
f 27 28 7
f 50 28 27
f 5 1 4
f 5 6 1
f 5 27 6
f 51 28 50
f 4 20 21
f 99 88 87
f 87 86 99
f 9 10 1
f 1 8 9
f 4 1 3
f 3 19 4
f 58 109 59
f 462 396 461
f 473 474 427
f 199 109 198
f 138 140 73
f 169 74 168
f 170 74 169
f 172 170 169
f 75 74 170
f 75 170 172
f 75 171 76
f 172 171 75
f 45 75 76
f 74 75 45
f 84 85 45
f 45 85 86
f 45 20 44
f 44 73 45
f 86 87 45
f 45 87 88
f 45 90 46
f 45 46 20
f 69 129 127
f 129 221 127
f 132 131 129
f 225 131 214
f 91 48 49
f 131 132 70
f 453 392 452
f 551 550 553
f 95 88 99
f 264 347 348
f 99 86 100
f 269 264 348
f 20 46 47
f 47 21 20
f 27 21 47
f 47 46 50
f 50 27 47
f 30 31 10
f 10 9 30
f 29 8 28
f 29 9 8
f 29 30 9
f 54 31 29
f 31 30 29
f 429 428 368
f 36 14 37
f 34 33 58
f 58 59 34
f 461 396 395
f 394 459 395
f 396 329 395
f 236 329 330
f 236 138 137
f 236 320 329
f 140 138 236
f 463 462 513
f 399 462 463
f 330 329 399
f 427 476 477
f 477 478 427
f 511 462 461
f 367 429 368
f 427 428 367
f 428 429 367
f 367 366 427
f 199 198 289
f 193 108 192
f 330 331 237
f 237 236 330
f 77 45 76
f 78 45 77
f 175 176 81
f 308 225 214
f 313 225 308
f 128 129 69
f 128 132 129
f 69 70 128
f 128 70 132
f 93 91 49
f 177 91 93
f 222 225 313
f 129 131 222
f 131 225 222
f 313 308 222
f 43 70 69
f 134 229 230
f 489 536 490
f 489 490 442
f 485 437 442
f 379 442 437
f 550 551 520
f 392 325 393
f 551 548 523
f 553 542 552
f 542 548 552
f 552 551 553
f 552 548 551
f 51 90 89
f 89 95 51
f 88 95 89
f 89 45 88
f 90 45 89
f 262 347 263
f 347 264 263
f 168 74 167
f 262 263 167
f 167 264 168
f 167 263 264
f 74 162 163
f 99 100 52
f 52 95 99
f 28 51 52
f 51 95 52
f 97 52 96
f 96 52 100
f 53 101 54
f 54 29 53
f 53 29 28
f 28 52 53
f 54 101 55
f 55 31 54
f 56 31 55
f 171 267 268
f 268 173 171
f 278 347 354
f 348 347 278
f 354 279 278
f 279 193 278
f 265 269 172
f 264 269 265
f 172 169 265
f 265 169 168
f 168 264 265
f 266 269 190
f 172 269 266
f 266 171 172
f 266 267 171
f 370 432 431
f 297 296 370
f 427 478 479
f 479 478 431
f 431 432 479
f 206 296 297
f 219 125 213
f 302 301 382
f 380 381 298
f 213 125 117
f 117 212 213
f 328 395 329
f 329 320 328
f 394 395 328
f 328 392 394
f 235 320 226
f 235 328 320
f 234 325 235
f 227 236 137
f 320 236 227
f 226 320 227
f 137 133 227
f 227 133 226
f 398 399 329
f 396 462 397
f 462 399 397
f 399 398 397
f 397 329 396
f 397 398 329
f 488 477 519
f 478 477 488
f 458 459 394
f 458 508 459
f 510 511 461
f 461 395 460
f 460 395 459
f 459 508 460
f 363 364 286
f 286 285 363
f 197 285 286
f 366 367 288
f 288 289 198
f 288 367 368
f 368 289 288
f 236 237 139
f 73 140 139
f 140 236 139
f 426 366 425
f 426 473 427
f 427 366 426
f 401 426 425
f 466 426 401
f 400 331 330
f 330 399 400
f 84 45 83
f 83 97 84
f 83 176 97
f 79 45 78
f 78 174 79
f 79 174 175
f 307 308 214
f 311 308 307
f 94 93 49
f 319 271 223
f 129 222 223
f 273 271 177
f 273 223 271
f 314 222 308
f 17 16 40
f 41 43 18
f 70 43 121
f 42 43 69
f 18 43 42
f 233 325 234
f 230 229 323
f 72 73 44
f 72 138 73
f 137 138 72
f 72 133 137
f 48 91 92
f 485 442 492
f 492 538 485
f 441 379 431
f 442 379 441
f 441 488 442
f 431 478 441
f 478 488 441
f 374 379 437
f 521 482 481
f 481 520 521
f 521 523 482
f 521 520 551
f 551 523 521
f 486 437 485
f 486 483 437
f 437 483 435
f 435 483 484
f 435 484 481
f 435 374 437
f 481 436 435
f 436 374 435
f 550 520 549
f 520 529 549
f 484 529 530
f 530 529 520
f 394 392 455
f 457 458 394
f 541 542 494
f 541 548 542
f 354 347 346
f 343 255 254
f 344 255 343
f 74 165 166
f 166 167 74
f 164 165 74
f 74 163 164
f 163 259 164
f 154 155 74
f 156 157 74
f 74 155 156
f 161 162 74
f 74 160 161
f 101 53 98
f 98 53 52
f 175 174 98
f 98 176 175
f 97 176 98
f 98 52 97
f 102 55 101
f 101 98 102
f 56 55 102
f 102 103 56
f 270 174 173
f 173 268 270
f 191 190 192
f 192 108 191
f 56 103 104
f 57 56 104
f 58 57 104
f 104 105 58
f 277 269 348
f 348 278 277
f 190 269 277
f 277 278 193
f 192 190 277
f 277 193 192
f 189 266 190
f 267 266 189
f 190 105 189
f 105 104 189
f 378 370 431
f 297 370 378
f 431 379 378
f 378 379 297
f 432 370 430
f 430 479 432
f 291 370 296
f 296 206 291
f 293 206 297
f 203 204 110
f 110 204 205
f 205 111 110
f 110 111 59
f 110 59 109
f 295 204 203
f 35 60 37
f 35 14 13
f 35 37 14
f 59 60 35
f 13 34 35
f 35 34 59
f 39 65 66
f 66 40 39
f 39 16 15
f 39 40 16
f 126 216 122
f 216 217 122
f 122 217 123
f 327 325 392
f 327 235 325
f 392 328 327
f 328 235 327
f 489 442 493
f 442 488 493
f 493 488 535
f 493 535 540
f 540 539 493
f 519 546 533
f 533 488 519
f 545 533 546
f 518 477 476
f 518 510 477
f 476 517 518
f 511 510 518
f 518 517 511
f 519 477 509
f 477 510 509
f 474 517 475
f 475 517 476
f 427 474 475
f 475 476 427
f 514 517 474
f 463 513 514
f 474 473 514
f 462 511 512
f 511 517 512
f 512 513 462
f 512 514 513
f 517 514 512
f 198 286 287
f 287 288 198
f 151 74 150
f 74 149 150
f 74 146 147
f 141 241 242
f 141 142 74
f 242 142 141
f 335 238 334
f 464 399 463
f 464 400 399
f 463 515 464
f 466 400 465
f 465 515 473
f 473 426 465
f 465 426 466
f 465 464 515
f 400 464 465
f 45 81 82
f 82 83 45
f 82 81 176
f 176 83 82
f 80 81 45
f 45 79 80
f 175 81 80
f 80 79 175
f 123 217 218
f 310 308 311
f 311 218 310
f 310 218 217
f 216 309 310
f 310 217 216
f 220 216 126
f 220 309 216
f 182 221 129
f 177 93 184
f 184 273 177
f 315 314 308
f 308 310 315
f 315 310 309
f 315 309 312
f 315 312 316
f 222 314 315
f 316 223 315
f 315 223 222
f 120 65 119
f 119 215 120
f 70 121 130
f 214 131 130
f 131 70 130
f 68 121 43
f 43 41 68
f 133 72 71
f 71 72 44
f 71 92 134
f 44 48 71
f 48 92 71
f 178 91 177
f 178 92 91
f 491 442 490
f 491 492 442
f 538 492 491
f 491 490 536
f 375 374 436
f 371 293 375
f 375 293 374
f 297 379 373
f 379 374 373
f 373 293 297
f 374 293 373
f 554 542 553
f 494 542 496
f 450 494 496
f 531 498 496
f 484 483 527
f 527 531 484
f 528 529 484
f 484 531 528
f 484 530 522
f 522 530 520
f 481 484 522
f 522 520 481
f 504 455 454
f 454 503 504
f 453 503 454
f 454 392 453
f 454 455 392
f 507 457 505
f 505 455 504
f 505 457 455
f 394 455 456
f 456 457 394
f 455 457 456
f 508 458 506
f 458 457 506
f 506 457 507
f 507 545 506
f 506 545 546
f 504 503 537
f 537 503 489
f 537 539 504
f 489 493 537
f 537 493 539
f 502 503 453
f 453 501 502
f 319 223 318
f 414 415 352
f 352 276 275
f 386 385 447
f 443 381 380
f 495 494 447
f 495 541 494
f 482 523 524
f 354 346 412
f 74 157 158
f 356 342 359
f 343 342 356
f 344 346 260
f 260 259 344
f 152 74 151
f 256 255 345
f 345 255 344
f 257 345 344
f 162 161 257
f 256 345 257
f 194 195 108
f 194 193 279
f 108 193 194
f 363 285 283
f 361 283 282
f 282 283 195
f 186 102 98
f 186 98 174
f 267 187 186
f 174 270 186
f 103 102 186
f 186 187 103
f 186 268 267
f 186 270 268
f 106 105 190
f 58 105 106
f 480 430 428
f 479 430 480
f 480 428 427
f 427 479 480
f 290 291 199
f 199 289 290
f 290 289 368
f 206 293 202
f 203 110 202
f 202 110 206
f 199 291 200
f 200 109 199
f 294 295 203
f 59 111 112
f 60 113 62
f 37 60 62
f 36 37 38
f 37 61 38
f 38 15 36
f 38 39 15
f 124 215 119
f 123 215 124
f 67 122 123
f 123 124 67
f 126 122 67
f 67 124 119
f 67 125 126
f 67 117 125
f 119 65 67
f 65 39 67
f 117 67 64
f 64 67 39
f 64 38 61
f 39 38 64
f 540 535 534
f 533 545 534
f 535 488 534
f 488 533 534
f 148 149 74
f 74 147 148
f 145 146 74
f 74 144 145
f 74 142 143
f 143 144 74
f 143 244 144
f 241 141 240
f 239 141 238
f 239 240 141
f 333 238 332
f 333 334 238
f 306 307 214
f 311 307 306
f 306 218 311
f 221 182 185
f 224 182 129
f 129 223 224
f 223 273 224
f 118 130 121
f 214 130 118
f 231 134 230
f 325 233 326
f 324 326 233
f 134 92 180
f 180 275 276
f 529 528 543
f 543 528 531
f 542 554 543
f 543 496 542
f 531 496 543
f 544 498 531
f 531 527 544
f 303 212 302
f 302 382 303
f 304 383 384
f 384 318 304
f 317 223 316
f 317 318 223
f 317 304 318
f 384 383 413
f 447 494 448
f 448 494 450
f 450 390 448
f 390 449 448
f 323 386 387
f 387 448 449
f 387 386 447
f 447 448 387
f 444 440 439
f 415 443 444
f 380 440 444
f 444 443 380
f 352 415 353
f 353 276 352
f 548 541 516
f 541 495 516
f 411 346 344
f 411 412 346
f 344 343 411
f 358 412 411
f 411 356 358
f 343 356 411
f 159 158 255
f 256 160 159
f 159 255 256
f 159 160 74
f 74 158 159
f 357 356 359
f 261 260 346
f 261 347 262
f 261 346 347
f 262 167 261
f 167 166 261
f 153 154 74
f 74 152 153
f 153 152 250
f 344 259 258
f 258 257 344
f 258 259 163
f 258 163 162
f 162 257 258
f 108 195 196
f 195 283 196
f 359 418 360
f 360 418 361
f 410 418 359
f 364 421 422
f 361 420 362
f 363 283 362
f 362 283 361
f 362 420 421
f 362 364 363
f 362 421 364
f 467 420 468
f 421 420 467
f 419 418 468
f 468 420 419
f 361 418 419
f 419 420 361
f 421 467 408
f 408 467 468
f 103 187 188
f 188 104 103
f 188 189 104
f 267 189 188
f 188 187 267
f 190 191 107
f 107 106 190
f 58 106 107
f 107 108 58
f 107 191 108
f 370 291 369
f 291 290 369
f 369 430 370
f 428 430 369
f 368 428 369
f 369 290 368
f 203 202 292
f 292 294 203
f 292 293 371
f 292 202 293
f 201 110 109
f 109 200 201
f 201 200 291
f 201 291 206
f 206 110 201
f 372 292 371
f 294 292 372
f 207 112 111
f 207 295 298
f 207 111 205
f 205 204 207
f 204 295 207
f 63 61 37
f 37 62 63
f 540 534 547
f 547 534 545
f 547 545 507
f 240 239 337
f 336 238 335
f 336 239 238
f 336 337 239
f 94 185 181
f 181 185 182
f 93 94 181
f 181 182 93
f 93 182 183
f 182 224 183
f 183 184 93
f 273 184 183
f 183 224 273
f 136 233 234
f 234 235 136
f 136 235 226
f 226 133 136
f 133 71 136
f 135 71 134
f 134 231 135
f 135 136 71
f 233 136 135
f 389 449 390
f 390 324 389
f 389 324 323
f 391 324 390
f 326 324 391
f 325 326 391
f 391 393 325
f 450 393 391
f 391 390 450
f 232 231 230
f 230 323 232
f 323 324 232
f 232 135 231
f 232 324 233
f 233 135 232
f 177 271 272
f 272 178 177
f 272 271 319
f 229 134 228
f 134 180 228
f 228 180 276
f 451 496 498
f 498 499 451
f 451 452 392
f 392 393 451
f 451 393 450
f 450 496 451
f 452 451 497
f 453 452 497
f 497 501 453
f 526 499 498
f 498 544 526
f 526 527 483
f 526 544 527
f 349 318 384
f 274 272 319
f 274 349 350
f 319 318 274
f 318 349 274
f 304 317 305
f 316 312 305
f 305 317 316
f 414 413 445
f 445 413 383
f 351 414 352
f 350 413 351
f 351 413 414
f 352 275 351
f 275 274 351
f 351 274 350
f 323 387 388
f 388 387 449
f 388 389 323
f 449 389 388
f 415 444 416
f 416 353 415
f 251 153 250
f 154 153 251
f 253 252 342
f 253 343 254
f 253 342 343
f 355 412 358
f 355 279 354
f 354 412 355
f 284 196 283
f 284 285 197
f 284 283 285
f 341 251 250
f 359 342 341
f 341 410 359
f 252 251 341
f 342 252 341
f 468 418 409
f 418 410 409
f 409 408 468
f 409 339 408
f 424 408 403
f 403 402 424
f 406 408 407
f 407 337 406
f 423 422 421
f 421 408 423
f 364 422 423
f 423 408 424
f 407 408 338
f 408 339 338
f 338 337 407
f 241 240 338
f 240 337 338
f 433 372 371
f 433 375 436
f 371 375 433
f 298 295 376
f 295 294 376
f 380 298 376
f 116 63 62
f 178 272 179
f 92 178 179
f 179 180 92
f 275 180 179
f 179 274 275
f 272 274 179
f 322 323 229
f 229 228 322
f 322 386 323
f 385 386 322
f 485 538 532
f 525 526 483
f 499 526 525
f 483 486 525
f 525 486 485
f 485 532 525
f 471 416 470
f 447 385 446
f 195 194 280
f 280 355 358
f 280 194 279
f 279 355 280
f 358 356 280
f 356 357 280
f 149 148 247
f 243 143 142
f 244 143 243
f 404 403 408
f 408 406 404
f 405 406 337
f 405 336 335
f 337 336 405
f 405 404 406
f 365 286 364
f 364 423 365
f 365 287 286
f 288 287 365
f 365 423 424
f 372 433 434
f 434 436 481
f 434 433 436
f 481 482 434
f 482 438 434
f 113 112 208
f 208 209 113
f 112 207 208
f 207 209 208
f 115 62 113
f 113 209 115
f 115 116 62
f 117 64 114
f 114 116 117
f 63 116 114
f 114 64 61
f 61 63 114
f 321 228 276
f 321 322 228
f 385 322 321
f 321 353 385
f 276 353 321
f 500 451 499
f 500 497 451
f 499 525 500
f 500 525 532
f 487 470 438
f 471 470 487
f 487 438 482
f 482 524 487
f 439 438 469
f 438 470 469
f 469 470 416
f 469 444 439
f 469 416 444
f 353 416 417
f 416 446 417
f 385 353 417
f 417 446 385
f 472 495 447
f 447 446 472
f 471 516 472
f 472 516 495
f 472 416 471
f 472 446 416
f 281 282 195
f 195 280 281
f 361 282 281
f 281 360 361
f 359 360 281
f 281 357 359
f 281 280 357
f 244 243 340
f 341 247 340
f 340 243 339
f 339 409 340
f 410 341 340
f 340 409 410
f 249 341 250
f 249 152 151
f 250 152 249
f 372 434 377
f 294 372 377
f 377 376 294
f 439 440 377
f 377 438 439
f 377 434 438
f 377 440 380
f 380 376 377
f 117 116 211
f 116 115 211
f 212 117 211
f 211 301 302
f 302 212 211
f 246 340 247
f 246 147 146
f 246 148 147
f 246 247 148
f 248 247 341
f 341 249 248
f 301 211 300
f 381 382 300
f 300 382 301
f 245 246 146
f 146 145 245
f 244 340 245
f 340 246 245
f 299 298 381
f 381 300 299
f 299 300 209
f 299 207 298
f 299 209 207
f 210 115 209
f 209 300 210
f 210 211 115
f 210 300 211
f 12 13 2
f 2 1 12
f 27 5 21
f 21 5 4
f 50 46 90
f 90 51 50
f 34 13 12
f 12 33 34
f 171 173 77
f 76 171 77
f 77 174 78
f 173 174 77
f 96 85 84
f 84 97 96
f 86 85 96
f 96 100 86
f 286 109 197
f 286 198 109
f 402 366 424
f 425 366 402
f 74 45 139
f 139 45 73
f 401 238 331
f 425 402 401
f 332 238 401
f 401 402 332
f 400 401 331
f 466 401 400
f 41 18 2
f 41 2 17
f 509 460 508
f 509 508 519
f 509 510 461
f 461 460 509
f 473 515 514
f 514 515 463
f 74 139 141
f 141 139 237
f 331 238 141
f 141 237 331
f 125 219 220
f 126 125 220
f 220 219 312
f 312 309 220
f 66 121 68
f 68 40 66
f 68 41 17
f 17 40 68
f 550 549 554
f 553 550 554
f 504 539 505
f 505 539 540
f 519 508 506
f 506 546 519
f 489 503 502
f 502 536 489
f 502 491 536
f 501 491 502
f 415 414 443
f 443 414 381
f 254 255 158
f 158 157 254
f 260 164 259
f 165 164 260
f 257 160 256
f 257 161 160
f 112 113 60
f 112 60 59
f 306 120 215
f 214 120 306
f 123 218 306
f 306 215 123
f 185 94 49
f 49 26 185
f 185 25 24
f 1 2 185
f 26 25 185
f 24 23 185
f 69 127 185
f 185 23 22
f 22 19 185
f 185 3 1
f 2 18 185
f 19 3 185
f 185 127 221
f 185 42 69
f 18 42 185
f 118 121 66
f 66 65 118
f 118 120 214
f 65 120 118
f 543 554 549
f 543 549 529
f 304 303 383
f 212 303 304
f 516 524 523
f 516 523 548
f 165 260 261
f 261 166 165
f 547 505 540
f 507 505 547
f 497 491 501
f 538 491 497
f 349 413 350
f 384 413 349
f 312 219 305
f 305 219 213
f 212 304 305
f 213 212 305
f 381 414 445
f 445 382 381
f 383 303 445
f 445 303 382
f 251 252 155
f 155 154 251
f 254 157 253
f 157 156 253
f 155 252 253
f 253 156 155
f 197 109 284
f 284 109 58
f 58 108 284
f 108 196 284
f 332 402 403
f 403 333 332
f 338 339 242
f 242 241 338
f 242 339 243
f 243 142 242
f 333 403 404
f 334 333 404
f 334 404 405
f 335 334 405
f 424 366 365
f 366 288 365
f 538 497 500
f 500 532 538
f 524 516 487
f 487 516 471
f 149 247 248
f 248 150 149
f 151 150 248
f 248 249 151
f 245 145 144
f 144 244 245
