v 0.016752 -0.000001 0.029735
v 0.018697 0.006640 0.033195
v 0.018574 0.006626 0.030020
v 0.018801 0.007122 0.030020
v 0.019432 0.008469 0.030020
v 0.021003 0.009198 0.030020
v 0.022905 0.009602 0.030020
v 0.026693 0.009625 0.030020
v 0.027256 0.009627 0.030020
v 0.033556 -0.000001 0.029735
v 0.016756 -0.000946 0.029735
v 0.019126 -0.006639 0.035092
v 0.019126 0.006640 0.035092
v 0.018905 0.006640 0.034123
v 0.019136 0.007324 0.034123
v 0.019480 0.008154 0.034123
v 0.019371 0.008262 0.033195
v 0.021006 0.008845 0.033195
v 0.022904 0.008548 0.035092
v 0.021006 0.008524 0.035092
v 0.028593 0.009604 0.030020
v 0.026696 0.008544 0.035092
v 0.028593 0.008534 0.035092
v 0.033577 -0.003711 0.029735
v 0.029048 0.009539 0.030020
v 0.030593 0.009069 0.030020
v 0.032126 0.008414 0.030020
v 0.032175 0.008325 0.030020
v 0.032222 0.008227 0.030020
v 0.032642 0.006640 0.030020
v 0.030848 0.006640 0.035092
v 0.016797 -0.001361 0.029735
v 0.018903 -0.006639 0.034123
v 0.019595 -0.008041 0.035092
v 0.019900 -0.007744 0.036148
v 0.019796 -0.006639 0.036218
v 0.016958 -0.002844 0.029735
v 0.019796 0.006640 0.036218
v 0.019900 0.007743 0.036148
v 0.019595 0.008040 0.035092
v 0.020316 0.008451 0.034123
v 0.022904 0.007879 0.036243
v 0.026696 0.007879 0.036243
v 0.021006 0.007850 0.036222
v 0.028593 0.007875 0.036240
v 0.029789 0.007777 0.036172
v 0.030168 0.008058 0.035092
v 0.033577 -0.004742 0.029735
v 0.029946 0.006640 0.036256
v 0.030848 -0.006639 0.035092
v 0.018694 -0.006637 0.033194
v 0.019480 -0.008153 0.034123
v 0.021006 -0.009978 0.029735
v 0.021006 -0.008523 0.035092
v 0.021006 -0.007851 0.036222
v 0.021006 -0.006639 0.036436
v 0.018553 -0.006624 0.029735
v 0.019371 -0.008260 0.033194
v 0.021006 0.006640 0.036436
v 0.022904 0.006640 0.036478
v 0.026696 0.006640 0.036478
v 0.028593 0.006640 0.036474
v 0.033554 -0.006637 0.029735
v 0.028593 -0.006639 0.036474
v 0.029946 -0.006639 0.036255
v 0.029789 -0.007778 0.036171
v 0.033122 -0.008476 0.029735
v 0.022905 -0.010444 0.029735
v 0.019439 -0.008521 0.029735
v 0.022904 -0.007880 0.036243
v 0.022904 -0.008547 0.035092
v 0.022904 -0.006639 0.036478
v 0.026696 -0.006639 0.036478
v 0.028593 -0.007876 0.036240
v 0.028593 -0.008535 0.035092
v 0.030491 -0.010106 0.029735
v 0.030166 -0.008057 0.035092
v 0.032325 -0.009272 0.029735
v 0.026668 -0.010460 0.029735
v 0.026696 -0.007880 0.036243
v 0.028567 -0.010462 0.029735
v 0.026696 -0.008543 0.035092
v 0.028593 -0.010460 0.029735
f 1 9 10
f 1 2 3
f 44 59 60
f 65 50 49
f 46 62 49
f 54 53 68
f 69 53 58
f 56 36 35
f 35 36 12
f 4 5 1
f 1 3 4
f 1 5 6
f 6 7 1
f 8 9 1
f 1 7 8
f 47 23 46
f 47 25 23
f 46 23 45
f 45 62 46
f 45 61 62
f 38 59 39
f 59 44 39
f 20 40 39
f 39 44 20
f 65 49 64
f 64 49 62
f 46 49 31
f 31 47 46
f 31 49 50
f 24 10 31
f 71 54 68
f 71 70 54
f 66 74 75
f 65 64 66
f 66 64 74
f 66 50 65
f 21 10 9
f 21 25 10
f 9 23 21
f 23 25 21
f 26 27 10
f 10 25 26
f 26 47 27
f 25 47 26
f 69 58 57
f 57 58 37
f 34 54 35
f 53 54 34
f 35 12 34
f 11 12 1
f 20 7 18
f 7 6 18
f 22 45 23
f 22 23 9
f 19 22 9
f 9 8 19
f 19 7 20
f 19 8 7
f 42 44 60
f 20 44 42
f 42 19 20
f 38 39 13
f 1 12 13
f 13 39 40
f 70 71 80
f 72 56 55
f 55 70 72
f 55 56 35
f 35 54 55
f 54 70 55
f 27 47 28
f 47 31 28
f 10 27 28
f 79 71 68
f 82 80 71
f 75 74 82
f 74 80 82
f 50 63 48
f 75 83 76
f 76 66 75
f 67 66 78
f 67 63 50
f 50 66 67
f 52 58 53
f 53 34 52
f 51 52 34
f 37 58 51
f 58 52 51
f 37 12 32
f 12 11 32
f 17 18 6
f 17 6 5
f 5 4 17
f 17 3 2
f 17 4 3
f 61 45 43
f 19 42 43
f 45 22 43
f 22 19 43
f 14 2 1
f 1 13 14
f 14 15 2
f 40 15 14
f 14 13 40
f 74 64 73
f 73 80 74
f 30 31 10
f 71 79 81
f 81 82 71
f 81 83 75
f 75 82 81
f 77 76 78
f 78 66 77
f 66 76 77
f 33 34 12
f 33 51 34
f 33 12 37
f 37 51 33
f 18 17 16
f 16 15 40
f 2 15 16
f 16 17 2
f 29 28 31
f 31 30 29
f 10 28 29
f 29 30 10
f 41 16 40
f 18 16 41
f 41 40 20
f 20 18 41
f 56 72 60
f 60 59 56
f 56 59 38
f 38 36 56
f 13 36 38
f 13 12 36
f 24 31 48
f 48 31 50
f 43 42 60
f 60 61 43
f 70 80 73
f 72 70 73
f 60 72 73
f 73 61 60
f 62 61 73
f 73 64 62
f 81 10 24
f 1 10 81
f 68 53 81
f 69 57 81
f 81 79 68
f 81 53 69
f 81 11 1
f 24 48 81
f 78 76 81
f 81 57 37
f 81 67 78
f 37 32 81
f 81 48 63
f 81 76 83
f 63 67 81
f 81 32 11
