v 0.000115 0.024870 0.013919
v 0.000115 0.024120 0.008964
v -0.000122 0.024865 0.013919
v 0.004167 0.024515 0.013919
v 0.003042 0.023952 0.008964
v 0.001572 0.024056 0.008964
v 0.003042 0.023464 0.007965
v 0.001572 0.023509 0.007965
v 0.000115 0.023538 0.007965
v -0.001348 0.023519 0.007965
v -0.001348 0.024071 0.008964
v -0.001348 0.024830 0.013919
v 0.004884 0.024446 0.013919
v 0.004517 0.023760 0.008964
v 0.005956 0.023247 0.008067
v 0.004517 0.023385 0.007982
v 0.014766 0.001359 0.002281
v -0.014553 0.001354 0.002281
v -0.002806 0.023469 0.007965
v -0.016017 0.001335 0.002287
v -0.004275 0.023395 0.007976
v -0.002806 0.023967 0.008964
v -0.004275 0.023790 0.008964
v -0.004269 0.024475 0.013919
v 0.005281 0.024372 0.013919
v 0.006875 0.023144 0.008165
v 0.010068 0.021793 0.008074
v 0.008889 0.022000 0.007982
v 0.016999 0.001147 0.002342
v 0.016235 0.001280 0.002305
v 0.016235 0.000363 0.002220
v 0.014766 0.000363 0.002195
v -0.014553 0.000363 0.002194
v -0.016017 0.000363 0.002199
v -0.016834 0.001196 0.002316
v -0.005744 0.023272 0.008048
v -0.006727 0.023159 0.008150
v -0.005744 0.023499 0.008964
v -0.005744 0.024268 0.013919
v -0.005092 0.024372 0.013919
v 0.005956 0.024229 0.013919
v 0.006555 0.024041 0.013919
v 0.007420 0.023770 0.013919
v 0.010411 0.022710 0.013919
v 0.010322 0.021906 0.008964
v 0.011057 0.021586 0.008964
v 0.012828 0.020313 0.008093
v 0.011827 0.020609 0.007994
v 0.033415 0.002962 0.009530
v 0.034636 0.001325 0.009609
v 0.034701 0.000363 0.009545
v 0.017058 0.000363 0.002306
v 0.014434 0.018997 0.008054
v 0.016223 0.017562 0.008076
v 0.016987 0.017246 0.008204
v 0.016205 -0.001072 0.002267
v 0.014766 -0.001096 0.002228
v 0.017052 -0.000569 0.002312
v -0.014447 -0.001205 0.002265
v -0.016034 -0.001121 0.002265
v -0.016858 -0.000648 0.002310
v -0.016893 0.000363 0.002287
v -0.024097 0.001468 0.008194
v -0.022930 0.006226 0.007976
v -0.022752 0.007681 0.008087
v -0.022628 0.008484 0.008204
v -0.021218 0.011487 0.008150
v -0.019921 0.013262 0.008056
v -0.018238 0.015802 0.008193
v -0.016828 0.017311 0.008154
v -0.015874 0.017863 0.008067
v -0.014536 0.018962 0.008082
v -0.012681 0.020353 0.008070
v -0.011479 0.020856 0.008020
v -0.010140 0.021783 0.008091
v -0.008671 0.022044 0.007971
v -0.010898 0.021635 0.008214
v -0.007646 0.022956 0.008964
v -0.007272 0.023883 0.013919
v 0.011057 0.022409 0.013919
v 0.011650 0.022103 0.013919
v 0.012988 0.020417 0.008964
v 0.013711 0.019924 0.008964
v 0.033000 0.003948 0.010430
v 0.033640 0.003218 0.010430
v 0.034375 0.002237 0.010430
v 0.034707 0.001512 0.010430
v 0.035506 0.000580 0.013298
v 0.035542 0.000427 0.013298
v 0.034914 0.000363 0.010430
v 0.034647 -0.001096 0.009599
v 0.014683 0.019194 0.008964
v 0.015654 0.019505 0.013919
v 0.015702 -0.001910 0.002314
v -0.014861 -0.001915 0.002312
v -0.015560 -0.001915 0.002312
v 0.034570 -0.001861 0.009682
v 0.033261 -0.003453 0.009570
v 0.017189 -0.016737 0.008067
v -0.016538 -0.001624 0.002508
v -0.018434 -0.015302 0.008067
v -0.019790 -0.013734 0.008122
v -0.021331 -0.010998 0.008067
v -0.022723 -0.007990 0.008114
v -0.022853 -0.006964 0.008010
v -0.024074 -0.001974 0.008217
v -0.024115 -0.001096 0.008177
v -0.024133 0.000363 0.008160
v -0.024950 0.001828 0.013919
v -0.024050 0.002464 0.008470
v -0.023333 0.006226 0.008964
v -0.023908 0.007109 0.013919
v -0.023760 0.007681 0.013919
v -0.023197 0.009086 0.013919
v -0.022391 0.010895 0.013919
v -0.021769 0.012059 0.013919
v -0.020792 0.013844 0.013919
v -0.019619 0.014244 0.008964
v -0.020140 0.014786 0.013919
v -0.019536 0.015511 0.013919
v -0.018114 0.017123 0.013919
v -0.017385 0.017858 0.013919
v -0.016627 0.018588 0.013919
v -0.015294 0.018711 0.008211
v -0.013611 0.019998 0.008964
v -0.014227 0.020525 0.013919
v -0.013203 0.021147 0.013919
v -0.011496 0.022103 0.013919
v -0.010643 0.022518 0.013919
v -0.010140 0.022744 0.013919
v -0.008511 0.023415 0.013919
v 0.014541 0.020294 0.013919
v 0.015157 0.019880 0.013919
v 0.033060 0.004007 0.011896
v 0.033711 0.003272 0.011896
v 0.016401 0.018854 0.013919
v 0.034446 0.002316 0.011896
v 0.034997 0.001660 0.013298
v 0.020927 0.013943 0.013919
v 0.020927 -0.014681 0.013919
v 0.035495 -0.000968 0.013298
v 0.035477 -0.001141 0.013298
v 0.015714 -0.018152 0.008085
v 0.014167 -0.019533 0.008128
v 0.011448 -0.021091 0.008067
v 0.010352 -0.021328 0.007976
v 0.008498 -0.022496 0.008099
v 0.007426 -0.022644 0.007999
v 0.003042 -0.023093 0.007856
v 0.001572 -0.023093 0.007804
v 0.000115 -0.023093 0.007775
v -0.014008 -0.019572 0.008099
v -0.015560 -0.018202 0.008062
v -0.001348 -0.023093 0.007796
v -0.002806 -0.023093 0.007847
v -0.007213 -0.022674 0.007988
v -0.008363 -0.022521 0.008082
v -0.010140 -0.021382 0.007968
v -0.011301 -0.021116 0.008056
v 0.035074 -0.002443 0.013298
v 0.034547 -0.003202 0.013298
v 0.033842 -0.004055 0.013298
v 0.016300 -0.019794 0.013919
v -0.017030 -0.016791 0.008054
v -0.018582 -0.015475 0.008964
v -0.017954 -0.016205 0.008964
v -0.019316 -0.014577 0.008964
v -0.018706 -0.016717 0.013919
v -0.019867 -0.013848 0.008964
v -0.021271 -0.013000 0.013919
v -0.021023 -0.011944 0.008964
v -0.021449 -0.011210 0.008964
v -0.022036 -0.009898 0.008964
v -0.022794 -0.008172 0.008964
v -0.023440 -0.008512 0.013919
v -0.023688 -0.007709 0.013919
v -0.023167 -0.006964 0.008964
v -0.023487 -0.005500 0.008964
v -0.023801 -0.004011 0.008964
v -0.024642 -0.004011 0.013919
v -0.024802 -0.002566 0.013919
v -0.024915 -0.001096 0.013919
v -0.024944 -0.000460 0.013919
v -0.024974 0.000363 0.013919
v -0.024980 0.000989 0.013919
v -0.024761 0.003228 0.013919
v -0.023659 0.004761 0.008964
v -0.024441 0.004761 0.013919
v -0.024364 0.005102 0.013919
v -0.014962 0.019963 0.013919
v 0.033060 0.004007 0.013298
v 0.033735 0.003272 0.013298
v 0.034440 0.002434 0.013298
v 0.017035 0.018257 0.013919
v 0.020583 0.014461 0.013919
v 0.020660 -0.015213 0.013919
v 0.014748 -0.021116 0.013919
v 0.011934 -0.022773 0.013919
v 0.008936 -0.024158 0.013919
v 0.006833 -0.024819 0.013919
v 0.003972 -0.023867 0.008177
v 0.003042 -0.023916 0.008122
v 0.001572 -0.023971 0.008068
v 0.000115 -0.024000 0.008045
v -0.013072 -0.021870 0.013919
v -0.014927 -0.020623 0.013919
v -0.015744 -0.018354 0.008964
v -0.016479 -0.017713 0.008964
v -0.011544 -0.021264 0.008964
v -0.001348 -0.023981 0.008062
v -0.002806 -0.023926 0.008114
v -0.003789 -0.023872 0.008171
v -0.007213 -0.024577 0.013919
v -0.010140 -0.023438 0.013919
v -0.010140 -0.021944 0.008964
v 0.020234 -0.015830 0.013919
v 0.018842 -0.017334 0.013919
v 0.017799 -0.018379 0.013919
v -0.017219 -0.016984 0.008964
v -0.018404 -0.017102 0.013919
v -0.016935 -0.018764 0.013919
v -0.017444 -0.018197 0.013919
v -0.019820 -0.015169 0.013919
v -0.021502 -0.012615 0.013919
v -0.021645 -0.012359 0.013919
v -0.022101 -0.011476 0.013919
v -0.022438 -0.010810 0.013919
v -0.022883 -0.009898 0.013919
v -0.023860 -0.007122 0.013919
v 0.017971 0.017311 0.013919
v 0.019286 0.015940 0.013919
v 0.020080 0.015062 0.013919
v 0.020423 0.014658 0.013919
v 0.002894 -0.025504 0.013919
v -0.015507 -0.020105 0.013919
v -0.004293 -0.025065 0.013919
v -0.005744 -0.024937 0.013919
f 139 140 89
f 33 17 32
f 7 17 8
f 2 7 8
f 140 160 142
f 101 102 61
f 104 61 103
f 61 102 103
f 104 177 106
f 18 17 33
f 33 34 18
f 157 96 156
f 100 96 153
f 61 96 100
f 100 101 61
f 159 157 215
f 33 32 57
f 31 32 17
f 31 57 32
f 30 31 17
f 29 31 30
f 49 29 55
f 55 84 49
f 214 205 209
f 209 159 214
f 214 159 215
f 214 157 213
f 215 157 214
f 89 140 141
f 140 142 141
f 2 12 3
f 3 1 2
f 22 23 12
f 207 206 208
f 102 101 165
f 67 66 115
f 62 34 61
f 114 66 113
f 115 66 114
f 105 61 104
f 104 106 105
f 105 106 61
f 9 8 17
f 17 18 9
f 2 8 9
f 94 151 95
f 95 151 96
f 95 57 94
f 96 57 95
f 96 151 154
f 157 156 212
f 212 236 237
f 212 237 213
f 213 157 212
f 164 100 153
f 101 100 164
f 153 208 164
f 158 96 157
f 157 159 158
f 158 159 96
f 152 159 209
f 153 96 152
f 96 159 152
f 152 206 207
f 205 206 152
f 209 205 152
f 152 208 153
f 207 208 152
f 176 177 104
f 179 180 106
f 104 103 172
f 172 103 102
f 102 171 172
f 33 57 59
f 59 57 96
f 47 27 46
f 29 30 15
f 15 5 14
f 131 77 130
f 127 77 126
f 127 128 77
f 126 77 125
f 125 124 126
f 77 124 125
f 70 121 122
f 69 121 70
f 122 123 70
f 70 123 124
f 230 191 194
f 231 191 230
f 192 231 232
f 192 191 231
f 192 134 191
f 163 197 144
f 216 161 160
f 162 161 216
f 216 217 162
f 202 201 234
f 234 203 202
f 210 154 204
f 204 154 151
f 234 210 204
f 204 203 234
f 150 151 94
f 150 204 151
f 203 204 150
f 234 201 200
f 144 197 198
f 201 202 148
f 2 1 6
f 1 5 6
f 6 7 2
f 25 14 13
f 14 5 13
f 11 12 2
f 11 22 12
f 19 21 11
f 21 22 11
f 23 39 40
f 69 119 120
f 120 121 69
f 221 208 235
f 235 208 206
f 166 165 101
f 101 164 166
f 166 220 165
f 224 172 171
f 118 119 69
f 69 67 118
f 119 118 117
f 117 118 67
f 63 62 108
f 185 109 108
f 108 109 63
f 68 67 69
f 73 124 77
f 110 109 186
f 63 109 110
f 110 111 66
f 10 9 18
f 2 9 10
f 10 11 2
f 19 11 10
f 155 156 96
f 96 154 155
f 155 154 210
f 229 180 177
f 177 176 229
f 175 174 228
f 104 174 175
f 175 176 104
f 185 108 184
f 106 180 181
f 181 182 106
f 178 106 177
f 178 179 106
f 177 180 178
f 180 179 178
f 228 174 173
f 173 172 228
f 173 174 104
f 104 172 173
f 60 59 96
f 61 34 60
f 60 96 61
f 60 34 33
f 33 59 60
f 53 47 55
f 29 47 53
f 29 27 48
f 48 47 29
f 27 47 48
f 28 27 29
f 29 15 28
f 28 15 27
f 16 15 30
f 16 17 7
f 16 30 17
f 5 15 16
f 7 6 16
f 16 6 5
f 77 128 129
f 129 130 77
f 126 124 190
f 124 123 190
f 69 70 35
f 35 68 69
f 67 68 35
f 66 67 35
f 35 62 63
f 63 64 35
f 34 62 35
f 85 49 84
f 233 192 232
f 138 195 139
f 29 49 50
f 50 51 29
f 160 161 97
f 97 142 160
f 80 81 46
f 46 44 80
f 26 14 25
f 26 15 14
f 27 15 26
f 162 217 218
f 218 163 162
f 196 160 140
f 196 216 160
f 149 150 94
f 94 148 149
f 149 148 202
f 149 202 203
f 203 150 149
f 147 198 199
f 201 148 147
f 199 200 147
f 147 200 201
f 147 148 94
f 4 5 1
f 4 13 5
f 36 37 23
f 23 22 36
f 36 22 21
f 36 76 37
f 36 35 76
f 38 39 23
f 23 37 38
f 38 37 39
f 39 37 79
f 79 77 131
f 12 23 24
f 23 40 24
f 102 165 167
f 165 220 167
f 169 102 168
f 168 223 169
f 102 167 168
f 168 167 220
f 219 164 208
f 219 166 164
f 219 208 221
f 221 166 219
f 222 166 221
f 220 166 222
f 169 223 170
f 170 102 169
f 170 171 102
f 170 224 171
f 116 67 115
f 116 117 67
f 107 108 62
f 61 106 107
f 107 62 61
f 107 184 108
f 106 182 107
f 77 37 75
f 37 76 75
f 75 73 77
f 76 35 75
f 113 66 112
f 66 111 112
f 186 188 187
f 187 110 186
f 111 110 187
f 187 188 111
f 211 212 156
f 156 155 211
f 211 155 210
f 211 210 234
f 234 236 211
f 236 212 211
f 55 29 54
f 54 53 55
f 29 53 54
f 46 81 82
f 82 47 46
f 93 84 55
f 71 70 124
f 71 35 70
f 66 35 65
f 65 35 64
f 65 64 63
f 63 110 65
f 65 110 66
f 20 18 34
f 34 35 20
f 20 21 19
f 20 36 21
f 35 36 20
f 19 10 20
f 20 10 18
f 134 192 135
f 84 134 135
f 135 85 84
f 137 85 135
f 193 233 195
f 192 233 193
f 195 138 193
f 193 135 192
f 193 138 137
f 137 135 193
f 88 139 89
f 88 138 139
f 89 50 88
f 29 51 52
f 51 58 52
f 52 31 29
f 52 58 31
f 56 58 94
f 31 58 56
f 94 57 56
f 57 31 56
f 90 50 89
f 51 50 90
f 89 141 90
f 98 161 162
f 98 97 161
f 162 163 98
f 98 163 144
f 58 97 98
f 91 141 142
f 142 97 91
f 91 90 141
f 51 90 91
f 91 58 51
f 91 97 58
f 44 26 43
f 46 27 45
f 27 26 45
f 45 44 46
f 45 26 44
f 144 198 145
f 198 147 145
f 94 144 145
f 78 37 77
f 77 79 78
f 78 79 37
f 228 172 227
f 172 226 227
f 172 224 225
f 225 226 172
f 183 107 182
f 184 107 183
f 74 35 73
f 73 75 74
f 74 75 35
f 111 188 189
f 189 112 111
f 132 82 81
f 133 82 132
f 55 47 83
f 47 82 83
f 83 82 133
f 136 134 84
f 84 93 136
f 191 134 136
f 194 191 136
f 73 35 72
f 35 71 72
f 124 73 72
f 72 71 124
f 138 88 86
f 137 138 86
f 86 85 137
f 49 85 86
f 86 50 49
f 58 98 99
f 94 58 99
f 41 26 25
f 146 147 94
f 94 145 146
f 146 145 147
f 133 93 92
f 92 83 133
f 92 93 55
f 55 83 92
f 87 88 50
f 50 86 87
f 87 86 88
f 143 144 94
f 94 99 143
f 143 98 144
f 143 99 98
f 42 43 26
f 26 41 42
f 42 214 213
f 42 175 228
f 221 235 42
f 42 181 180
f 42 3 12
f 140 139 42
f 197 163 42
f 42 4 1
f 42 114 113
f 42 129 128
f 139 195 42
f 42 198 197
f 42 222 221
f 180 229 42
f 42 120 119
f 213 237 42
f 42 236 234
f 232 231 42
f 126 190 42
f 42 218 217
f 42 79 131
f 42 127 126
f 119 117 42
f 42 109 185
f 223 168 42
f 131 130 42
f 42 230 194
f 42 206 205
f 205 214 42
f 237 236 42
f 42 132 81
f 234 200 42
f 1 3 42
f 25 13 42
f 122 121 42
f 115 114 42
f 186 109 42
f 42 116 115
f 185 184 42
f 113 112 42
f 128 127 42
f 42 123 122
f 231 230 42
f 42 233 232
f 81 80 42
f 217 216 42
f 42 200 199
f 199 198 42
f 42 196 140
f 42 40 39
f 121 120 42
f 42 235 206
f 12 24 42
f 194 136 42
f 42 170 223
f 42 188 186
f 42 229 176
f 176 175 42
f 42 225 224
f 182 181 42
f 42 189 188
f 130 129 42
f 42 190 123
f 195 233 42
f 42 80 44
f 163 218 42
f 216 196 42
f 13 4 42
f 39 79 42
f 42 24 40
f 42 168 220
f 220 222 42
f 228 227 42
f 224 170 42
f 117 116 42
f 42 183 182
f 42 93 133
f 44 43 42
f 42 227 226
f 226 225 42
f 184 183 42
f 112 189 42
f 133 132 42
f 42 136 93
f 42 41 25
