v 0.000115 0.025690 0.019230
v 0.000115 0.025471 0.020690
v 0.004518 0.025164 0.020690
v 0.004518 0.025313 0.019230
v 0.000115 0.025690 0.016301
v -0.001359 0.025681 0.019228
v -0.001220 0.025488 0.020554
v 0.000115 0.024910 0.021613
v 0.004518 0.024787 0.021606
v -0.001359 0.025462 0.020690
v 0.005974 0.024682 0.021534
v 0.006780 0.024568 0.021452
v 0.005974 0.024910 0.020690
v 0.004518 0.025313 0.016301
v 0.005974 0.024997 0.019230
v 0.000115 0.025331 0.014837
v -0.001359 0.025681 0.016301
v -0.002814 0.025488 0.019228
v -0.004279 0.025111 0.020690
v -0.002814 0.025304 0.020690
v 0.019610 0.021726 0.022216
v 0.020093 0.021726 0.022216
v 0.003044 0.024822 0.021613
v -0.001359 0.024901 0.021613
v -0.006708 0.024603 0.021488
v -0.005735 0.024682 0.021556
v -0.004279 0.024761 0.021602
v -0.002814 0.024840 0.021613
v 0.004537 0.024875 0.014705
v 0.003044 0.025068 0.014837
v 0.005974 0.024997 0.016301
v 0.005974 0.024769 0.015066
v 0.020102 0.021726 0.022157
v 0.020120 0.021735 0.021207
v 0.000115 0.024848 0.013923
v -0.000126 0.024848 0.013923
v -0.001359 0.025313 0.014837
v 0.003044 0.024603 0.013923
v -0.005735 0.024778 0.015011
v -0.002814 0.025488 0.016301
v -0.005735 0.025006 0.019228
v -0.005735 0.024918 0.020690
v -0.002814 0.023805 0.021804
v -0.003918 -0.034268 0.031749
v 0.007299 -0.034268 0.031749
v 0.054921 0.008791 0.023121
v 0.066741 0.005695 0.021731
v 0.054921 0.010106 0.020203
v -0.004279 0.023805 0.021792
v -0.006949 0.024682 0.020690
v -0.010861 0.023059 0.021398
v -0.009888 0.023235 0.021547
v -0.008673 0.023445 0.021611
v -0.005735 0.023805 0.021747
v 0.005038 0.024524 0.014129
v 0.004880 0.024436 0.013923
v 0.006910 0.024612 0.015356
v 0.005974 0.024436 0.014333
v 0.066796 0.005695 0.010520
v 0.054921 0.010115 0.019115
v 0.058750 0.005695 0.010520
v -0.001220 0.024831 0.013923
v -0.001359 0.024822 0.013923
v -0.004261 0.024462 0.013923
v -0.005086 0.024357 0.013923
v -0.005735 0.024445 0.014279
v -0.002814 0.025111 0.014837
v -0.006866 0.024664 0.015261
v -0.005735 0.025006 0.016301
v -0.007060 0.024717 0.019228
v -0.008673 0.022340 0.021799
v -0.011603 0.022121 0.021613
v -0.013169 0.020972 0.021652
v -0.015913 0.019367 0.021604
v -0.017462 0.017929 0.021640
v -0.018889 0.016421 0.021615
v -0.020326 0.014886 0.021563
v -0.021337 0.013553 0.021538
v -0.021874 0.012009 0.021611
v -0.022820 0.010606 0.021563
v -0.024155 0.008124 0.021502
v -0.024201 0.007668 0.021543
v -0.024322 0.006213 0.021606
v -0.025527 0.001205 0.021427
v -0.025527 0.000960 0.021427
v -0.024386 -0.005512 0.021613
v -0.024238 -0.006977 0.021568
v -0.024136 -0.007968 0.021488
v -0.004492 -0.034268 0.031155
v -0.003843 -0.034347 0.031749
v 0.020491 -0.042398 0.031749
v 0.036186 -0.025227 0.028770
v 0.031495 -0.022473 0.028748
v 0.037326 -0.051001 0.031298
v 0.066796 0.001819 0.021731
v 0.069021 -0.028945 0.016716
v 0.069021 -0.027481 0.016560
v 0.069021 -0.026016 0.016265
v 0.069021 -0.024551 0.015834
v 0.069021 -0.023824 0.015564
v 0.069021 -0.023078 0.015238
v 0.069021 -0.021666 0.014508
v 0.069021 -0.020947 0.014075
v 0.069021 -0.020158 0.013535
v 0.069021 -0.019193 0.012826
v 0.069021 -0.018799 0.012438
v 0.066796 0.005695 0.013882
v -0.007793 0.024497 0.019228
v -0.010982 0.023121 0.020421
v -0.011519 0.022805 0.020822
v -0.013169 0.021928 0.020631
v -0.013726 0.021525 0.021078
v -0.012752 0.021805 0.021550
v 0.005974 0.024217 0.013923
v 0.005288 0.024357 0.013923
v 0.066796 -0.049343 0.008591
v 0.059186 -0.049343 0.008591
v -0.018110 0.017113 0.013923
v -0.017369 0.017841 0.013923
v -0.016609 0.018578 0.013923
v -0.014959 0.019955 0.013923
v -0.014226 0.020516 0.013923
v -0.013197 0.021139 0.013923
v -0.011501 0.022095 0.013923
v -0.010648 0.022498 0.013923
v -0.010138 0.022735 0.013923
v -0.008516 0.023410 0.013923
v -0.007264 0.023866 0.013923
v -0.005735 0.024261 0.013923
v -0.007292 0.024322 0.014796
v -0.007060 0.024717 0.016301
v -0.010982 0.023121 0.015442
v -0.007793 0.024497 0.016301
v -0.016961 0.018841 0.021538
v -0.014541 0.020499 0.021563
v -0.015376 0.020218 0.021484
v -0.018379 0.017429 0.021538
v -0.019779 0.015886 0.021504
v -0.021160 0.014316 0.021450
v -0.022671 0.011492 0.021482
v -0.024108 0.008502 0.021463
v -0.025490 0.002187 0.021287
v -0.025573 0.001740 0.020756
v -0.025573 0.000425 0.020743
v -0.025555 -0.001136 0.020282
v -0.025536 -0.002040 0.020058
v -0.025490 -0.000023 0.021266
v -0.025193 -0.004057 0.020690
v -0.024896 -0.005512 0.020690
v -0.024210 -0.008222 0.020690
v -0.023942 -0.008968 0.020690
v -0.023552 -0.009906 0.020690
v -0.022783 -0.011011 0.021547
v -0.005104 -0.034268 0.030468
v -0.003185 -0.035259 0.031291
v -0.002249 -0.035680 0.031749
v 0.020936 -0.042678 0.031749
v 0.037326 -0.057771 0.031298
v 0.066796 -0.049343 0.021733
v 0.069021 -0.030401 0.016750
v 0.069021 -0.041188 0.012438
v 0.066954 -0.062779 0.008591
v -0.008673 0.024138 0.019228
v -0.011742 0.022822 0.019228
v -0.013058 0.022112 0.019228
v -0.013818 0.021612 0.020105
v -0.015478 0.020306 0.020690
v 0.059186 -0.063884 0.008591
v -0.024961 0.001003 0.013923
v -0.024933 0.001819 0.013923
v -0.024757 0.003213 0.013923
v -0.024433 0.004748 0.013923
v -0.023979 0.006739 0.013923
v -0.023765 0.007668 0.013923
v -0.023191 0.009080 0.013923
v -0.022384 0.010887 0.013923
v -0.021772 0.012053 0.013923
v -0.020790 0.013842 0.013923
v -0.020141 0.014781 0.013923
v -0.019529 0.015500 0.013923
v -0.016701 0.018657 0.014138
v -0.019594 0.015675 0.014234
v -0.018185 0.017192 0.014127
v -0.015144 0.020060 0.014288
v -0.014477 0.020849 0.014909
v -0.013383 0.021428 0.014551
v -0.011519 0.022621 0.014905
v -0.010138 0.022963 0.014374
v -0.008812 0.023656 0.014687
v -0.013818 0.021612 0.015528
v -0.011742 0.022822 0.016301
v -0.008673 0.024138 0.016301
v -0.017146 0.018999 0.020690
v -0.017879 0.018359 0.020690
v -0.018537 0.017613 0.020690
v -0.021225 0.014395 0.020690
v -0.022736 0.011641 0.020690
v -0.019881 0.016008 0.020690
v -0.024164 0.008633 0.020690
v -0.024322 0.008124 0.020690
v -0.024442 0.007668 0.020690
v -0.025564 0.002714 0.020314
v -0.025647 0.001819 0.019230
v -0.025638 0.000346 0.019230
v -0.025508 -0.002873 0.019230
v -0.025397 -0.004057 0.019230
v -0.025388 -0.002548 0.020602
v -0.025082 -0.005512 0.019230
v -0.024257 -0.008363 0.019230
v -0.024043 -0.009090 0.019230
v -0.023719 -0.009906 0.019230
v -0.022940 -0.011274 0.020690
v -0.021262 -0.013835 0.021525
v -0.005716 -0.034268 0.029487
v -0.005243 -0.034268 0.030255
v -0.003630 -0.035610 0.030314
v -0.000645 -0.037040 0.031718
v -0.000627 -0.037031 0.031749
v 0.020936 -0.050466 0.031749
v 0.020899 -0.050457 0.031749
v 0.036612 -0.057534 0.031298
v 0.037326 -0.058052 0.030929
v 0.066416 -0.063884 0.021733
v 0.066713 -0.062673 0.021733
v 0.066796 -0.061209 0.021733
v 0.069021 -0.030410 0.016750
v 0.069021 -0.040460 0.013066
v 0.066796 -0.062673 0.020688
v 0.066787 -0.063884 0.019228
v 0.066796 -0.063884 0.017759
v 0.066824 -0.063884 0.008591
v -0.013058 0.022112 0.016301
v -0.013828 0.021630 0.019228
v -0.016275 0.019788 0.019228
v -0.017221 0.019060 0.019228
v 0.054921 -0.063884 0.021597
v 0.037317 -0.062770 0.022277
v 0.037317 -0.062691 0.021497
v 0.037317 -0.062524 0.020894
v 0.036751 -0.062349 0.020962
v 0.035741 -0.062077 0.021200
v 0.032886 -0.060569 0.021253
v 0.011823 -0.048958 0.021146
v 0.011823 -0.043196 0.015068
v 0.006400 -0.040144 0.015190
v 0.005946 -0.039285 0.014800
v 0.004518 -0.037741 0.014445
v 0.003054 -0.036277 0.014259
v -0.002814 -0.031883 0.014329
v -0.004279 -0.030418 0.014243
v -0.014921 -0.020614 0.013923
v -0.015496 -0.020096 0.013923
v -0.016924 -0.018763 0.013923
v -0.017434 -0.018211 0.013923
v -0.018398 -0.017097 0.013923
v -0.018695 -0.016711 0.013923
v -0.019825 -0.015185 0.013923
v -0.021262 -0.013011 0.013923
v -0.021494 -0.012625 0.013923
v -0.021633 -0.012370 0.013923
v -0.022430 -0.010818 0.013923
v -0.022885 -0.009906 0.013923
v -0.023432 -0.008520 0.013923
v -0.023682 -0.007714 0.013923
v -0.023849 -0.007126 0.013923
v -0.024637 -0.004057 0.013923
v -0.024794 -0.002610 0.013923
v -0.024906 -0.001136 0.013923
v -0.024933 -0.000479 0.013923
v -0.024952 0.000346 0.013923
v -0.025332 0.001819 0.014630
v -0.025267 0.003266 0.014907
v -0.024906 0.004748 0.014837
v -0.024479 0.006327 0.014696
v -0.023969 0.007668 0.014293
v -0.023895 0.008124 0.014460
v -0.023682 0.009115 0.014837
v -0.022514 0.011089 0.014293
v -0.021021 0.013983 0.014386
v -0.020419 0.015035 0.014800
v -0.017619 0.018087 0.014619
v -0.017063 0.018929 0.015113
v -0.019844 0.015965 0.015211
v -0.018472 0.017526 0.015107
v -0.015450 0.020279 0.015265
v -0.017221 0.019060 0.016301
v -0.016275 0.019788 0.016301
v -0.013828 0.021630 0.016301
v -0.017953 0.018429 0.019228
v -0.018593 0.017692 0.019228
v -0.021262 0.014439 0.019228
v -0.021828 0.013553 0.019228
v -0.022421 0.012457 0.019228
v -0.022773 0.011720 0.019228
v -0.023858 0.009440 0.019228
v -0.024201 0.008712 0.019228
v -0.024377 0.008124 0.019913
v -0.024544 0.007668 0.019230
v -0.024906 0.006213 0.019230
v -0.025573 0.002810 0.019230
v -0.025202 0.004748 0.019230
v -0.025434 0.003547 0.019230
v -0.025675 0.001819 0.016301
v -0.025638 0.000346 0.016301
v -0.025416 -0.004057 0.016301
v -0.025406 -0.004057 0.017768
v -0.025508 -0.002873 0.016301
v -0.025110 -0.005512 0.017768
v -0.025119 -0.005512 0.016301
v -0.024043 -0.009090 0.016301
v -0.023719 -0.009906 0.016301
v -0.023014 -0.011353 0.019230
v -0.021374 -0.014019 0.020690
v -0.009461 -0.032716 0.023241
v -0.008516 -0.033383 0.024796
v -0.006226 -0.034268 0.028462
v -0.005475 -0.034470 0.029487
v -0.002054 -0.036996 0.030176
v -0.000979 -0.037320 0.030954
v 0.000059 -0.038092 0.031028
v 0.000977 -0.038390 0.031566
v 0.001061 -0.038294 0.031749
v 0.020111 -0.050071 0.031749
v 0.020009 -0.050150 0.031595
v 0.023244 -0.051895 0.031298
v 0.026202 -0.053246 0.031298
v 0.029215 -0.054544 0.031298
v 0.032292 -0.055807 0.031298
v 0.033535 -0.056315 0.031298
v 0.035583 -0.057710 0.030480
v 0.037326 -0.058823 0.029815
v 0.054921 -0.063884 0.021733
v 0.069021 -0.040451 0.013073
v 0.069021 -0.039469 0.013798
v 0.069021 -0.038732 0.014272
v 0.069021 -0.037732 0.014837
v 0.069021 -0.036566 0.015394
v 0.069021 -0.035829 0.015685
v 0.069021 -0.034803 0.016041
v 0.069021 -0.033330 0.016408
v 0.069021 -0.031874 0.016648
v 0.037326 -0.062270 0.023488
v 0.036047 -0.061919 0.022846
v 0.036612 -0.062419 0.022277
v 0.035741 -0.062077 0.021867
v 0.032886 -0.060569 0.021781
v 0.030058 -0.059051 0.021339
v 0.011063 -0.048756 0.021391
v 0.010952 -0.042959 0.015345
v 0.009283 -0.047475 0.021153
v 0.006576 -0.045897 0.021296
v 0.004843 -0.044590 0.021114
v 0.002062 -0.037215 0.015190
v 0.003156 -0.037715 0.014982
v 0.001570 -0.036320 0.014810
v -0.004224 -0.031883 0.014882
v -0.005762 -0.030471 0.014796
v -0.007292 -0.029042 0.014766
v -0.008377 -0.028621 0.015127
v -0.009869 -0.027182 0.015122
v -0.011325 -0.025735 0.015122
v -0.012762 -0.024280 0.015125
v -0.016637 -0.019325 0.014202
v -0.018092 -0.017825 0.014299
v -0.019482 -0.016194 0.014472
v -0.021096 -0.013502 0.014172
v -0.021717 -0.012958 0.014732
v -0.022440 -0.011748 0.014837
v -0.023385 -0.009906 0.014837
v -0.023886 -0.008556 0.014780
v -0.023979 -0.007319 0.014254
v -0.024757 -0.005512 0.014837
v -0.025110 -0.004057 0.014837
v -0.025304 -0.002548 0.014966
v -0.025295 -0.001136 0.014748
v -0.025323 0.000346 0.014658
v -0.025592 0.001819 0.015363
v -0.025573 0.002766 0.015442
v -0.024322 0.007668 0.015025
v -0.024071 0.008124 0.014785
v -0.024155 0.008607 0.015322
v -0.022718 0.011597 0.015270
v -0.022245 0.012080 0.014803
v -0.021225 0.014395 0.015363
v -0.017953 0.018429 0.016301
v -0.018593 0.017692 0.016301
v -0.021262 0.014439 0.016301
v -0.021828 0.013553 0.016301
v -0.022421 0.012457 0.016301
v -0.022773 0.011720 0.016301
v -0.023858 0.009440 0.016301
v -0.024201 0.008712 0.016301
v -0.024581 0.007668 0.016301
v -0.024396 0.008124 0.019228
v -0.024563 0.007668 0.017768
v -0.024961 0.006213 0.016301
v -0.024933 0.006213 0.017768
v -0.025582 0.002845 0.017768
v -0.025249 0.004748 0.016301
v -0.025592 0.002863 0.016301
v -0.025582 0.000346 0.015390
v -0.025555 -0.001136 0.015483
v -0.025536 -0.002040 0.015542
v -0.024192 -0.008143 0.015231
v -0.023014 -0.011353 0.016301
v -0.021439 -0.014098 0.019230
v -0.021012 -0.014817 0.019230
v -0.009109 -0.033619 0.022157
v -0.008951 -0.033269 0.023685
v -0.008395 -0.033532 0.024796
v -0.006541 -0.034268 0.027707
v -0.004863 -0.035435 0.028399
v -0.004594 -0.035207 0.029487
v -0.001405 -0.037794 0.029593
v -0.000478 -0.038373 0.029988
v 0.000504 -0.038732 0.030591
v 0.002164 -0.040065 0.030391
v 0.005279 -0.041398 0.031663
v 0.003564 -0.040100 0.031749
v 0.017979 -0.048993 0.031749
v 0.017098 -0.048677 0.031579
v 0.019036 -0.049992 0.031047
v 0.022373 -0.051895 0.030598
v 0.022809 -0.051685 0.031298
v 0.025358 -0.053325 0.030532
v 0.028389 -0.054737 0.030439
v 0.027917 -0.054219 0.030938
v 0.031476 -0.056131 0.030314
v 0.034610 -0.057517 0.030180
v 0.036631 -0.058736 0.029518
v 0.037326 -0.059227 0.029158
v 0.037326 -0.059841 0.028097
v 0.037326 -0.060384 0.027120
v 0.037326 -0.060797 0.026365
v 0.037326 -0.061454 0.025143
v 0.037326 -0.061902 0.024243
v 0.027407 -0.054526 0.030042
v 0.024375 -0.053097 0.030122
v 0.021409 -0.051650 0.030171
v 0.018452 -0.050194 0.030192
v 0.018090 -0.050378 0.029215
v 0.017107 -0.050124 0.028489
v 0.014252 -0.048633 0.028360
v 0.030058 -0.059051 0.021609
v 0.012760 -0.048642 0.025458
v 0.013288 -0.049440 0.023619
v 0.014122 -0.050150 0.022658
v 0.011267 -0.048642 0.022479
v 0.011063 -0.048756 0.021502
v 0.006576 -0.045897 0.021792
v 0.002201 -0.042959 0.021298
v 0.000560 -0.041626 0.021160
v -0.003649 -0.038565 0.021287
v -0.005308 -0.031374 0.015172
v -0.006875 -0.030015 0.015131
v -0.008312 -0.034391 0.021094
v -0.018908 -0.017202 0.014873
v -0.019705 -0.016553 0.015449
v -0.020020 -0.015729 0.014912
v -0.020845 -0.014352 0.014732
v -0.021337 -0.013923 0.015150
v -0.021439 -0.014098 0.016301
v -0.021012 -0.014817 0.016301
v -0.009489 -0.032865 0.021271
v -0.008377 -0.034452 0.022157
v -0.008126 -0.034233 0.023619
v -0.007904 -0.034049 0.024796
v -0.006986 -0.034268 0.026558
v -0.006847 -0.034391 0.026558
v -0.004715 -0.036776 0.024801
v -0.001702 -0.038180 0.028022
v -0.000747 -0.038592 0.029011
v 0.001858 -0.040276 0.029487
v 0.003823 -0.041389 0.030158
v 0.006465 -0.043056 0.030487
v 0.006966 -0.042722 0.031464
v 0.007086 -0.042564 0.031749
v 0.005334 -0.041363 0.031749
v 0.017200 -0.048589 0.031749
v 0.015170 -0.047467 0.031749
v 0.014261 -0.047151 0.031500
v 0.013715 -0.047458 0.030523
v 0.016551 -0.048958 0.030602
v 0.017627 -0.049273 0.031037
v 0.036065 -0.058990 0.028718
v 0.037048 -0.059183 0.029049
v 0.015578 -0.048694 0.030117
v 0.016134 -0.049212 0.029573
v 0.017645 -0.049992 0.029616
v 0.015226 -0.048887 0.029138
v 0.013251 -0.047677 0.029496
v 0.012398 -0.047379 0.029013
v 0.012120 -0.047537 0.028022
v 0.013427 -0.048300 0.027932
v 0.011536 -0.048484 0.023619
v 0.009469 -0.047370 0.023223
v 0.009237 -0.047502 0.022157
v 0.010498 -0.048282 0.022057
v 0.008514 -0.047055 0.022157
v 0.006734 -0.045774 0.022769
v 0.004046 -0.044161 0.022157
v 0.002201 -0.042959 0.021756
v -0.003649 -0.038565 0.021783
v -0.005206 -0.037180 0.021205
v -0.006754 -0.035794 0.021142
v -0.005929 -0.036548 0.022157
v -0.006606 -0.035654 0.023239
v -0.007246 -0.034619 0.024801
v -0.003500 -0.038443 0.022760
v -0.002138 -0.038522 0.025948
v -0.000970 -0.038767 0.028022
v 0.000894 -0.039916 0.028662
v 0.005195 -0.042924 0.028852
v 0.005492 -0.042714 0.029829
v 0.007401 -0.044073 0.029609
v 0.008199 -0.044327 0.030180
v 0.007448 -0.043354 0.030967
v 0.009710 -0.044301 0.031625
v 0.007865 -0.043073 0.031749
v 0.012445 -0.045888 0.031749
v 0.013251 -0.046888 0.030988
v 0.010952 -0.045906 0.030371
v 0.012732 -0.047186 0.029990
v 0.014744 -0.048466 0.029573
v 0.009608 -0.045827 0.028788
v 0.011388 -0.047116 0.028022
v 0.011731 -0.047721 0.026623
v 0.009849 -0.047151 0.024796
v 0.008792 -0.046511 0.024796
v 0.007661 -0.046134 0.023619
v 0.006929 -0.045660 0.023619
v 0.004528 -0.044038 0.023762
v 0.003295 -0.043222 0.023619
v 0.002377 -0.042828 0.022731
v 0.002933 -0.043362 0.022209
v -0.000923 -0.040170 0.023619
v -0.001924 -0.039820 0.022157
v -0.002935 -0.039021 0.022227
v -0.001656 -0.039618 0.023619
v -0.002592 -0.038890 0.023619
v -0.002360 -0.038706 0.024801
v -0.001340 -0.039495 0.024801
v -0.000682 -0.039995 0.024801
v 0.000161 -0.039565 0.028113
v 0.005000 -0.043064 0.028022
v 0.006892 -0.044231 0.028369
v 0.005983 -0.043231 0.029401
v 0.007865 -0.044538 0.029206
v 0.009969 -0.045608 0.029768
v 0.011490 -0.045581 0.031348
v 0.011916 -0.046142 0.030895
v 0.008699 -0.045485 0.028022
v 0.010414 -0.046949 0.026623
v 0.007921 -0.045958 0.024796
v 0.006660 -0.044380 0.027392
v 0.005223 -0.044196 0.024801
v 0.003619 -0.043003 0.025089
v 0.005751 -0.044020 0.026558
f 59 106 116
f 116 106 162
f 162 106 161
f 96 47 95
f 94 159 95
f 95 47 94
f 169 117 168
f 405 461 462
f 462 461 463
f 59 34 60
f 94 47 46
f 93 46 45
f 224 225 158
f 158 223 224
f 96 95 160
f 160 95 159
f 463 408 407
f 463 461 458
f 458 408 463
f 72 73 44
f 74 75 44
f 44 73 74
f 44 75 76
f 44 82 83
f 44 85 86
f 59 60 107
f 107 60 47
f 107 106 59
f 107 47 106
f 47 60 48
f 48 60 34
f 22 46 47
f 47 48 22
f 22 45 46
f 94 46 92
f 92 46 93
f 93 45 92
f 97 47 96
f 97 98 47
f 99 100 47
f 47 98 99
f 106 47 105
f 102 103 47
f 251 249 357
f 250 251 168
f 168 249 250
f 250 249 251
f 342 332 436
f 332 342 237
f 481 480 520
f 229 224 223
f 225 224 337
f 246 247 168
f 168 245 246
f 408 314 313
f 313 407 408
f 406 407 313
f 313 312 406
f 459 458 461
f 365 458 459
f 452 353 451
f 408 458 464
f 464 456 408
f 458 456 464
f 457 458 365
f 457 456 458
f 409 314 408
f 505 456 455
f 168 257 258
f 258 259 168
f 261 262 168
f 261 369 262
f 265 266 168
f 168 264 265
f 168 262 263
f 263 264 168
f 262 369 263
f 368 461 405
f 405 369 368
f 369 261 368
f 311 369 405
f 168 266 267
f 267 268 168
f 168 268 269
f 173 117 172
f 117 171 172
f 117 169 170
f 170 171 117
f 71 72 44
f 53 72 71
f 73 72 113
f 113 74 73
f 81 82 44
f 44 80 81
f 81 142 82
f 44 78 79
f 79 80 44
f 78 80 79
f 77 78 44
f 44 76 77
f 121 122 61
f 84 83 82
f 82 142 84
f 84 85 44
f 44 83 84
f 87 86 85
f 87 88 44
f 44 86 87
f 300 398 303
f 145 146 85
f 57 34 59
f 33 48 34
f 33 22 48
f 94 92 157
f 47 103 104
f 104 105 47
f 47 100 101
f 101 102 47
f 358 357 455
f 251 357 358
f 432 332 431
f 436 332 435
f 332 434 435
f 236 237 168
f 332 237 236
f 439 342 438
f 421 481 482
f 480 481 421
f 230 231 162
f 162 161 230
f 161 229 230
f 161 224 228
f 228 229 161
f 224 229 228
f 312 313 212
f 211 312 212
f 212 152 211
f 456 457 364
f 364 457 365
f 245 350 351
f 244 245 168
f 348 351 350
f 348 350 245
f 213 212 313
f 213 313 314
f 408 456 465
f 456 505 465
f 321 322 218
f 521 481 520
f 520 550 521
f 521 550 551
f 482 481 521
f 416 417 321
f 460 459 461
f 365 459 460
f 366 460 461
f 365 460 366
f 257 365 366
f 366 258 257
f 168 259 260
f 260 261 168
f 259 368 260
f 260 368 261
f 369 311 404
f 311 310 404
f 461 368 367
f 367 368 259
f 367 366 461
f 259 258 367
f 258 366 367
f 270 169 168
f 168 269 270
f 302 300 202
f 185 122 184
f 122 121 184
f 176 177 117
f 44 21 43
f 61 129 65
f 399 300 302
f 398 300 399
f 396 378 399
f 379 378 396
f 381 396 393
f 381 379 396
f 381 277 380
f 380 379 381
f 140 80 78
f 146 148 207
f 2 9 3
f 34 57 31
f 14 31 32
f 32 31 57
f 32 57 59
f 22 33 15
f 15 33 34
f 34 31 15
f 91 92 45
f 91 157 92
f 251 358 252
f 168 251 252
f 252 253 168
f 247 355 248
f 248 355 249
f 168 247 248
f 248 249 168
f 356 357 249
f 249 355 356
f 356 454 455
f 455 357 356
f 353 454 356
f 356 355 353
f 247 246 354
f 354 355 247
f 353 355 354
f 354 245 353
f 354 246 245
f 433 434 332
f 332 432 433
f 240 241 168
f 168 239 240
f 240 239 241
f 238 237 241
f 241 239 238
f 168 237 238
f 238 239 168
f 241 237 345
f 422 421 484
f 423 439 438
f 219 220 158
f 225 340 341
f 339 340 225
f 336 337 224
f 224 335 336
f 151 152 88
f 211 152 151
f 88 152 153
f 152 212 153
f 212 213 153
f 455 456 359
f 253 252 359
f 359 358 455
f 359 252 358
f 362 361 456
f 253 361 362
f 168 253 254
f 256 365 257
f 256 257 168
f 352 351 451
f 245 351 352
f 451 353 352
f 353 245 352
f 168 241 242
f 243 244 168
f 243 348 244
f 243 242 348
f 168 242 243
f 245 244 349
f 349 348 245
f 244 348 349
f 314 409 315
f 315 213 314
f 453 452 451
f 453 454 353
f 353 452 453
f 88 153 154
f 154 153 215
f 216 154 215
f 216 318 319
f 321 218 320
f 320 416 321
f 415 318 414
f 414 472 415
f 416 320 415
f 417 416 415
f 319 318 415
f 415 320 319
f 415 472 473
f 264 263 370
f 370 263 369
f 369 404 370
f 376 269 268
f 376 270 269
f 268 267 374
f 272 172 171
f 378 379 272
f 143 84 142
f 142 202 143
f 85 84 143
f 74 113 135
f 135 136 74
f 113 136 135
f 75 74 134
f 74 136 134
f 174 117 173
f 24 43 21
f 53 26 25
f 54 26 53
f 54 71 44
f 53 71 54
f 17 37 39
f 10 25 26
f 68 69 40
f 40 39 68
f 17 39 40
f 63 61 64
f 61 65 64
f 64 37 63
f 64 65 37
f 188 189 127
f 127 189 130
f 398 399 400
f 400 399 378
f 303 398 400
f 400 378 303
f 301 399 302
f 396 399 301
f 302 202 301
f 202 299 301
f 177 176 278
f 277 381 278
f 392 381 393
f 294 295 197
f 85 146 147
f 146 207 147
f 147 207 148
f 147 148 88
f 88 87 147
f 147 87 85
f 88 148 149
f 309 404 310
f 206 148 146
f 206 149 148
f 208 149 206
f 63 37 62
f 62 61 63
f 2 3 1
f 1 3 4
f 17 5 16
f 16 37 17
f 16 5 14
f 14 30 16
f 9 22 11
f 11 3 9
f 29 30 14
f 14 32 29
f 29 16 30
f 59 114 58
f 58 32 59
f 331 430 431
f 331 332 223
f 431 332 331
f 343 237 342
f 342 439 343
f 449 346 448
f 346 345 443
f 422 423 324
f 220 323 324
f 324 421 422
f 327 220 326
f 328 220 327
f 328 329 220
f 480 421 479
f 225 341 226
f 225 337 338
f 338 339 225
f 227 224 161
f 227 333 224
f 334 335 224
f 224 333 334
f 211 151 210
f 210 309 310
f 456 361 360
f 360 359 456
f 360 361 253
f 253 359 360
f 363 362 456
f 253 362 363
f 363 254 253
f 456 364 363
f 364 254 363
f 255 254 364
f 255 364 365
f 365 256 255
f 168 254 255
f 255 256 168
f 509 539 540
f 509 538 537
f 537 539 509
f 543 539 536
f 536 537 502
f 539 537 536
f 475 516 517
f 517 476 475
f 543 557 544
f 544 557 545
f 513 545 546
f 444 346 449
f 504 465 505
f 504 453 465
f 504 505 455
f 455 454 504
f 454 453 504
f 465 453 503
f 503 538 509
f 503 537 538
f 502 537 503
f 465 507 466
f 44 88 89
f 88 154 89
f 477 476 519
f 418 476 477
f 321 417 418
f 417 475 418
f 418 475 476
f 319 320 217
f 217 320 218
f 217 216 319
f 371 265 264
f 264 370 371
f 266 265 371
f 169 270 271
f 270 376 271
f 271 170 169
f 378 272 271
f 171 170 271
f 271 272 171
f 375 376 268
f 268 374 375
f 285 190 185
f 185 184 285
f 61 122 123
f 123 124 61
f 132 190 191
f 132 189 188
f 132 133 68
f 68 130 132
f 130 189 132
f 167 136 112
f 112 166 167
f 112 111 166
f 112 136 113
f 191 190 232
f 190 285 286
f 42 18 41
f 144 145 85
f 85 143 144
f 279 278 383
f 177 278 279
f 175 176 117
f 117 174 175
f 175 278 176
f 277 278 175
f 8 9 2
f 8 21 22
f 8 24 21
f 44 43 49
f 49 54 44
f 43 24 49
f 68 39 66
f 66 130 68
f 129 130 66
f 66 65 129
f 37 65 66
f 20 10 6
f 25 10 20
f 24 10 28
f 28 49 24
f 188 127 126
f 126 127 61
f 128 130 129
f 128 127 130
f 128 129 61
f 61 127 128
f 396 301 397
f 397 301 299
f 397 298 396
f 299 298 397
f 393 396 395
f 396 298 395
f 199 197 295
f 294 197 293
f 293 197 292
f 88 149 150
f 150 149 208
f 150 151 88
f 150 210 151
f 61 62 36
f 36 62 37
f 37 16 36
f 36 16 35
f 7 1 6
f 6 10 7
f 7 10 2
f 2 1 7
f 4 3 13
f 13 15 4
f 22 15 13
f 38 29 56
f 16 29 38
f 35 16 38
f 59 35 38
f 38 56 59
f 115 114 59
f 59 56 115
f 55 29 32
f 32 58 55
f 56 29 55
f 55 115 56
f 55 58 114
f 114 115 55
f 485 433 432
f 434 433 485
f 485 435 434
f 330 331 221
f 221 329 330
f 158 220 221
f 220 329 221
f 344 345 237
f 237 343 344
f 346 446 447
f 447 448 346
f 446 448 447
f 482 521 522
f 522 521 551
f 517 516 522
f 522 550 517
f 551 550 522
f 445 446 346
f 346 443 445
f 483 421 482
f 483 484 421
f 327 326 427
f 427 326 426
f 220 324 325
f 325 326 220
f 426 326 425
f 326 325 425
f 425 423 438
f 425 325 423
f 421 324 420
f 420 479 421
f 420 324 323
f 309 210 308
f 208 206 308
f 467 411 410
f 410 466 467
f 410 409 408
f 410 315 409
f 408 465 410
f 465 466 410
f 214 216 215
f 215 153 214
f 214 153 213
f 542 539 543
f 541 540 539
f 539 542 541
f 541 542 510
f 509 540 541
f 541 510 509
f 509 510 470
f 411 469 470
f 470 507 509
f 471 470 510
f 449 448 498
f 498 497 449
f 448 497 498
f 496 497 448
f 500 450 499
f 497 496 499
f 499 450 449
f 449 497 499
f 543 536 534
f 534 502 535
f 534 536 502
f 545 557 532
f 543 544 511
f 511 542 543
f 510 542 511
f 472 471 511
f 511 471 510
f 473 513 474
f 474 475 417
f 474 415 473
f 417 415 474
f 512 544 545
f 545 513 512
f 472 511 512
f 512 511 544
f 473 472 512
f 512 513 473
f 348 242 347
f 506 503 509
f 465 503 506
f 509 507 506
f 506 507 465
f 44 89 90
f 520 519 518
f 518 519 476
f 518 550 520
f 517 550 518
f 518 476 517
f 478 418 477
f 266 371 372
f 404 309 372
f 372 370 404
f 372 371 370
f 378 271 377
f 303 378 377
f 273 272 379
f 379 274 273
f 172 272 273
f 273 274 172
f 275 274 379
f 275 379 380
f 275 174 173
f 173 172 275
f 172 274 275
f 190 132 187
f 187 132 188
f 188 126 187
f 192 132 191
f 133 132 192
f 111 112 51
f 51 112 113
f 131 69 68
f 68 133 131
f 145 144 204
f 146 145 204
f 303 304 204
f 138 77 76
f 179 279 280
f 282 285 184
f 282 284 385
f 385 286 282
f 282 286 285
f 280 279 384
f 292 197 196
f 276 175 174
f 276 275 380
f 174 275 276
f 380 277 276
f 277 175 276
f 23 22 9
f 9 8 23
f 23 8 22
f 67 39 37
f 37 66 67
f 67 66 39
f 42 25 19
f 25 20 19
f 19 20 6
f 6 18 19
f 19 18 42
f 27 10 26
f 27 28 10
f 49 28 27
f 26 54 27
f 54 49 27
f 201 298 299
f 201 299 202
f 201 202 142
f 296 199 295
f 296 392 393
f 141 81 80
f 80 140 141
f 140 197 141
f 197 199 141
f 142 81 141
f 141 201 142
f 209 150 208
f 210 150 209
f 208 308 209
f 209 308 210
f 205 206 146
f 146 204 205
f 3 11 12
f 12 13 3
f 12 11 22
f 22 13 12
f 426 485 428
f 327 427 428
f 428 427 426
f 486 432 431
f 486 485 432
f 431 430 486
f 430 485 486
f 435 485 437
f 437 485 426
f 436 435 437
f 437 425 438
f 426 425 437
f 437 342 436
f 438 342 437
f 158 221 222
f 222 221 331
f 222 223 158
f 222 331 223
f 516 475 515
f 495 448 446
f 446 445 495
f 495 496 448
f 440 343 439
f 440 423 422
f 439 423 440
f 422 484 440
f 484 483 440
f 442 443 345
f 345 344 442
f 424 324 423
f 423 325 424
f 424 325 324
f 306 308 206
f 206 205 306
f 306 205 305
f 468 411 467
f 467 469 468
f 468 469 411
f 508 469 467
f 508 470 469
f 467 466 508
f 508 466 507
f 507 470 508
f 412 471 472
f 411 470 412
f 470 471 412
f 500 499 530
f 530 499 496
f 500 532 501
f 501 450 500
f 501 534 535
f 502 450 501
f 535 502 501
f 155 90 89
f 155 217 218
f 216 217 155
f 154 216 155
f 155 89 154
f 418 478 419
f 419 322 321
f 321 418 419
f 309 305 373
f 373 372 309
f 266 372 373
f 373 267 266
f 373 374 267
f 401 402 303
f 303 377 401
f 401 375 402
f 376 375 401
f 124 123 186
f 186 187 124
f 190 187 186
f 186 123 122
f 186 122 185
f 185 190 186
f 124 187 125
f 125 187 126
f 61 124 125
f 125 126 61
f 166 111 165
f 165 233 166
f 111 51 110
f 164 165 110
f 110 165 111
f 50 51 25
f 50 25 42
f 42 41 50
f 52 51 113
f 52 72 53
f 52 113 72
f 53 25 52
f 25 51 52
f 288 232 190
f 203 144 143
f 203 204 144
f 203 143 202
f 303 204 203
f 203 300 303
f 203 202 300
f 167 235 193
f 193 136 167
f 193 134 136
f 193 194 134
f 194 193 289
f 289 193 235
f 134 194 137
f 194 138 137
f 75 134 137
f 137 76 75
f 137 138 76
f 177 279 178
f 279 179 178
f 117 177 178
f 178 179 117
f 118 61 117
f 182 179 280
f 284 183 182
f 183 118 182
f 386 384 387
f 385 284 386
f 280 384 283
f 283 182 280
f 284 182 283
f 283 386 284
f 384 386 283
f 382 279 383
f 382 384 279
f 383 278 382
f 382 278 381
f 381 389 382
f 382 389 384
f 292 196 291
f 78 77 139
f 77 138 139
f 139 140 78
f 139 197 140
f 139 196 197
f 298 201 297
f 199 296 297
f 387 384 388
f 384 389 388
f 381 392 391
f 305 205 307
f 429 331 330
f 430 331 429
f 327 428 429
f 429 485 430
f 429 428 485
f 429 328 327
f 330 329 429
f 329 328 429
f 514 515 475
f 475 474 514
f 514 474 513
f 487 483 482
f 487 440 483
f 441 442 344
f 441 440 489
f 441 344 343
f 343 440 441
f 443 442 490
f 490 491 443
f 482 522 523
f 523 487 482
f 516 549 523
f 523 522 516
f 413 412 472
f 413 472 414
f 414 318 413
f 411 412 316
f 315 410 316
f 316 410 411
f 213 315 316
f 316 214 213
f 531 532 500
f 500 530 531
f 534 501 533
f 533 501 532
f 533 532 557
f 533 557 543
f 543 534 533
f 156 155 218
f 90 155 156
f 164 110 109
f 109 110 51
f 51 50 109
f 70 50 41
f 166 233 234
f 167 166 234
f 234 235 167
f 290 291 196
f 284 282 281
f 281 183 284
f 117 179 180
f 180 118 117
f 179 182 180
f 180 182 118
f 120 121 61
f 195 138 194
f 195 139 138
f 289 290 195
f 194 289 195
f 199 297 200
f 200 297 201
f 200 141 199
f 201 141 200
f 298 297 394
f 394 297 296
f 394 395 298
f 393 395 394
f 394 296 393
f 390 389 381
f 381 391 390
f 403 307 304
f 403 304 303
f 303 402 403
f 305 307 403
f 402 375 403
f 403 375 374
f 374 373 403
f 403 373 305
f 547 514 513
f 515 514 547
f 547 513 546
f 546 548 547
f 548 515 547
f 494 445 443
f 443 491 492
f 491 523 492
f 496 495 528
f 495 526 528
f 525 548 546
f 526 492 525
f 525 549 516
f 525 523 549
f 525 492 523
f 516 515 525
f 525 515 548
f 491 490 524
f 524 523 491
f 487 523 524
f 412 413 317
f 317 316 412
f 214 316 317
f 216 214 317
f 318 216 317
f 317 413 318
f 546 545 555
f 545 558 555
f 108 109 50
f 50 70 108
f 190 286 287
f 287 288 190
f 61 118 119
f 119 120 61
f 181 184 121
f 121 120 181
f 181 282 184
f 181 281 282
f 120 119 181
f 183 281 181
f 181 118 183
f 181 119 118
f 196 139 198
f 139 195 198
f 198 290 196
f 198 195 290
f 493 495 445
f 445 494 493
f 493 492 526
f 493 494 443
f 443 492 493
f 529 530 496
f 496 528 529
f 528 525 529
f 553 528 526
f 526 525 553
f 553 525 528
f 489 440 488
f 488 524 490
f 440 487 488
f 487 524 488
f 488 441 489
f 442 441 488
f 488 490 442
f 532 531 556
f 531 555 556
f 556 555 558
f 545 532 556
f 556 558 545
f 164 109 163
f 109 108 163
f 527 526 495
f 495 493 527
f 527 493 526
f 530 529 554
f 554 531 530
f 554 555 531
f 552 529 525
f 552 525 546
f 546 555 552
f 555 554 552
f 552 554 529
f 117 61 116
f 116 61 59
f 225 159 94
f 225 94 158
f 117 116 231
f 231 116 162
f 168 117 231
f 407 462 463
f 406 462 407
f 312 462 406
f 405 462 312
f 405 312 311
f 311 312 211
f 44 45 21
f 45 22 21
f 168 231 230
f 230 229 223
f 223 332 230
f 230 236 168
f 332 236 230
f 15 31 14
f 14 4 15
f 158 94 219
f 94 157 219
f 242 345 346
f 241 345 242
f 17 40 18
f 18 6 17
f 1 4 14
f 14 5 1
f 17 6 1
f 1 5 17
f 159 225 226
f 226 160 159
f 334 161 106
f 100 99 334
f 96 160 334
f 334 97 96
f 106 105 334
f 334 104 103
f 98 97 334
f 334 99 98
f 160 226 334
f 103 102 334
f 334 101 100
f 105 104 334
f 102 101 334
f 337 336 334
f 334 338 337
f 334 341 340
f 340 339 334
f 334 227 161
f 334 336 335
f 334 226 341
f 339 338 334
f 333 227 334
f 210 311 211
f 210 310 311
f 450 502 451
f 451 351 450
f 450 348 449
f 351 348 450
f 451 502 503
f 503 453 451
f 41 18 40
f 41 40 69
f 8 10 24
f 2 10 8
f 59 61 36
f 36 35 59
f 449 348 347
f 347 444 449
f 347 242 346
f 346 444 347
f 309 308 306
f 306 305 309
f 401 377 271
f 401 271 376
f 165 164 191
f 191 232 165
f 288 165 232
f 233 165 288
f 289 235 286
f 289 286 385
f 388 291 387
f 292 291 388
f 388 293 292
f 388 389 293
f 392 296 391
f 391 296 295
f 307 205 204
f 307 204 304
f 156 45 44
f 520 480 156
f 156 91 45
f 156 420 323
f 480 479 156
f 156 219 157
f 156 218 322
f 44 90 156
f 157 91 156
f 156 323 220
f 220 219 156
f 156 519 520
f 477 519 156
f 479 420 156
f 322 419 156
f 156 478 477
f 156 419 478
f 70 41 69
f 69 131 70
f 290 289 385
f 385 386 290
f 387 291 290
f 290 386 387
f 293 389 390
f 294 293 390
f 390 391 295
f 390 295 294
f 108 70 131
f 108 131 133
f 286 235 287
f 235 234 287
f 233 288 287
f 287 234 233
f 191 164 163
f 163 192 191
f 163 108 133
f 133 192 163
