v 0.088306 0.012094 -0.017421
v 0.088225 0.010630 -0.019137
v 0.088257 0.012094 -0.018885
v 0.088297 0.013559 -0.014493
v 0.088303 0.015026 -0.008631
v 0.088303 0.015026 -0.007163
v 0.088303 0.015023 0.010428
v 0.088297 0.012093 0.019222
v 0.088290 0.010631 0.021735
v 0.087751 0.009368 -0.019137
v 0.088225 0.012094 -0.019137
v 0.088123 0.009589 0.021735
v 0.088228 0.013559 -0.015957
v 0.088221 0.015026 -0.011560
v 0.088287 0.015026 -0.010092
v 0.088241 0.016491 -0.002766
v 0.088254 0.016491 -0.001298
v 0.088264 0.016491 0.001627
v 0.088264 0.016491 0.001807
v 0.088257 0.016490 0.003099
v 0.088280 0.015023 0.011893
v 0.088287 0.013558 0.016294
v 0.088254 0.012093 0.020690
v 0.088287 0.011055 0.021735
v 0.087398 0.009157 -0.019137
v 0.087957 0.009161 0.021735
v 0.087627 0.008506 0.021735
v 0.087470 0.008316 0.021735
v 0.087741 0.013324 -0.019137
v 0.087777 0.013379 -0.018885
v 0.087748 0.014729 -0.015957
v 0.088055 0.015026 -0.013024
v 0.087741 0.016155 -0.011560
v 0.088022 0.016491 -0.007163
v 0.088127 0.016491 -0.005699
v 0.088192 0.016491 -0.004231
v 0.087758 0.017625 -0.002766
v 0.087777 0.017667 -0.001298
v 0.087780 0.017683 0.000166
v 0.087787 0.017689 0.001627
v 0.087846 0.017542 0.001807
v 0.087777 0.017666 0.003099
v 0.088231 0.016490 0.004563
v 0.087787 0.017688 0.001807
v 0.088179 0.016490 0.006031
v 0.088110 0.016490 0.007496
v 0.088205 0.015025 0.013361
v 0.088202 0.013558 0.017758
v 0.088097 0.012093 0.021735
v 0.086607 0.008802 -0.019137
v 0.075917 0.006068 0.021735
v 0.074875 0.005861 0.019222
v 0.074882 0.005829 -0.017421
v 0.074882 0.005833 -0.019137
v 0.076345 0.006133 -0.019137
v 0.086908 0.013804 -0.019137
v 0.087274 0.014286 -0.018145
v 0.087575 0.014499 -0.017169
v 0.087418 0.015814 -0.013936
v 0.087575 0.015956 -0.013024
v 0.087428 0.017285 -0.008195
v 0.087542 0.017373 -0.007163
v 0.087807 0.016328 -0.010092
v 0.087646 0.017469 -0.005699
v 0.087712 0.017549 -0.004231
v 0.086607 0.018072 -0.002766
v 0.086607 0.018156 -0.001298
v 0.086607 0.018197 0.000166
v 0.086607 0.018205 0.001627
v 0.086607 0.018140 0.003099
v 0.087748 0.017611 0.004563
v 0.086607 0.018198 0.001807
v 0.087695 0.017533 0.006031
v 0.088016 0.016490 0.008964
v 0.087793 0.016294 0.012009
v 0.088055 0.015025 0.014825
v 0.087980 0.013558 0.019222
v 0.087944 0.012485 0.021735
v 0.074875 0.005871 0.021735
v 0.074875 0.005865 0.020690
v 0.066753 0.005714 0.021735
v 0.066799 0.005714 0.015345
v 0.066805 0.005714 0.013877
v 0.066809 0.005714 0.012413
v 0.066809 0.005714 0.012009
v 0.067720 0.006090 -0.019137
v 0.059271 0.005714 0.012009
v 0.058621 0.005719 0.012009
v 0.056390 0.005714 0.015261
v 0.086689 0.013863 -0.019137
v 0.086297 0.014318 -0.018209
v 0.086712 0.014564 -0.017561
v 0.086607 0.015206 -0.015957
v 0.086607 0.015859 -0.014080
v 0.086607 0.016187 -0.013024
v 0.086607 0.016595 -0.011560
v 0.086607 0.015616 -0.014817
v 0.086607 0.016948 -0.010092
v 0.086607 0.017171 -0.009148
v 0.086607 0.017333 -0.008419
v 0.086607 0.017557 -0.007163
v 0.086607 0.017759 -0.005699
v 0.086607 0.017927 -0.004231
v 0.085144 0.017964 -0.004231
v 0.085144 0.018095 -0.002766
v 0.085144 0.018172 -0.001298
v 0.085144 0.018220 0.000166
v 0.085144 0.018230 0.001627
v 0.085137 0.018144 0.003099
v 0.085137 0.017756 0.007496
v 0.086607 0.018008 0.004563
v 0.087532 0.017366 0.008964
v 0.087627 0.017455 0.007496
v 0.085144 0.018220 0.001807
v 0.087725 0.016131 0.013361
v 0.087575 0.015950 0.014825
v 0.087722 0.014711 0.017758
v 0.087692 0.013573 0.020550
v 0.087591 0.013183 0.021735
v 0.054929 0.005714 0.021735
v 0.067720 0.011667 -0.019137
v 0.054929 0.005714 0.019150
v 0.056374 0.006798 0.012009
v 0.055939 0.007698 0.012009
v 0.055697 0.009164 0.012009
v 0.085327 0.013896 -0.019137
v 0.085144 0.014645 -0.017421
v 0.085144 0.013899 -0.019137
v 0.085144 0.014323 -0.018221
v 0.085144 0.015219 -0.015957
v 0.085144 0.015631 -0.014829
v 0.085144 0.015864 -0.014096
v 0.085144 0.016196 -0.013024
v 0.085144 0.016614 -0.011560
v 0.085144 0.016971 -0.010092
v 0.085144 0.017182 -0.009164
v 0.085144 0.017337 -0.008435
v 0.085144 0.017565 -0.007163
v 0.085144 0.017783 -0.005699
v 0.083677 0.017874 -0.004231
v 0.083677 0.018001 -0.002766
v 0.083677 0.018079 -0.001298
v 0.083677 0.018126 0.000166
v 0.083677 0.018134 0.001627
v 0.084961 0.018209 0.001807
v 0.083670 0.018052 0.003099
v 0.083670 0.017812 0.006031
v 0.083670 0.017677 0.007496
v 0.085137 0.017569 0.008964
v 0.086607 0.017550 0.008964
v 0.086607 0.017725 0.007496
v 0.087424 0.017286 0.009968
v 0.087431 0.015826 0.015757
v 0.087499 0.014436 0.019222
v 0.086604 0.013476 0.021735
v 0.087346 0.014296 0.019966
v 0.054929 0.008965 0.021735
v 0.055697 0.010630 0.012009
v 0.055844 0.012104 0.012009
v 0.056266 0.013101 0.012009
v 0.067720 0.011735 -0.018993
v 0.073712 0.012884 -0.018281
v 0.074820 0.012630 -0.019137
v 0.054929 0.006770 0.018438
v 0.054929 0.006890 0.018402
v 0.054929 0.007698 0.018238
v 0.084255 0.014308 -0.018189
v 0.084059 0.013834 -0.019137
v 0.083677 0.015120 -0.015957
v 0.083677 0.015582 -0.014673
v 0.083677 0.015815 -0.013940
v 0.083677 0.016098 -0.013024
v 0.083677 0.016514 -0.011560
v 0.083677 0.016876 -0.010092
v 0.083677 0.017134 -0.008935
v 0.083677 0.017289 -0.008203
v 0.083677 0.017465 -0.007163
v 0.083677 0.017692 -0.005699
v 0.082210 0.017713 -0.004231
v 0.082210 0.017841 -0.002766
v 0.082210 0.017928 -0.001298
v 0.082210 0.017976 0.000166
v 0.082210 0.017975 0.001627
v 0.083491 0.018105 0.001811
v 0.083677 0.018124 0.001807
v 0.082207 0.017897 0.003099
v 0.082207 0.017653 0.006031
v 0.082207 0.017518 0.007496
v 0.083670 0.017480 0.008964
v 0.083670 0.017290 0.010004
v 0.085137 0.017338 0.010208
v 0.086607 0.017334 0.010176
v 0.086604 0.016557 0.013361
v 0.086604 0.016175 0.014825
v 0.086604 0.015861 0.015869
v 0.086604 0.015604 0.016606
v 0.086604 0.015186 0.017758
v 0.086604 0.013964 0.020746
v 0.085137 0.014319 0.020014
v 0.085137 0.013467 0.021735
v 0.086604 0.014634 0.019222
v 0.086604 0.014318 0.020014
v 0.054936 0.009550 0.021735
v 0.054929 0.009551 0.021731
v 0.054929 0.009163 0.018310
v 0.054929 0.010030 0.018862
v 0.054929 0.010124 0.019110
v 0.054929 0.010119 0.020202
v 0.056393 0.012967 0.013097
v 0.057207 0.013475 0.012009
v 0.067720 0.015915 -0.004323
v 0.067720 0.015832 -0.005019
v 0.067720 0.015776 -0.005443
v 0.067720 0.015502 -0.007163
v 0.067720 0.015471 -0.007331
v 0.067720 0.015221 -0.008631
v 0.067720 0.014887 -0.010092
v 0.067720 0.014489 -0.011620
v 0.067720 0.014461 -0.011720
v 0.067720 0.014428 -0.011832
v 0.067720 0.014146 -0.012776
v 0.067720 0.014088 -0.012964
v 0.067720 0.013585 -0.014493
v 0.067720 0.013021 -0.016005
v 0.067720 0.012515 -0.017249
v 0.067720 0.012490 -0.017309
v 0.072735 0.012818 -0.018137
v 0.080763 0.013548 -0.018893
v 0.082210 0.013629 -0.019137
v 0.081011 0.013467 -0.019137
v 0.079276 0.013233 -0.019137
v 0.082210 0.014190 -0.017897
v 0.083278 0.014258 -0.018065
v 0.083696 0.013808 -0.019137
v 0.083729 0.013987 -0.018761
v 0.082210 0.014947 -0.015957
v 0.082295 0.015520 -0.014369
v 0.082837 0.015772 -0.013800
v 0.082295 0.015925 -0.013072
v 0.082210 0.016350 -0.011560
v 0.082210 0.016712 -0.010092
v 0.082788 0.017243 -0.007987
v 0.082210 0.017530 -0.005699
v 0.078636 0.017212 -0.004851
v 0.080763 0.017536 -0.004231
v 0.078244 0.017261 -0.003874
v 0.077270 0.017201 -0.003194
v 0.076424 0.017133 -0.002730
v 0.076963 0.017239 -0.002218
v 0.076777 0.017262 -0.001298
v 0.080743 0.017797 0.000166
v 0.080763 0.017800 0.001611
v 0.080743 0.017797 0.001627
v 0.076770 0.017262 0.002819
v 0.082030 0.017944 0.001807
v 0.082207 0.017965 0.001811
v 0.077682 0.017339 0.003223
v 0.078744 0.017199 0.006468
v 0.081191 0.017391 0.007524
v 0.080155 0.017204 0.008060
v 0.081191 0.017280 0.008428
v 0.082252 0.017324 0.008968
v 0.079720 0.017258 0.007084
v 0.082772 0.017245 0.009792
v 0.083670 0.017132 0.010740
v 0.085137 0.017174 0.010940
v 0.085137 0.016924 0.012009
v 0.085137 0.016598 0.013361
v 0.085137 0.016184 0.014825
v 0.085137 0.015854 0.015853
v 0.085137 0.015613 0.016586
v 0.085137 0.015216 0.017758
v 0.085137 0.014655 0.019222
v 0.084337 0.014298 0.019970
v 0.084213 0.013410 0.021735
v 0.068857 0.011457 0.021735
v 0.066881 0.011353 0.021407
v 0.057292 0.010386 0.020690
v 0.055511 0.009841 0.021299
v 0.056743 0.011337 0.018426
v 0.054929 0.010067 0.020362
v 0.056596 0.012815 0.014077
v 0.057282 0.013497 0.012009
v 0.067345 0.016146 0.001811
v 0.067720 0.016147 -0.001298
v 0.067720 0.016054 -0.002766
v 0.079188 0.017334 -0.004311
v 0.067848 0.015812 -0.005307
v 0.082262 0.017312 -0.007151
v 0.081811 0.017182 -0.007627
v 0.070059 0.015718 -0.007651
v 0.071040 0.015781 -0.007999
v 0.079276 0.016343 -0.010092
v 0.075734 0.015743 -0.010760
v 0.076711 0.015805 -0.010996
v 0.077812 0.015675 -0.011988
v 0.078734 0.015733 -0.012204
v 0.079711 0.015796 -0.012416
v 0.068093 0.014318 -0.012372
v 0.080763 0.015860 -0.012648
v 0.071216 0.014292 -0.013760
v 0.074454 0.014253 -0.015109
v 0.075431 0.014316 -0.015285
v 0.080763 0.014759 -0.015957
v 0.082210 0.014478 -0.017165
v 0.068279 0.012826 -0.016693
v 0.082210 0.013744 -0.018885
v 0.082419 0.013655 -0.019137
v 0.080743 0.015278 -0.014493
v 0.080763 0.016855 -0.008627
v 0.082262 0.017061 -0.008539
v 0.079616 0.017273 -0.005279
v 0.073415 0.016760 -0.002766
v 0.067720 0.016196 0.000166
v 0.071951 0.016723 0.001627
v 0.076564 0.017288 0.001627
v 0.067345 0.016088 0.003099
v 0.071948 0.016652 0.003099
v 0.069021 0.016175 0.004563
v 0.071765 0.016692 0.001811
v 0.067345 0.015833 0.006059
v 0.067345 0.015819 0.006212
v 0.067345 0.015970 0.004555
v 0.070487 0.016223 0.006031
v 0.077812 0.016979 0.007496
v 0.068949 0.015871 0.007564
v 0.068413 0.015741 0.008100
v 0.081132 0.017266 0.008480
v 0.081191 0.017155 0.009196
v 0.081792 0.017183 0.009460
v 0.067345 0.015761 0.006776
v 0.082252 0.017062 0.010340
v 0.082207 0.016707 0.011893
v 0.071036 0.015781 0.009808
v 0.076345 0.016315 0.010428
v 0.083670 0.016870 0.011893
v 0.083670 0.016514 0.013361
v 0.083670 0.016091 0.014825
v 0.083670 0.015567 0.016438
v 0.083670 0.015118 0.017758
v 0.083778 0.014523 0.019310
v 0.083357 0.014248 0.019858
v 0.083778 0.013960 0.020550
v 0.083732 0.013377 0.021735
v 0.069021 0.011479 0.021735
v 0.079276 0.012842 0.021735
v 0.079276 0.013340 0.020690
v 0.069021 0.011977 0.020690
v 0.062238 0.011386 0.020010
v 0.061258 0.011321 0.019862
v 0.058759 0.011152 0.019474
v 0.057256 0.011100 0.019130
v 0.057720 0.011402 0.018582
v 0.080740 0.014392 0.018738
v 0.058759 0.011873 0.017758
v 0.057256 0.011626 0.017866
v 0.057292 0.012197 0.016294
v 0.057569 0.012894 0.014313
v 0.057164 0.013083 0.013497
v 0.058759 0.013345 0.013361
v 0.058759 0.013701 0.012009
v 0.067345 0.015467 0.008964
v 0.067345 0.015648 0.007720
v 0.067345 0.015672 0.007556
v 0.067345 0.016072 0.003303
v 0.067720 0.016202 0.001627
v 0.067720 0.016195 0.001787
v 0.067955 0.015799 0.007120
v 0.069390 0.015803 0.008496
v 0.070523 0.015863 0.008976
v 0.070056 0.015719 0.009472
v 0.079273 0.016349 0.011893
v 0.082207 0.016681 0.012005
v 0.067345 0.015181 0.010428
v 0.069021 0.015396 0.010428
v 0.071948 0.015685 0.010816
v 0.077812 0.016169 0.011893
v 0.082203 0.016352 0.013361
v 0.082311 0.015925 0.014877
v 0.082870 0.015767 0.015585
v 0.082311 0.015511 0.016161
v 0.082203 0.014952 0.017758
v 0.082203 0.014489 0.018966
v 0.082203 0.014182 0.019698
v 0.082203 0.013714 0.020690
v 0.082203 0.013205 0.021735
v 0.080740 0.014087 0.019470
v 0.069021 0.012572 0.019362
v 0.080740 0.014765 0.017758
v 0.063836 0.012831 0.017042
v 0.058759 0.012416 0.016294
v 0.058759 0.012743 0.015305
v 0.058759 0.012975 0.014573
v 0.071180 0.014296 0.015573
v 0.070608 0.014438 0.014853
v 0.078708 0.015736 0.014013
v 0.070484 0.014859 0.013361
v 0.076688 0.015808 0.012809
v 0.070484 0.015214 0.012009
v 0.070487 0.015244 0.011893
v 0.076257 0.015951 0.012009
v 0.077669 0.016125 0.012009
v 0.079688 0.015799 0.014229
v 0.080740 0.015868 0.014441
v 0.080740 0.015636 0.015173
v 0.081893 0.015707 0.015401
v 0.080740 0.015275 0.016294
v 0.079276 0.015093 0.016294
v 0.077809 0.014905 0.016294
v 0.062859 0.012768 0.016854
v 0.077809 0.015377 0.014825
f 1 9 2
f 7 6 19
f 1 6 7
f 25 28 50
f 10 28 25
f 10 2 12
f 12 2 9
f 50 28 55
f 28 54 55
f 86 54 89
f 89 122 86
f 160 121 159
f 277 204 276
f 276 204 203
f 292 216 291
f 31 33 32
f 60 33 31
f 27 28 10
f 52 28 51
f 161 160 226
f 121 160 161
f 164 125 122
f 124 125 86
f 122 125 124
f 157 203 204
f 158 125 166
f 158 206 159
f 159 121 158
f 207 160 159
f 159 206 207
f 5 6 1
f 16 5 15
f 42 45 43
f 145 114 108
f 108 144 145
f 305 232 306
f 306 224 305
f 2 11 3
f 1 2 3
f 69 72 42
f 69 40 68
f 69 68 108
f 108 72 69
f 13 31 32
f 13 3 11
f 44 41 40
f 44 69 42
f 40 69 44
f 38 16 37
f 68 40 39
f 39 38 68
f 10 12 26
f 26 27 10
f 79 81 80
f 81 52 80
f 80 51 79
f 80 52 51
f 53 54 28
f 28 52 53
f 53 52 81
f 53 85 54
f 54 85 87
f 166 125 165
f 125 164 165
f 86 122 123
f 123 124 86
f 122 124 123
f 210 160 209
f 209 282 210
f 205 158 166
f 206 158 205
f 4 5 1
f 15 5 4
f 1 3 4
f 3 13 4
f 18 41 19
f 40 41 18
f 20 7 19
f 19 41 20
f 41 44 20
f 42 43 20
f 20 44 42
f 152 153 116
f 24 23 49
f 211 160 210
f 155 199 200
f 121 161 162
f 130 93 127
f 167 129 128
f 167 127 129
f 130 127 167
f 224 306 225
f 226 160 225
f 160 224 225
f 216 292 241
f 131 93 130
f 60 31 59
f 31 58 59
f 108 114 70
f 70 72 108
f 42 72 70
f 61 33 60
f 60 59 61
f 30 11 29
f 30 13 11
f 31 13 30
f 29 58 30
f 30 58 31
f 66 37 65
f 17 16 38
f 38 39 17
f 17 39 40
f 40 18 17
f 17 18 5
f 5 16 17
f 82 53 81
f 88 87 89
f 88 89 54
f 54 87 88
f 204 280 281
f 281 280 282
f 65 37 35
f 63 34 33
f 156 153 197
f 193 152 192
f 153 152 193
f 8 24 9
f 8 9 1
f 1 7 8
f 23 24 8
f 7 20 21
f 21 20 43
f 21 43 45
f 45 46 21
f 46 47 21
f 49 23 48
f 366 314 284
f 366 315 314
f 284 317 366
f 349 348 384
f 277 348 349
f 384 348 347
f 347 348 277
f 277 346 347
f 385 346 386
f 342 384 385
f 384 347 385
f 385 347 346
f 345 277 276
f 345 346 277
f 210 282 283
f 283 284 210
f 283 317 284
f 379 380 338
f 337 338 269
f 337 378 379
f 379 338 337
f 334 376 335
f 195 271 272
f 121 162 163
f 229 162 228
f 227 161 226
f 227 162 161
f 226 225 227
f 227 225 306
f 227 306 232
f 232 162 227
f 233 232 305
f 233 162 232
f 233 228 162
f 217 160 216
f 242 292 291
f 97 131 94
f 93 131 97
f 94 59 97
f 97 59 93
f 151 152 112
f 264 334 335
f 192 152 150
f 150 152 151
f 109 70 114
f 114 145 109
f 108 68 107
f 105 66 104
f 104 66 103
f 90 126 91
f 129 127 91
f 91 126 128
f 128 129 91
f 91 127 93
f 93 92 91
f 57 56 90
f 90 91 57
f 57 91 92
f 29 56 57
f 57 58 29
f 57 59 58
f 93 59 57
f 57 92 93
f 37 66 67
f 68 38 67
f 38 37 67
f 67 66 105
f 67 107 68
f 62 61 103
f 103 66 62
f 33 61 62
f 62 63 33
f 53 82 83
f 282 209 208
f 208 281 282
f 208 209 160
f 160 207 208
f 351 352 278
f 204 277 278
f 277 349 278
f 279 280 204
f 279 352 280
f 204 278 279
f 279 278 352
f 356 391 357
f 357 280 356
f 282 280 357
f 36 16 15
f 36 37 16
f 36 35 37
f 34 35 14
f 14 36 15
f 35 36 14
f 14 13 32
f 32 33 14
f 33 34 14
f 15 4 14
f 14 4 13
f 198 199 155
f 155 156 198
f 119 156 155
f 201 156 197
f 197 272 201
f 272 273 201
f 115 152 116
f 115 112 152
f 75 112 115
f 74 47 46
f 74 75 47
f 74 112 75
f 23 8 22
f 22 48 23
f 22 8 7
f 7 21 22
f 22 21 47
f 47 48 22
f 291 216 215
f 215 214 291
f 216 160 215
f 160 214 215
f 315 366 320
f 320 316 315
f 350 384 387
f 350 349 384
f 350 387 388
f 350 352 351
f 351 278 350
f 350 278 349
f 379 405 406
f 406 380 379
f 342 385 343
f 386 344 343
f 343 385 386
f 398 378 402
f 402 401 398
f 400 401 376
f 398 401 400
f 365 283 323
f 317 283 365
f 269 338 270
f 270 195 269
f 271 195 270
f 378 337 373
f 373 402 378
f 268 337 269
f 192 267 268
f 268 193 192
f 374 400 376
f 361 400 374
f 196 272 197
f 196 195 272
f 197 153 196
f 153 195 196
f 231 163 162
f 168 167 128
f 168 234 167
f 229 228 307
f 307 233 229
f 228 233 307
f 229 233 308
f 308 233 234
f 167 234 235
f 235 233 167
f 234 233 235
f 160 217 218
f 216 241 293
f 293 217 216
f 292 242 311
f 311 242 241
f 241 242 175
f 95 59 94
f 236 303 309
f 236 233 305
f 309 301 237
f 237 236 309
f 170 236 237
f 309 303 302
f 302 301 309
f 302 303 224
f 73 74 46
f 333 373 336
f 336 373 337
f 336 268 267
f 337 268 336
f 192 150 149
f 319 365 323
f 146 147 109
f 146 109 145
f 151 112 111
f 111 112 70
f 103 61 102
f 61 101 102
f 102 104 103
f 210 284 285
f 284 314 285
f 106 67 105
f 107 67 106
f 105 142 106
f 106 142 107
f 64 66 65
f 64 62 66
f 65 35 64
f 64 35 34
f 34 63 64
f 63 62 64
f 85 53 84
f 53 83 84
f 408 411 394
f 405 411 408
f 407 406 408
f 408 406 405
f 354 389 390
f 407 408 382
f 382 408 389
f 382 389 354
f 392 391 394
f 394 393 392
f 394 411 395
f 395 411 403
f 398 361 360
f 361 283 360
f 360 393 394
f 394 395 360
f 49 48 77
f 156 201 202
f 199 198 202
f 202 198 156
f 202 273 199
f 202 201 273
f 47 75 76
f 75 115 76
f 76 48 47
f 76 77 48
f 76 115 116
f 317 365 318
f 365 319 318
f 367 366 317
f 317 320 367
f 367 320 366
f 280 352 353
f 352 350 353
f 353 350 388
f 388 387 353
f 387 354 353
f 353 354 280
f 403 411 404
f 404 411 405
f 404 405 379
f 379 378 404
f 378 403 404
f 274 343 344
f 344 275 274
f 342 343 274
f 274 275 200
f 274 200 199
f 274 341 342
f 199 273 274
f 273 341 274
f 335 376 377
f 376 401 377
f 399 361 398
f 398 400 399
f 399 400 361
f 372 373 333
f 402 373 372
f 401 402 372
f 372 377 401
f 335 377 372
f 193 268 194
f 153 193 194
f 194 195 153
f 269 195 194
f 194 268 269
f 376 334 375
f 375 374 376
f 334 374 375
f 230 162 229
f 230 231 162
f 219 299 220
f 219 220 160
f 160 218 219
f 310 241 292
f 292 311 310
f 310 311 241
f 291 214 213
f 213 214 160
f 241 175 174
f 131 170 132
f 94 131 132
f 132 95 94
f 176 175 242
f 136 174 175
f 304 236 305
f 303 236 304
f 305 224 304
f 224 303 304
f 233 236 169
f 169 236 170
f 167 233 169
f 130 167 169
f 169 131 130
f 169 170 131
f 170 237 238
f 238 239 172
f 238 237 301
f 300 239 238
f 300 238 222
f 222 238 301
f 223 302 224
f 301 302 223
f 223 222 301
f 223 224 160
f 160 222 223
f 70 112 113
f 113 73 70
f 112 74 113
f 74 73 113
f 71 73 46
f 71 45 42
f 71 46 45
f 42 70 71
f 70 73 71
f 265 264 333
f 333 336 265
f 110 150 151
f 110 149 150
f 151 111 110
f 148 149 110
f 70 109 110
f 110 111 70
f 110 147 148
f 109 147 110
f 144 184 185
f 184 146 185
f 185 145 144
f 185 146 145
f 104 102 139
f 139 101 138
f 139 102 101
f 100 101 61
f 61 99 100
f 99 136 100
f 138 101 100
f 96 61 59
f 59 95 96
f 96 95 134
f 107 142 143
f 143 144 108
f 108 107 143
f 141 142 105
f 288 213 212
f 160 211 212
f 212 213 160
f 290 242 291
f 290 289 242
f 291 213 290
f 290 213 289
f 286 285 249
f 286 211 210
f 210 285 286
f 394 391 410
f 410 390 394
f 391 390 410
f 409 408 394
f 394 390 409
f 389 408 409
f 409 390 389
f 355 391 356
f 355 390 391
f 356 280 355
f 280 354 355
f 354 390 355
f 407 382 381
f 381 406 407
f 380 406 381
f 340 381 382
f 340 273 272
f 340 341 273
f 383 382 354
f 341 340 383
f 383 340 382
f 387 384 383
f 383 354 387
f 383 384 342
f 342 341 383
f 398 360 397
f 359 283 282
f 359 360 283
f 49 77 78
f 153 156 154
f 156 119 154
f 117 76 116
f 77 76 117
f 116 153 117
f 153 154 117
f 252 316 253
f 333 264 332
f 332 372 333
f 332 264 335
f 335 372 332
f 323 324 258
f 258 319 323
f 258 188 187
f 263 188 258
f 362 283 361
f 361 374 362
f 325 263 331
f 283 364 331
f 217 293 294
f 294 218 217
f 294 295 218
f 294 293 241
f 297 219 218
f 171 132 170
f 170 238 171
f 171 238 172
f 133 172 134
f 134 95 133
f 95 132 133
f 133 171 172
f 132 171 133
f 135 136 99
f 135 96 134
f 134 174 135
f 174 136 135
f 137 176 138
f 138 100 137
f 137 100 136
f 175 176 137
f 137 136 175
f 220 299 221
f 160 220 221
f 221 222 160
f 264 265 190
f 266 336 267
f 266 265 336
f 266 267 192
f 177 176 242
f 138 176 177
f 98 99 61
f 61 96 98
f 98 135 99
f 96 135 98
f 183 184 144
f 256 184 183
f 252 253 183
f 255 256 183
f 182 143 142
f 252 183 182
f 144 143 182
f 182 183 144
f 105 104 140
f 140 141 105
f 104 139 140
f 141 140 180
f 339 338 380
f 380 381 339
f 381 340 339
f 271 270 339
f 339 270 338
f 272 271 339
f 339 340 272
f 396 397 360
f 396 395 403
f 396 360 395
f 398 397 396
f 396 378 398
f 396 403 378
f 393 360 358
f 360 359 358
f 358 392 393
f 358 359 282
f 282 357 358
f 358 357 391
f 391 392 358
f 119 78 118
f 118 78 77
f 77 117 118
f 118 154 119
f 118 117 154
f 254 318 319
f 319 258 254
f 254 258 257
f 255 183 254
f 254 183 253
f 254 253 316
f 316 320 254
f 254 320 317
f 317 318 254
f 187 147 186
f 147 146 186
f 186 258 187
f 257 258 186
f 186 254 257
f 186 184 256
f 186 146 184
f 186 256 255
f 255 254 186
f 334 264 330
f 259 263 325
f 259 188 263
f 328 261 260
f 260 259 325
f 260 261 188
f 188 259 260
f 148 188 189
f 264 190 189
f 189 149 148
f 189 190 149
f 371 374 334
f 371 362 374
f 334 330 371
f 371 330 329
f 325 331 368
f 368 331 364
f 321 324 323
f 323 283 321
f 321 258 324
f 218 295 296
f 296 297 218
f 240 239 300
f 172 239 240
f 240 294 241
f 295 294 240
f 240 296 295
f 297 296 240
f 241 174 240
f 149 190 191
f 192 149 191
f 191 266 192
f 191 190 265
f 265 266 191
f 250 285 314
f 249 285 250
f 178 140 139
f 178 139 138
f 138 177 178
f 178 177 242
f 313 286 249
f 328 260 327
f 188 261 262
f 262 189 188
f 262 261 328
f 264 189 262
f 262 330 264
f 328 329 262
f 329 330 262
f 370 371 329
f 362 371 370
f 326 260 325
f 325 368 326
f 326 327 260
f 326 368 364
f 364 327 326
f 283 331 322
f 322 321 283
f 322 331 263
f 263 258 322
f 258 321 322
f 298 240 300
f 297 240 298
f 298 221 299
f 299 219 298
f 219 297 298
f 300 222 298
f 222 221 298
f 172 240 173
f 173 240 174
f 134 172 173
f 173 174 134
f 251 250 314
f 314 315 251
f 315 316 251
f 251 316 252
f 252 182 251
f 181 180 249
f 249 250 181
f 181 182 142
f 181 251 182
f 250 251 181
f 142 141 181
f 141 180 181
f 242 289 243
f 243 178 242
f 243 213 288
f 289 213 243
f 244 212 211
f 288 212 244
f 179 180 140
f 179 244 245
f 243 244 179
f 249 180 248
f 248 313 249
f 180 179 246
f 246 179 245
f 363 327 364
f 362 327 363
f 363 364 283
f 283 362 363
f 369 327 362
f 362 370 369
f 328 327 369
f 369 329 328
f 369 370 329
f 312 243 288
f 288 244 312
f 312 244 243
f 245 244 287
f 287 246 245
f 287 244 211
f 211 246 287
f 211 286 247
f 247 246 211
f 286 313 247
f 313 248 247
f 247 248 180
f 180 246 247
f 158 121 86
f 86 125 158
f 6 5 18
f 19 6 18
f 166 165 208
f 208 122 120
f 208 205 166
f 120 157 208
f 208 164 122
f 208 157 204
f 208 207 206
f 208 165 164
f 206 205 208
f 204 281 208
f 120 122 84
f 84 81 120
f 122 89 84
f 89 87 84
f 84 87 85
f 84 82 81
f 84 83 82
f 188 147 187
f 148 147 188
f 230 2 10
f 50 55 230
f 230 25 50
f 86 121 230
f 230 54 86
f 230 11 2
f 121 163 230
f 10 25 230
f 230 55 54
f 128 126 230
f 29 11 230
f 230 56 29
f 230 126 90
f 90 56 230
f 229 308 230
f 230 168 128
f 163 231 230
f 234 168 230
f 230 308 234
f 120 81 78
f 78 12 9
f 28 27 78
f 79 51 78
f 51 28 78
f 78 157 120
f 78 26 12
f 78 81 79
f 276 203 78
f 78 344 386
f 9 24 78
f 203 157 78
f 155 200 78
f 27 26 78
f 78 24 49
f 386 346 78
f 78 345 276
f 346 345 78
f 78 119 155
f 200 275 78
f 78 275 344
f 178 243 179
f 140 178 179
