v 0.000293 0.054443 0.025610
v 0.000293 0.054311 0.027506
v 0.000293 0.053761 0.024218
v -0.001773 0.053680 0.024224
v -0.003671 0.053604 0.024250
v -0.005568 0.053475 0.024326
v -0.001773 0.054271 0.025610
v -0.001773 0.054142 0.027506
v 0.000129 0.054299 0.027506
v 0.000293 0.053636 0.031301
v -0.001773 0.053495 0.031301
v 0.000293 0.052178 0.023770
v -0.001773 0.052178 0.023782
v -0.003671 0.052178 0.023805
v -0.005568 0.052178 0.023879
v -0.003671 0.054102 0.025610
v -0.007470 0.052178 0.024031
v -0.011260 0.051861 0.024234
v -0.007470 0.053295 0.024474
v -0.003671 0.053953 0.027506
v -0.001773 0.053825 0.029400
v 0.000293 0.053339 0.032784
v -0.002954 0.053166 0.032410
v -0.001773 0.053222 0.032656
v 0.000293 0.050551 0.024217
v -0.037814 0.031723 0.023840
v -0.026425 0.042691 0.023798
v -0.011260 0.050278 0.023788
v -0.013157 0.050278 0.023899
v -0.008660 0.053174 0.024598
v -0.005568 0.053829 0.025610
v -0.013157 0.051580 0.024343
v -0.005568 0.053644 0.027506
v -0.003671 0.053616 0.029400
v 0.000293 0.053094 0.033858
v -0.003619 0.053279 0.031272
v -0.004219 0.053054 0.031882
v -0.005142 0.052676 0.032784
v -0.005563 0.052503 0.033197
v -0.003310 0.053013 0.032784
v -0.003666 0.052387 0.035089
v -0.001773 0.052636 0.035089
v 0.000129 0.052797 0.035089
v 0.000293 0.052841 0.034961
v 0.000293 0.049571 0.025697
v -0.042105 0.013416 0.032784
v -0.035907 0.031723 0.024166
v -0.047568 0.013416 0.032784
v -0.039740 0.031723 0.024187
v -0.037814 0.033213 0.023942
v -0.035917 0.035105 0.023877
v -0.034019 0.037004 0.023868
v -0.032117 0.038900 0.023862
v -0.024532 0.044587 0.023850
v -0.020738 0.046487 0.023802
v -0.016952 0.048383 0.023813
v -0.018850 0.048383 0.024033
v -0.016952 0.049941 0.024256
v -0.009677 0.052961 0.025610
v -0.008730 0.053186 0.025610
v -0.007470 0.053447 0.025610
v -0.014535 0.051367 0.024511
v -0.011260 0.052515 0.025610
v -0.008585 0.053162 0.026748
v -0.004893 0.053178 0.030619
v -0.007409 0.052925 0.029359
v -0.007470 0.052552 0.031301
v -0.005544 0.052925 0.031272
v -0.007465 0.052142 0.033197
v -0.005563 0.052054 0.035089
v -0.003666 0.051869 0.036991
v -0.005610 0.051511 0.037088
v -0.001773 0.052118 0.036991
v 0.000129 0.052299 0.036991
v 0.000293 0.052813 0.035078
v 0.000293 0.039968 0.043676
v -0.033485 0.013416 0.043676
v -0.046654 0.013416 0.036149
v -0.047357 0.014203 0.032784
v -0.040447 0.031723 0.025224
v -0.039210 0.033213 0.024388
v -0.037734 0.034972 0.024347
v -0.035851 0.036932 0.024287
v -0.033968 0.038844 0.024273
v -0.032014 0.040735 0.024312
v -0.030225 0.040796 0.023920
v -0.026449 0.044651 0.024197
v -0.024532 0.046158 0.024294
v -0.023895 0.046346 0.024240
v -0.022813 0.046668 0.024152
v -0.022298 0.047740 0.024406
v -0.018850 0.049547 0.024478
v -0.011260 0.052351 0.027506
v -0.014703 0.051427 0.025610
v -0.013157 0.051929 0.025610
v -0.019801 0.049330 0.024657
v -0.015655 0.051086 0.025610
v -0.009278 0.052893 0.027430
v -0.009363 0.052507 0.029400
v -0.009363 0.052126 0.031301
v -0.009531 0.051612 0.033363
v -0.008440 0.051234 0.036064
v -0.007465 0.051680 0.035089
v -0.007465 0.051339 0.036420
v -0.005006 0.051298 0.038123
v -0.003666 0.051403 0.038400
v -0.006271 0.051182 0.037788
v -0.001773 0.051531 0.038710
v 0.000045 0.051568 0.039055
v 0.000293 0.051592 0.039033
v 0.000293 0.052307 0.036991
v 0.000293 0.052355 0.036810
v 0.000293 0.048668 0.043676
v -0.042686 0.013416 0.043676
v -0.046523 0.013416 0.036596
v -0.046481 0.013729 0.036459
v -0.046678 0.014312 0.035156
v -0.047235 0.014235 0.033197
v -0.046298 0.014991 0.035830
v -0.046125 0.016163 0.035156
v -0.046509 0.016987 0.032784
v -0.040447 0.032124 0.025610
v -0.040447 0.032020 0.025506
v -0.038835 0.034249 0.024591
v -0.037055 0.036253 0.024503
v -0.035181 0.038173 0.024491
v -0.033303 0.040065 0.024482
v -0.031307 0.041852 0.024559
v -0.030225 0.042290 0.024361
v -0.028510 0.042876 0.024131
v -0.025825 0.045748 0.024468
v -0.028004 0.044065 0.024374
v -0.014479 0.051351 0.027171
v -0.013809 0.051134 0.029400
v -0.011260 0.051969 0.029400
v -0.023525 0.047395 0.025610
v -0.022569 0.047897 0.025610
v -0.019801 0.049330 0.024706
v -0.016952 0.050555 0.025610
v -0.016952 0.050367 0.027506
v -0.011349 0.051539 0.031338
v -0.010773 0.051379 0.032839
v -0.010272 0.051214 0.034098
v -0.009826 0.051090 0.035089
v -0.008875 0.051359 0.035089
v -0.011255 0.050126 0.036991
v -0.009189 0.050792 0.036812
v -0.007465 0.051053 0.037367
v -0.003666 0.051033 0.039349
v -0.005610 0.050909 0.038807
v -0.007465 0.050487 0.038885
v -0.001773 0.051158 0.039657
v -0.000649 0.051214 0.039799
v 0.000293 0.051254 0.039879
v 0.000293 0.049037 0.043271
v 0.000129 0.049033 0.043263
v 0.000129 0.048656 0.043676
v -0.042654 0.013545 0.043676
v -0.042747 0.013416 0.043600
v -0.046238 0.013416 0.037513
v -0.046130 0.014312 0.037051
v -0.045591 0.016131 0.036991
v -0.045535 0.018031 0.035091
v -0.046120 0.018208 0.032784
v -0.046275 0.016818 0.033848
v -0.040447 0.032004 0.026188
v -0.038798 0.034201 0.026672
v -0.038840 0.034261 0.025610
v -0.045619 0.019533 0.032784
v -0.045465 0.019907 0.032784
v -0.044954 0.021075 0.032784
v -0.044326 0.022485 0.032784
v -0.043759 0.023722 0.032784
v -0.038072 0.035209 0.025610
v -0.037121 0.036330 0.025610
v -0.036212 0.037281 0.025610
v -0.034343 0.039205 0.025610
v -0.033392 0.040153 0.025610
v -0.032295 0.041101 0.025610
v -0.031349 0.041884 0.025610
v -0.030225 0.042796 0.025610
v -0.029231 0.043599 0.025610
v -0.028280 0.044278 0.025610
v -0.026917 0.045226 0.025610
v -0.025971 0.045840 0.025610
v -0.015088 0.051045 0.027687
v -0.015050 0.050720 0.029400
v -0.013115 0.050969 0.031338
v -0.026706 0.045113 0.027506
v -0.024532 0.046479 0.027506
v -0.023296 0.047254 0.027506
v -0.022349 0.047800 0.027506
v -0.019749 0.049310 0.025972
v -0.020550 0.048929 0.025446
v -0.019014 0.049668 0.025446
v -0.016709 0.049656 0.031301
v -0.015050 0.050323 0.031301
v -0.018559 0.049644 0.027506
v -0.017140 0.049841 0.029583
v -0.012038 0.051174 0.032001
v -0.013153 0.050531 0.033197
v -0.011349 0.051066 0.033363
v -0.011255 0.050656 0.035089
v -0.014244 0.049391 0.036223
v -0.013087 0.049563 0.036911
v -0.012413 0.049403 0.038119
v -0.009358 0.050005 0.038885
v -0.011096 0.049539 0.038805
v -0.003666 0.050294 0.040781
v -0.007465 0.049712 0.040510
v -0.005671 0.049853 0.040945
v -0.010351 0.049343 0.039857
v -0.009358 0.049475 0.040089
v -0.001773 0.050547 0.040781
v 0.000045 0.050800 0.040637
v 0.000293 0.051001 0.040323
v 0.000293 0.049102 0.043187
v 0.000293 0.049760 0.042324
v 0.000129 0.049756 0.042314
v -0.001773 0.049668 0.042199
v -0.001773 0.048941 0.043146
v -0.000700 0.048583 0.043676
v -0.042602 0.013709 0.043676
v -0.042429 0.014786 0.043480
v -0.043169 0.014187 0.042780
v -0.044008 0.013416 0.041999
v -0.046017 0.013416 0.038110
v -0.045479 0.014235 0.038887
v -0.044855 0.016167 0.038959
v -0.044626 0.017569 0.038375
v -0.044406 0.018834 0.037792
v -0.044884 0.018131 0.037090
v -0.044617 0.019368 0.036525
v -0.040447 0.031723 0.027492
v -0.040349 0.031859 0.027506
v -0.038915 0.032458 0.030853
v -0.037163 0.034538 0.031299
v -0.037444 0.034888 0.029400
v -0.036835 0.036020 0.028355
v -0.037022 0.036221 0.027091
v -0.044799 0.019971 0.035058
v -0.045343 0.019927 0.033197
v -0.044528 0.021035 0.034403
v -0.044354 0.020634 0.035668
v -0.044026 0.021734 0.035058
v -0.043642 0.023722 0.033197
v -0.042682 0.024887 0.034553
v -0.043174 0.024883 0.032784
v -0.035148 0.038137 0.027120
v -0.033270 0.040033 0.027178
v -0.031269 0.041824 0.026841
v -0.029030 0.043442 0.027506
v -0.028088 0.044161 0.027506
v -0.013148 0.050628 0.032784
v -0.027751 0.043920 0.029400
v -0.027517 0.043744 0.030732
v -0.026561 0.044234 0.031336
v -0.026275 0.044937 0.029308
v -0.025020 0.045250 0.031299
v -0.025301 0.045427 0.029879
v -0.021750 0.047471 0.030502
v -0.021974 0.047595 0.029400
v -0.020738 0.048612 0.027506
v -0.016315 0.049475 0.032778
v -0.017889 0.049330 0.030335
v -0.018850 0.048668 0.031301
v -0.018845 0.048214 0.033197
v -0.015200 0.049776 0.033324
v -0.020738 0.048202 0.029400
v -0.020789 0.047780 0.031200
v -0.014633 0.049539 0.035089
v -0.013153 0.050053 0.035089
v -0.013677 0.049182 0.037490
v -0.015931 0.049306 0.034037
v -0.015580 0.049158 0.035089
v -0.018241 0.047595 0.036543
v -0.017079 0.047921 0.037100
v -0.014947 0.048873 0.036911
v -0.011611 0.049142 0.039382
v -0.013087 0.048877 0.038805
v -0.005109 0.049423 0.041862
v -0.003666 0.049547 0.042030
v -0.007465 0.049166 0.041459
v -0.006369 0.049302 0.041685
v -0.009358 0.048917 0.041038
v -0.014643 0.047648 0.040196
v -0.013082 0.047869 0.040808
v -0.011096 0.048664 0.040606
v 0.000293 0.049845 0.042194
v 0.000293 0.050796 0.040672
v -0.003666 0.048812 0.042979
v -0.003666 0.048214 0.043676
v -0.002846 0.048330 0.043676
v -0.001773 0.048467 0.043676
v -0.042115 0.015143 0.043676
v -0.041314 0.017445 0.043676
v -0.042209 0.016131 0.043219
v -0.042972 0.016131 0.042270
v -0.044340 0.013416 0.041547
v -0.045713 0.013416 0.038858
v -0.044771 0.014235 0.040389
v -0.044570 0.015561 0.040039
v -0.044373 0.016826 0.039641
v -0.044181 0.018131 0.038959
v -0.043502 0.019927 0.038887
v -0.042789 0.021702 0.038721
v -0.044176 0.019971 0.037090
v -0.042930 0.025353 0.032784
v -0.042747 0.025678 0.032784
v -0.042391 0.026289 0.032784
v -0.041881 0.027144 0.032784
v -0.041108 0.028433 0.032784
v -0.040873 0.028823 0.032784
v -0.040400 0.031723 0.027677
v -0.039702 0.031723 0.030070
v -0.038723 0.032213 0.032116
v -0.038217 0.033141 0.031412
v -0.039234 0.031723 0.031648
v -0.037144 0.033976 0.032782
v -0.036966 0.034285 0.032578
v -0.036376 0.035486 0.031299
v -0.036676 0.035835 0.029400
v -0.035144 0.036317 0.032782
v -0.035425 0.036518 0.031299
v -0.035725 0.036824 0.029400
v -0.034108 0.038992 0.027784
v -0.043384 0.021826 0.036991
v -0.042490 0.024533 0.035818
v -0.043024 0.023831 0.035148
v -0.042878 0.025236 0.033197
v -0.042105 0.025558 0.035148
v -0.033064 0.039844 0.028441
v -0.031644 0.040266 0.031299
v -0.032169 0.040844 0.027644
v -0.030834 0.041474 0.029400
v -0.028702 0.043177 0.029400
v -0.030506 0.041213 0.031299
v -0.027278 0.043567 0.031997
v -0.028219 0.043013 0.031336
v -0.026495 0.043880 0.032784
v -0.026186 0.044089 0.032784
v -0.025849 0.044310 0.032784
v -0.024598 0.045113 0.032784
v -0.023919 0.045535 0.032784
v -0.023338 0.045856 0.032923
v -0.022485 0.046836 0.031200
v -0.021454 0.047310 0.031769
v -0.018859 0.047744 0.034972
v -0.016952 0.048571 0.035089
v -0.019862 0.047836 0.032782
v -0.020133 0.047603 0.033197
v -0.019857 0.047467 0.034261
v -0.017796 0.047391 0.037806
v -0.016531 0.047656 0.038482
v -0.015181 0.047989 0.039023
v -0.019501 0.047294 0.035524
v -0.018859 0.047105 0.037100
v -0.015903 0.047395 0.039746
v -0.005671 0.048760 0.042568
v -0.011255 0.047688 0.042073
v -0.009358 0.047969 0.042429
v -0.006880 0.047615 0.043676
v -0.007540 0.048122 0.042837
v -0.012408 0.047507 0.041833
v -0.013673 0.047262 0.041461
v -0.015181 0.047053 0.040808
v -0.005095 0.047969 0.043676
v -0.040705 0.019063 0.043676
v -0.042738 0.017533 0.041966
v -0.044218 0.014235 0.041338
v -0.044860 0.013416 0.040625
v -0.045315 0.013416 0.039703
v -0.043979 0.016167 0.040717
v -0.043178 0.018111 0.040902
v -0.042827 0.019927 0.040286
v -0.042611 0.020987 0.039924
v -0.042307 0.022252 0.039246
v -0.042574 0.022810 0.037981
v -0.040480 0.028160 0.035430
v -0.040747 0.029028 0.032784
v -0.040288 0.029767 0.032784
v -0.039543 0.030839 0.032784
v -0.038887 0.031723 0.032782
v -0.038620 0.032072 0.032782
v -0.037303 0.032831 0.035091
v -0.037987 0.032891 0.032784
v -0.039323 0.031136 0.032784
v -0.039271 0.031036 0.033197
v -0.036769 0.034028 0.033842
v -0.036704 0.034522 0.032782
v -0.036085 0.035249 0.032784
v -0.034961 0.036040 0.034113
v -0.034127 0.037101 0.033492
v -0.033288 0.038165 0.032870
v -0.033541 0.038430 0.031299
v -0.034488 0.037470 0.031299
v -0.042747 0.023172 0.036991
v -0.042288 0.024120 0.036991
v -0.041323 0.025787 0.037141
v -0.040855 0.026899 0.036609
v -0.032595 0.039378 0.031299
v -0.031415 0.040021 0.032782
v -0.031396 0.040037 0.032784
v -0.031368 0.040061 0.032782
v -0.030253 0.040816 0.033256
v -0.029348 0.041800 0.032426
v -0.027118 0.043442 0.032784
v -0.025474 0.043631 0.036025
v -0.025746 0.043820 0.034760
v -0.028074 0.042695 0.032782
v -0.026078 0.044045 0.033197
v -0.024462 0.045069 0.033254
v -0.023338 0.045234 0.035107
v -0.022270 0.045892 0.035089
v -0.021192 0.047170 0.032784
v -0.020588 0.046872 0.034972
v -0.017079 0.047186 0.039023
v -0.021562 0.045467 0.037739
v -0.020297 0.045812 0.038552
v -0.019028 0.046234 0.039066
v -0.021937 0.045684 0.036477
v -0.020855 0.046085 0.037059
v -0.019782 0.045527 0.039818
v -0.018512 0.045836 0.040327
v -0.017032 0.046202 0.040886
v -0.005582 0.047873 0.043676
v -0.011255 0.046929 0.043022
v -0.009358 0.047222 0.043378
v -0.008224 0.047383 0.043571
v -0.007475 0.047475 0.043676
v -0.012778 0.045840 0.043676
v -0.012422 0.045969 0.043676
v -0.016451 0.045748 0.042003
v -0.015050 0.046037 0.042363
v -0.013190 0.046499 0.042700
v -0.039744 0.021111 0.043676
v -0.040419 0.020336 0.043355
v -0.040705 0.019071 0.043673
v -0.042480 0.018798 0.041615
v -0.041192 0.019794 0.042706
v -0.042246 0.019927 0.041235
v -0.040648 0.022750 0.041716
v -0.040986 0.023722 0.040366
v -0.040719 0.024774 0.039927
v -0.041885 0.023553 0.038721
v -0.040297 0.027526 0.037141
v -0.039196 0.029433 0.036866
v -0.039964 0.029233 0.034916
v -0.038803 0.030413 0.036151
v -0.038971 0.030642 0.035091
v -0.038254 0.031586 0.035091
v -0.037060 0.032510 0.036576
v -0.036568 0.033779 0.035091
v -0.035617 0.034900 0.035091
v -0.034788 0.035848 0.035091
v -0.033841 0.036824 0.035091
v -0.033068 0.037944 0.034133
v -0.032230 0.038992 0.033478
v -0.040958 0.025192 0.038887
v -0.040639 0.026530 0.037874
v -0.031152 0.039824 0.034082
v -0.029995 0.040426 0.035091
v -0.028814 0.041374 0.035091
v -0.029095 0.041599 0.033692
v -0.028411 0.042326 0.033114
v -0.027863 0.042125 0.035091
v -0.027029 0.043378 0.033197
v -0.026402 0.043185 0.035272
v -0.027573 0.041896 0.036459
v -0.027278 0.041663 0.037724
v -0.025207 0.043455 0.036991
v -0.024261 0.044065 0.036991
v -0.023338 0.044627 0.037030
v -0.024720 0.044322 0.035272
v -0.020855 0.045266 0.039066
v -0.023338 0.044338 0.037807
v -0.023858 0.043816 0.038337
v -0.023338 0.044013 0.038614
v -0.022719 0.044242 0.038934
v -0.019028 0.045226 0.040886
v -0.017716 0.045443 0.041592
v -0.023408 0.043527 0.039602
v -0.022138 0.043904 0.040245
v -0.020784 0.044302 0.040839
v -0.011255 0.046346 0.043676
v -0.010159 0.046696 0.043676
v -0.008154 0.047298 0.043676
v -0.008369 0.047238 0.043676
v -0.013471 0.045583 0.043676
v -0.015050 0.045258 0.043316
v -0.018662 0.044097 0.042653
v -0.017032 0.044916 0.042653
v -0.013973 0.045483 0.043569
v -0.038901 0.022891 0.043676
v -0.040948 0.021489 0.042090
v -0.038868 0.022959 0.043676
v -0.040180 0.022003 0.042706
v -0.040386 0.023722 0.041315
v -0.039355 0.023626 0.042692
v -0.039042 0.025160 0.042067
v -0.038676 0.026425 0.041609
v -0.040414 0.026140 0.038887
v -0.039697 0.025602 0.040769
v -0.039088 0.027092 0.040344
v -0.038690 0.028353 0.039692
v -0.038990 0.028811 0.038427
v -0.038564 0.030076 0.037416
v -0.036830 0.032213 0.037841
v -0.036324 0.033169 0.037122
v -0.035275 0.034502 0.036991
v -0.034427 0.035446 0.036991
v -0.033476 0.036454 0.036991
v -0.032895 0.037771 0.035091
v -0.039458 0.027642 0.038990
v -0.030941 0.039639 0.035091
v -0.029583 0.040093 0.036991
v -0.031944 0.038687 0.035091
v -0.028257 0.041133 0.037051
v -0.029334 0.039892 0.038039
v -0.028318 0.040350 0.038756
v -0.026912 0.041386 0.038887
v -0.025961 0.042093 0.038887
v -0.024509 0.043093 0.038936
v -0.020175 0.043856 0.042003
v -0.025596 0.041820 0.039953
v -0.024425 0.042153 0.040666
v -0.023338 0.042342 0.041455
v -0.022719 0.043153 0.040839
v -0.021440 0.043487 0.041510
v -0.014137 0.045302 0.043676
v -0.017744 0.043687 0.043676
v -0.016301 0.044350 0.043676
v -0.017908 0.043643 0.043634
v -0.019178 0.043306 0.043269
v -0.038812 0.023063 0.043676
v -0.038493 0.024196 0.043332
v -0.037950 0.025847 0.042839
v -0.038367 0.027642 0.040900
v -0.036844 0.026534 0.043608
v -0.037378 0.027518 0.042309
v -0.036999 0.028666 0.041890
v -0.038297 0.029433 0.038990
v -0.037360 0.029341 0.040711
v -0.036994 0.030534 0.040027
v -0.037285 0.030927 0.038887
v -0.036563 0.031879 0.038887
v -0.035533 0.033217 0.038790
v -0.035045 0.034241 0.038092
v -0.033214 0.036189 0.038201
v -0.032506 0.037402 0.036991
v -0.031560 0.038314 0.036991
v -0.030529 0.039265 0.036991
v -0.028946 0.039567 0.039304
v -0.031288 0.038057 0.038156
v -0.030136 0.038812 0.038729
v -0.027681 0.040085 0.040173
v -0.023338 0.041952 0.041979
v -0.022640 0.042169 0.042229
v -0.020873 0.042768 0.042778
v -0.026355 0.040735 0.040695
v -0.024982 0.041386 0.041219
v -0.023717 0.041832 0.041841
v -0.017969 0.043571 0.043676
v -0.021567 0.041667 0.043552
v -0.019890 0.042503 0.043676
v -0.036915 0.026297 0.043676
v -0.036793 0.026489 0.043676
v -0.036680 0.026658 0.043676
v -0.035458 0.028445 0.043676
v -0.036512 0.027518 0.043259
v -0.035851 0.029321 0.042615
v -0.035284 0.030763 0.042073
v -0.036549 0.029923 0.041291
v -0.035893 0.031281 0.040754
v -0.035237 0.032590 0.040214
v -0.034713 0.033855 0.039357
v -0.033963 0.035032 0.038778
v -0.032857 0.035823 0.039464
v -0.030937 0.037723 0.039419
v -0.029672 0.038302 0.040321
v -0.027114 0.039627 0.041438
v -0.028411 0.038964 0.040880
v -0.022640 0.041314 0.043178
v -0.025849 0.040121 0.042049
v -0.024382 0.040687 0.042577
v -0.021815 0.041362 0.043676
v -0.021126 0.041792 0.043676
v -0.023338 0.040503 0.043528
v -0.023628 0.040161 0.043676
v -0.035223 0.028779 0.043676
v -0.035027 0.029052 0.043676
v -0.034675 0.029976 0.043337
v -0.034094 0.031405 0.042768
v -0.033518 0.032771 0.042199
v -0.034783 0.032028 0.041479
v -0.034113 0.033313 0.040904
v -0.033448 0.034558 0.040331
v -0.031593 0.036458 0.040374
v -0.030384 0.037141 0.040980
v -0.029147 0.037828 0.041586
v -0.027882 0.038362 0.042168
v -0.026491 0.038944 0.042741
v -0.025048 0.039523 0.043316
v -0.023820 0.040029 0.043676
v -0.033930 0.030450 0.043676
v -0.032895 0.032044 0.043464
v -0.032295 0.033394 0.042854
v -0.031700 0.034703 0.042246
v -0.032961 0.034032 0.041595
v -0.032281 0.035265 0.040984
v -0.031096 0.035968 0.041638
v -0.028505 0.037157 0.042835
v -0.029831 0.036562 0.042235
v -0.027133 0.037743 0.043433
v -0.024008 0.039896 0.043676
v -0.026467 0.038012 0.043676
v -0.025558 0.038731 0.043676
v -0.033134 0.031450 0.043676
v -0.032375 0.032337 0.043676
v -0.031246 0.033574 0.043676
v -0.031040 0.034012 0.043511
v -0.030435 0.035305 0.042872
v -0.029128 0.035904 0.043499
v -0.028660 0.036117 0.043676
v -0.027456 0.037181 0.043676
v -0.030618 0.034221 0.043676
v -0.029353 0.035462 0.043676
f 45 77 46
f 76 77 45
f 26 46 48
f 25 45 46
f 25 26 12
f 46 26 47
f 47 25 46
f 26 25 47
f 81 82 49
f 49 26 48
f 564 583 588
f 588 589 564
f 588 583 585
f 585 589 588
f 584 603 585
f 615 603 617
f 1 3 4
f 4 5 1
f 14 4 3
f 14 15 5
f 5 4 14
f 20 16 31
f 64 31 61
f 26 53 27
f 12 26 27
f 299 301 371
f 602 603 584
f 581 556 582
f 368 297 296
f 369 297 368
f 96 138 139
f 136 131 185
f 96 131 136
f 185 189 136
f 91 131 96
f 58 57 91
f 153 154 109
f 133 134 93
f 586 564 589
f 603 615 604
f 604 585 603
f 589 585 604
f 15 18 17
f 13 3 12
f 13 14 3
f 19 18 32
f 33 31 64
f 33 20 31
f 11 20 23
f 2 11 10
f 59 93 64
f 50 49 82
f 26 49 50
f 50 51 26
f 84 51 83
f 83 50 82
f 51 50 83
f 52 84 53
f 52 51 84
f 52 53 26
f 26 51 52
f 372 301 300
f 371 301 372
f 298 297 369
f 369 299 298
f 369 374 373
f 224 295 296
f 296 297 224
f 297 298 224
f 603 602 614
f 623 614 612
f 624 614 623
f 600 581 582
f 597 609 610
f 609 611 610
f 610 598 597
f 611 598 610
f 473 421 408
f 418 473 476
f 421 473 418
f 521 556 525
f 477 418 476
f 583 564 557
f 125 83 82
f 234 173 248
f 402 332 401
f 248 173 247
f 437 368 436
f 441 442 376
f 376 442 443
f 540 539 570
f 570 541 540
f 573 544 543
f 543 541 573
f 544 505 543
f 608 611 609
f 189 259 260
f 259 342 343
f 140 139 193
f 127 178 128
f 96 139 97
f 97 139 140
f 140 133 97
f 97 133 94
f 137 138 96
f 96 136 137
f 137 136 192
f 192 193 137
f 54 27 53
f 55 27 54
f 29 57 58
f 29 58 32
f 32 18 29
f 29 18 15
f 92 91 96
f 58 91 92
f 215 154 153
f 110 109 154
f 108 73 106
f 153 109 108
f 106 149 108
f 106 73 71
f 186 133 140
f 23 41 42
f 144 203 146
f 206 147 146
f 98 99 67
f 64 93 98
f 93 99 98
f 142 203 143
f 143 203 144
f 102 145 144
f 144 146 102
f 102 146 147
f 147 148 102
f 565 564 587
f 564 586 587
f 534 564 565
f 153 108 152
f 152 108 149
f 105 149 106
f 106 71 105
f 208 147 206
f 6 19 16
f 16 7 6
f 18 19 6
f 1 5 6
f 6 7 1
f 6 17 18
f 5 15 6
f 15 17 6
f 66 33 64
f 67 33 66
f 64 98 66
f 66 98 67
f 65 33 67
f 23 20 34
f 20 33 34
f 10 11 22
f 1 7 8
f 8 7 16
f 16 20 8
f 64 61 60
f 60 59 64
f 93 59 63
f 169 164 163
f 226 298 299
f 370 299 369
f 369 373 370
f 370 373 302
f 302 301 370
f 301 299 370
f 295 224 223
f 374 375 303
f 376 304 303
f 303 375 376
f 302 373 303
f 303 373 374
f 625 614 624
f 627 623 626
f 624 623 627
f 553 556 521
f 612 600 613
f 613 600 611
f 613 623 612
f 613 611 622
f 622 623 613
f 612 614 601
f 601 600 612
f 601 614 602
f 601 602 584
f 584 581 601
f 581 600 601
f 599 598 611
f 611 600 599
f 408 468 469
f 469 470 408
f 468 466 469
f 462 516 469
f 475 482 423
f 423 420 419
f 419 475 423
f 418 475 419
f 419 420 353
f 353 418 419
f 357 418 353
f 422 356 421
f 421 418 422
f 422 357 356
f 418 357 422
f 556 581 560
f 560 525 556
f 476 473 472
f 472 477 476
f 472 473 408
f 478 477 482
f 418 477 478
f 522 470 521
f 521 525 522
f 584 585 562
f 562 585 583
f 583 557 562
f 558 557 564
f 524 557 558
f 175 125 124
f 124 82 81
f 124 125 82
f 252 337 336
f 257 342 259
f 257 338 340
f 609 595 594
f 594 608 609
f 575 544 574
f 574 595 575
f 574 544 573
f 573 595 574
f 596 609 597
f 596 595 609
f 597 575 596
f 575 595 596
f 572 594 595
f 573 541 572
f 572 595 573
f 400 460 446
f 399 460 400
f 437 436 494
f 438 368 437
f 437 440 438
f 369 368 438
f 438 440 369
f 495 440 437
f 437 497 495
f 495 497 442
f 442 441 495
f 499 500 442
f 535 539 536
f 536 499 535
f 500 499 536
f 501 539 540
f 540 541 501
f 503 498 501
f 442 500 501
f 501 498 442
f 569 570 539
f 566 539 535
f 566 567 539
f 605 618 606
f 606 618 619
f 621 623 622
f 626 623 621
f 622 611 621
f 611 608 621
f 192 136 191
f 191 259 261
f 191 260 259
f 261 259 346
f 408 421 413
f 342 411 409
f 409 411 340
f 340 338 409
f 409 338 408
f 263 193 192
f 261 269 263
f 195 139 138
f 138 193 195
f 195 193 139
f 177 178 127
f 132 128 131
f 180 128 179
f 179 128 178
f 179 251 180
f 179 178 251
f 131 128 182
f 251 252 182
f 276 348 356
f 276 357 353
f 356 357 276
f 93 134 135
f 194 193 138
f 138 137 194
f 194 137 193
f 86 54 53
f 90 91 57
f 90 57 55
f 55 54 90
f 55 57 56
f 57 29 56
f 214 215 153
f 153 152 214
f 74 42 73
f 73 108 74
f 74 108 109
f 74 110 111
f 109 110 74
f 67 99 100
f 100 69 67
f 100 141 142
f 100 135 141
f 100 99 93
f 93 135 100
f 72 71 41
f 107 105 72
f 72 105 71
f 70 72 41
f 564 534 559
f 559 534 524
f 559 558 564
f 524 558 559
f 294 222 221
f 150 105 107
f 149 105 150
f 207 208 212
f 207 148 147
f 147 208 207
f 149 150 210
f 480 423 484
f 484 524 480
f 353 358 354
f 279 208 206
f 212 208 279
f 353 420 417
f 417 358 353
f 417 420 423
f 423 358 417
f 37 38 23
f 67 69 37
f 69 38 37
f 23 42 24
f 24 11 23
f 24 22 11
f 9 2 1
f 1 8 9
f 11 2 9
f 59 60 30
f 30 63 59
f 30 60 61
f 30 19 32
f 30 61 31
f 31 16 30
f 16 19 30
f 93 63 95
f 94 133 95
f 95 133 93
f 158 223 224
f 302 303 228
f 228 301 302
f 300 301 228
f 614 625 616
f 617 603 616
f 603 614 616
f 521 470 520
f 520 553 521
f 598 599 580
f 580 599 600
f 580 600 582
f 582 556 580
f 556 553 580
f 467 466 468
f 467 468 408
f 518 516 470
f 470 469 518
f 518 469 516
f 462 469 463
f 463 469 466
f 463 405 462
f 270 269 261
f 482 475 479
f 479 475 418
f 479 478 482
f 418 478 479
f 471 472 408
f 477 472 471
f 408 470 471
f 470 522 471
f 471 522 477
f 482 477 523
f 477 522 523
f 523 525 482
f 523 522 525
f 482 525 526
f 529 524 484
f 529 557 524
f 529 562 557
f 525 560 561
f 561 526 525
f 562 526 561
f 584 562 561
f 561 581 584
f 561 560 581
f 80 124 81
f 81 49 80
f 80 49 48
f 48 79 80
f 401 332 395
f 239 323 324
f 175 124 174
f 174 167 175
f 122 170 171
f 169 170 122
f 122 171 172
f 122 164 169
f 172 173 122
f 121 164 122
f 122 79 121
f 239 167 238
f 238 167 237
f 178 177 250
f 251 178 250
f 250 334 251
f 336 337 256
f 256 252 336
f 255 252 256
f 338 257 256
f 189 255 256
f 256 257 189
f 251 334 333
f 334 250 333
f 333 250 332
f 332 402 333
f 333 402 403
f 335 252 251
f 337 252 335
f 251 333 335
f 335 333 337
f 253 255 189
f 253 252 255
f 253 182 252
f 404 405 337
f 404 333 403
f 337 333 404
f 338 337 406
f 337 405 406
f 258 259 189
f 189 257 258
f 258 257 259
f 607 594 606
f 608 594 607
f 606 621 607
f 607 621 608
f 591 605 592
f 592 605 606
f 376 443 444
f 444 498 503
f 444 443 442
f 442 498 444
f 399 400 328
f 172 171 243
f 243 244 172
f 245 173 172
f 172 244 245
f 169 163 233
f 496 497 437
f 437 494 496
f 442 497 496
f 535 499 496
f 496 499 442
f 439 495 441
f 439 374 369
f 369 440 439
f 440 495 439
f 439 375 374
f 376 375 439
f 439 441 376
f 539 501 537
f 537 501 500
f 537 536 539
f 500 536 537
f 503 501 504
f 504 444 503
f 505 444 504
f 539 567 568
f 568 569 539
f 570 569 590
f 626 621 620
f 606 619 620
f 620 621 606
f 189 260 190
f 260 191 190
f 190 136 189
f 190 191 136
f 262 191 261
f 192 191 262
f 261 263 262
f 262 263 192
f 341 257 340
f 340 411 341
f 342 257 341
f 341 411 342
f 412 409 408
f 412 343 342
f 342 409 412
f 198 263 269
f 266 265 198
f 198 270 266
f 269 270 198
f 140 193 198
f 193 263 198
f 126 177 127
f 125 177 126
f 127 84 126
f 84 83 126
f 83 125 126
f 176 125 175
f 176 177 125
f 128 132 129
f 129 132 130
f 181 128 180
f 181 182 128
f 180 251 181
f 251 182 181
f 184 189 185
f 185 131 184
f 184 253 189
f 140 198 199
f 199 198 265
f 140 199 196
f 196 199 265
f 196 266 267
f 196 265 266
f 131 91 88
f 28 56 29
f 15 14 28
f 28 29 15
f 14 13 28
f 55 56 28
f 28 13 12
f 12 27 28
f 28 27 55
f 209 152 149
f 209 214 152
f 154 215 216
f 215 290 216
f 219 218 289
f 289 215 219
f 289 290 215
f 101 100 142
f 142 143 101
f 69 100 101
f 144 145 101
f 101 143 144
f 145 102 101
f 101 102 69
f 69 102 103
f 103 70 69
f 72 70 104
f 107 72 104
f 104 103 102
f 70 103 104
f 104 148 107
f 104 102 148
f 23 38 39
f 39 38 69
f 69 70 39
f 563 534 565
f 524 534 491
f 156 113 155
f 156 221 222
f 155 217 156
f 156 217 218
f 156 218 219
f 282 209 281
f 214 209 282
f 293 221 292
f 294 221 293
f 486 488 429
f 428 486 429
f 362 363 429
f 213 210 151
f 151 210 150
f 212 213 151
f 151 207 212
f 151 150 107
f 107 148 151
f 148 207 151
f 285 213 212
f 361 360 428
f 428 429 361
f 361 429 363
f 428 360 427
f 531 490 492
f 280 279 206
f 212 279 286
f 286 280 358
f 279 280 286
f 68 65 67
f 67 37 68
f 68 37 65
f 65 37 36
f 33 65 36
f 36 34 33
f 23 34 36
f 36 37 23
f 35 24 44
f 22 24 35
f 11 9 21
f 21 9 8
f 20 11 21
f 21 8 20
f 62 30 32
f 94 95 62
f 62 92 96
f 96 97 62
f 62 97 94
f 63 30 62
f 62 95 63
f 32 58 62
f 58 92 62
f 78 115 116
f 78 79 48
f 116 119 117
f 117 78 116
f 121 79 120
f 79 119 120
f 120 163 164
f 114 158 159
f 159 158 226
f 298 226 225
f 226 158 225
f 225 224 298
f 225 158 224
f 116 115 160
f 553 520 519
f 555 553 519
f 470 516 519
f 519 520 470
f 516 552 519
f 466 467 407
f 408 338 407
f 407 467 408
f 267 266 350
f 266 270 350
f 350 351 267
f 350 270 351
f 414 413 421
f 421 415 414
f 421 356 416
f 416 415 421
f 356 348 352
f 352 416 356
f 415 416 352
f 352 348 267
f 267 351 352
f 239 324 325
f 396 395 332
f 332 324 396
f 323 395 396
f 396 324 323
f 237 321 322
f 239 238 322
f 322 238 237
f 322 323 239
f 322 321 323
f 458 402 401
f 394 395 323
f 401 395 394
f 394 458 401
f 457 458 394
f 514 505 506
f 446 460 506
f 506 460 514
f 124 80 123
f 123 122 124
f 123 80 79
f 79 122 123
f 168 174 124
f 124 122 168
f 167 174 168
f 168 122 167
f 237 167 236
f 167 235 236
f 167 122 166
f 166 235 167
f 234 235 166
f 173 234 166
f 166 122 173
f 332 250 326
f 239 325 326
f 326 324 332
f 326 325 324
f 339 337 338
f 338 256 339
f 339 256 337
f 465 463 466
f 593 592 606
f 572 592 593
f 606 594 593
f 594 572 593
f 591 592 571
f 571 590 591
f 571 572 541
f 571 592 572
f 541 570 571
f 570 590 571
f 514 460 502
f 502 505 514
f 502 444 505
f 247 328 331
f 331 328 400
f 244 243 242
f 242 170 169
f 171 170 242
f 242 243 171
f 173 245 246
f 246 247 173
f 246 328 247
f 244 328 329
f 329 245 244
f 328 246 329
f 329 246 245
f 169 233 241
f 241 233 244
f 241 242 169
f 244 242 241
f 163 120 162
f 162 120 119
f 538 504 501
f 541 543 538
f 538 501 541
f 538 543 505
f 505 504 538
f 408 413 474
f 474 412 408
f 413 412 474
f 177 176 240
f 240 176 175
f 175 167 240
f 240 167 239
f 130 86 85
f 85 129 130
f 53 84 85
f 85 86 53
f 85 84 127
f 127 128 85
f 128 129 85
f 131 182 183
f 183 184 131
f 182 253 183
f 253 184 183
f 202 203 142
f 142 201 202
f 142 141 200
f 200 201 142
f 204 146 203
f 134 133 187
f 133 186 187
f 187 186 140
f 264 196 267
f 267 348 264
f 264 274 268
f 91 90 89
f 89 88 91
f 89 90 54
f 54 88 89
f 87 88 54
f 87 86 130
f 54 86 87
f 130 132 87
f 87 132 131
f 131 88 87
f 149 210 211
f 211 209 149
f 281 209 211
f 112 74 111
f 112 75 74
f 42 74 43
f 74 75 43
f 43 24 42
f 43 75 44
f 44 24 43
f 23 39 40
f 40 39 70
f 40 41 23
f 40 70 41
f 533 563 531
f 534 563 533
f 533 491 534
f 531 492 533
f 533 492 491
f 113 156 157
f 157 156 222
f 220 156 219
f 221 156 220
f 220 282 221
f 214 282 220
f 219 215 220
f 215 214 220
f 292 221 291
f 221 282 291
f 291 367 292
f 291 359 367
f 291 282 281
f 281 359 291
f 426 359 362
f 367 359 426
f 362 429 430
f 288 285 212
f 283 210 213
f 213 285 283
f 283 285 360
f 360 361 283
f 366 286 358
f 365 286 366
f 524 491 481
f 481 480 524
f 423 480 481
f 355 354 358
f 358 280 355
f 79 78 118
f 78 117 118
f 118 119 79
f 118 117 119
f 165 164 121
f 121 120 165
f 165 120 164
f 300 228 227
f 228 160 227
f 555 519 554
f 554 519 552
f 576 575 597
f 576 544 575
f 576 546 544
f 345 412 413
f 413 414 345
f 261 346 345
f 345 346 259
f 347 414 415
f 261 345 347
f 347 345 414
f 347 270 261
f 351 270 347
f 347 352 351
f 415 352 347
f 562 529 527
f 529 528 527
f 527 526 562
f 482 526 527
f 527 528 482
f 482 528 483
f 484 423 483
f 423 482 483
f 483 529 484
f 483 528 529
f 308 234 248
f 321 390 391
f 393 394 323
f 457 394 393
f 542 505 544
f 542 506 505
f 405 463 464
f 463 465 464
f 464 406 405
f 464 465 406
f 338 406 410
f 406 465 410
f 410 407 338
f 466 407 410
f 410 465 466
f 459 502 460
f 444 502 459
f 445 444 459
f 327 328 244
f 399 328 398
f 398 460 399
f 398 459 460
f 398 378 445
f 445 459 398
f 445 378 377
f 376 444 377
f 377 444 445
f 232 233 163
f 163 162 232
f 161 119 116
f 161 162 119
f 116 160 161
f 160 162 161
f 229 160 228
f 229 162 160
f 229 228 303
f 249 326 250
f 249 250 177
f 177 240 249
f 239 326 249
f 249 240 239
f 203 202 272
f 272 202 201
f 272 204 203
f 201 204 272
f 206 146 205
f 146 204 205
f 271 201 268
f 271 204 201
f 268 274 271
f 274 204 271
f 353 354 273
f 354 355 273
f 206 205 273
f 273 205 204
f 273 280 206
f 273 355 280
f 277 276 353
f 277 204 276
f 276 204 275
f 275 204 274
f 268 201 197
f 197 264 268
f 196 264 197
f 140 196 197
f 197 187 140
f 532 490 531
f 487 429 488
f 487 430 429
f 287 286 365
f 212 286 287
f 287 288 212
f 281 211 284
f 284 211 210
f 210 283 284
f 284 359 281
f 284 361 363
f 284 283 361
f 284 363 362
f 362 359 284
f 425 366 358
f 555 554 579
f 598 580 579
f 554 549 579
f 579 553 555
f 579 580 553
f 343 412 344
f 412 345 344
f 259 343 344
f 344 345 259
f 248 247 330
f 330 308 248
f 381 382 314
f 314 235 234
f 381 448 449
f 320 321 237
f 320 390 321
f 548 576 577
f 577 549 548
f 402 458 461
f 403 402 461
f 461 404 403
f 461 516 462
f 462 405 461
f 405 404 461
f 379 331 400
f 379 400 446
f 379 448 381
f 244 233 307
f 307 327 244
f 378 327 307
f 397 327 378
f 378 398 397
f 328 327 397
f 397 398 328
f 353 273 278
f 278 273 204
f 278 277 353
f 204 277 278
f 276 275 349
f 349 275 274
f 348 276 349
f 349 264 348
f 274 264 349
f 188 200 141
f 134 187 188
f 187 197 188
f 188 135 134
f 141 135 188
f 490 532 493
f 489 435 493
f 434 490 493
f 493 435 434
f 485 486 428
f 428 427 485
f 427 432 485
f 434 435 364
f 364 427 360
f 360 285 364
f 285 288 364
f 364 287 365
f 288 287 364
f 364 432 427
f 431 435 489
f 432 364 431
f 431 364 435
f 366 425 433
f 433 425 481
f 365 366 433
f 434 364 433
f 433 364 365
f 433 490 434
f 433 492 490
f 491 492 433
f 433 481 491
f 423 481 424
f 481 425 424
f 424 358 423
f 424 425 358
f 598 579 578
f 578 579 549
f 597 598 578
f 578 549 577
f 578 576 597
f 577 576 578
f 551 554 552
f 551 549 554
f 315 314 382
f 315 236 235
f 235 314 315
f 237 236 317
f 236 316 317
f 446 506 447
f 447 379 446
f 447 449 448
f 448 379 447
f 544 546 545
f 545 542 544
f 389 453 390
f 390 320 389
f 546 576 547
f 576 548 547
f 508 545 546
f 546 547 508
f 508 547 548
f 549 512 511
f 511 548 549
f 517 461 513
f 457 456 513
f 513 458 457
f 513 461 458
f 513 456 512
f 513 551 517
f 305 304 376
f 233 232 231
f 231 307 233
f 304 305 231
f 231 232 162
f 254 197 201
f 254 188 197
f 201 200 254
f 200 188 254
f 489 493 530
f 530 493 532
f 515 461 517
f 517 551 515
f 515 551 552
f 515 552 516
f 516 461 515
f 457 393 392
f 392 456 457
f 392 393 323
f 323 321 392
f 321 391 392
f 450 383 388
f 388 382 450
f 450 382 381
f 381 449 450
f 383 450 451
f 451 450 449
f 318 315 382
f 388 383 318
f 318 383 316
f 318 316 236
f 236 315 318
f 507 447 506
f 449 447 507
f 507 508 449
f 545 508 507
f 506 542 507
f 542 545 507
f 453 389 386
f 449 508 452
f 510 508 548
f 548 511 510
f 550 513 512
f 551 513 550
f 550 512 549
f 549 551 550
f 313 314 234
f 310 311 234
f 247 331 310
f 331 379 310
f 379 311 310
f 378 307 306
f 306 305 376
f 307 231 306
f 306 231 305
f 376 377 306
f 306 377 378
f 230 303 304
f 304 231 230
f 230 229 303
f 162 229 230
f 230 231 162
f 316 383 384
f 387 382 388
f 388 318 387
f 387 318 382
f 319 389 320
f 319 386 389
f 316 386 319
f 319 317 316
f 319 320 237
f 237 317 319
f 385 451 449
f 449 452 385
f 385 452 453
f 453 386 385
f 383 451 385
f 385 384 383
f 385 386 316
f 316 384 385
f 453 452 509
f 509 510 453
f 509 452 508
f 508 510 509
f 453 510 454
f 454 392 391
f 454 391 390
f 390 453 454
f 455 510 511
f 455 511 512
f 392 454 455
f 455 454 510
f 512 456 455
f 456 392 455
f 312 311 379
f 379 313 312
f 234 311 312
f 312 313 234
f 381 314 380
f 314 313 380
f 380 379 381
f 380 313 379
f 308 330 309
f 234 308 309
f 309 310 234
f 309 330 247
f 247 310 309
f 41 71 42
f 42 71 73
f 112 25 12
f 112 113 76
f 1 2 112
f 76 45 112
f 45 25 112
f 112 3 1
f 155 113 112
f 12 3 112
f 10 22 112
f 112 289 218
f 111 110 112
f 112 2 10
f 112 217 155
f 112 110 154
f 112 35 44
f 218 217 112
f 154 216 112
f 112 216 290
f 290 289 112
f 44 75 112
f 22 35 112
f 46 77 227
f 48 46 227
f 77 114 227
f 227 78 48
f 227 372 300
f 227 299 371
f 371 372 227
f 227 226 299
f 114 159 227
f 115 78 227
f 227 159 226
f 227 160 115
f 530 114 77
f 530 77 76
f 591 590 530
f 296 295 530
f 76 113 530
f 530 488 486
f 530 627 626
f 530 368 296
f 530 615 617
f 617 616 530
f 565 587 530
f 530 566 535
f 292 367 530
f 530 158 114
f 589 604 530
f 530 586 589
f 626 620 530
f 530 604 615
f 530 436 368
f 530 568 567
f 530 605 591
f 530 587 586
f 530 563 565
f 530 532 531
f 295 223 530
f 530 625 624
f 624 627 530
f 530 494 436
f 535 496 530
f 567 566 530
f 618 605 530
f 530 619 618
f 530 293 292
f 530 222 294
f 113 157 530
f 530 426 362
f 223 158 530
f 530 616 625
f 530 496 494
f 569 568 530
f 530 590 569
f 530 620 619
f 531 563 530
f 294 293 530
f 362 430 530
f 530 157 222
f 367 426 530
f 530 487 488
f 530 431 489
f 486 485 530
f 430 487 530
f 530 485 432
f 432 431 530
