v 0.091259 0.000835 0.019129
v 0.091259 -0.000820 0.019106
v 0.104587 -0.000146 0.018968
v 0.104587 0.000188 0.018968
v 0.104587 0.001137 0.018937
v 0.104587 0.002843 0.018749
v 0.091259 0.002808 0.018856
v 0.089726 0.020036 -0.000230
v 0.089726 -0.020033 -0.000230
v 0.091259 -0.001813 0.018998
v 0.104587 -0.002844 0.018749
v 0.104587 -0.001095 0.018929
v 0.104587 0.004738 0.018366
v 0.091259 0.004738 0.018396
v 0.091259 0.006637 0.017817
v 0.091259 0.007962 0.017265
v 0.091259 0.007986 0.017254
v 0.091259 0.008912 0.016763
v 0.091259 0.010434 0.015854
v 0.091259 0.011426 0.015206
v 0.091259 0.011450 0.015187
v 0.091259 0.012375 0.014363
v 0.091259 0.013427 0.013412
v 0.091259 0.014395 0.012331
v 0.091259 0.015207 0.011403
v 0.091259 0.015223 0.011380
v 0.091259 0.015847 0.010421
v 0.091259 0.016765 0.008896
v 0.091259 0.017271 0.007945
v 0.091259 0.017286 0.007914
v 0.091259 0.017808 0.006630
v 0.091259 0.017824 0.006584
v 0.104587 0.017788 0.006538
v 0.104587 0.018361 0.004732
v 0.104587 0.018381 0.004640
v 0.104587 0.018742 0.002834
v 0.104587 0.018922 0.001166
v 0.104587 0.018926 0.001120
v 0.104587 0.018989 0.000219
v 0.104587 0.018989 -0.000226
v 0.089726 0.020032 -0.000954
v 0.089726 -0.020037 -0.000958
v 0.104587 -0.018986 0.000196
v 0.104587 -0.018923 0.001143
v 0.104587 -0.018754 0.002834
v 0.104587 -0.018366 0.004732
v 0.104587 -0.017766 0.006630
v 0.091259 -0.017809 0.006630
v 0.091259 -0.017797 0.006660
v 0.091259 -0.017287 0.007949
v 0.091259 -0.017276 0.007972
v 0.091259 -0.016738 0.008896
v 0.091259 -0.015820 0.010421
v 0.091259 -0.015200 0.011399
v 0.091259 -0.015185 0.011422
v 0.091259 -0.014381 0.012377
v 0.091259 -0.013455 0.013443
v 0.091259 -0.012380 0.014394
v 0.091259 -0.011431 0.015210
v 0.091259 -0.011407 0.015226
v 0.091259 -0.010395 0.015854
v 0.091259 -0.008913 0.016736
v 0.091259 -0.007963 0.017281
v 0.091259 -0.006637 0.017810
v 0.091259 -0.006590 0.017825
v 0.091259 -0.004743 0.018385
v 0.091259 -0.002860 0.018818
v 0.091259 -0.002766 0.018837
v 0.104587 -0.004743 0.018350
v 0.104587 0.006637 0.017764
v 0.104587 0.007935 0.017223
v 0.104587 0.008884 0.016763
v 0.104587 0.010434 0.015835
v 0.104587 0.010481 0.015805
v 0.104587 0.011410 0.015187
v 0.104587 0.012407 0.014305
v 0.104587 0.013415 0.013404
v 0.104587 0.013466 0.013351
v 0.104587 0.014407 0.012277
v 0.104587 0.015180 0.011376
v 0.104587 0.015827 0.010421
v 0.104587 0.015878 0.010345
v 0.104587 0.016773 0.008869
v 0.104587 0.017231 0.007918
v 0.104587 0.017757 0.006630
v 0.104586 -0.000942 -0.018944
v 0.104586 0.000945 -0.018936
v 0.104586 0.002753 -0.018759
v 0.104586 0.002843 -0.018748
v 0.104586 0.004742 -0.018349
v 0.104586 0.006546 -0.017797
v 0.104586 0.006640 -0.017766
v 0.104586 0.007931 -0.017260
v 0.104586 0.008880 -0.016754
v 0.104586 0.010359 -0.015865
v 0.104586 0.010434 -0.015819
v 0.104586 0.011403 -0.015201
v 0.104586 0.012305 -0.014431
v 0.104586 0.013434 -0.013442
v 0.104586 0.014380 -0.012341
v 0.104586 0.015176 -0.011390
v 0.104586 0.015804 -0.010440
v 0.104586 0.016749 -0.008894
v 0.104586 0.017228 -0.007990
v 0.104586 0.017251 -0.007944
v 0.104586 0.017734 -0.006717
v 0.104586 0.017757 -0.006652
v 0.104586 0.018334 -0.004846
v 0.104586 0.018361 -0.004754
v 0.104586 0.018753 -0.002856
v 0.104586 0.018914 -0.001253
v 0.104586 0.018922 -0.001169
v 0.104586 0.018989 -0.000230
v 0.104587 -0.018986 -0.000226
v 0.089726 0.019805 -0.002844
v 0.089726 -0.019770 -0.002806
v 0.104586 -0.018735 -0.002856
v 0.104586 -0.018927 -0.001177
v 0.104586 -0.018931 -0.001131
v 0.104586 -0.018986 -0.000233
v 0.104587 -0.017256 0.007933
v 0.104587 -0.017232 0.007979
v 0.104587 -0.016754 0.008880
v 0.104587 -0.016711 0.008957
v 0.095010 -0.016754 0.008880
v 0.104587 -0.015812 0.010421
v 0.104587 -0.015185 0.011380
v 0.104587 -0.014345 0.012381
v 0.104587 -0.013443 0.013431
v 0.104587 -0.012317 0.014420
v 0.104587 -0.011411 0.015191
v 0.104587 -0.011364 0.015222
v 0.104587 -0.010431 0.015816
v 0.104587 -0.010356 0.015862
v 0.104587 -0.008901 0.016740
v 0.104587 -0.008854 0.016767
v 0.104587 -0.007952 0.017246
v 0.104587 -0.006637 0.017768
v 0.104586 -0.001036 -0.018936
v 0.089726 -0.000942 -0.020040
v 0.089726 0.000945 -0.020032
v 0.089726 0.002773 -0.019783
v 0.089726 0.004110 -0.019446
v 0.089726 0.005295 -0.019059
v 0.089726 0.008425 -0.017939
v 0.089726 0.008476 -0.017920
v 0.089726 0.009618 -0.017314
v 0.089726 0.011987 -0.015957
v 0.089726 0.012089 -0.015892
v 0.089726 0.014046 -0.014055
v 0.089726 0.015827 -0.012169
v 0.089726 0.017306 -0.009631
v 0.089726 0.017887 -0.008526
v 0.089726 0.017906 -0.008488
v 0.089726 0.019079 -0.005336
v 0.089726 0.019475 -0.004175
v 0.104586 -0.018378 -0.004662
v 0.104586 -0.018354 -0.004754
v 0.104586 -0.017782 -0.006560
v 0.104586 -0.017746 -0.006652
v 0.104586 -0.017228 -0.007928
v 0.104586 -0.016770 -0.008879
v 0.104586 -0.015863 -0.010363
v 0.104586 -0.015816 -0.010436
v 0.104586 -0.015169 -0.011387
v 0.104586 -0.014353 -0.012341
v 0.104586 -0.013404 -0.013415
v 0.104586 -0.012345 -0.014362
v 0.104586 -0.011392 -0.015198
v 0.104586 -0.010478 -0.015803
v 0.104586 -0.010431 -0.015834
v 0.104586 -0.008936 -0.016727
v 0.104586 -0.008858 -0.016773
v 0.104586 -0.007908 -0.017234
v 0.104586 -0.006696 -0.017740
v 0.104586 -0.006634 -0.017763
v 0.104586 -0.004739 -0.018365
v 0.104586 -0.002840 -0.018748
v 0.089726 -0.019194 -0.004754
v 0.089726 -0.002778 -0.019783
v 0.089726 -0.017907 -0.008500
v 0.089726 -0.015930 -0.012035
v 0.089726 -0.014130 -0.013944
v 0.089726 -0.014032 -0.014044
v 0.089726 -0.012180 -0.015811
v 0.089726 -0.012086 -0.015895
v 0.089726 -0.008512 -0.017905
v 0.089726 -0.008481 -0.017920
v 0.089726 -0.004739 -0.019189
f 8 31 32
f 149 150 99
f 1 2 3
f 8 9 1
f 1 9 2
f 110 40 109
f 8 32 33
f 33 34 8
f 40 112 113
f 111 40 110
f 111 112 40
f 114 86 40
f 64 9 63
f 110 109 115
f 115 109 156
f 18 19 8
f 8 14 15
f 15 16 8
f 14 13 15
f 16 15 71
f 30 31 8
f 27 28 8
f 100 40 99
f 100 101 40
f 101 100 151
f 99 150 151
f 151 100 99
f 107 155 156
f 8 34 35
f 35 36 8
f 85 30 84
f 31 30 85
f 90 142 143
f 189 180 177
f 178 180 140
f 177 180 178
f 178 114 177
f 184 167 183
f 167 182 183
f 181 182 162
f 42 116 117
f 185 167 184
f 185 186 167
f 3 2 12
f 2 11 12
f 58 9 57
f 58 59 9
f 57 129 58
f 66 9 65
f 9 64 65
f 65 69 66
f 138 69 65
f 65 64 138
f 2 9 10
f 9 68 10
f 10 11 2
f 10 68 11
f 67 9 66
f 67 68 9
f 66 69 67
f 67 69 11
f 11 68 67
f 41 111 110
f 110 115 41
f 112 111 41
f 41 113 112
f 8 40 41
f 40 113 41
f 5 6 1
f 1 6 7
f 7 14 8
f 8 1 7
f 7 6 13
f 7 13 14
f 72 73 19
f 19 18 72
f 16 71 72
f 70 15 13
f 70 71 15
f 8 28 29
f 29 30 8
f 8 19 20
f 104 105 40
f 40 103 104
f 154 105 104
f 40 101 102
f 102 103 40
f 101 151 102
f 102 151 103
f 103 151 152
f 152 104 103
f 40 105 106
f 106 107 40
f 106 105 154
f 154 155 106
f 155 107 106
f 108 109 40
f 40 107 108
f 156 109 108
f 108 107 156
f 39 40 8
f 8 38 39
f 8 36 37
f 37 38 8
f 89 141 142
f 89 142 90
f 89 90 40
f 94 147 148
f 149 97 148
f 93 92 146
f 146 147 93
f 93 147 94
f 93 94 40
f 40 92 93
f 144 92 143
f 90 143 91
f 143 92 91
f 40 90 91
f 91 92 40
f 98 149 99
f 98 97 149
f 99 40 98
f 40 97 98
f 140 86 139
f 139 178 140
f 86 114 139
f 114 178 139
f 160 181 161
f 181 162 161
f 161 114 160
f 161 162 114
f 45 46 9
f 42 117 118
f 118 117 114
f 116 179 158
f 188 173 187
f 187 173 186
f 63 9 62
f 9 61 62
f 9 59 60
f 60 61 9
f 59 132 60
f 130 58 129
f 59 58 130
f 56 129 57
f 57 9 56
f 4 1 3
f 4 5 1
f 16 72 17
f 17 72 18
f 8 16 17
f 17 18 8
f 83 29 28
f 28 27 83
f 27 82 83
f 84 30 83
f 30 29 83
f 25 79 80
f 26 82 27
f 8 25 26
f 26 27 8
f 25 80 26
f 24 79 25
f 24 25 8
f 21 22 8
f 8 20 21
f 154 104 153
f 104 152 153
f 40 86 87
f 94 148 95
f 40 94 95
f 146 92 145
f 92 144 145
f 163 162 182
f 114 162 163
f 167 114 166
f 114 165 166
f 166 182 167
f 166 165 182
f 44 45 9
f 9 46 47
f 47 48 9
f 121 50 49
f 49 47 121
f 48 47 49
f 49 50 9
f 9 48 49
f 42 118 119
f 119 118 114
f 157 117 116
f 116 158 157
f 114 117 157
f 157 158 114
f 159 158 179
f 159 179 181
f 159 181 160
f 160 114 159
f 114 158 159
f 174 173 188
f 188 175 174
f 114 173 174
f 174 175 114
f 188 189 176
f 176 175 188
f 176 189 177
f 177 114 176
f 114 175 176
f 168 114 167
f 168 169 114
f 167 186 168
f 186 169 168
f 61 60 133
f 133 60 132
f 131 132 59
f 59 130 131
f 63 136 137
f 137 64 63
f 138 64 137
f 63 62 135
f 135 136 63
f 135 62 61
f 129 56 128
f 82 26 81
f 81 26 80
f 79 24 78
f 22 77 23
f 8 22 23
f 23 24 8
f 77 78 23
f 23 78 24
f 75 21 20
f 88 87 141
f 141 89 88
f 88 89 40
f 40 87 88
f 96 148 97
f 96 95 148
f 96 97 40
f 40 95 96
f 182 165 164
f 164 163 182
f 164 165 114
f 114 163 164
f 43 44 9
f 43 9 42
f 42 114 43
f 120 114 42
f 42 119 120
f 120 119 114
f 170 169 186
f 186 171 170
f 114 169 170
f 170 171 114
f 172 173 114
f 114 171 172
f 186 173 172
f 172 171 186
f 61 133 134
f 134 135 61
f 126 53 124
f 124 53 125
f 127 128 55
f 55 128 56
f 55 56 9
f 21 75 76
f 76 77 22
f 22 21 76
f 74 75 20
f 19 73 74
f 74 20 19
f 121 122 51
f 51 50 121
f 51 122 123
f 51 123 124
f 124 125 51
f 9 50 51
f 54 126 127
f 127 55 54
f 53 126 54
f 9 53 54
f 54 55 9
f 52 125 53
f 52 51 125
f 52 53 9
f 9 51 52
f 85 32 31
f 85 33 32
f 140 141 87
f 87 86 140
f 145 116 42
f 149 148 145
f 150 149 145
f 145 9 8
f 184 183 145
f 145 155 154
f 145 141 140
f 140 180 145
f 145 189 188
f 42 9 145
f 145 185 184
f 145 151 150
f 181 179 145
f 145 147 146
f 145 182 181
f 154 153 145
f 145 115 156
f 156 155 145
f 8 41 145
f 145 179 116
f 145 143 142
f 142 141 145
f 188 187 145
f 180 189 145
f 145 183 182
f 186 185 145
f 145 41 115
f 145 152 151
f 145 148 147
f 145 144 143
f 145 187 186
f 145 153 152
f 3 12 74
f 74 35 34
f 74 114 40
f 136 135 74
f 74 69 138
f 74 70 13
f 74 130 129
f 132 131 74
f 74 4 3
f 79 78 74
f 34 33 74
f 74 85 84
f 77 76 74
f 13 6 74
f 73 72 74
f 40 39 74
f 36 35 74
f 33 85 74
f 74 37 36
f 11 69 74
f 74 12 11
f 74 80 79
f 74 134 133
f 6 5 74
f 74 72 71
f 71 70 74
f 84 83 74
f 82 81 74
f 74 39 38
f 38 37 74
f 46 45 74
f 74 133 132
f 121 47 74
f 74 122 121
f 5 4 74
f 74 83 82
f 129 128 74
f 45 44 74
f 74 47 46
f 138 137 74
f 74 131 130
f 74 137 136
f 74 43 114
f 124 123 74
f 74 128 127
f 74 81 80
f 74 78 77
f 127 126 74
f 44 43 74
f 135 134 74
f 123 122 74
f 74 126 124
f 74 76 75
