v -0.118657 -0.173522 0.030826
v -0.118657 -0.174324 -0.029686
v -0.118657 -0.234547 0.030826
v -0.017202 -0.179905 0.062339
v -0.017202 -0.176659 0.052934
v 0.006895 -0.176504 0.052934
v 0.006895 -0.175989 0.038889
v 0.006895 -0.176013 0.027547
v -0.117711 -0.211555 -0.029695
v -0.118000 -0.211555 -0.029695
v -0.118657 -0.232883 -0.029695
v -0.017202 -0.177210 -0.029686
v -0.118657 -0.234751 -0.029641
v -0.098363 -0.280963 0.024835
v -0.100433 -0.272556 0.030826
v -0.017202 -0.188060 0.062339
v 0.006895 -0.179905 0.062339
v 0.020933 -0.180503 0.061871
v 0.020933 -0.177629 0.052934
v 0.020933 -0.177078 0.038889
v 0.020933 -0.177174 0.027547
v -0.017202 -0.274101 -0.029695
v -0.118657 -0.234751 -0.029695
v 0.029901 -0.180731 0.027547
v 0.036093 -0.189808 0.027547
v 0.044644 -0.204358 0.027547
v 0.045238 -0.205711 0.027547
v -0.071555 -0.295860 0.024835
v -0.090855 -0.284723 0.030826
v -0.097336 -0.278664 0.030826
v -0.090374 -0.284855 0.010791
v -0.071475 -0.295812 0.015665
v 0.025585 -0.197987 0.060520
v 0.006895 -0.188060 0.062339
v -0.071042 -0.295548 0.030826
v 0.020917 -0.190515 0.061826
v 0.029532 -0.189808 0.061105
v 0.028954 -0.181665 0.060925
v 0.029724 -0.180851 0.052934
v 0.029965 -0.180647 0.038889
v -0.017202 -0.293920 -0.029695
v -0.105133 -0.242822 -0.029695
v -0.087743 -0.283561 0.001584
v 0.035660 -0.189808 0.038889
v 0.040682 -0.199664 0.038889
v 0.045238 -0.212645 0.027547
v 0.042960 -0.208250 0.047691
v -0.067432 -0.295860 0.024835
v -0.068218 -0.295812 0.015665
v 0.029066 -0.197987 0.060520
v -0.068282 -0.295548 0.030826
v 0.042960 -0.212010 0.047691
v -0.017202 -0.293920 -0.026236
v -0.017202 -0.293884 0.030826
f 2 12 9
f 9 12 22
f 22 12 27
f 3 13 14
f 29 14 28
f 14 13 23
f 35 29 28
f 14 29 30
f 53 54 48
f 41 53 48
f 48 49 41
f 54 52 50
f 46 53 41
f 46 54 53
f 46 52 54
f 8 2 1
f 12 2 8
f 8 21 12
f 7 8 1
f 27 12 26
f 12 25 26
f 10 2 9
f 29 35 16
f 16 30 29
f 15 3 14
f 14 30 15
f 15 16 3
f 30 16 15
f 54 50 51
f 51 48 54
f 2 10 11
f 41 43 42
f 42 43 23
f 41 49 32
f 32 43 41
f 28 14 32
f 33 16 35
f 37 50 52
f 44 26 25
f 25 39 44
f 44 39 26
f 12 21 24
f 24 25 12
f 27 26 45
f 21 8 20
f 8 7 20
f 4 5 1
f 31 32 14
f 43 32 31
f 14 23 31
f 23 43 31
f 47 37 52
f 27 45 47
f 34 50 36
f 50 37 36
f 40 39 25
f 25 24 40
f 40 20 39
f 40 24 21
f 21 20 40
f 6 20 7
f 1 5 6
f 6 7 1
f 5 4 6
f 34 36 18
f 18 36 37
f 17 6 4
f 17 18 6
f 34 18 17
f 20 6 19
f 6 18 19
f 39 20 19
f 39 19 38
f 38 19 18
f 38 18 37
f 37 47 38
f 38 47 45
f 26 39 38
f 38 45 26
f 41 22 46
f 46 22 27
f 28 48 51
f 51 35 28
f 11 3 1
f 1 2 11
f 13 3 11
f 11 23 13
f 42 22 41
f 9 22 42
f 23 11 42
f 42 10 9
f 42 11 10
f 32 48 28
f 49 48 32
f 35 51 33
f 33 51 50
f 33 50 34
f 34 16 33
f 1 3 4
f 3 16 4
f 47 46 27
f 52 46 47
f 17 16 34
f 17 4 16
