v -0.193469 -0.192124 0.038908
v -0.193469 -0.191854 0.050326
v -0.193469 -0.192052 0.009950
v -0.090867 -0.284711 0.030849
v -0.193469 -0.191620 0.052959
v -0.090229 -0.284585 0.038908
v -0.193469 -0.173138 0.009950
v -0.131383 -0.227665 0.009950
v -0.071058 -0.295562 0.030849
v -0.193469 -0.187427 0.062761
v -0.183737 -0.197378 0.060942
v -0.070868 -0.295436 0.033129
v -0.087554 -0.283343 0.047950
v -0.193469 -0.111719 0.068037
v -0.143462 -0.111719 0.009950
v -0.118649 -0.234593 0.009950
v -0.068297 -0.295562 0.030849
v -0.017186 -0.293996 0.081489
v -0.155783 -0.211631 0.074779
v -0.169139 -0.197198 0.074212
v -0.193469 -0.179365 0.066635
v -0.076304 -0.291387 0.038255
v -0.086260 -0.254064 0.081489
v -0.105086 -0.242961 0.081489
v -0.118649 -0.230094 0.086722
v -0.126328 -0.224426 0.087771
v -0.193469 -0.111719 0.087225
v -0.135939 -0.111719 0.009950
v -0.017186 -0.293889 0.030849
v -0.118649 -0.174506 0.009950
v -0.017186 -0.293996 0.081039
v -0.017186 -0.273104 0.081489
v -0.118649 -0.111719 0.119190
v -0.118649 -0.128473 0.117521
v -0.118649 -0.133602 0.116879
v -0.118649 -0.147620 0.113540
v -0.118649 -0.218991 0.093175
v -0.118649 -0.224642 0.091056
v -0.189966 -0.111719 0.089643
v -0.193469 -0.175316 0.068273
v -0.120806 -0.219009 0.092105
v -0.134144 -0.111719 0.017034
v -0.017186 -0.177043 0.030849
v -0.017186 -0.179905 0.062355
v -0.118649 -0.111719 0.100398
v -0.120081 -0.111719 0.119276
v -0.017186 -0.176665 0.052959
v -0.017186 -0.176629 0.048935
v -0.130969 -0.111719 0.117746
v -0.126345 -0.126314 0.116023
v -0.133575 -0.111719 0.116633
v -0.017186 -0.176827 0.034884
v -0.017186 -0.176755 0.038908
f 1 3 4
f 35 36 18
f 18 36 37
f 18 22 12
f 13 12 22
f 13 22 18
f 8 4 3
f 30 28 43
f 42 45 43
f 43 28 42
f 44 47 33
f 33 32 44
f 18 32 33
f 18 37 38
f 38 37 26
f 1 4 2
f 26 37 41
f 41 39 26
f 37 39 41
f 18 38 25
f 25 38 26
f 26 13 25
f 25 13 24
f 5 2 6
f 6 2 4
f 12 13 6
f 11 5 6
f 6 13 11
f 19 13 26
f 11 13 19
f 15 7 14
f 34 35 18
f 18 33 34
f 34 33 46
f 43 45 52
f 45 53 52
f 48 53 45
f 45 33 48
f 48 33 47
f 26 39 20
f 39 40 20
f 20 19 26
f 10 5 11
f 11 19 10
f 19 20 10
f 27 40 39
f 50 51 39
f 50 37 36
f 50 39 37
f 36 35 50
f 18 25 23
f 23 25 24
f 23 13 18
f 24 13 23
f 16 29 17
f 49 34 46
f 35 34 49
f 49 50 35
f 51 50 49
f 21 20 40
f 21 10 20
f 18 17 31
f 31 17 29
f 18 12 9
f 9 17 18
f 9 6 4
f 12 6 9
f 16 17 9
f 9 8 16
f 4 8 9
f 16 30 29
f 29 30 43
f 3 7 15
f 15 8 3
f 16 8 15
f 15 30 16
f 28 30 15
f 45 42 49
f 14 27 49
f 46 33 49
f 49 15 14
f 49 42 28
f 49 33 45
f 39 51 49
f 28 15 49
f 49 27 39
f 21 7 3
f 21 3 1
f 1 2 21
f 14 7 21
f 21 2 5
f 5 10 21
f 21 27 14
f 40 27 21
f 31 32 18
f 31 48 47
f 44 32 31
f 31 47 44
f 43 52 31
f 31 29 43
f 31 52 53
f 53 48 31
