v 0.147391 0.147493 -0.072797
v 0.147391 0.133426 -0.072781
v 0.046331 0.132669 -0.072715
v 0.046331 0.234506 -0.072715
v 0.063132 0.231776 -0.072715
v 0.091238 0.217710 -0.072715
v 0.161444 0.147493 -0.072781
v 0.162218 0.132669 -0.072764
v 0.147391 0.132669 -0.072764
v 0.046331 0.132669 -0.056987
v 0.045421 0.239467 0.095980
v 0.045421 0.256063 0.027534
v 0.223733 0.128666 -0.039772
v 0.045421 0.274704 0.027534
v 0.046331 0.245814 -0.072582
v 0.049079 0.245814 -0.072566
v 0.119305 0.203686 -0.072632
v 0.161444 0.175611 -0.072648
v 0.133357 0.189649 -0.072715
v 0.168586 0.168463 -0.072582
v 0.168586 0.147493 -0.072632
v 0.168586 0.132669 -0.072648
v 0.243147 0.128666 -0.039772
v 0.098090 0.168435 0.046005
v 0.227681 0.128666 0.027534
v 0.215855 0.133398 0.094180
v 0.045421 0.269715 0.095980
v 0.048750 0.237251 0.095980
v 0.045421 0.274704 0.081029
v 0.046331 0.274575 -0.045405
v 0.046331 0.272917 -0.055351
v 0.046331 0.272131 -0.059812
v 0.046331 0.268199 -0.067263
v 0.046331 0.266355 -0.068188
v 0.046331 0.262982 -0.069427
v 0.046331 0.260437 -0.070104
v 0.046331 0.248558 -0.072450
v 0.077185 0.231776 -0.072434
v 0.147391 0.189649 -0.072516
v 0.168586 0.175611 -0.072500
v 0.242992 0.147478 -0.039772
v 0.243070 0.141846 -0.039772
v 0.243147 0.133441 -0.039772
v 0.243050 0.133398 0.066970
v 0.243050 0.128666 0.027534
v 0.063848 0.227359 0.095980
v 0.242799 0.133398 0.094180
v 0.180877 0.161802 0.095980
v 0.162044 0.170808 0.095980
v 0.045421 0.270672 0.094741
v 0.047028 0.268957 0.095980
v 0.045421 0.270787 0.094593
v 0.057132 0.267499 0.089322
v 0.057654 0.267799 0.081029
v 0.057945 0.267956 -0.045405
v 0.084308 0.252890 -0.052642
v 0.057422 0.267656 -0.054938
v 0.054499 0.265769 -0.064322
v 0.072036 0.253862 -0.067296
v 0.063132 0.256292 -0.068502
v 0.076914 0.246114 -0.069229
v 0.091238 0.231776 -0.071112
v 0.063132 0.245814 -0.071624
v 0.105290 0.217710 -0.072252
v 0.168586 0.182501 -0.071905
v 0.243031 0.147478 0.066970
v 0.240747 0.158014 -0.039772
v 0.240863 0.158243 0.066970
v 0.243050 0.133426 0.066970
v 0.242934 0.133398 0.081029
v 0.242799 0.134356 0.094180
v 0.180877 0.191464 0.095980
v 0.049486 0.267656 0.095980
v 0.053551 0.265440 0.095980
v 0.154998 0.211020 0.088744
v 0.099019 0.239238 0.095980
v 0.101380 0.240610 0.091421
v 0.226230 0.169350 0.089603
v 0.200795 0.184946 0.081029
v 0.227739 0.170236 0.010799
v 0.155753 0.211606 0.024808
v 0.147391 0.216480 0.010815
v 0.084308 0.252890 -0.050940
v 0.155501 0.211305 -0.054459
v 0.227759 0.170307 -0.039772
v 0.125712 0.224257 -0.065726
v 0.098942 0.239152 -0.066800
v 0.116343 0.226930 -0.067957
v 0.168586 0.197840 -0.067329
v 0.133357 0.214951 -0.068783
v 0.104284 0.231690 -0.068799
v 0.168586 0.189763 -0.070220
v 0.161444 0.189649 -0.071409
v 0.133357 0.203686 -0.071888
v 0.240747 0.158028 0.081029
v 0.242837 0.147478 0.081029
v 0.242934 0.133426 0.081029
v 0.168586 0.194537 -0.068733
v 0.238366 0.160830 -0.039772
v 0.234785 0.165033 -0.039772
v 0.234766 0.165133 0.010799
v 0.234611 0.165161 0.024825
v 0.234069 0.165047 0.081029
v 0.241308 0.148436 0.094180
v 0.170367 0.197740 0.095980
v 0.240515 0.152710 0.094180
v 0.239644 0.156141 0.094180
v 0.230836 0.163432 0.094180
v 0.223713 0.167935 0.094180
v 0.227043 0.169721 0.081029
v 0.125189 0.224042 0.095980
v 0.239973 0.156699 0.092214
v 0.168586 0.201771 -0.059399
v 0.230585 0.168206 -0.039772
v 0.168586 0.198769 -0.065974
v 0.152482 0.209347 -0.063843
v 0.161444 0.199784 -0.068320
f 14 29 30
f 3 4 1
f 11 12 3
f 3 10 11
f 25 26 10
f 24 26 46
f 10 26 24
f 46 28 24
f 24 28 11
f 11 10 24
f 53 29 52
f 52 74 53
f 78 110 75
f 75 53 78
f 68 41 67
f 75 110 79
f 14 32 33
f 2 3 1
f 41 68 66
f 26 47 48
f 10 3 13
f 13 25 10
f 27 51 50
f 50 51 52
f 73 74 52
f 52 51 73
f 76 53 74
f 110 78 103
f 15 4 14
f 14 37 15
f 14 35 36
f 36 37 14
f 34 35 14
f 14 33 34
f 20 40 41
f 30 56 57
f 54 30 29
f 75 79 54
f 54 53 75
f 29 53 54
f 8 22 23
f 8 2 1
f 23 22 43
f 46 26 49
f 26 48 49
f 72 109 105
f 44 45 23
f 77 78 53
f 53 76 77
f 77 76 78
f 105 109 111
f 111 109 78
f 78 76 111
f 68 103 95
f 95 66 68
f 95 96 66
f 110 103 80
f 80 79 110
f 80 54 79
f 37 36 63
f 63 36 35
f 84 56 85
f 85 113 84
f 84 57 56
f 31 57 32
f 30 57 31
f 31 32 14
f 14 30 31
f 55 56 30
f 30 54 55
f 3 2 9
f 2 8 9
f 9 13 3
f 22 8 7
f 7 8 1
f 1 6 7
f 41 66 42
f 66 43 42
f 42 20 41
f 42 43 20
f 21 43 22
f 20 43 21
f 22 7 21
f 21 7 20
f 66 96 71
f 96 104 71
f 71 104 72
f 108 72 107
f 109 72 108
f 107 78 108
f 78 109 108
f 47 45 70
f 45 44 70
f 82 54 81
f 81 80 82
f 54 80 81
f 85 80 101
f 68 100 101
f 99 68 67
f 99 100 68
f 67 89 99
f 99 89 100
f 4 15 5
f 1 4 5
f 5 6 1
f 37 63 38
f 63 64 38
f 32 57 58
f 58 33 32
f 59 34 33
f 33 58 59
f 100 89 115
f 115 113 85
f 56 55 83
f 83 55 54
f 83 54 82
f 85 56 83
f 83 80 85
f 82 80 83
f 20 7 18
f 6 17 18
f 40 20 18
f 107 72 106
f 72 104 106
f 106 104 96
f 69 43 66
f 66 71 97
f 97 69 66
f 102 80 103
f 102 101 80
f 102 103 68
f 68 101 102
f 16 17 6
f 16 5 15
f 6 5 16
f 16 15 37
f 37 38 16
f 40 18 39
f 39 18 17
f 39 38 64
f 17 16 39
f 39 16 38
f 114 115 85
f 100 115 114
f 85 101 114
f 114 101 100
f 113 115 116
f 87 59 58
f 89 59 87
f 19 7 6
f 6 18 19
f 19 18 7
f 96 95 112
f 112 106 96
f 107 106 112
f 112 95 103
f 112 78 107
f 112 103 78
f 94 64 63
f 63 93 94
f 93 92 65
f 40 39 65
f 65 92 67
f 65 94 93
f 67 41 65
f 41 40 65
f 65 39 64
f 64 94 65
f 98 89 67
f 67 92 98
f 62 93 63
f 62 92 93
f 62 63 35
f 86 87 58
f 57 84 86
f 86 58 57
f 86 84 113
f 113 116 86
f 86 116 115
f 86 115 89
f 89 87 86
f 90 98 92
f 92 62 90
f 90 62 91
f 35 34 60
f 34 59 60
f 60 90 91
f 89 98 117
f 98 90 117
f 91 62 61
f 61 60 91
f 61 62 35
f 35 60 61
f 88 60 59
f 88 59 89
f 89 117 88
f 90 60 88
f 88 117 90
f 3 12 14
f 14 4 3
f 25 13 45
f 45 13 23
f 45 47 26
f 26 25 45
f 11 27 50
f 50 12 11
f 14 12 50
f 50 29 14
f 52 29 50
f 111 27 11
f 11 28 111
f 111 28 46
f 111 76 74
f 74 73 111
f 111 51 27
f 46 49 111
f 111 73 51
f 111 72 105
f 111 49 48
f 48 72 111
f 23 13 9
f 9 8 23
f 71 72 48
f 71 48 47
f 69 44 23
f 23 43 69
f 97 71 47
f 47 70 97
f 44 69 97
f 97 70 44
