v -0.172495 0.046500 0.137284
v -0.121100 -0.037294 0.137284
v -0.121559 -0.037294 0.208794
v -0.172495 0.047307 0.208794
v -0.172495 0.091424 0.137284
v -0.103379 -0.037294 0.137284
v -0.103061 -0.037294 0.208794
v -0.172495 0.091424 0.208794
v -0.172495 0.091436 0.148037
v -0.133647 0.091525 0.137284
v -0.103105 -0.037294 0.193470
v -0.096880 0.063135 0.137284
v -0.097087 0.063148 0.208794
v -0.133632 0.091537 0.208794
v -0.119598 0.091184 0.137284
v -0.097627 0.072367 0.137284
v -0.097738 0.072354 0.208794
v -0.097679 0.071522 0.208794
v -0.119583 0.091096 0.208794
v -0.108050 0.087413 0.137284
v -0.109101 0.087691 0.208794
v -0.108057 0.087350 0.208794
v -0.101032 0.079392 0.137284
v -0.101032 0.079379 0.208794
f 1 2 3
f 1 3 4
f 9 8 14
f 11 6 12
f 12 7 11
f 13 7 12
f 16 17 12
f 20 15 22
f 14 15 10
f 5 9 10
f 10 9 14
f 12 17 18
f 18 13 12
f 19 15 14
f 20 22 24
f 17 16 24
f 21 22 15
f 15 19 21
f 20 24 23
f 23 24 16
f 9 5 1
f 4 8 9
f 1 4 9
f 11 7 3
f 2 6 11
f 11 3 2
f 21 4 3
f 14 8 21
f 3 7 21
f 21 8 4
f 7 13 21
f 21 18 17
f 21 19 14
f 13 18 21
f 17 24 21
f 21 24 22
f 23 16 12
f 23 2 1
f 1 5 23
f 12 6 23
f 23 6 2
f 23 15 20
f 5 10 23
f 23 10 15
