v -0.126841 0.045979 0.137263
v -0.126841 0.091363 0.137263
v -0.193462 0.046397 0.137263
v -0.161733 0.046801 0.081044
v -0.126841 0.046491 0.123204
v -0.193462 0.093181 0.137263
v -0.126841 0.119679 0.116935
v -0.193462 0.047674 0.066679
v -0.126841 0.047205 0.109146
v -0.147685 0.052370 -0.012014
v -0.128125 0.119679 0.116745
v -0.134439 0.119679 0.113793
v -0.149843 0.119679 0.106253
v -0.156489 0.119679 0.102994
v -0.184482 0.119679 0.088863
v -0.193462 0.119679 0.084230
v -0.126841 0.119679 0.098055
v -0.193462 0.053525 0.024856
v -0.183366 0.055018 -0.012014
v -0.170485 0.053763 -0.012014
v -0.126841 0.047905 0.104923
v -0.136708 0.053965 -0.012014
v -0.193462 0.119679 0.066051
v -0.126841 0.087807 0.083938
v -0.128497 0.076509 -0.012014
v -0.130708 0.091255 -0.012014
v -0.131889 0.119679 0.038899
v -0.193462 0.055415 0.015854
v -0.184951 0.055653 -0.012014
v -0.126841 0.051779 0.095146
v -0.132560 0.059953 -0.012014
v -0.129938 0.063928 -0.012014
v -0.129104 0.070464 -0.012014
v -0.143680 0.119679 0.024242
v -0.143413 0.106383 -0.012014
v -0.184951 0.058106 -0.012014
v -0.193462 0.058575 0.015854
v -0.126841 0.076971 0.083543
v -0.134002 0.101470 -0.012014
v -0.135965 0.106383 -0.012014
v -0.135723 0.119679 0.024446
v -0.135789 0.119679 0.024242
v -0.140745 0.112414 0.002658
v -0.140504 0.112414 0.002658
f 4 1 3
f 7 6 2
f 1 4 5
f 8 4 3
f 10 4 8
f 15 16 6
f 6 14 15
f 10 22 9
f 9 4 10
f 9 5 4
f 34 35 23
f 23 35 36
f 36 37 23
f 29 19 18
f 19 8 18
f 18 28 29
f 10 8 20
f 20 8 19
f 11 6 7
f 11 12 6
f 13 14 6
f 6 12 13
f 26 39 27
f 27 17 26
f 27 39 40
f 21 32 33
f 21 31 32
f 22 31 21
f 21 9 22
f 25 26 17
f 17 24 25
f 25 24 38
f 38 30 25
f 30 21 25
f 25 21 33
f 40 42 41
f 27 40 41
f 44 42 40
f 35 34 43
f 2 6 3
f 3 1 2
f 28 37 36
f 29 28 36
f 3 6 18
f 18 16 23
f 6 16 18
f 23 37 18
f 18 37 28
f 18 8 3
f 21 2 1
f 7 2 21
f 1 5 21
f 21 17 7
f 5 9 21
f 38 24 21
f 21 24 17
f 21 30 38
f 25 22 10
f 29 36 25
f 25 19 29
f 10 20 25
f 33 32 25
f 25 31 22
f 25 36 35
f 25 20 19
f 35 40 25
f 39 26 25
f 25 40 39
f 32 31 25
f 23 16 41
f 16 15 41
f 41 34 23
f 7 17 41
f 41 17 27
f 41 15 14
f 41 11 7
f 14 13 41
f 12 11 41
f 41 13 12
f 41 42 34
f 43 40 35
f 43 44 40
f 34 42 43
f 42 44 43
