v -0.105529 -0.049256 1.342816
v -0.119573 -0.049256 1.341534
v -0.105529 -0.063299 1.342664
v -0.097634 -0.063299 1.340045
v -0.097531 -0.049256 1.340145
v -0.097535 0.049080 1.340145
v -0.105529 0.049080 1.342757
v -0.126902 -0.049256 1.338869
v -0.126811 -0.084507 1.338835
v -0.120848 -0.077413 1.340730
v -0.119573 0.063141 1.341441
v -0.126858 0.077183 1.338855
v -0.109926 -0.085961 1.340258
v -0.105355 -0.076857 1.341148
v -0.097990 -0.071829 1.339540
v -0.096734 -0.063299 1.331731
v -0.096497 -0.049256 1.331731
v -0.096497 0.006323 1.331731
v -0.096501 0.049080 1.331731
v -0.097638 0.063141 1.340045
v -0.105529 0.063141 1.342683
v -0.136172 -0.035213 1.335399
v -0.136172 -0.049256 1.335393
v -0.136172 -0.077413 1.335113
v -0.136172 -0.079909 1.334349
v -0.136172 -0.087398 1.331013
v -0.119573 -0.085656 1.339939
v -0.119573 0.077183 1.341321
v -0.126815 0.084330 1.338842
v -0.136909 0.077183 1.335047
v -0.136909 0.074113 1.335054
v -0.119573 -0.088960 1.331731
v -0.108342 -0.087039 1.331731
v -0.101318 -0.079586 1.331731
v -0.097737 -0.072565 1.331731
v -0.096703 -0.063299 1.317680
v -0.096437 -0.049256 1.317680
v -0.096437 0.006323 1.318299
v -0.096441 0.049080 1.317680
v -0.096738 0.063141 1.331731
v -0.097994 0.071634 1.339540
v -0.105359 0.076681 1.341201
v -0.109930 0.085857 1.340284
v -0.136909 0.006933 1.335094
v -0.136909 0.006323 1.335094
v -0.136172 -0.088314 1.328467
v -0.119573 0.085534 1.339958
v -0.136909 0.087293 1.330833
v -0.136172 -0.091600 1.317680
v -0.133624 -0.091708 1.317680
v -0.119573 -0.091007 1.317680
v -0.108076 -0.087344 1.317680
v -0.101049 -0.079586 1.317680
v -0.097737 -0.072565 1.274926
v -0.096786 -0.063299 1.303644
v -0.097063 -0.063299 1.274926
v -0.096627 -0.049256 1.303644
v -0.096627 0.049080 1.303637
v -0.096437 0.006323 1.317680
v -0.097083 0.063141 1.275909
v -0.096786 0.063141 1.303637
v -0.096707 0.063141 1.317680
v -0.097741 0.072335 1.331731
v -0.101334 0.079356 1.331731
v -0.108362 0.087024 1.331731
v -0.119573 0.088999 1.331731
v -0.136909 0.006323 1.316777
v -0.136172 -0.091708 1.315135
v -0.136909 0.091567 1.317680
v -0.133624 -0.091708 1.289594
v -0.119573 -0.091007 1.274926
v -0.108080 -0.087344 1.274926
v -0.107771 -0.087021 1.274926
v -0.101049 -0.079586 1.303644
v -0.101053 -0.079586 1.274926
v -0.097828 -0.055379 1.274926
v -0.097741 0.072317 1.275909
v -0.097721 0.072065 1.275909
v -0.101076 0.079338 1.275909
v -0.101076 0.079338 1.303637
v -0.101080 0.079338 1.317680
v -0.108104 0.087383 1.317680
v -0.119573 0.091136 1.317680
v -0.133624 0.091711 1.317680
v -0.136172 -0.091690 1.274926
v -0.136172 -0.091708 1.289594
v -0.136909 0.075855 1.275909
v -0.136909 0.091711 1.303637
v -0.133624 -0.091690 1.274926
v -0.105529 -0.054930 1.274926
v -0.119573 0.091136 1.275909
v -0.108100 0.087383 1.275909
v -0.108100 0.087383 1.289587
v -0.133624 0.091711 1.275909
v -0.136172 -0.075995 1.274926
v -0.136909 0.091711 1.275909
v -0.112902 -0.055846 1.274926
f 37 56 57
f 78 56 77
f 78 60 56
f 54 56 55
f 55 36 54
f 55 56 37
f 37 36 55
f 54 36 35
f 9 23 24
f 34 35 15
f 15 4 3
f 3 14 15
f 39 40 19
f 50 49 68
f 96 97 95
f 1 2 3
f 3 4 1
f 77 56 76
f 41 40 63
f 77 76 79
f 79 76 92
f 79 63 77
f 92 76 91
f 41 63 64
f 64 63 81
f 64 81 82
f 82 65 64
f 26 27 9
f 8 9 2
f 23 9 8
f 8 22 23
f 16 35 36
f 16 15 35
f 37 17 16
f 16 36 37
f 4 15 16
f 16 17 4
f 60 78 61
f 61 39 60
f 61 78 77
f 37 57 58
f 60 39 58
f 56 60 58
f 58 57 56
f 38 39 19
f 38 17 37
f 34 33 52
f 52 71 72
f 51 52 33
f 71 52 51
f 67 87 85
f 2 1 7
f 7 6 21
f 1 6 7
f 41 21 20
f 21 6 20
f 20 40 41
f 19 40 20
f 20 6 19
f 5 1 4
f 5 6 1
f 4 17 5
f 12 8 2
f 22 8 12
f 42 21 41
f 43 42 41
f 43 28 21
f 21 42 43
f 41 64 43
f 43 64 65
f 90 97 96
f 90 91 76
f 82 81 80
f 81 63 80
f 63 79 80
f 88 69 84
f 94 90 96
f 91 90 94
f 82 80 93
f 83 65 82
f 82 93 83
f 13 14 3
f 13 15 14
f 34 15 13
f 13 33 34
f 3 2 10
f 10 13 3
f 27 13 10
f 2 9 10
f 9 27 10
f 32 49 50
f 32 13 27
f 27 26 32
f 50 51 32
f 32 51 33
f 33 13 32
f 25 9 24
f 25 26 9
f 62 61 77
f 77 63 62
f 62 63 40
f 40 39 62
f 39 61 62
f 59 38 37
f 39 38 59
f 37 58 59
f 59 58 39
f 73 52 72
f 34 52 53
f 53 35 34
f 52 73 53
f 70 89 71
f 45 68 49
f 26 25 45
f 45 25 24
f 24 23 45
f 23 22 45
f 21 28 11
f 11 7 21
f 2 7 11
f 11 12 2
f 19 6 18
f 6 5 18
f 18 5 17
f 18 38 19
f 17 38 18
f 28 43 47
f 66 83 84
f 84 69 66
f 66 43 65
f 65 83 66
f 66 47 43
f 66 69 48
f 48 47 66
f 74 73 75
f 74 53 73
f 74 75 54
f 86 67 85
f 46 45 49
f 26 45 46
f 49 32 46
f 46 32 26
f 31 12 30
f 22 12 31
f 29 48 30
f 29 47 48
f 30 12 29
f 28 47 29
f 29 11 28
f 12 11 29
f 44 45 22
f 22 31 44
f 95 87 96
f 85 87 95
f 96 88 94
f 94 88 84
f 93 80 79
f 93 79 92
f 83 94 84
f 91 94 83
f 83 93 92
f 92 91 83
f 73 76 56
f 73 56 54
f 85 95 73
f 54 75 73
f 72 71 73
f 97 90 73
f 73 95 97
f 73 89 85
f 71 89 73
f 73 90 76
f 71 51 70
f 70 51 50
f 35 53 74
f 54 35 74
f 85 89 86
f 89 70 86
f 86 70 50
f 50 68 86
f 86 45 67
f 68 45 86
f 44 88 96
f 30 48 44
f 96 87 44
f 48 69 44
f 87 67 44
f 69 88 44
f 67 45 44
f 44 31 30
