v 0.161446 -0.133613 -0.072969
v 0.147408 -0.147660 -0.072936
v 0.105295 -0.175768 -0.072888
v 0.119332 -0.161707 -0.072904
v 0.063143 -0.175768 -0.072774
v 0.049086 -0.175768 -0.072725
v 0.147408 -0.133613 -0.072920
v 0.161446 -0.129843 -0.072904
v 0.175503 -0.129843 -0.072904
v 0.189559 -0.129843 -0.072888
v 0.189559 -0.133613 -0.072888
v 0.049086 -0.231941 -0.072742
v 0.046448 -0.231941 -0.072742
v 0.049086 -0.217880 -0.072774
v 0.063143 -0.203833 -0.072806
v 0.046448 -0.203833 -0.072758
v 0.046448 -0.189815 -0.072742
v 0.046448 -0.175768 -0.072709
v 0.147408 -0.129843 -0.072855
v 0.046448 -0.161707 -0.072514
v 0.213880 -0.129843 -0.072790
v 0.217654 -0.133613 -0.072774
v 0.049086 -0.245988 -0.072531
v 0.046448 -0.245988 -0.072547
v 0.063143 -0.231941 -0.072628
v 0.046448 -0.217880 -0.072758
v 0.046448 -0.129843 -0.071800
v 0.217654 -0.129843 -0.072774
v 0.227937 -0.129843 -0.072157
v 0.231711 -0.133613 -0.071930
v 0.217654 -0.147660 -0.072206
v 0.046448 -0.260602 -0.070047
v 0.077181 -0.231941 -0.072287
v 0.063143 -0.245988 -0.071459
v 0.046448 -0.129843 -0.058264
v 0.231711 -0.129843 -0.071930
v 0.240761 -0.133613 -0.068798
v 0.240242 -0.147660 -0.068181
v 0.231711 -0.147660 -0.071005
v 0.203616 -0.161707 -0.071508
v 0.105295 -0.217880 -0.071963
v 0.046448 -0.266144 -0.068262
v 0.049471 -0.260758 -0.069544
v 0.161446 -0.189815 -0.071086
v 0.091238 -0.231941 -0.070891
v 0.046448 -0.255712 0.027515
v 0.048200 -0.243494 0.092828
v 0.097977 -0.168567 0.046018
v 0.180759 -0.162274 0.092844
v 0.143037 -0.129843 -0.009377
v 0.240761 -0.129843 -0.068798
v 0.243053 -0.133613 -0.059465
v 0.242533 -0.147660 -0.059465
v 0.239394 -0.155669 -0.067223
v 0.231711 -0.158277 -0.068294
v 0.218405 -0.162586 -0.069366
v 0.189559 -0.175768 -0.070453
v 0.046448 -0.269263 -0.065064
v 0.063143 -0.256350 -0.068457
v 0.071866 -0.253926 -0.067223
v 0.054401 -0.265918 -0.064285
v 0.174983 -0.189985 -0.068944
v 0.161446 -0.199921 -0.068327
v 0.076796 -0.246272 -0.069138
v 0.046448 -0.274507 0.027515
v 0.048200 -0.249589 0.092844
v 0.056192 -0.238093 0.092844
v 0.101155 -0.210425 0.092844
v 0.178179 -0.163323 0.092844
v 0.180759 -0.191601 0.092844
v 0.242841 -0.147660 0.027532
v 0.242726 -0.129843 0.027532
v 0.227263 -0.129843 0.027532
v 0.242418 -0.129843 -0.061964
v 0.242995 -0.129843 -0.059465
v 0.243072 -0.129843 -0.049191
v 0.243149 -0.133613 -0.045409
v 0.243111 -0.147660 -0.045409
v 0.240839 -0.158291 -0.045409
v 0.240299 -0.157228 -0.059465
v 0.231499 -0.164613 -0.060065
v 0.223585 -0.167859 -0.065146
v 0.214207 -0.170679 -0.067840
v 0.046448 -0.272168 -0.059773
v 0.116251 -0.227051 -0.067953
v 0.091238 -0.241311 -0.067986
v 0.098844 -0.239284 -0.066769
v 0.057443 -0.267845 -0.054920
v 0.196800 -0.182912 -0.066606
v 0.046448 -0.274635 -0.045409
v 0.048200 -0.273926 0.066989
v 0.048200 -0.273175 0.081028
v 0.048200 -0.269546 0.092779
v 0.048200 -0.269461 0.092844
v 0.172056 -0.197001 0.092844
v 0.170708 -0.198291 0.091643
v 0.180759 -0.195442 0.081028
v 0.234773 -0.165350 0.027532
v 0.240858 -0.158319 0.027532
v 0.242745 -0.129843 0.026801
v 0.243091 -0.129843 -0.045409
v 0.242437 -0.150835 -0.041222
v 0.234734 -0.165321 -0.045409
v 0.226685 -0.169843 -0.055781
v 0.169957 -0.197639 -0.067158
v 0.084306 -0.253061 -0.052616
v 0.155457 -0.211459 -0.054368
v 0.057982 -0.268157 -0.045409
v 0.058137 -0.268256 0.066989
v 0.084363 -0.253090 0.074585
v 0.057482 -0.267874 0.081028
v 0.056519 -0.267278 0.088559
v 0.049953 -0.268795 0.092844
v 0.048239 -0.269518 0.092844
v 0.060813 -0.262530 0.092844
v 0.173519 -0.199865 0.081028
v 0.180759 -0.197342 0.066989
v 0.227744 -0.170438 0.027532
v 0.227744 -0.170438 0.024837
v 0.227725 -0.170424 -0.031353
v 0.232655 -0.166838 -0.041222
v 0.227706 -0.170424 -0.045409
v 0.175156 -0.200715 0.066989
v 0.155457 -0.211459 0.076240
f 49 35 48
f 49 72 73
f 50 35 49
f 49 73 50
f 101 100 77
f 38 53 54
f 49 48 69
f 48 68 69
f 67 68 48
f 98 99 70
f 35 46 47
f 47 48 35
f 47 67 48
f 27 19 20
f 18 20 7
f 7 20 19
f 14 3 13
f 22 23 25
f 53 38 37
f 79 99 98
f 79 102 99
f 4 1 3
f 76 101 77
f 33 23 31
f 23 22 31
f 13 3 12
f 12 22 25
f 25 23 12
f 52 37 51
f 53 37 52
f 75 76 52
f 52 76 77
f 98 70 97
f 97 118 98
f 71 100 72
f 77 100 71
f 71 70 99
f 49 70 71
f 71 72 49
f 103 79 98
f 122 104 103
f 66 47 46
f 67 47 66
f 26 14 13
f 26 16 14
f 5 4 3
f 1 4 5
f 7 1 5
f 3 14 15
f 14 16 15
f 15 5 3
f 16 5 15
f 9 1 8
f 9 10 1
f 28 22 21
f 1 10 11
f 22 12 11
f 10 21 11
f 11 21 22
f 40 44 41
f 41 31 40
f 33 31 41
f 13 12 24
f 24 12 23
f 34 23 33
f 33 41 34
f 34 41 44
f 74 52 51
f 75 52 74
f 29 22 28
f 30 31 22
f 30 29 36
f 22 29 30
f 30 37 38
f 98 118 119
f 119 120 98
f 118 123 109
f 109 119 118
f 120 119 109
f 122 120 109
f 117 123 118
f 118 97 117
f 123 117 124
f 77 71 78
f 78 52 77
f 53 52 78
f 78 79 53
f 102 79 78
f 99 102 78
f 78 71 99
f 98 120 121
f 121 103 98
f 121 120 122
f 122 103 121
f 80 103 104
f 79 103 80
f 54 53 80
f 53 79 80
f 17 5 16
f 1 11 2
f 2 11 12
f 3 1 2
f 2 12 3
f 32 24 23
f 23 34 32
f 45 44 57
f 45 34 44
f 42 60 61
f 108 90 106
f 122 109 106
f 106 109 108
f 31 30 39
f 39 55 56
f 54 55 39
f 40 31 39
f 39 38 54
f 39 30 38
f 39 56 57
f 39 44 40
f 57 44 39
f 92 65 91
f 65 90 91
f 108 109 91
f 91 90 108
f 123 124 110
f 110 109 123
f 92 91 110
f 110 91 109
f 116 112 124
f 116 117 97
f 116 124 117
f 54 80 81
f 81 80 104
f 6 17 18
f 5 17 6
f 18 7 6
f 7 5 6
f 58 61 84
f 42 61 58
f 84 61 88
f 88 90 84
f 88 106 90
f 62 45 57
f 57 56 62
f 124 112 111
f 111 110 124
f 111 112 92
f 92 110 111
f 95 115 112
f 112 115 113
f 92 112 113
f 104 88 89
f 89 88 61
f 107 88 104
f 106 88 107
f 107 104 122
f 122 106 107
f 86 85 60
f 112 116 96
f 96 95 112
f 96 116 97
f 70 95 96
f 96 97 70
f 92 113 114
f 82 81 104
f 104 89 82
f 54 81 82
f 87 61 60
f 87 89 61
f 60 85 87
f 83 55 54
f 54 82 83
f 83 82 89
f 63 62 83
f 83 85 63
f 56 55 83
f 83 62 56
f 59 60 42
f 59 86 60
f 85 86 59
f 63 85 59
f 93 114 94
f 92 114 93
f 94 65 93
f 93 65 92
f 89 87 105
f 105 83 89
f 105 87 85
f 85 83 105
f 42 32 43
f 43 59 42
f 43 32 34
f 34 45 43
f 45 62 43
f 43 62 63
f 63 59 64
f 64 43 63
f 59 43 64
f 1 19 8
f 1 7 19
f 46 65 66
f 66 65 94
f 29 27 35
f 28 21 29
f 72 100 29
f 8 19 29
f 29 73 72
f 35 50 29
f 101 76 29
f 29 19 27
f 29 50 73
f 100 101 29
f 51 36 29
f 29 9 8
f 29 76 75
f 29 74 51
f 10 9 29
f 29 21 10
f 75 74 29
f 30 36 51
f 51 37 30
f 35 27 58
f 58 65 46
f 27 20 58
f 58 46 35
f 58 20 18
f 58 26 13
f 13 24 58
f 84 90 58
f 58 32 42
f 16 26 58
f 18 17 58
f 58 17 16
f 24 32 58
f 58 90 65
f 114 69 68
f 49 69 114
f 68 67 114
f 114 70 49
f 114 66 94
f 67 66 114
f 114 95 70
f 115 95 114
f 114 113 115
