v -0.118657 0.174372 -0.028745
v -0.118641 0.173290 0.038892
v -0.118657 0.173760 0.030836
v -0.118657 0.212277 -0.028745
v -0.017200 0.177320 -0.028745
v 0.006884 0.176070 0.027553
v -0.118641 0.173505 0.052948
v 0.006884 0.175975 0.038892
v -0.118657 0.212277 0.030836
v -0.118641 0.173721 0.053567
v -0.118641 0.178505 0.063312
v -0.118641 0.191491 0.078417
v -0.118641 0.213343 0.030836
v -0.118304 0.212277 -0.028745
v -0.017200 0.190703 -0.028745
v 0.045371 0.205003 0.027553
v 0.040329 0.196200 0.027553
v 0.036187 0.189633 0.027553
v 0.035063 0.187892 0.027553
v 0.029828 0.180567 0.027553
v 0.020933 0.177160 0.027553
v 0.006884 0.176438 0.052938
v 0.020933 0.177156 0.038892
v -0.118641 0.213343 0.078417
v 0.006884 0.179783 0.062336
v -0.106455 0.203599 0.078417
v 0.020933 0.180520 0.061717
v -0.117469 0.213343 0.030836
v 0.045371 0.212822 0.027553
v 0.043219 0.207650 0.048501
v 0.044150 0.205838 0.038892
v 0.040843 0.198812 0.038892
v 0.035641 0.189633 0.038892
v 0.029427 0.180947 0.052938
v 0.029780 0.180610 0.038892
v 0.020933 0.177795 0.052938
v -0.101124 0.213343 0.078417
v 0.028721 0.181708 0.060721
v 0.029668 0.189633 0.061099
v 0.044150 0.212775 0.038892
v 0.043219 0.212092 0.048501
v 0.029459 0.198204 0.060721
f 21 5 20
f 37 29 28
f 28 29 14
f 14 29 15
f 34 38 36
f 37 26 27
f 27 26 12
f 12 25 27
f 36 38 27
f 11 25 12
f 12 3 11
f 7 8 22
f 36 27 22
f 22 27 25
f 40 29 37
f 37 41 40
f 40 41 29
f 42 41 37
f 33 34 18
f 2 8 7
f 2 3 1
f 7 3 2
f 1 5 6
f 6 2 1
f 8 2 6
f 5 21 6
f 21 8 6
f 25 11 10
f 7 22 10
f 10 22 25
f 10 3 7
f 10 11 3
f 32 30 38
f 38 34 32
f 32 33 16
f 32 34 33
f 39 30 41
f 41 42 39
f 38 30 39
f 39 42 37
f 37 27 39
f 39 27 38
f 16 33 17
f 33 18 17
f 17 5 16
f 17 18 5
f 20 5 19
f 5 18 19
f 19 35 20
f 19 18 34
f 34 35 19
f 23 21 20
f 20 35 23
f 23 8 21
f 23 34 36
f 23 35 34
f 36 22 23
f 23 22 8
f 16 30 31
f 31 32 16
f 30 32 31
f 9 24 4
f 4 24 13
f 3 24 9
f 12 24 3
f 9 4 3
f 3 4 1
f 13 24 28
f 28 24 37
f 28 4 13
f 14 4 28
f 1 4 15
f 15 5 1
f 15 4 14
f 16 5 15
f 15 29 16
f 26 24 12
f 37 24 26
f 16 29 30
f 29 41 30
