v -0.246070 0.092908 0.137277
v -0.257124 0.087447 0.137277
v -0.243006 0.051514 0.137277
v -0.243006 0.093388 0.137254
v -0.242990 0.157396 0.047762
v -0.310120 0.085083 0.088855
v -0.263995 0.077609 0.137277
v -0.310655 0.098817 0.074837
v -0.324138 0.099584 0.061895
v -0.320022 0.095080 0.071247
v -0.243006 0.038578 0.137277
v -0.242990 0.122709 0.058704
v -0.242990 0.124977 0.058121
v -0.242990 0.136507 0.054897
v -0.242990 0.147878 0.051661
v -0.242990 0.156885 0.047991
v -0.242990 0.162059 0.039233
v -0.315722 0.101373 0.066742
v -0.272978 0.062022 0.137277
v -0.264713 0.076363 0.137277
v -0.323971 0.085722 0.074895
v -0.282027 0.057359 0.131160
v -0.324380 0.100287 0.058716
v -0.325248 0.096614 0.058716
v -0.325098 0.090737 0.066742
v -0.312249 0.113606 0.048140
v -0.314812 0.115714 0.038913
v -0.321842 0.110635 0.038913
v -0.242990 0.050747 0.020470
v -0.242990 0.049150 0.058704
v -0.249510 -0.000645 0.137277
v -0.246062 -0.091675 0.137266
v -0.244042 -0.051494 0.137266
v -0.244042 -0.091962 0.137243
v -0.244042 -0.158175 0.045030
v -0.244042 -0.161273 0.039221
v -0.244042 -0.162678 0.027822
v -0.244042 -0.162774 0.024849
v -0.244042 -0.162742 0.020482
v -0.242990 0.163529 0.024849
v -0.256080 0.156214 0.024849
v -0.255078 0.155607 0.035094
v -0.281284 0.140468 0.031938
v -0.278404 0.049118 0.137277
v -0.326534 0.077194 0.067017
v -0.324346 0.077194 0.075489
v -0.287320 0.006925 0.137277
v -0.324805 0.101500 0.052953
v -0.327201 0.091216 0.052953
v -0.326325 0.091024 0.058716
v -0.316039 0.117598 0.024849
v -0.323069 0.111753 0.024849
v -0.242990 0.163465 0.020470
v -0.257341 -0.000645 0.020470
v -0.268528 -0.000645 0.137277
v -0.257358 -0.087171 0.137266
v -0.324363 -0.099852 0.062077
v -0.281209 -0.140608 0.031892
v -0.254953 -0.155715 0.034957
v -0.255855 -0.156226 0.024849
v -0.255855 -0.156226 0.020482
v -0.327569 -0.000645 0.020470
v -0.256064 0.156182 0.020470
v -0.258251 0.154937 0.020470
v -0.263093 0.152126 0.020470
v -0.263110 0.152094 0.024849
v -0.274171 0.145418 0.024849
v -0.281810 0.140755 0.024849
v -0.313460 0.119994 0.020470
v -0.324371 0.063140 0.075604
v -0.328020 0.077226 0.052953
v -0.326575 0.035033 0.067017
v -0.324321 0.049118 0.075741
v -0.324321 0.035033 0.075786
v -0.324321 0.006925 0.075809
v -0.324330 -0.000645 0.075775
v -0.324288 -0.063312 0.075626
v -0.324271 -0.077366 0.075512
v -0.287087 -0.007097 0.137266
v -0.278312 -0.051494 0.137266
v -0.274113 -0.063504 0.137266
v -0.268920 -0.072351 0.137266
v -0.265848 -0.077270 0.137266
v -0.265230 -0.078164 0.137266
v -0.264788 -0.078675 0.137266
v -0.325114 0.103608 0.038913
v -0.327652 0.091216 0.038913
v -0.319128 0.115299 0.020470
v -0.323144 0.111881 0.020470
v -0.324346 0.107888 0.020470
v -0.310262 -0.085351 0.089038
v -0.319103 -0.095284 0.071442
v -0.323937 -0.085926 0.074940
v -0.325173 -0.090908 0.066857
v -0.327210 -0.091419 0.052953
v -0.325089 -0.101481 0.052953
v -0.320773 -0.109593 0.038901
v -0.313744 -0.115694 0.038901
v -0.311723 -0.113746 0.048128
v -0.305303 -0.124669 0.024849
v -0.306063 -0.124861 0.020482
v -0.281668 -0.140863 0.024849
v -0.262884 -0.152138 0.024849
v -0.266399 -0.150126 0.020482
v -0.276634 -0.144057 0.020482
v -0.281802 -0.140927 0.020482
v -0.314612 -0.117834 0.020482
v -0.319446 -0.112372 0.020482
v -0.321633 -0.109721 0.020482
v -0.325214 -0.102694 0.020482
v -0.326609 -0.094933 0.020482
v -0.327235 -0.091419 0.020482
v -0.327652 0.002549 0.020470
v -0.284131 0.139573 0.020470
v -0.328278 0.077226 0.038913
v -0.327828 0.035033 0.052953
v -0.326225 -0.077366 0.067005
v -0.326559 0.020979 0.067017
v -0.282019 -0.057946 0.131229
v -0.325173 0.104694 0.024849
v -0.327719 0.091216 0.020470
v -0.325089 0.105301 0.020470
v -0.327343 -0.091419 0.038901
v -0.325273 -0.102535 0.038901
v -0.327302 -0.077366 0.052953
v -0.321575 -0.109689 0.024849
v -0.314553 -0.117611 0.024849
v -0.327460 -0.077366 0.020482
v -0.328178 0.077226 0.020470
v -0.327611 -0.063312 0.020482
v -0.327719 -0.039580 0.020482
v -0.327602 -0.063312 0.024849
v -0.327911 0.006925 0.038913
v -0.327427 -0.077366 0.038901
v -0.327485 -0.077366 0.024849
f 5 1 4
f 2 1 5
f 8 2 5
f 9 2 8
f 124 123 110
f 17 9 5
f 5 9 18
f 18 8 5
f 9 8 18
f 9 17 26
f 26 17 43
f 43 17 42
f 115 71 87
f 71 49 87
f 54 29 39
f 39 62 54
f 36 59 37
f 57 92 93
f 36 37 11
f 11 37 38
f 38 39 11
f 11 29 30
f 11 39 29
f 10 2 9
f 9 21 10
f 25 21 9
f 71 118 72
f 118 76 72
f 95 123 124
f 111 110 123
f 111 62 110
f 27 26 43
f 27 28 9
f 9 26 27
f 63 40 53
f 66 65 114
f 43 42 66
f 9 28 23
f 28 48 23
f 52 48 28
f 5 4 16
f 4 15 16
f 14 15 4
f 106 101 62
f 58 59 36
f 36 57 58
f 36 11 35
f 35 11 34
f 35 57 36
f 3 12 4
f 3 4 1
f 47 21 46
f 93 92 91
f 45 49 71
f 71 72 45
f 46 21 45
f 21 25 45
f 70 47 46
f 46 45 70
f 70 45 72
f 77 76 118
f 118 78 77
f 77 47 76
f 78 47 77
f 117 118 71
f 117 78 118
f 93 78 117
f 94 57 93
f 94 95 57
f 93 117 94
f 94 117 95
f 115 87 121
f 121 129 115
f 28 27 51
f 51 52 28
f 43 69 51
f 51 27 43
f 114 69 68
f 68 69 43
f 65 66 41
f 40 63 41
f 41 17 40
f 41 42 17
f 41 66 42
f 24 48 49
f 24 23 48
f 9 23 24
f 24 25 9
f 90 52 89
f 48 52 86
f 49 48 86
f 86 52 90
f 90 120 86
f 86 87 49
f 86 120 87
f 4 12 13
f 13 14 4
f 124 110 109
f 110 62 109
f 62 108 109
f 61 39 38
f 62 39 61
f 101 106 102
f 102 58 101
f 32 35 34
f 21 47 22
f 49 45 50
f 50 45 25
f 50 24 49
f 25 24 50
f 75 72 76
f 75 70 72
f 76 47 75
f 95 117 125
f 123 95 125
f 87 120 122
f 122 121 87
f 122 120 90
f 133 125 115
f 115 129 131
f 131 130 115
f 129 130 131
f 113 130 129
f 130 113 128
f 67 66 114
f 114 68 67
f 43 66 67
f 67 68 43
f 65 41 64
f 64 41 63
f 88 89 52
f 88 51 69
f 52 51 88
f 124 109 126
f 126 109 108
f 101 127 107
f 62 101 107
f 107 108 62
f 107 126 108
f 127 126 107
f 58 102 103
f 59 58 103
f 31 32 11
f 34 11 33
f 33 32 34
f 11 32 33
f 81 119 93
f 93 91 81
f 44 22 47
f 21 22 6
f 2 10 6
f 6 10 21
f 74 75 47
f 70 75 74
f 116 117 71
f 116 125 117
f 116 71 115
f 115 125 116
f 132 130 123
f 115 130 132
f 132 133 115
f 123 130 135
f 135 128 123
f 130 128 135
f 62 111 112
f 112 113 62
f 112 128 113
f 112 111 123
f 123 128 112
f 124 126 96
f 96 95 124
f 57 95 96
f 99 58 57
f 57 98 99
f 99 98 58
f 101 58 100
f 58 98 100
f 100 127 101
f 100 98 127
f 62 61 104
f 105 102 106
f 105 103 102
f 105 104 103
f 105 106 62
f 62 104 105
f 60 61 38
f 38 37 60
f 60 104 61
f 103 104 60
f 60 37 59
f 59 103 60
f 32 31 55
f 79 78 93
f 79 47 78
f 56 55 47
f 32 55 56
f 56 91 92
f 92 57 56
f 57 35 56
f 35 32 56
f 22 44 19
f 19 6 22
f 47 70 73
f 73 74 47
f 70 74 73
f 134 132 123
f 133 132 134
f 123 125 134
f 125 133 134
f 127 98 97
f 97 126 127
f 97 96 126
f 97 98 57
f 57 96 97
f 80 81 47
f 47 79 80
f 119 81 80
f 93 119 80
f 80 79 93
f 2 6 7
f 47 81 82
f 82 81 91
f 85 56 47
f 47 84 85
f 91 56 85
f 85 84 91
f 6 19 20
f 20 7 6
f 83 84 47
f 47 82 83
f 91 84 83
f 83 82 91
f 30 12 3
f 3 11 30
f 13 29 53
f 13 17 5
f 53 40 13
f 40 17 13
f 13 12 30
f 30 29 13
f 5 16 13
f 13 16 15
f 15 14 13
f 53 29 88
f 90 89 88
f 88 63 53
f 88 29 54
f 54 62 88
f 114 65 88
f 88 69 114
f 88 122 90
f 62 113 88
f 129 121 88
f 65 64 88
f 121 122 88
f 88 113 129
f 88 64 63
f 11 3 20
f 1 2 20
f 20 3 1
f 20 31 11
f 47 55 20
f 20 44 47
f 20 55 31
f 20 19 44
f 2 7 20
