v 0.048195 -0.243497 0.092828
v 0.048195 -0.254732 0.027543
v 0.046429 -0.129815 -0.071802
v 0.046429 -0.129815 -0.058265
v 0.029904 -0.180733 0.027543
v 0.020944 -0.177164 0.027543
v 0.006903 -0.176008 0.027543
v 0.048169 -0.243497 0.092828
v 0.048195 -0.269485 0.092828
v 0.046429 -0.217889 -0.072758
v 0.046429 -0.189787 -0.072742
v 0.046429 -0.175760 -0.072710
v 0.046429 -0.161701 -0.072499
v 0.048195 -0.273467 0.027543
v -0.007151 -0.129815 -0.072353
v -0.011567 -0.129815 -0.035958
v -0.015676 -0.129815 -0.034872
v -0.017186 -0.129815 -0.034483
v 0.004196 -0.176124 0.027543
v 0.046179 -0.243960 0.092828
v -0.009859 -0.176784 0.027543
v -0.017186 -0.177197 0.027543
v 0.047261 -0.270097 0.092828
v 0.048195 -0.269568 0.092795
v 0.046429 -0.231949 -0.072742
v 0.034992 -0.231949 -0.072742
v -0.007151 -0.189787 -0.072596
v 0.006903 -0.260052 -0.072693
v 0.006903 -0.217889 -0.072661
v -0.017186 -0.129815 -0.072337
v 0.048195 -0.273946 0.066986
v 0.046429 -0.274623 -0.045393
v 0.046429 -0.272195 -0.059773
v 0.046429 -0.269287 -0.065058
v 0.046429 -0.266164 -0.068252
v 0.046429 -0.260630 -0.070035
v 0.046429 -0.245992 -0.072548
v -0.017186 -0.266297 0.092828
v 0.032445 -0.278869 0.092828
v 0.029546 -0.282025 0.090023
v 0.048195 -0.273186 0.081042
v 0.034992 -0.245992 -0.072693
v -0.017186 -0.189787 -0.072564
v -0.017186 -0.260052 -0.072629
v 0.020938 -0.260052 -0.072645
v -0.007151 -0.274095 -0.072645
v -0.017186 -0.264083 -0.072629
v 0.048195 -0.273252 0.079826
v 0.031997 -0.283479 0.066986
v 0.031670 -0.283297 -0.045393
v 0.030563 -0.282620 -0.056741
v 0.027645 -0.280885 -0.066128
v 0.045008 -0.268692 -0.067652
v 0.034992 -0.271616 -0.068868
v 0.022154 -0.275350 -0.069856
v 0.034992 -0.260052 -0.071948
v 0.006903 -0.274095 -0.072304
v -0.017186 -0.294036 0.092828
v 0.024464 -0.283446 0.092828
v 0.031229 -0.283000 0.081042
v 0.004144 -0.295027 0.092828
v 0.002609 -0.296646 0.091385
v 0.004919 -0.297819 0.081042
v -0.017186 -0.274095 -0.072531
v -0.007151 -0.288154 -0.070002
v 0.005872 -0.298298 0.066986
v 0.005847 -0.298331 0.052931
v 0.005623 -0.298232 -0.045393
v 0.003389 -0.297010 -0.059449
v 0.000695 -0.295589 -0.066873
v 0.018282 -0.283462 -0.068041
v 0.005988 -0.288154 -0.068884
v -0.017186 -0.293970 -0.045393
v -0.014646 -0.295457 -0.045393
v -0.014703 -0.295473 0.092828
v -0.000931 -0.296514 0.092828
v -0.007734 -0.296646 0.092828
v -0.007151 -0.298100 0.081042
v -0.017186 -0.278126 -0.071769
v -0.007151 -0.295605 -0.066922
v -0.014454 -0.295341 -0.066679
v -0.017186 -0.291706 -0.067798
v -0.017186 -0.288022 -0.069159
v -0.007151 -0.298563 0.066986
v -0.007151 -0.298497 -0.045393
v -0.007151 -0.298579 0.052931
v -0.007151 -0.297274 -0.059449
v -0.017186 -0.293953 -0.059449
v -0.014639 -0.295440 -0.059449
v -0.017186 -0.293821 -0.063955
f 3 4 1
f 20 22 38
f 74 85 86
f 74 58 73
f 16 6 4
f 1 4 5
f 5 6 1
f 4 6 5
f 7 6 18
f 1 6 7
f 22 20 8
f 1 7 8
f 86 85 67
f 18 6 17
f 6 16 17
f 18 22 21
f 22 8 21
f 2 3 1
f 2 11 12
f 2 14 10
f 10 11 2
f 15 12 30
f 68 67 85
f 66 60 63
f 66 63 78
f 88 74 73
f 81 88 90
f 81 90 82
f 19 7 18
f 18 21 19
f 19 8 7
f 19 21 8
f 3 2 13
f 13 2 12
f 13 15 3
f 12 15 13
f 65 81 82
f 52 53 34
f 70 53 52
f 51 68 69
f 70 52 69
f 69 52 51
f 77 78 62
f 62 78 63
f 75 78 77
f 75 74 86
f 58 74 75
f 74 88 89
f 88 81 89
f 85 74 89
f 89 81 85
f 24 9 23
f 23 39 24
f 31 32 14
f 83 65 82
f 80 65 70
f 81 65 80
f 57 37 56
f 33 52 34
f 51 52 33
f 33 32 51
f 33 34 14
f 14 32 33
f 56 37 36
f 36 37 14
f 71 53 70
f 71 54 53
f 50 68 51
f 51 32 50
f 76 62 61
f 77 62 76
f 61 62 40
f 40 41 24
f 24 39 40
f 60 41 40
f 40 63 60
f 40 62 63
f 84 75 86
f 78 75 84
f 66 78 84
f 86 67 84
f 84 67 66
f 49 60 66
f 66 67 49
f 49 41 60
f 67 68 49
f 68 50 49
f 32 31 49
f 49 50 32
f 64 65 79
f 65 83 79
f 70 69 87
f 87 80 70
f 87 68 85
f 87 69 68
f 85 81 87
f 81 80 87
f 46 65 64
f 46 57 65
f 10 14 25
f 14 37 25
f 44 43 27
f 12 11 27
f 27 43 30
f 30 12 27
f 53 54 35
f 54 36 35
f 34 53 35
f 14 34 35
f 35 36 14
f 54 71 72
f 72 57 56
f 72 71 70
f 70 65 72
f 65 57 72
f 61 40 59
f 59 40 39
f 41 49 48
f 48 49 31
f 47 46 64
f 44 28 47
f 28 46 47
f 10 25 26
f 26 25 28
f 26 11 10
f 26 28 11
f 45 46 28
f 37 57 45
f 57 46 45
f 29 27 11
f 44 27 29
f 11 28 29
f 29 28 44
f 55 72 56
f 54 72 55
f 56 36 55
f 55 36 54
f 28 25 42
f 42 45 28
f 42 25 37
f 37 45 42
f 4 3 15
f 15 30 18
f 15 16 4
f 18 17 15
f 15 17 16
f 38 58 59
f 59 23 9
f 59 20 38
f 1 8 59
f 59 8 20
f 59 76 61
f 59 9 1
f 58 75 59
f 59 75 77
f 39 23 59
f 77 76 59
f 1 9 48
f 48 2 1
f 14 2 48
f 48 9 24
f 24 41 48
f 48 31 14
f 47 22 18
f 47 58 38
f 38 22 47
f 18 30 47
f 73 58 47
f 82 90 47
f 47 83 82
f 47 88 73
f 90 88 47
f 64 79 47
f 30 43 47
f 47 43 44
f 47 79 83
