v -0.228827 0.088081 -0.072641
v -0.246051 0.088081 -0.072632
v -0.193469 0.088081 -0.072641
v -0.260110 0.009516 -0.072441
v -0.255758 0.086904 -0.072623
v -0.255758 0.088081 -0.072623
v -0.193469 0.088081 -0.056299
v -0.193469 0.077199 -0.072587
v -0.274156 0.009516 -0.072031
v -0.302261 0.088081 -0.072377
v -0.299082 0.088081 -0.072459
v -0.285023 0.088081 -0.072587
v -0.246051 0.009516 -0.072386
v -0.270977 0.088081 -0.072605
v -0.222655 0.069547 0.020457
v -0.193469 0.061387 0.020457
v -0.310306 0.088081 0.020457
v -0.193469 0.066778 -0.072523
v -0.288202 0.009516 -0.070135
v -0.316306 0.049098 -0.069734
v -0.316306 0.088081 -0.071229
v -0.313128 0.088081 -0.071502
v -0.195394 0.009516 -0.072021
v -0.193469 0.054489 0.020457
v -0.327807 0.088081 0.020457
v -0.193469 0.009516 -0.072003
v -0.290219 0.009516 -0.069761
v -0.323995 0.040193 -0.067200
v -0.324325 0.049098 -0.067564
v -0.325103 0.088081 -0.068339
v -0.257473 0.009516 0.020457
v -0.193469 0.009516 -0.055214
v -0.327846 0.088081 0.010786
v -0.327859 0.086873 0.020457
v -0.300770 0.009516 -0.067391
v -0.302538 0.009516 -0.066990
v -0.315344 0.009516 -0.062633
v -0.317638 0.009516 -0.061084
v -0.325485 0.009516 -0.055770
v -0.326580 0.049098 -0.059470
v -0.327226 0.077199 -0.059470
v -0.327345 0.088081 -0.059470
v -0.327530 0.009516 0.020457
v -0.327859 0.088081 -0.003269
v -0.328189 0.077199 0.020457
v -0.327582 0.009516 -0.045415
v -0.328084 0.077199 -0.045415
v -0.327833 0.088081 -0.045415
v -0.327873 0.088081 -0.017333
v -0.327873 0.088081 -0.034532
f 7 17 15
f 46 43 45
f 45 47 46
f 50 47 45
f 8 4 3
f 8 13 4
f 18 13 8
f 4 10 11
f 11 12 4
f 9 10 4
f 20 21 9
f 30 21 29
f 29 21 20
f 23 18 26
f 23 13 18
f 32 24 31
f 16 7 15
f 3 4 1
f 4 2 1
f 4 12 5
f 5 2 4
f 10 9 22
f 22 9 21
f 30 41 42
f 42 46 47
f 42 41 46
f 39 46 40
f 46 41 40
f 30 29 40
f 40 41 30
f 25 33 34
f 34 33 45
f 49 50 45
f 2 5 6
f 39 40 28
f 28 40 29
f 28 29 20
f 20 9 19
f 47 50 48
f 48 42 47
f 45 33 44
f 44 49 45
f 14 5 12
f 14 6 5
f 37 28 36
f 27 28 20
f 20 19 27
f 39 28 38
f 28 37 38
f 36 28 35
f 28 27 35
f 3 7 16
f 16 8 3
f 26 18 16
f 18 8 16
f 16 32 26
f 24 32 16
f 34 16 15
f 45 43 34
f 15 17 34
f 17 25 34
f 43 31 34
f 31 24 34
f 24 16 34
f 14 7 3
f 14 25 17
f 14 11 10
f 17 7 14
f 10 22 14
f 14 33 25
f 14 21 30
f 50 49 14
f 12 11 14
f 3 1 14
f 30 42 14
f 14 1 2
f 14 22 21
f 14 44 33
f 14 48 50
f 2 6 14
f 42 48 14
f 49 44 14
f 4 13 35
f 43 46 35
f 35 31 43
f 35 23 26
f 35 46 39
f 35 9 4
f 26 32 35
f 13 23 35
f 35 32 31
f 35 19 9
f 39 38 35
f 35 37 36
f 35 27 19
f 35 38 37
