v -0.282472 -0.022855 0.137272
v -0.250622 -0.022855 0.137272
v -0.274178 -0.022855 0.151982
v -0.281764 -0.014677 0.158969
v -0.282854 -0.015891 0.151319
v -0.283416 -0.020632 0.137272
v -0.242980 0.050761 0.020478
v -0.225841 -0.000634 0.070451
v -0.217951 -0.000634 0.066562
v -0.217760 -0.022855 0.146932
v -0.229381 -0.022855 0.208794
v -0.282158 -0.007100 0.159559
v -0.286192 -0.007100 0.151319
v -0.283551 -0.020300 0.137272
v -0.242980 0.067884 0.020478
v -0.236371 0.050518 0.020478
v -0.287080 -0.007100 0.137272
v -0.287316 0.006944 0.137272
v -0.231988 0.050748 0.020478
v -0.222323 0.051668 0.020478
v -0.193485 0.054492 0.020478
v -0.213759 -0.000634 0.068405
v -0.215906 -0.022855 0.149512
v -0.210118 -0.000634 0.070156
v -0.209005 -0.022855 0.208794
v -0.229403 -0.007100 0.208794
v -0.282158 0.006944 0.159559
v -0.286226 0.006944 0.151319
v -0.242980 0.107689 0.043980
v -0.242069 0.068024 0.020478
v -0.278370 0.049087 0.137272
v -0.193485 0.061392 0.020478
v -0.172514 0.046493 0.137272
v -0.211882 -0.022855 0.156499
v -0.210421 -0.022855 0.163835
v -0.208803 -0.022855 0.195154
v -0.172514 0.047311 0.208794
v -0.229403 -0.005835 0.208794
v -0.281764 0.014534 0.158969
v -0.229381 0.006944 0.208794
v -0.229302 0.021013 0.208794
v -0.229212 0.035056 0.208794
v -0.229123 0.049087 0.208794
v -0.229089 0.050352 0.208794
v -0.228695 0.063143 0.208794
v -0.222649 0.069545 0.020478
v -0.226279 0.069954 0.020478
v -0.227425 0.069954 0.020478
v -0.272953 0.062019 0.137272
v -0.264693 0.076382 0.137272
v -0.264018 0.077532 0.137272
v -0.257107 0.087448 0.137272
v -0.242980 0.107689 0.067428
v -0.193485 0.107689 0.068829
v -0.253690 0.071539 0.173292
v -0.172514 0.091422 0.137272
v -0.208814 -0.022855 0.193458
v -0.209005 -0.022855 0.179411
v -0.210152 -0.022855 0.166250
v -0.172514 0.091422 0.208794
v -0.228516 0.064063 0.208794
v -0.226650 0.073443 0.208794
v -0.253173 0.084330 0.158618
v -0.254511 0.085556 0.151319
v -0.246228 0.087512 0.164130
v -0.246037 0.090604 0.151319
v -0.193485 0.107689 0.089087
v -0.231988 0.093415 0.165365
v -0.203903 0.090527 0.208794
v -0.191125 0.091511 0.208794
v -0.189855 0.091601 0.208794
v -0.172514 0.091434 0.148019
v -0.221885 0.080458 0.208794
v -0.251038 0.080918 0.167983
v -0.172514 0.091434 0.151319
v -0.241665 0.086438 0.174656
v -0.214861 0.086809 0.208794
v -0.204892 0.090195 0.208794
f 18 29 15
f 15 7 18
f 31 29 18
f 18 7 17
f 24 21 33
f 33 37 36
f 29 31 49
f 14 17 7
f 8 1 7
f 9 8 7
f 1 8 9
f 9 2 1
f 35 24 33
f 25 36 37
f 50 51 29
f 29 49 50
f 68 53 66
f 77 68 76
f 66 53 52
f 52 53 29
f 29 51 52
f 55 49 31
f 29 54 32
f 32 46 29
f 32 54 56
f 56 54 72
f 7 1 6
f 6 14 7
f 21 24 22
f 22 9 21
f 2 9 10
f 9 22 10
f 10 24 23
f 10 22 24
f 30 15 29
f 29 48 30
f 29 46 47
f 47 48 29
f 23 24 34
f 24 35 34
f 53 68 69
f 51 50 63
f 74 76 63
f 63 50 49
f 49 55 63
f 63 55 74
f 67 60 75
f 16 9 7
f 16 19 9
f 21 9 20
f 9 19 20
f 33 36 57
f 57 58 33
f 59 35 33
f 33 58 59
f 78 68 77
f 78 69 68
f 67 53 71
f 71 60 67
f 64 52 51
f 51 63 64
f 65 63 76
f 65 68 66
f 65 76 68
f 65 64 63
f 66 52 65
f 52 64 65
f 17 14 13
f 18 17 13
f 3 4 1
f 11 4 3
f 74 55 73
f 77 76 73
f 73 76 74
f 53 69 70
f 70 71 53
f 5 13 14
f 4 13 5
f 14 6 5
f 5 6 1
f 1 4 5
f 28 31 18
f 18 13 28
f 39 55 31
f 31 28 39
f 62 73 55
f 55 39 62
f 45 39 27
f 27 39 28
f 61 39 45
f 61 62 39
f 12 4 11
f 12 13 4
f 12 28 13
f 12 27 28
f 45 27 44
f 27 43 44
f 27 40 41
f 26 12 11
f 42 43 27
f 27 41 42
f 38 40 27
f 54 53 67
f 29 53 54
f 32 56 33
f 33 21 32
f 75 37 33
f 33 56 75
f 75 60 37
f 56 72 75
f 75 54 67
f 75 72 54
f 20 32 21
f 7 15 20
f 20 47 46
f 15 30 20
f 46 32 20
f 20 16 7
f 20 30 48
f 48 47 20
f 19 16 20
f 25 11 3
f 23 34 3
f 1 2 3
f 3 10 23
f 36 25 3
f 2 10 3
f 3 57 36
f 3 34 35
f 35 59 3
f 58 57 3
f 3 59 58
f 37 60 38
f 60 71 38
f 38 25 37
f 38 11 25
f 38 78 77
f 69 78 38
f 77 73 38
f 38 70 69
f 71 70 38
f 38 61 45
f 73 62 38
f 62 61 38
f 38 26 11
f 45 44 38
f 38 44 43
f 38 41 40
f 43 42 38
f 38 42 41
f 27 12 38
f 12 26 38
