v -0.139411 -0.150421 0.009950
v -0.141410 -0.150421 0.009950
v -0.118657 -0.174508 0.009950
v -0.118657 -0.120384 -0.034641
v -0.133142 -0.120384 -0.030525
v -0.193469 -0.173124 0.009950
v -0.143826 -0.120384 -0.030695
v -0.193469 -0.120384 -0.057374
v -0.118657 -0.234593 0.009950
v -0.118657 -0.120384 -0.072237
v -0.193469 -0.192046 0.009950
v -0.193469 -0.120384 -0.072431
v -0.131399 -0.227675 0.009950
v -0.118657 -0.235291 -0.059468
v -0.189837 -0.133592 -0.072544
v -0.118657 -0.148565 -0.072464
v -0.119580 -0.147643 -0.072464
v -0.133633 -0.147643 -0.072504
v -0.193469 -0.192057 0.007976
v -0.190591 -0.193700 0.009950
v -0.193469 -0.129969 -0.072520
v -0.119580 -0.234762 -0.059468
v -0.183678 -0.197311 -0.067078
v -0.156810 -0.212082 -0.067749
v -0.129957 -0.226820 -0.068250
v -0.118657 -0.231005 -0.068072
v -0.193469 -0.133592 -0.072553
v -0.147686 -0.147643 -0.072536
v -0.118657 -0.204770 -0.072609
v -0.133633 -0.203847 -0.072641
v -0.193469 -0.192226 -0.034011
v -0.184154 -0.197592 -0.059468
v -0.193469 -0.192271 -0.045413
v -0.193469 -0.192147 -0.059468
v -0.193469 -0.191540 -0.061563
v -0.193469 -0.188064 -0.068986
v -0.119580 -0.229823 -0.069358
v -0.118657 -0.230082 -0.069415
v -0.193469 -0.147643 -0.072601
v -0.161731 -0.189796 -0.072666
v -0.118657 -0.217898 -0.072439
v -0.193469 -0.186162 -0.069528
v -0.188951 -0.189807 -0.069277
v -0.147686 -0.203847 -0.072067
v -0.119580 -0.217898 -0.072423
v -0.118657 -0.219012 -0.072261
v -0.175784 -0.189796 -0.071574
v -0.193469 -0.161694 -0.072617
v -0.189837 -0.175745 -0.072609
v -0.193469 -0.172123 -0.072617
v -0.193469 -0.176015 -0.072027
f 3 4 1
f 2 8 6
f 14 9 13
f 8 2 7
f 5 2 1
f 5 7 2
f 5 1 4
f 36 23 35
f 23 34 35
f 36 37 25
f 43 37 36
f 43 47 37
f 37 47 44
f 12 10 15
f 20 11 19
f 20 19 13
f 31 33 22
f 22 19 31
f 14 13 22
f 13 19 22
f 22 23 14
f 37 38 26
f 14 25 26
f 26 25 37
f 46 38 37
f 14 23 24
f 24 25 14
f 24 23 36
f 36 25 24
f 42 51 47
f 42 43 36
f 47 43 42
f 49 51 50
f 47 51 49
f 49 44 47
f 50 40 49
f 30 29 41
f 41 40 30
f 32 33 34
f 32 22 33
f 32 34 23
f 23 22 32
f 41 46 45
f 44 49 45
f 37 44 45
f 45 46 37
f 45 40 41
f 45 49 40
f 12 15 21
f 15 27 21
f 16 17 10
f 18 15 10
f 10 17 18
f 29 30 18
f 18 16 29
f 17 16 18
f 48 40 50
f 48 39 40
f 28 27 15
f 15 18 28
f 28 39 27
f 40 39 28
f 28 30 40
f 28 18 30
f 4 10 5
f 12 8 5
f 5 10 12
f 8 7 5
f 20 9 3
f 20 2 6
f 3 1 20
f 1 2 20
f 20 13 9
f 6 11 20
f 3 9 16
f 16 4 3
f 16 9 14
f 16 10 4
f 16 46 41
f 14 26 16
f 41 29 16
f 16 26 38
f 38 46 16
f 48 42 36
f 6 8 48
f 48 8 12
f 48 11 6
f 48 33 31
f 31 19 48
f 36 35 48
f 19 11 48
f 48 35 34
f 34 33 48
f 50 51 48
f 51 42 48
f 12 21 48
f 48 21 27
f 27 39 48
