v 0.242822 0.133395 0.094181
v 0.215876 0.133395 0.094181
v 0.242883 0.120252 0.094181
v 0.242938 0.133395 0.081034
v 0.226904 0.133395 0.027516
v 0.223749 0.128604 -0.039770
v 0.193336 -0.039145 -0.072457
v 0.193336 -0.039145 -0.056792
v 0.180818 -0.162221 0.092840
v 0.215796 0.122777 0.094181
v 0.242950 0.064023 0.094181
v 0.243060 0.133395 0.066972
v 0.243060 0.133395 0.027516
v 0.243163 0.128604 -0.039770
v 0.217688 -0.039145 -0.072621
v 0.207587 -0.039145 -0.072555
v 0.193336 -0.105442 -0.072800
v 0.180818 -0.177112 0.027548
v 0.180818 -0.191550 0.092840
v 0.219007 -0.042188 0.094181
v 0.242956 -0.041702 0.094181
v 0.242968 -0.075110 0.092840
v 0.243121 -0.129785 -0.045395
v 0.242944 -0.039145 -0.059458
v 0.240789 -0.039145 -0.068794
v 0.231732 -0.039145 -0.071868
v 0.243017 -0.129785 -0.059458
v 0.217688 -0.077343 -0.072784
v 0.193336 -0.119491 -0.072866
v 0.180818 -0.196665 0.027548
v 0.180818 -0.195402 0.081050
v 0.197785 -0.183457 0.089717
v 0.192653 -0.185011 0.092840
v 0.242956 -0.042188 0.094181
v 0.242962 -0.077376 0.092840
v 0.242895 -0.147622 0.081050
v 0.242858 -0.147622 0.038896
v 0.242846 -0.147622 0.027548
v 0.242449 -0.129785 -0.061959
v 0.240789 -0.129785 -0.068794
v 0.231732 -0.063294 -0.071901
v 0.242468 -0.149694 0.027548
v 0.240862 -0.158272 0.027548
v 0.217688 -0.129785 -0.072784
v 0.203638 -0.105442 -0.072833
v 0.193336 -0.129785 -0.072866
v 0.201399 -0.185464 0.027548
v 0.180818 -0.197053 0.038896
v 0.203638 -0.129785 -0.072833
v 0.231732 -0.129785 -0.071901
v 0.180818 -0.197312 0.066988
v 0.199897 -0.184687 0.081050
v 0.224683 -0.168663 0.088016
v 0.229486 -0.164067 0.092840
v 0.238610 -0.158175 0.092840
v 0.240258 -0.156783 0.092840
v 0.242242 -0.147622 0.092840
v 0.242748 -0.133573 0.092840
v 0.242919 -0.089159 0.092840
v 0.240838 -0.157948 0.081050
v 0.240869 -0.158305 0.066988
v 0.240893 -0.158337 0.052942
v 0.240899 -0.158337 0.038896
v 0.235962 -0.163970 0.027548
v 0.234784 -0.165297 0.027548
v 0.233423 -0.166300 0.027548
v 0.227753 -0.170411 0.027548
v 0.201429 -0.185529 0.038896
v 0.180818 -0.197215 0.052942
v 0.201429 -0.185529 0.066988
v 0.226721 -0.169829 0.078647
v 0.231537 -0.165718 0.082407
v 0.234771 -0.165329 0.066988
v 0.234784 -0.165329 0.052942
v 0.234784 -0.165329 0.038896
v 0.227753 -0.170411 0.052942
v 0.227740 -0.170379 0.066988
f 9 7 18
f 19 31 32
f 8 7 9
f 9 2 8
f 8 2 7
f 7 2 6
f 72 53 71
f 55 53 72
f 20 19 34
f 58 34 57
f 14 13 12
f 5 6 2
f 15 26 28
f 14 26 15
f 15 6 14
f 14 24 25
f 25 26 14
f 52 31 51
f 51 71 52
f 52 71 53
f 32 31 52
f 52 53 32
f 57 34 56
f 34 55 56
f 54 55 34
f 32 53 54
f 53 55 54
f 19 20 10
f 9 19 10
f 10 2 9
f 22 12 11
f 11 12 3
f 7 6 16
f 6 15 16
f 29 15 28
f 28 26 41
f 26 25 41
f 34 19 33
f 33 54 34
f 33 19 32
f 32 54 33
f 34 58 59
f 34 22 21
f 21 22 11
f 1 3 4
f 4 3 12
f 45 29 28
f 17 16 15
f 15 29 17
f 7 16 17
f 17 29 18
f 17 18 7
f 35 22 34
f 34 59 35
f 44 50 30
f 67 47 40
f 30 50 40
f 40 47 30
f 30 47 48
f 68 47 67
f 72 71 73
f 71 77 73
f 73 55 72
f 73 56 55
f 49 30 46
f 49 44 30
f 39 40 25
f 39 25 24
f 69 48 47
f 69 68 51
f 47 68 69
f 51 68 70
f 70 71 51
f 70 77 71
f 14 12 23
f 12 22 23
f 77 70 76
f 76 73 77
f 27 39 24
f 27 24 14
f 14 23 27
f 38 27 23
f 37 38 23
f 22 35 36
f 36 23 22
f 36 37 23
f 36 35 59
f 36 59 58
f 36 58 57
f 40 64 65
f 39 27 43
f 40 39 43
f 43 64 40
f 67 40 66
f 40 65 66
f 75 65 64
f 75 66 65
f 67 66 75
f 37 36 63
f 64 43 63
f 63 75 64
f 42 63 43
f 27 38 42
f 42 43 27
f 38 37 42
f 37 63 42
f 57 56 60
f 60 36 57
f 56 73 60
f 75 63 74
f 73 76 74
f 36 60 61
f 61 60 73
f 62 63 36
f 36 61 62
f 62 61 73
f 73 74 62
f 62 74 63
f 5 13 14
f 14 6 5
f 29 30 18
f 46 30 29
f 2 10 21
f 1 2 21
f 21 3 1
f 21 20 34
f 21 10 20
f 11 3 21
f 4 2 1
f 4 5 2
f 4 12 13
f 13 5 4
f 41 50 44
f 28 41 44
f 40 50 41
f 40 41 25
f 46 29 49
f 29 45 49
f 28 44 49
f 49 45 28
f 69 19 9
f 9 18 69
f 51 31 69
f 31 19 69
f 18 30 69
f 30 48 69
f 76 70 68
f 76 68 67
f 74 76 67
f 67 75 74
