v -0.101800 -0.007111 0.235660
v -0.102125 -0.021161 0.235660
v -0.102600 -0.021161 0.221581
v -0.103037 -0.021161 0.208795
v -0.102999 -0.007111 0.208795
v -0.102974 0.005675 0.208795
v -0.102974 0.006939 0.208795
v -0.102425 0.006939 0.221581
v -0.101825 -0.000475 0.235660
v -0.101888 -0.007111 0.249692
v -0.102637 -0.030121 0.235660
v -0.102974 -0.030121 0.221581
v -0.103299 -0.030121 0.208795
v -0.102163 -0.007111 0.277819
v -0.102675 -0.021161 0.277819
v -0.103087 0.019725 0.208795
v -0.101863 0.006939 0.235660
v -0.101875 -0.000475 0.243073
v -0.103199 -0.030121 0.277819
v -0.229352 -0.030121 0.208795
v -0.102025 0.006939 0.249692
v -0.102325 -0.000475 0.277819
v -0.102887 0.006939 0.291836
v -0.102750 -0.000475 0.291836
v -0.102637 -0.007111 0.291836
v -0.103062 -0.021161 0.291836
v -0.103349 -0.030121 0.286774
v -0.103112 0.020989 0.208795
v -0.102687 0.020989 0.221581
v -0.102363 0.020989 0.235660
v -0.229377 -0.007111 0.208795
v -0.228928 -0.030121 0.367900
v -0.228940 -0.029418 0.367900
v -0.229152 0.006939 0.367900
v -0.102537 0.020989 0.249692
v -0.102512 0.006939 0.277819
v -0.103799 0.029661 0.291836
v -0.108245 0.029661 0.304015
v -0.107908 0.006939 0.303937
v -0.107870 -0.000475 0.303937
v -0.107845 -0.007111 0.303937
v -0.107995 -0.021161 0.303937
v -0.108182 -0.030121 0.304015
v -0.106384 -0.030121 0.299608
v -0.103499 -0.030121 0.291836
v -0.103437 0.029661 0.208795
v -0.103299 0.029661 0.212937
v -0.102974 0.029661 0.226970
v -0.102837 0.029661 0.235660
v -0.102950 0.029661 0.249692
v -0.229377 -0.000475 0.208795
v -0.140842 -0.030121 0.367900
v -0.229140 0.012732 0.367900
v -0.229365 0.006939 0.208795
v -0.141104 0.029661 0.367900
v -0.229227 0.029661 0.208795
v -0.229115 0.020989 0.367900
v -0.229015 0.029661 0.367900
v -0.229052 0.026782 0.367900
f 20 34 31
f 33 20 32
f 34 20 33
f 30 49 50
f 48 49 30
f 30 21 17
f 58 56 59
f 56 57 59
f 54 57 56
f 1 4 5
f 1 2 3
f 3 4 1
f 13 4 3
f 3 2 13
f 29 28 46
f 29 48 30
f 30 17 29
f 29 17 28
f 10 2 1
f 35 50 37
f 37 36 35
f 35 36 21
f 35 21 30
f 30 50 35
f 1 7 8
f 53 54 34
f 57 54 53
f 31 34 51
f 34 54 51
f 6 7 1
f 1 5 6
f 47 29 46
f 48 29 47
f 2 10 14
f 10 18 14
f 14 17 21
f 14 18 17
f 55 52 40
f 16 8 7
f 28 17 16
f 17 8 16
f 1 8 9
f 9 8 17
f 17 18 9
f 9 10 1
f 9 18 10
f 13 2 12
f 2 11 12
f 21 36 22
f 22 14 21
f 15 19 11
f 15 11 2
f 2 14 15
f 14 22 23
f 23 22 36
f 23 36 37
f 37 38 23
f 39 38 55
f 55 40 39
f 40 25 39
f 25 38 39
f 41 40 52
f 41 25 40
f 25 43 44
f 19 15 27
f 26 44 45
f 25 44 26
f 45 27 26
f 26 27 15
f 14 25 26
f 26 15 14
f 24 25 14
f 14 23 24
f 24 38 25
f 24 23 38
f 52 43 42
f 42 41 52
f 42 43 25
f 25 41 42
f 53 55 58
f 32 52 53
f 53 33 32
f 58 59 53
f 34 33 53
f 53 52 55
f 53 59 57
f 16 56 46
f 46 28 16
f 16 20 31
f 13 20 16
f 16 4 13
f 31 51 16
f 7 6 16
f 16 54 56
f 16 5 4
f 16 51 54
f 16 6 5
f 38 47 46
f 38 56 58
f 58 55 38
f 46 56 38
f 37 50 38
f 38 50 49
f 49 48 38
f 48 47 38
f 27 20 13
f 27 52 32
f 32 20 27
f 45 44 27
f 13 12 27
f 27 12 11
f 11 19 27
f 27 43 52
f 27 44 43
