v -0.017217 0.294109 0.078412
v -0.017217 0.294109 -0.007778
v -0.021991 0.291366 0.078412
v -0.118665 0.228156 0.089773
v -0.118665 0.218858 0.093291
v -0.118665 0.179568 0.104668
v -0.118665 0.139250 0.116091
v -0.118665 0.132352 0.117191
v -0.118665 0.128520 0.117517
v -0.118665 0.119686 0.117982
v -0.017217 0.273274 0.078412
v -0.017217 0.294089 -0.028717
v -0.020653 0.292112 -0.028717
v -0.021991 0.291366 -0.003237
v -0.118665 0.235558 0.066974
v -0.093607 0.250019 0.078412
v -0.118665 0.233259 0.081962
v -0.126389 0.224303 0.087820
v -0.242981 0.107705 0.067393
v -0.126389 0.126180 0.116029
v -0.128152 0.119686 0.116726
v -0.121645 0.119686 0.117765
v -0.120763 0.119686 0.117858
v -0.193473 0.107705 0.089076
v -0.310278 0.088081 0.020477
v -0.309457 0.088081 -0.040357
v -0.118665 0.119686 0.100762
v -0.017217 0.273637 -0.028717
v -0.193443 0.192033 -0.040357
v -0.197031 0.189996 -0.040357
v -0.118665 0.235558 0.010805
v -0.301094 0.129811 -0.040357
v -0.289234 0.137011 0.010805
v -0.258246 0.154942 0.020477
v -0.193473 0.192355 0.038890
v -0.203600 0.186506 0.038890
v -0.184381 0.197579 0.052947
v -0.109116 0.240883 0.078412
v -0.155856 0.211496 0.074801
v -0.199373 0.184550 0.061503
v -0.323141 0.111961 0.020477
v -0.324327 0.107927 0.020477
v -0.325057 0.105325 0.020477
v -0.325970 0.100565 0.020477
v -0.327703 0.091267 0.020477
v -0.327794 0.088081 0.020477
v -0.327825 0.088081 -0.040357
v -0.193443 0.170976 -0.040357
v -0.137823 0.150121 -0.012009
v -0.135785 0.119686 0.024259
v -0.135725 0.119686 0.024460
v -0.131893 0.119686 0.038905
v -0.199829 0.188685 0.020477
v -0.308119 0.125595 -0.040357
v -0.308180 0.125636 -0.031352
v -0.301155 0.129831 -0.031352
v -0.301125 0.129871 -0.017310
v -0.300942 0.129932 -0.003252
v -0.300729 0.129972 0.010805
v -0.284095 0.139633 0.020477
v -0.229661 0.171359 0.038890
v -0.183833 0.197257 0.060991
v -0.227989 0.170411 0.048344
v -0.313441 0.120049 0.020477
v -0.316512 0.117507 0.020477
v -0.317637 0.117064 0.010294
v -0.323233 0.112163 0.014634
v -0.323324 0.112384 0.005257
v -0.324844 0.106616 0.010294
v -0.325301 0.105325 -0.003252
v -0.325392 0.105325 -0.017310
v -0.327733 0.091267 0.010805
v -0.327825 0.088081 0.010805
v -0.327794 0.091267 -0.031352
v -0.327733 0.091267 -0.040357
v -0.316786 0.118092 -0.040357
v -0.317698 0.117386 -0.032530
v -0.316269 0.118677 -0.017310
v -0.308149 0.125595 -0.017310
v -0.307967 0.125434 -0.003252
v -0.307754 0.125252 0.010805
v -0.316269 0.118496 -0.003252
v -0.323354 0.112445 -0.003252
v -0.324936 0.106717 -0.032530
v -0.325148 0.105789 -0.040357
v -0.327794 0.091267 -0.017310
v -0.323385 0.112465 -0.017310
v -0.323354 0.112425 -0.028640
v -0.323293 0.112304 -0.040357
v -0.323293 0.112344 -0.038001
f 1 10 11
f 28 50 49
f 27 11 10
f 28 11 27
f 28 49 48
f 28 27 52
f 51 50 28
f 28 52 51
f 26 52 27
f 10 25 26
f 26 27 10
f 26 51 52
f 50 51 26
f 26 49 50
f 26 48 49
f 18 41 19
f 56 33 32
f 32 55 56
f 12 29 30
f 64 39 63
f 62 39 38
f 62 63 39
f 64 63 62
f 38 16 37
f 37 62 38
f 61 62 37
f 33 61 37
f 37 34 33
f 65 66 41
f 65 39 64
f 41 39 65
f 64 81 65
f 65 81 66
f 83 71 68
f 46 19 45
f 19 41 42
f 42 43 19
f 42 68 43
f 5 18 19
f 4 18 5
f 1 4 5
f 40 39 41
f 41 18 40
f 40 18 39
f 38 39 17
f 39 18 17
f 17 18 4
f 17 16 38
f 59 81 64
f 57 55 33
f 33 56 57
f 57 56 55
f 54 55 32
f 54 77 55
f 7 21 8
f 1 7 8
f 20 7 19
f 19 21 20
f 20 21 7
f 24 19 46
f 24 21 19
f 24 22 21
f 24 46 25
f 24 25 10
f 31 14 13
f 13 34 31
f 13 2 12
f 14 2 13
f 33 34 13
f 32 33 13
f 13 30 32
f 12 30 13
f 16 17 3
f 3 4 1
f 3 17 4
f 16 3 15
f 74 86 71
f 71 75 74
f 74 75 47
f 85 75 71
f 41 66 67
f 66 68 67
f 67 42 41
f 68 42 67
f 43 68 69
f 19 43 44
f 44 45 19
f 72 73 46
f 46 45 72
f 86 73 72
f 71 86 72
f 72 45 71
f 19 7 6
f 6 5 19
f 6 7 1
f 1 5 6
f 60 61 33
f 33 59 60
f 60 59 64
f 64 62 60
f 60 62 61
f 87 71 83
f 77 54 76
f 9 8 21
f 21 22 9
f 9 10 1
f 1 8 9
f 23 24 10
f 22 24 23
f 10 9 23
f 23 9 22
f 35 15 31
f 82 68 66
f 66 79 82
f 82 79 68
f 66 81 80
f 80 79 66
f 81 59 80
f 59 79 80
f 83 68 78
f 68 79 78
f 78 79 55
f 78 87 83
f 55 77 78
f 77 87 78
f 58 59 33
f 58 79 59
f 33 55 58
f 55 79 58
f 43 69 70
f 70 44 43
f 70 68 71
f 70 69 68
f 71 45 70
f 45 44 70
f 88 87 77
f 77 76 88
f 89 85 88
f 71 87 88
f 31 34 53
f 53 35 31
f 15 35 36
f 34 37 36
f 36 53 34
f 35 53 36
f 36 37 16
f 16 15 36
f 90 76 89
f 89 88 90
f 90 88 76
f 84 85 71
f 71 88 84
f 84 88 85
f 29 12 28
f 28 48 29
f 25 46 73
f 47 26 73
f 73 26 25
f 2 11 28
f 1 11 2
f 28 12 2
f 1 2 3
f 3 2 14
f 15 3 14
f 15 14 31
f 47 73 74
f 74 73 86
f 32 30 76
f 76 26 47
f 76 29 48
f 48 26 76
f 47 75 76
f 76 30 29
f 76 54 32
f 76 85 89
f 75 85 76
