v -0.118657 0.235453 -0.012020
v -0.118657 0.235453 -0.015169
v -0.119333 0.235078 -0.012020
v -0.118657 0.174474 -0.012020
v -0.118657 0.235323 -0.045412
v -0.188691 0.194988 -0.012020
v -0.118657 0.133302 -0.035092
v -0.137845 0.150108 -0.012020
v -0.193483 0.192218 -0.012020
v -0.118657 0.235193 -0.059215
v -0.131681 0.227663 -0.059464
v -0.157872 0.212515 -0.059464
v -0.288929 0.136822 -0.045418
v -0.301113 0.129811 -0.040368
v -0.118657 0.133302 -0.072524
v -0.138562 0.133302 -0.022786
v -0.193483 0.088105 -0.056309
v -0.142473 0.150108 -0.012020
v -0.309468 0.088105 -0.040368
v -0.193483 0.172627 -0.012020
v -0.308137 0.125598 -0.040368
v -0.316820 0.118097 -0.040368
v -0.323311 0.112298 -0.040368
v -0.325154 0.105791 -0.040368
v -0.327775 0.091279 -0.040368
v -0.327857 0.088105 -0.040368
v -0.118657 0.233520 -0.062590
v -0.129941 0.226624 -0.068234
v -0.156766 0.211866 -0.067723
v -0.183592 0.197080 -0.067022
v -0.281496 0.140630 -0.066731
v -0.184063 0.197354 -0.059464
v -0.281762 0.140789 -0.059470
v -0.301072 0.129782 -0.045418
v -0.193483 0.091279 -0.072673
v -0.193483 0.105315 -0.072720
v -0.118657 0.133417 -0.072524
v -0.193483 0.088105 -0.072655
v -0.308096 0.125570 -0.045418
v -0.316226 0.118544 -0.045418
v -0.323270 0.112211 -0.045418
v -0.325318 0.105186 -0.045418
v -0.327734 0.091279 -0.045418
v -0.327816 0.088105 -0.045418
v -0.118657 0.229884 -0.069399
v -0.119599 0.229625 -0.069339
v -0.201039 0.184918 -0.068472
v -0.298922 0.128498 -0.068365
v -0.227844 0.170175 -0.068080
v -0.254690 0.155417 -0.067504
v -0.307932 0.125324 -0.059470
v -0.300908 0.129667 -0.059470
v -0.288192 0.091279 -0.072655
v -0.302239 0.105315 -0.072702
v -0.161742 0.189607 -0.072542
v -0.133647 0.203658 -0.072506
v -0.119599 0.203658 -0.072388
v -0.118657 0.203658 -0.072376
v -0.246049 0.088105 -0.072631
v -0.316021 0.118299 -0.059470
v -0.323065 0.111836 -0.059470
v -0.325195 0.104825 -0.059470
v -0.327366 0.091279 -0.059470
v -0.327325 0.088105 -0.059470
v -0.118657 0.217723 -0.072340
v -0.119599 0.217723 -0.072334
v -0.147695 0.203658 -0.071978
v -0.175790 0.189607 -0.071473
v -0.274144 0.133432 -0.071270
v -0.259646 0.147685 -0.069565
v -0.217953 0.172901 -0.069227
v -0.303059 0.120275 -0.070106
v -0.313666 0.116178 -0.068573
v -0.270970 0.088105 -0.072613
v -0.285018 0.088105 -0.072595
v -0.302239 0.091279 -0.072566
v -0.256922 0.088105 -0.072625
v -0.316287 0.091279 -0.071443
v -0.317536 0.106426 -0.069791
v -0.288192 0.119381 -0.072542
v -0.260096 0.133432 -0.072595
v -0.189838 0.175570 -0.072494
v -0.324519 0.102473 -0.067848
v -0.325174 0.091279 -0.068460
v -0.325092 0.088105 -0.068347
v -0.246049 0.147468 -0.071823
v -0.299065 0.088105 -0.072465
v -0.302239 0.088105 -0.072382
v -0.313134 0.088105 -0.071514
v -0.316287 0.088105 -0.071235
f 20 9 26
f 19 16 8
f 17 16 19
f 7 16 17
f 8 16 7
f 11 31 12
f 11 5 10
f 12 5 11
f 10 30 11
f 11 30 31
f 9 5 14
f 18 20 26
f 38 35 15
f 15 35 36
f 8 7 4
f 1 2 3
f 2 5 3
f 78 83 79
f 76 78 54
f 36 35 54
f 54 78 79
f 79 72 54
f 54 72 80
f 29 10 28
f 29 30 10
f 36 56 37
f 37 15 36
f 6 5 9
f 6 3 5
f 49 29 28
f 80 72 69
f 79 83 73
f 73 72 79
f 84 63 83
f 84 78 85
f 83 78 84
f 85 64 84
f 84 64 63
f 12 31 32
f 31 33 32
f 52 33 31
f 9 23 24
f 22 23 9
f 85 78 90
f 81 54 80
f 80 82 81
f 70 69 72
f 29 49 50
f 31 30 50
f 30 29 50
f 86 67 80
f 80 69 86
f 72 73 48
f 31 50 48
f 48 70 72
f 48 50 49
f 48 49 28
f 87 88 76
f 76 75 87
f 74 75 53
f 53 54 35
f 76 54 53
f 53 75 76
f 38 59 53
f 53 35 38
f 63 64 44
f 13 32 33
f 12 32 13
f 13 5 12
f 13 14 5
f 26 9 25
f 9 24 25
f 83 63 62
f 9 14 21
f 21 22 9
f 57 37 56
f 56 65 57
f 69 70 46
f 89 90 78
f 89 78 76
f 76 88 89
f 55 81 82
f 54 81 55
f 55 56 36
f 36 54 55
f 23 22 40
f 51 48 73
f 73 60 51
f 51 52 31
f 31 48 51
f 60 40 51
f 74 53 77
f 77 53 59
f 33 52 34
f 34 13 33
f 14 13 34
f 43 62 63
f 63 44 43
f 43 44 26
f 26 25 43
f 42 25 24
f 42 24 23
f 42 43 25
f 62 43 42
f 83 62 61
f 61 73 83
f 61 60 73
f 37 57 58
f 58 57 65
f 67 46 66
f 80 67 66
f 66 82 80
f 66 55 82
f 66 65 56
f 56 55 66
f 28 10 27
f 27 46 28
f 47 48 28
f 28 46 47
f 47 46 48
f 70 48 71
f 71 46 70
f 48 46 71
f 68 46 67
f 69 46 68
f 67 86 68
f 68 86 69
f 39 51 40
f 22 21 39
f 39 40 22
f 52 51 39
f 39 34 52
f 39 21 14
f 14 34 39
f 41 61 62
f 41 42 23
f 62 42 41
f 60 61 41
f 23 40 41
f 41 40 60
f 65 66 45
f 45 66 46
f 46 27 45
f 26 19 18
f 18 19 8
f 17 38 15
f 15 7 17
f 6 4 1
f 6 18 8
f 9 20 6
f 20 18 6
f 8 4 6
f 1 3 6
f 77 38 17
f 77 59 38
f 77 19 26
f 17 19 77
f 77 75 74
f 88 87 77
f 85 90 77
f 77 89 88
f 77 64 85
f 26 44 77
f 77 87 75
f 77 44 64
f 90 89 77
f 10 5 45
f 7 15 45
f 45 2 1
f 45 5 2
f 1 4 45
f 45 4 7
f 15 37 45
f 37 58 45
f 45 58 65
f 45 27 10
