v 0.075105 -0.039167 -0.055223
v 0.082032 -0.040773 -0.055223
v 0.054121 -0.039167 -0.055223
v 0.063246 -0.039167 -0.051660
v 0.054121 -0.039771 -0.006928
v 0.057660 -0.039966 -0.007484
v 0.127463 -0.068147 -0.055223
v 0.054121 -0.076612 -0.055223
v 0.054121 -0.039167 -0.052206
v 0.054121 -0.043790 -0.005916
v 0.054121 -0.049424 -0.004531
v 0.062657 -0.049682 -0.005995
v 0.119314 -0.081687 -0.008298
v 0.127335 -0.083657 -0.009509
v 0.146303 -0.091660 -0.055223
v 0.131581 -0.129761 -0.055223
v 0.138700 -0.129815 -0.017320
v 0.054121 -0.063116 -0.017320
v 0.054121 -0.059123 -0.007534
v 0.143032 -0.129815 -0.009399
v 0.147396 -0.129815 -0.008963
v 0.147203 -0.120835 -0.008968
v 0.142378 -0.108422 -0.008754
v 0.154527 -0.126398 -0.010198
v 0.160907 -0.120870 -0.055223
v 0.134336 -0.129815 -0.055223
v 0.133404 -0.129815 -0.053452
v 0.139805 -0.127623 -0.009722
v 0.155299 -0.129815 -0.009657
v 0.156703 -0.129815 -0.017320
v 0.163652 -0.129815 -0.055223
f 4 5 1
f 17 8 16
f 5 4 9
f 18 8 17
f 15 7 14
f 16 26 27
f 17 16 27
f 6 2 1
f 1 5 6
f 7 2 6
f 14 7 6
f 11 12 6
f 20 11 19
f 20 21 11
f 10 6 5
f 11 6 10
f 13 23 14
f 11 23 13
f 13 12 11
f 14 6 13
f 13 6 12
f 11 21 22
f 22 23 11
f 17 20 28
f 28 20 19
f 19 18 28
f 28 18 17
f 29 22 21
f 23 22 29
f 23 29 24
f 24 15 14
f 14 23 24
f 24 25 15
f 24 29 30
f 24 30 31
f 31 25 24
f 9 1 3
f 9 4 1
f 31 26 25
f 3 1 25
f 25 8 3
f 25 16 8
f 1 2 25
f 25 26 16
f 7 15 25
f 25 2 7
f 3 8 10
f 8 18 10
f 10 9 3
f 5 9 10
f 10 18 19
f 19 11 10
f 29 26 31
f 31 30 29
f 17 27 29
f 29 27 26
f 29 20 17
f 21 20 29
