v -0.244035 -0.108481 0.042729
v -0.244035 -0.066251 0.020478
v -0.231997 -0.065871 0.020478
v -0.193469 -0.063412 0.020478
v -0.193469 -0.108481 0.068741
v -0.244035 -0.108481 0.066260
v -0.244035 -0.051770 0.020478
v -0.193469 -0.053311 0.020478
v -0.193469 -0.108481 0.088854
v -0.218113 -0.108481 0.078060
v -0.231997 -0.093588 0.137277
v -0.244035 -0.091963 0.137254
v -0.226325 -0.000653 0.075430
v -0.225830 -0.000653 0.070433
v -0.217950 -0.000653 0.066546
v -0.231997 -0.051833 0.020478
v -0.244035 -0.038123 0.137277
v -0.226840 -0.000653 0.081044
v -0.213758 -0.000653 0.068387
v -0.210115 -0.000653 0.070147
v -0.193469 -0.052298 0.024846
v -0.193469 -0.093409 0.137254
v -0.203898 -0.094242 0.137277
v -0.244035 -0.051517 0.137277
v -0.226964 -0.026217 0.137277
v -0.225909 -0.000653 0.107022
v -0.226924 -0.000653 0.095097
v -0.193469 -0.047833 0.066797
v -0.209748 -0.000653 0.081044
v -0.193469 -0.060794 0.137277
v -0.217906 -0.000653 0.107331
v -0.222138 -0.000653 0.107217
v -0.226855 -0.026217 0.137277
v -0.193469 -0.047643 0.071828
v -0.210120 -0.000653 0.088636
v -0.193469 -0.048192 0.137254
v -0.200879 -0.046123 0.137277
v -0.214485 -0.000653 0.106039
v -0.217653 -0.026259 0.137277
v -0.210649 -0.000653 0.099041
v -0.210852 -0.000653 0.102460
v -0.209773 -0.032592 0.137277
v -0.215945 -0.027336 0.137277
f 1 4 5
f 1 2 3
f 3 4 1
f 7 17 18
f 13 7 18
f 10 9 11
f 11 6 10
f 12 6 11
f 9 22 23
f 11 9 23
f 20 28 21
f 21 8 20
f 14 7 13
f 14 15 7
f 7 15 16
f 16 15 8
f 20 8 19
f 8 15 19
f 27 18 17
f 24 12 11
f 30 23 22
f 39 31 33
f 31 25 33
f 17 25 26
f 26 27 17
f 36 34 29
f 29 34 28
f 29 28 20
f 38 31 39
f 36 41 42
f 41 38 42
f 32 25 31
f 32 26 25
f 40 41 36
f 37 30 36
f 36 42 37
f 43 38 39
f 43 42 38
f 36 29 35
f 35 40 36
f 10 5 9
f 1 5 10
f 10 6 1
f 16 2 7
f 16 8 4
f 4 3 16
f 16 3 2
f 7 2 24
f 24 2 1
f 24 17 7
f 1 6 24
f 6 12 24
f 30 5 4
f 30 21 28
f 9 5 30
f 30 22 9
f 4 8 30
f 30 34 36
f 28 34 30
f 8 21 30
f 11 23 43
f 39 33 43
f 17 24 43
f 43 25 17
f 43 24 11
f 23 30 43
f 43 33 25
f 30 37 43
f 43 37 42
f 35 14 13
f 13 18 35
f 20 19 35
f 31 38 35
f 15 14 35
f 35 19 15
f 35 29 20
f 18 27 35
f 27 26 35
f 35 32 31
f 35 38 41
f 26 32 35
f 41 40 35
