v -0.097091 0.063138 1.275672
v -0.097105 0.062829 1.275672
v -0.097091 0.063138 0.368104
v -0.097471 0.068555 0.367994
v -0.097681 0.071515 0.208795
v -0.097733 0.072083 1.275672
v -0.136923 0.077191 1.334986
v -0.136923 0.006325 1.335096
v -0.097864 0.055130 1.275672
v -0.097864 0.054645 0.277810
v -0.097864 0.054628 0.235695
v -0.097864 0.054620 0.208795
v -0.097170 0.062369 0.208795
v -0.097105 0.063147 0.208795
v -0.097746 0.072351 0.208795
v -0.097746 0.072351 0.367994
v -0.097759 0.072326 1.247228
v -0.097759 0.072317 1.275672
v -0.136923 0.087307 1.330797
v -0.158444 0.085869 1.325946
v -0.199323 0.085434 1.311503
v -0.160291 0.077191 1.326607
v -0.136923 0.006325 1.316685
v -0.102842 0.029665 0.235695
v -0.102946 0.029665 0.249697
v -0.189827 0.077191 1.315913
v -0.200908 0.006325 1.311834
v -0.102973 0.029665 0.226986
v -0.103300 0.029665 0.212984
v -0.103431 0.029665 0.208795
v -0.101047 0.079373 0.208795
v -0.101034 0.079382 0.277810
v -0.101034 0.079390 0.488716
v -0.101034 0.079390 0.825747
v -0.097759 0.072376 0.783742
v -0.097759 0.072368 0.867862
v -0.097838 0.072501 1.275672
v -0.147703 0.087332 1.327820
v -0.101086 0.079331 1.275672
v -0.108120 0.087390 1.275672
v -0.136923 0.091562 1.317567
v -0.147703 0.091077 1.317567
v -0.189827 0.086989 1.313157
v -0.203947 0.087532 1.304116
v -0.213731 0.086028 1.299706
v -0.218211 0.077175 1.301581
v -0.226057 0.072493 1.298053
v -0.207628 0.077191 1.308857
v -0.200607 0.077191 1.311944
v -0.145031 0.006325 0.367994
v -0.200620 0.063130 1.311944
v -0.207628 0.006325 1.309298
v -0.229227 0.029665 0.208795
v -0.108068 0.087348 0.208795
v -0.108055 0.087357 0.348149
v -0.108055 0.087374 0.643285
v -0.108055 0.087374 0.839748
v -0.108094 0.087390 1.148886
v -0.101034 0.079382 0.881864
v -0.189827 0.090743 1.303565
v -0.108107 0.087390 1.247228
v -0.119594 0.091135 1.275672
v -0.136923 0.091729 1.303565
v -0.161758 0.091729 1.303565
v -0.175786 0.091704 1.303565
v -0.203869 0.090676 1.289453
v -0.215054 0.086914 1.289453
v -0.222075 0.080585 1.289453
v -0.226882 0.063130 1.298935
v -0.217923 0.063130 1.304668
v -0.226620 0.073563 1.289453
v -0.228821 0.063130 1.289453
v -0.207654 0.063130 1.309188
v -0.207628 0.035049 1.309298
v -0.229122 0.006325 0.367994
v -0.217923 0.006325 1.304998
v -0.230733 0.049077 0.432379
v -0.229096 0.049102 0.208795
v -0.230602 0.035049 0.432379
v -0.119594 0.091102 0.208795
v -0.119594 0.091110 0.376262
v -0.119594 0.091135 0.910087
v -0.108081 0.087390 0.966204
v -0.189827 0.091729 1.289453
v -0.133649 0.091712 1.275672
v -0.136923 0.091729 0.618479
v -0.203869 0.090676 1.247228
v -0.203869 0.090642 0.938201
v -0.214937 0.086914 0.938201
v -0.214832 0.086805 0.208795
v -0.221866 0.080468 0.208795
v -0.226633 0.073438 0.208795
v -0.229358 0.049077 1.289453
v -0.227144 0.049077 1.299265
v -0.217923 0.049077 1.304888
v -0.228847 0.063130 0.629283
v -0.228847 0.063130 1.036543
v -0.228834 0.063130 1.275341
v -0.230759 0.049077 0.825967
v -0.230458 0.049077 1.036543
v -0.217923 0.020996 1.304998
v -0.229371 0.006325 1.035881
v -0.230720 0.035049 0.629283
v -0.227144 0.006325 1.299265
v -0.230903 0.049077 0.629283
v -0.228677 0.063147 0.208795
v -0.120865 0.091144 0.208795
v -0.133649 0.091687 0.367994
v -0.133649 0.091712 0.404376
v -0.189827 0.091729 1.261340
v -0.147703 0.091729 0.629283
v -0.189827 0.091612 0.208795
v -0.203882 0.090534 0.208795
v -0.204864 0.090199 0.208795
v -0.228493 0.064075 0.208795
v -0.228834 0.063130 0.432379
v -0.229358 0.006325 1.289453
v -0.230458 0.035049 1.036543
v -0.229371 0.006325 1.275341
v -0.133649 0.091528 0.208795
v -0.133649 0.091570 0.249697
v -0.175786 0.091729 1.050544
f 4 5 1
f 1 3 4
f 4 3 5
f 105 99 98
f 75 102 103
f 1 8 2
f 8 9 2
f 2 3 1
f 3 2 12
f 7 8 1
f 91 92 68
f 90 91 67
f 67 91 68
f 119 103 102
f 5 3 14
f 8 23 24
f 23 50 24
f 20 7 19
f 20 21 7
f 68 92 71
f 45 67 68
f 66 67 45
f 48 49 21
f 39 40 19
f 19 37 39
f 6 7 1
f 1 5 6
f 19 7 18
f 18 37 19
f 7 6 18
f 17 37 18
f 18 6 17
f 79 103 105
f 75 103 79
f 90 67 89
f 118 100 99
f 118 99 105
f 105 103 118
f 118 119 117
f 103 119 118
f 105 116 106
f 3 12 13
f 13 14 3
f 12 24 28
f 28 24 50
f 9 24 10
f 10 2 9
f 25 9 8
f 8 24 25
f 25 24 9
f 7 21 22
f 8 7 22
f 73 48 70
f 49 48 73
f 96 116 105
f 92 116 96
f 96 71 92
f 72 93 69
f 72 71 98
f 100 93 72
f 72 98 99
f 99 100 72
f 47 69 70
f 70 48 47
f 47 48 21
f 47 72 69
f 71 72 47
f 68 71 47
f 47 45 68
f 69 93 94
f 70 69 94
f 5 15 16
f 16 6 5
f 17 6 16
f 75 79 53
f 65 60 42
f 44 45 21
f 66 45 44
f 44 60 66
f 21 20 43
f 43 44 21
f 60 44 43
f 115 116 92
f 115 106 116
f 77 79 105
f 105 106 77
f 77 106 78
f 78 53 77
f 77 53 79
f 30 12 29
f 12 28 29
f 29 50 30
f 29 28 50
f 11 24 12
f 11 10 24
f 11 12 2
f 2 10 11
f 21 49 26
f 26 22 21
f 26 27 8
f 8 22 26
f 98 71 97
f 71 96 97
f 105 98 97
f 97 96 105
f 21 45 46
f 46 47 21
f 45 47 46
f 70 94 95
f 95 73 70
f 59 39 37
f 37 34 59
f 32 15 31
f 35 34 37
f 35 16 34
f 66 60 84
f 60 65 84
f 38 20 19
f 38 43 20
f 19 42 38
f 42 60 38
f 60 43 38
f 112 113 88
f 88 113 89
f 88 89 67
f 90 89 114
f 89 113 114
f 54 32 31
f 51 26 49
f 27 26 51
f 51 52 27
f 49 73 74
f 74 51 49
f 52 51 74
f 101 95 94
f 73 95 101
f 101 74 73
f 15 32 33
f 17 16 36
f 16 35 36
f 36 37 17
f 36 35 37
f 87 67 66
f 87 88 67
f 19 40 41
f 40 62 41
f 41 42 19
f 41 65 42
f 56 33 32
f 110 122 112
f 112 88 110
f 88 87 110
f 55 54 80
f 80 56 55
f 32 54 55
f 55 56 32
f 64 84 65
f 65 41 64
f 63 64 41
f 63 41 62
f 62 85 63
f 58 83 62
f 58 59 34
f 56 83 57
f 57 58 34
f 83 58 57
f 62 83 82
f 82 83 56
f 112 122 111
f 111 109 112
f 111 86 109
f 61 62 40
f 61 58 62
f 59 58 61
f 40 39 61
f 39 59 61
f 112 109 108
f 108 109 80
f 109 82 81
f 80 109 81
f 81 56 80
f 81 82 56
f 121 120 112
f 112 108 121
f 120 121 107
f 107 108 80
f 107 121 108
f 118 93 100
f 117 93 118
f 117 104 94
f 94 93 117
f 53 50 75
f 30 50 53
f 52 23 8
f 75 50 52
f 52 102 75
f 52 104 117
f 52 50 23
f 117 119 52
f 52 119 102
f 76 104 52
f 8 27 52
f 101 104 76
f 101 94 104
f 76 52 101
f 52 74 101
f 34 16 33
f 33 16 15
f 110 87 66
f 66 84 110
f 34 33 57
f 33 56 57
f 82 109 85
f 82 85 62
f 85 109 86
f 86 63 85
f 111 110 84
f 122 110 111
f 84 64 111
f 64 63 111
f 63 86 111
f 5 14 107
f 107 13 12
f 107 91 90
f 107 12 30
f 107 15 5
f 92 91 107
f 30 53 107
f 90 114 107
f 31 15 107
f 107 115 92
f 78 106 107
f 14 13 107
f 107 53 78
f 107 113 112
f 107 54 31
f 106 115 107
f 107 114 113
f 80 54 107
f 112 120 107
