v -0.143475 -0.111707 0.009950
v -0.193469 -0.060058 0.014698
v -0.176458 -0.062198 0.009950
v -0.135954 -0.111707 0.009950
v -0.193469 -0.111707 0.068055
v -0.193469 -0.054774 0.014698
v -0.176458 -0.054498 0.009950
v -0.133962 -0.105474 0.009950
v -0.134160 -0.111707 0.017016
v -0.193469 -0.111707 0.087236
v -0.176370 -0.054454 0.009950
v -0.193469 -0.054134 0.016942
v -0.118657 0.000990 0.104373
v -0.131128 -0.091420 0.009950
v -0.118657 -0.111707 0.100397
v -0.189976 -0.111707 0.089654
v -0.193469 -0.093406 0.137252
v -0.161731 -0.052524 0.009950
v -0.193469 -0.052292 0.024843
v -0.147686 -0.051520 0.009950
v -0.160889 -0.052457 0.009950
v -0.118709 0.000990 0.104510
v -0.118657 0.000990 0.137277
v -0.118657 -0.055105 0.085117
v -0.129415 -0.077366 0.009950
v -0.129466 -0.076528 0.009950
v -0.130374 -0.063312 0.009950
v -0.130733 -0.062739 0.009950
v -0.136438 -0.053825 0.009950
v -0.147012 -0.051652 0.009950
v -0.118657 -0.111707 0.119193
v -0.118657 -0.087615 0.084482
v -0.133582 -0.111707 0.116637
v -0.130982 -0.111707 0.117747
v -0.120093 -0.111707 0.119280
v -0.133633 -0.091597 0.137277
v -0.189837 -0.093119 0.137277
v -0.193469 -0.060797 0.137277
v -0.193469 -0.047824 0.066796
v -0.120356 0.000990 0.109147
v -0.119221 0.000990 0.137277
v -0.118657 -0.090494 0.137277
v -0.118657 -0.055635 0.085017
v -0.118657 -0.077124 0.084382
v -0.118657 -0.090781 0.137252
v -0.119580 -0.091067 0.137277
v -0.189851 -0.049203 0.137277
v -0.193469 -0.048188 0.137252
v -0.193469 -0.047648 0.071831
v -0.120225 0.000990 0.131307
v -0.120188 0.000990 0.137252
f 2 1 5
f 3 1 2
f 13 11 6
f 49 40 39
f 39 40 19
f 13 19 22
f 19 40 22
f 49 48 51
f 13 29 30
f 30 20 13
f 18 11 13
f 7 6 11
f 12 19 13
f 13 6 12
f 48 38 47
f 50 40 49
f 49 51 50
f 25 15 14
f 28 29 13
f 13 27 28
f 13 25 26
f 26 27 13
f 10 16 17
f 13 20 21
f 21 18 13
f 48 47 41
f 41 51 48
f 9 4 8
f 8 15 9
f 8 14 15
f 31 45 46
f 37 38 17
f 17 36 37
f 24 25 13
f 24 43 25
f 32 15 25
f 17 34 35
f 35 36 17
f 35 46 36
f 31 46 35
f 17 16 33
f 33 34 17
f 42 46 45
f 25 43 44
f 44 32 25
f 2 6 7
f 7 3 2
f 49 39 10
f 2 5 10
f 19 12 10
f 10 6 2
f 10 48 49
f 17 38 10
f 10 39 19
f 10 38 48
f 10 12 6
f 13 22 41
f 41 23 13
f 41 22 40
f 40 50 41
f 41 50 51
f 1 3 8
f 25 14 8
f 8 4 1
f 8 30 29
f 11 18 8
f 8 7 11
f 29 28 8
f 20 30 8
f 8 26 25
f 3 7 8
f 8 21 20
f 8 28 27
f 27 26 8
f 18 21 8
f 33 5 1
f 1 4 33
f 9 15 33
f 33 4 9
f 33 15 31
f 33 10 5
f 16 10 33
f 31 35 33
f 33 35 34
f 42 47 38
f 23 41 42
f 38 37 42
f 42 41 47
f 36 46 42
f 42 37 36
f 13 23 44
f 15 32 44
f 44 45 31
f 31 15 44
f 44 24 13
f 43 24 44
f 23 42 44
f 44 42 45
