v -0.017186 -0.129815 -0.072351
v 0.161473 -0.129815 -0.072907
v -0.017186 -0.129815 -0.034499
v -0.017186 0.091241 -0.072724
v 0.175464 -0.129815 -0.072907
v -0.017186 0.119348 -0.072724
v 0.147398 0.132657 -0.072778
v 0.193330 -0.129815 -0.057129
v 0.054133 -0.059084 -0.007546
v 0.049064 -0.049244 -0.003669
v 0.023738 -0.057414 -0.009084
v 0.011972 0.051778 -0.009084
v -0.017186 -0.063298 -0.033279
v 0.193330 -0.129815 -0.072873
v 0.148119 0.132657 -0.072778
v 0.162173 0.132657 -0.072771
v 0.189580 -0.119512 -0.072880
v 0.193330 -0.119512 -0.072873
v -0.017186 0.132657 -0.072609
v 0.035031 0.132657 -0.072724
v 0.193330 -0.039121 -0.056811
v 0.156506 0.132657 -0.017888
v 0.140742 0.111563 -0.010080
v 0.054133 -0.049398 -0.004543
v 0.140742 0.114595 -0.010080
v 0.049105 0.049080 -0.004143
v 0.011972 0.057584 -0.009084
v -0.017186 -0.060163 -0.033320
v -0.017166 0.063108 -0.034018
v -0.017166 0.132657 -0.034676
v 0.168561 0.132657 -0.072643
v 0.168561 0.126259 -0.072677
v 0.193330 -0.105433 -0.072832
v -0.017186 0.132657 -0.051551
v 0.193330 -0.039121 -0.072453
v 0.168561 0.132657 -0.054561
v 0.156774 0.132657 -0.018328
v 0.147625 0.132657 -0.017149
v 0.139877 0.114595 -0.010080
v 0.147419 0.132657 -0.017136
v 0.020956 0.058483 -0.008088
f 9 3 8
f 10 3 9
f 11 3 10
f 24 9 8
f 10 9 24
f 1 4 2
f 7 2 6
f 6 2 4
f 30 34 28
f 28 13 30
f 23 25 10
f 10 24 23
f 23 24 8
f 8 22 23
f 23 22 25
f 21 22 8
f 10 25 26
f 26 27 10
f 30 27 41
f 27 26 41
f 30 13 29
f 29 27 30
f 13 27 29
f 12 13 3
f 12 27 13
f 3 11 12
f 12 11 10
f 10 27 12
f 33 31 35
f 20 6 19
f 7 6 20
f 37 21 36
f 22 21 37
f 25 22 38
f 38 40 25
f 30 41 39
f 39 40 30
f 25 40 39
f 39 26 25
f 39 41 26
f 32 16 31
f 31 33 32
f 14 5 18
f 16 32 18
f 18 32 33
f 16 5 15
f 17 5 16
f 16 18 17
f 17 18 5
f 1 3 28
f 28 4 1
f 3 13 28
f 28 34 19
f 19 6 28
f 28 6 4
f 21 31 36
f 35 31 21
f 5 14 8
f 5 3 1
f 8 3 5
f 1 2 5
f 8 14 18
f 18 21 8
f 35 21 18
f 18 33 35
f 15 34 30
f 30 40 15
f 15 38 22
f 19 34 15
f 7 20 15
f 36 31 15
f 15 37 36
f 31 16 15
f 15 20 19
f 22 37 15
f 40 38 15
f 15 5 2
f 15 2 7
