v -0.327918 -0.035224 -0.045426
v -0.327892 -0.035224 -0.040280
v -0.327734 -0.007136 -0.045426
v -0.327892 -0.049287 -0.059472
v -0.327892 -0.049287 -0.045426
v -0.327865 -0.044132 -0.040280
v -0.327510 0.009496 -0.040280
v -0.327549 0.009496 -0.042848
v -0.327576 0.009496 -0.045426
v -0.327576 -0.035224 -0.059472
v -0.325562 -0.049287 -0.068966
v -0.325114 -0.081918 -0.068579
v -0.324983 -0.091419 -0.068455
v -0.326694 -0.091419 -0.059472
v -0.326786 -0.091419 -0.045426
v -0.326799 -0.091419 -0.041181
v -0.327826 -0.049287 -0.040280
v -0.256738 0.009496 -0.040280
v -0.325470 0.009496 -0.055779
v -0.325272 -0.035224 -0.068525
v -0.325365 -0.063331 -0.068807
v -0.316296 -0.035224 -0.071604
v -0.316296 -0.049287 -0.072029
v -0.316296 -0.063331 -0.071867
v -0.316296 -0.077375 -0.071699
v -0.316296 -0.081918 -0.071642
v -0.316296 -0.091419 -0.071518
v -0.325167 -0.077375 -0.068639
v -0.322311 -0.081918 -0.069568
v -0.316296 -0.105483 -0.071147
v -0.324614 -0.105483 -0.068065
v -0.325812 -0.105483 -0.059472
v -0.325931 -0.101236 -0.041181
v -0.326997 -0.081918 -0.040280
v -0.195140 0.000509 -0.052294
v -0.193469 0.002306 -0.053169
v -0.193469 0.009496 -0.055230
v -0.193469 -0.050552 -0.040280
v -0.317639 0.009496 -0.061090
v -0.322956 -0.014602 -0.066198
v -0.324364 -0.023965 -0.067501
v -0.317481 -0.020034 -0.069067
v -0.290196 0.009496 -0.069768
v -0.288195 0.009496 -0.070148
v -0.302252 -0.021180 -0.072019
v -0.302252 -0.035224 -0.072609
v -0.302252 -0.105483 -0.072640
v -0.288195 -0.119527 -0.072399
v -0.302713 -0.120179 -0.069996
v -0.316296 -0.115675 -0.068683
v -0.324009 -0.113305 -0.067342
v -0.324233 -0.113582 -0.059472
v -0.325536 -0.105483 -0.045426
v -0.325338 -0.105819 -0.041181
v -0.306991 -0.081918 -0.040280
v -0.324154 -0.111290 -0.041181
v -0.323732 -0.113029 -0.041181
v -0.322048 -0.114411 -0.041181
v -0.313677 -0.120870 -0.041181
v -0.307451 -0.125295 -0.041181
v -0.300423 -0.129621 -0.041181
v -0.255554 -0.156109 -0.041181
v -0.229572 -0.171397 -0.041181
v -0.203446 -0.186527 -0.041181
v -0.193469 -0.192236 -0.041181
v -0.193469 0.009496 -0.072019
v -0.193469 -0.067973 -0.040280
v -0.315335 0.009496 -0.062634
v -0.302529 0.009496 -0.067000
v -0.300765 0.009496 -0.067402
v -0.274138 0.009496 -0.072038
v -0.274138 0.006928 -0.072184
v -0.260121 0.009496 -0.072447
v -0.260121 0.006928 -0.072485
v -0.274138 -0.007136 -0.072526
v -0.203906 -0.161679 -0.072650
v -0.246064 -0.133571 -0.072666
v -0.260121 -0.133571 -0.072672
v -0.217963 -0.161679 -0.072292
v -0.246064 -0.147615 -0.071784
v -0.288195 -0.131359 -0.069321
v -0.298356 -0.128376 -0.068195
v -0.254422 -0.155417 -0.067361
v -0.281075 -0.140504 -0.064397
v -0.300094 -0.129403 -0.059472
v -0.307122 -0.124920 -0.059472
v -0.316296 -0.118994 -0.059472
v -0.323877 -0.113187 -0.045426
v -0.307385 -0.125255 -0.045426
v -0.300370 -0.129581 -0.045426
v -0.288459 -0.136613 -0.045426
v -0.229546 -0.171377 -0.045426
v -0.203459 -0.186527 -0.045426
v -0.193469 -0.192275 -0.045426
v -0.193469 -0.133571 -0.072555
v -0.246064 0.009496 -0.072390
v -0.193469 -0.147615 -0.072599
v -0.232007 -0.147615 -0.072663
v -0.193469 -0.161679 -0.072618
v -0.193469 -0.172108 -0.072621
v -0.193469 -0.175999 -0.072025
v -0.193469 -0.186152 -0.069530
v -0.217963 -0.173037 -0.069213
v -0.259502 -0.147753 -0.069486
v -0.201050 -0.185145 -0.068487
v -0.227729 -0.170311 -0.068046
v -0.193469 -0.192137 -0.059472
v -0.203301 -0.186429 -0.059472
v -0.229269 -0.171219 -0.059472
v -0.255238 -0.155911 -0.059472
v -0.281285 -0.140662 -0.055033
v -0.193469 -0.188048 -0.068985
v -0.193469 -0.191525 -0.061562
f 78 100 79
f 98 100 78
f 98 76 100
f 78 77 98
f 98 77 76
f 35 38 36
f 35 18 38
f 36 18 35
f 37 18 36
f 48 47 78
f 30 47 48
f 78 79 48
f 95 97 74
f 74 97 76
f 109 111 110
f 101 79 100
f 94 65 64
f 65 34 64
f 64 34 63
f 93 107 94
f 94 64 93
f 93 64 63
f 61 34 60
f 34 59 60
f 60 59 52
f 57 34 56
f 57 56 88
f 61 60 90
f 90 60 89
f 100 76 99
f 76 97 99
f 8 3 7
f 9 3 8
f 27 47 30
f 84 51 83
f 84 109 110
f 110 111 84
f 83 107 84
f 113 105 112
f 61 90 62
f 62 34 61
f 63 34 62
f 79 101 102
f 92 93 63
f 63 62 92
f 111 109 92
f 65 67 55
f 55 34 65
f 34 16 33
f 17 6 5
f 5 16 17
f 17 16 34
f 1 5 2
f 5 6 2
f 2 3 1
f 7 3 2
f 58 59 34
f 34 57 58
f 58 57 88
f 88 52 58
f 52 59 58
f 80 48 79
f 79 102 80
f 50 51 30
f 82 81 105
f 82 50 81
f 83 51 82
f 51 50 82
f 74 73 96
f 96 66 95
f 95 74 96
f 46 73 74
f 78 47 46
f 46 77 78
f 76 77 46
f 45 44 71
f 22 44 45
f 45 46 22
f 42 40 69
f 69 40 68
f 25 24 47
f 25 11 24
f 108 84 107
f 109 84 108
f 108 92 109
f 107 93 108
f 93 92 108
f 52 51 87
f 89 60 87
f 87 60 52
f 89 87 86
f 86 87 51
f 111 90 85
f 85 84 111
f 85 90 89
f 89 86 85
f 51 84 85
f 85 86 51
f 22 11 20
f 13 27 30
f 91 62 90
f 91 92 62
f 91 90 111
f 111 92 91
f 54 33 53
f 53 52 54
f 56 34 54
f 34 33 54
f 88 56 54
f 54 52 88
f 48 80 49
f 49 80 81
f 81 50 49
f 30 48 49
f 49 50 30
f 103 102 112
f 103 80 102
f 112 105 103
f 105 81 103
f 83 82 106
f 106 82 105
f 105 113 106
f 106 113 107
f 106 107 83
f 71 73 72
f 73 46 72
f 72 45 71
f 46 45 72
f 22 46 23
f 23 11 22
f 24 11 23
f 47 24 23
f 23 46 47
f 75 74 76
f 76 46 75
f 75 46 74
f 43 44 22
f 22 42 43
f 39 40 19
f 39 68 40
f 47 27 26
f 26 25 47
f 27 11 26
f 11 25 26
f 19 40 41
f 41 20 19
f 40 42 41
f 41 42 22
f 22 20 41
f 10 9 19
f 19 20 10
f 10 20 11
f 30 51 31
f 31 13 30
f 81 80 104
f 104 103 81
f 80 103 104
f 70 42 69
f 70 43 42
f 4 3 9
f 9 10 4
f 1 3 4
f 4 5 1
f 15 16 4
f 4 16 5
f 4 10 11
f 27 13 29
f 12 4 11
f 13 4 12
f 12 29 13
f 28 29 12
f 32 31 51
f 53 33 32
f 32 52 53
f 32 51 52
f 32 16 15
f 32 33 16
f 21 12 11
f 28 12 21
f 21 29 28
f 21 11 27
f 27 29 21
f 31 32 14
f 13 31 14
f 14 4 13
f 15 4 14
f 14 32 15
f 38 67 102
f 36 38 102
f 102 65 94
f 94 107 102
f 102 37 36
f 102 101 100
f 95 66 102
f 100 99 102
f 102 97 95
f 66 37 102
f 102 113 112
f 102 67 65
f 102 99 97
f 107 113 102
f 2 18 7
f 38 18 2
f 2 67 38
f 2 17 34
f 34 55 2
f 2 55 67
f 6 17 2
f 7 18 70
f 70 37 66
f 70 8 7
f 19 9 70
f 70 73 71
f 18 37 70
f 66 96 70
f 9 8 70
f 71 44 70
f 70 39 19
f 70 96 73
f 69 68 70
f 44 43 70
f 68 39 70
