v -0.193469 0.000990 -0.071980
v -0.118657 0.063154 -0.072508
v -0.118657 0.000990 -0.071760
v -0.193469 0.000990 -0.053164
v -0.193469 0.063154 -0.072497
v -0.118657 0.076273 -0.072627
v -0.118657 0.000990 -0.058210
v -0.147686 0.052379 -0.012020
v -0.156429 0.052910 -0.012020
v -0.170482 0.053765 -0.012020
v -0.183363 0.055021 -0.012020
v -0.184952 0.055656 -0.012020
v -0.193469 0.055112 -0.019223
v -0.193469 0.077193 -0.072598
v -0.189837 0.077193 -0.072604
v -0.147686 0.077193 -0.072621
v -0.119580 0.077193 -0.072633
v -0.118657 0.077193 -0.072633
v -0.118657 0.064307 -0.029826
v -0.129942 0.063931 -0.012020
v -0.132556 0.059955 -0.012020
v -0.136709 0.053972 -0.012020
v -0.184952 0.058103 -0.012020
v -0.193469 0.060214 -0.019223
v -0.193469 0.080819 -0.072621
v -0.193469 0.091245 -0.072675
v -0.147686 0.091245 -0.072693
v -0.119580 0.091245 -0.072699
v -0.118657 0.091245 -0.072699
v -0.118657 0.076157 -0.028833
v -0.128499 0.076494 -0.012020
v -0.129100 0.070459 -0.012020
v -0.143409 0.106384 -0.012020
v -0.141944 0.133296 -0.022789
v -0.193469 0.133296 -0.057223
v -0.193469 0.094871 -0.072687
v -0.193469 0.105297 -0.072717
v -0.175784 0.105297 -0.072722
v -0.133633 0.105297 -0.072728
v -0.118657 0.105297 -0.072728
v -0.118657 0.078255 -0.028833
v -0.118657 0.106229 -0.030895
v -0.118657 0.120281 -0.032155
v -0.130704 0.091245 -0.012020
v -0.135962 0.106384 -0.012020
v -0.138561 0.133296 -0.022789
v -0.193469 0.133296 -0.072455
v -0.193469 0.119361 -0.072657
v -0.147686 0.119361 -0.072681
v -0.119580 0.119361 -0.072693
v -0.118657 0.119361 -0.072693
v -0.118657 0.133296 -0.035085
v -0.133999 0.101476 -0.012020
v -0.189881 0.133296 -0.072461
v -0.147686 0.133296 -0.072503
v -0.119580 0.133296 -0.072526
v -0.118657 0.132493 -0.072538
v -0.118657 0.133296 -0.072526
f 1 2 3
f 4 7 8
f 8 7 22
f 4 12 13
f 23 35 24
f 34 35 23
f 19 20 7
f 9 4 8
f 9 10 4
f 11 12 4
f 4 10 11
f 34 23 33
f 21 22 7
f 7 20 21
f 41 42 31
f 32 19 31
f 20 19 32
f 31 42 43
f 14 15 5
f 14 25 15
f 5 15 6
f 1 5 6
f 6 2 1
f 49 37 48
f 54 48 47
f 54 55 48
f 57 49 48
f 31 19 30
f 30 41 31
f 18 6 17
f 17 25 26
f 28 17 27
f 27 17 26
f 58 57 56
f 48 55 56
f 56 57 48
f 50 57 51
f 49 57 50
f 37 49 50
f 46 45 52
f 44 43 52
f 31 43 44
f 16 6 15
f 16 17 6
f 15 25 16
f 25 17 16
f 36 27 26
f 37 27 36
f 38 27 37
f 28 27 38
f 38 39 28
f 38 50 39
f 37 50 38
f 52 45 53
f 53 44 52
f 4 3 7
f 1 3 4
f 24 13 23
f 23 13 12
f 58 52 29
f 29 3 2
f 7 3 29
f 29 43 42
f 29 19 7
f 2 6 29
f 42 41 29
f 29 30 19
f 40 51 29
f 29 57 58
f 52 43 29
f 29 6 18
f 51 57 29
f 41 30 29
f 18 17 29
f 29 17 28
f 40 29 39
f 39 29 28
f 50 51 40
f 40 39 50
f 47 35 46
f 46 35 34
f 58 56 46
f 46 52 58
f 46 54 47
f 55 54 46
f 46 56 55
f 33 45 46
f 34 33 46
f 36 35 47
f 1 4 36
f 36 5 1
f 47 48 36
f 36 13 24
f 24 35 36
f 26 25 36
f 4 13 36
f 36 14 5
f 48 37 36
f 25 14 36
f 22 21 53
f 8 22 53
f 53 23 12
f 53 9 8
f 12 11 53
f 53 32 31
f 10 9 53
f 53 11 10
f 53 33 23
f 53 21 20
f 20 32 53
f 53 45 33
f 31 44 53
