v -0.096883 -0.063322 0.137284
v -0.097664 -0.072506 0.137284
v -0.097773 -0.054757 0.137284
v -0.097846 -0.055387 1.274772
v -0.097083 -0.063312 1.274772
v -0.097755 -0.072575 1.274772
v -0.101153 -0.079525 0.165431
v -0.101189 -0.079525 0.137284
v -0.101062 -0.079594 1.274772
v -0.101062 -0.079594 1.191153
v -0.101116 -0.079564 0.516799
v -0.103424 -0.037314 0.137284
v -0.103297 -0.030138 0.208824
v -0.102661 -0.030138 0.235681
v -0.136200 0.006325 1.335288
v -0.136200 -0.035237 1.335406
v -0.136200 -0.051548 1.335288
v -0.136200 -0.077399 1.335054
v -0.136200 -0.079909 1.334233
v -0.136200 -0.087400 1.330949
v -0.108184 -0.087390 0.137284
v -0.108093 -0.087351 1.274772
v -0.108093 -0.087351 1.261285
v -0.250589 -0.022863 0.137284
v -0.217722 -0.022863 0.147018
v -0.145030 0.006325 0.367972
v -0.136200 0.006325 1.316993
v -0.148246 0.006325 1.330949
v -0.160291 -0.049255 1.326610
v -0.200607 0.006325 1.311950
v -0.200626 -0.049255 1.311950
v -0.160001 -0.077359 1.326492
v -0.199317 -0.085569 1.311481
v -0.158438 -0.086002 1.326023
v -0.147701 -0.087430 1.327782
v -0.147701 -0.091092 1.317579
v -0.136200 -0.088306 1.328369
v -0.119594 -0.091062 0.137284
v -0.119594 -0.091003 1.274772
v -0.136200 -0.091604 1.317579
v -0.282493 -0.022863 0.137284
v -0.229132 0.006325 0.367972
v -0.200353 -0.077359 1.311833
v -0.207621 0.006325 1.309252
v -0.207639 -0.035237 1.309252
v -0.207639 -0.049255 1.309252
v -0.189815 -0.087105 1.313240
v -0.207384 -0.077359 1.308666
v -0.225916 -0.072339 1.297876
v -0.218086 -0.077162 1.301395
v -0.213525 -0.086101 1.299636
v -0.203950 -0.087597 1.303975
v -0.189815 -0.090747 1.303506
v -0.175789 -0.091702 1.303506
v -0.203878 -0.094242 0.137284
v -0.120212 -0.091043 1.274772
v -0.133638 -0.091702 1.274772
v -0.136200 -0.091722 1.315116
v -0.229368 0.006325 1.289550
v -0.229368 0.006325 1.035875
v -0.278732 -0.049274 0.137284
v -0.228605 -0.063312 1.289550
v -0.229368 -0.049255 1.289550
v -0.217922 -0.049255 1.304913
v -0.217922 0.006325 1.305030
v -0.217922 -0.021189 1.305030
v -0.217922 -0.063312 1.304327
v -0.226770 -0.063312 1.298932
v -0.221846 -0.080352 1.289550
v -0.226389 -0.073343 1.289550
v -0.214833 -0.086967 1.289550
v -0.203878 -0.090629 1.289550
v -0.189815 -0.091702 1.289550
v -0.231985 -0.093582 0.137284
v -0.227243 0.006325 1.298815
v -0.278278 -0.051489 0.137284
v -0.227152 -0.049255 1.299166
v -0.227152 0.006325 1.299166
v -0.265814 -0.077261 0.137284
v -0.265197 -0.078147 0.137284
v -0.257348 -0.087164 0.137284
v -0.274099 -0.063489 0.137284
v -0.268903 -0.072349 0.137284
v -0.246047 -0.091682 0.137284
f 26 25 24
f 15 14 27
f 27 14 26
f 4 14 15
f 4 3 14
f 1 3 4
f 26 14 13
f 14 3 13
f 60 42 41
f 41 59 60
f 71 81 84
f 12 13 3
f 12 24 25
f 12 25 26
f 26 13 12
f 63 59 41
f 55 38 57
f 49 51 50
f 33 50 51
f 48 49 33
f 49 50 33
f 62 63 41
f 59 63 75
f 48 64 67
f 78 75 77
f 77 75 63
f 70 76 82
f 49 62 70
f 70 62 76
f 6 20 9
f 9 2 6
f 6 2 1
f 73 74 55
f 38 21 22
f 9 20 22
f 20 37 22
f 48 33 43
f 43 64 48
f 18 33 34
f 61 62 41
f 76 62 61
f 68 67 64
f 64 77 68
f 68 49 48
f 48 67 68
f 68 62 49
f 63 62 68
f 68 77 63
f 83 70 82
f 69 80 81
f 69 81 71
f 49 70 69
f 71 51 69
f 69 51 49
f 28 16 15
f 28 30 16
f 64 43 46
f 17 18 5
f 18 6 5
f 5 16 17
f 15 16 5
f 5 4 15
f 1 4 5
f 5 6 1
f 20 34 35
f 55 57 58
f 72 84 74
f 74 73 72
f 71 84 72
f 72 51 71
f 8 2 7
f 2 11 7
f 7 21 8
f 7 11 21
f 10 2 9
f 10 11 2
f 21 11 10
f 32 33 18
f 32 43 33
f 32 18 17
f 19 34 20
f 18 34 19
f 20 6 19
f 19 6 18
f 70 83 79
f 80 69 79
f 79 69 70
f 64 46 66
f 66 77 64
f 16 30 31
f 31 46 43
f 54 73 55
f 55 58 54
f 38 22 39
f 52 33 51
f 51 72 52
f 23 22 21
f 21 10 23
f 45 44 65
f 46 31 45
f 30 44 45
f 45 31 30
f 16 31 29
f 17 16 29
f 29 32 17
f 43 32 29
f 29 31 43
f 53 72 73
f 73 54 53
f 53 52 72
f 56 58 57
f 56 39 58
f 56 57 38
f 38 39 56
f 33 52 47
f 52 53 47
f 47 53 35
f 47 34 33
f 47 35 34
f 36 53 54
f 35 53 36
f 36 37 20
f 20 35 36
f 40 54 58
f 40 36 54
f 37 36 40
f 40 22 37
f 40 39 22
f 58 39 40
f 24 42 26
f 41 42 24
f 55 74 79
f 79 84 81
f 24 12 79
f 79 21 38
f 79 3 1
f 79 38 55
f 41 24 79
f 81 80 79
f 74 84 79
f 1 2 79
f 79 12 3
f 82 76 79
f 79 61 41
f 79 2 8
f 8 21 79
f 76 61 79
f 79 83 82
f 15 27 44
f 26 42 44
f 59 75 44
f 44 27 26
f 44 60 59
f 42 60 44
f 44 78 65
f 44 75 78
f 44 28 15
f 30 28 44
f 65 78 66
f 78 77 66
f 23 10 9
f 9 22 23
f 65 66 45
f 45 66 46
