v -0.118657 -0.235264 -0.059468
v -0.118657 -0.235264 -0.057673
v -0.118657 -0.230946 -0.068075
v -0.103123 -0.241481 -0.068540
v -0.085632 -0.253685 -0.067274
v -0.017186 -0.293809 -0.063963
v -0.086238 -0.254030 -0.059468
v -0.118657 -0.235091 -0.045424
v -0.017186 -0.293981 -0.045424
v -0.017186 -0.293924 -0.029705
v -0.105348 -0.242920 -0.045424
v -0.118657 -0.230025 -0.069418
v -0.031916 -0.283159 -0.068346
v -0.058774 -0.268422 -0.067894
v -0.017186 -0.291679 -0.067812
v -0.017186 -0.293924 -0.059468
v -0.118657 -0.234746 -0.029705
v -0.105169 -0.242805 -0.031371
v -0.105149 -0.242747 -0.029705
v -0.017186 0.177257 -0.028745
v -0.118657 0.076113 -0.028831
v -0.118657 -0.218972 -0.072259
v -0.077417 -0.245971 -0.071700
v -0.090777 -0.246086 -0.069422
v -0.019977 -0.287994 -0.068953
v -0.049318 -0.270955 -0.069086
v -0.017186 -0.287994 -0.069185
v -0.017186 0.294116 -0.028745
v -0.118657 0.174321 -0.028745
v -0.049318 -0.260017 -0.072152
v -0.118657 -0.217879 -0.072436
v -0.063432 -0.260478 -0.069801
v -0.021219 -0.274063 -0.072492
v -0.017186 -0.278093 -0.071782
v -0.017186 0.294059 -0.045428
v -0.021934 0.291353 -0.045428
v -0.034062 0.284330 -0.045428
v -0.118657 0.235341 -0.031375
v -0.118359 0.235514 -0.028745
v -0.118657 0.235341 -0.028745
v -0.118657 -0.204753 -0.072604
v -0.105517 -0.217879 -0.072625
v -0.091472 -0.231925 -0.072630
v -0.017186 -0.274063 -0.072539
v -0.017186 0.293943 -0.059472
v -0.060165 0.269075 -0.059472
v -0.112589 0.238795 -0.054345
v -0.118657 0.235283 -0.043465
v -0.118657 0.104378 -0.072724
v -0.063373 -0.245971 -0.072634
v -0.035264 -0.260017 -0.072612
v -0.017186 -0.264047 -0.072630
v -0.017186 0.291641 -0.067842
v -0.085652 0.253532 -0.067287
v -0.112489 0.238737 -0.063713
v -0.118657 0.235226 -0.054780
v -0.118657 0.105299 -0.072724
v -0.035264 0.105299 -0.072729
v -0.017186 0.105299 -0.072729
v -0.017186 0.287841 -0.069259
v -0.020037 0.287784 -0.069005
v -0.031996 0.283063 -0.068372
v -0.058824 0.268269 -0.067920
v -0.103113 0.241270 -0.068544
v -0.118657 0.229872 -0.069401
v -0.118657 0.233499 -0.062594
v -0.118657 0.235168 -0.059214
v -0.118657 0.119345 -0.072694
v -0.091472 0.231714 -0.072535
v -0.017186 0.273910 -0.072513
v -0.035264 0.119345 -0.072729
v -0.017186 0.119345 -0.072729
v -0.021219 0.273910 -0.072458
v -0.049318 0.259864 -0.072113
v -0.077417 0.245818 -0.071657
v -0.049318 0.270859 -0.069104
v -0.090777 0.245933 -0.069422
v -0.118657 0.217668 -0.072341
v -0.105517 0.217668 -0.072470
f 5 6 1
f 1 4 5
f 59 52 58
f 65 55 64
f 20 21 10
f 6 16 7
f 1 6 7
f 7 16 9
f 3 4 1
f 3 12 4
f 34 33 44
f 75 78 65
f 75 74 78
f 66 55 65
f 66 67 55
f 55 67 56
f 56 47 55
f 55 47 46
f 46 45 55
f 47 36 46
f 46 36 45
f 38 40 39
f 28 38 39
f 21 20 29
f 14 15 6
f 6 5 14
f 14 5 4
f 25 33 34
f 70 71 57
f 72 71 70
f 22 23 12
f 38 47 48
f 47 56 48
f 35 36 28
f 45 36 35
f 37 38 28
f 28 36 37
f 37 47 38
f 37 36 47
f 77 75 65
f 77 76 75
f 8 18 17
f 10 18 11
f 18 8 11
f 19 18 10
f 17 18 19
f 21 17 19
f 10 21 19
f 27 25 34
f 15 25 27
f 23 25 26
f 41 42 31
f 49 42 41
f 43 42 49
f 43 44 33
f 43 33 31
f 31 42 43
f 78 74 73
f 60 70 73
f 30 22 31
f 31 33 30
f 23 22 30
f 33 25 30
f 30 25 23
f 65 64 62
f 62 77 65
f 76 77 62
f 45 53 54
f 55 45 54
f 54 64 55
f 2 11 8
f 10 11 2
f 2 9 10
f 1 7 2
f 2 7 9
f 12 23 24
f 4 12 13
f 13 14 4
f 12 24 13
f 13 24 26
f 13 26 25
f 15 14 13
f 13 25 15
f 44 43 50
f 50 43 49
f 50 49 58
f 58 52 50
f 78 79 68
f 78 73 69
f 69 73 70
f 69 79 78
f 69 68 79
f 57 68 69
f 69 70 57
f 61 53 60
f 61 62 53
f 60 73 61
f 61 73 74
f 76 62 61
f 74 75 61
f 75 76 61
f 53 62 63
f 63 54 53
f 63 62 64
f 64 54 63
f 23 26 32
f 32 24 23
f 26 24 32
f 52 44 51
f 51 50 52
f 44 50 51
f 72 59 71
f 71 59 58
f 71 49 57
f 58 49 71
f 29 20 28
f 28 39 29
f 29 39 40
f 72 70 27
f 27 59 72
f 27 16 6
f 10 9 27
f 28 20 27
f 6 15 27
f 34 44 27
f 9 16 27
f 52 59 27
f 27 35 28
f 27 20 10
f 60 53 27
f 27 44 52
f 27 70 60
f 45 35 27
f 27 53 45
f 65 78 68
f 68 40 38
f 68 3 1
f 38 48 68
f 68 41 31
f 21 29 68
f 1 2 68
f 68 66 65
f 31 22 68
f 68 17 21
f 12 3 68
f 57 49 68
f 67 66 68
f 68 56 67
f 68 29 40
f 68 22 12
f 68 48 56
f 68 8 17
f 49 41 68
f 68 2 8
