v -0.326986 -0.081905 -0.041179
v -0.326803 -0.091433 -0.041179
v -0.327235 -0.091433 0.020479
v -0.327393 -0.081905 0.020479
v -0.306274 -0.081905 -0.041179
v -0.325938 -0.101252 -0.041179
v -0.325335 -0.105832 -0.041179
v -0.326619 -0.094986 0.020479
v -0.244044 -0.108500 0.066238
v -0.218114 -0.108500 0.078050
v -0.193482 -0.108500 0.088857
v -0.309604 -0.081905 0.020479
v -0.193482 -0.108500 0.068733
v -0.193482 -0.170600 -0.041179
v -0.324168 -0.111297 -0.041179
v -0.325217 -0.102731 0.020479
v -0.321625 -0.109742 0.020479
v -0.244044 -0.148013 0.051154
v -0.212005 -0.169985 0.060485
v -0.203969 -0.175105 0.062954
v -0.193482 -0.175299 0.068274
v -0.193482 -0.192258 -0.041179
v -0.323748 -0.113037 -0.041179
v -0.323552 -0.112788 -0.035260
v -0.319449 -0.112388 0.020479
v -0.242655 -0.157659 0.047832
v -0.244044 -0.154462 0.048469
v -0.199329 -0.184664 0.061490
v -0.193482 -0.179361 0.066632
v -0.203340 -0.186458 0.038884
v -0.203432 -0.186533 -0.041179
v -0.193482 -0.192107 0.038884
v -0.322057 -0.114419 -0.041179
v -0.307755 -0.125351 0.010792
v -0.314611 -0.117854 0.020479
v -0.227920 -0.170525 0.048291
v -0.201977 -0.186058 0.052949
v -0.193482 -0.191599 0.052949
v -0.193482 -0.187408 0.062738
v -0.193482 -0.191837 0.050314
v -0.229480 -0.171378 0.038884
v -0.255856 -0.156234 0.020479
v -0.255882 -0.156266 -0.003260
v -0.229650 -0.171421 -0.031365
v -0.229559 -0.171389 -0.041179
v -0.313667 -0.120879 -0.041179
v -0.307742 -0.125480 -0.017313
v -0.307781 -0.125470 -0.003260
v -0.300729 -0.130028 0.010792
v -0.303875 -0.126345 0.020479
v -0.306064 -0.124886 0.020479
v -0.281786 -0.140949 0.020479
v -0.276608 -0.144060 0.020479
v -0.289101 -0.137060 0.010792
v -0.282087 -0.141122 0.010792
v -0.255843 -0.156266 -0.017313
v -0.255685 -0.156169 -0.031365
v -0.255541 -0.156115 -0.041179
v -0.307572 -0.125394 -0.031365
v -0.307440 -0.125297 -0.041179
v -0.300715 -0.129823 -0.017313
v -0.300768 -0.129931 -0.003260
v -0.289009 -0.136952 -0.003260
v -0.296822 -0.131767 -0.041179
v -0.300427 -0.129639 -0.041179
f 4 11 12
f 11 5 12
f 13 14 5
f 13 5 11
f 16 17 9
f 24 17 16
f 23 24 16
f 10 21 11
f 9 21 10
f 10 11 4
f 4 9 10
f 35 24 23
f 23 34 35
f 3 9 4
f 3 2 6
f 6 7 3
f 4 1 3
f 1 2 3
f 23 16 15
f 15 16 7
f 61 59 65
f 25 17 24
f 24 35 25
f 8 16 9
f 9 3 8
f 7 16 8
f 8 3 7
f 29 28 39
f 21 28 29
f 26 28 27
f 35 28 26
f 26 25 35
f 26 27 17
f 17 25 26
f 20 21 9
f 20 28 21
f 39 28 38
f 56 45 44
f 32 30 22
f 40 30 32
f 41 30 40
f 40 38 41
f 65 59 60
f 59 46 60
f 49 34 48
f 9 17 18
f 17 27 18
f 31 44 45
f 22 30 31
f 30 44 31
f 57 58 45
f 57 45 56
f 63 57 56
f 58 57 63
f 63 64 58
f 65 64 63
f 63 61 65
f 36 41 38
f 36 28 35
f 52 41 36
f 33 34 23
f 33 48 34
f 47 46 59
f 47 33 46
f 48 33 47
f 59 61 47
f 61 62 47
f 47 62 49
f 49 48 47
f 19 18 27
f 27 28 19
f 28 20 19
f 19 20 9
f 9 18 19
f 43 44 30
f 43 55 44
f 30 41 42
f 41 55 42
f 42 43 30
f 55 43 42
f 53 41 52
f 37 38 28
f 28 36 37
f 37 36 38
f 51 36 35
f 51 35 34
f 54 55 41
f 41 53 54
f 54 52 49
f 54 53 52
f 49 62 54
f 54 63 56
f 54 62 61
f 61 63 54
f 56 44 54
f 44 55 54
f 52 36 50
f 36 51 50
f 49 52 50
f 50 34 49
f 50 51 34
f 12 5 1
f 12 1 4
f 22 14 32
f 11 21 32
f 32 13 11
f 39 38 32
f 14 13 32
f 32 29 39
f 21 29 32
f 32 38 40
f 1 5 33
f 23 15 33
f 33 14 22
f 5 14 33
f 33 2 1
f 6 2 33
f 33 7 6
f 65 60 33
f 33 15 7
f 33 64 65
f 22 31 33
f 45 58 33
f 33 60 46
f 33 31 45
f 58 64 33
