v -0.256729 0.009516 -0.040277
v -0.257203 0.009516 0.008212
v -0.193469 -0.050540 -0.040277
v -0.327516 0.009516 -0.040277
v -0.257426 0.009516 0.018689
v -0.193469 -0.053305 0.020466
v -0.193469 -0.067972 -0.040277
v -0.257466 0.009516 0.020466
v -0.327898 -0.035219 -0.040277
v -0.327701 0.006938 0.020466
v -0.327556 0.009516 -0.003264
v -0.193469 -0.063408 0.020466
v -0.309606 -0.081905 0.020466
v -0.307000 -0.081905 -0.040277
v -0.327543 0.009516 0.020466
v -0.327885 -0.044123 -0.040277
v -0.327714 -0.039586 0.020466
v -0.327714 -0.035219 0.020466
v -0.327385 -0.081905 0.020466
v -0.327003 -0.081905 -0.040277
v -0.327845 -0.049269 -0.040277
v -0.327608 -0.063319 0.020466
v -0.327464 -0.077368 0.020466
v -0.327385 -0.081905 0.020312
v -0.327332 -0.081905 0.010786
f 8 6 3
f 3 1 2
f 5 8 3
f 3 2 5
f 25 21 20
f 15 11 10
f 10 4 9
f 10 11 4
f 16 17 9
f 22 16 21
f 17 16 22
f 13 14 7
f 7 12 13
f 21 25 24
f 9 17 18
f 18 10 9
f 23 22 21
f 23 24 19
f 21 24 23
f 12 7 3
f 3 6 12
f 1 4 5
f 5 11 15
f 15 8 5
f 4 11 5
f 5 2 1
f 16 1 3
f 3 7 16
f 9 4 16
f 16 4 1
f 16 14 20
f 20 21 16
f 7 14 16
f 20 14 24
f 24 25 20
f 24 13 19
f 14 13 24
f 23 8 15
f 6 8 23
f 23 12 6
f 15 10 23
f 23 18 17
f 19 13 23
f 17 22 23
f 23 13 12
f 10 18 23
