v -0.147686 -0.051530 0.009941
v -0.160889 -0.052457 0.009941
v -0.147012 -0.051649 0.009941
v -0.118657 0.000990 -0.058207
v -0.193469 0.000990 -0.053167
v -0.161731 -0.052528 0.009941
v -0.136438 -0.053823 0.009941
v -0.118657 0.000990 -0.071755
v -0.130733 -0.062745 0.009941
v -0.130374 -0.063315 0.009941
v -0.118657 -0.062602 -0.031016
v -0.193469 0.000990 -0.071981
v -0.193469 -0.054667 -0.019258
v -0.176458 -0.054500 0.009941
v -0.176370 -0.054453 0.009941
v -0.118657 -0.120373 -0.072239
v -0.129466 -0.076525 0.009941
v -0.118657 -0.063315 -0.030862
v -0.189002 -0.120373 -0.072416
v -0.193469 -0.120373 -0.072424
v -0.193469 -0.060499 -0.019258
v -0.176458 -0.062198 0.009941
v -0.118657 -0.120373 -0.034644
v -0.129415 -0.077369 0.009941
v -0.118657 -0.076454 -0.029806
v -0.193469 -0.120373 -0.057377
v -0.142120 -0.118092 0.009941
v -0.133142 -0.120373 -0.030524
v -0.118657 -0.105476 -0.031290
v -0.131128 -0.091422 0.009941
v -0.133962 -0.105476 0.009941
v -0.137639 -0.116940 0.009941
v -0.138202 -0.118092 0.009941
v -0.118657 -0.091422 -0.030459
v -0.118657 -0.077369 -0.029798
v -0.143826 -0.120373 -0.030693
f 1 4 5
f 16 12 8
f 19 20 12
f 19 12 16
f 4 1 3
f 3 7 4
f 10 11 4
f 2 1 5
f 5 6 2
f 5 14 15
f 15 6 5
f 13 14 5
f 26 27 22
f 22 21 26
f 4 7 9
f 9 10 4
f 11 10 17
f 23 29 24
f 36 27 26
f 36 28 27
f 24 29 34
f 34 35 24
f 18 17 24
f 11 17 18
f 30 23 24
f 31 23 30
f 28 23 33
f 27 28 33
f 24 35 25
f 25 18 24
f 32 23 31
f 32 33 23
f 8 12 5
f 5 4 8
f 5 12 13
f 13 20 26
f 12 20 13
f 26 21 13
f 22 13 21
f 14 13 22
f 26 20 36
f 36 19 16
f 20 19 36
f 16 23 36
f 36 23 28
f 25 8 4
f 16 8 25
f 25 23 16
f 4 11 25
f 25 34 29
f 29 23 25
f 35 34 25
f 11 18 25
f 32 9 7
f 14 22 32
f 32 3 1
f 1 2 32
f 32 15 14
f 7 3 32
f 24 17 32
f 32 2 6
f 6 15 32
f 32 22 27
f 32 30 24
f 10 9 32
f 32 17 10
f 31 30 32
f 27 33 32
