v 0.034990 0.132673 -0.072729
v 0.046308 0.132673 -0.072712
v -0.017174 0.132673 -0.072597
v 0.006898 0.259877 -0.072696
v 0.020938 0.203696 -0.072712
v 0.034990 0.133436 -0.072729
v 0.046308 0.230033 -0.072712
v 0.046308 0.132673 -0.056991
v -0.017174 0.133436 -0.072597
v -0.017174 0.132673 -0.034663
v -0.017180 0.261501 0.095980
v -0.017180 0.273679 0.027546
v 0.034990 0.230033 -0.072712
v 0.020938 0.217709 -0.072712
v -0.007143 0.273907 -0.072630
v 0.020938 0.259877 -0.072679
v 0.034990 0.245816 -0.072696
v 0.046308 0.234498 -0.072696
v -0.011698 0.132673 -0.036100
v 0.046308 0.255574 0.027463
v 0.045413 0.239483 0.095980
v 0.029844 0.180573 0.027546
v 0.020938 0.177180 0.027546
v -0.017180 0.294122 0.027546
v -0.017174 0.259877 -0.072514
v 0.006898 0.176076 0.027546
v -0.007143 0.176628 0.027546
v -0.017174 0.177050 0.027546
v -0.017180 0.293895 0.095980
v -0.017174 0.273907 -0.072497
v -0.007143 0.287968 -0.070119
v 0.006898 0.273907 -0.072316
v 0.046308 0.248560 -0.072448
v 0.046308 0.245816 -0.072580
v 0.046308 0.269831 0.027546
v 0.045413 0.269734 0.095980
v -0.017180 0.294122 0.081035
v -0.014918 0.295438 0.027546
v -0.017174 0.294090 -0.045398
v -0.017174 0.293976 -0.059451
v -0.017174 0.291670 -0.067824
v -0.017174 0.287871 -0.069244
v -0.014675 0.295291 0.095980
v -0.014713 0.295308 0.095089
v -0.017180 0.293927 0.095089
v 0.006090 0.288001 -0.068947
v -0.014557 0.295210 -0.066750
v -0.007143 0.295519 -0.067031
v 0.000863 0.295486 -0.066949
v 0.034990 0.259877 -0.072018
v 0.046308 0.260446 -0.070103
v 0.046308 0.274183 0.027546
v 0.027314 0.280596 0.095980
v 0.045413 0.270789 0.094610
v -0.014918 0.295438 0.081035
v -0.014912 0.295421 -0.003270
v -0.007143 0.298555 -0.031344
v -0.014887 0.295405 -0.045398
v -0.014825 0.295373 -0.059451
v -0.008261 0.296363 0.095980
v -0.008125 0.296412 0.095815
v -0.007149 0.298344 0.081035
v 0.018321 0.283324 -0.068055
v 0.034990 0.271503 -0.068914
v -0.007143 0.298523 -0.045398
v -0.007143 0.297289 -0.059451
v 0.003529 0.296915 -0.059451
v 0.027687 0.280726 -0.066156
v 0.045090 0.268564 -0.067692
v 0.046308 0.262995 -0.069426
v 0.045413 0.274702 0.081035
v 0.046308 0.274442 -0.003270
v 0.007302 0.291800 0.095980
v 0.030285 0.282301 0.090613
v 0.003485 0.296931 0.091604
v 0.007662 0.291735 0.095815
v -0.007149 0.298474 0.027546
v -0.007143 0.298555 -0.017324
v 0.005729 0.298117 -0.017324
v 0.005723 0.298117 -0.031344
v 0.005704 0.298100 -0.045398
v -0.000051 0.295567 0.095980
v 0.005294 0.297906 0.081035
v 0.005412 0.297987 0.052944
v 0.030540 0.282431 -0.056792
v 0.046308 0.272120 -0.059814
v 0.046308 0.268207 -0.067246
v 0.046308 0.266356 -0.068204
v 0.031429 0.282951 0.081035
v 0.031727 0.283146 -0.003270
v 0.046308 0.274556 -0.045398
v 0.005692 0.298100 -0.003270
v 0.031752 0.283162 -0.017324
v 0.031746 0.283146 -0.045398
v 0.046308 0.272916 -0.055372
f 11 10 28
f 28 21 11
f 83 62 75
f 11 12 3
f 3 10 11
f 27 10 26
f 27 28 10
f 26 21 27
f 21 28 27
f 22 8 21
f 43 44 29
f 43 62 44
f 29 44 45
f 83 75 74
f 60 75 61
f 61 75 62
f 61 43 60
f 62 43 61
f 37 45 55
f 55 45 44
f 44 62 55
f 25 24 30
f 23 21 26
f 23 22 21
f 10 19 23
f 26 10 23
f 19 8 23
f 8 22 23
f 13 7 6
f 13 6 14
f 82 75 60
f 82 73 75
f 54 74 53
f 53 74 75
f 71 74 54
f 54 53 36
f 21 8 20
f 20 35 21
f 57 81 65
f 68 86 87
f 86 68 85
f 77 55 62
f 57 56 38
f 24 25 9
f 73 53 76
f 75 73 76
f 76 53 75
f 83 74 89
f 74 71 89
f 52 71 54
f 54 36 52
f 42 31 30
f 47 31 42
f 30 24 42
f 49 31 48
f 48 31 47
f 66 65 81
f 49 48 66
f 47 65 66
f 66 48 47
f 50 51 33
f 33 32 50
f 34 16 33
f 16 32 33
f 34 18 17
f 17 16 34
f 17 18 7
f 15 9 25
f 15 25 30
f 15 32 16
f 30 31 15
f 31 32 15
f 95 85 91
f 86 85 95
f 55 77 78
f 47 40 59
f 59 65 47
f 39 40 24
f 24 38 39
f 39 38 56
f 39 59 40
f 90 89 71
f 41 40 47
f 47 42 41
f 24 40 41
f 41 42 24
f 49 66 67
f 67 66 81
f 81 85 67
f 67 68 49
f 67 85 68
f 46 31 49
f 46 32 31
f 50 32 46
f 46 64 50
f 7 13 4
f 4 17 7
f 16 17 4
f 4 13 14
f 4 15 16
f 14 5 4
f 1 3 4
f 4 5 1
f 3 9 4
f 9 15 4
f 58 39 56
f 59 39 58
f 58 56 57
f 57 65 58
f 65 59 58
f 89 90 92
f 92 78 77
f 91 85 94
f 94 85 81
f 91 90 72
f 72 90 71
f 71 52 72
f 70 51 50
f 50 64 70
f 87 88 69
f 69 68 87
f 49 68 69
f 88 70 69
f 69 70 64
f 83 89 84
f 89 92 84
f 84 62 83
f 84 77 62
f 84 92 77
f 93 90 91
f 91 94 93
f 63 46 49
f 49 69 63
f 64 46 63
f 63 69 64
f 79 92 90
f 90 93 79
f 78 92 79
f 57 78 79
f 80 93 94
f 80 79 93
f 80 94 81
f 80 81 57
f 57 79 80
f 2 8 3
f 3 1 2
f 3 19 10
f 3 8 19
f 2 1 7
f 1 6 7
f 11 29 24
f 24 12 11
f 24 45 37
f 29 45 24
f 5 6 1
f 14 6 5
f 60 43 36
f 11 21 36
f 36 29 11
f 36 43 29
f 36 82 60
f 73 82 36
f 36 53 73
f 38 24 37
f 37 55 38
f 12 24 9
f 9 3 12
f 52 36 21
f 21 35 52
f 78 38 55
f 57 38 78
f 70 8 2
f 70 18 34
f 70 20 8
f 2 7 70
f 87 86 70
f 70 95 91
f 34 33 70
f 7 18 70
f 35 20 70
f 70 88 87
f 70 52 35
f 70 33 51
f 86 95 70
f 91 72 70
f 70 72 52
