v -0.126840 0.045944 0.137243
v -0.126840 0.068579 0.137260
v -0.126840 0.046466 0.123199
v -0.118622 -0.233225 0.081505
v -0.118622 -0.233109 0.081983
v -0.118622 -0.230091 0.086747
v -0.118622 -0.224577 0.091078
v -0.118622 -0.218947 0.093198
v -0.118622 -0.090739 0.137254
v -0.118622 -0.090449 0.137272
v -0.118622 0.000325 0.137272
v -0.119563 0.091156 0.137260
v -0.126840 0.091330 0.137243
v -0.126840 0.047162 0.109149
v -0.115292 -0.235953 0.081505
v -0.126840 0.047859 0.104938
v -0.126840 0.051689 0.095180
v -0.126840 0.076937 0.083573
v -0.118622 0.191390 0.078423
v -0.102730 -0.241641 0.091096
v -0.116921 -0.229046 0.090255
v -0.086078 -0.241408 0.102980
v -0.108160 -0.087372 0.137272
v -0.043252 -0.268106 0.116632
v -0.034129 -0.273330 0.117052
v -0.028699 -0.281281 0.116332
v -0.021568 -0.274491 0.117081
v -0.021206 -0.259981 0.118470
v -0.112468 0.000325 0.137272
v -0.108015 0.087326 0.137260
v -0.021206 0.259818 0.118423
v -0.021712 0.274212 0.117075
v -0.026744 0.281118 0.116321
v -0.028663 0.281118 0.116321
v -0.034129 0.273167 0.117047
v -0.043288 0.267943 0.116638
v -0.118622 0.228129 0.089811
v -0.126840 0.119653 0.116920
v -0.111997 -0.238274 0.081505
v -0.058746 -0.268513 0.104224
v -0.126840 0.087732 0.083958
v -0.118622 0.233758 0.078423
v -0.017151 0.273225 0.078423
v -0.017151 -0.293934 0.081505
v -0.086222 -0.254003 0.081505
v -0.105047 -0.242917 0.081505
v -0.073697 -0.255628 0.103982
v 0.203602 -0.145179 0.116816
v 0.218119 -0.134268 0.116995
v 0.231730 -0.129393 0.116615
v 0.231730 -0.119526 0.117127
v -0.101137 -0.079479 0.137272
v -0.026491 -0.281281 0.116332
v -0.031414 -0.282848 0.109155
v -0.014508 -0.295269 0.102467
v -0.017151 -0.270080 0.117260
v -0.017151 -0.279540 0.115843
v -0.017151 -0.273040 0.116943
v 0.186950 -0.157136 0.116638
v -0.103744 -0.007046 0.137272
v -0.100992 0.079374 0.137260
v 0.231694 0.119305 0.117168
v 0.231694 0.129462 0.116609
v 0.218408 0.134279 0.117006
v 0.214209 0.142173 0.116528
v 0.189556 0.156508 0.116540
v 0.017964 0.255001 0.116592
v -0.017151 0.272645 0.116926
v -0.007123 0.269104 0.116603
v -0.017368 0.279087 0.115762
v -0.017151 0.279319 0.115583
v -0.008101 0.288722 0.106620
v -0.013422 0.295048 0.102334
v -0.014364 0.295048 0.102334
v -0.031523 0.282743 0.109149
v -0.058854 0.268350 0.104276
v -0.073733 0.255523 0.103982
v -0.102802 0.241478 0.091125
v -0.112178 0.238343 0.084765
v -0.118622 0.233236 0.082000
v -0.126840 0.119653 0.098077
v -0.060013 -0.269209 0.095117
v -0.116016 0.235790 0.078423
v -0.017151 0.294061 0.078423
v 0.242952 -0.077332 0.092847
v 0.242699 -0.133572 0.092847
v 0.242192 -0.147559 0.092847
v 0.240237 -0.156729 0.092847
v 0.238572 -0.158122 0.092847
v 0.229449 -0.164042 0.092847
v 0.049965 -0.268745 0.092847
v 0.024516 -0.283371 0.092847
v 0.004171 -0.294921 0.092847
v -0.000897 -0.296430 0.092847
v -0.007703 -0.296604 0.092847
v -0.014689 -0.295385 0.092847
v -0.017151 -0.293992 0.086061
v -0.017151 -0.294050 0.095117
v 0.213738 -0.142278 0.116511
v 0.238825 -0.126839 0.116246
v 0.223114 -0.139434 0.115981
v 0.239006 -0.119526 0.116401
v 0.239115 -0.105481 0.116522
v 0.231730 -0.105481 0.117248
v -0.097626 -0.072456 0.137272
v -0.013024 -0.295269 0.102467
v -0.007847 -0.289001 0.106799
v -0.014689 -0.295385 0.095111
v 0.000551 -0.267236 0.116252
v -0.007123 -0.269499 0.116620
v 0.006923 -0.284822 0.105341
v -0.007123 -0.276522 0.114737
v 0.107923 -0.208094 0.115555
v 0.178877 -0.166538 0.115710
v 0.098547 -0.210938 0.116217
v 0.091198 -0.213027 0.116574
v -0.097698 -0.054696 0.137272
v -0.097589 0.072351 0.137260
v 0.231694 0.105260 0.117294
v 0.239115 0.105260 0.116522
v 0.238970 0.119305 0.116396
v 0.238789 0.126618 0.116240
v 0.223585 0.139561 0.116056
v 0.196688 0.154477 0.116200
v 0.000406 0.267015 0.116229
v 0.098583 0.210775 0.116223
v -0.017151 0.279029 0.115745
v -0.007123 0.276127 0.114616
v 0.006959 0.284427 0.105030
v -0.004083 0.293945 0.100986
v 0.000008 0.295454 0.095986
v -0.008246 0.296325 0.095986
v -0.014653 0.295222 0.095986
v -0.017151 0.293655 0.099598
v -0.034093 0.284311 0.095117
v -0.060230 0.269104 0.095117
v -0.106712 0.242116 0.080479
v -0.109101 0.240781 0.078423
v -0.021930 0.291333 0.078423
v -0.017151 0.294119 0.081067
v 0.007321 0.291740 0.095986
v 0.027376 0.280480 0.095986
v 0.197484 0.183032 0.094189
v 0.223693 0.167826 0.094189
v 0.230825 0.163357 0.094189
v 0.239622 0.156044 0.094189
v 0.240491 0.152620 0.094189
v 0.241287 0.148325 0.094189
v 0.242880 -0.042160 0.092847
v 0.242952 -0.061023 0.092847
v 0.242989 -0.077332 0.095111
v 0.242699 -0.133572 0.095111
v 0.242084 -0.147559 0.095111
v 0.240129 -0.156555 0.095111
v 0.239187 -0.155162 0.102686
v 0.025421 -0.279540 0.099408
v -0.003648 -0.294282 0.100768
v 0.007140 -0.291786 0.095693
v -0.007847 -0.296197 0.095693
v 0.196326 -0.154408 0.116131
v 0.231730 -0.136416 0.114552
v 0.231730 -0.147559 0.109794
v 0.240020 -0.147559 0.104581
v 0.240346 -0.132295 0.109374
v 0.241070 -0.119526 0.109155
v 0.203602 -0.152202 0.115601
v 0.218119 -0.147211 0.114305
v 0.241215 -0.105481 0.109155
v 0.231730 -0.091377 0.117294
v 0.240201 -0.042160 0.112824
v -0.096865 -0.063286 0.137272
v 0.018145 -0.255164 0.116580
v 0.020824 -0.274491 0.106902
v 0.005945 -0.272750 0.112755
v 0.016045 -0.282268 0.103308
v 0.231730 -0.156903 0.104402
v 0.035051 -0.259981 0.110779
v 0.203602 -0.161605 0.111332
v 0.091198 -0.220050 0.114581
v -0.096865 0.063123 0.137260
v 0.231730 -0.042160 0.117294
v 0.241251 0.105260 0.109155
v 0.241070 0.119305 0.109155
v 0.240382 0.132074 0.109489
v 0.240020 0.144552 0.105036
v 0.238319 0.153896 0.101614
v 0.232852 0.148441 0.108026
v 0.231694 0.136485 0.114742
v 0.218408 0.147106 0.114264
v 0.206064 0.151517 0.115416
v 0.179166 0.166549 0.115647
v 0.009746 0.264403 0.115532
v 0.189556 0.163531 0.114454
v 0.035051 0.259760 0.110457
v 0.020679 0.274212 0.106557
v 0.048083 0.259818 0.105791
v 0.077188 0.243219 0.105768
v 0.105244 0.228129 0.105059
v 0.060283 0.255117 0.104097
v 0.042725 0.267189 0.102444
v 0.015756 0.281873 0.102980
v 0.025132 0.279203 0.100001
v -0.017151 0.293887 0.095117
v -0.021749 0.291333 0.095117
v -0.086512 0.254014 0.081067
v -0.093535 0.249951 0.081067
v -0.093535 0.249951 0.078423
v -0.034093 0.284311 0.078423
v 0.099018 0.239156 0.095986
v 0.069659 0.252505 0.101816
v 0.096484 0.237705 0.100808
v 0.123308 0.222905 0.099558
v 0.194262 0.181175 0.100278
v 0.221015 0.166317 0.099005
v 0.241070 0.148441 0.096205
v 0.242771 0.134279 0.094189
v 0.242808 0.133351 0.094189
v 0.242844 0.120234 0.094189
v 0.242916 0.064052 0.094189
v 0.242916 0.063123 0.095111
v 0.241251 0.063123 0.109155
v 0.042870 -0.267468 0.102634
v 0.133336 -0.203741 0.110439
v 0.242880 0.105260 0.095111
v 0.242844 0.119305 0.095111
v 0.242771 0.133351 0.095111
v 0.211675 0.169103 0.102738
v 0.228979 0.156973 0.104518
v 0.216851 0.161558 0.106280
v 0.189556 0.176067 0.107162
v 0.202263 0.160049 0.112214
v 0.133300 0.203520 0.110307
v 0.107959 0.207989 0.115497
v 0.118856 0.217972 0.106586
v 0.113932 0.225633 0.103026
v 0.175474 0.186573 0.105606
v 0.203602 0.171424 0.104777
v 0.158097 0.198703 0.104120
v 0.140721 0.210775 0.102352
v 0.167473 0.195975 0.101407
v 0.184922 0.183903 0.103458
f 19 4 18
f 95 44 94
f 17 18 4
f 168 152 151
f 82 40 46
f 95 94 159
f 43 44 19
f 37 13 36
f 123 122 188
f 123 188 189
f 9 28 23
f 27 9 26
f 27 28 9
f 182 226 183
f 152 168 165
f 82 46 45
f 19 44 45
f 45 46 19
f 184 122 183
f 183 226 184
f 224 219 218
f 148 149 84
f 218 219 150
f 150 219 151
f 84 149 150
f 18 41 42
f 19 18 42
f 41 81 42
f 30 64 31
f 30 60 61
f 3 4 1
f 3 14 4
f 16 17 4
f 4 14 16
f 35 13 34
f 34 36 35
f 35 36 13
f 10 2 1
f 1 9 10
f 9 23 10
f 38 13 37
f 38 42 81
f 180 119 118
f 61 60 118
f 61 118 62
f 62 118 119
f 62 30 61
f 187 186 228
f 228 189 187
f 187 189 188
f 187 188 122
f 122 186 187
f 26 9 25
f 25 24 26
f 9 24 25
f 22 24 9
f 48 23 28
f 6 7 1
f 39 46 40
f 19 46 39
f 47 20 40
f 47 40 26
f 26 24 47
f 97 45 44
f 82 45 98
f 45 97 98
f 221 168 151
f 151 182 221
f 170 221 182
f 168 221 170
f 152 165 153
f 155 154 153
f 153 154 88
f 180 118 171
f 171 119 180
f 155 91 90
f 90 154 155
f 90 91 44
f 162 155 100
f 106 159 94
f 95 159 106
f 155 111 175
f 225 224 218
f 226 182 225
f 182 224 225
f 151 219 220
f 219 224 220
f 220 182 151
f 220 224 182
f 202 210 142
f 228 186 227
f 147 84 146
f 147 148 84
f 149 148 216
f 185 184 226
f 185 186 122
f 122 184 185
f 146 186 185
f 185 147 146
f 85 150 151
f 37 36 77
f 77 78 37
f 80 38 37
f 42 38 80
f 33 72 73
f 34 13 33
f 71 128 129
f 129 72 71
f 72 33 71
f 130 72 129
f 73 72 130
f 130 131 73
f 78 77 76
f 76 36 34
f 76 77 36
f 2 10 11
f 50 100 51
f 52 23 51
f 51 23 50
f 119 171 181
f 181 171 169
f 63 62 122
f 63 122 123
f 64 30 63
f 30 62 63
f 191 192 123
f 192 191 233
f 66 32 31
f 12 30 31
f 31 32 12
f 13 2 12
f 12 33 13
f 32 33 12
f 2 11 12
f 145 186 146
f 145 144 186
f 146 84 145
f 84 144 145
f 84 142 143
f 143 144 84
f 229 189 228
f 129 128 194
f 8 22 9
f 7 22 8
f 8 9 1
f 1 7 8
f 28 27 56
f 50 23 49
f 23 48 49
f 1 4 5
f 5 6 1
f 20 6 5
f 40 20 15
f 15 39 40
f 20 5 15
f 15 5 4
f 15 4 19
f 19 39 15
f 20 47 21
f 7 6 21
f 21 6 20
f 21 47 24
f 21 22 7
f 24 22 21
f 96 97 44
f 96 44 95
f 95 108 96
f 108 98 96
f 96 98 97
f 100 165 102
f 102 165 168
f 102 51 100
f 120 170 182
f 120 182 183
f 120 62 119
f 119 181 120
f 164 165 100
f 164 153 165
f 87 153 88
f 152 153 87
f 88 44 87
f 44 43 87
f 117 118 60
f 117 171 118
f 88 154 89
f 154 90 89
f 89 44 88
f 89 90 44
f 161 162 100
f 167 162 161
f 176 111 155
f 155 162 176
f 55 40 82
f 82 98 55
f 55 98 108
f 55 108 95
f 95 106 55
f 58 27 57
f 111 112 57
f 157 175 111
f 157 106 94
f 210 202 200
f 141 202 142
f 141 142 84
f 84 131 141
f 131 130 141
f 141 130 202
f 149 216 217
f 218 150 217
f 217 150 149
f 217 225 218
f 226 225 217
f 217 216 226
f 148 147 215
f 147 185 215
f 215 185 226
f 226 216 215
f 215 216 148
f 127 192 128
f 128 71 127
f 201 130 129
f 202 130 201
f 129 200 201
f 201 200 202
f 140 133 84
f 206 207 138
f 60 30 29
f 30 12 29
f 29 12 11
f 52 51 105
f 123 189 190
f 190 191 123
f 31 64 65
f 65 66 31
f 65 63 123
f 64 63 65
f 124 65 123
f 66 65 124
f 234 194 232
f 237 229 228
f 234 229 236
f 236 198 234
f 229 237 236
f 236 237 198
f 234 198 197
f 197 194 234
f 196 194 197
f 129 196 197
f 197 198 129
f 195 196 129
f 129 194 195
f 195 194 196
f 104 105 51
f 171 105 104
f 169 171 104
f 183 122 121
f 121 120 183
f 122 62 121
f 62 120 121
f 170 120 103
f 168 170 103
f 103 102 168
f 169 104 103
f 51 102 103
f 103 104 51
f 155 153 163
f 153 164 163
f 100 155 163
f 163 164 100
f 152 87 86
f 151 152 86
f 86 85 151
f 43 85 86
f 86 87 43
f 26 40 54
f 54 55 26
f 40 55 54
f 53 27 26
f 53 57 27
f 113 57 112
f 176 223 177
f 178 176 162
f 178 223 176
f 178 162 167
f 178 177 223
f 112 177 178
f 92 91 155
f 155 156 92
f 44 91 92
f 155 175 222
f 222 156 155
f 175 156 222
f 106 157 107
f 107 53 106
f 57 53 107
f 111 57 107
f 107 157 111
f 227 213 240
f 144 213 214
f 214 213 227
f 186 144 214
f 214 227 186
f 142 210 211
f 210 240 211
f 211 240 213
f 68 33 32
f 68 69 33
f 70 71 33
f 70 127 71
f 33 69 70
f 70 69 125
f 207 140 208
f 133 140 203
f 135 206 136
f 136 74 135
f 76 74 136
f 205 140 207
f 207 206 205
f 135 140 205
f 205 206 135
f 133 74 132
f 132 131 84
f 84 133 132
f 132 74 73
f 73 131 132
f 34 74 75
f 75 76 34
f 75 74 76
f 126 70 125
f 127 70 126
f 192 127 126
f 123 192 126
f 126 124 123
f 231 232 189
f 230 229 234
f 234 232 230
f 232 231 230
f 189 229 230
f 230 231 189
f 189 232 193
f 193 232 194
f 193 194 128
f 128 192 193
f 192 233 193
f 193 233 191
f 193 190 189
f 191 190 193
f 210 235 239
f 239 240 210
f 227 240 239
f 198 235 199
f 129 198 199
f 199 200 129
f 210 200 199
f 199 235 210
f 241 237 228
f 228 227 241
f 227 239 241
f 241 239 235
f 238 235 198
f 198 237 238
f 238 241 235
f 237 241 238
f 58 57 110
f 167 113 179
f 179 113 112
f 179 178 167
f 112 178 179
f 101 161 100
f 167 161 101
f 101 100 50
f 174 112 111
f 174 177 112
f 93 92 156
f 93 157 94
f 93 94 44
f 44 92 93
f 144 143 209
f 209 143 142
f 142 211 209
f 212 213 144
f 212 211 213
f 144 209 212
f 212 209 211
f 69 68 67
f 32 66 67
f 67 68 32
f 66 124 67
f 124 126 67
f 125 69 67
f 67 126 125
f 139 140 84
f 139 208 140
f 204 140 135
f 204 203 140
f 134 74 133
f 133 203 134
f 203 204 134
f 135 74 134
f 134 204 135
f 76 136 79
f 138 83 79
f 78 76 79
f 79 83 42
f 42 80 79
f 37 78 79
f 79 80 37
f 137 206 138
f 137 136 206
f 138 79 137
f 137 79 136
f 114 113 167
f 57 113 114
f 58 110 116
f 116 110 172
f 173 174 111
f 177 174 173
f 111 176 173
f 176 177 173
f 158 156 175
f 158 93 156
f 175 157 158
f 157 93 158
f 167 101 166
f 166 114 167
f 101 114 166
f 57 114 115
f 115 116 172
f 172 110 115
f 160 114 101
f 160 115 114
f 109 110 57
f 57 115 109
f 109 115 110
f 116 115 59
f 59 56 27
f 59 27 58
f 58 116 59
f 59 48 28
f 28 56 59
f 115 160 99
f 99 59 115
f 99 160 101
f 99 101 50
f 48 59 99
f 50 49 99
f 99 49 48
f 18 17 38
f 38 41 18
f 17 16 38
f 1 2 38
f 38 3 1
f 38 2 13
f 38 81 41
f 14 3 38
f 38 16 14
f 85 43 84
f 84 150 85
f 74 33 73
f 34 33 74
f 105 10 23
f 105 23 52
f 60 29 105
f 105 117 60
f 105 11 10
f 171 117 105
f 105 29 11
f 103 120 181
f 103 181 169
f 53 55 106
f 26 55 53
f 84 43 139
f 139 43 19
f 19 42 139
f 139 83 138
f 138 207 139
f 42 83 139
f 207 208 139
