v 0.168620 -0.039167 -0.072297
v 0.207581 -0.039167 -0.072577
v 0.168620 -0.039167 -0.057053
v 0.168620 -0.014246 -0.072571
v 0.217683 -0.039167 -0.072632
v 0.168620 -0.007098 -0.072639
v 0.226762 -0.039167 -0.039778
v 0.168620 0.149697 -0.039778
v 0.221634 -0.039167 -0.072432
v 0.175529 -0.007098 -0.072671
v 0.168620 -0.000189 -0.072687
v 0.203636 -0.021155 -0.072684
v 0.217683 -0.021155 -0.072716
v 0.243065 -0.039167 -0.039778
v 0.168620 0.204066 -0.039778
v 0.231736 -0.039167 -0.071887
v 0.168620 0.006959 -0.072716
v 0.189583 -0.007098 -0.072710
v 0.175529 0.006959 -0.072726
v 0.203636 -0.007098 -0.072729
v 0.217683 -0.007098 -0.072719
v 0.231736 -0.021155 -0.071910
v 0.243065 -0.039167 -0.045422
v 0.243226 0.133400 -0.045422
v 0.243160 0.127753 -0.039778
v 0.175128 0.200421 -0.039778
v 0.168620 0.204233 -0.045422
v 0.240793 -0.039167 -0.068797
v 0.168620 0.013868 -0.072726
v 0.168620 0.021016 -0.072729
v 0.175529 0.035049 -0.072729
v 0.168620 0.063163 -0.072726
v 0.203636 0.006959 -0.072726
v 0.231736 0.006959 -0.071900
v 0.231736 -0.007098 -0.071906
v 0.203636 0.021016 -0.072719
v 0.217683 0.006959 -0.072710
v 0.231736 0.133400 -0.071839
v 0.240793 0.133400 -0.068797
v 0.242977 -0.039167 -0.055524
v 0.243109 0.133400 -0.059472
v 0.243094 0.147457 -0.045422
v 0.243087 0.141810 -0.039778
v 0.243160 0.133400 -0.039778
v 0.175237 0.200492 -0.045422
v 0.204316 0.183767 -0.039778
v 0.226762 0.169710 -0.056028
v 0.168620 0.201755 -0.059408
v 0.242941 -0.039167 -0.059472
v 0.168620 0.041982 -0.072729
v 0.168620 0.077220 -0.072719
v 0.175529 0.063163 -0.072722
v 0.175529 0.077220 -0.072713
v 0.168620 0.126276 -0.072684
v 0.217683 0.021016 -0.072697
v 0.217683 0.077220 -0.072645
v 0.217683 0.119343 -0.072603
v 0.217683 0.147457 -0.072561
v 0.231736 0.147457 -0.071261
v 0.240282 0.147457 -0.068226
v 0.242554 0.147457 -0.059472
v 0.240779 0.157988 -0.045422
v 0.240764 0.157988 -0.039778
v 0.243014 0.147457 -0.039778
v 0.201562 0.185435 -0.045422
v 0.208516 0.181361 -0.039778
v 0.223782 0.167899 -0.065394
v 0.199341 0.184148 -0.059472
v 0.208581 0.181408 -0.045422
v 0.227792 0.170306 -0.045422
v 0.234818 0.165016 -0.045422
v 0.231561 0.164540 -0.060214
v 0.173031 0.199206 -0.059472
v 0.196938 0.182766 -0.066659
v 0.168620 0.198729 -0.065994
v 0.168620 0.168423 -0.072610
v 0.189583 0.161514 -0.072584
v 0.168620 0.175571 -0.072503
v 0.175529 0.175571 -0.072361
v 0.203636 0.161514 -0.072119
v 0.218530 0.162539 -0.069771
v 0.231736 0.158298 -0.068594
v 0.239435 0.155510 -0.067268
v 0.240304 0.156987 -0.059472
v 0.234804 0.165016 -0.039778
v 0.227777 0.170306 -0.039778
v 0.214410 0.170544 -0.067910
v 0.230596 0.168185 -0.039778
v 0.169978 0.197419 -0.067149
v 0.168620 0.197800 -0.067342
v 0.168620 0.182480 -0.071913
v 0.189583 0.175571 -0.070939
v 0.175011 0.189819 -0.069133
v 0.202431 0.175357 -0.068668
v 0.168620 0.194512 -0.068765
v 0.189583 0.184744 -0.067875
v 0.168620 0.189723 -0.070226
f 8 3 7
f 24 25 14
f 44 25 24
f 62 42 61
f 27 47 48
f 76 58 54
f 59 58 80
f 80 81 59
f 38 58 59
f 59 39 38
f 43 42 64
f 43 44 24
f 24 42 43
f 41 42 24
f 61 42 41
f 41 39 61
f 41 49 28
f 28 39 41
f 24 14 23
f 23 41 24
f 64 42 63
f 42 62 63
f 67 47 72
f 72 83 67
f 60 39 59
f 59 83 60
f 61 39 60
f 60 83 61
f 68 47 67
f 68 48 47
f 74 48 67
f 4 2 1
f 4 6 2
f 91 80 79
f 79 80 58
f 2 6 5
f 27 15 26
f 69 70 47
f 86 70 69
f 88 70 86
f 49 41 40
f 41 23 40
f 83 72 84
f 84 62 61
f 61 83 84
f 67 48 73
f 73 68 67
f 48 68 73
f 90 89 87
f 87 89 74
f 67 83 87
f 87 74 67
f 91 97 92
f 92 80 91
f 81 80 92
f 91 79 78
f 78 79 58
f 9 13 16
f 9 5 13
f 54 58 57
f 58 38 57
f 34 38 39
f 39 35 34
f 22 39 28
f 22 35 39
f 28 16 22
f 16 13 22
f 45 26 46
f 27 26 45
f 45 47 27
f 86 69 66
f 71 88 85
f 70 88 71
f 47 70 71
f 62 84 71
f 71 72 47
f 71 84 72
f 85 63 71
f 71 63 62
f 75 89 90
f 48 74 75
f 74 89 75
f 82 87 83
f 82 83 59
f 59 81 82
f 76 78 77
f 58 76 77
f 77 78 58
f 6 11 10
f 10 5 6
f 10 11 5
f 18 11 17
f 17 13 18
f 19 13 17
f 56 55 54
f 54 57 56
f 38 55 56
f 56 57 38
f 54 55 37
f 37 36 54
f 37 55 38
f 13 19 20
f 20 19 30
f 65 45 46
f 46 66 65
f 65 66 69
f 65 69 47
f 47 45 65
f 96 95 90
f 90 87 96
f 87 95 96
f 97 95 93
f 93 92 97
f 81 92 93
f 5 11 12
f 11 18 12
f 13 5 12
f 12 18 13
f 29 19 17
f 30 19 29
f 51 52 32
f 54 36 53
f 36 52 53
f 53 51 54
f 52 51 53
f 32 52 33
f 33 20 32
f 33 52 36
f 81 93 94
f 94 82 81
f 87 82 94
f 94 95 87
f 94 93 95
f 31 50 32
f 32 20 31
f 20 33 21
f 13 20 21
f 36 37 21
f 21 33 36
f 21 22 13
f 35 22 21
f 21 34 35
f 38 34 21
f 21 37 38
f 9 3 1
f 7 3 9
f 1 2 9
f 9 23 14
f 9 16 28
f 9 14 7
f 28 49 9
f 2 5 9
f 49 40 9
f 9 40 23
f 66 43 64
f 66 8 7
f 66 15 8
f 7 14 66
f 66 26 15
f 66 14 25
f 25 44 66
f 66 63 85
f 85 88 66
f 44 43 66
f 64 63 66
f 46 26 66
f 66 88 86
f 27 48 50
f 1 3 50
f 50 15 27
f 3 8 50
f 50 97 91
f 8 15 50
f 50 29 17
f 50 4 1
f 90 95 50
f 91 78 50
f 50 76 54
f 50 75 90
f 6 4 50
f 17 11 50
f 50 78 76
f 50 11 6
f 54 51 50
f 48 75 50
f 50 95 97
f 30 29 50
f 50 51 32
f 30 50 31
f 31 20 30
