v 0.032766 0.000944 -0.000050
v 0.032628 0.000972 -0.000050
v 0.032500 -0.000000 -0.000000
v 0.032899 0.000896 -0.000050
v 0.033023 0.000829 -0.000050
v 0.033137 0.000746 -0.000050
v 0.033237 0.000647 -0.000050
v 0.033322 0.000534 -0.000050
v 0.033391 0.000411 -0.000050
v 0.033440 0.000279 -0.000050
v 0.033470 0.000141 -0.000050
v 0.033440 -0.000278 -0.000050
v 0.033391 -0.000411 -0.000050
v 0.033470 -0.000141 -0.000050
v 0.033137 -0.000746 -0.000050
v 0.033237 -0.000647 -0.000050
v 0.033023 -0.000829 -0.000050
v 0.032899 -0.000896 -0.000050
v 0.032766 -0.000944 -0.000050
v 0.032500 -0.000981 -0.000050
v 0.032628 -0.000972 -0.000050
v 0.033481 0.000000 -0.000050
v 0.032500 0.000981 -0.000050
v 0.033322 -0.000534 -0.000050
v -0.032500 0.000000 -0.000000
v -0.032500 -0.000981 -0.000050
v -0.032500 0.000981 -0.000050
v -0.032766 -0.000944 -0.000050
v -0.032628 -0.000972 -0.000050
v -0.032899 -0.000896 -0.000050
v -0.033023 -0.000829 -0.000050
v -0.033137 -0.000746 -0.000050
v -0.033237 -0.000647 -0.000050
v -0.033322 -0.000534 -0.000050
v -0.033391 -0.000411 -0.000050
v -0.033440 -0.000279 -0.000050
v -0.033470 -0.000141 -0.000050
v -0.033440 0.000278 -0.000050
v -0.033391 0.000411 -0.000050
v -0.033470 0.000141 -0.000050
v -0.033137 0.000746 -0.000050
v -0.033237 0.000647 -0.000050
v -0.033023 0.000829 -0.000050
v -0.032899 0.000896 -0.000050
v -0.032766 0.000944 -0.000050
v -0.032628 0.000972 -0.000050
v -0.033481 -0.000000 -0.000050
v -0.033322 0.000534 -0.000050
v 0.000471 0.004481 -0.039939
v -0.000241 0.004503 -0.039939
v 0.003672 0.000478 -0.039998
v 0.003551 -0.000212 -0.039998
v 0.003619 0.000294 -0.040004
v 0.003528 -0.000170 -0.040004
v 0.003376 -0.000622 -0.040004
v 0.003302 -0.000867 -0.039998
v 0.003167 -0.001049 -0.040004
v 0.002933 -0.001462 -0.039998
v 0.002904 -0.001445 -0.040004
v 0.002591 -0.001804 -0.040004
v 0.002458 -0.001977 -0.039998
v 0.002235 -0.002119 -0.040004
v 0.001895 -0.002393 -0.039998
v 0.001840 -0.002386 -0.040004
v 0.001415 -0.002598 -0.040004
v 0.001263 -0.002694 -0.039998
v 0.000965 -0.002754 -0.040004
v 0.000585 -0.002870 -0.039998
v 0.000499 -0.002849 -0.040004
v 0.000024 -0.002883 -0.040004
v -0.000114 -0.002915 -0.039998
v -0.000451 -0.002856 -0.040004
v -0.000809 -0.002827 -0.039998
v -0.000918 -0.002766 -0.040004
v -0.001474 -0.002609 -0.039998
v -0.001370 -0.002617 -0.040004
v -0.001798 -0.002410 -0.040004
v -0.002087 -0.002269 -0.039998
v -0.002196 -0.002149 -0.040004
v -0.002623 -0.001820 -0.039998
v -0.002557 -0.001839 -0.040004
v -0.002874 -0.001484 -0.040004
v -0.003065 -0.001276 -0.039998
v -0.003142 -0.001091 -0.040004
v -0.003397 -0.000659 -0.039998
v -0.003357 -0.000666 -0.040004
v -0.003515 -0.000218 -0.040004
v -0.003605 0.000009 -0.039998
v -0.003613 0.000248 -0.040004
v -0.003683 0.000705 -0.039998
v -0.003650 0.000706 -0.040004
v -0.003442 0.002079 -0.039998
v -0.003527 0.001704 -0.040004
v -0.003628 0.001403 -0.039998
v -0.003619 0.001240 -0.040004
v -0.003650 0.000769 -0.040004
v -0.002187 0.003731 -0.039998
v -0.002590 0.003338 -0.040004
v -0.002708 0.003264 -0.039998
v -0.002903 0.002979 -0.040004
v -0.003132 0.002706 -0.039998
v -0.003166 0.002583 -0.040004
v -0.003375 0.002156 -0.040004
v -0.000928 0.004332 -0.039998
v -0.001414 0.004132 -0.040004
v -0.001586 0.004092 -0.039998
v -0.001839 0.003919 -0.040004
v -0.002234 0.003653 -0.040004
v 0.000463 0.004421 -0.039998
v -0.000023 0.004417 -0.040004
v -0.000237 0.004443 -0.039998
v -0.000498 0.004382 -0.040004
v -0.000964 0.004287 -0.040004
v 0.001788 0.003987 -0.039998
v 0.001371 0.004149 -0.040004
v 0.001147 0.004267 -0.039998
v 0.000919 0.004299 -0.040004
v 0.000452 0.004389 -0.040004
v 0.002857 0.003092 -0.039998
v 0.002557 0.003371 -0.040004
v 0.002366 0.003590 -0.039998
v 0.002197 0.003681 -0.040004
v 0.001799 0.003942 -0.040004
v 0.003517 0.001863 -0.039998
v 0.003357 0.002199 -0.040004
v 0.003246 0.002509 -0.039998
v 0.003143 0.002623 -0.040004
v 0.002874 0.003016 -0.040004
v 0.003650 0.000765 -0.040004
v 0.003649 0.000827 -0.040004
v 0.003661 0.001178 -0.039998
v 0.003613 0.001284 -0.040004
v 0.003515 0.001750 -0.040004
v -0.001489 -0.002643 -0.039975
v -0.000817 -0.002863 -0.039975
v -0.000115 -0.002952 -0.039975
v 0.000591 -0.002907 -0.039975
v 0.001275 -0.002728 -0.039975
v 0.001158 0.004302 -0.039975
v 0.000468 0.004457 -0.039975
v -0.000239 0.004479 -0.039975
v -0.000937 0.004367 -0.039975
v -0.001602 0.004124 -0.039975
v 0.038500 -0.012500 -0.002621
v 0.039436 -0.012402 -0.002621
v 0.040647 -0.011955 -0.002621
v 0.041682 -0.011182 -0.002621
v 0.042455 -0.010147 -0.002621
v 0.042902 -0.008936 -0.002621
v 0.043000 -0.008000 -0.002621
v -0.029310 -0.012500 -0.002765
v 0.029719 -0.012500 -0.002717
v 0.021934 -0.012500 -0.004028
v -0.038500 -0.012500 -0.002621
v -0.025037 -0.012500 -0.003665
v 0.043000 0.008000 -0.002621
v 0.042250 -0.008000 -0.001871
v 0.042168 -0.008780 -0.001871
v 0.041152 -0.010652 -0.001871
v 0.040289 -0.011296 -0.001871
v 0.041500 -0.008000 -0.001121
v 0.041434 -0.008624 -0.001121
v 0.041136 -0.009431 -0.001121
v 0.040621 -0.010121 -0.001121
v 0.039931 -0.010636 -0.001121
v 0.039124 -0.010934 -0.001121
v 0.038500 -0.011000 -0.001121
v -0.039436 -0.012402 -0.002621
v -0.040647 -0.011955 -0.002621
v -0.041682 -0.011182 -0.002621
v -0.042455 -0.010147 -0.002621
v -0.042902 -0.008936 -0.002621
v -0.043000 -0.008000 -0.002621
v -0.038500 -0.011000 -0.001121
v 0.038500 0.012500 -0.002621
v 0.039436 0.012402 -0.002621
v 0.040647 0.011955 -0.002621
v 0.041682 0.011182 -0.002621
v 0.042455 0.010147 -0.002621
v 0.042902 0.008936 -0.002621
v 0.042250 0.008000 -0.001871
v 0.041500 0.008000 -0.001121
v -0.039931 0.010636 -0.001121
v -0.039124 0.010934 -0.001121
v -0.038500 0.011000 -0.001121
v -0.041500 0.008000 -0.001121
v -0.041434 0.008624 -0.001121
v -0.041136 0.009431 -0.001121
v -0.040621 0.010121 -0.001121
v -0.040621 -0.010121 -0.001121
v -0.041136 -0.009431 -0.001121
v -0.041434 -0.008624 -0.001121
v -0.041500 -0.008000 -0.001121
v -0.039124 -0.010934 -0.001121
v -0.039931 -0.010636 -0.001121
v 0.040621 0.010121 -0.001121
v 0.041136 0.009431 -0.001121
v 0.041434 0.008624 -0.001121
v 0.038500 0.011000 -0.001121
v 0.039124 0.010934 -0.001121
v 0.039931 0.010636 -0.001121
v -0.043000 0.008000 -0.002621
v -0.042250 -0.008000 -0.001871
v -0.042168 -0.008780 -0.001871
v -0.041152 -0.010652 -0.001871
v -0.040289 -0.011296 -0.001871
v 0.029310 0.012500 -0.002765
v -0.038500 0.012500 -0.002621
v -0.029719 0.012500 -0.002717
v -0.021934 0.012500 -0.004028
v 0.025037 0.012500 -0.003665
v 0.040289 0.011296 -0.001871
v 0.041152 0.010652 -0.001871
v 0.042168 0.008780 -0.001871
v -0.042250 0.008000 -0.001871
v -0.042168 0.008780 -0.001871
v -0.042902 0.008936 -0.002621
v -0.042455 0.010147 -0.002621
v -0.041152 0.010652 -0.001871
v -0.041682 0.011182 -0.002621
v -0.040289 0.011296 -0.001871
v -0.040647 0.011955 -0.002621
v -0.039436 0.012402 -0.002621
v 0.042155 0.010625 -0.010232
v 0.041533 0.011324 -0.010232
v 0.040780 0.011880 -0.010232
v 0.042971 -0.008514 -0.010232
v 0.042904 0.008923 -0.010232
v 0.042620 0.009811 -0.010232
v 0.041125 -0.011655 -0.010232
v 0.041824 -0.011033 -0.010232
v 0.042380 -0.010280 -0.010232
v 0.042768 -0.009427 -0.010232
v -0.039014 -0.012471 -0.010232
v 0.039423 -0.012404 -0.010232
v 0.040311 -0.012120 -0.010232
v -0.042155 -0.010625 -0.010232
v -0.041533 -0.011324 -0.010232
v -0.040780 -0.011880 -0.010232
v -0.039927 -0.012268 -0.010232
v -0.042971 0.008514 -0.010232
v -0.042904 -0.008923 -0.010232
v -0.042620 -0.009811 -0.010232
v -0.041125 0.011655 -0.010232
v -0.041824 0.011033 -0.010232
v -0.042380 0.010280 -0.010232
v -0.042768 0.009427 -0.010232
v 0.039927 0.012268 -0.010232
v 0.039014 0.012471 -0.010232
v -0.039423 0.012404 -0.010232
v -0.040311 0.012120 -0.010232
v -0.042160 0.010618 -0.010232
v -0.041542 0.011316 -0.010232
v -0.040792 0.011873 -0.010232
v -0.042968 -0.008534 -0.010232
v -0.042905 0.008920 -0.010232
v -0.042622 0.009806 -0.010232
v -0.041118 -0.011660 -0.010232
v -0.041816 -0.011042 -0.010232
v -0.042373 -0.010292 -0.010232
v -0.042762 -0.009444 -0.010232
v 0.039034 -0.012468 -0.010232
v -0.039420 -0.012405 -0.010232
v -0.040306 -0.012122 -0.010232
v 0.042160 -0.010618 -0.010232
v 0.041542 -0.011316 -0.010232
v 0.040792 -0.011873 -0.010232
v 0.039944 -0.012262 -0.010232
v 0.042968 0.008534 -0.010232
v 0.042905 -0.008920 -0.010232
v 0.042622 -0.009806 -0.010232
v 0.041118 0.011660 -0.010232
v 0.041816 0.011042 -0.010232
v 0.042373 0.010292 -0.010232
v 0.042762 0.009444 -0.010232
v -0.039944 0.012262 -0.010232
v -0.039034 0.012468 -0.010232
v 0.039420 0.012405 -0.010232
v 0.040306 0.012122 -0.010232
v -0.042622 0.009806 -0.016942
v -0.041542 0.011316 -0.016942
v 0.042622 -0.009806 -0.016942
v 0.041542 -0.011316 -0.016942
v 0.042160 -0.010618 -0.016942
v -0.041434 -0.008624 -0.026704
v -0.041500 -0.008000 -0.026704
v -0.039124 -0.010934 -0.026704
v -0.039931 -0.010636 -0.026704
v -0.040621 -0.010121 -0.026704
v -0.041136 -0.009431 -0.026704
v 0.039124 -0.010934 -0.026704
v 0.039931 -0.010636 -0.026704
v 0.040621 -0.010121 -0.026704
v 0.041136 -0.009431 -0.026704
v 0.041434 -0.008624 -0.026704
v 0.041500 -0.008000 -0.026704
v 0.041500 0.008000 -0.026704
v 0.041434 0.008624 -0.026704
v 0.041136 0.009431 -0.026704
v 0.040621 0.010121 -0.026704
v 0.039931 0.010636 -0.026704
v 0.039124 0.010934 -0.026704
v -0.041500 0.008000 -0.026704
v -0.039124 0.010934 -0.026704
v -0.039931 0.010636 -0.026704
v -0.040621 0.010121 -0.026704
v -0.041136 0.009431 -0.026704
v -0.041434 0.008624 -0.026704
v -0.038500 0.012500 -0.025204
v -0.039280 0.011668 -0.025954
v -0.039436 0.012402 -0.025204
v -0.040289 0.011296 -0.025954
v -0.041152 0.010652 -0.025954
v -0.042168 0.008780 -0.025954
v -0.040647 0.011955 -0.025204
v -0.041682 0.011182 -0.025204
v -0.042455 0.010147 -0.025204
v -0.042902 0.008936 -0.025204
v -0.043000 0.008000 -0.025204
v -0.043000 -0.008000 -0.025204
v -0.042168 -0.008780 -0.025954
v -0.042902 -0.008936 -0.025204
v -0.041152 -0.010652 -0.025954
v -0.040289 -0.011296 -0.025954
v -0.039280 -0.011668 -0.025954
v -0.042455 -0.010147 -0.025204
v -0.041682 -0.011182 -0.025204
v -0.040647 -0.011955 -0.025204
v -0.039436 -0.012402 -0.025204
v -0.038500 -0.012500 -0.025204
v 0.038500 -0.012500 -0.025204
v 0.039436 -0.012402 -0.025204
v 0.040289 -0.011296 -0.025954
v 0.041152 -0.010652 -0.025954
v 0.042168 -0.008780 -0.025954
v 0.040647 -0.011955 -0.025204
v 0.041682 -0.011182 -0.025204
v 0.042455 -0.010147 -0.025204
v 0.042902 -0.008936 -0.025204
v 0.043000 -0.008000 -0.025204
v 0.043000 0.008000 -0.025204
v 0.042168 0.008780 -0.025954
v 0.042902 0.008936 -0.025204
v 0.041152 0.010652 -0.025954
v 0.040289 0.011296 -0.025954
v 0.042455 0.010147 -0.025204
v 0.041682 0.011182 -0.025204
v 0.040647 0.011955 -0.025204
v 0.039436 0.012402 -0.025204
v 0.038500 0.012500 -0.025204
v 0.042766 0.009433 -0.016942
v 0.042377 0.010284 -0.016942
v 0.041822 0.011036 -0.016942
v 0.042620 -0.009809 -0.016942
v 0.042970 0.008520 -0.016942
v 0.039933 -0.012266 -0.016942
v 0.040784 -0.011877 -0.016942
v 0.041536 -0.011322 -0.016942
v 0.042157 -0.010622 -0.016942
v -0.040309 -0.012120 -0.016942
v -0.039422 -0.012405 -0.016942
v 0.039020 -0.012470 -0.016942
v -0.042766 -0.009433 -0.016942
v -0.042377 -0.010284 -0.016942
v -0.041822 -0.011036 -0.016942
v -0.041122 -0.011657 -0.016942
v -0.042620 0.009809 -0.016942
v -0.042970 -0.008520 -0.016942
v -0.039933 0.012266 -0.016942
v -0.040784 0.011877 -0.016942
v -0.041536 0.011322 -0.016942
v -0.042157 0.010622 -0.016942
v 0.041122 0.011657 -0.016942
v 0.040309 0.012120 -0.016942
v 0.039422 0.012405 -0.016942
v -0.039020 0.012470 -0.016942
v 0.042155 0.010625 -0.010432
v 0.041533 0.011324 -0.010432
v 0.040780 0.011880 -0.010432
v 0.042971 -0.008514 -0.010432
v 0.042904 0.008923 -0.010432
v 0.042620 0.009811 -0.010432
v 0.041125 -0.011655 -0.010432
v 0.041824 -0.011033 -0.010432
v 0.042380 -0.010280 -0.010432
v 0.042768 -0.009427 -0.010432
v -0.039014 -0.012471 -0.010432
v 0.039423 -0.012404 -0.010432
v 0.040311 -0.012120 -0.010432
v -0.042155 -0.010625 -0.010432
v -0.041533 -0.011324 -0.010432
v -0.040780 -0.011880 -0.010432
v -0.039927 -0.012268 -0.010432
v -0.042971 0.008514 -0.010432
v -0.042904 -0.008923 -0.010432
v -0.042620 -0.009811 -0.010432
v -0.041125 0.011655 -0.010432
v -0.041824 0.011033 -0.010432
v -0.042380 0.010280 -0.010432
v -0.042768 0.009427 -0.010432
v 0.039927 0.012268 -0.010432
v 0.039014 0.012471 -0.010432
v -0.039423 0.012404 -0.010432
v -0.040311 0.012120 -0.010432
v -0.042160 0.010618 -0.010432
v -0.042968 -0.008534 -0.010432
v -0.041118 -0.011660 -0.010432
v -0.041816 -0.011042 -0.010432
v -0.042373 -0.010292 -0.010432
v -0.042762 -0.009444 -0.010432
v -0.040306 -0.012122 -0.010432
v 0.042968 0.008534 -0.010432
v 0.041118 0.011660 -0.010432
v 0.041816 0.011042 -0.010432
v 0.042373 0.010292 -0.010432
v 0.042762 0.009444 -0.010432
v -0.039944 0.012262 -0.010432
v -0.039034 0.012468 -0.010432
v 0.040306 0.012122 -0.010432
v -0.042762 -0.009444 -0.017142
v -0.042373 -0.010292 -0.017142
v -0.041816 -0.011042 -0.017142
v -0.042622 0.009806 -0.017142
v -0.042905 0.008920 -0.017142
v -0.042968 -0.008534 -0.017142
v -0.039944 0.012262 -0.017142
v -0.040792 0.011873 -0.017142
v -0.041542 0.011316 -0.017142
v -0.042160 0.010618 -0.017142
v 0.040306 0.012122 -0.017142
v 0.039420 0.012405 -0.017142
v -0.039034 0.012468 -0.017142
v 0.042762 0.009444 -0.017142
v 0.042373 0.010292 -0.017142
v 0.041816 0.011042 -0.017142
v 0.041118 0.011660 -0.017142
v 0.042622 -0.009806 -0.017142
v 0.042905 -0.008920 -0.017142
v 0.042968 0.008534 -0.017142
v 0.039944 -0.012262 -0.017142
v 0.040792 -0.011873 -0.017142
v 0.041542 -0.011316 -0.017142
v 0.042160 -0.010618 -0.017142
v -0.041118 -0.011660 -0.017142
v -0.040306 -0.012122 -0.017142
v -0.039420 -0.012405 -0.017142
v 0.039034 -0.012468 -0.017142
v 0.042766 0.009433 -0.017142
v 0.042377 0.010284 -0.017142
v 0.041822 0.011036 -0.017142
v 0.042620 -0.009809 -0.017142
v 0.042970 0.008520 -0.017142
v 0.039933 -0.012266 -0.017142
v 0.040784 -0.011877 -0.017142
v 0.041536 -0.011322 -0.017142
v 0.042157 -0.010622 -0.017142
v -0.040309 -0.012120 -0.017142
v -0.039422 -0.012405 -0.017142
v 0.039020 -0.012470 -0.017142
v -0.042766 -0.009433 -0.017142
v -0.042377 -0.010284 -0.017142
v -0.041822 -0.011036 -0.017142
v -0.041122 -0.011657 -0.017142
v -0.042620 0.009809 -0.017142
v -0.042970 -0.008520 -0.017142
v -0.039933 0.012266 -0.017142
v -0.040784 0.011877 -0.017142
v -0.041536 0.011322 -0.017142
v -0.042157 0.010622 -0.017142
v 0.041122 0.011657 -0.017142
v 0.040309 0.012120 -0.017142
v 0.039422 0.012405 -0.017142
v -0.039020 0.012470 -0.017142
f 330 136 331
f 175 350 211
f 309 210 211
f 149 227 150
f 285 320 286
f 137 291 332
f 332 331 137
f 137 331 136
f 322 320 321
f 321 320 285
f 149 150 158
f 158 148 149
f 329 136 330
f 270 227 149
f 155 154 330
f 330 331 155
f 331 153 155
f 402 349 350
f 350 349 140
f 116 140 139
f 473 309 311
f 311 432 473
f 403 432 311
f 211 210 209
f 40 187 186
f 319 308 303
f 147 148 159
f 163 158 162
f 148 158 163
f 164 159 163
f 163 159 148
f 165 159 164
f 160 159 165
f 198 214 197
f 23 25 3
f 27 25 23
f 157 158 150
f 162 158 157
f 157 161 162
f 22 161 182
f 347 348 470
f 470 378 347
f 180 214 156
f 154 168 234
f 234 168 263
f 380 339 340
f 149 148 233
f 146 230 147
f 147 159 146
f 146 159 160
f 152 144 154
f 153 144 152
f 152 155 153
f 285 88 85
f 285 286 90
f 90 88 285
f 90 286 303
f 87 85 88
f 348 349 430
f 176 249 175
f 175 199 176
f 248 176 177
f 177 176 212
f 212 213 177
f 350 140 49
f 116 139 301
f 306 305 97
f 306 101 307
f 312 315 311
f 305 306 312
f 418 473 432
f 432 403 418
f 207 175 211
f 211 209 207
f 207 209 175
f 208 209 210
f 376 277 208
f 253 220 244
f 253 281 220
f 218 220 252
f 317 306 307
f 307 308 317
f 265 148 147
f 188 218 187
f 189 218 188
f 166 165 18
f 3 25 26
f 26 20 3
f 3 4 1
f 156 214 181
f 181 198 182
f 214 198 181
f 164 163 24
f 197 213 196
f 196 8 197
f 194 168 154
f 322 321 326
f 326 321 285
f 172 261 171
f 465 320 322
f 173 368 255
f 172 173 255
f 332 333 336
f 387 329 330
f 329 445 328
f 285 85 290
f 290 85 83
f 290 326 285
f 339 380 438
f 332 291 292
f 292 333 332
f 68 137 136
f 291 137 138
f 138 292 291
f 137 68 138
f 154 155 151
f 151 152 154
f 155 152 151
f 459 331 332
f 85 87 86
f 401 430 349
f 200 176 199
f 200 1 4
f 249 176 278
f 178 177 213
f 248 177 279
f 305 312 304
f 304 143 305
f 349 301 302
f 302 140 349
f 302 301 139
f 302 139 140
f 344 348 347
f 347 346 344
f 115 117 116
f 99 306 97
f 101 306 99
f 252 220 245
f 252 245 372
f 315 404 426
f 426 466 311
f 311 315 426
f 315 397 427
f 223 208 277
f 277 250 223
f 223 369 276
f 222 254 244
f 244 220 222
f 222 189 221
f 276 251 222
f 222 223 276
f 281 253 371
f 371 253 244
f 220 218 219
f 219 218 189
f 219 222 220
f 189 222 219
f 423 317 318
f 400 423 318
f 468 397 316
f 316 397 315
f 429 317 399
f 464 317 423
f 241 217 256
f 231 265 147
f 359 265 231
f 38 187 40
f 38 188 187
f 40 25 38
f 189 188 48
f 19 166 18
f 19 18 3
f 167 144 145
f 145 166 167
f 145 146 160
f 160 165 145
f 165 166 145
f 12 163 162
f 15 165 164
f 10 198 197
f 269 180 156
f 156 355 269
f 228 180 269
f 377 346 347
f 347 450 377
f 174 194 154
f 393 445 329
f 193 203 192
f 192 171 191
f 192 203 173
f 363 261 172
f 170 171 237
f 172 255 242
f 425 465 322
f 266 283 147
f 358 283 266
f 147 230 266
f 230 358 266
f 230 146 267
f 329 387 446
f 170 238 258
f 170 258 169
f 168 194 169
f 194 206 169
f 169 240 168
f 264 240 169
f 327 328 463
f 463 391 327
f 457 328 445
f 287 325 324
f 329 328 324
f 324 325 329
f 327 326 323
f 323 328 327
f 323 324 328
f 271 233 148
f 57 58 59
f 66 68 67
f 66 138 68
f 292 138 66
f 131 130 132
f 126 125 127
f 124 125 126
f 133 125 124
f 124 132 133
f 131 132 124
f 96 90 95
f 96 91 90
f 88 90 89
f 90 91 89
f 89 87 88
f 84 82 83
f 83 85 84
f 85 86 84
f 212 176 201
f 176 200 201
f 201 213 212
f 201 196 213
f 201 200 4
f 201 6 196
f 199 23 2
f 2 200 199
f 1 200 2
f 2 23 3
f 3 1 2
f 349 402 431
f 177 178 272
f 224 353 273
f 273 178 224
f 224 178 179
f 180 275 179
f 179 275 229
f 214 180 179
f 179 178 213
f 197 214 179
f 179 213 197
f 430 401 419
f 109 117 118
f 109 140 116
f 116 117 109
f 311 309 141
f 141 49 140
f 140 109 141
f 141 109 111
f 110 109 118
f 111 109 110
f 104 113 105
f 311 141 142
f 143 304 142
f 142 111 104
f 142 141 111
f 348 344 345
f 345 344 301
f 345 349 348
f 345 301 349
f 119 127 128
f 126 127 119
f 301 121 114
f 116 301 114
f 114 115 116
f 114 122 123
f 121 122 114
f 123 115 114
f 92 308 307
f 307 101 92
f 101 102 92
f 100 102 101
f 101 99 100
f 417 426 404
f 466 426 417
f 254 222 370
f 218 257 247
f 247 217 218
f 187 218 216
f 218 217 216
f 308 319 314
f 319 318 314
f 314 317 308
f 314 318 317
f 469 317 429
f 469 316 317
f 398 316 469
f 313 316 315
f 315 312 313
f 313 312 306
f 306 317 313
f 317 316 313
f 468 316 428
f 429 399 405
f 405 469 429
f 246 218 252
f 280 247 257
f 367 257 218
f 367 280 257
f 217 241 202
f 202 216 217
f 187 216 202
f 424 318 394
f 394 318 319
f 336 337 383
f 333 292 334
f 334 336 333
f 334 337 336
f 384 337 456
f 284 265 359
f 43 41 25
f 25 44 43
f 185 208 184
f 208 223 184
f 184 222 221
f 223 222 184
f 188 38 39
f 39 48 188
f 39 38 25
f 25 48 39
f 25 41 42
f 42 48 25
f 42 41 189
f 189 48 42
f 166 19 21
f 21 20 167
f 167 166 21
f 3 20 21
f 21 19 3
f 3 24 13
f 13 12 3
f 13 24 163
f 163 12 13
f 14 12 162
f 162 161 14
f 161 22 14
f 14 22 3
f 3 12 14
f 164 24 16
f 16 15 164
f 16 24 3
f 3 15 16
f 18 165 17
f 165 15 17
f 3 18 17
f 17 15 3
f 9 8 3
f 3 10 9
f 197 8 9
f 9 10 197
f 198 10 11
f 182 198 11
f 11 22 182
f 3 22 11
f 11 10 3
f 8 196 7
f 196 6 7
f 3 8 7
f 7 6 3
f 5 4 3
f 3 6 5
f 5 201 4
f 6 201 5
f 341 343 452
f 433 343 346
f 346 382 433
f 433 382 416
f 195 206 194
f 172 171 204
f 171 192 204
f 204 173 172
f 204 192 173
f 193 192 37
f 30 195 194
f 390 326 327
f 243 171 261
f 326 396 420
f 322 326 420
f 396 410 420
f 465 425 406
f 263 168 361
f 239 169 258
f 366 258 238
f 411 457 445
f 445 393 411
f 264 169 360
f 289 290 83
f 324 323 289
f 326 290 289
f 289 323 326
f 386 437 339
f 233 271 282
f 339 437 338
f 337 334 338
f 443 456 338
f 338 456 337
f 60 61 62
f 60 59 58
f 58 61 60
f 67 68 69
f 68 70 69
f 72 70 71
f 71 68 136
f 71 70 68
f 65 66 67
f 375 278 176
f 177 272 226
f 225 272 178
f 373 272 225
f 348 379 436
f 436 470 348
f 435 450 347
f 374 279 177
f 50 309 350
f 50 141 309
f 350 49 50
f 49 141 50
f 111 110 112
f 104 111 112
f 112 113 104
f 107 108 97
f 311 142 310
f 310 142 304
f 310 312 311
f 310 304 312
f 341 297 342
f 342 343 341
f 346 343 342
f 126 119 299
f 299 124 126
f 299 344 346
f 346 342 299
f 51 297 296
f 53 129 51
f 51 129 130
f 51 296 295
f 51 130 131
f 131 297 51
f 51 52 53
f 295 52 51
f 120 122 121
f 120 119 128
f 121 119 120
f 103 92 102
f 308 92 94
f 303 308 94
f 95 90 94
f 94 90 303
f 98 100 99
f 97 108 98
f 98 99 97
f 315 427 467
f 215 186 187
f 187 202 215
f 337 442 455
f 455 383 337
f 294 338 334
f 294 52 295
f 46 27 185
f 185 184 46
f 46 25 27
f 221 189 183
f 183 184 221
f 189 41 183
f 41 43 183
f 183 43 44
f 44 184 183
f 332 336 440
f 146 145 268
f 145 356 268
f 447 459 332
f 332 388 447
f 144 362 262
f 262 145 144
f 439 452 343
f 343 381 439
f 448 433 416
f 343 433 448
f 170 169 205
f 205 171 170
f 191 171 190
f 171 205 190
f 206 195 190
f 190 169 206
f 190 205 169
f 193 37 47
f 186 193 47
f 40 186 47
f 47 25 40
f 47 37 25
f 31 30 25
f 195 30 31
f 28 30 194
f 25 30 28
f 260 237 171
f 322 420 460
f 460 420 410
f 395 406 425
f 395 425 322
f 357 267 146
f 441 454 336
f 336 383 441
f 329 446 458
f 79 77 78
f 78 77 75
f 148 265 232
f 265 284 232
f 451 338 437
f 53 52 54
f 52 55 54
f 62 61 63
f 63 61 292
f 292 66 63
f 66 65 63
f 349 431 472
f 413 436 379
f 470 436 413
f 450 435 414
f 414 435 347
f 346 377 434
f 377 415 434
f 224 179 274
f 348 430 471
f 430 419 471
f 106 107 97
f 97 305 106
f 305 143 106
f 105 107 106
f 104 105 106
f 106 142 104
f 143 142 106
f 301 344 300
f 344 299 300
f 300 121 301
f 300 119 121
f 300 299 119
f 298 342 297
f 298 299 342
f 124 299 298
f 131 124 298
f 298 297 131
f 95 94 93
f 92 103 93
f 93 94 92
f 293 334 292
f 293 294 334
f 292 61 293
f 293 61 58
f 58 294 293
f 339 338 335
f 338 294 335
f 335 294 295
f 340 339 335
f 335 296 340
f 295 296 335
f 57 55 56
f 56 58 57
f 56 294 58
f 56 55 52
f 52 294 56
f 45 184 44
f 45 46 184
f 45 44 25
f 25 46 45
f 332 440 453
f 389 440 336
f 145 262 235
f 412 439 381
f 452 439 412
f 351 275 180
f 25 37 36
f 36 35 25
f 36 37 192
f 36 192 191
f 191 35 36
f 34 35 191
f 191 190 34
f 34 190 33
f 34 33 25
f 25 35 34
f 33 190 32
f 25 33 32
f 32 31 25
f 32 190 195
f 195 31 32
f 29 26 25
f 25 28 29
f 29 28 194
f 29 174 26
f 194 174 29
f 462 390 327
f 326 390 421
f 407 463 444
f 444 392 407
f 328 392 444
f 444 463 328
f 83 82 80
f 80 289 83
f 78 289 80
f 80 79 78
f 287 324 288
f 324 289 288
f 288 289 78
f 78 75 288
f 443 338 385
f 354 271 148
f 354 282 271
f 62 63 64
f 64 63 65
f 346 434 449
f 449 434 415
f 146 268 236
f 170 237 259
f 237 365 259
f 327 408 422
f 408 462 422
f 422 462 327
f 326 421 461
f 409 421 390
f 409 461 421
f 81 80 82
f 79 80 81
f 76 75 77
f 76 74 75
f 135 325 287
f 136 329 135
f 329 325 135
f 352 274 179
f 364 260 171
f 73 74 72
f 72 71 73
f 75 74 73
f 73 135 75
f 73 71 136
f 136 135 73
f 134 135 287
f 75 135 134
f 287 288 134
f 134 288 75
f 211 350 309
f 340 341 150
f 150 341 156
f 144 153 331
f 175 249 402
f 350 175 402
f 303 286 319
f 319 286 320
f 23 199 185
f 185 27 23
f 340 150 380
f 380 150 227
f 376 473 418
f 418 277 376
f 277 418 250
f 250 418 403
f 208 199 175
f 185 199 208
f 175 209 208
f 210 309 208
f 208 473 376
f 309 473 208
f 181 150 156
f 181 157 150
f 182 161 181
f 161 157 181
f 465 173 320
f 465 368 173
f 154 234 387
f 330 154 387
f 438 270 149
f 149 339 438
f 438 380 227
f 227 270 438
f 459 144 331
f 459 362 144
f 349 176 401
f 401 176 248
f 244 254 427
f 427 397 244
f 223 403 311
f 223 250 403
f 311 466 223
f 223 466 369
f 251 404 222
f 222 404 315
f 244 397 371
f 371 397 468
f 318 424 256
f 256 217 318
f 316 245 220
f 398 245 316
f 337 231 147
f 384 231 337
f 377 450 353
f 377 353 224
f 382 275 416
f 229 275 382
f 174 144 167
f 154 144 174
f 167 20 174
f 20 26 174
f 168 240 393
f 329 168 393
f 391 238 170
f 391 170 327
f 446 387 234
f 446 234 263
f 431 402 249
f 249 278 431
f 229 382 179
f 179 382 346
f 419 401 248
f 248 279 419
f 297 341 340
f 340 296 297
f 417 404 251
f 417 251 276
f 369 466 417
f 276 369 417
f 247 318 217
f 400 318 247
f 469 245 398
f 469 372 245
f 428 316 220
f 220 281 428
f 428 371 468
f 281 371 428
f 372 469 405
f 252 372 405
f 252 405 246
f 246 405 399
f 246 317 218
f 246 399 317
f 400 247 280
f 280 423 400
f 218 317 367
f 317 464 367
f 423 280 367
f 367 464 423
f 320 173 202
f 202 319 320
f 256 424 394
f 394 241 256
f 319 202 394
f 394 202 241
f 442 337 147
f 147 283 442
f 456 231 384
f 359 231 456
f 359 456 284
f 284 456 443
f 156 341 452
f 452 355 156
f 381 343 180
f 381 180 228
f 326 171 243
f 243 396 326
f 396 243 410
f 410 243 261
f 368 465 406
f 406 255 368
f 238 391 366
f 391 463 366
f 407 258 366
f 366 463 407
f 411 393 240
f 411 240 264
f 360 411 264
f 457 411 360
f 360 169 328
f 328 457 360
f 386 339 149
f 149 233 386
f 282 386 233
f 437 386 282
f 348 177 226
f 226 379 348
f 347 378 225
f 225 178 347
f 225 470 373
f 378 470 225
f 467 222 315
f 467 370 222
f 467 427 254
f 254 370 467
f 215 202 173
f 173 203 215
f 215 193 186
f 215 203 193
f 455 442 283
f 455 283 358
f 455 358 230
f 230 383 455
f 362 459 262
f 459 447 262
f 460 363 172
f 460 172 322
f 460 410 261
f 261 363 460
f 255 406 395
f 395 242 255
f 322 172 395
f 172 242 395
f 146 336 357
f 336 454 357
f 441 383 230
f 230 267 441
f 441 357 454
f 267 357 441
f 458 168 329
f 458 361 168
f 458 446 263
f 263 361 458
f 392 258 407
f 392 239 258
f 328 169 392
f 169 239 392
f 472 176 349
f 472 375 176
f 472 431 278
f 278 375 472
f 379 226 413
f 413 226 272
f 373 470 413
f 413 272 373
f 353 450 414
f 414 273 353
f 347 178 414
f 178 273 414
f 274 377 224
f 274 415 377
f 471 177 348
f 471 374 177
f 471 419 279
f 279 374 471
f 440 268 453
f 453 268 356
f 453 145 332
f 453 356 145
f 235 262 447
f 235 447 388
f 332 145 235
f 235 388 332
f 412 381 228
f 228 269 412
f 355 452 412
f 412 269 355
f 180 343 351
f 343 448 351
f 416 275 351
f 351 448 416
f 462 365 237
f 237 390 462
f 385 284 443
f 385 232 284
f 385 338 148
f 148 232 385
f 148 338 354
f 338 451 354
f 437 282 354
f 354 451 437
f 236 336 146
f 236 389 336
f 236 268 440
f 440 389 236
f 327 170 259
f 259 408 327
f 365 462 259
f 259 462 408
f 409 390 237
f 237 260 409
f 76 115 123
f 62 64 76
f 76 129 53
f 118 117 76
f 95 93 76
f 53 54 76
f 113 112 76
f 87 89 76
f 76 120 128
f 67 69 76
f 133 132 76
f 128 127 76
f 82 84 76
f 76 70 72
f 76 125 133
f 76 96 95
f 76 86 87
f 76 110 118
f 117 115 76
f 108 107 76
f 57 59 76
f 76 60 62
f 76 132 130
f 130 129 76
f 76 127 125
f 91 96 76
f 76 89 91
f 76 84 86
f 72 74 76
f 76 105 113
f 123 122 76
f 102 100 76
f 76 98 108
f 76 55 57
f 59 60 76
f 76 69 70
f 76 65 67
f 76 112 110
f 76 107 105
f 122 120 76
f 76 103 102
f 100 98 76
f 77 79 76
f 76 54 55
f 76 93 103
f 76 81 82
f 76 64 65
f 79 81 76
f 352 179 346
f 346 449 352
f 415 274 352
f 352 449 415
f 364 171 326
f 326 461 364
f 364 409 260
f 461 409 364
