v 0.007821 0.018643 0.008723
v 0.007821 0.018643 0.007521
v 0.006342 0.018560 0.008563
v 0.003392 0.018304 0.008362
v -0.001037 0.016644 0.009685
v 0.007821 0.017853 0.009462
v 0.009306 0.017821 0.009434
v 0.009306 0.018542 0.008693
v 0.006342 0.018560 0.007546
v 0.009306 0.018542 0.007524
v 0.000435 0.015616 0.001152
v -0.000773 0.015594 0.001152
v -0.008504 0.015150 0.001152
v 0.003392 0.018304 0.007623
v 0.001919 0.018160 0.008238
v -0.005479 0.015500 0.010049
v 0.000435 0.016709 0.009751
v 0.000928 0.018055 0.008138
v 0.007039 0.015089 0.011058
v 0.007821 0.015089 0.011057
v 0.008597 0.015053 0.011039
v 0.009306 0.017081 0.009846
v 0.041819 0.011044 0.008395
v 0.045774 0.011026 0.007037
v 0.010784 0.018304 0.008460
v 0.010784 0.018304 0.007614
v 0.017714 0.016612 0.006466
v 0.016673 0.016734 0.006345
v 0.019260 0.015154 0.005019
v 0.045774 0.011026 0.006261
v 0.006675 0.013667 0.001152
v -0.011405 -0.006394 -0.006404
v -0.009046 0.015082 0.001152
v -0.007875 0.016579 0.006408
v 0.001919 0.018160 0.007763
v -0.006957 0.015868 0.008812
v -0.006957 0.015262 0.009813
v -0.008331 0.014335 0.010058
v -0.006957 0.014299 0.010443
v -0.005479 0.014299 0.010648
v 0.000928 0.018055 0.007927
v -0.007875 0.016579 0.006787
v -0.006957 0.016388 0.007728
v 0.007821 0.014299 0.011351
v 0.009170 0.014357 0.011246
v 0.035289 0.010633 0.009560
v 0.040341 0.009864 0.009117
v 0.043045 0.010849 0.008218
v 0.045774 0.010665 0.007228
v 0.011850 0.018120 0.008225
v 0.011850 0.018120 0.007817
v 0.045774 0.010225 0.005998
v 0.012035 0.011358 0.001152
v 0.007507 0.013393 0.001152
v -0.011405 -0.007874 -0.006096
v -0.012884 -0.007859 -0.005730
v -0.012884 -0.006394 -0.006029
v 0.016020 0.001822 -0.000813
v 0.000429 -0.013791 -0.006359
v -0.009335 0.015154 0.001725
v -0.010296 0.013985 0.001152
v -0.009446 0.015284 0.002901
v -0.008399 0.016208 0.005892
v -0.008399 0.016135 0.007302
v -0.008331 0.015385 0.008796
v -0.007771 0.015078 0.009601
v -0.009908 0.013848 0.009905
v -0.009908 0.012823 0.010596
v -0.008436 0.012823 0.010818
v -0.009446 0.015461 0.005857
v -0.009446 0.015389 0.007334
v 0.009306 0.012823 0.011493
v 0.010784 0.013938 0.011209
v 0.016193 0.012148 0.011055
v 0.039719 0.008013 0.009599
v 0.038856 0.008948 0.009518
v 0.038856 0.009864 0.009336
v 0.041819 0.009864 0.008723
v 0.043291 0.009864 0.008292
v 0.044031 0.009864 0.008061
v 0.045774 0.009864 0.007477
v 0.045774 0.009864 0.005927
v -0.001056 -0.013791 -0.006078
v -0.001056 -0.014917 -0.005603
v -0.012385 -0.008740 -0.005428
v -0.013734 -0.007358 -0.005407
v -0.013728 -0.006394 -0.005398
v -0.013647 -0.005618 -0.005279
v 0.045774 -0.009320 0.005287
v 0.045774 -0.009353 0.005287
v 0.045774 -0.010645 0.005415
v 0.045774 -0.010832 0.005454
v 0.001451 -0.014834 -0.005614
v 0.000429 -0.015061 -0.005793
v -0.010734 0.013310 0.001152
v -0.014769 0.008342 0.007209
v -0.009465 0.015392 0.004381
v -0.009348 0.015197 0.008295
v -0.010728 0.013635 0.009655
v -0.008756 0.014855 0.009282
v -0.010912 0.012823 0.009976
v -0.013765 0.009273 0.009699
v -0.014048 0.008389 0.009799
v -0.015834 0.002471 0.010382
v -0.014227 0.002507 0.010951
v -0.013666 0.002038 0.011039
v -0.011393 0.000995 0.011255
v -0.015151 0.007819 0.008439
v 0.015195 -0.012157 0.011071
v 0.019636 -0.009353 0.011093
v 0.024879 -0.010096 0.011032
v 0.038856 -0.009353 0.010820
v 0.040341 -0.009353 0.010796
v 0.040341 -0.007874 0.010776
v 0.038856 -0.003435 0.010732
v 0.038856 -0.001960 0.010696
v 0.038856 -0.000480 0.010643
v 0.038856 0.000988 0.010556
v 0.038856 0.002471 0.010407
v 0.038856 0.003951 0.010221
v 0.038856 0.005430 0.010023
v 0.039910 0.006909 0.009669
v 0.040341 0.000988 0.010188
v 0.045774 -0.009353 0.008027
v 0.040341 -0.000480 0.010331
v 0.041819 -0.007874 0.010368
v 0.041819 -0.009353 0.010473
v 0.043008 -0.009353 0.009858
v -0.001875 -0.014639 -0.005360
v 0.000429 -0.015602 -0.004493
v -0.001056 -0.015310 -0.004493
v -0.007992 -0.016176 0.002004
v -0.008898 -0.015772 0.002901
v -0.015101 -0.008635 0.006563
v -0.015095 -0.007123 0.000870
v -0.016765 -0.004460 0.000287
v -0.016882 -0.003439 0.000120
v -0.009539 -0.015032 0.002901
v -0.013703 0.007786 0.001152
v -0.016752 -0.001960 0.000408
v 0.045774 -0.011734 0.006035
v 0.013735 -0.018171 0.005857
v -0.015151 0.007819 0.007624
v -0.014713 0.008342 0.008882
v -0.016623 0.003319 0.009653
v -0.015804 0.003871 0.010011
v -0.015834 0.000995 0.010466
v -0.016666 0.002471 0.009736
v -0.016783 -0.001960 0.009948
v -0.014467 0.000995 0.010951
v -0.013721 0.000995 0.011046
v -0.012865 0.000995 0.011139
v -0.013709 -0.000134 0.011044
v -0.009908 -0.010832 0.010799
v -0.008436 -0.010832 0.010888
v 0.012256 -0.013791 0.010950
v 0.015195 -0.013791 0.010957
v 0.016673 -0.013791 0.010957
v -0.006957 -0.012312 0.010846
v 0.016673 -0.015270 0.010813
v 0.018158 -0.015270 0.010720
v 0.041819 -0.010580 0.010033
v 0.040341 -0.006394 0.010717
v 0.040341 -0.004918 0.010633
v 0.040341 -0.003435 0.010536
v 0.040341 -0.001960 0.010440
v 0.045774 -0.010136 0.008045
v 0.042910 -0.010378 0.009786
v 0.045608 -0.010342 0.008139
v -0.006957 -0.016490 0.002901
v 0.012256 -0.018218 0.005857
v -0.008159 -0.016255 0.002901
v -0.008670 -0.015725 0.004381
v -0.009569 -0.014985 0.004381
v -0.015101 -0.008635 0.006729
v -0.016838 -0.004605 0.001424
v -0.016832 -0.004572 0.001149
v -0.017073 -0.003684 0.001149
v -0.017110 -0.003439 0.001149
v -0.016974 -0.002274 0.001149
v -0.016592 -0.001202 0.000667
v -0.016648 -0.001018 0.001149
v -0.015083 0.007414 0.006636
v -0.016931 -0.001960 0.001149
v 0.045774 -0.011734 0.007022
v 0.015195 -0.017879 0.007334
v 0.013735 -0.018092 0.007334
v -0.016986 -0.001960 0.001424
v -0.016623 0.003319 0.009347
v -0.017042 -0.001960 0.002901
v -0.017159 -0.003439 0.001424
v -0.016968 -0.001960 0.008812
v -0.015834 -0.000480 0.010543
v -0.016746 -0.003439 0.009877
v -0.015834 -0.001960 0.010608
v -0.016949 -0.003439 0.008812
v -0.014263 -0.000571 0.010974
v -0.009908 -0.012312 0.010386
v -0.008436 -0.012312 0.010713
v -0.014344 -0.001960 0.010869
v -0.015834 -0.003439 0.010396
v -0.013894 -0.008945 0.009774
v 0.007821 -0.015270 0.010796
v 0.009306 -0.015270 0.010801
v -0.005479 -0.013791 0.010717
v 0.016673 -0.016501 0.010139
v 0.018158 -0.016429 0.010112
v 0.007821 -0.016508 0.010132
v 0.044776 -0.011374 0.007912
v 0.045774 -0.010475 0.007998
v 0.045774 -0.010987 0.007703
v 0.000435 -0.017006 0.007334
v 0.000435 -0.016891 0.008812
v -0.006957 -0.016328 0.004381
v 0.012256 -0.018060 0.007334
v 0.010784 -0.017959 0.007334
v 0.009306 -0.017825 0.007334
v -0.007937 -0.016133 0.004381
v -0.010691 -0.013077 0.009588
v -0.010808 -0.013199 0.008812
v -0.010875 -0.013333 0.007334
v -0.014153 -0.009151 0.008812
v -0.014892 -0.008036 0.008812
v -0.015034 -0.008303 0.007717
v -0.016654 -0.004287 0.009692
v -0.016709 -0.004395 0.008812
v -0.016734 -0.004471 0.007334
v -0.016758 -0.004518 0.005857
v -0.016808 -0.004601 0.002901
v 0.016199 -0.017569 0.008236
v 0.015195 -0.017609 0.008320
v 0.013735 -0.017612 0.008322
v 0.010784 -0.017612 0.008325
v 0.009306 -0.017598 0.008309
v -0.017122 -0.003439 0.002901
v -0.010937 -0.012312 0.009886
v -0.005362 -0.015263 0.010039
v -0.015095 -0.007166 0.009566
v 0.006342 -0.015270 0.010745
v 0.004870 -0.016458 0.010119
v 0.006342 -0.016504 0.010128
v -0.001037 -0.016328 0.009837
v 0.013735 -0.016504 0.010135
v 0.010784 -0.017244 0.009066
v 0.013735 -0.017244 0.009063
v 0.015195 -0.017241 0.009059
v 0.009306 -0.016508 0.010132
v 0.000435 -0.016396 0.009883
v -0.004795 -0.016039 0.009623
v 0.008172 -0.017551 0.008220
v -0.006403 -0.016108 0.006911
v 0.009306 -0.017248 0.009049
f 141 94 92
f 170 130 171
f 132 170 172
f 130 170 132
f 94 141 142
f 171 130 142
f 142 130 94
f 56 85 86
f 32 55 56
f 177 176 191
f 31 54 32
f 30 54 31
f 53 58 32
f 32 54 53
f 53 54 30
f 50 25 24
f 13 12 32
f 95 143 96
f 139 143 95
f 172 170 214
f 130 132 131
f 92 94 93
f 32 58 59
f 59 55 32
f 59 83 55
f 59 93 94
f 92 93 59
f 176 177 134
f 134 177 136
f 183 143 139
f 96 143 108
f 178 177 191
f 136 177 178
f 1 6 7
f 24 48 49
f 49 48 81
f 80 48 79
f 81 48 80
f 23 48 24
f 23 7 22
f 79 48 78
f 33 13 32
f 46 23 22
f 61 95 96
f 61 62 60
f 60 33 61
f 84 131 132
f 94 130 84
f 130 131 84
f 84 59 94
f 83 59 84
f 85 56 84
f 55 83 84
f 84 56 55
f 82 59 58
f 89 59 82
f 92 59 91
f 218 173 172
f 172 214 218
f 218 214 251
f 176 134 175
f 133 175 134
f 172 173 133
f 133 132 172
f 86 85 133
f 85 132 133
f 135 136 86
f 86 134 135
f 135 134 136
f 102 68 101
f 235 192 191
f 196 192 235
f 179 178 191
f 182 183 139
f 143 183 182
f 191 190 188
f 190 189 188
f 188 189 143
f 143 182 188
f 30 31 11
f 32 12 11
f 11 31 32
f 7 23 8
f 1 7 8
f 24 25 8
f 8 23 24
f 48 23 47
f 47 78 48
f 23 46 47
f 60 62 34
f 34 33 60
f 13 33 34
f 88 140 139
f 139 95 88
f 95 61 88
f 86 136 137
f 137 87 86
f 140 88 137
f 137 88 87
f 136 178 137
f 178 179 137
f 129 132 85
f 85 84 129
f 129 84 132
f 219 218 251
f 173 218 219
f 44 40 69
f 69 72 44
f 58 53 52
f 52 82 58
f 52 53 30
f 90 59 89
f 90 91 59
f 224 175 223
f 228 235 191
f 174 133 173
f 221 175 174
f 175 133 174
f 138 134 86
f 86 133 138
f 138 133 134
f 68 102 103
f 146 103 145
f 145 103 102
f 145 192 148
f 191 192 145
f 145 190 191
f 145 189 190
f 139 140 181
f 181 182 139
f 180 179 191
f 191 188 180
f 180 137 179
f 140 137 180
f 29 28 30
f 30 11 29
f 29 11 28
f 30 26 51
f 30 28 27
f 27 26 30
f 28 11 10
f 10 27 28
f 26 27 10
f 13 34 35
f 63 34 62
f 42 34 63
f 108 145 144
f 144 145 102
f 97 61 96
f 62 61 97
f 97 63 62
f 96 108 70
f 70 97 96
f 63 97 70
f 70 71 42
f 42 63 70
f 57 88 61
f 57 33 32
f 57 61 33
f 87 88 57
f 86 87 57
f 32 56 57
f 57 56 86
f 223 175 222
f 220 175 221
f 221 174 220
f 220 222 175
f 219 222 220
f 173 219 220
f 220 174 173
f 213 214 170
f 205 242 239
f 249 219 251
f 249 213 242
f 251 214 249
f 214 213 249
f 160 161 113
f 227 175 226
f 227 228 175
f 235 228 227
f 227 226 196
f 196 235 227
f 191 176 229
f 229 228 191
f 176 175 229
f 175 228 229
f 140 180 184
f 184 180 188
f 184 181 140
f 184 188 182
f 182 181 184
f 2 10 11
f 2 11 12
f 12 13 2
f 2 13 9
f 77 47 46
f 46 76 77
f 9 13 14
f 13 35 14
f 40 16 39
f 69 40 39
f 39 68 69
f 38 39 16
f 38 67 68
f 68 39 38
f 40 44 19
f 19 16 40
f 19 17 16
f 6 17 19
f 223 222 202
f 202 222 219
f 148 192 149
f 149 192 196
f 212 170 171
f 171 213 212
f 212 213 170
f 160 113 158
f 205 239 203
f 237 242 205
f 237 249 242
f 219 249 237
f 73 44 72
f 73 45 44
f 72 74 73
f 46 45 73
f 73 74 46
f 109 158 111
f 111 158 113
f 162 113 161
f 128 124 81
f 167 124 128
f 75 74 121
f 75 76 46
f 46 74 75
f 78 47 75
f 47 77 75
f 75 77 76
f 75 122 79
f 79 78 75
f 1 3 4
f 41 35 34
f 16 18 36
f 42 71 64
f 64 36 42
f 65 36 64
f 100 67 66
f 66 65 100
f 37 38 16
f 16 36 37
f 66 67 37
f 67 38 37
f 37 65 66
f 37 36 65
f 44 45 21
f 21 46 22
f 21 45 46
f 22 7 21
f 225 224 223
f 225 202 201
f 226 175 225
f 175 224 225
f 196 226 225
f 236 202 219
f 104 145 148
f 146 145 104
f 148 149 104
f 104 103 146
f 68 103 104
f 168 211 210
f 72 109 110
f 110 111 72
f 109 111 110
f 112 113 72
f 72 111 112
f 112 111 113
f 72 117 118
f 168 162 209
f 185 211 209
f 209 211 168
f 16 17 5
f 5 4 15
f 1 4 5
f 15 18 5
f 5 18 16
f 5 6 1
f 5 17 6
f 43 18 42
f 42 36 43
f 43 36 18
f 65 64 98
f 98 64 71
f 20 19 44
f 44 21 20
f 6 19 20
f 20 7 6
f 20 21 7
f 223 202 238
f 238 225 223
f 202 225 238
f 194 225 201
f 201 195 194
f 195 149 194
f 194 149 196
f 196 225 194
f 201 202 154
f 154 195 201
f 154 200 195
f 193 149 195
f 69 68 105
f 68 104 105
f 242 213 248
f 157 158 109
f 109 156 157
f 160 158 157
f 169 210 167
f 168 210 169
f 169 128 168
f 167 128 169
f 72 113 114
f 114 115 72
f 119 74 72
f 72 118 119
f 122 75 119
f 99 100 65
f 65 98 99
f 67 100 99
f 101 68 99
f 68 67 99
f 99 98 71
f 99 102 101
f 99 144 102
f 108 144 99
f 99 70 108
f 71 70 99
f 107 109 72
f 107 155 109
f 107 72 69
f 107 154 155
f 202 236 198
f 198 154 202
f 198 236 219
f 198 237 205
f 219 237 198
f 155 154 159
f 205 203 159
f 203 156 159
f 159 156 109
f 109 155 159
f 147 104 149
f 149 193 147
f 147 105 104
f 195 200 197
f 200 154 197
f 234 248 213
f 252 248 234
f 240 239 242
f 242 248 240
f 240 203 239
f 240 248 252
f 171 215 216
f 216 215 213
f 187 234 215
f 171 142 187
f 187 215 171
f 204 156 203
f 204 157 156
f 160 157 204
f 116 114 117
f 115 114 116
f 116 117 72
f 72 115 116
f 164 118 117
f 121 74 120
f 74 119 120
f 120 75 121
f 120 119 75
f 79 122 123
f 123 80 79
f 122 119 123
f 81 80 123
f 123 125 81
f 123 119 118
f 118 125 123
f 199 198 205
f 154 198 199
f 205 159 199
f 199 159 154
f 150 147 193
f 105 147 150
f 150 193 195
f 195 197 150
f 213 215 250
f 250 234 213
f 215 234 250
f 207 161 160
f 207 162 161
f 207 209 162
f 185 209 207
f 217 213 171
f 171 216 217
f 217 216 213
f 252 234 233
f 234 187 233
f 187 232 233
f 117 114 163
f 163 164 117
f 166 125 118
f 186 187 142
f 141 185 186
f 186 142 141
f 230 207 246
f 187 186 230
f 185 207 230
f 230 186 185
f 252 233 244
f 246 207 206
f 243 244 206
f 206 207 160
f 208 204 203
f 160 204 208
f 208 206 160
f 231 232 187
f 231 230 246
f 187 230 231
f 118 164 165
f 165 166 118
f 81 125 126
f 125 166 126
f 151 150 197
f 245 231 246
f 232 231 245
f 246 206 245
f 245 206 244
f 203 240 241
f 241 208 203
f 241 240 252
f 252 244 241
f 244 208 241
f 247 244 243
f 247 208 244
f 166 165 127
f 127 126 166
f 127 165 164
f 164 163 127
f 127 163 114
f 127 114 113
f 168 128 127
f 127 128 81
f 81 126 127
f 127 162 168
f 113 162 127
f 153 151 197
f 152 151 153
f 107 152 153
f 154 107 153
f 153 197 154
f 106 151 152
f 106 152 107
f 105 150 106
f 150 151 106
f 69 105 106
f 106 107 69
f 143 189 145
f 145 108 143
f 24 30 51
f 51 50 24
f 25 50 51
f 51 26 25
f 25 26 10
f 10 8 25
f 9 3 2
f 2 3 1
f 8 10 2
f 1 8 2
f 4 14 35
f 4 35 15
f 4 3 9
f 9 14 4
f 42 18 41
f 41 34 42
f 15 35 41
f 41 18 15
f 210 141 92
f 210 30 24
f 210 90 89
f 92 91 210
f 24 49 210
f 210 49 81
f 89 82 210
f 210 52 30
f 210 185 141
f 82 52 210
f 91 90 210
f 81 124 210
f 210 124 167
f 210 211 185
f 245 244 233
f 245 233 232
f 206 208 247
f 243 206 247
