v 0.117962 0.010257 -0.009080
v 0.112072 0.010257 -0.009080
v 0.116570 0.010257 -0.006616
v 0.117238 0.008539 0.005314
v 0.117858 0.008349 0.005314
v 0.129078 0.006740 -0.008929
v 0.129078 0.006757 -0.009080
v 0.108868 0.006279 -0.009080
v 0.111568 0.010257 -0.008646
v 0.116286 0.010257 -0.006220
v 0.115298 0.010257 -0.004956
v 0.114786 0.010257 -0.004410
v 0.113847 0.010257 -0.003540
v 0.108868 0.010257 -0.001512
v 0.115774 0.008563 0.005314
v 0.118529 0.008085 0.005314
v 0.128378 0.006194 -0.003669
v 0.129941 0.006259 -0.007723
v 0.130008 0.006333 -0.008929
v 0.130004 0.006335 -0.009080
v 0.108868 -0.000735 -0.009080
v 0.108868 0.010257 -0.005866
v 0.110831 0.010257 -0.007936
v 0.108868 0.006613 0.005314
v 0.109015 0.006848 0.005314
v 0.109359 0.007308 0.005314
v 0.110122 0.007944 0.005314
v 0.110399 0.008057 0.005314
v 0.111882 0.008360 0.005314
v 0.119564 0.007180 0.005314
v 0.125798 0.006385 -0.000496
v 0.127091 0.006275 -0.001919
v 0.126734 0.005432 -0.000965
v 0.127264 0.005432 -0.001705
v 0.128004 0.005432 -0.002817
v 0.128456 0.005432 -0.003556
v 0.130034 0.005168 -0.006335
v 0.129798 0.006155 -0.006737
v 0.130873 0.005231 -0.009080
v 0.130821 0.005292 -0.009021
v 0.130864 0.005242 -0.009080
v 0.111387 -0.003114 -0.009080
v 0.110265 -0.002891 -0.008484
v 0.108868 -0.003038 -0.007109
v 0.108868 0.003263 0.005314
v 0.120870 0.005222 0.005314
v 0.129885 0.001805 -0.005056
v 0.121212 0.004454 0.005314
v 0.121361 0.004021 0.005314
v 0.122628 -0.002209 0.005314
v 0.130283 0.005567 -0.007319
v 0.130955 -0.000633 -0.009080
v 0.108868 -0.004394 -0.005547
v 0.112771 -0.003762 -0.009080
v 0.108868 -0.001893 0.002508
v 0.109385 -0.004929 0.005314
v 0.129885 0.001414 -0.005056
v 0.122628 -0.002922 0.005314
v 0.130086 0.000038 -0.006286
v 0.128014 -0.006157 -0.009080
v 0.113097 -0.003900 -0.009080
v 0.114384 -0.004428 -0.009080
v 0.108868 -0.004974 -0.004441
v 0.108868 -0.003307 0.001419
v 0.109979 -0.006377 0.005314
v 0.108868 -0.004589 -0.000089
v 0.108868 -0.004762 -0.000313
v 0.108868 -0.005347 -0.001162
v 0.108868 -0.005431 -0.001343
v 0.108868 -0.005663 -0.002028
v 0.129757 0.000431 -0.005301
v 0.122620 -0.002991 0.005314
v 0.127681 -0.006325 -0.008888
v 0.127671 -0.006371 -0.009080
v 0.121711 -0.004504 0.005314
v 0.119690 -0.007454 0.005314
v 0.124490 -0.006973 -0.009080
v 0.108868 -0.005477 -0.003210
v 0.110245 -0.006945 0.005314
v 0.108868 -0.005661 -0.002519
v 0.110453 -0.007289 0.005314
v 0.118730 -0.008071 0.005314
v 0.126120 -0.006956 -0.008929
v 0.126120 -0.006956 -0.009080
v 0.124641 -0.006990 -0.009080
v 0.114846 -0.008725 0.002036
v 0.108868 -0.005593 -0.002911
v 0.113475 -0.008655 0.003548
v 0.111365 -0.007666 0.005314
v 0.113475 -0.008655 0.003741
v 0.118245 -0.008155 0.005314
v 0.116888 -0.008668 0.003734
v 0.118730 -0.008133 0.004378
v 0.125969 -0.006962 -0.009080
v 0.116888 -0.008668 0.003471
v 0.115285 -0.008725 0.002036
v 0.115783 -0.008696 0.002975
v 0.114301 -0.008688 0.003014
v 0.117279 -0.008164 0.005314
v 0.116278 -0.008668 0.003734
f 86 77 85
f 39 47 52
f 8 22 23
f 13 14 4
f 86 90 88
f 88 90 81
f 80 88 81
f 81 90 89
f 20 7 19
f 19 7 18
f 47 39 37
f 6 7 1
f 18 7 6
f 72 71 57
f 52 47 57
f 72 60 59
f 59 71 72
f 59 60 52
f 52 57 59
f 59 57 71
f 9 2 8
f 8 23 9
f 14 28 29
f 56 45 55
f 64 56 55
f 86 88 87
f 88 80 87
f 87 77 86
f 44 21 43
f 21 42 43
f 75 60 72
f 75 76 60
f 91 92 82
f 96 94 84
f 96 97 86
f 92 97 96
f 85 94 96
f 86 85 96
f 82 92 93
f 84 74 83
f 83 74 82
f 82 93 83
f 83 93 92
f 73 74 60
f 82 74 73
f 73 76 82
f 60 76 73
f 20 19 41
f 41 19 39
f 18 39 40
f 40 19 18
f 39 19 40
f 51 37 39
f 47 37 36
f 25 14 24
f 25 26 14
f 27 28 14
f 14 26 27
f 4 14 15
f 14 29 15
f 4 1 3
f 3 10 4
f 4 10 11
f 66 56 64
f 62 77 63
f 98 90 86
f 86 97 98
f 92 91 99
f 99 89 90
f 95 96 84
f 92 96 95
f 33 49 50
f 47 33 50
f 48 33 46
f 48 49 33
f 47 36 35
f 17 36 37
f 17 35 36
f 18 6 17
f 31 30 46
f 46 33 31
f 12 13 4
f 4 11 12
f 67 68 56
f 56 66 67
f 70 65 56
f 70 80 81
f 77 87 78
f 78 63 77
f 62 63 53
f 53 43 42
f 44 43 53
f 100 99 90
f 92 99 100
f 100 97 92
f 90 98 100
f 100 98 97
f 72 57 58
f 18 17 38
f 38 39 18
f 38 51 39
f 37 51 38
f 38 17 37
f 34 17 33
f 35 17 34
f 34 33 47
f 47 35 34
f 30 31 16
f 56 68 69
f 69 70 56
f 79 70 81
f 65 70 79
f 54 53 42
f 5 16 17
f 5 17 6
f 5 1 4
f 5 6 1
f 17 16 32
f 32 16 31
f 33 17 32
f 32 31 33
f 62 53 61
f 53 54 61
f 95 83 92
f 84 83 95
f 1 2 12
f 22 14 12
f 12 23 22
f 2 9 12
f 14 13 12
f 12 9 23
f 12 3 1
f 10 3 12
f 12 11 10
f 58 57 47
f 47 50 58
f 8 21 69
f 69 22 8
f 24 14 69
f 69 45 24
f 69 14 22
f 69 21 44
f 64 55 69
f 69 66 64
f 69 55 45
f 68 67 69
f 69 87 80
f 69 78 87
f 80 70 69
f 69 67 66
f 44 53 69
f 63 78 69
f 69 53 63
f 24 45 5
f 89 99 5
f 72 58 5
f 4 15 5
f 28 27 5
f 5 91 82
f 81 89 5
f 5 45 56
f 82 76 5
f 5 75 72
f 5 25 24
f 5 29 28
f 76 75 5
f 5 79 81
f 5 48 46
f 46 30 5
f 26 25 5
f 5 27 26
f 5 15 29
f 56 65 5
f 5 99 91
f 5 50 49
f 49 48 5
f 5 58 50
f 30 16 5
f 65 79 5
f 20 41 61
f 8 2 61
f 52 60 61
f 61 77 62
f 61 21 8
f 84 94 61
f 61 39 52
f 61 2 1
f 1 7 61
f 61 85 77
f 61 74 84
f 61 7 20
f 61 42 21
f 61 94 85
f 60 74 61
f 61 41 39
f 61 54 42
