v 0.092030 0.021853 -0.041216
v 0.092030 0.020122 -0.041227
v 0.092030 0.021853 -0.043691
v 0.086183 0.028589 -0.037274
v 0.078229 0.028589 -0.021272
v 0.092030 0.018743 -0.041238
v 0.092030 0.018523 -0.043540
v 0.089151 0.018743 -0.042618
v 0.090630 0.021700 -0.043228
v 0.090630 0.021853 -0.043235
v 0.086183 0.028589 -0.040364
v 0.075054 0.028589 -0.021272
v 0.077812 0.021853 -0.021272
v 0.092030 0.015772 -0.041266
v 0.092030 0.017264 -0.041251
v 0.092030 0.017264 -0.043481
v 0.092008 0.017264 -0.043474
v 0.089151 0.015772 -0.042480
v 0.089151 0.020221 -0.042682
v 0.088361 0.015772 -0.042221
v 0.089151 0.021853 -0.042748
v 0.089151 0.021700 -0.042743
v 0.085396 0.017264 -0.040775
v 0.083631 0.028589 -0.038075
v 0.088095 0.021853 -0.042348
v 0.087356 0.021853 -0.041951
v 0.086443 0.021853 -0.041211
v 0.075027 0.028589 -0.022242
v 0.075047 0.027614 -0.021272
v 0.075026 0.021853 -0.021272
v 0.079214 0.015772 -0.030950
v 0.079279 0.015773 -0.030950
v 0.092030 0.015772 -0.043404
v 0.092030 0.015800 -0.043406
v 0.090630 0.015772 -0.042958
v 0.088276 0.017264 -0.042256
v 0.087625 0.015772 -0.041936
v 0.087623 0.015785 -0.041936
v 0.088133 0.020221 -0.042320
v 0.088095 0.021700 -0.042346
v 0.088198 0.018743 -0.042289
v 0.085308 0.015772 -0.040841
v 0.080021 0.028589 -0.034832
v 0.087395 0.020221 -0.041979
v 0.087356 0.021700 -0.041958
v 0.075056 0.028589 -0.023778
v 0.075006 0.024657 -0.022242
v 0.075032 0.024657 -0.021272
v 0.075026 0.023178 -0.021272
v 0.075002 0.023178 -0.022242
v 0.075012 0.021853 -0.022242
v 0.076941 0.015776 -0.030950
v 0.077224 0.015772 -0.030950
v 0.086193 0.015772 -0.041315
v 0.087536 0.017264 -0.041958
v 0.087458 0.018743 -0.041977
v 0.081599 0.015772 -0.037200
v 0.081599 0.015785 -0.037200
v 0.080879 0.017264 -0.036438
v 0.080914 0.018743 -0.036394
v 0.079557 0.023454 -0.034792
v 0.079597 0.024657 -0.034755
v 0.079234 0.028589 -0.034116
v 0.079767 0.028589 -0.034604
v 0.075102 0.028589 -0.024463
v 0.075046 0.023178 -0.023258
v 0.075061 0.021853 -0.023179
v 0.076912 0.028589 -0.031160
v 0.077026 0.015772 -0.031114
v 0.075976 0.021853 -0.028158
v 0.076317 0.021853 -0.029460
v 0.076362 0.021853 -0.029626
v 0.076592 0.021853 -0.030353
v 0.080868 0.015772 -0.036460
v 0.080868 0.015785 -0.036460
v 0.079541 0.022468 -0.034808
v 0.078234 0.028589 -0.033133
v 0.078486 0.028589 -0.033394
v 0.075294 0.028589 -0.025547
v 0.075521 0.027614 -0.026677
v 0.075566 0.026135 -0.026677
v 0.075612 0.024657 -0.026677
v 0.076566 0.028589 -0.030423
v 0.077166 0.028589 -0.031586
v 0.077659 0.027614 -0.032402
v 0.077669 0.026135 -0.032396
v 0.076574 0.026135 -0.030399
v 0.076569 0.027614 -0.030414
v 0.077701 0.021853 -0.032356
v 0.077744 0.015772 -0.032295
v 0.075496 0.028589 -0.026677
v 0.075612 0.028589 -0.027182
v 0.075889 0.026135 -0.028158
v 0.075864 0.027614 -0.028158
v 0.075851 0.028589 -0.028158
v 0.076006 0.028589 -0.028663
v 0.076331 0.026135 -0.029635
v 0.080151 0.015772 -0.035556
v 0.079537 0.017724 -0.034814
v 0.079534 0.018743 -0.034819
v 0.079534 0.020221 -0.034819
v 0.079539 0.021700 -0.034814
v 0.078217 0.027614 -0.033140
v 0.077842 0.028589 -0.032646
v 0.076397 0.028589 -0.029901
v 0.077652 0.028589 -0.032396
v 0.078211 0.026135 -0.033133
v 0.078234 0.021853 -0.033094
v 0.076312 0.028589 -0.029635
v 0.079017 0.015772 -0.034057
v 0.079557 0.015772 -0.034797
v 0.079546 0.016738 -0.034805
f 1 4 5
f 5 13 14
f 50 49 47
f 12 28 29
f 29 28 47
f 30 49 50
f 32 14 13
f 1 5 2
f 5 6 2
f 5 14 15
f 15 6 5
f 26 11 25
f 26 27 11
f 47 28 46
f 50 47 46
f 46 66 50
f 65 66 46
f 48 47 49
f 48 29 47
f 50 66 51
f 51 30 50
f 52 30 51
f 53 30 52
f 52 69 53
f 25 11 21
f 22 39 21
f 68 69 52
f 52 51 67
f 67 51 66
f 70 52 67
f 67 66 65
f 31 32 13
f 14 32 31
f 71 52 70
f 71 72 52
f 52 72 73
f 73 68 52
f 42 59 60
f 27 26 42
f 42 44 54
f 58 42 57
f 59 42 58
f 69 68 86
f 18 17 35
f 22 21 10
f 11 3 10
f 10 21 11
f 20 8 18
f 40 56 54
f 40 44 25
f 54 44 40
f 39 56 40
f 25 21 40
f 40 21 39
f 54 56 55
f 55 56 39
f 91 92 70
f 70 80 91
f 70 67 82
f 45 42 26
f 44 42 45
f 45 26 25
f 25 44 45
f 59 58 75
f 99 86 107
f 104 107 106
f 103 107 104
f 63 42 62
f 98 99 74
f 68 84 85
f 85 86 68
f 85 84 106
f 106 107 85
f 85 107 86
f 7 16 17
f 7 8 3
f 7 17 18
f 18 8 7
f 33 35 34
f 34 35 17
f 17 16 34
f 3 8 9
f 9 10 3
f 22 10 19
f 8 20 19
f 19 9 8
f 10 9 19
f 41 55 39
f 41 39 22
f 37 54 38
f 54 55 38
f 55 41 38
f 38 20 37
f 79 91 80
f 79 67 65
f 79 80 67
f 67 80 81
f 81 82 67
f 81 80 70
f 70 82 81
f 68 73 87
f 97 73 72
f 96 109 97
f 72 96 97
f 97 87 73
f 109 87 97
f 72 71 93
f 93 94 72
f 93 71 70
f 70 92 93
f 92 94 93
f 95 96 72
f 72 94 95
f 95 94 92
f 64 42 63
f 64 43 42
f 59 75 76
f 99 107 100
f 74 99 100
f 112 98 111
f 99 98 112
f 111 110 112
f 112 110 99
f 89 110 90
f 89 90 69
f 69 86 89
f 20 38 36
f 36 38 41
f 36 19 20
f 22 19 36
f 36 41 22
f 105 87 109
f 23 24 11
f 11 27 23
f 27 42 23
f 43 24 23
f 42 43 23
f 59 76 61
f 60 59 61
f 61 42 60
f 61 62 42
f 101 107 103
f 101 100 107
f 99 110 108
f 110 89 108
f 108 86 99
f 108 89 86
f 88 105 83
f 87 105 88
f 83 68 88
f 68 87 88
f 62 61 78
f 63 62 78
f 77 76 103
f 77 61 76
f 77 78 61
f 103 104 77
f 75 101 102
f 102 76 75
f 103 76 102
f 102 101 103
f 3 11 4
f 3 4 1
f 5 12 48
f 48 13 5
f 48 30 13
f 12 29 48
f 49 30 48
f 13 30 31
f 30 53 31
f 75 57 74
f 75 58 57
f 74 57 110
f 110 33 14
f 57 42 110
f 110 54 37
f 110 35 33
f 69 90 110
f 110 53 69
f 37 20 110
f 110 31 53
f 14 31 110
f 110 42 54
f 110 98 74
f 18 35 110
f 110 20 18
f 111 98 110
f 34 3 1
f 14 33 34
f 1 2 34
f 34 15 14
f 34 2 6
f 6 15 34
f 34 7 3
f 16 7 34
f 101 75 74
f 74 100 101
f 4 11 77
f 77 5 4
f 77 12 5
f 65 46 77
f 77 104 106
f 77 28 12
f 106 84 77
f 77 46 28
f 77 64 63
f 77 68 83
f 77 95 92
f 77 79 65
f 77 84 68
f 92 91 77
f 77 109 96
f 11 24 77
f 83 105 77
f 91 79 77
f 96 95 77
f 77 24 43
f 43 64 77
f 77 105 109
f 63 78 77
