v 0.079880 0.015772 -0.031982
v 0.092030 0.015772 -0.041268
v 0.077553 0.015772 -0.031982
v 0.092030 0.005432 -0.031982
v 0.092030 0.015772 -0.043404
v 0.077357 0.011879 -0.033233
v 0.077357 0.014013 -0.031982
v 0.077742 0.015772 -0.032294
v 0.077357 0.005391 -0.036981
v 0.092030 -0.001146 -0.031982
v 0.090631 0.015772 -0.042959
v 0.092030 0.005342 -0.046423
v 0.090631 0.005430 -0.046204
v 0.089151 0.005430 -0.045794
v 0.077357 -0.006460 -0.031982
v 0.079016 0.015772 -0.034058
v 0.079558 0.015772 -0.034797
v 0.080150 0.015772 -0.035557
v 0.080868 0.015772 -0.036462
v 0.079542 0.001728 -0.040722
v 0.077357 0.003955 -0.037476
v 0.083850 -0.005570 -0.031982
v 0.092030 -0.005680 -0.039097
v 0.089164 0.015772 -0.042484
v 0.092030 -0.001961 -0.047514
v 0.088459 -0.001289 -0.046632
v 0.089151 0.003955 -0.046054
v 0.088032 0.005430 -0.045326
v 0.088261 0.006249 -0.045227
v 0.088363 0.015772 -0.042222
v 0.077357 -0.006659 -0.034071
v 0.081758 -0.006312 -0.032592
v 0.080280 -0.006295 -0.031982
v 0.081598 0.015772 -0.037202
v 0.081012 0.001755 -0.042211
v 0.080865 0.000997 -0.042322
v 0.080010 0.001140 -0.041385
v 0.079467 0.000742 -0.040839
v 0.077357 0.003439 -0.037599
v 0.083136 -0.005941 -0.031982
v 0.083333 -0.006020 -0.032499
v 0.083238 -0.006317 -0.034071
v 0.092030 -0.006576 -0.044421
v 0.092030 -0.003359 -0.047548
v 0.088271 -0.002275 -0.046690
v 0.087736 -0.001853 -0.046411
v 0.087673 -0.000483 -0.046179
v 0.087673 0.000997 -0.045939
v 0.087673 0.002475 -0.045686
v 0.087609 0.003893 -0.045414
v 0.087294 0.005430 -0.044980
v 0.087073 0.004346 -0.045097
v 0.085335 0.006249 -0.043752
v 0.086194 0.015772 -0.041315
v 0.087635 0.015772 -0.041941
v 0.077357 -0.006556 -0.035550
v 0.078801 -0.006648 -0.035550
v 0.078801 -0.006583 -0.034071
v 0.081812 -0.006194 -0.031982
v 0.080280 -0.006501 -0.034071
v 0.085310 0.015772 -0.040841
v 0.082421 0.004873 -0.042272
v 0.082237 0.003955 -0.042409
v 0.081758 0.000997 -0.042851
v 0.082670 -0.000483 -0.043587
v 0.081758 -0.000483 -0.043002
v 0.080819 -0.000483 -0.042359
v 0.080079 -0.000483 -0.041670
v 0.079387 -0.000483 -0.040931
v 0.085171 0.005430 -0.043848
v 0.077357 0.002475 -0.037797
v 0.092030 -0.006045 -0.045897
v 0.090631 -0.006370 -0.044421
v 0.092030 -0.003440 -0.047548
v 0.088271 -0.002843 -0.046690
v 0.086056 -0.001974 -0.045536
v 0.085430 -0.001159 -0.045174
v 0.086141 -0.000593 -0.045442
v 0.086888 0.003360 -0.045186
v 0.086194 0.005430 -0.044407
v 0.085318 0.015772 -0.040845
v 0.077357 -0.006018 -0.036715
v 0.085135 -0.005838 -0.042432
v 0.087673 -0.005867 -0.043964
v 0.083409 -0.000483 -0.043993
v 0.085471 -0.002474 -0.045146
v 0.080948 -0.001308 -0.042258
v 0.079410 -0.001515 -0.040884
v 0.078053 -0.002720 -0.039257
v 0.078053 -0.002606 -0.039257
v 0.077357 0.000997 -0.037983
v 0.092030 -0.005553 -0.046544
v 0.089214 -0.006023 -0.044459
v 0.090631 -0.005880 -0.045449
v 0.092030 -0.004909 -0.047004
v 0.090631 -0.004461 -0.046838
v 0.089747 -0.004251 -0.046695
v 0.090631 -0.003440 -0.047176
v 0.089213 -0.003377 -0.046803
v 0.088761 -0.003829 -0.046464
v 0.087736 -0.003377 -0.046172
v 0.086543 -0.003440 -0.045448
v 0.080787 -0.005825 -0.039411
v 0.079107 -0.005933 -0.038076
v 0.077357 -0.005076 -0.037462
v 0.078120 -0.005588 -0.037726
v 0.082469 -0.005682 -0.040745
v 0.086842 -0.005715 -0.043749
v 0.089747 -0.005720 -0.045233
v 0.077357 -0.004951 -0.037534
v 0.077357 -0.002015 -0.038177
v 0.077357 -0.003353 -0.038165
v 0.077357 -0.001412 -0.038160
v 0.077357 0.000060 -0.038054
v 0.089255 -0.004865 -0.045849
v 0.087673 -0.004446 -0.045428
v 0.086890 -0.004220 -0.045200
v 0.088762 -0.005482 -0.044977
f 1 4 2
f 31 43 58
f 3 9 6
f 8 9 3
f 19 34 35
f 32 15 31
f 31 58 32
f 7 3 6
f 29 30 14
f 5 14 11
f 16 9 8
f 16 17 9
f 18 19 9
f 9 17 18
f 61 35 34
f 22 23 10
f 40 23 22
f 60 58 43
f 43 32 60
f 60 32 58
f 43 23 42
f 42 32 43
f 23 32 42
f 53 61 81
f 81 54 53
f 53 54 29
f 14 30 24
f 24 11 14
f 67 87 88
f 67 88 68
f 68 88 69
f 12 25 13
f 5 12 13
f 13 14 5
f 13 25 26
f 15 32 33
f 32 59 33
f 40 59 41
f 41 23 40
f 41 32 23
f 41 59 32
f 45 25 44
f 26 25 45
f 43 73 72
f 72 73 93
f 56 73 43
f 30 29 55
f 29 54 55
f 35 61 62
f 61 53 62
f 9 19 20
f 19 35 20
f 14 13 27
f 27 13 26
f 92 97 95
f 115 92 109
f 115 97 92
f 92 72 94
f 109 92 94
f 31 56 57
f 57 43 31
f 57 56 43
f 93 73 84
f 73 56 84
f 109 94 84
f 84 72 93
f 84 94 72
f 35 62 63
f 63 62 53
f 9 20 21
f 69 71 38
f 51 53 29
f 101 75 100
f 100 75 97
f 26 45 46
f 86 66 65
f 86 87 67
f 67 66 86
f 83 56 82
f 83 84 56
f 118 115 109
f 87 86 110
f 111 113 90
f 91 71 69
f 69 90 91
f 39 21 20
f 39 38 71
f 20 38 39
f 36 20 35
f 67 68 36
f 36 68 69
f 36 66 67
f 64 65 36
f 65 66 36
f 35 63 36
f 36 63 53
f 36 70 64
f 53 70 36
f 80 70 53
f 53 51 80
f 64 70 80
f 28 29 14
f 28 51 29
f 14 27 28
f 96 74 95
f 96 95 97
f 97 74 96
f 75 74 98
f 98 74 97
f 50 28 27
f 45 75 76
f 76 46 45
f 77 46 76
f 75 86 76
f 65 77 76
f 76 86 65
f 107 83 103
f 82 106 103
f 103 106 107
f 107 106 117
f 101 100 117
f 117 100 97
f 105 106 82
f 89 110 112
f 112 111 89
f 89 111 90
f 87 110 89
f 89 88 87
f 69 88 89
f 89 90 69
f 90 113 114
f 114 91 90
f 37 38 20
f 20 36 37
f 69 38 37
f 37 36 69
f 97 75 99
f 99 98 97
f 75 98 99
f 26 46 47
f 104 83 82
f 82 103 104
f 104 103 83
f 108 83 107
f 107 117 108
f 84 83 108
f 109 84 108
f 108 118 109
f 115 118 108
f 102 117 106
f 106 105 102
f 101 117 102
f 102 105 110
f 102 110 86
f 102 75 101
f 102 86 75
f 64 79 85
f 85 79 77
f 85 65 64
f 85 77 65
f 64 80 52
f 52 79 64
f 52 80 51
f 51 28 52
f 28 50 52
f 50 79 52
f 48 27 26
f 26 47 48
f 48 79 50
f 48 47 79
f 77 79 78
f 79 47 78
f 78 46 77
f 78 47 46
f 115 108 116
f 116 108 117
f 97 115 116
f 116 117 97
f 49 50 27
f 27 48 49
f 49 48 50
f 10 4 33
f 4 1 33
f 33 7 15
f 33 22 10
f 1 3 33
f 3 7 33
f 40 22 33
f 33 59 40
f 2 5 55
f 8 3 55
f 55 1 2
f 81 61 55
f 19 18 55
f 55 3 1
f 5 11 55
f 55 34 19
f 55 16 8
f 55 54 81
f 17 16 55
f 55 18 17
f 55 61 34
f 55 24 30
f 11 24 55
f 74 5 2
f 2 4 74
f 74 4 10
f 10 23 74
f 43 72 74
f 74 12 5
f 74 23 43
f 44 25 74
f 74 25 12
f 74 72 92
f 92 95 74
f 74 45 44
f 74 75 45
f 31 15 114
f 114 7 6
f 6 9 114
f 112 110 114
f 15 7 114
f 9 21 114
f 114 56 31
f 82 56 114
f 114 111 112
f 71 91 114
f 114 39 71
f 113 111 114
f 114 105 82
f 21 39 114
f 110 105 114
