v 0.108331 0.004944 0.005314
v 0.108338 0.005431 0.005314
v 0.109384 -0.004930 0.005314
v 0.107421 0.005431 0.006327
v 0.108079 0.005431 0.005587
v 0.108625 0.006101 0.005314
v 0.106022 0.006505 0.007919
v 0.107480 0.006434 0.006443
v 0.109978 -0.006376 0.005314
v 0.109045 -0.005837 0.006475
v 0.100123 -0.005819 0.021178
v 0.107615 -0.004275 0.008032
v 0.101624 0.007459 0.013858
v 0.106022 0.005954 0.007919
v 0.108804 0.006514 0.005314
v 0.106284 0.007491 0.008326
v 0.106882 0.006961 0.007352
v 0.101624 0.007731 0.013858
v 0.107803 0.007418 0.006785
v 0.109014 0.006849 0.005314
v 0.110246 -0.006948 0.005314
v 0.109252 -0.006822 0.006829
v 0.098563 -0.005875 0.023927
v 0.108962 -0.007281 0.007814
v 0.100245 0.007646 0.016911
v 0.107271 0.007811 0.007773
v 0.108788 0.007867 0.006313
v 0.103035 0.007750 0.012280
v 0.100245 0.007651 0.016911
v 0.101301 0.007799 0.014734
v 0.111876 0.008360 0.005314
v 0.109353 0.007314 0.005324
v 0.109360 0.007309 0.005314
v 0.110453 -0.007289 0.005314
v 0.100505 -0.006869 0.022124
v 0.100330 -0.007090 0.023601
v 0.098563 -0.005875 0.024644
v 0.098563 -0.005390 0.023927
v 0.110286 -0.007439 0.005862
v 0.101541 -0.007274 0.021101
v 0.109850 0.008037 0.005835
v 0.110402 0.008057 0.005314
v 0.110121 0.007943 0.005314
v 0.099946 0.006692 0.020646
v 0.099899 0.006651 0.022124
v 0.100245 0.007651 0.016959
v 0.100853 0.007804 0.016335
v 0.102465 0.008011 0.017685
v 0.117248 0.008746 0.005860
v 0.115768 0.008562 0.005314
v 0.111360 -0.007667 0.005314
v 0.101244 -0.007401 0.022124
v 0.100432 -0.006995 0.025079
v 0.101070 -0.007449 0.023601
v 0.101171 -0.007420 0.025079
v 0.099949 -0.005997 0.026104
v 0.099878 0.005431 0.026342
v 0.098563 -0.005390 0.024644
v 0.101402 -0.007315 0.026132
v 0.099600 0.005431 0.025079
v 0.109791 -0.007619 0.007329
v 0.099918 0.006577 0.023604
v 0.100698 0.007241 0.025079
v 0.101437 0.007819 0.025079
v 0.101386 0.007833 0.023604
v 0.100896 0.007813 0.017544
v 0.099963 0.006502 0.025079
v 0.102465 0.008069 0.023604
v 0.118393 0.008081 0.007340
v 0.118624 0.008205 0.005860
v 0.117858 0.008350 0.005314
v 0.117234 0.008540 0.005314
v 0.103942 0.008117 0.023604
v 0.103942 0.008032 0.025079
v 0.105424 0.007981 0.025079
v 0.106302 0.007739 0.026055
v 0.111332 -0.007769 0.005862
v 0.117274 -0.008163 0.005314
v 0.109860 -0.007928 0.008818
v 0.110585 -0.008622 0.012447
v 0.102465 -0.007757 0.025079
v 0.100938 -0.006477 0.026610
v 0.101930 -0.006956 0.027119
v 0.101461 -0.005970 0.027545
v 0.101492 0.006350 0.027438
v 0.100076 0.006367 0.026076
v 0.102985 -0.005844 0.028942
v 0.102985 -0.005259 0.028942
v 0.102439 -0.007510 0.026599
v 0.102915 -0.007313 0.027487
v 0.101553 0.007755 0.025997
v 0.102465 0.008015 0.025079
v 0.119132 0.007214 0.007340
v 0.119361 0.007505 0.005860
v 0.107681 0.007676 0.024392
v 0.110649 0.007687 0.019987
v 0.113603 0.007690 0.015553
v 0.116553 0.007685 0.011103
v 0.118134 0.007806 0.008321
v 0.118527 0.008086 0.005314
v 0.119564 0.007182 0.005314
v 0.103942 0.007828 0.026559
v 0.105322 0.007777 0.026552
v 0.104764 0.007668 0.027383
v 0.105749 0.007476 0.027040
v 0.106851 0.006900 0.026520
v 0.118240 -0.008155 0.005314
v 0.110616 -0.008622 0.012447
v 0.110585 -0.008622 0.012613
v 0.103944 -0.007622 0.026559
v 0.110616 -0.008622 0.012613
v 0.102599 0.006869 0.027619
v 0.103183 0.007658 0.027313
v 0.102196 0.007336 0.026983
v 0.101028 0.006850 0.026529
v 0.104651 0.006203 0.028784
v 0.103944 -0.007301 0.027478
v 0.103944 -0.006551 0.028218
v 0.103944 -0.005812 0.028911
v 0.103944 -0.005336 0.028911
v 0.104698 0.006203 0.028784
v 0.102599 0.007782 0.026518
v 0.119516 0.006235 0.008166
v 0.119651 0.006475 0.007340
v 0.120303 0.005431 0.007340
v 0.120871 0.005223 0.005314
v 0.107789 0.006325 0.026004
v 0.108034 0.006854 0.024964
v 0.109450 0.006558 0.023319
v 0.111019 0.006877 0.020544
v 0.110760 0.006362 0.021633
v 0.116871 0.006854 0.011668
v 0.117931 0.006099 0.010948
v 0.118240 0.006481 0.009961
v 0.118678 0.006850 0.008737
v 0.113961 0.006869 0.016113
v 0.115014 0.006152 0.015451
v 0.103942 0.007671 0.027371
v 0.105223 0.006838 0.027952
v 0.106413 0.006490 0.027535
v 0.118727 -0.008071 0.005314
v 0.118727 -0.008036 0.005862
v 0.107803 -0.007226 0.024651
v 0.106406 -0.007187 0.026030
v 0.105377 -0.007288 0.026539
v 0.104854 -0.007180 0.027348
v 0.111332 -0.008207 0.014734
v 0.104703 -0.005678 0.028791
v 0.104703 -0.005628 0.028791
v 0.119224 0.005871 0.009154
v 0.119622 0.004885 0.009803
v 0.119827 0.005400 0.008723
v 0.120859 0.004468 0.007340
v 0.121210 0.004455 0.005314
v 0.110842 0.004992 0.023139
v 0.112166 0.004802 0.021520
v 0.110437 0.005978 0.022618
v 0.111825 0.005881 0.020646
v 0.112395 0.006546 0.018913
v 0.118009 0.004717 0.012546
v 0.115358 0.005106 0.016214
v 0.112456 0.005142 0.020646
v 0.113792 0.004984 0.018802
v 0.115092 0.004769 0.017049
v 0.106413 0.005936 0.027535
v 0.119686 -0.007454 0.005314
v 0.119662 -0.007429 0.005862
v 0.108041 -0.006397 0.024897
v 0.107419 -0.006397 0.025637
v 0.106208 -0.005815 0.027346
v 0.105841 -0.006801 0.027017
v 0.119483 -0.007157 0.006626
v 0.115083 -0.005703 0.015558
v 0.112147 -0.005749 0.020005
v 0.119309 0.004263 0.010789
v 0.120555 0.003953 0.008793
v 0.121024 0.003462 0.008282
v 0.121111 0.003729 0.007340
v 0.121361 0.004023 0.005314
v 0.110842 0.004344 0.023139
v 0.112251 0.003953 0.021594
v 0.113584 0.003370 0.019956
v 0.113474 0.004356 0.019788
v 0.119486 0.003277 0.011068
v 0.121710 -0.004505 0.005314
v 0.121425 -0.004855 0.005862
v 0.121191 -0.004552 0.007340
v 0.120628 -0.005292 0.007340
v 0.110790 -0.005909 0.021642
v 0.113584 0.003187 0.019956
v 0.120986 -0.004239 0.008138
v 0.119738 0.003843 0.010296
v 0.121078 0.002474 0.008353
v 0.122628 -0.002209 0.005314
v 0.116536 0.003319 0.015518
v 0.119486 0.003195 0.011068
v 0.121109 0.000995 0.008307
v 0.122617 -0.002991 0.005314
v 0.122607 -0.002985 0.005361
v 0.116536 0.003188 0.015518
v 0.121109 -0.000482 0.008263
v 0.122607 -0.002232 0.005361
v 0.122628 -0.002925 0.005314
f 23 36 37
f 35 36 23
f 58 37 57
f 88 57 87
f 57 88 85
f 91 63 86
f 57 85 86
f 83 90 87
f 49 50 31
f 49 71 72
f 72 50 49
f 126 153 154
f 91 86 115
f 115 86 85
f 115 114 91
f 85 114 115
f 9 10 3
f 12 13 3
f 36 35 52
f 57 37 56
f 90 83 59
f 59 56 37
f 148 119 146
f 142 143 147
f 147 111 142
f 49 73 74
f 49 31 48
f 179 177 194
f 154 153 179
f 194 177 193
f 193 177 184
f 23 13 11
f 11 13 12
f 12 3 11
f 11 3 10
f 11 10 9
f 25 13 23
f 14 3 13
f 60 38 58
f 60 58 57
f 57 86 60
f 64 63 91
f 64 46 63
f 167 143 142
f 167 172 143
f 194 193 202
f 173 191 174
f 174 143 173
f 143 172 173
f 187 191 188
f 188 167 187
f 172 167 188
f 188 173 172
f 191 173 188
f 87 57 84
f 57 56 84
f 84 83 87
f 84 56 83
f 53 37 36
f 53 59 37
f 83 56 82
f 82 59 83
f 56 59 82
f 36 52 54
f 90 59 89
f 168 143 174
f 180 181 155
f 180 170 181
f 118 146 119
f 118 119 87
f 110 147 143
f 111 147 110
f 90 89 110
f 143 170 171
f 171 170 148
f 148 146 171
f 74 102 75
f 49 74 75
f 95 128 129
f 29 46 47
f 184 177 192
f 184 192 175
f 176 151 175
f 175 177 176
f 175 192 177
f 124 94 93
f 153 177 178
f 178 179 153
f 177 179 178
f 41 31 42
f 28 16 18
f 28 26 16
f 28 41 26
f 18 31 28
f 31 41 28
f 27 41 42
f 26 41 27
f 16 26 27
f 29 38 44
f 38 60 44
f 92 74 73
f 92 64 91
f 92 102 74
f 197 202 193
f 197 193 184
f 195 183 182
f 195 184 183
f 191 200 190
f 174 191 190
f 190 170 174
f 182 181 190
f 181 170 190
f 196 200 191
f 196 191 201
f 201 197 196
f 196 197 184
f 51 39 34
f 40 52 35
f 79 52 61
f 61 39 51
f 52 40 61
f 61 40 39
f 107 141 142
f 142 111 107
f 51 78 77
f 79 61 77
f 77 61 51
f 81 89 59
f 111 110 81
f 81 110 89
f 120 121 88
f 116 85 88
f 88 121 116
f 112 85 116
f 121 104 116
f 174 170 189
f 189 168 174
f 170 168 189
f 169 170 143
f 143 168 169
f 169 168 170
f 146 110 145
f 90 110 117
f 117 110 146
f 146 118 117
f 87 90 117
f 117 118 87
f 143 171 144
f 144 171 146
f 146 145 144
f 144 110 143
f 144 145 110
f 131 129 157
f 101 94 126
f 70 71 49
f 94 101 70
f 18 29 30
f 29 47 30
f 30 31 18
f 30 48 31
f 30 47 48
f 93 99 123
f 123 124 93
f 7 8 2
f 18 16 7
f 43 27 42
f 16 27 19
f 45 46 29
f 29 44 45
f 45 44 60
f 64 92 68
f 48 47 68
f 68 92 73
f 68 73 49
f 49 48 68
f 166 185 167
f 142 141 166
f 166 167 142
f 187 167 186
f 167 185 186
f 185 198 186
f 186 198 187
f 22 11 9
f 23 11 24
f 24 35 23
f 11 22 24
f 24 22 34
f 24 34 39
f 24 40 35
f 39 40 24
f 78 107 108
f 108 107 111
f 55 81 59
f 54 81 55
f 59 53 55
f 55 53 36
f 36 54 55
f 121 120 149
f 149 140 121
f 103 75 102
f 102 104 103
f 91 114 113
f 113 85 112
f 113 114 85
f 112 116 113
f 139 140 105
f 121 140 139
f 105 104 139
f 139 104 121
f 148 170 165
f 170 180 165
f 127 128 95
f 127 140 155
f 127 129 128
f 157 129 127
f 105 140 106
f 106 127 95
f 140 127 106
f 95 129 96
f 69 70 49
f 69 99 93
f 95 96 69
f 98 99 69
f 93 94 69
f 94 70 69
f 71 70 100
f 100 70 101
f 135 123 99
f 135 99 98
f 98 134 135
f 152 123 151
f 152 151 176
f 176 177 152
f 152 177 153
f 124 123 125
f 153 126 125
f 125 152 153
f 123 152 125
f 126 94 125
f 94 124 125
f 98 137 132
f 164 137 163
f 183 184 164
f 184 175 164
f 98 131 136
f 136 137 98
f 163 137 162
f 2 8 6
f 8 15 6
f 20 15 8
f 8 19 20
f 2 1 5
f 5 7 2
f 32 43 33
f 27 43 32
f 32 19 27
f 33 20 32
f 32 20 19
f 8 7 17
f 17 19 8
f 17 7 16
f 16 19 17
f 63 46 67
f 67 86 63
f 67 60 86
f 66 68 47
f 66 47 46
f 199 197 201
f 202 197 199
f 201 191 199
f 199 191 187
f 187 198 199
f 21 22 9
f 34 22 21
f 80 77 78
f 78 108 80
f 79 77 80
f 80 52 79
f 80 54 52
f 80 81 54
f 49 75 76
f 75 103 76
f 76 69 49
f 95 69 76
f 76 106 95
f 105 106 76
f 76 104 105
f 76 103 104
f 102 92 122
f 122 113 102
f 122 92 91
f 91 113 122
f 138 116 104
f 138 113 116
f 138 104 102
f 102 113 138
f 97 131 98
f 98 69 97
f 97 69 96
f 129 131 130
f 130 96 129
f 131 97 130
f 130 97 96
f 151 123 150
f 123 135 150
f 150 134 151
f 150 135 134
f 133 132 137
f 151 134 133
f 133 134 98
f 98 132 133
f 159 136 131
f 137 136 159
f 158 162 137
f 158 159 131
f 137 159 158
f 158 131 157
f 157 162 158
f 156 162 157
f 156 127 155
f 157 127 156
f 155 181 156
f 163 162 156
f 182 183 156
f 156 181 182
f 183 164 156
f 156 164 163
f 14 7 4
f 7 5 4
f 4 5 1
f 4 1 3
f 3 14 4
f 46 45 62
f 62 67 46
f 62 45 60
f 60 67 62
f 64 68 65
f 68 66 65
f 46 64 65
f 65 66 46
f 203 199 198
f 111 81 109
f 81 80 109
f 137 164 161
f 161 133 137
f 151 133 160
f 133 161 160
f 160 161 164
f 160 175 151
f 160 164 175
f 37 58 38
f 23 37 38
f 23 38 25
f 25 38 29
f 25 29 18
f 18 13 25
f 200 195 190
f 190 195 182
f 196 195 200
f 184 195 196
f 87 119 120
f 120 88 87
f 7 13 18
f 7 14 13
f 149 120 119
f 149 119 148
f 165 149 148
f 140 149 165
f 165 180 155
f 155 140 165
f 203 166 141
f 141 107 203
f 203 1 2
f 9 3 203
f 42 31 203
f 203 72 71
f 203 179 194
f 203 31 50
f 50 72 203
f 203 126 154
f 203 20 33
f 71 100 203
f 154 179 203
f 203 21 9
f 203 78 51
f 3 1 203
f 203 43 42
f 51 34 203
f 203 107 78
f 203 101 126
f 2 6 203
f 33 43 203
f 185 166 203
f 203 198 185
f 203 100 101
f 203 6 15
f 15 20 203
f 34 21 203
f 194 202 203
f 202 199 203
f 109 80 108
f 109 108 111
