v 0.104350 -0.005928 -0.001252
v 0.101555 -0.001177 -0.008939
v 0.101555 -0.001172 -0.010408
v 0.104350 -0.005925 -0.001529
v 0.108865 -0.005660 -0.002522
v 0.108865 -0.005662 -0.002030
v 0.107755 -0.005680 -0.000681
v 0.104350 -0.005855 -0.000205
v 0.104350 -0.005767 -0.000006
v 0.104350 -0.005504 0.000432
v 0.104350 -0.004919 0.001326
v 0.104350 -0.003431 0.002960
v 0.104350 -0.002530 0.003630
v 0.104350 -0.002074 0.003705
v 0.104350 -0.001570 0.003775
v 0.104350 -0.001255 0.003792
v 0.104350 0.002997 0.003945
v 0.101555 0.005236 -0.008939
v 0.101555 -0.001136 -0.011889
v 0.104350 -0.005808 -0.003031
v 0.109929 -0.003760 -0.036949
v 0.106898 -0.005694 -0.004065
v 0.107736 -0.005672 -0.003871
v 0.101555 -0.001053 -0.014802
v 0.113545 -0.003823 -0.033316
v 0.108865 -0.005429 -0.001347
v 0.108742 -0.005507 -0.001289
v 0.113545 -0.003433 -0.031541
v 0.113545 -0.000697 -0.021856
v 0.108286 -0.004983 -0.000118
v 0.106898 -0.005409 0.000192
v 0.107831 -0.004459 0.000792
v 0.108865 -0.003306 0.001417
v 0.108865 -0.001891 0.002505
v 0.108865 0.003260 0.005310
v 0.108705 0.003481 0.005310
v 0.108514 0.003973 0.005310
v 0.108328 0.004941 0.005310
v 0.104350 0.003952 0.003945
v 0.101555 0.005577 -0.010478
v 0.104350 0.004531 0.003916
v 0.104350 0.005428 0.003808
v 0.104350 0.005803 0.003759
v 0.104350 0.006237 0.003664
v 0.104350 0.010257 0.001185
v 0.101555 -0.000363 -0.021856
v 0.104350 -0.005707 -0.003924
v 0.106151 -0.004181 -0.025948
v 0.108505 -0.003541 -0.036949
v 0.111407 -0.003572 -0.036949
v 0.113545 -0.003555 -0.034814
v 0.108865 -0.005346 -0.001169
v 0.108865 -0.004763 -0.000317
v 0.113545 0.005615 -0.021856
v 0.108865 -0.004586 -0.000093
v 0.108865 0.006612 0.005310
v 0.108337 0.005428 0.005310
v 0.101555 0.005796 -0.011889
v 0.108623 0.006098 0.005310
v 0.108801 0.006512 0.005310
v 0.104350 0.010257 -0.003453
v 0.101555 0.005817 -0.012369
v 0.104950 0.010257 0.000842
v 0.108378 0.011363 -0.025195
v 0.106900 0.011400 -0.025195
v 0.105421 0.011077 -0.025195
v 0.104628 0.010681 -0.025195
v 0.101555 0.005308 -0.021856
v 0.104008 -0.001425 -0.036949
v 0.107073 -0.003260 -0.036949
v 0.113545 -0.003111 -0.036949
v 0.113545 -0.003256 -0.036254
v 0.113545 0.010256 -0.032270
v 0.108865 0.010257 -0.001516
v 0.107660 0.010257 -0.000784
v 0.113545 0.010256 -0.036949
v 0.109575 0.010256 -0.036949
v 0.106900 0.011253 -0.026676
v 0.105464 0.010878 -0.026577
v 0.104643 0.010661 -0.026018
v 0.104008 0.007703 -0.033449
v 0.104008 0.005786 -0.036949
f 65 45 64
f 73 76 64
f 64 76 65
f 73 64 74
f 10 11 2
f 73 74 54
f 67 80 68
f 62 67 68
f 7 6 27
f 28 6 25
f 29 6 28
f 45 18 44
f 53 29 55
f 29 33 55
f 11 10 31
f 56 54 74
f 45 44 56
f 65 78 66
f 80 67 66
f 66 45 65
f 66 67 45
f 80 66 79
f 79 66 78
f 40 18 45
f 45 67 61
f 61 62 45
f 67 62 61
f 53 27 52
f 52 29 53
f 1 6 7
f 69 48 47
f 47 46 69
f 30 55 33
f 30 31 7
f 53 55 30
f 7 27 30
f 30 27 53
f 2 11 12
f 12 13 2
f 11 31 12
f 15 16 2
f 35 13 34
f 34 29 35
f 34 33 29
f 34 12 33
f 13 12 34
f 45 56 63
f 63 64 45
f 60 56 44
f 25 21 50
f 70 48 69
f 57 39 38
f 16 15 38
f 38 15 37
f 77 79 78
f 80 79 77
f 65 76 77
f 77 78 65
f 45 62 58
f 58 40 45
f 26 27 6
f 26 52 27
f 26 6 29
f 29 52 26
f 8 1 7
f 7 31 8
f 2 1 8
f 4 23 5
f 6 1 5
f 5 1 4
f 25 6 5
f 5 23 25
f 4 21 22
f 22 23 4
f 22 21 25
f 25 23 22
f 20 47 48
f 48 21 20
f 20 21 4
f 4 24 20
f 20 24 46
f 46 47 20
f 3 1 2
f 4 1 3
f 2 16 17
f 16 38 17
f 17 38 39
f 33 12 32
f 32 12 31
f 32 30 33
f 31 30 32
f 2 13 14
f 14 15 2
f 14 13 35
f 35 15 14
f 36 15 35
f 37 15 36
f 75 56 74
f 75 63 56
f 75 74 64
f 64 63 75
f 25 50 51
f 49 21 48
f 48 70 49
f 81 77 82
f 80 77 81
f 81 82 68
f 68 80 81
f 9 31 10
f 9 8 31
f 9 10 2
f 2 8 9
f 19 24 4
f 4 3 19
f 43 44 18
f 18 42 43
f 43 60 44
f 43 42 57
f 18 39 41
f 41 42 18
f 41 39 57
f 57 42 41
f 72 50 71
f 72 51 50
f 59 43 57
f 60 43 59
f 82 46 68
f 69 46 82
f 29 54 56
f 35 29 56
f 17 18 2
f 17 39 18
f 76 71 49
f 69 82 49
f 49 70 69
f 71 50 49
f 49 50 21
f 49 77 76
f 82 77 49
f 68 46 19
f 18 40 19
f 2 18 19
f 19 62 68
f 19 58 62
f 46 24 19
f 40 58 19
f 19 3 2
f 73 54 72
f 72 28 25
f 72 76 73
f 72 54 29
f 72 71 76
f 29 28 72
f 25 51 72
f 35 56 59
f 57 38 59
f 59 36 35
f 56 60 59
f 59 38 37
f 37 36 59
