v 0.104522 0.026293 -0.043587
v 0.104522 0.026293 -0.041724
v 0.104522 0.028187 -0.043555
v 0.105954 0.010257 -0.043751
v 0.104522 0.028187 -0.041396
v 0.105954 0.010257 -0.039151
v 0.105422 0.028187 -0.043357
v 0.106167 0.012200 -0.043684
v 0.105954 0.012386 -0.043710
v 0.106234 0.010257 -0.043706
v 0.115687 0.028187 -0.030840
v 0.114739 0.010257 -0.030580
v 0.106330 0.028187 -0.043137
v 0.106973 0.010257 -0.043447
v 0.106781 0.010257 -0.043515
v 0.106902 0.028187 -0.042987
v 0.119519 0.028187 -0.030840
v 0.116017 0.022648 -0.030580
v 0.119398 0.010257 -0.030580
v 0.108380 0.010257 -0.042761
v 0.107614 0.028187 -0.042676
v 0.108063 0.027614 -0.042481
v 0.108130 0.024657 -0.042522
v 0.119288 0.028187 -0.031414
v 0.119754 0.022648 -0.030580
v 0.119531 0.027732 -0.030840
v 0.119295 0.027614 -0.031433
v 0.116584 0.010257 -0.036428
v 0.119597 0.014736 -0.030580
v 0.113557 0.010257 -0.039584
v 0.108175 0.022648 -0.042551
v 0.108230 0.020219 -0.042583
v 0.108050 0.028187 -0.042472
v 0.113424 0.027614 -0.039166
v 0.119094 0.028187 -0.031882
v 0.119767 0.021435 -0.030580
v 0.119658 0.022648 -0.030795
v 0.119256 0.026293 -0.031598
v 0.119310 0.026293 -0.031474
v 0.119568 0.026293 -0.030840
v 0.119685 0.020219 -0.030763
v 0.119677 0.018743 -0.030723
v 0.119746 0.018548 -0.030580
v 0.119698 0.017135 -0.030580
v 0.119640 0.015729 -0.030580
v 0.115890 0.010257 -0.037436
v 0.116583 0.028187 -0.036438
v 0.118050 0.028187 -0.034007
v 0.118217 0.028187 -0.033722
v 0.119309 0.022648 -0.031535
v 0.113809 0.010257 -0.039428
v 0.113410 0.028187 -0.039157
v 0.114290 0.028187 -0.038612
v 0.118779 0.028187 -0.032593
v 0.119771 0.019980 -0.030580
v 0.119445 0.022648 -0.031269
v 0.115345 0.010257 -0.038079
v 0.115329 0.017263 -0.038095
v 0.116060 0.028187 -0.037177
v 0.118567 0.028187 -0.033041
v 0.115345 0.021698 -0.038043
v 0.115341 0.020219 -0.038063
v 0.114549 0.010257 -0.038818
v 0.115320 0.028187 -0.037958
v 0.115327 0.027614 -0.037966
v 0.115338 0.026293 -0.037984
v 0.115345 0.024657 -0.038006
v 0.115347 0.023178 -0.038024
v 0.115139 0.010257 -0.038273
v 0.115335 0.018743 -0.038081
f 18 11 12
f 5 6 12
f 12 11 5
f 5 2 6
f 64 51 53
f 59 47 46
f 46 47 28
f 3 4 1
f 34 53 51
f 19 28 29
f 43 44 28
f 60 50 49
f 49 50 28
f 56 50 60
f 39 35 27
f 54 56 60
f 40 25 39
f 39 27 40
f 52 34 33
f 53 34 52
f 33 34 22
f 22 21 33
f 58 63 70
f 58 46 57
f 58 70 59
f 59 46 58
f 59 67 66
f 66 67 51
f 30 34 51
f 30 22 34
f 8 13 16
f 7 13 8
f 8 3 7
f 8 10 4
f 28 44 45
f 45 29 28
f 42 43 28
f 28 47 48
f 48 49 28
f 55 56 36
f 41 56 55
f 50 56 41
f 28 50 41
f 41 42 28
f 55 43 41
f 43 42 41
f 17 27 24
f 24 27 35
f 38 54 35
f 38 35 39
f 56 54 38
f 39 25 38
f 17 25 26
f 25 40 26
f 26 27 17
f 26 40 27
f 21 22 14
f 16 21 14
f 14 8 16
f 69 58 57
f 63 58 69
f 64 59 65
f 59 66 65
f 65 51 64
f 65 66 51
f 51 67 68
f 68 61 51
f 68 67 59
f 59 61 68
f 62 63 51
f 51 61 62
f 70 63 62
f 59 70 62
f 62 61 59
f 32 30 20
f 20 31 32
f 31 30 32
f 23 30 31
f 22 30 23
f 23 14 22
f 20 14 23
f 23 31 20
f 4 3 9
f 9 8 4
f 3 8 9
f 25 36 37
f 37 36 56
f 37 38 25
f 56 38 37
f 10 8 15
f 8 14 15
f 4 6 2
f 1 4 2
f 1 2 3
f 2 5 3
f 25 17 11
f 11 18 25
f 12 19 36
f 19 29 36
f 36 18 12
f 36 45 44
f 36 25 18
f 36 43 55
f 44 43 36
f 29 45 36
f 33 21 24
f 11 17 24
f 24 5 11
f 24 59 64
f 24 47 59
f 16 13 24
f 64 53 24
f 24 3 5
f 24 21 16
f 24 54 60
f 24 48 47
f 7 3 24
f 24 13 7
f 60 49 24
f 24 52 33
f 35 54 24
f 53 52 24
f 49 48 24
f 12 6 15
f 15 6 4
f 15 19 12
f 15 28 19
f 57 46 15
f 15 14 20
f 4 10 15
f 15 46 28
f 51 63 15
f 15 30 51
f 20 30 15
f 15 69 57
f 63 69 15
