v 0.012253 -0.004538 -0.002452
v 0.013361 -0.005144 -0.002452
v 0.012253 -0.004687 -0.004493
v 0.011451 -0.004581 -0.002452
v 0.013817 -0.006398 -0.002452
v 0.013820 -0.006398 -0.003015
v 0.013820 -0.006398 -0.004493
v 0.013336 -0.005280 -0.004493
v 0.012253 -0.005177 -0.005727
v 0.010775 -0.005259 -0.005627
v 0.010775 -0.004850 -0.004493
v 0.010775 -0.004655 -0.002452
v 0.013221 -0.005406 -0.005536
v 0.013492 -0.007877 -0.003015
v 0.013485 -0.007877 -0.002452
v 0.013492 -0.007877 -0.004493
v 0.013242 -0.007877 -0.005517
v 0.013406 -0.006398 -0.005734
v 0.012253 -0.006398 -0.006293
v 0.010775 -0.006398 -0.006159
v 0.009920 -0.005515 -0.005403
v 0.010197 -0.004894 -0.002452
v 0.013307 -0.008163 -0.002452
v 0.013007 -0.008629 -0.002452
v 0.013007 -0.008629 -0.004493
v 0.013002 -0.008625 -0.005247
v 0.012253 -0.007877 -0.005972
v 0.010715 -0.007956 -0.005789
v 0.009827 -0.007515 -0.005552
v 0.009792 -0.006398 -0.005600
v 0.009553 -0.006398 -0.004493
v 0.009469 -0.005816 -0.002452
v 0.009654 -0.005252 -0.002452
v 0.012253 -0.008852 -0.002452
v 0.012253 -0.008846 -0.004493
v 0.012253 -0.008731 -0.005406
v 0.011168 -0.008761 -0.005449
v 0.009725 -0.007704 -0.004493
v 0.010256 -0.008443 -0.004493
v 0.009321 -0.006398 -0.002452
v 0.010890 -0.008839 -0.002452
v 0.010995 -0.008833 -0.004493
v 0.009566 -0.007814 -0.002452
v 0.009422 -0.007131 -0.002452
v 0.010216 -0.008475 -0.002452
f 34 41 35
f 37 28 27
f 6 2 5
f 14 5 15
f 6 5 14
f 13 8 7
f 7 2 6
f 7 8 2
f 19 13 18
f 13 7 18
f 19 27 20
f 20 27 28
f 30 20 29
f 29 20 28
f 29 28 37
f 36 35 37
f 26 35 36
f 37 27 36
f 36 27 26
f 37 35 42
f 42 35 41
f 25 24 34
f 34 35 25
f 25 35 26
f 23 14 15
f 23 24 14
f 16 25 26
f 14 24 16
f 24 25 16
f 17 27 19
f 19 18 17
f 26 27 17
f 17 16 26
f 7 16 17
f 17 18 7
f 21 20 30
f 21 10 20
f 3 1 2
f 2 8 3
f 3 8 13
f 33 21 32
f 10 21 11
f 12 3 11
f 11 3 10
f 40 38 44
f 44 38 43
f 45 43 39
f 43 38 39
f 39 41 45
f 39 42 41
f 37 42 39
f 39 29 37
f 39 38 29
f 9 3 13
f 10 3 9
f 9 13 19
f 19 20 9
f 20 10 9
f 4 3 12
f 1 3 4
f 40 32 31
f 31 32 21
f 31 21 30
f 30 29 31
f 31 38 40
f 29 38 31
f 12 11 22
f 22 21 33
f 22 11 21
f 16 7 6
f 6 14 16
f 34 24 22
f 22 41 34
f 22 5 2
f 22 32 40
f 45 41 22
f 22 23 15
f 22 43 45
f 15 5 22
f 2 1 22
f 22 4 12
f 24 23 22
f 40 44 22
f 33 32 22
f 22 44 43
f 1 4 22
