v 0.124619 0.000076 -0.044777
v 0.124548 0.004138 -0.044777
v 0.124612 -0.000509 -0.044777
v 0.121048 -0.003440 -0.051302
v 0.124500 0.005296 -0.044777
v 0.121051 -0.001960 -0.051243
v 0.124343 -0.001676 -0.044777
v 0.121005 -0.004494 -0.051238
v 0.119478 -0.004216 -0.054061
v 0.119478 -0.004128 -0.054061
v 0.121091 0.006587 -0.049849
v 0.120924 0.007095 -0.049346
v 0.120759 0.007590 -0.048859
v 0.123721 0.005852 -0.044777
v 0.120726 0.005429 -0.050745
v 0.124026 -0.002251 -0.044777
v 0.121040 -0.007251 -0.048859
v 0.120995 -0.007200 -0.049346
v 0.120964 -0.007164 -0.049652
v 0.120898 -0.005479 -0.050940
v 0.120607 -0.004959 -0.051765
v 0.116571 -0.004348 -0.058574
v 0.110760 -0.004417 -0.067604
v 0.119754 -0.004793 -0.053281
v 0.110760 -0.003925 -0.067604
v 0.116571 -0.004014 -0.058574
v 0.119458 0.006108 -0.052549
v 0.118136 0.006511 -0.054260
v 0.119491 0.007660 -0.051121
v 0.119907 0.007694 -0.049346
v 0.120018 0.007700 -0.048859
v 0.120787 0.007612 -0.047382
v 0.119676 0.007678 -0.050341
v 0.123415 0.006005 -0.044777
v 0.123841 -0.002559 -0.044777
v 0.121086 -0.007295 -0.047382
v 0.120206 -0.007572 -0.048859
v 0.120741 -0.007305 -0.049346
v 0.120201 -0.007402 -0.050221
v 0.119706 -0.007328 -0.051461
v 0.119374 -0.006982 -0.052448
v 0.119962 -0.006452 -0.051900
v 0.120723 -0.006397 -0.050642
v 0.118139 -0.004919 -0.055758
v 0.115255 -0.004919 -0.060311
v 0.113664 -0.004442 -0.063086
v 0.115087 -0.005735 -0.060042
v 0.107846 -0.007385 -0.069129
v 0.109459 -0.004594 -0.069286
v 0.119602 -0.005996 -0.052778
v 0.119293 -0.005203 -0.053765
v 0.109459 -0.003847 -0.069286
v 0.109210 0.006337 -0.067471
v 0.116480 0.005898 -0.056956
v 0.107874 0.006481 -0.069129
v 0.116424 0.007618 -0.055415
v 0.112003 0.007628 -0.061333
v 0.115067 0.007662 -0.057062
v 0.112373 0.007725 -0.060354
v 0.116777 0.007714 -0.054428
v 0.111442 0.007834 -0.060779
v 0.109860 0.007914 -0.062163
v 0.117261 0.007745 -0.053279
v 0.118649 0.007705 -0.051698
v 0.114288 0.007852 -0.056256
v 0.118727 0.007765 -0.048859
v 0.120049 0.007712 -0.047382
v 0.118725 0.007739 -0.050341
v 0.118727 0.007757 -0.049346
v 0.119762 0.007692 -0.046467
v 0.120214 0.007237 -0.044777
v 0.121700 0.006702 -0.044777
v 0.122818 0.006297 -0.044777
v 0.123105 -0.003581 -0.044777
v 0.121028 -0.007223 -0.046523
v 0.120206 -0.007604 -0.047382
v 0.118725 -0.007775 -0.050341
v 0.118821 -0.007521 -0.051900
v 0.106938 -0.007593 -0.069597
v 0.116381 -0.005335 -0.058278
v 0.117992 -0.005673 -0.055527
v 0.106468 -0.007333 -0.070544
v 0.107453 -0.006858 -0.070116
v 0.107787 -0.005873 -0.070411
v 0.108069 -0.004919 -0.070459
v 0.108066 -0.004062 -0.070401
v 0.106486 0.006573 -0.070529
v 0.106948 0.006869 -0.069597
v 0.108371 0.006734 -0.068009
v 0.113360 0.007568 -0.059694
v 0.110283 0.007523 -0.063967
v 0.110649 0.007663 -0.062980
v 0.110955 0.007740 -0.062163
v 0.112845 0.007791 -0.059204
v 0.109302 0.007695 -0.064624
v 0.109822 0.007759 -0.063541
v 0.108381 0.007966 -0.062163
v 0.112810 0.007901 -0.057735
v 0.105030 0.007735 -0.069206
v 0.103945 0.007819 -0.069299
v 0.108381 0.007909 -0.063642
v 0.104008 0.008381 -0.044777
v 0.118727 0.007777 -0.047382
v 0.118671 0.007722 -0.045945
v 0.118141 0.007685 -0.045019
v 0.118380 0.007600 -0.044777
v 0.118671 0.007543 -0.044777
v 0.122943 -0.003795 -0.044777
v 0.120120 -0.007353 -0.045977
v 0.122534 -0.004295 -0.044777
v 0.121824 -0.005061 -0.044777
v 0.120343 -0.006536 -0.044777
v 0.119711 -0.007076 -0.044777
v 0.119572 -0.007205 -0.044857
v 0.118727 -0.007648 -0.045903
v 0.118727 -0.007758 -0.047382
v 0.118727 -0.007773 -0.048859
v 0.108013 -0.008700 -0.051818
v 0.105423 -0.007934 -0.069560
v 0.109124 -0.008616 -0.049593
v 0.109124 -0.008616 -0.049612
v 0.105325 -0.007419 -0.071037
v 0.104764 -0.007174 -0.071814
v 0.106938 -0.006377 -0.070744
v 0.104764 -0.007026 -0.071814
v 0.103569 0.005093 -0.071957
v 0.105423 0.006821 -0.070808
v 0.105484 0.007553 -0.069642
v 0.108799 0.007592 -0.065611
v 0.103945 0.007888 -0.068078
v 0.103945 0.007503 -0.070039
v 0.102468 0.007770 -0.069033
v 0.102468 0.007869 -0.068078
v 0.104008 -0.005253 -0.044777
v 0.117203 0.007699 -0.044777
v 0.101505 0.007757 -0.066601
v 0.100764 0.007354 -0.066601
v 0.098709 0.006220 -0.067197
v 0.099219 -0.004919 -0.063645
v 0.117910 0.007653 -0.044777
v 0.119412 -0.007220 -0.044777
v 0.118628 -0.007387 -0.044777
v 0.117248 -0.007606 -0.044777
v 0.115770 -0.007755 -0.044777
v 0.117248 -0.007768 -0.045903
v 0.106925 -0.008703 -0.051900
v 0.106900 -0.008663 -0.053084
v 0.108510 -0.008654 -0.050213
v 0.107432 -0.008695 -0.050815
v 0.103945 -0.007937 -0.069560
v 0.109109 -0.008616 -0.049593
v 0.113936 -0.007832 -0.044777
v 0.104607 -0.007174 -0.071814
v 0.103569 0.004551 -0.071957
v 0.102973 0.005093 -0.071957
v 0.103945 0.006764 -0.070965
v 0.101692 0.007672 -0.068850
v 0.101581 0.007725 -0.068078
v 0.112533 -0.007534 -0.044777
v 0.099034 -0.006397 -0.065122
v 0.100163 -0.007218 -0.062735
v 0.106118 -0.008646 -0.052448
v 0.098709 0.006220 -0.067434
v 0.098750 -0.005701 -0.067128
v 0.106118 -0.008646 -0.053039
v 0.102468 -0.007781 -0.068081
v 0.102397 -0.007582 -0.069629
v 0.104046 -0.007420 -0.071029
v 0.112832 -0.007606 -0.044777
v 0.102846 -0.007338 -0.070531
v 0.101860 -0.007019 -0.070169
v 0.101279 -0.006032 -0.070505
v 0.102973 0.004551 -0.071957
v 0.101279 -0.005387 -0.070505
v 0.099884 -0.005939 -0.069270
v 0.101538 0.005429 -0.070489
v 0.100112 0.006284 -0.068940
v 0.101654 0.006232 -0.070364
v 0.102468 0.006459 -0.070678
v 0.101180 0.006750 -0.069387
v 0.098750 -0.005701 -0.067445
v 0.099770 -0.007255 -0.066226
v 0.099719 -0.007307 -0.065122
v 0.100013 -0.007281 -0.063645
v 0.100987 -0.007579 -0.065122
v 0.100069 0.005429 -0.068993
v 0.101221 -0.007477 -0.068081
v 0.101464 -0.007363 -0.069185
v 0.099437 -0.006114 -0.067995
f 149 162 146
f 134 162 149
f 30 31 13
f 14 5 13
f 139 134 102
f 139 102 138
f 164 139 138
f 146 162 165
f 134 149 159
f 37 76 77
f 69 31 68
f 69 66 31
f 13 5 12
f 102 97 130
f 2 6 5
f 5 6 10
f 25 26 10
f 118 119 77
f 118 149 146
f 150 119 147
f 146 165 147
f 147 165 150
f 147 118 146
f 119 118 147
f 77 119 79
f 123 119 150
f 150 153 123
f 7 8 3
f 151 159 149
f 18 7 17
f 18 19 7
f 41 19 40
f 115 116 76
f 36 75 76
f 36 37 17
f 76 37 36
f 111 75 110
f 112 75 111
f 74 75 35
f 75 36 35
f 77 76 117
f 76 116 117
f 103 66 102
f 102 70 103
f 13 31 32
f 73 34 32
f 32 34 14
f 32 14 13
f 13 12 29
f 25 53 54
f 54 27 25
f 53 27 54
f 15 26 25
f 25 27 15
f 15 10 26
f 5 10 15
f 11 12 5
f 5 15 11
f 11 15 27
f 11 29 12
f 156 155 179
f 179 155 178
f 179 157 156
f 178 157 179
f 156 157 131
f 131 127 156
f 163 157 177
f 178 155 177
f 155 176 177
f 186 163 177
f 177 176 186
f 137 163 138
f 138 102 137
f 136 137 102
f 163 137 136
f 102 130 133
f 133 136 102
f 100 62 99
f 100 133 130
f 98 97 102
f 98 62 97
f 102 66 98
f 66 69 98
f 98 69 68
f 9 8 21
f 46 47 23
f 52 53 25
f 160 164 181
f 139 164 160
f 134 139 160
f 185 165 162
f 162 183 185
f 122 123 82
f 119 123 122
f 82 79 122
f 122 79 119
f 84 49 83
f 126 127 87
f 126 155 156
f 156 127 126
f 170 171 153
f 153 171 172
f 173 153 172
f 1 3 4
f 4 8 9
f 4 3 8
f 4 2 1
f 6 2 4
f 9 10 4
f 4 10 6
f 169 151 152
f 159 151 169
f 149 118 148
f 39 40 19
f 19 18 39
f 39 37 77
f 77 79 78
f 79 40 78
f 78 39 77
f 40 39 78
f 41 40 48
f 48 47 41
f 48 40 79
f 23 47 48
f 82 83 48
f 48 79 82
f 48 49 23
f 83 49 48
f 76 75 109
f 109 115 76
f 116 115 145
f 108 75 74
f 108 110 75
f 75 112 113
f 16 35 36
f 17 7 16
f 16 36 17
f 121 118 77
f 135 105 102
f 140 105 135
f 104 70 102
f 102 105 104
f 104 105 70
f 71 32 70
f 67 103 70
f 67 32 31
f 70 32 67
f 31 66 67
f 66 103 67
f 53 29 28
f 29 11 28
f 28 27 53
f 28 11 27
f 87 127 128
f 128 88 87
f 127 131 128
f 99 95 128
f 128 100 99
f 131 100 128
f 89 88 91
f 87 88 55
f 53 52 55
f 55 52 87
f 88 89 55
f 55 29 53
f 180 157 178
f 178 177 180
f 180 177 157
f 158 133 157
f 136 133 158
f 158 157 163
f 163 136 158
f 99 62 96
f 96 95 99
f 101 100 130
f 62 100 101
f 101 130 97
f 97 62 101
f 132 131 157
f 132 100 131
f 157 133 132
f 133 100 132
f 62 98 65
f 31 30 65
f 68 31 65
f 65 98 68
f 20 21 8
f 19 43 20
f 7 19 20
f 20 8 7
f 22 23 9
f 22 46 23
f 42 20 43
f 21 20 42
f 42 19 41
f 42 43 19
f 41 47 42
f 47 50 42
f 134 160 161
f 161 162 134
f 124 84 83
f 123 84 124
f 124 83 82
f 82 123 124
f 85 52 49
f 49 84 85
f 85 126 87
f 85 84 123
f 168 153 150
f 168 170 153
f 171 170 188
f 175 172 171
f 171 188 175
f 175 189 181
f 181 163 175
f 174 172 175
f 175 163 186
f 186 176 175
f 155 174 175
f 175 176 155
f 38 18 17
f 38 39 18
f 17 37 38
f 37 39 38
f 142 115 141
f 142 143 115
f 152 151 120
f 116 145 120
f 120 117 116
f 77 117 120
f 120 121 77
f 120 151 149
f 149 148 120
f 120 148 118
f 118 121 120
f 152 120 144
f 144 120 145
f 115 143 144
f 144 145 115
f 114 113 141
f 75 113 114
f 114 109 75
f 141 115 114
f 115 109 114
f 106 105 140
f 70 105 106
f 73 32 72
f 32 71 72
f 129 95 91
f 129 128 95
f 91 88 129
f 88 128 129
f 62 29 61
f 61 96 62
f 56 57 29
f 29 55 56
f 56 55 89
f 63 29 62
f 62 65 63
f 80 51 81
f 81 51 50
f 81 47 80
f 81 50 47
f 24 22 9
f 9 21 24
f 50 51 24
f 21 42 24
f 24 42 50
f 45 51 80
f 46 22 45
f 80 47 45
f 47 46 45
f 184 160 183
f 184 161 160
f 184 183 162
f 162 161 184
f 87 52 86
f 86 85 87
f 52 85 86
f 125 85 123
f 126 85 125
f 181 189 182
f 189 175 182
f 182 175 188
f 182 160 181
f 183 160 182
f 167 188 170
f 167 168 150
f 170 168 167
f 107 71 70
f 70 106 107
f 95 96 93
f 93 59 95
f 96 61 93
f 61 59 93
f 29 57 58
f 58 59 29
f 60 61 29
f 29 59 60
f 90 89 91
f 90 56 89
f 91 57 90
f 57 56 90
f 64 65 30
f 64 63 65
f 29 63 64
f 44 45 22
f 51 45 44
f 22 24 44
f 44 24 51
f 166 167 150
f 150 165 166
f 165 185 166
f 166 185 183
f 183 182 166
f 187 182 188
f 188 167 187
f 187 166 182
f 167 166 187
f 95 59 92
f 59 58 92
f 92 58 57
f 91 95 92
f 92 57 91
f 94 59 61
f 61 60 94
f 94 60 59
f 33 64 30
f 29 64 33
f 33 30 13
f 13 29 33
f 181 164 163
f 163 164 138
f 9 23 10
f 10 23 25
f 25 23 52
f 23 49 52
f 172 174 155
f 172 155 173
f 154 123 153
f 154 153 173
f 173 155 154
f 155 126 154
f 123 154 125
f 125 154 126
f 102 134 107
f 107 3 1
f 1 2 107
f 107 34 73
f 134 159 107
f 107 16 7
f 111 110 107
f 107 135 102
f 5 14 107
f 107 112 111
f 141 113 107
f 107 169 152
f 14 34 107
f 107 2 5
f 7 3 107
f 107 142 141
f 107 108 74
f 74 35 107
f 159 169 107
f 107 106 140
f 110 108 107
f 107 113 112
f 35 16 107
f 140 135 107
f 152 144 107
f 143 142 107
f 107 144 143
f 73 72 107
f 107 72 71
