v 0.121981 0.026295 -0.022241
v 0.121975 0.027617 -0.022241
v 0.121896 0.032577 -0.020769
v 0.121893 0.032050 -0.020769
v 0.121840 0.026295 -0.020764
v 0.121861 0.026295 -0.023718
v 0.121972 0.028188 -0.022241
v 0.121917 0.032577 -0.022241
v 0.121521 0.035652 -0.017941
v 0.121515 0.035652 -0.017890
v 0.121694 0.032577 -0.019291
v 0.121644 0.027617 -0.019286
v 0.121629 0.026295 -0.019286
v 0.121834 0.027617 -0.023718
v 0.121533 0.026295 -0.025191
v 0.121667 0.032577 -0.023718
v 0.120981 0.032577 -0.026617
v 0.120864 0.032577 -0.027091
v 0.120726 0.032577 -0.027488
v 0.120486 0.032577 -0.028146
v 0.111457 0.037763 -0.039990
v 0.111457 0.037763 -0.035492
v 0.121503 0.035652 -0.017809
v 0.121430 0.028188 -0.017809
v 0.121424 0.027617 -0.017809
v 0.121409 0.026295 -0.017809
v 0.121471 0.028188 -0.025191
v 0.121494 0.026295 -0.025344
v 0.120873 0.032050 -0.027127
v 0.120891 0.030573 -0.027213
v 0.120504 0.032050 -0.028146
v 0.120278 0.032577 -0.028680
v 0.118525 0.032577 -0.033021
v 0.118085 0.032577 -0.034060
v 0.117856 0.032577 -0.034534
v 0.117660 0.032577 -0.034896
v 0.117276 0.032577 -0.035548
v 0.116666 0.032577 -0.036526
v 0.104808 0.036429 -0.048330
v 0.103985 0.036429 -0.048936
v 0.103947 0.036429 -0.048962
v 0.105670 0.037763 -0.043582
v 0.109880 0.037763 -0.035930
v 0.105673 0.035652 0.000160
v 0.106028 0.035652 -0.000034
v 0.106790 0.035652 -0.000452
v 0.112269 0.035652 -0.003636
v 0.115133 0.035652 -0.005969
v 0.115476 0.035652 -0.006259
v 0.116616 0.035652 -0.007273
v 0.117326 0.035652 -0.007992
v 0.118062 0.035652 -0.008761
v 0.118774 0.035652 -0.009525
v 0.119190 0.035652 -0.009973
v 0.119478 0.035652 -0.010299
v 0.119835 0.035652 -0.010717
v 0.120111 0.035652 -0.011227
v 0.120463 0.035652 -0.011894
v 0.120618 0.035652 -0.012521
v 0.120841 0.035652 -0.013438
v 0.120952 0.035652 -0.014146
v 0.120946 0.035600 -0.014100
v 0.120932 0.032578 -0.014207
v 0.121181 0.026295 -0.016331
v 0.121093 0.026295 -0.026892
v 0.121131 0.027617 -0.026622
v 0.120923 0.028188 -0.027330
v 0.120940 0.026765 -0.027402
v 0.120703 0.026295 -0.028023
v 0.119568 0.026295 -0.030830
v 0.118748 0.030573 -0.032583
v 0.118774 0.029095 -0.032583
v 0.118566 0.028188 -0.033036
v 0.117856 0.032050 -0.034534
v 0.117264 0.032050 -0.035548
v 0.116625 0.030573 -0.036495
v 0.116057 0.028188 -0.037173
v 0.116045 0.029095 -0.037199
v 0.116024 0.030573 -0.037234
v 0.115986 0.032577 -0.037265
v 0.104767 0.035429 -0.048259
v 0.115318 0.028188 -0.037953
v 0.104046 0.034964 -0.048687
v 0.102460 0.035008 -0.049441
v 0.102460 0.036429 -0.049466
v 0.100854 0.036429 -0.049568
v 0.098084 0.036429 -0.049695
v 0.096550 0.036429 -0.049762
v 0.095428 0.036429 -0.049665
v 0.092033 0.036429 -0.048972
v 0.105670 0.037763 -0.039863
v 0.092033 0.035153 0.000715
v 0.092394 0.035153 0.000842
v 0.093593 0.035153 0.001199
v 0.095073 0.035153 0.001494
v 0.099989 0.035153 0.002187
v 0.100983 0.035153 0.002254
v 0.101068 0.035153 0.002254
v 0.101856 0.035153 0.002223
v 0.102595 0.035153 0.001836
v 0.103938 0.035153 0.001112
v 0.109719 0.029095 -0.001919
v 0.109634 0.035008 -0.001995
v 0.112389 0.035008 -0.003570
v 0.114708 0.035008 -0.005388
v 0.115590 0.035008 -0.006132
v 0.116332 0.035008 -0.006906
v 0.118452 0.035008 -0.009174
v 0.114907 0.033530 -0.005368
v 0.119196 0.033530 -0.009984
v 0.117041 0.028188 -0.007625
v 0.117121 0.026295 -0.007706
v 0.117783 0.026295 -0.008435
v 0.119829 0.035008 -0.010717
v 0.119812 0.033530 -0.010722
v 0.120454 0.035008 -0.011894
v 0.120794 0.032578 -0.013371
v 0.120806 0.033530 -0.013371
v 0.120847 0.035067 -0.013514
v 0.121020 0.028188 -0.015144
v 0.121005 0.026295 -0.015236
v 0.120946 0.026295 -0.027417
v 0.115960 0.026295 -0.030830
v 0.098028 0.028189 -0.044983
v 0.099505 0.028189 -0.044825
v 0.105424 0.028188 -0.043358
v 0.106330 0.028188 -0.043134
v 0.106904 0.028188 -0.042981
v 0.107614 0.028188 -0.042675
v 0.108045 0.028188 -0.042471
v 0.114289 0.028188 -0.038610
v 0.114925 0.028188 -0.038207
v 0.116581 0.028188 -0.036434
v 0.118050 0.028188 -0.033999
v 0.118217 0.028188 -0.033714
v 0.118774 0.028188 -0.032583
v 0.118226 0.029095 -0.033744
v 0.116599 0.029095 -0.036460
v 0.103624 0.033898 -0.048493
v 0.102460 0.033645 -0.048763
v 0.100490 0.034244 -0.049604
v 0.101200 0.035007 -0.049578
v 0.100866 0.036409 -0.049568
v 0.096550 0.035007 -0.049695
v 0.095753 0.034231 -0.049604
v 0.095624 0.035007 -0.049624
v 0.098028 0.035007 -0.049685
v 0.092033 0.035007 -0.048896
v 0.092033 0.036429 -0.033581
v 0.092033 0.034303 0.000720
v 0.092033 0.032578 0.000710
v 0.092382 0.033529 0.000827
v 0.093593 0.033529 0.001194
v 0.095073 0.029095 0.001520
v 0.095073 0.032050 0.001525
v 0.095073 0.033529 0.001515
v 0.096550 0.028188 0.001800
v 0.096550 0.030573 0.001770
v 0.099842 0.032050 0.002218
v 0.100983 0.033529 0.002264
v 0.100983 0.029095 0.002284
v 0.101856 0.035007 0.002223
v 0.102583 0.029095 0.001877
v 0.103947 0.028188 0.001199
v 0.103947 0.032577 0.001143
v 0.109725 0.028188 -0.001919
v 0.113210 0.033530 -0.003957
v 0.112471 0.033530 -0.003539
v 0.114169 0.033530 -0.004701
v 0.115655 0.026295 -0.006132
v 0.114907 0.032050 -0.005363
v 0.114916 0.028188 -0.005358
v 0.119193 0.032578 -0.009994
v 0.118475 0.026295 -0.009265
v 0.119413 0.032578 -0.010259
v 0.119800 0.032577 -0.010732
v 0.120020 0.032578 -0.011150
v 0.120307 0.028188 -0.011894
v 0.120682 0.026295 -0.013371
v 0.120718 0.028188 -0.013371
v 0.119721 0.026295 -0.010829
v 0.120896 0.028188 -0.014406
v 0.092033 0.028189 -0.043745
v 0.115655 0.026295 -0.010284
v 0.092033 0.033660 -0.048488
v 0.096550 0.034149 -0.049624
v 0.098028 0.034123 -0.049639
v 0.092033 0.030573 0.000669
v 0.092948 0.028188 0.000909
v 0.093593 0.030573 0.001153
v 0.095073 0.028188 0.001515
v 0.099209 0.028188 0.002177
v 0.099769 0.030573 0.002223
v 0.099702 0.029095 0.002228
v 0.100159 0.028188 0.002254
v 0.100983 0.028188 0.002279
v 0.101853 0.030573 0.002213
v 0.101856 0.032578 0.002218
v 0.102580 0.028188 0.001877
v 0.111768 0.028188 -0.003121
v 0.113213 0.032578 -0.003957
v 0.113556 0.032578 -0.004222
v 0.114172 0.032578 -0.004701
v 0.114177 0.028188 -0.004716
v 0.113192 0.028188 -0.003977
v 0.112741 0.028188 -0.003702
v 0.101839 0.028188 0.002197
v 0.099664 0.028188 0.002228
v 0.093593 0.028188 0.001102
v 0.092525 0.028188 0.000771
v 0.092033 0.028188 0.000572
v 0.119199 0.026295 -0.010172
v 0.120266 0.026295 -0.011894
v 0.092033 0.028188 -0.022603
v 0.112463 0.029095 -0.003529
v 0.113210 0.030573 -0.003967
v 0.113201 0.029095 -0.003972
f 92 91 149
f 21 22 9
f 21 41 42
f 43 91 92
f 22 43 44
f 44 43 92
f 183 124 123
f 123 124 70
f 40 83 41
f 40 41 21
f 21 39 40
f 93 44 92
f 38 39 21
f 90 42 89
f 42 88 89
f 85 42 41
f 131 70 130
f 133 70 77
f 70 82 77
f 39 82 81
f 81 82 83
f 81 40 39
f 83 40 81
f 183 123 184
f 184 214 183
f 170 157 191
f 46 47 22
f 104 46 103
f 47 46 104
f 150 93 92
f 151 93 150
f 151 153 152
f 152 93 151
f 153 93 152
f 96 97 44
f 151 188 189
f 80 82 39
f 39 38 80
f 170 109 172
f 170 205 206
f 42 85 86
f 132 82 70
f 70 131 132
f 76 77 38
f 70 127 128
f 70 124 125
f 145 186 124
f 170 207 196
f 170 166 164
f 154 157 155
f 154 191 157
f 153 191 154
f 109 108 52
f 22 47 48
f 169 109 106
f 22 44 45
f 45 46 22
f 103 46 45
f 169 104 167
f 167 104 103
f 155 157 156
f 95 96 44
f 95 156 157
f 190 153 151
f 151 189 190
f 190 191 153
f 210 188 211
f 210 189 188
f 210 211 170
f 170 189 210
f 60 62 61
f 22 60 61
f 23 61 62
f 22 61 23
f 57 22 56
f 57 58 22
f 59 60 22
f 22 58 59
f 213 179 178
f 178 181 213
f 21 33 34
f 34 35 21
f 37 38 21
f 82 80 79
f 79 80 38
f 70 33 69
f 21 9 20
f 3 8 9
f 44 100 101
f 44 97 98
f 163 164 99
f 99 164 100
f 99 98 161
f 99 100 44
f 44 98 99
f 171 109 169
f 169 172 171
f 171 172 109
f 204 205 170
f 170 172 204
f 200 166 170
f 170 206 200
f 87 88 42
f 42 86 87
f 130 70 129
f 70 128 129
f 126 127 70
f 70 125 126
f 126 125 127
f 127 125 140
f 140 128 127
f 146 89 88
f 88 145 146
f 185 124 183
f 185 145 124
f 199 207 170
f 170 164 199
f 199 164 163
f 22 50 51
f 51 52 22
f 50 106 51
f 49 50 22
f 22 48 49
f 49 106 50
f 48 106 49
f 109 52 107
f 107 106 109
f 52 51 107
f 107 51 106
f 105 104 169
f 169 106 105
f 47 104 105
f 105 48 47
f 105 106 48
f 166 167 102
f 103 45 102
f 102 45 44
f 44 101 102
f 102 164 166
f 102 101 100
f 192 157 170
f 170 208 192
f 195 196 161
f 170 196 195
f 195 208 170
f 44 93 94
f 94 95 44
f 94 93 153
f 156 95 94
f 155 156 94
f 94 154 155
f 153 154 94
f 191 190 209
f 209 190 189
f 170 191 209
f 209 189 170
f 119 60 118
f 60 59 118
f 118 59 58
f 58 117 118
f 116 117 58
f 116 178 179
f 181 178 116
f 58 57 116
f 71 33 70
f 70 34 71
f 71 34 33
f 21 35 36
f 36 37 21
f 75 76 38
f 38 37 75
f 37 36 75
f 134 70 133
f 134 135 70
f 133 75 134
f 134 75 135
f 70 135 73
f 38 77 78
f 78 79 38
f 78 77 82
f 82 79 78
f 9 18 19
f 19 20 9
f 32 69 33
f 32 33 21
f 21 20 32
f 8 3 7
f 7 6 8
f 10 23 11
f 11 3 10
f 10 3 9
f 10 9 22
f 22 23 10
f 9 8 16
f 203 172 169
f 203 204 172
f 143 86 85
f 143 87 86
f 88 147 144
f 144 145 88
f 186 145 144
f 139 129 128
f 128 140 139
f 130 129 139
f 139 131 130
f 139 132 131
f 83 82 139
f 82 132 139
f 41 83 84
f 84 85 41
f 83 139 84
f 84 139 140
f 141 125 124
f 141 140 125
f 141 84 140
f 141 147 88
f 145 185 148
f 148 146 145
f 90 89 148
f 89 146 148
f 207 199 197
f 161 196 197
f 197 196 207
f 56 22 55
f 22 54 55
f 22 52 53
f 53 54 22
f 53 52 108
f 108 54 53
f 113 54 112
f 168 167 103
f 103 102 168
f 168 102 167
f 100 164 165
f 165 102 100
f 164 102 165
f 212 176 174
f 181 176 212
f 173 113 174
f 63 118 117
f 119 118 63
f 63 60 119
f 63 62 60
f 177 176 181
f 181 116 177
f 137 73 135
f 138 75 133
f 76 75 138
f 133 77 138
f 77 76 138
f 135 75 74
f 74 75 36
f 74 137 135
f 74 36 35
f 73 137 74
f 35 34 74
f 34 73 74
f 72 34 70
f 72 73 34
f 20 19 31
f 31 32 20
f 1 6 2
f 6 7 2
f 2 3 1
f 2 7 3
f 4 5 1
f 1 3 4
f 4 3 11
f 11 5 4
f 13 5 12
f 12 5 11
f 6 15 14
f 8 6 14
f 14 16 8
f 17 18 9
f 9 16 17
f 201 216 204
f 201 167 166
f 166 200 201
f 217 206 205
f 217 216 206
f 205 204 217
f 204 216 217
f 124 186 187
f 187 141 124
f 147 141 187
f 186 144 187
f 187 144 147
f 85 84 142
f 84 141 142
f 142 143 85
f 87 143 142
f 88 87 142
f 142 141 88
f 198 197 199
f 161 197 198
f 170 112 111
f 111 109 170
f 111 108 109
f 111 54 108
f 111 112 54
f 194 192 208
f 194 193 192
f 208 195 194
f 192 193 159
f 157 192 159
f 96 95 159
f 97 96 159
f 175 173 174
f 110 54 113
f 113 173 110
f 110 55 54
f 56 55 110
f 26 63 64
f 179 121 180
f 180 116 179
f 117 116 180
f 120 63 117
f 117 121 120
f 120 121 64
f 64 63 120
f 70 73 136
f 136 72 70
f 73 72 136
f 15 17 27
f 27 17 16
f 27 14 15
f 16 14 27
f 204 203 202
f 202 201 204
f 202 203 169
f 169 167 202
f 167 201 202
f 215 201 200
f 216 201 215
f 215 200 206
f 206 216 215
f 162 198 199
f 163 99 162
f 162 199 163
f 162 99 161
f 161 198 162
f 193 194 160
f 97 159 160
f 160 159 193
f 160 194 195
f 160 195 161
f 161 98 160
f 160 98 97
f 158 95 157
f 157 159 158
f 158 159 95
f 174 176 115
f 115 175 174
f 115 116 57
f 176 177 115
f 115 177 116
f 62 63 24
f 24 23 62
f 11 23 24
f 24 12 11
f 182 121 117
f 117 180 182
f 182 180 121
f 28 65 66
f 30 31 19
f 173 175 114
f 175 115 114
f 56 110 114
f 114 110 173
f 114 57 56
f 114 115 57
f 63 26 25
f 25 24 63
f 12 24 25
f 68 65 122
f 32 31 68
f 122 69 68
f 69 32 68
f 66 30 29
f 29 28 66
f 29 19 18
f 29 30 19
f 15 28 29
f 18 17 29
f 29 17 15
f 65 68 67
f 66 65 67
f 67 30 66
f 31 30 67
f 67 68 31
f 90 149 42
f 42 149 91
f 43 42 91
f 43 22 21
f 21 42 43
f 211 214 184
f 170 211 184
f 148 188 151
f 148 150 92
f 148 149 90
f 92 149 148
f 183 214 148
f 148 214 211
f 211 188 148
f 151 150 148
f 148 185 183
f 213 181 28
f 28 6 1
f 28 123 70
f 170 184 28
f 28 184 123
f 70 69 28
f 28 179 213
f 28 212 174
f 28 112 170
f 13 26 28
f 28 69 122
f 1 5 28
f 174 113 28
f 28 121 179
f 28 5 13
f 28 15 6
f 113 112 28
f 181 212 28
f 64 121 28
f 28 26 64
f 122 65 28
f 25 26 13
f 13 12 25
