v 0.108536 0.028184 -0.022998
v 0.108473 0.028184 -0.023713
v 0.092030 0.030582 -0.037131
v 0.092030 0.030582 -0.014445
v 0.108499 0.028184 -0.022202
v 0.107718 0.023140 -0.020895
v 0.107663 0.022650 -0.021295
v 0.107637 0.022433 -0.021472
v 0.107637 0.022433 -0.021522
v 0.107663 0.022650 -0.021696
v 0.107722 0.023153 -0.022099
v 0.107696 0.023625 -0.023268
v 0.107499 0.023153 -0.023743
v 0.108276 0.028184 -0.024470
v 0.108092 0.028184 -0.024935
v 0.106690 0.028184 -0.026470
v 0.105486 0.028184 -0.027574
v 0.096179 0.028184 -0.034937
v 0.092030 0.028560 -0.037131
v 0.086184 0.030582 -0.037131
v 0.086184 0.030582 -0.014961
v 0.104167 0.028184 -0.007044
v 0.104447 0.028184 -0.007044
v 0.104513 0.028184 -0.007085
v 0.107512 0.028184 -0.015658
v 0.107744 0.028184 -0.016451
v 0.107985 0.028184 -0.017888
v 0.108066 0.028184 -0.018424
v 0.108186 0.028184 -0.019328
v 0.108357 0.028184 -0.020739
v 0.107687 0.023603 -0.019873
v 0.107606 0.022650 -0.020468
v 0.107611 0.022650 -0.020515
v 0.107602 0.022617 -0.020488
v 0.107392 0.021844 -0.020895
v 0.107545 0.022198 -0.021722
v 0.107556 0.022227 -0.021722
v 0.107628 0.022475 -0.021722
v 0.107593 0.022650 -0.022497
v 0.107589 0.022650 -0.022529
v 0.107189 0.021700 -0.023716
v 0.106830 0.021700 -0.025195
v 0.106287 0.020703 -0.026105
v 0.106355 0.021700 -0.026208
v 0.105801 0.021700 -0.026947
v 0.105009 0.020223 -0.027739
v 0.105062 0.021700 -0.027795
v 0.105086 0.022650 -0.027833
v 0.105095 0.023182 -0.027851
v 0.105125 0.024656 -0.027892
v 0.104261 0.024656 -0.028628
v 0.104171 0.023182 -0.028593
v 0.103839 0.020254 -0.028508
v 0.103005 0.019783 -0.028805
v 0.095067 0.028184 -0.035517
v 0.098023 0.020004 -0.030098
v 0.098023 0.019118 -0.029359
v 0.086186 0.028722 -0.037131
v 0.102021 0.019335 -0.029000
v 0.100981 0.019174 -0.029185
v 0.099504 0.019098 -0.029344
v 0.086184 0.028722 -0.037128
v 0.086184 0.030123 -0.016327
v 0.089995 0.019749 -0.022238
v 0.090118 0.020121 -0.020748
v 0.091155 0.019273 -0.019625
v 0.091444 0.019563 -0.018642
v 0.092323 0.020160 -0.016280
v 0.092960 0.019628 -0.015759
v 0.094266 0.019377 -0.014059
v 0.095069 0.019151 -0.013900
v 0.096548 0.019071 -0.013797
v 0.098025 0.019236 -0.013877
v 0.099224 0.019369 -0.013986
v 0.103939 0.019348 -0.015423
v 0.104690 0.019469 -0.015579
v 0.106099 0.021111 -0.017243
v 0.106488 0.021643 -0.017764
v 0.106771 0.022650 -0.017794
v 0.107125 0.022650 -0.018824
v 0.107429 0.023140 -0.019343
v 0.107593 0.022650 -0.020418
v 0.107016 0.021700 -0.019284
v 0.106523 0.020074 -0.020753
v 0.106618 0.020171 -0.021722
v 0.106668 0.020223 -0.022238
v 0.107405 0.021844 -0.022099
v 0.106434 0.020410 -0.019284
v 0.106515 0.020105 -0.023707
v 0.106456 0.020437 -0.025195
v 0.104880 0.019227 -0.027612
v 0.096546 0.018775 -0.028151
v 0.096546 0.019136 -0.029329
v 0.095069 0.019153 -0.029291
v 0.093859 0.019271 -0.029141
v 0.092875 0.019622 -0.028864
v 0.103939 0.019052 -0.027869
v 0.103939 0.018691 -0.026673
v 0.086184 0.028599 -0.031111
v 0.092636 0.019288 -0.027877
v 0.091181 0.019298 -0.024865
v 0.090932 0.019174 -0.023716
v 0.086184 0.029506 -0.020771
v 0.086184 0.029327 -0.022250
v 0.086184 0.029182 -0.023728
v 0.086184 0.029059 -0.025209
v 0.086184 0.028941 -0.026673
v 0.086184 0.028707 -0.029633
v 0.090735 0.019180 -0.022238
v 0.090868 0.019193 -0.020765
v 0.092402 0.019098 -0.017805
v 0.092676 0.019265 -0.016739
v 0.093995 0.019111 -0.014849
v 0.095069 0.018752 -0.014849
v 0.104852 0.019324 -0.016327
v 0.106263 0.020719 -0.018227
v 0.107294 0.022650 -0.019325
v 0.106156 0.019483 -0.021236
v 0.106184 0.019460 -0.022238
v 0.106193 0.019453 -0.023207
v 0.106077 0.019535 -0.024196
v 0.105998 0.019698 -0.025195
v 0.105101 0.019082 -0.026673
v 0.095069 0.018810 -0.028151
v 0.095069 0.018783 -0.026673
v 0.093457 0.019106 -0.028281
v 0.105020 0.019263 -0.017805
v 0.103913 0.019258 -0.016342
v 0.092372 0.019172 -0.026673
v 0.093590 0.018830 -0.026673
v 0.092032 0.018964 -0.023719
v 0.092113 0.018950 -0.023719
f 3 4 1
f 22 4 21
f 22 21 70
f 66 21 65
f 21 64 65
f 15 16 3
f 98 97 91
f 19 3 18
f 1 4 5
f 4 26 27
f 23 4 22
f 23 24 4
f 22 72 23
f 25 26 4
f 4 24 25
f 24 23 76
f 71 72 22
f 22 70 71
f 69 70 21
f 125 92 98
f 124 125 130
f 92 125 124
f 96 58 95
f 95 100 96
f 64 99 62
f 58 96 62
f 62 96 100
f 20 58 62
f 52 46 18
f 18 51 52
f 52 51 46
f 17 51 18
f 18 3 17
f 3 16 17
f 50 17 16
f 51 17 50
f 2 3 1
f 43 91 46
f 90 91 43
f 122 91 90
f 18 46 53
f 46 91 53
f 59 91 97
f 58 19 57
f 4 29 30
f 30 5 4
f 28 29 4
f 4 27 28
f 88 76 115
f 72 71 114
f 114 125 98
f 114 132 130
f 130 125 114
f 67 21 66
f 95 124 126
f 126 124 130
f 126 100 95
f 130 132 131
f 132 109 131
f 130 131 102
f 102 131 109
f 102 109 64
f 64 62 102
f 63 64 21
f 63 103 64
f 14 15 3
f 3 2 14
f 44 43 46
f 15 43 44
f 91 122 123
f 123 120 98
f 98 91 123
f 55 19 18
f 54 53 91
f 91 59 54
f 54 59 19
f 19 55 54
f 18 53 54
f 54 55 18
f 95 58 94
f 94 124 95
f 92 124 94
f 98 92 61
f 92 57 61
f 1 5 6
f 79 25 24
f 24 78 79
f 116 76 88
f 24 76 77
f 77 78 24
f 76 116 77
f 88 115 84
f 127 115 98
f 75 115 76
f 72 114 75
f 75 114 115
f 75 76 23
f 23 74 75
f 73 23 72
f 73 74 23
f 72 75 73
f 73 75 74
f 112 67 66
f 69 67 112
f 113 71 70
f 113 114 71
f 70 69 113
f 69 112 113
f 64 109 110
f 110 109 132
f 132 114 110
f 66 65 110
f 110 65 64
f 98 115 128
f 128 114 98
f 115 114 128
f 68 69 21
f 21 67 68
f 68 67 69
f 129 126 130
f 130 102 129
f 100 126 129
f 129 102 100
f 101 62 100
f 100 102 101
f 101 102 62
f 108 99 64
f 64 103 104
f 104 105 64
f 46 51 47
f 51 48 47
f 47 15 46
f 16 15 47
f 47 48 16
f 51 50 49
f 49 48 51
f 49 50 16
f 16 48 49
f 90 43 42
f 42 41 90
f 42 43 15
f 15 14 42
f 46 15 45
f 45 44 46
f 15 44 45
f 90 41 89
f 89 86 120
f 39 41 40
f 40 12 39
f 41 12 40
f 120 123 121
f 121 123 122
f 121 89 120
f 121 122 90
f 90 89 121
f 58 57 93
f 93 94 58
f 93 57 92
f 92 94 93
f 19 59 60
f 60 61 19
f 60 59 97
f 60 97 98
f 98 61 60
f 56 57 19
f 19 61 56
f 56 61 57
f 88 84 35
f 26 25 81
f 115 127 118
f 118 84 115
f 111 112 66
f 111 113 112
f 114 113 111
f 66 110 111
f 111 110 114
f 107 108 64
f 13 12 41
f 41 42 13
f 2 12 13
f 13 14 2
f 13 42 14
f 86 35 85
f 85 35 84
f 11 2 1
f 39 12 11
f 11 12 2
f 1 6 7
f 87 89 41
f 86 89 87
f 87 35 86
f 25 79 80
f 80 81 25
f 80 79 78
f 26 81 31
f 31 27 26
f 31 28 27
f 29 28 31
f 31 30 29
f 5 30 31
f 31 6 5
f 119 127 98
f 119 118 127
f 98 120 119
f 120 86 119
f 86 85 119
f 84 118 119
f 119 85 84
f 64 105 106
f 106 107 64
f 39 11 38
f 38 41 39
f 38 87 41
f 9 87 38
f 8 9 1
f 1 7 8
f 83 80 78
f 88 35 83
f 83 116 88
f 78 77 83
f 83 77 116
f 9 38 10
f 10 38 11
f 1 9 10
f 10 11 1
f 9 8 36
f 35 87 36
f 36 8 35
f 81 80 117
f 80 83 117
f 37 87 9
f 9 36 37
f 37 36 87
f 34 83 35
f 35 8 34
f 82 117 83
f 81 117 82
f 82 31 81
f 33 7 6
f 33 8 7
f 33 34 8
f 83 34 32
f 32 82 83
f 31 82 32
f 34 33 32
f 6 31 32
f 32 33 6
f 4 3 21
f 21 3 20
f 20 3 19
f 19 58 20
f 106 21 20
f 20 62 106
f 106 62 99
f 106 63 21
f 103 63 106
f 99 108 106
f 106 104 103
f 105 104 106
f 108 107 106
