v 0.092030 -0.004183 -0.026853
v 0.092030 -0.004118 -0.026244
v 0.092030 -0.004182 -0.027532
v 0.092112 -0.004182 -0.027529
v 0.092851 -0.004179 -0.027415
v 0.098766 -0.004176 -0.011323
v 0.098766 -0.004176 -0.011147
v 0.098027 -0.004176 -0.011144
v 0.097257 -0.004176 -0.011147
v 0.096678 -0.004165 -0.011831
v 0.092030 -0.001028 -0.021857
v 0.092032 -0.000880 -0.006079
v 0.092030 -0.004180 -0.027559
v 0.104005 -0.001030 -0.036607
v 0.104005 -0.001782 -0.026614
v 0.098027 -0.003734 -0.010406
v 0.104348 -0.001076 -0.008939
v 0.104348 -0.000893 -0.006079
v 0.103648 -0.000946 -0.006079
v 0.092030 0.005245 -0.021857
v 0.092032 0.006012 -0.006079
v 0.092030 -0.003958 -0.028258
v 0.102461 -0.001012 -0.036607
v 0.104005 0.005841 -0.036607
v 0.104348 0.003710 -0.008941
v 0.104348 0.006175 -0.006079
v 0.092030 0.010256 -0.024989
v 0.096911 0.010761 -0.009548
v 0.095491 0.010863 -0.010723
v 0.095313 0.010994 -0.011891
v 0.092030 -0.000752 -0.036607
v 0.092592 -0.000800 -0.036607
v 0.098025 0.007060 -0.036607
v 0.098025 0.007531 -0.036090
v 0.101722 0.007648 -0.034808
v 0.104005 0.007703 -0.033452
v 0.104348 0.005597 -0.008941
v 0.104005 0.007719 -0.032839
v 0.099355 0.011002 -0.011891
v 0.099140 0.010868 -0.010669
v 0.098742 0.010462 -0.009683
v 0.097758 0.010761 -0.009548
v 0.092030 0.010256 -0.029381
v 0.096548 0.011388 -0.011891
v 0.098162 0.011012 -0.010271
v 0.096469 0.011009 -0.010301
v 0.092030 0.005962 -0.036607
v 0.096548 0.006875 -0.036607
v 0.096548 0.007401 -0.035851
v 0.098025 0.007892 -0.035352
v 0.099503 0.007853 -0.035191
v 0.103940 0.007709 -0.033464
v 0.092929 0.010256 -0.028978
v 0.098026 0.011264 -0.013367
v 0.098026 0.011395 -0.011891
v 0.092060 0.010256 -0.029378
v 0.092112 0.010256 -0.029373
f 15 14 17
f 7 15 17
f 18 7 17
f 14 15 6
f 15 7 6
f 6 5 14
f 6 7 1
f 1 5 6
f 7 18 19
f 32 22 31
f 55 43 44
f 37 36 26
f 37 24 36
f 40 39 55
f 26 39 40
f 26 36 38
f 38 39 26
f 36 39 38
f 1 10 2
f 2 10 12
f 12 11 2
f 12 10 9
f 9 10 1
f 13 22 14
f 14 5 13
f 27 21 30
f 30 44 27
f 27 44 43
f 14 22 23
f 22 32 23
f 54 53 55
f 36 53 54
f 55 39 54
f 54 39 36
f 55 53 57
f 47 43 49
f 43 34 49
f 33 34 24
f 36 24 35
f 24 34 35
f 17 14 25
f 28 21 26
f 16 19 12
f 12 9 16
f 7 19 16
f 4 5 1
f 4 13 5
f 21 27 20
f 50 34 43
f 34 33 48
f 47 49 48
f 48 49 34
f 52 53 36
f 36 35 52
f 42 28 26
f 30 21 29
f 21 28 29
f 29 44 30
f 44 29 46
f 46 29 28
f 7 16 8
f 8 16 9
f 1 7 8
f 8 9 1
f 3 4 1
f 13 4 3
f 56 50 43
f 57 50 56
f 56 43 55
f 55 57 56
f 51 50 57
f 51 57 53
f 51 35 34
f 34 50 51
f 53 52 51
f 51 52 35
f 26 40 41
f 41 42 26
f 40 42 41
f 45 40 55
f 45 42 40
f 55 44 45
f 44 46 45
f 28 42 45
f 45 46 28
f 19 18 26
f 19 21 12
f 26 21 19
f 26 18 25
f 25 18 17
f 25 37 26
f 14 24 25
f 24 37 25
f 12 21 20
f 20 11 12
f 48 31 47
f 48 24 14
f 14 23 48
f 48 32 31
f 48 23 32
f 48 33 24
f 47 31 3
f 3 43 47
f 1 2 3
f 31 22 3
f 11 20 3
f 3 2 11
f 22 13 3
f 3 27 43
f 3 20 27
