v 0.092030 -0.006239 0.001416
v 0.092111 -0.006252 0.001421
v 0.092030 -0.006121 0.002901
v 0.092030 -0.006067 -0.000130
v 0.092111 -0.006087 -0.000059
v 0.093590 -0.006104 -0.001535
v 0.093590 -0.006195 -0.000059
v 0.103939 -0.005996 -0.001535
v 0.102461 -0.005990 -0.000059
v 0.093590 -0.006077 0.002899
v 0.092111 -0.006128 0.002899
v 0.092111 -0.005791 0.003750
v 0.092030 -0.005801 0.003702
v 0.092030 -0.005696 -0.003318
v 0.093590 -0.005834 -0.002793
v 0.104346 -0.005706 -0.003919
v 0.103939 -0.005848 -0.003014
v 0.102461 -0.006013 -0.001535
v 0.104346 -0.005811 -0.003027
v 0.104346 -0.005926 -0.001524
v 0.104346 -0.005929 -0.001247
v 0.103951 -0.005895 -0.000094
v 0.103464 -0.005784 0.000933
v 0.102365 -0.005781 0.001423
v 0.101811 -0.005683 0.002222
v 0.095070 -0.005774 0.003795
v 0.093590 -0.005828 0.003818
v 0.092030 -0.005781 0.003742
v 0.099781 -0.004216 0.005139
v 0.098796 -0.004146 0.005116
v 0.092030 -0.005251 -0.004388
v 0.092612 -0.005625 -0.003627
v 0.092030 -0.005140 -0.004572
v 0.092030 -0.004934 -0.004816
v 0.104346 -0.004992 -0.004601
v 0.111654 0.022645 -0.003110
v 0.104346 -0.005855 -0.000202
v 0.104346 -0.005767 -0.000003
v 0.104346 -0.005504 0.000434
v 0.103252 -0.004220 0.003698
v 0.102793 -0.005507 0.001918
v 0.102365 -0.005160 0.002788
v 0.100891 -0.004587 0.004440
v 0.096124 -0.005703 0.003717
v 0.100335 -0.004216 0.005139
v 0.092030 -0.004992 0.003884
v 0.099457 -0.000481 0.005282
v 0.098333 -0.001961 0.005207
v 0.092111 -0.004918 0.003906
v 0.104346 -0.004591 -0.004958
v 0.092030 -0.003438 -0.005402
v 0.107686 0.010259 -0.004925
v 0.111739 0.026191 -0.003110
v 0.104346 0.003001 0.003947
v 0.104346 -0.001253 0.003797
v 0.104346 -0.001570 0.003777
v 0.104346 -0.002076 0.003707
v 0.104346 -0.002531 0.003633
v 0.104346 -0.003431 0.002965
v 0.104346 -0.004918 0.001332
v 0.102461 -0.004409 0.003944
v 0.103542 -0.003438 0.003883
v 0.102461 -0.003438 0.004365
v 0.104033 -0.001843 0.003899
v 0.104346 0.003955 0.003949
v 0.100335 -0.004102 0.005139
v 0.092030 -0.004918 0.003891
v 0.100198 -0.000481 0.005106
v 0.103939 0.003955 0.004051
v 0.099922 0.000999 0.005086
v 0.099183 0.000999 0.005214
v 0.097902 -0.000427 0.005252
v 0.092111 -0.003438 0.003987
v 0.104346 -0.004058 -0.005132
v 0.092030 -0.000879 -0.006077
v 0.103650 -0.000946 -0.006077
v 0.111739 0.026292 -0.003110
v 0.104346 -0.000892 -0.006077
v 0.104346 0.006180 -0.006077
v 0.104346 0.004535 0.003920
v 0.092030 -0.003566 0.003964
v 0.101836 0.028187 0.002204
v 0.098730 0.001774 0.005127
v 0.093590 0.005432 0.004643
v 0.098153 0.000861 0.005197
v 0.101317 0.028187 0.002251
v 0.100983 0.028187 0.002281
v 0.093590 0.003955 0.004619
v 0.092030 0.006018 -0.006077
v 0.108044 0.026292 -0.003110
v 0.104518 0.028187 -0.002046
v 0.104518 0.028187 0.000884
v 0.111451 0.026292 -0.002937
v 0.110558 0.026292 -0.002404
v 0.109725 0.026292 -0.001910
v 0.104346 0.005432 0.003811
v 0.102571 0.028187 0.001883
v 0.092030 -0.002079 0.004017
v 0.092053 0.006891 0.003982
v 0.092111 0.005432 0.004202
v 0.092111 0.003955 0.004206
v 0.100163 0.028187 0.002255
v 0.099666 0.028187 0.002235
v 0.099210 0.028187 0.002178
v 0.098387 0.028187 0.002064
v 0.098030 0.028187 0.002014
v 0.096548 0.028187 0.001804
v 0.095070 0.028187 0.001518
v 0.093590 0.028187 0.001110
v 0.092111 0.002475 0.004170
v 0.092111 0.000999 0.004129
v 0.092030 -0.000596 0.004061
v 0.092030 0.028187 -0.001624
v 0.103939 0.028187 0.001201
v 0.092030 0.006878 0.003974
v 0.092524 0.028187 0.000782
v 0.092030 0.028187 0.000575
v 0.092030 0.005432 0.004163
v 0.092030 0.005314 0.004170
v 0.092030 0.003841 0.004174
v 0.092030 0.002364 0.004139
f 82 80 97
f 54 36 53
f 55 36 54
f 56 36 55
f 94 95 80
f 92 95 94
f 92 94 93
f 93 94 80
f 65 54 53
f 84 107 108
f 82 71 70
f 14 5 4
f 50 34 51
f 52 36 50
f 53 36 52
f 52 78 79
f 90 89 113
f 113 91 90
f 79 89 90
f 15 14 16
f 58 36 57
f 36 56 57
f 92 114 96
f 80 95 96
f 96 95 92
f 96 114 97
f 96 97 80
f 84 103 104
f 69 80 82
f 82 70 69
f 69 65 80
f 54 65 45
f 115 99 117
f 84 99 100
f 99 115 100
f 117 99 116
f 76 51 75
f 77 90 91
f 79 90 77
f 77 93 80
f 77 91 92
f 92 93 77
f 53 52 77
f 77 52 79
f 77 65 53
f 80 65 77
f 59 36 58
f 59 60 36
f 36 60 39
f 23 39 40
f 40 39 60
f 60 59 40
f 40 59 58
f 40 45 61
f 50 36 35
f 36 16 35
f 35 34 50
f 35 16 34
f 14 31 32
f 32 16 14
f 31 16 32
f 34 16 33
f 33 16 31
f 106 107 84
f 86 71 82
f 86 87 71
f 84 71 83
f 83 87 84
f 71 87 83
f 102 103 84
f 84 87 102
f 65 69 68
f 64 56 55
f 55 54 64
f 54 45 64
f 64 57 56
f 61 45 43
f 119 100 118
f 118 100 115
f 109 116 99
f 84 108 109
f 109 99 84
f 2 3 1
f 1 4 2
f 2 4 5
f 22 37 23
f 23 9 22
f 74 76 78
f 74 52 50
f 78 52 74
f 50 51 74
f 51 76 74
f 38 37 36
f 36 39 38
f 23 37 38
f 38 39 23
f 62 40 58
f 45 40 62
f 58 57 62
f 57 64 62
f 36 37 21
f 21 20 36
f 37 22 21
f 19 16 36
f 36 20 19
f 15 16 6
f 6 2 5
f 6 14 15
f 6 5 14
f 84 104 105
f 105 106 84
f 66 45 65
f 65 68 66
f 47 69 70
f 47 68 69
f 47 70 71
f 47 66 68
f 45 66 47
f 71 72 47
f 85 71 84
f 84 72 85
f 85 72 71
f 44 43 45
f 44 25 43
f 63 64 45
f 45 62 63
f 63 62 64
f 20 21 8
f 8 19 20
f 9 2 8
f 8 22 9
f 8 21 22
f 17 6 16
f 18 6 17
f 17 8 18
f 16 19 17
f 19 8 17
f 7 6 18
f 2 6 7
f 18 8 7
f 7 8 2
f 84 100 101
f 88 72 84
f 111 112 88
f 84 101 88
f 24 9 23
f 23 25 24
f 41 25 23
f 23 40 41
f 61 43 42
f 43 25 42
f 25 41 42
f 42 40 61
f 42 41 40
f 10 24 25
f 9 24 10
f 10 2 9
f 46 30 49
f 45 47 29
f 30 12 29
f 120 100 119
f 120 101 100
f 110 112 111
f 111 88 110
f 110 88 101
f 28 30 46
f 28 12 30
f 45 29 27
f 27 29 12
f 3 2 11
f 2 10 11
f 10 27 11
f 11 12 3
f 11 27 12
f 72 49 48
f 48 49 30
f 30 29 48
f 48 47 72
f 48 29 47
f 112 110 121
f 101 120 121
f 121 110 101
f 98 88 112
f 98 81 88
f 46 49 67
f 72 88 73
f 88 81 73
f 73 49 72
f 81 67 73
f 73 67 49
f 3 12 13
f 12 28 13
f 26 27 10
f 25 44 26
f 26 10 25
f 26 44 45
f 45 27 26
f 75 89 76
f 76 89 79
f 79 78 76
f 105 113 117
f 105 91 113
f 82 97 105
f 105 114 92
f 92 91 105
f 117 116 105
f 97 114 105
f 107 106 105
f 105 108 107
f 105 104 103
f 105 86 82
f 103 102 105
f 105 109 108
f 87 86 105
f 105 102 87
f 116 109 105
f 1 3 13
f 13 4 1
f 117 113 13
f 13 89 75
f 13 31 14
f 75 51 13
f 113 89 13
f 119 118 13
f 14 4 13
f 13 51 34
f 13 115 117
f 34 33 13
f 13 33 31
f 13 118 115
f 13 98 112
f 13 120 119
f 46 67 13
f 112 121 13
f 13 28 46
f 13 121 120
f 81 98 13
f 13 67 81
