v 0.082914 -0.006430 -0.003339
v 0.084718 -0.006426 -0.003017
v 0.084718 -0.006424 -0.001538
v 0.083221 -0.006091 -0.001520
v 0.082914 -0.006091 -0.001824
v 0.082914 -0.006426 -0.004817
v 0.086195 -0.006378 -0.003017
v 0.092030 -0.006241 0.001413
v 0.086195 -0.006330 -0.000057
v 0.084710 -0.006083 -0.000045
v 0.082914 -0.006028 -0.001666
v 0.083705 -0.005880 -0.000530
v 0.082914 -0.006322 -0.007776
v 0.086195 -0.006278 -0.005973
v 0.087673 -0.006233 -0.004495
v 0.092030 -0.006070 -0.000130
v 0.092030 -0.006122 0.002902
v 0.089151 -0.005976 0.002499
v 0.086195 -0.005989 0.001086
v 0.085197 -0.005870 0.000867
v 0.082914 -0.005557 -0.001214
v 0.082914 -0.005052 -0.000782
v 0.082914 -0.006280 -0.008929
v 0.087818 -0.006011 -0.006118
v 0.083237 -0.006270 -0.008929
v 0.082914 -0.006020 -0.010909
v 0.092030 -0.005696 -0.003318
v 0.092030 -0.005802 0.003702
v 0.090712 -0.005994 0.002943
v 0.088109 -0.005826 0.002294
v 0.091258 -0.005715 0.003676
v 0.087953 -0.004918 0.002364
v 0.086195 -0.004918 0.001504
v 0.085082 -0.004918 0.000932
v 0.082914 -0.004566 -0.000569
v 0.082914 -0.006259 -0.009252
v 0.091625 -0.005678 -0.003939
v 0.082914 -0.005835 -0.011725
v 0.092030 -0.001095 -0.022366
v 0.092030 -0.005785 0.003741
v 0.090425 -0.004918 0.003403
v 0.092030 -0.004994 0.003884
v 0.091165 -0.004918 0.003712
v 0.090366 -0.003440 0.003434
v 0.091079 -0.001960 0.003764
v 0.090340 -0.001960 0.003439
v 0.090330 -0.000482 0.003445
v 0.087945 -0.003440 0.002369
v 0.087207 -0.003440 0.002034
v 0.085157 -0.003440 0.000867
v 0.084418 -0.003440 0.000405
v 0.083112 -0.003451 -0.000413
v 0.082914 -0.003605 -0.000528
v 0.082914 -0.003690 -0.000528
v 0.087242 -0.001960 0.001992
v 0.082914 -0.000419 -0.022366
v 0.084839 -0.000967 -0.022366
v 0.086111 -0.001141 -0.022366
v 0.087673 -0.001143 -0.022366
v 0.089151 -0.001138 -0.022366
v 0.090631 -0.001127 -0.022366
v 0.092030 0.005301 -0.022366
v 0.091104 -0.003440 0.003743
v 0.092030 -0.004918 0.003889
v 0.092030 -0.003566 0.003961
v 0.092030 -0.002079 0.004016
v 0.091069 -0.000482 0.003769
v 0.092030 0.003841 0.004175
v 0.090321 0.000996 0.003445
v 0.091059 0.000996 0.003774
v 0.091066 0.002476 0.003780
v 0.091104 0.003956 0.003780
v 0.086195 -0.001960 0.001369
v 0.082914 -0.001960 -0.000678
v 0.082914 -0.003286 -0.000554
v 0.091191 0.005432 0.003746
v 0.088173 0.000996 0.002309
v 0.082914 0.005718 -0.022366
v 0.087801 0.006012 -0.022366
v 0.086195 0.007355 -0.021231
v 0.086195 0.007957 -0.020490
v 0.082914 0.015772 -0.007825
v 0.092030 0.015772 -0.001403
v 0.092030 -0.000597 0.004060
v 0.092030 0.002363 0.004138
v 0.092030 0.005310 0.004167
v 0.092030 0.005432 0.004162
v 0.088290 0.002476 0.002236
v 0.082914 -0.001436 -0.000730
v 0.091291 0.006381 0.003689
v 0.090451 0.005432 0.003281
v 0.088449 0.004467 0.002135
v 0.089026 0.003967 0.002546
v 0.085034 0.007922 -0.020462
v 0.086195 0.006264 -0.022366
v 0.082914 0.015772 -0.003562
v 0.092030 0.015772 0.000332
v 0.092030 0.006872 0.003972
v 0.082914 -0.000160 -0.000858
v 0.088562 0.005432 0.002060
v 0.084304 0.015772 -0.002455
v 0.084296 0.015772 -0.002461
v 0.085781 0.003956 0.000467
v 0.083740 0.002476 -0.000645
v 0.082914 0.000996 -0.000977
v 0.083587 0.000996 -0.000554
v 0.082914 0.002391 -0.001172
v 0.083329 0.015772 -0.003193
v 0.090631 0.015772 -0.000063
v 0.089151 0.015772 -0.000484
v 0.088271 0.015772 -0.000754
v 0.087519 0.015772 -0.000998
v 0.086185 0.015772 -0.001528
v 0.085043 0.015772 -0.002068
v 0.082914 0.001659 -0.001068
f 27 37 39
f 26 37 24
f 37 27 24
f 39 37 38
f 38 37 26
f 94 78 82
f 95 78 94
f 8 9 3
f 17 9 8
f 26 25 36
f 25 23 36
f 14 25 26
f 26 24 14
f 8 7 14
f 7 6 14
f 14 23 25
f 57 38 56
f 58 38 57
f 39 38 61
f 81 94 82
f 2 7 8
f 8 3 2
f 2 6 7
f 1 6 2
f 2 3 1
f 30 31 32
f 9 17 18
f 18 31 30
f 87 98 90
f 90 98 101
f 98 114 101
f 15 24 27
f 15 14 24
f 27 16 15
f 15 16 8
f 8 14 15
f 23 14 13
f 13 14 6
f 59 38 58
f 80 79 95
f 95 94 80
f 94 81 80
f 82 83 62
f 62 81 82
f 79 80 62
f 62 80 81
f 20 18 30
f 30 32 20
f 55 34 49
f 41 32 31
f 29 18 17
f 40 31 29
f 31 18 29
f 86 71 68
f 46 32 45
f 49 32 48
f 42 31 40
f 43 41 31
f 31 42 43
f 98 110 111
f 111 112 98
f 113 114 98
f 98 112 113
f 96 107 108
f 98 97 109
f 109 110 98
f 60 61 38
f 38 59 60
f 12 20 22
f 1 3 4
f 12 11 4
f 33 32 49
f 49 34 33
f 33 20 32
f 34 20 33
f 50 55 73
f 34 55 50
f 9 18 19
f 18 20 19
f 76 87 90
f 45 32 44
f 32 41 44
f 40 29 28
f 28 29 17
f 67 46 45
f 45 68 67
f 69 71 49
f 49 48 69
f 65 43 64
f 64 43 42
f 91 76 90
f 21 11 12
f 12 22 21
f 35 22 20
f 35 20 34
f 1 4 5
f 5 4 11
f 10 4 3
f 10 3 9
f 10 20 12
f 12 4 10
f 9 19 10
f 10 19 20
f 53 34 52
f 73 55 77
f 55 76 77
f 86 87 72
f 87 76 72
f 72 71 86
f 49 71 72
f 72 55 49
f 72 76 55
f 46 67 47
f 47 69 48
f 32 46 47
f 47 48 32
f 66 43 65
f 63 68 45
f 63 66 84
f 43 66 63
f 45 44 63
f 41 43 63
f 63 44 41
f 102 103 100
f 90 101 102
f 102 100 90
f 107 103 102
f 102 108 107
f 76 91 92
f 100 103 92
f 90 100 92
f 92 91 90
f 54 34 53
f 54 35 34
f 34 50 51
f 51 52 34
f 52 51 74
f 74 51 50
f 70 47 67
f 70 68 71
f 70 67 68
f 71 69 70
f 69 47 70
f 68 63 85
f 85 63 84
f 105 92 104
f 104 103 107
f 104 92 103
f 53 52 75
f 52 74 75
f 88 50 73
f 88 74 50
f 73 77 88
f 88 77 76
f 99 88 92
f 115 104 107
f 105 104 115
f 76 92 93
f 93 88 76
f 92 88 93
f 105 99 106
f 106 92 105
f 106 99 92
f 74 88 89
f 88 99 89
f 60 57 56
f 56 78 60
f 60 59 58
f 60 78 95
f 95 79 60
f 58 57 60
f 39 61 60
f 60 62 39
f 79 62 60
f 82 96 102
f 96 108 102
f 102 83 82
f 114 113 102
f 102 111 110
f 102 101 114
f 102 97 83
f 112 111 102
f 102 113 112
f 110 109 102
f 102 109 97
f 8 16 85
f 83 97 85
f 85 17 8
f 85 27 39
f 85 42 40
f 98 87 85
f 86 68 85
f 85 87 86
f 39 62 85
f 85 97 98
f 85 16 27
f 85 62 83
f 40 28 85
f 65 64 85
f 85 28 17
f 85 66 65
f 85 64 42
f 84 66 85
f 82 78 89
f 23 13 89
f 26 36 89
f 89 96 82
f 89 78 56
f 56 38 89
f 89 107 96
f 89 38 26
f 1 5 89
f 89 36 23
f 89 6 1
f 89 13 6
f 89 54 53
f 89 99 105
f 11 21 89
f 89 21 22
f 22 35 89
f 89 5 11
f 35 54 89
f 53 75 89
f 89 75 74
f 89 115 107
f 105 115 89
