v 0.000423 0.015619 0.001147
v 0.000423 0.015619 -0.004492
v -0.000784 0.015593 0.001147
v 0.004225 0.014154 0.001148
v 0.005234 0.013975 0.001148
v 0.006669 0.013667 0.001148
v 0.007065 0.013558 0.000773
v 0.001400 0.015251 -0.004492
v 0.001320 0.015182 -0.005424
v 0.000423 0.015330 -0.005604
v -0.000762 0.015287 -0.005536
v -0.009056 0.015084 0.001147
v -0.008515 0.015151 0.001147
v 0.004225 0.002425 0.001148
v -0.010303 0.013984 0.001147
v -0.010755 0.013311 0.001147
v -0.013715 0.007790 0.001147
v -0.013861 0.006912 0.001147
v 0.007495 0.013394 0.001148
v 0.012021 0.011357 0.001148
v 0.000423 0.014304 -0.006265
v 0.013259 0.007966 -0.005539
v 0.012250 0.008232 -0.005776
v -0.001177 0.014413 -0.005854
v -0.012883 0.008059 -0.005617
v -0.008846 0.015029 0.000735
v -0.010677 0.013586 0.000653
v 0.017744 0.002425 0.001148
v -0.013771 0.005579 0.001147
v -0.012964 0.002425 0.001147
v -0.010677 0.013586 0.000930
v -0.013715 0.007790 -0.004492
v -0.013861 0.006912 -0.004492
v 0.015226 0.009100 0.001148
v 0.000423 0.012825 -0.006322
v -0.011404 0.006912 -0.006422
v 0.012250 0.006912 -0.006374
v 0.015610 0.008472 0.001148
v 0.016513 0.006824 0.001148
v 0.017429 0.003954 0.001148
v 0.013419 0.006912 -0.005718
v -0.012883 0.006912 -0.006063
v -0.013684 0.007744 -0.005338
v 0.016522 0.002425 -0.000125
v 0.013296 0.005740 -0.005573
v 0.017741 0.002476 0.001148
v -0.013765 0.005912 -0.004492
v -0.013718 0.006000 -0.005387
v -0.012277 0.004630 -0.005347
v -0.012800 0.002425 0.001078
v -0.013740 0.006912 -0.005428
v -0.011404 0.005433 -0.005944
v -0.012815 0.005477 -0.005658
v 0.012300 0.005323 -0.005793
v 0.015464 0.002425 -0.000697
v 0.011839 0.004613 -0.005370
v -0.004014 0.002425 -0.001797
v -0.005440 0.002425 -0.001721
v -0.005489 0.002425 -0.001718
v -0.007061 0.002425 -0.001172
v 0.011303 0.004613 -0.005370
v 0.015208 0.002425 -0.000721
v 0.001948 0.002425 -0.001671
v 0.001902 0.002425 -0.001673
v 0.000469 0.002425 -0.001718
v 0.000420 0.002425 -0.001719
v -0.001056 0.002425 -0.001760
v -0.002535 0.002425 -0.001794
f 35 37 36
f 14 29 30
f 14 4 18
f 18 29 14
f 37 45 54
f 3 4 1
f 41 45 37
f 28 45 41
f 33 29 18
f 33 43 51
f 44 45 28
f 56 54 44
f 44 54 45
f 36 37 52
f 37 54 52
f 52 53 36
f 49 53 52
f 52 54 56
f 30 49 50
f 18 4 17
f 4 16 17
f 4 12 15
f 15 16 4
f 13 12 4
f 4 3 13
f 22 41 37
f 22 20 34
f 27 12 26
f 26 43 27
f 27 15 12
f 26 12 11
f 55 62 56
f 56 44 55
f 36 53 42
f 51 43 42
f 30 29 47
f 29 33 47
f 61 52 56
f 49 52 61
f 56 57 61
f 61 57 49
f 56 62 63
f 19 20 7
f 38 22 34
f 39 22 38
f 40 22 39
f 41 22 40
f 16 15 31
f 15 27 31
f 31 17 16
f 32 27 43
f 43 33 32
f 25 43 26
f 26 11 25
f 25 42 43
f 36 42 25
f 21 35 36
f 37 35 21
f 10 21 11
f 12 13 2
f 2 11 12
f 2 13 3
f 2 10 11
f 2 3 1
f 1 7 2
f 51 42 48
f 48 42 53
f 48 33 51
f 48 47 33
f 48 53 49
f 48 49 30
f 30 47 48
f 68 57 56
f 60 50 49
f 49 59 60
f 49 57 58
f 58 59 49
f 6 7 1
f 6 19 7
f 28 41 46
f 41 40 46
f 24 25 11
f 11 21 24
f 36 25 24
f 24 21 36
f 23 22 37
f 37 21 23
f 7 20 9
f 10 2 9
f 20 22 9
f 22 23 9
f 21 10 9
f 9 23 21
f 67 68 56
f 1 4 5
f 5 6 1
f 8 2 7
f 7 9 8
f 8 9 2
f 66 67 56
f 56 63 64
f 65 66 56
f 56 64 65
f 32 31 27
f 17 31 32
f 32 33 18
f 18 17 32
f 5 38 34
f 5 14 28
f 4 14 5
f 28 46 5
f 34 20 5
f 20 19 5
f 39 38 5
f 5 40 39
f 19 6 5
f 5 46 40
f 28 14 65
f 65 14 30
f 65 44 28
f 62 55 65
f 30 50 65
f 65 63 62
f 65 55 44
f 57 68 65
f 50 60 65
f 65 58 57
f 65 60 59
f 59 58 65
f 68 67 65
f 67 66 65
f 65 64 63
