v 0.092028 0.028806 0.000606
v 0.090630 0.028806 0.000128
v 0.089150 0.023178 -0.000371
v 0.089152 0.021700 -0.000377
v 0.089152 0.020221 -0.000401
v 0.089152 0.015785 -0.000482
v 0.092028 0.017064 0.000381
v 0.092028 0.028806 -0.001874
v 0.090342 0.028806 0.000030
v 0.088203 0.021700 -0.000703
v 0.088203 0.020221 -0.000713
v 0.087492 0.017265 -0.000988
v 0.087529 0.015773 -0.000994
v 0.088233 0.017265 -0.000741
v 0.088270 0.015773 -0.000754
v 0.089152 0.015773 -0.000484
v 0.090841 0.015773 -0.000005
v 0.092028 0.015785 0.000334
v 0.092028 0.015773 -0.001403
v 0.078248 0.028598 -0.021270
v 0.086182 0.028806 -0.005853
v 0.089037 0.028806 -0.000499
v 0.089150 0.027613 -0.000414
v 0.089150 0.026134 -0.000392
v 0.088233 0.023178 -0.000711
v 0.086192 0.017265 -0.001542
v 0.086192 0.015785 -0.001525
v 0.086192 0.015773 -0.001525
v 0.092028 0.015773 0.000331
v 0.080135 0.015773 -0.013364
v 0.079891 0.015780 -0.014015
v 0.077813 0.021853 -0.021270
v 0.075053 0.028598 -0.021270
v 0.086182 0.028806 -0.001940
v 0.088954 0.028806 -0.000540
v 0.088283 0.024658 -0.000735
v 0.086192 0.018742 -0.001587
v 0.085040 0.015785 -0.002069
v 0.085040 0.015773 -0.002069
v 0.078772 0.015773 -0.014015
v 0.075025 0.021853 -0.021270
v 0.075037 0.025624 -0.021270
v 0.075053 0.028598 -0.021253
v 0.081865 0.028598 -0.005067
v 0.082111 0.028598 -0.004720
v 0.082725 0.028598 -0.003979
v 0.083464 0.028598 -0.003405
v 0.084291 0.028598 -0.002925
v 0.084759 0.028598 -0.002656
v 0.085480 0.028598 -0.002289
v 0.084847 0.027656 -0.002576
v 0.087965 0.028806 -0.001037
v 0.075067 0.028598 -0.020758
v 0.075085 0.028598 -0.020143
v 0.075097 0.028598 -0.019846
v 0.075118 0.028598 -0.019353
v 0.075138 0.028598 -0.019105
v 0.075338 0.028598 -0.018244
v 0.075450 0.028598 -0.017801
v 0.075817 0.028598 -0.016816
v 0.076297 0.028598 -0.015544
v 0.076433 0.028598 -0.015182
v 0.076713 0.028598 -0.014441
v 0.077181 0.028598 -0.013364
v 0.077792 0.028598 -0.012116
v 0.079323 0.028598 -0.009266
v 0.079588 0.028598 -0.008773
v 0.079721 0.028598 -0.008527
v 0.080322 0.028598 -0.007456
v 0.080883 0.028598 -0.006506
v 0.081374 0.028598 -0.005765
v 0.088411 0.028363 -0.000797
v 0.087494 0.023178 -0.001082
v 0.086327 0.021854 -0.001626
v 0.085244 0.021700 -0.002170
v 0.084604 0.024657 -0.002596
v 0.084508 0.021853 -0.002549
v 0.084456 0.020221 -0.002521
v 0.084303 0.015773 -0.002454
v 0.078747 0.015773 -0.014015
v 0.075025 0.023178 -0.021270
v 0.077291 0.015775 -0.014015
v 0.075030 0.021853 -0.020758
v 0.075032 0.024657 -0.021270
v 0.081284 0.020221 -0.005641
v 0.081362 0.027614 -0.005750
v 0.081240 0.015785 -0.005576
v 0.082101 0.027614 -0.004707
v 0.082692 0.026134 -0.003953
v 0.082712 0.027614 -0.003968
v 0.083366 0.020221 -0.003262
v 0.083381 0.021853 -0.003287
v 0.083433 0.026134 -0.003360
v 0.075077 0.021853 -0.019912
v 0.075095 0.021853 -0.019835
v 0.075277 0.021853 -0.019173
v 0.075486 0.027614 -0.017801
v 0.077933 0.015773 -0.012396
v 0.077229 0.026134 -0.013364
v 0.077194 0.027614 -0.013364
v 0.077812 0.024657 -0.012084
v 0.077790 0.026134 -0.012088
v 0.077787 0.027614 -0.012105
v 0.079270 0.020221 -0.009165
v 0.079321 0.021853 -0.009107
v 0.079704 0.026134 -0.008495
v 0.079714 0.027614 -0.008512
v 0.080283 0.026134 -0.007456
v 0.080771 0.015773 -0.006326
v 0.080824 0.021853 -0.006405
v 0.080873 0.027614 -0.006491
v 0.083329 0.015785 -0.003195
v 0.083329 0.015773 -0.003195
v 0.077550 0.015773 -0.013379
v 0.075673 0.023178 -0.017801
v 0.075729 0.021853 -0.017801
v 0.075321 0.021853 -0.019030
v 0.077555 0.015773 -0.013364
v 0.081979 0.015773 -0.004591
v 0.082041 0.021853 -0.004649
v 0.082069 0.024657 -0.004677
v 0.080801 0.018742 -0.006358
v 0.080789 0.017265 -0.006336
v 0.080778 0.015785 -0.006315
v 0.081240 0.015773 -0.005576
v 0.082642 0.021853 -0.003910
v 0.082674 0.024657 -0.003938
v 0.077842 0.023178 -0.012092
v 0.079293 0.015773 -0.009131
v 0.078715 0.017265 -0.010407
v 0.079270 0.017265 -0.009133
v 0.079265 0.018742 -0.009146
v 0.080149 0.015785 -0.007452
v 0.079686 0.023178 -0.008463
v 0.080223 0.021700 -0.007452
v 0.080262 0.024657 -0.007456
v 0.080778 0.015773 -0.006315
v 0.080149 0.015773 -0.007452
v 0.082627 0.020221 -0.003895
v 0.082604 0.017265 -0.003865
v 0.082592 0.015785 -0.003853
v 0.082592 0.015773 -0.003853
v 0.079652 0.015773 -0.008390
v 0.079652 0.015785 -0.008390
f 20 19 32
f 8 19 20
f 20 21 8
f 31 32 19
f 33 21 20
f 47 34 46
f 30 31 19
f 1 6 7
f 7 6 18
f 1 3 4
f 97 117 115
f 117 116 115
f 96 117 97
f 45 46 34
f 59 96 97
f 9 22 23
f 23 24 9
f 15 16 6
f 6 16 17
f 17 29 18
f 18 6 17
f 10 4 3
f 3 9 10
f 10 9 24
f 131 144 132
f 103 64 102
f 102 132 103
f 131 132 102
f 101 102 64
f 131 102 101
f 96 59 95
f 82 95 94
f 96 95 82
f 117 96 82
f 82 116 117
f 82 115 116
f 97 115 82
f 82 59 97
f 54 55 34
f 56 94 57
f 57 34 56
f 34 55 56
f 44 34 71
f 44 45 34
f 71 86 44
f 71 34 70
f 70 86 71
f 34 64 65
f 65 64 103
f 65 106 107
f 105 106 65
f 58 34 57
f 58 59 34
f 58 95 59
f 57 94 58
f 94 95 58
f 63 64 34
f 2 3 1
f 2 9 3
f 38 79 39
f 13 15 14
f 14 4 13
f 5 15 6
f 5 6 1
f 1 4 5
f 4 14 5
f 5 14 15
f 25 24 23
f 25 10 24
f 23 22 25
f 4 10 11
f 107 106 135
f 85 44 86
f 86 70 85
f 85 70 111
f 45 44 85
f 105 65 104
f 104 106 105
f 134 106 104
f 103 132 104
f 104 65 103
f 41 82 83
f 83 82 94
f 83 81 41
f 94 56 83
f 83 56 55
f 55 54 83
f 42 83 53
f 53 83 54
f 53 54 34
f 119 142 141
f 88 126 127
f 140 119 141
f 34 68 69
f 69 70 34
f 111 70 69
f 69 110 111
f 109 110 69
f 67 68 34
f 107 68 67
f 34 59 60
f 59 82 60
f 100 101 64
f 64 63 100
f 100 128 101
f 79 92 91
f 91 92 46
f 93 79 47
f 93 92 79
f 47 46 93
f 46 92 93
f 74 75 38
f 34 49 50
f 52 72 35
f 35 25 22
f 133 104 132
f 133 132 144
f 134 104 133
f 133 106 134
f 133 135 106
f 138 109 133
f 109 135 133
f 99 100 63
f 128 100 99
f 31 30 40
f 32 31 40
f 129 128 130
f 131 101 129
f 101 128 129
f 84 83 42
f 81 83 84
f 43 33 42
f 42 53 43
f 43 53 34
f 121 126 88
f 89 45 88
f 88 127 89
f 126 119 139
f 119 140 139
f 136 135 109
f 107 135 136
f 34 65 66
f 66 67 34
f 66 65 107
f 107 67 66
f 34 60 61
f 61 60 82
f 12 28 13
f 12 11 10
f 13 4 12
f 4 11 12
f 10 25 26
f 113 79 112
f 79 91 112
f 112 89 127
f 112 127 126
f 126 139 112
f 112 139 140
f 112 140 141
f 47 79 78
f 78 77 47
f 78 79 38
f 38 77 78
f 47 77 76
f 38 75 76
f 76 77 38
f 75 74 76
f 52 74 73
f 36 35 72
f 25 35 36
f 36 72 52
f 52 73 36
f 137 124 109
f 111 110 87
f 87 85 111
f 45 85 87
f 88 45 87
f 87 121 88
f 125 119 87
f 80 114 82
f 80 82 41
f 143 144 131
f 131 129 143
f 98 129 130
f 130 128 98
f 128 99 98
f 98 63 82
f 98 99 63
f 109 69 108
f 108 136 109
f 107 136 108
f 108 68 107
f 108 69 68
f 62 63 34
f 34 61 62
f 82 63 62
f 62 61 82
f 27 26 38
f 10 26 27
f 27 12 10
f 28 12 27
f 90 91 46
f 90 112 91
f 89 112 90
f 46 45 90
f 45 89 90
f 47 76 48
f 48 76 49
f 48 34 47
f 48 49 34
f 51 50 49
f 49 76 51
f 34 50 51
f 51 52 34
f 51 74 52
f 51 76 74
f 37 74 38
f 37 73 74
f 38 26 37
f 37 26 25
f 25 36 37
f 37 36 73
f 124 87 123
f 123 110 109
f 109 124 123
f 120 87 119
f 121 87 120
f 120 119 126
f 126 121 120
f 82 114 118
f 118 98 82
f 122 87 110
f 110 123 122
f 122 123 87
f 7 8 1
f 7 29 19
f 19 8 7
f 18 29 7
f 1 8 35
f 35 8 21
f 21 34 35
f 34 52 35
f 22 9 35
f 35 2 1
f 9 2 35
f 20 32 84
f 84 32 41
f 84 33 20
f 42 33 84
f 41 81 84
f 43 34 21
f 21 33 43
f 112 142 113
f 141 142 112
f 87 137 125
f 124 137 87
f 41 32 80
f 32 40 80
f 138 133 143
f 143 133 144
f 39 28 27
f 38 39 27
f 113 142 118
f 118 109 138
f 19 29 118
f 118 30 19
f 29 17 118
f 118 119 125
f 118 15 13
f 114 80 118
f 118 79 113
f 16 15 118
f 118 17 16
f 118 40 30
f 118 39 79
f 13 28 118
f 142 119 118
f 118 28 39
f 125 137 118
f 138 143 118
f 118 137 109
f 118 80 40
f 118 143 129
f 129 98 118
