v 0.113548 -0.003113 -0.036954
v 0.116486 -0.005668 -0.031865
v 0.115453 -0.005399 -0.031111
v 0.115192 -0.005626 -0.029633
v 0.113548 -0.003250 -0.036295
v 0.108866 -0.001012 -0.021859
v 0.113548 0.010256 -0.036954
v 0.124643 -0.004391 -0.036954
v 0.124643 -0.006311 -0.035383
v 0.124643 -0.007002 -0.034069
v 0.116192 -0.005699 -0.031111
v 0.108866 -0.001088 -0.016299
v 0.108866 -0.001090 -0.016326
v 0.108866 -0.001040 -0.021475
v 0.113548 -0.003826 -0.033319
v 0.113548 -0.003557 -0.034815
v 0.123164 -0.006858 -0.032589
v 0.116192 -0.005700 -0.028155
v 0.117144 -0.005142 -0.016299
v 0.116618 -0.004922 -0.016299
v 0.108866 0.005843 -0.021859
v 0.108866 0.007970 -0.017371
v 0.108866 0.008124 -0.016706
v 0.113548 0.010256 -0.032269
v 0.116207 0.010256 -0.036954
v 0.125364 -0.004362 -0.036954
v 0.126122 -0.006286 -0.035361
v 0.126122 -0.006951 -0.034069
v 0.126122 -0.006996 -0.032589
v 0.124643 -0.007029 -0.032589
v 0.108866 0.008117 -0.016299
v 0.124643 -0.006974 -0.031111
v 0.118698 -0.005237 -0.016299
v 0.116512 0.010256 -0.016299
v 0.116587 0.010256 -0.036426
v 0.128529 0.007675 -0.033509
v 0.126126 0.007589 -0.036954
v 0.126036 -0.004147 -0.036954
v 0.126204 -0.004062 -0.036954
v 0.127251 -0.006054 -0.035108
v 0.127685 -0.006304 -0.034119
v 0.127599 -0.006689 -0.032589
v 0.126122 -0.006980 -0.031111
v 0.118798 -0.005240 -0.016299
v 0.120911 0.010256 -0.016299
v 0.121146 0.010256 -0.027751
v 0.129394 0.007552 -0.032589
v 0.129044 0.007394 -0.034028
v 0.121499 0.010256 -0.026964
v 0.127671 0.006949 -0.036954
v 0.129385 -0.001700 -0.036954
v 0.129873 -0.001276 -0.036954
v 0.129955 -0.001533 -0.036624
v 0.130046 -0.002937 -0.035169
v 0.128494 -0.005903 -0.033658
v 0.128536 -0.006015 -0.032589
v 0.128447 -0.005890 -0.031572
v 0.127683 -0.006318 -0.031093
v 0.121818 -0.004113 -0.016299
v 0.121778 -0.004128 -0.016299
v 0.121802 0.010256 -0.019284
v 0.124968 0.006822 -0.016299
v 0.130313 0.006812 -0.032589
v 0.130163 0.006636 -0.034069
v 0.121621 0.010256 -0.026675
v 0.121942 0.010256 -0.025199
v 0.122006 0.010256 -0.024108
v 0.122059 0.010256 -0.022630
v 0.122085 0.010256 -0.021150
v 0.122072 0.010256 -0.020761
v 0.121882 0.010256 -0.019672
v 0.129959 0.006362 -0.035169
v 0.129159 0.006696 -0.035615
v 0.128014 0.006748 -0.036954
v 0.130015 -0.000685 -0.036954
v 0.130090 -0.000365 -0.036954
v 0.130656 -0.000482 -0.035547
v 0.131330 -0.001338 -0.033414
v 0.130956 -0.001883 -0.033972
v 0.130236 -0.002000 -0.035615
v 0.130254 -0.003150 -0.034069
v 0.131330 -0.001338 -0.033252
v 0.124165 -0.001550 -0.016299
v 0.123699 -0.002271 -0.016299
v 0.122936 -0.003389 -0.016299
v 0.125735 0.005432 -0.016299
v 0.131317 0.004756 -0.031813
v 0.130163 0.006596 -0.031426
v 0.131012 0.005320 -0.032480
v 0.131317 0.004756 -0.031912
v 0.130567 0.005430 -0.034069
v 0.130037 0.005381 -0.035615
v 0.129707 0.005841 -0.036153
v 0.128722 0.006420 -0.036645
v 0.129137 0.005592 -0.036954
v 0.131423 0.000740 -0.033646
v 0.130026 0.000511 -0.036954
v 0.131125 -0.000482 -0.034370
v 0.131416 -0.000482 -0.033630
v 0.131425 -0.000392 -0.032692
v 0.131354 0.000163 -0.031776
v 0.125719 0.002474 -0.016299
v 0.125808 0.004235 -0.016299
v 0.131392 0.000997 -0.031665
v 0.131449 0.001137 -0.032724
v 0.125821 0.003951 -0.016299
v 0.129845 0.004855 -0.036362
v 0.129223 0.005491 -0.036954
v 0.129241 0.005428 -0.036954
f 15 4 6
f 6 4 14
f 82 101 83
f 7 21 22
f 31 34 24
f 63 47 45
f 16 15 6
f 4 15 16
f 4 12 13
f 13 14 4
f 99 96 105
f 8 26 27
f 1 10 2
f 9 10 1
f 27 10 9
f 1 8 9
f 9 8 27
f 43 44 32
f 28 10 27
f 7 22 23
f 23 24 7
f 31 24 23
f 62 63 45
f 88 63 62
f 83 101 102
f 87 62 86
f 88 62 87
f 87 63 88
f 45 47 61
f 47 65 66
f 6 1 5
f 5 16 6
f 1 4 5
f 4 16 5
f 4 18 19
f 18 32 19
f 78 99 82
f 101 82 100
f 82 99 100
f 100 99 105
f 3 4 1
f 1 2 3
f 3 2 4
f 4 2 11
f 11 2 10
f 4 11 17
f 17 11 10
f 17 18 4
f 17 32 18
f 57 82 83
f 57 56 82
f 10 28 29
f 105 96 90
f 90 87 105
f 63 87 90
f 35 36 25
f 25 36 37
f 47 70 71
f 71 61 47
f 20 12 4
f 4 19 20
f 33 32 44
f 33 19 32
f 96 99 98
f 98 77 96
f 99 78 98
f 78 77 98
f 97 96 76
f 96 77 76
f 27 26 38
f 38 39 27
f 27 39 40
f 40 28 27
f 40 41 28
f 55 41 40
f 40 54 55
f 81 54 79
f 55 54 81
f 81 56 55
f 79 78 81
f 82 56 81
f 81 78 82
f 79 54 80
f 30 17 10
f 32 17 30
f 10 29 30
f 43 32 30
f 30 29 43
f 56 57 42
f 43 29 42
f 42 29 28
f 28 41 42
f 55 56 42
f 42 41 55
f 107 108 93
f 93 92 107
f 107 96 97
f 107 92 96
f 74 73 94
f 104 106 102
f 104 102 101
f 87 106 104
f 105 87 104
f 104 100 105
f 101 100 104
f 103 87 86
f 103 106 87
f 47 63 64
f 36 35 46
f 48 37 36
f 48 36 47
f 47 64 48
f 69 70 47
f 47 68 69
f 47 66 67
f 67 68 47
f 52 40 51
f 51 40 39
f 53 80 54
f 53 40 52
f 54 40 53
f 79 80 53
f 53 78 79
f 53 77 78
f 52 75 53
f 53 75 76
f 53 76 77
f 84 57 83
f 84 85 57
f 109 107 97
f 108 107 109
f 74 94 95
f 93 108 95
f 95 94 93
f 63 90 89
f 89 64 63
f 36 46 49
f 49 65 47
f 47 36 49
f 37 48 50
f 50 73 74
f 50 48 73
f 60 44 43
f 43 59 60
f 58 59 43
f 43 42 58
f 58 42 57
f 85 59 58
f 57 85 58
f 64 89 91
f 91 89 90
f 96 92 91
f 91 90 96
f 64 91 72
f 72 92 93
f 72 91 92
f 93 94 72
f 72 94 73
f 73 48 72
f 72 48 64
f 7 1 21
f 21 1 6
f 23 12 31
f 23 21 6
f 6 14 23
f 23 13 12
f 23 22 21
f 14 13 23
f 49 34 45
f 7 24 49
f 49 25 7
f 49 24 34
f 49 66 65
f 45 61 49
f 49 67 66
f 49 71 70
f 49 35 25
f 61 71 49
f 70 69 49
f 49 46 35
f 49 69 68
f 68 67 49
f 50 1 7
f 7 25 50
f 97 76 50
f 50 8 1
f 52 51 50
f 26 8 50
f 74 95 50
f 50 75 52
f 50 109 97
f 25 37 50
f 50 38 26
f 39 38 50
f 76 75 50
f 50 51 39
f 108 109 50
f 50 95 108
f 31 12 60
f 45 34 60
f 83 102 60
f 60 34 31
f 60 62 45
f 60 33 44
f 86 62 60
f 60 103 86
f 12 20 60
f 102 106 60
f 60 20 19
f 19 33 60
f 60 84 83
f 106 103 60
f 85 84 60
f 60 59 85
