v 0.116204 0.010257 -0.036955
v 0.115891 0.010257 -0.037438
v 0.109580 0.010257 -0.036955
v 0.098028 0.007057 -0.036610
v 0.104007 0.005841 -0.036610
v 0.126128 0.007590 -0.036955
v 0.126117 0.007587 -0.037029
v 0.126117 0.007445 -0.038509
v 0.124642 0.007436 -0.041464
v 0.115343 0.010257 -0.038082
v 0.092030 0.010257 -0.039663
v 0.092030 0.009960 -0.039413
v 0.092030 0.009767 -0.039277
v 0.092030 0.005961 -0.036610
v 0.096549 0.006875 -0.036610
v 0.130088 -0.000366 -0.036955
v 0.130025 0.000513 -0.036955
v 0.129242 0.005430 -0.036955
v 0.129224 0.005492 -0.036955
v 0.129134 0.005589 -0.036955
v 0.128017 0.006749 -0.036955
v 0.127670 0.006949 -0.036955
v 0.104007 -0.001031 -0.036610
v 0.127283 0.006758 -0.038509
v 0.125893 0.006767 -0.041464
v 0.125640 0.006524 -0.042668
v 0.124746 0.006710 -0.043073
v 0.120212 0.007238 -0.044776
v 0.108380 0.010257 -0.042761
v 0.113559 0.010257 -0.039586
v 0.113812 0.010257 -0.039430
v 0.114550 0.010257 -0.038821
v 0.115142 0.010257 -0.038276
v 0.092030 0.010257 -0.043147
v 0.092030 -0.000752 -0.036610
v 0.130013 -0.000686 -0.036955
v 0.130036 -0.000355 -0.037084
v 0.129820 0.000222 -0.037779
v 0.129820 0.000265 -0.037779
v 0.128512 0.004890 -0.039607
v 0.102464 -0.001012 -0.036610
v 0.124642 -0.004391 -0.036955
v 0.125364 -0.004362 -0.036955
v 0.126035 -0.004146 -0.036955
v 0.126199 -0.004063 -0.036955
v 0.129380 -0.001701 -0.036955
v 0.129872 -0.001276 -0.036955
v 0.125312 0.006130 -0.043652
v 0.121698 0.006703 -0.044776
v 0.118670 0.007544 -0.044776
v 0.098028 0.005432 -0.049058
v 0.098028 0.006404 -0.048466
v 0.106976 0.010257 -0.043447
v 0.118379 0.007599 -0.044776
v 0.096161 0.010257 -0.044703
v 0.094231 0.006271 -0.048234
v 0.092030 0.006599 -0.045716
v 0.092030 -0.004391 -0.037658
v 0.109934 -0.003760 -0.036955
v 0.092592 -0.000800 -0.036610
v 0.129704 -0.000762 -0.037613
v 0.129298 -0.000355 -0.038367
v 0.128009 -0.000483 -0.040186
v 0.125398 -0.001265 -0.043707
v 0.126921 0.003953 -0.042287
v 0.127499 0.003953 -0.041464
v 0.128177 0.003953 -0.040392
v 0.126929 0.004791 -0.042296
v 0.106901 -0.004770 -0.037495
v 0.106901 -0.005508 -0.038194
v 0.118726 -0.006193 -0.038917
v 0.118726 -0.006900 -0.039987
v 0.120205 -0.006725 -0.039987
v 0.120205 -0.006962 -0.041464
v 0.121788 -0.006245 -0.041482
v 0.121769 -0.006227 -0.042907
v 0.122321 -0.005522 -0.043376
v 0.125498 -0.002848 -0.042381
v 0.127141 -0.001474 -0.041060
v 0.125580 0.005145 -0.043945
v 0.124496 0.005294 -0.044776
v 0.123721 0.005853 -0.044776
v 0.122816 0.006300 -0.044776
v 0.098028 0.003952 -0.049308
v 0.096549 0.005432 -0.049005
v 0.096549 0.006436 -0.048472
v 0.100307 0.010257 -0.045197
v 0.106782 0.010257 -0.043515
v 0.106235 0.010257 -0.043706
v 0.096549 0.010257 -0.044829
v 0.094101 0.005432 -0.048375
v 0.092030 0.005343 -0.046422
v 0.092030 0.005469 -0.046355
v 0.095070 0.006369 -0.048365
v 0.095070 0.005432 -0.048778
v 0.092030 -0.004839 -0.038018
v 0.125152 -0.002250 -0.043366
v 0.124593 -0.001853 -0.044343
v 0.124343 -0.001676 -0.044776
v 0.124612 -0.000509 -0.044776
v 0.092030 -0.005175 -0.038390
v 0.092030 -0.005680 -0.039098
v 0.114292 -0.007810 -0.044420
v 0.115771 -0.007743 -0.044420
v 0.117250 -0.007606 -0.044776
v 0.118629 -0.007389 -0.044776
v 0.119411 -0.007220 -0.044776
v 0.120205 -0.006935 -0.042942
v 0.121333 -0.006080 -0.044114
v 0.119709 -0.007077 -0.044776
v 0.122756 -0.004536 -0.044150
v 0.122533 -0.004295 -0.044776
v 0.124168 -0.003011 -0.043994
v 0.124615 0.000081 -0.044776
v 0.124548 0.004137 -0.044776
v 0.098028 0.002473 -0.049317
v 0.096549 0.002473 -0.049201
v 0.096549 0.003952 -0.049188
v 0.098370 0.010257 -0.045154
v 0.098978 0.010257 -0.045181
v 0.099588 0.010257 -0.045197
v 0.094015 0.003952 -0.048457
v 0.092030 -0.001961 -0.047513
v 0.095070 0.003952 -0.048946
v 0.123837 -0.002560 -0.044776
v 0.124023 -0.002253 -0.044776
v 0.098028 -0.003440 -0.049328
v 0.092030 -0.006574 -0.044420
v 0.094310 -0.007142 -0.045120
v 0.113939 -0.007833 -0.044776
v 0.115771 -0.007755 -0.044776
v 0.098028 -0.005880 -0.048490
v 0.098028 -0.004918 -0.049094
v 0.120342 -0.006535 -0.044776
v 0.121821 -0.005062 -0.044776
v 0.122939 -0.003796 -0.044776
v 0.123103 -0.003583 -0.044776
v 0.098028 -0.001961 -0.049328
v 0.098028 -0.000481 -0.049327
v 0.098028 0.000998 -0.049322
v 0.096549 0.000998 -0.049209
v 0.093863 -0.001961 -0.048454
v 0.092030 -0.003360 -0.047548
v 0.095070 0.002473 -0.048952
v 0.093840 -0.003440 -0.048454
v 0.096549 -0.004918 -0.049076
v 0.096549 -0.003440 -0.049203
v 0.096549 -0.001961 -0.049209
v 0.096549 -0.000481 -0.049210
v 0.092030 -0.006043 -0.045896
v 0.094310 -0.007142 -0.045176
v 0.095070 -0.006409 -0.047379
v 0.096549 -0.005972 -0.048535
v 0.092030 -0.003440 -0.047548
v 0.095070 0.000998 -0.048952
v 0.093997 -0.004918 -0.048396
v 0.095070 -0.000481 -0.048946
v 0.095070 -0.001961 -0.048939
v 0.095070 -0.003440 -0.048931
v 0.095070 -0.004918 -0.048814
v 0.095070 -0.005903 -0.048409
v 0.092030 -0.005551 -0.046543
v 0.094190 -0.005786 -0.048264
v 0.093725 -0.006698 -0.045761
v 0.092030 -0.004910 -0.047004
f 13 14 3
f 3 12 13
f 11 12 3
f 122 91 124
f 57 34 56
f 91 92 56
f 58 59 35
f 35 59 60
f 43 72 73
f 134 110 133
f 142 122 124
f 1 3 4
f 28 29 9
f 112 133 127
f 94 56 90
f 86 87 52
f 118 117 124
f 84 117 118
f 123 92 91
f 91 122 123
f 57 56 93
f 93 56 92
f 101 70 96
f 71 72 43
f 71 70 72
f 59 58 69
f 69 58 96
f 96 70 69
f 23 46 47
f 45 46 23
f 74 73 72
f 132 153 133
f 146 153 161
f 133 153 146
f 127 133 146
f 145 156 154
f 145 142 124
f 15 3 14
f 15 4 3
f 1 4 5
f 5 23 16
f 1 5 6
f 87 89 54
f 52 87 54
f 134 133 135
f 133 112 135
f 55 56 34
f 55 90 56
f 94 90 119
f 119 86 94
f 94 86 85
f 84 118 85
f 28 9 27
f 27 49 28
f 84 81 115
f 143 123 122
f 122 142 143
f 143 145 154
f 142 145 143
f 72 70 102
f 70 101 102
f 42 71 43
f 70 71 42
f 42 69 70
f 59 69 42
f 42 60 59
f 42 41 60
f 23 41 42
f 43 23 42
f 16 23 36
f 23 47 36
f 44 23 43
f 44 45 23
f 43 73 44
f 73 74 44
f 107 133 110
f 46 45 76
f 76 107 110
f 76 47 46
f 160 146 161
f 160 145 159
f 156 145 160
f 147 160 159
f 146 160 147
f 147 148 127
f 127 146 147
f 124 117 141
f 157 145 155
f 144 145 124
f 155 145 144
f 124 141 144
f 161 153 152
f 152 130 151
f 153 130 152
f 150 151 128
f 150 164 151
f 21 5 20
f 17 5 16
f 18 5 17
f 8 25 9
f 8 9 1
f 30 9 29
f 30 31 9
f 50 28 52
f 52 54 50
f 50 29 28
f 50 54 29
f 29 54 53
f 127 99 126
f 126 125 127
f 127 125 137
f 113 137 125
f 47 76 77
f 87 86 121
f 95 56 94
f 94 85 95
f 124 91 95
f 91 56 95
f 95 118 124
f 95 85 118
f 51 86 52
f 51 85 86
f 84 85 51
f 51 49 83
f 83 82 51
f 52 28 51
f 28 49 51
f 51 81 84
f 51 82 81
f 83 49 48
f 49 27 48
f 48 82 83
f 81 82 48
f 84 115 116
f 116 117 84
f 116 141 117
f 139 115 114
f 106 132 133
f 133 107 106
f 105 132 106
f 106 74 105
f 106 107 74
f 74 107 108
f 107 76 108
f 45 44 75
f 75 76 45
f 75 44 74
f 74 108 75
f 75 108 76
f 131 130 153
f 131 132 105
f 153 132 131
f 72 102 103
f 130 131 103
f 163 160 161
f 156 160 163
f 163 150 162
f 162 165 163
f 161 152 163
f 163 165 154
f 154 156 163
f 164 150 163
f 151 164 163
f 163 152 151
f 158 157 147
f 158 147 159
f 159 145 158
f 145 157 158
f 148 155 149
f 149 144 141
f 155 144 149
f 127 148 149
f 19 5 18
f 19 20 5
f 24 8 21
f 25 8 24
f 40 19 18
f 68 48 40
f 21 8 22
f 22 8 6
f 22 5 21
f 22 6 5
f 1 6 7
f 7 8 1
f 6 8 7
f 1 9 2
f 9 10 2
f 9 31 32
f 88 54 89
f 88 53 54
f 136 112 127
f 127 137 136
f 136 113 112
f 137 113 136
f 78 79 47
f 47 77 78
f 112 113 78
f 125 126 97
f 97 113 125
f 97 78 113
f 64 79 97
f 79 78 97
f 86 119 120
f 120 121 86
f 26 48 27
f 9 25 26
f 26 27 9
f 26 40 48
f 25 24 26
f 20 19 26
f 19 40 26
f 21 20 26
f 26 24 21
f 140 115 139
f 140 116 115
f 139 141 140
f 141 116 140
f 138 114 127
f 139 114 138
f 127 149 138
f 138 141 139
f 138 149 141
f 100 99 127
f 127 114 100
f 64 99 100
f 80 114 115
f 80 115 81
f 80 100 114
f 81 48 80
f 80 48 68
f 64 100 65
f 65 80 68
f 100 80 65
f 47 79 61
f 61 79 64
f 151 130 129
f 130 103 129
f 129 103 102
f 129 102 128
f 128 151 129
f 72 103 104
f 104 103 131
f 104 74 72
f 105 74 104
f 104 131 105
f 18 17 39
f 39 40 18
f 39 17 16
f 33 10 9
f 9 32 33
f 109 78 77
f 134 135 109
f 109 77 76
f 109 110 134
f 109 76 110
f 98 126 99
f 98 97 126
f 98 99 64
f 64 97 98
f 37 36 47
f 47 61 37
f 16 36 37
f 64 63 62
f 62 61 64
f 68 40 67
f 40 39 67
f 112 78 111
f 78 109 111
f 111 135 112
f 111 109 135
f 38 37 61
f 61 62 38
f 38 39 16
f 16 37 38
f 38 62 63
f 38 63 64
f 64 65 38
f 38 67 39
f 66 65 68
f 68 67 66
f 66 38 65
f 67 38 66
f 5 14 35
f 35 60 5
f 5 41 23
f 5 15 14
f 60 41 5
f 4 15 5
f 148 147 157
f 157 155 148
f 11 34 150
f 96 58 150
f 150 14 13
f 150 12 11
f 57 93 150
f 13 12 150
f 35 14 150
f 150 34 57
f 150 101 96
f 128 102 150
f 150 58 35
f 92 123 150
f 150 93 92
f 150 143 154
f 154 165 150
f 123 143 150
f 150 102 101
f 150 165 162
f 33 34 11
f 33 89 87
f 11 3 33
f 33 3 1
f 33 55 34
f 33 30 29
f 29 53 33
f 87 121 33
f 90 55 33
f 33 119 90
f 1 2 33
f 31 30 33
f 33 32 31
f 33 88 89
f 33 2 10
f 33 120 119
f 53 88 33
f 121 120 33
