v 0.104522 0.026293 -0.001713
v 0.104522 0.026293 0.000908
v 0.104522 0.027865 -0.012041
v 0.107690 0.010257 -0.004927
v 0.104522 0.027614 0.000892
v 0.107690 0.010257 -0.000800
v 0.107690 0.010298 -0.000799
v 0.113843 0.010257 -0.003542
v 0.104522 0.028187 -0.012041
v 0.105461 0.028171 -0.012041
v 0.120041 0.022648 -0.011601
v 0.119273 0.010257 -0.010772
v 0.113938 0.010257 -0.010772
v 0.111568 0.010257 -0.008646
v 0.104522 0.028006 0.000887
v 0.114781 0.010257 -0.004412
v 0.114918 0.028187 -0.005351
v 0.114179 0.028187 -0.004709
v 0.113196 0.028187 -0.003970
v 0.112457 0.028187 -0.003523
v 0.111773 0.028187 -0.003117
v 0.109727 0.028187 -0.001913
v 0.108296 0.028187 -0.001141
v 0.104522 0.028187 0.000884
v 0.105477 0.028187 -0.012041
v 0.105488 0.028183 -0.012041
v 0.120044 0.022750 -0.011601
v 0.116567 0.010257 -0.006616
v 0.120007 0.022648 -0.011532
v 0.119674 0.022648 -0.010883
v 0.115294 0.010257 -0.004957
v 0.115185 0.028187 -0.005635
v 0.109849 0.028187 -0.011747
v 0.120120 0.026293 -0.011601
v 0.116282 0.010257 -0.006219
v 0.119719 0.026135 -0.010826
v 0.119720 0.026293 -0.010825
v 0.116040 0.010257 -0.005908
v 0.119197 0.026293 -0.010163
v 0.119134 0.026293 -0.010085
v 0.118473 0.026293 -0.009262
v 0.118395 0.026293 -0.009166
v 0.117850 0.026293 -0.008506
v 0.117783 0.026293 -0.008426
v 0.115657 0.028187 -0.006138
v 0.115657 0.028187 -0.010871
v 0.119780 0.026293 -0.010940
f 3 4 1
f 13 3 12
f 33 46 34
f 4 3 14
f 14 3 13
f 34 46 45
f 11 12 3
f 25 33 34
f 8 23 24
f 22 23 8
f 16 17 8
f 26 25 34
f 18 19 8
f 8 17 18
f 8 19 20
f 34 45 47
f 47 36 34
f 17 16 31
f 27 26 34
f 11 26 27
f 34 29 27
f 12 11 27
f 27 29 12
f 10 11 3
f 10 26 11
f 7 6 8
f 7 2 6
f 8 2 7
f 5 2 8
f 21 22 8
f 8 20 21
f 30 28 12
f 36 28 30
f 12 29 30
f 34 36 30
f 30 29 34
f 32 31 45
f 17 31 32
f 45 31 44
f 8 24 15
f 15 5 8
f 31 41 42
f 42 41 45
f 37 39 31
f 31 38 37
f 36 47 37
f 37 38 35
f 37 47 45
f 45 39 37
f 35 28 37
f 37 28 36
f 40 41 31
f 31 39 40
f 45 41 40
f 40 39 45
f 43 44 31
f 31 42 43
f 45 44 43
f 43 42 45
f 4 6 2
f 1 4 2
f 9 25 10
f 10 3 9
f 25 26 10
f 19 18 32
f 32 45 46
f 46 33 32
f 32 25 9
f 9 24 32
f 33 25 32
f 22 21 32
f 32 24 23
f 23 22 32
f 32 18 17
f 32 20 19
f 32 21 20
f 38 6 4
f 13 12 38
f 8 6 38
f 4 14 38
f 38 14 13
f 38 16 8
f 12 28 38
f 38 28 35
f 38 31 16
f 15 24 9
f 15 3 1
f 9 3 15
f 1 2 15
f 2 5 15
