v 0.086196 0.006264 -0.022366
v 0.090683 0.009966 -0.024521
v 0.090631 0.011005 -0.025250
v 0.089152 0.010813 -0.025606
v 0.085942 0.006148 -0.022366
v 0.087803 0.006010 -0.022366
v 0.092028 0.005301 -0.022366
v 0.091406 0.009541 -0.024443
v 0.091983 0.009966 -0.024797
v 0.092110 0.010928 -0.025425
v 0.092110 0.011301 -0.026676
v 0.090631 0.011402 -0.026677
v 0.089152 0.011100 -0.026677
v 0.088405 0.010618 -0.025923
v 0.085311 0.005812 -0.022366
v 0.092028 0.010003 -0.024839
v 0.092028 -0.001095 -0.022366
v 0.093053 0.010256 -0.025672
v 0.092999 0.010764 -0.025742
v 0.092352 0.010256 -0.025139
v 0.092029 0.010256 -0.024989
v 0.092110 0.011228 -0.028154
v 0.090631 0.011373 -0.028155
v 0.093149 0.010903 -0.026676
v 0.089085 0.010975 -0.028160
v 0.088323 0.010725 -0.027671
v 0.088339 0.010703 -0.026677
v 0.085311 0.006077 -0.031973
v 0.085311 -0.001031 -0.022366
v 0.090631 -0.001127 -0.022366
v 0.091404 -0.004180 -0.025926
v 0.092028 -0.004116 -0.026244
v 0.093364 0.010256 -0.026676
v 0.093077 0.010833 -0.028154
v 0.092904 0.010671 -0.028953
v 0.092110 0.010854 -0.029173
v 0.090631 0.010980 -0.029327
v 0.089532 0.010839 -0.029159
v 0.085312 0.006077 -0.031980
v 0.085311 0.005900 -0.031980
v 0.085311 -0.000991 -0.031980
v 0.089290 -0.003797 -0.026735
v 0.089872 -0.004182 -0.025921
v 0.086112 -0.001141 -0.022366
v 0.089153 -0.001139 -0.022366
v 0.090631 -0.004183 -0.025918
v 0.092028 -0.004182 -0.026855
v 0.092028 -0.004180 -0.027530
v 0.092028 -0.004179 -0.027559
v 0.092028 -0.003957 -0.028257
v 0.092028 -0.003918 -0.028328
v 0.093325 0.010256 -0.027271
v 0.093239 0.010256 -0.028154
v 0.093133 0.010256 -0.028541
v 0.092028 0.005432 -0.031980
v 0.085834 0.006035 -0.031980
v 0.092028 -0.001145 -0.031980
v 0.090631 -0.003419 -0.029382
v 0.090611 -0.004160 -0.028096
v 0.090105 -0.004176 -0.027263
v 0.089872 -0.004182 -0.026279
v 0.090611 -0.004183 -0.026735
v 0.087674 -0.001142 -0.022366
v 0.091091 -0.004180 -0.027565
f 15 26 28
f 28 26 39
f 18 7 17
f 18 17 33
f 33 17 32
f 32 47 33
f 58 41 57
f 40 28 39
f 39 37 56
f 56 37 55
f 39 26 38
f 38 37 39
f 42 29 41
f 41 61 42
f 43 44 29
f 46 44 43
f 29 42 43
f 43 42 61
f 46 47 31
f 47 32 31
f 31 32 17
f 51 58 57
f 51 52 33
f 57 52 51
f 55 37 36
f 36 35 55
f 57 55 54
f 55 35 54
f 25 38 26
f 26 13 25
f 3 1 2
f 2 10 3
f 9 10 2
f 63 44 46
f 46 45 63
f 30 31 17
f 30 45 46
f 46 31 30
f 53 52 57
f 57 54 53
f 53 54 35
f 22 36 37
f 35 36 22
f 27 13 26
f 14 13 27
f 27 26 15
f 15 14 27
f 3 12 4
f 12 13 4
f 4 13 14
f 4 5 1
f 4 1 3
f 15 5 4
f 4 14 15
f 23 13 12
f 23 25 13
f 23 22 37
f 37 38 23
f 38 25 23
f 7 18 19
f 19 18 33
f 33 24 19
f 7 2 6
f 6 2 1
f 7 9 8
f 8 2 7
f 9 2 8
f 33 47 48
f 48 49 33
f 50 51 33
f 33 49 50
f 46 43 62
f 62 43 61
f 62 47 46
f 62 48 47
f 34 53 35
f 35 22 34
f 34 22 24
f 52 53 34
f 33 52 34
f 34 24 33
f 24 22 11
f 11 23 12
f 22 23 11
f 11 12 3
f 3 10 11
f 11 19 24
f 10 19 11
f 21 10 9
f 21 19 10
f 59 50 49
f 58 51 59
f 51 50 59
f 49 48 59
f 41 58 59
f 19 21 20
f 7 19 20
f 48 62 64
f 64 59 48
f 64 62 61
f 16 21 9
f 16 20 21
f 16 9 7
f 7 20 16
f 60 64 61
f 59 64 60
f 60 61 41
f 41 59 60
f 40 29 15
f 41 29 40
f 15 28 40
f 57 41 56
f 56 40 39
f 56 55 57
f 41 40 56
f 17 7 6
f 44 63 6
f 15 29 6
f 29 44 6
f 6 30 17
f 6 5 15
f 1 5 6
f 6 63 45
f 45 30 6
