v 0.077357 -0.006609 -0.013368
v 0.077357 -0.006609 -0.013334
v 0.077356 -0.006473 -0.029631
v 0.077356 -0.006458 -0.031980
v 0.082914 -0.006423 -0.004820
v 0.082914 -0.006425 -0.004497
v 0.082914 -0.006427 -0.003339
v 0.077357 -0.006541 -0.011887
v 0.077356 -0.006188 -0.022365
v 0.077356 -0.006447 -0.028153
v 0.081758 -0.006431 -0.004497
v 0.080280 -0.006433 -0.005975
v 0.080281 -0.006293 -0.031980
v 0.077356 0.014013 -0.031980
v 0.081811 -0.006192 -0.031980
v 0.083134 -0.005941 -0.031980
v 0.083848 -0.005570 -0.031980
v 0.083942 -0.005505 -0.031980
v 0.082914 -0.006355 -0.003013
v 0.077357 -0.006260 -0.007419
v 0.077357 -0.006267 -0.007453
v 0.084370 -0.004720 -0.031980
v 0.084634 -0.003964 -0.031980
v 0.085309 -0.001031 -0.022365
v 0.077357 -0.005989 -0.006320
v 0.077357 -0.005962 -0.006298
v 0.077357 -0.004882 -0.005445
v 0.077357 -0.003552 -0.004740
v 0.077357 -0.001929 -0.004127
v 0.077357 -0.001830 -0.004094
v 0.077356 0.015770 -0.022365
v 0.077356 0.015770 -0.031654
v 0.077553 0.015770 -0.031980
v 0.082914 -0.006089 -0.001827
v 0.084793 -0.003438 -0.031980
v 0.085309 -0.000991 -0.031980
v 0.085309 0.005810 -0.022365
v 0.082914 -0.003688 -0.000525
v 0.082914 -0.004565 -0.000571
v 0.082914 -0.005051 -0.000787
v 0.082914 -0.005555 -0.001212
v 0.082914 -0.006026 -0.001667
v 0.082217 -0.005881 -0.002003
v 0.082717 -0.005213 -0.001018
v 0.082472 -0.004227 -0.000777
v 0.082472 -0.003949 -0.000777
v 0.077357 -0.000706 -0.004115
v 0.077357 0.014162 -0.012287
v 0.077357 0.014190 -0.012311
v 0.077357 0.014988 -0.013023
v 0.077357 0.015766 -0.013851
v 0.077357 0.015770 -0.014128
v 0.077357 -0.000610 -0.004127
v 0.077357 0.000998 -0.004648
v 0.077357 0.001033 -0.004660
v 0.077357 0.005431 -0.006270
v 0.077357 0.006311 -0.006624
v 0.077357 0.007052 -0.007105
v 0.077357 0.008077 -0.007844
v 0.079880 0.015770 -0.031980
v 0.085309 0.005900 -0.031980
v 0.085309 0.006077 -0.031971
v 0.082914 0.015770 -0.003564
v 0.082914 0.002392 -0.001171
v 0.082914 0.001112 -0.000993
v 0.082914 0.000998 -0.000978
v 0.082914 -0.000159 -0.000857
v 0.082914 -0.001960 -0.000679
v 0.082914 -0.003603 -0.000525
v 0.079293 0.015770 -0.009131
v 0.077933 0.015770 -0.012398
v 0.077554 0.015770 -0.013368
v 0.082589 0.015770 -0.003853
v 0.081978 0.015770 -0.004592
v 0.080776 0.015770 -0.006317
v 0.080147 0.015770 -0.007453
v 0.079652 0.015770 -0.008392
v 0.081239 0.015770 -0.005578
v 0.083727 0.009867 -0.031980
v 0.082914 0.015770 -0.007828
f 9 30 31
f 64 37 63
f 63 37 62
f 31 50 51
f 22 7 18
f 4 13 5
f 79 60 80
f 63 62 80
f 80 62 79
f 79 62 61
f 24 38 39
f 39 40 24
f 41 42 24
f 24 40 41
f 24 42 34
f 53 64 63
f 37 64 65
f 65 66 37
f 64 53 65
f 65 53 66
f 5 16 17
f 17 18 5
f 5 18 6
f 6 18 7
f 15 16 5
f 5 13 15
f 14 32 33
f 40 39 45
f 45 46 30
f 45 39 38
f 42 41 43
f 19 7 24
f 24 34 19
f 3 2 10
f 10 2 9
f 3 4 1
f 1 2 3
f 1 4 5
f 5 6 1
f 7 2 1
f 1 6 7
f 25 34 42
f 42 43 25
f 31 51 52
f 51 72 52
f 37 68 69
f 37 66 67
f 67 68 37
f 35 36 24
f 44 41 40
f 44 43 41
f 44 25 43
f 40 45 44
f 31 53 54
f 54 55 31
f 78 75 57
f 57 74 78
f 56 74 57
f 56 57 31
f 31 55 56
f 50 70 71
f 71 51 50
f 71 72 51
f 68 67 47
f 47 69 68
f 66 53 47
f 47 67 66
f 46 69 47
f 30 46 47
f 31 30 47
f 47 53 31
f 23 35 24
f 24 7 23
f 23 7 22
f 9 27 28
f 28 44 45
f 28 27 44
f 9 25 26
f 26 27 9
f 25 44 26
f 44 27 26
f 9 2 8
f 8 21 9
f 20 25 9
f 9 21 20
f 34 25 20
f 20 19 34
f 7 19 20
f 20 21 7
f 73 53 63
f 73 54 53
f 55 54 73
f 73 56 55
f 74 56 73
f 70 48 59
f 59 48 31
f 49 50 31
f 31 48 49
f 49 70 50
f 49 48 70
f 57 75 76
f 76 77 57
f 58 77 70
f 57 77 58
f 70 59 58
f 31 57 58
f 58 59 31
f 30 9 29
f 9 28 29
f 29 45 30
f 29 28 45
f 21 8 12
f 12 8 2
f 7 21 11
f 21 12 11
f 11 2 7
f 11 12 2
f 36 62 37
f 36 37 24
f 36 61 62
f 10 9 31
f 32 14 10
f 31 32 10
f 10 4 3
f 10 14 4
f 24 37 69
f 69 38 24
f 69 45 38
f 46 45 69
f 23 60 79
f 16 15 23
f 22 18 23
f 33 60 23
f 79 61 23
f 23 17 16
f 13 4 23
f 4 14 23
f 18 17 23
f 23 15 13
f 23 14 33
f 61 36 23
f 36 35 23
f 76 32 31
f 63 80 76
f 33 32 76
f 76 60 33
f 76 80 60
f 31 52 76
f 72 71 76
f 76 52 72
f 76 73 63
f 75 78 76
f 76 78 74
f 70 77 76
f 76 71 70
f 74 73 76
