v 0.086185 0.028809 -0.005856
v 0.086185 0.028809 -0.001946
v 0.082126 0.033937 -0.050593
v 0.085184 0.030585 -0.039316
v 0.087830 0.030585 -0.041681
v 0.089018 0.030585 -0.042683
v 0.090513 0.030585 -0.043514
v 0.091248 0.030585 -0.043695
v 0.091968 0.030585 -0.043700
v 0.092029 0.030585 -0.043700
v 0.092029 0.028809 -0.001877
v 0.085184 0.042402 -0.002053
v 0.085184 0.030585 -0.002516
v 0.088427 0.028809 -0.000811
v 0.087865 0.042402 -0.000524
v 0.087125 0.042402 -0.000902
v 0.086196 0.042402 -0.001435
v 0.081915 0.034880 -0.050194
v 0.081866 0.035010 -0.051813
v 0.082217 0.034016 -0.051813
v 0.083237 0.033384 -0.051813
v 0.084716 0.033288 -0.051813
v 0.092029 0.032925 -0.047642
v 0.092029 0.028809 0.000600
v 0.085184 0.043065 -0.002101
v 0.081001 0.040313 -0.051030
v 0.081001 0.039793 -0.051030
v 0.081564 0.036490 -0.050332
v 0.089038 0.028809 -0.000502
v 0.089151 0.042402 0.000110
v 0.087927 0.043491 -0.000556
v 0.085206 0.043422 -0.002117
v 0.085184 0.043395 -0.002127
v 0.081001 0.039793 -0.051110
v 0.081769 0.036490 -0.051813
v 0.082496 0.034266 -0.052554
v 0.083237 0.033985 -0.052735
v 0.084716 0.033967 -0.052746
v 0.092029 0.032966 -0.047695
v 0.092029 0.042402 0.001415
v 0.090343 0.028809 0.000025
v 0.081001 0.040313 -0.051110
v 0.085184 0.043439 -0.002154
v 0.085184 0.043945 -0.002985
v 0.085184 0.044366 -0.004498
v 0.085184 0.047137 -0.031565
v 0.084160 0.045843 -0.045682
v 0.090848 0.042402 0.000899
v 0.090107 0.042402 0.000574
v 0.086196 0.043661 -0.001786
v 0.090938 0.043399 0.000840
v 0.089151 0.043715 -0.000263
v 0.082407 0.039446 -0.052612
v 0.081542 0.039359 -0.051685
v 0.082443 0.036490 -0.052586
v 0.082473 0.035010 -0.052570
v 0.083237 0.035010 -0.052932
v 0.084716 0.035010 -0.052953
v 0.085477 0.034242 -0.052575
v 0.092029 0.033664 -0.048479
v 0.092029 0.043614 0.001037
v 0.082172 0.041872 -0.051813
v 0.082470 0.041688 -0.052575
v 0.082428 0.040924 -0.052596
v 0.086196 0.044282 -0.003017
v 0.089151 0.044340 -0.001541
v 0.090631 0.044378 -0.001541
v 0.092029 0.044212 -0.000055
v 0.086196 0.047191 -0.032582
v 0.086196 0.047242 -0.034063
v 0.085184 0.046928 -0.043402
v 0.085184 0.046904 -0.044419
v 0.084809 0.046340 -0.045682
v 0.087531 0.043847 -0.001392
v 0.083237 0.039446 -0.052985
v 0.083237 0.037968 -0.052980
v 0.083237 0.036490 -0.052959
v 0.084716 0.037968 -0.053007
v 0.085184 0.035601 -0.052746
v 0.085184 0.035010 -0.052735
v 0.085496 0.035012 -0.052586
v 0.092029 0.040922 -0.049182
v 0.092029 0.039442 -0.049128
v 0.092029 0.038047 -0.049059
v 0.092029 0.036490 -0.048979
v 0.092029 0.035093 -0.048894
v 0.092029 0.035012 -0.048889
v 0.092029 0.033729 -0.048505
v 0.085062 0.046492 -0.045682
v 0.083237 0.041816 -0.052703
v 0.083237 0.040924 -0.052916
v 0.087673 0.046548 -0.047088
v 0.090631 0.046537 -0.048404
v 0.092029 0.047065 -0.036935
v 0.087673 0.047191 -0.034063
v 0.087673 0.047264 -0.035534
v 0.087673 0.047265 -0.037015
v 0.089151 0.047237 -0.045890
v 0.086196 0.047009 -0.044419
v 0.087673 0.047059 -0.045890
v 0.085184 0.046772 -0.044925
v 0.084716 0.039446 -0.053001
v 0.085184 0.037968 -0.052783
v 0.085184 0.037095 -0.052772
v 0.085528 0.039442 -0.052623
v 0.085509 0.036490 -0.052607
v 0.092029 0.042402 -0.049192
v 0.085521 0.037969 -0.052618
v 0.084396 0.041841 -0.052735
v 0.092029 0.046685 -0.048628
v 0.084820 0.040938 -0.052836
v 0.090631 0.047141 -0.047370
v 0.092029 0.046718 -0.048574
v 0.092029 0.047070 -0.037015
v 0.092029 0.047244 -0.047291
v 0.090631 0.047264 -0.045890
v 0.089151 0.047247 -0.044419
v 0.092029 0.047237 -0.047370
v 0.085507 0.040454 -0.052602
v 0.092029 0.045357 -0.049150
v 0.092029 0.043959 -0.049171
v 0.092029 0.042481 -0.049192
v 0.092029 0.045422 -0.049128
f 11 1 10
f 46 47 26
f 28 13 27
f 27 12 26
f 13 12 27
f 2 12 13
f 3 2 13
f 1 2 3
f 3 4 1
f 20 4 3
f 26 47 42
f 26 44 45
f 45 46 26
f 1 6 7
f 1 4 5
f 5 6 1
f 10 22 23
f 18 13 28
f 18 3 13
f 97 117 98
f 98 70 97
f 115 118 98
f 98 118 112
f 96 114 115
f 97 70 96
f 20 3 19
f 19 18 28
f 3 18 19
f 46 70 71
f 72 47 71
f 47 46 71
f 46 45 66
f 1 7 8
f 21 7 6
f 6 5 21
f 22 8 21
f 21 8 7
f 21 5 4
f 21 4 20
f 38 23 22
f 88 59 87
f 108 82 106
f 43 44 26
f 26 33 43
f 26 12 25
f 25 33 26
f 112 118 113
f 99 98 72
f 70 98 99
f 72 71 99
f 99 71 70
f 115 98 116
f 116 98 117
f 116 117 97
f 97 96 116
f 116 96 115
f 93 113 110
f 112 113 93
f 109 120 111
f 109 111 91
f 62 42 47
f 62 63 42
f 63 62 89
f 64 63 91
f 53 42 64
f 42 63 64
f 69 70 46
f 69 96 70
f 69 46 68
f 28 27 34
f 34 19 28
f 34 42 53
f 53 54 34
f 68 46 67
f 67 66 68
f 46 66 67
f 65 45 44
f 65 66 45
f 10 1 9
f 1 8 9
f 9 22 10
f 9 8 22
f 111 120 119
f 60 59 88
f 60 38 59
f 22 21 37
f 37 38 22
f 83 59 82
f 82 59 81
f 81 106 82
f 32 43 33
f 24 40 41
f 40 29 41
f 2 15 16
f 14 15 2
f 29 15 14
f 90 93 110
f 63 93 90
f 110 109 90
f 91 63 90
f 90 109 91
f 123 109 110
f 120 109 123
f 72 98 100
f 100 98 112
f 73 47 72
f 73 62 47
f 73 89 62
f 112 93 92
f 92 100 112
f 89 100 92
f 92 93 63
f 63 89 92
f 68 94 95
f 95 69 68
f 95 94 114
f 114 96 95
f 96 69 95
f 19 34 35
f 107 82 108
f 105 119 120
f 122 107 105
f 105 107 108
f 23 38 39
f 38 60 39
f 19 35 36
f 20 19 36
f 36 21 20
f 36 37 21
f 36 35 34
f 108 106 103
f 103 105 108
f 78 105 103
f 106 81 80
f 80 81 59
f 75 78 76
f 75 64 91
f 53 64 75
f 75 76 53
f 76 78 77
f 53 76 77
f 12 2 17
f 2 16 17
f 17 25 12
f 33 25 17
f 17 32 33
f 72 100 101
f 101 100 89
f 101 73 72
f 89 73 101
f 121 105 120
f 122 105 121
f 119 105 102
f 102 105 78
f 111 119 102
f 91 111 102
f 102 75 91
f 78 75 102
f 86 87 59
f 59 85 86
f 59 83 84
f 84 85 59
f 104 103 106
f 78 103 104
f 59 38 58
f 58 80 59
f 38 37 58
f 53 77 55
f 55 54 53
f 55 34 54
f 61 51 40
f 43 32 50
f 44 43 50
f 50 65 44
f 78 104 79
f 79 58 78
f 80 58 79
f 106 80 79
f 79 104 106
f 57 55 77
f 37 36 57
f 57 58 37
f 57 77 78
f 78 58 57
f 52 61 68
f 68 66 52
f 51 61 52
f 40 51 48
f 51 49 48
f 48 29 40
f 48 49 29
f 30 15 29
f 29 49 30
f 56 57 36
f 55 57 56
f 56 36 34
f 34 55 56
f 66 65 74
f 74 52 66
f 65 50 74
f 50 52 74
f 31 50 32
f 31 52 50
f 51 52 31
f 32 17 31
f 31 17 16
f 31 16 15
f 15 30 31
f 31 49 51
f 31 30 49
f 26 42 34
f 34 27 26
f 14 11 24
f 1 11 14
f 14 2 1
f 24 41 14
f 14 41 29
f 88 87 61
f 61 11 10
f 24 11 61
f 10 23 61
f 61 94 68
f 61 40 24
f 115 114 61
f 61 123 110
f 61 83 82
f 61 84 83
f 61 118 115
f 114 94 61
f 110 113 61
f 61 60 88
f 61 113 118
f 61 121 120
f 82 107 61
f 23 39 61
f 120 123 61
f 61 107 122
f 61 39 60
f 87 86 61
f 122 121 61
f 61 86 85
f 85 84 61
