v 0.089150 -0.061440 -0.023717
v 0.089150 -0.061440 -0.022238
v 0.087990 -0.060913 -0.023717
v 0.089150 -0.061427 -0.031109
v 0.090630 -0.061152 -0.051807
v 0.090630 -0.061154 -0.050321
v 0.089150 -0.061414 -0.010418
v 0.087995 -0.060913 -0.022238
v 0.090630 -0.061154 0.007330
v 0.090630 -0.061152 0.008802
v 0.087990 -0.060908 -0.025188
v 0.087995 -0.060908 -0.026660
v 0.089150 -0.061406 -0.039979
v 0.082404 -0.051626 0.010287
v 0.082404 -0.051629 0.008809
v 0.082401 -0.051637 -0.051807
v 0.089150 -0.061374 -0.051807
v 0.090630 -0.060942 -0.053278
v 0.091549 -0.060539 -0.053278
v 0.091638 -0.060625 -0.051807
v 0.091638 -0.060630 -0.050321
v 0.091646 -0.060630 -0.041451
v 0.091649 -0.060630 -0.034059
v 0.090636 -0.061152 -0.020760
v 0.089150 -0.061367 0.007330
v 0.088008 -0.060908 -0.019288
v 0.091638 -0.060630 0.007330
v 0.091649 -0.060630 -0.010418
v 0.091638 -0.060625 0.008802
v 0.091547 -0.060544 0.009812
v 0.090666 -0.060829 0.010301
v 0.089150 -0.061220 0.010287
v 0.089150 -0.061356 0.008802
v 0.088112 -0.060850 -0.051807
v 0.088002 -0.060905 -0.028145
v 0.088159 -0.060780 0.010287
v 0.082446 -0.051561 0.011101
v 0.081990 -0.050762 0.010287
v 0.081975 -0.050762 0.008809
v 0.088098 -0.060869 -0.001547
v 0.088137 -0.060845 0.005845
v 0.088152 -0.060832 0.008802
v 0.082198 -0.051178 -0.051807
v 0.082022 -0.050759 -0.053292
v 0.082209 -0.051178 -0.053292
v 0.082410 -0.051624 -0.053278
v 0.088017 -0.060900 -0.031109
v 0.088206 -0.060693 -0.052878
v 0.089109 -0.060884 -0.053332
v 0.089574 -0.060560 -0.054255
v 0.090630 -0.060554 -0.054336
v 0.091429 -0.060423 -0.054207
v 0.091719 -0.059635 -0.053278
v 0.091819 -0.059635 -0.051807
v 0.091830 -0.059635 -0.050321
v 0.091878 -0.059635 -0.041451
v 0.091900 -0.059635 -0.037022
v 0.091952 -0.059635 -0.026660
v 0.091978 -0.059635 -0.019288
v 0.091982 -0.059635 -0.017816
v 0.088032 -0.060900 -0.014853
v 0.091834 -0.059635 0.008802
v 0.091976 -0.059635 -0.016324
v 0.091912 -0.059635 -0.001547
v 0.091878 -0.059635 0.005845
v 0.091870 -0.059635 0.007330
v 0.091586 -0.059635 0.009853
v 0.090955 -0.059635 0.010599
v 0.090199 -0.060617 0.011345
v 0.089069 -0.060698 0.011813
v 0.088367 -0.060431 0.012545
v 0.088254 -0.060594 0.011766
v 0.082454 -0.051556 -0.054092
v 0.082261 -0.050762 0.011345
v 0.081522 -0.049284 0.010287
v 0.081492 -0.049284 0.008809
v 0.076703 -0.034677 -0.017823
v 0.082013 -0.050759 -0.051807
v 0.081541 -0.049279 -0.053292
v 0.088589 -0.060196 -0.053861
v 0.086742 -0.057720 -0.054207
v 0.089227 -0.059559 -0.054750
v 0.089866 -0.058917 -0.055509
v 0.090630 -0.059719 -0.055082
v 0.091388 -0.058983 -0.055523
v 0.091483 -0.059538 -0.054723
v 0.090339 -0.047854 -0.053380
v 0.090442 -0.047807 -0.051807
v 0.091388 -0.058833 -0.055523
v 0.091468 -0.058608 -0.054763
v 0.091827 -0.058155 -0.011903
v 0.091825 -0.058155 -0.010418
v 0.090422 -0.047914 0.008687
v 0.090321 -0.047728 0.010396
v 0.089917 -0.047037 0.011040
v 0.090214 -0.059635 0.011352
v 0.089298 -0.059635 0.012084
v 0.088520 -0.060431 0.012545
v 0.083237 -0.041892 0.013386
v 0.082051 -0.041892 0.012925
v 0.082367 -0.051178 -0.054207
v 0.082054 -0.049284 0.011481
v 0.080288 -0.038939 0.011772
v 0.081670 -0.040419 0.012986
v 0.080933 -0.039924 0.012600
v 0.080002 -0.038939 0.010294
v 0.076875 -0.034677 -0.016250
v 0.076718 -0.034677 -0.018094
v 0.081535 -0.049279 -0.051807
v 0.076827 -0.034677 -0.019288
v 0.080243 -0.037456 -0.053292
v 0.080750 -0.038939 -0.054390
v 0.082060 -0.049279 -0.054465
v 0.082268 -0.050759 -0.054323
v 0.088107 -0.059208 -0.054255
v 0.090630 -0.058980 -0.055523
v 0.083240 -0.049279 -0.054994
v 0.083791 -0.044847 -0.055638
v 0.082101 -0.038939 -0.055848
v 0.083237 -0.040414 -0.055896
v 0.090174 -0.046384 -0.053163
v 0.090019 -0.046908 -0.054112
v 0.090211 -0.046342 0.008938
v 0.083314 -0.038913 -0.055855
v 0.084262 -0.040414 -0.055733
v 0.084100 -0.039390 -0.055638
v 0.090110 -0.046458 0.010165
v 0.084130 -0.037794 0.011311
v 0.084027 -0.039547 0.012573
v 0.084193 -0.040414 0.012769
v 0.084473 -0.041892 0.012966
v 0.088499 -0.058587 0.012559
v 0.088559 -0.059635 0.012573
v 0.083237 -0.040414 0.013312
v 0.081761 -0.038939 0.013000
v 0.080789 -0.038939 0.012668
v 0.080800 -0.037975 0.012627
v 0.080533 -0.037666 0.011772
v 0.077198 -0.034677 -0.014853
v 0.081066 -0.036736 0.010294
v 0.078706 -0.034677 -0.034357
v 0.080637 -0.036495 -0.053292
v 0.080771 -0.036571 -0.054282
v 0.080649 -0.037456 -0.054465
v 0.078869 -0.034677 -0.035544
v 0.081365 -0.038939 -0.055123
v 0.082161 -0.037742 -0.055781
v 0.084105 -0.037789 -0.054323
v 0.089909 -0.045572 -0.052593
v 0.083855 -0.038405 -0.055306
v 0.089911 -0.045575 0.009514
v 0.089911 -0.045575 0.009589
v 0.082868 -0.037742 -0.055781
v 0.083836 -0.036883 0.010294
v 0.082916 -0.036537 0.011271
v 0.083300 -0.037425 0.011786
v 0.083679 -0.038559 0.012295
v 0.083208 -0.039010 0.012810
v 0.082695 -0.038049 0.012586
v 0.081761 -0.037920 0.012668
v 0.082023 -0.036537 0.011271
v 0.078250 -0.034677 -0.010458
v 0.081806 -0.036456 0.010294
v 0.079551 -0.034677 -0.005792
v 0.079401 -0.034677 -0.006179
v 0.079021 -0.034677 -0.007474
v 0.078627 -0.034677 -0.008946
v 0.078908 -0.034677 -0.035713
v 0.081761 -0.036503 -0.054540
v 0.079262 -0.034677 -0.036731
v 0.079301 -0.034677 -0.036792
v 0.083384 -0.037270 -0.054879
v 0.083703 -0.036883 -0.053292
v 0.089909 -0.045572 -0.052491
v 0.082892 -0.034677 -0.019119
v 0.082876 -0.034677 -0.017823
v 0.082916 -0.036579 -0.054451
v 0.083100 -0.036456 0.010294
v 0.082867 -0.034677 -0.017545
v 0.082784 -0.034677 -0.016277
v 0.082650 -0.034677 -0.014853
v 0.081262 -0.034677 -0.004972
v 0.080300 -0.034677 -0.004965
v 0.079955 -0.034677 -0.005345
v 0.081761 -0.036359 -0.053292
v 0.080544 -0.034677 -0.037585
v 0.081353 -0.034677 -0.035564
v 0.082799 -0.034677 -0.020522
v 0.082882 -0.034677 -0.019288
v 0.080649 -0.034677 -0.037585
v 0.081165 -0.034677 -0.036900
v 0.081473 -0.034677 -0.005996
v 0.081444 -0.034677 -0.005813
f 103 75 74
f 24 28 9
f 76 75 77
f 38 75 76
f 148 122 150
f 77 75 106
f 106 75 103
f 103 74 102
f 73 34 46
f 46 34 16
f 77 109 78
f 69 32 31
f 33 42 25
f 27 9 28
f 60 29 27
f 27 28 60
f 79 109 77
f 79 78 109
f 79 44 78
f 73 44 79
f 124 89 120
f 144 147 119
f 119 124 120
f 147 124 119
f 120 83 119
f 119 83 118
f 23 28 24
f 60 28 23
f 23 22 60
f 11 16 12
f 16 34 12
f 91 92 60
f 59 91 60
f 92 65 64
f 64 65 29
f 66 62 29
f 29 65 66
f 66 65 92
f 121 148 149
f 122 148 121
f 175 174 149
f 175 152 174
f 77 106 107
f 39 14 38
f 38 76 39
f 39 76 77
f 77 78 39
f 15 39 16
f 14 39 15
f 36 14 42
f 36 42 33
f 33 32 36
f 31 32 10
f 10 32 33
f 10 27 29
f 9 27 10
f 33 25 10
f 10 25 7
f 7 2 10
f 10 2 9
f 71 32 70
f 32 69 70
f 143 171 169
f 169 147 143
f 143 147 144
f 191 177 190
f 187 177 191
f 185 177 169
f 190 177 185
f 185 186 190
f 171 186 185
f 169 171 185
f 172 148 150
f 114 79 113
f 81 114 83
f 116 83 120
f 45 46 16
f 16 44 45
f 73 46 45
f 45 44 73
f 113 79 112
f 108 79 77
f 110 79 108
f 89 124 125
f 150 122 126
f 126 125 124
f 126 122 89
f 89 125 126
f 20 59 60
f 22 23 6
f 6 23 24
f 24 9 6
f 1 5 6
f 60 92 63
f 92 64 63
f 63 29 60
f 63 64 29
f 89 122 87
f 122 121 87
f 87 90 89
f 88 87 121
f 149 148 173
f 173 175 149
f 148 172 173
f 173 172 177
f 173 177 187
f 180 154 179
f 16 39 43
f 43 39 78
f 43 44 16
f 78 44 43
f 14 36 37
f 71 74 37
f 38 14 37
f 37 75 38
f 37 74 75
f 72 32 71
f 72 36 32
f 71 37 72
f 72 37 36
f 96 97 69
f 30 69 31
f 29 62 30
f 62 67 30
f 30 10 29
f 31 10 30
f 40 61 25
f 7 25 8
f 8 2 7
f 145 168 142
f 142 168 143
f 177 172 153
f 153 147 169
f 169 177 153
f 153 172 150
f 153 124 147
f 150 126 153
f 153 126 124
f 118 83 117
f 83 114 117
f 117 114 113
f 113 119 117
f 117 119 118
f 101 81 73
f 114 81 101
f 73 79 101
f 79 114 101
f 120 89 85
f 85 116 120
f 146 119 113
f 113 112 146
f 144 119 146
f 146 112 144
f 111 79 110
f 111 112 79
f 144 112 111
f 111 143 144
f 111 142 143
f 145 142 111
f 4 5 1
f 4 13 5
f 5 13 17
f 17 47 34
f 17 13 12
f 83 116 84
f 84 50 83
f 116 85 84
f 5 20 21
f 21 6 5
f 22 6 21
f 60 22 21
f 21 20 60
f 152 154 128
f 69 97 98
f 71 70 98
f 98 70 69
f 90 87 53
f 89 90 53
f 53 88 54
f 87 88 53
f 53 85 89
f 54 20 53
f 59 20 58
f 91 59 58
f 58 88 91
f 92 91 123
f 91 88 123
f 123 88 121
f 123 151 152
f 149 151 123
f 123 121 149
f 188 173 187
f 176 154 152
f 176 179 154
f 152 175 176
f 166 140 165
f 165 140 164
f 167 140 166
f 162 140 167
f 107 140 139
f 139 140 162
f 138 140 107
f 138 106 103
f 138 107 106
f 140 138 161
f 68 96 69
f 69 30 68
f 68 30 67
f 41 25 42
f 41 40 25
f 42 14 41
f 14 40 41
f 14 8 26
f 26 40 14
f 61 40 26
f 25 61 26
f 26 8 25
f 14 15 3
f 3 8 14
f 3 16 11
f 3 15 16
f 11 12 3
f 1 2 3
f 2 8 3
f 3 4 1
f 12 13 3
f 13 4 3
f 171 143 170
f 143 168 170
f 145 111 141
f 141 111 110
f 48 17 34
f 48 80 50
f 81 80 48
f 48 34 73
f 73 81 48
f 35 17 12
f 47 17 35
f 35 12 34
f 34 47 35
f 83 50 82
f 50 80 82
f 100 74 71
f 100 104 74
f 97 96 95
f 96 68 95
f 95 68 67
f 93 66 92
f 92 123 93
f 62 66 93
f 175 173 189
f 173 188 189
f 137 138 103
f 137 161 138
f 184 161 183
f 164 161 184
f 164 140 163
f 163 161 164
f 140 161 163
f 155 182 183
f 183 161 155
f 155 178 182
f 154 178 155
f 155 128 154
f 49 48 50
f 17 48 49
f 115 80 81
f 115 82 80
f 115 81 83
f 83 82 115
f 50 84 51
f 51 84 85
f 85 52 51
f 19 20 5
f 19 53 20
f 19 52 53
f 85 53 86
f 86 52 85
f 53 52 86
f 181 192 178
f 181 154 180
f 181 178 154
f 182 178 193
f 178 192 193
f 129 95 128
f 158 134 129
f 132 95 131
f 131 134 132
f 62 93 94
f 94 93 123
f 94 67 62
f 94 95 67
f 71 98 99
f 99 132 134
f 99 100 71
f 104 100 99
f 54 88 55
f 88 56 55
f 55 20 54
f 55 56 20
f 88 58 57
f 57 56 88
f 57 58 20
f 20 56 57
f 136 137 103
f 104 99 135
f 135 99 134
f 135 136 104
f 137 136 135
f 128 155 156
f 161 137 160
f 160 155 161
f 137 135 160
f 160 135 134
f 18 49 50
f 50 51 18
f 17 49 18
f 5 17 18
f 18 51 52
f 18 19 5
f 52 19 18
f 131 95 130
f 95 129 130
f 130 134 131
f 130 129 134
f 127 123 152
f 127 94 123
f 95 94 127
f 152 128 127
f 128 95 127
f 133 99 98
f 132 99 133
f 133 98 97
f 97 95 133
f 95 132 133
f 103 102 105
f 105 136 103
f 105 102 74
f 74 104 105
f 104 136 105
f 157 129 128
f 128 156 157
f 158 129 157
f 159 156 155
f 155 160 159
f 158 157 159
f 159 157 156
f 159 134 158
f 159 160 134
f 9 2 6
f 6 2 1
f 174 152 151
f 149 174 151
f 175 189 193
f 193 191 190
f 193 108 77
f 145 141 193
f 190 186 193
f 77 107 193
f 166 165 193
f 171 170 193
f 193 168 145
f 180 179 193
f 193 176 175
f 193 186 171
f 187 191 193
f 110 108 193
f 183 182 193
f 193 188 187
f 193 167 166
f 107 139 193
f 193 184 183
f 179 176 193
f 193 165 164
f 162 167 193
f 193 139 162
f 193 170 168
f 193 141 110
f 193 181 180
f 193 189 188
f 164 184 193
f 192 181 193
