v 0.078885 0.030582 -0.033657
v 0.078288 0.030582 -0.033100
v 0.068450 0.033309 -0.037025
v 0.068450 0.033968 -0.038027
v 0.069508 0.034012 -0.038004
v 0.078885 0.044309 -0.041322
v 0.078885 0.030582 -0.010124
v 0.077635 0.030582 -0.032365
v 0.067439 0.033843 -0.037025
v 0.067619 0.034126 -0.037875
v 0.077631 0.030582 -0.032358
v 0.076896 0.030582 -0.031179
v 0.076546 0.030582 -0.030430
v 0.068450 0.033143 -0.035545
v 0.068450 0.035010 -0.038399
v 0.078885 0.045185 -0.041691
v 0.078885 0.042401 -0.008064
v 0.072067 0.035411 -0.012569
v 0.071824 0.033897 -0.013656
v 0.072138 0.032789 -0.015571
v 0.078730 0.030582 -0.010410
v 0.067180 0.035010 -0.037025
v 0.067409 0.033831 -0.035545
v 0.067047 0.035010 -0.035545
v 0.067568 0.035010 -0.037938
v 0.076282 0.030582 -0.029630
v 0.075820 0.030582 -0.028153
v 0.075440 0.030582 -0.026674
v 0.075047 0.030582 -0.024706
v 0.075046 0.030582 -0.024700
v 0.074972 0.030582 -0.023721
v 0.074956 0.030582 -0.022244
v 0.074956 0.030582 -0.022231
v 0.074994 0.030582 -0.019348
v 0.068450 0.036490 -0.038521
v 0.078885 0.045359 -0.041731
v 0.078885 0.043025 -0.008209
v 0.072067 0.046221 -0.012569
v 0.072029 0.045359 -0.012536
v 0.072029 0.036490 -0.012539
v 0.071549 0.036490 -0.013370
v 0.071712 0.034955 -0.013248
v 0.070985 0.035010 -0.014849
v 0.070616 0.034151 -0.016797
v 0.071678 0.033455 -0.014988
v 0.075007 0.030582 -0.019275
v 0.075281 0.030582 -0.018000
v 0.075333 0.030582 -0.017819
v 0.076379 0.030582 -0.015090
v 0.076678 0.030582 -0.014345
v 0.077161 0.030582 -0.013360
v 0.077800 0.030582 -0.012144
v 0.070548 0.034010 -0.017805
v 0.067152 0.037968 -0.037025
v 0.066965 0.036490 -0.035545
v 0.066924 0.037968 -0.035545
v 0.066897 0.039446 -0.035545
v 0.070586 0.035010 -0.016652
v 0.067568 0.036490 -0.037944
v 0.068450 0.039446 -0.038564
v 0.068450 0.037968 -0.038544
v 0.067140 0.039446 -0.037025
v 0.078885 0.046326 -0.041332
v 0.068450 0.040921 -0.038452
v 0.067661 0.041718 -0.037835
v 0.078885 0.043624 -0.008687
v 0.072885 0.046823 -0.013370
v 0.071853 0.046491 -0.013370
v 0.071558 0.045359 -0.013370
v 0.070989 0.036490 -0.014849
v 0.070731 0.037968 -0.015904
v 0.070731 0.036490 -0.015907
v 0.070731 0.035010 -0.015914
v 0.067032 0.040921 -0.035545
v 0.067193 0.040921 -0.037025
v 0.070064 0.036490 -0.019285
v 0.070063 0.037968 -0.019285
v 0.070353 0.040921 -0.017805
v 0.070359 0.042401 -0.017805
v 0.070584 0.045359 -0.016708
v 0.070612 0.046199 -0.016827
v 0.067579 0.037968 -0.037938
v 0.067593 0.039446 -0.037928
v 0.067618 0.040921 -0.037901
v 0.076237 0.046427 -0.038181
v 0.075784 0.046704 -0.037068
v 0.078800 0.046699 -0.039984
v 0.078885 0.046696 -0.040070
v 0.067479 0.041885 -0.037025
v 0.074367 0.046559 -0.035413
v 0.074863 0.046435 -0.036600
v 0.078885 0.046637 -0.014823
v 0.077321 0.046984 -0.014846
v 0.075842 0.046613 -0.013729
v 0.075842 0.047162 -0.014846
v 0.072885 0.047199 -0.014849
v 0.071607 0.046685 -0.014849
v 0.071046 0.045359 -0.014849
v 0.071025 0.043880 -0.014849
v 0.071003 0.039446 -0.014849
v 0.070734 0.039446 -0.015914
v 0.070353 0.039446 -0.017805
v 0.070584 0.037968 -0.016642
v 0.070354 0.036490 -0.017805
v 0.067443 0.041911 -0.035545
v 0.070565 0.046289 -0.017805
v 0.074364 0.046974 -0.034065
v 0.075842 0.047147 -0.035545
v 0.077321 0.047012 -0.037025
v 0.078800 0.046862 -0.038504
v 0.078885 0.046852 -0.038590
v 0.070470 0.046468 -0.022244
v 0.070538 0.046328 -0.023721
v 0.071692 0.046663 -0.028153
v 0.071834 0.046566 -0.029630
v 0.073062 0.046676 -0.032589
v 0.073742 0.046833 -0.033360
v 0.078885 0.046696 -0.014955
v 0.078885 0.047118 -0.016326
v 0.074364 0.047212 -0.032589
v 0.072885 0.047214 -0.026674
v 0.071407 0.047020 -0.022244
v 0.071407 0.046969 -0.020761
v 0.071407 0.046831 -0.017805
v 0.070489 0.046458 -0.020761
v 0.072885 0.047123 -0.029630
v 0.071407 0.046903 -0.023721
v 0.072885 0.047196 -0.028153
f 1 4 5
f 1 5 6
f 55 22 24
f 18 7 17
f 19 7 18
f 64 65 36
f 36 60 64
f 97 68 96
f 16 6 5
f 16 5 4
f 58 55 24
f 38 68 69
f 17 38 39
f 38 69 39
f 19 18 42
f 37 38 17
f 37 66 38
f 3 4 1
f 14 3 13
f 20 7 19
f 33 14 32
f 81 68 97
f 57 80 81
f 81 74 57
f 126 116 115
f 36 16 15
f 15 16 4
f 54 22 57
f 57 62 54
f 54 25 22
f 54 62 25
f 79 80 57
f 57 78 79
f 79 78 80
f 75 62 57
f 57 74 75
f 56 58 57
f 55 58 56
f 57 22 56
f 22 55 56
f 19 42 43
f 40 18 17
f 17 39 40
f 4 3 10
f 10 15 4
f 25 15 10
f 22 25 10
f 34 20 14
f 14 33 34
f 73 58 44
f 44 58 24
f 19 43 44
f 44 43 73
f 36 65 63
f 96 121 122
f 92 93 66
f 95 93 119
f 125 122 112
f 125 112 105
f 89 115 116
f 65 75 89
f 105 112 89
f 89 74 105
f 89 75 74
f 35 15 25
f 36 15 35
f 25 62 59
f 60 25 59
f 60 83 84
f 65 64 84
f 84 64 60
f 84 75 65
f 84 83 62
f 62 75 84
f 57 58 76
f 76 58 73
f 101 80 71
f 80 78 71
f 99 80 101
f 69 43 41
f 41 43 42
f 41 39 69
f 41 40 39
f 41 42 18
f 18 40 41
f 9 3 14
f 9 10 3
f 24 22 9
f 22 10 9
f 32 14 31
f 2 3 1
f 2 8 3
f 12 13 3
f 20 50 51
f 49 20 48
f 49 50 20
f 48 20 47
f 45 20 19
f 19 44 45
f 45 44 20
f 117 116 126
f 126 107 117
f 65 91 85
f 85 63 65
f 109 108 119
f 119 108 120
f 120 95 119
f 120 121 96
f 96 95 120
f 120 107 126
f 120 108 107
f 97 96 124
f 127 122 126
f 112 122 127
f 119 93 118
f 93 92 118
f 67 95 96
f 67 68 38
f 67 96 68
f 38 66 67
f 93 95 67
f 113 89 112
f 61 25 60
f 61 35 25
f 61 60 36
f 36 35 61
f 62 83 82
f 82 59 62
f 82 83 60
f 60 59 82
f 104 76 73
f 73 43 72
f 43 71 72
f 72 71 103
f 72 104 73
f 103 104 72
f 70 43 69
f 101 71 70
f 70 71 43
f 80 99 98
f 98 99 69
f 98 81 80
f 98 69 68
f 68 81 98
f 14 20 23
f 23 9 14
f 23 44 24
f 24 9 23
f 14 29 30
f 30 31 14
f 14 13 26
f 26 27 14
f 28 29 14
f 14 27 28
f 3 8 11
f 11 12 3
f 20 51 52
f 20 34 46
f 46 47 20
f 90 117 107
f 90 107 91
f 90 89 116
f 116 117 90
f 90 91 65
f 65 89 90
f 63 85 86
f 86 85 91
f 91 107 86
f 107 108 86
f 119 111 110
f 110 109 119
f 128 120 126
f 121 120 128
f 126 122 128
f 128 122 121
f 96 122 123
f 123 124 96
f 122 125 123
f 125 124 123
f 106 124 125
f 106 125 105
f 106 81 97
f 97 124 106
f 105 74 106
f 74 81 106
f 112 127 114
f 114 113 112
f 126 115 114
f 114 127 126
f 115 89 114
f 89 113 114
f 66 93 94
f 94 67 66
f 93 67 94
f 76 104 77
f 77 78 57
f 57 76 77
f 69 99 100
f 100 70 69
f 100 99 101
f 101 70 100
f 20 44 53
f 53 23 20
f 44 23 53
f 7 20 21
f 20 52 21
f 88 110 111
f 109 110 88
f 108 109 88
f 78 77 102
f 102 77 104
f 102 104 103
f 102 71 78
f 103 71 102
f 87 88 63
f 63 86 87
f 87 86 108
f 108 88 87
f 1 7 21
f 21 30 29
f 21 49 48
f 21 33 32
f 13 12 21
f 32 31 21
f 21 2 1
f 21 11 8
f 21 34 33
f 48 47 21
f 21 26 13
f 8 2 21
f 29 28 21
f 21 51 50
f 50 49 21
f 21 46 34
f 31 30 21
f 27 26 21
f 21 28 27
f 12 11 21
f 21 52 51
f 47 46 21
f 88 7 1
f 88 37 17
f 17 7 88
f 1 6 88
f 88 16 36
f 36 63 88
f 6 16 88
f 66 37 88
f 88 111 119
f 119 118 88
f 88 92 66
f 88 118 92
