v 0.082891 -0.034676 -0.019104
v 0.082799 -0.034676 -0.020517
v 0.082525 -0.033679 -0.020315
v 0.082529 -0.033673 -0.019284
v 0.082871 -0.034676 -0.017822
v 0.081346 -0.034676 -0.035570
v 0.078256 -0.022555 -0.031148
v 0.078090 -0.021843 -0.030682
v 0.078096 -0.021839 -0.029629
v 0.074806 -0.013106 -0.010413
v 0.074804 -0.013106 -0.009716
v 0.082865 -0.034676 -0.017546
v 0.081159 -0.034676 -0.036916
v 0.078239 -0.024073 -0.035516
v 0.077148 -0.019709 -0.034067
v 0.077237 -0.019939 -0.033836
v 0.076758 -0.018419 -0.034067
v 0.076503 -0.017682 -0.034067
v 0.076797 -0.018419 -0.032587
v 0.074812 -0.013106 -0.029632
v 0.074814 -0.013106 -0.026674
v 0.074814 -0.013106 -0.025193
v 0.074774 -0.013106 -0.008919
v 0.082784 -0.034676 -0.016326
v 0.080647 -0.034676 -0.037607
v 0.078169 -0.024516 -0.036409
v 0.076673 -0.018645 -0.035098
v 0.074776 -0.013106 -0.034067
v 0.074802 -0.013106 -0.031109
v 0.074470 -0.013106 -0.008071
v 0.081049 -0.033671 -0.005194
v 0.082648 -0.034676 -0.014848
v 0.082748 -0.034676 -0.015902
v 0.080538 -0.034676 -0.037607
v 0.064760 -0.014534 -0.037767
v 0.064760 -0.014517 -0.037767
v 0.066972 -0.013106 -0.037700
v 0.067766 -0.013106 -0.037681
v 0.070718 -0.013106 -0.037604
v 0.071405 -0.013106 -0.037584
v 0.072883 -0.013106 -0.037180
v 0.073885 -0.013106 -0.036540
v 0.074493 -0.013106 -0.035484
v 0.074151 -0.013106 -0.007503
v 0.079660 -0.030470 -0.005133
v 0.081255 -0.034676 -0.004966
v 0.081440 -0.034676 -0.005814
v 0.081468 -0.034676 -0.005974
v 0.064688 -0.014534 -0.037767
v 0.079296 -0.034676 -0.036817
v 0.063084 -0.014998 -0.036775
v 0.064688 -0.014517 -0.037767
v 0.065424 -0.013106 -0.037729
v 0.073696 -0.013106 -0.007031
v 0.071405 -0.013106 -0.005900
v 0.079823 -0.031536 -0.005036
v 0.073438 -0.013106 -0.006832
v 0.072764 -0.013106 -0.006414
v 0.080296 -0.034676 -0.004956
v 0.064122 -0.013932 -0.037716
v 0.079258 -0.034676 -0.036736
v 0.065928 -0.022202 -0.032269
v 0.063327 -0.015984 -0.036210
v 0.062982 -0.013795 -0.036968
v 0.063001 -0.015404 -0.035648
v 0.062729 -0.013795 -0.035548
v 0.064067 -0.013106 -0.037642
v 0.069927 -0.013106 -0.005749
v 0.066972 -0.013106 -0.005746
v 0.079245 -0.031536 -0.005036
v 0.079949 -0.034676 -0.005329
v 0.066179 -0.013106 -0.005759
v 0.065494 -0.013106 -0.005791
v 0.065494 -0.013795 -0.005823
v 0.065494 -0.015273 -0.005942
v 0.064016 -0.015273 -0.006225
v 0.063248 -0.016083 -0.006678
v 0.078900 -0.034676 -0.035741
v 0.065732 -0.022352 -0.031106
v 0.063201 -0.016096 -0.035224
v 0.062729 -0.013106 -0.035548
v 0.062865 -0.013106 -0.036309
v 0.062980 -0.013106 -0.036919
v 0.061161 -0.013337 -0.023398
v 0.061161 -0.013106 -0.023754
v 0.079547 -0.034676 -0.005791
v 0.064701 -0.013106 -0.005952
v 0.064016 -0.013795 -0.006119
v 0.063182 -0.015273 -0.006610
v 0.062971 -0.015273 -0.007455
v 0.063180 -0.016645 -0.007551
v 0.063242 -0.017545 -0.008107
v 0.078866 -0.034676 -0.035548
v 0.065158 -0.021189 -0.031106
v 0.078698 -0.034676 -0.034379
v 0.076905 -0.034676 -0.019936
v 0.076824 -0.034676 -0.019284
v 0.076714 -0.034676 -0.018092
v 0.076701 -0.034676 -0.017806
v 0.065724 -0.022352 -0.011890
v 0.065096 -0.021189 -0.011890
v 0.061161 -0.013598 -0.022238
v 0.061161 -0.013366 -0.023269
v 0.061161 -0.013106 -0.018124
v 0.079396 -0.034676 -0.006173
v 0.065924 -0.022196 -0.010728
v 0.064016 -0.013106 -0.006112
v 0.063541 -0.013106 -0.006344
v 0.063129 -0.013795 -0.006552
v 0.062829 -0.013795 -0.007455
v 0.061161 -0.013109 -0.018124
v 0.061161 -0.013178 -0.018221
v 0.061161 -0.013332 -0.019142
v 0.061161 -0.013356 -0.019284
v 0.061161 -0.013525 -0.020633
v 0.063233 -0.017570 -0.008932
v 0.076871 -0.034676 -0.016252
v 0.077195 -0.034676 -0.014845
v 0.077507 -0.034676 -0.013535
v 0.078286 -0.034676 -0.010284
v 0.078624 -0.034676 -0.008923
v 0.079017 -0.034676 -0.007455
v 0.061161 -0.013598 -0.022104
v 0.062816 -0.013106 -0.007455
v 0.063129 -0.013106 -0.006552
f 77 76 89
f 79 63 62
f 50 62 63
f 80 63 79
f 42 25 41
f 25 40 41
f 23 31 32
f 32 31 48
f 110 89 109
f 93 79 78
f 79 62 78
f 51 50 63
f 67 64 83
f 94 80 79
f 84 80 103
f 115 116 92
f 95 79 93
f 98 99 79
f 79 97 98
f 79 99 100
f 59 76 77
f 59 75 76
f 46 56 59
f 36 25 35
f 124 109 125
f 110 109 124
f 113 92 112
f 77 89 90
f 90 89 110
f 1 4 5
f 9 22 10
f 10 4 9
f 42 43 26
f 26 25 42
f 12 23 24
f 47 31 46
f 47 48 31
f 68 56 55
f 88 89 76
f 88 109 89
f 125 109 108
f 109 88 108
f 108 88 107
f 62 50 61
f 61 78 62
f 50 51 34
f 63 80 65
f 65 51 63
f 65 80 84
f 84 85 65
f 64 51 66
f 66 65 85
f 51 65 66
f 114 92 113
f 114 115 92
f 102 94 79
f 80 94 102
f 102 103 80
f 96 97 79
f 79 95 96
f 92 100 106
f 106 100 105
f 77 92 86
f 92 106 86
f 86 106 105
f 70 59 56
f 37 36 53
f 25 36 37
f 111 112 92
f 92 90 111
f 111 90 110
f 111 124 104
f 110 124 111
f 91 92 77
f 77 90 91
f 91 90 92
f 11 4 10
f 11 5 4
f 12 5 11
f 11 23 12
f 1 2 3
f 3 4 1
f 3 9 4
f 21 9 20
f 22 9 21
f 25 26 13
f 33 23 32
f 33 24 23
f 87 88 73
f 107 88 87
f 73 88 74
f 74 59 73
f 75 59 74
f 76 75 74
f 74 88 76
f 49 34 51
f 81 66 85
f 64 66 81
f 116 115 123
f 117 100 99
f 117 118 100
f 71 59 77
f 77 86 71
f 56 68 69
f 69 70 56
f 25 37 38
f 7 2 6
f 6 16 7
f 15 16 6
f 28 29 19
f 19 18 28
f 19 29 20
f 20 9 19
f 17 18 8
f 9 3 8
f 8 7 16
f 8 3 2
f 2 7 8
f 8 19 9
f 18 19 8
f 8 15 17
f 16 15 8
f 27 18 17
f 17 15 27
f 27 26 43
f 27 43 28
f 28 18 27
f 45 58 55
f 55 56 45
f 45 56 46
f 46 31 45
f 45 44 54
f 31 44 45
f 31 23 30
f 30 44 31
f 60 51 64
f 60 49 51
f 60 64 67
f 67 53 60
f 82 83 64
f 64 81 82
f 116 123 101
f 92 116 101
f 101 100 92
f 101 123 102
f 79 100 101
f 101 102 79
f 105 100 122
f 100 121 122
f 120 121 100
f 70 69 72
f 73 59 72
f 59 70 72
f 39 40 25
f 25 38 39
f 6 13 14
f 14 15 6
f 14 27 15
f 14 13 26
f 26 27 14
f 57 45 54
f 58 45 57
f 52 60 53
f 49 60 52
f 53 36 52
f 100 118 119
f 119 120 100
f 25 34 49
f 35 25 49
f 123 104 85
f 113 112 123
f 123 85 84
f 84 103 123
f 123 114 113
f 103 102 123
f 115 114 123
f 123 111 104
f 112 111 123
f 42 41 57
f 67 83 57
f 57 53 67
f 57 124 125
f 57 43 42
f 83 82 57
f 57 29 28
f 57 21 20
f 28 43 57
f 10 22 57
f 125 108 57
f 57 41 40
f 85 104 57
f 57 68 55
f 73 72 57
f 57 87 73
f 104 124 57
f 57 11 10
f 57 81 85
f 55 58 57
f 57 108 107
f 57 37 53
f 23 11 57
f 22 21 57
f 20 29 57
f 40 39 57
f 54 44 57
f 107 87 57
f 57 30 23
f 57 69 68
f 57 38 37
f 44 30 57
f 57 82 81
f 57 72 69
f 57 39 38
f 35 49 52
f 52 36 35
f 1 5 119
f 25 13 119
f 46 59 119
f 99 98 119
f 93 78 119
f 119 86 105
f 119 2 1
f 119 61 50
f 119 95 93
f 97 96 119
f 32 48 119
f 119 47 46
f 119 34 25
f 119 98 97
f 119 33 32
f 119 5 12
f 6 2 119
f 12 24 119
f 48 47 119
f 78 61 119
f 50 34 119
f 119 96 95
f 119 117 99
f 59 71 119
f 119 13 6
f 24 33 119
f 118 117 119
f 105 122 119
f 119 71 86
f 119 122 121
f 121 120 119
