v 0.114740 0.010257 -0.030578
v 0.115204 0.026293 -0.033578
v 0.115220 0.022647 -0.033578
v 0.119399 0.010257 -0.030578
v 0.113940 0.010257 -0.010772
v 0.118233 0.026293 -0.033578
v 0.116645 0.026293 -0.011603
v 0.118077 0.022647 -0.033578
v 0.118079 0.022685 -0.033578
v 0.120519 0.010257 -0.028783
v 0.119273 0.010257 -0.010772
v 0.116429 0.022647 -0.010772
v 0.118226 0.026038 -0.033578
v 0.118715 0.026293 -0.032707
v 0.119320 0.023178 -0.031538
v 0.119747 0.018545 -0.030578
v 0.120121 0.026293 -0.011603
v 0.118166 0.024656 -0.033578
v 0.121034 0.010257 -0.027944
v 0.119587 0.022647 -0.010772
v 0.119518 0.010257 -0.011085
v 0.118775 0.026293 -0.032589
v 0.119329 0.024656 -0.031520
v 0.120779 0.014307 -0.028524
v 0.121140 0.011348 -0.027774
v 0.121144 0.010257 -0.027749
v 0.119676 0.022647 -0.010888
v 0.120121 0.026249 -0.011603
v 0.120268 0.026293 -0.011891
v 0.119924 0.010257 -0.011891
v 0.120190 0.022647 -0.011891
v 0.120265 0.026135 -0.011891
v 0.119258 0.026293 -0.031593
v 0.119316 0.026135 -0.031475
v 0.120781 0.015786 -0.028495
v 0.121122 0.012828 -0.027783
v 0.121500 0.010257 -0.026963
v 0.120398 0.010257 -0.013368
v 0.120658 0.024656 -0.013368
v 0.120684 0.026135 -0.013368
v 0.120686 0.026293 -0.013368
v 0.119314 0.026293 -0.031468
v 0.119613 0.026293 -0.030732
v 0.119634 0.024656 -0.030783
v 0.120766 0.017263 -0.028448
v 0.121084 0.015786 -0.027754
v 0.121104 0.014307 -0.027783
v 0.121622 0.010257 -0.026673
v 0.121802 0.010257 -0.019282
v 0.121882 0.010257 -0.019670
v 0.122074 0.010257 -0.020760
v 0.121008 0.026293 -0.015235
v 0.120705 0.026293 -0.028026
v 0.120710 0.026216 -0.028019
v 0.120971 0.024656 -0.027475
v 0.121009 0.021697 -0.027568
v 0.121600 0.011348 -0.026673
v 0.121868 0.015786 -0.025195
v 0.121890 0.014307 -0.025195
v 0.121942 0.010257 -0.025195
v 0.121843 0.026293 -0.020762
v 0.121657 0.026293 -0.019440
v 0.121634 0.026293 -0.019284
v 0.121436 0.026293 -0.017963
v 0.121412 0.026293 -0.017806
v 0.121185 0.026293 -0.016326
v 0.122087 0.010257 -0.021148
v 0.121981 0.026293 -0.022240
v 0.120950 0.026293 -0.027419
v 0.121557 0.012828 -0.026673
v 0.121836 0.017263 -0.025195
v 0.121869 0.026135 -0.023715
v 0.121890 0.024656 -0.023715
v 0.121909 0.023178 -0.023715
v 0.121965 0.018740 -0.023718
v 0.121980 0.017263 -0.023718
v 0.122004 0.010257 -0.024104
v 0.122056 0.010257 -0.022628
v 0.121865 0.026293 -0.023715
v 0.121110 0.026293 -0.026845
v 0.121790 0.018740 -0.025195
v 0.121658 0.022647 -0.025195
v 0.121535 0.026293 -0.025195
v 0.121497 0.026293 -0.025347
f 5 2 1
f 7 2 5
f 3 1 2
f 12 7 5
f 31 30 38
f 30 31 21
f 21 20 11
f 51 68 61
f 67 68 51
f 17 20 27
f 20 21 27
f 38 49 39
f 39 29 38
f 50 41 49
f 50 51 41
f 6 15 16
f 16 15 19
f 19 10 13
f 6 16 13
f 13 16 19
f 80 70 69
f 17 27 28
f 28 27 21
f 28 29 17
f 41 29 40
f 29 39 40
f 49 41 40
f 40 39 49
f 41 51 52
f 51 66 52
f 78 68 67
f 76 77 60
f 76 78 77
f 68 78 76
f 70 80 71
f 19 15 26
f 15 25 26
f 14 15 6
f 18 13 10
f 32 28 21
f 29 28 32
f 32 21 31
f 32 31 38
f 38 29 32
f 62 51 61
f 62 63 51
f 51 63 64
f 79 71 81
f 81 71 80
f 70 71 57
f 69 70 57
f 48 57 58
f 58 57 71
f 37 26 25
f 15 14 23
f 34 23 33
f 9 18 10
f 4 8 9
f 9 10 4
f 65 66 51
f 51 64 65
f 72 79 68
f 72 71 79
f 72 58 71
f 68 76 75
f 75 74 68
f 75 76 60
f 60 74 75
f 83 79 82
f 79 81 82
f 59 60 48
f 48 58 59
f 58 72 59
f 48 37 47
f 47 57 48
f 46 57 47
f 33 23 22
f 22 23 14
f 68 74 73
f 73 72 68
f 73 59 72
f 73 74 60
f 60 59 73
f 83 82 84
f 84 81 80
f 84 82 81
f 36 37 25
f 36 47 37
f 42 34 33
f 42 43 34
f 56 57 46
f 47 36 35
f 23 34 35
f 35 36 25
f 46 47 35
f 69 57 55
f 57 56 55
f 46 35 45
f 45 35 34
f 34 43 44
f 44 45 34
f 43 55 44
f 44 55 56
f 44 56 46
f 46 45 44
f 24 35 25
f 23 35 24
f 24 25 15
f 15 23 24
f 69 55 54
f 54 55 43
f 69 54 53
f 53 54 43
f 5 11 12
f 11 20 12
f 17 7 12
f 12 20 17
f 8 4 1
f 1 3 8
f 5 1 37
f 37 50 49
f 1 4 37
f 37 11 5
f 67 51 37
f 37 21 11
f 38 30 37
f 37 49 38
f 37 78 67
f 30 21 37
f 4 10 37
f 48 60 37
f 37 10 19
f 51 50 37
f 60 77 37
f 77 78 37
f 19 26 37
f 2 6 9
f 9 8 3
f 9 3 2
f 6 13 9
f 13 18 9
f 53 7 17
f 2 7 53
f 41 52 53
f 53 6 2
f 53 42 33
f 61 68 53
f 53 79 83
f 17 29 53
f 53 29 41
f 53 14 6
f 68 79 53
f 33 22 53
f 53 80 69
f 53 62 61
f 53 52 66
f 66 65 53
f 63 62 53
f 53 64 63
f 53 65 64
f 53 22 14
f 83 84 53
f 53 84 80
f 43 42 53
