v 0.077356 -0.001828 -0.004092
v 0.077356 -0.001923 -0.004125
v 0.079888 0.015778 -0.014018
v 0.079926 0.016548 -0.014018
v 0.079961 0.017975 -0.014018
v 0.077356 -0.000705 -0.004115
v 0.061161 0.002696 -0.004969
v 0.065493 -0.013106 -0.005794
v 0.066182 -0.013106 -0.005760
v 0.066973 -0.013106 -0.005750
v 0.069928 -0.013106 -0.005750
v 0.071404 -0.013106 -0.005900
v 0.077356 -0.003552 -0.004739
v 0.072762 -0.013106 -0.006414
v 0.079277 0.015771 -0.030946
v 0.077356 -0.004880 -0.005447
v 0.077356 -0.005965 -0.006297
v 0.077356 -0.005989 -0.006321
v 0.077356 -0.006263 -0.007418
v 0.077356 -0.006266 -0.007452
v 0.077356 -0.006540 -0.011899
v 0.077356 -0.006608 -0.013334
v 0.077356 -0.006656 -0.034065
v 0.077356 -0.006553 -0.035543
v 0.079566 0.021760 -0.030946
v 0.079569 0.021852 -0.030946
v 0.079937 0.019378 -0.014018
v 0.077356 -0.000609 -0.004125
v 0.061161 0.004127 -0.005020
v 0.061161 0.002628 -0.004979
v 0.064016 -0.013106 -0.006110
v 0.064700 -0.013106 -0.005950
v 0.073438 -0.013106 -0.006834
v 0.073695 -0.013106 -0.007031
v 0.077356 -0.006016 -0.036711
v 0.077356 -0.005075 -0.037455
v 0.077356 -0.004949 -0.037528
v 0.077356 -0.003354 -0.038162
v 0.073824 -0.013106 -0.007161
v 0.074152 -0.013106 -0.007502
v 0.074472 -0.013106 -0.008079
v 0.074774 -0.013106 -0.008916
v 0.074803 -0.013106 -0.009714
v 0.074807 -0.013106 -0.010418
v 0.074816 -0.013106 -0.025191
v 0.074816 -0.013106 -0.028150
v 0.074810 -0.013106 -0.029628
v 0.074801 -0.013106 -0.031106
v 0.074790 -0.013106 -0.032591
v 0.074777 -0.013106 -0.034065
v 0.074494 -0.013106 -0.035487
v 0.076884 0.021852 -0.030946
v 0.079768 0.021852 -0.014018
v 0.079775 0.021767 -0.014018
v 0.079853 0.020805 -0.014018
v 0.077356 -0.002016 -0.038176
v 0.077356 -0.001407 -0.038159
v 0.077356 0.000065 -0.038052
v 0.077356 0.000999 -0.037982
v 0.077356 0.002474 -0.037792
v 0.077356 0.003439 -0.037592
v 0.077356 0.003955 -0.037468
v 0.077356 0.005389 -0.036978
v 0.077356 0.000999 -0.004646
v 0.062089 0.004811 -0.005153
v 0.061161 0.004236 -0.005040
v 0.061161 0.001813 -0.005266
v 0.063127 -0.013103 -0.006554
v 0.063541 -0.013103 -0.006344
v 0.064006 -0.013103 -0.006114
v 0.064008 -0.013106 -0.006117
v 0.073887 -0.013106 -0.036541
v 0.072882 -0.013106 -0.037181
v 0.071404 -0.013106 -0.037582
v 0.070718 -0.013106 -0.037602
v 0.066973 -0.013106 -0.037702
v 0.065423 -0.013106 -0.037729
v 0.061161 0.009985 -0.033768
v 0.061161 0.010173 -0.033642
v 0.061505 0.010635 -0.033375
v 0.061161 0.010820 -0.032894
v 0.061161 0.010912 -0.032694
v 0.061161 0.011562 -0.031106
v 0.061161 0.012226 -0.029264
v 0.061161 0.012620 -0.028157
v 0.061161 0.014615 -0.022231
v 0.076590 0.021852 -0.030345
v 0.065493 0.005663 -0.036114
v 0.064343 0.004849 -0.036334
v 0.077151 0.021852 -0.014018
v 0.077356 0.006310 -0.006624
v 0.077356 0.005427 -0.006271
v 0.064067 -0.013106 -0.037645
v 0.065493 -0.009353 -0.037525
v 0.064006 0.002474 -0.036521
v 0.064006 0.003918 -0.036407
v 0.063916 0.004007 -0.036391
v 0.061526 0.004811 -0.005153
v 0.061161 0.004729 -0.005216
v 0.061161 0.000924 -0.005610
v 0.061161 -0.006341 -0.008669
v 0.061161 -0.007809 -0.009323
v 0.061161 -0.010749 -0.010831
v 0.062814 -0.013103 -0.007455
v 0.061161 -0.013103 -0.018128
v 0.064008 -0.013106 -0.037602
v 0.061161 0.008377 -0.034262
v 0.063359 0.004530 -0.036254
v 0.061161 0.014776 -0.020764
v 0.075973 0.021852 -0.028153
v 0.076312 0.021852 -0.029455
v 0.076358 0.021852 -0.029621
v 0.075727 0.021852 -0.017804
v 0.061161 0.014228 -0.019282
v 0.063125 0.013725 -0.015222
v 0.063176 0.012199 -0.012463
v 0.061161 0.008086 -0.008760
v 0.061161 0.006703 -0.007018
v 0.061161 0.006313 -0.006558
v 0.061312 0.006344 -0.006528
v 0.061161 0.006009 -0.006294
v 0.061161 0.005225 -0.005623
v 0.062980 -0.013103 -0.036921
v 0.064006 -0.013103 -0.037605
v 0.064006 -0.012309 -0.037572
v 0.063250 0.003548 -0.036311
v 0.061161 -0.011307 -0.011429
v 0.061161 -0.011820 -0.011982
v 0.061161 -0.012135 -0.013260
v 0.061161 -0.012449 -0.014728
v 0.061161 -0.012740 -0.016193
v 0.061161 -0.013103 -0.023753
v 0.062729 -0.013103 -0.035547
v 0.062865 -0.013103 -0.036307
v 0.063167 0.000999 -0.036397
v 0.063127 -0.000476 -0.036444
v 0.063095 -0.001954 -0.036491
v 0.061161 -0.004914 -0.032207
v 0.075318 0.021852 -0.019035
v 0.075274 0.021852 -0.019179
v 0.075092 0.021852 -0.019839
v 0.075075 0.021852 -0.019916
v 0.075028 0.021852 -0.020764
v 0.075011 0.021852 -0.022238
v 0.075057 0.021852 -0.023172
v 0.075944 0.021852 -0.028000
v 0.061161 0.013694 -0.018331
v 0.061161 0.013308 -0.017644
v 0.061161 0.009366 -0.010781
v 0.061161 0.008958 -0.010097
v 0.061161 -0.007977 -0.030899
v 0.061161 -0.006896 -0.031640
v 0.061161 -0.006064 -0.032024
v 0.061161 -0.012898 -0.024073
v 0.061161 -0.009931 -0.028547
v 0.061161 -0.009103 -0.029735
f 7 8 1
f 1 6 7
f 5 6 1
f 27 6 5
f 5 26 27
f 7 6 29
f 53 65 91
f 55 27 26
f 4 3 15
f 15 25 4
f 4 25 26
f 4 26 5
f 5 1 4
f 1 3 4
f 52 86 87
f 15 3 24
f 56 93 57
f 57 26 56
f 57 58 26
f 90 113 109
f 26 53 54
f 54 55 26
f 6 27 28
f 27 55 28
f 55 54 28
f 28 54 53
f 53 64 28
f 28 64 65
f 65 66 28
f 28 66 29
f 28 29 6
f 80 79 81
f 81 52 80
f 80 52 79
f 109 113 139
f 144 145 109
f 110 86 109
f 68 102 103
f 32 8 7
f 7 31 32
f 68 31 69
f 11 12 1
f 50 24 23
f 3 22 23
f 23 24 3
f 42 18 41
f 43 20 42
f 58 57 95
f 77 93 56
f 71 31 68
f 53 91 92
f 92 64 53
f 92 91 65
f 65 64 92
f 116 90 115
f 83 84 52
f 86 52 85
f 52 84 85
f 123 153 138
f 155 133 154
f 154 133 132
f 106 123 93
f 132 133 106
f 141 142 109
f 109 142 143
f 143 144 109
f 109 145 146
f 146 110 109
f 87 86 112
f 67 100 68
f 101 102 68
f 68 100 101
f 68 103 104
f 105 71 104
f 104 71 68
f 70 69 31
f 10 11 1
f 51 24 50
f 38 72 73
f 73 74 38
f 38 77 56
f 38 25 15
f 56 26 38
f 26 25 38
f 13 16 3
f 13 14 33
f 17 18 3
f 3 16 17
f 40 17 16
f 41 18 40
f 18 17 40
f 21 22 3
f 3 20 21
f 21 43 22
f 21 20 43
f 3 18 19
f 19 20 3
f 18 42 19
f 19 42 20
f 94 57 93
f 93 95 94
f 94 95 57
f 126 95 93
f 108 97 126
f 126 97 95
f 61 62 26
f 26 60 61
f 63 88 52
f 63 52 26
f 26 62 63
f 79 52 78
f 98 66 65
f 117 90 116
f 116 150 117
f 114 90 109
f 114 115 90
f 82 52 81
f 82 83 52
f 156 133 155
f 156 151 133
f 152 153 123
f 123 151 152
f 134 151 123
f 133 151 134
f 123 106 134
f 134 106 133
f 109 139 140
f 140 141 109
f 86 110 111
f 111 112 86
f 30 67 68
f 68 69 30
f 69 70 30
f 30 31 7
f 30 70 31
f 128 104 127
f 127 104 103
f 129 104 128
f 130 104 129
f 105 104 131
f 131 104 130
f 9 1 8
f 9 10 1
f 77 38 76
f 14 13 2
f 12 14 2
f 1 12 2
f 2 3 1
f 2 13 3
f 34 13 33
f 16 13 34
f 22 43 44
f 44 23 22
f 58 95 59
f 26 58 59
f 59 60 26
f 89 97 108
f 89 61 60
f 60 59 89
f 89 59 97
f 62 61 89
f 89 63 62
f 88 63 89
f 108 78 89
f 52 88 89
f 89 78 52
f 93 123 124
f 125 126 93
f 135 126 125
f 125 136 135
f 93 124 125
f 125 124 123
f 107 126 135
f 135 136 107
f 108 126 107
f 107 78 108
f 123 138 107
f 122 98 90
f 118 119 90
f 90 117 118
f 116 115 148
f 75 38 74
f 75 76 38
f 37 38 15
f 15 36 37
f 72 38 37
f 37 36 72
f 35 51 72
f 72 36 35
f 24 51 35
f 15 24 35
f 35 36 15
f 39 40 16
f 16 34 39
f 50 23 49
f 23 48 49
f 23 46 47
f 47 48 23
f 45 46 23
f 23 44 45
f 95 97 96
f 96 59 95
f 97 59 96
f 123 107 137
f 137 107 136
f 137 125 123
f 136 125 137
f 121 122 90
f 66 98 99
f 98 122 99
f 149 150 116
f 116 148 149
f 115 114 147
f 147 148 115
f 119 121 120
f 90 119 120
f 120 121 90
f 106 105 132
f 106 71 105
f 53 90 98
f 98 65 53
f 26 52 111
f 111 53 26
f 142 141 111
f 111 52 87
f 111 90 53
f 111 146 145
f 113 90 111
f 111 139 113
f 145 144 111
f 111 143 142
f 87 112 111
f 144 143 111
f 110 146 111
f 111 140 139
f 141 140 111
f 45 42 41
f 45 51 50
f 8 32 45
f 41 40 45
f 93 77 45
f 45 106 93
f 45 14 12
f 45 74 73
f 45 32 31
f 12 11 45
f 45 34 33
f 73 72 45
f 43 42 45
f 45 9 8
f 31 71 45
f 71 106 45
f 11 10 45
f 33 14 45
f 72 51 45
f 45 44 43
f 40 39 45
f 10 9 45
f 77 76 45
f 45 75 74
f 50 49 45
f 45 47 46
f 76 75 45
f 45 39 34
f 45 49 48
f 48 47 45
f 81 79 147
f 102 101 147
f 7 29 147
f 128 127 147
f 147 107 138
f 109 86 147
f 155 154 147
f 147 30 7
f 147 82 81
f 132 105 147
f 29 66 147
f 147 114 109
f 86 85 147
f 153 152 147
f 147 103 102
f 147 129 128
f 147 117 150
f 79 78 147
f 84 83 147
f 147 85 84
f 147 138 153
f 147 154 132
f 147 156 155
f 100 67 147
f 147 101 100
f 105 131 147
f 147 121 119
f 119 118 147
f 83 82 147
f 151 156 147
f 147 152 151
f 67 30 147
f 147 127 103
f 130 129 147
f 147 131 130
f 78 107 147
f 66 99 147
f 147 118 117
f 150 149 147
f 122 121 147
f 147 99 122
f 147 149 148
