v 0.086182 0.028591 -0.040361
v 0.086182 0.030581 -0.040207
v 0.086182 0.028591 -0.037273
v 0.086089 0.028591 -0.040280
v 0.084994 0.041146 -0.045684
v 0.085117 0.041044 -0.045684
v 0.085183 0.040993 -0.045684
v 0.085183 0.046519 -0.045684
v 0.086182 0.030583 -0.040100
v 0.085183 0.046775 -0.044935
v 0.085183 0.046906 -0.044417
v 0.085183 0.046930 -0.043406
v 0.085183 0.047141 -0.031577
v 0.078228 0.028591 -0.021269
v 0.086182 0.028600 -0.001933
v 0.079769 0.028591 -0.034601
v 0.083728 0.042907 -0.045380
v 0.084215 0.042609 -0.045684
v 0.079235 0.028591 -0.034117
v 0.085061 0.046492 -0.045684
v 0.084715 0.046455 -0.045582
v 0.081758 0.046361 -0.044048
v 0.084715 0.046855 -0.044417
v 0.086182 0.030583 -0.003428
v 0.078886 0.046695 -0.040066
v 0.078886 0.046852 -0.038588
v 0.078886 0.047117 -0.016327
v 0.080280 0.047159 -0.016327
v 0.081758 0.046988 -0.017804
v 0.085183 0.044367 -0.004498
v 0.086182 0.030581 -0.002006
v 0.075054 0.028591 -0.021269
v 0.086182 0.030376 -0.001997
v 0.085183 0.042402 -0.002049
v 0.084760 0.028600 -0.002657
v 0.079512 0.044596 -0.042228
v 0.080856 0.045803 -0.043813
v 0.083491 0.043880 -0.045479
v 0.084017 0.043142 -0.045684
v 0.078973 0.028591 -0.033864
v 0.084808 0.046341 -0.045684
v 0.083658 0.046281 -0.045320
v 0.080856 0.046230 -0.043813
v 0.081758 0.046657 -0.042939
v 0.080330 0.046352 -0.042866
v 0.078886 0.046326 -0.041329
v 0.074973 0.030583 -0.023719
v 0.074958 0.030583 -0.022228
v 0.078886 0.046695 -0.014956
v 0.084715 0.044358 -0.004498
v 0.074996 0.030583 -0.019350
v 0.085183 0.043945 -0.002982
v 0.085183 0.043442 -0.002151
v 0.085183 0.043398 -0.002126
v 0.085183 0.043069 -0.002100
v 0.075027 0.028591 -0.022241
v 0.083462 0.028600 -0.003406
v 0.082724 0.028600 -0.003980
v 0.082109 0.028600 -0.004721
v 0.081862 0.028600 -0.005068
v 0.081371 0.028600 -0.005770
v 0.080880 0.028600 -0.006511
v 0.080323 0.028600 -0.007458
v 0.079719 0.028600 -0.008524
v 0.077791 0.028600 -0.012121
v 0.077181 0.028600 -0.013368
v 0.076714 0.028600 -0.014447
v 0.076434 0.028600 -0.015188
v 0.075818 0.028600 -0.016819
v 0.075450 0.028600 -0.017804
v 0.075339 0.028600 -0.018250
v 0.075139 0.028600 -0.019111
v 0.075118 0.028600 -0.019359
v 0.075096 0.028600 -0.019847
v 0.075085 0.028600 -0.020151
v 0.075062 0.028600 -0.020935
v 0.085142 0.042402 -0.002074
v 0.078886 0.044309 -0.041325
v 0.078886 0.045185 -0.041689
v 0.078886 0.045359 -0.041727
v 0.079440 0.045359 -0.042318
v 0.078486 0.028591 -0.033389
v 0.078234 0.028591 -0.033132
v 0.082698 0.045359 -0.044999
v 0.079436 0.046204 -0.042327
v 0.083819 0.043896 -0.045684
v 0.084159 0.045845 -0.045684
v 0.083438 0.045359 -0.045436
v 0.075048 0.030583 -0.024704
v 0.075047 0.030583 -0.024695
v 0.075103 0.028591 -0.024460
v 0.075056 0.028591 -0.023774
v 0.078886 0.046637 -0.014828
v 0.083158 0.043840 -0.004421
v 0.084714 0.043787 -0.002969
v 0.075008 0.030583 -0.019273
v 0.078886 0.043623 -0.008691
v 0.083597 0.043522 -0.003428
v 0.083435 0.042402 -0.003303
v 0.084403 0.042402 -0.002567
v 0.082694 0.042402 -0.003954
v 0.081971 0.042402 -0.004691
v 0.081231 0.042402 -0.005458
v 0.080524 0.042402 -0.006194
v 0.079785 0.042402 -0.006991
v 0.079142 0.042402 -0.007727
v 0.078886 0.042402 -0.008066
v 0.076705 0.029094 -0.014421
v 0.076381 0.030583 -0.015085
v 0.075336 0.030583 -0.017817
v 0.075283 0.030583 -0.018001
v 0.075116 0.029972 -0.018909
v 0.077842 0.028591 -0.032644
v 0.077652 0.028591 -0.032391
v 0.077164 0.028591 -0.031582
v 0.076913 0.028591 -0.031158
v 0.076564 0.028591 -0.030417
v 0.076312 0.028591 -0.029633
v 0.076006 0.028591 -0.028657
v 0.075850 0.028591 -0.028151
v 0.075441 0.030583 -0.026674
v 0.083831 0.044947 -0.045684
v 0.083926 0.045359 -0.045684
v 0.075496 0.028591 -0.026674
v 0.075293 0.028591 -0.025543
v 0.079230 0.043469 -0.007852
v 0.080219 0.043798 -0.007398
v 0.082134 0.043511 -0.004862
v 0.078886 0.043025 -0.008207
v 0.080671 0.043489 -0.006357
v 0.076681 0.030583 -0.014348
v 0.075613 0.028591 -0.027175
f 48 56 51
f 48 51 27
f 15 14 3
f 32 14 15
f 32 51 56
f 28 29 13
f 13 27 28
f 48 27 26
f 27 13 26
f 2 13 9
f 28 27 50
f 25 26 11
f 11 26 12
f 12 26 13
f 12 2 11
f 13 2 12
f 8 2 1
f 1 7 8
f 81 80 85
f 36 80 81
f 32 58 59
f 57 58 32
f 49 50 27
f 49 27 51
f 30 31 13
f 30 13 29
f 30 29 28
f 28 50 30
f 9 13 24
f 13 31 24
f 85 80 46
f 80 89 46
f 82 83 36
f 11 2 10
f 2 8 10
f 19 5 16
f 6 7 1
f 1 5 6
f 17 19 36
f 17 5 19
f 121 80 120
f 121 89 80
f 107 110 109
f 111 110 107
f 63 62 107
f 107 64 63
f 32 62 63
f 63 64 32
f 107 66 65
f 65 64 107
f 65 66 32
f 32 64 65
f 107 62 61
f 61 62 32
f 35 32 15
f 35 57 32
f 99 101 58
f 58 57 99
f 99 98 101
f 95 98 53
f 94 98 95
f 49 94 95
f 53 31 52
f 31 30 52
f 52 95 53
f 52 30 50
f 50 49 52
f 49 95 52
f 23 25 11
f 23 44 25
f 11 10 23
f 23 10 8
f 25 44 45
f 85 46 45
f 45 46 25
f 36 19 40
f 40 82 36
f 4 5 1
f 4 16 5
f 36 81 37
f 37 17 36
f 37 81 85
f 5 17 18
f 47 56 48
f 48 26 47
f 26 25 47
f 25 46 47
f 89 121 124
f 78 113 114
f 83 113 78
f 36 83 78
f 107 109 131
f 67 109 110
f 32 66 67
f 67 66 107
f 129 111 107
f 107 126 129
f 126 97 129
f 106 126 107
f 106 105 126
f 58 105 106
f 107 59 106
f 106 59 58
f 126 105 104
f 104 105 58
f 101 98 128
f 128 98 94
f 94 127 128
f 60 59 107
f 107 61 60
f 32 59 60
f 60 61 32
f 34 33 31
f 15 33 34
f 34 35 15
f 57 35 34
f 34 77 57
f 57 77 100
f 100 99 57
f 93 94 49
f 93 127 94
f 126 127 93
f 93 97 126
f 51 97 93
f 93 49 51
f 85 45 43
f 43 37 85
f 43 45 44
f 56 47 92
f 92 47 91
f 89 91 90
f 91 47 90
f 90 46 89
f 90 47 46
f 132 121 120
f 132 124 121
f 125 91 89
f 89 124 125
f 115 78 114
f 116 78 115
f 79 78 116
f 79 116 117
f 79 80 36
f 36 78 79
f 117 118 79
f 118 119 79
f 79 119 120
f 120 80 79
f 108 131 109
f 109 67 108
f 107 131 108
f 108 67 107
f 111 129 96
f 96 112 111
f 96 97 51
f 96 129 97
f 110 111 70
f 101 128 102
f 58 101 102
f 130 127 126
f 130 128 127
f 130 102 128
f 126 104 130
f 77 34 55
f 55 34 31
f 99 100 54
f 53 98 54
f 98 99 54
f 54 31 53
f 54 55 31
f 54 100 77
f 77 55 54
f 44 23 22
f 22 43 44
f 22 23 8
f 75 74 51
f 32 74 75
f 110 70 69
f 69 70 32
f 111 112 72
f 72 96 51
f 112 96 72
f 103 130 104
f 102 130 103
f 103 104 58
f 58 102 103
f 51 32 76
f 76 75 51
f 32 75 76
f 68 67 110
f 110 69 68
f 32 67 68
f 68 69 32
f 71 70 111
f 111 72 71
f 32 70 71
f 71 72 32
f 51 74 73
f 73 72 51
f 73 74 32
f 32 72 73
f 17 37 38
f 43 42 88
f 88 87 123
f 42 87 88
f 41 87 42
f 39 18 17
f 17 38 39
f 39 38 86
f 122 88 123
f 43 88 84
f 37 43 84
f 84 38 37
f 86 38 84
f 84 122 86
f 88 122 84
f 20 41 42
f 21 42 43
f 21 20 42
f 43 22 21
f 8 20 21
f 21 22 8
f 24 3 1
f 15 3 24
f 1 2 24
f 24 2 9
f 24 33 15
f 31 33 24
f 1 3 115
f 115 40 19
f 115 32 56
f 115 3 14
f 14 32 115
f 120 119 115
f 56 92 115
f 114 113 115
f 91 125 115
f 115 113 83
f 83 82 115
f 19 16 115
f 115 4 1
f 117 116 115
f 115 118 117
f 82 40 115
f 16 4 115
f 115 132 120
f 115 119 118
f 115 92 91
f 124 132 115
f 115 125 124
f 7 6 20
f 20 8 7
f 20 6 5
f 5 18 20
f 20 122 123
f 18 39 20
f 123 87 20
f 87 41 20
f 20 39 86
f 86 122 20
