v 0.086184 0.021852 -0.040956
v 0.086445 0.021852 -0.041213
v 0.092031 0.010257 -0.043148
v 0.086184 0.021852 -0.038178
v 0.086184 0.030579 -0.040215
v 0.086509 0.023178 -0.041155
v 0.088262 0.027613 -0.042337
v 0.088182 0.026137 -0.042387
v 0.087366 0.023178 -0.041894
v 0.087358 0.021852 -0.041951
v 0.096159 0.010257 -0.044702
v 0.092031 0.010257 -0.039662
v 0.088099 0.021852 -0.042349
v 0.089154 0.021852 -0.042749
v 0.086186 0.028721 -0.037132
v 0.086184 0.030581 -0.037132
v 0.086184 0.030581 -0.040102
v 0.086840 0.030581 -0.040801
v 0.087830 0.030581 -0.041690
v 0.088388 0.030127 -0.042229
v 0.088991 0.030581 -0.042665
v 0.089020 0.030581 -0.042687
v 0.089154 0.029093 -0.042836
v 0.089154 0.027613 -0.042869
v 0.088138 0.024657 -0.042391
v 0.088105 0.023178 -0.042370
v 0.096548 0.010257 -0.044828
v 0.090529 0.027613 -0.043475
v 0.091268 0.027613 -0.043715
v 0.105949 0.010257 -0.039153
v 0.089154 0.026137 -0.042886
v 0.089154 0.024657 -0.042856
v 0.089154 0.023178 -0.042800
v 0.092031 0.028560 -0.037132
v 0.092031 0.030581 -0.037132
v 0.090516 0.030581 -0.043525
v 0.098367 0.010257 -0.045154
v 0.091218 0.029093 -0.043725
v 0.098026 0.028186 -0.044987
v 0.090479 0.029093 -0.043507
v 0.105949 0.010257 -0.043750
v 0.105949 0.022647 -0.041551
v 0.105401 0.026290 -0.041650
v 0.104517 0.028186 -0.041399
v 0.092031 0.030581 -0.043712
v 0.091251 0.030581 -0.043709
v 0.098562 0.010671 -0.045173
v 0.098562 0.010464 -0.045173
v 0.098976 0.010257 -0.045181
v 0.091978 0.030581 -0.043714
v 0.099500 0.028186 -0.044830
v 0.100313 0.010697 -0.045203
v 0.099500 0.010721 -0.045203
v 0.100303 0.010257 -0.045198
v 0.105949 0.012388 -0.043711
v 0.105949 0.022647 -0.043338
v 0.105401 0.026292 -0.041871
v 0.104517 0.028186 -0.043558
v 0.099586 0.010257 -0.045198
v 0.105401 0.026292 -0.043375
f 15 12 30
f 53 39 52
f 7 5 19
f 30 44 35
f 12 15 4
f 4 15 16
f 5 7 6
f 34 15 30
f 30 35 34
f 39 50 45
f 41 54 52
f 46 50 39
f 39 38 46
f 27 38 39
f 5 17 18
f 19 5 18
f 20 7 19
f 45 58 51
f 39 45 51
f 52 39 51
f 51 58 52
f 52 58 55
f 55 41 52
f 55 58 60
f 30 42 43
f 43 44 30
f 2 6 7
f 1 5 2
f 5 6 2
f 2 3 1
f 40 31 36
f 36 31 25
f 36 38 40
f 36 46 38
f 10 2 9
f 13 3 10
f 3 2 10
f 37 27 39
f 40 38 29
f 38 27 29
f 14 3 13
f 21 20 19
f 21 22 7
f 7 20 21
f 56 55 60
f 57 43 42
f 44 43 57
f 26 31 13
f 25 31 26
f 13 10 26
f 26 10 25
f 22 36 23
f 59 53 52
f 52 54 59
f 39 53 47
f 47 37 39
f 32 31 40
f 13 31 32
f 40 29 28
f 28 32 40
f 22 23 8
f 7 22 8
f 8 2 7
f 9 2 8
f 8 10 9
f 25 10 8
f 37 47 48
f 53 59 48
f 48 47 53
f 33 14 13
f 13 32 33
f 33 28 14
f 32 28 33
f 14 28 11
f 3 14 11
f 11 29 27
f 11 28 29
f 24 23 36
f 24 8 23
f 24 36 25
f 25 8 24
f 37 48 49
f 49 48 59
f 3 4 1
f 12 4 3
f 1 4 17
f 17 5 1
f 17 4 16
f 34 35 16
f 16 15 34
f 58 45 35
f 58 35 44
f 21 17 16
f 16 35 21
f 21 36 22
f 50 46 21
f 21 45 50
f 35 45 21
f 19 18 21
f 21 18 17
f 46 36 21
f 30 41 56
f 56 42 30
f 41 55 56
f 42 56 57
f 57 56 60
f 57 58 44
f 60 58 57
f 12 3 49
f 30 12 49
f 49 41 30
f 54 41 49
f 49 59 54
f 27 37 49
f 3 11 49
f 49 11 27
