v 0.052183 -0.014079 -0.023719
v 0.051016 -0.013574 -0.023719
v 0.051025 -0.013480 -0.025195
v 0.052183 -0.013862 -0.025195
v 0.053662 -0.014003 -0.023719
v 0.061161 -0.013592 -0.022101
v 0.052184 -0.014032 -0.020760
v 0.045776 -0.011735 0.007023
v 0.045776 -0.011735 0.006036
v 0.050692 -0.012305 -0.025195
v 0.051204 -0.013269 -0.026173
v 0.053662 -0.013689 -0.025195
v 0.061161 -0.013330 -0.023397
v 0.061161 -0.013592 -0.022235
v 0.055139 -0.013880 -0.023719
v 0.052183 -0.013316 -0.026240
v 0.061161 -0.013515 -0.020626
v 0.052184 -0.013953 -0.019280
v 0.046267 -0.011727 0.006948
v 0.045776 -0.010992 0.007704
v 0.045776 -0.011401 0.005819
v 0.050782 -0.010828 -0.026675
v 0.051046 -0.012261 -0.026671
v 0.045776 -0.010831 0.005451
v 0.051347 -0.011732 -0.027548
v 0.052741 -0.008880 -0.030613
v 0.053662 -0.009001 -0.030763
v 0.052183 -0.012587 -0.026980
v 0.053662 -0.013169 -0.026089
v 0.055058 -0.013392 -0.025262
v 0.061161 -0.012896 -0.024075
v 0.054508 -0.013069 -0.025972
v 0.053662 -0.009741 -0.030019
v 0.053662 -0.010437 -0.029275
v 0.053662 -0.011838 -0.027716
v 0.055139 -0.011738 -0.027611
v 0.061161 -0.009104 -0.029731
v 0.056240 -0.011647 -0.027511
v 0.061161 -0.013345 -0.019280
v 0.049225 -0.011633 0.005401
v 0.047398 -0.011668 0.006734
v 0.045776 -0.010475 0.007997
v 0.050611 0.000992 -0.032586
v 0.051041 0.000992 -0.033898
v 0.045776 -0.010646 0.005413
v 0.050564 0.002473 -0.032586
v 0.051232 -0.000159 -0.033610
v 0.052839 -0.004383 -0.033413
v 0.053948 -0.007435 -0.032184
v 0.055139 -0.007538 -0.032285
v 0.061161 -0.009929 -0.028547
v 0.055139 -0.008278 -0.031478
v 0.056616 -0.008199 -0.031386
v 0.058095 -0.008096 -0.031286
v 0.061161 -0.007976 -0.030901
v 0.061161 -0.013169 -0.018214
v 0.049973 -0.011574 0.005121
v 0.052184 -0.011189 0.004377
v 0.053187 -0.010320 0.005267
v 0.045776 -0.010137 0.008047
v 0.050981 0.002473 -0.034011
v 0.052184 0.002473 -0.034659
v 0.052183 0.000992 -0.034408
v 0.052659 -0.003437 -0.033560
v 0.045776 -0.009353 0.005284
v 0.050761 0.008385 -0.031110
v 0.051005 0.005428 -0.033702
v 0.050973 0.003950 -0.033898
v 0.045776 -0.009324 0.005284
v 0.045776 0.009866 0.005923
v 0.045776 0.010227 0.005999
v 0.045776 0.011026 0.006262
v 0.054312 -0.005743 -0.033351
v 0.056616 -0.007459 -0.032172
v 0.055204 -0.006298 -0.033079
v 0.057383 -0.005684 -0.033342
v 0.058095 -0.007359 -0.032051
v 0.059219 -0.007238 -0.031929
v 0.061161 -0.006895 -0.031641
v 0.061161 -0.012449 -0.014727
v 0.053659 -0.011086 0.002897
v 0.053671 -0.010549 0.004347
v 0.054491 -0.010237 0.003837
v 0.054035 -0.009353 0.004686
v 0.053299 -0.009353 0.005342
v 0.052184 -0.009353 0.005773
v 0.050704 0.006908 0.006066
v 0.048754 0.009866 0.006676
v 0.047746 0.009866 0.006973
v 0.045776 -0.009353 0.008026
v 0.052184 -0.004915 0.005748
v 0.052184 -0.003437 0.005735
v 0.052184 -0.001960 0.005714
v 0.052184 0.003950 -0.034559
v 0.055139 0.005428 -0.034500
v 0.058095 0.006905 -0.034392
v 0.061161 0.008377 -0.034262
v 0.054753 -0.005743 -0.033351
v 0.050671 0.009863 -0.029630
v 0.051156 0.009487 -0.032205
v 0.051091 0.008318 -0.032653
v 0.051208 0.006905 -0.033493
v 0.045776 0.011026 0.007035
v 0.051019 0.015526 -0.019280
v 0.050806 0.014298 -0.020760
v 0.061161 -0.004918 -0.032209
v 0.061161 -0.006060 -0.032021
v 0.061161 -0.012135 -0.013260
v 0.054708 -0.010458 0.002897
v 0.061161 -0.011818 -0.011977
v 0.055931 -0.010199 0.000794
v 0.061161 -0.006342 -0.008670
v 0.061161 0.000919 -0.005610
v 0.061161 0.001812 -0.005263
v 0.061161 0.002622 -0.004979
v 0.054567 -0.009353 0.003946
v 0.061161 -0.011307 -0.011425
v 0.061161 -0.010748 -0.010831
v 0.061161 0.002696 -0.004966
v 0.061161 0.004126 -0.005016
v 0.053999 -0.007873 0.004661
v 0.053141 -0.001960 0.005305
v 0.053175 -0.003437 0.005321
v 0.052184 -0.000479 0.005685
v 0.051964 0.009866 0.005497
v 0.050704 0.009866 0.005986
v 0.048665 0.010718 0.006647
v 0.045776 0.009866 0.007478
v 0.053660 0.005428 -0.034379
v 0.056615 0.006905 -0.034346
v 0.051377 0.007777 -0.033363
v 0.052184 0.005428 -0.034178
v 0.059573 0.008385 -0.034283
v 0.061161 0.009980 -0.033769
v 0.051166 0.015320 -0.020760
v 0.051107 0.010961 -0.029630
v 0.051002 0.009933 -0.031123
v 0.052184 0.010465 -0.031603
v 0.052184 0.009725 -0.032456
v 0.052184 0.008758 -0.033196
v 0.051276 0.010732 -0.030642
v 0.045776 0.010668 0.007228
v 0.046267 0.011064 0.006964
v 0.052183 0.015929 -0.019280
v 0.061161 -0.007808 -0.009322
v 0.061161 0.004232 -0.005037
v 0.052704 0.009866 0.004816
v 0.052754 0.008385 0.004916
v 0.052918 0.004652 0.005112
v 0.052954 0.003668 0.005150
v 0.052996 0.002473 0.005192
v 0.053049 0.000992 0.005238
v 0.053098 -0.000479 0.005275
v 0.051775 0.010938 0.005367
v 0.047746 0.010912 0.006785
v 0.053675 0.008456 -0.033514
v 0.058095 0.008385 -0.034132
v 0.052184 0.008021 -0.033434
v 0.059573 0.009751 -0.033723
v 0.061026 0.009992 -0.033752
v 0.061161 0.010171 -0.033643
v 0.052183 0.015573 -0.020760
v 0.051266 0.015206 -0.021228
v 0.053400 0.010550 -0.031741
v 0.060515 0.010571 -0.033280
v 0.059573 0.010491 -0.033175
v 0.058095 0.010359 -0.033008
v 0.052184 0.010838 -0.030863
v 0.054178 0.009181 -0.033355
v 0.053193 0.008996 -0.033288
v 0.051354 0.015103 -0.021637
v 0.050704 0.011055 0.005543
v 0.053660 0.015729 -0.019280
v 0.059005 0.015077 -0.019949
v 0.059005 0.015077 -0.020358
v 0.058097 0.015177 -0.020638
v 0.055140 0.015447 -0.020760
v 0.053660 0.015517 -0.020760
v 0.052234 0.011097 0.004381
v 0.061161 0.004731 -0.005217
v 0.053064 0.010803 0.003888
v 0.055139 0.009299 -0.033422
v 0.056615 0.009472 -0.033522
v 0.058095 0.009619 -0.033622
v 0.061161 0.010818 -0.032895
v 0.061161 0.011564 -0.031102
v 0.061161 0.010906 -0.032699
v 0.061161 0.012227 -0.029266
v 0.059573 0.010882 -0.032435
v 0.052184 0.012277 -0.027828
v 0.053660 0.012360 -0.027991
v 0.056615 0.012163 -0.029066
v 0.058097 0.015177 -0.019752
v 0.061161 0.014771 -0.020760
v 0.061161 0.014616 -0.022231
v 0.056735 0.015273 -0.020902
v 0.061161 0.012618 -0.028155
v 0.061161 0.005222 -0.005623
v 0.055872 0.010588 -0.000803
v 0.054609 0.010823 0.001049
v 0.061161 0.014225 -0.019276
v 0.056615 0.011813 -0.029806
v 0.061161 0.006012 -0.006291
v 0.061161 0.006318 -0.006555
v 0.061161 0.006705 -0.007019
v 0.061161 0.008083 -0.008758
v 0.061161 0.008958 -0.010096
v 0.061161 0.009361 -0.010785
v 0.061161 0.013305 -0.017641
v 0.061161 0.013693 -0.018327
v 0.056131 0.010806 -0.001789
f 104 103 144
f 8 7 18
f 6 7 1
f 1 7 8
f 62 97 76
f 76 107 79
f 103 104 72
f 84 59 83
f 180 181 147
f 173 174 144
f 3 1 2
f 68 46 67
f 62 44 61
f 61 46 68
f 62 73 63
f 63 44 62
f 48 63 73
f 46 61 43
f 43 61 44
f 68 67 94
f 62 61 94
f 94 61 68
f 98 73 62
f 62 76 98
f 106 76 97
f 107 76 106
f 41 57 58
f 58 59 41
f 99 72 105
f 105 72 104
f 99 105 135
f 135 105 104
f 135 104 144
f 144 162 135
f 58 81 82
f 82 59 58
f 83 59 82
f 187 162 186
f 160 165 161
f 161 134 160
f 199 181 180
f 174 173 193
f 66 67 46
f 66 72 99
f 46 72 66
f 25 26 11
f 48 26 25
f 44 63 64
f 64 48 44
f 63 48 64
f 22 43 44
f 160 134 133
f 133 134 97
f 132 94 131
f 51 29 37
f 13 14 4
f 4 14 15
f 4 3 11
f 1 3 4
f 57 41 40
f 8 18 19
f 56 81 58
f 58 57 56
f 117 118 83
f 83 110 117
f 109 110 83
f 81 110 109
f 83 82 109
f 109 82 81
f 113 114 83
f 83 112 113
f 46 43 24
f 43 22 24
f 194 195 176
f 131 94 102
f 102 94 67
f 136 135 141
f 141 137 136
f 99 135 136
f 136 137 99
f 138 141 168
f 131 102 101
f 101 102 67
f 67 66 101
f 100 137 141
f 141 138 100
f 100 138 139
f 100 101 66
f 131 101 100
f 99 137 100
f 100 66 99
f 168 141 171
f 171 190 168
f 60 59 86
f 59 84 85
f 85 86 59
f 84 119 120
f 83 114 115
f 116 84 83
f 116 119 84
f 116 115 119
f 83 115 116
f 194 181 201
f 154 147 181
f 154 125 147
f 49 48 73
f 49 26 48
f 73 50 49
f 44 48 47
f 47 25 44
f 48 25 47
f 11 3 10
f 10 24 22
f 44 25 23
f 23 22 44
f 23 25 11
f 11 10 23
f 23 10 22
f 157 133 130
f 96 97 62
f 96 133 97
f 5 14 6
f 6 1 5
f 15 14 5
f 1 4 5
f 5 4 15
f 13 4 12
f 79 55 78
f 78 55 77
f 78 76 79
f 78 77 76
f 16 4 11
f 29 12 16
f 16 12 4
f 75 98 76
f 76 50 75
f 73 98 75
f 75 50 73
f 76 77 74
f 74 50 76
f 37 35 53
f 50 74 53
f 8 19 20
f 20 19 41
f 108 110 81
f 57 40 39
f 39 56 57
f 118 145 111
f 83 118 111
f 111 145 112
f 111 112 83
f 71 72 46
f 46 70 71
f 46 65 69
f 69 70 46
f 45 65 46
f 46 24 45
f 186 162 188
f 195 197 177
f 144 176 177
f 175 174 194
f 194 176 175
f 144 174 175
f 175 176 144
f 164 138 168
f 165 138 164
f 166 138 165
f 165 169 166
f 166 169 139
f 131 100 140
f 140 100 139
f 165 164 189
f 189 164 168
f 141 135 163
f 163 171 141
f 163 135 162
f 162 171 163
f 190 171 191
f 191 171 192
f 168 190 191
f 191 189 168
f 123 85 84
f 86 85 91
f 60 86 91
f 84 120 121
f 121 120 152
f 152 120 151
f 151 125 152
f 149 120 148
f 148 120 147
f 148 125 149
f 147 125 148
f 180 147 146
f 147 120 146
f 198 199 180
f 207 199 206
f 181 199 200
f 200 201 181
f 128 155 142
f 60 88 89
f 60 93 87
f 87 88 60
f 179 173 144
f 179 193 173
f 174 193 179
f 194 174 179
f 179 181 194
f 179 154 181
f 155 154 172
f 172 179 144
f 154 179 172
f 9 10 3
f 9 3 2
f 9 1 8
f 2 1 9
f 157 130 129
f 129 156 157
f 132 156 129
f 94 132 129
f 129 130 94
f 62 94 95
f 95 96 62
f 133 96 95
f 94 130 95
f 95 130 133
f 32 31 13
f 13 29 32
f 51 31 32
f 29 51 32
f 30 29 13
f 13 12 30
f 30 12 29
f 37 29 38
f 38 16 37
f 29 16 38
f 36 35 37
f 37 16 36
f 36 16 35
f 11 26 27
f 26 49 27
f 27 49 50
f 33 27 50
f 34 53 35
f 34 33 50
f 35 16 34
f 16 33 34
f 37 53 54
f 54 53 74
f 54 74 77
f 54 55 37
f 77 55 54
f 42 59 60
f 42 41 59
f 42 20 41
f 81 56 80
f 80 108 81
f 17 40 41
f 17 39 40
f 41 19 17
f 17 19 18
f 17 7 6
f 17 18 7
f 178 177 197
f 197 188 178
f 178 188 162
f 178 162 144
f 144 177 178
f 196 176 195
f 195 177 196
f 196 177 176
f 139 138 167
f 167 166 139
f 138 166 167
f 184 165 160
f 184 183 165
f 157 183 184
f 182 169 165
f 165 183 182
f 157 169 182
f 182 183 157
f 139 169 170
f 170 140 139
f 170 169 157
f 157 156 170
f 165 189 185
f 185 161 165
f 162 187 185
f 185 171 162
f 192 171 185
f 185 189 192
f 192 189 202
f 202 191 192
f 189 191 202
f 92 91 85
f 92 123 93
f 85 123 92
f 92 93 60
f 60 91 92
f 122 123 84
f 84 121 122
f 150 120 149
f 150 151 120
f 149 125 150
f 125 151 150
f 203 204 199
f 199 198 203
f 199 204 205
f 205 206 199
f 208 199 207
f 208 209 199
f 210 201 199
f 199 209 210
f 199 201 211
f 211 200 199
f 201 200 211
f 103 142 143
f 143 142 155
f 155 172 143
f 144 103 143
f 143 172 144
f 60 89 90
f 90 89 128
f 127 89 88
f 127 154 155
f 127 155 128
f 128 89 127
f 125 154 127
f 124 87 93
f 125 87 124
f 124 122 125
f 93 123 124
f 123 122 124
f 126 87 125
f 88 87 126
f 125 127 126
f 126 127 88
f 24 10 21
f 10 9 21
f 11 27 28
f 27 33 28
f 28 16 11
f 28 33 16
f 50 53 52
f 52 34 50
f 53 34 52
f 160 133 159
f 159 184 160
f 159 133 157
f 157 184 159
f 131 140 158
f 140 170 158
f 158 132 131
f 158 156 132
f 158 170 156
f 153 121 152
f 153 122 121
f 152 125 153
f 125 122 153
f 210 51 37
f 118 117 210
f 97 134 210
f 210 106 97
f 6 14 210
f 79 107 210
f 210 195 194
f 134 161 210
f 210 115 114
f 210 55 79
f 210 80 56
f 180 146 210
f 107 106 210
f 110 108 210
f 210 145 118
f 114 113 210
f 186 188 210
f 210 187 186
f 210 17 6
f 194 201 210
f 210 14 13
f 37 55 210
f 13 31 210
f 210 117 110
f 112 145 210
f 210 113 112
f 210 197 195
f 210 120 119
f 119 115 210
f 210 198 180
f 207 206 210
f 210 31 51
f 210 205 204
f 56 39 210
f 210 188 197
f 210 146 120
f 210 185 187
f 204 203 210
f 210 208 207
f 108 80 210
f 39 17 210
f 161 185 210
f 210 203 198
f 206 205 210
f 209 208 210
f 65 45 21
f 21 142 103
f 103 72 21
f 21 42 60
f 8 20 21
f 72 71 21
f 21 69 65
f 21 9 8
f 21 71 70
f 70 69 21
f 21 45 24
f 128 142 21
f 60 90 21
f 20 42 21
f 21 90 128
