v 0.122110 0.042400 -0.020767
v 0.121898 0.032579 -0.020767
v 0.121918 0.032579 -0.022240
v 0.122069 0.042400 -0.022235
v 0.121547 0.043764 -0.022235
v 0.121586 0.043752 -0.020767
v 0.122083 0.042400 -0.019289
v 0.121933 0.042400 -0.017810
v 0.121871 0.040922 -0.017810
v 0.121768 0.032579 -0.019817
v 0.122016 0.042400 -0.023714
v 0.121671 0.032579 -0.023719
v 0.121533 0.039447 -0.028144
v 0.121756 0.040922 -0.026665
v 0.121930 0.042400 -0.025192
v 0.121500 0.043758 -0.023714
v 0.120202 0.044289 -0.026665
v 0.121539 0.043715 -0.019289
v 0.120202 0.044282 -0.020767
v 0.120202 0.044219 -0.016327
v 0.121436 0.043705 -0.017810
v 0.121300 0.043651 -0.016327
v 0.121091 0.043409 -0.014854
v 0.121648 0.042400 -0.016327
v 0.121624 0.040922 -0.016327
v 0.121556 0.039447 -0.016327
v 0.121491 0.032579 -0.017939
v 0.121692 0.032579 -0.019289
v 0.121450 0.043739 -0.025192
v 0.121547 0.032579 -0.024242
v 0.121212 0.039447 -0.029612
v 0.121568 0.040922 -0.028144
v 0.121754 0.042400 -0.026665
v 0.121332 0.043679 -0.026665
v 0.120202 0.044159 -0.028144
v 0.118726 0.044444 -0.029627
v 0.102463 0.047270 -0.047378
v 0.102463 0.047307 -0.045899
v 0.102463 0.047325 -0.044421
v 0.118726 0.044321 -0.013370
v 0.118726 0.044146 -0.011892
v 0.120202 0.043998 -0.014854
v 0.120258 0.043654 -0.013473
v 0.119781 0.043553 -0.011892
v 0.120967 0.043202 -0.014043
v 0.121259 0.042400 -0.014854
v 0.120870 0.040922 -0.012903
v 0.121050 0.040922 -0.013642
v 0.120870 0.039447 -0.013006
v 0.120841 0.035655 -0.013437
v 0.114165 0.032579 -0.017939
v 0.120617 0.035655 -0.012518
v 0.120461 0.035655 -0.011892
v 0.119837 0.035655 -0.010716
v 0.119477 0.035655 -0.010300
v 0.119189 0.035655 -0.009972
v 0.118450 0.035655 -0.009171
v 0.118061 0.035655 -0.008761
v 0.117328 0.035655 -0.007991
v 0.116615 0.035655 -0.007272
v 0.115475 0.035655 -0.006256
v 0.115131 0.035655 -0.005968
v 0.112272 0.035655 -0.003643
v 0.105670 0.035154 0.000166
v 0.105578 0.035154 0.000217
v 0.104015 0.035154 0.001075
v 0.102595 0.035154 0.001840
v 0.101856 0.035154 0.002219
v 0.100985 0.035154 0.002260
v 0.121229 0.032579 -0.025587
v 0.120938 0.039447 -0.030351
v 0.121188 0.040922 -0.029478
v 0.121047 0.032579 -0.026357
v 0.120867 0.032579 -0.027091
v 0.120729 0.032579 -0.027492
v 0.120490 0.032579 -0.028154
v 0.121433 0.042400 -0.028144
v 0.121006 0.043286 -0.029026
v 0.121141 0.043497 -0.028144
v 0.120252 0.043726 -0.029560
v 0.118726 0.044236 -0.031095
v 0.104763 0.046261 -0.048261
v 0.103941 0.046512 -0.048543
v 0.102463 0.046675 -0.048800
v 0.099503 0.046880 -0.048856
v 0.096550 0.047085 -0.048856
v 0.092115 0.047242 -0.047378
v 0.092030 0.047244 -0.047296
v 0.100985 0.047325 -0.041454
v 0.100985 0.047317 -0.039986
v 0.117245 0.044318 -0.010413
v 0.117245 0.044123 -0.008935
v 0.118273 0.043513 -0.008935
v 0.119545 0.043303 -0.010993
v 0.120770 0.042400 -0.013160
v 0.120213 0.042400 -0.011892
v 0.120431 0.040922 -0.011892
v 0.120505 0.039447 -0.011892
v 0.120473 0.036491 -0.011892
v 0.099989 0.035154 0.002194
v 0.099250 0.035154 0.002091
v 0.095216 0.035154 0.001521
v 0.095072 0.035154 0.001496
v 0.093593 0.035154 0.001203
v 0.092507 0.035154 0.000880
v 0.092392 0.035154 0.000844
v 0.092030 0.035154 0.000715
v 0.111459 0.032579 -0.029386
v 0.119845 0.036491 -0.010716
v 0.118055 0.042400 -0.008103
v 0.117416 0.042400 -0.007369
v 0.116677 0.042400 -0.006533
v 0.115237 0.042400 -0.005013
v 0.114504 0.042400 -0.004284
v 0.113765 0.042400 -0.003576
v 0.112130 0.041502 -0.002231
v 0.110484 0.040922 -0.000907
v 0.108644 0.039447 0.000269
v 0.107905 0.039447 0.000844
v 0.107698 0.038672 0.000721
v 0.101853 0.036489 0.002219
v 0.106903 0.039447 0.001157
v 0.106903 0.040922 0.001249
v 0.105673 0.040922 0.001521
v 0.105419 0.040923 0.001573
v 0.101841 0.037969 0.002214
v 0.100985 0.036489 0.002250
v 0.096550 0.043224 0.002199
v 0.096550 0.042919 0.002199
v 0.095646 0.042996 0.002184
v 0.120873 0.040922 -0.030223
v 0.120278 0.032579 -0.028683
v 0.118697 0.032579 -0.032589
v 0.118523 0.032579 -0.033015
v 0.118084 0.032579 -0.034062
v 0.117861 0.032579 -0.034534
v 0.119489 0.040131 -0.033374
v 0.119489 0.040340 -0.033374
v 0.121091 0.042400 -0.029222
v 0.120755 0.042400 -0.029966
v 0.119315 0.042400 -0.033010
v 0.119557 0.043327 -0.032029
v 0.119778 0.043578 -0.031095
v 0.118785 0.043751 -0.032543
v 0.117245 0.044182 -0.034062
v 0.104807 0.045359 -0.048332
v 0.103941 0.045359 -0.048969
v 0.117242 0.043653 -0.035464
v 0.116745 0.043436 -0.036572
v 0.116335 0.042801 -0.037558
v 0.116589 0.041814 -0.037825
v 0.102463 0.045359 -0.049472
v 0.100711 0.046209 -0.049652
v 0.099503 0.046329 -0.049724
v 0.098028 0.046440 -0.049816
v 0.096550 0.046519 -0.049903
v 0.095072 0.047048 -0.048856
v 0.092030 0.047238 -0.047378
v 0.092030 0.047072 -0.037029
v 0.092115 0.047074 -0.037029
v 0.092030 0.047068 -0.036947
v 0.093593 0.044298 -0.000060
v 0.103941 0.044193 -0.000060
v 0.109857 0.044327 -0.003016
v 0.111335 0.044353 -0.004500
v 0.114289 0.044268 -0.005978
v 0.115767 0.044338 -0.008935
v 0.115767 0.044236 -0.007457
v 0.115746 0.043713 -0.006019
v 0.117192 0.043611 -0.007554
v 0.118049 0.043266 -0.008109
v 0.119262 0.042400 -0.010064
v 0.119763 0.040922 -0.010650
v 0.119837 0.039447 -0.010680
v 0.093593 0.042403 0.001886
v 0.093593 0.040923 0.001757
v 0.092115 0.042403 0.001444
v 0.092030 0.042403 0.001408
v 0.092030 0.035154 -0.003109
v 0.111459 0.032579 -0.040222
v 0.119315 0.040922 -0.009910
v 0.116662 0.043389 -0.006538
v 0.115237 0.043441 -0.005008
v 0.113776 0.043426 -0.003571
v 0.112946 0.042400 -0.002832
v 0.112207 0.042400 -0.002175
v 0.109745 0.040922 -0.000327
v 0.108661 0.040922 0.000418
v 0.107919 0.040922 0.000839
v 0.105419 0.042403 0.001403
v 0.107722 0.041802 0.000721
v 0.106918 0.042338 0.000916
v 0.103941 0.042403 0.001722
v 0.101797 0.038812 0.002194
v 0.100366 0.043169 0.002168
v 0.100985 0.037969 0.002235
v 0.098028 0.043230 0.002194
v 0.095646 0.043182 0.002184
v 0.098028 0.043793 0.001419
v 0.096550 0.043788 0.001419
v 0.117660 0.032579 -0.034894
v 0.117940 0.040922 -0.036198
v 0.119410 0.041326 -0.033205
v 0.118332 0.040922 -0.035458
v 0.119118 0.040870 -0.033939
v 0.118788 0.042400 -0.034062
v 0.118199 0.042400 -0.035222
v 0.118064 0.043275 -0.034930
v 0.118305 0.043540 -0.034062
v 0.104810 0.036491 -0.048338
v 0.103941 0.042401 -0.048984
v 0.117772 0.042400 -0.035956
v 0.116977 0.042345 -0.037039
v 0.116589 0.041348 -0.037825
v 0.102463 0.036433 -0.049472
v 0.098028 0.045359 -0.050011
v 0.096550 0.045359 -0.050180
v 0.095072 0.046444 -0.049837
v 0.092115 0.046695 -0.048640
v 0.092030 0.046720 -0.048569
v 0.092030 0.044213 -0.000055
v 0.092115 0.044236 -0.000060
v 0.103941 0.043700 0.001157
v 0.105419 0.044117 -0.000060
v 0.108379 0.044187 -0.001538
v 0.111335 0.044180 -0.003016
v 0.112813 0.044260 -0.004500
v 0.114274 0.043732 -0.004510
v 0.092030 0.043615 0.001039
v 0.092030 0.036433 -0.048979
v 0.095428 0.036433 -0.049672
v 0.095466 0.036433 -0.049677
v 0.096550 0.036433 -0.049760
v 0.096606 0.036433 -0.049760
v 0.098087 0.036433 -0.049698
v 0.100826 0.036433 -0.049575
v 0.103944 0.036433 -0.048969
v 0.113308 0.032579 -0.039093
v 0.112740 0.043661 -0.003058
v 0.112195 0.043319 -0.002185
v 0.111335 0.042400 -0.001523
v 0.110440 0.042400 -0.000891
v 0.109701 0.042400 -0.000465
v 0.108282 0.042338 0.000305
v 0.105670 0.042637 0.001254
v 0.105419 0.043573 0.000972
v 0.107416 0.042790 0.000577
v 0.106432 0.043351 0.000792
v 0.099503 0.043199 0.002184
v 0.093593 0.043706 0.001249
v 0.092115 0.043631 0.001054
v 0.099503 0.043728 0.001419
v 0.117278 0.032579 -0.035541
v 0.116668 0.032579 -0.036521
v 0.104807 0.036433 -0.048332
v 0.103941 0.036491 -0.048984
v 0.115991 0.032579 -0.037260
v 0.096550 0.039447 -0.049903
v 0.095072 0.043879 -0.050016
v 0.095072 0.045359 -0.050068
v 0.094041 0.046257 -0.049688
v 0.092030 0.046687 -0.048630
v 0.108379 0.043651 -0.000378
v 0.109898 0.043773 -0.001451
v 0.111335 0.043572 -0.001913
v 0.092030 0.036491 -0.048984
v 0.095422 0.036491 -0.049677
v 0.103985 0.036433 -0.048943
v 0.115249 0.032579 -0.037902
v 0.109430 0.043420 -0.000635
v 0.095072 0.042401 -0.049939
v 0.092030 0.037969 -0.049061
v 0.093337 0.040925 -0.049493
v 0.092030 0.039447 -0.049133
v 0.093178 0.042401 -0.049518
v 0.093876 0.045359 -0.049739
v 0.093858 0.043879 -0.049729
v 0.092030 0.045359 -0.049154
v 0.092030 0.045422 -0.049138
v 0.092030 0.040925 -0.049185
v 0.093119 0.043879 -0.049518
v 0.092030 0.042401 -0.049195
v 0.092030 0.043879 -0.049179
v 0.092115 0.042401 -0.049221
f 54 27 53
f 159 90 88
f 222 161 221
f 56 27 55
f 27 54 55
f 53 27 52
f 27 50 52
f 26 50 27
f 160 159 161
f 160 161 90
f 90 159 160
f 107 177 178
f 163 164 90
f 7 2 1
f 7 8 2
f 37 36 81
f 63 64 27
f 27 62 63
f 9 26 27
f 27 28 9
f 9 28 10
f 9 10 2
f 2 8 9
f 193 195 194
f 69 27 68
f 164 163 225
f 222 221 251
f 196 197 127
f 15 11 3
f 11 4 3
f 1 2 3
f 3 4 1
f 107 108 51
f 104 105 51
f 51 103 104
f 102 103 51
f 51 101 102
f 100 101 51
f 51 27 69
f 69 100 51
f 32 13 31
f 81 36 35
f 90 164 165
f 164 227 165
f 210 146 151
f 259 233 267
f 258 233 259
f 236 215 180
f 180 179 230
f 59 60 27
f 61 62 27
f 27 60 61
f 110 55 54
f 25 9 8
f 26 9 25
f 50 26 25
f 106 177 107
f 106 105 177
f 107 51 106
f 106 51 105
f 102 101 175
f 175 101 100
f 69 68 121
f 226 227 164
f 164 225 226
f 226 228 227
f 222 251 250
f 250 251 198
f 229 251 221
f 229 178 177
f 177 175 229
f 198 251 229
f 229 175 198
f 13 3 12
f 31 13 12
f 31 74 75
f 75 76 31
f 31 76 71
f 71 136 137
f 253 254 202
f 13 32 14
f 15 3 14
f 14 3 13
f 33 32 77
f 15 14 33
f 33 14 32
f 77 32 72
f 72 32 31
f 31 71 72
f 72 71 131
f 88 90 89
f 89 39 88
f 90 39 89
f 88 39 38
f 214 257 210
f 210 151 214
f 254 257 214
f 202 254 214
f 214 151 202
f 82 151 146
f 81 145 82
f 82 37 81
f 83 37 82
f 275 274 280
f 259 274 275
f 259 275 260
f 261 276 278
f 261 260 276
f 157 86 156
f 84 37 83
f 259 267 271
f 230 267 231
f 231 180 230
f 236 180 235
f 237 180 215
f 215 256 237
f 211 146 210
f 210 256 211
f 57 27 56
f 64 63 120
f 63 119 120
f 120 119 68
f 118 63 62
f 118 119 63
f 56 55 111
f 55 110 111
f 111 110 171
f 93 171 94
f 171 93 170
f 170 93 92
f 94 171 172
f 171 173 172
f 176 103 102
f 102 175 176
f 104 103 176
f 176 105 104
f 177 105 176
f 176 175 177
f 130 175 100
f 198 175 130
f 130 100 69
f 69 129 130
f 191 244 247
f 247 192 191
f 194 195 126
f 195 196 126
f 196 127 126
f 126 127 69
f 69 121 126
f 192 245 190
f 191 192 123
f 192 190 123
f 228 226 239
f 163 199 223
f 249 199 197
f 249 196 195
f 249 197 196
f 195 223 249
f 162 199 163
f 162 163 90
f 162 161 222
f 90 161 162
f 200 250 198
f 199 162 200
f 222 250 200
f 200 162 222
f 73 74 31
f 133 71 132
f 132 71 76
f 136 71 135
f 138 71 137
f 131 71 138
f 138 137 202
f 202 137 201
f 201 253 202
f 137 136 201
f 78 33 77
f 78 79 33
f 15 33 34
f 33 79 34
f 34 79 35
f 147 82 146
f 147 211 152
f 146 211 147
f 147 152 83
f 83 82 147
f 213 151 150
f 151 82 150
f 149 213 150
f 150 82 149
f 273 272 274
f 273 274 259
f 259 272 273
f 277 275 280
f 276 260 277
f 277 260 275
f 278 276 283
f 276 282 283
f 217 215 236
f 217 258 259
f 259 260 217
f 236 235 217
f 217 235 258
f 279 261 278
f 262 261 279
f 218 261 262
f 218 157 156
f 260 261 218
f 156 217 218
f 218 217 260
f 85 86 37
f 37 84 85
f 156 86 85
f 85 84 156
f 83 152 153
f 153 84 83
f 266 267 230
f 266 271 267
f 232 267 233
f 232 231 267
f 233 180 232
f 180 231 232
f 233 258 234
f 258 235 234
f 234 180 233
f 234 235 180
f 58 59 27
f 27 57 58
f 67 120 68
f 67 68 27
f 62 61 117
f 117 118 62
f 112 57 56
f 56 111 112
f 112 58 57
f 44 93 94
f 92 93 44
f 1 4 5
f 227 228 166
f 228 168 166
f 90 165 166
f 166 165 227
f 90 166 167
f 40 39 90
f 40 20 39
f 169 168 228
f 92 168 169
f 169 170 92
f 109 110 54
f 99 54 53
f 173 174 98
f 174 109 98
f 98 109 54
f 54 99 98
f 97 172 173
f 173 98 97
f 270 247 244
f 68 119 122
f 122 123 68
f 119 123 122
f 125 121 68
f 125 126 121
f 125 193 194
f 194 126 125
f 119 188 189
f 189 123 119
f 191 123 189
f 189 244 191
f 252 223 199
f 199 249 252
f 252 249 223
f 128 200 198
f 197 199 128
f 199 200 128
f 128 127 197
f 69 127 128
f 128 129 69
f 70 73 31
f 134 71 133
f 134 135 71
f 204 138 202
f 131 138 140
f 140 138 203
f 79 78 143
f 207 204 202
f 29 11 15
f 15 34 29
f 280 282 284
f 216 152 215
f 215 217 216
f 216 153 152
f 217 153 216
f 220 158 157
f 86 157 87
f 157 158 87
f 37 86 87
f 87 158 88
f 88 38 87
f 87 38 37
f 156 84 155
f 155 217 156
f 180 237 238
f 237 269 238
f 257 269 255
f 210 257 255
f 255 256 210
f 66 67 27
f 120 67 66
f 116 117 61
f 116 61 60
f 60 115 116
f 240 242 241
f 119 118 187
f 118 117 187
f 187 188 119
f 187 242 188
f 187 241 242
f 59 58 113
f 58 112 113
f 60 59 113
f 182 111 171
f 182 112 111
f 171 170 182
f 170 169 182
f 24 25 8
f 48 25 24
f 39 20 19
f 16 4 11
f 16 5 4
f 11 29 16
f 91 168 92
f 91 166 168
f 91 167 166
f 90 167 91
f 91 40 90
f 20 40 41
f 92 44 41
f 41 91 92
f 40 91 41
f 110 109 181
f 181 109 174
f 171 110 181
f 181 173 171
f 181 174 173
f 53 52 49
f 49 52 50
f 50 25 49
f 49 25 48
f 94 172 96
f 172 97 96
f 96 97 95
f 95 97 47
f 47 97 98
f 48 24 47
f 47 24 46
f 47 49 48
f 47 98 99
f 47 99 53
f 53 49 47
f 247 270 248
f 192 247 248
f 248 245 192
f 68 123 124
f 124 125 68
f 124 123 190
f 124 190 193
f 193 125 124
f 188 242 243
f 243 189 188
f 244 189 243
f 243 270 244
f 243 242 240
f 240 270 243
f 31 12 30
f 30 70 31
f 203 138 205
f 138 204 205
f 204 207 205
f 139 140 78
f 77 72 139
f 139 78 77
f 139 72 131
f 131 140 139
f 149 82 148
f 148 82 145
f 81 35 80
f 80 143 81
f 35 79 80
f 79 143 80
f 209 148 145
f 203 205 206
f 206 205 207
f 202 151 212
f 212 207 202
f 212 151 213
f 212 213 149
f 281 277 280
f 280 284 281
f 276 277 281
f 281 282 276
f 281 284 282
f 262 220 219
f 219 220 157
f 219 218 262
f 157 218 219
f 84 153 154
f 154 155 84
f 154 153 217
f 217 155 154
f 268 269 237
f 268 255 269
f 268 237 256
f 256 255 268
f 27 64 65
f 65 66 27
f 64 120 65
f 120 66 65
f 240 241 186
f 117 116 186
f 186 187 117
f 241 187 186
f 114 115 60
f 60 113 114
f 183 113 112
f 112 182 183
f 183 114 113
f 183 169 228
f 183 182 169
f 17 16 29
f 17 34 35
f 17 29 34
f 17 35 36
f 5 16 17
f 36 37 17
f 37 38 17
f 17 38 39
f 39 19 17
f 245 248 246
f 195 193 246
f 246 223 195
f 193 190 246
f 246 190 245
f 265 270 240
f 240 239 265
f 265 239 226
f 226 264 265
f 144 145 81
f 144 209 145
f 81 143 144
f 143 209 144
f 78 140 141
f 141 140 203
f 203 206 141
f 208 212 149
f 149 148 208
f 148 209 208
f 207 212 208
f 185 116 115
f 185 186 116
f 115 114 184
f 114 183 184
f 184 185 115
f 184 239 240
f 240 186 184
f 186 185 184
f 228 239 184
f 184 183 228
f 20 41 42
f 42 22 20
f 6 19 20
f 5 17 6
f 6 17 19
f 6 7 1
f 1 5 6
f 45 44 94
f 94 96 45
f 45 96 95
f 45 47 46
f 95 47 45
f 46 24 45
f 223 246 224
f 224 225 163
f 163 223 224
f 270 265 263
f 263 265 264
f 263 248 270
f 263 246 248
f 263 226 225
f 263 264 226
f 225 224 263
f 263 224 246
f 142 141 206
f 142 206 207
f 207 208 142
f 78 141 142
f 142 143 78
f 142 209 143
f 142 208 209
f 22 42 43
f 43 41 44
f 43 42 41
f 20 22 21
f 21 6 20
f 8 7 21
f 21 22 8
f 22 43 23
f 23 45 24
f 44 45 23
f 23 43 44
f 23 24 8
f 8 22 23
f 7 6 18
f 18 21 7
f 6 21 18
f 107 179 180
f 180 108 107
f 215 152 211
f 211 256 215
f 266 272 259
f 259 271 266
f 128 130 129
f 198 130 128
f 220 159 88
f 220 229 221
f 220 179 107
f 161 159 220
f 220 221 161
f 107 178 220
f 220 279 278
f 88 158 220
f 230 179 220
f 280 274 220
f 278 283 220
f 178 229 220
f 274 272 220
f 220 282 280
f 220 283 282
f 262 279 220
f 220 266 230
f 272 266 220
f 2 10 30
f 30 28 27
f 254 253 30
f 30 257 254
f 30 3 2
f 10 28 30
f 30 75 74
f 27 51 30
f 30 201 136
f 30 51 108
f 74 73 30
f 133 132 30
f 108 180 30
f 30 12 3
f 76 75 30
f 180 238 30
f 30 269 257
f 30 132 76
f 136 135 30
f 253 201 30
f 30 134 133
f 73 70 30
f 135 134 30
f 30 238 269
