v 0.120912 0.010257 -0.016299
v 0.120400 0.010257 -0.013366
v 0.129079 0.006904 -0.010409
v 0.129117 0.006730 -0.011838
v 0.128647 0.006574 -0.012929
v 0.125728 0.006537 -0.015965
v 0.124968 0.006823 -0.016299
v 0.116510 0.010257 -0.016299
v 0.119928 0.010257 -0.011888
v 0.129079 0.006757 -0.009081
v 0.130008 0.006336 -0.009081
v 0.129981 0.006346 -0.010409
v 0.129903 0.006275 -0.011312
v 0.130143 0.005431 -0.011571
v 0.129617 0.005431 -0.012310
v 0.128879 0.005431 -0.013198
v 0.128170 0.005431 -0.013937
v 0.125734 0.005431 -0.016299
v 0.108866 0.008119 -0.016299
v 0.112070 0.010257 -0.009081
v 0.119520 0.010257 -0.011084
v 0.117962 0.010257 -0.009081
v 0.130876 0.005231 -0.009081
v 0.131309 0.004709 -0.009577
v 0.131309 0.004709 -0.009712
v 0.131495 -0.000920 -0.011404
v 0.128303 0.004485 -0.014072
v 0.128381 0.003499 -0.014149
v 0.129453 -0.001960 -0.013808
v 0.125808 0.004235 -0.016299
v 0.108866 -0.001089 -0.016299
v 0.108866 0.008119 -0.016295
v 0.108866 0.008109 -0.015297
v 0.108866 0.008050 -0.013413
v 0.108866 0.007818 -0.012367
v 0.108866 0.006280 -0.009081
v 0.130956 -0.000634 -0.009081
v 0.131380 -0.000862 -0.009536
v 0.131508 -0.000727 -0.010409
v 0.131495 -0.001475 -0.011404
v 0.130161 -0.001960 -0.013068
v 0.130087 -0.002930 -0.013030
v 0.128698 -0.002877 -0.014224
v 0.125719 0.002474 -0.016299
v 0.125821 0.003952 -0.016299
v 0.111383 -0.003116 -0.009081
v 0.108866 -0.001074 -0.015835
v 0.116618 -0.004924 -0.016299
v 0.116423 -0.005682 -0.015637
v 0.115360 -0.005411 -0.014845
v 0.115202 -0.005618 -0.013366
v 0.108866 -0.000737 -0.009081
v 0.131380 -0.001294 -0.009536
v 0.128015 -0.006157 -0.009081
v 0.131508 -0.001466 -0.010409
v 0.128554 -0.006041 -0.010409
v 0.128478 -0.005905 -0.011465
v 0.127242 -0.006041 -0.012911
v 0.122937 -0.003390 -0.016299
v 0.123700 -0.002271 -0.016299
v 0.124165 -0.001551 -0.016299
v 0.124564 -0.000521 -0.016299
v 0.112769 -0.003764 -0.009081
v 0.108866 -0.000850 -0.009793
v 0.117146 -0.005144 -0.016299
v 0.116098 -0.005709 -0.014845
v 0.118700 -0.005237 -0.016299
v 0.118799 -0.005239 -0.016299
v 0.117252 -0.005684 -0.015651
v 0.124644 -0.006983 -0.011888
v 0.123166 -0.006875 -0.010409
v 0.116215 -0.005701 -0.012220
v 0.116698 -0.005646 -0.011234
v 0.114382 -0.004430 -0.009081
v 0.113094 -0.003902 -0.009081
v 0.128487 -0.005922 -0.009355
v 0.127672 -0.006372 -0.009081
v 0.127601 -0.006709 -0.010409
v 0.127680 -0.006303 -0.011929
v 0.126122 -0.006935 -0.011888
v 0.126122 -0.006271 -0.013143
v 0.121818 -0.004115 -0.016299
v 0.118806 -0.005303 -0.016198
v 0.121778 -0.004131 -0.016299
v 0.118363 -0.005668 -0.015621
v 0.126122 -0.006986 -0.010409
v 0.124644 -0.007025 -0.010409
v 0.124491 -0.006974 -0.009081
v 0.126122 -0.006959 -0.009081
v 0.125972 -0.006963 -0.009081
v 0.124644 -0.006990 -0.009081
f 36 20 35
f 43 58 59
f 43 44 29
f 42 43 29
f 58 43 42
f 34 35 20
f 21 22 10
f 10 9 21
f 2 9 10
f 19 20 8
f 58 42 57
f 42 40 57
f 73 74 51
f 33 34 20
f 37 53 38
f 39 24 38
f 1 2 3
f 3 2 10
f 10 11 3
f 25 11 24
f 25 24 39
f 24 11 23
f 37 38 23
f 23 38 24
f 76 53 54
f 54 53 37
f 54 78 76
f 88 74 73
f 46 52 64
f 64 47 46
f 46 47 31
f 31 51 46
f 78 89 86
f 86 80 78
f 86 89 87
f 87 70 86
f 86 70 80
f 60 43 59
f 60 61 43
f 44 43 62
f 43 61 62
f 55 53 76
f 41 42 29
f 41 40 42
f 15 5 14
f 58 57 79
f 79 57 78
f 79 80 58
f 78 80 79
f 76 78 56
f 78 57 56
f 56 57 40
f 56 55 76
f 40 55 56
f 31 49 50
f 50 51 31
f 59 58 82
f 48 49 31
f 80 70 85
f 32 20 19
f 32 33 20
f 6 18 7
f 7 1 6
f 1 5 6
f 29 44 45
f 29 18 28
f 28 18 27
f 28 41 29
f 27 41 28
f 13 25 14
f 14 5 13
f 26 25 39
f 14 25 26
f 26 15 14
f 26 41 27
f 40 41 26
f 77 89 78
f 78 54 77
f 91 88 87
f 87 88 71
f 71 70 87
f 73 51 72
f 72 88 73
f 51 71 72
f 72 71 88
f 63 46 51
f 81 82 58
f 58 80 81
f 80 85 81
f 49 48 65
f 69 70 49
f 69 85 70
f 49 68 69
f 17 6 5
f 27 18 17
f 18 6 17
f 30 18 29
f 29 45 30
f 12 3 11
f 11 25 12
f 25 13 12
f 1 3 4
f 4 5 1
f 4 13 5
f 3 12 4
f 4 12 13
f 16 26 27
f 15 26 16
f 27 17 16
f 5 15 16
f 16 17 5
f 87 89 90
f 90 91 87
f 49 70 66
f 70 71 66
f 66 71 51
f 66 50 49
f 51 50 66
f 75 51 74
f 75 63 51
f 84 81 68
f 82 81 84
f 68 81 83
f 83 81 85
f 83 69 68
f 85 69 83
f 67 68 49
f 49 65 67
f 20 22 8
f 9 2 8
f 8 21 9
f 22 21 8
f 8 2 1
f 55 38 53
f 39 38 55
f 32 47 64
f 19 31 32
f 36 35 32
f 32 52 36
f 35 34 32
f 64 52 32
f 31 47 32
f 34 33 32
f 39 55 26
f 26 55 40
f 75 20 36
f 37 23 75
f 10 22 75
f 75 22 20
f 75 11 10
f 36 52 75
f 75 54 37
f 74 88 75
f 75 23 11
f 75 90 89
f 89 77 75
f 52 46 75
f 75 77 54
f 88 91 75
f 46 63 75
f 91 90 75
f 67 31 19
f 19 8 67
f 67 1 7
f 44 62 67
f 7 18 67
f 67 8 1
f 67 60 59
f 59 82 67
f 67 48 31
f 61 60 67
f 67 62 61
f 18 30 67
f 67 45 44
f 67 84 68
f 67 65 48
f 67 30 45
f 82 84 67
