v 0.020620 0.005806 0.009000
v 0.020620 0.005806 0.004600
v 0.020357 0.005806 0.009129
v 0.008821 -0.000796 0.009000
v 0.020270 0.005806 0.004429
v 0.008821 -0.000796 0.004600
v 0.020005 0.005806 0.009300
v 0.008206 -0.000796 0.009300
v 0.020005 0.005806 0.004300
v 0.008206 -0.000796 0.004300
v 0.000753 0.005806 0.009300
v 0.002682 -0.000796 0.009300
v 0.000753 0.005806 0.004300
v 0.002682 -0.000796 0.004300
v 0.000139 0.005806 0.009000
v -0.000027 0.005735 0.009000
v -0.000027 0.005417 0.009300
v -0.000027 0.002791 0.009300
v 0.002356 -0.000796 0.009000
v -0.000027 0.005417 0.004300
v -0.000027 0.005735 0.004600
v 0.000139 0.005806 0.004600
v 0.002659 -0.000796 0.004320
v -0.000027 0.002791 0.004300
v -0.000027 0.002493 0.009000
v 0.002356 -0.000796 0.004600
v -0.000027 0.002518 0.004574
v -0.000027 0.002493 0.004600
f 3 4 1
f 8 3 7
f 4 3 8
f 20 21 13
f 13 21 22
f 5 10 9
f 6 5 2
f 10 5 6
f 16 11 15
f 19 12 18
f 18 25 19
f 23 24 14
f 26 24 23
f 17 11 16
f 26 28 27
f 27 24 26
f 6 2 1
f 1 4 6
f 15 3 1
f 1 2 15
f 9 13 15
f 7 3 15
f 15 11 7
f 15 5 9
f 15 13 22
f 2 5 15
f 15 21 16
f 22 21 15
f 24 13 9
f 9 10 24
f 24 10 14
f 20 13 24
f 14 10 23
f 4 8 23
f 23 6 4
f 23 12 19
f 10 6 23
f 19 26 23
f 8 12 23
f 28 26 19
f 19 25 28
f 7 11 17
f 17 12 8
f 17 8 7
f 17 18 12
f 16 21 27
f 20 24 27
f 27 21 20
f 27 28 25
f 25 18 27
f 18 17 27
f 27 17 16
