v -0.008860 0.004382 -0.003655
v -0.008884 0.004382 -0.003801
v -0.009386 0.006001 -0.003655
v -0.009409 0.006001 -0.001882
v -0.008895 0.004382 -0.001882
v -0.012777 -0.000351 -0.008976
v -0.012682 -0.000121 -0.010039
v -0.012504 0.000144 -0.010039
v -0.012406 0.000334 -0.010235
v -0.010199 0.006002 -0.008220
v -0.010126 0.006002 -0.007910
v -0.013095 0.000662 -0.014179
v -0.012926 0.000888 -0.013941
v -0.012799 0.001167 -0.013941
v -0.012761 0.001369 -0.014148
v -0.010125 0.006002 -0.007701
v -0.010124 0.006002 -0.004716
v -0.009433 0.006001 -0.001674
v -0.009452 0.006001 -0.001527
v -0.008951 0.004382 -0.001534
v -0.008969 0.004382 -0.001479
v -0.013411 -0.000773 -0.008976
v -0.013438 -0.000739 -0.010039
v -0.013011 -0.000437 -0.010039
v -0.012834 -0.000299 -0.010039
v -0.013411 0.000275 -0.014231
v -0.010304 0.006002 -0.008412
v -0.012750 0.001597 -0.014172
v -0.012751 0.001757 -0.014168
v -0.012754 0.001952 -0.014164
v -0.012765 0.002150 -0.014137
v -0.013291 0.000513 -0.014323
v -0.013171 0.000773 -0.014417
v -0.013027 0.000890 -0.014298
v -0.012867 0.001247 -0.014277
v -0.012848 0.001597 -0.014351
v -0.015514 0.006002 -0.004716
v -0.010467 0.006001 -0.000805
v -0.010319 0.006001 -0.000824
v -0.010113 0.006001 -0.000861
v -0.010014 0.006001 -0.000900
v -0.009891 0.006001 -0.000954
v -0.009816 0.006001 -0.001024
v -0.009638 0.006001 -0.001199
v -0.009538 0.006001 -0.001302
v -0.009493 0.006001 -0.001402
v -0.009122 0.004382 -0.001262
v -0.013659 -0.000903 -0.008976
v -0.013659 -0.000867 -0.010039
v -0.013453 -0.000729 -0.010243
v -0.013569 0.000058 -0.013941
v -0.013776 -0.000031 -0.014181
v -0.013633 0.000158 -0.014323
v -0.013490 0.000364 -0.014466
v -0.010487 0.006002 -0.008546
v -0.012895 0.002283 -0.014272
v -0.013115 0.002517 -0.014485
v -0.013164 0.002753 -0.014427
v -0.013399 0.002928 -0.014531
v -0.013513 0.003164 -0.014443
v -0.013917 0.003505 -0.014424
v -0.012849 0.001757 -0.014347
v -0.012852 0.001952 -0.014342
v -0.013095 0.001010 -0.014503
v -0.013055 0.001242 -0.014538
v -0.012929 0.001757 -0.014443
v -0.013025 0.001597 -0.014560
v -0.016729 0.006002 -0.006612
v -0.015403 0.006001 -0.001181
v -0.015293 0.006001 -0.001026
v -0.015263 0.006001 -0.000986
v -0.015198 0.006001 -0.000945
v -0.015081 0.006001 -0.000895
v -0.014929 0.006001 -0.000846
v -0.014722 0.006001 -0.000809
v -0.014574 0.006001 -0.000805
v -0.010113 0.004435 -0.000805
v -0.009734 0.004382 -0.000877
v -0.009561 0.004382 -0.000937
v -0.009485 0.004382 -0.000983
v -0.009361 0.004382 -0.001071
v -0.014163 -0.001100 -0.008976
v -0.014014 -0.001000 -0.010039
v -0.014518 -0.000360 -0.014136
v -0.014014 -0.000189 -0.013941
v -0.014024 -0.000089 -0.014298
v -0.013911 0.000041 -0.014417
v -0.013406 0.000601 -0.014529
v -0.013726 0.000277 -0.014533
v -0.013628 0.000503 -0.014586
v -0.010822 0.006002 -0.008666
v -0.014154 0.003563 -0.014488
v -0.014369 0.003734 -0.014296
v -0.014711 0.003824 -0.014285
v -0.014823 0.003920 -0.014160
v -0.013074 0.002307 -0.014521
v -0.013291 0.002645 -0.014560
v -0.013660 0.002660 -0.014684
v -0.013643 0.003034 -0.014583
v -0.013750 0.003269 -0.014526
v -0.013030 0.001952 -0.014556
v -0.013296 0.000890 -0.014569
v -0.013306 0.001242 -0.014648
v -0.013027 0.001757 -0.014559
v -0.013306 0.001597 -0.014671
v -0.013305 0.001952 -0.014667
v -0.016783 0.006002 -0.006733
v -0.015538 0.005499 -0.001088
v -0.016819 0.006002 -0.006843
v -0.015514 0.006001 -0.001527
v -0.015621 0.005703 -0.001328
v -0.015659 0.005499 -0.001264
v -0.015585 0.005260 -0.001021
v -0.015632 0.005024 -0.000975
v -0.015292 0.005854 -0.000963
v -0.015362 0.005499 -0.000918
v -0.015077 0.005854 -0.000869
v -0.015077 0.005499 -0.000824
v -0.015077 0.005144 -0.000806
v -0.014722 0.005854 -0.000805
v -0.010113 0.004382 -0.000805
v -0.014724 -0.001220 -0.008976
v -0.014358 -0.001170 -0.008976
v -0.014328 -0.001161 -0.008976
v -0.014469 -0.001078 -0.010241
v -0.014724 -0.000364 -0.014144
v -0.014724 -0.000269 -0.014321
v -0.014388 -0.000249 -0.014270
v -0.014724 -0.001103 -0.010277
v -0.014148 -0.000022 -0.014493
v -0.014024 0.000166 -0.014565
v -0.014014 0.000533 -0.014684
v -0.013660 0.000888 -0.014680
v -0.011177 0.006002 -0.008695
v -0.014027 0.003380 -0.014557
v -0.014369 0.003592 -0.014515
v -0.014724 0.003634 -0.014549
v -0.014978 0.003920 -0.014160
v -0.013305 0.002307 -0.014631
v -0.013660 0.002307 -0.014695
v -0.014369 0.003014 -0.014695
v -0.014014 0.003014 -0.014678
v -0.013660 0.001242 -0.014695
v -0.017036 0.005345 -0.006661
v -0.016840 0.006002 -0.007059
v -0.017055 0.005393 -0.006847
v -0.015987 0.004685 -0.001302
v -0.015866 0.004797 -0.001179
v -0.015719 0.005142 -0.001153
v -0.015906 0.004435 -0.001071
v -0.015675 0.004789 -0.000941
v -0.015729 0.004435 -0.000908
v -0.015432 0.004789 -0.000847
v -0.015432 0.004435 -0.000814
v -0.015432 0.004382 -0.000813
v -0.015077 0.004789 -0.000805
v -0.015130 0.004382 -0.000805
v -0.014881 -0.001221 -0.008976
v -0.015078 -0.001146 -0.010039
v -0.014724 -0.001144 -0.010039
v -0.015077 -0.000365 -0.014145
v -0.015077 -0.000270 -0.014323
v -0.014724 -0.000092 -0.014556
v -0.014369 -0.000062 -0.014529
v -0.015078 -0.001104 -0.010279
v -0.014369 0.000178 -0.014640
v -0.014369 0.000533 -0.014695
v -0.014724 0.000178 -0.014666
v -0.015787 0.006002 -0.008695
v -0.014369 0.003369 -0.014625
v -0.014724 0.003369 -0.014659
v -0.015077 0.003634 -0.014549
v -0.015088 0.003823 -0.014285
v -0.015431 0.003730 -0.014296
v -0.016504 0.006002 -0.008559
v -0.016142 0.006002 -0.008685
v -0.015431 0.003014 -0.014695
v -0.017143 0.005144 -0.006847
v -0.016851 0.006002 -0.007202
v -0.017002 0.005608 -0.007202
v -0.017070 0.005430 -0.007202
v -0.017175 0.005144 -0.007202
v -0.016017 0.004435 -0.001248
v -0.017242 0.004789 -0.006847
v -0.017389 0.003935 -0.006662
v -0.017699 0.002558 -0.006839
v -0.015912 0.004382 -0.001063
v -0.015766 0.004382 -0.000930
v -0.015739 0.004382 -0.000910
v -0.015442 -0.001167 -0.008976
v -0.015078 -0.001221 -0.008976
v -0.015330 -0.001079 -0.010243
v -0.015283 -0.000361 -0.014137
v -0.015414 -0.000247 -0.014272
v -0.015431 -0.000061 -0.014529
v -0.015077 -0.000092 -0.014556
v -0.015077 0.000178 -0.014667
v -0.015431 0.000533 -0.014695
v -0.015077 0.003369 -0.014659
v -0.015431 0.003369 -0.014624
v -0.015431 0.003590 -0.014514
v -0.015645 0.003561 -0.014487
v -0.015772 0.003625 -0.014300
v -0.016648 0.006002 -0.008459
v -0.016142 0.002307 -0.014695
v -0.016142 0.002660 -0.014682
v -0.015787 0.003014 -0.014677
v -0.017275 0.004789 -0.007202
v -0.016851 0.006002 -0.007910
v -0.017002 0.005608 -0.007910
v -0.017070 0.005430 -0.007910
v -0.017175 0.005144 -0.007910
v -0.016036 0.004382 -0.001289
v -0.016020 0.004382 -0.001236
v -0.017384 0.004258 -0.007022
v -0.017331 0.004399 -0.006881
v -0.017364 0.004172 -0.006787
v -0.017599 0.002558 -0.006631
v -0.017401 0.004064 -0.006881
v -0.017716 0.002558 -0.006943
v -0.017741 0.001054 -0.008976
v -0.017685 0.000877 -0.008976
v -0.017537 0.000533 -0.008976
v -0.017413 0.000306 -0.008976
v -0.017130 -0.000121 -0.008976
v -0.016967 -0.000300 -0.008976
v -0.016391 -0.000775 -0.008976
v -0.016142 -0.000898 -0.008976
v -0.016142 -0.000862 -0.010039
v -0.015788 -0.000990 -0.010039
v -0.016349 -0.000730 -0.010245
v -0.016023 -0.000029 -0.014179
v -0.015775 -0.000085 -0.014296
v -0.015649 -0.000020 -0.014491
v -0.015775 0.000167 -0.014564
v -0.015431 0.000178 -0.014640
v -0.015787 0.000533 -0.014684
v -0.016142 0.001242 -0.014695
v -0.015772 0.003379 -0.014556
v -0.016048 0.003267 -0.014525
v -0.015880 0.003504 -0.014421
v -0.016010 0.003584 -0.014186
v -0.016692 0.006002 -0.008415
v -0.016496 0.001952 -0.014661
v -0.016496 0.002307 -0.014627
v -0.016508 0.002642 -0.014557
v -0.016399 0.002925 -0.014531
v -0.016157 0.003031 -0.014582
v -0.017275 0.004789 -0.007910
v -0.017384 0.004259 -0.007202
v -0.016767 0.006002 -0.008261
v -0.016707 0.002890 -0.014186
v -0.017056 0.005393 -0.008155
v -0.017763 0.002205 -0.010255
v -0.017776 0.002251 -0.010039
v -0.017307 0.000128 -0.008976
v -0.017728 0.002558 -0.007202
v -0.017728 0.002558 -0.007075
v -0.017812 0.001597 -0.008976
v -0.017771 0.001242 -0.008976
v -0.017741 0.001054 -0.009330
v -0.017685 0.000877 -0.009330
v -0.017681 0.000882 -0.009684
v -0.017513 0.000533 -0.010039
v -0.017399 0.000329 -0.010039
v -0.017298 0.000152 -0.010039
v -0.017122 -0.000114 -0.010039
v -0.016956 -0.000291 -0.010039
v -0.016778 -0.000431 -0.010039
v -0.016363 -0.000741 -0.010039
v -0.016230 0.000060 -0.013941
v -0.016386 0.000277 -0.014224
v -0.016165 0.000159 -0.014321
v -0.015886 0.000042 -0.014416
v -0.016070 0.000278 -0.014533
v -0.016142 0.000888 -0.014680
v -0.016170 0.000506 -0.014584
v -0.016496 0.001597 -0.014658
v -0.016285 0.003161 -0.014439
v -0.016147 0.003375 -0.014313
v -0.016380 0.003246 -0.014202
v -0.016761 0.001952 -0.014550
v -0.016722 0.002307 -0.014516
v -0.016684 0.002510 -0.014482
v -0.016634 0.002746 -0.014423
v -0.016507 0.003026 -0.014313
v -0.017384 0.004258 -0.008088
v -0.017384 0.004259 -0.007910
v -0.016746 0.002642 -0.014300
v -0.017032 0.002138 -0.014128
v -0.017407 0.003228 -0.010251
v -0.017771 0.001952 -0.010268
v -0.017806 0.001952 -0.010039
v -0.017818 0.001952 -0.009330
v -0.017777 0.002265 -0.009684
v -0.017728 0.002558 -0.007910
v -0.017777 0.002295 -0.008976
v -0.017820 0.001951 -0.008976
v -0.017804 0.001597 -0.009330
v -0.017738 0.001064 -0.009871
v -0.017739 0.001059 -0.009684
v -0.017685 0.000924 -0.010009
v -0.017393 0.000338 -0.010231
v -0.017090 -0.000075 -0.010292
v -0.016705 0.000666 -0.014177
v -0.016307 0.000370 -0.014462
v -0.016391 0.000606 -0.014526
v -0.016496 0.001242 -0.014639
v -0.016504 0.000892 -0.014567
v -0.016756 0.001597 -0.014546
v -0.016758 0.001757 -0.014549
v -0.016939 0.001952 -0.014317
v -0.016901 0.002277 -0.014265
v -0.017777 0.002282 -0.009330
v -0.017037 0.001952 -0.014138
v -0.017757 0.001597 -0.010247
v -0.017036 0.001757 -0.014137
v -0.017036 0.001717 -0.014136
v -0.017782 0.001597 -0.010039
v -0.017793 0.001597 -0.009684
v -0.017745 0.001340 -0.010228
v -0.017749 0.001230 -0.010009
v -0.017734 0.001104 -0.010106
v -0.016864 0.000888 -0.013941
v -0.016767 0.000892 -0.014295
v -0.016628 0.000777 -0.014412
v -0.016705 0.001013 -0.014502
v -0.016732 0.001242 -0.014529
v -0.016947 0.001597 -0.014272
v -0.016983 0.001242 -0.013941
v -0.016887 0.001242 -0.014296
f 189 228 190
f 227 228 189
f 5 6 1
f 5 20 6
f 79 78 123
f 6 20 21
f 8 9 1
f 6 21 22
f 47 48 22
f 22 21 47
f 189 190 155
f 184 215 216
f 186 185 217
f 217 216 215
f 217 185 184
f 184 216 217
f 208 215 184
f 178 208 184
f 178 182 208
f 268 227 226
f 324 305 303
f 323 330 324
f 290 254 291
f 40 78 79
f 122 121 158
f 122 78 121
f 122 123 78
f 51 50 52
f 83 123 125
f 27 60 61
f 59 60 27
f 27 58 59
f 176 169 138
f 138 175 176
f 2 15 10
f 10 11 2
f 2 3 1
f 2 11 3
f 1 9 2
f 10 15 28
f 190 192 159
f 159 122 158
f 274 273 306
f 191 155 190
f 191 159 158
f 190 159 191
f 157 155 191
f 258 297 298
f 298 259 258
f 186 217 219
f 219 217 215
f 291 254 253
f 253 290 291
f 212 253 254
f 212 255 249
f 254 255 212
f 218 214 186
f 256 214 218
f 213 183 186
f 186 214 213
f 213 214 183
f 225 214 256
f 188 227 189
f 193 192 230
f 230 192 190
f 303 305 304
f 272 305 306
f 306 273 272
f 272 304 305
f 302 324 303
f 323 324 302
f 331 324 330
f 306 305 326
f 326 327 306
f 309 327 308
f 131 164 166
f 329 331 318
f 318 331 330
f 318 330 323
f 285 289 252
f 252 289 290
f 290 253 252
f 313 289 285
f 290 289 313
f 20 5 19
f 79 123 80
f 42 81 47
f 42 80 81
f 79 80 42
f 130 164 131
f 163 166 164
f 49 52 50
f 49 22 48
f 6 25 7
f 1 6 7
f 7 8 1
f 9 8 7
f 24 25 6
f 24 50 51
f 51 25 24
f 91 95 134
f 31 56 27
f 63 56 31
f 31 30 63
f 27 10 31
f 10 30 31
f 96 56 63
f 63 101 96
f 92 61 100
f 100 61 60
f 60 59 100
f 140 105 143
f 143 105 133
f 67 105 106
f 106 105 140
f 89 130 131
f 89 54 87
f 87 130 89
f 53 52 87
f 87 54 53
f 13 15 14
f 14 2 13
f 15 2 14
f 29 30 10
f 10 28 29
f 66 101 63
f 186 223 224
f 224 218 186
f 256 218 224
f 224 266 256
f 186 221 222
f 222 223 186
f 261 222 221
f 122 159 160
f 160 159 129
f 160 129 125
f 125 123 160
f 123 122 160
f 165 192 193
f 165 159 192
f 193 161 165
f 129 159 165
f 165 161 129
f 215 258 220
f 186 219 220
f 220 219 215
f 220 221 186
f 220 258 259
f 257 258 215
f 297 258 257
f 292 318 316
f 254 290 292
f 294 259 298
f 294 295 255
f 314 295 294
f 298 297 294
f 294 297 314
f 182 178 146
f 146 181 182
f 180 181 146
f 146 178 144
f 210 253 211
f 253 212 211
f 267 268 226
f 226 225 267
f 256 266 267
f 267 225 256
f 267 266 303
f 303 304 267
f 267 272 268
f 304 272 267
f 187 225 226
f 214 225 187
f 226 227 187
f 227 188 187
f 183 214 187
f 232 272 273
f 273 274 232
f 231 232 193
f 264 302 303
f 264 224 223
f 325 331 327
f 325 326 305
f 327 326 325
f 305 324 325
f 324 331 325
f 306 327 307
f 327 309 307
f 168 163 197
f 166 163 168
f 321 318 323
f 316 318 321
f 318 292 317
f 290 313 283
f 205 244 206
f 238 244 205
f 278 244 238
f 308 310 278
f 282 244 278
f 328 331 329
f 329 310 328
f 327 331 328
f 308 327 328
f 328 310 308
f 4 5 1
f 1 3 4
f 43 42 47
f 41 40 79
f 79 42 41
f 84 83 125
f 125 129 84
f 84 49 83
f 127 163 164
f 22 49 23
f 23 49 50
f 6 22 23
f 23 24 6
f 50 24 23
f 83 49 82
f 82 49 48
f 82 48 47
f 47 81 82
f 95 91 55
f 92 93 55
f 27 61 55
f 55 61 92
f 56 96 57
f 57 58 27
f 27 56 57
f 57 59 58
f 92 100 135
f 67 106 104
f 104 106 101
f 104 66 67
f 101 66 104
f 139 96 101
f 101 106 139
f 133 105 103
f 103 102 133
f 103 105 67
f 54 89 90
f 133 102 90
f 90 89 131
f 26 25 51
f 26 7 25
f 26 53 54
f 51 52 26
f 52 53 26
f 34 33 64
f 64 33 54
f 36 29 28
f 36 66 63
f 67 66 36
f 36 28 15
f 263 264 223
f 302 264 263
f 323 302 300
f 302 263 300
f 300 259 299
f 221 220 260
f 260 220 259
f 260 261 221
f 259 300 260
f 250 257 215
f 215 208 250
f 297 257 296
f 319 321 323
f 268 272 271
f 272 232 271
f 271 231 268
f 232 231 271
f 233 194 193
f 193 232 233
f 233 232 274
f 266 224 265
f 224 264 265
f 303 266 265
f 265 264 303
f 276 309 308
f 238 237 276
f 308 278 276
f 276 278 238
f 198 237 238
f 197 237 198
f 306 307 275
f 275 274 306
f 290 283 312
f 312 283 282
f 312 310 329
f 329 318 312
f 318 317 312
f 315 292 290
f 315 317 292
f 290 312 315
f 315 312 317
f 174 175 138
f 174 203 175
f 175 203 204
f 242 243 204
f 204 203 242
f 247 279 240
f 285 247 284
f 284 313 285
f 284 283 313
f 245 244 282
f 282 283 245
f 206 244 245
f 280 279 281
f 281 242 280
f 281 243 242
f 251 243 281
f 281 252 251
f 94 137 95
f 94 93 92
f 95 55 94
f 94 55 93
f 171 142 141
f 282 278 311
f 311 278 310
f 311 312 282
f 310 312 311
f 40 39 77
f 121 78 77
f 78 40 77
f 17 39 40
f 40 41 17
f 17 41 42
f 42 43 17
f 17 4 3
f 164 130 128
f 128 127 164
f 84 127 128
f 129 161 126
f 126 84 129
f 126 127 84
f 52 49 85
f 85 84 52
f 49 84 85
f 197 163 196
f 123 83 124
f 83 82 124
f 124 82 81
f 124 80 123
f 81 80 124
f 59 57 97
f 97 57 96
f 96 139 97
f 54 90 88
f 88 90 102
f 88 64 54
f 102 64 88
f 12 33 34
f 12 15 13
f 12 34 15
f 13 2 12
f 12 2 9
f 9 7 12
f 7 26 12
f 15 34 35
f 34 64 35
f 35 36 15
f 62 36 63
f 29 36 62
f 223 222 262
f 262 263 223
f 222 261 262
f 262 300 263
f 261 260 301
f 301 260 300
f 301 262 261
f 300 262 301
f 297 296 287
f 314 297 287
f 287 295 314
f 249 255 287
f 255 295 287
f 293 294 255
f 293 292 316
f 293 319 320
f 293 255 254
f 254 292 293
f 316 321 293
f 321 319 293
f 293 320 299
f 299 259 293
f 259 294 293
f 323 300 322
f 322 319 323
f 320 319 322
f 299 320 322
f 322 300 299
f 268 231 269
f 231 270 269
f 227 268 269
f 269 270 227
f 228 227 229
f 227 270 229
f 229 190 228
f 229 230 190
f 229 270 231
f 193 230 229
f 229 231 193
f 277 307 309
f 309 276 277
f 277 275 307
f 277 276 237
f 237 275 277
f 167 168 197
f 197 198 167
f 236 237 197
f 197 196 236
f 236 196 195
f 274 275 234
f 234 233 274
f 234 195 194
f 194 233 234
f 138 172 173
f 173 174 138
f 242 203 241
f 280 242 241
f 241 279 280
f 241 240 279
f 247 240 248
f 206 247 248
f 248 207 206
f 246 284 247
f 283 284 246
f 246 245 283
f 246 247 206
f 206 245 246
f 252 281 286
f 286 281 279
f 285 252 286
f 286 247 285
f 286 279 247
f 136 94 92
f 137 94 136
f 92 135 136
f 170 135 142
f 142 171 170
f 170 171 137
f 137 136 170
f 170 136 135
f 206 207 177
f 177 205 206
f 120 119 156
f 156 155 157
f 156 119 155
f 75 119 120
f 47 21 45
f 18 17 19
f 4 17 18
f 18 19 5
f 5 4 18
f 3 11 16
f 16 17 3
f 52 84 86
f 84 128 86
f 86 128 130
f 87 52 86
f 86 130 87
f 163 127 162
f 162 196 163
f 162 161 193
f 195 196 162
f 162 126 161
f 127 126 162
f 193 194 162
f 194 195 162
f 98 97 139
f 59 97 98
f 140 141 98
f 141 142 98
f 98 106 140
f 98 139 106
f 54 33 32
f 33 12 32
f 32 26 54
f 32 12 26
f 65 35 64
f 36 35 65
f 67 36 65
f 65 103 67
f 102 103 65
f 65 64 102
f 288 287 296
f 249 287 288
f 132 167 143
f 132 143 133
f 133 90 132
f 166 168 132
f 168 167 132
f 131 166 132
f 132 90 131
f 235 236 195
f 195 234 235
f 235 234 275
f 235 275 237
f 237 236 235
f 174 173 202
f 203 174 202
f 202 241 203
f 240 241 202
f 199 177 207
f 207 200 199
f 199 200 172
f 152 188 189
f 119 75 118
f 69 110 111
f 68 69 37
f 68 107 69
f 109 110 69
f 69 107 109
f 109 111 110
f 144 111 109
f 109 146 144
f 37 75 76
f 76 75 120
f 19 17 46
f 17 45 46
f 46 45 21
f 46 21 20
f 20 19 46
f 44 17 43
f 44 45 17
f 44 43 47
f 47 45 44
f 59 98 99
f 99 98 142
f 99 100 59
f 142 135 99
f 99 135 100
f 201 173 172
f 201 202 173
f 172 200 201
f 240 202 239
f 239 200 207
f 239 201 200
f 202 201 239
f 207 248 239
f 239 248 240
f 151 187 188
f 188 152 151
f 155 119 154
f 119 118 154
f 189 155 154
f 154 152 189
f 147 111 144
f 144 178 147
f 147 178 184
f 184 185 147
f 147 185 186
f 186 183 147
f 69 111 112
f 111 147 112
f 209 253 210
f 251 252 209
f 209 252 253
f 71 72 37
f 74 75 37
f 117 118 74
f 74 118 75
f 39 17 38
f 38 77 39
f 116 151 152
f 152 154 153
f 153 154 118
f 153 116 152
f 153 118 117
f 117 116 153
f 149 112 148
f 148 112 147
f 37 69 70
f 70 71 37
f 37 72 73
f 73 74 37
f 117 74 73
f 73 116 117
f 72 116 73
f 187 151 150
f 151 114 150
f 114 148 150
f 150 148 147
f 183 187 150
f 150 147 183
f 71 70 108
f 69 112 108
f 108 70 69
f 72 71 115
f 115 116 72
f 71 114 115
f 115 114 151
f 151 116 115
f 149 148 113
f 113 148 114
f 113 112 149
f 113 108 112
f 113 114 71
f 71 108 113
f 145 179 180
f 180 146 145
f 146 109 145
f 169 134 95
f 138 169 95
f 121 157 191
f 158 121 191
f 208 182 212
f 249 208 212
f 211 181 180
f 180 210 211
f 211 212 182
f 182 181 211
f 138 95 137
f 137 172 138
f 30 29 62
f 63 30 62
f 140 143 177
f 177 141 140
f 143 167 177
f 238 205 177
f 177 198 238
f 177 167 198
f 288 296 257
f 257 250 288
f 288 208 249
f 288 250 208
f 141 177 199
f 199 171 141
f 172 137 199
f 137 171 199
f 38 17 37
f 37 76 38
f 38 157 121
f 121 77 38
f 38 156 157
f 120 156 38
f 38 76 120
f 179 210 180
f 179 209 210
f 145 10 27
f 169 176 145
f 145 68 37
f 145 243 251
f 145 134 169
f 145 11 10
f 145 176 175
f 145 91 134
f 27 55 145
f 175 204 145
f 145 55 91
f 145 204 243
f 37 17 145
f 145 16 11
f 17 16 145
f 107 68 145
f 145 109 107
f 251 209 145
f 209 179 145
