v -0.005607 -0.001341 -0.001171
v -0.005633 -0.001341 -0.003298
v -0.005642 -0.001341 -0.000949
v -0.000301 -0.005765 -0.001171
v -0.000301 -0.005762 -0.001405
v -0.000301 -0.005760 -0.001526
v -0.005660 -0.001341 -0.003648
v -0.000301 -0.005779 -0.003177
v -0.000301 -0.005781 -0.003298
v -0.005835 -0.001341 -0.000870
v -0.000301 -0.005902 -0.000899
v -0.005682 -0.001341 -0.003785
v -0.000301 -0.005803 -0.003532
v -0.000301 -0.005815 -0.003653
v -0.006211 -0.001341 -0.000805
v -0.000301 -0.006209 -0.000805
v -0.005752 -0.001341 -0.003892
v -0.000301 -0.005895 -0.003834
v -0.000301 -0.005939 -0.003930
v -0.007275 -0.007379 -0.000444
v -0.006919 -0.007403 -0.000444
v -0.006752 -0.007440 -0.000444
v -0.006581 -0.007505 -0.000444
v -0.006230 -0.007643 -0.000444
v -0.006212 -0.007651 -0.000444
v -0.005997 -0.007759 -0.000444
v -0.005986 -0.007765 -0.000444
v -0.005976 -0.007771 -0.000444
v -0.015786 -0.001341 -0.000805
v -0.000301 -0.006564 -0.000805
v -0.005808 -0.007913 -0.000444
v -0.005612 -0.008091 -0.000444
v -0.005433 -0.008299 -0.000444
v -0.005298 -0.008468 -0.000444
v -0.005291 -0.008477 -0.000444
v -0.005189 -0.008693 -0.000444
v -0.005060 -0.009046 -0.000444
v -0.004985 -0.009372 -0.000443
v -0.004966 -0.009639 -0.000443
v -0.004964 -0.009756 -0.000443
v -0.005797 -0.001341 -0.003934
v -0.000301 -0.006106 -0.004047
v -0.006132 -0.001341 -0.004169
v -0.005850 -0.001341 -0.003978
v -0.007286 -0.007379 -0.000444
v -0.005044 -0.009351 -0.000443
v -0.016141 -0.001341 -0.000871
v -0.015786 -0.001952 -0.000805
v -0.009381 -0.009740 -0.000443
v -0.009374 -0.009402 -0.000443
v -0.009371 -0.009384 -0.000443
v -0.009318 -0.009046 -0.000444
v -0.009250 -0.008831 -0.000444
v -0.008953 -0.008324 -0.000444
v -0.008894 -0.008247 -0.000444
v -0.008782 -0.008116 -0.000444
v -0.008704 -0.008039 -0.000444
v -0.008463 -0.007830 -0.000444
v -0.008297 -0.007726 -0.000444
v -0.007986 -0.007578 -0.000444
v -0.007719 -0.007485 -0.000444
v -0.007526 -0.007419 -0.000444
v -0.002469 -0.015785 -0.000807
v -0.000301 -0.006920 -0.000821
v -0.005033 -0.010088 -0.000443
v -0.000301 -0.006196 -0.004107
v -0.004921 -0.006703 -0.005197
v -0.006236 -0.001341 -0.004186
v -0.000301 -0.006312 -0.004164
v -0.000301 -0.006372 -0.004190
v -0.009362 -0.009351 -0.000443
v -0.016348 -0.001341 -0.000965
v -0.016080 -0.002663 -0.000906
v -0.015786 -0.003017 -0.000825
v -0.015786 -0.002663 -0.000813
v -0.015786 -0.002308 -0.000806
v -0.009381 -0.009756 -0.000443
v -0.002662 -0.015785 -0.000809
v -0.002469 -0.016110 -0.000901
v -0.005042 -0.010118 -0.000443
v -0.005160 -0.010465 -0.000443
v -0.005272 -0.010713 -0.000443
v -0.005403 -0.010890 -0.000443
v -0.005582 -0.011104 -0.000443
v -0.005764 -0.011280 -0.000443
v -0.005941 -0.011421 -0.000443
v -0.006198 -0.011577 -0.000443
v -0.006421 -0.011687 -0.000443
v -0.006434 -0.011693 -0.000443
v -0.006610 -0.011758 -0.000443
v -0.006907 -0.011822 -0.000443
v -0.006921 -0.011825 -0.000443
v -0.007275 -0.011835 -0.000443
v -0.000301 -0.007238 -0.000926
v -0.005146 -0.006552 -0.005197
v -0.004742 -0.006859 -0.005197
v -0.003507 -0.009351 -0.005197
v -0.006298 -0.001341 -0.004190
v -0.005368 -0.006413 -0.005197
v -0.005545 -0.006318 -0.005197
v -0.005856 -0.006181 -0.005197
v -0.006182 -0.006073 -0.005197
v -0.000301 -0.006564 -0.004195
v -0.002469 -0.011635 -0.005197
v -0.003728 -0.008337 -0.005197
v -0.003853 -0.008044 -0.005197
v -0.003933 -0.007866 -0.005197
v -0.003984 -0.007783 -0.005197
v -0.004081 -0.007627 -0.005197
v -0.004230 -0.007410 -0.005197
v -0.004375 -0.007232 -0.005197
v -0.004552 -0.007037 -0.005197
v -0.004675 -0.006921 -0.005197
v -0.016492 -0.001341 -0.001171
v -0.016331 -0.001598 -0.000981
v -0.016031 -0.003371 -0.000935
v -0.016056 -0.003017 -0.000919
v -0.015786 -0.003371 -0.000841
v -0.015432 -0.004082 -0.000808
v -0.009338 -0.010112 -0.000443
v -0.002662 -0.016098 -0.000902
v -0.007612 -0.011798 -0.000443
v -0.007630 -0.011795 -0.000443
v -0.004081 -0.015431 -0.000809
v -0.004466 -0.015432 -0.000826
v -0.003017 -0.015785 -0.000824
v -0.002469 -0.016286 -0.001029
v -0.000301 -0.007391 -0.001050
v -0.004466 -0.009351 -0.005197
v -0.007275 -0.005934 -0.005197
v -0.006919 -0.005944 -0.005197
v -0.006565 -0.005987 -0.005197
v -0.006361 -0.006024 -0.005197
v -0.006468 -0.001341 -0.004194
v -0.000301 -0.007273 -0.004195
v -0.002469 -0.016488 -0.005197
v -0.016524 -0.001341 -0.001268
v -0.016347 -0.003017 -0.001292
v -0.016372 -0.002663 -0.001251
v -0.016396 -0.002308 -0.001215
v -0.016281 -0.002308 -0.001038
v -0.016316 -0.001776 -0.000993
v -0.016257 -0.002663 -0.001073
v -0.016233 -0.003017 -0.001114
v -0.015994 -0.003726 -0.000966
v -0.015708 -0.004436 -0.000919
v -0.015786 -0.003726 -0.000872
v -0.015432 -0.004436 -0.000824
v -0.015076 -0.005499 -0.000821
v -0.015076 -0.005145 -0.000806
v -0.009259 -0.010363 -0.000443
v -0.002662 -0.016276 -0.001045
v -0.003017 -0.016061 -0.000918
v -0.007842 -0.011734 -0.000443
v -0.005500 -0.015076 -0.000818
v -0.004792 -0.015432 -0.000853
v -0.003371 -0.015785 -0.000854
v -0.002469 -0.016403 -0.001206
v -0.000301 -0.007576 -0.001218
v -0.004466 -0.016030 -0.005197
v -0.009989 -0.007071 -0.005197
v -0.009084 -0.006467 -0.005197
v -0.008910 -0.006365 -0.005197
v -0.008691 -0.006260 -0.005197
v -0.008338 -0.006123 -0.005197
v -0.008251 -0.006098 -0.005197
v -0.008085 -0.006051 -0.005197
v -0.007909 -0.006006 -0.005197
v -0.007810 -0.005988 -0.005197
v -0.007630 -0.005960 -0.005197
v -0.016608 -0.001341 -0.004211
v -0.011194 -0.001341 -0.004211
v -0.006565 -0.001341 -0.004195
v -0.000301 -0.007471 -0.004192
v -0.002469 -0.016488 -0.001526
v -0.002662 -0.016464 -0.005197
v -0.000301 -0.007545 -0.004191
v -0.000301 -0.007679 -0.004035
v -0.000301 -0.007700 -0.004008
v -0.000301 -0.007794 -0.003689
v -0.000301 -0.007805 -0.003653
v -0.016607 -0.001341 -0.001525
v -0.016329 -0.003273 -0.001325
v -0.016227 -0.003383 -0.001192
v -0.015968 -0.003916 -0.000990
v -0.015652 -0.004790 -0.000956
v -0.016141 -0.003726 -0.001171
v -0.015304 -0.005853 -0.000950
v -0.015360 -0.005499 -0.000914
v -0.015076 -0.005853 -0.000856
v -0.014720 -0.006564 -0.000836
v -0.014720 -0.006209 -0.000808
v -0.009020 -0.010806 -0.000443
v -0.013657 -0.008337 -0.000812
v -0.002662 -0.016392 -0.001222
v -0.003371 -0.016016 -0.000947
v -0.003633 -0.015984 -0.000974
v -0.003869 -0.015953 -0.001003
v -0.003017 -0.016239 -0.001103
v -0.004436 -0.015707 -0.000918
v -0.004466 -0.015702 -0.000920
v -0.004792 -0.015662 -0.000947
v -0.007851 -0.011730 -0.000443
v -0.007275 -0.014368 -0.000833
v -0.006211 -0.014722 -0.000812
v -0.005856 -0.015076 -0.000861
v -0.005500 -0.015379 -0.000912
v -0.006565 -0.014722 -0.000846
v -0.000301 -0.007748 -0.001526
v -0.004081 -0.016126 -0.005197
v -0.005146 -0.015861 -0.005196
v -0.005500 -0.015747 -0.005196
v -0.005754 -0.015643 -0.005196
v -0.005933 -0.015566 -0.005196
v -0.007385 -0.014925 -0.005196
v -0.007630 -0.014817 -0.005196
v -0.007986 -0.014643 -0.005196
v -0.008048 -0.014609 -0.005196
v -0.008163 -0.014545 -0.005196
v -0.008278 -0.014470 -0.005196
v -0.010110 -0.013255 -0.005196
v -0.010295 -0.013132 -0.005196
v -0.010472 -0.012975 -0.005196
v -0.010670 -0.012799 -0.005196
v -0.011215 -0.012289 -0.005196
v -0.012134 -0.011423 -0.005196
v -0.012313 -0.011249 -0.005196
v -0.012477 -0.011071 -0.005196
v -0.012594 -0.010925 -0.005196
v -0.012655 -0.010845 -0.005196
v -0.013783 -0.009351 -0.005196
v -0.009989 -0.009351 -0.005197
v -0.015817 -0.005149 -0.004473
v -0.016324 -0.003389 -0.004211
v -0.016608 -0.001341 -0.001880
v -0.000301 -0.007790 -0.001880
v -0.000301 -0.007754 -0.001560
v -0.002662 -0.016464 -0.001526
v -0.003017 -0.016392 -0.005197
v -0.016572 -0.001598 -0.001525
v -0.016310 -0.003490 -0.001525
v -0.016257 -0.003726 -0.001525
v -0.015972 -0.004639 -0.001332
v -0.016003 -0.004436 -0.001278
v -0.015930 -0.004153 -0.001034
v -0.015580 -0.005237 -0.001026
v -0.015619 -0.004999 -0.000984
v -0.016043 -0.004053 -0.001159
v -0.015269 -0.006076 -0.000979
v -0.014988 -0.006564 -0.000930
v -0.015094 -0.006200 -0.000911
v -0.014011 -0.007983 -0.000844
v -0.008897 -0.011012 -0.000443
v -0.013657 -0.008693 -0.000853
v -0.013301 -0.009046 -0.000831
v -0.012948 -0.009402 -0.000818
v -0.003017 -0.016354 -0.001280
v -0.005052 -0.015629 -0.000974
v -0.004081 -0.015927 -0.001037
v -0.005288 -0.015598 -0.001003
v -0.004466 -0.015881 -0.001111
v -0.004436 -0.016000 -0.001280
v -0.008391 -0.011458 -0.000443
v -0.007986 -0.014013 -0.000835
v -0.007641 -0.014393 -0.000900
v -0.007275 -0.014636 -0.000927
v -0.006565 -0.014970 -0.000940
v -0.005856 -0.015302 -0.000955
v -0.005146 -0.015861 -0.001525
v -0.005500 -0.015747 -0.001525
v -0.005754 -0.015643 -0.001525
v -0.005933 -0.015566 -0.001525
v -0.007630 -0.014817 -0.001525
v -0.007986 -0.014643 -0.001525
v -0.008163 -0.014545 -0.001346
v -0.009047 -0.013960 -0.001525
v -0.010110 -0.013255 -0.001525
v -0.010295 -0.013132 -0.001525
v -0.010472 -0.012975 -0.001525
v -0.010670 -0.012799 -0.001525
v -0.011215 -0.012289 -0.001525
v -0.012134 -0.011423 -0.001525
v -0.012313 -0.011249 -0.001525
v -0.012477 -0.011071 -0.001525
v -0.012655 -0.010845 -0.001525
v -0.012789 -0.010668 -0.001525
v -0.013783 -0.009351 -0.001525
v -0.014007 -0.009046 -0.004473
v -0.014163 -0.008822 -0.004473
v -0.014415 -0.008337 -0.004473
v -0.015215 -0.006788 -0.004473
v -0.015245 -0.006728 -0.004473
v -0.015335 -0.006550 -0.004473
v -0.015434 -0.006318 -0.004473
v -0.015477 -0.006209 -0.004473
v -0.015572 -0.005920 -0.004473
v -0.016157 -0.004082 -0.004211
v -0.016257 -0.003726 -0.004211
v -0.016310 -0.003490 -0.004211
v -0.003234 -0.016328 -0.001328
v -0.003017 -0.016392 -0.001526
v -0.016157 -0.004082 -0.001525
v -0.015976 -0.004651 -0.001525
v -0.015820 -0.005145 -0.001525
v -0.015572 -0.005920 -0.001526
v -0.015622 -0.005722 -0.001321
v -0.015655 -0.005499 -0.001264
v -0.015885 -0.004436 -0.001100
v -0.015537 -0.005499 -0.001086
v -0.015224 -0.006312 -0.001024
v -0.014926 -0.006798 -0.000969
v -0.014267 -0.007983 -0.000937
v -0.014021 -0.008327 -0.000912
v -0.008891 -0.011021 -0.000443
v -0.013641 -0.009018 -0.000935
v -0.013307 -0.009397 -0.000911
v -0.012594 -0.010112 -0.000851
v -0.013898 -0.008693 -0.000947
v -0.012238 -0.010465 -0.000832
v -0.005160 -0.015721 -0.001141
v -0.006048 -0.015260 -0.000987
v -0.005500 -0.015555 -0.001058
v -0.005500 -0.015677 -0.001236
v -0.004653 -0.015973 -0.001328
v -0.008530 -0.011369 -0.000443
v -0.007986 -0.014286 -0.000929
v -0.009047 -0.013303 -0.000834
v -0.009392 -0.013310 -0.000912
v -0.008329 -0.014019 -0.000913
v -0.007531 -0.014578 -0.000964
v -0.006788 -0.014919 -0.000975
v -0.005729 -0.015631 -0.001307
v -0.006471 -0.015290 -0.001285
v -0.007211 -0.014950 -0.001266
v -0.007986 -0.014594 -0.001272
v -0.007986 -0.014464 -0.001095
v -0.008441 -0.014141 -0.001048
v -0.008576 -0.014231 -0.001284
v -0.009642 -0.013524 -0.001282
v -0.010292 -0.013129 -0.001340
v -0.010661 -0.012790 -0.001320
v -0.011023 -0.012443 -0.001311
v -0.011386 -0.012096 -0.001302
v -0.012110 -0.011399 -0.001284
v -0.012457 -0.011046 -0.001286
v -0.012782 -0.010659 -0.001327
v -0.013849 -0.009242 -0.001325
v -0.014007 -0.009046 -0.001526
v -0.014163 -0.008822 -0.001526
v -0.014415 -0.008337 -0.001526
v -0.014886 -0.007425 -0.001526
v -0.015245 -0.006728 -0.001526
v -0.015335 -0.006550 -0.001526
v -0.015477 -0.006209 -0.001526
v -0.015820 -0.005145 -0.004211
v -0.015976 -0.004651 -0.004211
v -0.015307 -0.006496 -0.001261
v -0.015352 -0.006200 -0.001154
v -0.014867 -0.007034 -0.001029
v -0.014209 -0.008202 -0.000976
v -0.008883 -0.011030 -0.000443
v -0.011884 -0.010821 -0.000822
v -0.013842 -0.008883 -0.000986
v -0.013194 -0.009667 -0.000947
v -0.012580 -0.010437 -0.000936
v -0.012240 -0.010815 -0.000916
v -0.012971 -0.009775 -0.000893
v -0.007767 -0.014526 -0.001012
v -0.007025 -0.014867 -0.001030
v -0.006284 -0.015208 -0.001049
v -0.008670 -0.011245 -0.000443
v -0.010110 -0.012594 -0.000839
v -0.009047 -0.013585 -0.000928
v -0.008618 -0.013903 -0.000945
v -0.008204 -0.014218 -0.000970
v -0.009783 -0.012980 -0.000889
v -0.010110 -0.012871 -0.000933
v -0.009684 -0.013196 -0.000945
v -0.007641 -0.014674 -0.001147
v -0.008854 -0.013826 -0.001003
v -0.009505 -0.013433 -0.001045
v -0.010110 -0.013049 -0.001081
v -0.010314 -0.012796 -0.000975
v -0.010423 -0.012911 -0.001212
v -0.009920 -0.013118 -0.001001
v -0.010552 -0.012688 -0.001084
v -0.010789 -0.012565 -0.001197
v -0.012000 -0.011297 -0.001048
v -0.012235 -0.011171 -0.001167
v -0.012573 -0.010794 -0.001188
v -0.012358 -0.010928 -0.001050
v -0.013523 -0.009638 -0.001284
v -0.013679 -0.009351 -0.001211
v -0.013754 -0.009117 -0.001087
v -0.013908 -0.009018 -0.001192
v -0.014233 -0.008603 -0.001275
v -0.014950 -0.007198 -0.001265
v -0.014147 -0.008438 -0.001039
v -0.008691 -0.011226 -0.000443
v -0.011882 -0.011178 -0.000910
v -0.011529 -0.011177 -0.000825
v -0.014088 -0.008709 -0.001163
v -0.013429 -0.009511 -0.001046
v -0.013103 -0.009904 -0.001014
v -0.012777 -0.010299 -0.000987
v -0.012452 -0.010692 -0.000966
v -0.012121 -0.011060 -0.000954
v -0.010806 -0.012229 -0.000925
v -0.010445 -0.012579 -0.000931
v -0.009269 -0.013511 -0.000970
v -0.010677 -0.012450 -0.000970
v -0.011039 -0.012103 -0.000966
v -0.011764 -0.011408 -0.000958
v -0.013651 -0.009351 -0.001175
f 136 181 175
f 103 104 70
f 236 175 181
f 2 9 7
f 7 14 12
f 70 104 105
f 12 14 18
f 18 19 12
f 180 181 136
f 136 179 180
f 136 177 178
f 178 179 136
f 2 1 6
f 4 1 3
f 38 16 37
f 182 235 240
f 240 183 182
f 209 175 237
f 175 236 237
f 14 7 13
f 13 7 9
f 67 43 70
f 104 97 107
f 161 232 231
f 231 288 289
f 70 43 69
f 43 66 69
f 43 19 42
f 42 66 43
f 12 19 17
f 19 41 17
f 44 19 43
f 44 41 19
f 136 135 174
f 174 177 136
f 5 1 4
f 5 6 1
f 8 9 2
f 2 6 8
f 4 3 11
f 52 53 29
f 53 52 71
f 28 16 15
f 233 297 298
f 298 299 233
f 171 231 233
f 141 114 140
f 241 242 183
f 183 240 241
f 241 240 235
f 238 175 195
f 94 127 128
f 128 127 159
f 64 30 63
f 221 222 160
f 160 211 212
f 160 224 225
f 225 226 160
f 160 226 227
f 227 228 160
f 160 228 229
f 160 231 232
f 172 173 130
f 171 172 130
f 129 130 97
f 108 97 109
f 108 107 97
f 108 109 70
f 70 107 108
f 106 105 104
f 104 107 106
f 70 105 106
f 106 107 70
f 293 231 292
f 290 231 289
f 10 11 3
f 16 11 10
f 15 16 10
f 22 46 38
f 297 233 296
f 296 231 295
f 296 233 231
f 171 233 234
f 234 233 299
f 234 235 171
f 299 241 234
f 234 241 235
f 138 137 182
f 182 183 138
f 114 137 138
f 191 192 149
f 194 192 191
f 158 195 175
f 158 175 209
f 209 159 158
f 159 127 158
f 366 362 319
f 277 275 278
f 223 160 222
f 224 160 223
f 230 160 229
f 231 160 230
f 229 286 230
f 286 231 230
f 216 217 160
f 97 100 99
f 101 97 102
f 101 100 97
f 97 67 96
f 96 67 70
f 70 109 110
f 109 97 110
f 173 134 131
f 131 130 173
f 131 134 98
f 97 130 131
f 130 129 170
f 171 130 170
f 294 293 353
f 295 231 294
f 231 293 294
f 292 231 291
f 231 290 291
f 151 194 193
f 192 194 151
f 151 120 119
f 119 120 76
f 20 46 21
f 46 22 21
f 15 20 21
f 21 22 15
f 38 37 36
f 36 37 16
f 297 296 356
f 356 296 355
f 139 140 114
f 114 138 139
f 141 140 139
f 119 149 150
f 150 149 192
f 150 151 119
f 192 151 150
f 193 194 253
f 115 116 72
f 72 114 115
f 115 114 141
f 73 47 72
f 74 47 73
f 144 138 183
f 144 139 138
f 243 302 303
f 242 302 243
f 183 242 243
f 295 294 354
f 354 294 353
f 353 357 354
f 354 357 306
f 310 250 249
f 249 250 188
f 249 246 310
f 251 250 191
f 188 250 251
f 358 357 310
f 306 357 358
f 309 246 308
f 306 358 309
f 310 246 309
f 309 358 310
f 407 366 406
f 347 392 393
f 349 347 396
f 400 401 362
f 362 366 400
f 372 401 400
f 400 366 407
f 282 344 283
f 273 275 274
f 276 275 277
f 238 195 257
f 257 300 238
f 211 160 210
f 273 216 215
f 215 272 273
f 215 216 160
f 95 67 97
f 97 99 95
f 68 95 99
f 68 99 100
f 43 67 68
f 67 95 68
f 100 101 68
f 102 98 68
f 68 101 102
f 113 112 97
f 97 96 113
f 70 112 113
f 113 96 70
f 111 112 70
f 70 110 111
f 97 112 111
f 111 110 97
f 132 131 98
f 97 131 132
f 162 129 161
f 162 163 129
f 161 231 162
f 162 231 171
f 171 163 162
f 168 167 171
f 168 129 167
f 71 58 57
f 57 58 29
f 29 53 54
f 54 55 29
f 53 71 54
f 71 55 54
f 29 58 59
f 59 60 29
f 59 58 71
f 71 60 59
f 75 74 119
f 119 76 75
f 75 47 74
f 75 76 47
f 77 76 120
f 15 22 23
f 23 22 38
f 26 25 38
f 15 25 26
f 33 34 16
f 16 32 33
f 38 34 33
f 33 32 38
f 31 28 38
f 38 32 31
f 16 28 31
f 31 32 16
f 35 34 38
f 38 36 35
f 16 34 35
f 35 36 16
f 256 253 194
f 141 116 142
f 142 115 141
f 116 115 142
f 72 116 117
f 117 73 72
f 141 139 143
f 139 144 143
f 143 116 141
f 143 144 116
f 116 144 145
f 148 149 119
f 244 243 306
f 244 309 308
f 183 243 244
f 306 243 305
f 305 354 306
f 247 185 246
f 246 249 247
f 359 397 396
f 310 357 359
f 357 397 359
f 392 390 403
f 395 402 396
f 396 347 395
f 351 291 290
f 287 231 286
f 79 63 78
f 78 121 79
f 79 121 127
f 79 127 94
f 94 64 79
f 64 63 79
f 65 63 30
f 78 63 93
f 264 204 263
f 317 366 319
f 252 194 191
f 252 254 194
f 191 250 252
f 408 400 407
f 372 400 408
f 413 408 407
f 341 384 386
f 386 384 383
f 229 228 284
f 344 282 343
f 327 328 264
f 266 204 265
f 265 204 264
f 221 160 220
f 160 219 220
f 220 277 221
f 220 276 277
f 220 219 275
f 275 276 220
f 217 274 218
f 218 274 275
f 275 219 218
f 160 217 218
f 218 219 160
f 332 275 273
f 273 272 332
f 272 271 332
f 332 271 270
f 270 269 332
f 300 269 301
f 238 300 301
f 324 269 300
f 323 332 324
f 324 332 269
f 272 215 214
f 214 215 160
f 102 97 133
f 97 132 133
f 133 98 102
f 133 132 98
f 129 163 164
f 164 165 129
f 164 163 171
f 171 165 164
f 171 167 166
f 166 165 171
f 167 129 166
f 129 165 166
f 171 170 169
f 169 168 171
f 169 170 129
f 129 168 169
f 56 55 71
f 71 57 56
f 29 55 56
f 56 57 29
f 61 60 71
f 71 62 61
f 29 60 61
f 61 62 29
f 29 62 45
f 45 62 71
f 76 77 48
f 29 47 48
f 47 76 48
f 24 25 15
f 15 23 24
f 38 25 24
f 24 23 38
f 27 28 15
f 15 26 27
f 38 28 27
f 27 26 38
f 314 256 319
f 253 256 314
f 319 362 314
f 314 362 361
f 319 256 255
f 255 317 319
f 254 317 255
f 194 254 255
f 255 256 194
f 74 73 118
f 73 117 118
f 147 148 118
f 116 147 118
f 118 117 116
f 119 74 118
f 118 148 119
f 184 144 183
f 184 145 144
f 186 145 185
f 185 247 186
f 186 249 188
f 186 247 249
f 188 251 189
f 306 309 307
f 307 244 306
f 309 244 307
f 304 243 303
f 304 305 243
f 407 406 391
f 391 403 390
f 396 402 398
f 398 359 396
f 393 392 414
f 392 403 414
f 394 414 403
f 393 414 394
f 394 347 393
f 394 395 347
f 350 349 396
f 396 351 350
f 350 351 290
f 291 351 352
f 292 291 352
f 352 351 396
f 396 397 352
f 352 357 353
f 352 397 357
f 347 349 348
f 348 287 347
f 126 121 78
f 78 125 126
f 78 123 124
f 124 125 78
f 154 124 123
f 63 85 86
f 84 85 63
f 40 65 30
f 40 30 16
f 81 82 63
f 122 123 78
f 78 93 122
f 92 93 63
f 372 327 325
f 264 263 325
f 325 327 264
f 365 406 366
f 365 364 406
f 316 317 254
f 316 365 366
f 364 365 316
f 406 364 363
f 363 394 403
f 363 398 402
f 402 395 363
f 395 394 363
f 388 386 383
f 388 413 407
f 344 343 388
f 388 343 386
f 407 391 388
f 285 286 229
f 229 284 285
f 346 390 392
f 392 347 346
f 346 285 284
f 286 285 346
f 346 287 286
f 347 287 346
f 342 282 341
f 342 343 282
f 372 377 376
f 376 377 328
f 376 327 372
f 328 327 376
f 383 377 409
f 372 408 409
f 409 377 372
f 337 338 275
f 340 384 341
f 340 278 275
f 340 279 278
f 383 384 340
f 340 280 279
f 341 280 340
f 375 337 368
f 260 258 207
f 341 282 281
f 281 280 341
f 213 160 212
f 213 214 160
f 49 50 29
f 51 52 29
f 29 50 51
f 51 71 52
f 146 186 188
f 188 189 146
f 145 186 146
f 116 145 146
f 146 147 116
f 146 148 147
f 146 189 148
f 190 189 251
f 191 149 190
f 190 251 191
f 149 148 190
f 148 189 190
f 245 244 308
f 245 248 244
f 185 248 245
f 308 246 245
f 246 185 245
f 187 248 185
f 185 145 187
f 145 184 187
f 187 184 183
f 183 244 187
f 244 248 187
f 344 388 389
f 389 388 391
f 405 391 406
f 406 363 405
f 311 250 310
f 310 359 311
f 155 156 125
f 207 156 155
f 125 124 155
f 124 154 155
f 157 126 125
f 125 156 157
f 203 263 204
f 204 154 203
f 153 157 156
f 121 126 153
f 126 157 153
f 63 86 87
f 63 82 83
f 83 84 63
f 39 16 38
f 39 40 16
f 63 65 80
f 80 81 63
f 63 89 90
f 399 401 372
f 362 401 399
f 361 362 399
f 366 317 367
f 367 316 366
f 317 316 367
f 364 316 315
f 315 363 364
f 315 316 254
f 250 311 312
f 413 388 412
f 408 413 412
f 412 409 408
f 386 343 387
f 343 342 387
f 341 386 387
f 387 342 341
f 328 377 378
f 378 377 383
f 383 385 378
f 264 328 329
f 375 385 380
f 380 337 375
f 275 338 339
f 339 340 275
f 338 337 339
f 382 385 383
f 383 340 382
f 382 340 385
f 336 337 275
f 336 368 337
f 335 336 275
f 368 336 335
f 369 368 334
f 334 335 275
f 323 324 320
f 320 260 323
f 322 332 323
f 323 260 322
f 268 260 207
f 258 260 198
f 390 346 345
f 345 391 390
f 345 389 391
f 344 389 345
f 345 346 284
f 345 284 283
f 283 344 345
f 403 391 404
f 391 405 404
f 404 363 403
f 404 405 363
f 205 154 204
f 204 155 205
f 205 155 154
f 207 155 206
f 152 153 196
f 127 121 152
f 121 153 152
f 152 158 127
f 195 158 152
f 258 196 202
f 196 153 202
f 207 258 202
f 88 89 63
f 63 87 88
f 91 92 63
f 63 90 91
f 372 325 371
f 371 399 372
f 318 315 254
f 363 315 318
f 383 409 411
f 409 412 411
f 411 388 383
f 411 412 388
f 410 385 375
f 410 378 385
f 375 374 410
f 374 378 410
f 326 265 264
f 264 329 326
f 375 368 326
f 326 374 375
f 266 265 326
f 381 339 337
f 381 380 385
f 337 380 381
f 385 340 381
f 340 339 381
f 368 335 379
f 379 334 368
f 335 334 379
f 275 332 333
f 333 334 275
f 332 322 370
f 370 333 332
f 369 334 370
f 334 333 370
f 262 320 324
f 260 320 262
f 262 261 260
f 266 326 330
f 330 326 368
f 260 261 259
f 259 198 260
f 208 155 204
f 208 206 155
f 208 204 266
f 266 207 208
f 207 206 208
f 197 152 196
f 198 152 197
f 197 196 258
f 258 198 197
f 200 156 207
f 200 153 156
f 313 318 254
f 312 318 313
f 254 252 313
f 313 252 250
f 250 312 313
f 360 318 312
f 360 312 311
f 398 363 360
f 363 318 360
f 359 398 360
f 360 311 359
f 373 326 329
f 328 378 373
f 373 329 328
f 373 378 374
f 374 326 373
f 321 322 260
f 321 370 322
f 369 370 321
f 321 368 369
f 260 268 321
f 266 330 267
f 267 330 268
f 267 207 266
f 267 268 207
f 199 259 261
f 199 262 257
f 261 262 199
f 199 257 195
f 195 152 199
f 199 152 198
f 198 259 199
f 207 202 201
f 201 200 207
f 201 202 153
f 153 200 201
f 268 330 331
f 331 321 268
f 331 330 368
f 368 321 331
f 136 104 135
f 104 103 135
f 302 242 298
f 298 297 302
f 298 242 241
f 241 299 298
f 9 8 128
f 128 103 70
f 128 18 14
f 128 64 94
f 128 30 64
f 128 236 181
f 4 11 128
f 209 237 128
f 14 13 128
f 181 180 128
f 128 178 177
f 128 42 19
f 128 159 209
f 177 174 128
f 70 69 128
f 19 18 128
f 128 180 179
f 179 178 128
f 128 135 103
f 16 30 128
f 128 5 4
f 128 237 236
f 128 13 9
f 128 69 66
f 66 42 128
f 128 174 135
f 6 5 128
f 128 8 6
f 128 11 16
f 129 232 161
f 129 160 232
f 221 277 278
f 278 222 221
f 356 302 297
f 303 302 356
f 282 283 227
f 227 226 282
f 217 216 274
f 274 216 273
f 269 270 212
f 212 211 269
f 222 278 279
f 279 223 222
f 136 175 176
f 176 175 238
f 210 104 136
f 210 97 104
f 210 129 97
f 160 129 210
f 136 176 210
f 210 176 239
f 29 15 68
f 68 7 12
f 68 1 2
f 15 10 68
f 68 172 171
f 171 235 68
f 68 173 172
f 68 235 182
f 68 134 173
f 68 47 29
f 182 137 68
f 2 7 68
f 12 17 68
f 68 44 43
f 68 3 1
f 68 114 72
f 68 17 41
f 41 44 68
f 98 134 68
f 68 137 114
f 68 10 3
f 72 47 68
f 295 354 305
f 305 296 295
f 227 283 284
f 284 228 227
f 301 269 211
f 301 210 239
f 211 210 301
f 239 176 301
f 301 176 238
f 223 279 280
f 224 223 280
f 45 15 29
f 45 20 15
f 45 71 46
f 45 46 20
f 303 356 304
f 304 356 355
f 296 305 304
f 355 296 304
f 289 349 350
f 350 290 289
f 353 293 352
f 352 293 292
f 348 349 289
f 289 288 348
f 288 231 348
f 231 287 348
f 281 282 226
f 281 226 225
f 224 280 281
f 225 224 281
f 212 270 213
f 270 271 213
f 213 271 272
f 272 214 213
f 29 48 49
f 49 48 77
f 193 253 371
f 38 46 371
f 371 151 193
f 46 71 371
f 123 122 371
f 371 154 123
f 120 151 371
f 371 49 77
f 371 80 65
f 361 399 371
f 371 77 120
f 263 203 371
f 371 83 82
f 82 81 371
f 371 314 361
f 371 90 89
f 253 314 371
f 71 51 371
f 371 86 85
f 85 84 371
f 65 40 371
f 371 39 38
f 371 122 93
f 93 92 371
f 371 325 263
f 50 49 371
f 371 51 50
f 371 203 154
f 371 87 86
f 84 83 371
f 40 39 371
f 81 80 371
f 89 88 371
f 92 91 371
f 371 88 87
f 371 91 90
f 262 324 300
f 300 257 262
