v 0.024328 0.016431 0.016413
v 0.024829 0.016405 0.016413
v 0.024328 0.016419 0.008517
v 0.024126 0.016405 0.016413
v 0.025078 0.016345 0.016413
v 0.024829 0.016392 0.008517
v 0.023827 0.016342 0.008517
v 0.023827 0.016359 0.016413
v 0.025262 0.016299 0.016413
v 0.025247 0.016290 0.008517
v 0.024980 0.016355 0.008517
v 0.023513 0.016260 0.008517
v 0.023503 0.016271 0.016413
v 0.025512 0.016211 0.016413
v 0.025496 0.016205 0.008517
v 0.023262 0.016160 0.008517
v 0.023354 0.016211 0.016413
v 0.025710 0.016107 0.016413
v 0.025831 0.016029 0.008517
v 0.023086 0.016080 0.016413
v 0.022984 0.016024 0.008517
v 0.025831 0.016037 0.016413
v 0.026032 0.015907 0.016413
v 0.026169 0.015809 0.008517
v 0.022827 0.015953 0.016413
v 0.022827 0.015947 0.008517
v 0.026171 0.015812 0.016413
v 0.026328 0.015656 0.008517
v 0.022693 0.015883 0.016413
v 0.022510 0.015772 0.008517
v 0.022504 0.015780 0.016413
v 0.026420 0.015569 0.016413
v 0.026419 0.015567 0.008517
v 0.022260 0.015632 0.008517
v 0.021709 0.015337 0.016413
v 0.026651 0.015318 0.016413
v 0.026647 0.015317 0.008517
v 0.021824 0.015389 0.008517
v 0.021404 0.015167 0.016413
v 0.026737 0.015182 0.016413
v 0.026778 0.015105 0.008517
v 0.021311 0.015101 0.008517
v 0.014945 0.011540 0.008517
v 0.016113 0.012204 0.016413
v 0.026859 0.014983 0.016413
v 0.026852 0.014983 0.008517
v 0.014815 0.011467 0.008517
v 0.014815 0.011475 0.016413
v 0.026931 0.014837 0.016413
v 0.026970 0.014721 0.008517
v 0.014486 0.011277 0.008517
v 0.014483 0.011283 0.016413
v 0.027042 0.014592 0.016413
v 0.027037 0.014572 0.008517
v 0.014395 0.011217 0.008517
v 0.014334 0.011185 0.016413
v 0.027118 0.014342 0.016413
v 0.027062 0.014481 0.008517
v 0.014236 0.011110 0.008517
v 0.014232 0.011111 0.016413
v 0.027150 0.014184 0.016413
v 0.027106 0.014321 0.008517
v 0.013910 0.010860 0.008517
v 0.013910 0.010861 0.016413
v 0.027184 0.013982 0.016413
v 0.027162 0.013982 0.008517
v 0.013819 0.010773 0.008517
v 0.013760 0.010718 0.016413
v 0.027202 0.013481 0.016413
v 0.027180 0.013481 0.008517
v 0.013658 0.010619 0.008517
v 0.013658 0.010620 0.016413
v 0.027135 0.013066 0.016413
v 0.027124 0.013085 0.008517
v 0.013576 0.010519 0.016413
v 0.013460 0.010370 0.008517
v 0.027092 0.012917 0.016413
v 0.027051 0.012836 0.008517
v 0.013459 0.010370 0.016413
v 0.013381 0.010227 0.008517
v 0.013234 0.009977 0.016413
v 0.027057 0.012815 0.016413
v 0.026958 0.012608 0.008517
v 0.013241 0.009977 0.008517
v 0.013089 0.009642 0.016413
v 0.026912 0.012480 0.016413
v 0.026905 0.012480 0.008517
v 0.013188 0.009849 0.008517
v 0.013095 0.009621 0.008517
v 0.013054 0.009540 0.016413
v 0.026687 0.012087 0.016413
v 0.026686 0.012087 0.008517
v 0.026765 0.012230 0.008517
v 0.013022 0.009372 0.008517
v 0.013011 0.009391 0.016413
v 0.026570 0.011938 0.016413
v 0.026487 0.011837 0.008517
v 0.012966 0.008976 0.008517
v 0.012944 0.008976 0.016413
v 0.026487 0.011836 0.016413
v 0.026386 0.011739 0.016413
v 0.026327 0.011684 0.008517
v 0.012984 0.008475 0.008517
v 0.012962 0.008475 0.016413
v 0.026236 0.011596 0.016413
v 0.026236 0.011597 0.008517
v 0.013040 0.008136 0.008517
v 0.012995 0.008273 0.016413
v 0.025914 0.011346 0.016413
v 0.025910 0.011347 0.008517
v 0.013028 0.008115 0.016413
v 0.013083 0.007976 0.008517
v 0.025812 0.011272 0.016413
v 0.025751 0.011240 0.008517
v 0.013104 0.007865 0.016413
v 0.013108 0.007885 0.008517
v 0.025663 0.011173 0.016413
v 0.025660 0.011180 0.008517
v 0.013175 0.007736 0.008517
v 0.013215 0.007620 0.016413
v 0.025330 0.010982 0.016413
v 0.025330 0.010990 0.008517
v 0.013294 0.007474 0.008517
v 0.013287 0.007474 0.016413
v 0.025201 0.010917 0.008517
v 0.024032 0.010253 0.016413
v 0.013368 0.007352 0.008517
v 0.013409 0.007275 0.016413
v 0.018741 0.007290 0.016413
v 0.018835 0.007355 0.008517
v 0.013499 0.007140 0.008517
v 0.013495 0.007139 0.016413
v 0.018437 0.007120 0.016413
v 0.018321 0.007068 0.008517
v 0.013727 0.006890 0.008517
v 0.013725 0.006888 0.016413
v 0.017642 0.006677 0.016413
v 0.017636 0.006685 0.008517
v 0.017886 0.006825 0.008517
v 0.013818 0.006801 0.008517
v 0.013975 0.006645 0.016413
v 0.017453 0.006574 0.016413
v 0.017319 0.006510 0.008517
v 0.013977 0.006648 0.008517
v 0.014113 0.006550 0.016413
v 0.017319 0.006504 0.016413
v 0.017162 0.006433 0.008517
v 0.014314 0.006428 0.008517
v 0.014314 0.006420 0.016413
v 0.017060 0.006377 0.016413
v 0.016884 0.006297 0.008517
v 0.014649 0.006251 0.008517
v 0.014436 0.006350 0.016413
v 0.016792 0.006246 0.016413
v 0.016642 0.006186 0.016413
v 0.016633 0.006196 0.008517
v 0.014634 0.006246 0.016413
v 0.014899 0.006167 0.008517
v 0.014884 0.006158 0.016413
v 0.016319 0.006098 0.016413
v 0.016319 0.006115 0.008517
v 0.015166 0.006102 0.008517
v 0.015068 0.006112 0.016413
v 0.016020 0.006052 0.016413
v 0.015818 0.006038 0.008517
v 0.015316 0.006065 0.008517
v 0.015316 0.006052 0.016413
v 0.015818 0.006026 0.016413
f 2 3 1
f 28 27 32
f 8 7 12
f 12 13 8
f 3 7 8
f 16 13 12
f 156 155 160
f 152 159 157
f 53 57 54
f 66 65 69
f 66 62 65
f 32 36 33
f 33 28 32
f 86 91 92
f 29 25 26
f 26 31 29
f 1 3 4
f 3 8 4
f 13 16 17
f 26 25 21
f 81 79 76
f 48 51 52
f 95 94 99
f 159 152 158
f 46 45 49
f 65 62 61
f 62 57 61
f 58 57 62
f 58 54 57
f 37 33 36
f 36 40 37
f 27 28 24
f 15 9 14
f 92 91 96
f 97 96 100
f 92 96 97
f 100 101 97
f 109 106 105
f 117 118 113
f 117 121 118
f 151 155 156
f 30 35 31
f 30 31 26
f 20 21 25
f 16 21 20
f 20 17 16
f 85 81 84
f 76 79 75
f 71 75 72
f 76 75 71
f 72 68 71
f 60 63 64
f 43 48 44
f 43 44 39
f 39 42 43
f 116 115 111
f 159 158 163
f 165 168 167
f 165 164 168
f 160 164 165
f 46 49 50
f 50 49 53
f 53 54 50
f 73 74 69
f 70 66 69
f 69 74 70
f 82 86 87
f 41 37 40
f 41 40 45
f 41 45 46
f 18 22 19
f 19 15 18
f 18 15 14
f 27 24 23
f 23 24 19
f 19 22 23
f 10 5 9
f 9 15 10
f 102 101 105
f 105 106 102
f 102 97 101
f 106 109 110
f 110 109 113
f 118 121 122
f 121 125 122
f 142 143 137
f 142 146 143
f 155 151 154
f 143 146 147
f 35 30 34
f 80 81 76
f 80 84 81
f 89 90 85
f 95 90 89
f 94 95 89
f 67 68 64
f 64 63 67
f 67 71 68
f 63 60 59
f 51 48 47
f 48 43 47
f 104 103 107
f 98 104 99
f 98 103 104
f 99 94 98
f 148 149 145
f 153 149 148
f 153 148 152
f 153 152 157
f 132 135 136
f 144 145 141
f 148 145 144
f 166 165 167
f 167 163 166
f 156 160 161
f 160 165 161
f 78 77 82
f 73 77 78
f 74 73 78
f 93 86 92
f 93 87 86
f 2 5 6
f 3 2 6
f 113 118 114
f 114 110 113
f 126 125 121
f 126 129 125
f 150 147 146
f 151 147 150
f 150 154 151
f 39 35 38
f 35 34 38
f 38 42 39
f 85 84 88
f 88 89 85
f 56 59 60
f 52 51 56
f 104 107 108
f 108 107 111
f 116 111 112
f 111 107 112
f 132 128 131
f 131 135 132
f 140 144 141
f 141 136 140
f 140 136 135
f 162 163 158
f 162 166 163
f 82 87 83
f 83 78 82
f 5 10 11
f 11 6 5
f 125 129 130
f 129 134 130
f 137 143 138
f 55 56 51
f 59 56 55
f 127 128 124
f 127 131 128
f 137 138 133
f 133 134 129
f 124 120 123
f 123 127 124
f 134 133 139
f 139 133 138
f 119 123 120
f 119 120 115
f 119 115 116
f 113 109 133
f 133 20 25
f 69 65 133
f 64 68 133
f 14 9 133
f 133 2 1
f 32 27 133
f 85 90 133
f 105 101 133
f 133 36 32
f 133 35 39
f 65 61 133
f 133 5 2
f 168 164 133
f 133 163 167
f 133 117 113
f 1 4 133
f 133 153 157
f 133 48 52
f 167 168 133
f 133 160 155
f 133 128 132
f 133 57 53
f 91 86 133
f 133 73 69
f 25 29 133
f 133 8 13
f 133 142 137
f 79 81 133
f 39 44 133
f 99 104 133
f 9 5 133
f 133 95 99
f 157 159 133
f 53 49 133
f 133 40 36
f 133 86 82
f 133 96 91
f 27 23 133
f 133 29 31
f 31 35 133
f 133 4 8
f 13 17 133
f 133 81 85
f 133 75 79
f 44 48 133
f 133 150 146
f 133 111 115
f 155 154 133
f 133 164 160
f 133 49 45
f 45 40 133
f 133 61 57
f 133 18 14
f 100 96 133
f 133 101 100
f 133 109 105
f 121 117 133
f 104 108 133
f 17 20 133
f 72 75 133
f 133 68 72
f 133 60 64
f 52 56 133
f 115 120 133
f 133 90 95
f 141 145 133
f 159 163 133
f 133 136 141
f 22 18 133
f 133 23 22
f 82 77 133
f 146 142 133
f 133 126 121
f 133 120 124
f 124 128 133
f 133 145 149
f 149 153 133
f 132 136 133
f 133 77 73
f 129 126 133
f 154 150 133
f 133 56 60
f 133 108 111
f 119 140 135
f 3 6 119
f 119 41 46
f 66 70 119
f 119 7 3
f 119 30 26
f 119 24 28
f 12 7 119
f 26 21 119
f 119 151 156
f 51 47 119
f 119 58 62
f 119 16 12
f 76 71 119
f 119 138 143
f 125 130 119
f 116 112 119
f 62 66 119
f 28 33 119
f 74 78 119
f 119 102 106
f 92 97 119
f 119 21 16
f 119 67 63
f 152 148 119
f 119 158 152
f 54 58 119
f 46 50 119
f 33 37 119
f 19 24 119
f 119 15 19
f 119 93 92
f 119 114 118
f 118 122 119
f 143 147 119
f 119 80 76
f 94 89 119
f 119 43 42
f 119 88 84
f 119 98 94
f 148 144 119
f 119 50 54
f 119 70 74
f 156 161 119
f 37 41 119
f 119 10 15
f 97 102 119
f 106 110 119
f 119 122 125
f 119 147 151
f 119 34 30
f 84 80 119
f 42 38 119
f 71 67 119
f 63 59 119
f 119 47 43
f 119 107 103
f 103 98 119
f 119 55 51
f 165 166 119
f 119 161 165
f 119 162 158
f 87 93 119
f 119 83 87
f 110 114 119
f 119 11 10
f 119 38 34
f 89 88 119
f 119 112 107
f 135 131 119
f 144 140 119
f 166 162 119
f 78 83 119
f 6 11 119
f 119 130 134
f 134 139 119
f 59 55 119
f 131 127 119
f 127 123 119
f 119 139 138
