v -0.015234 -0.001880 -0.002800
v -0.013933 -0.001686 -0.002800
v -0.015223 -0.001878 -0.001609
v -0.015234 -0.001880 -0.001609
v -0.016476 -0.001446 -0.002800
v -0.015999 -0.000860 -0.006600
v -0.015003 -0.001142 -0.006600
v -0.012870 -0.000909 -0.002800
v -0.013924 -0.001680 -0.001609
v -0.013933 -0.001686 -0.001609
v -0.014000 -0.000888 -0.006600
v -0.016476 -0.001446 -0.001609
v -0.017368 -0.000492 -0.001609
v -0.017375 -0.000484 -0.002800
v -0.016721 -0.000118 -0.006600
v -0.015743 -0.000430 -0.007100
v -0.014996 -0.000642 -0.007100
v -0.012289 0.000272 -0.002800
v -0.012870 -0.000909 -0.001609
v -0.013258 -0.000165 -0.006600
v -0.014243 -0.000451 -0.007100
v -0.017375 -0.000484 -0.001609
v -0.017724 0.000785 -0.002800
v -0.016975 0.000884 -0.006600
v -0.016475 0.000878 -0.007100
v -0.016284 0.000126 -0.007100
v -0.012325 0.001586 -0.002800
v -0.012289 0.000282 -0.001609
v -0.012289 0.000272 -0.001609
v -0.012976 0.000831 -0.006600
v -0.013687 0.000091 -0.007100
v -0.013476 0.000837 -0.007100
v -0.017724 0.000785 -0.001609
v -0.017443 0.002070 -0.002800
v -0.016693 0.001881 -0.006600
v -0.016264 0.001625 -0.007100
v -0.012576 0.002200 -0.002800
v -0.012325 0.001586 -0.001609
v -0.013230 0.001834 -0.006600
v -0.013667 0.001590 -0.007100
v -0.017443 0.002070 -0.001609
v -0.016603 0.003070 -0.001609
v -0.016597 0.003078 -0.002800
v -0.015951 0.002603 -0.006600
v -0.015708 0.002166 -0.007100
v -0.012967 0.002735 -0.002800
v -0.012576 0.002200 -0.001609
v -0.013952 0.002575 -0.006600
v -0.014208 0.002146 -0.007100
v -0.016597 0.003078 -0.001609
v -0.015379 0.003577 -0.002800
v -0.014949 0.002857 -0.006600
v -0.014955 0.002357 -0.007100
v -0.014070 0.003453 -0.002800
v -0.012967 0.002735 -0.001609
v -0.015379 0.003577 -0.001609
v -0.014080 0.003454 -0.001609
v -0.014070 0.003453 -0.001609
f 8 20 18
f 35 34 43
f 23 15 14
f 14 15 5
f 48 46 39
f 20 32 30
f 18 20 30
f 30 27 18
f 39 27 30
f 5 15 6
f 6 1 5
f 7 1 6
f 6 15 16
f 39 46 37
f 37 27 39
f 35 43 44
f 51 52 44
f 44 43 51
f 16 15 26
f 15 25 26
f 24 25 15
f 24 15 23
f 23 34 24
f 24 34 35
f 40 48 39
f 39 30 40
f 40 30 32
f 46 48 54
f 54 52 51
f 54 48 52
f 4 1 3
f 3 1 2
f 2 1 7
f 31 32 20
f 20 21 31
f 17 6 16
f 7 6 17
f 42 43 34
f 28 29 18
f 18 27 28
f 45 44 52
f 35 44 45
f 13 22 14
f 5 12 13
f 13 14 5
f 11 2 7
f 11 21 20
f 20 8 11
f 8 2 11
f 11 17 21
f 7 17 11
f 41 42 34
f 43 42 50
f 3 2 10
f 38 28 27
f 53 45 52
f 52 48 53
f 35 45 36
f 36 24 35
f 25 24 36
f 57 58 54
f 51 56 57
f 57 54 51
f 8 19 9
f 9 2 8
f 9 10 2
f 48 40 49
f 49 53 48
f 22 33 23
f 23 14 22
f 4 12 5
f 5 1 4
f 19 8 18
f 18 29 19
f 58 55 46
f 46 54 58
f 23 33 41
f 41 34 23
f 50 56 51
f 51 43 50
f 33 22 47
f 47 4 3
f 55 58 47
f 47 13 12
f 56 50 47
f 3 10 47
f 12 4 47
f 47 41 33
f 47 19 29
f 29 28 47
f 22 13 47
f 47 9 19
f 42 41 47
f 47 50 42
f 47 57 56
f 28 38 47
f 58 57 47
f 10 9 47
f 46 55 47
f 47 37 46
f 27 37 47
f 47 38 27
f 16 26 49
f 32 31 49
f 49 40 32
f 49 26 25
f 49 17 16
f 49 31 21
f 21 17 49
f 25 36 49
f 45 53 49
f 49 36 45
