v -0.002619 -0.000925 0.009300
v -0.002619 0.000169 0.009139
v -0.002619 -0.004558 0.009300
v -0.000029 -0.002799 0.009300
v -0.002480 0.000169 0.009000
v -0.002619 0.000169 0.004461
v -0.002619 -0.004858 0.009000
v -0.001724 -0.004609 0.009300
v -0.000029 -0.004546 0.009300
v -0.000029 -0.002794 0.009296
v -0.002480 0.000169 0.004600
v -0.000029 -0.002499 0.009000
v -0.002619 -0.000925 0.004300
v -0.002554 0.000169 0.004526
v -0.000029 -0.002799 0.004300
v -0.002619 -0.004858 0.004600
v -0.001741 -0.004908 0.009000
v -0.000029 -0.004844 0.009000
v -0.000029 -0.002499 0.004600
v -0.002619 -0.004558 0.004300
v -0.000029 -0.004546 0.004300
v -0.001741 -0.004908 0.004600
v -0.002619 -0.004843 0.004585
v -0.000029 -0.004844 0.004600
v -0.001724 -0.004609 0.004300
f 1 4 2
f 4 5 2
f 17 18 8
f 3 7 8
f 8 7 17
f 9 8 18
f 10 5 4
f 10 12 5
f 6 15 13
f 15 11 19
f 14 11 15
f 15 6 14
f 22 16 23
f 25 23 20
f 22 23 25
f 21 24 25
f 25 24 22
f 1 3 9
f 9 4 1
f 3 8 9
f 19 11 5
f 5 12 19
f 15 19 24
f 4 9 24
f 21 15 24
f 24 10 4
f 24 9 18
f 12 10 24
f 24 19 12
f 24 18 17
f 17 22 24
f 16 22 17
f 17 7 16
f 14 6 2
f 14 2 5
f 5 11 14
f 23 3 1
f 23 6 13
f 23 7 3
f 1 2 23
f 2 6 23
f 23 16 7
f 13 20 23
f 25 15 21
f 25 20 13
f 13 15 25
