v -0.007272 -0.005930 -0.007201
v -0.007628 -0.005955 -0.006492
v -0.007318 -0.005933 -0.006846
v -0.007318 -0.005934 -0.006447
v -0.007272 -0.005932 -0.005783
v -0.006917 -0.005942 -0.005783
v -0.006917 -0.005941 -0.006492
v -0.006917 -0.005941 -0.007201
v -0.006917 -0.005970 -0.007556
v -0.007272 -0.005961 -0.007556
v -0.007628 -0.005955 -0.007201
v -0.007272 -0.005934 -0.005197
v -0.007918 -0.006004 -0.007201
v -0.007910 -0.006004 -0.005783
v -0.007908 -0.006005 -0.005197
v -0.007628 -0.005957 -0.005783
v -0.006917 -0.005943 -0.005197
v -0.006564 -0.005982 -0.007201
v -0.006572 -0.006008 -0.007547
v -0.006917 -0.006016 -0.007759
v -0.006696 -0.006025 -0.007745
v -0.007272 -0.006012 -0.007766
v -0.007318 -0.006013 -0.007764
v -0.007557 -0.006020 -0.007754
v -0.007656 -0.005994 -0.007587
v -0.007881 -0.006013 -0.007489
v -0.007628 -0.005960 -0.005197
v -0.008095 -0.006048 -0.007201
v -0.008085 -0.006051 -0.005197
v -0.006564 -0.005988 -0.005197
v -0.006564 -0.005987 -0.005428
v -0.006356 -0.006024 -0.005428
v -0.006351 -0.006022 -0.006846
v -0.006350 -0.006022 -0.007201
v -0.006362 -0.006025 -0.007424
v -0.006461 -0.006044 -0.007660
v -0.006917 -0.006179 -0.007936
v -0.007272 -0.006174 -0.007943
v -0.005854 -0.006315 -0.007828
v -0.006241 -0.006280 -0.007930
v -0.006381 -0.006385 -0.008089
v -0.007318 -0.006150 -0.007913
v -0.007656 -0.006155 -0.007887
v -0.007793 -0.006033 -0.007726
v -0.007992 -0.006057 -0.007587
v -0.008337 -0.006151 -0.007556
v -0.008249 -0.006098 -0.005197
v -0.008337 -0.006121 -0.007201
v -0.008337 -0.006124 -0.005197
v -0.006358 -0.006024 -0.005197
v -0.006180 -0.006072 -0.005197
v -0.006177 -0.006071 -0.005783
v -0.006173 -0.006071 -0.006846
v -0.006172 -0.006071 -0.007201
v -0.005854 -0.006177 -0.007201
v -0.005854 -0.006210 -0.007556
v -0.006230 -0.006083 -0.007547
v -0.005625 -0.006362 -0.007768
v -0.006564 -0.006373 -0.008097
v -0.006917 -0.006356 -0.008107
v -0.007272 -0.006352 -0.008110
v -0.007318 -0.006353 -0.008109
v -0.007628 -0.006362 -0.008104
v -0.005854 -0.006491 -0.008006
v -0.006145 -0.006431 -0.008062
v -0.005626 -0.006717 -0.008101
v -0.005854 -0.006668 -0.008120
v -0.006241 -0.006555 -0.008127
v -0.007859 -0.006376 -0.008095
v -0.007979 -0.006258 -0.007940
v -0.008337 -0.006284 -0.007862
v -0.008626 -0.006338 -0.007798
v -0.008862 -0.006389 -0.007719
v -0.008723 -0.006305 -0.007583
v -0.008692 -0.006255 -0.007201
v -0.008692 -0.006255 -0.006846
v -0.008692 -0.006260 -0.005197
v -0.006066 -0.006109 -0.005197
v -0.005854 -0.006178 -0.006137
v -0.005854 -0.006177 -0.006846
v -0.005534 -0.006315 -0.007201
v -0.005566 -0.006332 -0.007556
v -0.005389 -0.006422 -0.007556
v -0.004963 -0.006737 -0.007739
v -0.005145 -0.006677 -0.007807
v -0.005507 -0.006570 -0.007915
v -0.006564 -0.006565 -0.008150
v -0.006917 -0.006565 -0.008161
v -0.007272 -0.006565 -0.008163
v -0.007318 -0.006565 -0.008162
v -0.007628 -0.006565 -0.008157
v -0.007979 -0.006542 -0.008133
v -0.005390 -0.006787 -0.008063
v -0.005221 -0.007023 -0.008115
v -0.005505 -0.006910 -0.008134
v -0.005854 -0.006918 -0.008173
v -0.008337 -0.006633 -0.008130
v -0.008096 -0.006409 -0.008077
v -0.008337 -0.006455 -0.008040
v -0.008744 -0.006541 -0.007942
v -0.010193 -0.007118 -0.007845
v -0.010193 -0.007048 -0.007743
v -0.010193 -0.006943 -0.007556
v -0.010193 -0.006862 -0.007201
v -0.010193 -0.006855 -0.006846
v -0.010193 -0.006855 -0.006137
v -0.010193 -0.006856 -0.005290
v -0.010193 -0.006857 -0.005197
v -0.005854 -0.006180 -0.005197
v -0.005854 -0.006180 -0.005428
v -0.005536 -0.006315 -0.006846
v -0.005357 -0.006406 -0.007201
v -0.005145 -0.006577 -0.007556
v -0.004984 -0.007111 -0.008082
v -0.005119 -0.006910 -0.008002
v -0.004939 -0.006719 -0.007556
v -0.004762 -0.006874 -0.007556
v -0.004568 -0.007051 -0.007556
v -0.004597 -0.007079 -0.007754
v -0.004823 -0.006944 -0.007816
v -0.006209 -0.006918 -0.008189
v -0.006564 -0.006918 -0.008194
v -0.006917 -0.006918 -0.008195
v -0.007318 -0.006918 -0.008195
v -0.007628 -0.006919 -0.008195
v -0.007982 -0.006919 -0.008192
v -0.008337 -0.006919 -0.008183
v -0.004867 -0.007348 -0.008117
v -0.005119 -0.007247 -0.008143
v -0.005499 -0.007273 -0.008188
v -0.008723 -0.006887 -0.008143
v -0.008625 -0.006692 -0.008112
v -0.008861 -0.006747 -0.008086
v -0.010193 -0.008354 -0.008122
v -0.009259 -0.007069 -0.008101
v -0.009613 -0.007412 -0.008103
v -0.009942 -0.007792 -0.008092
v -0.010193 -0.009534 -0.005197
v -0.005543 -0.006317 -0.005197
v -0.005542 -0.006317 -0.005428
v -0.005360 -0.006408 -0.006492
v -0.005145 -0.006552 -0.005197
v -0.005145 -0.006544 -0.007201
v -0.004765 -0.007247 -0.008021
v -0.004631 -0.007470 -0.008081
v -0.004918 -0.006702 -0.007201
v -0.004741 -0.006855 -0.007201
v -0.004548 -0.007032 -0.007201
v -0.004371 -0.007228 -0.007201
v -0.004235 -0.007421 -0.007495
v -0.004364 -0.007291 -0.007590
v -0.004259 -0.007452 -0.007732
v -0.004512 -0.007273 -0.007832
v -0.005854 -0.007273 -0.008195
v -0.008337 -0.007273 -0.008195
v -0.008692 -0.007273 -0.008192
v -0.009046 -0.007273 -0.008175
v -0.004765 -0.007604 -0.008143
v -0.004545 -0.007707 -0.008115
v -0.005145 -0.007629 -0.008190
v -0.009046 -0.006991 -0.008122
v -0.010193 -0.008606 -0.008146
v -0.009993 -0.007982 -0.008112
v -0.009756 -0.007982 -0.008164
v -0.009387 -0.007285 -0.008125
v -0.009741 -0.007656 -0.008120
v -0.010193 -0.009534 -0.008166
v -0.010193 -0.011621 -0.005197
v -0.005366 -0.006412 -0.005197
v -0.005289 -0.006460 -0.005197
v -0.004918 -0.006703 -0.005197
v -0.004402 -0.007580 -0.007951
v -0.004309 -0.007883 -0.008058
v -0.004741 -0.006855 -0.006846
v -0.004741 -0.006858 -0.005428
v -0.004551 -0.007035 -0.005428
v -0.004372 -0.007228 -0.006492
v -0.004371 -0.007228 -0.006846
v -0.004224 -0.007405 -0.007201
v -0.004076 -0.007629 -0.007201
v -0.003950 -0.007897 -0.007556
v -0.004140 -0.007594 -0.007590
v -0.003888 -0.008126 -0.007756
v -0.004183 -0.007688 -0.007821
v -0.005145 -0.007982 -0.008195
v -0.009046 -0.007629 -0.008194
v -0.009401 -0.008337 -0.008195
v -0.009401 -0.007629 -0.008178
v -0.004791 -0.007982 -0.008188
v -0.004431 -0.007994 -0.008131
v -0.004436 -0.008337 -0.008170
v -0.004240 -0.008120 -0.008099
v -0.004791 -0.008337 -0.008195
v -0.010193 -0.009046 -0.008160
v -0.009756 -0.008337 -0.008189
v -0.010111 -0.009046 -0.008178
v -0.010193 -0.009401 -0.008166
v -0.010193 -0.009757 -0.008166
v -0.010193 -0.010002 -0.008164
v -0.010193 -0.011621 -0.008141
v -0.004031 -0.011621 -0.005197
v -0.004741 -0.006859 -0.005197
v -0.004094 -0.008005 -0.007907
v -0.004019 -0.008337 -0.007990
v -0.004675 -0.006921 -0.005197
v -0.004552 -0.007036 -0.005197
v -0.004374 -0.007233 -0.005197
v -0.004225 -0.007406 -0.006492
v -0.004224 -0.007405 -0.006846
v -0.004076 -0.007629 -0.006846
v -0.003933 -0.007864 -0.007201
v -0.003864 -0.008075 -0.007556
v -0.003755 -0.008337 -0.007556
v -0.003639 -0.008692 -0.007556
v -0.003846 -0.008337 -0.007813
v -0.009756 -0.008692 -0.008195
v -0.009401 -0.007982 -0.008193
v -0.009756 -0.009046 -0.008195
v -0.004436 -0.008692 -0.008187
v -0.004196 -0.008337 -0.008117
v -0.004133 -0.008692 -0.008134
v -0.003955 -0.008692 -0.008056
v -0.004436 -0.009046 -0.008192
v -0.004436 -0.009401 -0.008195
v -0.010111 -0.009401 -0.008183
v -0.010193 -0.009647 -0.008166
v -0.010111 -0.009534 -0.008183
v -0.010111 -0.009757 -0.008183
v -0.010111 -0.010111 -0.008179
v -0.009755 -0.010820 -0.008190
v -0.009401 -0.011530 -0.008185
v -0.009310 -0.011621 -0.008185
v -0.004028 -0.011621 -0.007201
v -0.003830 -0.011154 -0.006846
v -0.003833 -0.011153 -0.005428
v -0.003834 -0.011153 -0.005197
v -0.004229 -0.007410 -0.005197
v -0.004080 -0.007629 -0.005197
v -0.004079 -0.007629 -0.005428
v -0.004077 -0.007629 -0.006137
v -0.003984 -0.007782 -0.005197
v -0.003933 -0.007866 -0.005197
v -0.003849 -0.008041 -0.007201
v -0.003724 -0.008337 -0.007201
v -0.003607 -0.008692 -0.007201
v -0.003787 -0.008692 -0.007879
v -0.003555 -0.008912 -0.007201
v -0.003534 -0.009134 -0.007459
v -0.003570 -0.009028 -0.007568
v -0.003556 -0.009338 -0.007695
v -0.009756 -0.009534 -0.008195
v -0.004080 -0.009401 -0.008151
v -0.003919 -0.008936 -0.008081
v -0.004055 -0.009051 -0.008131
v -0.003898 -0.009172 -0.008092
v -0.004080 -0.009534 -0.008151
v -0.004080 -0.009757 -0.008153
v -0.004435 -0.009534 -0.008195
v -0.009755 -0.010466 -0.008195
v -0.009401 -0.011175 -0.008195
v -0.009046 -0.011530 -0.008195
v -0.008955 -0.011621 -0.008195
v -0.004057 -0.011621 -0.007556
v -0.003830 -0.011154 -0.007201
v -0.003694 -0.010820 -0.006846
v -0.003696 -0.010820 -0.006137
v -0.003786 -0.011036 -0.005197
v -0.003904 -0.007928 -0.005197
v -0.003852 -0.008043 -0.005197
v -0.003727 -0.008337 -0.005197
v -0.003608 -0.008692 -0.005428
v -0.003607 -0.008692 -0.006846
v -0.003777 -0.009051 -0.007942
v -0.003555 -0.008912 -0.005197
v -0.003528 -0.009089 -0.007201
v -0.003500 -0.009401 -0.007201
v -0.003528 -0.009434 -0.007568
v -0.003542 -0.009534 -0.007685
v -0.003549 -0.009534 -0.007727
v -0.003890 -0.009401 -0.008097
v -0.004008 -0.009534 -0.008131
v -0.003684 -0.009434 -0.007875
v -0.003886 -0.009757 -0.008099
v -0.003893 -0.010017 -0.008095
v -0.004050 -0.010126 -0.008134
v -0.004122 -0.010466 -0.008135
v -0.004435 -0.010466 -0.008189
v -0.004435 -0.010111 -0.008193
v -0.004435 -0.009757 -0.008195
v -0.008601 -0.011621 -0.008195
v -0.004158 -0.011621 -0.007829
v -0.003876 -0.011058 -0.007773
v -0.003846 -0.011121 -0.007556
v -0.003694 -0.010820 -0.007201
v -0.003593 -0.010466 -0.006137
v -0.003594 -0.010466 -0.005428
v -0.003699 -0.010820 -0.005197
v -0.003650 -0.008568 -0.005197
v -0.003608 -0.008692 -0.005197
v -0.003548 -0.009575 -0.007733
v -0.003587 -0.009534 -0.007775
v -0.003528 -0.009089 -0.005197
v -0.003500 -0.009401 -0.006846
v -0.003498 -0.009534 -0.007201
v -0.003518 -0.009534 -0.007455
v -0.003527 -0.009729 -0.007584
v -0.003804 -0.009534 -0.008007
v -0.003888 -0.009534 -0.008098
v -0.003678 -0.009729 -0.007875
v -0.003911 -0.010253 -0.008084
v -0.003769 -0.010126 -0.007944
v -0.004184 -0.010820 -0.008121
v -0.004435 -0.010820 -0.008174
v -0.004790 -0.011175 -0.008190
v -0.004790 -0.010820 -0.008195
v -0.005854 -0.011621 -0.008195
v -0.004299 -0.011621 -0.007962
v -0.004006 -0.010820 -0.008007
v -0.003831 -0.010820 -0.007830
v -0.003623 -0.010466 -0.007556
v -0.003727 -0.010820 -0.007556
v -0.003593 -0.010466 -0.007201
v -0.003550 -0.010275 -0.007201
v -0.003550 -0.010275 -0.006492
v -0.003595 -0.010466 -0.005197
v -0.003551 -0.010272 -0.005783
v -0.003580 -0.010396 -0.005197
v -0.003548 -0.009592 -0.007733
v -0.003502 -0.009401 -0.005197
v -0.003495 -0.009757 -0.007201
v -0.003532 -0.010043 -0.007484
v -0.003551 -0.009829 -0.007720
v -0.003779 -0.010466 -0.007886
v -0.003945 -0.010466 -0.008064
v -0.004231 -0.011065 -0.008103
v -0.004419 -0.011180 -0.008136
v -0.004790 -0.011530 -0.008162
v -0.005145 -0.011621 -0.008185
v -0.005145 -0.011530 -0.008192
v -0.005499 -0.011530 -0.008195
v -0.005499 -0.011621 -0.008193
v -0.004290 -0.011301 -0.008070
v -0.004576 -0.011621 -0.008101
v -0.003563 -0.010141 -0.007584
v -0.003524 -0.010098 -0.007201
v -0.003524 -0.010097 -0.006137
v -0.003525 -0.010085 -0.005197
v -0.003534 -0.010147 -0.005197
v -0.003553 -0.010263 -0.005197
v -0.003501 -0.009632 -0.005197
v -0.003501 -0.009534 -0.005295
v -0.003499 -0.009757 -0.005428
v -0.004544 -0.011530 -0.008112
v -0.004798 -0.011621 -0.008148
v -0.003500 -0.009757 -0.005197
f 9 10 1
f 104 73 103
f 105 75 104
f 74 73 104
f 104 75 74
f 135 136 101
f 14 15 2
f 57 36 35
f 1 7 8
f 8 9 1
f 35 36 19
f 9 8 19
f 19 36 21
f 21 9 19
f 102 73 101
f 102 103 73
f 133 135 101
f 101 73 72
f 76 77 49
f 49 48 76
f 76 48 75
f 137 134 101
f 101 136 137
f 310 312 286
f 286 284 310
f 294 321 320
f 129 94 128
f 95 94 129
f 136 135 165
f 216 196 195
f 195 217 216
f 188 217 195
f 195 196 162
f 29 15 14
f 73 74 46
f 46 74 75
f 75 48 46
f 44 72 46
f 46 72 73
f 14 2 13
f 21 41 37
f 44 25 24
f 24 25 10
f 39 36 58
f 21 36 39
f 35 19 18
f 18 19 8
f 18 34 35
f 18 8 7
f 58 84 85
f 85 84 115
f 100 133 101
f 101 72 100
f 99 133 100
f 100 72 99
f 71 72 44
f 99 72 71
f 132 133 98
f 98 133 99
f 99 71 98
f 91 127 97
f 132 98 97
f 97 98 69
f 145 172 173
f 152 172 145
f 352 355 347
f 352 347 330
f 303 302 329
f 303 304 276
f 303 329 330
f 330 304 303
f 245 247 214
f 276 304 277
f 166 137 136
f 136 165 166
f 166 165 188
f 310 284 311
f 152 183 184
f 184 172 152
f 173 172 184
f 246 273 253
f 253 222 246
f 253 273 255
f 257 284 285
f 285 286 257
f 284 286 285
f 263 291 292
f 292 320 321
f 288 289 257
f 330 345 331
f 144 145 114
f 115 84 114
f 84 120 114
f 128 94 114
f 114 145 128
f 115 114 93
f 93 114 94
f 93 85 115
f 257 224 256
f 186 187 216
f 216 217 186
f 186 188 156
f 186 217 188
f 216 187 218
f 230 259 260
f 162 196 194
f 200 167 199
f 162 134 164
f 164 195 162
f 188 195 164
f 164 166 188
f 262 232 261
f 260 259 261
f 316 340 341
f 56 57 35
f 35 55 56
f 58 36 56
f 36 57 56
f 1 4 5
f 12 17 5
f 5 2 12
f 5 4 2
f 1 2 3
f 3 4 1
f 2 4 3
f 16 27 12
f 12 2 16
f 15 27 16
f 16 2 15
f 28 29 14
f 14 13 28
f 28 47 29
f 28 46 48
f 49 47 28
f 28 48 49
f 1 10 11
f 10 25 11
f 11 2 1
f 11 13 2
f 21 37 20
f 20 9 21
f 10 9 20
f 20 22 10
f 22 20 38
f 38 20 37
f 61 38 60
f 60 38 37
f 10 22 23
f 23 24 10
f 22 38 23
f 188 165 157
f 156 188 157
f 157 127 156
f 40 41 21
f 21 39 40
f 34 18 33
f 6 18 7
f 17 18 6
f 6 5 17
f 6 7 1
f 1 5 6
f 118 151 152
f 70 71 44
f 70 98 71
f 44 69 70
f 69 98 70
f 91 97 92
f 92 97 69
f 92 63 91
f 69 63 92
f 61 91 62
f 91 63 62
f 62 38 61
f 63 38 62
f 43 63 69
f 43 69 44
f 44 24 43
f 43 38 63
f 76 106 107
f 108 77 107
f 77 76 107
f 152 145 153
f 355 352 350
f 346 324 345
f 330 347 346
f 346 345 330
f 294 320 322
f 248 247 275
f 249 214 248
f 248 214 247
f 275 276 248
f 276 277 248
f 271 244 270
f 213 244 245
f 245 214 213
f 212 244 213
f 213 183 212
f 213 214 183
f 305 304 330
f 305 277 304
f 134 137 163
f 137 166 163
f 163 164 134
f 166 164 163
f 332 311 309
f 309 311 284
f 222 253 220
f 203 204 173
f 183 204 203
f 173 184 203
f 203 184 183
f 173 204 192
f 192 204 222
f 222 220 192
f 215 204 183
f 215 214 246
f 183 214 215
f 246 222 215
f 222 204 215
f 201 235 236
f 201 233 234
f 234 235 201
f 234 266 235
f 343 342 317
f 263 292 293
f 293 292 321
f 293 321 294
f 332 320 319
f 320 292 319
f 319 292 291
f 339 338 341
f 314 338 339
f 341 340 339
f 353 342 343
f 335 336 312
f 342 353 335
f 335 353 336
f 335 312 310
f 310 334 335
f 313 286 312
f 312 336 313
f 289 288 315
f 315 339 340
f 314 339 315
f 344 320 332
f 332 331 344
f 344 331 320
f 64 39 58
f 67 68 41
f 257 289 258
f 258 224 257
f 223 224 193
f 189 219 193
f 193 219 223
f 216 218 227
f 231 232 200
f 200 230 231
f 231 230 260
f 260 261 231
f 231 261 232
f 197 194 196
f 262 261 290
f 81 112 83
f 83 112 113
f 83 84 58
f 83 113 84
f 82 55 81
f 82 56 55
f 81 83 82
f 58 56 82
f 82 83 58
f 140 109 139
f 44 46 45
f 26 11 25
f 13 11 26
f 26 25 44
f 44 45 26
f 26 28 13
f 46 28 26
f 26 45 46
f 59 37 41
f 59 60 37
f 87 60 59
f 41 68 59
f 59 68 87
f 127 157 131
f 132 97 131
f 131 97 127
f 161 165 135
f 161 157 165
f 161 131 157
f 132 131 161
f 161 133 132
f 135 133 161
f 126 127 91
f 156 127 126
f 31 30 50
f 17 30 31
f 31 18 17
f 42 43 24
f 38 43 42
f 24 23 42
f 42 23 38
f 144 114 119
f 119 114 120
f 119 145 144
f 119 153 145
f 119 120 84
f 152 153 119
f 119 118 152
f 84 118 119
f 329 350 351
f 351 350 352
f 330 329 351
f 351 352 330
f 326 346 347
f 324 346 326
f 345 324 323
f 323 331 345
f 324 295 323
f 323 295 322
f 320 331 323
f 323 322 320
f 249 248 250
f 250 277 278
f 250 248 277
f 246 214 250
f 250 214 249
f 250 273 246
f 245 244 272
f 244 271 272
f 274 271 299
f 274 272 271
f 298 271 270
f 299 271 298
f 278 277 306
f 277 305 306
f 306 305 330
f 330 331 306
f 306 331 332
f 283 309 284
f 283 284 257
f 283 280 308
f 191 219 189
f 221 253 255
f 221 220 253
f 221 191 220
f 219 191 221
f 159 145 173
f 173 192 159
f 128 145 159
f 267 236 235
f 267 266 297
f 235 266 267
f 264 234 233
f 264 293 294
f 264 233 263
f 263 293 264
f 333 311 332
f 332 319 333
f 310 311 333
f 333 334 310
f 333 319 334
f 337 338 314
f 336 353 337
f 314 313 337
f 337 313 336
f 318 335 334
f 334 319 318
f 318 317 342
f 342 335 318
f 291 317 318
f 318 319 291
f 287 313 314
f 314 315 287
f 287 315 288
f 287 288 257
f 257 286 287
f 286 313 287
f 86 64 58
f 93 64 86
f 58 85 86
f 85 93 86
f 66 64 93
f 66 93 94
f 66 67 41
f 66 94 95
f 95 67 66
f 189 193 160
f 160 130 129
f 278 306 300
f 308 280 307
f 307 283 308
f 309 283 307
f 307 300 309
f 280 300 307
f 198 199 167
f 259 230 229
f 229 230 200
f 200 199 229
f 199 198 229
f 225 197 196
f 227 197 225
f 225 196 216
f 216 227 225
f 109 140 111
f 111 112 81
f 111 140 112
f 81 79 110
f 110 111 81
f 109 111 110
f 187 186 155
f 155 186 156
f 156 126 155
f 154 121 130
f 130 160 154
f 130 121 96
f 95 129 96
f 129 130 96
f 96 67 95
f 68 67 96
f 87 68 96
f 96 121 87
f 50 51 32
f 32 51 33
f 32 33 18
f 32 31 50
f 18 31 32
f 34 33 54
f 54 55 35
f 35 34 54
f 243 244 212
f 212 211 243
f 243 269 270
f 270 244 243
f 243 268 269
f 242 268 243
f 243 211 242
f 181 211 212
f 181 183 152
f 212 183 181
f 180 211 181
f 327 326 349
f 348 326 347
f 349 326 348
f 296 327 325
f 326 327 296
f 324 326 296
f 296 295 324
f 325 297 296
f 297 266 296
f 266 234 265
f 265 296 266
f 295 296 265
f 280 283 281
f 257 256 281
f 281 283 257
f 254 221 255
f 158 191 189
f 189 160 158
f 158 160 129
f 158 129 128
f 128 159 158
f 220 191 190
f 190 192 220
f 190 159 192
f 191 158 190
f 190 158 159
f 338 337 354
f 354 353 343
f 354 337 353
f 65 66 41
f 64 66 65
f 39 64 65
f 41 40 65
f 65 40 39
f 255 273 282
f 282 280 255
f 273 250 279
f 279 300 273
f 279 250 278
f 278 300 279
f 332 309 328
f 309 300 328
f 328 306 332
f 328 300 306
f 228 251 259
f 259 229 228
f 228 229 198
f 226 197 227
f 109 110 78
f 78 110 79
f 125 89 124
f 126 89 125
f 125 155 126
f 87 121 88
f 88 60 87
f 61 60 88
f 88 89 61
f 90 91 61
f 61 89 90
f 90 126 91
f 90 89 126
f 121 154 122
f 122 88 121
f 89 88 122
f 185 160 193
f 185 154 160
f 53 54 33
f 79 54 53
f 55 54 80
f 80 54 79
f 81 55 80
f 80 79 81
f 237 238 208
f 238 209 208
f 208 207 237
f 178 149 148
f 148 149 118
f 180 181 150
f 150 179 180
f 152 151 150
f 150 149 179
f 151 118 150
f 118 149 150
f 178 148 177
f 177 209 178
f 177 208 209
f 207 208 177
f 139 169 141
f 141 140 139
f 112 140 141
f 171 146 143
f 113 112 143
f 84 113 116
f 113 143 116
f 116 143 146
f 219 221 252
f 221 254 252
f 223 219 252
f 252 224 223
f 252 256 224
f 252 281 256
f 280 281 252
f 255 280 252
f 252 254 255
f 273 300 301
f 301 282 273
f 301 300 280
f 280 282 301
f 51 78 52
f 52 78 79
f 79 53 52
f 33 51 52
f 52 53 33
f 123 122 154
f 124 89 123
f 89 122 123
f 239 209 238
f 239 240 209
f 238 241 239
f 241 240 239
f 210 240 241
f 210 241 242
f 209 240 210
f 242 211 210
f 210 211 180
f 174 146 171
f 182 181 152
f 152 150 182
f 182 150 181
f 206 207 176
f 207 177 176
f 176 177 148
f 205 206 176
f 171 143 142
f 112 141 142
f 142 143 112
f 117 118 84
f 84 116 117
f 175 174 171
f 148 174 175
f 205 176 175
f 175 176 148
f 170 141 169
f 170 142 141
f 147 116 146
f 147 117 116
f 146 174 147
f 147 174 148
f 147 148 118
f 118 117 147
f 205 175 202
f 202 175 171
f 168 138 167
f 167 200 168
f 75 105 106
f 106 76 75
f 275 302 303
f 303 276 275
f 197 138 108
f 197 167 138
f 101 134 197
f 197 102 101
f 104 103 197
f 197 105 104
f 197 134 162
f 103 102 197
f 162 194 197
f 197 106 105
f 108 107 197
f 197 107 106
f 274 302 275
f 275 247 274
f 274 247 245
f 245 272 274
f 149 209 179
f 178 209 149
f 322 295 265
f 294 322 265
f 265 264 294
f 234 264 265
f 354 201 168
f 168 200 354
f 354 316 341
f 354 233 201
f 200 232 354
f 262 290 354
f 263 233 354
f 354 291 263
f 354 232 262
f 341 338 354
f 343 317 354
f 354 317 291
f 354 290 316
f 218 251 228
f 228 227 218
f 227 228 226
f 226 228 198
f 167 197 226
f 226 198 167
f 289 315 123
f 259 251 123
f 123 218 187
f 340 316 123
f 316 290 123
f 123 261 259
f 123 193 224
f 123 258 289
f 123 315 340
f 224 258 123
f 187 155 123
f 123 290 261
f 123 251 218
f 123 185 193
f 123 125 124
f 155 125 123
f 154 185 123
f 179 209 210
f 180 179 210
f 202 138 168
f 329 302 202
f 168 201 202
f 202 268 242
f 108 138 202
f 202 51 50
f 139 109 202
f 50 30 202
f 202 77 108
f 49 77 202
f 202 350 329
f 202 238 237
f 270 269 202
f 202 17 12
f 347 355 202
f 12 27 202
f 302 274 202
f 202 297 325
f 202 47 49
f 15 29 202
f 202 27 15
f 237 207 202
f 202 169 139
f 201 236 202
f 29 47 202
f 202 30 17
f 242 241 202
f 355 350 202
f 325 327 202
f 269 268 202
f 202 298 270
f 202 348 347
f 202 267 297
f 202 206 205
f 202 170 169
f 202 274 299
f 299 298 202
f 236 267 202
f 202 241 238
f 202 207 206
f 109 78 202
f 202 327 349
f 349 348 202
f 202 78 51
f 171 142 202
f 142 170 202
