v -0.017913 -0.000533 -0.007910
v -0.017909 -0.000887 -0.007910
v -0.017913 -0.000533 -0.007201
v -0.017901 -0.000178 -0.007910
v -0.017820 0.001950 -0.008976
v -0.017806 -0.001242 -0.008242
v -0.017800 -0.001342 -0.008229
v -0.017782 -0.001599 -0.008198
v -0.017759 -0.001953 -0.008145
v -0.017744 -0.002179 -0.008106
v -0.017874 -0.001242 -0.007910
v -0.017909 -0.000887 -0.007201
v -0.017812 0.001595 -0.008976
v -0.017875 -0.000887 -0.006846
v -0.017879 -0.000533 -0.006846
v -0.017821 0.001241 -0.006846
v -0.017901 -0.000178 -0.007201
v -0.017864 0.000886 -0.007910
v -0.017838 0.001596 -0.007910
v -0.017824 0.001950 -0.007910
v -0.017781 0.002306 -0.007910
v -0.017777 0.002294 -0.008976
v -0.017772 0.001241 -0.008976
v -0.017800 -0.001341 -0.008230
v -0.017701 -0.001599 -0.008375
v -0.017679 -0.001953 -0.008322
v -0.017513 -0.003373 -0.008265
v -0.017538 -0.003728 -0.007910
v -0.017594 -0.003373 -0.007910
v -0.017641 -0.003017 -0.007910
v -0.017862 -0.001341 -0.007910
v -0.017874 -0.001242 -0.007201
v -0.017841 -0.001242 -0.006846
v -0.017742 -0.001813 -0.006664
v -0.017769 -0.001342 -0.006633
v -0.017774 -0.001242 -0.006627
v -0.017790 -0.000887 -0.006609
v -0.017793 -0.000533 -0.006606
v -0.017759 0.001596 -0.006644
v -0.017753 0.001950 -0.006651
v -0.017809 0.001596 -0.006846
v -0.017864 0.000886 -0.007201
v -0.017838 0.001596 -0.007201
v -0.017824 0.001950 -0.007201
v -0.017781 0.002306 -0.007201
v -0.017730 0.002558 -0.007910
v -0.017736 0.002472 -0.008976
v -0.017741 0.001052 -0.008976
v -0.017391 -0.003592 -0.008451
v -0.017718 -0.001341 -0.008407
v -0.017450 -0.003717 -0.008286
v -0.017417 -0.004082 -0.008168
v -0.017388 -0.004276 -0.008102
v -0.017451 -0.004082 -0.007910
v -0.017538 -0.003728 -0.007201
v -0.017594 -0.003373 -0.007201
v -0.017641 -0.003017 -0.007201
v -0.017862 -0.001341 -0.007201
v -0.017744 -0.002179 -0.006972
v -0.017831 -0.001341 -0.006846
v -0.017727 -0.002049 -0.006735
v -0.017562 -0.003373 -0.006846
v -0.017403 -0.003979 -0.006646
v -0.017428 -0.003728 -0.006618
v -0.016310 -0.003491 -0.004211
v -0.016593 -0.001448 -0.004211
v -0.016606 -0.001342 -0.004211
v -0.017746 0.002170 -0.006660
v -0.017796 0.001950 -0.006846
v -0.017760 0.002294 -0.006871
v -0.017740 0.002493 -0.007006
v -0.017728 0.002558 -0.007075
v -0.017730 0.002558 -0.007201
v -0.017708 0.002558 -0.008976
v -0.017686 0.000875 -0.008976
v -0.016497 -0.005499 -0.008647
v -0.016497 -0.005854 -0.008601
v -0.016851 -0.004437 -0.008635
v -0.017155 -0.004082 -0.008546
v -0.017368 -0.003829 -0.008417
v -0.017332 -0.004082 -0.008346
v -0.016643 -0.006285 -0.008387
v -0.017079 -0.005145 -0.008201
v -0.017044 -0.005371 -0.008127
v -0.016803 -0.006208 -0.007910
v -0.016912 -0.005854 -0.007910
v -0.017051 -0.005396 -0.007910
v -0.017451 -0.004082 -0.007201
v -0.017505 -0.003728 -0.006846
v -0.017388 -0.004276 -0.006984
v -0.017422 -0.004090 -0.006858
v -0.017758 -0.001940 -0.006850
v -0.016156 -0.004082 -0.004211
v -0.016258 -0.003728 -0.004211
v -0.017369 -0.004215 -0.006748
v -0.017026 -0.005314 -0.006682
v -0.011196 -0.001342 -0.004211
v -0.016457 0.002558 -0.004715
v -0.016509 0.002306 -0.004715
v -0.016565 0.001950 -0.004715
v -0.017600 0.002558 -0.006630
v -0.017722 0.002405 -0.006770
v -0.017716 0.002558 -0.006943
v -0.012104 0.002558 -0.008976
v -0.017538 0.000532 -0.008976
v -0.016142 -0.006208 -0.008686
v -0.016142 -0.006562 -0.008649
v -0.016513 -0.006183 -0.008539
v -0.016817 -0.005145 -0.008554
v -0.016413 -0.006562 -0.008523
v -0.016762 -0.005499 -0.008521
v -0.017101 -0.004437 -0.008509
v -0.017059 -0.004713 -0.008472
v -0.017024 -0.004949 -0.008434
v -0.016993 -0.005145 -0.008378
v -0.016359 -0.006819 -0.008478
v -0.016300 -0.007056 -0.008414
v -0.016597 -0.006569 -0.008267
v -0.016700 -0.006457 -0.008151
v -0.016678 -0.006047 -0.008447
v -0.016711 -0.006491 -0.007910
v -0.016803 -0.006208 -0.007201
v -0.016912 -0.005854 -0.007201
v -0.017051 -0.005396 -0.007201
v -0.017044 -0.005371 -0.006919
v -0.016679 -0.006405 -0.006662
v -0.015976 -0.004651 -0.004211
v -0.016697 -0.006454 -0.006846
v -0.010999 -0.001953 -0.004211
v -0.011467 0.002558 -0.004715
v -0.017700 0.002558 -0.006839
v -0.011678 0.002558 -0.008471
v -0.012031 0.002311 -0.008976
v -0.017413 0.000304 -0.008976
v -0.014722 -0.009045 -0.008685
v -0.015077 -0.008336 -0.008688
v -0.015433 -0.007627 -0.008688
v -0.015787 -0.006918 -0.008688
v -0.015787 -0.007271 -0.008652
v -0.016165 -0.006929 -0.008559
v -0.016069 -0.007271 -0.008526
v -0.016708 -0.005854 -0.008475
v -0.015651 -0.008243 -0.008479
v -0.015592 -0.008479 -0.008416
v -0.015653 -0.008600 -0.008180
v -0.016361 -0.007177 -0.008178
v -0.016428 -0.006929 -0.008284
v -0.016531 -0.006918 -0.007910
v -0.016646 -0.006669 -0.007910
v -0.016711 -0.006491 -0.007201
v -0.016630 -0.006629 -0.006846
v -0.016499 -0.006918 -0.006846
v -0.016338 -0.007137 -0.006648
v -0.015337 -0.006548 -0.004475
v -0.015818 -0.005146 -0.004211
v -0.015862 -0.005009 -0.004211
v -0.016646 -0.006669 -0.007201
v -0.010263 -0.004436 -0.004211
v -0.010165 -0.004790 -0.004211
v -0.011470 0.002558 -0.007910
v -0.011561 0.002558 -0.008272
v -0.010415 -0.006208 -0.008265
v -0.010571 -0.006208 -0.008513
v -0.011974 0.001950 -0.008976
v -0.017308 0.000126 -0.008976
v -0.014368 -0.009399 -0.008693
v -0.013661 -0.010464 -0.008688
v -0.014013 -0.010108 -0.008677
v -0.014368 -0.009755 -0.008658
v -0.014722 -0.009399 -0.008628
v -0.015077 -0.008690 -0.008653
v -0.015433 -0.007981 -0.008652
v -0.015362 -0.008690 -0.008527
v -0.015811 -0.007639 -0.008560
v -0.015297 -0.008952 -0.008480
v -0.015236 -0.009190 -0.008417
v -0.015827 -0.008336 -0.007910
v -0.015368 -0.009061 -0.008286
v -0.015299 -0.009290 -0.008181
v -0.015474 -0.009045 -0.007910
v -0.016531 -0.006918 -0.007201
v -0.016276 -0.007366 -0.006846
v -0.015569 -0.008788 -0.006846
v -0.015630 -0.008558 -0.006647
v -0.015248 -0.006727 -0.004475
v -0.015648 -0.005149 -0.004211
v -0.014257 -0.008643 -0.004475
v -0.014193 -0.008765 -0.004475
v -0.014163 -0.008820 -0.004475
v -0.014009 -0.009045 -0.004475
v -0.013859 -0.009252 -0.004475
v -0.013783 -0.009351 -0.004475
v -0.010122 -0.005148 -0.004211
v -0.010194 -0.007115 -0.007845
v -0.011533 0.002558 -0.008162
v -0.010194 -0.008353 -0.008122
v -0.010194 -0.008604 -0.008146
v -0.010565 -0.006562 -0.008520
v -0.011975 0.001596 -0.008976
v -0.010822 -0.006208 -0.008638
v -0.010822 -0.006562 -0.008646
v -0.017131 -0.000123 -0.008976
v -0.013306 -0.010819 -0.008694
v -0.013306 -0.011174 -0.008667
v -0.013661 -0.010819 -0.008642
v -0.013661 -0.011161 -0.008534
v -0.014379 -0.010113 -0.008551
v -0.014716 -0.009731 -0.008521
v -0.014986 -0.009399 -0.008505
v -0.015102 -0.009061 -0.008558
v -0.014914 -0.009596 -0.008454
v -0.014185 -0.010633 -0.008435
v -0.014506 -0.010233 -0.008384
v -0.015159 -0.009405 -0.008286
v -0.015827 -0.008336 -0.007201
v -0.014574 -0.010325 -0.008148
v -0.015199 -0.009501 -0.007910
v -0.015320 -0.009321 -0.007910
v -0.015474 -0.009045 -0.007201
v -0.015440 -0.009045 -0.006846
v -0.015275 -0.009256 -0.006646
v -0.010505 -0.005149 -0.004211
v -0.014551 -0.010296 -0.006663
v -0.013824 -0.011331 -0.006734
v -0.013534 -0.011620 -0.006626
v -0.009995 -0.009351 -0.004475
v -0.011927 -0.011620 -0.005197
v -0.009995 -0.006930 -0.004475
v -0.009995 -0.007069 -0.005197
v -0.010194 -0.009045 -0.008160
v -0.010194 -0.009399 -0.008166
v -0.010194 -0.009645 -0.008167
v -0.010194 -0.009755 -0.008167
v -0.010194 -0.010000 -0.008163
v -0.010194 -0.011620 -0.008140
v -0.010615 -0.011620 -0.008466
v -0.010647 -0.011620 -0.008488
v -0.010727 -0.011620 -0.008541
v -0.012017 0.001241 -0.008976
v -0.011085 -0.011620 -0.008674
v -0.011177 -0.011620 -0.008686
v -0.010809 -0.011620 -0.008577
v -0.016968 -0.000301 -0.008976
v -0.012951 -0.011174 -0.008695
v -0.012951 -0.011528 -0.008672
v -0.013318 -0.011538 -0.008553
v -0.013543 -0.011427 -0.008489
v -0.013941 -0.010819 -0.008516
v -0.014270 -0.010397 -0.008502
v -0.014592 -0.009997 -0.008480
v -0.013865 -0.011033 -0.008465
v -0.013779 -0.011269 -0.008343
v -0.013846 -0.011362 -0.008106
v -0.015199 -0.009501 -0.007201
v -0.013850 -0.011367 -0.007910
v -0.015320 -0.009321 -0.007201
v -0.015303 -0.009298 -0.006846
v -0.015179 -0.009476 -0.006846
v -0.014875 -0.009899 -0.006846
v -0.013846 -0.011362 -0.006971
v -0.013716 -0.011499 -0.006850
v -0.013619 -0.011620 -0.006848
v -0.010194 -0.011620 -0.005197
v -0.009995 -0.009351 -0.005197
v -0.012054 0.001037 -0.008976
v -0.011441 -0.011620 -0.008695
v -0.012665 -0.000186 -0.008976
v -0.012377 0.000296 -0.008976
v -0.012251 0.000532 -0.008976
v -0.012115 0.000859 -0.008976
v -0.016791 -0.000448 -0.008976
v -0.012505 -0.011620 -0.008695
v -0.012859 -0.011620 -0.008672
v -0.012953 -0.011620 -0.008643
v -0.013237 -0.011620 -0.008554
v -0.013282 -0.011620 -0.008534
v -0.013463 -0.011620 -0.008411
v -0.013649 -0.011513 -0.008250
v -0.013505 -0.011620 -0.008351
v -0.013589 -0.011620 -0.008207
v -0.013641 -0.011620 -0.008002
v -0.013654 -0.011620 -0.007910
v -0.013714 -0.011545 -0.007910
v -0.013850 -0.011367 -0.007201
v -0.013714 -0.011545 -0.007201
v -0.013654 -0.011620 -0.007201
v -0.015078 -0.001223 -0.008976
v -0.014723 -0.001221 -0.008976
v -0.014358 -0.001173 -0.008976
v -0.014327 -0.001163 -0.008976
v -0.014163 -0.001102 -0.008976
v -0.013660 -0.000905 -0.008976
v -0.013411 -0.000774 -0.008976
v -0.012778 -0.000354 -0.008976
v -0.016391 -0.000776 -0.008976
v -0.016142 -0.000901 -0.008976
v -0.015441 -0.001169 -0.008976
f 227 192 225
f 130 159 160
f 160 159 194
f 65 34 64
f 64 63 65
f 34 63 64
f 65 63 94
f 63 93 94
f 96 93 63
f 192 186 155
f 130 97 129
f 194 159 193
f 133 104 132
f 68 98 101
f 66 34 65
f 66 67 34
f 128 96 125
f 125 96 90
f 95 96 63
f 90 96 95
f 126 96 128
f 154 155 126
f 126 153 154
f 126 127 93
f 93 96 126
f 257 221 220
f 184 220 221
f 10 11 2
f 138 106 105
f 52 51 80
f 198 235 236
f 197 198 163
f 158 159 130
f 130 129 158
f 226 193 222
f 228 193 226
f 100 68 67
f 39 67 40
f 67 68 40
f 40 15 39
f 14 15 3
f 38 67 39
f 39 15 38
f 27 28 10
f 27 51 52
f 52 28 27
f 88 124 90
f 10 28 29
f 90 95 91
f 155 189 190
f 190 221 223
f 190 189 221
f 185 155 154
f 185 184 221
f 154 153 185
f 153 184 185
f 156 126 155
f 127 126 156
f 153 126 152
f 105 106 75
f 52 82 83
f 83 84 52
f 82 84 83
f 53 28 52
f 52 84 53
f 106 138 139
f 79 80 49
f 49 80 51
f 51 27 49
f 81 82 52
f 52 80 81
f 162 160 194
f 132 161 162
f 163 132 162
f 194 193 229
f 193 228 229
f 225 224 262
f 253 217 216
f 216 217 179
f 179 180 145
f 179 217 218
f 218 180 179
f 257 220 219
f 5 4 18
f 1 4 5
f 5 2 1
f 99 67 98
f 99 100 67
f 98 68 99
f 68 100 99
f 15 40 16
f 3 15 16
f 41 16 40
f 42 17 41
f 41 17 3
f 3 16 41
f 34 14 33
f 15 14 37
f 37 38 15
f 67 38 37
f 10 29 30
f 55 88 90
f 90 91 55
f 192 155 191
f 155 190 191
f 191 190 223
f 223 224 191
f 225 192 191
f 191 224 225
f 155 185 187
f 187 185 221
f 151 126 128
f 151 152 126
f 9 27 10
f 10 2 9
f 23 49 25
f 25 49 27
f 105 135 136
f 171 136 135
f 172 139 171
f 171 139 138
f 28 53 54
f 146 148 119
f 119 84 82
f 128 125 122
f 122 125 90
f 85 53 84
f 84 119 85
f 85 119 121
f 110 77 107
f 106 139 107
f 107 75 106
f 120 116 82
f 110 116 120
f 108 77 110
f 110 111 108
f 110 107 140
f 140 107 139
f 173 171 210
f 172 171 173
f 173 139 172
f 79 49 48
f 48 49 23
f 48 78 79
f 77 78 48
f 82 81 115
f 237 198 236
f 237 238 198
f 240 241 199
f 240 199 201
f 198 238 201
f 201 200 198
f 196 197 163
f 163 162 196
f 196 162 194
f 194 229 196
f 196 229 197
f 160 162 195
f 195 162 161
f 264 235 234
f 234 233 264
f 235 198 234
f 198 233 234
f 281 282 253
f 253 280 281
f 279 280 278
f 278 280 253
f 286 262 260
f 224 259 260
f 253 282 283
f 146 119 147
f 183 219 220
f 183 184 153
f 220 184 183
f 257 219 256
f 145 144 176
f 267 241 266
f 266 294 267
f 166 165 202
f 135 165 166
f 273 244 272
f 101 131 102
f 102 68 101
f 23 6 13
f 13 6 2
f 2 5 13
f 36 37 14
f 67 37 36
f 31 11 10
f 10 30 31
f 89 55 91
f 89 95 63
f 89 91 95
f 188 189 155
f 155 187 188
f 221 189 188
f 188 187 221
f 24 6 23
f 27 9 26
f 26 25 27
f 137 138 105
f 105 136 137
f 137 171 138
f 136 171 137
f 210 171 170
f 170 171 135
f 121 119 149
f 149 119 148
f 177 148 146
f 146 145 177
f 177 145 180
f 157 151 128
f 181 152 157
f 152 151 157
f 53 85 86
f 75 107 76
f 76 107 77
f 76 48 75
f 77 48 76
f 77 108 109
f 109 108 111
f 109 111 79
f 79 78 109
f 109 78 77
f 141 116 110
f 110 140 141
f 174 140 139
f 139 173 174
f 174 141 140
f 173 141 174
f 133 132 164
f 164 132 163
f 163 198 164
f 198 200 164
f 200 201 164
f 164 201 199
f 239 241 265
f 239 199 241
f 240 201 242
f 242 201 238
f 232 231 229
f 232 233 198
f 198 231 232
f 198 197 230
f 230 231 198
f 197 229 230
f 229 231 230
f 279 278 252
f 253 216 252
f 252 278 253
f 286 260 285
f 285 260 284
f 261 262 224
f 224 260 261
f 261 260 262
f 257 256 254
f 284 260 254
f 253 283 255
f 255 217 253
f 118 119 82
f 118 147 119
f 147 118 117
f 146 147 117
f 82 116 117
f 117 118 82
f 117 145 146
f 117 144 145
f 153 152 182
f 182 183 153
f 182 152 181
f 277 247 276
f 251 247 277
f 279 252 277
f 277 252 251
f 246 275 276
f 276 247 246
f 205 204 246
f 210 170 209
f 214 216 179
f 179 176 214
f 179 145 178
f 178 176 179
f 145 176 178
f 143 117 116
f 144 117 143
f 116 141 143
f 143 141 173
f 266 290 291
f 291 292 266
f 293 294 266
f 266 292 293
f 245 204 203
f 203 244 245
f 245 244 273
f 245 246 204
f 134 135 105
f 134 165 135
f 167 202 203
f 167 166 202
f 135 166 167
f 203 204 167
f 289 290 266
f 266 288 289
f 296 272 295
f 297 272 296
f 243 272 244
f 203 202 243
f 243 244 203
f 287 272 297
f 266 272 287
f 287 288 266
f 42 41 43
f 21 22 5
f 21 46 22
f 34 67 35
f 67 36 35
f 35 14 34
f 35 36 14
f 23 25 50
f 50 24 23
f 25 24 50
f 8 24 25
f 8 26 9
f 25 26 8
f 8 9 2
f 2 6 7
f 6 24 7
f 7 8 2
f 24 8 7
f 169 170 135
f 169 204 205
f 205 170 169
f 219 183 215
f 215 182 181
f 183 182 215
f 128 122 150
f 150 157 128
f 87 54 53
f 53 86 87
f 90 124 123
f 123 122 90
f 80 113 114
f 114 113 120
f 114 120 82
f 82 115 114
f 114 81 80
f 114 115 81
f 120 113 142
f 142 111 110
f 110 120 142
f 112 80 79
f 112 113 80
f 79 111 112
f 111 142 112
f 112 142 113
f 258 260 259
f 258 254 260
f 257 254 258
f 258 221 257
f 223 221 258
f 258 224 223
f 258 259 224
f 205 246 206
f 206 246 247
f 206 170 205
f 250 247 251
f 175 209 176
f 175 143 173
f 175 173 210
f 210 209 175
f 175 176 144
f 144 143 175
f 213 252 216
f 216 214 213
f 213 214 176
f 265 241 270
f 241 269 270
f 241 267 268
f 268 269 241
f 274 245 273
f 275 246 274
f 246 245 274
f 295 272 271
f 272 243 271
f 72 71 103
f 103 102 131
f 103 71 102
f 68 102 70
f 102 71 70
f 47 46 74
f 22 46 47
f 19 5 18
f 44 70 45
f 45 70 71
f 45 71 72
f 62 56 55
f 55 89 62
f 34 61 62
f 62 63 34
f 62 89 63
f 12 33 14
f 12 32 33
f 12 14 3
f 33 32 60
f 34 33 60
f 60 61 34
f 168 169 135
f 204 169 168
f 135 167 168
f 168 167 204
f 248 206 247
f 170 206 207
f 176 209 211
f 209 250 211
f 211 250 251
f 68 70 69
f 69 70 44
f 69 40 68
f 69 41 40
f 69 43 41
f 44 43 69
f 5 19 20
f 20 21 5
f 73 45 72
f 57 56 59
f 56 62 59
f 59 62 61
f 59 60 32
f 249 250 209
f 209 248 249
f 247 250 249
f 249 248 247
f 208 207 206
f 208 248 209
f 206 248 208
f 208 209 170
f 170 207 208
f 212 213 176
f 176 211 212
f 212 211 251
f 251 252 212
f 252 213 212
f 61 60 92
f 92 59 61
f 60 59 92
f 57 59 58
f 58 59 32
f 226 192 263
f 192 227 263
f 130 98 67
f 67 97 130
f 226 263 235
f 235 264 226
f 222 192 226
f 222 186 192
f 159 158 156
f 156 129 97
f 65 94 156
f 156 155 186
f 97 67 156
f 156 94 93
f 156 66 65
f 93 127 156
f 156 193 159
f 67 66 156
f 186 222 156
f 156 158 129
f 156 222 193
f 226 264 229
f 229 228 226
f 17 4 1
f 1 3 17
f 18 4 17
f 17 42 18
f 88 55 54
f 54 55 28
f 256 219 180
f 180 218 256
f 157 149 148
f 157 148 181
f 232 229 264
f 264 233 232
f 282 286 285
f 285 283 282
f 254 256 218
f 254 218 217
f 283 285 255
f 255 285 284
f 255 254 217
f 284 254 255
f 28 55 56
f 56 29 28
f 56 30 29
f 56 57 30
f 181 148 215
f 148 177 215
f 180 219 215
f 215 177 180
f 122 85 150
f 150 85 121
f 149 157 150
f 121 149 150
f 88 54 87
f 124 88 87
f 124 87 123
f 123 87 86
f 123 85 122
f 123 86 85
f 236 235 274
f 274 227 225
f 240 242 274
f 274 263 227
f 274 237 236
f 274 235 263
f 276 275 274
f 225 262 274
f 282 281 274
f 274 286 282
f 266 241 274
f 274 272 266
f 274 280 279
f 274 262 286
f 274 241 240
f 274 277 276
f 238 237 274
f 274 281 280
f 273 272 274
f 274 242 238
f 279 277 274
f 47 74 104
f 23 13 47
f 47 104 133
f 47 48 23
f 47 287 297
f 105 75 47
f 294 293 47
f 47 134 105
f 47 239 265
f 47 296 295
f 290 289 47
f 295 271 47
f 75 48 47
f 133 164 47
f 47 291 290
f 47 267 294
f 202 165 47
f 47 268 267
f 5 22 47
f 47 13 5
f 47 164 199
f 199 239 47
f 292 291 47
f 47 293 292
f 265 270 47
f 165 134 47
f 47 289 288
f 297 296 47
f 47 243 202
f 288 287 47
f 47 270 269
f 269 268 47
f 47 271 243
f 18 42 19
f 42 43 19
f 12 3 1
f 1 2 12
f 12 2 11
f 11 32 12
f 20 19 43
f 20 43 44
f 44 45 20
f 20 45 21
f 73 98 130
f 101 98 73
f 130 160 73
f 73 131 101
f 104 74 73
f 73 132 104
f 73 161 132
f 160 195 73
f 74 46 73
f 73 195 161
f 72 103 73
f 73 103 131
f 21 45 73
f 46 21 73
f 30 57 58
f 58 31 30
f 58 32 11
f 11 31 58
