v -0.017642 0.001867 -0.003100
v -0.017642 0.001867 -0.001507
v -0.017290 0.003135 -0.003100
v -0.016637 0.002766 -0.003105
v -0.016893 0.001765 -0.003105
v -0.017364 0.000581 -0.003100
v -0.017290 0.003135 -0.001507
v -0.017364 0.000581 -0.001507
v -0.016389 0.004095 -0.003100
v -0.015912 0.003508 -0.003105
v -0.016613 0.000768 -0.003105
v -0.016520 -0.000429 -0.003100
v -0.016389 0.004095 -0.001507
v -0.016520 -0.000429 -0.001507
v -0.015145 0.004526 -0.003100
v -0.014916 0.003787 -0.003105
v -0.015873 0.000045 -0.003105
v -0.015303 -0.000932 -0.003100
v -0.015145 0.004526 -0.001507
v -0.015303 -0.000932 -0.001507
v -0.013850 0.004331 -0.001507
v -0.013844 0.004330 -0.003100
v -0.013913 0.003531 -0.003105
v -0.014870 -0.000212 -0.003105
v -0.013993 -0.000810 -0.003100
v -0.015297 -0.000931 -0.001507
v -0.013844 0.004330 -0.001507
v -0.012783 0.003551 -0.003100
v -0.013173 0.002807 -0.003105
v -0.013874 0.000067 -0.003105
v -0.013993 -0.000810 -0.001507
v -0.012888 -0.000094 -0.003100
v -0.012783 0.003551 -0.001507
v -0.012205 0.002368 -0.003100
v -0.012893 0.001810 -0.003105
v -0.013150 0.000808 -0.003105
v -0.012888 -0.000094 -0.001507
v -0.012243 0.001053 -0.003100
v -0.012205 0.002368 -0.001507
v -0.012243 0.001053 -0.001507
f 25 30 32
f 18 12 17
f 34 38 35
f 18 17 24
f 24 25 18
f 30 25 24
f 12 6 11
f 11 17 12
f 29 28 34
f 34 35 29
f 36 38 32
f 36 35 38
f 32 30 36
f 26 20 18
f 25 31 26
f 18 25 26
f 4 9 10
f 3 4 1
f 3 9 4
f 16 10 15
f 15 10 9
f 5 6 1
f 5 11 6
f 1 4 5
f 28 29 23
f 28 23 22
f 22 23 16
f 16 15 22
f 21 15 19
f 27 22 21
f 21 22 15
f 18 20 14
f 14 12 18
f 39 40 38
f 34 39 38
f 38 40 37
f 37 32 38
f 8 2 1
f 1 6 8
f 12 14 8
f 8 6 12
f 31 32 37
f 31 25 32
f 33 39 34
f 34 28 33
f 19 15 13
f 13 15 9
f 30 24 23
f 23 36 30
f 4 10 23
f 23 5 4
f 23 24 17
f 17 11 23
f 23 29 35
f 35 36 23
f 23 10 16
f 11 5 23
f 1 2 7
f 7 3 1
f 7 13 9
f 9 3 7
f 22 33 28
f 22 27 33
f 37 40 21
f 2 8 21
f 20 26 21
f 21 40 39
f 21 14 20
f 21 31 37
f 21 8 14
f 39 33 21
f 21 7 2
f 21 26 31
f 19 13 21
f 33 27 21
f 13 7 21
