v -0.004789 0.008788 -0.000451
v -0.005121 0.008838 -0.000451
v -0.004781 0.008788 -0.000451
v -0.004789 0.008848 0.003087
v -0.004991 0.008866 0.003302
v -0.005004 0.008864 0.003087
v -0.005138 0.008841 -0.000451
v -0.005181 0.008893 0.003087
v -0.004425 0.008814 -0.000451
v -0.004514 0.008854 0.003087
v -0.004548 0.008859 0.003360
v -0.004789 0.008859 0.003364
v -0.004789 0.008881 0.003541
v -0.005123 0.008907 0.003429
v -0.005265 0.008879 -0.000451
v -0.005499 0.008983 0.003087
v -0.005499 0.009013 0.003442
v -0.004102 0.008923 -0.000451
v -0.004080 0.008954 0.003087
v -0.004337 0.008883 0.003087
v -0.004432 0.008893 0.003463
v -0.004435 0.009069 0.003777
v -0.004789 0.009058 0.003788
v -0.005144 0.009082 0.003764
v -0.005499 0.009134 0.003713
v -0.005470 0.008949 -0.000451
v -0.005799 0.009153 0.003442
v -0.005820 0.009137 0.003087
v -0.005876 0.009143 -0.000451
v -0.005743 0.009187 0.003661
v -0.003725 0.009079 -0.000451
v -0.003725 0.009100 0.003087
v -0.004080 0.008983 0.003442
v -0.004080 0.009118 0.003730
v -0.004435 0.009245 0.003955
v -0.004789 0.009234 0.003965
v -0.005144 0.009259 0.003941
v -0.005499 0.009321 0.003890
v -0.005976 0.009264 0.003442
v -0.005998 0.009248 0.003087
v -0.006025 0.009228 -0.000451
v -0.005714 0.009553 0.003995
v -0.005847 0.009407 0.003794
v -0.006122 0.009498 0.003690
v -0.003508 0.009190 -0.000451
v -0.003523 0.009206 0.003087
v -0.003532 0.009212 0.003360
v -0.003694 0.009145 0.003463
v -0.003556 0.009229 0.003596
v -0.003793 0.009175 0.003671
v -0.004080 0.009297 0.003907
v -0.004080 0.009474 0.004056
v -0.004435 0.009422 0.004081
v -0.004789 0.009412 0.004085
v -0.005144 0.009437 0.004077
v -0.005499 0.009498 0.004038
v -0.006184 0.009441 0.003442
v -0.006200 0.009425 0.003087
v -0.006213 0.009390 -0.000451
v -0.005841 0.009763 0.004050
v -0.006072 0.009886 0.004005
v -0.005950 0.009650 0.003927
v -0.006216 0.009749 0.003802
v -0.006446 0.009847 0.003678
v -0.006361 0.009608 0.003442
v -0.003325 0.009349 -0.000451
v -0.003346 0.009351 0.003087
v -0.003159 0.009543 0.003442
v -0.003396 0.009340 0.003463
v -0.003180 0.009566 0.003633
v -0.003371 0.009483 0.003697
v -0.003694 0.009381 0.003808
v -0.003832 0.009533 0.004014
v -0.003719 0.009744 0.004075
v -0.004080 0.009757 0.004166
v -0.004435 0.009757 0.004192
v -0.004789 0.009757 0.004195
v -0.005144 0.009757 0.004187
v -0.005499 0.009757 0.004148
v -0.006378 0.009589 0.003087
v -0.006401 0.009564 -0.000451
v -0.005854 0.010112 0.004162
v -0.006146 0.010112 0.004052
v -0.006324 0.010112 0.003925
v -0.006744 0.010282 0.003623
v -0.006492 0.009785 0.003442
v -0.006564 0.010143 0.003724
v -0.003137 0.009521 -0.000451
v -0.003145 0.009528 0.003087
v -0.002968 0.009757 0.003087
v -0.002997 0.009757 0.003442
v -0.003596 0.009617 0.003945
v -0.002854 0.009964 0.003442
v -0.002808 0.010210 0.003653
v -0.003109 0.009757 0.003692
v -0.003236 0.010000 0.003939
v -0.003472 0.009853 0.004029
v -0.003725 0.010112 0.004181
v -0.004080 0.010112 0.004195
v -0.005499 0.010112 0.004195
v -0.006508 0.009766 0.003087
v -0.006500 0.009704 -0.000451
v -0.005854 0.010466 0.004195
v -0.006208 0.010821 0.004143
v -0.006240 0.010441 0.004081
v -0.006420 0.010543 0.004006
v -0.006379 0.010306 0.003968
v -0.006764 0.010466 0.003648
v -0.006877 0.010821 0.003442
v -0.006814 0.010466 0.003442
v -0.006757 0.010253 0.003442
v -0.006670 0.010076 0.003442
v -0.006686 0.010050 0.003087
v -0.002964 0.009731 -0.000451
v -0.002820 0.009915 -0.000451
v -0.002839 0.009936 0.003087
v -0.002778 0.010142 0.003442
v -0.002763 0.010113 0.003087
v -0.002667 0.010466 0.003442
v -0.002768 0.010466 0.003698
v -0.002941 0.010466 0.003875
v -0.003164 0.010237 0.004001
v -0.003011 0.010105 0.003796
v -0.003361 0.010116 0.004067
v -0.003371 0.010821 0.004178
v -0.003725 0.010466 0.004195
v -0.003371 0.010466 0.004149
v -0.005854 0.010821 0.004195
v -0.006788 0.010203 -0.000451
v -0.006208 0.011175 0.004146
v -0.006453 0.011175 0.004036
v -0.006449 0.010821 0.004033
v -0.006626 0.010821 0.003860
v -0.006794 0.010821 0.003682
v -0.006883 0.011175 0.003442
v -0.006907 0.010821 0.003087
v -0.006840 0.010466 0.003087
v -0.006769 0.010227 0.003087
v -0.002735 0.010112 -0.000451
v -0.002637 0.010466 0.003087
v -0.002598 0.010821 0.003442
v -0.002733 0.010821 0.003734
v -0.002901 0.010821 0.003912
v -0.003119 0.010466 0.004038
v -0.003371 0.011175 0.004179
v -0.003079 0.010821 0.004068
v -0.003078 0.011175 0.004068
v -0.003725 0.011530 0.004195
v -0.005854 0.011530 0.004195
v -0.006790 0.010208 -0.000451
v -0.006208 0.011530 0.004113
v -0.005854 0.011885 0.004171
v -0.006416 0.011530 0.004003
v -0.006594 0.011530 0.003832
v -0.006630 0.011175 0.003863
v -0.006797 0.011175 0.003686
v -0.006826 0.011530 0.003442
v -0.006913 0.011175 0.003087
v -0.006770 0.011530 0.003654
v -0.006748 0.011727 0.003628
v -0.006923 0.010831 -0.000451
v -0.006923 0.010821 -0.000451
v -0.006876 0.010476 -0.000451
v -0.006874 0.010466 -0.000451
v -0.002630 0.010466 -0.000451
v -0.002631 0.010466 0.000250
v -0.002632 0.010466 0.000959
v -0.002569 0.010821 0.003087
v -0.002558 0.010811 -0.000451
v -0.002597 0.011175 0.003442
v -0.002732 0.011175 0.003734
v -0.002901 0.011175 0.003912
v -0.003371 0.011530 0.004153
v -0.003725 0.011885 0.004184
v -0.003113 0.011530 0.004042
v -0.004435 0.012240 0.004195
v -0.005499 0.011885 0.004195
v -0.006205 0.011851 0.004044
v -0.005144 0.012240 0.004192
v -0.005499 0.012240 0.004165
v -0.005855 0.012243 0.004065
v -0.006085 0.012127 0.004015
v -0.006387 0.011711 0.003976
v -0.006763 0.011767 0.003442
v -0.006853 0.011530 0.003087
v -0.006885 0.011530 -0.000451
v -0.006927 0.011175 -0.000451
v -0.006379 0.012409 0.003587
v -0.006688 0.011944 0.003442
v -0.006541 0.011837 0.003774
v -0.006458 0.012172 0.003685
v -0.002568 0.011175 0.003087
v -0.002556 0.010821 -0.000451
v -0.002548 0.011175 -0.000451
v -0.002621 0.011530 0.003087
v -0.002652 0.011530 0.003442
v -0.002761 0.011530 0.003704
v -0.002936 0.011530 0.003882
v -0.003352 0.011892 0.004073
v -0.003703 0.012264 0.004084
v -0.004080 0.012240 0.004178
v -0.003157 0.011778 0.004005
v -0.004789 0.012240 0.004195
v -0.004789 0.012594 0.004100
v -0.005135 0.012620 0.004066
v -0.005499 0.012527 0.004055
v -0.005737 0.012462 0.004011
v -0.005974 0.012364 0.003937
v -0.006232 0.012268 0.003811
v -0.006322 0.011948 0.003921
v -0.006704 0.011976 0.003087
v -0.006775 0.011798 0.003087
v -0.006797 0.011828 -0.000451
v -0.006008 0.012756 0.003527
v -0.006207 0.012593 0.003439
v -0.006397 0.012431 0.003351
v -0.006493 0.012270 0.003458
v -0.006142 0.012519 0.003701
v -0.002613 0.011530 -0.000451
v -0.002737 0.011885 0.003087
v -0.002775 0.011909 0.003443
v -0.002710 0.011875 -0.000451
v -0.002848 0.012043 0.003563
v -0.002799 0.011806 0.003662
v -0.003458 0.012162 0.004034
v -0.003806 0.012481 0.004025
v -0.004080 0.012549 0.004067
v -0.004423 0.012626 0.004070
v -0.003221 0.012015 0.003952
v -0.003003 0.011911 0.003807
v -0.004533 0.012784 0.003986
v -0.004789 0.012787 0.003990
v -0.005010 0.012781 0.003983
v -0.005247 0.012756 0.003959
v -0.005499 0.012705 0.003915
v -0.005772 0.012824 0.003673
v -0.005873 0.012609 0.003805
v -0.006544 0.012240 0.003087
v -0.006713 0.012005 -0.000451
v -0.005469 0.013052 0.003425
v -0.005875 0.012849 0.003422
v -0.006035 0.012775 0.003291
v -0.006403 0.012438 0.003087
v -0.002828 0.012081 0.003087
v -0.002831 0.012074 0.003326
v -0.002713 0.011885 -0.000451
v -0.002805 0.012094 -0.000451
v -0.003172 0.012442 0.003640
v -0.003095 0.012240 0.003707
v -0.002947 0.012211 0.003443
v -0.003145 0.012473 0.003442
v -0.003352 0.012264 0.003895
v -0.003570 0.012399 0.003961
v -0.003703 0.012597 0.003872
v -0.003725 0.012829 0.003679
v -0.004080 0.012727 0.003934
v -0.004296 0.012766 0.003968
v -0.004266 0.013126 0.003614
v -0.004502 0.013136 0.003631
v -0.004789 0.012965 0.003813
v -0.005018 0.013134 0.003629
v -0.005132 0.012947 0.003794
v -0.005499 0.012890 0.003737
v -0.005254 0.013114 0.003532
v -0.006421 0.012455 -0.000451
v -0.006568 0.012245 -0.000451
v -0.006571 0.012240 -0.000451
v -0.005330 0.013130 0.003295
v -0.005512 0.013059 0.003087
v -0.005854 0.012887 0.003087
v -0.006038 0.012777 0.003087
v -0.006215 0.012615 0.003087
v -0.006232 0.012637 -0.000451
v -0.002950 0.012258 0.003087
v -0.002808 0.012100 -0.000451
v -0.003128 0.012491 0.003087
v -0.003334 0.012650 0.003442
v -0.003536 0.012780 0.003628
v -0.003399 0.012574 0.003700
v -0.003315 0.012669 0.003087
v -0.004080 0.012911 0.003756
v -0.003725 0.012916 0.003442
v -0.004093 0.013078 0.003474
v -0.004220 0.013140 0.003377
v -0.004404 0.013155 0.003474
v -0.004789 0.013175 0.003442
v -0.004789 0.013139 0.003635
v -0.005139 0.013147 0.003425
v -0.005144 0.013166 0.003087
v -0.005149 0.013215 -0.000451
v -0.005334 0.013132 0.003087
v -0.005363 0.013156 -0.000451
v -0.005854 0.012910 -0.000451
v -0.006060 0.012798 -0.000451
v -0.002811 0.012104 -0.000451
v -0.002943 0.012277 -0.000451
v -0.003115 0.012490 -0.000451
v -0.003120 0.012497 -0.000451
v -0.003125 0.012501 -0.000451
v -0.003304 0.012674 -0.000451
v -0.003511 0.012798 0.003442
v -0.003492 0.012812 0.003087
v -0.003477 0.012822 -0.000451
v -0.003725 0.012945 0.003087
v -0.004024 0.013083 0.003087
v -0.004201 0.013146 0.003087
v -0.004435 0.013184 0.003087
v -0.004789 0.013199 0.003087
v -0.004789 0.013250 -0.000451
v -0.005144 0.013216 -0.000451
v -0.003481 0.012826 -0.000451
v -0.003488 0.012830 -0.000451
v -0.003725 0.012966 -0.000451
v -0.003992 0.013089 -0.000451
v -0.004165 0.013168 -0.000451
v -0.004170 0.013170 -0.000451
v -0.004435 0.013233 -0.000451
f 80 101 81
f 138 164 150
f 150 129 138
f 81 101 102
f 59 80 81
f 28 41 29
f 100 78 77
f 86 80 65
f 101 80 86
f 161 158 187
f 136 161 162
f 158 161 136
f 187 158 186
f 309 308 307
f 300 280 276
f 168 193 194
f 147 172 175
f 142 120 141
f 289 308 309
f 129 102 113
f 113 102 101
f 138 129 113
f 113 111 138
f 101 86 113
f 41 28 40
f 40 59 41
f 78 100 82
f 82 100 103
f 82 105 83
f 103 104 82
f 104 105 82
f 130 104 103
f 112 86 85
f 85 111 112
f 112 113 86
f 111 113 112
f 164 136 163
f 163 136 162
f 137 164 138
f 137 136 164
f 138 111 137
f 185 186 158
f 114 89 88
f 115 89 114
f 309 307 317
f 317 307 306
f 306 307 284
f 258 283 284
f 284 285 258
f 307 285 284
f 286 261 287
f 286 307 308
f 286 285 307
f 304 302 313
f 313 302 312
f 176 148 174
f 49 50 33
f 72 50 49
f 49 71 72
f 282 258 278
f 282 283 258
f 278 258 255
f 258 281 255
f 287 261 260
f 259 231 258
f 259 286 287
f 287 260 259
f 259 260 231
f 258 285 259
f 285 286 259
f 219 195 194
f 280 302 301
f 301 282 278
f 301 302 304
f 304 282 301
f 303 302 280
f 303 280 300
f 194 195 192
f 192 168 194
f 140 168 141
f 172 147 143
f 120 142 143
f 4 5 1
f 4 10 11
f 14 5 13
f 11 21 13
f 18 19 9
f 31 45 32
f 32 45 46
f 32 18 31
f 19 18 32
f 33 19 32
f 9 10 3
f 3 4 1
f 10 4 3
f 9 19 20
f 20 10 9
f 11 10 20
f 20 21 11
f 20 19 33
f 33 21 20
f 88 89 66
f 46 45 67
f 67 89 68
f 45 66 67
f 67 66 89
f 269 292 293
f 310 289 309
f 213 211 239
f 217 188 216
f 80 59 58
f 59 40 58
f 29 26 16
f 16 28 29
f 16 26 15
f 15 7 16
f 56 42 38
f 83 105 106
f 78 82 79
f 79 55 78
f 56 55 79
f 128 130 103
f 149 130 128
f 103 100 128
f 131 130 151
f 151 153 131
f 104 130 131
f 158 136 135
f 153 183 160
f 160 191 188
f 110 111 85
f 110 137 111
f 136 137 110
f 213 186 212
f 186 185 212
f 212 211 213
f 184 211 212
f 212 185 184
f 306 315 316
f 316 317 306
f 305 284 283
f 305 282 304
f 283 282 305
f 306 284 305
f 305 315 306
f 77 76 99
f 145 125 147
f 145 174 148
f 148 126 145
f 126 125 145
f 72 71 92
f 278 253 279
f 175 202 199
f 278 255 254
f 254 255 226
f 254 253 278
f 226 253 254
f 176 174 201
f 227 228 201
f 258 231 257
f 231 228 257
f 257 228 227
f 195 219 222
f 171 197 172
f 172 143 171
f 171 143 142
f 175 172 198
f 172 197 198
f 198 202 175
f 278 279 248
f 248 279 253
f 251 276 280
f 251 245 276
f 312 302 311
f 302 303 311
f 300 276 299
f 276 298 299
f 276 245 274
f 170 192 195
f 197 171 170
f 141 168 170
f 168 192 170
f 170 142 141
f 170 171 142
f 116 115 139
f 11 13 12
f 12 13 5
f 12 4 11
f 5 4 12
f 22 13 21
f 1 5 6
f 83 84 61
f 61 82 83
f 63 61 64
f 64 61 84
f 64 86 65
f 85 86 64
f 77 78 54
f 78 55 54
f 54 76 77
f 47 32 46
f 46 67 47
f 47 67 68
f 270 293 294
f 269 293 270
f 265 243 273
f 238 243 265
f 238 239 211
f 216 243 238
f 238 217 216
f 211 217 238
f 291 292 269
f 269 268 291
f 289 268 288
f 308 289 288
f 288 286 308
f 261 286 288
f 189 211 184
f 189 217 211
f 184 160 189
f 188 217 189
f 189 160 188
f 188 191 209
f 204 203 176
f 204 228 231
f 176 201 204
f 204 201 228
f 25 17 14
f 14 13 25
f 57 58 40
f 40 39 57
f 65 80 57
f 80 58 57
f 155 156 134
f 156 135 134
f 107 106 85
f 107 84 83
f 83 106 107
f 210 183 182
f 208 209 182
f 182 207 208
f 182 191 210
f 182 209 191
f 157 185 158
f 158 135 157
f 184 185 157
f 157 160 184
f 135 160 157
f 153 160 154
f 155 131 154
f 154 131 153
f 191 160 190
f 190 160 183
f 210 191 190
f 190 183 210
f 159 135 156
f 159 160 135
f 159 154 160
f 159 156 155
f 155 154 159
f 109 135 136
f 136 110 109
f 109 134 135
f 109 110 85
f 315 305 314
f 304 313 314
f 314 305 304
f 73 92 97
f 72 92 73
f 52 51 73
f 73 50 72
f 73 51 50
f 70 92 71
f 97 92 70
f 71 49 70
f 124 97 122
f 122 144 124
f 98 99 76
f 76 75 98
f 126 99 98
f 98 125 126
f 98 97 124
f 175 199 173
f 173 147 175
f 173 145 147
f 174 145 173
f 173 199 174
f 174 199 200
f 200 201 174
f 226 227 200
f 227 201 200
f 225 202 229
f 225 199 202
f 225 200 199
f 225 253 226
f 226 200 225
f 256 281 258
f 258 257 256
f 226 255 256
f 256 255 281
f 256 227 226
f 256 257 227
f 195 222 220
f 220 221 195
f 245 221 220
f 229 202 230
f 280 301 277
f 277 251 280
f 277 301 278
f 278 248 277
f 248 251 277
f 245 251 250
f 295 296 276
f 295 274 275
f 276 274 295
f 297 298 276
f 276 296 297
f 275 274 244
f 244 274 245
f 245 220 244
f 195 221 196
f 196 170 195
f 197 170 196
f 167 140 139
f 139 140 118
f 118 116 139
f 90 89 115
f 115 116 90
f 68 89 90
f 120 143 121
f 143 144 121
f 144 122 121
f 146 143 147
f 146 144 143
f 147 125 146
f 50 51 34
f 34 22 21
f 33 50 34
f 34 21 33
f 13 22 23
f 35 51 52
f 35 34 51
f 22 34 35
f 35 23 22
f 1 6 2
f 8 6 5
f 8 5 14
f 8 16 7
f 14 17 8
f 17 16 8
f 7 2 8
f 8 2 6
f 43 42 62
f 42 61 62
f 62 61 63
f 60 61 42
f 60 42 56
f 56 79 60
f 60 79 82
f 82 61 60
f 85 64 87
f 87 64 84
f 87 107 85
f 84 107 87
f 53 75 76
f 76 54 53
f 52 75 53
f 53 35 52
f 48 49 33
f 48 47 49
f 33 32 48
f 32 47 48
f 69 47 68
f 49 47 69
f 68 70 69
f 69 70 49
f 242 243 216
f 240 268 269
f 239 238 267
f 292 291 290
f 290 291 268
f 289 310 290
f 290 268 289
f 261 263 262
f 263 234 262
f 233 262 234
f 233 260 261
f 261 262 233
f 203 204 179
f 30 25 38
f 30 42 43
f 30 38 42
f 17 25 30
f 38 25 37
f 37 55 56
f 56 38 37
f 155 134 133
f 188 209 218
f 218 209 208
f 178 182 183
f 178 153 151
f 178 183 153
f 74 75 52
f 52 73 74
f 74 73 97
f 97 98 74
f 74 98 75
f 96 122 97
f 97 70 96
f 96 70 95
f 123 96 95
f 122 96 123
f 127 98 124
f 125 98 127
f 124 144 127
f 127 146 125
f 144 146 127
f 252 248 253
f 253 225 252
f 229 248 252
f 252 225 229
f 246 220 222
f 223 251 248
f 223 250 251
f 223 221 245
f 245 250 223
f 223 196 221
f 139 165 166
f 166 167 139
f 116 118 93
f 243 242 272
f 294 273 272
f 272 273 243
f 271 270 294
f 271 242 270
f 294 272 271
f 271 272 242
f 216 188 215
f 215 242 216
f 266 238 265
f 266 267 238
f 232 204 231
f 232 233 204
f 231 260 232
f 260 233 232
f 203 179 177
f 17 30 27
f 27 30 39
f 28 16 27
f 27 16 17
f 27 40 28
f 27 39 40
f 44 64 65
f 65 57 44
f 63 64 44
f 44 57 39
f 39 30 44
f 44 30 43
f 43 62 44
f 44 62 63
f 24 37 25
f 24 25 13
f 13 23 24
f 36 54 55
f 55 37 36
f 23 35 36
f 36 24 23
f 37 24 36
f 36 53 54
f 35 53 36
f 132 133 106
f 104 131 132
f 132 105 104
f 132 106 105
f 108 133 134
f 108 109 85
f 134 109 108
f 85 106 108
f 106 133 108
f 207 206 235
f 263 236 235
f 235 236 207
f 235 234 263
f 235 206 234
f 204 233 205
f 205 206 180
f 205 233 234
f 234 206 205
f 205 179 204
f 180 179 205
f 182 178 152
f 152 178 151
f 151 130 152
f 152 130 149
f 149 177 152
f 152 179 180
f 152 177 179
f 220 246 247
f 275 244 247
f 247 244 220
f 249 223 248
f 249 248 229
f 229 230 249
f 224 198 197
f 197 196 224
f 196 223 224
f 224 249 230
f 223 249 224
f 202 198 224
f 224 230 202
f 169 166 165
f 167 166 169
f 140 167 169
f 193 168 169
f 168 140 169
f 117 118 140
f 117 93 118
f 94 123 95
f 93 117 94
f 95 70 94
f 70 93 94
f 120 121 94
f 94 121 122
f 122 123 94
f 91 90 116
f 116 93 91
f 68 90 91
f 91 70 68
f 91 93 70
f 214 236 240
f 242 215 214
f 214 215 188
f 188 218 214
f 218 236 214
f 240 236 264
f 268 240 264
f 264 263 261
f 264 236 263
f 261 288 264
f 264 288 268
f 207 236 237
f 237 236 218
f 208 207 237
f 237 218 208
f 181 152 180
f 182 152 181
f 207 182 181
f 180 206 181
f 181 206 207
f 119 140 141
f 119 117 140
f 119 94 117
f 141 120 119
f 120 94 119
f 242 214 241
f 241 214 240
f 270 242 241
f 269 270 241
f 241 240 269
f 177 100 77
f 176 203 177
f 177 128 100
f 177 148 176
f 77 99 177
f 177 126 148
f 149 128 177
f 177 99 126
f 155 133 132
f 132 131 155
f 194 193 169
f 81 102 169
f 265 273 169
f 169 150 164
f 169 114 88
f 31 18 169
f 312 311 169
f 169 59 81
f 169 161 187
f 164 163 169
f 169 219 194
f 29 41 169
f 169 26 29
f 169 293 292
f 169 310 309
f 139 115 169
f 187 186 169
f 169 303 300
f 315 314 169
f 169 165 139
f 298 297 169
f 169 3 1
f 129 150 169
f 169 102 129
f 41 59 169
f 162 161 169
f 169 186 213
f 309 317 169
f 169 45 31
f 88 66 169
f 15 26 169
f 169 163 162
f 115 114 169
f 1 2 169
f 169 313 312
f 169 316 315
f 292 290 169
f 300 299 169
f 169 7 15
f 169 18 9
f 9 3 169
f 169 66 45
f 294 293 169
f 169 266 265
f 213 239 169
f 317 316 169
f 169 222 219
f 169 311 303
f 169 299 298
f 169 295 275
f 275 247 169
f 169 273 294
f 169 314 313
f 296 295 169
f 169 297 296
f 169 2 7
f 239 267 169
f 169 290 310
f 169 246 222
f 267 266 169
f 169 247 246
