v 0.026662 0.020299 0.004300
v 0.026047 0.020299 0.004600
v 0.030580 0.022491 0.004300
v 0.038397 0.020299 0.004300
v 0.026047 0.020299 0.009000
v 0.029966 0.022491 0.004600
v 0.030251 0.022491 0.004461
v 0.037346 0.022491 0.004300
v 0.038889 0.020299 0.004600
v 0.026662 0.020299 0.009300
v 0.030580 0.022491 0.009300
v 0.029966 0.022491 0.009000
v 0.037618 0.022491 0.004573
v 0.037646 0.022491 0.004600
v 0.038889 0.020299 0.009000
v 0.037646 0.022491 0.004603
v 0.038397 0.020299 0.009300
v 0.037346 0.022491 0.009300
v 0.037646 0.022491 0.009000
f 2 3 1
f 11 5 10
f 12 5 11
f 4 8 9
f 18 17 15
f 2 6 7
f 7 3 2
f 9 8 14
f 14 16 9
f 18 15 19
f 13 14 8
f 16 14 13
f 2 5 6
f 6 5 12
f 10 17 11
f 11 17 18
f 3 8 4
f 4 1 3
f 2 1 15
f 15 4 9
f 15 5 2
f 15 17 10
f 10 5 15
f 1 4 15
f 19 15 9
f 9 16 19
f 3 7 13
f 13 8 3
f 13 11 18
f 13 6 12
f 12 11 13
f 18 19 13
f 13 7 6
f 13 19 16
