v 0.015756 -0.005728 0.002530
v 0.014788 -0.005891 0.002530
v 0.015297 -0.006099 0.008516
v 0.015480 -0.006088 0.008516
v 0.015797 -0.006071 0.008516
v 0.016297 -0.006148 0.008516
v 0.016595 -0.005879 0.002530
v 0.014297 -0.006100 0.002530
v 0.014611 -0.006293 0.008516
v 0.014861 -0.006208 0.008516
v 0.015021 -0.006168 0.008516
v 0.016631 -0.006237 0.008516
v 0.016792 -0.005918 0.002530
v 0.013952 -0.006689 0.008516
v 0.014076 -0.006606 0.008516
v 0.014297 -0.006462 0.008516
v 0.014411 -0.006400 0.008516
v 0.013774 -0.006455 0.002530
v 0.016880 -0.006337 0.008516
v 0.017119 -0.006029 0.002530
v 0.013861 -0.006777 0.008516
v 0.013448 -0.006791 0.002530
v 0.013701 -0.006931 0.008516
v 0.017297 -0.006544 0.008516
v 0.018086 -0.006545 0.002530
v 0.013235 -0.007026 0.002530
v 0.013477 -0.007181 0.008516
v 0.017417 -0.006610 0.008516
v 0.019307 -0.007221 0.002530
v 0.017626 -0.006726 0.008516
v 0.012854 -0.007563 0.002530
v 0.013268 -0.007520 0.008516
v 0.017785 -0.006815 0.008516
v 0.023789 -0.009740 0.002530
v 0.012683 -0.008023 0.002530
v 0.013087 -0.007921 0.008516
v 0.024686 -0.010695 0.008516
v 0.025301 -0.011041 0.008516
v 0.025623 -0.011227 0.008516
v 0.025135 -0.010518 0.002530
v 0.012657 -0.008520 0.002530
v 0.012964 -0.008520 0.008516
v 0.013021 -0.008171 0.008516
v 0.025873 -0.011394 0.008516
v 0.026064 -0.011061 0.002530
v 0.012651 -0.009021 0.002530
v 0.012948 -0.009021 0.008516
v 0.025994 -0.011485 0.008516
v 0.026312 -0.011230 0.002530
v 0.012657 -0.009318 0.002530
v 0.012969 -0.009164 0.008516
v 0.012678 -0.009523 0.002530
v 0.026202 -0.011645 0.008516
v 0.026603 -0.011495 0.002530
v 0.013005 -0.009414 0.008516
v 0.012725 -0.009840 0.002530
v 0.026453 -0.011884 0.008516
v 0.026823 -0.011744 0.002530
v 0.013077 -0.009664 0.008516
v 0.013034 -0.010505 0.002530
v 0.013228 -0.010021 0.008516
v 0.026652 -0.012134 0.008516
v 0.027064 -0.012038 0.002530
v 0.013274 -0.010799 0.002530
v 0.013645 -0.010659 0.008516
v 0.013445 -0.010409 0.008516
v 0.026870 -0.012522 0.008516
v 0.027372 -0.012703 0.002530
v 0.013494 -0.011048 0.002530
v 0.013895 -0.010898 0.008516
v 0.027020 -0.012879 0.008516
v 0.027093 -0.013129 0.008516
v 0.027420 -0.013020 0.002530
v 0.013785 -0.011313 0.002530
v 0.014104 -0.011058 0.008516
v 0.027129 -0.013379 0.008516
v 0.027440 -0.013225 0.002530
v 0.027149 -0.013522 0.008516
v 0.014033 -0.011482 0.002530
v 0.014224 -0.011149 0.008516
v 0.027446 -0.013522 0.002530
v 0.027440 -0.014023 0.002530
v 0.027133 -0.014023 0.008516
v 0.014963 -0.012025 0.002530
v 0.014475 -0.011316 0.008516
v 0.027414 -0.014520 0.002530
v 0.027077 -0.014372 0.008516
v 0.016308 -0.012803 0.002530
v 0.014796 -0.011502 0.008516
v 0.027243 -0.014980 0.002530
v 0.027010 -0.014622 0.008516
v 0.020790 -0.015322 0.002530
v 0.022312 -0.015729 0.008516
v 0.015412 -0.011848 0.008516
v 0.026829 -0.015023 0.008516
v 0.026621 -0.015362 0.008516
v 0.026862 -0.015517 0.002530
v 0.022011 -0.015998 0.002530
v 0.022472 -0.015818 0.008516
v 0.026396 -0.015612 0.008516
v 0.026650 -0.015752 0.002530
v 0.022978 -0.016514 0.002530
v 0.022800 -0.015999 0.008516
v 0.022680 -0.015933 0.008516
v 0.026237 -0.015767 0.008516
v 0.026324 -0.016088 0.002530
v 0.023306 -0.016625 0.002530
v 0.023466 -0.016306 0.008516
v 0.023217 -0.016206 0.008516
v 0.026146 -0.015854 0.008516
v 0.025801 -0.016443 0.002530
v 0.023503 -0.016664 0.002530
v 0.023801 -0.016395 0.008516
v 0.026021 -0.015937 0.008516
v 0.025801 -0.016081 0.008516
v 0.025686 -0.016143 0.008516
v 0.025487 -0.016251 0.008516
v 0.025310 -0.016652 0.002530
v 0.024341 -0.016815 0.002530
v 0.024301 -0.016472 0.008516
v 0.025236 -0.016335 0.008516
v 0.025077 -0.016375 0.008516
v 0.024800 -0.016444 0.008516
v 0.024618 -0.016455 0.008516
f 81 78 82
f 1 2 3
f 77 78 81
f 6 12 13
f 13 12 20
f 53 54 49
f 57 54 53
f 67 68 63
f 60 61 56
f 42 35 41
f 14 8 18
f 2 8 9
f 22 23 18
f 22 26 23
f 31 35 36
f 36 32 31
f 27 26 31
f 31 32 27
f 23 26 27
f 120 113 119
f 118 123 119
f 118 111 117
f 91 90 86
f 119 113 112
f 113 107 112
f 102 107 108
f 108 107 113
f 85 79 84
f 84 88 85
f 78 77 73
f 7 6 13
f 1 6 7
f 5 6 1
f 39 34 38
f 34 37 38
f 58 57 63
f 58 54 57
f 49 45 44
f 44 45 39
f 63 57 62
f 62 67 63
f 72 73 68
f 64 65 60
f 69 65 64
f 66 61 60
f 60 65 66
f 69 74 70
f 70 65 69
f 18 23 21
f 21 14 18
f 16 8 15
f 8 14 15
f 2 9 10
f 17 8 16
f 17 9 8
f 43 35 42
f 43 36 35
f 119 123 124
f 124 120 119
f 121 118 117
f 97 90 96
f 106 110 111
f 101 97 100
f 100 97 96
f 100 106 101
f 86 82 83
f 83 82 78
f 96 90 95
f 90 91 95
f 109 103 102
f 102 108 109
f 85 88 89
f 88 94 89
f 102 103 98
f 88 92 93
f 93 94 88
f 40 34 39
f 39 45 40
f 4 1 3
f 4 5 1
f 20 24 25
f 19 20 12
f 19 24 20
f 33 34 29
f 33 37 34
f 48 53 49
f 49 44 48
f 68 67 71
f 71 72 68
f 78 73 76
f 73 72 76
f 80 74 79
f 80 79 85
f 59 56 61
f 59 55 56
f 47 41 46
f 42 41 47
f 3 2 11
f 2 10 11
f 123 118 122
f 118 121 122
f 110 106 105
f 106 100 105
f 117 111 116
f 111 115 116
f 111 110 114
f 114 115 111
f 87 91 86
f 86 83 87
f 92 98 99
f 99 93 92
f 29 25 30
f 30 33 29
f 75 70 74
f 74 80 75
f 50 47 46
f 104 98 103
f 104 99 98
f 28 25 24
f 28 30 25
f 47 50 52
f 52 51 47
f 55 51 52
f 56 55 52
f 23 27 28
f 28 62 57
f 39 38 28
f 28 100 96
f 28 108 113
f 28 59 61
f 16 15 28
f 103 109 28
f 28 4 3
f 78 76 28
f 61 66 28
f 28 17 16
f 28 124 123
f 113 120 28
f 110 105 28
f 12 6 28
f 91 87 28
f 57 53 28
f 28 44 39
f 28 71 67
f 28 21 23
f 42 47 28
f 32 36 28
f 28 27 32
f 28 43 42
f 28 121 117
f 28 83 78
f 96 95 28
f 85 89 28
f 6 5 28
f 28 19 12
f 28 38 37
f 37 33 28
f 67 62 28
f 53 48 28
f 28 66 65
f 65 70 28
f 28 80 85
f 14 21 28
f 28 15 14
f 28 10 9
f 9 17 28
f 36 43 28
f 120 124 28
f 3 11 28
f 123 122 28
f 117 116 28
f 28 114 110
f 28 95 91
f 28 109 108
f 28 89 94
f 94 93 28
f 5 4 28
f 24 19 28
f 28 51 55
f 28 48 44
f 72 71 28
f 28 76 72
f 28 104 103
f 55 59 28
f 70 75 28
f 28 11 10
f 28 122 121
f 28 105 100
f 28 116 115
f 115 114 28
f 28 87 83
f 93 99 28
f 33 30 28
f 28 75 80
f 47 51 28
f 99 104 28
f 52 45 49
f 81 82 52
f 79 74 52
f 18 8 52
f 52 22 18
f 119 112 52
f 49 54 52
f 52 118 119
f 46 41 52
f 13 20 52
f 68 73 52
f 52 25 29
f 52 64 60
f 52 82 86
f 2 1 52
f 63 68 52
f 52 77 81
f 52 58 63
f 52 35 31
f 31 26 52
f 52 97 101
f 52 107 102
f 52 84 79
f 101 106 52
f 29 34 52
f 34 40 52
f 52 7 13
f 52 74 69
f 60 56 52
f 52 41 35
f 52 8 2
f 26 22 52
f 111 118 52
f 86 90 52
f 52 112 107
f 88 84 52
f 52 92 88
f 52 73 77
f 102 98 52
f 1 7 52
f 54 58 52
f 69 64 52
f 90 97 52
f 52 106 111
f 52 98 92
f 52 40 45
f 20 25 52
f 52 50 46
