v 0.040351 0.027680 0.019214
v 0.040351 0.027680 0.018213
v 0.039851 0.027660 0.019214
v 0.040351 0.027506 0.019714
v 0.040851 0.027647 0.019214
v 0.040351 0.027570 0.017712
v 0.039851 0.027660 0.018213
v 0.040851 0.027647 0.018213
v 0.039351 0.027638 0.019214
v 0.039851 0.027486 0.019714
v 0.039851 0.027283 0.019989
v 0.040351 0.027293 0.019996
v 0.040752 0.027280 0.019988
v 0.040891 0.027428 0.019763
v 0.041351 0.027393 0.019669
v 0.041851 0.027322 0.019578
v 0.042158 0.027274 0.019505
v 0.041351 0.027531 0.019214
v 0.040351 0.027354 0.017376
v 0.039851 0.027345 0.017382
v 0.039851 0.027551 0.017712
v 0.040851 0.027531 0.017712
v 0.040851 0.027335 0.017391
v 0.039351 0.027638 0.018213
v 0.041351 0.027531 0.018213
v 0.041851 0.027322 0.017799
v 0.038850 0.027531 0.019214
v 0.038895 0.027364 0.019725
v 0.039351 0.027457 0.019714
v 0.039351 0.027267 0.019977
v 0.039351 0.027000 0.020032
v 0.039851 0.027000 0.020045
v 0.040351 0.027000 0.020051
v 0.041084 0.027241 0.019962
v 0.041851 0.026858 0.020020
v 0.042218 0.026810 0.020001
v 0.041851 0.027109 0.019828
v 0.042183 0.027287 0.019214
v 0.041851 0.027390 0.019214
v 0.042356 0.027003 0.019722
v 0.042767 0.026861 0.019605
v 0.042852 0.026916 0.019214
v 0.042436 0.027167 0.019214
v 0.040351 0.027000 0.017258
v 0.039851 0.027000 0.017264
v 0.040851 0.027000 0.017273
v 0.039351 0.027000 0.017276
v 0.039351 0.027328 0.017394
v 0.039351 0.027522 0.017712
v 0.041386 0.027386 0.017669
v 0.041579 0.027241 0.017473
v 0.041242 0.027290 0.017427
v 0.041851 0.026952 0.017344
v 0.038850 0.027531 0.018213
v 0.041851 0.027390 0.018213
v 0.042158 0.027274 0.017901
v 0.041851 0.027203 0.017549
v 0.038350 0.027351 0.019214
v 0.038093 0.027254 0.019469
v 0.038350 0.027299 0.019543
v 0.039093 0.027254 0.019966
v 0.038895 0.027000 0.020010
v 0.038350 0.026842 0.020015
v 0.038350 0.026501 0.020070
v 0.038850 0.026501 0.020075
v 0.040351 0.023998 0.020244
v 0.041851 0.026501 0.020075
v 0.042371 0.026517 0.020031
v 0.042856 0.026356 0.020005
v 0.043144 0.026275 0.019982
v 0.042549 0.026697 0.019939
v 0.042183 0.027287 0.018213
v 0.043327 0.026397 0.019712
v 0.043664 0.026304 0.019543
v 0.042852 0.026916 0.018213
v 0.043104 0.026749 0.019214
v 0.042436 0.027167 0.018213
v 0.040356 0.024201 0.016413
v 0.040138 0.024194 0.016413
v 0.039856 0.024184 0.016413
v 0.038350 0.026929 0.017353
v 0.038974 0.027296 0.017423
v 0.038826 0.027390 0.017676
v 0.042356 0.026852 0.017391
v 0.042356 0.026501 0.017273
v 0.040851 0.024046 0.016413
v 0.040638 0.024117 0.016413
v 0.038093 0.027254 0.017955
v 0.038350 0.027351 0.018213
v 0.042752 0.026848 0.017712
v 0.042337 0.027096 0.017725
v 0.042639 0.026771 0.017445
v 0.038088 0.027254 0.019214
v 0.037875 0.026990 0.019705
v 0.037840 0.027158 0.019214
v 0.037345 0.026932 0.019214
v 0.037068 0.026765 0.019489
v 0.037345 0.026842 0.019590
v 0.037989 0.026794 0.019995
v 0.037345 0.026372 0.020014
v 0.037345 0.025998 0.020069
v 0.023826 0.014981 0.020358
v 0.024327 0.014981 0.020375
v 0.039351 0.023495 0.020263
v 0.039851 0.023998 0.020240
v 0.039851 0.023495 0.020268
v 0.041351 0.022996 0.020262
v 0.043357 0.025499 0.020067
v 0.042856 0.025998 0.020060
v 0.043327 0.025982 0.020013
v 0.043649 0.025805 0.019991
v 0.043480 0.026137 0.019877
v 0.043827 0.025959 0.019690
v 0.044134 0.025782 0.019503
v 0.043946 0.026050 0.019214
v 0.043693 0.026330 0.019214
v 0.043357 0.026578 0.019214
v 0.043104 0.026749 0.018213
v 0.043664 0.026304 0.017848
v 0.039351 0.024001 0.016413
v 0.037845 0.026501 0.017279
v 0.037845 0.026836 0.017398
v 0.037558 0.026771 0.017443
v 0.038642 0.027232 0.017486
v 0.038350 0.027180 0.017600
v 0.038350 0.027299 0.017850
v 0.043218 0.026327 0.017408
v 0.042822 0.026497 0.017372
v 0.043376 0.026021 0.017344
v 0.041217 0.023840 0.016413
v 0.041069 0.023927 0.016413
v 0.037895 0.027080 0.017758
v 0.037375 0.026836 0.017739
v 0.037068 0.026765 0.017924
v 0.037345 0.026932 0.018213
v 0.037840 0.027158 0.018213
v 0.038088 0.027254 0.018213
v 0.043376 0.026426 0.017694
v 0.043555 0.026204 0.017514
v 0.037657 0.026700 0.019941
v 0.037058 0.026774 0.019214
v 0.036439 0.026339 0.019587
v 0.032571 0.024255 0.019480
v 0.024544 0.019758 0.019494
v 0.029041 0.022268 0.019503
v 0.033537 0.024777 0.019511
v 0.034503 0.025296 0.019539
v 0.037345 0.026623 0.019841
v 0.036875 0.026484 0.019705
v 0.037013 0.026294 0.019994
v 0.036345 0.025499 0.020062
v 0.033488 0.024304 0.019998
v 0.033839 0.024394 0.020018
v 0.032839 0.023495 0.020067
v 0.024827 0.018989 0.020070
v 0.029333 0.021491 0.020072
v 0.033839 0.023998 0.020073
v 0.004301 0.007476 0.020073
v -0.000205 0.004970 0.020071
v 0.014819 0.009979 0.020352
v -0.000705 0.000965 0.020370
v 0.024327 0.012478 0.020375
v 0.025327 0.013480 0.020372
v 0.041351 0.022493 0.020268
v -0.000205 0.000965 0.020374
v 0.014819 0.009476 0.020375
v 0.044357 0.023495 0.020075
v 0.043857 0.024497 0.020075
v 0.043857 0.024996 0.020053
v 0.043832 0.025457 0.020007
v 0.044119 0.025260 0.019972
v 0.043985 0.025595 0.019837
v 0.044149 0.025798 0.019214
v 0.044223 0.025457 0.019688
v 0.044689 0.024900 0.019588
v 0.044595 0.025228 0.019214
v 0.043946 0.026050 0.018213
v 0.043693 0.026330 0.018213
v 0.043357 0.026578 0.018213
v 0.044134 0.025782 0.017903
v 0.043852 0.025992 0.017709
v 0.023084 0.016080 0.016413
v 0.037375 0.026507 0.017363
v 0.022826 0.015951 0.016413
v 0.022692 0.015883 0.016413
v 0.036845 0.026323 0.017410
v 0.035959 0.025824 0.017406
v 0.034993 0.025305 0.017419
v 0.036592 0.026253 0.017459
v 0.037221 0.026681 0.017590
v 0.043703 0.025869 0.017399
v 0.043867 0.025496 0.017350
v 0.041465 0.023585 0.016413
v 0.037058 0.026774 0.018213
v 0.033537 0.024777 0.017892
v 0.029041 0.022268 0.017905
v 0.024544 0.019758 0.017918
v 0.032571 0.024255 0.017938
v 0.044040 0.025663 0.017569
v 0.044169 0.025328 0.017418
v 0.036043 0.025776 0.019984
v 0.035409 0.025853 0.019214
v 0.028075 0.021746 0.019470
v 0.035864 0.025905 0.019725
v 0.026476 0.020799 0.019550
v -0.001463 0.005224 0.019469
v -0.000497 0.005746 0.019502
v 0.003999 0.008255 0.019510
v 0.008495 0.010765 0.019519
v 0.021979 0.018290 0.019543
v 0.035077 0.025257 0.019971
v 0.023519 0.018769 0.019985
v 0.024490 0.019288 0.019995
v 0.028986 0.021794 0.019997
v 0.023826 0.018489 0.020063
v 0.003945 0.007782 0.019998
v 0.008807 0.010388 0.020019
v -0.001205 0.004470 0.020065
v 0.020320 0.016486 0.020068
v 0.007807 0.009476 0.020069
v -0.000205 0.001465 0.020353
v -0.002211 0.003968 0.020054
v -0.002711 0.003468 0.020068
v -0.003211 0.002969 0.020075
v -0.001205 0.000965 0.020339
v -0.001205 0.000463 0.020365
v -0.001205 -0.000036 0.020375
v 0.024827 0.012478 0.020369
v 0.014819 0.007975 0.020375
v 0.000295 -0.001038 0.020375
v 0.015819 0.007476 0.020371
v 0.040351 0.020992 0.020254
v 0.041351 0.021994 0.020252
v 0.043357 0.019488 0.020075
v 0.044357 0.020992 0.020067
v 0.044357 0.021491 0.020075
v 0.044763 0.022493 0.020020
v 0.044753 0.022996 0.020020
v 0.044728 0.023495 0.020020
v 0.044357 0.023998 0.020059
v 0.044367 0.024481 0.020018
v 0.044189 0.024996 0.019998
v 0.044629 0.024304 0.019980
v 0.044535 0.024635 0.019922
v 0.044149 0.025798 0.018213
v 0.044758 0.024481 0.019739
v 0.045149 0.023849 0.019529
v 0.044946 0.024497 0.019214
v 0.044733 0.024977 0.019214
v 0.044595 0.025228 0.018213
v 0.044525 0.025119 0.017712
v 0.044258 0.025496 0.017727
v 0.035344 0.025402 0.017370
v 0.022504 0.015780 0.016413
v 0.032428 0.023837 0.017398
v 0.034344 0.024871 0.017381
v 0.029833 0.022361 0.017385
v 0.023435 0.018818 0.017405
v 0.005455 0.008784 0.017419
v 0.026000 0.020287 0.017426
v 0.034027 0.024784 0.017432
v 0.032096 0.023743 0.017465
v 0.034656 0.025212 0.017519
v 0.007049 0.009731 0.017460
v 0.044347 0.024951 0.017386
v 0.043857 0.024996 0.017251
v 0.041584 0.023437 0.016413
v 0.028075 0.021746 0.017953
v 0.035409 0.025853 0.018213
v 0.025664 0.020193 0.017541
v 0.008495 0.010765 0.017881
v 0.003999 0.008255 0.017893
v -0.000497 0.005746 0.017906
v -0.001463 0.005224 0.017954
v 0.044609 0.024755 0.017458
v 0.034210 0.025183 0.019214
v 0.011061 0.012230 0.019465
v 0.030581 0.022748 0.019967
v 0.001434 0.006786 0.019556
v 0.005930 0.009296 0.019563
v 0.001043 0.006226 0.019966
v -0.000770 0.005617 0.019214
v -0.001715 0.005085 0.019214
v -0.002414 0.004692 0.019214
v -0.002998 0.004248 0.019507
v -0.002097 0.004796 0.019573
v 0.005539 0.008735 0.019970
v -0.001522 0.004757 0.019988
v -0.000552 0.005272 0.019996
v 0.006807 0.008977 0.020062
v -0.000205 0.005356 0.020016
v -0.001696 0.004470 0.020023
v -0.002211 0.004293 0.019998
v -0.002671 0.003948 0.020008
v -0.003196 0.003462 0.020025
v -0.003701 0.002940 0.020019
v -0.003711 0.002467 0.020060
v -0.004211 0.001465 0.020067
v -0.001205 -0.000539 0.020367
v -0.004211 0.000965 0.020075
v -0.004211 -0.001038 0.020075
v 0.040351 0.017487 0.020071
v 0.041351 0.017987 0.020065
v 0.042856 0.018989 0.020068
v 0.016319 0.007476 0.020360
v -0.000705 -0.001038 0.020361
v -0.000205 -0.001541 0.020341
v 0.000295 -0.001541 0.020341
v 0.000795 -0.001038 0.020365
v 0.043342 0.018995 0.020025
v 0.043847 0.019517 0.020019
v 0.043857 0.019990 0.020060
v 0.044377 0.020483 0.020024
v 0.044684 0.020992 0.020012
v 0.044733 0.021491 0.020020
v 0.044763 0.021994 0.020020
v 0.045011 0.021994 0.019912
v 0.045011 0.022493 0.019911
v 0.045001 0.022996 0.019899
v 0.044674 0.023998 0.020004
v 0.044976 0.023495 0.019853
v 0.045194 0.023495 0.019602
v 0.045278 0.023495 0.019214
v 0.045164 0.023904 0.019214
v 0.045075 0.024152 0.019214
v 0.044946 0.024497 0.018213
v 0.044733 0.024977 0.018213
v 0.044674 0.024867 0.017712
v 0.021400 0.015165 0.016413
v 0.004801 0.008349 0.017381
v 0.000295 0.005836 0.017385
v -0.001606 0.004805 0.017402
v 0.000959 0.006274 0.017423
v 0.021504 0.017777 0.017431
v 0.031125 0.023221 0.017495
v 0.000622 0.006181 0.017531
v -0.000977 0.005230 0.017453
v -0.001943 0.004709 0.017475
v 0.044357 0.024497 0.017302
v 0.044659 0.024497 0.017420
v 0.041663 0.023334 0.016413
v 0.034210 0.025183 0.018213
v 0.011061 0.012230 0.017961
v -0.000344 0.005659 0.017572
v -0.002097 0.004796 0.017809
v -0.002414 0.004692 0.018213
v -0.001715 0.005085 0.018213
v -0.000770 0.005617 0.018213
v 0.044827 0.024497 0.017712
v 0.045149 0.023849 0.017867
v 0.045006 0.024011 0.017705
v 0.045075 0.023495 0.017516
v 0.003722 0.008130 0.019214
v -0.002711 0.004486 0.019214
v -0.003176 0.003942 0.019696
v -0.002810 0.004100 0.019841
v -0.002671 0.004332 0.019690
v -0.003013 0.004264 0.019214
v -0.003582 0.003816 0.019214
v -0.003543 0.003784 0.019551
v -0.002473 0.004232 0.019973
v -0.001205 0.004825 0.020010
v -0.003018 0.003765 0.019992
v -0.003528 0.003291 0.020001
v -0.003988 0.002753 0.019981
v -0.004063 0.002467 0.020005
v -0.004231 0.001974 0.020024
v -0.004538 0.001465 0.020012
v -0.004587 0.000965 0.020020
v -0.001205 -0.001038 0.020332
v -0.004211 -0.001541 0.020059
v -0.003711 -0.002539 0.020053
v -0.003211 -0.003042 0.020067
v -0.004617 0.000463 0.020020
v -0.004617 -0.000036 0.020020
v -0.004607 -0.000539 0.020020
v -0.004582 -0.001038 0.020020
v 0.035845 0.014981 0.020073
v 0.015319 0.003468 0.020070
v 0.032339 0.012981 0.020069
v 0.033339 0.013480 0.020062
v 0.031338 0.012069 0.020019
v 0.040351 0.017101 0.020016
v 0.041841 0.017987 0.020023
v 0.042356 0.018489 0.020054
v 0.019825 0.005971 0.020068
v 0.007307 -0.001038 0.020067
v 0.016319 0.003968 0.020063
v 0.002801 -0.003541 0.020069
v 0.006307 -0.001541 0.020073
v 0.010813 0.000965 0.020072
v -0.002711 -0.003541 0.020060
v -0.001705 -0.004044 0.020075
v -0.000205 -0.004543 0.020051
v 0.000295 -0.004543 0.020045
v 0.001796 -0.004044 0.020070
v 0.042817 0.018509 0.020008
v 0.043163 0.018692 0.019992
v 0.043674 0.019166 0.020001
v 0.044134 0.019704 0.019981
v 0.044208 0.019990 0.020005
v 0.044644 0.020647 0.019990
v 0.045238 0.021994 0.019661
v 0.044981 0.021491 0.019858
v 0.045233 0.022493 0.019661
v 0.045223 0.022996 0.019649
v 0.045342 0.022996 0.019214
v 0.045278 0.023495 0.018213
v 0.045164 0.023904 0.018213
v 0.045075 0.024152 0.018213
v 0.018013 0.013268 0.016413
v 0.001295 0.006368 0.017373
v -0.002211 0.004383 0.017368
v -0.002542 0.004280 0.017417
v -0.002240 0.004641 0.017670
v 0.044748 0.023998 0.017363
v 0.044357 0.023998 0.017245
v 0.041807 0.022996 0.016413
v 0.041722 0.023196 0.016413
v 0.045110 0.023237 0.017462
v 0.003722 0.008130 0.018213
v -0.002711 0.004364 0.017724
v -0.002998 0.004248 0.017899
v -0.002711 0.004486 0.018213
v 0.045194 0.023495 0.017766
v -0.003354 0.003623 0.019885
v -0.003013 0.004264 0.018213
v -0.003582 0.003816 0.018213
v -0.003835 0.003581 0.019214
v -0.004013 0.003294 0.019541
v -0.003701 0.003459 0.019713
v -0.003864 0.003088 0.019875
v -0.004107 0.002940 0.019711
v -0.004568 0.002380 0.019604
v -0.004409 0.002144 0.019937
v -0.004498 0.001809 0.019990
v -0.004865 0.000463 0.019912
v -0.004528 -0.001541 0.020004
v -0.004221 -0.002024 0.020018
v -0.004043 -0.002539 0.019998
v -0.003686 -0.003000 0.020007
v -0.003503 -0.003348 0.019991
v -0.003181 -0.003525 0.020013
v -0.004865 -0.000036 0.019911
v -0.004855 -0.000539 0.019899
v 0.036201 0.014675 0.019998
v 0.006307 -0.001937 0.020018
v 0.040697 0.017185 0.019996
v 0.041351 0.017632 0.020010
v 0.041668 0.017700 0.019988
v 0.042356 0.018164 0.019998
v 0.003801 -0.003042 0.020062
v 0.002801 -0.003915 0.020014
v -0.002711 -0.003899 0.020005
v -0.002225 -0.004060 0.020031
v -0.002072 -0.004353 0.020001
v -0.001705 -0.004401 0.020020
v -0.000606 -0.004823 0.019988
v -0.000205 -0.004836 0.019996
v 0.000295 -0.004826 0.019989
v 0.000795 -0.004543 0.020032
v 0.001796 -0.004385 0.020015
v 0.042619 0.018225 0.019973
v 0.043500 0.018834 0.019885
v 0.044010 0.019369 0.019875
v 0.044253 0.019517 0.019711
v 0.044713 0.020077 0.019604
v 0.044555 0.020312 0.019937
v 0.044783 0.020483 0.019748
v 0.045199 0.021491 0.019607
v 0.045367 0.021994 0.019214
v 0.045357 0.022493 0.019214
v 0.045342 0.022996 0.018213
v 0.015819 0.012037 0.016413
v -0.002211 0.003968 0.017250
v -0.002711 0.003981 0.017349
v 0.014680 0.011396 0.016413
v 0.014487 0.011283 0.016413
v -0.003087 0.003820 0.017398
v -0.003424 0.003687 0.017503
v -0.002874 0.004155 0.017565
v 0.044827 0.023495 0.017343
v 0.041891 0.022493 0.016413
v 0.045204 0.023041 0.017662
v 0.045248 0.022493 0.017712
v 0.045124 0.022493 0.017448
v 0.044907 0.023041 0.017363
v -0.003543 0.003784 0.017837
v -0.003835 0.003581 0.018213
v -0.004038 0.003330 0.019214
v -0.004285 0.002969 0.019214
v -0.004459 0.002711 0.019214
v -0.004617 0.002460 0.019214
v -0.004850 0.001967 0.019214
v -0.004998 0.001346 0.019528
v -0.004637 0.001974 0.019748
v -0.005053 0.000965 0.019607
v -0.004835 0.000965 0.019858
v -0.005093 0.000463 0.019661
v -0.004830 -0.001038 0.019853
v -0.004483 -0.001847 0.019980
v -0.003973 -0.002803 0.019972
v -0.003840 -0.003138 0.019837
v -0.003681 -0.003502 0.019690
v -0.003335 -0.003680 0.019877
v -0.002998 -0.003818 0.019982
v -0.005088 -0.000036 0.019661
v -0.005078 -0.000539 0.019649
v 0.006658 -0.001847 0.019998
v 0.011160 0.000663 0.019997
v 0.015656 0.003169 0.019995
v 0.034607 0.013722 0.019970
v 0.039103 0.016231 0.019966
v 0.042242 0.017661 0.019573
v 0.016626 0.003687 0.019985
v 0.002157 -0.004337 0.019995
v 0.003133 -0.003837 0.019994
v -0.001705 -0.004652 0.019828
v -0.000938 -0.004785 0.019962
v -0.002404 -0.004240 0.019939
v -0.002211 -0.004546 0.019722
v -0.000745 -0.004971 0.019763
v -0.000205 -0.005049 0.019714
v 0.000295 -0.005029 0.019714
v 0.000795 -0.004810 0.019977
v 0.001251 -0.004543 0.020010
v 0.001053 -0.004797 0.019966
v 0.042817 0.018125 0.019690
v 0.042955 0.018357 0.019841
v 0.043322 0.018515 0.019696
v 0.043688 0.018673 0.019551
v 0.043847 0.018998 0.019713
v 0.044159 0.019162 0.019541
v 0.044763 0.019997 0.019214
v 0.044996 0.020490 0.019214
v 0.045144 0.021111 0.019528
v 0.045288 0.021491 0.019214
v 0.045367 0.021994 0.018213
v 0.045357 0.022493 0.018213
v -0.001111 0.001346 0.016413
v -0.003236 0.003501 0.017330
v 0.014334 0.011187 0.016413
v -0.003592 0.003356 0.017384
v -0.003924 0.003162 0.017517
v -0.003731 0.003491 0.017677
v 0.044857 0.022493 0.017330
v 0.044857 0.021994 0.017329
v 0.041831 0.021994 0.016413
v 0.045248 0.021994 0.017712
v 0.045124 0.021994 0.017448
v -0.004013 0.003294 0.017851
v -0.004038 0.003330 0.018213
v -0.004285 0.002969 0.018213
v -0.004459 0.002711 0.018213
v -0.004617 0.002460 0.018213
v -0.004850 0.001967 0.018213
v -0.004949 0.001661 0.019214
v -0.005142 0.000965 0.019214
v -0.005221 0.000463 0.019214
v -0.005048 -0.001038 0.019602
v -0.005003 -0.001393 0.019529
v -0.004612 -0.002024 0.019739
v -0.004389 -0.002179 0.019922
v -0.004077 -0.003000 0.019688
v -0.004543 -0.002443 0.019588
v -0.003988 -0.003325 0.019503
v -0.003518 -0.003847 0.019543
v -0.003181 -0.003941 0.019712
v -0.002622 -0.004404 0.019605
v -0.005211 -0.000036 0.019214
v -0.005196 -0.000539 0.019214
v 0.005069 -0.002800 0.019971
v 0.034215 0.013161 0.019563
v 0.038712 0.015671 0.019556
v 0.009565 -0.000291 0.019967
v 0.013670 0.001658 0.019550
v 0.040643 0.016711 0.019502
v 0.041609 0.017233 0.019469
v 0.043144 0.018209 0.019507
v 0.004103 -0.003319 0.019984
v 0.002271 -0.004533 0.019705
v 0.002489 -0.004243 0.019941
v -0.002012 -0.004817 0.019505
v -0.001705 -0.004865 0.019578
v -0.001205 -0.004936 0.019669
v -0.000705 -0.005190 0.019214
v -0.000205 -0.005223 0.019214
v 0.000295 -0.005203 0.019214
v 0.000795 -0.005181 0.019214
v 0.000795 -0.005000 0.019714
v 0.001251 -0.004907 0.019725
v 0.001796 -0.004843 0.019543
v 0.043728 0.018641 0.019214
v 0.043981 0.018876 0.019214
v 0.044184 0.019127 0.019214
v 0.044431 0.019488 0.019214
v 0.044604 0.019746 0.019214
v 0.044763 0.019997 0.018213
v 0.045095 0.020796 0.019214
v 0.044996 0.020490 0.018213
v 0.045288 0.021491 0.018213
v 0.045184 0.021527 0.017706
v -0.001260 0.001191 0.016413
v -0.003741 0.002985 0.017336
v -0.001359 0.001085 0.016413
v -0.004038 0.002831 0.017409
v -0.004478 0.002244 0.017446
v -0.004553 0.002360 0.017712
v -0.004389 0.002612 0.017712
v -0.004137 0.002985 0.017695
v 0.045115 0.021720 0.017455
v 0.044882 0.021527 0.017363
v 0.041772 0.021839 0.016413
v 0.044758 0.020992 0.017356
v 0.044357 0.020992 0.017238
v 0.044357 0.020490 0.017285
v -0.004731 0.001967 0.017712
v -0.004998 0.001346 0.017869
v -0.004949 0.001661 0.018213
v -0.005142 0.000965 0.018213
v -0.005221 0.000463 0.018213
v -0.005132 -0.001038 0.019214
v -0.005018 -0.001447 0.019214
v -0.004929 -0.001695 0.019214
v -0.004800 -0.002040 0.019214
v -0.004587 -0.002520 0.019214
v -0.004449 -0.002771 0.019214
v -0.004003 -0.003341 0.019214
v -0.003800 -0.003593 0.019214
v -0.003548 -0.003873 0.019214
v -0.003211 -0.004121 0.019214
v -0.002958 -0.004292 0.019214
v -0.002706 -0.004459 0.019214
v -0.005211 -0.000036 0.018213
v -0.005196 -0.000539 0.018213
v 0.002801 -0.004166 0.019841
v 0.003271 -0.004028 0.019705
v 0.004281 -0.003448 0.019725
v 0.018166 0.004167 0.019543
v 0.031650 0.011692 0.019519
v 0.036147 0.014202 0.019510
v 0.003707 -0.003883 0.019587
v 0.005643 -0.002839 0.019539
v 0.006609 -0.002320 0.019511
v 0.015601 0.002699 0.019494
v 0.029085 0.010227 0.019465
v 0.040915 0.016840 0.019214
v 0.041861 0.017371 0.019214
v 0.042559 0.017764 0.019214
v 0.012071 0.000711 0.019470
v 0.042856 0.017971 0.019214
v 0.043159 0.018193 0.019214
v 0.002053 -0.004797 0.019469
v 0.002801 -0.004385 0.019590
v -0.002037 -0.004830 0.019214
v -0.001705 -0.004933 0.019214
v -0.001205 -0.005074 0.019214
v -0.002290 -0.004710 0.019214
v -0.000705 -0.005190 0.018213
v -0.000205 -0.005223 0.018213
v 0.000295 -0.005203 0.018213
v 0.000795 -0.005181 0.018213
v 0.001295 -0.005074 0.019214
v 0.043728 0.018641 0.018213
v 0.043981 0.018876 0.018213
v 0.044184 0.019127 0.018213
v 0.044431 0.019488 0.018213
v 0.044604 0.019746 0.018213
v 0.044159 0.019162 0.017851
v 0.044699 0.020097 0.017712
v 0.045095 0.020796 0.018213
v 0.044877 0.020490 0.017712
v 0.045144 0.021111 0.017869
v 0.045065 0.021385 0.017535
v -0.004211 0.001967 0.017285
v -0.004206 0.002434 0.017373
v -0.001433 0.000985 0.016413
v -0.001532 0.000837 0.016413
v -0.004533 0.001967 0.017404
v -0.004969 0.000737 0.017455
v -0.004919 0.001072 0.017535
v 0.044624 0.020213 0.017446
v 0.044679 0.020490 0.017404
v 0.041683 0.021617 0.016413
v 0.044352 0.020023 0.017373
v 0.043886 0.019472 0.017336
v -0.004880 0.001494 0.017706
v -0.005038 0.000930 0.017706
v -0.005102 0.000463 0.017712
v -0.005102 -0.000036 0.017712
v -0.005132 -0.001038 0.018213
v -0.005018 -0.001447 0.018213
v -0.004929 -0.001695 0.018213
v -0.004800 -0.002040 0.018213
v -0.004587 -0.002520 0.018213
v -0.004449 -0.002771 0.018213
v -0.004003 -0.003341 0.018213
v -0.003800 -0.003593 0.018213
v -0.003548 -0.003873 0.018213
v -0.003211 -0.004121 0.018213
v -0.002958 -0.004292 0.018213
v -0.002706 -0.004459 0.018213
v -0.005058 -0.000584 0.017662
v -0.005048 -0.001038 0.017766
v 0.011105 0.000189 0.019503
v 0.003078 -0.004308 0.019489
v 0.007574 -0.001798 0.019480
v 0.036424 0.014327 0.019214
v 0.005935 -0.002726 0.019214
v 0.040915 0.016840 0.018213
v 0.041861 0.017371 0.018213
v 0.042559 0.017764 0.018213
v 0.003088 -0.004317 0.019214
v 0.004737 -0.003396 0.019214
v 0.042856 0.017971 0.018213
v 0.043159 0.018193 0.018213
v 0.001796 -0.004894 0.019214
v 0.002058 -0.004797 0.019214
v 0.002306 -0.004701 0.019214
v 0.002801 -0.004475 0.019214
v -0.002037 -0.004830 0.018213
v -0.001705 -0.004933 0.018213
v -0.001205 -0.005074 0.018213
v -0.002290 -0.004710 0.018213
v -0.001705 -0.004865 0.017799
v -0.000705 -0.005074 0.017712
v -0.000205 -0.005113 0.017712
v 0.000295 -0.005094 0.017712
v 0.000795 -0.005065 0.017712
v 0.001295 -0.005074 0.018213
v 0.043144 0.018209 0.017899
v 0.043688 0.018673 0.017837
v 0.044070 0.019295 0.017517
v 0.044283 0.019472 0.017695
v 0.044535 0.019845 0.017712
v 0.043877 0.018966 0.017677
v 0.045025 0.020963 0.017706
v -0.004211 0.001465 0.017238
v -0.004612 0.001465 0.017356
v -0.001676 0.000463 0.016413
v -0.004979 0.000463 0.017448
v -0.004736 0.000930 0.017363
v -0.004711 0.000463 0.017329
v 0.044184 0.019626 0.017409
v 0.041579 0.021469 0.016413
v 0.043738 0.019101 0.017384
v 0.043381 0.018956 0.017330
v 0.041505 0.021366 0.016413
v -0.004979 -0.000036 0.017448
v -0.004964 -0.000780 0.017462
v -0.005003 -0.001393 0.017867
v -0.004528 -0.002410 0.017712
v -0.004379 -0.002662 0.017712
v -0.003988 -0.003325 0.017903
v -0.003518 -0.003847 0.017848
v -0.002607 -0.004392 0.017712
v -0.002012 -0.004817 0.017901
v -0.004929 -0.001038 0.017516
v 0.036424 0.014327 0.018213
v 0.005935 -0.002726 0.018213
v 0.041609 0.017233 0.017954
v 0.029085 0.010227 0.017961
v 0.042242 0.017661 0.017809
v 0.003088 -0.004317 0.018213
v 0.004737 -0.003396 0.018213
v 0.001796 -0.004894 0.018213
v 0.002058 -0.004797 0.018213
v 0.002306 -0.004701 0.018213
v 0.002801 -0.004475 0.018213
v -0.001705 -0.004746 0.017549
v -0.001433 -0.004785 0.017473
v -0.001240 -0.004929 0.017669
v -0.001096 -0.004833 0.017427
v -0.000705 -0.004878 0.017391
v -0.000205 -0.004897 0.017376
v 0.000295 -0.004888 0.017382
v 0.000795 -0.004872 0.017394
v 0.001172 -0.004839 0.017423
v 0.001320 -0.004933 0.017676
v 0.002053 -0.004797 0.017955
v 0.042856 0.018093 0.017724
v 0.043020 0.018302 0.017565
v 0.043570 0.018769 0.017503
v -0.001715 0.000167 0.016413
v -0.004711 -0.000036 0.017330
v -0.001740 -0.000036 0.016413
v 0.043233 0.018637 0.017398
v 0.042856 0.018476 0.017349
v 0.042356 0.018489 0.017250
v 0.041252 0.021115 0.016413
v -0.004761 -0.000584 0.017363
v -0.004681 -0.001038 0.017343
v -0.004602 -0.001541 0.017363
v -0.004513 -0.002040 0.017420
v -0.004860 -0.001554 0.017705
v -0.004464 -0.002298 0.017458
v -0.004681 -0.002040 0.017712
v -0.003894 -0.003206 0.017569
v -0.004112 -0.003039 0.017727
v -0.003706 -0.003535 0.017709
v -0.003409 -0.003747 0.017514
v -0.003231 -0.003970 0.017694
v -0.002493 -0.004314 0.017445
v -0.002191 -0.004640 0.017725
v 0.012071 0.000711 0.017953
v 0.040643 0.016711 0.017906
v 0.015601 0.002699 0.017918
v 0.042089 0.017748 0.017475
v 0.042386 0.017816 0.017670
v 0.003078 -0.004308 0.017924
v 0.007574 -0.001798 0.017938
v -0.002211 -0.004395 0.017391
v -0.001705 -0.004495 0.017344
v -0.000705 -0.004543 0.017273
v -0.000205 -0.004543 0.017258
v 0.000295 -0.004543 0.017264
v 0.000795 -0.004543 0.017276
v 0.001796 -0.004472 0.017353
v 0.002301 -0.004379 0.017398
v 0.002588 -0.004314 0.017443
v 0.001503 -0.004775 0.017486
v 0.001796 -0.004723 0.017600
v 0.001796 -0.004843 0.017850
v 0.002251 -0.004623 0.017758
v 0.002771 -0.004379 0.017739
v 0.042688 0.018177 0.017417
v -0.001666 -0.000539 0.016413
v 0.042356 0.018074 0.017368
v 0.025659 0.011174 0.016413
v 0.025812 0.011270 0.016413
v -0.004211 -0.001541 0.017245
v -0.004211 -0.002040 0.017302
v -0.004201 -0.002494 0.017386
v -0.004023 -0.002871 0.017418
v -0.003072 -0.003870 0.017408
v -0.003557 -0.003412 0.017399
v 0.036147 0.014202 0.017893
v 0.039524 0.016276 0.017531
v 0.040489 0.016798 0.017572
v 0.011105 0.000189 0.017905
v 0.033096 0.012726 0.017460
v 0.041123 0.017226 0.017453
v 0.041752 0.017652 0.017402
v 0.002925 -0.004224 0.017590
v 0.006609 -0.002320 0.017892
v -0.002211 -0.004044 0.017273
v -0.002676 -0.004040 0.017372
v -0.000705 -0.001579 0.016413
v -0.000497 -0.001647 0.016413
v -0.000205 -0.001731 0.016413
v 0.000295 -0.001731 0.016413
v 0.002301 -0.004044 0.017279
v 0.002771 -0.004050 0.017363
v 0.003301 -0.003866 0.017410
v 0.004187 -0.003367 0.017406
v 0.005153 -0.002849 0.017419
v 0.003553 -0.003796 0.017459
v -0.001582 -0.000742 0.016413
v 0.039851 0.016621 0.017385
v 0.038850 0.016089 0.017373
v 0.024327 0.010420 0.016413
v 0.025465 0.011061 0.016413
v -0.003711 -0.002539 0.017251
v -0.001522 -0.000884 0.016413
v -0.003721 -0.003039 0.017350
v -0.003231 -0.003564 0.017344
v 0.031650 0.011692 0.017881
v 0.014482 0.002264 0.017541
v 0.005490 -0.002755 0.017519
v 0.039187 0.016183 0.017423
v 0.009020 -0.000764 0.017495
v 0.008050 -0.001286 0.017465
v 0.014146 0.002170 0.017426
v 0.018642 0.004680 0.017431
v 0.034691 0.013673 0.017419
v 0.016711 0.003639 0.017405
v 0.010313 0.000096 0.017385
v -0.001067 -0.001380 0.016413
v 0.000795 -0.001554 0.016413
v 0.017062 0.006377 0.016413
v 0.017320 0.006506 0.016413
v 0.017453 0.006574 0.016413
v 0.004801 -0.002945 0.017370
v 0.017642 0.006677 0.016413
v 0.007718 -0.001380 0.017398
v 0.005802 -0.002414 0.017381
v 0.006119 -0.002327 0.017432
v 0.035344 0.014108 0.017381
v 0.022133 0.009189 0.016413
v 0.018746 0.007292 0.016413
v -0.001319 -0.001132 0.016413
v -0.001171 -0.001280 0.016413
f 229 230 162
f 306 230 299
f 370 306 299
f 162 163 103
f 102 161 103
f 542 475 478
f 540 475 542
f 507 499 559
f 812 846 813
f 777 818 778
f 777 817 818
f 818 817 851
f 879 852 851
f 851 852 818
f 778 820 821
f 821 779 778
f 162 230 231
f 309 389 305
f 309 230 308
f 308 396 309
f 309 396 389
f 309 231 230
f 305 231 309
f 378 305 391
f 405 403 471
f 233 234 164
f 164 234 235
f 164 163 162
f 164 103 163
f 121 120 182
f 478 475 413
f 475 476 413
f 414 332 413
f 413 476 414
f 689 690 621
f 559 499 497
f 160 161 102
f 64 103 104
f 102 103 64
f 165 103 161
f 620 618 688
f 689 621 688
f 688 621 620
f 704 635 703
f 635 690 703
f 754 697 696
f 789 828 829
f 843 828 826
f 813 846 848
f 725 771 772
f 659 723 725
f 725 723 757
f 880 852 879
f 853 852 882
f 861 828 860
f 860 889 861
f 726 725 772
f 659 725 726
f 772 771 726
f 850 851 815
f 815 814 850
f 813 814 774
f 820 855 856
f 887 857 856
f 856 857 820
f 719 653 718
f 823 779 822
f 779 821 822
f 822 821 820
f 306 393 307
f 308 230 307
f 230 306 307
f 306 370 392
f 392 393 306
f 162 231 228
f 228 231 305
f 228 164 162
f 378 391 379
f 379 391 389
f 305 389 390
f 390 391 305
f 389 391 390
f 450 384 449
f 450 514 463
f 389 396 453
f 236 164 235
f 167 164 236
f 322 321 406
f 406 407 322
f 257 332 258
f 414 480 481
f 541 475 540
f 541 476 475
f 257 329 330
f 53 84 85
f 139 127 92
f 92 127 84
f 634 690 635
f 634 621 690
f 493 494 434
f 434 430 493
f 493 430 492
f 559 497 558
f 490 430 429
f 161 218 222
f 161 160 221
f 221 218 161
f 28 60 61
f 101 157 102
f 102 64 101
f 63 64 31
f 227 165 161
f 299 230 227
f 227 301 299
f 230 229 227
f 583 633 658
f 583 658 655
f 786 827 792
f 678 675 604
f 488 480 545
f 696 752 753
f 753 754 696
f 752 796 753
f 695 752 696
f 691 635 704
f 704 751 691
f 697 754 698
f 700 699 755
f 699 698 755
f 755 698 754
f 570 507 559
f 830 789 829
f 790 789 830
f 747 789 790
f 860 828 859
f 828 843 859
f 843 877 859
f 808 843 826
f 578 579 514
f 472 405 471
f 406 405 472
f 472 407 406
f 86 53 85
f 878 848 846
f 878 846 866
f 813 848 849
f 849 814 813
f 850 814 849
f 801 835 803
f 803 835 812
f 846 812 847
f 812 835 847
f 866 846 847
f 847 835 866
f 757 723 722
f 586 583 657
f 771 725 770
f 770 725 757
f 812 771 770
f 770 803 812
f 882 852 881
f 852 880 881
f 854 855 820
f 883 855 854
f 854 853 883
f 818 852 819
f 852 853 819
f 778 818 819
f 819 820 778
f 819 854 820
f 853 854 819
f 829 828 862
f 828 861 862
f 890 889 860
f 816 851 817
f 816 815 851
f 813 774 773
f 773 812 813
f 773 771 812
f 773 726 771
f 773 774 726
f 817 777 776
f 776 816 817
f 814 815 775
f 775 774 814
f 815 816 775
f 816 776 775
f 875 843 870
f 870 856 875
f 855 877 885
f 885 856 855
f 460 524 525
f 717 653 663
f 717 718 653
f 395 459 460
f 395 396 308
f 523 524 460
f 460 459 523
f 523 586 587
f 232 234 233
f 233 164 232
f 164 228 232
f 235 234 312
f 234 311 312
f 400 402 401
f 401 311 400
f 310 311 234
f 384 450 451
f 463 397 451
f 451 450 463
f 575 638 576
f 448 450 449
f 706 643 642
f 576 638 642
f 642 643 576
f 509 453 517
f 580 515 517
f 462 453 396
f 389 453 452
f 382 303 381
f 139 92 138
f 6 22 23
f 403 405 318
f 318 405 406
f 463 514 528
f 514 579 528
f 529 464 463
f 463 528 529
f 529 528 579
f 468 402 400
f 400 467 468
f 471 403 470
f 470 403 404
f 404 402 470
f 104 103 106
f 103 164 106
f 185 183 121
f 121 183 122
f 122 81 121
f 188 260 261
f 257 258 255
f 255 258 188
f 338 332 414
f 414 415 338
f 543 541 604
f 478 413 477
f 413 474 477
f 412 330 329
f 412 474 413
f 85 84 128
f 84 127 128
f 23 22 52
f 22 51 52
f 52 53 23
f 84 53 52
f 52 51 84
f 57 26 56
f 51 26 57
f 57 92 84
f 84 51 57
f 39 18 17
f 1 4 5
f 17 18 5
f 5 16 17
f 495 558 497
f 434 494 495
f 619 618 620
f 619 556 618
f 206 283 284
f 361 426 363
f 488 489 428
f 150 140 201
f 294 222 293
f 293 361 294
f 294 361 363
f 293 222 292
f 292 222 218
f 102 158 159
f 159 160 102
f 159 221 160
f 218 221 159
f 29 9 28
f 29 28 61
f 24 49 54
f 98 59 97
f 60 59 94
f 61 60 94
f 94 98 140
f 59 98 94
f 31 64 32
f 150 152 100
f 100 152 153
f 100 101 64
f 64 63 100
f 157 101 156
f 102 157 156
f 156 158 102
f 61 63 62
f 62 63 31
f 99 63 61
f 61 94 99
f 99 94 140
f 99 140 150
f 150 100 99
f 99 100 63
f 103 165 166
f 165 227 166
f 166 227 229
f 166 229 162
f 162 103 166
f 721 724 757
f 757 722 721
f 633 583 569
f 299 372 373
f 373 370 299
f 373 392 370
f 373 443 392
f 743 786 785
f 786 792 785
f 750 792 793
f 704 703 750
f 750 703 690
f 891 866 865
f 865 864 891
f 863 864 865
f 863 865 833
f 752 751 797
f 797 796 752
f 751 796 797
f 604 541 605
f 689 688 680
f 675 678 740
f 552 489 551
f 555 554 551
f 551 489 488
f 488 545 551
f 492 430 491
f 430 490 491
f 754 753 799
f 694 751 752
f 752 695 694
f 622 560 571
f 802 755 801
f 756 755 802
f 801 803 802
f 802 803 756
f 757 724 702
f 702 756 757
f 702 755 756
f 571 560 508
f 508 570 571
f 507 570 508
f 780 779 823
f 780 730 779
f 823 822 780
f 820 857 844
f 873 856 870
f 887 856 873
f 873 857 887
f 873 841 857
f 787 783 826
f 828 789 788
f 789 747 788
f 747 787 788
f 826 828 788
f 788 787 826
f 870 843 842
f 843 808 842
f 842 841 870
f 842 808 841
f 639 574 576
f 514 574 577
f 577 578 514
f 323 322 407
f 684 616 686
f 85 130 131
f 131 86 85
f 78 53 87
f 53 86 87
f 892 866 891
f 892 878 866
f 757 756 804
f 756 803 804
f 804 770 757
f 803 770 804
f 656 583 655
f 656 657 583
f 888 890 860
f 877 890 888
f 860 859 888
f 888 859 877
f 884 890 883
f 883 853 884
f 884 853 882
f 883 890 886
f 886 890 877
f 886 855 883
f 886 877 855
f 843 875 876
f 876 875 856
f 856 885 876
f 876 877 843
f 876 885 877
f 527 591 592
f 653 581 592
f 592 581 527
f 663 653 592
f 592 591 663
f 590 525 524
f 527 525 590
f 590 591 527
f 654 653 706
f 654 581 653
f 706 642 654
f 779 730 729
f 730 662 729
f 778 779 729
f 729 777 778
f 589 590 524
f 663 591 589
f 591 590 589
f 460 525 461
f 461 395 460
f 396 395 461
f 461 462 396
f 459 395 394
f 393 457 394
f 394 307 393
f 308 307 394
f 394 395 308
f 393 392 455
f 228 303 304
f 234 232 304
f 304 232 228
f 304 310 234
f 302 228 305
f 302 303 228
f 302 305 378
f 378 379 302
f 386 379 389
f 386 303 379
f 313 312 311
f 311 401 313
f 235 312 313
f 313 401 402
f 313 314 235
f 402 314 313
f 398 397 463
f 398 310 397
f 463 464 398
f 513 574 514
f 514 450 513
f 513 575 576
f 638 575 572
f 572 515 580
f 575 513 572
f 581 654 582
f 580 517 582
f 450 448 511
f 511 515 450
f 511 517 515
f 516 517 453
f 453 462 516
f 516 582 517
f 516 462 527
f 527 581 516
f 581 582 516
f 384 303 383
f 303 382 383
f 449 384 383
f 383 448 449
f 388 382 381
f 381 303 388
f 447 452 453
f 447 453 509
f 447 388 452
f 382 388 447
f 446 511 448
f 446 447 509
f 382 447 446
f 448 383 446
f 446 383 382
f 498 497 499
f 498 436 497
f 226 227 161
f 227 226 298
f 90 138 92
f 17 42 43
f 191 127 139
f 350 351 275
f 21 49 24
f 235 314 315
f 315 236 235
f 316 236 315
f 239 318 319
f 406 321 319
f 319 318 406
f 238 318 239
f 238 239 167
f 531 464 530
f 464 529 530
f 530 579 531
f 530 529 579
f 532 464 531
f 532 465 464
f 732 731 783
f 531 579 593
f 593 594 531
f 826 783 782
f 783 731 782
f 809 808 826
f 579 578 649
f 686 616 685
f 469 470 402
f 402 468 469
f 469 468 467
f 31 32 11
f 11 32 12
f 11 12 4
f 184 121 182
f 184 185 121
f 256 329 257
f 256 253 329
f 329 253 254
f 183 185 254
f 254 253 183
f 123 132 125
f 125 124 123
f 132 88 125
f 83 54 49
f 88 54 83
f 124 125 83
f 78 44 46
f 46 53 78
f 23 53 46
f 81 47 80
f 120 121 80
f 121 81 80
f 23 46 19
f 19 46 44
f 19 6 23
f 81 122 82
f 123 124 82
f 82 122 123
f 82 83 49
f 124 83 82
f 332 338 337
f 476 541 479
f 541 543 479
f 414 476 479
f 479 480 414
f 479 543 480
f 411 412 329
f 474 412 411
f 331 413 332
f 331 412 413
f 330 412 331
f 331 332 257
f 257 330 331
f 50 51 22
f 22 26 50
f 50 26 51
f 91 57 56
f 92 57 91
f 56 90 91
f 91 90 92
f 434 495 496
f 497 436 496
f 496 495 497
f 557 495 494
f 558 495 557
f 360 359 429
f 429 430 360
f 288 361 293
f 293 292 288
f 279 208 207
f 295 294 363
f 222 294 295
f 217 215 153
f 213 288 289
f 155 159 158
f 158 156 155
f 155 156 101
f 89 88 137
f 89 54 88
f 27 59 60
f 60 28 27
f 28 9 27
f 190 134 133
f 133 132 123
f 123 190 133
f 133 88 132
f 133 134 88
f 93 95 59
f 137 88 136
f 148 201 140
f 140 98 148
f 282 283 206
f 206 203 277
f 277 282 206
f 353 282 277
f 64 65 33
f 33 32 64
f 12 32 33
f 154 215 218
f 151 100 153
f 101 100 151
f 151 154 101
f 153 215 151
f 215 154 151
f 568 569 506
f 567 630 631
f 631 632 567
f 569 568 567
f 567 632 633
f 633 569 567
f 629 630 567
f 832 864 863
f 863 833 832
f 791 785 792
f 792 750 791
f 758 751 704
f 704 750 758
f 836 865 866
f 836 835 801
f 866 835 836
f 794 833 796
f 794 750 793
f 793 832 794
f 794 832 833
f 796 758 794
f 794 758 750
f 677 678 604
f 604 605 677
f 603 541 540
f 603 605 541
f 743 680 742
f 742 680 739
f 742 740 743
f 739 740 742
f 681 688 618
f 681 680 688
f 681 607 680
f 741 680 743
f 689 680 741
f 784 786 743
f 743 740 784
f 738 739 675
f 675 740 738
f 738 740 739
f 606 543 604
f 739 680 679
f 680 607 679
f 675 739 679
f 552 551 553
f 553 551 554
f 555 551 608
f 608 556 555
f 801 755 800
f 800 755 754
f 798 753 796
f 798 799 753
f 801 800 798
f 754 799 798
f 798 800 754
f 692 691 751
f 561 622 623
f 560 622 561
f 623 624 561
f 700 755 701
f 755 702 701
f 730 780 766
f 810 780 825
f 820 844 825
f 825 844 810
f 870 841 874
f 874 873 870
f 841 873 874
f 746 747 686
f 746 787 747
f 783 787 746
f 746 733 783
f 644 639 576
f 576 643 644
f 706 705 644
f 644 643 706
f 574 639 640
f 639 644 640
f 645 707 650
f 578 577 645
f 645 650 578
f 645 705 706
f 706 707 645
f 674 682 611
f 539 485 473
f 485 484 473
f 352 275 351
f 352 351 350
f 418 482 483
f 483 482 546
f 613 548 616
f 616 684 613
f 748 747 790
f 686 747 748
f 727 660 659
f 659 726 727
f 726 774 727
f 774 775 727
f 727 775 776
f 588 589 524
f 526 461 525
f 462 461 526
f 526 525 527
f 527 462 526
f 459 394 458
f 458 394 457
f 458 523 459
f 454 443 506
f 392 443 454
f 454 455 392
f 585 519 584
f 584 586 585
f 584 583 586
f 456 458 457
f 519 458 456
f 456 454 506
f 455 454 456
f 456 457 393
f 393 455 456
f 397 310 385
f 310 304 385
f 385 304 303
f 385 303 384
f 385 451 397
f 384 451 385
f 379 303 380
f 380 302 379
f 303 302 380
f 399 398 464
f 399 465 400
f 464 465 399
f 400 311 399
f 311 310 399
f 310 398 399
f 576 574 573
f 573 513 576
f 574 513 573
f 450 515 512
f 512 513 450
f 515 572 512
f 512 572 513
f 636 572 580
f 580 582 636
f 636 582 654
f 509 517 510
f 517 511 510
f 510 446 509
f 511 446 510
f 303 386 387
f 387 388 303
f 387 386 389
f 389 452 387
f 452 388 387
f 437 498 499
f 436 498 437
f 433 430 434
f 434 365 433
f 435 365 434
f 436 365 435
f 434 496 435
f 435 496 436
f 430 433 432
f 432 433 365
f 301 227 300
f 227 298 300
f 139 138 119
f 178 177 119
f 138 90 119
f 75 90 56
f 75 119 90
f 17 43 38
f 38 39 17
f 321 322 243
f 41 42 17
f 107 106 164
f 107 168 108
f 107 164 167
f 167 168 107
f 129 130 85
f 127 191 129
f 85 128 129
f 129 128 127
f 328 326 350
f 327 326 328
f 250 327 328
f 244 175 171
f 171 243 244
f 74 115 116
f 74 41 73
f 74 76 42
f 42 41 74
f 176 175 249
f 322 323 247
f 247 243 322
f 316 315 317
f 404 403 317
f 403 318 317
f 317 315 314
f 317 402 404
f 317 314 402
f 237 238 167
f 318 238 237
f 316 317 237
f 237 317 318
f 465 532 533
f 533 532 531
f 531 594 533
f 533 534 467
f 669 732 736
f 736 732 783
f 736 733 669
f 783 733 736
f 731 732 664
f 781 782 731
f 826 782 781
f 781 809 826
f 652 593 579
f 683 685 616
f 682 685 683
f 616 614 683
f 611 682 683
f 683 614 611
f 669 733 734
f 548 483 547
f 547 483 546
f 616 548 615
f 615 614 616
f 548 614 615
f 31 11 30
f 61 62 30
f 30 62 31
f 30 29 61
f 10 11 4
f 9 29 10
f 29 30 10
f 10 30 11
f 10 3 9
f 187 255 188
f 253 256 187
f 257 255 187
f 187 256 257
f 187 188 123
f 126 125 88
f 88 83 126
f 126 83 125
f 79 44 78
f 79 80 44
f 44 80 45
f 45 80 47
f 45 19 44
f 48 47 81
f 81 82 48
f 48 82 49
f 49 21 48
f 332 337 333
f 333 260 188
f 264 333 337
f 264 337 338
f 14 5 4
f 13 33 35
f 12 33 13
f 35 36 13
f 13 36 34
f 34 14 13
f 4 12 13
f 13 14 4
f 22 6 8
f 6 2 8
f 8 26 22
f 7 21 24
f 358 359 285
f 359 360 285
f 206 284 285
f 426 361 356
f 423 427 424
f 424 346 423
f 423 480 488
f 423 481 480
f 428 427 423
f 488 428 423
f 161 222 223
f 222 295 223
f 291 292 218
f 218 217 291
f 216 213 289
f 289 291 216
f 216 291 217
f 153 152 216
f 216 217 153
f 218 215 290
f 290 217 218
f 215 217 290
f 288 213 212
f 150 201 212
f 212 213 150
f 218 159 220
f 220 155 218
f 159 155 220
f 189 190 123
f 189 263 190
f 123 188 189
f 188 261 189
f 189 261 260
f 260 264 189
f 336 264 338
f 263 264 336
f 195 134 190
f 190 263 195
f 195 196 134
f 273 196 195
f 59 27 58
f 58 93 59
f 201 148 211
f 211 212 201
f 211 278 281
f 281 278 205
f 144 207 208
f 144 143 203
f 97 143 144
f 144 203 206
f 206 207 144
f 105 65 64
f 105 64 104
f 104 106 105
f 219 155 101
f 101 154 219
f 218 155 219
f 219 154 218
f 504 567 505
f 505 568 506
f 505 567 568
f 627 628 566
f 566 565 627
f 566 628 629
f 629 567 566
f 566 567 504
f 858 832 827
f 864 832 858
f 831 832 793
f 827 832 831
f 793 792 831
f 831 792 827
f 785 791 749
f 749 791 750
f 743 785 749
f 749 741 743
f 749 750 690
f 795 796 751
f 751 758 795
f 795 758 796
f 834 833 865
f 865 836 834
f 796 833 834
f 834 798 796
f 834 836 801
f 801 798 834
f 687 681 618
f 604 675 676
f 676 606 604
f 675 679 676
f 607 606 676
f 676 679 607
f 544 606 607
f 607 608 544
f 610 551 544
f 544 551 545
f 543 606 544
f 544 545 480
f 480 543 544
f 618 556 617
f 556 608 617
f 617 687 618
f 617 608 607
f 607 681 617
f 681 687 617
f 751 694 693
f 693 692 751
f 627 565 626
f 441 373 372
f 560 561 501
f 780 768 767
f 767 766 780
f 820 825 824
f 824 825 780
f 824 822 820
f 824 780 822
f 857 841 872
f 841 871 872
f 682 733 744
f 733 746 744
f 744 685 682
f 686 685 744
f 744 746 686
f 641 577 574
f 574 640 641
f 705 645 641
f 641 645 577
f 641 644 705
f 641 640 644
f 408 473 425
f 350 408 425
f 425 473 484
f 425 352 350
f 550 549 611
f 611 547 550
f 275 352 340
f 340 265 275
f 409 408 350
f 420 482 416
f 416 340 420
f 420 340 352
f 420 425 484
f 352 425 420
f 420 484 485
f 339 341 266
f 266 265 339
f 339 340 416
f 265 340 339
f 745 684 686
f 686 748 745
f 728 729 662
f 662 661 728
f 777 729 728
f 728 776 777
f 728 727 776
f 523 458 522
f 585 586 522
f 586 523 522
f 522 519 585
f 522 458 519
f 583 584 518
f 518 584 519
f 519 456 518
f 506 569 520
f 520 456 506
f 637 636 654
f 572 636 637
f 638 572 637
f 637 642 638
f 637 654 642
f 444 508 445
f 507 508 444
f 499 507 444
f 444 437 499
f 369 300 298
f 430 432 431
f 431 432 426
f 431 360 430
f 426 360 431
f 426 432 364
f 364 432 365
f 363 426 364
f 365 296 364
f 364 295 363
f 364 296 295
f 77 75 56
f 119 75 118
f 67 36 35
f 35 33 67
f 67 107 108
f 17 16 37
f 16 34 37
f 34 36 37
f 130 129 193
f 350 275 349
f 349 328 350
f 275 328 349
f 251 328 275
f 251 199 252
f 275 199 251
f 250 328 251
f 192 265 266
f 192 129 191
f 266 193 192
f 192 193 129
f 275 265 200
f 200 199 275
f 200 192 191
f 265 192 200
f 200 191 139
f 139 199 200
f 252 199 180
f 250 251 180
f 180 251 252
f 180 245 250
f 177 245 180
f 180 119 177
f 243 171 242
f 114 173 115
f 115 74 114
f 176 173 114
f 114 175 176
f 112 74 73
f 113 112 111
f 74 112 113
f 113 114 74
f 117 74 116
f 76 74 117
f 246 247 175
f 243 247 246
f 246 175 244
f 244 243 246
f 248 249 175
f 175 247 248
f 466 533 467
f 465 533 466
f 466 467 400
f 400 465 466
f 595 533 594
f 670 598 669
f 670 733 682
f 471 470 537
f 467 534 535
f 669 598 668
f 669 666 665
f 665 732 669
f 665 664 732
f 578 650 646
f 578 646 647
f 647 646 708
f 579 649 651
f 651 652 579
f 731 664 716
f 611 614 612
f 612 547 611
f 612 614 548
f 548 547 612
f 183 253 186
f 253 187 186
f 186 122 183
f 123 122 186
f 186 187 123
f 47 48 20
f 20 45 47
f 19 45 20
f 6 19 20
f 20 21 6
f 20 48 21
f 259 258 332
f 332 333 259
f 188 258 259
f 259 333 188
f 260 333 334
f 334 264 260
f 333 264 334
f 15 34 16
f 15 14 34
f 16 5 15
f 5 14 15
f 25 55 56
f 56 26 25
f 26 8 25
f 358 285 354
f 354 285 284
f 206 285 286
f 286 207 206
f 286 288 281
f 361 288 286
f 281 279 286
f 279 207 286
f 355 360 426
f 426 356 355
f 355 285 360
f 355 356 285
f 481 423 422
f 414 481 422
f 422 415 414
f 345 423 346
f 415 422 345
f 345 422 423
f 273 338 345
f 345 338 415
f 366 365 436
f 366 296 365
f 225 226 161
f 295 296 224
f 224 223 295
f 226 225 224
f 161 223 224
f 224 225 161
f 362 291 289
f 292 291 362
f 289 288 362
f 362 288 292
f 214 216 152
f 213 216 214
f 214 152 150
f 150 213 214
f 281 288 287
f 288 212 287
f 287 211 281
f 212 211 287
f 263 189 262
f 262 189 264
f 344 338 273
f 273 336 344
f 344 336 338
f 197 196 273
f 134 196 197
f 203 143 141
f 141 143 97
f 421 343 348
f 149 148 98
f 149 211 148
f 280 279 281
f 281 205 280
f 280 205 279
f 209 146 208
f 209 208 279
f 208 146 145
f 145 144 208
f 145 146 97
f 97 144 145
f 504 505 442
f 442 505 506
f 506 443 442
f 442 441 502
f 443 373 442
f 373 441 442
f 503 566 504
f 504 442 503
f 503 442 502
f 610 544 609
f 609 544 608
f 609 551 610
f 609 608 551
f 625 561 624
f 565 561 625
f 625 626 565
f 377 444 445
f 376 444 377
f 301 376 377
f 560 501 500
f 445 508 500
f 500 508 560
f 562 561 565
f 562 501 561
f 565 502 563
f 502 501 563
f 563 562 565
f 501 562 563
f 502 441 440
f 440 501 502
f 440 441 372
f 841 808 838
f 838 806 837
f 869 844 857
f 869 838 868
f 857 872 869
f 869 872 871
f 869 871 841
f 841 838 869
f 761 806 763
f 808 809 763
f 763 806 808
f 763 712 761
f 731 712 763
f 763 781 731
f 809 781 763
f 350 326 410
f 410 409 350
f 546 482 487
f 482 420 487
f 486 547 546
f 486 550 547
f 546 487 486
f 486 487 420
f 486 420 485
f 419 339 418
f 341 339 419
f 418 339 417
f 417 339 416
f 417 482 418
f 416 482 417
f 521 569 583
f 521 520 569
f 456 520 521
f 583 518 521
f 521 518 456
f 436 437 368
f 437 369 368
f 368 369 298
f 300 369 374
f 374 369 437
f 72 77 56
f 56 55 72
f 178 119 179
f 119 118 179
f 110 108 111
f 109 110 69
f 109 67 108
f 108 110 109
f 66 105 106
f 106 107 66
f 107 67 66
f 66 67 33
f 66 33 65
f 65 105 66
f 73 41 70
f 41 71 70
f 70 112 73
f 36 69 70
f 70 71 36
f 111 112 70
f 70 110 111
f 69 110 70
f 36 71 40
f 17 37 40
f 40 37 36
f 40 41 17
f 40 71 41
f 266 341 267
f 267 193 266
f 139 119 181
f 119 180 181
f 181 199 139
f 181 180 199
f 111 108 170
f 170 171 111
f 170 242 171
f 108 168 169
f 169 170 108
f 242 170 169
f 174 171 175
f 175 114 174
f 111 171 172
f 172 113 111
f 171 174 172
f 114 113 172
f 172 174 114
f 324 247 323
f 534 533 597
f 669 734 735
f 735 670 669
f 735 734 733
f 733 670 735
f 682 674 672
f 672 670 682
f 536 537 470
f 599 537 536
f 536 535 599
f 467 535 536
f 536 469 467
f 470 469 536
f 667 666 669
f 669 668 667
f 648 649 578
f 578 647 648
f 650 707 713
f 713 714 650
f 713 707 706
f 762 805 761
f 761 712 711
f 715 712 731
f 731 716 715
f 361 286 357
f 357 286 285
f 357 356 361
f 285 356 357
f 346 347 274
f 273 345 274
f 274 345 346
f 274 347 348
f 348 343 274
f 343 268 274
f 274 197 273
f 268 197 274
f 296 366 367
f 367 366 436
f 436 368 367
f 367 368 298
f 335 264 263
f 263 262 335
f 335 262 264
f 270 195 263
f 270 271 195
f 263 336 270
f 336 271 270
f 273 195 272
f 195 271 272
f 272 336 273
f 272 271 336
f 134 197 198
f 198 197 268
f 276 277 203
f 353 277 276
f 96 141 97
f 97 59 96
f 59 95 96
f 278 211 204
f 211 149 204
f 204 205 278
f 210 205 146
f 146 209 210
f 279 205 210
f 210 209 279
f 564 503 502
f 566 503 564
f 564 502 565
f 565 566 564
f 301 377 371
f 299 301 371
f 371 372 299
f 438 500 501
f 438 371 377
f 438 377 445
f 445 500 438
f 808 806 839
f 839 838 808
f 806 838 839
f 807 811 810
f 805 811 807
f 761 805 807
f 807 806 761
f 845 869 868
f 837 806 845
f 810 844 845
f 844 869 845
f 375 376 301
f 375 444 376
f 437 444 375
f 375 374 437
f 36 67 68
f 67 109 68
f 68 69 36
f 68 109 69
f 240 168 167
f 240 169 168
f 167 239 240
f 325 248 247
f 247 324 325
f 533 595 596
f 596 597 533
f 598 670 600
f 670 672 600
f 538 549 485
f 538 485 539
f 673 600 672
f 720 713 706
f 706 653 720
f 720 653 719
f 764 811 805
f 805 765 764
f 810 811 764
f 708 646 709
f 709 646 650
f 650 714 709
f 761 711 710
f 710 762 761
f 759 762 710
f 297 367 298
f 296 367 297
f 297 224 296
f 297 298 226
f 226 224 297
f 194 198 268
f 134 198 194
f 203 141 202
f 202 276 203
f 205 204 142
f 142 149 98
f 142 204 149
f 142 98 97
f 439 440 372
f 372 371 439
f 371 438 439
f 501 440 439
f 439 438 501
f 837 845 867
f 867 845 868
f 867 838 837
f 868 838 867
f 806 807 840
f 840 845 806
f 840 807 810
f 810 845 840
f 320 240 239
f 321 243 320
f 320 319 321
f 239 319 320
f 242 169 241
f 169 240 241
f 240 320 241
f 243 242 241
f 241 320 243
f 737 672 674
f 674 673 737
f 737 673 672
f 602 674 611
f 602 673 674
f 611 549 602
f 601 673 602
f 602 538 601
f 549 538 602
f 671 673 601
f 600 673 671
f 810 764 769
f 769 780 810
f 769 768 780
f 760 762 759
f 805 762 760
f 760 765 805
f 343 421 342
f 342 268 343
f 134 194 135
f 88 134 135
f 135 136 88
f 146 205 147
f 205 142 147
f 97 146 147
f 147 142 97
f 269 194 268
f 268 342 269
f 660 586 659
f 587 586 660
f 493 556 494
f 555 556 493
f 620 621 558
f 558 621 559
f 490 489 552
f 429 489 490
f 630 699 700
f 700 631 630
f 555 493 554
f 554 493 492
f 699 630 698
f 698 630 629
f 559 621 570
f 621 634 570
f 635 571 570
f 570 634 635
f 628 698 629
f 697 698 628
f 696 697 628
f 628 627 696
f 659 586 657
f 657 723 659
f 428 489 429
f 429 359 428
f 658 724 721
f 655 658 721
f 622 571 635
f 635 691 622
f 702 724 658
f 658 633 702
f 655 721 656
f 656 721 722
f 723 657 656
f 656 722 723
f 589 662 730
f 589 730 663
f 494 556 557
f 556 619 557
f 620 558 557
f 557 619 620
f 24 54 27
f 27 9 24
f 136 93 137
f 95 93 136
f 553 490 552
f 553 491 490
f 553 554 492
f 492 491 553
f 692 622 691
f 623 622 692
f 701 631 700
f 701 632 631
f 701 702 633
f 633 632 701
f 663 730 766
f 766 717 663
f 473 472 539
f 407 472 473
f 473 323 407
f 408 323 473
f 587 660 588
f 660 661 588
f 662 589 588
f 588 661 662
f 588 523 587
f 524 523 588
f 116 115 177
f 177 178 116
f 249 327 250
f 249 250 176
f 237 236 316
f 167 236 237
f 1 3 10
f 10 4 1
f 8 2 1
f 1 5 8
f 24 9 7
f 9 3 7
f 7 3 1
f 1 2 7
f 6 21 7
f 7 2 6
f 427 428 359
f 427 359 358
f 58 27 54
f 54 89 58
f 137 93 58
f 58 89 137
f 689 741 749
f 749 690 689
f 623 692 693
f 693 624 623
f 696 627 626
f 626 695 696
f 767 768 719
f 719 718 767
f 717 766 767
f 718 717 767
f 728 661 660
f 660 727 728
f 176 250 245
f 245 173 176
f 245 177 115
f 115 173 245
f 42 75 77
f 77 43 42
f 118 75 42
f 42 76 118
f 327 249 248
f 248 326 327
f 666 595 665
f 665 595 594
f 594 593 665
f 593 664 665
f 716 664 593
f 593 652 716
f 39 55 25
f 18 39 25
f 25 8 5
f 25 5 18
f 354 427 358
f 424 427 354
f 284 346 354
f 354 346 424
f 283 282 347
f 347 282 348
f 347 346 284
f 347 284 283
f 348 282 421
f 421 282 353
f 624 693 625
f 625 693 694
f 695 626 625
f 625 694 695
f 549 550 486
f 485 549 486
f 43 77 72
f 72 38 43
f 72 55 39
f 39 38 72
f 116 178 179
f 179 117 116
f 179 118 76
f 76 117 179
f 879 851 267
f 267 884 882
f 267 542 478
f 882 881 267
f 267 603 540
f 329 254 267
f 891 864 267
f 267 880 879
f 267 131 130
f 182 120 267
f 267 892 891
f 540 542 267
f 478 477 267
f 267 830 829
f 829 862 267
f 267 851 850
f 418 483 267
f 78 87 267
f 850 849 267
f 267 861 889
f 267 748 790
f 267 827 786
f 678 677 267
f 790 830 267
f 786 784 267
f 548 613 267
f 848 878 267
f 267 849 848
f 267 881 880
f 267 862 861
f 889 890 267
f 267 184 182
f 267 477 474
f 267 79 78
f 267 411 329
f 267 740 678
f 130 193 267
f 86 131 267
f 267 87 86
f 878 892 267
f 890 884 267
f 185 184 267
f 267 254 185
f 120 80 267
f 474 411 267
f 267 677 605
f 605 603 267
f 267 784 740
f 267 483 548
f 684 745 267
f 267 613 684
f 267 858 827
f 80 79 267
f 864 858 267
f 267 745 748
f 267 419 418
f 341 419 267
f 324 323 408
f 408 409 324
f 597 668 598
f 597 598 534
f 649 648 711
f 711 712 649
f 649 712 715
f 715 651 649
f 715 716 652
f 652 651 715
f 300 374 375
f 301 300 375
f 326 248 325
f 325 410 326
f 325 324 409
f 409 410 325
f 596 595 666
f 666 667 596
f 668 597 596
f 596 667 668
f 534 598 600
f 600 535 534
f 539 472 538
f 538 472 471
f 471 537 538
f 537 601 538
f 764 765 714
f 714 713 764
f 708 759 710
f 710 647 708
f 710 711 648
f 710 648 647
f 671 601 537
f 671 537 599
f 535 600 671
f 599 535 671
f 719 768 769
f 769 720 719
f 769 764 713
f 713 720 769
f 760 759 708
f 708 709 760
f 714 765 760
f 760 709 714
f 342 421 353
f 353 276 342
f 95 136 135
f 135 96 95
f 141 96 135
f 135 194 141
f 141 194 269
f 269 202 141
f 269 342 276
f 276 202 269
