v 0.041898 0.022495 0.015709
v 0.041807 0.022996 0.016413
v 0.041893 0.022495 0.016413
v 0.041871 0.022293 0.016413
v 0.041832 0.021995 0.016413
v 0.041898 0.022495 0.008517
v 0.041667 0.023335 0.016413
v 0.041803 0.022996 0.008517
v 0.041773 0.021843 0.016413
v 0.041831 0.021995 0.008517
v 0.041855 0.022176 0.008517
v 0.041470 0.023586 0.016413
v 0.041661 0.023333 0.008517
v 0.041469 0.023584 0.008517
v 0.041685 0.021620 0.016413
v 0.041681 0.021620 0.008517
v 0.041219 0.023842 0.016413
v 0.041378 0.023676 0.008517
v 0.041580 0.021471 0.016413
v 0.041505 0.021369 0.008517
v 0.041071 0.023928 0.016413
v 0.041218 0.023839 0.008517
v 0.041505 0.021369 0.016413
v 0.041254 0.021117 0.008517
v 0.041404 0.021266 0.016413
v 0.040854 0.024049 0.016413
v 0.040986 0.023971 0.008517
v 0.040854 0.024045 0.008517
v 0.040854 0.020876 0.008517
v 0.041255 0.021116 0.016413
v 0.040841 0.020862 0.016413
v 0.040642 0.024117 0.016413
v 0.040353 0.024195 0.008517
v 0.040358 0.024202 0.016413
v 0.040739 0.020831 0.008517
v 0.040656 0.020791 0.016413
v 0.040035 0.024187 0.008517
v 0.039856 0.024186 0.016413
v 0.039853 0.024181 0.008517
v 0.040535 0.020753 0.008517
v 0.040550 0.020750 0.016413
v 0.039352 0.024002 0.016413
v 0.039534 0.024067 0.008517
v 0.039352 0.024002 0.008517
v 0.040284 0.020718 0.008517
v 0.040468 0.020723 0.016413
v 0.040323 0.020702 0.016413
v 0.039220 0.023925 0.016413
v 0.039029 0.023809 0.008517
v 0.039028 0.023813 0.016413
v 0.039932 0.020718 0.008517
v 0.040120 0.020702 0.016413
v 0.038939 0.023708 0.008517
v 0.038778 0.023534 0.016413
v 0.039682 0.020756 0.008517
v 0.039892 0.020705 0.016413
v 0.038779 0.023529 0.008517
v 0.038692 0.023433 0.016413
v 0.039352 0.020907 0.008517
v 0.039666 0.020753 0.016413
v 0.038653 0.023370 0.008517
v 0.038574 0.023284 0.016413
v 0.038991 0.021144 0.008517
v 0.039540 0.020811 0.016413
v 0.039368 0.020890 0.016413
v 0.039155 0.021030 0.016413
v 0.038581 0.023279 0.008517
v 0.038470 0.022996 0.016413
v 0.038831 0.021335 0.008517
v 0.038990 0.021143 0.016413
v 0.038888 0.021260 0.016413
v 0.038480 0.022996 0.008517
v 0.038422 0.022699 0.016413
v 0.038400 0.022495 0.008517
v 0.038740 0.021443 0.008517
v 0.038739 0.021437 0.016413
v 0.038392 0.022495 0.016413
v 0.038471 0.021995 0.008517
v 0.038460 0.021995 0.016413
v 0.038572 0.021693 0.008517
v 0.038564 0.021687 0.016413
v 0.038508 0.021886 0.008517
v 0.038520 0.021816 0.016413
f 5 6 1
f 1 6 2
f 1 2 3
f 8 2 6
f 8 7 2
f 13 7 8
f 16 10 15
f 30 31 24
f 24 31 29
f 74 79 77
f 63 70 71
f 66 70 63
f 56 55 51
f 60 55 56
f 4 5 1
f 1 3 4
f 6 5 11
f 5 10 11
f 9 10 5
f 9 15 10
f 16 15 20
f 60 64 59
f 59 55 60
f 59 64 65
f 65 66 59
f 59 66 63
f 52 56 51
f 45 40 47
f 47 40 46
f 29 31 35
f 62 67 68
f 17 12 14
f 14 12 7
f 14 7 13
f 33 34 28
f 83 80 81
f 79 80 83
f 79 74 78
f 75 76 81
f 81 80 75
f 75 71 76
f 41 46 40
f 20 23 25
f 24 20 25
f 30 24 25
f 19 20 15
f 19 23 20
f 48 42 44
f 44 50 48
f 73 74 77
f 73 68 74
f 74 68 72
f 72 68 67
f 18 22 17
f 17 14 18
f 37 34 33
f 37 39 34
f 34 39 38
f 44 42 38
f 82 80 79
f 79 78 82
f 63 71 69
f 71 75 69
f 36 41 40
f 40 35 36
f 36 35 31
f 61 67 62
f 49 50 44
f 49 54 50
f 32 28 34
f 32 26 28
f 28 26 21
f 17 22 21
f 44 38 43
f 43 38 39
f 58 54 57
f 57 61 58
f 58 61 62
f 57 54 53
f 54 49 53
f 27 21 22
f 28 21 27
f 47 52 45
f 45 52 51
f 58 73 77
f 58 12 17
f 5 4 58
f 58 64 60
f 77 79 58
f 58 9 5
f 58 71 70
f 58 52 47
f 42 48 58
f 81 76 58
f 70 66 58
f 58 3 2
f 2 7 58
f 58 31 30
f 47 46 58
f 58 19 15
f 76 71 58
f 58 66 65
f 65 64 58
f 60 56 58
f 58 4 3
f 7 12 58
f 15 9 58
f 58 38 42
f 58 32 34
f 56 52 58
f 58 83 81
f 30 25 58
f 58 36 31
f 62 68 58
f 79 83 58
f 46 41 58
f 58 25 23
f 23 19 58
f 58 48 50
f 68 73 58
f 17 21 58
f 34 38 58
f 41 36 58
f 50 54 58
f 26 32 58
f 58 21 26
f 16 20 27
f 80 82 27
f 27 8 6
f 27 45 51
f 27 24 29
f 27 78 74
f 13 8 27
f 27 10 16
f 6 11 27
f 33 28 27
f 29 35 27
f 51 55 27
f 27 59 63
f 27 11 10
f 27 20 24
f 27 14 13
f 27 49 44
f 55 59 27
f 40 45 27
f 27 35 40
f 67 61 27
f 74 72 27
f 57 53 27
f 22 18 27
f 27 37 33
f 27 75 80
f 63 69 27
f 27 72 67
f 27 18 14
f 39 37 27
f 27 82 78
f 27 69 75
f 27 61 57
f 44 43 27
f 27 43 39
f 27 53 49
