v -0.016893 0.001765 -0.006600
v -0.016893 0.001765 -0.003105
v -0.016636 0.002768 -0.006600
v -0.016200 0.002523 -0.007100
v -0.016393 0.001771 -0.007100
v -0.016613 0.000768 -0.006600
v -0.016613 0.000768 -0.003105
v -0.016637 0.002766 -0.003105
v -0.015913 0.003508 -0.003105
v -0.015913 0.003508 -0.006600
v -0.015658 0.003078 -0.007100
v -0.016183 0.001023 -0.007100
v -0.015628 0.000480 -0.007100
v -0.015873 0.000045 -0.006600
v -0.015873 0.000045 -0.003105
v -0.014916 0.003788 -0.003105
v -0.014916 0.003788 -0.006600
v -0.014910 0.003288 -0.007100
v -0.014876 0.000288 -0.007100
v -0.014870 -0.000212 -0.006600
v -0.014870 -0.000212 -0.003105
v -0.013913 0.003531 -0.003105
v -0.013913 0.003531 -0.006600
v -0.014158 0.003095 -0.007100
v -0.014128 0.000498 -0.007100
v -0.013874 0.000067 -0.006600
v -0.013874 0.000067 -0.003105
v -0.013173 0.002807 -0.003105
v -0.013173 0.002807 -0.006600
v -0.013603 0.002552 -0.007100
v -0.013586 0.001053 -0.007100
v -0.013150 0.000808 -0.006600
v -0.013150 0.000808 -0.003105
v -0.012893 0.001810 -0.003105
v -0.012893 0.001810 -0.006600
v -0.013393 0.001805 -0.007100
f 3 8 9
f 9 10 3
f 2 8 3
f 1 2 3
f 17 23 18
f 18 10 17
f 29 35 36
f 36 30 29
f 1 5 6
f 4 5 1
f 1 3 4
f 4 3 10
f 24 18 23
f 24 23 29
f 29 30 24
f 26 31 32
f 32 31 36
f 32 36 35
f 12 6 5
f 10 18 11
f 11 4 10
f 26 20 19
f 25 31 26
f 26 19 25
f 13 20 14
f 13 19 20
f 14 6 13
f 6 12 13
f 10 9 16
f 16 17 10
f 35 28 34
f 29 28 35
f 22 17 16
f 22 23 17
f 22 28 29
f 29 23 22
f 15 8 2
f 16 9 15
f 34 28 15
f 2 7 15
f 15 22 16
f 15 33 34
f 9 8 15
f 21 27 15
f 28 22 15
f 27 33 15
f 20 27 21
f 26 27 20
f 21 15 20
f 20 15 14
f 6 7 2
f 6 2 1
f 6 15 7
f 14 15 6
f 32 33 27
f 32 27 26
f 32 35 34
f 34 33 32
f 30 36 13
f 5 4 13
f 13 24 30
f 13 12 5
f 18 24 13
f 36 31 13
f 13 11 18
f 4 11 13
f 31 25 13
f 13 25 19
