v -0.009884 -0.003849 0.004700
v -0.009884 -0.003849 0.009100
v -0.009884 -0.003583 0.004436
v -0.002789 -0.004701 0.004700
v -0.009884 -0.003719 0.009230
v -0.002789 -0.004701 0.009100
v -0.009884 -0.003546 0.004400
v -0.002789 -0.004404 0.004405
v -0.009884 -0.003546 0.009400
v -0.002789 -0.004399 0.009400
v -0.002789 -0.004399 0.004400
v -0.009884 0.005920 0.004400
v -0.009884 0.005920 0.009400
v -0.002789 0.005068 0.009400
v -0.002789 0.005068 0.004400
v -0.009884 0.006222 0.004700
v -0.002789 0.005085 0.004417
v -0.002789 0.005092 0.009376
v -0.009884 0.006222 0.009100
v -0.002789 0.005370 0.004700
v -0.002789 0.005370 0.009100
f 3 4 1
f 5 2 6
f 6 10 5
f 5 10 9
f 18 13 14
f 16 20 17
f 17 12 16
f 15 12 17
f 19 18 21
f 13 18 19
f 8 3 7
f 7 11 8
f 4 3 8
f 4 6 2
f 1 4 2
f 10 13 9
f 14 13 10
f 7 12 11
f 11 12 15
f 16 12 19
f 19 3 1
f 19 5 9
f 9 13 19
f 7 3 19
f 1 2 19
f 2 5 19
f 19 12 7
f 19 21 20
f 19 20 16
f 8 17 20
f 8 6 4
f 14 10 8
f 8 10 6
f 20 21 8
f 8 18 14
f 21 18 8
f 15 17 8
f 8 11 15
