v 0.038886 0.020299 0.009000
v 0.040139 0.019959 0.009000
v 0.038886 0.020299 0.004600
v 0.038396 0.020299 0.009300
v 0.040139 0.019660 0.009300
v 0.040139 0.019959 0.004600
v 0.038396 0.020299 0.004300
v 0.026662 0.020299 0.009300
v 0.040139 0.017066 0.009300
v 0.040139 0.019949 0.004589
v 0.040139 0.019660 0.004300
v 0.026662 0.020299 0.004300
v 0.026047 0.020299 0.009000
v 0.000753 0.005806 0.009300
v 0.040139 0.016723 0.009000
v 0.020009 0.005806 0.009300
v 0.040139 0.017066 0.004300
v 0.000753 0.005806 0.004300
v 0.026474 0.020299 0.004391
v 0.026047 0.020299 0.004600
v 0.000138 0.005806 0.009000
v 0.040139 0.016723 0.004600
v 0.020620 0.005806 0.009000
v 0.040139 0.016744 0.004581
v 0.020009 0.005806 0.004300
v 0.000138 0.005806 0.004600
v 0.020620 0.005806 0.004600
f 1 4 2
f 25 22 27
f 3 6 7
f 25 17 24
f 22 25 24
f 16 23 15
f 15 9 16
f 2 4 5
f 10 11 7
f 7 6 10
f 19 12 18
f 19 26 20
f 18 26 19
f 14 8 13
f 14 13 21
f 2 6 3
f 3 1 2
f 11 25 18
f 11 12 7
f 18 12 11
f 11 17 25
f 26 25 27
f 27 23 26
f 26 14 21
f 18 25 26
f 26 23 16
f 16 14 26
f 21 13 26
f 13 20 26
f 15 23 27
f 27 22 15
f 4 8 5
f 8 14 5
f 5 14 16
f 16 9 5
f 10 6 2
f 10 15 22
f 22 24 10
f 17 11 10
f 10 24 17
f 10 5 9
f 9 15 10
f 2 5 10
f 19 20 13
f 19 8 4
f 4 1 19
f 13 8 19
f 7 12 19
f 19 3 7
f 1 3 19
