v -0.000029 0.005417 0.009300
v -0.000029 0.005735 0.009000
v -0.002619 0.004861 0.009300
v -0.000029 0.002792 0.009300
v -0.000029 0.005735 0.004600
v -0.002619 0.005159 0.009000
v -0.002619 0.000936 0.009300
v -0.000029 0.002492 0.009000
v -0.002619 0.000169 0.009139
v -0.000029 0.005417 0.004300
v -0.002619 0.004861 0.004300
v -0.002619 0.005159 0.004600
v -0.002480 0.000169 0.009000
v -0.000029 0.002492 0.004600
v -0.002619 0.000169 0.004461
v -0.000029 0.002792 0.004300
v -0.002619 0.000936 0.004300
v -0.002480 0.000169 0.004600
v -0.002554 0.000169 0.004526
f 3 1 2
f 4 7 9
f 9 8 4
f 10 11 5
f 15 17 16
f 13 8 9
f 3 2 6
f 15 16 14
f 12 5 11
f 19 14 18
f 15 14 19
f 3 7 4
f 4 1 3
f 16 17 11
f 16 11 10
f 10 5 14
f 14 2 1
f 1 4 14
f 14 4 8
f 14 5 2
f 14 16 10
f 14 13 18
f 8 13 14
f 11 17 12
f 12 7 3
f 9 7 12
f 12 15 9
f 12 17 15
f 3 6 12
f 2 5 12
f 12 6 2
f 9 15 19
f 19 13 9
f 18 13 19
