v -0.000131 -0.005318 0.004400
v -0.000013 -0.005318 0.004400
v -0.000138 -0.005318 0.004403
v -0.002788 -0.004701 0.004700
v -0.002788 -0.004399 0.004400
v -0.000013 -0.002795 0.004400
v -0.000013 -0.005318 0.009400
v -0.000751 -0.005318 0.004700
v -0.002788 -0.004701 0.009100
v -0.002788 -0.000674 0.004400
v -0.002708 -0.000674 0.004400
v -0.000013 -0.002774 0.004421
v -0.000013 -0.002795 0.009400
v -0.000131 -0.005318 0.009400
v -0.000751 -0.005318 0.009100
v -0.002788 -0.004405 0.009394
v -0.002788 -0.000674 0.009400
v -0.002674 -0.000674 0.004434
v -0.000013 -0.002495 0.004700
v -0.002708 -0.000674 0.009400
v -0.000013 -0.002495 0.009100
v -0.002788 -0.004399 0.009400
v -0.002407 -0.000674 0.004700
v -0.002407 -0.000674 0.009100
f 4 5 1
f 3 8 4
f 4 1 3
f 9 15 14
f 16 14 22
f 9 14 16
f 19 12 11
f 11 12 6
f 18 23 19
f 19 11 18
f 21 24 20
f 20 13 21
f 15 9 4
f 4 8 15
f 14 1 2
f 2 7 14
f 8 3 14
f 14 15 8
f 14 3 1
f 13 7 2
f 2 6 13
f 13 12 19
f 19 21 13
f 6 12 13
f 16 17 10
f 16 5 4
f 10 5 16
f 4 9 16
f 16 22 17
f 11 5 10
f 2 1 11
f 11 1 5
f 11 6 2
f 24 21 19
f 19 23 24
f 10 17 20
f 20 11 10
f 23 18 20
f 20 24 23
f 20 18 11
f 17 22 20
f 20 14 7
f 22 14 20
f 7 13 20
