v 0.036402 -0.015074 0.009400
v 0.040093 -0.017149 0.009400
v 0.036402 -0.014730 0.009100
v 0.036402 -0.022540 0.009400
v 0.040093 -0.016805 0.009100
v 0.040093 -0.019746 0.009400
v 0.036402 -0.014730 0.004700
v 0.036402 -0.022540 0.004400
v 0.037302 -0.022540 0.009400
v 0.040093 -0.016805 0.004700
v 0.037589 -0.022540 0.009113
v 0.040093 -0.020046 0.009100
v 0.036402 -0.014768 0.004667
v 0.040093 -0.016820 0.004687
v 0.037302 -0.022540 0.004400
v 0.036402 -0.015074 0.004400
v 0.037602 -0.022540 0.009100
v 0.040093 -0.020046 0.004700
v 0.040093 -0.017129 0.004418
v 0.040093 -0.019746 0.004400
v 0.037318 -0.022540 0.004417
v 0.040093 -0.017149 0.004400
v 0.037602 -0.022540 0.004700
f 12 6 11
f 11 17 12
f 6 9 11
f 19 22 16
f 21 15 20
f 21 20 18
f 18 23 21
f 13 19 16
f 19 13 14
f 14 7 10
f 14 13 7
f 1 4 9
f 9 2 1
f 9 6 2
f 23 18 12
f 12 17 23
f 5 3 1
f 1 2 5
f 5 7 3
f 10 7 5
f 8 16 15
f 22 20 15
f 16 22 15
f 4 8 21
f 21 9 4
f 17 11 21
f 21 11 9
f 21 23 17
f 8 15 21
f 13 8 4
f 13 4 1
f 13 16 8
f 1 3 13
f 3 7 13
f 2 6 14
f 14 6 12
f 12 18 14
f 14 20 22
f 14 5 2
f 18 20 14
f 10 5 14
f 22 19 14
