v 0.000534 0.017923 -0.007201
v 0.000534 0.017888 -0.006847
v 0.000888 0.017869 -0.006847
v 0.000888 0.017903 -0.007201
v 0.000534 0.017923 -0.007911
v 0.000179 0.017913 -0.007201
v 0.000179 0.017879 -0.006847
v 0.000534 0.017796 -0.006602
v 0.000888 0.017788 -0.006612
v 0.000179 0.017792 -0.006607
v 0.001802 0.017741 -0.006666
v 0.001932 0.017756 -0.006852
v 0.002184 0.017744 -0.006974
v 0.000888 0.017903 -0.007911
v 0.002663 0.017693 -0.007201
v 0.000534 0.017841 -0.008265
v 0.000179 0.017913 -0.007911
v -0.000298 0.017890 -0.007201
v -0.000298 0.017857 -0.006847
v -0.000298 0.017833 -0.006770
v -0.000298 0.017780 -0.006618
v -0.000177 0.017784 -0.006615
v 0.000534 0.016641 -0.004425
v 0.000890 0.016644 -0.004425
v 0.000952 0.016642 -0.004425
v 0.001244 0.016633 -0.004425
v -0.000298 0.016632 -0.004425
v 0.003372 0.017574 -0.006847
v 0.002038 0.017726 -0.006737
v 0.001305 0.016626 -0.004425
v 0.001598 0.016592 -0.004425
v 0.003726 0.017428 -0.006618
v 0.003372 0.017608 -0.007201
v 0.003017 0.017652 -0.007201
v 0.002663 0.017693 -0.007911
v 0.002184 0.017744 -0.008106
v 0.001953 0.017757 -0.008141
v 0.001598 0.017779 -0.008190
v 0.001242 0.017799 -0.008231
v 0.000891 0.017808 -0.008295
v 0.000775 0.017745 -0.008450
v 0.000534 0.017749 -0.008454
v 0.000179 0.017744 -0.008449
v 0.000179 0.017830 -0.008265
v -0.000298 0.017804 -0.008278
v -0.000298 0.017890 -0.007911
v -0.000298 0.011982 -0.004425
v 0.003962 0.017397 -0.006652
v 0.003726 0.017505 -0.006847
v 0.002371 0.016468 -0.004425
v 0.003728 0.016249 -0.004425
v 0.003372 0.017608 -0.007911
v 0.003726 0.017538 -0.007201
v 0.003017 0.017652 -0.007911
v 0.003372 0.017527 -0.008265
v 0.001598 0.017698 -0.008368
v 0.001242 0.017718 -0.008409
v 0.001011 0.017731 -0.008433
v 0.000534 0.017561 -0.008579
v 0.003372 0.017413 -0.008473
v 0.003017 0.017435 -0.008495
v 0.002663 0.017457 -0.008513
v 0.002309 0.017477 -0.008530
v 0.001953 0.017499 -0.008544
v 0.001598 0.017519 -0.008556
v 0.001242 0.017541 -0.008563
v 0.000891 0.017592 -0.008547
v 0.000179 0.017561 -0.008574
v -0.000298 0.017577 -0.008552
v -0.000024 0.017739 -0.008444
v -0.000298 0.017733 -0.008434
v 0.004549 0.007031 -0.006846
v 0.004551 0.007032 -0.005783
v 0.004553 0.007033 -0.005145
v 0.004746 0.006855 -0.005145
v 0.004926 0.006707 -0.005145
v 0.005147 0.006552 -0.005145
v -0.000182 0.011906 -0.004425
v -0.000298 0.012096 -0.007911
v 0.004549 0.007031 -0.007201
v 0.004084 0.016173 -0.004425
v 0.005317 0.017027 -0.006676
v 0.004200 0.017365 -0.006779
v 0.004082 0.017413 -0.006877
v 0.004263 0.017384 -0.007015
v 0.003726 0.017538 -0.007911
v 0.004082 0.017438 -0.007201
v 0.004082 0.017411 -0.008153
v 0.003719 0.017453 -0.008280
v 0.003596 0.017396 -0.008455
v 0.001953 0.017205 -0.008670
v 0.001598 0.017205 -0.008681
v 0.001242 0.017205 -0.008689
v 0.000888 0.017205 -0.008693
v 0.000534 0.017205 -0.008695
v 0.000179 0.017205 -0.008695
v -0.000298 0.017205 -0.008693
v 0.003372 0.017205 -0.008599
v 0.003719 0.017228 -0.008547
v 0.003017 0.017205 -0.008620
v 0.002663 0.017205 -0.008639
v 0.002309 0.017205 -0.008656
v -0.000298 0.017323 -0.008650
v 0.004740 0.006855 -0.006846
v 0.004919 0.006702 -0.007201
v 0.004919 0.006703 -0.006846
v 0.004925 0.006706 -0.005428
v 0.005147 0.006550 -0.005428
v 0.005367 0.006410 -0.005145
v 0.000181 0.011814 -0.004425
v 0.005546 0.006322 -0.005145
v 0.005856 0.006184 -0.005145
v 0.011082 0.004103 -0.005146
v -0.000298 0.012194 -0.008277
v 0.004570 0.007051 -0.007555
v 0.004740 0.006855 -0.007201
v 0.004437 0.016065 -0.004425
v 0.006415 0.016684 -0.006656
v 0.005380 0.017044 -0.006912
v 0.006210 0.016786 -0.006847
v 0.006210 0.016818 -0.007201
v 0.005857 0.016922 -0.007201
v 0.004082 0.017438 -0.007911
v 0.004263 0.017384 -0.008091
v 0.005380 0.017044 -0.008130
v 0.005147 0.016994 -0.008379
v 0.003834 0.017362 -0.008408
v 0.004949 0.017023 -0.008434
v 0.006066 0.016683 -0.008451
v 0.004713 0.017056 -0.008470
v 0.004438 0.017097 -0.008506
v 0.004082 0.017150 -0.008543
v 0.003726 0.016851 -0.008689
v 0.003372 0.016851 -0.008695
v -0.000298 0.016851 -0.008695
v 0.004438 0.016851 -0.008632
v 0.004082 0.016851 -0.008669
v 0.005147 0.006544 -0.006846
v 0.004940 0.006720 -0.007555
v 0.005147 0.006544 -0.007201
v 0.005362 0.006407 -0.006493
v 0.005539 0.006320 -0.006137
v 0.000534 0.011728 -0.004425
v 0.005538 0.006319 -0.007201
v 0.005856 0.006181 -0.007201
v 0.011082 0.004103 -0.007910
v 0.016128 0.004103 -0.005146
v 0.003848 0.011498 -0.004425
v 0.002663 0.011504 -0.004425
v 0.002309 0.011508 -0.004425
v 0.001953 0.011518 -0.004425
v 0.001598 0.011542 -0.004425
v 0.001286 0.011577 -0.004425
v 0.000890 0.011645 -0.004425
v -0.000298 0.012254 -0.008373
v 0.004598 0.007081 -0.007754
v 0.004763 0.006874 -0.007555
v 0.006210 0.015457 -0.004425
v 0.006564 0.015333 -0.004425
v 0.006757 0.015263 -0.004425
v 0.007851 0.015984 -0.006647
v 0.008803 0.015578 -0.006847
v 0.006637 0.016621 -0.006847
v 0.006458 0.016705 -0.006847
v 0.006491 0.016721 -0.007201
v 0.006210 0.016818 -0.007911
v 0.005857 0.016922 -0.007911
v 0.006457 0.016705 -0.008163
v 0.006194 0.016737 -0.008274
v 0.006300 0.016646 -0.008400
v 0.006566 0.016414 -0.008520
v 0.006194 0.016515 -0.008541
v 0.005857 0.016713 -0.008480
v 0.005501 0.016765 -0.008524
v 0.005147 0.016817 -0.008554
v 0.005147 0.016496 -0.008681
v 0.006210 0.016140 -0.008686
v 0.004793 0.016496 -0.008693
v 0.005857 0.016140 -0.008695
v -0.000298 0.013071 -0.008695
v 0.005857 0.016496 -0.008606
v 0.005501 0.016496 -0.008650
v 0.005361 0.006406 -0.007201
v 0.004965 0.006740 -0.007738
v 0.005147 0.006577 -0.007555
v 0.005567 0.006335 -0.007555
v 0.005856 0.006214 -0.007555
v 0.011188 0.004103 -0.008296
v 0.017196 0.004103 -0.006495
v 0.015949 0.004897 -0.005146
v 0.012032 0.011498 -0.004425
v -0.000298 0.012350 -0.008498
v 0.004824 0.006944 -0.007816
v 0.006992 0.015135 -0.004425
v 0.009248 0.015271 -0.006652
v 0.008569 0.015633 -0.006643
v 0.009043 0.015444 -0.006847
v 0.008836 0.015594 -0.007201
v 0.008338 0.015835 -0.007201
v 0.006670 0.016638 -0.007201
v 0.006491 0.016721 -0.007911
v 0.006670 0.016638 -0.007911
v 0.008338 0.015835 -0.007911
v 0.008836 0.015594 -0.007911
v 0.007174 0.016356 -0.008171
v 0.006573 0.016594 -0.008274
v 0.007049 0.016296 -0.008408
v 0.006811 0.016353 -0.008474
v 0.007532 0.016002 -0.008478
v 0.008251 0.015652 -0.008481
v 0.007983 0.015717 -0.008528
v 0.006926 0.016163 -0.008556
v 0.006566 0.016140 -0.008645
v 0.008692 0.015077 -0.008658
v 0.008338 0.015077 -0.008690
v 0.008692 0.014723 -0.008695
v -0.000177 0.012949 -0.008695
v -0.000298 0.012949 -0.008691
v 0.005392 0.006423 -0.007555
v 0.004985 0.007112 -0.008082
v 0.005121 0.006912 -0.008002
v 0.005147 0.006678 -0.007807
v 0.005626 0.006364 -0.007768
v 0.011306 0.004103 -0.008482
v 0.017243 0.004103 -0.006556
v 0.017368 0.004214 -0.006748
v 0.015865 0.005145 -0.005146
v 0.017154 0.004436 -0.006544
v 0.017055 0.005077 -0.006637
v 0.017026 0.005314 -0.006682
v 0.016678 0.006407 -0.006661
v 0.015725 0.005501 -0.005146
v 0.014993 0.007274 -0.005146
v 0.014908 0.007474 -0.005146
v 0.014821 0.007652 -0.005146
v 0.015275 0.009259 -0.006646
v 0.014551 0.010298 -0.006663
v 0.013491 0.011720 -0.006659
v 0.011982 0.011556 -0.004425
v -0.000298 0.012407 -0.008532
v 0.008794 0.014150 -0.004425
v 0.009284 0.015298 -0.006847
v 0.009045 0.014010 -0.004425
v 0.009272 0.013873 -0.004425
v 0.010295 0.014552 -0.006663
v 0.009043 0.015478 -0.007201
v 0.009043 0.015478 -0.007911
v 0.009279 0.015295 -0.008170
v 0.008610 0.015655 -0.008186
v 0.007768 0.015946 -0.008416
v 0.008485 0.015595 -0.008423
v 0.008947 0.015303 -0.008485
v 0.008692 0.015369 -0.008532
v 0.009058 0.015097 -0.008559
v 0.009401 0.014723 -0.008623
v 0.009753 0.014368 -0.008656
v 0.009043 0.014723 -0.008682
v 0.009401 0.014368 -0.008693
v 0.010818 0.013305 -0.008695
v 0.012216 0.004103 -0.008695
v 0.011884 0.004103 -0.008691
v -0.000298 0.012715 -0.008660
v 0.011862 0.004103 -0.008689
v 0.005222 0.007024 -0.008115
v 0.005392 0.006789 -0.008063
v -0.000298 0.012589 -0.008616
v 0.005508 0.006571 -0.007915
v 0.011459 0.004103 -0.008566
v 0.011389 0.004103 -0.008529
v 0.017415 0.004103 -0.006847
v 0.017420 0.004103 -0.006868
v 0.017387 0.004275 -0.006985
v 0.017043 0.005372 -0.006919
v 0.016697 0.006456 -0.006847
v 0.016628 0.006633 -0.006847
v 0.016498 0.006920 -0.006847
v 0.016338 0.007139 -0.006648
v 0.015983 0.007850 -0.006648
v 0.015629 0.008559 -0.006647
v 0.015568 0.008791 -0.006847
v 0.015438 0.009046 -0.006847
v 0.015303 0.009301 -0.006847
v 0.015179 0.009478 -0.006847
v 0.014724 0.010111 -0.006847
v 0.013821 0.011333 -0.006735
v 0.013515 0.011745 -0.006847
v 0.013163 0.012098 -0.006847
v 0.013137 0.012074 -0.006660
v 0.011438 0.012146 -0.004425
v 0.011617 0.011962 -0.004425
v 0.009310 0.015315 -0.007201
v 0.011341 0.013830 -0.006699
v 0.010323 0.014571 -0.006847
v 0.011369 0.013852 -0.006936
v 0.009449 0.013735 -0.004425
v 0.009310 0.015315 -0.007911
v 0.009183 0.015230 -0.008407
v 0.009058 0.015372 -0.008279
v 0.010326 0.014574 -0.008147
v 0.010233 0.014508 -0.008384
v 0.008713 0.015553 -0.008288
v 0.009592 0.014909 -0.008451
v 0.009401 0.014977 -0.008500
v 0.010113 0.014380 -0.008551
v 0.011165 0.013662 -0.008538
v 0.010818 0.013659 -0.008645
v 0.011174 0.013305 -0.008668
v 0.010109 0.014014 -0.008677
v 0.010464 0.013659 -0.008689
v 0.012949 0.011529 -0.008672
v 0.012239 0.011886 -0.008695
v 0.016496 0.004103 -0.008695
v 0.011502 0.004103 -0.008584
v 0.005628 0.006718 -0.008101
v 0.017446 0.004103 -0.007201
v 0.016803 0.006210 -0.007201
v 0.016645 0.006671 -0.007201
v 0.016710 0.006494 -0.007201
v 0.016364 0.007192 -0.006847
v 0.016531 0.006920 -0.007201
v 0.015475 0.009046 -0.007201
v 0.015674 0.008646 -0.007201
v 0.015320 0.009325 -0.007201
v 0.015198 0.009502 -0.007201
v 0.013844 0.011362 -0.006970
v 0.013713 0.011500 -0.006850
v 0.013616 0.011621 -0.006849
v 0.013533 0.011764 -0.007201
v 0.013357 0.011943 -0.007201
v 0.011752 0.013528 -0.007201
v 0.012091 0.013156 -0.006847
v 0.011712 0.013488 -0.006664
v 0.011233 0.012323 -0.004425
v 0.009487 0.015191 -0.007201
v 0.010222 0.013125 -0.004425
v 0.011504 0.013712 -0.006829
v 0.011732 0.013509 -0.006847
v 0.011554 0.013705 -0.007201
v 0.011379 0.013857 -0.007201
v 0.011174 0.014004 -0.007201
v 0.010953 0.014160 -0.007201
v 0.009487 0.015191 -0.007911
v 0.011369 0.013852 -0.008120
v 0.010637 0.014187 -0.008438
v 0.011276 0.013783 -0.008357
v 0.011040 0.013868 -0.008468
v 0.009996 0.014590 -0.008479
v 0.010401 0.014271 -0.008503
v 0.010818 0.013946 -0.008520
v 0.011424 0.013546 -0.008492
v 0.011537 0.013313 -0.008553
v 0.012960 0.011897 -0.008557
v 0.012593 0.011886 -0.008671
v 0.012949 0.011174 -0.008695
v 0.013234 0.011621 -0.008554
v 0.013316 0.011540 -0.008553
v 0.013303 0.011174 -0.008667
v 0.013303 0.010820 -0.008694
v 0.016496 0.004436 -0.008695
v 0.016828 0.004103 -0.008673
v 0.017446 0.004103 -0.007910
v 0.016803 0.006210 -0.007910
v 0.016645 0.006671 -0.007910
v 0.016710 0.006494 -0.007910
v 0.016531 0.006920 -0.007910
v 0.015475 0.009046 -0.007910
v 0.015674 0.008646 -0.007910
v 0.015320 0.009325 -0.007910
v 0.015198 0.009502 -0.007910
v 0.014281 0.010770 -0.007201
v 0.013845 0.011369 -0.007201
v 0.013712 0.011546 -0.007201
v 0.013651 0.011621 -0.007201
v 0.013533 0.011764 -0.007911
v 0.013357 0.011943 -0.007911
v 0.011752 0.013528 -0.007911
v 0.011554 0.013705 -0.007911
v 0.011379 0.013857 -0.007911
v 0.011174 0.014004 -0.007911
v 0.010953 0.014160 -0.007911
v 0.011738 0.013512 -0.008146
v 0.011514 0.013647 -0.008251
v 0.011660 0.013436 -0.008382
v 0.011780 0.013199 -0.008493
v 0.013206 0.011787 -0.008496
v 0.014012 0.009757 -0.008695
v 0.013540 0.011429 -0.008490
v 0.013660 0.011162 -0.008534
v 0.013660 0.010820 -0.008641
v 0.014366 0.009757 -0.008658
v 0.014012 0.010111 -0.008677
v 0.013660 0.010465 -0.008688
v 0.014366 0.009401 -0.008693
v 0.015785 0.006564 -0.008695
v 0.016140 0.005855 -0.008694
v 0.016496 0.004790 -0.008693
v 0.016850 0.004103 -0.008670
v 0.016496 0.005145 -0.008680
v 0.017444 0.004103 -0.007933
v 0.017387 0.004275 -0.008101
v 0.016697 0.006458 -0.008151
v 0.017043 0.005372 -0.008128
v 0.016360 0.007181 -0.008177
v 0.015652 0.008603 -0.008180
v 0.015297 0.009291 -0.008181
v 0.014573 0.010327 -0.008148
v 0.013844 0.011362 -0.008107
v 0.014281 0.010770 -0.007910
v 0.013845 0.011369 -0.007910
v 0.013712 0.011546 -0.007910
v 0.013651 0.011621 -0.007911
v 0.013515 0.011745 -0.008157
v 0.013163 0.012098 -0.008154
v 0.013303 0.011885 -0.008274
v 0.013086 0.012024 -0.008392
v 0.011877 0.013298 -0.008265
v 0.013442 0.011665 -0.008393
v 0.013461 0.011621 -0.008411
v 0.014721 0.008692 -0.008695
v 0.013863 0.011035 -0.008464
v 0.014592 0.010000 -0.008480
v 0.014269 0.010399 -0.008503
v 0.014714 0.009734 -0.008521
v 0.014379 0.010115 -0.008551
v 0.014721 0.009401 -0.008629
v 0.014721 0.009046 -0.008685
v 0.015077 0.008337 -0.008688
v 0.015431 0.007274 -0.008695
v 0.015431 0.007629 -0.008688
v 0.015785 0.006920 -0.008688
v 0.016140 0.006210 -0.008686
v 0.016496 0.005501 -0.008647
v 0.016850 0.004436 -0.008635
v 0.017135 0.004103 -0.008552
v 0.017413 0.004103 -0.008161
v 0.016642 0.006285 -0.008388
v 0.016597 0.006572 -0.008268
v 0.016428 0.006932 -0.008283
v 0.016300 0.007059 -0.008414
v 0.015945 0.007771 -0.008416
v 0.015591 0.008481 -0.008416
v 0.015235 0.009191 -0.008418
v 0.015367 0.009063 -0.008285
v 0.015158 0.009406 -0.008285
v 0.014505 0.010235 -0.008385
v 0.013776 0.011270 -0.008343
v 0.013647 0.011514 -0.008250
v 0.013587 0.011621 -0.008207
v 0.014184 0.010636 -0.008435
v 0.014914 0.009600 -0.008454
v 0.014985 0.009401 -0.008505
v 0.015101 0.009063 -0.008558
v 0.015077 0.008692 -0.008654
v 0.015785 0.007274 -0.008652
v 0.016140 0.006564 -0.008650
v 0.016496 0.005855 -0.008601
v 0.017151 0.004103 -0.008544
v 0.016815 0.005145 -0.008553
v 0.017328 0.004103 -0.008338
v 0.016993 0.005145 -0.008378
v 0.017022 0.004950 -0.008434
v 0.016678 0.006049 -0.008447
v 0.016359 0.006822 -0.008478
v 0.015650 0.008244 -0.008479
v 0.015296 0.008954 -0.008480
v 0.015362 0.008692 -0.008527
v 0.015812 0.007643 -0.008560
v 0.016166 0.006932 -0.008559
v 0.016414 0.006564 -0.008523
v 0.016512 0.006184 -0.008539
v 0.016762 0.005501 -0.008521
v 0.017100 0.004436 -0.008509
v 0.017317 0.004103 -0.008357
v 0.017059 0.004713 -0.008472
v 0.016708 0.005855 -0.008474
v 0.016069 0.007274 -0.008526
f 145 146 113
f 220 264 265
f 23 8 27
f 313 265 314
f 314 265 264
f 79 114 115
f 114 156 115
f 224 188 223
f 187 188 146
f 146 145 187
f 10 27 8
f 118 117 158
f 196 160 195
f 243 195 241
f 81 82 48
f 81 117 118
f 118 82 81
f 11 31 32
f 292 245 244
f 244 195 243
f 244 245 195
f 236 237 191
f 235 236 191
f 268 265 313
f 268 267 265
f 223 267 268
f 184 193 220
f 156 193 184
f 80 47 79
f 79 115 80
f 113 78 112
f 112 78 111
f 112 145 113
f 111 142 112
f 144 145 112
f 112 142 144
f 21 7 20
f 7 19 20
f 7 10 2
f 2 10 8
f 21 27 22
f 27 10 22
f 22 7 21
f 22 10 7
f 159 160 118
f 118 158 159
f 195 160 194
f 194 241 195
f 24 8 23
f 9 26 11
f 8 26 9
f 11 3 9
f 9 2 8
f 3 2 9
f 30 31 11
f 11 26 30
f 28 32 48
f 33 13 28
f 13 29 28
f 11 32 28
f 28 29 11
f 51 81 48
f 48 32 51
f 335 333 292
f 292 333 332
f 336 294 292
f 337 294 336
f 292 332 336
f 336 332 337
f 292 294 293
f 343 379 378
f 330 294 337
f 113 148 149
f 225 226 189
f 225 270 226
f 230 226 272
f 190 147 189
f 189 226 190
f 226 228 190
f 191 147 190
f 190 227 191
f 230 231 190
f 190 231 227
f 236 235 279
f 279 280 236
f 269 224 223
f 223 268 269
f 220 265 221
f 221 184 220
f 265 267 222
f 222 221 265
f 184 221 222
f 222 267 223
f 223 184 222
f 157 115 156
f 156 184 157
f 186 145 144
f 186 187 145
f 223 188 186
f 188 187 186
f 153 154 113
f 113 154 143
f 316 272 315
f 277 231 276
f 266 264 220
f 266 262 264
f 263 262 218
f 218 261 263
f 264 262 263
f 263 314 264
f 313 314 263
f 217 261 218
f 25 26 8
f 8 24 25
f 12 13 3
f 12 29 13
f 12 3 11
f 11 29 12
f 49 28 48
f 33 28 49
f 50 32 31
f 50 51 32
f 195 245 242
f 242 294 291
f 242 293 294
f 242 245 292
f 292 293 242
f 162 196 195
f 343 376 381
f 292 244 295
f 295 335 292
f 289 332 333
f 290 239 238
f 238 289 290
f 238 239 191
f 191 237 238
f 237 236 283
f 287 238 286
f 377 376 343
f 343 378 377
f 150 151 113
f 113 149 150
f 226 270 271
f 271 272 226
f 315 272 271
f 230 190 229
f 229 190 228
f 229 226 230
f 229 228 226
f 191 227 232
f 232 233 191
f 227 231 232
f 231 233 232
f 234 235 191
f 191 233 234
f 277 235 234
f 234 231 277
f 234 233 231
f 278 235 277
f 278 279 235
f 277 280 278
f 280 279 278
f 116 80 115
f 115 157 116
f 73 74 47
f 113 151 152
f 152 153 113
f 110 78 113
f 113 143 110
f 435 400 399
f 399 400 361
f 402 400 435
f 362 402 401
f 361 400 362
f 400 402 362
f 274 316 318
f 274 231 230
f 469 455 468
f 455 454 468
f 397 432 433
f 456 455 469
f 456 432 455
f 456 433 432
f 119 85 82
f 119 121 85
f 45 46 17
f 44 45 17
f 69 42 68
f 220 193 192
f 192 193 156
f 180 217 218
f 34 13 33
f 34 15 13
f 48 82 83
f 83 49 48
f 82 85 83
f 33 49 53
f 85 87 53
f 53 49 85
f 246 242 291
f 161 162 118
f 196 162 161
f 118 160 161
f 160 196 161
f 398 432 397
f 294 339 340
f 340 341 294
f 291 294 334
f 294 341 334
f 237 283 284
f 282 283 236
f 324 283 282
f 403 367 365
f 331 330 337
f 331 287 330
f 337 332 331
f 332 287 331
f 288 287 332
f 238 287 288
f 332 289 288
f 289 238 288
f 338 339 294
f 294 330 338
f 219 184 223
f 223 186 219
f 139 157 184
f 139 116 157
f 47 74 75
f 75 76 47
f 74 73 75
f 77 78 47
f 47 76 77
f 47 80 72
f 72 73 47
f 436 402 435
f 401 402 436
f 401 403 363
f 363 403 365
f 317 274 318
f 230 272 273
f 273 274 230
f 272 316 273
f 316 274 273
f 467 468 454
f 356 388 389
f 472 473 457
f 457 471 472
f 397 433 434
f 433 456 434
f 469 471 470
f 470 456 469
f 120 82 118
f 120 119 82
f 121 119 120
f 199 162 198
f 199 200 162
f 3 13 4
f 13 15 4
f 85 121 122
f 122 87 85
f 59 42 41
f 68 42 59
f 95 96 59
f 97 68 59
f 59 96 97
f 103 68 97
f 103 69 68
f 71 45 44
f 240 266 220
f 220 192 240
f 155 156 114
f 155 192 156
f 85 49 84
f 84 83 85
f 49 83 84
f 242 246 197
f 195 242 197
f 197 162 195
f 198 162 197
f 197 246 198
f 90 56 55
f 380 379 343
f 382 345 343
f 383 345 382
f 343 381 382
f 382 381 383
f 247 296 248
f 417 418 385
f 385 415 417
f 383 381 416
f 416 415 383
f 381 415 416
f 360 312 359
f 360 398 397
f 261 217 260
f 325 283 324
f 325 284 283
f 325 328 286
f 375 381 376
f 375 413 381
f 412 413 375
f 375 374 412
f 451 422 421
f 446 417 447
f 367 403 404
f 184 219 185
f 185 139 184
f 76 75 107
f 107 77 76
f 111 78 109
f 78 77 109
f 109 142 111
f 104 75 73
f 73 72 104
f 459 473 461
f 469 463 462
f 462 463 436
f 462 436 461
f 364 362 401
f 401 363 364
f 275 317 276
f 274 317 275
f 275 276 231
f 231 274 275
f 357 356 389
f 357 390 391
f 389 390 357
f 387 422 388
f 385 418 387
f 421 422 387
f 387 356 385
f 388 356 387
f 391 390 426
f 350 345 383
f 352 351 385
f 353 307 352
f 352 307 351
f 386 354 358
f 461 473 474
f 473 472 474
f 474 462 461
f 457 434 458
f 458 471 457
f 458 434 456
f 458 470 471
f 456 470 458
f 164 120 118
f 121 120 164
f 7 2 1
f 1 2 3
f 3 4 1
f 41 42 16
f 55 86 88
f 86 124 88
f 123 124 86
f 167 124 123
f 166 124 167
f 97 96 135
f 94 134 95
f 93 134 94
f 94 59 93
f 95 59 94
f 65 66 41
f 41 64 65
f 41 61 62
f 66 65 102
f 41 66 67
f 67 59 41
f 66 59 67
f 42 69 43
f 44 16 43
f 43 16 42
f 56 90 60
f 60 61 41
f 343 296 342
f 342 380 343
f 299 296 343
f 299 248 296
f 412 417 414
f 414 417 415
f 414 413 412
f 381 413 414
f 414 415 381
f 370 325 324
f 237 284 285
f 284 325 285
f 285 238 237
f 286 238 285
f 280 321 281
f 281 321 282
f 236 280 281
f 281 282 236
f 324 282 323
f 282 321 323
f 322 321 280
f 410 409 407
f 446 447 407
f 407 411 410
f 407 445 446
f 412 374 407
f 374 411 407
f 366 404 405
f 367 404 366
f 330 287 329
f 286 328 329
f 329 287 286
f 450 451 421
f 442 451 450
f 465 451 442
f 425 390 389
f 389 388 425
f 425 426 390
f 476 463 469
f 469 468 476
f 466 465 476
f 476 467 466
f 468 467 476
f 436 463 439
f 448 417 412
f 448 447 417
f 412 407 448
f 448 407 447
f 405 442 444
f 442 445 444
f 443 442 405
f 405 404 443
f 443 404 442
f 139 185 140
f 144 142 183
f 183 186 144
f 183 219 186
f 183 185 219
f 183 140 185
f 435 459 460
f 460 436 435
f 461 436 460
f 460 459 461
f 475 471 469
f 469 462 475
f 462 474 475
f 475 472 471
f 475 474 472
f 420 387 418
f 418 417 420
f 421 387 420
f 420 450 421
f 394 395 359
f 359 395 396
f 396 360 359
f 398 360 396
f 455 432 431
f 432 398 431
f 398 396 431
f 431 396 395
f 391 426 392
f 392 357 391
f 358 357 392
f 385 351 384
f 351 350 384
f 384 415 385
f 383 415 384
f 384 350 383
f 385 356 355
f 355 352 385
f 393 386 358
f 358 392 393
f 393 392 426
f 419 386 393
f 118 162 163
f 163 164 118
f 162 200 163
f 200 164 163
f 121 164 165
f 165 164 200
f 7 1 6
f 18 19 6
f 6 19 7
f 14 16 5
f 58 60 41
f 52 86 55
f 89 90 55
f 55 88 89
f 247 248 204
f 249 204 248
f 124 166 125
f 125 88 124
f 168 166 201
f 201 202 168
f 168 125 166
f 93 59 92
f 63 64 41
f 41 62 63
f 69 71 70
f 70 43 69
f 70 71 44
f 44 43 70
f 101 102 65
f 130 90 129
f 61 60 98
f 98 62 61
f 98 63 62
f 64 63 98
f 213 177 182
f 328 325 373
f 325 372 373
f 325 370 371
f 371 372 325
f 326 285 325
f 319 322 280
f 319 280 277
f 277 276 319
f 276 317 320
f 320 319 276
f 322 319 320
f 408 407 409
f 369 407 408
f 405 369 368
f 368 366 405
f 449 445 442
f 442 450 449
f 450 420 449
f 446 445 449
f 449 417 446
f 449 420 417
f 424 425 388
f 452 425 451
f 452 465 466
f 451 465 452
f 426 425 453
f 425 452 453
f 453 452 466
f 453 467 454
f 466 467 453
f 442 404 441
f 441 465 442
f 438 403 401
f 438 439 403
f 445 407 406
f 406 444 445
f 405 444 406
f 406 369 405
f 406 407 369
f 106 107 75
f 142 109 141
f 141 183 142
f 345 350 346
f 343 345 300
f 300 299 343
f 248 299 300
f 352 355 310
f 353 352 310
f 356 357 310
f 310 355 356
f 310 357 358
f 358 354 310
f 354 311 310
f 310 311 259
f 259 307 310
f 310 307 353
f 36 35 54
f 54 52 36
f 14 35 36
f 36 37 14
f 55 37 36
f 36 52 55
f 90 89 127
f 127 89 88
f 203 168 202
f 204 168 203
f 207 206 250
f 206 249 250
f 250 208 207
f 208 250 251
f 205 249 206
f 206 168 205
f 204 249 205
f 205 168 204
f 170 168 206
f 170 206 207
f 207 208 170
f 66 102 91
f 91 59 66
f 91 92 59
f 178 179 134
f 177 179 178
f 171 212 213
f 213 172 171
f 171 172 129
f 129 170 171
f 171 170 208
f 99 60 90
f 99 98 60
f 175 174 181
f 181 174 172
f 181 172 213
f 213 182 181
f 327 325 286
f 327 326 325
f 286 285 327
f 285 326 327
f 451 425 423
f 425 424 423
f 423 424 388
f 388 422 423
f 422 451 423
f 426 453 427
f 419 393 427
f 427 393 426
f 427 428 419
f 440 441 404
f 440 404 403
f 403 439 440
f 440 439 463
f 465 441 440
f 401 436 437
f 437 438 401
f 436 439 437
f 439 438 437
f 116 139 105
f 139 140 105
f 105 104 116
f 75 104 105
f 105 106 75
f 108 109 77
f 77 107 108
f 140 183 138
f 183 141 138
f 138 141 109
f 109 108 138
f 138 105 140
f 106 105 138
f 107 106 138
f 138 108 107
f 344 346 302
f 345 346 344
f 344 300 345
f 14 37 38
f 38 39 14
f 56 39 38
f 55 56 38
f 38 37 55
f 41 16 40
f 40 58 41
f 40 16 14
f 14 39 40
f 40 39 56
f 129 90 128
f 90 127 128
f 128 170 129
f 127 170 128
f 88 125 126
f 126 127 88
f 125 170 126
f 126 170 127
f 248 300 297
f 297 344 302
f 300 344 297
f 125 168 169
f 169 170 125
f 168 170 169
f 307 308 256
f 307 256 306
f 306 256 255
f 215 216 179
f 215 179 177
f 173 130 129
f 129 172 173
f 172 174 173
f 90 130 131
f 130 173 131
f 131 173 174
f 98 137 100
f 100 101 65
f 100 65 64
f 64 98 100
f 133 178 134
f 177 178 133
f 92 91 133
f 133 91 102
f 133 134 93
f 93 92 133
f 102 101 133
f 101 100 133
f 133 100 137
f 182 137 136
f 175 181 136
f 136 181 182
f 136 137 98
f 430 453 454
f 430 431 395
f 395 394 430
f 464 440 463
f 465 440 464
f 463 476 464
f 464 476 465
f 57 40 56
f 58 40 57
f 56 60 57
f 60 58 57
f 301 297 251
f 301 250 249
f 301 251 250
f 212 171 211
f 213 212 211
f 211 253 213
f 213 253 214
f 214 177 213
f 214 215 177
f 255 256 214
f 251 297 252
f 252 297 302
f 302 346 347
f 346 348 347
f 305 346 350
f 305 350 351
f 305 306 255
f 351 307 305
f 307 306 305
f 259 216 258
f 216 215 258
f 177 133 176
f 176 133 137
f 176 182 177
f 176 137 182
f 175 136 132
f 98 99 132
f 132 136 98
f 132 174 175
f 132 131 174
f 132 99 90
f 90 131 132
f 429 427 453
f 453 430 429
f 429 430 394
f 394 428 429
f 428 427 429
f 298 249 248
f 298 301 249
f 248 297 298
f 297 301 298
f 255 214 254
f 254 214 253
f 253 252 254
f 210 252 253
f 253 211 210
f 251 252 210
f 210 211 171
f 349 348 346
f 346 305 349
f 259 258 309
f 309 307 259
f 309 308 307
f 257 256 308
f 257 214 256
f 308 309 257
f 257 309 258
f 215 214 257
f 257 258 215
f 303 254 252
f 303 347 348
f 303 252 302
f 302 347 303
f 208 251 209
f 251 210 209
f 209 171 208
f 209 210 171
f 255 254 304
f 304 305 255
f 304 349 305
f 254 303 304
f 348 349 304
f 304 303 348
f 191 148 147
f 147 148 113
f 110 158 117
f 117 81 110
f 110 27 47
f 110 194 160
f 23 27 110
f 47 78 110
f 243 241 110
f 110 244 243
f 333 335 110
f 110 148 191
f 110 289 333
f 160 159 110
f 31 30 110
f 110 24 23
f 26 25 110
f 110 295 244
f 191 239 110
f 151 150 110
f 110 159 158
f 241 194 110
f 110 152 151
f 110 30 26
f 81 51 110
f 110 50 31
f 110 239 290
f 110 149 148
f 154 153 110
f 110 143 154
f 110 25 24
f 51 50 110
f 335 295 110
f 290 289 110
f 110 150 149
f 153 152 110
f 315 361 362
f 362 316 315
f 247 246 296
f 296 246 291
f 340 339 378
f 340 378 379
f 378 339 338
f 338 377 378
f 338 330 376
f 376 377 338
f 380 340 379
f 341 340 380
f 104 72 80
f 80 116 104
f 459 268 313
f 113 146 459
f 313 263 459
f 459 147 113
f 397 434 459
f 146 188 459
f 188 224 459
f 459 361 315
f 224 269 459
f 189 147 459
f 459 225 189
f 315 271 459
f 435 399 459
f 261 260 459
f 270 225 459
f 459 269 268
f 459 263 261
f 459 271 270
f 459 399 361
f 457 473 459
f 459 360 397
f 459 434 457
f 312 360 459
f 459 260 312
f 316 362 364
f 318 316 364
f 364 317 318
f 363 317 364
f 123 53 87
f 86 53 123
f 87 122 123
f 123 122 167
f 167 122 166
f 166 122 121
f 135 114 79
f 21 20 135
f 79 47 135
f 135 19 18
f 47 27 135
f 135 27 21
f 266 240 135
f 18 46 135
f 135 155 114
f 218 262 135
f 135 20 19
f 135 46 45
f 262 266 135
f 135 103 97
f 45 71 135
f 135 180 218
f 69 103 135
f 135 71 69
f 135 240 192
f 192 155 135
f 342 296 291
f 291 334 342
f 341 380 342
f 342 334 341
f 321 322 366
f 366 322 367
f 376 330 329
f 329 375 376
f 328 374 329
f 374 375 329
f 165 166 121
f 201 166 165
f 200 202 165
f 165 202 201
f 6 46 18
f 6 17 46
f 17 6 5
f 5 6 1
f 4 14 5
f 5 1 4
f 44 17 5
f 5 16 44
f 35 14 4
f 35 4 15
f 15 34 35
f 34 54 35
f 52 53 86
f 33 53 52
f 52 54 34
f 52 34 33
f 204 246 247
f 198 246 204
f 373 374 328
f 373 411 374
f 410 411 373
f 373 372 410
f 410 372 371
f 371 409 410
f 320 317 363
f 320 363 365
f 367 322 320
f 365 367 320
f 409 371 408
f 408 371 370
f 324 369 408
f 408 370 324
f 368 369 324
f 324 323 368
f 321 366 368
f 368 323 321
f 203 202 200
f 200 199 203
f 198 204 203
f 203 199 198
f 217 180 216
f 216 394 359
f 216 96 95
f 312 260 216
f 359 312 216
f 180 135 216
f 259 311 216
f 216 386 419
f 95 134 216
f 216 260 217
f 216 311 354
f 354 386 216
f 216 135 96
f 419 428 216
f 134 179 216
f 216 428 394
f 455 431 430
f 430 454 455
