v 0.015797 -0.005942 0.016976
v 0.015797 -0.006072 0.008518
v 0.015434 -0.005948 0.016976
v 0.016297 -0.005975 0.016976
v 0.015478 -0.006089 0.008518
v 0.015297 -0.005953 0.016976
v 0.015980 -0.006099 0.008518
v 0.016757 -0.006087 0.016976
v 0.016297 -0.006148 0.008518
v 0.015297 -0.006099 0.008518
v 0.014937 -0.005998 0.016976
v 0.016881 -0.006337 0.008518
v 0.016631 -0.006237 0.008518
v 0.017744 -0.006590 0.016976
v 0.017298 -0.006544 0.008518
v 0.015020 -0.006168 0.008518
v 0.014861 -0.006208 0.008518
v 0.014503 -0.006118 0.016976
v 0.018715 -0.007108 0.016976
v 0.017625 -0.006725 0.008518
v 0.014611 -0.006293 0.008518
v 0.014346 -0.006195 0.016976
v 0.018730 -0.007346 0.008518
v 0.017876 -0.006866 0.008518
v 0.022231 -0.009099 0.016976
v 0.025302 -0.011042 0.008518
v 0.024686 -0.010696 0.008518
v 0.014296 -0.006462 0.008518
v 0.013952 -0.006689 0.008518
v 0.013850 -0.006580 0.016976
v 0.023184 -0.009640 0.016976
v 0.025740 -0.011094 0.016976
v 0.025623 -0.011228 0.008518
v 0.013702 -0.006931 0.008518
v 0.013772 -0.006656 0.016976
v 0.026283 -0.011551 0.016976
v 0.026202 -0.011644 0.008518
v 0.025993 -0.011485 0.008518
v 0.025873 -0.011395 0.008518
v 0.025782 -0.011333 0.008518
v 0.013477 -0.007181 0.008518
v 0.013362 -0.007078 0.016976
v 0.013433 -0.007000 0.016976
v 0.026756 -0.012049 0.016976
v 0.026453 -0.011884 0.008518
v 0.026362 -0.011796 0.008518
v 0.013269 -0.007520 0.008518
v 0.013293 -0.007184 0.016976
v 0.026870 -0.012522 0.008518
v 0.026652 -0.012134 0.008518
v 0.026526 -0.011975 0.008518
v 0.027249 -0.013005 0.016976
v 0.013088 -0.007921 0.008518
v 0.012878 -0.007962 0.016976
v 0.027020 -0.012878 0.008518
v 0.027321 -0.013400 0.016976
v 0.027093 -0.013129 0.008518
v 0.027047 -0.012970 0.008518
v 0.013045 -0.008080 0.008518
v 0.012858 -0.008023 0.016976
v 0.027343 -0.013522 0.016976
v 0.027129 -0.013379 0.008518
v 0.013020 -0.008171 0.008518
v 0.012838 -0.008122 0.016976
v 0.027340 -0.013882 0.016976
v 0.027149 -0.013522 0.008518
v 0.012965 -0.008520 0.008518
v 0.012762 -0.008520 0.016976
v 0.027336 -0.014023 0.016976
v 0.027133 -0.014023 0.008518
v 0.012949 -0.009021 0.008518
v 0.012758 -0.008661 0.016976
v 0.027260 -0.014421 0.016976
v 0.027077 -0.014372 0.008518
v 0.012755 -0.009021 0.016976
v 0.012969 -0.009164 0.008518
v 0.027240 -0.014520 0.016976
v 0.027053 -0.014463 0.008518
v 0.012776 -0.009143 0.016976
v 0.013005 -0.009414 0.008518
v 0.027220 -0.014581 0.016976
v 0.027010 -0.014622 0.008518
v 0.012849 -0.009538 0.016976
v 0.013050 -0.009573 0.008518
v 0.026804 -0.015359 0.016976
v 0.026829 -0.015023 0.008518
v 0.013342 -0.010494 0.016976
v 0.013078 -0.009665 0.008518
v 0.013227 -0.010021 0.008518
v 0.026736 -0.015465 0.016976
v 0.026620 -0.015362 0.008518
v 0.013446 -0.010409 0.008518
v 0.013572 -0.010568 0.008518
v 0.013645 -0.010659 0.008518
v 0.013814 -0.010992 0.016976
v 0.026664 -0.015543 0.016976
v 0.026396 -0.015612 0.008518
v 0.013736 -0.010747 0.008518
v 0.014357 -0.011449 0.016976
v 0.013896 -0.010899 0.008518
v 0.026326 -0.015887 0.016976
v 0.026247 -0.015963 0.016976
v 0.026146 -0.015854 0.008518
v 0.016914 -0.012904 0.016976
v 0.014104 -0.011058 0.008518
v 0.014224 -0.011148 0.008518
v 0.014316 -0.011210 0.008518
v 0.014474 -0.011315 0.008518
v 0.014796 -0.011501 0.008518
v 0.025752 -0.016348 0.016976
v 0.025802 -0.016081 0.008518
v 0.017866 -0.013444 0.016976
v 0.015411 -0.011848 0.008518
v 0.021383 -0.015435 0.016976
v 0.025595 -0.016425 0.016976
v 0.025486 -0.016250 0.008518
v 0.021367 -0.015197 0.008518
v 0.022221 -0.015677 0.008518
v 0.022472 -0.015818 0.008518
v 0.022800 -0.015999 0.008518
v 0.022354 -0.015954 0.016976
v 0.025160 -0.016545 0.016976
v 0.025236 -0.016335 0.008518
v 0.023217 -0.016206 0.008518
v 0.023341 -0.016456 0.016976
v 0.024801 -0.016590 0.016976
v 0.024801 -0.016444 0.008518
v 0.025078 -0.016375 0.008518
v 0.023467 -0.016306 0.008518
v 0.023801 -0.016395 0.008518
v 0.023801 -0.016568 0.016976
v 0.024663 -0.016595 0.016976
v 0.024301 -0.016471 0.008518
v 0.024619 -0.016454 0.008518
v 0.024118 -0.016444 0.008518
v 0.024301 -0.016602 0.016976
f 4 2 1
f 15 8 14
f 19 15 14
f 32 36 37
f 1 2 3
f 2 6 3
f 2 4 7
f 26 19 25
f 45 36 44
f 48 47 54
f 54 47 53
f 53 60 54
f 22 29 30
f 35 30 34
f 34 30 29
f 21 22 18
f 99 95 100
f 9 4 8
f 9 7 4
f 32 26 31
f 26 25 31
f 27 19 26
f 27 23 19
f 15 19 20
f 33 26 32
f 32 40 33
f 39 40 32
f 46 37 36
f 36 45 46
f 51 44 50
f 51 45 44
f 127 122 126
f 122 123 115
f 103 102 110
f 86 85 91
f 61 57 56
f 56 57 52
f 61 66 62
f 62 57 61
f 44 52 49
f 50 44 49
f 64 63 68
f 64 60 63
f 63 60 59
f 60 53 59
f 72 71 75
f 68 71 72
f 68 63 67
f 67 71 68
f 35 34 43
f 43 34 42
f 42 34 41
f 41 48 42
f 47 48 41
f 28 29 22
f 22 21 28
f 18 11 17
f 17 21 18
f 94 95 87
f 99 108 109
f 114 112 109
f 121 120 125
f 114 120 121
f 129 125 124
f 125 120 124
f 13 9 8
f 19 23 24
f 24 20 19
f 32 37 38
f 38 39 32
f 128 123 122
f 122 127 128
f 133 136 131
f 110 115 116
f 116 115 123
f 85 86 81
f 65 66 61
f 65 69 66
f 91 85 90
f 97 90 96
f 91 90 97
f 102 103 97
f 55 49 52
f 75 80 79
f 79 80 83
f 75 71 76
f 76 80 75
f 87 83 89
f 92 87 89
f 11 6 10
f 98 100 95
f 95 94 98
f 93 87 92
f 93 94 87
f 107 108 99
f 99 106 107
f 99 100 105
f 105 106 99
f 99 109 104
f 104 109 112
f 8 15 12
f 12 13 8
f 132 133 126
f 136 133 132
f 134 127 126
f 126 133 134
f 130 131 125
f 130 125 129
f 111 103 110
f 110 116 111
f 77 74 73
f 73 74 69
f 66 69 70
f 69 74 70
f 77 81 82
f 82 81 86
f 102 97 101
f 101 97 96
f 52 57 58
f 58 55 52
f 88 89 83
f 16 17 11
f 11 10 16
f 5 6 2
f 5 10 6
f 119 120 114
f 114 109 113
f 113 117 114
f 135 133 131
f 131 130 135
f 78 74 77
f 77 82 78
f 83 80 84
f 84 88 83
f 114 117 118
f 118 119 114
f 32 31 101
f 35 43 101
f 1 3 101
f 101 64 68
f 54 60 101
f 101 72 75
f 101 36 32
f 101 4 1
f 99 104 101
f 101 95 99
f 101 11 18
f 18 22 101
f 14 8 101
f 101 65 61
f 125 131 101
f 101 48 54
f 101 90 85
f 101 6 11
f 8 4 101
f 101 52 44
f 44 36 101
f 101 19 14
f 75 79 101
f 126 122 101
f 101 115 110
f 110 102 101
f 101 83 87
f 87 95 101
f 101 30 35
f 101 3 6
f 101 25 19
f 131 136 101
f 101 121 125
f 85 81 101
f 42 48 101
f 61 56 101
f 22 30 101
f 101 112 114
f 101 31 25
f 122 115 101
f 101 132 126
f 77 73 101
f 101 56 52
f 60 64 101
f 68 72 101
f 101 43 42
f 114 121 101
f 101 81 77
f 69 65 101
f 96 90 101
f 101 79 83
f 101 104 112
f 136 132 101
f 101 73 69
f 118 53 47
f 37 46 118
f 92 89 118
f 118 76 71
f 15 20 118
f 118 51 50
f 29 28 118
f 2 7 118
f 129 124 118
f 103 111 118
f 118 62 66
f 118 67 63
f 118 109 108
f 118 27 26
f 26 33 118
f 118 24 23
f 123 128 118
f 118 86 91
f 50 49 118
f 63 59 118
f 118 34 29
f 47 41 118
f 100 98 118
f 118 93 92
f 7 9 118
f 23 27 118
f 118 5 2
f 118 33 40
f 40 39 118
f 118 46 45
f 45 51 118
f 118 38 37
f 127 134 118
f 118 116 123
f 57 62 118
f 91 97 118
f 118 59 53
f 71 67 118
f 118 82 86
f 118 41 34
f 118 28 21
f 21 17 118
f 17 16 118
f 108 107 118
f 118 105 100
f 118 124 120
f 9 13 118
f 20 24 118
f 39 38 118
f 118 128 127
f 118 12 15
f 118 130 129
f 66 70 118
f 118 97 103
f 49 55 118
f 80 76 118
f 118 58 57
f 74 78 118
f 118 98 94
f 94 93 118
f 118 107 106
f 106 105 118
f 120 119 118
f 13 12 118
f 118 134 133
f 118 113 109
f 118 111 116
f 118 70 74
f 133 135 118
f 55 58 118
f 89 88 118
f 118 16 10
f 10 5 118
f 118 84 80
f 117 113 118
f 118 135 130
f 118 78 82
f 88 84 118
