v -0.014947 0.005850 0.004781
v -0.014689 0.005848 0.004617
v -0.014947 0.005850 0.004287
v -0.015215 0.005850 0.004781
v -0.014947 -0.004152 0.004781
v -0.002621 0.005157 0.004617
v -0.002672 0.005160 0.004617
v -0.014689 0.005848 0.004600
v -0.014716 0.005848 0.004287
v -0.015215 0.005850 0.004287
v -0.017004 0.005427 0.004781
v -0.002621 -0.004858 0.004617
v -0.015261 -0.004133 0.004781
v -0.014947 -0.004152 0.004600
v -0.002621 0.005157 0.004600
v -0.002621 0.004859 0.004300
v -0.014619 0.005835 0.004287
v -0.017004 0.005427 0.004287
v -0.018357 0.004496 0.004781
v -0.002621 -0.004858 0.004600
v -0.015276 -0.004132 0.004781
v -0.015261 -0.004133 0.004600
v -0.015282 -0.004131 0.004287
v -0.002621 -0.004557 0.004300
v -0.010025 0.001556 0.004287
v -0.010611 0.003297 0.004287
v -0.011786 0.004708 0.004287
v -0.012999 0.005449 0.004287
v -0.013004 0.005452 0.004287
v -0.013393 0.005600 0.004287
v -0.018517 0.004385 0.004287
v -0.018517 0.004385 0.004781
v -0.015657 -0.004095 0.004781
v -0.015657 -0.004095 0.004287
v -0.014947 -0.004102 0.004287
v -0.012140 -0.003262 0.004287
v -0.010846 -0.001960 0.004287
v -0.010844 -0.001957 0.004287
v -0.010107 -0.000277 0.004287
v -0.013821 -0.004007 0.004287
v -0.013541 -0.003931 0.004287
v -0.018991 0.003692 0.004287
v -0.019551 0.002868 0.004781
v -0.017399 -0.003514 0.004781
v -0.017399 -0.003514 0.004287
v -0.019551 0.002868 0.004287
v -0.019971 0.001078 0.004781
v -0.018816 -0.002342 0.004781
v -0.018816 -0.002342 0.004287
v -0.019971 0.001078 0.004287
v -0.019712 -0.000738 0.004781
v -0.019030 -0.002031 0.004781
v -0.019055 -0.001994 0.004287
v -0.019712 -0.000738 0.004287
v -0.019560 -0.001084 0.004781
v -0.019541 -0.001124 0.004287
f 3 8 9
f 16 9 15
f 7 1 6
f 7 2 1
f 8 2 7
f 6 15 7
f 7 9 8
f 7 15 9
f 53 49 48
f 16 26 27
f 25 26 16
f 16 24 25
f 25 24 39
f 55 56 53
f 55 51 54
f 54 56 55
f 34 21 33
f 46 43 42
f 31 42 32
f 32 42 43
f 13 21 22
f 52 53 48
f 52 55 53
f 16 29 30
f 16 27 28
f 28 29 16
f 39 24 38
f 24 37 38
f 24 41 36
f 36 37 24
f 23 14 22
f 22 21 23
f 21 34 23
f 20 14 23
f 23 24 20
f 18 31 19
f 19 11 18
f 31 32 19
f 17 9 16
f 16 30 17
f 40 41 24
f 24 23 35
f 35 40 24
f 6 1 5
f 5 12 6
f 3 1 2
f 2 8 3
f 12 5 14
f 14 20 12
f 47 43 50
f 50 43 46
f 49 44 48
f 45 44 49
f 51 50 54
f 47 50 51
f 6 12 24
f 12 20 24
f 24 15 6
f 16 15 24
f 34 44 45
f 34 33 44
f 4 1 3
f 3 10 4
f 4 10 18
f 18 11 4
f 13 14 5
f 22 14 13
f 19 5 1
f 19 43 47
f 47 51 19
f 19 13 5
f 48 44 19
f 19 32 43
f 1 4 19
f 44 33 19
f 33 21 19
f 51 55 19
f 19 4 11
f 19 52 48
f 21 13 19
f 55 52 19
f 3 9 35
f 35 50 46
f 35 28 27
f 35 25 39
f 45 49 35
f 54 50 35
f 35 10 3
f 35 34 45
f 35 56 54
f 49 53 35
f 35 27 26
f 26 25 35
f 46 42 35
f 18 10 35
f 35 31 18
f 53 56 35
f 9 17 35
f 39 38 35
f 35 36 41
f 35 42 31
f 35 30 29
f 29 28 35
f 35 38 37
f 37 36 35
f 35 23 34
f 35 17 30
f 41 40 35
