v -0.000197 -0.002121 0.002530
v -0.000513 -0.002069 0.002530
v 0.000269 -0.002117 0.002530
v 0.000045 -0.001767 0.008516
v 0.000023 -0.001767 0.008516
v -0.000135 -0.001747 0.008516
v -0.000227 -0.001736 0.008516
v -0.001187 -0.001745 0.002530
v -0.000404 -0.001683 0.008516
v -0.000714 -0.001590 0.008516
v 0.000744 -0.001951 0.002530
v 0.000295 -0.001720 0.008516
v -0.001449 -0.001522 0.002530
v -0.001090 -0.001369 0.008516
v 0.001281 -0.001567 0.002530
v 0.001124 -0.001340 0.008516
v 0.001001 -0.001415 0.008516
v 0.000787 -0.001544 0.008516
v 0.000608 -0.001608 0.008516
v -0.001685 -0.001290 0.002530
v -0.001340 -0.001107 0.008516
v 0.001487 -0.001355 0.002530
v 0.001215 -0.001240 0.008516
v 0.001811 -0.001001 0.002530
v -0.002030 -0.000526 0.002530
v -0.001406 -0.001016 0.008516
v -0.001521 -0.000857 0.008516
v 0.001374 -0.001064 0.008516
v 0.001952 -0.000545 0.002530
v 0.001673 -0.000515 0.008516
v 0.001567 -0.000814 0.008516
v 0.001497 -0.000905 0.008516
v -0.002049 -0.000015 0.002530
v -0.001659 -0.000515 0.008516
v -0.001748 -0.000015 0.008516
v 0.002084 -0.000029 0.002530
v 0.001745 -0.000015 0.008516
v -0.002001 0.000392 0.002530
v -0.001681 0.000485 0.008516
v 0.001904 0.000783 0.002530
v 0.001666 0.000485 0.008516
v 0.001716 0.000167 0.008516
v -0.001809 0.000984 0.002530
v -0.001535 0.000851 0.008516
v 0.001733 0.001228 0.002530
v 0.001564 0.000782 0.008516
v -0.001579 0.001340 0.002530
v -0.001468 0.000942 0.008516
v 0.001491 0.001475 0.002530
v 0.001140 0.001326 0.008516
v 0.001390 0.001032 0.008516
v 0.001454 0.000941 0.008516
v -0.001562 0.001358 0.002530
v -0.001350 0.001101 0.008516
v 0.001252 0.001688 0.002530
v 0.000787 0.001552 0.008516
v -0.001297 0.001604 0.002530
v -0.001191 0.001259 0.008516
v -0.001099 0.001349 0.008516
v 0.000599 0.002038 0.002530
v 0.000526 0.001654 0.008516
v -0.000714 0.001961 0.002530
v -0.000714 0.001577 0.008516
v 0.000282 0.002096 0.002530
v 0.000376 0.001712 0.008516
v -0.000208 0.002096 0.002530
v -0.000301 0.001714 0.008516
v 0.000126 0.001748 0.008516
v 0.000285 0.001725 0.008516
v -0.000051 0.001748 0.008516
f 45 49 50
f 66 62 67
f 67 70 66
f 4 1 3
f 16 11 15
f 53 47 54
f 25 34 35
f 25 35 33
f 27 34 25
f 25 20 27
f 38 39 43
f 35 39 38
f 33 35 38
f 43 39 44
f 47 43 44
f 50 49 55
f 64 65 60
f 63 67 62
f 40 41 36
f 46 40 45
f 41 40 46
f 22 16 15
f 24 16 22
f 54 47 48
f 47 44 48
f 20 14 21
f 7 2 1
f 10 14 8
f 8 2 10
f 56 55 60
f 50 55 56
f 68 64 66
f 66 70 68
f 62 57 59
f 59 63 62
f 57 53 59
f 36 37 30
f 30 29 36
f 24 29 30
f 31 24 30
f 36 41 42
f 42 37 36
f 51 45 50
f 11 16 17
f 17 18 11
f 12 3 11
f 4 3 12
f 32 24 31
f 32 28 24
f 23 16 24
f 24 28 23
f 27 20 26
f 20 21 26
f 10 2 9
f 2 7 9
f 5 1 4
f 13 14 20
f 13 8 14
f 60 65 61
f 61 56 60
f 65 64 69
f 64 68 69
f 58 53 54
f 58 59 53
f 52 46 45
f 45 51 52
f 11 18 19
f 19 12 11
f 6 7 1
f 1 5 6
f 47 53 13
f 13 62 66
f 13 55 49
f 13 25 33
f 13 3 1
f 13 43 47
f 13 40 36
f 33 38 13
f 66 64 13
f 15 11 13
f 13 57 62
f 49 45 13
f 1 2 13
f 36 29 13
f 11 3 13
f 13 53 57
f 20 25 13
f 13 38 43
f 13 22 15
f 60 55 13
f 13 64 60
f 45 40 13
f 13 29 24
f 24 22 13
f 2 8 13
f 16 23 6
f 6 42 41
f 6 34 27
f 65 69 6
f 54 48 6
f 10 9 6
f 35 34 6
f 6 39 35
f 4 12 6
f 70 67 6
f 6 68 70
f 6 17 16
f 6 44 39
f 6 14 10
f 50 56 6
f 67 63 6
f 31 30 6
f 41 46 6
f 6 51 50
f 6 32 31
f 6 48 44
f 6 21 14
f 27 26 6
f 6 5 4
f 6 61 65
f 63 59 6
f 6 30 37
f 37 42 6
f 6 58 54
f 18 17 6
f 46 52 6
f 28 32 6
f 6 23 28
f 6 26 21
f 6 9 7
f 6 19 18
f 56 61 6
f 6 69 68
f 59 58 6
f 6 52 51
f 12 19 6
