v -0.000213 0.005227 0.001195
v -0.000213 0.005201 0.001695
v 0.000792 0.005182 0.001195
v -0.000213 0.005227 0.000695
v -0.000712 0.005188 0.001195
v -0.000213 0.004955 0.002145
v 0.000287 0.004942 0.002141
v 0.000792 0.004930 0.002132
v 0.000287 0.005178 0.001695
v -0.000712 0.005162 0.001695
v -0.000712 0.004936 0.002133
v 0.000792 0.005152 0.001695
v 0.001291 0.005078 0.001195
v 0.000792 0.005182 0.000695
v -0.000213 0.005198 0.000194
v -0.000712 0.005188 0.000695
v -0.001212 0.005072 0.001195
v -0.000213 0.004487 0.002360
v 0.000287 0.004487 0.002356
v 0.000792 0.004487 0.002347
v -0.000712 0.004487 0.002348
v 0.001291 0.004487 0.002302
v 0.001291 0.004875 0.002087
v -0.001212 0.005039 0.001695
v -0.002018 0.004762 0.001975
v -0.001711 0.004804 0.002024
v -0.001212 0.004871 0.002088
v -0.001711 0.004487 0.002238
v -0.001212 0.004487 0.002303
v 0.001291 0.005046 0.001695
v 0.001291 0.005078 0.000695
v 0.001791 0.004868 0.001695
v 0.002097 0.004758 0.001695
v 0.001791 0.004897 0.001195
v 0.000792 0.005149 0.000194
v 0.000287 0.005175 0.000194
v 0.000792 0.004926 -0.000236
v 0.000287 0.004939 -0.000246
v -0.000213 0.004952 -0.000250
v -0.000712 0.004930 -0.000238
v -0.000712 0.005156 0.000194
v -0.001212 0.005072 0.000695
v -0.001711 0.004933 0.001195
v -0.001711 0.003986 0.002374
v -0.000208 0.002094 0.002530
v 0.000282 0.002094 0.002530
v 0.000604 0.002039 0.002530
v 0.001791 0.003986 0.002371
v 0.002290 0.003986 0.002339
v -0.002211 0.003986 0.002338
v 0.001791 0.004487 0.002215
v 0.002251 0.004497 0.002093
v 0.001791 0.004787 0.002003
v -0.001711 0.004901 0.001695
v -0.002073 0.004787 0.001695
v -0.002325 0.004661 0.001695
v -0.002963 0.004235 0.001946
v -0.002711 0.004316 0.002017
v -0.002196 0.004500 0.002106
v -0.002711 0.003986 0.002222
v 0.002058 0.004742 0.001954
v 0.001291 0.005043 0.000194
v 0.001791 0.004897 0.000695
v 0.002093 0.004755 0.000194
v 0.002132 0.004771 0.001195
v 0.002350 0.004658 0.001695
v 0.002379 0.004674 0.001195
v 0.001291 0.004871 -0.000192
v 0.000792 0.004487 -0.000446
v 0.001291 0.004487 -0.000401
v 0.000287 0.004487 -0.000455
v -0.000213 0.004487 -0.000460
v -0.000712 0.004487 -0.000447
v -0.001212 0.004487 -0.000403
v -0.001711 0.004487 -0.000338
v -0.001212 0.004868 -0.000193
v -0.001711 0.004800 -0.000130
v -0.002013 0.004758 -0.000083
v -0.001212 0.005036 0.000194
v -0.001711 0.004933 0.000695
v -0.002102 0.004800 0.001195
v -0.001296 0.001603 0.002530
v -0.000712 0.001958 0.002530
v -0.002711 0.003486 0.002365
v 0.017120 -0.006029 0.002530
v 0.002790 0.003486 0.002371
v 0.003789 0.002985 0.002366
v 0.004793 0.002485 0.002358
v 0.005793 0.001984 0.002348
v 0.003290 0.003486 0.002326
v 0.002790 0.003986 0.002246
v -0.003215 0.003486 0.002286
v 0.002790 0.004326 0.002035
v -0.002350 0.004678 0.001195
v -0.002711 0.004455 0.001195
v -0.002711 0.004422 0.001695
v -0.002983 0.004248 0.001695
v -0.003235 0.004077 0.001695
v -0.003557 0.003825 0.001695
v -0.003512 0.003783 0.001994
v -0.003161 0.003964 0.002052
v 0.003072 0.004255 0.001965
v 0.002053 0.004742 -0.000061
v 0.002132 0.004771 0.000695
v 0.002379 0.004674 0.000695
v 0.002345 0.004655 0.000194
v 0.002790 0.004445 0.001695
v 0.002790 0.004477 0.001195
v 0.001791 0.004784 -0.000109
v 0.002246 0.004497 -0.000198
v 0.001791 0.004487 -0.000315
v 0.002290 0.003986 -0.000438
v 0.001791 0.003986 -0.000471
v -0.001212 0.003986 -0.000475
v -0.001711 0.003986 -0.000474
v 0.001291 0.003986 -0.000475
v -0.002211 0.003986 -0.000438
v -0.002191 0.004497 -0.000210
v -0.002627 0.004339 -0.000148
v -0.002958 0.004235 -0.000040
v -0.002320 0.004658 0.000194
v -0.002068 0.004784 0.000194
v -0.001711 0.004897 0.000194
v -0.002102 0.004800 0.000695
v -0.003215 0.002985 0.002368
v -0.001558 0.001357 0.002530
v 0.018090 -0.006546 0.002530
v 0.019307 -0.007221 0.002530
v 0.008296 0.000485 0.002363
v 0.017298 -0.004518 0.002354
v 0.009295 -0.000015 0.002354
v 0.036808 -0.015522 0.002360
v 0.018303 -0.005018 0.002342
v 0.010294 -0.000516 0.002342
v 0.006792 0.001483 0.002334
v 0.034305 -0.014020 0.002343
v 0.004294 0.002985 0.002308
v 0.011298 -0.001017 0.002327
v 0.007796 0.000983 0.002318
v 0.004294 0.003408 0.002093
v 0.003260 0.003986 0.002090
v 0.005293 0.002485 0.002286
v 0.006292 0.001984 0.002261
v 0.018802 -0.005018 0.002248
v 0.015300 -0.003019 0.002232
v 0.019801 -0.005519 0.002215
v -0.003695 0.003450 0.002067
v -0.003715 0.002985 0.002257
v -0.003715 0.002485 0.002356
v 0.005293 0.002875 0.002072
v -0.002350 0.004678 0.000695
v -0.002711 0.004455 0.000695
v -0.003002 0.004261 0.001195
v -0.003250 0.004093 0.001195
v -0.003576 0.003844 0.001195
v -0.003809 0.003544 0.001695
v -0.003982 0.003263 0.001966
v 0.007559 0.001742 0.001955
v 0.004037 0.003735 0.001933
v 0.003112 0.004274 0.001695
v 0.015567 -0.002758 0.001956
v 0.002790 0.004442 0.000194
v 0.003067 0.004251 -0.000072
v 0.002790 0.004322 -0.000140
v 0.002790 0.004477 0.000695
v 0.003136 0.004290 0.001195
v 0.002790 0.003986 -0.000345
v 0.003290 0.003486 -0.000426
v 0.005793 0.001984 -0.000448
v 0.004793 0.002485 -0.000458
v 0.003789 0.002985 -0.000465
v 0.002790 0.003486 -0.000471
v 0.004294 0.002485 -0.000475
v -0.002211 0.003486 -0.000475
v -0.003215 0.002985 -0.000468
v -0.002711 0.003486 -0.000464
v -0.003215 0.003486 -0.000385
v -0.002760 0.004035 -0.000270
v -0.003215 0.003893 -0.000184
v -0.002760 0.004384 0.000154
v -0.003512 0.003780 -0.000101
v -0.003557 0.003825 0.000194
v -0.003181 0.004106 0.000154
v -0.002988 0.004255 0.000294
v -0.001805 0.000983 0.002530
v -0.001578 0.001338 0.002530
v 0.023788 -0.009741 0.002530
v 0.040310 -0.017525 0.002364
v 0.041309 -0.018025 0.002355
v 0.037807 -0.016023 0.002350
v 0.014800 -0.003019 0.002335
v 0.038806 -0.016523 0.002337
v 0.030803 -0.012021 0.002336
v 0.008795 0.000485 0.002298
v 0.036308 -0.015021 0.002311
v 0.019302 -0.005519 0.002328
v 0.035804 -0.014521 0.002218
v 0.032806 -0.012612 0.002085
v 0.041809 -0.017644 0.002064
v 0.009794 -0.000015 0.002274
v 0.030303 -0.011520 0.002264
v 0.038307 -0.016023 0.002265
v 0.034805 -0.014020 0.002250
v 0.039306 -0.016523 0.002235
v -0.004091 0.002985 0.002050
v -0.004254 0.002520 0.002146
v -0.004214 0.001984 0.002307
v -0.004214 0.001483 0.002358
v -0.003715 0.001984 0.002375
v 0.015300 -0.002690 0.002023
v 0.031302 -0.011688 0.002025
v -0.003002 0.004261 0.000695
v -0.003250 0.004093 0.000695
v -0.003576 0.003844 0.000695
v -0.003824 0.003563 0.001195
v -0.004467 0.002743 0.001503
v -0.004294 0.002940 0.001680
v -0.004452 0.002714 0.001836
v -0.004531 0.002378 0.002018
v 0.012045 -0.000768 0.001940
v 0.004066 0.003751 0.001599
v 0.036061 -0.014269 0.001947
v 0.003107 0.004274 0.000194
v 0.004032 0.003731 -0.000024
v 0.007554 0.001742 -0.000063
v 0.006292 0.002339 -0.000153
v 0.004294 0.003402 -0.000198
v 0.003255 0.003983 -0.000194
v 0.003136 0.004290 0.000695
v 0.008553 0.001238 0.001497
v 0.007613 0.001774 0.001195
v 0.005293 0.002485 -0.000385
v 0.004294 0.002985 -0.000408
v 0.015300 -0.003019 -0.000332
v 0.018802 -0.005018 -0.000348
v 0.009794 -0.000015 -0.000374
v 0.011298 -0.001017 -0.000426
v 0.006792 0.001483 -0.000434
v 0.009295 -0.000015 -0.000453
v 0.010294 -0.000516 -0.000441
v 0.018303 -0.005018 -0.000442
v 0.034305 -0.014020 -0.000443
v 0.008296 0.000485 -0.000462
v 0.017298 -0.004518 -0.000454
v 0.036808 -0.015522 -0.000459
v 0.011798 -0.001517 -0.000466
v 0.006292 0.001483 -0.000473
v 0.005293 0.001984 -0.000474
v 0.015300 -0.003520 -0.000469
v 0.018802 -0.005519 -0.000471
v 0.008795 -0.000015 -0.000475
v -0.003215 0.002485 -0.000475
v -0.003715 0.001984 -0.000475
v -0.003715 0.002485 -0.000456
v -0.003715 0.002985 -0.000357
v -0.003690 0.003450 -0.000171
v -0.003982 0.003256 -0.000073
v -0.003804 0.003541 0.000194
v -0.003824 0.003563 0.000695
v -0.004214 0.000983 0.002374
v -0.001998 0.000392 0.002530
v 0.025134 -0.010519 0.002530
v 0.026064 -0.011062 0.002530
v 0.041809 -0.018526 0.002374
v 0.042309 -0.018526 0.002342
v 0.039810 -0.017024 0.002320
v 0.035304 -0.014521 0.002329
v 0.032806 -0.013022 0.002300
v 0.037308 -0.015522 0.002290
v 0.040810 -0.017525 0.002301
v 0.040810 -0.017114 0.002086
v 0.042304 -0.018009 0.002116
v 0.042719 -0.018164 0.002046
v 0.042130 -0.017735 0.001987
v 0.039578 -0.016262 0.001958
v 0.041809 -0.018025 0.002278
v -0.004610 0.001984 0.002092
v -0.004744 0.001480 0.002123
v -0.004714 0.000983 0.002231
v -0.004714 0.000485 0.002261
v -0.004472 0.002746 0.001195
v -0.004605 0.002485 0.001195
v -0.004561 0.002520 0.001680
v -0.004788 0.001984 0.001695
v -0.004991 0.001312 0.001977
v 0.012075 -0.000752 0.001606
v 0.040543 -0.016782 0.001865
v 0.040572 -0.016766 0.001531
v 0.036081 -0.014256 0.001695
v 0.004066 0.003751 0.000309
v 0.036056 -0.014272 -0.000049
v 0.015562 -0.002761 -0.000063
v 0.015300 -0.002693 -0.000128
v 0.013297 -0.001630 -0.000178
v 0.008795 0.000886 -0.000188
v 0.034805 -0.013678 -0.000144
v 0.032806 -0.012615 -0.000190
v 0.012297 -0.001097 -0.000199
v 0.007613 0.001774 0.000695
v 0.008553 0.001238 0.000399
v 0.037050 -0.014776 0.001195
v 0.008795 0.000485 -0.000398
v 0.036308 -0.015021 -0.000410
v 0.031302 -0.012021 -0.000334
v 0.039306 -0.016523 -0.000335
v 0.034805 -0.014020 -0.000350
v 0.030303 -0.011520 -0.000363
v 0.037308 -0.015522 -0.000389
v 0.014800 -0.003019 -0.000435
v 0.039810 -0.017024 -0.000420
v 0.035304 -0.014521 -0.000428
v 0.030803 -0.012021 -0.000436
v 0.038806 -0.016523 -0.000436
v 0.037807 -0.016023 -0.000449
v 0.040310 -0.017525 -0.000463
v 0.035804 -0.015021 -0.000467
v 0.041309 -0.018025 -0.000455
v 0.034805 -0.014521 -0.000471
v 0.038307 -0.016523 -0.000473
v 0.033805 -0.014020 -0.000474
v 0.025802 -0.009521 -0.000474
v 0.029304 -0.011520 -0.000475
v 0.039306 -0.017024 -0.000469
v 0.040810 -0.018025 -0.000475
v -0.004214 0.000485 -0.000475
v -0.004214 0.000983 -0.000474
v -0.004214 0.001483 -0.000458
v -0.004214 0.001984 -0.000406
v -0.004254 0.002517 -0.000250
v -0.004091 0.002985 -0.000155
v -0.004007 0.003292 0.000194
v -0.004526 0.002375 -0.000125
v -0.004447 0.002707 0.000060
v -0.004467 0.002743 0.000394
v -0.004472 0.002746 0.000695
v -0.004214 0.000485 0.002375
v -0.002048 -0.000015 0.002530
v -0.004714 -0.000015 0.002271
v 0.041285 -0.020790 0.002530
v 0.043313 -0.019524 0.002369
v 0.042808 -0.019023 0.002359
v 0.043313 -0.019023 0.002265
v 0.042853 -0.018477 0.002165
v 0.043313 -0.018636 0.002056
v 0.043595 -0.018749 0.001971
v 0.043051 -0.018280 0.001894
v 0.042442 -0.017844 0.001695
v 0.042195 -0.017699 0.001695
v -0.005021 0.000983 0.002017
v -0.005045 0.000485 0.002046
v -0.005055 -0.000015 0.002056
v -0.004605 0.002485 0.000695
v -0.004823 0.001984 0.001195
v -0.004922 0.001635 0.001695
v -0.005016 0.001383 0.001695
v -0.005110 0.000983 0.001695
v 0.042472 -0.017825 0.001195
v 0.042220 -0.017683 0.001195
v 0.012075 -0.000752 0.000303
v 0.040572 -0.016766 0.000369
v 0.040538 -0.016785 0.000035
v 0.039573 -0.016265 -0.000066
v 0.031569 -0.011762 -0.000065
v 0.038608 -0.015745 -0.000085
v 0.039306 -0.016194 -0.000131
v 0.038307 -0.015664 -0.000157
v 0.040810 -0.017118 -0.000191
v 0.036308 -0.014602 -0.000201
v 0.037050 -0.014776 0.000695
v 0.016799 -0.004017 -0.000398
v 0.040810 -0.017525 -0.000401
v 0.042299 -0.018009 -0.000220
v 0.041809 -0.018025 -0.000378
v 0.038307 -0.016023 -0.000364
v 0.042309 -0.018526 -0.000442
v 0.041809 -0.018526 -0.000474
v 0.037308 -0.016023 -0.000475
v 0.042309 -0.019023 -0.000475
v -0.004214 -0.000516 -0.000475
v -0.004714 -0.000015 -0.000371
v -0.004714 0.000485 -0.000361
v -0.004714 0.000983 -0.000331
v -0.004739 0.001477 -0.000227
v -0.004605 0.001984 -0.000197
v -0.004289 0.002940 0.000214
v -0.004986 0.001306 -0.000085
v -0.004783 0.001984 0.000194
v -0.004556 0.002517 0.000214
v -0.004214 -0.000516 0.002375
v -0.002028 -0.000529 0.002530
v -0.004714 -0.000516 0.002267
v -0.004214 -0.001017 0.002373
v 0.041552 -0.021019 0.002530
v 0.043812 -0.020525 0.002375
v 0.044312 -0.021026 0.002360
v 0.043812 -0.020025 0.002352
v 0.043812 -0.019524 0.002256
v 0.041784 -0.021245 0.002530
v 0.043783 -0.019056 0.002056
v 0.044084 -0.019243 0.001968
v 0.043882 -0.018959 0.001695
v 0.043629 -0.018720 0.001695
v 0.043075 -0.018261 0.001560
v 0.042853 -0.018122 0.001714
v -0.005164 0.000485 0.001695
v -0.005184 -0.000015 0.001695
v -0.005055 -0.000516 0.002052
v -0.004823 0.001984 0.000695
v -0.005031 0.001419 0.001195
v -0.005144 0.000983 0.001195
v 0.042472 -0.017825 0.000695
v 0.042808 -0.018058 0.001195
v 0.042220 -0.017683 0.000695
v 0.042442 -0.017844 0.000194
v 0.042126 -0.017738 -0.000094
v 0.041809 -0.017651 -0.000169
v 0.042714 -0.018167 -0.000153
v 0.042853 -0.018481 -0.000268
v 0.043313 -0.019023 -0.000364
v 0.042808 -0.019023 -0.000458
v 0.043313 -0.019524 -0.000469
v 0.043313 -0.020025 -0.000475
v -0.003715 -0.002018 -0.000475
v -0.004214 -0.001017 -0.000473
v -0.004714 -0.000516 -0.000367
v -0.005050 -0.000516 -0.000158
v -0.005050 -0.000015 -0.000162
v -0.005045 0.000485 -0.000152
v -0.005021 0.000983 -0.000123
v -0.005110 0.000983 0.000194
v -0.005016 0.001380 0.000194
v -0.004922 0.001629 0.000194
v -0.004214 -0.001517 0.002360
v -0.001682 -0.001291 0.002530
v -0.004714 -0.001017 0.002221
v 0.042135 -0.022008 0.002530
v 0.044312 -0.021526 0.002373
v 0.044812 -0.022027 0.002267
v 0.044812 -0.021526 0.002221
v 0.044312 -0.020525 0.002307
v 0.044337 -0.020008 0.002140
v 0.044173 -0.019524 0.002047
v 0.044629 -0.020160 0.002015
v 0.044683 -0.020083 0.001695
v 0.044525 -0.019831 0.001695
v 0.044322 -0.019524 0.001695
v 0.044109 -0.019211 0.001695
v 0.043896 -0.018939 0.001195
v 0.043649 -0.018704 0.001195
v 0.043332 -0.018455 0.001195
v 0.043080 -0.018258 0.001195
v -0.005194 0.000485 0.001195
v -0.005214 -0.000015 0.001195
v -0.005214 -0.000516 0.001195
v -0.005179 -0.000516 0.001695
v -0.005016 -0.001017 0.002008
v -0.005031 0.001419 0.000695
v -0.005144 0.000983 0.000695
v 0.042808 -0.018058 0.000695
v 0.043075 -0.018261 0.000343
v 0.042853 -0.018125 0.000184
v 0.043046 -0.018284 0.000010
v 0.043590 -0.018752 -0.000078
v 0.043313 -0.018639 -0.000161
v 0.043778 -0.019059 -0.000160
v 0.043812 -0.019524 -0.000355
v 0.043812 -0.020025 -0.000451
v 0.044312 -0.021026 -0.000459
v 0.043812 -0.020525 -0.000475
v -0.004214 -0.001517 -0.000459
v -0.003215 -0.002519 -0.000475
v -0.003215 -0.003019 -0.000469
v -0.004714 -0.001017 -0.000322
v -0.005174 -0.000516 0.000194
v -0.005179 -0.000015 0.000194
v -0.005011 -0.001017 -0.000114
v -0.005159 0.000485 0.000194
v -0.004214 -0.002018 0.002307
v -0.003715 -0.002519 0.002352
v -0.003215 -0.003019 0.002369
v -0.003715 -0.002018 0.002375
v -0.001444 -0.001524 0.002530
v -0.004615 -0.002018 0.002092
v -0.004744 -0.001501 0.002116
v 0.042135 -0.022528 0.002530
v 0.044312 -0.022027 0.002375
v 0.044812 -0.022528 0.002271
v 0.045153 -0.022027 0.002052
v 0.045113 -0.021526 0.002008
v 0.044841 -0.021042 0.002116
v 0.044713 -0.020525 0.002092
v 0.045079 -0.021220 0.001964
v 0.044896 -0.020525 0.001695
v 0.044703 -0.020060 0.001195
v 0.044930 -0.020525 0.001195
v 0.044539 -0.019808 0.001195
v 0.044351 -0.019524 0.001195
v 0.044124 -0.019191 0.001195
v 0.043896 -0.018939 0.000695
v 0.043649 -0.018704 0.000695
v 0.043332 -0.018455 0.000695
v 0.043080 -0.018258 0.000695
v -0.005194 0.000485 0.000695
v -0.005214 -0.000015 0.000695
v -0.005214 -0.000516 0.000695
v -0.005130 -0.001017 0.001195
v -0.005100 -0.001017 0.001695
v -0.004981 -0.001323 0.001964
v 0.043624 -0.018723 0.000194
v 0.043877 -0.018962 0.000194
v 0.044079 -0.019249 -0.000076
v 0.044168 -0.019524 -0.000152
v 0.044337 -0.020008 -0.000245
v 0.044312 -0.020525 -0.000406
v 0.044312 -0.021526 -0.000473
v 0.044812 -0.021526 -0.000322
v 0.044812 -0.022027 -0.000367
v 0.044312 -0.022027 -0.000475
v -0.003715 -0.002519 -0.000451
v -0.004214 -0.002018 -0.000406
v -0.002211 -0.003520 -0.000475
v -0.001711 -0.004017 -0.000474
v -0.002711 -0.003520 -0.000458
v -0.003215 -0.003520 -0.000364
v -0.003715 -0.003019 -0.000355
v -0.004744 -0.001495 -0.000220
v -0.004976 -0.001317 -0.000072
v -0.005095 -0.001017 0.000194
v -0.004239 -0.002535 0.002140
v -0.003715 -0.003019 0.002256
v -0.003215 -0.003520 0.002265
v -0.002711 -0.003520 0.002359
v -0.001711 -0.004017 0.002374
v -0.001187 -0.001747 0.002530
v -0.004531 -0.002383 0.002015
v 0.042121 -0.022634 0.002530
v 0.044312 -0.023526 0.002374
v 0.044312 -0.023028 0.002375
v 0.044812 -0.023028 0.002261
v 0.045153 -0.022528 0.002056
v 0.045281 -0.022528 0.001695
v 0.045277 -0.022027 0.001695
v 0.045197 -0.021526 0.001695
v 0.045093 -0.021149 0.001695
v 0.045024 -0.020900 0.001695
v 0.044703 -0.020060 0.000695
v 0.044930 -0.020525 0.000695
v 0.045039 -0.020858 0.001195
v 0.044539 -0.019808 0.000695
v 0.044351 -0.019524 0.000695
v 0.044124 -0.019191 0.000695
v -0.005130 -0.001017 0.000695
v -0.004942 -0.001685 0.001195
v -0.004927 -0.001643 0.001695
v -0.004996 -0.001395 0.001695
v -0.004798 -0.002018 0.001695
v 0.044104 -0.019214 0.000194
v 0.044317 -0.019524 0.000194
v 0.044520 -0.019834 0.000194
v 0.044683 -0.020086 0.000194
v 0.044629 -0.020167 -0.000123
v 0.044708 -0.020525 -0.000197
v 0.044841 -0.021048 -0.000220
v 0.044812 -0.022528 -0.000371
v 0.045108 -0.021526 -0.000114
v 0.045148 -0.022027 -0.000158
v 0.044312 -0.023028 -0.000475
v -0.004239 -0.002535 -0.000245
v -0.004610 -0.002018 -0.000197
v -0.000712 -0.004518 -0.000475
v -0.002211 -0.004017 -0.000442
v 0.002790 -0.006520 -0.000475
v 0.001791 -0.006020 -0.000473
v 0.000792 -0.005519 -0.000469
v -0.000213 -0.005018 -0.000463
v -0.001212 -0.004518 -0.000455
v -0.001711 -0.004518 -0.000378
v -0.002755 -0.004062 -0.000268
v -0.003215 -0.003904 -0.000161
v -0.003680 -0.003484 -0.000160
v -0.004071 -0.003019 -0.000152
v -0.004922 -0.001637 0.000194
v -0.004996 -0.001388 0.000194
v -0.004531 -0.002376 -0.000123
v -0.004793 -0.002018 0.000194
v -0.004076 -0.003019 0.002047
v -0.003987 -0.003300 0.001968
v -0.003685 -0.003488 0.002056
v -0.003215 -0.003907 0.002056
v -0.002755 -0.004066 0.002165
v -0.001711 -0.004518 0.002278
v -0.002211 -0.004017 0.002342
v -0.001212 -0.004518 0.002355
v -0.000213 -0.005018 0.002364
v 0.014034 -0.011481 0.002530
v -0.004585 -0.002460 0.001695
v 0.042071 -0.022931 0.002530
v 0.041903 -0.023526 0.002530
v 0.043812 -0.024527 0.002375
v 0.044312 -0.024026 0.002358
v 0.044812 -0.023526 0.002231
v 0.045143 -0.023028 0.002046
v 0.045262 -0.023028 0.001695
v 0.045311 -0.022528 0.001195
v 0.045311 -0.022027 0.001195
v 0.045227 -0.021526 0.001195
v 0.044891 -0.020525 0.000194
v 0.045039 -0.020858 0.000695
v 0.045019 -0.020906 0.000194
v -0.004942 -0.001685 0.000695
v -0.004833 -0.002018 0.001195
v 0.045074 -0.021226 -0.000072
v 0.045148 -0.022528 -0.000162
v 0.044812 -0.023028 -0.000361
v 0.044312 -0.023526 -0.000474
v 0.045272 -0.022027 0.000194
v 0.045277 -0.022528 0.000194
v 0.043812 -0.024527 -0.000475
v 0.031302 -0.022528 -0.000475
v 0.001291 -0.006020 -0.000436
v 0.000287 -0.005519 -0.000420
v -0.000712 -0.005018 -0.000401
v 0.006292 -0.008523 -0.000474
v 0.010794 -0.011023 -0.000475
v 0.005293 -0.008022 -0.000471
v 0.033805 -0.024026 -0.000473
v 0.004294 -0.007522 -0.000467
v 0.021295 -0.017024 -0.000471
v 0.024798 -0.019023 -0.000469
v 0.003290 -0.007021 -0.000459
v 0.031802 -0.023028 -0.000462
v 0.002290 -0.006520 -0.000449
v 0.022799 -0.018025 -0.000454
v -0.002201 -0.004534 -0.000220
v 0.002790 -0.007021 -0.000389
v 0.001791 -0.006520 -0.000364
v 0.000792 -0.006020 -0.000335
v -0.002617 -0.004376 -0.000153
v -0.003492 -0.003791 -0.000078
v -0.003982 -0.003294 -0.000076
v -0.004833 -0.002018 0.000695
v -0.004585 -0.002457 0.000194
v -0.004427 -0.002712 0.001695
v -0.004224 -0.003019 0.001695
v -0.004012 -0.003332 0.001695
v -0.003784 -0.003584 0.001695
v -0.003497 -0.003794 0.001971
v -0.002622 -0.004379 0.002046
v -0.002206 -0.004534 0.002116
v 0.000792 -0.006020 0.002235
v 0.001791 -0.006520 0.002265
v 0.002790 -0.007021 0.002290
v -0.000712 -0.005018 0.002301
v 0.000287 -0.005519 0.002320
v 0.001291 -0.006020 0.002337
v 0.003290 -0.007021 0.002360
v 0.002290 -0.006520 0.002350
v 0.022799 -0.018025 0.002354
v 0.016309 -0.012803 0.002530
v 0.014964 -0.012024 0.002530
v 0.031802 -0.023028 0.002363
v -0.004605 -0.002483 0.001195
v 0.043313 -0.025528 0.002368
v 0.043812 -0.025028 0.002356
v 0.041675 -0.023884 0.002530
v 0.044312 -0.024527 0.002307
v 0.044841 -0.024023 0.002123
v 0.045118 -0.023526 0.002017
v 0.045207 -0.023526 0.001695
v 0.045242 -0.023526 0.001195
v 0.045291 -0.023028 0.001195
v 0.045311 -0.022528 0.000695
v 0.045311 -0.022027 0.000695
v 0.045227 -0.021526 0.000695
v 0.045093 -0.021155 0.000194
v 0.045192 -0.021526 0.000194
v 0.045143 -0.023028 -0.000152
v 0.044812 -0.023526 -0.000331
v 0.044312 -0.024026 -0.000458
v 0.045257 -0.023028 0.000194
v 0.043812 -0.025028 -0.000456
v 0.043313 -0.025528 -0.000468
v 0.043313 -0.025028 -0.000475
v 0.035804 -0.025028 -0.000475
v 0.034805 -0.024527 -0.000474
v 0.005793 -0.008523 -0.000443
v 0.009295 -0.010522 -0.000436
v 0.004793 -0.008022 -0.000428
v 0.003789 -0.007522 -0.000410
v 0.028799 -0.021526 -0.000426
v 0.014296 -0.013022 -0.000474
v 0.037308 -0.026029 -0.000471
v 0.028300 -0.021026 -0.000466
v 0.035304 -0.025028 -0.000458
v 0.036308 -0.025528 -0.000465
v 0.030803 -0.022528 -0.000453
v -0.000712 -0.005425 -0.000191
v -0.001711 -0.004893 -0.000169
v -0.002028 -0.004805 -0.000094
v 0.009794 -0.011023 -0.000363
v 0.023299 -0.018526 -0.000398
v 0.031302 -0.023028 -0.000398
v 0.030303 -0.022528 -0.000374
v 0.005293 -0.008523 -0.000350
v 0.003789 -0.007942 -0.000201
v 0.021295 -0.017525 -0.000348
v 0.008795 -0.010522 -0.000334
v -0.002948 -0.004259 0.000010
v -0.003527 -0.003820 0.000194
v -0.003779 -0.003581 0.000194
v -0.004007 -0.003329 0.000194
v -0.004219 -0.003019 0.000194
v -0.004422 -0.002709 0.000194
v -0.004605 -0.002483 0.000695
v -0.004442 -0.002735 0.001195
v -0.004254 -0.003019 0.001195
v -0.004026 -0.003352 0.001195
v -0.003799 -0.003604 0.001195
v -0.003552 -0.003840 0.001195
v -0.003532 -0.003823 0.001695
v -0.002953 -0.004263 0.001894
v -0.002033 -0.004809 0.001987
v -0.001711 -0.004899 0.002064
v -0.000712 -0.005429 0.002086
v 0.005293 -0.008523 0.002250
v 0.004294 -0.008022 0.002218
v 0.021295 -0.017525 0.002248
v 0.009794 -0.011023 0.002264
v 0.030303 -0.022528 0.002274
v 0.007291 -0.009521 0.002300
v 0.031302 -0.023028 0.002298
v 0.003789 -0.007522 0.002311
v 0.020796 -0.017024 0.002328
v 0.004793 -0.008022 0.002329
v 0.009295 -0.010522 0.002336
v 0.005793 -0.008523 0.002343
v 0.035304 -0.025028 0.002358
v 0.030803 -0.022528 0.002354
v 0.020791 -0.015322 0.002530
v 0.036308 -0.025528 0.002366
v 0.041388 -0.024146 0.002530
v 0.042808 -0.026029 0.002365
v 0.043313 -0.026029 0.002286
v 0.043812 -0.025528 0.002257
v 0.044351 -0.025063 0.002146
v 0.044708 -0.024527 0.002092
v 0.045089 -0.023855 0.001977
v 0.045113 -0.023926 0.001695
v 0.045128 -0.023962 0.001195
v 0.045242 -0.023526 0.000695
v 0.045291 -0.023028 0.000695
v 0.045118 -0.023526 -0.000123
v 0.044836 -0.024020 -0.000227
v 0.044312 -0.024527 -0.000406
v 0.045207 -0.023526 0.000194
v 0.043812 -0.025528 -0.000357
v 0.043313 -0.026029 -0.000385
v 0.042808 -0.026029 -0.000464
v 0.041809 -0.026530 -0.000474
v 0.042309 -0.026029 -0.000475
v 0.038806 -0.026530 -0.000475
v 0.038307 -0.026530 -0.000471
v 0.034305 -0.024527 -0.000448
v 0.021795 -0.017525 -0.000442
v 0.025297 -0.019524 -0.000435
v 0.035804 -0.025528 -0.000408
v 0.036808 -0.026029 -0.000426
v 0.037807 -0.026530 -0.000438
v 0.007291 -0.009928 -0.000190
v 0.001791 -0.006879 -0.000157
v 0.000792 -0.006349 -0.000131
v 0.000524 -0.006278 -0.000066
v -0.002345 -0.004699 0.000194
v -0.000440 -0.005758 0.000035
v 0.034805 -0.025028 -0.000385
v 0.037308 -0.026530 -0.000345
v 0.027800 -0.021446 -0.000199
v 0.024798 -0.019524 -0.000332
v -0.002755 -0.004418 0.000184
v -0.002978 -0.004282 0.000343
v -0.003552 -0.003840 0.000695
v -0.003799 -0.003604 0.000695
v -0.004026 -0.003352 0.000695
v -0.004254 -0.003019 0.000695
v -0.004442 -0.002735 0.000695
v -0.003235 -0.004088 0.001195
v -0.002978 -0.004282 0.001560
v -0.002755 -0.004421 0.001714
v -0.002345 -0.004699 0.001695
v -0.002097 -0.004844 0.001695
v -0.000445 -0.005761 0.001865
v 0.000519 -0.006281 0.001958
v 0.007291 -0.009931 0.002085
v 0.004037 -0.008274 0.001947
v 0.008795 -0.010855 0.002025
v 0.034805 -0.025418 0.002072
v 0.035804 -0.025951 0.002093
v 0.020296 -0.017024 0.002215
v 0.024798 -0.019524 0.002232
v 0.037308 -0.026530 0.002246
v 0.033805 -0.024527 0.002261
v 0.034805 -0.025028 0.002286
v 0.035804 -0.025528 0.002308
v 0.032302 -0.023526 0.002318
v 0.028799 -0.021526 0.002327
v 0.025297 -0.019524 0.002335
v 0.021795 -0.017525 0.002342
v 0.034305 -0.024527 0.002348
v 0.037807 -0.026530 0.002339
v 0.022008 -0.015997 0.002530
v 0.037308 -0.026029 0.002371
v 0.041809 -0.026530 0.002374
v 0.040810 -0.024504 0.002530
v 0.042309 -0.026530 0.002338
v 0.042808 -0.026530 0.002222
v 0.043258 -0.026507 0.002052
v 0.043610 -0.026326 0.001994
v 0.043793 -0.025993 0.002067
v 0.044188 -0.025528 0.002050
v 0.044629 -0.024921 0.002018
v 0.044549 -0.025257 0.001836
v 0.044886 -0.024527 0.001695
v 0.045019 -0.024178 0.001695
v 0.044920 -0.024527 0.001195
v 0.045128 -0.023962 0.000695
v 0.045113 -0.023923 0.000194
v 0.045084 -0.023849 -0.000085
v 0.044703 -0.024527 -0.000197
v 0.044351 -0.025060 -0.000250
v 0.044188 -0.025528 -0.000155
v 0.043788 -0.025993 -0.000171
v 0.043313 -0.026436 -0.000184
v 0.042858 -0.026578 -0.000270
v 0.042309 -0.026530 -0.000438
v 0.043610 -0.026323 -0.000101
v 0.040810 -0.027030 -0.000447
v 0.040310 -0.027030 -0.000460
v 0.041309 -0.026530 -0.000475
v 0.039810 -0.027030 -0.000455
v 0.039306 -0.027030 -0.000446
v 0.033306 -0.024026 -0.000434
v 0.029803 -0.022027 -0.000441
v 0.038806 -0.027030 -0.000401
v 0.038307 -0.027030 -0.000315
v 0.005293 -0.008865 -0.000144
v 0.026801 -0.020913 -0.000178
v 0.033805 -0.024882 -0.000153
v 0.001489 -0.006798 -0.000085
v 0.004041 -0.008271 -0.000049
v 0.008528 -0.010781 -0.000065
v -0.002374 -0.004718 0.000695
v -0.000475 -0.005778 0.000369
v 0.037852 -0.027040 -0.000198
v 0.037308 -0.026865 -0.000140
v 0.036843 -0.026526 -0.000194
v 0.035804 -0.025945 -0.000198
v 0.031302 -0.023429 -0.000188
v -0.002711 -0.004486 0.000695
v -0.002983 -0.004285 0.000695
v -0.003235 -0.004088 0.000695
v -0.002983 -0.004285 0.001195
v -0.002711 -0.004486 0.001195
v -0.002374 -0.004718 0.001195
v -0.000475 -0.005778 0.001531
v 0.004017 -0.008287 0.001695
v 0.028023 -0.021791 0.001606
v 0.028052 -0.021775 0.001940
v 0.024530 -0.019786 0.001956
v 0.024798 -0.019853 0.002023
v 0.037026 -0.026798 0.001965
v 0.037308 -0.026869 0.002035
v 0.036838 -0.026530 0.002090
v 0.037847 -0.027040 0.002093
v 0.038307 -0.027030 0.002215
v 0.036808 -0.026029 0.002326
v 0.033306 -0.024026 0.002334
v 0.029803 -0.022027 0.002342
v 0.038806 -0.027030 0.002302
v 0.039306 -0.027030 0.002347
v 0.038307 -0.026530 0.002371
v 0.022977 -0.016514 0.002530
v 0.040310 -0.024637 0.002530
v 0.040310 -0.027030 0.002360
v 0.040810 -0.027030 0.002348
v 0.041309 -0.027030 0.002303
v 0.041809 -0.027030 0.002238
v 0.042808 -0.026859 0.002017
v 0.042294 -0.027043 0.002106
v 0.043060 -0.026778 0.001946
v 0.043654 -0.026368 0.001695
v 0.043906 -0.026087 0.001695
v 0.044079 -0.025806 0.001966
v 0.044564 -0.025286 0.001503
v 0.044658 -0.025063 0.001680
v 0.044391 -0.025483 0.001680
v 0.044920 -0.024527 0.000695
v 0.044703 -0.025028 0.001195
v 0.045019 -0.024172 0.000194
v 0.044881 -0.024527 0.000194
v 0.044544 -0.025250 0.000060
v 0.044624 -0.024918 -0.000125
v 0.044079 -0.025800 -0.000073
v 0.043055 -0.026778 -0.000040
v 0.042724 -0.026882 -0.000148
v 0.042289 -0.027040 -0.000210
v 0.041809 -0.027030 -0.000338
v 0.041309 -0.027030 -0.000403
v 0.043654 -0.026368 0.000194
v 0.040810 -0.027473 -0.000238
v 0.040310 -0.027495 -0.000250
v 0.039810 -0.027482 -0.000246
v 0.039306 -0.027469 -0.000236
v 0.038806 -0.027415 -0.000192
v 0.024798 -0.019850 -0.000128
v 0.024535 -0.019782 -0.000063
v 0.037030 -0.026794 -0.000072
v 0.032544 -0.024285 -0.000063
v 0.036066 -0.026274 -0.000024
v 0.036031 -0.026294 0.000309
v 0.028023 -0.021791 0.000303
v -0.002122 -0.004860 0.000695
v 0.003047 -0.007767 0.000695
v 0.031545 -0.023781 0.000399
v 0.038307 -0.027327 -0.000109
v 0.038045 -0.027285 -0.000061
v -0.002122 -0.004860 0.001195
v 0.003047 -0.007767 0.001195
v 0.031545 -0.023781 0.001497
v 0.036031 -0.026294 0.001599
v 0.036061 -0.026278 0.001933
v 0.032539 -0.024285 0.001955
v 0.036986 -0.026817 0.001695
v 0.037308 -0.026988 0.001695
v 0.037748 -0.027201 0.001695
v 0.038040 -0.027285 0.001954
v 0.038307 -0.027331 0.002003
v 0.038806 -0.027418 0.002087
v 0.039306 -0.027473 0.002132
v 0.039810 -0.027486 0.002141
v 0.040310 -0.027498 0.002145
v 0.039810 -0.027030 0.002356
v 0.039499 -0.024579 0.002530
v 0.039989 -0.024640 0.002530
v 0.039815 -0.024637 0.002530
v 0.040810 -0.027479 0.002133
v 0.041309 -0.027415 0.002088
v 0.041809 -0.027347 0.002024
v 0.042116 -0.027305 0.001975
v 0.042422 -0.027205 0.001695
v 0.042808 -0.026966 0.001695
v 0.043080 -0.026791 0.001695
v 0.043332 -0.026620 0.001695
v 0.043674 -0.026387 0.001195
v 0.043921 -0.026106 0.001195
v 0.044569 -0.025289 0.001195
v 0.044703 -0.025028 0.000695
v 0.044653 -0.025060 0.000214
v 0.044564 -0.025286 0.000394
v 0.044386 -0.025483 0.000214
v 0.044104 -0.025835 0.000194
v 0.043901 -0.026084 0.000194
v 0.042858 -0.026927 0.000154
v 0.042417 -0.027201 0.000194
v 0.042111 -0.027301 -0.000083
v 0.043278 -0.026649 0.000154
v 0.043085 -0.026798 0.000294
v 0.041809 -0.027343 -0.000130
v 0.041309 -0.027411 -0.000193
v 0.043921 -0.026106 0.000695
v 0.043674 -0.026387 0.000695
v 0.043347 -0.026636 0.000695
v 0.040810 -0.027699 0.000194
v 0.040310 -0.027741 0.000194
v 0.039810 -0.027718 0.000194
v 0.039306 -0.027692 0.000194
v 0.038806 -0.027586 0.000194
v 0.037308 -0.026985 0.000194
v 0.036991 -0.026817 0.000194
v 0.036961 -0.026833 0.000695
v 0.032485 -0.024317 0.000695
v 0.038005 -0.027298 0.000194
v 0.037753 -0.027198 0.000194
v 0.032485 -0.024317 0.001195
v 0.036961 -0.026833 0.001195
v 0.037308 -0.027020 0.001195
v 0.037718 -0.027217 0.001195
v 0.038000 -0.027301 0.001695
v 0.038307 -0.027411 0.001695
v 0.038806 -0.027589 0.001695
v 0.039306 -0.027696 0.001695
v 0.039810 -0.027721 0.001695
v 0.040310 -0.027744 0.001695
v 0.040810 -0.027705 0.001695
v 0.042170 -0.027331 0.001695
v 0.041309 -0.027582 0.001695
v 0.041809 -0.027444 0.001695
v 0.042447 -0.027221 0.001195
v 0.042808 -0.026998 0.001195
v 0.043100 -0.026804 0.001195
v 0.043347 -0.026636 0.001195
v 0.044569 -0.025289 0.000695
v 0.042447 -0.027221 0.000695
v 0.042165 -0.027327 0.000194
v 0.041809 -0.027440 0.000194
v 0.041309 -0.027579 0.000194
v 0.043100 -0.026804 0.000695
v 0.042808 -0.026998 0.000695
v 0.040810 -0.027731 0.000695
v 0.041309 -0.027615 0.000695
v 0.040310 -0.027770 0.000695
v 0.039306 -0.027725 0.000695
v 0.038806 -0.027621 0.000695
v 0.037718 -0.027217 0.000695
v 0.037308 -0.027020 0.000695
v 0.038307 -0.027440 0.000695
v 0.037965 -0.027314 0.000695
v 0.037965 -0.027314 0.001195
v 0.038307 -0.027440 0.001195
v 0.038806 -0.027621 0.001195
v 0.039306 -0.027725 0.001195
v 0.040310 -0.027770 0.001195
v 0.040810 -0.027731 0.001195
v 0.041309 -0.027615 0.001195
v 0.042200 -0.027343 0.001195
v 0.041809 -0.027476 0.001195
v 0.042200 -0.027343 0.000695
v 0.041809 -0.027476 0.000695
f 350 280 279
f 178 117 177
f 221 166 160
f 360 369 413
f 422 378 421
f 421 469 422
f 571 522 576
f 347 404 357
f 78 119 120
f 176 177 117
f 254 253 327
f 505 504 475
f 428 475 477
f 427 475 428
f 381 427 428
f 477 475 503
f 503 475 504
f 182 120 181
f 257 182 181
f 790 864 791
f 604 603 671
f 946 886 945
f 815 743 814
f 814 886 815
f 179 177 181
f 178 177 179
f 179 119 178
f 181 120 179
f 179 120 119
f 230 166 221
f 108 160 166
f 274 287 275
f 222 275 287
f 373 375 371
f 69 70 112
f 229 299 300
f 300 369 360
f 300 299 369
f 173 116 113
f 172 173 113
f 113 112 172
f 69 112 113
f 248 251 173
f 248 173 172
f 172 247 248
f 681 754 756
f 756 757 681
f 681 757 682
f 756 754 829
f 827 901 828
f 901 829 828
f 828 829 754
f 566 564 517
f 615 564 614
f 945 884 940
f 940 884 883
f 940 992 945
f 880 809 879
f 800 798 797
f 935 870 934
f 991 938 990
f 991 992 938
f 945 992 993
f 993 946 945
f 853 776 844
f 912 974 975
f 973 974 912
f 1014 979 978
f 990 938 937
f 937 989 990
f 1020 991 990
f 1021 992 1020
f 992 991 1020
f 880 881 811
f 811 809 880
f 811 740 809
f 737 740 661
f 809 740 737
f 490 492 491
f 263 339 264
f 264 188 263
f 341 265 264
f 541 603 604
f 492 545 493
f 495 444 493
f 493 545 495
f 107 108 66
f 160 108 107
f 444 400 443
f 443 493 444
f 491 492 443
f 492 493 443
f 357 404 403
f 15 16 4
f 4 14 15
f 41 16 15
f 15 40 41
f 66 108 67
f 49 91 51
f 15 14 36
f 37 70 69
f 15 36 37
f 219 285 277
f 218 285 219
f 349 350 279
f 349 405 350
f 356 405 349
f 349 285 356
f 94 56 55
f 78 120 121
f 151 121 184
f 115 176 117
f 117 73 115
f 326 327 253
f 381 327 326
f 521 570 522
f 379 423 424
f 424 423 470
f 426 475 427
f 552 505 528
f 429 428 477
f 477 430 429
f 429 430 386
f 332 386 333
f 333 257 332
f 334 335 259
f 385 333 334
f 926 864 863
f 864 790 863
f 603 669 670
f 670 671 603
f 958 956 1001
f 822 824 823
f 957 956 958
f 896 956 957
f 957 899 896
f 900 901 827
f 827 899 900
f 899 957 900
f 900 902 901
f 900 957 958
f 755 826 827
f 750 826 755
f 825 826 750
f 896 826 825
f 896 899 898
f 898 826 896
f 898 899 827
f 827 826 898
f 948 886 947
f 886 946 947
f 947 993 948
f 946 993 947
f 885 886 814
f 814 884 885
f 945 886 885
f 885 884 945
f 888 886 948
f 888 815 886
f 887 888 948
f 815 888 887
f 958 1001 969
f 821 892 891
f 817 890 891
f 891 892 817
f 953 891 890
f 954 891 953
f 254 327 328
f 332 257 330
f 330 329 332
f 348 347 357
f 348 287 274
f 274 347 348
f 288 222 287
f 287 348 288
f 288 348 357
f 288 301 230
f 160 107 102
f 102 107 66
f 308 373 371
f 233 167 232
f 164 167 110
f 111 112 70
f 111 167 112
f 111 110 167
f 414 462 415
f 463 462 509
f 164 163 226
f 162 106 105
f 225 163 224
f 224 291 225
f 225 226 163
f 229 300 290
f 290 291 224
f 421 420 419
f 419 420 375
f 375 373 419
f 373 418 419
f 618 681 682
f 682 683 618
f 754 681 679
f 615 614 679
f 679 618 615
f 681 618 679
f 613 564 566
f 613 614 564
f 677 614 613
f 752 677 680
f 680 755 752
f 752 755 827
f 567 564 615
f 615 618 567
f 754 679 678
f 678 679 614
f 678 614 677
f 677 752 678
f 682 757 758
f 758 759 682
f 835 902 908
f 908 969 970
f 830 829 901
f 901 902 830
f 756 829 830
f 973 909 972
f 963 964 903
f 903 908 965
f 835 908 903
f 834 758 757
f 759 758 834
f 759 834 836
f 916 978 918
f 621 622 571
f 626 685 692
f 880 879 941
f 883 944 941
f 941 940 883
f 941 879 940
f 939 879 938
f 940 879 939
f 938 992 939
f 992 940 939
f 871 873 800
f 871 870 935
f 935 873 871
f 791 792 722
f 722 790 791
f 932 930 929
f 870 930 932
f 791 864 794
f 794 792 791
f 935 934 987
f 987 934 986
f 995 993 1023
f 948 993 995
f 776 853 854
f 840 912 843
f 910 836 909
f 910 909 973
f 913 853 844
f 844 843 913
f 913 843 912
f 913 912 975
f 935 989 936
f 989 937 936
f 936 873 935
f 936 937 873
f 938 879 878
f 878 937 938
f 878 879 809
f 990 989 1019
f 1019 1020 990
f 1011 1012 975
f 975 974 1011
f 1011 973 1010
f 1011 974 973
f 661 740 739
f 739 659 661
f 86 87 49
f 342 265 341
f 440 396 395
f 942 881 880
f 880 941 942
f 942 941 944
f 883 884 812
f 812 884 814
f 188 264 189
f 189 264 265
f 398 436 395
f 495 545 548
f 276 342 343
f 265 342 276
f 343 342 344
f 357 403 412
f 412 403 451
f 346 403 404
f 346 347 274
f 404 347 346
f 445 400 444
f 558 557 551
f 494 444 495
f 494 445 444
f 496 445 494
f 727 800 801
f 727 651 725
f 724 793 726
f 798 727 726
f 726 797 798
f 726 793 797
f 801 800 802
f 800 803 802
f 434 433 481
f 653 592 591
f 656 737 661
f 76 41 40
f 40 75 76
f 66 67 33
f 105 106 64
f 62 31 64
f 64 31 63
f 2 10 11
f 13 12 30
f 33 34 13
f 26 10 25
f 25 54 55
f 55 56 25
f 72 116 114
f 114 115 72
f 72 115 73
f 72 113 116
f 118 119 78
f 78 75 118
f 178 119 118
f 118 117 178
f 118 75 117
f 40 73 74
f 74 75 40
f 74 73 117
f 117 75 74
f 35 37 36
f 35 36 14
f 35 31 62
f 14 31 35
f 39 40 15
f 39 73 40
f 39 72 73
f 278 277 285
f 278 349 279
f 285 349 278
f 58 25 57
f 56 96 57
f 57 25 56
f 216 281 282
f 219 205 157
f 157 218 219
f 284 353 354
f 354 285 284
f 285 218 284
f 410 405 356
f 410 452 405
f 355 285 354
f 354 353 355
f 353 409 355
f 356 285 355
f 355 410 356
f 409 410 355
f 95 96 56
f 56 94 95
f 16 41 42
f 55 54 43
f 122 121 151
f 80 123 122
f 78 121 122
f 122 123 78
f 120 182 183
f 183 184 120
f 180 121 120
f 120 184 180
f 180 184 121
f 174 115 114
f 325 326 253
f 472 521 522
f 470 423 472
f 473 470 520
f 520 526 473
f 380 427 381
f 380 426 427
f 379 424 380
f 380 325 379
f 381 326 380
f 326 325 380
f 527 582 583
f 583 528 527
f 552 528 583
f 505 475 474
f 474 528 505
f 475 426 474
f 527 528 474
f 182 259 214
f 258 259 182
f 182 257 258
f 525 524 580
f 525 472 524
f 571 622 577
f 577 524 571
f 577 636 637
f 527 526 569
f 569 584 527
f 569 526 520
f 744 745 666
f 487 486 538
f 680 677 617
f 677 613 617
f 566 616 617
f 617 613 566
f 821 891 895
f 821 895 893
f 893 891 954
f 893 895 891
f 894 897 824
f 824 822 894
f 894 893 897
f 894 822 821
f 821 893 894
f 959 900 958
f 745 744 819
f 889 890 817
f 889 887 948
f 815 887 816
f 817 743 816
f 743 815 816
f 816 889 817
f 887 889 816
f 965 908 971
f 971 908 970
f 332 329 384
f 329 328 384
f 384 386 332
f 382 327 381
f 382 328 327
f 381 428 382
f 428 429 382
f 329 330 255
f 255 328 329
f 255 177 254
f 254 328 255
f 256 257 181
f 256 330 257
f 256 255 330
f 181 177 256
f 177 255 256
f 166 230 231
f 230 301 231
f 286 230 221
f 286 288 230
f 358 288 357
f 301 288 358
f 160 102 159
f 221 160 159
f 366 416 367
f 372 418 373
f 367 416 372
f 372 416 415
f 372 305 367
f 373 305 372
f 232 167 236
f 323 318 250
f 250 247 172
f 250 318 247
f 247 318 319
f 319 318 323
f 371 375 310
f 375 313 310
f 297 366 367
f 296 366 297
f 297 226 296
f 294 226 297
f 112 167 168
f 167 233 168
f 168 233 237
f 302 233 232
f 232 236 302
f 302 236 308
f 62 64 103
f 164 110 103
f 103 163 164
f 103 64 106
f 106 162 103
f 103 162 163
f 360 413 411
f 411 414 360
f 415 416 362
f 361 291 360
f 360 414 361
f 361 362 291
f 361 414 415
f 415 362 361
f 511 561 512
f 511 512 465
f 465 463 511
f 511 557 558
f 228 167 164
f 165 162 105
f 296 226 293
f 226 225 293
f 229 290 223
f 223 165 229
f 162 165 223
f 223 290 224
f 224 163 223
f 163 162 223
f 359 300 360
f 359 290 300
f 360 291 359
f 291 290 359
f 464 419 418
f 464 463 465
f 465 419 464
f 516 514 563
f 566 517 516
f 515 517 564
f 465 512 466
f 466 419 465
f 466 514 467
f 466 467 421
f 421 419 466
f 753 828 754
f 754 678 753
f 827 828 753
f 753 752 827
f 753 678 752
f 759 838 760
f 760 683 682
f 682 759 760
f 756 830 831
f 831 757 756
f 831 835 757
f 831 902 835
f 831 830 902
f 968 972 909
f 1008 972 1009
f 1010 973 1008
f 973 972 1008
f 1003 964 963
f 963 1002 1003
f 963 903 962
f 904 903 964
f 692 762 768
f 768 776 767
f 768 762 840
f 840 843 768
f 844 776 768
f 768 843 844
f 767 776 766
f 637 636 704
f 916 918 917
f 767 766 690
f 685 619 684
f 761 762 684
f 692 685 684
f 684 762 692
f 570 619 572
f 522 570 572
f 575 576 522
f 522 574 575
f 800 797 872
f 872 871 800
f 797 871 872
f 870 871 796
f 796 871 797
f 933 934 870
f 870 932 933
f 984 932 929
f 795 794 868
f 870 796 868
f 948 995 996
f 856 778 776
f 777 778 856
f 911 912 840
f 840 910 911
f 973 912 911
f 911 910 973
f 836 910 837
f 837 762 761
f 761 838 837
f 837 838 759
f 759 836 837
f 929 866 928
f 928 866 864
f 983 984 928
f 928 984 929
f 983 928 927
f 927 864 926
f 927 928 864
f 979 980 923
f 980 922 923
f 916 854 925
f 925 854 853
f 873 937 874
f 937 878 874
f 800 873 874
f 874 809 800
f 874 878 809
f 988 1019 989
f 987 1019 988
f 988 989 935
f 935 987 988
f 810 811 881
f 740 811 810
f 810 739 740
f 188 129 187
f 47 85 48
f 85 86 48
f 48 86 49
f 390 433 434
f 26 25 28
f 147 157 205
f 100 157 147
f 207 278 279
f 277 278 207
f 400 345 399
f 345 344 399
f 399 344 342
f 340 342 341
f 395 396 340
f 341 264 340
f 340 264 339
f 437 438 395
f 436 486 437
f 395 436 437
f 437 486 487
f 487 438 437
f 439 490 491
f 491 440 439
f 395 438 439
f 439 440 395
f 396 440 397
f 397 340 396
f 342 340 397
f 397 399 342
f 400 399 397
f 883 812 882
f 742 812 814
f 814 743 742
f 743 663 742
f 492 542 543
f 605 541 604
f 605 542 541
f 605 543 542
f 539 540 487
f 747 822 823
f 821 822 747
f 343 344 273
f 273 346 274
f 273 344 345
f 345 346 273
f 447 400 446
f 400 445 446
f 446 445 496
f 498 448 447
f 557 511 510
f 510 463 509
f 510 511 463
f 723 793 724
f 795 796 723
f 723 722 792
f 792 794 723
f 723 794 795
f 797 793 723
f 723 796 797
f 648 722 723
f 651 727 728
f 799 798 800
f 800 727 799
f 799 727 798
f 433 390 392
f 652 591 651
f 653 591 652
f 652 730 653
f 649 723 724
f 648 723 649
f 649 590 648
f 591 590 649
f 651 591 650
f 725 651 650
f 591 649 650
f 650 727 725
f 650 726 727
f 724 726 650
f 650 649 724
f 533 532 592
f 595 534 533
f 809 737 808
f 800 809 875
f 875 803 800
f 809 808 875
f 654 592 653
f 789 863 790
f 790 722 789
f 12 13 3
f 3 9 12
f 3 1 2
f 2 9 3
f 78 41 77
f 41 76 77
f 77 75 78
f 77 76 75
f 61 102 66
f 66 33 61
f 105 64 104
f 104 64 63
f 65 33 67
f 65 34 33
f 32 13 30
f 33 13 32
f 30 61 32
f 32 61 33
f 69 113 71
f 113 72 71
f 71 39 69
f 72 39 71
f 15 37 38
f 38 39 15
f 38 37 69
f 69 39 38
f 97 57 96
f 97 95 153
f 96 95 97
f 281 216 215
f 156 157 100
f 155 215 156
f 218 157 156
f 156 215 216
f 282 353 283
f 353 284 283
f 283 216 282
f 218 216 283
f 283 284 218
f 387 333 386
f 352 335 334
f 151 184 152
f 79 42 41
f 79 41 78
f 78 123 79
f 81 94 55
f 55 43 81
f 175 253 254
f 176 115 175
f 115 174 175
f 254 177 175
f 177 176 175
f 471 472 423
f 521 472 471
f 571 524 523
f 524 472 523
f 523 522 571
f 523 472 522
f 425 473 426
f 426 380 425
f 470 473 425
f 425 424 470
f 425 380 424
f 527 474 476
f 476 474 426
f 476 526 527
f 426 473 476
f 476 473 526
f 184 183 213
f 213 183 182
f 182 214 213
f 334 259 331
f 259 258 331
f 331 385 334
f 333 385 331
f 257 333 331
f 331 258 257
f 519 525 520
f 472 525 519
f 520 470 519
f 470 472 519
f 711 640 710
f 581 525 580
f 580 640 581
f 581 640 584
f 859 860 780
f 780 858 859
f 719 646 718
f 862 787 861
f 863 787 862
f 537 485 536
f 537 538 485
f 536 597 537
f 537 597 598
f 487 538 537
f 537 539 487
f 607 561 560
f 561 511 560
f 565 616 566
f 566 516 565
f 565 516 563
f 897 893 955
f 955 893 954
f 961 908 902
f 969 908 961
f 847 856 854
f 847 854 916
f 916 917 847
f 817 892 818
f 892 819 818
f 818 819 744
f 818 743 817
f 818 744 743
f 952 953 890
f 890 889 952
f 948 996 994
f 994 996 1025
f 1025 1024 994
f 965 971 966
f 966 971 1006
f 966 903 965
f 966 962 903
f 966 1002 963
f 963 962 966
f 997 994 1024
f 386 384 383
f 383 429 386
f 383 382 429
f 383 384 328
f 328 382 383
f 222 288 289
f 289 286 222
f 288 286 289
f 102 150 161
f 274 275 199
f 275 222 199
f 199 273 274
f 416 366 365
f 365 362 416
f 364 362 365
f 296 364 365
f 365 366 296
f 172 246 249
f 249 250 172
f 323 250 249
f 171 246 172
f 172 112 171
f 112 170 171
f 170 245 243
f 243 171 170
f 246 171 243
f 311 310 313
f 237 310 311
f 237 233 303
f 303 310 237
f 371 310 303
f 233 302 303
f 303 308 371
f 167 228 227
f 164 226 227
f 227 228 164
f 367 305 368
f 368 297 367
f 238 309 240
f 238 168 237
f 237 309 238
f 305 306 235
f 235 236 167
f 373 308 374
f 374 305 373
f 374 306 305
f 110 111 68
f 62 103 68
f 70 37 68
f 68 111 70
f 68 35 62
f 37 35 68
f 509 462 460
f 414 411 460
f 363 362 364
f 363 364 296
f 291 362 363
f 451 403 450
f 403 449 450
f 402 449 403
f 402 346 345
f 403 346 402
f 509 460 500
f 500 460 501
f 500 510 509
f 418 372 417
f 417 464 418
f 417 372 415
f 463 464 417
f 415 462 417
f 462 463 417
f 469 515 518
f 564 567 518
f 518 515 564
f 517 515 468
f 468 516 517
f 514 516 468
f 467 514 468
f 468 515 469
f 468 469 421
f 421 467 468
f 514 466 513
f 512 561 513
f 513 466 512
f 964 972 967
f 972 968 967
f 1023 993 1022
f 1022 992 1021
f 1022 993 992
f 1009 972 1005
f 1005 972 964
f 1027 1003 1026
f 1026 1003 1002
f 757 835 832
f 835 903 832
f 903 904 832
f 707 778 777
f 776 703 775
f 775 703 702
f 775 766 776
f 702 766 775
f 700 704 636
f 688 690 621
f 624 619 685
f 624 572 619
f 628 626 692
f 628 625 626
f 574 625 628
f 573 574 522
f 573 625 574
f 626 625 573
f 576 575 630
f 630 575 631
f 692 693 629
f 629 628 692
f 574 628 629
f 695 693 692
f 631 693 695
f 692 768 695
f 627 575 574
f 574 629 627
f 627 629 693
f 631 575 627
f 627 693 631
f 985 933 932
f 932 984 985
f 986 934 985
f 934 933 985
f 865 794 864
f 864 866 865
f 865 866 794
f 794 866 867
f 867 868 794
f 929 930 867
f 867 866 929
f 869 796 795
f 795 868 869
f 869 868 796
f 776 854 855
f 855 856 776
f 854 856 855
f 840 762 839
f 762 837 839
f 839 910 840
f 839 837 910
f 851 858 780
f 978 979 919
f 979 923 919
f 919 918 978
f 975 1012 976
f 976 913 975
f 976 925 913
f 977 978 916
f 916 925 977
f 977 1013 1014
f 977 1014 978
f 853 913 924
f 924 925 853
f 913 925 924
f 1017 987 986
f 981 1016 1013
f 925 976 981
f 981 976 1012
f 87 129 88
f 49 87 88
f 49 88 89
f 89 88 131
f 263 188 262
f 188 187 262
f 128 129 87
f 128 187 129
f 200 142 194
f 336 337 260
f 280 338 260
f 260 338 336
f 26 28 27
f 27 28 11
f 27 10 26
f 27 11 10
f 49 51 22
f 59 25 58
f 59 28 25
f 60 59 58
f 60 50 28
f 28 59 60
f 206 205 219
f 219 277 206
f 277 207 206
f 44 50 84
f 44 82 83
f 84 82 44
f 393 340 339
f 398 340 393
f 394 398 395
f 395 340 394
f 394 340 398
f 488 439 438
f 541 542 488
f 488 540 541
f 442 443 400
f 400 397 442
f 943 944 883
f 883 882 943
f 741 742 663
f 812 742 741
f 544 545 492
f 492 543 544
f 672 617 673
f 673 617 616
f 673 676 674
f 616 676 673
f 543 605 606
f 606 544 543
f 606 548 545
f 545 544 606
f 668 669 603
f 668 747 669
f 748 747 823
f 748 824 749
f 823 824 748
f 669 747 748
f 749 670 748
f 748 670 669
f 821 747 820
f 745 819 820
f 820 892 821
f 820 819 892
f 607 560 547
f 547 560 546
f 265 276 270
f 270 266 265
f 136 89 131
f 49 89 90
f 90 91 49
f 497 446 496
f 447 446 497
f 497 498 447
f 558 551 550
f 389 390 337
f 389 392 390
f 389 337 336
f 336 338 389
f 338 392 389
f 453 454 406
f 406 452 453
f 405 452 406
f 350 405 406
f 552 583 610
f 610 583 582
f 582 641 610
f 535 529 483
f 651 728 729
f 729 652 651
f 801 802 729
f 729 727 801
f 729 728 727
f 730 652 731
f 731 802 803
f 731 729 802
f 652 729 731
f 594 660 595
f 595 533 594
f 659 660 594
f 661 659 594
f 594 656 661
f 877 808 807
f 737 656 658
f 653 730 732
f 732 654 653
f 732 731 803
f 730 731 732
f 732 805 654
f 788 787 863
f 863 789 788
f 12 9 8
f 8 9 2
f 52 51 91
f 153 154 98
f 98 97 153
f 98 154 155
f 57 97 98
f 155 156 99
f 99 156 100
f 99 98 155
f 100 57 99
f 57 98 99
f 217 216 218
f 218 156 217
f 217 156 216
f 334 333 388
f 333 387 388
f 388 352 334
f 408 352 388
f 388 387 408
f 431 430 458
f 458 457 431
f 386 430 431
f 431 457 408
f 10 17 24
f 54 25 24
f 24 25 10
f 5 17 10
f 5 10 2
f 2 1 5
f 80 122 124
f 124 122 151
f 253 175 252
f 252 175 174
f 212 152 184
f 184 213 212
f 634 577 637
f 769 847 845
f 845 915 850
f 639 640 580
f 639 710 640
f 689 766 702
f 702 701 689
f 622 621 689
f 621 690 689
f 689 690 766
f 568 581 584
f 525 581 568
f 584 569 568
f 520 525 568
f 568 569 520
f 861 787 786
f 787 719 786
f 720 719 787
f 646 719 720
f 780 860 781
f 599 537 598
f 559 511 558
f 559 560 511
f 563 514 562
f 514 513 562
f 562 513 561
f 612 561 607
f 612 676 616
f 616 565 612
f 612 562 561
f 612 565 563
f 563 562 612
f 958 969 960
f 969 961 960
f 960 959 958
f 900 959 960
f 902 900 960
f 960 961 902
f 846 769 777
f 846 847 769
f 951 952 889
f 953 952 1000
f 1007 966 1006
f 1002 966 1007
f 994 997 949
f 949 889 948
f 948 994 949
f 949 997 998
f 158 159 102
f 102 161 158
f 222 161 211
f 211 199 222
f 150 199 211
f 204 276 272
f 273 199 272
f 272 276 343
f 343 273 272
f 145 146 91
f 140 199 150
f 91 146 140
f 140 141 91
f 251 248 322
f 322 377 251
f 251 377 324
f 323 249 316
f 316 249 246
f 246 243 316
f 370 302 308
f 308 303 370
f 370 303 302
f 313 314 242
f 317 313 375
f 317 314 313
f 294 297 298
f 297 368 298
f 307 235 306
f 306 374 307
f 236 235 307
f 308 236 307
f 307 374 308
f 109 103 110
f 110 68 109
f 109 68 103
f 459 460 411
f 462 414 461
f 461 460 462
f 414 460 461
f 292 225 291
f 291 363 292
f 292 293 225
f 296 293 292
f 292 363 296
f 448 449 401
f 449 402 401
f 447 448 401
f 401 400 447
f 401 345 400
f 401 402 345
f 510 500 499
f 499 551 557
f 557 510 499
f 906 967 968
f 964 967 906
f 906 968 909
f 1004 1003 1027
f 964 1003 1004
f 1004 1005 964
f 757 832 833
f 833 832 904
f 833 834 757
f 703 700 635
f 702 703 635
f 636 577 635
f 635 700 636
f 635 701 702
f 635 577 622
f 622 689 635
f 635 689 701
f 704 700 706
f 776 778 706
f 706 703 776
f 706 700 703
f 778 707 706
f 637 704 706
f 706 707 637
f 620 688 621
f 620 621 571
f 620 632 686
f 571 576 620
f 576 632 620
f 690 688 687
f 687 620 686
f 688 620 687
f 685 626 691
f 691 624 685
f 572 624 623
f 522 572 623
f 623 573 522
f 624 691 623
f 626 573 623
f 623 691 626
f 694 630 631
f 631 695 694
f 694 695 768
f 767 690 841
f 870 868 931
f 868 867 931
f 931 930 870
f 931 867 930
f 773 851 780
f 852 923 922
f 851 773 852
f 1018 1019 987
f 987 1017 1018
f 1013 977 982
f 982 981 1013
f 982 977 925
f 925 981 982
f 1015 981 1012
f 1016 981 1015
f 131 88 130
f 132 129 188
f 132 88 129
f 188 189 132
f 189 130 132
f 132 130 88
f 87 86 127
f 127 128 87
f 127 86 85
f 144 145 91
f 144 200 201
f 146 145 144
f 201 200 202
f 202 276 204
f 202 144 201
f 261 260 337
f 185 260 261
f 101 60 58
f 58 57 101
f 101 57 100
f 148 147 205
f 205 206 148
f 148 206 207
f 207 149 148
f 489 542 492
f 489 488 542
f 492 490 489
f 490 439 489
f 439 488 489
f 443 442 441
f 441 442 397
f 491 443 441
f 441 440 491
f 441 397 440
f 665 663 598
f 665 741 663
f 813 882 812
f 812 741 813
f 602 668 603
f 603 541 602
f 541 540 602
f 540 539 602
f 666 745 746
f 745 820 746
f 746 820 747
f 269 270 276
f 269 200 194
f 276 202 269
f 269 202 200
f 266 270 195
f 558 550 549
f 549 559 558
f 546 560 549
f 560 559 549
f 391 407 435
f 391 435 433
f 433 392 391
f 391 392 338
f 350 406 351
f 406 407 351
f 280 350 351
f 351 338 280
f 584 640 642
f 642 714 641
f 479 530 480
f 434 481 480
f 480 482 434
f 480 433 479
f 480 481 433
f 534 482 480
f 480 533 534
f 532 533 480
f 435 407 456
f 433 435 478
f 435 483 478
f 478 483 529
f 529 530 478
f 479 433 478
f 478 530 479
f 876 875 808
f 808 877 876
f 876 805 875
f 593 658 656
f 657 658 593
f 656 594 593
f 593 533 592
f 593 594 533
f 738 808 737
f 737 658 738
f 738 658 657
f 654 734 655
f 592 654 655
f 655 593 592
f 657 593 655
f 733 734 654
f 654 805 733
f 804 732 803
f 805 732 804
f 803 875 804
f 875 805 804
f 2 11 6
f 30 12 23
f 12 8 23
f 51 52 23
f 23 22 51
f 23 8 22
f 102 61 93
f 61 52 93
f 141 140 93
f 91 141 93
f 93 52 91
f 93 150 102
f 93 140 150
f 432 387 386
f 386 431 432
f 408 387 432
f 432 431 408
f 697 634 637
f 914 845 847
f 915 845 914
f 914 847 917
f 917 915 914
f 580 524 579
f 579 639 580
f 710 781 782
f 711 710 782
f 710 639 709
f 709 781 710
f 780 781 709
f 664 744 666
f 598 663 664
f 664 599 598
f 664 663 743
f 743 744 664
f 609 612 607
f 609 547 608
f 607 547 609
f 857 846 777
f 847 846 857
f 777 856 857
f 856 847 857
f 999 951 998
f 952 951 999
f 999 1000 952
f 950 951 889
f 889 949 950
f 998 951 950
f 950 949 998
f 159 158 220
f 220 158 161
f 220 161 222
f 222 286 220
f 220 286 221
f 221 159 220
f 210 161 150
f 150 211 210
f 210 211 161
f 204 272 271
f 271 272 199
f 321 248 247
f 321 322 248
f 376 324 377
f 376 319 323
f 376 420 421
f 375 420 376
f 376 317 375
f 378 324 376
f 421 378 376
f 323 316 315
f 245 317 315
f 315 243 245
f 315 316 243
f 315 376 323
f 317 376 315
f 240 309 241
f 312 311 313
f 313 242 312
f 237 311 312
f 312 309 237
f 312 241 309
f 242 241 312
f 169 170 112
f 169 239 170
f 169 238 240
f 240 241 169
f 112 168 169
f 168 238 169
f 242 239 169
f 169 241 242
f 244 245 170
f 170 239 244
f 244 317 245
f 314 317 244
f 244 242 314
f 244 239 242
f 295 226 294
f 294 298 295
f 295 227 226
f 295 298 227
f 167 227 234
f 227 298 234
f 234 235 167
f 460 459 502
f 501 460 502
f 907 836 834
f 834 906 907
f 909 836 907
f 907 906 909
f 905 904 964
f 964 906 905
f 905 833 904
f 905 906 834
f 834 833 905
f 764 687 686
f 633 694 696
f 630 694 633
f 576 630 633
f 633 632 576
f 686 632 633
f 633 696 686
f 763 694 768
f 696 694 763
f 763 841 842
f 842 764 763
f 763 768 767
f 767 841 763
f 686 696 763
f 763 764 686
f 765 841 690
f 842 841 765
f 765 764 842
f 690 687 765
f 687 764 765
f 779 773 780
f 850 915 849
f 918 919 849
f 849 917 918
f 849 915 917
f 921 852 922
f 851 852 921
f 190 130 189
f 190 136 131
f 131 130 190
f 143 144 91
f 200 144 143
f 91 142 143
f 142 200 143
f 204 144 203
f 203 202 204
f 144 202 203
f 208 149 207
f 208 207 279
f 279 280 208
f 280 260 208
f 186 126 125
f 125 185 186
f 125 149 185
f 125 126 82
f 125 82 84
f 84 50 92
f 50 60 92
f 92 125 84
f 147 148 92
f 92 148 149
f 149 125 92
f 100 147 92
f 92 101 100
f 60 101 92
f 45 44 83
f 45 18 44
f 21 6 11
f 18 6 21
f 50 44 21
f 44 18 21
f 22 8 20
f 20 48 49
f 49 22 20
f 601 602 539
f 668 602 601
f 266 195 138
f 268 269 194
f 194 195 268
f 270 269 268
f 268 195 270
f 133 191 134
f 134 89 133
f 89 136 133
f 134 191 135
f 135 89 134
f 135 90 89
f 135 138 90
f 191 138 135
f 265 266 192
f 136 190 192
f 192 189 265
f 192 190 189
f 712 640 711
f 584 642 585
f 585 582 527
f 527 584 585
f 585 641 582
f 585 642 641
f 532 480 531
f 531 480 530
f 592 532 531
f 531 591 592
f 531 590 591
f 530 588 531
f 721 722 648
f 787 788 721
f 721 720 787
f 721 789 722
f 721 788 789
f 586 529 535
f 586 530 529
f 484 483 435
f 435 456 484
f 806 876 877
f 805 876 806
f 806 877 807
f 806 733 805
f 734 733 806
f 657 655 736
f 807 808 736
f 808 738 736
f 736 738 657
f 7 8 2
f 2 6 7
f 7 20 8
f 6 20 7
f 53 61 30
f 30 23 53
f 53 52 61
f 53 23 52
f 705 697 637
f 769 697 705
f 777 769 705
f 637 707 705
f 705 707 777
f 699 634 698
f 634 697 698
f 578 579 524
f 524 577 578
f 577 634 578
f 711 782 783
f 783 712 711
f 783 784 712
f 600 664 666
f 666 601 600
f 537 599 600
f 599 664 600
f 539 537 600
f 600 601 539
f 676 612 675
f 612 609 675
f 674 676 675
f 675 608 674
f 675 609 608
f 199 140 198
f 198 271 199
f 322 321 320
f 377 322 320
f 247 319 320
f 320 321 247
f 319 376 320
f 320 376 377
f 304 298 368
f 304 234 298
f 304 368 305
f 305 235 304
f 235 234 304
f 699 773 708
f 773 779 708
f 708 779 780
f 780 709 708
f 708 709 639
f 848 845 850
f 774 773 699
f 774 852 773
f 774 849 852
f 920 849 919
f 852 849 920
f 920 919 923
f 923 852 920
f 185 149 209
f 149 208 209
f 209 260 185
f 209 208 260
f 18 45 46
f 11 28 29
f 29 21 11
f 28 50 29
f 50 21 29
f 48 20 19
f 47 48 19
f 19 6 18
f 19 20 6
f 19 46 47
f 18 46 19
f 667 746 747
f 747 668 667
f 668 601 667
f 666 746 667
f 667 601 666
f 194 142 137
f 137 195 194
f 137 142 91
f 91 90 137
f 136 192 193
f 193 133 136
f 191 133 193
f 713 642 640
f 640 712 713
f 645 716 717
f 645 717 718
f 718 646 645
f 648 590 589
f 590 531 589
f 589 531 588
f 587 645 646
f 587 588 530
f 530 586 587
f 587 586 535
f 554 556 508
f 508 556 535
f 535 483 508
f 483 484 508
f 508 484 456
f 506 507 454
f 506 553 554
f 455 406 454
f 454 507 455
f 455 407 406
f 455 456 407
f 455 508 456
f 507 508 455
f 735 736 655
f 735 655 734
f 734 806 735
f 735 806 807
f 807 736 735
f 638 578 634
f 579 578 638
f 638 634 699
f 639 579 638
f 699 708 638
f 638 708 639
f 204 271 197
f 271 198 197
f 197 144 204
f 146 144 197
f 197 140 146
f 197 198 140
f 845 848 771
f 772 774 699
f 849 774 772
f 772 771 848
f 850 849 772
f 772 848 850
f 699 698 772
f 698 771 772
f 90 138 139
f 139 137 90
f 139 138 195
f 195 137 139
f 267 193 192
f 267 192 266
f 191 193 267
f 554 553 611
f 611 556 554
f 535 556 596
f 596 587 535
f 596 611 662
f 556 611 596
f 712 784 785
f 785 713 712
f 714 642 785
f 642 713 785
f 647 721 648
f 648 589 647
f 720 721 647
f 647 589 588
f 588 587 647
f 646 720 647
f 647 587 646
f 554 508 555
f 555 508 507
f 555 506 554
f 507 506 555
f 845 771 770
f 770 771 698
f 769 845 770
f 770 697 769
f 770 698 697
f 266 138 196
f 196 267 266
f 196 138 191
f 191 267 196
f 587 596 643
f 643 596 662
f 716 645 644
f 645 587 644
f 587 643 644
f 715 643 662
f 716 644 715
f 715 644 643
f 430 503 458
f 477 503 430
f 452 503 504
f 452 504 453
f 604 671 751
f 751 672 604
f 670 751 671
f 750 751 670
f 896 824 897
f 897 956 896
f 755 751 750
f 680 751 755
f 750 670 825
f 825 670 749
f 825 824 896
f 749 824 825
f 953 969 954
f 970 969 953
f 1023 1009 1027
f 1027 1025 1023
f 1011 1019 1012
f 1020 1019 1011
f 1010 1021 1011
f 1021 1020 1011
f 13 34 63
f 63 31 13
f 458 503 410
f 503 452 410
f 436 485 538
f 538 486 436
f 672 751 617
f 617 751 680
f 231 299 229
f 229 166 231
f 369 299 231
f 231 301 369
f 369 301 358
f 358 413 369
f 413 358 411
f 411 358 357
f 165 166 229
f 165 108 166
f 105 67 165
f 165 67 108
f 983 980 984
f 984 980 979
f 1023 1025 996
f 996 995 1023
f 922 980 983
f 983 927 922
f 453 504 454
f 454 504 505
f 4 1 3
f 14 4 3
f 3 13 31
f 3 31 14
f 65 67 105
f 105 104 65
f 63 34 65
f 65 104 63
f 215 259 335
f 215 335 281
f 155 214 215
f 215 214 259
f 352 408 353
f 352 353 282
f 281 335 352
f 282 281 352
f 458 410 457
f 457 410 409
f 353 408 457
f 457 409 353
f 152 94 151
f 152 95 94
f 80 42 79
f 79 123 80
f 80 43 17
f 17 42 80
f 213 214 155
f 155 154 213
f 862 859 858
f 861 859 862
f 956 897 955
f 955 1001 956
f 954 969 955
f 955 969 1001
f 500 450 449
f 501 450 500
f 1022 1009 1023
f 1022 1008 1009
f 1022 1021 1010
f 1010 1008 1022
f 1025 1027 1026
f 1026 1024 1025
f 1026 997 1024
f 1002 997 1026
f 1014 1013 985
f 985 1013 986
f 985 984 979
f 979 1014 985
f 851 862 858
f 863 862 851
f 986 1013 1017
f 1013 1016 1017
f 487 540 488
f 488 438 487
f 604 672 673
f 673 605 604
f 605 673 606
f 606 673 674
f 674 608 606
f 606 608 548
f 548 608 547
f 495 548 547
f 547 494 495
f 547 546 494
f 498 497 550
f 551 498 550
f 24 17 43
f 24 43 54
f 42 17 5
f 16 42 5
f 5 1 4
f 5 4 16
f 124 43 80
f 124 81 43
f 151 94 124
f 94 81 124
f 95 152 212
f 153 95 212
f 212 213 154
f 212 154 153
f 786 859 861
f 860 859 786
f 860 786 781
f 781 786 719
f 970 953 1000
f 1000 971 970
f 1007 997 1002
f 998 997 1007
f 683 760 324
f 378 422 324
f 324 838 761
f 114 116 324
f 253 252 324
f 324 174 114
f 324 471 423
f 324 116 173
f 173 251 324
f 324 422 469
f 570 521 324
f 324 423 379
f 761 684 324
f 324 618 683
f 324 567 618
f 379 325 324
f 324 619 570
f 469 518 324
f 324 325 253
f 324 760 838
f 324 684 619
f 521 471 324
f 324 518 567
f 324 252 174
f 459 411 357
f 357 412 459
f 499 498 551
f 448 498 499
f 499 500 449
f 499 449 448
f 1004 1027 1009
f 1009 1005 1004
f 1012 1019 1015
f 1019 1018 1015
f 1015 1017 1016
f 1015 1018 1017
f 494 546 549
f 496 494 549
f 549 550 497
f 549 497 496
f 407 391 351
f 351 391 338
f 782 781 719
f 782 719 718
f 998 1007 999
f 999 1007 1006
f 971 1000 999
f 1006 971 999
f 502 459 412
f 502 412 451
f 502 450 501
f 451 450 502
f 921 922 927
f 921 927 926
f 863 851 921
f 926 863 921
f 783 782 718
f 718 717 783
f 717 716 783
f 783 716 784
f 46 810 881
f 595 660 46
f 46 126 186
f 46 339 263
f 536 485 46
f 944 943 46
f 186 185 46
f 46 261 337
f 46 390 434
f 882 813 46
f 881 942 46
f 659 739 46
f 46 85 47
f 46 597 536
f 46 942 944
f 436 398 46
f 46 660 659
f 46 534 595
f 46 485 436
f 739 810 46
f 263 262 46
f 46 127 85
f 337 390 46
f 434 482 46
f 46 393 339
f 598 597 46
f 46 262 187
f 187 128 46
f 83 82 46
f 398 393 46
f 46 943 882
f 46 665 598
f 46 482 534
f 128 127 46
f 185 261 46
f 82 126 46
f 741 665 46
f 46 813 741
f 46 45 83
f 506 454 505
f 506 505 552
f 552 610 506
f 610 553 506
f 714 662 611
f 641 714 611
f 611 553 610
f 611 610 641
f 784 716 715
f 715 785 784
f 715 662 714
f 714 785 715
