v -0.015163 0.005851 0.004781
v -0.015216 0.005851 0.004781
v -0.015216 0.005851 0.009000
v -0.014948 0.005851 0.009000
v -0.014948 0.005851 0.004781
v -0.015948 0.005678 0.004781
v -0.015201 0.005552 0.009300
v -0.017003 0.005428 0.009000
v -0.016882 0.005154 0.009300
v -0.014948 0.005551 0.009300
v -0.014948 0.003356 0.004781
v -0.016816 0.005472 0.004781
v -0.017003 0.005428 0.004781
v -0.018358 0.004496 0.004781
v -0.018517 0.004387 0.009000
v -0.018304 0.004175 0.009300
v -0.014948 0.003356 0.009300
v -0.017414 0.001108 0.004781
v -0.018517 0.004387 0.004781
v -0.019444 0.003028 0.004781
v -0.019553 0.002869 0.009000
v -0.019278 0.002748 0.009300
v -0.017414 0.001108 0.009300
v -0.019964 0.001108 0.004781
v -0.019553 0.002869 0.004781
v -0.019964 0.001108 0.009000
v -0.019661 0.001108 0.009300
f 5 1 4
f 4 1 3
f 2 3 1
f 3 2 6
f 3 9 7
f 7 10 4
f 4 3 7
f 19 20 15
f 15 14 19
f 9 15 16
f 21 20 25
f 21 15 20
f 22 16 21
f 21 16 15
f 26 27 21
f 21 27 22
f 8 15 9
f 8 9 3
f 13 14 8
f 14 15 8
f 8 12 13
f 6 12 8
f 3 6 8
f 18 11 17
f 17 23 18
f 11 5 10
f 10 5 4
f 10 17 11
f 1 5 12
f 12 18 24
f 12 11 18
f 24 25 12
f 12 2 1
f 19 14 12
f 12 5 11
f 12 20 19
f 12 14 13
f 25 20 12
f 12 6 2
f 24 18 27
f 18 23 27
f 27 26 24
f 23 17 16
f 17 10 16
f 16 27 23
f 22 27 16
f 10 7 16
f 16 7 9
f 21 25 24
f 24 26 21
