v 0.039473 -0.027179 0.004400
v 0.039473 -0.027475 0.004700
v 0.039473 -0.025264 0.004400
v 0.040967 -0.027162 0.004400
v 0.041022 -0.027457 0.004700
v 0.039473 -0.027475 0.009100
v 0.039473 -0.024963 0.004700
v 0.042894 -0.022540 0.004400
v 0.042493 -0.026586 0.004400
v 0.041022 -0.027457 0.009100
v 0.042647 -0.026844 0.004700
v 0.039473 -0.027179 0.009400
v 0.039473 -0.024963 0.009100
v 0.042594 -0.022540 0.004700
v 0.044789 -0.022540 0.004400
v 0.043732 -0.025523 0.004400
v 0.040967 -0.027162 0.009400
v 0.042647 -0.026844 0.009100
v 0.042493 -0.026586 0.009400
v 0.043964 -0.025713 0.004700
v 0.039473 -0.025264 0.009400
v 0.042894 -0.022540 0.009400
v 0.042594 -0.022540 0.009100
v 0.045088 -0.022540 0.004700
v 0.044815 -0.024200 0.004700
v 0.044532 -0.024100 0.004400
v 0.043964 -0.025713 0.009100
v 0.043732 -0.025523 0.009400
v 0.044789 -0.022540 0.009400
v 0.045088 -0.022540 0.009100
v 0.044815 -0.024200 0.009100
v 0.044532 -0.024100 0.009400
f 25 15 24
f 3 7 8
f 16 11 9
f 26 25 16
f 15 25 26
f 22 13 21
f 8 7 14
f 6 10 12
f 16 25 20
f 20 11 16
f 28 18 27
f 27 31 28
f 23 13 22
f 5 4 9
f 5 9 11
f 1 4 5
f 10 18 19
f 18 28 19
f 1 5 2
f 12 10 17
f 10 19 17
f 31 30 29
f 32 28 31
f 31 29 32
f 8 15 4
f 4 26 16
f 1 3 4
f 4 3 8
f 16 9 4
f 15 26 4
f 18 20 27
f 11 20 18
f 27 20 31
f 31 20 25
f 7 13 23
f 23 14 7
f 11 18 5
f 5 18 10
f 30 31 25
f 30 25 24
f 2 3 1
f 12 21 2
f 7 3 2
f 2 13 7
f 2 21 13
f 2 6 12
f 2 5 10
f 10 6 2
f 24 15 29
f 29 23 22
f 29 15 8
f 8 14 29
f 14 23 29
f 29 30 24
f 32 21 12
f 22 21 32
f 12 17 32
f 32 19 28
f 32 17 19
f 32 29 22
