v -0.000213 0.005227 0.018705
v -0.000213 0.005227 0.018205
v -0.000712 0.005188 0.019205
v -0.000213 0.005223 0.019205
v 0.000287 0.005204 0.019205
v 0.000792 0.005182 0.019205
v 0.000287 0.005091 0.017705
v -0.000213 0.005110 0.017705
v -0.000712 0.005188 0.018205
v 0.000792 0.005182 0.018205
v -0.001212 0.005072 0.019205
v -0.001711 0.004836 0.019612
v -0.000712 0.005014 0.019706
v -0.000213 0.005052 0.019706
v 0.000287 0.005033 0.019706
v 0.000792 0.005007 0.019706
v 0.001291 0.005078 0.019205
v 0.000287 0.004855 0.017360
v 0.000792 0.005062 0.017705
v 0.000792 0.004842 0.017371
v -0.000213 0.004865 0.017355
v -0.000712 0.004846 0.017369
v -0.000712 0.005072 0.017705
v -0.001212 0.005072 0.018205
v 0.001291 0.005078 0.018205
v -0.001711 0.004933 0.019205
v -0.002053 0.004778 0.019529
v -0.001711 0.004626 0.019862
v -0.001024 0.004755 0.019970
v -0.001202 0.004881 0.019737
v -0.000712 0.004787 0.019993
v -0.000213 0.004807 0.020007
v 0.000287 0.004800 0.020002
v 0.000792 0.004784 0.019992
v 0.001108 0.004762 0.019975
v 0.001281 0.004888 0.019732
v 0.001791 0.004817 0.019581
v 0.002102 0.004758 0.019496
v 0.001791 0.004897 0.019205
v 0.000287 0.004487 0.017246
v 0.000792 0.004487 0.017256
v 0.001291 0.004955 0.017705
v 0.001291 0.004784 0.017415
v 0.001746 0.004500 0.017363
v 0.001291 0.004487 0.017300
v -0.000213 0.004487 0.017240
v -0.000712 0.004487 0.017254
v -0.001212 0.004487 0.017299
v -0.001682 0.004510 0.017358
v -0.001212 0.004784 0.017414
v -0.001494 0.004745 0.017446
v -0.001212 0.004952 0.017705
v -0.001711 0.004933 0.018205
v -0.002053 0.004778 0.017853
v 0.001791 0.004897 0.018205
v 0.002102 0.004758 0.017898
v -0.002102 0.004800 0.019205
v -0.002350 0.004678 0.019205
v -0.002988 0.004255 0.019484
v -0.002711 0.004345 0.019597
v -0.002251 0.004503 0.019739
v -0.002444 0.004219 0.019949
v -0.002112 0.004309 0.019996
v -0.001711 0.004374 0.020015
v -0.000712 0.004487 0.020052
v -0.000213 0.004487 0.020066
v 0.000287 0.004487 0.020062
v 0.000792 0.004487 0.020051
v 0.001791 0.004361 0.020014
v 0.002201 0.004297 0.019994
v 0.002538 0.004232 0.019954
v 0.002320 0.004497 0.019725
v 0.002132 0.004771 0.019205
v 0.002790 0.004358 0.019622
v 0.003102 0.004271 0.019513
v 0.002790 0.004477 0.019205
v 0.002379 0.004674 0.019205
v 0.000287 0.001945 0.016977
v 0.002290 0.003986 0.017261
v 0.001791 0.003986 0.017227
v 0.001746 0.004800 0.017720
v 0.001880 0.004678 0.017564
v 0.001548 0.004739 0.017453
v 0.002290 0.004345 0.017376
v -0.000208 0.001952 0.016977
v -0.000504 0.001884 0.016977
v -0.001711 0.003986 0.017225
v -0.002211 0.003986 0.017262
v -0.002211 0.004358 0.017377
v -0.001830 0.004694 0.017520
v -0.001682 0.004820 0.017694
v -0.002102 0.004800 0.018205
v -0.002350 0.004678 0.018205
v -0.002216 0.004610 0.017694
v -0.002696 0.004345 0.017731
v -0.002988 0.004255 0.017914
v 0.002132 0.004771 0.018205
v 0.002379 0.004674 0.018205
v 0.002790 0.004477 0.018205
v 0.003102 0.004271 0.017874
v 0.002785 0.004355 0.017707
v 0.002276 0.004600 0.017720
v -0.002711 0.004455 0.019205
v -0.003002 0.004261 0.019205
v -0.003250 0.004093 0.019205
v -0.003576 0.003844 0.019205
v -0.003537 0.003809 0.019556
v -0.003176 0.003961 0.019687
v -0.002711 0.004135 0.019847
v -0.003032 0.003783 0.019985
v -0.002711 0.003883 0.020008
v -0.002251 0.004025 0.020027
v -0.001711 0.003986 0.020075
v -0.000213 0.000983 0.020175
v 0.001791 0.003986 0.020074
v 0.002340 0.004035 0.020027
v 0.002790 0.003906 0.020014
v 0.003161 0.003799 0.019994
v 0.002790 0.004158 0.019872
v 0.004131 0.003286 0.019987
v 0.005095 0.002766 0.019976
v 0.006060 0.002242 0.019962
v 0.018550 -0.004770 0.019956
v 0.018802 -0.004844 0.019875
v 0.004699 0.003324 0.019579
v 0.004066 0.003751 0.019480
v 0.003136 0.004290 0.019205
v 0.006624 0.002281 0.019528
v 0.007588 0.001761 0.019498
v 0.016759 -0.006088 0.016977
v 0.002785 0.004003 0.017346
v 0.003290 0.003486 0.017274
v 0.006792 0.001483 0.017265
v 0.005793 0.001984 0.017253
v 0.004793 0.002485 0.017243
v 0.003789 0.002985 0.017235
v 0.002790 0.003486 0.017228
v 0.002612 0.004274 0.017423
v 0.003290 0.003835 0.017388
v -0.000668 0.001829 0.016977
v -0.002711 0.003486 0.017237
v -0.003245 0.003518 0.017332
v -0.002696 0.003990 0.017355
v -0.003096 0.003828 0.017393
v -0.002518 0.004274 0.017427
v -0.002711 0.004455 0.018205
v -0.002849 0.004161 0.017581
v -0.003210 0.003983 0.017699
v -0.003537 0.003809 0.017818
v -0.003576 0.003844 0.018205
v -0.003250 0.004093 0.018205
v -0.003002 0.004261 0.018205
v 0.003136 0.004290 0.018205
v 0.002948 0.004183 0.017541
v 0.004066 0.003751 0.017919
v 0.007588 0.001761 0.017895
v -0.003824 0.003563 0.019205
v -0.003364 0.003644 0.019890
v -0.004002 0.003286 0.019515
v -0.003695 0.003466 0.019702
v -0.003522 0.003311 0.019990
v -0.003205 0.003483 0.020018
v -0.002711 0.003486 0.020067
v -0.000712 0.000983 0.020168
v -0.003215 0.002985 0.020070
v -0.001212 0.000485 0.020168
v -0.001212 -0.000015 0.020175
v 0.014800 -0.008022 0.020375
v 0.015800 -0.007522 0.020368
v 0.002790 0.003486 0.020073
v 0.016299 -0.007522 0.020360
v 0.003789 0.002985 0.020069
v 0.004793 0.002485 0.020060
v 0.009295 -0.000015 0.020056
v 0.018802 -0.005096 0.020014
v 0.015656 -0.003210 0.019991
v 0.011170 -0.000700 0.019994
v 0.007648 0.001293 0.019991
v 0.013282 -0.001611 0.019716
v 0.016621 -0.003727 0.019983
v 0.036150 -0.014721 0.019988
v 0.040637 -0.017231 0.019984
v 0.041601 -0.017751 0.019972
v 0.009582 0.000253 0.019970
v 0.014063 -0.002257 0.019963
v 0.038079 -0.015761 0.019964
v 0.034557 -0.013771 0.019957
v 0.041784 -0.017631 0.019710
v 0.033197 -0.012689 0.019571
v 0.018154 -0.004211 0.019543
v 0.010146 0.000291 0.019542
v 0.012075 -0.000752 0.019482
v 0.008553 0.001238 0.019463
v 0.007613 0.001774 0.019205
v 0.015597 -0.002741 0.019499
v 0.017744 -0.006591 0.016977
v 0.004793 0.002914 0.017358
v 0.007796 0.000983 0.017283
v 0.011298 -0.001017 0.017273
v 0.014800 -0.003019 0.017264
v 0.010294 -0.000516 0.017258
v 0.018303 -0.005018 0.017258
v 0.017298 -0.004518 0.017247
v 0.009295 -0.000015 0.017248
v 0.008296 0.000485 0.017239
v 0.018718 -0.007108 0.016977
v 0.003577 0.003754 0.017439
v 0.006134 0.002288 0.017416
v 0.005169 0.002808 0.017403
v 0.004205 0.003328 0.017391
v 0.006792 0.001851 0.017380
v 0.005793 0.002381 0.017368
v -0.001182 0.001445 0.016977
v -0.003215 0.002985 0.017233
v -0.003715 0.002485 0.017245
v -0.003730 0.002992 0.017339
v -0.003571 0.003373 0.017388
v -0.003433 0.003709 0.017484
v -0.003720 0.003496 0.017678
v -0.004002 0.003286 0.017872
v -0.003824 0.003563 0.018205
v 0.007613 0.001774 0.018205
v 0.008553 0.001238 0.017943
v 0.004541 0.003234 0.017456
v 0.015597 -0.002741 0.017893
v 0.031446 -0.011830 0.017556
v 0.038490 -0.015813 0.017515
v 0.014474 -0.002309 0.017519
v 0.012075 -0.000752 0.017917
v -0.004472 0.002746 0.019205
v -0.004467 0.002743 0.019464
v -0.003858 0.003105 0.019848
v -0.003992 0.002772 0.019973
v -0.004165 0.002924 0.019656
v -0.003700 0.002956 0.020010
v -0.003715 0.002485 0.020059
v -0.003715 0.001984 0.020075
v -0.004214 0.000983 0.020075
v -0.001212 -0.000516 0.020175
v 0.014800 -0.009521 0.020373
v 0.040810 -0.023526 0.020375
v 0.016299 -0.008022 0.020375
v 0.015300 -0.003520 0.020072
v 0.007291 0.000983 0.020071
v 0.040810 -0.021526 0.020371
v 0.039306 -0.017024 0.020072
v 0.035804 -0.015021 0.020069
v 0.031302 -0.012522 0.020072
v 0.011798 -0.001517 0.020069
v 0.008296 0.000485 0.020065
v 0.012797 -0.002018 0.020061
v 0.036808 -0.015522 0.020062
v 0.039306 -0.016617 0.020013
v 0.031663 -0.012211 0.019992
v 0.039667 -0.016714 0.019992
v 0.042224 -0.018193 0.019996
v 0.042561 -0.018274 0.019955
v 0.042165 -0.017715 0.019546
v 0.041201 -0.017192 0.019571
v 0.037683 -0.015202 0.019559
v 0.038643 -0.015722 0.019532
v 0.040572 -0.016766 0.019469
v 0.037050 -0.014776 0.019205
v 0.031604 -0.011743 0.019501
v 0.036086 -0.014253 0.019485
v 0.018303 -0.004637 0.017373
v 0.037807 -0.015622 0.017366
v 0.018797 -0.004999 0.017345
v 0.019302 -0.005519 0.017272
v 0.035304 -0.014521 0.017271
v 0.038806 -0.016523 0.017263
v 0.034305 -0.014020 0.017257
v 0.041309 -0.018025 0.017246
v 0.036808 -0.015522 0.017242
v 0.022230 -0.009101 0.016977
v 0.008063 0.001244 0.017447
v 0.014142 -0.002215 0.017415
v 0.008691 0.000818 0.017396
v 0.011298 -0.000665 0.017388
v 0.014800 -0.002651 0.017379
v 0.010294 -0.000135 0.017373
v -0.001256 0.001373 0.016977
v -0.001593 0.001018 0.016977
v -0.001652 0.000941 0.016977
v -0.004214 0.001483 0.017242
v -0.004214 0.001984 0.017295
v -0.004209 0.002443 0.017375
v -0.004036 0.002830 0.017405
v -0.003908 0.003163 0.017538
v -0.004190 0.002953 0.017740
v -0.004467 0.002743 0.017942
v -0.004472 0.002746 0.018205
v 0.037050 -0.014776 0.018205
v 0.040572 -0.016766 0.017935
v 0.041047 -0.017282 0.017466
v 0.036561 -0.014770 0.017453
v 0.036086 -0.014253 0.017912
v 0.031604 -0.011743 0.017890
v 0.038643 -0.015722 0.017849
v 0.041829 -0.017605 0.017680
v 0.042007 -0.017806 0.017497
v -0.004605 0.002485 0.019205
v -0.004823 0.001984 0.019205
v -0.005011 0.001357 0.019532
v -0.004536 0.002485 0.019562
v -0.004318 0.002485 0.019812
v -0.004407 0.002149 0.019921
v -0.004491 0.001816 0.019978
v -0.004066 0.002485 0.019999
v -0.004229 0.001984 0.020017
v -0.004214 0.001483 0.020062
v -0.004214 -0.001017 0.020075
v -0.004590 0.000983 0.020015
v -0.004615 0.000485 0.020015
v -0.004630 -0.000015 0.020015
v -0.003715 -0.002018 0.020075
v -0.003215 -0.003019 0.020072
v 0.015300 -0.010022 0.020372
v 0.039306 -0.023526 0.020371
v 0.040310 -0.024026 0.020348
v 0.041809 -0.026530 0.020075
v 0.042808 -0.026029 0.020067
v 0.043313 -0.025528 0.020070
v 0.041309 -0.023526 0.020342
v 0.041309 -0.023028 0.020367
v 0.041309 -0.022528 0.020372
v 0.040810 -0.022027 0.020373
v 0.019801 -0.006020 0.020069
v 0.041309 -0.022027 0.020368
v 0.043313 -0.019524 0.020072
v 0.042808 -0.019023 0.020061
v 0.041809 -0.018526 0.020075
v 0.040310 -0.017525 0.020066
v 0.041309 -0.018025 0.020057
v 0.041784 -0.018025 0.020013
v 0.042358 -0.018474 0.020027
v 0.042808 -0.018626 0.020001
v 0.043105 -0.018739 0.019977
v 0.043436 -0.018875 0.019856
v 0.043258 -0.018568 0.019665
v 0.043075 -0.018261 0.019474
v 0.042808 -0.018167 0.019594
v 0.042472 -0.017825 0.019205
v 0.042220 -0.017683 0.019205
v 0.038806 -0.016152 0.017377
v 0.041309 -0.017609 0.017361
v 0.038317 -0.015997 0.017338
v 0.036308 -0.015021 0.017290
v 0.039810 -0.017024 0.017280
v 0.042309 -0.018526 0.017258
v 0.041809 -0.018526 0.017225
v 0.025737 -0.011097 0.016977
v 0.023180 -0.009640 0.016977
v 0.040083 -0.016759 0.017444
v 0.016700 -0.003685 0.017396
v 0.039118 -0.016239 0.017428
v 0.041675 -0.017709 0.017407
v 0.037189 -0.015196 0.017401
v -0.001697 0.000834 0.016977
v -0.004214 0.000983 0.017225
v -0.004679 0.000983 0.017340
v -0.004610 0.001483 0.017357
v -0.004521 0.001984 0.017410
v -0.004472 0.002249 0.017449
v -0.004373 0.002581 0.017609
v -0.004526 0.002443 0.017747
v -0.005011 0.001357 0.017849
v -0.004823 0.001984 0.018205
v -0.004605 0.002485 0.018205
v 0.042220 -0.017683 0.018205
v 0.042472 -0.017825 0.018205
v 0.042165 -0.017715 0.017830
v 0.039608 -0.016246 0.017888
v 0.042620 -0.018232 0.017422
v 0.042323 -0.017890 0.017680
v -0.005031 0.001419 0.019205
v -0.005144 0.000983 0.019205
v -0.005055 0.000983 0.019604
v -0.004843 0.000983 0.019854
v -0.004625 0.001984 0.019735
v -0.004541 0.001483 0.020002
v -0.004214 -0.001517 0.020064
v -0.004625 -0.000516 0.020015
v -0.004590 -0.001017 0.020015
v -0.004867 0.000485 0.019894
v -0.004877 -0.000015 0.019907
v -0.003715 -0.002519 0.020054
v -0.003700 -0.002984 0.020008
v -0.003527 -0.003332 0.019991
v -0.003190 -0.003507 0.020014
v -0.002711 -0.003520 0.020061
v -0.001711 -0.004017 0.020075
v 0.014800 -0.010022 0.020352
v 0.037308 -0.026029 0.020073
v 0.038307 -0.026530 0.020074
v 0.039810 -0.024026 0.020346
v 0.040310 -0.027030 0.020066
v 0.040810 -0.027030 0.020052
v 0.041809 -0.026917 0.020015
v 0.042210 -0.026853 0.019996
v 0.042348 -0.026568 0.020027
v 0.042808 -0.026426 0.020008
v 0.043303 -0.026026 0.020018
v 0.043797 -0.025499 0.020010
v 0.043812 -0.025028 0.020059
v 0.044312 -0.024026 0.020062
v 0.044312 -0.023526 0.020075
v 0.044312 -0.021526 0.020075
v 0.044312 -0.021026 0.020064
v 0.043812 -0.020025 0.020054
v 0.043797 -0.019559 0.020008
v 0.043624 -0.019211 0.019991
v 0.043288 -0.019036 0.020014
v 0.043788 -0.019046 0.019687
v 0.043619 -0.018729 0.019522
v 0.043649 -0.018704 0.019205
v 0.043332 -0.018455 0.019205
v 0.043080 -0.018258 0.019205
v 0.042808 -0.018058 0.019205
v 0.032707 -0.012686 0.017395
v 0.040711 -0.017189 0.017395
v 0.042309 -0.018142 0.017373
v 0.041829 -0.017993 0.017334
v 0.042793 -0.018526 0.017357
v 0.043323 -0.019004 0.017336
v 0.042808 -0.019023 0.017243
v 0.041270 -0.021074 0.016977
v -0.001796 0.000485 0.016977
v -0.004214 -0.001017 0.017225
v -0.004714 -0.000015 0.017329
v -0.001810 0.000359 0.016977
v -0.001835 -0.000015 0.016977
v -0.004763 0.000495 0.017360
v -0.004961 0.000666 0.017459
v -0.004932 0.000983 0.017503
v -0.004872 0.001509 0.017691
v -0.004699 0.001984 0.017705
v -0.005055 0.000983 0.017754
v -0.005144 0.000983 0.018205
v -0.005031 0.001419 0.018205
v 0.042808 -0.018058 0.018205
v 0.043075 -0.018261 0.017929
v 0.042793 -0.018164 0.017739
v 0.042952 -0.018361 0.017595
v 0.043496 -0.018826 0.017528
v 0.043164 -0.018694 0.017402
v -0.005194 0.000485 0.019205
v -0.005080 0.000485 0.019644
v -0.004224 -0.002018 0.020018
v -0.004541 -0.001517 0.020004
v -0.004872 -0.000516 0.019901
v -0.005090 -0.000015 0.019656
v -0.005090 -0.000516 0.019651
v -0.004056 -0.002519 0.019994
v -0.003982 -0.002793 0.019967
v -0.003339 -0.003668 0.019856
v -0.003007 -0.003804 0.019977
v -0.003858 -0.003126 0.019852
v -0.003690 -0.003497 0.019687
v -0.002711 -0.003917 0.020001
v -0.002261 -0.004069 0.020027
v -0.001212 -0.004518 0.020057
v -0.000213 -0.005018 0.020066
v 0.000792 -0.005519 0.020072
v 0.004294 -0.007522 0.020069
v 0.008795 -0.010022 0.020072
v 0.024798 -0.019023 0.020072
v 0.032806 -0.023526 0.020071
v 0.036308 -0.025528 0.020069
v 0.037308 -0.026449 0.020014
v 0.037758 -0.026578 0.020027
v 0.038307 -0.026904 0.020014
v 0.039306 -0.027030 0.020051
v 0.039810 -0.027030 0.020062
v 0.040310 -0.027350 0.020007
v 0.040810 -0.027331 0.019993
v 0.042541 -0.026762 0.019949
v 0.043130 -0.026326 0.019985
v 0.041121 -0.027298 0.019970
v 0.041809 -0.027169 0.019862
v 0.043619 -0.025854 0.019990
v 0.044089 -0.025315 0.019973
v 0.044164 -0.025028 0.019999
v 0.044327 -0.024527 0.020017
v 0.044638 -0.024026 0.020002
v 0.044688 -0.023526 0.020015
v 0.044713 -0.023028 0.020015
v 0.044727 -0.022528 0.020015
v 0.044722 -0.022027 0.020015
v 0.044688 -0.021526 0.020015
v 0.044638 -0.021026 0.020004
v 0.044322 -0.020525 0.020018
v 0.044154 -0.020025 0.019994
v 0.044079 -0.019750 0.019967
v 0.043956 -0.019417 0.019852
v 0.044099 -0.019217 0.019519
v 0.043896 -0.018939 0.019205
v 0.043649 -0.018704 0.018205
v 0.043332 -0.018455 0.018205
v 0.043080 -0.018258 0.018205
v 0.043313 -0.019524 0.017231
v 0.043674 -0.019159 0.017386
v 0.043827 -0.019521 0.017341
v 0.041745 -0.021575 0.016977
v -0.004214 -0.001517 0.017240
v -0.004674 -0.001017 0.017340
v -0.001786 -0.000516 0.016977
v -0.001647 -0.000965 0.016977
v -0.004763 -0.000555 0.017357
v -0.004976 -0.000413 0.017444
v -0.004976 -0.000015 0.017444
v -0.005100 -0.000015 0.017705
v -0.005060 0.000495 0.017657
v -0.005194 0.000485 0.018205
v 0.043619 -0.018729 0.017862
v 0.043812 -0.019023 0.017697
v 0.044005 -0.019353 0.017533
v -0.005214 -0.000015 0.019205
v -0.004496 -0.001850 0.019981
v -0.004838 -0.001017 0.019840
v -0.005214 -0.000516 0.019205
v -0.005045 -0.001017 0.019590
v -0.004091 -0.002984 0.019693
v -0.004402 -0.002183 0.019918
v -0.004556 -0.002412 0.019585
v -0.003522 -0.003814 0.019522
v -0.003161 -0.003975 0.019665
v -0.002463 -0.004269 0.019955
v -0.002127 -0.004350 0.019996
v -0.004002 -0.003326 0.019519
v -0.001687 -0.004518 0.020013
v 0.000792 -0.005926 0.020013
v 0.003290 -0.007021 0.020062
v 0.031802 -0.023028 0.020065
v 0.020296 -0.016523 0.020069
v 0.028300 -0.021026 0.020069
v 0.035304 -0.025028 0.020060
v 0.032450 -0.023836 0.019991
v 0.036937 -0.026342 0.019994
v 0.037896 -0.026840 0.019994
v 0.030803 -0.022528 0.020056
v 0.021295 -0.017447 0.020014
v 0.024441 -0.019333 0.019991
v 0.028928 -0.021843 0.019994
v 0.038989 -0.027305 0.019975
v 0.039306 -0.027327 0.019992
v 0.039810 -0.027343 0.020002
v 0.040310 -0.027595 0.019706
v 0.040810 -0.027557 0.019706
v 0.042348 -0.027046 0.019739
v 0.042808 -0.026888 0.019597
v 0.042808 -0.026678 0.019847
v 0.043461 -0.026187 0.019890
v 0.041299 -0.027424 0.019737
v 0.041809 -0.027379 0.019612
v 0.042150 -0.027321 0.019529
v 0.043956 -0.025648 0.019848
v 0.044262 -0.025467 0.019656
v 0.044564 -0.025286 0.019464
v 0.044416 -0.025028 0.019812
v 0.044505 -0.024692 0.019921
v 0.044589 -0.024359 0.019978
v 0.044940 -0.023526 0.019854
v 0.044965 -0.023028 0.019894
v 0.044975 -0.022528 0.019907
v 0.044970 -0.022027 0.019901
v 0.044935 -0.021526 0.019840
v 0.044594 -0.020693 0.019981
v 0.044188 -0.019559 0.019693
v 0.044500 -0.020360 0.019918
v 0.044653 -0.020131 0.019585
v 0.044703 -0.020060 0.019205
v 0.044539 -0.019808 0.019205
v 0.044351 -0.019524 0.019205
v 0.044124 -0.019191 0.019205
v 0.043896 -0.018939 0.018205
v 0.043812 -0.020025 0.017250
v 0.044312 -0.021026 0.017240
v 0.044119 -0.019685 0.017411
v 0.044297 -0.020073 0.017381
v 0.044312 -0.020525 0.017295
v 0.041888 -0.022027 0.016977
v -0.003215 -0.003019 0.017231
v -0.003715 -0.002519 0.017250
v -0.004214 -0.002018 0.017295
v -0.004605 -0.001517 0.017355
v -0.004961 -0.000745 0.017457
v -0.001177 -0.001472 0.016977
v -0.005070 -0.000555 0.017656
v -0.005214 -0.000516 0.018205
v -0.005214 -0.000015 0.018205
v 0.044099 -0.019217 0.017867
v 0.044213 -0.019521 0.017702
v 0.044564 -0.020270 0.017451
v -0.004996 -0.001378 0.019512
v -0.004630 -0.002018 0.019733
v -0.005130 -0.001017 0.019205
v -0.004833 -0.002018 0.019205
v -0.004605 -0.002483 0.019205
v -0.002978 -0.004282 0.019474
v -0.003799 -0.003604 0.019205
v -0.003552 -0.003840 0.019205
v -0.001504 -0.004792 0.019972
v -0.002711 -0.004376 0.019594
v -0.002068 -0.004828 0.019546
v -0.001687 -0.004912 0.019710
v 0.005540 -0.008772 0.019957
v 0.002018 -0.006782 0.019964
v -0.000539 -0.005312 0.019984
v 0.000430 -0.005829 0.019992
v -0.004442 -0.002735 0.019205
v -0.004254 -0.003019 0.019205
v -0.004026 -0.003352 0.019205
v 0.008434 -0.010332 0.019992
v 0.027300 -0.020525 0.020061
v 0.035967 -0.025829 0.019987
v 0.037560 -0.026775 0.019954
v 0.003948 -0.007822 0.019988
v 0.038816 -0.027431 0.019732
v 0.039306 -0.027550 0.019706
v 0.038307 -0.027360 0.019581
v 0.039810 -0.027576 0.019706
v 0.040310 -0.027767 0.019205
v 0.040810 -0.027731 0.019205
v 0.043085 -0.026798 0.019484
v 0.043273 -0.026504 0.019687
v 0.043634 -0.026352 0.019556
v 0.043793 -0.026010 0.019702
v 0.041309 -0.027615 0.019205
v 0.042200 -0.027343 0.019205
v 0.042447 -0.027221 0.019205
v 0.041809 -0.027476 0.019205
v 0.044099 -0.025829 0.019515
v 0.044569 -0.025289 0.019205
v 0.044703 -0.025028 0.019205
v 0.044920 -0.024527 0.019205
v 0.045108 -0.023900 0.019532
v 0.044633 -0.025028 0.019562
v 0.043921 -0.026106 0.019205
v 0.044722 -0.024527 0.019735
v 0.045153 -0.023526 0.019604
v 0.045178 -0.023028 0.019644
v 0.045187 -0.022528 0.019656
v 0.045187 -0.022027 0.019651
v 0.045143 -0.021526 0.019590
v 0.045093 -0.021165 0.019512
v 0.044727 -0.020525 0.019733
v 0.044930 -0.020525 0.019205
v 0.044703 -0.020060 0.018205
v 0.044539 -0.019808 0.018205
v 0.044351 -0.019524 0.018205
v 0.044124 -0.019191 0.018205
v 0.044703 -0.021026 0.017355
v 0.044772 -0.021526 0.017340
v 0.044312 -0.021526 0.017225
v 0.044619 -0.020525 0.017410
v 0.041928 -0.022528 0.016977
v -0.002711 -0.003520 0.017243
v -0.003225 -0.003539 0.017336
v -0.003730 -0.003022 0.017341
v -0.004200 -0.002470 0.017381
v -0.004521 -0.002018 0.017410
v -0.004927 -0.001017 0.017522
v -0.005045 -0.001017 0.017772
v -0.001711 -0.004017 0.017225
v 0.014360 -0.011446 0.016977
v -0.005130 -0.001017 0.018205
v 0.044633 -0.020163 0.017705
v 0.044470 -0.019911 0.017705
v 0.044802 -0.020525 0.017705
v 0.044965 -0.021010 0.017707
v 0.045024 -0.021526 0.017522
v -0.004942 -0.001685 0.019205
v -0.004833 -0.002018 0.018205
v -0.004605 -0.002483 0.018205
v -0.003235 -0.004088 0.019205
v -0.002983 -0.004285 0.019205
v -0.002711 -0.004486 0.019205
v -0.002374 -0.004718 0.019205
v -0.003799 -0.003604 0.018205
v -0.003552 -0.003840 0.018205
v 0.021548 -0.017773 0.019956
v 0.026034 -0.020286 0.019963
v 0.030516 -0.022796 0.019970
v 0.035002 -0.025309 0.019976
v 0.023477 -0.018817 0.019983
v -0.001103 -0.005351 0.019571
v -0.000475 -0.005778 0.019469
v 0.001454 -0.006821 0.019532
v 0.002414 -0.007341 0.019559
v 0.006901 -0.009854 0.019571
v 0.021295 -0.017699 0.019875
v -0.004442 -0.002735 0.018205
v -0.004254 -0.003019 0.018205
v -0.004026 -0.003352 0.018205
v 0.037308 -0.026701 0.019872
v 0.037308 -0.026901 0.019622
v 0.037777 -0.027040 0.019725
v 0.034038 -0.024785 0.019962
v 0.038806 -0.027621 0.019205
v 0.039306 -0.027725 0.019205
v 0.037995 -0.027301 0.019496
v 0.039810 -0.027747 0.019205
v 0.040310 -0.027770 0.018705
v 0.040810 -0.027731 0.018205
v 0.043100 -0.026804 0.019205
v 0.043347 -0.026636 0.019205
v 0.043674 -0.026387 0.019205
v 0.042808 -0.026998 0.019205
v 0.041309 -0.027615 0.018205
v 0.042200 -0.027343 0.018205
v 0.042447 -0.027221 0.018205
v 0.041809 -0.027476 0.018205
v 0.044569 -0.025289 0.018205
v 0.044703 -0.025028 0.018205
v 0.045128 -0.023962 0.019205
v 0.044920 -0.024527 0.018205
v 0.045242 -0.023526 0.019205
v 0.043921 -0.026106 0.018205
v 0.045291 -0.023028 0.019205
v 0.045311 -0.022528 0.019205
v 0.045311 -0.022027 0.019205
v 0.045227 -0.021526 0.019205
v 0.045039 -0.020858 0.019205
v 0.044930 -0.020525 0.018205
v 0.045059 -0.021798 0.017457
v 0.044861 -0.021988 0.017357
v 0.044812 -0.022528 0.017329
v 0.045074 -0.022130 0.017444
v 0.044312 -0.023526 0.017225
v 0.041903 -0.022899 0.016977
v -0.002211 -0.004017 0.017258
v -0.002696 -0.004017 0.017357
v -0.003067 -0.003849 0.017402
v -0.003576 -0.003384 0.017386
v -0.004022 -0.002858 0.017411
v -0.004467 -0.002273 0.017451
v -0.004867 -0.001533 0.017707
v -0.004996 -0.001378 0.017876
v -0.001212 -0.004518 0.017246
v 0.016918 -0.012903 0.016977
v -0.004942 -0.001685 0.018205
v 0.045093 -0.021165 0.017876
v 0.045143 -0.021526 0.017772
v -0.004704 -0.002018 0.017705
v -0.004536 -0.002380 0.017705
v -0.004002 -0.003326 0.017867
v -0.003235 -0.004088 0.018205
v -0.002983 -0.004285 0.018205
v -0.002711 -0.004486 0.018205
v -0.002374 -0.004718 0.018205
v -0.002122 -0.004860 0.019205
v -0.003522 -0.003814 0.017862
v -0.002978 -0.004282 0.017929
v 0.004012 -0.008290 0.019485
v 0.003047 -0.007767 0.019205
v 0.031545 -0.023781 0.019463
v 0.028023 -0.021791 0.019482
v 0.024501 -0.019802 0.019499
v 0.008493 -0.010800 0.019501
v 0.021943 -0.018332 0.019543
v 0.035398 -0.025867 0.019579
v 0.026816 -0.020932 0.019716
v 0.036996 -0.026814 0.019513
v 0.038806 -0.027621 0.018205
v 0.038307 -0.027440 0.019205
v 0.039306 -0.027725 0.018205
v 0.037965 -0.027314 0.019205
v 0.037308 -0.027020 0.019205
v 0.037718 -0.027217 0.019205
v 0.040310 -0.027770 0.018205
v 0.040810 -0.027615 0.017705
v 0.043100 -0.026804 0.018205
v 0.043347 -0.026636 0.018205
v 0.043674 -0.026387 0.018205
v 0.042808 -0.026998 0.018205
v 0.041309 -0.027495 0.017705
v 0.042150 -0.027321 0.017853
v 0.043085 -0.026798 0.017914
v 0.044564 -0.025286 0.017942
v 0.045128 -0.023962 0.018205
v 0.045108 -0.023900 0.017849
v 0.045242 -0.023526 0.018205
v 0.043634 -0.026352 0.017818
v 0.044099 -0.025829 0.017872
v 0.045291 -0.023028 0.018205
v 0.045311 -0.022528 0.018205
v 0.045311 -0.022027 0.018205
v 0.045227 -0.021526 0.018205
v 0.045039 -0.020858 0.018205
v 0.045168 -0.021988 0.017656
v 0.045074 -0.022528 0.017444
v 0.044861 -0.023038 0.017360
v 0.044777 -0.023526 0.017340
v 0.045197 -0.022528 0.017705
v 0.044312 -0.024026 0.017242
v 0.041789 -0.023374 0.016977
v 0.041888 -0.023028 0.016977
v 0.001291 -0.006020 0.017263
v 0.000287 -0.005519 0.017280
v -0.001731 -0.004550 0.017334
v -0.002211 -0.004402 0.017373
v -0.002523 -0.004311 0.017422
v -0.003398 -0.003717 0.017528
v -0.003908 -0.003190 0.017533
v -0.004115 -0.003022 0.017702
v -0.004373 -0.002632 0.017705
v 0.005793 -0.008523 0.017257
v 0.017867 -0.013442 0.016977
v 0.021379 -0.015435 0.016977
v 0.003290 -0.007021 0.017242
v 0.022799 -0.018025 0.017247
v -0.003715 -0.003520 0.017697
v -0.002068 -0.004828 0.017830
v -0.000475 -0.005778 0.017935
v -0.002122 -0.004860 0.018205
v -0.002854 -0.004182 0.017595
v -0.002696 -0.004379 0.017739
v 0.032485 -0.024317 0.019205
v 0.003047 -0.007767 0.018205
v 0.036961 -0.026833 0.019205
v 0.036031 -0.026294 0.019480
v 0.032509 -0.024304 0.019498
v 0.029952 -0.022835 0.019542
v 0.033474 -0.024824 0.019528
v 0.038806 -0.027498 0.017705
v 0.039306 -0.027605 0.017705
v 0.038307 -0.027440 0.018205
v 0.037995 -0.027301 0.017898
v 0.039810 -0.027634 0.017705
v 0.037965 -0.027314 0.018205
v 0.037308 -0.027020 0.018205
v 0.037718 -0.027217 0.018205
v 0.040310 -0.027654 0.017705
v 0.040810 -0.027389 0.017369
v 0.041309 -0.027327 0.017414
v 0.041591 -0.027289 0.017446
v 0.041928 -0.027237 0.017520
v 0.041779 -0.027363 0.017694
v 0.042313 -0.027153 0.017694
v 0.042793 -0.026888 0.017731
v 0.042947 -0.026704 0.017581
v 0.043308 -0.026526 0.017699
v 0.044569 -0.024792 0.017449
v 0.044624 -0.024986 0.017747
v 0.044287 -0.025496 0.017740
v 0.044470 -0.025125 0.017609
v 0.044970 -0.024052 0.017691
v 0.045029 -0.023526 0.017503
v 0.045153 -0.023526 0.017754
v 0.044797 -0.024527 0.017705
v 0.043530 -0.026252 0.017484
v 0.043817 -0.026039 0.017678
v 0.044005 -0.025706 0.017538
v 0.045158 -0.023038 0.017657
v 0.045059 -0.023209 0.017459
v 0.044708 -0.024026 0.017357
v 0.044312 -0.024527 0.017295
v 0.043812 -0.025028 0.017245
v 0.041745 -0.023481 0.016977
v 0.004793 -0.008022 0.017271
v 0.021795 -0.017525 0.017258
v 0.025297 -0.019524 0.017264
v -0.001212 -0.004935 0.017361
v 0.020796 -0.017024 0.017272
v 0.003789 -0.007522 0.017290
v 0.001781 -0.006546 0.017338
v 0.001291 -0.006391 0.017377
v -0.000613 -0.005354 0.017395
v -0.001578 -0.004834 0.017407
v -0.000950 -0.005261 0.017466
v -0.001909 -0.004737 0.017497
v -0.002226 -0.004654 0.017680
v 0.022354 -0.015952 0.016977
v 0.037308 -0.026029 0.017228
v 0.036308 -0.025528 0.017235
v 0.035304 -0.025028 0.017243
v 0.031802 -0.023028 0.017239
v 0.030803 -0.022528 0.017248
v 0.034305 -0.024527 0.017253
v 0.000490 -0.006298 0.017888
v -0.001731 -0.004938 0.017680
v 0.001454 -0.006821 0.017849
v 0.004012 -0.008290 0.017912
v 0.028023 -0.021791 0.017917
v 0.031545 -0.023781 0.017943
v 0.032485 -0.024317 0.018205
v 0.036961 -0.026833 0.018205
v 0.038806 -0.027327 0.017415
v 0.038351 -0.027343 0.017720
v 0.038218 -0.027221 0.017564
v 0.038549 -0.027282 0.017453
v 0.039306 -0.027385 0.017371
v 0.036996 -0.026814 0.017874
v 0.037312 -0.026898 0.017707
v 0.037822 -0.027143 0.017720
v 0.039810 -0.027398 0.017360
v 0.040310 -0.027408 0.017355
v 0.040810 -0.027030 0.017254
v 0.041309 -0.027030 0.017299
v 0.041779 -0.027053 0.017358
v 0.042309 -0.026901 0.017377
v 0.042615 -0.026817 0.017427
v 0.044619 -0.024527 0.017410
v 0.044134 -0.025373 0.017405
v 0.044307 -0.024986 0.017375
v 0.043194 -0.026371 0.017393
v 0.043669 -0.025916 0.017388
v 0.043827 -0.025535 0.017339
v 0.043342 -0.026061 0.017332
v 0.043313 -0.025528 0.017233
v 0.041690 -0.023558 0.016977
v 0.029803 -0.022027 0.017258
v 0.028799 -0.021526 0.017273
v 0.033306 -0.024026 0.017265
v 0.002290 -0.006921 0.017366
v 0.021300 -0.017544 0.017345
v 0.007390 -0.009857 0.017395
v 0.002909 -0.007347 0.017401
v 0.021795 -0.017906 0.017373
v 0.025297 -0.019892 0.017379
v 0.023398 -0.018859 0.017396
v 0.000980 -0.006304 0.017428
v 0.000015 -0.005784 0.017444
v 0.025955 -0.020328 0.017415
v 0.001608 -0.006730 0.017515
v 0.003537 -0.007774 0.017453
v 0.035556 -0.025777 0.017456
v 0.025624 -0.020234 0.017519
v 0.023338 -0.016456 0.016977
v 0.038307 -0.026530 0.017227
v 0.037807 -0.026530 0.017261
v 0.008652 -0.010713 0.017556
v 0.024501 -0.019802 0.017893
v 0.008493 -0.010800 0.017890
v 0.036031 -0.026294 0.017919
v 0.037807 -0.026888 0.017376
v 0.038351 -0.027043 0.017363
v 0.037486 -0.026817 0.017423
v 0.039306 -0.027030 0.017256
v 0.038806 -0.027030 0.017300
v 0.032509 -0.024304 0.017895
v 0.037149 -0.026727 0.017541
v 0.039810 -0.027030 0.017246
v 0.040310 -0.027030 0.017240
v 0.041809 -0.026530 0.017225
v 0.042309 -0.026530 0.017262
v 0.042793 -0.026533 0.017355
v 0.042808 -0.026029 0.017237
v 0.041285 -0.023991 0.016977
v 0.032302 -0.023526 0.017283
v 0.035304 -0.025457 0.017358
v 0.036808 -0.026029 0.017274
v 0.034305 -0.024924 0.017368
v 0.029803 -0.022408 0.017373
v 0.033306 -0.024395 0.017380
v 0.028799 -0.021878 0.017388
v 0.031406 -0.023361 0.017396
v 0.032034 -0.023787 0.017447
v 0.033964 -0.024831 0.017416
v 0.036521 -0.026297 0.017439
v 0.039806 -0.024462 0.016977
v 0.037312 -0.026546 0.017346
v 0.036808 -0.026378 0.017388
v 0.034928 -0.025351 0.017403
v 0.040196 -0.024508 0.016977
v 0.040310 -0.024508 0.016977
v 0.040627 -0.024437 0.016977
v 0.040770 -0.024388 0.016977
v 0.035893 -0.025871 0.017391
f 169 242 171
f 171 242 245
f 780 847 844
f 841 779 778
f 744 788 791
f 789 788 744
f 245 242 327
f 245 329 330
f 410 411 330
f 168 242 169
f 596 525 524
f 559 636 637
f 637 636 716
f 639 627 708
f 846 780 785
f 847 780 846
f 717 780 782
f 850 783 782
f 782 849 850
f 751 814 815
f 754 814 751
f 888 894 832
f 319 318 393
f 559 637 638
f 638 637 640
f 858 859 796
f 860 796 859
f 858 796 857
f 776 779 773
f 556 632 630
f 595 525 596
f 528 600 604
f 604 605 528
f 600 605 604
f 106 107 59
f 59 27 58
f 231 303 304
f 409 329 408
f 408 490 409
f 410 330 409
f 409 330 329
f 412 330 411
f 325 406 407
f 323 403 404
f 640 637 562
f 325 407 326
f 326 329 245
f 245 327 326
f 408 329 326
f 326 407 408
f 256 183 182
f 256 338 257
f 257 183 256
f 332 333 245
f 245 333 246
f 246 171 245
f 240 168 239
f 240 317 318
f 239 317 240
f 114 168 169
f 715 780 717
f 718 637 716
f 786 783 850
f 850 855 786
f 478 552 553
f 719 784 785
f 785 780 719
f 633 639 559
f 627 639 633
f 717 782 781
f 781 782 783
f 845 780 844
f 845 782 780
f 844 849 848
f 848 782 844
f 849 782 848
f 751 815 816
f 816 815 820
f 820 815 886
f 814 754 818
f 750 754 751
f 540 539 617
f 620 700 701
f 468 393 467
f 536 469 467
f 469 468 467
f 392 393 318
f 318 317 392
f 686 609 603
f 319 395 396
f 395 473 396
f 396 320 319
f 321 320 397
f 320 396 397
f 477 551 552
f 477 552 478
f 304 303 376
f 376 377 304
f 661 660 736
f 290 220 289
f 429 507 508
f 558 633 559
f 557 633 558
f 797 798 730
f 730 796 797
f 796 860 797
f 843 784 779
f 909 859 858
f 854 846 785
f 847 846 854
f 504 578 582
f 578 655 582
f 654 655 578
f 594 580 579
f 656 580 594
f 904 849 844
f 904 857 849
f 858 857 904
f 779 784 775
f 784 719 775
f 712 779 776
f 712 778 779
f 556 630 631
f 648 646 724
f 724 646 723
f 127 126 193
f 126 192 193
f 143 89 88
f 144 89 143
f 50 89 51
f 51 89 90
f 88 47 87
f 47 46 87
f 48 47 88
f 579 580 503
f 612 530 611
f 613 530 612
f 601 530 613
f 526 602 600
f 526 601 602
f 530 601 526
f 304 377 378
f 528 605 606
f 303 231 302
f 289 220 219
f 219 218 289
f 145 89 144
f 144 218 145
f 218 147 145
f 90 89 145
f 94 90 145
f 338 412 339
f 339 257 338
f 330 412 413
f 413 412 338
f 405 406 325
f 323 404 405
f 319 320 241
f 241 320 321
f 325 326 241
f 241 326 327
f 168 240 241
f 241 327 242
f 242 168 241
f 241 318 319
f 241 240 318
f 478 403 402
f 563 562 637
f 483 405 404
f 486 407 406
f 561 638 640
f 640 562 561
f 255 335 256
f 256 182 255
f 255 253 335
f 120 182 180
f 180 182 183
f 245 330 331
f 331 332 245
f 330 413 331
f 32 66 67
f 170 117 115
f 68 67 115
f 169 171 115
f 115 171 170
f 115 67 66
f 115 114 169
f 66 114 115
f 333 249 328
f 172 117 170
f 172 173 117
f 170 171 172
f 250 249 333
f 173 172 250
f 250 172 249
f 247 248 171
f 171 246 247
f 247 246 333
f 333 328 247
f 780 715 714
f 714 719 780
f 635 636 559
f 564 642 643
f 643 642 721
f 721 722 643
f 643 722 644
f 721 642 720
f 552 551 626
f 626 553 552
f 627 553 626
f 625 551 556
f 627 626 625
f 625 626 551
f 708 627 625
f 625 707 708
f 625 631 709
f 556 631 625
f 557 553 628
f 628 553 627
f 628 633 557
f 627 633 628
f 478 553 481
f 481 403 478
f 481 404 403
f 844 782 851
f 851 845 844
f 782 845 851
f 931 930 962
f 778 710 777
f 877 878 810
f 665 588 666
f 936 894 888
f 888 886 936
f 887 886 888
f 820 886 887
f 753 681 680
f 754 681 753
f 932 963 953
f 894 895 829
f 829 832 894
f 833 832 829
f 702 700 621
f 765 829 826
f 472 473 395
f 539 540 470
f 469 537 470
f 470 538 539
f 470 542 543
f 621 700 619
f 700 620 619
f 686 603 685
f 616 538 543
f 616 609 686
f 686 685 616
f 539 538 616
f 617 539 616
f 616 685 617
f 536 467 535
f 535 467 465
f 466 393 465
f 465 467 466
f 466 467 393
f 465 393 464
f 391 392 317
f 528 606 607
f 607 606 692
f 542 533 532
f 542 470 541
f 541 470 537
f 534 469 536
f 534 537 469
f 475 397 474
f 474 396 473
f 474 397 396
f 398 397 475
f 398 399 321
f 321 397 398
f 550 480 556
f 550 477 480
f 556 551 550
f 551 477 550
f 480 477 400
f 321 399 400
f 400 477 478
f 478 402 400
f 556 480 555
f 480 400 479
f 479 555 480
f 554 555 479
f 713 710 778
f 629 632 556
f 556 555 629
f 629 555 624
f 664 590 589
f 673 595 597
f 597 595 522
f 368 367 440
f 440 367 439
f 429 430 360
f 285 360 361
f 361 360 430
f 284 285 215
f 215 214 284
f 142 143 88
f 144 143 142
f 214 215 142
f 365 290 289
f 598 595 673
f 525 595 598
f 667 590 664
f 583 508 588
f 583 659 660
f 432 507 429
f 429 360 432
f 432 360 431
f 494 412 411
f 492 411 410
f 410 409 492
f 567 566 644
f 490 566 491
f 491 409 490
f 566 567 491
f 491 567 568
f 491 492 409
f 568 492 491
f 442 498 515
f 515 445 442
f 906 909 858
f 906 904 844
f 858 904 906
f 785 784 853
f 853 854 785
f 844 847 905
f 847 854 905
f 905 906 844
f 908 909 905
f 909 906 905
f 504 427 501
f 501 503 577
f 501 578 504
f 501 577 578
f 427 351 426
f 426 501 427
f 657 655 730
f 657 582 655
f 653 654 578
f 774 773 779
f 779 775 774
f 568 646 647
f 645 722 723
f 723 646 645
f 644 722 645
f 645 567 644
f 645 646 568
f 568 567 645
f 127 193 194
f 194 193 263
f 156 225 154
f 155 229 156
f 156 229 225
f 227 301 295
f 85 46 78
f 47 48 22
f 141 87 140
f 140 213 141
f 141 213 214
f 88 87 141
f 141 142 88
f 214 142 141
f 88 89 49
f 49 48 88
f 49 22 48
f 49 89 50
f 50 22 49
f 50 51 23
f 23 22 50
f 154 227 228
f 228 227 295
f 354 295 357
f 354 296 295
f 357 295 374
f 295 301 374
f 374 445 446
f 301 375 374
f 592 593 517
f 517 594 579
f 593 594 517
f 525 530 523
f 530 458 523
f 455 524 525
f 525 523 455
f 455 523 458
f 527 600 528
f 527 526 600
f 459 458 530
f 530 526 459
f 447 378 377
f 149 150 96
f 218 219 149
f 149 219 220
f 220 221 149
f 149 221 150
f 106 59 105
f 32 14 31
f 12 29 30
f 108 59 107
f 27 59 60
f 59 108 60
f 60 108 109
f 12 27 28
f 28 29 12
f 304 378 379
f 58 27 57
f 234 159 231
f 230 302 231
f 95 147 96
f 94 145 95
f 95 145 147
f 337 338 256
f 337 413 338
f 324 405 325
f 323 405 324
f 325 241 324
f 324 241 323
f 322 241 321
f 323 241 322
f 322 403 323
f 322 402 403
f 641 563 637
f 637 718 641
f 718 720 641
f 641 720 642
f 406 405 484
f 405 483 484
f 484 483 562
f 485 486 406
f 406 484 485
f 485 484 562
f 562 563 485
f 485 563 564
f 564 486 485
f 565 486 564
f 564 643 565
f 644 566 565
f 565 643 644
f 408 407 488
f 482 558 559
f 557 558 482
f 482 553 557
f 482 481 553
f 562 483 482
f 482 561 562
f 482 483 404
f 404 481 482
f 181 182 120
f 181 255 182
f 263 193 262
f 262 193 192
f 262 258 343
f 116 115 117
f 333 332 334
f 332 331 334
f 335 253 334
f 117 173 174
f 174 175 117
f 243 328 249
f 249 172 243
f 171 248 243
f 248 247 243
f 243 247 328
f 65 31 64
f 65 66 32
f 32 31 65
f 113 114 66
f 66 65 113
f 113 65 64
f 634 635 559
f 559 639 634
f 795 787 786
f 795 786 855
f 788 787 795
f 791 788 795
f 706 625 709
f 707 625 706
f 945 968 946
f 950 912 911
f 911 949 950
f 911 912 860
f 911 860 859
f 950 949 969
f 946 968 969
f 969 949 946
f 907 903 902
f 946 949 947
f 802 732 801
f 952 953 963
f 963 964 952
f 880 877 932
f 875 931 932
f 930 931 875
f 733 732 802
f 733 659 732
f 736 660 735
f 660 659 735
f 814 818 873
f 884 883 935
f 885 886 815
f 885 936 886
f 815 884 885
f 754 750 749
f 895 939 896
f 896 829 895
f 943 895 894
f 926 929 943
f 961 939 943
f 943 939 895
f 871 929 926
f 766 702 768
f 700 702 766
f 698 621 617
f 698 702 621
f 821 769 764
f 764 769 702
f 833 829 831
f 469 470 394
f 394 470 395
f 394 395 319
f 319 393 394
f 394 468 469
f 394 393 468
f 540 472 471
f 471 470 540
f 471 472 395
f 395 470 471
f 543 538 544
f 544 470 543
f 538 470 544
f 624 548 623
f 704 624 623
f 622 620 701
f 617 621 545
f 621 619 545
f 545 540 617
f 545 472 540
f 545 619 620
f 682 692 617
f 682 607 692
f 393 392 463
f 463 464 393
f 465 464 463
f 463 535 465
f 533 534 463
f 536 535 463
f 463 534 536
f 390 391 317
f 618 616 543
f 609 616 618
f 543 542 614
f 542 532 614
f 614 618 543
f 615 534 533
f 537 534 615
f 615 541 537
f 615 533 542
f 542 541 615
f 475 548 476
f 476 398 475
f 399 398 476
f 476 400 399
f 476 479 400
f 554 479 549
f 549 548 624
f 549 476 548
f 479 476 549
f 624 555 549
f 549 555 554
f 778 712 711
f 711 713 778
f 512 589 590
f 522 453 521
f 521 597 522
f 521 452 518
f 521 453 452
f 366 364 437
f 437 367 366
f 364 367 437
f 431 360 428
f 434 361 433
f 433 361 430
f 362 361 434
f 434 435 362
f 285 361 362
f 284 214 283
f 289 218 288
f 288 365 289
f 364 365 288
f 525 598 599
f 611 530 599
f 599 530 525
f 747 753 680
f 813 753 747
f 739 667 664
f 664 589 587
f 429 508 505
f 508 583 505
f 732 659 658
f 659 583 658
f 658 665 732
f 588 665 658
f 658 583 588
f 412 494 495
f 493 494 411
f 568 494 493
f 411 492 493
f 493 492 568
f 516 515 592
f 445 515 516
f 592 517 516
f 516 517 445
f 352 351 427
f 730 798 731
f 731 657 730
f 581 580 656
f 656 653 581
f 581 653 578
f 578 577 581
f 577 503 581
f 581 503 580
f 849 857 856
f 850 849 856
f 856 855 850
f 856 795 855
f 792 795 856
f 730 655 728
f 655 654 728
f 726 744 791
f 654 653 726
f 726 653 656
f 496 495 569
f 569 495 494
f 570 494 568
f 568 647 570
f 294 229 223
f 223 229 155
f 223 222 293
f 223 293 294
f 154 225 226
f 226 227 154
f 372 375 301
f 294 371 372
f 372 371 442
f 140 87 86
f 86 87 46
f 46 85 86
f 16 35 36
f 38 77 73
f 22 23 8
f 52 51 90
f 52 23 51
f 22 8 21
f 21 46 47
f 47 22 21
f 503 501 425
f 501 426 425
f 442 445 444
f 445 374 444
f 446 445 502
f 445 517 502
f 502 517 579
f 579 503 502
f 502 425 446
f 503 425 502
f 768 702 770
f 702 769 770
f 819 821 757
f 757 756 819
f 687 606 605
f 605 690 687
f 687 690 606
f 692 606 691
f 606 690 691
f 291 221 220
f 220 290 291
f 290 365 291
f 368 369 291
f 291 364 366
f 291 365 364
f 291 367 368
f 366 367 291
f 148 149 96
f 218 149 148
f 96 147 148
f 148 147 218
f 96 150 151
f 103 59 58
f 27 60 61
f 61 28 27
f 316 317 239
f 239 312 316
f 378 447 448
f 518 452 448
f 448 447 518
f 520 453 522
f 520 451 453
f 385 448 452
f 305 304 380
f 305 231 304
f 157 230 231
f 231 159 157
f 157 107 106
f 157 159 107
f 336 331 413
f 413 337 336
f 336 337 256
f 256 335 336
f 335 334 336
f 336 334 331
f 321 400 401
f 401 322 321
f 401 400 402
f 402 322 401
f 407 486 487
f 487 488 407
f 486 565 487
f 565 488 487
f 489 566 490
f 489 490 408
f 408 488 489
f 489 565 566
f 489 488 565
f 638 561 560
f 561 482 560
f 559 638 560
f 560 482 559
f 294 293 370
f 370 371 294
f 342 258 257
f 257 258 188
f 121 180 183
f 120 180 121
f 121 71 120
f 35 16 34
f 68 115 69
f 115 116 69
f 69 34 68
f 35 34 69
f 175 174 251
f 173 250 251
f 251 174 173
f 177 178 117
f 178 177 176
f 176 181 120
f 120 178 176
f 117 175 176
f 176 177 117
f 118 178 120
f 117 178 118
f 120 71 118
f 244 172 171
f 171 243 244
f 244 243 172
f 29 28 63
f 63 113 64
f 64 31 63
f 63 31 29
f 165 113 163
f 109 108 158
f 158 110 109
f 158 108 107
f 114 166 167
f 239 168 167
f 168 114 167
f 166 238 167
f 164 113 165
f 165 166 164
f 114 113 164
f 164 166 114
f 968 945 967
f 859 909 910
f 910 911 859
f 949 911 910
f 910 909 908
f 908 907 910
f 910 947 949
f 841 903 842
f 842 779 841
f 842 843 779
f 899 945 946
f 946 947 899
f 948 907 902
f 902 947 948
f 948 910 907
f 947 910 948
f 778 777 839
f 841 778 840
f 840 903 841
f 902 903 838
f 838 837 902
f 903 840 838
f 838 840 778
f 778 839 838
f 777 837 838
f 838 839 777
f 800 801 732
f 732 799 800
f 865 863 914
f 866 800 865
f 914 952 917
f 917 865 914
f 866 865 917
f 917 952 916
f 914 953 951
f 951 952 914
f 953 952 951
f 862 799 808
f 863 799 862
f 932 953 915
f 915 880 932
f 914 863 915
f 915 953 914
f 863 862 915
f 877 810 876
f 810 875 876
f 932 877 876
f 876 875 932
f 930 875 874
f 874 875 810
f 810 811 740
f 740 799 732
f 666 741 740
f 808 799 740
f 740 665 666
f 732 665 740
f 804 753 813
f 754 753 804
f 881 884 815
f 883 884 881
f 881 815 814
f 814 883 881
f 600 602 676
f 676 677 600
f 964 939 965
f 826 829 890
f 935 883 934
f 934 884 935
f 934 885 884
f 933 883 926
f 926 943 933
f 933 934 883
f 943 934 933
f 927 871 924
f 924 959 927
f 924 870 923
f 924 871 870
f 814 873 872
f 872 871 926
f 928 871 927
f 927 959 928
f 929 871 928
f 928 943 929
f 961 943 928
f 928 959 961
f 757 821 822
f 821 764 822
f 822 758 757
f 702 698 697
f 697 764 702
f 697 698 617
f 829 765 828
f 828 831 829
f 703 701 704
f 704 623 703
f 703 622 701
f 703 623 548
f 548 622 703
f 546 545 620
f 473 472 546
f 472 545 546
f 620 622 546
f 617 685 699
f 699 682 617
f 684 685 603
f 684 699 685
f 608 682 603
f 607 682 608
f 608 603 528
f 528 607 608
f 462 532 533
f 533 463 462
f 392 391 462
f 462 463 392
f 457 460 390
f 610 614 532
f 618 614 610
f 609 618 610
f 591 512 590
f 434 512 513
f 436 367 364
f 364 435 436
f 436 435 367
f 359 428 360
f 359 285 284
f 359 360 285
f 286 215 285
f 285 362 286
f 214 213 282
f 282 283 214
f 216 142 215
f 215 286 216
f 675 747 693
f 695 747 680
f 737 661 736
f 737 662 661
f 742 739 674
f 667 739 742
f 663 739 664
f 664 587 663
f 663 587 662
f 662 737 663
f 434 433 511
f 511 433 430
f 511 512 434
f 661 662 585
f 660 661 585
f 506 430 429
f 429 505 506
f 574 575 496
f 592 652 651
f 78 80 130
f 41 80 78
f 792 856 793
f 793 728 792
f 729 726 791
f 791 795 729
f 729 795 792
f 792 728 729
f 654 726 729
f 594 670 671
f 668 670 594
f 725 670 668
f 571 569 494
f 494 570 571
f 571 570 647
f 496 569 571
f 571 572 496
f 648 572 571
f 571 646 648
f 571 647 646
f 227 226 299
f 299 226 225
f 225 298 299
f 301 227 300
f 300 372 301
f 227 299 300
f 300 299 372
f 39 38 73
f 6 16 17
f 17 16 36
f 38 39 17
f 77 38 76
f 54 90 94
f 96 93 54
f 94 95 54
f 54 95 96
f 222 223 153
f 153 223 155
f 100 156 154
f 155 156 100
f 99 153 100
f 100 153 155
f 357 374 422
f 442 444 443
f 443 444 374
f 443 374 375
f 443 372 442
f 375 372 443
f 679 605 600
f 688 752 756
f 688 756 757
f 757 758 688
f 688 679 752
f 688 759 755
f 758 759 688
f 605 679 688
f 755 759 760
f 761 691 690
f 292 291 369
f 221 291 292
f 104 105 59
f 59 103 104
f 146 93 96
f 382 316 312
f 312 384 382
f 317 316 382
f 314 238 313
f 451 384 383
f 383 384 312
f 451 383 386
f 314 313 386
f 386 313 385
f 386 385 452
f 452 453 386
f 453 451 386
f 12 30 13
f 13 30 29
f 13 31 14
f 29 31 13
f 5 4 14
f 380 304 308
f 304 379 308
f 263 262 344
f 344 262 343
f 257 339 340
f 496 575 497
f 499 498 442
f 442 500 499
f 119 125 74
f 74 38 72
f 72 71 74
f 71 119 74
f 129 192 126
f 123 185 183
f 183 185 184
f 184 121 183
f 32 67 33
f 33 14 32
f 33 67 68
f 68 34 33
f 70 116 117
f 70 69 116
f 117 118 70
f 70 118 71
f 71 35 70
f 35 69 70
f 175 251 252
f 253 175 252
f 252 334 253
f 333 334 252
f 252 250 333
f 252 251 250
f 255 181 254
f 181 176 254
f 254 176 175
f 253 255 254
f 254 175 253
f 109 110 62
f 110 63 62
f 62 60 109
f 62 61 60
f 28 61 62
f 62 63 28
f 113 63 112
f 112 163 113
f 111 63 110
f 111 112 63
f 163 112 111
f 107 159 160
f 160 158 107
f 932 931 940
f 940 931 962
f 962 944 940
f 834 705 771
f 966 967 945
f 966 944 962
f 945 944 966
f 843 842 852
f 784 843 852
f 903 907 852
f 852 842 903
f 852 907 908
f 852 853 784
f 854 853 852
f 908 905 852
f 852 905 854
f 900 899 947
f 802 801 864
f 801 800 864
f 861 800 799
f 861 865 800
f 861 799 863
f 863 865 861
f 866 917 867
f 867 917 916
f 916 864 867
f 867 800 866
f 867 864 800
f 954 952 964
f 916 952 920
f 952 954 920
f 956 954 964
f 921 954 956
f 916 920 868
f 868 920 921
f 802 864 868
f 868 864 916
f 913 862 880
f 880 915 913
f 913 915 862
f 810 740 809
f 809 740 741
f 808 740 812
f 812 862 808
f 880 862 812
f 812 740 811
f 812 878 877
f 812 810 878
f 812 811 810
f 817 818 754
f 754 804 817
f 748 681 754
f 754 749 748
f 964 965 970
f 970 965 958
f 970 956 964
f 958 956 970
f 960 965 939
f 960 939 961
f 961 959 960
f 958 965 960
f 942 943 894
f 942 934 943
f 894 936 942
f 936 885 942
f 885 934 942
f 814 872 882
f 882 872 926
f 882 883 814
f 926 883 882
f 823 759 758
f 758 822 823
f 823 822 764
f 824 761 823
f 823 761 759
f 764 697 762
f 762 761 824
f 691 761 762
f 475 474 547
f 547 548 475
f 547 474 473
f 473 546 547
f 547 622 548
f 547 546 622
f 603 682 683
f 683 684 603
f 682 699 683
f 699 684 683
f 609 610 529
f 529 603 609
f 528 603 529
f 529 457 528
f 460 457 529
f 389 455 458
f 458 459 389
f 388 455 389
f 389 457 390
f 317 388 389
f 389 390 317
f 439 367 438
f 434 513 438
f 438 435 434
f 367 435 438
f 363 286 362
f 363 435 364
f 363 362 435
f 142 216 217
f 217 216 288
f 217 288 218
f 217 218 144
f 144 142 217
f 288 216 287
f 287 216 286
f 286 363 287
f 364 288 287
f 287 363 364
f 693 747 694
f 747 695 694
f 805 737 736
f 813 747 805
f 736 735 805
f 805 804 813
f 735 804 805
f 747 675 746
f 746 675 674
f 739 663 738
f 738 663 737
f 510 511 430
f 510 506 587
f 510 587 589
f 589 512 510
f 512 511 510
f 584 583 660
f 660 585 584
f 584 505 583
f 584 585 505
f 662 587 586
f 587 506 586
f 586 585 662
f 505 585 586
f 586 506 505
f 496 572 573
f 573 574 496
f 46 21 40
f 78 46 40
f 40 41 78
f 352 353 273
f 351 352 273
f 358 345 420
f 794 856 857
f 794 793 856
f 794 857 796
f 794 796 730
f 730 728 794
f 728 793 794
f 727 728 654
f 654 729 727
f 727 729 728
f 744 726 672
f 594 671 672
f 656 594 672
f 672 726 656
f 743 790 789
f 789 744 743
f 744 672 743
f 743 672 671
f 725 790 743
f 743 670 725
f 743 671 670
f 669 593 592
f 592 668 669
f 669 594 593
f 669 668 594
f 649 668 592
f 725 668 649
f 297 299 298
f 297 298 225
f 297 229 294
f 225 229 297
f 37 17 36
f 38 17 37
f 72 38 37
f 36 35 37
f 37 71 72
f 37 35 71
f 91 52 90
f 90 54 91
f 91 54 52
f 92 54 93
f 23 52 24
f 52 54 24
f 18 8 7
f 18 21 8
f 18 40 21
f 41 40 18
f 424 374 446
f 424 422 374
f 446 425 424
f 357 422 421
f 421 422 345
f 421 358 357
f 345 358 421
f 346 422 423
f 345 422 346
f 600 677 678
f 678 679 600
f 689 761 690
f 755 760 689
f 689 760 759
f 759 761 689
f 689 690 605
f 605 688 689
f 689 688 755
f 96 151 152
f 152 146 96
f 387 388 317
f 317 382 387
f 524 455 519
f 596 524 519
f 519 520 522
f 519 595 596
f 522 595 519
f 379 385 381
f 385 313 381
f 381 308 379
f 312 238 315
f 315 383 312
f 315 238 314
f 314 386 315
f 315 386 383
f 233 234 231
f 414 339 412
f 414 495 496
f 412 495 414
f 496 497 415
f 415 497 416
f 415 414 496
f 415 340 339
f 339 414 415
f 442 371 441
f 441 500 442
f 576 652 592
f 592 515 576
f 576 515 498
f 75 129 126
f 75 74 125
f 38 74 75
f 75 76 38
f 127 76 75
f 75 126 127
f 192 129 195
f 265 262 195
f 195 262 192
f 257 188 187
f 124 187 188
f 123 187 124
f 124 119 71
f 71 123 124
f 259 188 258
f 258 260 259
f 259 260 188
f 261 260 258
f 261 262 265
f 258 262 261
f 71 121 122
f 121 184 122
f 122 184 185
f 122 123 71
f 185 123 122
f 15 34 16
f 15 33 34
f 14 33 15
f 15 16 6
f 6 5 15
f 15 5 14
f 162 111 110
f 163 111 162
f 165 163 162
f 772 837 777
f 705 834 772
f 710 705 772
f 772 777 710
f 901 947 902
f 901 900 947
f 899 900 835
f 900 901 835
f 835 772 834
f 955 954 921
f 921 920 955
f 955 920 954
f 922 868 921
f 877 880 879
f 879 812 877
f 880 812 879
f 802 870 803
f 803 817 804
f 803 872 873
f 870 871 803
f 871 872 803
f 803 733 802
f 803 873 818
f 818 817 803
f 925 924 923
f 923 870 925
f 959 924 925
f 925 960 959
f 958 960 925
f 925 922 958
f 824 823 825
f 825 762 824
f 825 823 764
f 764 762 825
f 696 697 617
f 696 762 697
f 617 692 696
f 461 462 391
f 460 529 461
f 391 390 461
f 390 460 461
f 456 459 526
f 456 389 459
f 457 389 456
f 526 527 456
f 456 527 528
f 528 457 456
f 439 438 514
f 512 591 514
f 514 513 512
f 514 438 513
f 806 805 747
f 737 805 806
f 674 739 745
f 745 746 674
f 739 738 745
f 737 746 745
f 745 738 737
f 430 506 509
f 509 510 430
f 506 510 509
f 206 273 275
f 275 273 353
f 274 273 206
f 271 273 272
f 99 100 56
f 154 228 224
f 295 296 224
f 224 228 295
f 356 354 357
f 84 138 139
f 84 43 83
f 83 138 84
f 592 651 650
f 650 649 592
f 373 297 294
f 299 297 373
f 294 372 373
f 372 299 373
f 7 10 19
f 10 25 19
f 9 8 23
f 23 24 9
f 26 57 27
f 41 18 20
f 20 45 41
f 20 19 43
f 20 18 7
f 7 19 20
f 454 455 388
f 454 519 455
f 450 382 384
f 450 384 451
f 451 520 450
f 520 519 450
f 311 313 238
f 311 381 313
f 234 233 232
f 159 234 232
f 232 160 159
f 158 160 232
f 232 233 158
f 308 233 307
f 307 305 380
f 380 308 307
f 110 158 161
f 158 233 161
f 161 162 110
f 340 415 341
f 341 342 257
f 257 340 341
f 341 419 343
f 418 419 341
f 343 258 341
f 258 342 341
f 341 417 418
f 416 417 341
f 341 415 416
f 128 75 125
f 129 75 128
f 186 123 183
f 186 187 123
f 183 257 186
f 257 187 186
f 179 125 119
f 119 124 179
f 188 260 189
f 189 124 188
f 189 179 124
f 125 179 189
f 265 195 264
f 264 261 265
f 195 261 264
f 892 889 826
f 826 889 827
f 827 767 765
f 827 765 826
f 937 963 932
f 937 892 939
f 889 892 937
f 937 964 963
f 937 939 964
f 836 835 901
f 902 837 836
f 836 901 902
f 837 772 836
f 772 835 836
f 897 940 944
f 958 922 957
f 957 922 921
f 957 956 958
f 921 956 957
f 919 925 870
f 922 925 919
f 733 803 734
f 659 733 734
f 734 735 659
f 734 804 735
f 734 803 804
f 763 696 692
f 762 696 763
f 692 691 763
f 691 762 763
f 462 461 531
f 531 461 529
f 532 462 531
f 531 610 532
f 531 529 610
f 807 746 737
f 737 806 807
f 747 746 807
f 807 806 747
f 273 271 350
f 423 422 350
f 422 424 350
f 350 426 351
f 351 273 350
f 350 425 426
f 350 424 425
f 99 56 98
f 207 138 154
f 154 224 207
f 296 354 276
f 276 224 296
f 276 207 224
f 139 138 209
f 355 358 420
f 420 345 355
f 137 136 206
f 206 196 137
f 137 196 130
f 137 130 80
f 206 136 135
f 131 84 139
f 139 197 131
f 131 197 132
f 79 137 80
f 45 84 79
f 79 131 132
f 84 131 79
f 136 137 79
f 80 41 79
f 41 45 79
f 79 135 136
f 132 197 198
f 267 346 347
f 345 346 267
f 83 43 42
f 43 19 42
f 25 56 42
f 42 19 25
f 8 9 2
f 7 8 2
f 2 10 7
f 54 92 53
f 53 24 54
f 14 4 3
f 3 13 14
f 12 13 3
f 44 84 45
f 45 20 44
f 43 84 44
f 44 20 43
f 388 387 449
f 449 454 388
f 449 387 382
f 519 454 449
f 382 450 449
f 449 450 519
f 237 311 238
f 237 166 165
f 237 238 166
f 381 311 310
f 308 381 310
f 305 307 306
f 306 307 233
f 231 305 306
f 306 233 231
f 165 162 235
f 162 161 235
f 235 161 233
f 260 261 190
f 190 261 195
f 190 195 129
f 125 189 190
f 190 189 260
f 829 896 891
f 891 890 829
f 891 896 939
f 939 892 891
f 826 890 891
f 891 892 826
f 767 827 830
f 771 767 830
f 830 834 771
f 830 897 834
f 889 937 938
f 898 944 945
f 898 897 944
f 945 899 898
f 899 835 898
f 898 835 834
f 834 897 898
f 869 919 870
f 868 919 869
f 869 870 802
f 802 868 869
f 868 922 918
f 918 919 868
f 922 919 918
f 56 102 82
f 83 42 82
f 82 138 83
f 82 102 138
f 101 56 100
f 101 102 56
f 101 100 154
f 154 138 101
f 138 102 101
f 97 98 56
f 354 356 277
f 277 276 354
f 277 356 357
f 357 358 277
f 358 355 277
f 277 355 278
f 139 209 210
f 210 209 278
f 210 211 139
f 278 211 210
f 203 274 206
f 273 274 203
f 272 273 203
f 345 267 266
f 266 267 197
f 212 197 139
f 139 211 212
f 212 266 197
f 280 355 345
f 345 266 280
f 280 212 211
f 11 26 27
f 11 27 12
f 12 3 11
f 1 3 4
f 4 5 1
f 1 5 6
f 309 233 308
f 308 310 309
f 309 235 233
f 165 235 236
f 236 237 165
f 311 237 236
f 235 309 236
f 236 310 311
f 236 309 310
f 191 128 125
f 125 190 191
f 129 128 191
f 191 190 129
f 893 830 827
f 897 830 893
f 893 827 889
f 940 897 893
f 889 938 893
f 932 940 941
f 941 937 932
f 941 938 937
f 940 893 941
f 941 893 938
f 132 198 199
f 199 198 197
f 349 269 348
f 270 269 349
f 271 270 349
f 349 348 347
f 347 346 349
f 349 346 423
f 423 350 349
f 349 350 271
f 81 42 56
f 56 82 81
f 81 82 42
f 55 56 25
f 55 97 56
f 208 209 138
f 138 207 208
f 278 209 208
f 208 277 278
f 207 276 208
f 276 277 208
f 206 135 205
f 205 203 206
f 135 203 205
f 135 79 134
f 279 211 278
f 279 280 211
f 278 355 279
f 355 280 279
f 266 212 281
f 281 280 266
f 212 280 281
f 268 199 197
f 347 348 268
f 348 269 268
f 269 199 268
f 268 267 347
f 197 267 268
f 204 203 135
f 135 134 204
f 204 134 203
f 132 199 133
f 133 79 132
f 133 134 79
f 272 203 202
f 203 134 202
f 202 271 272
f 134 133 201
f 201 202 134
f 133 202 201
f 271 202 200
f 200 202 133
f 200 270 271
f 200 269 270
f 200 199 269
f 200 133 199
f 716 636 781
f 781 636 717
f 781 718 716
f 783 718 781
f 775 719 639
f 775 639 708
f 631 712 776
f 776 709 631
f 789 723 722
f 722 788 789
f 601 681 602
f 680 681 601
f 303 302 369
f 368 303 369
f 717 636 635
f 635 715 717
f 720 718 783
f 783 786 720
f 788 722 787
f 787 722 721
f 787 720 786
f 721 720 787
f 710 713 629
f 629 713 632
f 704 771 705
f 705 624 704
f 710 629 705
f 705 629 624
f 440 303 368
f 440 376 303
f 440 439 377
f 377 376 440
f 774 775 708
f 708 707 774
f 222 194 263
f 263 293 222
f 769 821 888
f 888 832 769
f 564 563 641
f 641 642 564
f 715 635 634
f 634 714 715
f 639 719 634
f 719 714 634
f 706 709 776
f 776 773 706
f 706 774 707
f 773 774 706
f 767 771 704
f 704 701 767
f 701 700 767
f 700 765 767
f 712 631 711
f 711 631 630
f 632 713 711
f 711 630 632
f 521 667 597
f 590 667 521
f 790 723 789
f 790 724 723
f 648 724 790
f 790 725 648
f 833 831 770
f 770 831 768
f 770 769 832
f 770 832 833
f 888 821 819
f 819 887 888
f 820 887 819
f 819 756 820
f 820 756 752
f 752 816 820
f 106 105 151
f 151 150 106
f 378 448 385
f 385 379 378
f 106 150 157
f 150 221 157
f 167 238 312
f 167 312 239
f 828 765 700
f 700 766 828
f 768 831 828
f 828 766 768
f 590 521 591
f 591 521 518
f 675 599 598
f 675 598 674
f 675 693 611
f 611 599 675
f 680 601 695
f 695 601 613
f 674 598 742
f 742 598 673
f 597 667 742
f 673 597 742
f 651 652 575
f 575 574 651
f 194 222 153
f 127 194 153
f 153 76 127
f 99 76 153
f 816 752 679
f 751 816 679
f 292 369 302
f 302 230 292
f 292 157 221
f 230 157 292
f 146 103 58
f 58 93 146
f 344 293 263
f 344 370 293
f 343 371 344
f 371 370 344
f 602 681 748
f 748 676 602
f 748 749 677
f 677 676 748
f 611 693 694
f 694 612 611
f 694 695 613
f 613 612 694
f 648 725 649
f 649 572 648
f 25 10 6
f 6 17 25
f 92 93 58
f 58 57 92
f 677 749 678
f 678 749 750
f 751 679 678
f 678 750 751
f 152 151 105
f 105 104 152
f 103 146 152
f 152 104 103
f 441 371 343
f 343 419 441
f 418 500 441
f 441 419 418
f 416 497 576
f 498 416 576
f 575 652 576
f 576 497 575
f 417 500 418
f 417 499 500
f 417 416 498
f 498 499 417
f 377 439 514
f 514 447 377
f 514 591 518
f 518 447 514
f 504 582 275
f 507 432 275
f 798 797 275
f 275 427 504
f 666 588 275
f 275 352 427
f 275 85 78
f 275 741 666
f 950 969 275
f 588 508 275
f 275 912 950
f 962 930 275
f 275 508 507
f 930 874 275
f 860 912 275
f 275 797 860
f 275 196 206
f 140 86 275
f 78 130 275
f 275 213 140
f 275 432 431
f 284 283 275
f 582 657 275
f 275 731 798
f 275 969 968
f 275 966 962
f 431 428 275
f 275 359 284
f 275 282 213
f 657 731 275
f 275 86 85
f 968 967 275
f 275 874 810
f 428 359 275
f 283 282 275
f 275 353 352
f 810 809 275
f 967 966 275
f 275 809 741
f 130 196 275
f 650 651 574
f 574 573 650
f 572 649 650
f 650 573 572
f 98 76 99
f 77 76 98
f 53 92 57
f 57 26 53
f 77 98 97
f 73 77 97
f 11 53 26
f 24 53 11
f 11 9 24
f 11 3 9
f 9 3 1
f 1 2 9
f 6 10 1
f 10 2 1
f 55 25 17
f 55 17 39
f 73 97 55
f 55 39 73
