v 0.039991 -0.024640 0.002530
v 0.039818 -0.024639 0.002530
v 0.040313 -0.024639 0.002530
v 0.040199 -0.024293 0.008516
v 0.039983 -0.024293 0.008516
v 0.039502 -0.024581 0.002530
v 0.040811 -0.024506 0.002530
v 0.040449 -0.024267 0.008516
v 0.040291 -0.024284 0.008516
v 0.039733 -0.024247 0.008516
v 0.038847 -0.024228 0.002530
v 0.039310 -0.024085 0.008516
v 0.041393 -0.024148 0.002530
v 0.041200 -0.023895 0.008516
v 0.040811 -0.024133 0.008516
v 0.038610 -0.024017 0.002530
v 0.038960 -0.023868 0.008516
v 0.041665 -0.023900 0.002530
v 0.041451 -0.023634 0.008516
v 0.038364 -0.023773 0.002530
v 0.038710 -0.023590 0.008516
v 0.041677 -0.023887 0.002530
v 0.041624 -0.023384 0.008516
v 0.038036 -0.022988 0.002530
v 0.038642 -0.023499 0.008516
v 0.038523 -0.023340 0.008516
v 0.041907 -0.023526 0.002530
v 0.041675 -0.023254 0.008516
v 0.038150 -0.022028 0.002530
v 0.038455 -0.023142 0.008516
v 0.038416 -0.023028 0.008516
v 0.038376 -0.022711 0.008516
v 0.038353 -0.022528 0.008516
v 0.042071 -0.022933 0.002530
v 0.041762 -0.023028 0.008516
v 0.038285 -0.021545 0.002530
v 0.038408 -0.022211 0.008516
v 0.038440 -0.022028 0.008516
v 0.042139 -0.022528 0.002530
v 0.041791 -0.022846 0.008516
v 0.038604 -0.021185 0.002530
v 0.038540 -0.021744 0.008516
v 0.038722 -0.021494 0.008516
v 0.038972 -0.021201 0.008516
v 0.042137 -0.022009 0.002530
v 0.041840 -0.022528 0.008516
v 0.038817 -0.020971 0.002530
v 0.039310 -0.020992 0.008516
v 0.039349 -0.020585 0.002530
v 0.041786 -0.021249 0.002530
v 0.041624 -0.021678 0.008516
v 0.041765 -0.022028 0.008516
v 0.041813 -0.022346 0.008516
v 0.039811 -0.020822 0.008516
v 0.039811 -0.020426 0.002530
v 0.041553 -0.021020 0.002530
v 0.041182 -0.021179 0.008516
v 0.041341 -0.021337 0.008516
v 0.041432 -0.021428 0.008516
v 0.041502 -0.021519 0.008516
v 0.039993 -0.020821 0.008516
v 0.040311 -0.020427 0.002530
v 0.040311 -0.020820 0.008516
v 0.041289 -0.020792 0.002530
v 0.040947 -0.021044 0.008516
v 0.040585 -0.020468 0.002530
v 0.040811 -0.020966 0.008516
f 33 29 24
f 36 29 38
f 42 36 38
f 20 26 24
f 48 54 55
f 24 26 30
f 30 31 24
f 32 33 24
f 24 31 32
f 29 33 37
f 37 38 29
f 6 12 11
f 11 12 17
f 50 56 57
f 57 56 64
f 49 48 55
f 47 41 44
f 44 49 47
f 48 49 44
f 44 41 36
f 39 35 34
f 35 27 34
f 22 27 23
f 13 14 7
f 7 14 15
f 12 6 10
f 11 17 16
f 16 17 20
f 20 17 21
f 45 50 51
f 51 52 45
f 39 45 46
f 66 63 67
f 67 64 66
f 55 63 62
f 62 63 66
f 55 54 61
f 61 63 55
f 43 36 42
f 43 44 36
f 22 23 19
f 28 27 35
f 28 23 27
f 14 13 18
f 18 19 14
f 22 19 18
f 3 7 8
f 7 15 8
f 1 3 4
f 2 1 5
f 5 1 4
f 6 2 5
f 5 10 6
f 26 20 25
f 20 21 25
f 45 52 53
f 53 46 45
f 40 35 39
f 39 46 40
f 57 64 65
f 64 67 65
f 4 3 9
f 3 8 9
f 58 50 57
f 58 59 50
f 60 51 50
f 50 59 60
f 36 41 1
f 1 64 56
f 11 16 1
f 24 29 1
f 1 20 24
f 1 29 36
f 1 7 3
f 1 49 55
f 1 45 39
f 39 34 1
f 1 41 47
f 22 18 1
f 55 62 1
f 56 50 1
f 1 27 22
f 1 6 11
f 1 50 45
f 66 64 1
f 47 49 1
f 1 34 27
f 1 13 7
f 1 2 6
f 1 16 20
f 1 62 66
f 1 18 13
f 60 28 35
f 42 38 60
f 14 19 60
f 60 53 52
f 60 5 4
f 57 65 60
f 60 30 26
f 33 32 60
f 60 37 33
f 54 48 60
f 60 61 54
f 31 30 60
f 60 32 31
f 38 37 60
f 60 17 12
f 26 25 60
f 35 40 60
f 48 44 60
f 60 43 42
f 60 15 14
f 12 10 60
f 60 21 17
f 52 51 60
f 4 9 60
f 60 67 63
f 63 61 60
f 44 43 60
f 60 19 23
f 23 28 60
f 60 8 15
f 10 5 60
f 60 25 21
f 60 58 57
f 46 53 60
f 60 40 46
f 60 65 67
f 60 9 8
f 59 58 60
