v 0.036746 -0.076003 -0.023331
v 0.034964 -0.076001 -0.024498
v 0.034787 -0.076001 -0.024752
v 0.034215 -0.076001 -0.025680
v 0.034111 -0.076001 -0.026767
v 0.034060 -0.076001 -0.028453
v 0.034060 -0.076001 -0.048957
v 0.034123 -0.076001 -0.049924
v 0.035036 -0.076001 -0.050488
v 0.036699 -0.076001 -0.050927
v 0.036746 -0.076001 -0.050937
v 0.048705 -0.076001 -0.050937
v 0.050220 -0.076001 -0.050373
v 0.050909 -0.076001 -0.048957
v 0.050938 -0.076001 -0.047296
v 0.050938 -0.076001 -0.017989
v 0.043718 -0.076001 -0.017989
v 0.035041 -0.052264 0.000016
v 0.034121 -0.051466 0.000016
v 0.034090 -0.050918 0.000016
v 0.034060 -0.052126 -0.004533
v 0.034060 -0.070687 -0.048957
v 0.034123 -0.070687 -0.049924
v 0.035036 -0.070687 -0.050488
v 0.036746 -0.070687 -0.050937
v 0.048705 -0.070687 -0.050937
v 0.050220 -0.070687 -0.050373
v 0.050909 -0.070687 -0.048957
v 0.050938 -0.070687 -0.047246
v 0.050938 -0.070687 -0.017989
v 0.043702 -0.052802 0.000016
v 0.036745 -0.052782 0.000016
v 0.036188 -0.052652 0.000016
v 0.043702 -0.050918 0.000016
v 0.034060 -0.050918 -0.003326
v 0.034060 -0.050918 -0.013580
v 0.034065 -0.052126 -0.016493
v 0.034078 -0.050918 -0.015291
v 0.034126 -0.050918 -0.016722
v 0.034139 -0.050918 -0.016957
v 0.035036 -0.050918 -0.017645
v 0.036745 -0.050918 -0.018114
v 0.043702 -0.050918 -0.018134
f 31 17 16
f 6 7 1
f 15 16 1
f 16 17 1
f 17 2 1
f 8 9 1
f 1 7 8
f 11 12 1
f 10 25 11
f 11 1 10
f 10 1 9
f 24 10 9
f 25 10 24
f 18 2 17
f 18 19 2
f 15 28 29
f 14 28 15
f 15 1 14
f 25 24 42
f 20 35 21
f 6 20 21
f 17 31 32
f 2 19 3
f 19 4 3
f 3 1 2
f 3 4 1
f 6 1 5
f 1 4 5
f 5 4 19
f 5 19 20
f 5 20 6
f 43 29 28
f 26 25 43
f 25 42 43
f 13 1 12
f 13 14 1
f 41 24 23
f 41 42 24
f 22 36 37
f 37 36 38
f 37 38 22
f 33 18 17
f 17 32 33
f 26 43 27
f 27 43 28
f 40 41 23
f 23 22 40
f 22 38 39
f 39 40 22
f 31 30 34
f 16 30 31
f 23 8 7
f 7 22 23
f 25 12 11
f 26 12 25
f 24 8 23
f 24 9 8
f 29 30 16
f 29 16 15
f 21 7 6
f 22 7 21
f 21 36 22
f 35 36 21
f 34 30 43
f 30 29 43
f 33 31 34
f 33 34 20
f 20 19 33
f 19 18 33
f 33 32 31
f 27 12 26
f 27 13 12
f 28 14 27
f 14 13 27
f 20 34 39
f 39 35 20
f 39 36 35
f 34 43 39
f 38 36 39
f 39 43 42
f 42 41 39
f 41 40 39
