v -0.050938 -0.107772 0.026259
v -0.051012 -0.107772 0.029724
v -0.050938 -0.098269 0.026259
v -0.016914 -0.107772 0.026259
v -0.016914 -0.107774 0.026313
v -0.051037 -0.107772 0.031365
v -0.050938 -0.098264 0.027946
v -0.033355 -0.085022 0.039908
v -0.033355 -0.085080 0.038911
v -0.033355 -0.085345 0.037426
v -0.033355 -0.085922 0.036097
v -0.050905 -0.098264 0.026259
v -0.016914 -0.106079 0.026259
v 0.032863 -0.107774 0.026313
v -0.016914 -0.107774 0.050934
v -0.051037 -0.107772 0.046741
v -0.050938 -0.098264 0.048452
v -0.033355 -0.085022 0.046741
v 0.032854 -0.085753 0.039908
v 0.032854 -0.085980 0.038282
v 0.032854 -0.086501 0.036910
v -0.034061 -0.098264 0.026259
v -0.024789 -0.101935 0.026259
v 0.032863 -0.100578 0.026313
v 0.032863 -0.107774 0.050977
v 0.031606 -0.107774 0.050977
v -0.046996 -0.107772 0.050975
v -0.048696 -0.107772 0.050963
v -0.049591 -0.107772 0.050556
v -0.050207 -0.107772 0.050225
v -0.050659 -0.107772 0.049199
v -0.050987 -0.107772 0.048403
v -0.050240 -0.098264 0.050116
v -0.033355 -0.085060 0.048449
v 0.032854 -0.085759 0.048449
v 0.032854 -0.085753 0.046741
v 0.032863 -0.098318 0.036090
v -0.034037 -0.098269 0.026259
v -0.026177 -0.101237 0.026259
v -0.026473 -0.101097 0.026259
v 0.032863 -0.098318 0.050934
v 0.032854 -0.089723 0.050939
v -0.016922 -0.089723 0.050939
v -0.033355 -0.089726 0.050939
v -0.046996 -0.098264 0.050936
v -0.048696 -0.098264 0.050932
v -0.033355 -0.086178 0.050131
v 0.032854 -0.086352 0.050138
v 0.032854 -0.086735 0.050363
v 0.032854 -0.088015 0.050922
v 0.032854 -0.088481 0.050927
v -0.033355 -0.088015 0.050922
f 7 3 6
f 8 3 7
f 3 1 2
f 6 3 2
f 5 2 1
f 6 2 5
f 37 24 20
f 19 37 20
f 10 11 3
f 21 20 24
f 24 22 21
f 21 22 11
f 11 10 21
f 21 10 20
f 9 3 8
f 9 10 3
f 8 19 9
f 19 20 9
f 20 10 9
f 3 11 12
f 11 22 12
f 15 32 16
f 15 30 31
f 31 32 15
f 26 27 15
f 15 27 28
f 49 50 41
f 41 36 35
f 52 50 47
f 47 50 49
f 18 34 35
f 35 36 18
f 32 31 17
f 17 16 32
f 34 18 17
f 25 41 42
f 29 30 15
f 15 28 29
f 46 28 27
f 52 47 46
f 46 29 28
f 48 47 49
f 34 47 48
f 35 34 48
f 49 41 48
f 48 41 35
f 24 13 23
f 38 22 24
f 24 40 38
f 33 31 30
f 33 17 31
f 30 29 33
f 29 46 33
f 33 46 47
f 33 47 34
f 34 17 33
f 51 50 52
f 51 41 50
f 51 42 41
f 52 46 44
f 44 51 52
f 27 26 44
f 39 40 24
f 24 23 39
f 45 46 27
f 27 44 45
f 45 44 46
f 42 51 43
f 51 44 43
f 43 44 26
f 14 5 4
f 4 5 1
f 13 24 14
f 14 4 13
f 16 5 15
f 6 5 16
f 14 25 26
f 26 5 14
f 15 5 26
f 14 24 41
f 41 25 14
f 41 24 37
f 41 37 19
f 19 36 41
f 18 36 19
f 18 19 8
f 6 16 17
f 17 7 6
f 17 18 8
f 8 7 17
f 39 4 1
f 39 1 3
f 3 12 39
f 39 12 22
f 39 13 4
f 39 23 13
f 22 38 39
f 39 38 40
f 43 26 25
f 25 42 43
