v 0.046936 -0.156845 0.051865
v 0.046829 -0.156845 0.052248
v 0.046936 -0.168335 0.051865
v 0.046936 -0.156845 0.004021
v 0.046539 -0.156845 0.053244
v 0.046539 -0.168335 0.053244
v 0.046405 -0.169480 0.053071
v 0.046539 -0.169625 0.051865
v 0.046936 -0.168335 0.004021
v 0.046539 -0.156845 0.002687
v 0.046194 -0.156845 0.053413
v 0.045284 -0.166627 0.053853
v 0.045284 -0.168335 0.053832
v 0.045284 -0.169645 0.053260
v 0.045284 -0.170100 0.051865
v 0.046539 -0.169625 0.004021
v 0.046405 -0.169480 0.002846
v 0.046539 -0.168335 0.002687
v 0.045630 -0.156845 0.002284
v 0.045284 -0.156845 0.053853
v 0.044813 -0.156845 0.053878
v 0.043577 -0.166627 0.053939
v 0.043577 -0.168335 0.053893
v 0.043577 -0.170140 0.051865
v 0.043577 -0.169665 0.053280
v 0.045284 -0.170100 0.004021
v 0.045284 -0.169645 0.002667
v 0.045284 -0.168335 0.002151
v 0.045284 -0.166627 0.002135
v 0.045284 -0.156845 0.002135
v 0.043577 -0.156845 0.053939
v 0.011112 -0.156845 0.054088
v 0.012820 -0.166627 0.053939
v 0.012820 -0.168335 0.053893
v 0.021362 -0.170140 0.051870
v 0.043577 -0.170140 0.004021
v 0.012820 -0.169665 0.053280
v 0.043577 -0.169665 0.002646
v 0.043577 -0.168335 0.002095
v 0.043577 -0.166627 0.002064
v 0.043577 -0.156845 0.002064
v 0.009494 -0.156845 0.053500
v 0.011112 -0.168335 0.053500
v 0.011112 -0.169502 0.053096
v 0.012820 -0.170140 0.051870
v 0.012820 -0.170140 0.004021
v 0.012820 -0.169665 0.002646
v 0.012820 -0.168335 0.002095
v 0.012816 -0.156845 0.001880
v 0.009063 -0.156845 0.051870
v 0.010192 -0.169290 0.052851
v 0.011112 -0.169815 0.051870
v 0.011112 -0.169815 0.004021
v 0.011112 -0.169502 0.002820
v 0.011112 -0.156845 0.001911
v 0.011150 -0.156845 0.001905
v 0.011112 -0.168335 0.002457
v 0.009015 -0.156845 0.050158
v 0.010062 -0.168335 0.051870
v 0.010158 -0.169338 0.051870
v 0.010158 -0.169338 0.004021
v 0.010192 -0.169290 0.003050
v 0.009564 -0.156845 0.002376
v 0.009015 -0.156845 0.005718
v 0.010062 -0.168335 0.004021
v 0.009074 -0.156845 0.004011
v 0.009505 -0.156845 0.002411
f 41 40 49
f 39 48 49
f 49 40 39
f 51 42 50
f 66 65 64
f 59 50 58
f 51 50 59
f 16 26 17
f 17 9 16
f 36 38 27
f 27 26 36
f 17 26 27
f 38 39 27
f 12 13 6
f 22 13 12
f 22 31 32
f 18 9 17
f 53 61 62
f 62 67 63
f 62 61 65
f 66 67 62
f 62 65 66
f 51 59 60
f 60 52 51
f 49 48 56
f 48 55 56
f 17 27 28
f 28 27 39
f 29 18 28
f 28 18 17
f 40 29 28
f 28 39 40
f 24 15 14
f 51 52 44
f 44 52 45
f 45 37 44
f 34 44 37
f 12 20 21
f 31 22 21
f 21 22 12
f 10 18 19
f 19 18 29
f 29 30 19
f 57 62 63
f 63 55 57
f 57 55 48
f 7 15 8
f 7 14 15
f 7 8 3
f 3 6 7
f 7 6 13
f 13 14 7
f 24 14 25
f 25 35 24
f 2 3 1
f 2 6 3
f 2 5 6
f 11 20 12
f 6 5 11
f 12 6 11
f 33 22 32
f 32 34 33
f 32 42 43
f 43 34 32
f 43 42 51
f 51 44 43
f 44 34 43
f 54 46 53
f 54 47 46
f 53 62 54
f 62 57 54
f 48 47 54
f 54 57 48
f 23 14 13
f 23 25 14
f 13 22 23
f 9 4 1
f 1 3 9
f 58 64 59
f 59 64 65
f 24 35 46
f 46 36 24
f 46 35 45
f 46 52 53
f 45 52 46
f 16 9 3
f 3 8 16
f 24 36 15
f 36 26 15
f 15 16 8
f 26 16 15
f 10 4 18
f 4 9 18
f 40 41 30
f 30 29 40
f 60 59 65
f 65 61 60
f 53 52 60
f 60 61 53
f 36 46 47
f 47 38 36
f 48 39 47
f 47 39 38
f 45 35 25
f 25 37 45
f 1 4 11
f 58 50 11
f 11 64 58
f 49 56 11
f 11 41 49
f 11 4 10
f 11 42 32
f 11 21 20
f 11 67 66
f 32 31 11
f 11 50 42
f 66 64 11
f 11 55 63
f 63 67 11
f 10 19 11
f 11 30 41
f 11 56 55
f 11 2 1
f 31 21 11
f 11 19 30
f 5 2 11
f 37 25 23
f 23 34 37
f 22 33 23
f 23 33 34
