v -0.048682 -0.108524 -0.050940
v -0.048682 -0.110231 -0.050910
v -0.055524 -0.111937 -0.050759
v -0.048682 -0.107778 -0.050940
v -0.026496 -0.113253 -0.050940
v -0.057139 -0.120479 -0.050373
v -0.057139 -0.117064 -0.050373
v -0.057109 -0.111937 -0.050327
v -0.056872 -0.110747 -0.050176
v -0.050222 -0.107778 -0.050365
v -0.050918 -0.098274 -0.027589
v -0.050000 -0.098266 -0.027589
v -0.035738 -0.107774 -0.050940
v -0.057065 -0.122190 -0.050275
v 0.004665 -0.113256 -0.050940
v -0.075326 -0.111937 -0.019248
v -0.075356 -0.110860 -0.019301
v -0.050918 -0.098266 -0.026727
v -0.075504 -0.110697 -0.018189
v -0.075563 -0.110648 -0.016473
v -0.034997 -0.098266 -0.027589
v 0.004636 -0.107774 -0.050940
v -0.057805 -0.122190 -0.048951
v -0.055806 -0.122190 -0.050275
v -0.056798 -0.123259 -0.050048
v 0.026496 -0.113256 -0.050940
v -0.075193 -0.112801 -0.019067
v -0.075548 -0.111937 -0.018189
v -0.050918 -0.098266 0.026229
v -0.075652 -0.111937 -0.016473
v -0.075563 -0.110648 -0.002824
v -0.034034 -0.098274 -0.027589
v 0.048682 -0.107776 -0.050940
v -0.034034 -0.098266 -0.026727
v 0.057065 -0.122190 -0.050267
v 0.056798 -0.123259 -0.050048
v -0.057050 -0.123430 -0.048951
v 0.048682 -0.108524 -0.050940
v 0.048682 -0.110233 -0.050910
v 0.057124 -0.120481 -0.050365
v -0.075237 -0.112828 -0.018189
v -0.050918 -0.098274 0.026252
v -0.050889 -0.098266 0.026252
v -0.075400 -0.110828 -0.001115
v -0.075652 -0.111937 -0.004533
v -0.075267 -0.112853 -0.016473
v -0.075637 -0.111937 -0.002824
v 0.050978 -0.107776 -0.048876
v 0.050652 -0.107776 -0.049564
v 0.050222 -0.107776 -0.050365
v 0.056872 -0.110747 -0.050161
v 0.055524 -0.111939 -0.050751
v -0.034034 -0.098266 0.026222
v 0.074334 -0.110132 -0.016488
v 0.075311 -0.111939 -0.019241
v 0.057805 -0.122190 -0.048951
v 0.075193 -0.112801 -0.019067
v 0.057050 -0.123427 -0.048951
v -0.055821 -0.123430 -0.048951
v -0.057109 -0.123494 -0.047242
v 0.057124 -0.117061 -0.050365
v 0.075341 -0.110865 -0.019301
v -0.050918 -0.107774 0.026252
v -0.016943 -0.106077 0.026312
v -0.075222 -0.111036 -0.000222
v -0.016380 -0.106060 0.026312
v -0.034064 -0.098266 0.026252
v -0.075385 -0.111858 -0.001168
v -0.075222 -0.111236 -0.000222
v -0.075267 -0.112853 -0.002824
v -0.075237 -0.112831 -0.001773
v 0.074334 -0.110189 -0.018197
v 0.057109 -0.111939 -0.050327
v 0.050918 -0.107776 0.010327
v 0.074334 -0.110134 -0.002824
v 0.074334 -0.110132 -0.004533
v 0.075548 -0.110645 -0.016488
v 0.075533 -0.111939 -0.018197
v 0.075652 -0.111939 -0.016488
v 0.075237 -0.112828 -0.018197
v 0.057094 -0.123494 -0.047242
v -0.057109 -0.123494 -0.031869
v 0.075489 -0.110700 -0.018197
v -0.074837 -0.112377 -0.000631
v -0.073697 -0.112838 -0.000169
v -0.049733 -0.112861 0.010327
v -0.028984 -0.114789 0.010327
v -0.016943 -0.107774 0.026312
v -0.012841 -0.106060 0.026312
v -0.011123 -0.106065 0.026312
v -0.034034 -0.098274 0.026252
v -0.056857 -0.123341 -0.030477
v 0.050918 -0.110233 0.010327
v 0.075222 -0.111036 -0.000222
v 0.074334 -0.110794 0.000035
v 0.074334 -0.110317 -0.001115
v -0.009316 -0.106889 0.026312
v -0.009271 -0.106944 0.026312
v -0.008916 -0.107774 0.026312
v 0.075548 -0.110645 -0.002824
v 0.075652 -0.111939 -0.004533
v 0.075267 -0.112856 -0.016488
v 0.057094 -0.123494 -0.031861
v 0.055776 -0.123494 -0.031861
v 0.055983 -0.123341 -0.030470
v 0.008812 -0.114792 0.010327
v 0.050415 -0.111937 0.010327
v 0.075222 -0.111241 -0.000222
v 0.075400 -0.110831 -0.001115
v 0.028999 -0.114792 0.010327
v 0.049733 -0.112865 0.010327
v 0.049970 -0.112584 0.010327
v 0.075637 -0.111939 -0.002824
v 0.075267 -0.112856 -0.002824
v 0.075237 -0.112833 -0.001773
v 0.056857 -0.123341 -0.030470
v 0.074289 -0.111860 0.000027
v 0.074837 -0.112379 -0.000638
v 0.075385 -0.111860 -0.001168
v 0.073697 -0.112843 -0.000169
f 17 16 28
f 11 18 12
f 4 11 12
f 18 11 20
f 63 87 88
f 86 63 85
f 86 87 63
f 43 42 64
f 30 28 41
f 17 11 9
f 13 4 12
f 42 43 29
f 19 11 17
f 19 20 11
f 17 28 19
f 19 28 30
f 30 20 19
f 106 88 87
f 70 71 47
f 74 67 91
f 91 90 74
f 67 90 91
f 66 43 64
f 110 111 99
f 99 93 74
f 30 41 46
f 27 23 25
f 16 23 27
f 27 28 16
f 27 41 28
f 3 9 4
f 11 4 10
f 10 9 11
f 4 9 10
f 82 71 70
f 111 120 117
f 84 71 85
f 85 63 84
f 68 47 71
f 89 90 67
f 93 99 107
f 108 93 107
f 107 117 108
f 74 90 97
f 48 32 34
f 33 32 50
f 50 51 33
f 60 46 41
f 92 82 105
f 92 106 87
f 105 106 92
f 87 86 92
f 92 86 85
f 85 71 92
f 71 82 92
f 81 58 80
f 118 115 108
f 120 115 118
f 108 117 118
f 118 117 120
f 108 115 119
f 119 115 113
f 47 31 45
f 70 47 45
f 44 31 47
f 47 68 44
f 29 31 44
f 44 65 42
f 42 29 44
f 71 84 69
f 69 68 71
f 69 84 63
f 65 44 69
f 69 44 68
f 112 99 111
f 112 107 99
f 111 117 112
f 117 107 112
f 98 99 74
f 74 97 98
f 95 96 74
f 113 101 100
f 21 34 32
f 21 32 33
f 33 22 21
f 53 67 74
f 54 72 48
f 48 34 54
f 49 32 48
f 49 50 32
f 48 72 49
f 72 50 49
f 51 50 62
f 62 50 72
f 62 73 51
f 61 73 62
f 62 40 61
f 9 3 8
f 3 7 8
f 17 9 8
f 8 7 17
f 25 23 14
f 14 5 15
f 14 23 16
f 40 26 39
f 37 27 25
f 41 27 37
f 37 60 41
f 105 82 104
f 116 115 120
f 116 103 115
f 116 120 111
f 116 111 110
f 102 80 79
f 81 80 102
f 57 58 36
f 57 80 58
f 36 56 57
f 79 80 57
f 109 100 96
f 113 100 109
f 108 119 109
f 109 119 113
f 75 100 76
f 96 100 75
f 74 96 75
f 76 53 75
f 75 53 74
f 72 54 77
f 40 62 55
f 55 57 56
f 5 2 1
f 1 3 4
f 1 2 3
f 6 7 3
f 3 2 6
f 17 7 6
f 6 2 5
f 5 14 6
f 6 16 17
f 6 14 16
f 35 26 40
f 35 56 36
f 35 55 56
f 40 55 35
f 38 39 26
f 36 58 59
f 59 58 81
f 115 103 114
f 113 115 114
f 114 101 113
f 96 95 94
f 94 109 96
f 108 109 94
f 94 95 74
f 83 62 72
f 72 77 83
f 83 77 79
f 79 57 78
f 57 55 78
f 78 83 79
f 78 55 62
f 62 83 78
f 26 35 24
f 24 35 36
f 52 38 33
f 61 40 52
f 52 73 61
f 40 39 52
f 39 38 52
f 33 51 52
f 51 73 52
f 42 63 88
f 64 42 88
f 99 106 110
f 88 106 99
f 31 29 18
f 18 20 31
f 67 43 89
f 43 66 89
f 60 82 70
f 70 46 60
f 45 31 20
f 45 20 30
f 45 46 70
f 30 46 45
f 69 63 42
f 42 65 69
f 64 88 98
f 98 66 64
f 88 99 98
f 90 89 98
f 98 89 66
f 98 97 90
f 21 22 13
f 21 13 12
f 18 29 53
f 12 18 53
f 53 43 67
f 53 29 43
f 53 21 12
f 34 21 53
f 34 53 54
f 54 53 76
f 82 60 104
f 104 60 81
f 81 103 104
f 116 104 103
f 105 104 116
f 110 106 116
f 116 106 105
f 77 54 76
f 76 100 77
f 77 101 79
f 77 100 101
f 38 22 33
f 38 1 4
f 4 13 38
f 13 22 38
f 15 5 38
f 38 26 15
f 5 1 38
f 59 37 25
f 25 36 59
f 81 60 59
f 60 37 59
f 114 103 81
f 81 102 114
f 79 101 114
f 114 102 79
f 94 93 108
f 74 93 94
f 15 26 24
f 24 14 15
f 24 36 25
f 25 14 24
