v 0.030924 -0.113256 -0.021019
v -0.030924 -0.113256 -0.021019
v 0.028987 -0.114796 0.010317
v 0.026414 -0.123901 0.055272
v 0.026414 -0.125093 0.055272
v 0.028242 -0.139547 0.001775
v 0.030924 -0.113256 -0.045524
v -0.026541 -0.133489 0.001775
v -0.026414 -0.125093 0.055272
v -0.026414 -0.123901 0.055272
v -0.028987 -0.114796 0.010317
v -0.030924 -0.113256 -0.045524
v 0.023054 -0.121207 0.056296
v 0.024773 -0.121209 0.056296
v 0.025742 -0.121256 0.056233
v 0.026190 -0.122195 0.055272
v 0.025905 -0.122195 0.056391
v 0.026014 -0.123901 0.056507
v 0.026014 -0.125093 0.056507
v 0.024773 -0.125093 0.056919
v 0.023054 -0.125093 0.056929
v 0.013034 -0.139547 0.001775
v 0.028242 -0.139547 -0.034934
v 0.030876 -0.113256 -0.047234
v -0.026541 -0.133489 -0.030152
v 0.004934 -0.139547 -0.014779
v 0.004970 -0.139547 -0.006228
v 0.005091 -0.139547 -0.005531
v 0.006956 -0.139547 -0.000632
v -0.026008 -0.125093 0.056507
v -0.026008 -0.123901 0.056507
v -0.025899 -0.122195 0.056391
v -0.026190 -0.122195 0.055272
v -0.025736 -0.121256 0.056233
v -0.024773 -0.121209 0.056296
v -0.023054 -0.121207 0.056296
v -0.030876 -0.113256 -0.047234
v -0.026535 -0.133489 -0.031862
v 0.023054 -0.122195 0.056697
v 0.024773 -0.122195 0.056687
v 0.024773 -0.123901 0.056919
v 0.023054 -0.123901 0.056929
v -0.023054 -0.125093 0.056929
v -0.024773 -0.125093 0.056919
v 0.007561 -0.139547 -0.000178
v 0.024077 -0.139547 -0.044795
v 0.029955 -0.113256 -0.048786
v 0.004952 -0.139547 -0.038693
v -0.024773 -0.123901 0.056919
v -0.024773 -0.122195 0.056687
v -0.023054 -0.122195 0.056697
v -0.030779 -0.113256 -0.047910
v -0.026396 -0.133489 -0.033572
v -0.023054 -0.123901 0.056929
v 0.023066 -0.139547 -0.044922
v 0.026486 -0.115359 -0.050929
v 0.027746 -0.117068 -0.050085
v 0.028115 -0.115359 -0.050359
v 0.028854 -0.113256 -0.050000
v -0.024361 -0.133489 -0.043824
v 0.005352 -0.139547 -0.040044
v -0.028660 -0.113256 -0.050275
v -0.028115 -0.115359 -0.050359
v -0.027746 -0.117068 -0.050085
v -0.024034 -0.133489 -0.044764
v 0.014784 -0.139547 -0.044933
v -0.026486 -0.115359 -0.050929
v 0.026486 -0.113256 -0.050929
v 0.028303 -0.113256 -0.050370
v 0.006738 -0.139547 -0.043824
v -0.026880 -0.113256 -0.050866
v -0.026486 -0.117068 -0.050380
v -0.023066 -0.133489 -0.044890
v 0.007695 -0.139547 -0.044806
v 0.007465 -0.139547 -0.044774
v 0.009396 -0.139547 -0.044933
v -0.026486 -0.113256 -0.050929
f 5 6 1
f 6 5 19
f 22 44 30
f 22 43 44
f 2 8 9
f 9 8 30
f 20 21 6
f 6 19 20
f 23 46 24
f 30 8 29
f 23 24 7
f 47 24 46
f 35 36 11
f 11 34 35
f 33 34 11
f 33 32 34
f 13 39 14
f 14 3 13
f 14 15 3
f 3 15 16
f 15 17 16
f 39 42 40
f 40 17 15
f 15 14 40
f 40 14 39
f 8 26 27
f 45 22 30
f 30 29 45
f 72 73 65
f 57 47 46
f 36 35 51
f 10 31 32
f 32 33 10
f 10 33 11
f 10 11 2
f 2 9 10
f 17 18 4
f 4 16 17
f 3 16 4
f 1 3 4
f 4 5 1
f 41 18 17
f 17 40 41
f 41 40 42
f 28 29 8
f 8 27 28
f 70 61 65
f 65 75 70
f 65 73 74
f 74 75 65
f 25 26 8
f 38 25 12
f 77 67 71
f 67 62 71
f 67 72 64
f 64 72 65
f 65 52 64
f 59 47 58
f 47 57 58
f 50 35 34
f 50 51 35
f 34 32 50
f 54 51 50
f 73 72 76
f 76 74 73
f 76 72 67
f 65 61 60
f 60 52 65
f 60 53 52
f 38 53 48
f 48 60 61
f 53 60 48
f 26 25 48
f 48 25 38
f 38 12 37
f 52 53 37
f 37 53 38
f 63 62 67
f 67 64 63
f 52 62 63
f 63 64 52
f 59 58 69
f 56 58 57
f 68 69 56
f 56 69 58
f 56 55 66
f 46 55 56
f 56 57 46
f 54 50 49
f 32 31 49
f 49 50 32
f 2 11 3
f 3 1 2
f 21 43 22
f 6 21 22
f 36 3 11
f 13 3 36
f 6 23 7
f 1 6 7
f 54 43 21
f 21 42 54
f 13 36 51
f 51 39 13
f 51 54 42
f 51 42 39
f 30 31 10
f 10 9 30
f 4 18 19
f 4 19 5
f 19 18 41
f 41 20 19
f 41 42 21
f 21 20 41
f 12 8 2
f 12 25 8
f 6 22 48
f 48 23 6
f 48 27 26
f 66 55 48
f 48 46 23
f 22 45 48
f 48 76 66
f 61 70 48
f 48 45 29
f 29 28 48
f 48 28 27
f 48 70 75
f 75 74 48
f 48 55 46
f 74 76 48
f 2 1 69
f 69 47 59
f 69 12 2
f 1 7 69
f 69 7 24
f 24 47 69
f 69 68 77
f 52 37 69
f 69 62 52
f 77 71 69
f 69 71 62
f 69 37 12
f 77 68 56
f 56 67 77
f 66 76 56
f 56 76 67
f 43 54 49
f 44 43 49
f 49 31 30
f 30 44 49
