v 0.047440 -0.140997 0.001772
v 0.047440 -0.144411 0.001772
v 0.047440 -0.140997 -0.031856
v 0.047403 -0.139286 0.001772
v 0.047433 -0.141795 0.053569
v 0.047440 -0.144411 -0.031856
v 0.047433 -0.144413 0.053569
v 0.047366 -0.146123 0.051864
v 0.046936 -0.156840 0.051864
v 0.047225 -0.140997 -0.033571
v 0.047217 -0.139286 -0.033571
v 0.047403 -0.139286 -0.031856
v 0.047210 -0.138762 0.001772
v 0.047336 -0.141795 0.055275
v 0.046765 -0.137623 0.001772
v 0.046305 -0.137039 0.001772
v 0.046090 -0.136772 0.001772
v 0.047329 -0.146120 -0.031856
v 0.047151 -0.146120 -0.033571
v 0.047225 -0.144411 -0.033571
v 0.046936 -0.156840 0.004025
v 0.047336 -0.144413 0.055275
v 0.047262 -0.146123 0.055275
v 0.046520 -0.156840 0.053240
v 0.011106 -0.158140 -0.035277
v 0.046565 -0.140997 -0.034678
v 0.046558 -0.139286 -0.034678
v 0.046432 -0.137995 -0.034588
v 0.046661 -0.137700 -0.033571
v 0.046765 -0.137623 -0.031856
v 0.046684 -0.141795 0.056531
v 0.045238 -0.136146 0.001772
v 0.043577 -0.135567 0.001772
v 0.046090 -0.136772 -0.031856
v 0.046602 -0.147480 -0.033571
v 0.046402 -0.147261 -0.034588
v 0.046543 -0.146120 -0.034678
v 0.046565 -0.144411 -0.034678
v 0.046520 -0.156840 0.002689
v 0.011106 -0.158140 -0.042118
v 0.012812 -0.158063 -0.042118
v 0.046684 -0.144413 0.056531
v 0.046669 -0.146123 0.056531
v 0.046609 -0.146507 0.056491
v 0.046469 -0.147299 0.056391
v 0.045282 -0.156840 0.053848
v -0.011102 -0.158140 -0.035277
v -0.009908 -0.157134 0.053539
v -0.010501 -0.157134 0.053729
v -0.011102 -0.157134 0.053918
v -0.011480 -0.157134 0.054008
v -0.012830 -0.157134 0.054048
v 0.024068 -0.139556 -0.044800
v 0.044852 -0.136464 -0.034588
v 0.046016 -0.136847 -0.033571
v 0.045275 -0.141795 0.056930
v 0.045238 -0.136146 -0.031856
v 0.041864 -0.135562 0.001772
v -0.016233 -0.140714 0.056930
v -0.014520 -0.140714 0.056850
v 0.043577 -0.135567 -0.031856
v 0.045282 -0.148106 -0.033571
v 0.020546 -0.150474 -0.044721
v 0.022266 -0.147173 -0.044731
v 0.023964 -0.142127 -0.044731
v 0.013805 -0.157324 -0.044750
v 0.015629 -0.155694 -0.044760
v 0.017305 -0.154060 -0.044760
v 0.018959 -0.152314 -0.044760
v 0.024023 -0.140997 -0.044770
v 0.012812 -0.157808 -0.043823
v 0.014043 -0.157488 -0.043823
v -0.011102 -0.158140 -0.042118
v 0.011106 -0.157866 -0.043823
v 0.045275 -0.146123 0.056930
v 0.043562 -0.156840 0.053928
v 0.009408 -0.154660 0.056930
v 0.009408 -0.155944 0.056531
v -0.012815 -0.158065 -0.035277
v -0.013571 -0.157134 0.054048
v -0.027563 -0.157134 0.053928
v 0.023059 -0.140997 -0.044900
v 0.023059 -0.139556 -0.044930
v 0.043577 -0.135757 -0.033571
v 0.043577 -0.136338 -0.034678
v 0.045149 -0.136239 -0.033571
v 0.028235 -0.135551 0.001772
v 0.041864 -0.135562 -0.031856
v -0.027563 -0.140714 0.056930
v 0.019574 -0.151126 -0.044810
v 0.020731 -0.149537 -0.044770
v 0.021072 -0.148553 -0.044800
v 0.022399 -0.146123 -0.044790
v 0.012812 -0.157388 -0.044790
v 0.012812 -0.156371 -0.044920
v 0.014436 -0.156305 -0.044820
v 0.016208 -0.154640 -0.044830
v 0.017898 -0.152913 -0.044830
v -0.012815 -0.158065 -0.042118
v -0.012815 -0.157810 -0.043823
v -0.011102 -0.157866 -0.043823
v 0.011106 -0.157408 -0.044810
v 0.001993 -0.154662 0.056930
v -0.005622 -0.155681 0.056621
v -0.009389 -0.155944 0.056531
v -0.027563 -0.157134 0.002061
v -0.011102 -0.155851 0.056451
v -0.027563 -0.146125 0.056930
v -0.028312 -0.148511 0.001772
v 0.021339 -0.146123 -0.044910
v 0.021339 -0.144411 -0.044930
v -0.022795 -0.139556 -0.044930
v 0.028235 -0.135752 -0.033571
v 0.028235 -0.135551 -0.031856
v -0.028312 -0.139556 0.001772
v 0.021324 -0.147774 -0.044820
v 0.017928 -0.151246 -0.044930
v 0.019648 -0.149537 -0.044900
v 0.011106 -0.156371 -0.044930
v 0.014517 -0.154662 -0.044930
v -0.014246 -0.157607 -0.042118
v -0.014075 -0.157490 -0.043823
v -0.013823 -0.157326 -0.044750
v -0.012815 -0.157393 -0.044800
v -0.011102 -0.157408 -0.044810
v -0.009389 -0.154662 0.056930
v -0.028312 -0.148438 -0.031866
v -0.028312 -0.148225 -0.033571
v -0.014936 -0.156835 -0.043823
v -0.010501 -0.154662 0.056820
v -0.011102 -0.154662 0.056760
v 0.019641 -0.147825 -0.044930
v -0.023062 -0.139556 -0.044920
v -0.021357 -0.144411 -0.044930
v -0.021357 -0.146123 -0.044920
v -0.023930 -0.139556 -0.044820
v -0.024078 -0.139556 -0.044800
v -0.024442 -0.139556 -0.043973
v -0.028312 -0.139556 -0.034927
v -0.011102 -0.156371 -0.044930
v -0.015603 -0.155710 -0.044760
v -0.014446 -0.156316 -0.044820
v -0.012815 -0.156371 -0.044920
v -0.015899 -0.155984 -0.043823
v -0.028312 -0.147496 -0.034678
v -0.020564 -0.150492 -0.044731
v -0.018465 -0.153470 -0.043823
v -0.017612 -0.154339 -0.043823
v -0.016752 -0.155193 -0.043823
v -0.023062 -0.140997 -0.044900
v -0.017939 -0.151246 -0.044930
v -0.019652 -0.149537 -0.044910
v -0.022299 -0.147177 -0.044750
v -0.022410 -0.146123 -0.044790
v -0.024034 -0.140997 -0.044770
v -0.028312 -0.146123 -0.034927
v -0.014513 -0.154662 -0.044930
v -0.017301 -0.154032 -0.044760
v -0.016189 -0.154626 -0.044830
v -0.023960 -0.142169 -0.044721
v -0.023767 -0.143306 -0.044481
v -0.020734 -0.149537 -0.044780
v -0.019570 -0.151137 -0.044810
v -0.018947 -0.152325 -0.044760
v -0.017894 -0.152917 -0.044830
f 109 106 81
f 36 64 65
f 109 81 108
f 25 46 48
f 115 89 87
f 137 114 113
f 127 106 109
f 127 128 106
f 93 65 64
f 72 62 39
f 112 113 83
f 24 46 25
f 25 9 24
f 35 62 36
f 39 62 35
f 35 21 39
f 53 28 27
f 14 32 33
f 33 31 14
f 14 17 32
f 46 50 49
f 49 48 46
f 49 50 25
f 25 48 49
f 25 50 51
f 51 52 25
f 51 50 46
f 46 76 51
f 76 52 51
f 138 156 139
f 137 156 138
f 138 139 114
f 138 114 137
f 83 53 82
f 106 128 129
f 47 80 81
f 100 73 99
f 6 21 18
f 70 82 53
f 65 93 70
f 93 82 70
f 37 70 53
f 36 65 37
f 65 70 37
f 56 31 33
f 33 60 56
f 17 16 34
f 28 53 54
f 101 73 100
f 71 72 39
f 74 71 40
f 100 99 122
f 106 129 122
f 79 47 81
f 19 20 6
f 6 18 19
f 36 37 19
f 19 37 20
f 19 35 36
f 21 35 19
f 19 18 21
f 17 14 5
f 5 16 17
f 15 16 5
f 5 13 15
f 4 13 5
f 1 4 5
f 20 37 38
f 38 37 53
f 12 13 4
f 8 9 2
f 2 7 8
f 8 7 9
f 9 7 23
f 23 24 9
f 23 43 24
f 75 43 42
f 24 43 44
f 44 43 75
f 81 80 105
f 59 56 60
f 59 87 89
f 59 58 87
f 33 58 59
f 59 60 33
f 30 12 29
f 30 16 15
f 30 34 16
f 15 13 30
f 13 12 30
f 57 34 55
f 55 30 29
f 34 30 55
f 29 28 55
f 28 54 55
f 84 88 61
f 83 113 84
f 114 88 84
f 84 113 114
f 84 53 83
f 92 93 64
f 63 64 36
f 63 92 64
f 36 62 66
f 62 72 66
f 72 71 66
f 95 119 120
f 128 145 146
f 146 147 128
f 146 145 153
f 160 145 156
f 112 135 133
f 113 112 133
f 134 135 112
f 140 143 157
f 123 122 129
f 100 122 123
f 142 143 123
f 128 147 148
f 148 149 128
f 147 158 148
f 158 149 148
f 144 129 128
f 128 149 144
f 144 123 129
f 41 71 39
f 41 40 71
f 21 40 41
f 39 21 41
f 121 99 106
f 106 122 121
f 121 122 99
f 26 53 27
f 26 38 53
f 22 23 7
f 43 23 22
f 22 42 43
f 45 75 46
f 45 44 75
f 46 24 45
f 24 44 45
f 78 52 76
f 78 76 46
f 57 55 86
f 86 55 54
f 54 84 86
f 61 57 86
f 86 84 61
f 85 54 53
f 53 84 85
f 85 84 54
f 93 92 116
f 116 92 90
f 90 92 91
f 91 63 90
f 92 63 91
f 90 63 69
f 69 63 36
f 102 119 95
f 95 120 97
f 164 158 147
f 147 146 164
f 162 146 153
f 155 156 137
f 155 160 156
f 153 145 161
f 161 160 153
f 145 160 161
f 137 113 136
f 113 133 136
f 136 155 137
f 142 123 141
f 141 149 158
f 141 144 149
f 123 144 141
f 11 3 10
f 12 3 11
f 29 12 11
f 11 28 29
f 27 28 11
f 46 75 77
f 77 78 46
f 107 108 81
f 105 126 107
f 81 105 107
f 105 78 104
f 103 126 104
f 104 126 105
f 104 77 103
f 78 77 104
f 117 97 120
f 95 66 94
f 94 102 95
f 94 66 71
f 94 71 74
f 74 102 94
f 125 143 140
f 96 66 95
f 95 97 96
f 36 66 67
f 66 96 67
f 67 96 97
f 158 164 165
f 153 160 154
f 160 155 154
f 154 135 153
f 150 136 133
f 155 136 150
f 150 133 135
f 135 154 150
f 150 154 155
f 108 107 131
f 118 116 90
f 90 117 118
f 98 117 90
f 97 117 98
f 90 69 98
f 124 123 143
f 143 125 124
f 100 123 124
f 124 125 101
f 124 101 100
f 68 67 97
f 68 98 69
f 97 98 68
f 68 69 36
f 36 67 68
f 159 143 142
f 159 157 143
f 142 141 159
f 159 141 158
f 158 165 159
f 135 134 151
f 157 159 151
f 151 159 165
f 146 162 163
f 163 164 146
f 163 165 164
f 130 126 108
f 108 131 130
f 130 107 126
f 130 131 107
f 93 116 110
f 116 118 110
f 110 82 93
f 110 118 117
f 110 111 83
f 83 82 110
f 135 151 152
f 152 163 162
f 152 151 165
f 165 163 152
f 153 135 152
f 152 162 153
f 132 110 117
f 111 110 132
f 108 115 109
f 108 89 115
f 87 139 115
f 114 139 87
f 21 6 2
f 2 9 21
f 57 61 33
f 33 32 57
f 52 80 47
f 25 52 47
f 33 61 58
f 61 88 58
f 114 87 58
f 58 88 114
f 34 57 32
f 32 17 34
f 115 139 145
f 109 115 145
f 139 156 145
f 145 127 109
f 128 127 145
f 25 47 40
f 40 47 73
f 40 101 74
f 73 101 40
f 40 21 9
f 40 9 25
f 106 99 79
f 79 81 106
f 73 47 79
f 79 99 73
f 5 7 2
f 5 2 1
f 42 56 75
f 31 56 42
f 20 38 26
f 26 10 20
f 20 10 3
f 6 20 3
f 2 6 3
f 1 2 3
f 3 4 1
f 3 12 4
f 7 5 22
f 22 5 14
f 31 42 22
f 22 14 31
f 78 80 52
f 78 105 80
f 10 26 11
f 11 26 27
f 89 108 77
f 77 59 89
f 108 126 77
f 75 56 77
f 56 59 77
f 77 126 103
f 140 119 125
f 119 102 125
f 74 101 125
f 125 102 74
f 140 157 132
f 132 112 83
f 132 119 140
f 132 120 119
f 132 134 112
f 132 151 134
f 132 117 120
f 157 151 132
f 83 111 132
