v -0.033767 -0.084081 -0.040415
v -0.033767 -0.084081 -0.047767
v -0.050922 -0.098265 -0.028456
v -0.050922 -0.098268 -0.027601
v -0.033767 -0.084162 -0.038709
v 0.032863 -0.085751 -0.040415
v 0.032863 -0.085751 -0.047248
v 0.032863 -0.085807 -0.048959
v -0.033767 -0.084359 -0.048959
v -0.050897 -0.098265 -0.048955
v -0.050922 -0.098265 -0.047248
v -0.051028 -0.107772 -0.029390
v -0.050955 -0.107667 -0.027601
v -0.050010 -0.098265 -0.027601
v -0.033767 -0.086308 -0.034414
v -0.033767 -0.085596 -0.035293
v -0.033767 -0.084689 -0.036998
v 0.032863 -0.085867 -0.038711
v 0.032863 -0.086391 -0.050325
v -0.033767 -0.084399 -0.049067
v -0.050207 -0.098265 -0.050371
v -0.050207 -0.098268 -0.050373
v -0.050979 -0.107772 -0.048889
v -0.051028 -0.107772 -0.047248
v -0.050955 -0.107772 -0.027601
v -0.016917 -0.107774 -0.027631
v -0.034999 -0.098265 -0.027601
v -0.034047 -0.098268 -0.027601
v 0.032854 -0.100580 -0.027631
v 0.032863 -0.086449 -0.037091
v 0.032863 -0.088017 -0.050883
v 0.029898 -0.088017 -0.050933
v -0.033767 -0.085881 -0.050380
v -0.033767 -0.085194 -0.050113
v -0.033767 -0.084846 -0.049784
v -0.050224 -0.107772 -0.050373
v -0.048696 -0.098265 -0.050935
v -0.016917 -0.107774 -0.050935
v -0.031468 -0.107772 -0.027601
v 0.032854 -0.107774 -0.027631
v -0.031468 -0.101039 -0.027601
v -0.016917 -0.105967 -0.027604
v 0.032863 -0.098952 -0.035917
v 0.032863 -0.089234 -0.036143
v 0.032863 -0.088017 -0.036180
v 0.032863 -0.087718 -0.036296
v 0.032863 -0.089262 -0.050926
v -0.016917 -0.088017 -0.050933
v -0.033767 -0.087569 -0.050846
v 0.032863 -0.089726 -0.050940
v -0.048688 -0.107772 -0.050935
v -0.033767 -0.098263 -0.050940
v -0.033767 -0.088017 -0.050887
v -0.033767 -0.089278 -0.050931
v -0.033767 -0.089726 -0.050940
v -0.016917 -0.098952 -0.050940
v 0.032854 -0.107774 -0.050935
v -0.016917 -0.107772 -0.027604
v 0.032863 -0.098952 -0.050940
v -0.029900 -0.088017 -0.050931
f 23 38 24
f 28 15 27
f 2 7 8
f 6 1 5
f 1 4 5
f 4 17 5
f 29 15 28
f 15 29 30
f 30 29 46
f 14 15 4
f 14 27 15
f 13 4 12
f 8 19 20
f 23 22 36
f 51 38 36
f 36 38 23
f 37 22 34
f 37 52 51
f 51 36 37
f 37 36 22
f 10 22 23
f 23 24 10
f 42 29 28
f 46 29 45
f 43 29 40
f 6 5 18
f 18 5 17
f 17 30 18
f 15 30 16
f 16 30 17
f 4 15 16
f 16 17 4
f 41 42 28
f 12 26 25
f 25 13 12
f 51 52 56
f 56 38 51
f 31 32 19
f 9 2 8
f 8 20 9
f 9 10 2
f 20 10 9
f 35 19 34
f 35 20 19
f 34 22 35
f 49 48 60
f 32 48 49
f 11 10 24
f 2 10 11
f 22 10 21
f 21 10 20
f 21 35 22
f 20 35 21
f 44 29 43
f 44 45 29
f 39 40 58
f 50 32 47
f 32 31 47
f 32 49 33
f 34 19 33
f 19 32 33
f 33 37 34
f 33 49 37
f 12 4 3
f 3 4 1
f 55 54 60
f 37 54 55
f 52 37 55
f 60 48 55
f 37 49 53
f 53 54 37
f 53 49 60
f 60 54 53
f 6 7 2
f 2 1 6
f 26 24 38
f 12 24 26
f 40 59 43
f 57 59 40
f 29 42 40
f 40 42 58
f 40 26 38
f 40 38 57
f 56 59 57
f 57 38 56
f 28 27 39
f 39 14 4
f 27 14 39
f 4 13 39
f 39 41 28
f 13 25 39
f 58 42 39
f 42 41 39
f 26 40 39
f 39 25 26
f 47 59 50
f 47 7 6
f 6 18 47
f 8 7 47
f 47 44 43
f 43 59 47
f 47 19 8
f 47 30 46
f 46 45 47
f 47 18 30
f 47 31 19
f 45 44 47
f 3 24 12
f 3 11 24
f 1 2 3
f 2 11 3
f 50 59 55
f 59 56 55
f 55 56 52
f 55 32 50
f 55 48 32
