v -0.046991 -0.098266 -0.000947
v -0.036748 -0.098266 -0.000947
v -0.048696 -0.098266 -0.000937
v -0.048706 -0.098256 -0.050930
v -0.035041 -0.098266 -0.000648
v -0.033776 -0.098256 -0.050930
v -0.050121 -0.098266 -0.000578
v -0.048705 -0.090032 -0.050940
v -0.050221 -0.098256 -0.050372
v -0.034139 -0.098266 -0.000289
v -0.034077 -0.098266 0.000578
v -0.033776 -0.090032 -0.050940
v -0.033359 -0.089371 0.034954
v -0.033365 -0.098266 0.034944
v -0.050807 -0.098266 0.000578
v -0.048705 -0.059560 -0.050940
v -0.050221 -0.059560 -0.050372
v -0.050904 -0.098256 -0.048955
v -0.050900 -0.082894 -0.048975
v -0.033776 -0.089711 -0.050940
v -0.033359 -0.088002 0.034974
v -0.033359 -0.089371 0.050930
v -0.033365 -0.098266 0.050930
v -0.050931 -0.098266 0.002314
v -0.048703 -0.027418 -0.050940
v -0.050221 -0.011250 -0.050362
v -0.050217 -0.027418 -0.050372
v -0.050940 -0.098256 -0.047250
v -0.050906 -0.059560 -0.048955
v -0.050906 -0.043508 -0.048955
v -0.036750 -0.011250 -0.050940
v -0.036750 -0.002588 -0.050930
v -0.035041 -0.002170 -0.050471
v -0.034122 -0.000879 -0.049913
v -0.033776 -0.089264 -0.050930
v -0.033359 -0.086973 0.035373
v -0.033776 -0.088002 -0.050880
v -0.033776 -0.087555 -0.050840
v -0.033776 -0.085866 -0.050372
v -0.033776 -0.085176 -0.050112
v -0.033359 -0.088002 0.050910
v -0.035037 -0.000859 0.050312
v -0.036750 -0.000859 0.050910
v -0.036750 -0.002588 0.050930
v -0.036748 -0.027408 0.050940
v -0.036746 -0.071077 0.050940
v -0.036746 -0.084584 0.050940
v -0.046991 -0.098266 0.050930
v -0.050931 -0.098266 0.048437
v -0.048703 -0.002588 -0.050930
v -0.043967 -0.011250 -0.050940
v -0.050217 -0.002588 -0.050362
v -0.050906 -0.002588 -0.048945
v -0.050940 -0.082894 -0.047250
v -0.050907 -0.043508 -0.048886
v -0.050940 -0.098256 -0.021611
v -0.036750 -0.000879 -0.050890
v -0.035041 -0.000879 -0.050451
v -0.034142 0.000034 -0.049873
v -0.034067 -0.000879 -0.048945
v -0.033359 -0.085905 0.036081
v -0.034062 -0.002170 -0.048945
v -0.033359 -0.086167 0.050112
v -0.034062 -0.000859 0.048447
v -0.034122 -0.000859 0.049504
v -0.035037 0.000267 0.049803
v -0.034142 0.000054 0.049434
v -0.042497 -0.000859 0.050910
v -0.042497 -0.002588 0.050940
v -0.036750 0.000442 0.050092
v -0.046991 -0.084584 0.050940
v -0.048705 -0.098266 0.050920
v -0.050248 -0.098266 0.050102
v -0.050931 -0.093906 0.048447
v -0.050940 -0.082894 0.048447
v -0.048703 -0.000879 -0.050890
v -0.050215 -0.002170 -0.050362
v -0.050200 -0.000879 -0.050342
v -0.050940 -0.011250 -0.047240
v -0.050938 -0.002588 -0.047240
v -0.050897 -0.002170 -0.048945
v -0.036750 0.000442 -0.050332
v -0.035041 0.000257 -0.050122
v -0.035041 0.000549 -0.048945
v -0.034122 0.000083 -0.048945
v -0.034062 -0.000879 -0.021511
v -0.033359 -0.085011 0.039890
v -0.033359 -0.085060 0.038903
v -0.033359 -0.085332 0.037407
v -0.033359 -0.085050 0.048437
v -0.034122 0.000083 0.048447
v -0.033359 -0.085011 0.046731
v -0.034062 -0.000859 0.022787
v -0.035037 0.000549 0.048447
v -0.036750 0.000937 0.048447
v -0.048703 0.000442 0.050092
v -0.046996 -0.000879 0.050910
v -0.046996 -0.002588 0.050940
v -0.046996 -0.027418 0.050940
v -0.048705 -0.082894 0.050930
v -0.049940 -0.089371 0.050272
v -0.050246 -0.082894 0.050112
v -0.050248 -0.074932 0.050112
v -0.050940 -0.002588 0.048447
v -0.049981 0.000287 -0.050152
v -0.048703 0.000442 -0.050332
v -0.050866 -0.000879 -0.048945
v -0.050940 -0.002588 0.022787
v -0.050878 -0.000879 -0.047240
v -0.050881 -0.000879 0.000060
v -0.036750 0.000927 -0.048945
v -0.036750 0.000937 0.022787
v -0.035024 0.000549 0.022787
v -0.042497 0.000937 0.048447
v -0.048703 0.000927 0.048447
v -0.049981 0.000287 0.049823
v -0.048703 -0.000879 0.050900
v -0.048703 -0.002588 0.050930
v -0.048705 -0.059560 0.050930
v -0.049253 -0.059560 0.050641
v -0.050248 -0.002588 0.050112
v -0.050221 -0.000879 0.050102
v -0.050878 -0.000879 0.048447
v -0.050881 -0.000879 0.022787
v -0.050190 0.000442 -0.048945
v -0.048703 0.000927 -0.048945
v -0.050842 -0.000801 -0.021511
v -0.042497 0.000937 0.022787
v -0.050193 0.000442 0.022787
v -0.050190 0.000442 0.048447
v -0.050193 0.000442 0.000060
f 13 14 6
f 11 6 14
f 10 6 11
f 5 6 10
f 5 2 6
f 28 18 24
f 24 18 15
f 55 54 79
f 28 54 55
f 75 56 49
f 111 112 84
f 60 89 61
f 59 60 34
f 60 37 34
f 38 37 60
f 23 22 47
f 3 4 1
f 7 4 3
f 81 78 53
f 53 55 79
f 83 82 111
f 83 84 59
f 111 84 83
f 59 84 85
f 85 60 59
f 85 86 60
f 85 93 86
f 95 66 94
f 107 109 125
f 107 78 81
f 124 104 123
f 126 125 131
f 105 125 126
f 105 107 125
f 78 107 105
f 60 61 62
f 62 61 40
f 62 38 60
f 37 38 21
f 82 83 57
f 46 22 45
f 46 47 22
f 67 66 42
f 42 65 67
f 91 94 67
f 67 94 66
f 64 91 67
f 67 65 64
f 45 22 44
f 116 130 123
f 115 130 116
f 42 66 43
f 43 22 42
f 43 44 22
f 26 53 52
f 80 53 79
f 81 53 80
f 80 107 81
f 109 107 80
f 9 4 7
f 18 19 9
f 9 7 15
f 15 18 9
f 113 112 95
f 95 94 113
f 113 84 112
f 113 85 84
f 91 85 113
f 113 94 91
f 129 130 115
f 125 109 127
f 127 131 125
f 127 129 131
f 124 129 127
f 106 105 126
f 39 62 40
f 38 62 39
f 40 21 39
f 39 21 38
f 40 61 36
f 36 21 40
f 32 33 20
f 20 33 34
f 20 31 32
f 20 21 13
f 59 34 58
f 34 33 58
f 58 83 59
f 58 57 83
f 32 57 58
f 58 33 32
f 63 90 64
f 64 90 92
f 49 73 74
f 74 75 49
f 74 73 75
f 72 48 71
f 96 114 115
f 115 116 96
f 96 116 117
f 44 43 69
f 45 44 69
f 29 19 18
f 29 18 28
f 28 55 29
f 30 53 26
f 26 19 30
f 19 29 30
f 55 53 30
f 30 29 55
f 77 53 78
f 77 52 53
f 77 78 50
f 50 52 77
f 108 80 79
f 4 9 8
f 26 52 27
f 105 106 76
f 50 78 76
f 78 105 76
f 35 34 37
f 35 20 34
f 37 21 35
f 21 20 35
f 41 63 64
f 64 65 41
f 42 22 41
f 41 65 42
f 86 93 87
f 60 86 87
f 101 73 72
f 101 102 73
f 119 118 120
f 122 118 117
f 117 116 122
f 123 104 122
f 122 116 123
f 121 122 104
f 118 122 121
f 121 120 118
f 72 71 100
f 119 120 100
f 100 101 72
f 102 101 100
f 70 66 95
f 70 43 66
f 99 100 71
f 80 108 110
f 109 80 110
f 110 127 109
f 124 127 110
f 13 6 12
f 12 20 13
f 17 25 16
f 27 25 17
f 17 9 19
f 17 19 26
f 26 27 17
f 51 25 50
f 88 89 60
f 60 87 88
f 75 73 103
f 73 102 103
f 120 121 103
f 102 100 103
f 103 100 120
f 97 68 96
f 97 96 117
f 68 97 98
f 98 118 119
f 4 2 1
f 6 2 4
f 56 24 49
f 28 24 56
f 22 23 14
f 22 14 13
f 128 112 111
f 128 111 126
f 64 93 85
f 85 91 64
f 1 2 48
f 48 11 14
f 49 24 48
f 10 11 48
f 14 23 48
f 48 5 10
f 48 3 1
f 2 5 48
f 48 24 15
f 15 7 48
f 48 73 49
f 7 3 48
f 72 73 48
f 112 128 114
f 95 112 114
f 114 128 126
f 126 115 114
f 129 115 126
f 126 131 129
f 129 124 123
f 123 130 129
f 126 111 106
f 111 82 106
f 71 48 23
f 23 47 71
f 28 56 108
f 108 54 28
f 79 54 108
f 56 75 108
f 75 104 108
f 25 27 52
f 25 52 50
f 76 57 32
f 76 32 50
f 76 106 82
f 82 57 76
f 87 93 64
f 64 92 87
f 95 114 70
f 114 96 70
f 68 70 96
f 43 70 68
f 110 108 104
f 104 124 110
f 6 4 12
f 4 8 12
f 16 8 17
f 17 8 9
f 31 20 51
f 51 8 16
f 16 25 51
f 20 12 51
f 51 12 8
f 50 32 51
f 32 31 51
f 88 61 89
f 88 22 13
f 13 21 88
f 88 41 22
f 88 36 61
f 21 36 88
f 90 63 88
f 88 92 90
f 63 41 88
f 88 87 92
f 103 104 75
f 103 121 104
f 98 97 117
f 117 118 98
f 98 71 47
f 98 46 45
f 47 46 98
f 45 69 98
f 98 99 71
f 43 68 98
f 98 69 43
f 119 100 98
f 100 99 98
