v 0.032863 -0.100578 0.026312
v 0.026489 -0.101094 0.026312
v 0.032863 -0.107774 0.026312
v 0.032863 -0.100578 -0.027628
v 0.026489 -0.101074 -0.027628
v 0.026411 -0.101109 0.026312
v 0.008827 -0.107774 0.026312
v 0.032863 -0.107774 -0.027628
v 0.024763 -0.101507 -0.027628
v 0.010981 -0.106081 0.026312
v 0.009396 -0.106097 -0.027628
v 0.009288 -0.106925 0.026312
v 0.008006 -0.106986 -0.027628
v 0.007874 -0.107520 -0.027628
v 0.007812 -0.107774 -0.027628
v 0.009315 -0.106898 0.026312
v 0.009298 -0.106908 0.026312
f 1 4 5
f 6 5 9
f 15 7 14
f 7 13 14
f 1 5 2
f 5 6 2
f 11 6 9
f 6 11 10
f 17 11 13
f 16 10 11
f 11 17 16
f 12 13 7
f 12 17 13
f 3 7 8
f 8 7 15
f 1 3 8
f 8 4 1
f 11 8 15
f 11 5 4
f 4 8 11
f 9 5 11
f 15 14 11
f 11 14 13
f 12 7 3
f 12 3 1
f 1 2 12
f 12 2 6
f 6 10 12
f 10 16 12
f 12 16 17
