v -0.003995 -0.133490 -0.026724
v -0.004063 -0.133490 -0.011319
v -0.004960 -0.139550 -0.009634
v -0.004943 -0.139550 -0.033553
v -0.004029 -0.133490 -0.035239
v -0.005658 -0.125092 0.001782
v -0.005853 -0.125092 0.053560
v -0.005883 -0.125092 0.054956
v -0.005896 -0.125092 0.055275
v -0.012997 -0.140713 0.055265
v -0.027566 -0.149539 0.053929
v -0.005067 -0.139550 -0.042098
v -0.027566 -0.149539 0.002072
v -0.004446 -0.133490 -0.042038
v -0.026435 -0.125092 0.001782
v -0.004680 -0.133490 -0.043704
v -0.005020 -0.133490 -0.044531
v -0.005334 -0.133490 -0.044711
v -0.005985 -0.133490 -0.044760
v -0.007631 -0.133490 -0.044860
v -0.009408 -0.133490 -0.044910
v -0.006398 -0.125092 0.056302
v -0.013346 -0.140713 0.056431
v -0.027566 -0.147476 0.056531
v -0.043577 -0.149539 0.053929
v -0.005190 -0.139550 -0.042607
v -0.028315 -0.148436 -0.031858
v -0.043577 -0.149539 0.002072
v -0.026435 -0.125092 0.053560
v -0.021362 -0.133490 -0.044910
v -0.023071 -0.133490 -0.044870
v -0.024041 -0.133490 -0.044751
v -0.043577 -0.135756 -0.033573
v -0.045159 -0.136240 -0.033573
v -0.045239 -0.136144 -0.031858
v -0.006942 -0.139550 -0.044621
v -0.005866 -0.139550 -0.043624
v -0.005960 -0.139550 -0.043734
v -0.006023 -0.139550 -0.043793
v -0.007456 -0.139550 -0.044751
v -0.007699 -0.139550 -0.044790
v -0.009140 -0.139550 -0.044910
v -0.006487 -0.125092 0.056382
v -0.014533 -0.140713 0.056830
v -0.027566 -0.146117 0.056930
v -0.043577 -0.147476 0.056531
v -0.045286 -0.149539 0.053849
v -0.045286 -0.147467 0.056521
v -0.028315 -0.148228 -0.033573
v -0.043577 -0.148436 -0.031858
v -0.045286 -0.149539 0.002131
v -0.045239 -0.136144 0.001772
v -0.045235 -0.136147 0.053560
v -0.026418 -0.125092 0.055275
v -0.023071 -0.134158 -0.044910
v -0.024075 -0.134158 -0.044770
v -0.046579 -0.139284 -0.034680
v -0.046430 -0.137994 -0.034600
v -0.044865 -0.136465 -0.034600
v -0.046018 -0.136848 -0.033573
v -0.046090 -0.136771 -0.031858
v -0.046094 -0.136771 0.001772
v -0.028315 -0.147495 -0.034680
v -0.023071 -0.139550 -0.044910
v -0.007150 -0.125092 0.056521
v -0.008885 -0.125092 0.056830
v -0.016238 -0.140713 0.056920
v -0.010595 -0.125092 0.056920
v -0.027566 -0.137575 0.056930
v -0.041004 -0.146117 0.056930
v -0.045286 -0.146114 0.056930
v -0.046541 -0.149539 0.053241
v -0.046485 -0.147294 0.056382
v -0.043577 -0.148228 -0.033573
v -0.045286 -0.148283 -0.031858
v -0.045286 -0.148108 -0.033573
v -0.046541 -0.149539 0.002680
v -0.046094 -0.136771 0.053560
v -0.046081 -0.136783 0.055275
v -0.045222 -0.136182 0.055275
v -0.026014 -0.125092 0.056511
v -0.024113 -0.137570 -0.044790
v -0.024105 -0.135866 -0.044790
v -0.047225 -0.140993 -0.033573
v -0.047213 -0.139284 -0.033573
v -0.046579 -0.144408 -0.034680
v -0.046673 -0.137700 -0.033573
v -0.046766 -0.137621 -0.031858
v -0.043577 -0.147495 -0.034680
v -0.024088 -0.139550 -0.044780
v -0.045286 -0.147452 -0.034680
v -0.024781 -0.125092 0.056920
v -0.043577 -0.137575 0.056930
v -0.045286 -0.139284 0.056930
v -0.046698 -0.144408 0.056531
v -0.046681 -0.146114 0.056521
v -0.046940 -0.149539 0.051865
v -0.047276 -0.146114 0.055275
v -0.046681 -0.147550 -0.031858
v -0.046613 -0.147481 -0.033573
v -0.046940 -0.149539 0.004036
v -0.046405 -0.147263 -0.034590
v -0.046766 -0.137621 0.001772
v -0.046766 -0.137623 0.053560
v -0.046732 -0.137638 0.055275
v -0.046511 -0.137910 0.056392
v -0.044946 -0.136388 0.056392
v -0.024096 -0.139282 -0.044780
v -0.046562 -0.146117 -0.034680
v -0.047225 -0.144408 -0.033573
v -0.047438 -0.140993 -0.031858
v -0.047412 -0.139284 -0.031858
v -0.045427 -0.137434 0.056601
v -0.046698 -0.139284 0.056531
v -0.047344 -0.144408 0.055275
v -0.047353 -0.146114 0.053560
v -0.047378 -0.146114 0.051865
v -0.047434 -0.144408 0.053560
v -0.047332 -0.146117 -0.031858
v -0.047157 -0.146117 -0.033573
v -0.047378 -0.146114 0.004036
v -0.047412 -0.139284 0.053560
v -0.047336 -0.139284 0.055275
v -0.047438 -0.144408 -0.031858
v -0.047438 -0.140993 0.001772
v -0.047421 -0.139825 0.001772
v -0.047344 -0.140993 0.055275
v -0.047438 -0.144408 0.001772
v -0.047434 -0.140993 0.053560
f 1 6 7
f 7 2 1
f 2 9 3
f 1 2 3
f 101 121 119
f 15 31 32
f 30 31 15
f 8 9 2
f 2 7 8
f 12 13 27
f 11 3 10
f 10 3 9
f 11 13 4
f 4 3 11
f 4 13 12
f 1 3 4
f 5 6 1
f 1 4 5
f 5 4 12
f 101 75 77
f 77 75 50
f 32 58 59
f 54 29 53
f 33 15 32
f 34 15 33
f 32 59 33
f 33 59 34
f 81 107 92
f 124 119 121
f 124 120 119
f 110 120 124
f 23 10 9
f 11 10 23
f 6 5 14
f 14 5 12
f 6 17 18
f 49 63 41
f 55 31 30
f 32 31 55
f 99 75 101
f 101 119 99
f 76 74 50
f 50 75 76
f 51 50 28
f 51 77 50
f 111 112 85
f 34 59 60
f 60 59 58
f 88 61 60
f 35 15 34
f 34 60 35
f 35 60 61
f 78 103 104
f 57 58 32
f 57 85 58
f 102 120 109
f 109 120 110
f 110 86 109
f 71 46 70
f 111 125 126
f 126 112 111
f 16 17 6
f 6 14 16
f 16 14 12
f 20 21 6
f 42 41 63
f 21 20 42
f 18 41 42
f 82 55 64
f 82 109 86
f 86 57 82
f 64 89 91
f 91 76 102
f 91 89 74
f 74 76 91
f 102 76 100
f 100 120 102
f 75 99 100
f 100 76 75
f 119 120 100
f 100 99 119
f 88 60 87
f 87 60 58
f 58 85 87
f 87 112 88
f 87 85 112
f 52 78 53
f 53 29 52
f 62 35 61
f 62 61 88
f 85 57 84
f 111 85 84
f 123 106 105
f 107 106 113
f 113 92 107
f 113 93 92
f 94 93 113
f 113 106 94
f 116 117 97
f 97 98 116
f 114 106 123
f 94 106 114
f 46 71 48
f 48 25 46
f 128 117 118
f 117 116 118
f 118 116 98
f 125 129 122
f 122 126 125
f 122 129 123
f 112 126 122
f 123 105 122
f 122 105 104
f 104 103 122
f 22 23 9
f 22 43 23
f 66 67 44
f 44 65 66
f 43 65 44
f 23 43 44
f 6 18 19
f 19 20 6
f 18 42 19
f 19 42 20
f 26 27 49
f 12 27 26
f 26 16 12
f 17 16 26
f 36 18 17
f 55 82 83
f 83 82 57
f 90 82 64
f 90 91 102
f 64 91 90
f 102 109 90
f 79 78 104
f 104 105 79
f 53 78 79
f 79 106 107
f 79 105 106
f 72 98 97
f 115 118 98
f 98 96 115
f 11 23 24
f 23 44 24
f 45 44 67
f 45 24 44
f 68 67 66
f 69 45 68
f 68 45 67
f 49 38 37
f 37 26 49
f 37 38 17
f 17 26 37
f 49 41 40
f 40 36 49
f 40 41 18
f 18 36 40
f 39 38 49
f 49 36 39
f 17 38 39
f 39 36 17
f 32 55 56
f 55 83 56
f 56 57 32
f 56 83 57
f 109 82 108
f 108 90 109
f 82 90 108
f 80 54 53
f 53 79 80
f 81 54 80
f 80 107 81
f 80 79 107
f 95 96 71
f 95 115 96
f 73 48 71
f 71 96 73
f 73 96 98
f 98 72 73
f 25 48 47
f 48 73 47
f 47 73 72
f 127 114 123
f 123 129 127
f 27 13 28
f 28 50 27
f 21 15 6
f 30 15 21
f 74 27 50
f 49 27 74
f 101 97 117
f 117 121 101
f 121 117 124
f 124 117 128
f 124 125 111
f 128 125 124
f 49 74 89
f 89 63 49
f 63 89 42
f 42 89 64
f 30 21 42
f 42 55 30
f 64 55 42
f 29 15 52
f 15 35 52
f 62 52 35
f 78 52 62
f 88 103 62
f 103 78 62
f 84 57 86
f 84 86 110
f 84 124 111
f 110 124 84
f 118 125 128
f 118 129 125
f 122 103 88
f 88 112 122
f 24 25 11
f 46 25 24
f 45 93 94
f 45 71 70
f 94 71 45
f 45 69 93
f 46 24 45
f 70 46 45
f 93 69 68
f 92 93 68
f 6 15 68
f 68 7 6
f 68 54 81
f 9 8 68
f 68 15 29
f 81 92 68
f 68 8 7
f 29 54 68
f 66 65 68
f 68 22 9
f 43 22 68
f 68 65 43
f 95 71 94
f 94 114 95
f 47 51 28
f 47 13 11
f 28 13 47
f 47 97 101
f 101 77 47
f 77 51 47
f 11 25 47
f 47 72 97
f 127 95 114
f 115 95 127
f 129 118 127
f 118 115 127
