v -0.029585 -0.113986 0.010333
v -0.029585 -0.107774 0.010333
v -0.028461 -0.117065 0.010333
v -0.029585 -0.113986 0.046732
v -0.029585 -0.107774 0.050968
v -0.009334 -0.107774 0.010333
v -0.026473 -0.120377 0.010333
v -0.028461 -0.117065 0.045027
v -0.029585 -0.113976 0.048446
v -0.029585 -0.111941 0.053414
v 0.029626 -0.111941 0.053562
v 0.029626 -0.107775 0.050968
v -0.007068 -0.107774 0.050934
v -0.007068 -0.107774 0.028207
v 0.029626 -0.107775 0.010333
v -0.026473 -0.120377 0.045027
v 0.026479 -0.120377 0.010333
v -0.028339 -0.117065 0.046732
v -0.028194 -0.117065 0.048446
v -0.029585 -0.113533 0.050206
v -0.029585 -0.113025 0.051751
v -0.027360 -0.117925 0.049326
v -0.026484 -0.117065 0.050198
v -0.024775 -0.117065 0.050240
v 0.024775 -0.117065 0.050240
v 0.026485 -0.117065 0.050194
v 0.027360 -0.117925 0.049322
v 0.029626 -0.113159 0.051611
v 0.029626 -0.113951 0.010333
v -0.026084 -0.120377 0.046753
v 0.028461 -0.117065 0.010333
v 0.026479 -0.120377 0.045031
v -0.025047 -0.120377 0.047549
v -0.024775 -0.120377 0.047684
v -0.023824 -0.120377 0.047794
v -0.023065 -0.120377 0.047866
v 0.007080 -0.120377 0.047866
v 0.023065 -0.120377 0.047862
v 0.024775 -0.120377 0.047684
v 0.026079 -0.120377 0.046749
v 0.026131 -0.120377 0.046567
v 0.028195 -0.117065 0.048446
v 0.029626 -0.113789 0.049618
v 0.029626 -0.113951 0.046741
v 0.028461 -0.117065 0.045031
v 0.028339 -0.117065 0.046741
v 0.029626 -0.113940 0.048446
v 0.029626 -0.113945 0.047900
f 11 10 24
f 5 10 11
f 11 12 5
f 12 13 5
f 8 9 4
f 15 6 14
f 11 24 25
f 25 26 11
f 9 19 20
f 20 19 21
f 18 9 8
f 18 19 9
f 10 21 22
f 21 19 22
f 26 25 38
f 23 24 10
f 10 22 23
f 23 36 24
f 16 18 8
f 19 18 16
f 16 22 19
f 37 38 25
f 26 38 39
f 22 16 30
f 45 44 48
f 48 47 45
f 46 32 45
f 46 42 32
f 27 39 40
f 26 39 27
f 11 26 27
f 27 28 11
f 42 28 27
f 40 41 27
f 27 41 32
f 32 42 27
f 34 23 22
f 43 28 42
f 42 46 43
f 45 47 43
f 43 46 45
f 22 30 33
f 33 34 22
f 36 23 35
f 23 34 35
f 1 2 6
f 15 29 6
f 6 31 17
f 6 17 7
f 6 3 1
f 7 3 6
f 29 31 6
f 1 3 4
f 4 3 8
f 14 6 2
f 2 5 14
f 14 5 13
f 14 12 15
f 14 13 12
f 20 2 1
f 20 5 2
f 1 4 20
f 10 5 20
f 20 4 9
f 20 21 10
f 17 31 32
f 31 45 32
f 16 3 7
f 8 3 16
f 44 31 29
f 44 45 31
f 24 36 37
f 37 25 24
f 43 29 15
f 43 12 11
f 15 12 43
f 47 48 43
f 43 44 29
f 43 48 44
f 11 28 43
f 7 17 35
f 35 16 7
f 17 32 35
f 35 41 40
f 35 37 36
f 40 39 35
f 38 37 35
f 35 39 38
f 35 30 16
f 32 41 35
f 35 33 30
f 34 33 35
