v -0.009199 -0.157137 0.050159
v -0.009199 -0.157137 0.005728
v -0.027571 -0.149547 0.053940
v -0.009251 -0.157137 0.051869
v -0.010064 -0.170042 0.051869
v -0.010064 -0.170042 0.004019
v -0.009258 -0.157137 0.004019
v -0.027571 -0.149547 0.002069
v -0.043576 -0.149547 0.053940
v -0.012831 -0.157137 0.054053
v -0.011490 -0.157137 0.054012
v -0.011113 -0.157137 0.053930
v -0.009916 -0.157137 0.053537
v -0.009628 -0.157137 0.053374
v -0.009306 -0.157137 0.052124
v -0.010193 -0.170995 0.052848
v -0.010163 -0.171043 0.051869
v -0.010163 -0.171043 0.004019
v -0.010193 -0.170995 0.003054
v -0.009642 -0.157137 0.002539
v -0.011113 -0.157137 0.002023
v -0.012816 -0.157137 0.001921
v -0.043576 -0.149547 0.002069
v -0.043576 -0.164928 0.053935
v -0.045286 -0.149547 0.053854
v -0.045286 -0.168335 0.053849
v -0.021361 -0.168333 0.053935
v -0.012820 -0.168333 0.053935
v -0.043576 -0.168335 0.053930
v -0.012820 -0.170042 0.053889
v -0.011113 -0.170042 0.053496
v -0.010163 -0.170042 0.052905
v -0.011113 -0.171205 0.053098
v -0.011113 -0.171515 0.051869
v -0.011113 -0.171515 0.004019
v -0.011113 -0.171205 0.002819
v -0.011113 -0.170042 0.002462
v -0.010163 -0.170042 0.002998
v -0.012820 -0.168333 0.002064
v -0.012820 -0.170042 0.002095
v -0.021361 -0.168333 0.002064
v -0.043576 -0.168335 0.002069
v -0.045286 -0.149547 0.002136
v -0.046539 -0.149547 0.053236
v -0.046539 -0.164928 0.053246
v -0.046539 -0.170044 0.053246
v -0.045286 -0.170044 0.053833
v -0.021361 -0.170042 0.053889
v -0.043576 -0.170044 0.053884
v -0.036745 -0.171369 0.053282
v -0.012820 -0.171366 0.053282
v -0.012820 -0.171840 0.051869
v -0.012820 -0.171840 0.004019
v -0.012820 -0.171366 0.002646
v -0.021361 -0.170042 0.002095
v -0.043576 -0.170044 0.002100
v -0.045286 -0.170044 0.002151
v -0.045286 -0.168335 0.002141
v -0.046539 -0.149547 0.002682
v -0.046539 -0.170044 0.002687
v -0.046941 -0.149547 0.051864
v -0.046406 -0.171187 0.053068
v -0.046938 -0.170044 0.051864
v -0.045286 -0.171349 0.053262
v -0.043576 -0.171369 0.053282
v -0.021361 -0.171840 0.051869
v -0.021361 -0.171840 0.004019
v -0.036745 -0.171369 0.002651
v -0.021361 -0.171366 0.002646
v -0.043576 -0.171369 0.002651
v -0.045286 -0.171349 0.002666
v -0.046406 -0.171187 0.002850
v -0.046941 -0.149547 0.004029
v -0.046938 -0.170044 0.004024
v -0.046539 -0.171331 0.051864
v -0.045286 -0.171801 0.051864
v -0.043576 -0.171838 0.051864
v -0.043576 -0.171838 0.004024
v -0.045286 -0.171801 0.004024
v -0.046539 -0.171331 0.004024
f 2 7 8
f 8 7 20
f 20 7 19
f 23 8 22
f 22 42 23
f 3 9 10
f 11 3 10
f 1 3 4
f 4 5 1
f 16 5 4
f 17 5 16
f 16 34 17
f 11 30 12
f 12 3 11
f 31 12 30
f 19 7 6
f 7 2 6
f 22 8 21
f 8 20 21
f 22 21 39
f 60 57 72
f 72 74 60
f 43 60 59
f 43 23 42
f 59 60 73
f 73 60 74
f 75 76 62
f 62 63 75
f 62 76 64
f 65 49 64
f 77 65 64
f 64 76 77
f 66 65 77
f 46 63 62
f 61 63 46
f 3 14 15
f 15 4 3
f 15 14 16
f 16 4 15
f 16 14 32
f 32 31 16
f 14 31 32
f 13 31 14
f 12 31 13
f 13 14 3
f 3 12 13
f 38 20 19
f 41 42 22
f 22 39 41
f 37 38 19
f 37 21 20
f 20 38 37
f 40 39 21
f 21 37 40
f 57 60 58
f 60 43 58
f 42 57 58
f 58 43 42
f 52 51 50
f 50 51 30
f 52 34 33
f 33 51 52
f 33 34 16
f 30 51 33
f 16 31 33
f 33 31 30
f 48 49 65
f 24 10 9
f 80 74 72
f 72 79 80
f 62 64 47
f 47 64 49
f 47 46 62
f 78 70 67
f 18 35 19
f 19 6 18
f 45 25 44
f 45 46 25
f 45 44 61
f 61 46 45
f 72 57 71
f 71 79 72
f 71 78 79
f 70 78 71
f 68 54 53
f 36 37 19
f 36 40 37
f 54 40 36
f 19 35 36
f 36 35 53
f 53 54 36
f 10 24 29
f 29 47 49
f 9 25 26
f 26 24 9
f 25 46 26
f 46 47 26
f 26 29 24
f 47 29 26
f 56 69 70
f 56 55 69
f 56 71 57
f 70 71 56
f 56 57 42
f 28 30 11
f 11 10 28
f 10 29 27
f 27 28 10
f 8 3 2
f 2 3 1
f 6 2 1
f 1 5 6
f 73 3 8
f 73 43 59
f 73 9 3
f 61 44 73
f 8 23 73
f 44 25 73
f 73 25 9
f 23 43 73
f 73 74 63
f 73 63 61
f 66 67 53
f 66 53 52
f 52 53 35
f 35 34 52
f 50 66 52
f 65 66 50
f 65 50 48
f 48 50 30
f 63 74 80
f 80 75 63
f 76 75 80
f 80 79 76
f 67 66 78
f 78 66 77
f 76 79 78
f 77 76 78
f 34 35 18
f 18 17 34
f 18 6 5
f 5 17 18
f 53 67 68
f 67 70 68
f 69 68 70
f 54 68 69
f 39 40 55
f 55 41 39
f 54 69 55
f 55 40 54
f 41 55 56
f 42 41 56
f 27 29 49
f 49 48 27
f 27 48 30
f 30 28 27
