v 0.057924 -0.113649 0.065535
v 0.057921 -0.113649 0.067245
v 0.057916 -0.120483 0.067245
v 0.057924 -0.113649 0.033077
v 0.057899 -0.111941 0.065535
v 0.057897 -0.111941 0.067245
v 0.057866 -0.111941 0.068954
v 0.057899 -0.117065 0.068954
v 0.057899 -0.120483 0.068954
v 0.057874 -0.122192 0.067245
v 0.057916 -0.120483 0.031368
v 0.057919 -0.113649 0.031368
v 0.057899 -0.111941 0.033077
v 0.057129 -0.110574 0.068954
v 0.056885 -0.110744 0.070173
v 0.057118 -0.111941 0.070333
v 0.057140 -0.117065 0.070374
v 0.057140 -0.120483 0.070374
v 0.057819 -0.122192 0.068954
v 0.057115 -0.123494 0.067245
v 0.057874 -0.122192 0.033077
v 0.057860 -0.122192 0.031368
v 0.050936 -0.110231 0.010333
v 0.050936 -0.107775 0.010333
v 0.057894 -0.111941 0.031368
v 0.057129 -0.110574 0.031368
v 0.055542 -0.110061 0.068954
v 0.051033 -0.107775 0.046736
v 0.050999 -0.107775 0.048398
v 0.055542 -0.110574 0.070356
v 0.055542 -0.111941 0.070764
v 0.055753 -0.120483 0.070374
v 0.057079 -0.122192 0.070273
v 0.056811 -0.123262 0.070049
v 0.057066 -0.123431 0.068954
v 0.055791 -0.123494 0.067245
v 0.057115 -0.123494 0.033077
v 0.057102 -0.123468 0.031368
v 0.056858 -0.123311 0.030167
v 0.057121 -0.122192 0.029895
v 0.050437 -0.111939 0.010333
v 0.029626 -0.107775 0.010333
v 0.051033 -0.107775 0.030658
v 0.036745 -0.110061 0.068954
v 0.052116 -0.110573 0.070356
v 0.050218 -0.107775 0.050220
v 0.048703 -0.107775 0.050960
v 0.047013 -0.107775 0.050971
v 0.036745 -0.111939 0.070492
v 0.036745 -0.110573 0.070356
v 0.055825 -0.122192 0.070273
v 0.056063 -0.123262 0.070049
v 0.055844 -0.123431 0.068954
v 0.029626 -0.113938 0.048451
v 0.029626 -0.113943 0.047901
v 0.029626 -0.113949 0.046736
v 0.055791 -0.123494 0.033077
v 0.055811 -0.123468 0.031368
v 0.056016 -0.123311 0.030167
v 0.029626 -0.113949 0.010333
v 0.048703 -0.112940 0.010333
v 0.049750 -0.112867 0.010333
v 0.049977 -0.112584 0.010333
v 0.029626 -0.107775 0.050966
v 0.035036 -0.110068 0.068954
v 0.029909 -0.107775 0.050971
v 0.035036 -0.110581 0.070327
v 0.035036 -0.111939 0.070457
v 0.033158 -0.112110 0.070149
v 0.032476 -0.112793 0.069806
v 0.030726 -0.112820 0.068156
v 0.029626 -0.113789 0.049617
v 0.030637 -0.112850 0.067245
v 0.029762 -0.111939 0.065541
v 0.029626 -0.111939 0.053556
v 0.029634 -0.111939 0.063826
v 0.030000 -0.110573 0.065541
v 0.030247 -0.110636 0.067245
v 0.031621 -0.110125 0.067245
v 0.033330 -0.110168 0.068954
v 0.033330 -0.110681 0.070179
v 0.032213 -0.110878 0.069972
v 0.032213 -0.111655 0.069972
v 0.031634 -0.112110 0.069339
v 0.030557 -0.111939 0.068369
v 0.030119 -0.111939 0.067245
v 0.029626 -0.113160 0.051610
v 0.030526 -0.110828 0.068404
v 0.031634 -0.110602 0.068966
f 26 24 43
f 29 27 14
f 30 45 31
f 30 27 45
f 64 77 78
f 23 24 12
f 23 22 41
f 38 22 37
f 51 68 52
f 31 45 50
f 19 35 20
f 29 14 28
f 15 14 27
f 27 30 15
f 15 30 31
f 46 27 29
f 46 47 27
f 27 47 48
f 64 65 44
f 65 50 44
f 64 78 79
f 79 78 88
f 74 78 77
f 11 22 23
f 23 12 11
f 25 24 26
f 25 12 24
f 22 38 39
f 39 61 62
f 60 61 39
f 59 60 39
f 52 68 69
f 69 70 52
f 68 51 49
f 31 50 49
f 31 49 32
f 32 49 51
f 80 65 64
f 64 79 80
f 10 19 20
f 3 9 10
f 10 9 19
f 58 57 60
f 58 60 59
f 2 3 1
f 8 9 2
f 2 9 3
f 64 44 66
f 88 78 86
f 78 74 86
f 76 77 64
f 76 74 77
f 64 75 76
f 75 87 76
f 76 87 72
f 72 74 76
f 13 25 26
f 63 39 62
f 41 39 63
f 40 41 22
f 22 39 40
f 40 39 41
f 81 69 68
f 36 53 54
f 54 74 72
f 35 19 34
f 19 33 34
f 31 32 18
f 18 17 31
f 18 33 19
f 19 9 18
f 22 11 21
f 37 22 21
f 14 15 7
f 8 2 7
f 7 17 8
f 70 84 71
f 71 54 53
f 71 86 74
f 71 53 52
f 52 70 71
f 4 11 12
f 67 81 68
f 68 49 67
f 67 49 50
f 67 50 65
f 65 80 67
f 80 81 67
f 89 81 80
f 89 79 88
f 89 80 79
f 69 81 82
f 82 89 88
f 81 89 82
f 55 56 36
f 36 54 55
f 6 5 14
f 14 7 6
f 6 7 2
f 17 7 16
f 16 7 15
f 31 17 16
f 16 15 31
f 85 71 84
f 88 86 85
f 86 71 85
f 74 54 73
f 73 71 74
f 54 71 73
f 70 69 83
f 69 82 83
f 83 84 70
f 83 85 84
f 83 82 88
f 88 85 83
f 20 36 57
f 57 37 20
f 56 57 36
f 60 57 56
f 26 43 28
f 28 14 26
f 44 50 45
f 45 27 44
f 53 36 20
f 20 35 53
f 58 39 38
f 59 39 58
f 37 57 58
f 58 38 37
f 66 24 42
f 42 64 66
f 29 28 66
f 66 43 24
f 66 46 29
f 66 28 43
f 47 46 66
f 66 48 47
f 66 44 27
f 27 48 66
f 26 14 13
f 14 5 13
f 42 24 63
f 63 60 42
f 63 24 23
f 63 61 60
f 62 61 63
f 23 41 63
f 34 53 35
f 52 53 34
f 34 51 52
f 34 33 51
f 51 33 18
f 18 32 51
f 18 9 8
f 8 17 18
f 3 10 21
f 21 11 3
f 20 37 21
f 21 10 20
f 4 13 5
f 4 5 1
f 12 25 4
f 25 13 4
f 3 11 4
f 1 3 4
f 42 60 55
f 55 64 42
f 55 75 64
f 60 56 55
f 72 87 55
f 55 87 75
f 55 54 72
f 1 5 6
f 6 2 1
