v -0.029585 -0.111939 0.053410
v -0.029635 -0.111939 0.063832
v -0.029585 -0.113024 0.051748
v -0.029585 -0.107775 0.050967
v -0.029999 -0.110573 0.065536
v -0.029763 -0.111939 0.065536
v -0.029585 -0.113973 0.048448
v -0.029585 -0.113532 0.050204
v -0.029818 -0.107775 0.050973
v -0.036745 -0.110061 0.068954
v -0.035036 -0.110067 0.068954
v -0.033327 -0.110169 0.068954
v -0.031621 -0.110124 0.067245
v -0.030245 -0.110636 0.067245
v -0.029585 -0.107775 0.010344
v -0.030118 -0.111939 0.067245
v -0.030725 -0.112820 0.068156
v -0.030639 -0.112850 0.067245
v -0.029585 -0.113984 0.046738
v -0.055844 -0.123431 0.068954
v -0.055794 -0.123491 0.067245
v -0.046995 -0.107775 0.050973
v -0.053852 -0.110061 0.068954
v -0.053852 -0.110067 0.068972
v -0.036745 -0.110573 0.070356
v -0.035036 -0.110579 0.070327
v -0.031635 -0.110602 0.068966
v -0.033327 -0.110681 0.070179
v -0.032212 -0.110879 0.069978
v -0.030528 -0.110829 0.068404
v -0.029585 -0.113984 0.010344
v -0.050937 -0.107775 0.010344
v -0.030556 -0.111939 0.068369
v -0.031635 -0.112110 0.069339
v -0.032479 -0.112793 0.069806
v -0.056063 -0.123262 0.070049
v -0.057065 -0.123431 0.068954
v -0.057115 -0.123491 0.067245
v -0.055794 -0.123491 0.033075
v -0.048612 -0.107775 0.050962
v -0.055542 -0.110062 0.068954
v -0.055542 -0.110573 0.070356
v -0.053852 -0.110589 0.070362
v -0.055542 -0.111941 0.070764
v -0.036745 -0.111939 0.070486
v -0.035036 -0.111939 0.070451
v -0.033158 -0.112110 0.070155
v -0.032212 -0.111653 0.069978
v -0.055811 -0.123468 0.031366
v -0.056016 -0.123311 0.030171
v -0.056857 -0.123311 0.030171
v -0.048704 -0.112940 0.010344
v -0.050954 -0.109044 0.010344
v -0.057919 -0.113649 0.031366
v -0.057894 -0.111941 0.031366
v -0.057131 -0.110573 0.031366
v -0.051034 -0.107775 0.031366
v -0.055825 -0.122193 0.070273
v -0.056810 -0.123262 0.070049
v -0.057819 -0.122193 0.068954
v -0.057875 -0.122193 0.067245
v -0.057115 -0.123491 0.033075
v -0.048704 -0.107775 0.050956
v -0.057131 -0.110573 0.068954
v -0.056885 -0.110744 0.070173
v -0.049603 -0.107775 0.050553
v -0.050219 -0.107775 0.050222
v -0.050668 -0.107775 0.049193
v -0.051001 -0.107775 0.048395
v -0.055753 -0.120483 0.070374
v -0.057118 -0.111941 0.070333
v -0.057140 -0.117064 0.070374
v -0.057140 -0.120483 0.070374
v -0.057101 -0.123468 0.031366
v -0.057120 -0.122193 0.029899
v -0.050435 -0.111939 0.010344
v -0.049752 -0.112867 0.010344
v -0.049031 -0.112918 0.010344
v -0.057861 -0.122193 0.031366
v -0.050934 -0.110232 0.010344
v -0.057916 -0.120483 0.031366
v -0.057922 -0.113649 0.033075
v -0.057897 -0.111941 0.033075
v -0.051034 -0.107775 0.046738
v -0.057079 -0.122193 0.070273
v -0.057900 -0.120483 0.068954
v -0.057916 -0.120483 0.067245
v -0.057875 -0.122193 0.033075
v -0.051023 -0.107775 0.047448
v -0.057897 -0.111941 0.067245
v -0.057867 -0.111941 0.068954
v -0.057900 -0.117064 0.068954
v -0.050793 -0.110753 0.010344
v -0.057922 -0.113649 0.067245
f 32 56 57
f 21 7 20
f 19 7 21
f 31 39 49
f 92 91 94
f 56 32 55
f 31 51 52
f 51 75 76
f 17 20 7
f 17 16 33
f 36 17 35
f 20 17 36
f 50 51 31
f 31 49 50
f 73 70 44
f 72 91 92
f 72 71 91
f 44 71 72
f 72 73 44
f 90 94 91
f 54 55 32
f 51 76 77
f 44 70 45
f 45 70 46
f 47 36 35
f 46 36 47
f 46 70 58
f 58 36 46
f 35 17 34
f 34 17 33
f 1 2 3
f 4 2 1
f 18 17 7
f 56 55 83
f 53 54 32
f 78 52 51
f 51 77 78
f 26 45 46
f 48 47 35
f 29 47 48
f 35 34 48
f 48 34 33
f 30 48 33
f 29 48 30
f 33 16 30
f 16 14 30
f 6 14 16
f 16 17 6
f 17 18 6
f 7 2 6
f 6 18 7
f 64 90 91
f 8 2 7
f 8 3 2
f 79 74 62
f 62 88 79
f 51 74 79
f 79 75 51
f 80 93 79
f 79 93 76
f 79 76 75
f 28 26 46
f 46 47 28
f 28 47 29
f 44 45 25
f 45 26 25
f 5 4 14
f 14 6 5
f 2 4 5
f 5 6 2
f 69 64 41
f 38 37 60
f 60 61 38
f 60 37 59
f 59 85 60
f 60 85 73
f 81 53 80
f 80 79 81
f 54 53 81
f 81 79 88
f 82 54 81
f 26 28 12
f 12 28 29
f 66 67 41
f 41 23 22
f 22 40 41
f 41 67 68
f 68 69 41
f 94 87 86
f 92 94 86
f 86 60 73
f 86 87 61
f 61 60 86
f 11 25 26
f 26 12 11
f 11 12 4
f 13 30 14
f 14 4 13
f 4 12 13
f 29 30 27
f 27 12 29
f 30 13 27
f 27 13 12
f 44 25 43
f 43 42 44
f 25 42 43
f 65 71 44
f 44 42 65
f 91 71 65
f 65 64 91
f 41 64 65
f 65 42 41
f 24 42 25
f 24 23 41
f 41 42 24
f 41 40 63
f 63 66 41
f 89 84 64
f 64 69 89
f 23 24 10
f 25 11 10
f 10 24 25
f 4 9 10
f 10 11 4
f 21 39 19
f 19 39 31
f 38 39 21
f 38 62 39
f 74 50 49
f 51 50 74
f 39 62 74
f 74 49 39
f 20 36 37
f 37 36 59
f 37 38 21
f 21 20 37
f 55 54 83
f 83 54 82
f 82 94 83
f 94 90 83
f 78 15 31
f 78 32 15
f 31 52 78
f 76 93 78
f 78 53 32
f 78 77 76
f 78 93 80
f 80 53 78
f 59 36 85
f 36 58 85
f 70 73 85
f 85 58 70
f 64 83 90
f 56 83 64
f 31 15 8
f 1 3 8
f 8 19 31
f 7 19 8
f 8 4 1
f 15 4 8
f 62 38 61
f 61 88 62
f 81 94 82
f 81 87 94
f 88 61 81
f 61 87 81
f 56 64 84
f 57 56 84
f 73 72 86
f 86 72 92
f 15 32 89
f 89 4 15
f 89 32 57
f 67 66 89
f 89 63 40
f 57 84 89
f 89 68 67
f 40 22 89
f 89 9 4
f 69 68 89
f 66 63 89
f 22 9 89
f 10 9 22
f 10 22 23
