v 0.047432 -0.140991 0.053575
v 0.047432 -0.141792 0.053575
v 0.047432 -0.140450 0.001769
v 0.047412 -0.139283 0.053575
v 0.047333 -0.139283 0.055282
v 0.047349 -0.140991 0.055282
v 0.047432 -0.141792 0.001769
v 0.047349 -0.141792 0.055282
v 0.047412 -0.139283 0.001769
v 0.046765 -0.137620 0.053575
v 0.046732 -0.137635 0.055282
v 0.046512 -0.137908 0.056405
v 0.046699 -0.139283 0.056540
v 0.012536 -0.141792 0.001769
v 0.046699 -0.141792 0.056540
v 0.046765 -0.137620 0.001769
v 0.046305 -0.137037 0.001769
v 0.046089 -0.136765 0.053575
v 0.046073 -0.136780 0.055282
v 0.044949 -0.136384 0.056405
v 0.045422 -0.137432 0.056611
v 0.045281 -0.139283 0.056940
v 0.005091 -0.125094 0.001769
v 0.012619 -0.141792 0.053575
v 0.045281 -0.141792 0.056940
v 0.046089 -0.136765 0.001769
v 0.045820 -0.136568 0.001769
v 0.045235 -0.136143 0.053575
v 0.045223 -0.136180 0.055282
v 0.026021 -0.125094 0.056524
v 0.024782 -0.125094 0.056924
v 0.043577 -0.137574 0.056940
v 0.005804 -0.125094 0.053575
v 0.026436 -0.125094 0.001769
v 0.012644 -0.141792 0.055282
v 0.015442 -0.141792 0.056940
v 0.045235 -0.136143 0.001769
v 0.026436 -0.125094 0.053575
v 0.026419 -0.125094 0.055282
v 0.023074 -0.125094 0.056940
v 0.005833 -0.125094 0.055142
v 0.012847 -0.141792 0.055908
v 0.011110 -0.125612 0.056940
v 0.014534 -0.141792 0.056902
v 0.011110 -0.125094 0.056940
v 0.006459 -0.125094 0.056400
v 0.013104 -0.141792 0.056470
v 0.009402 -0.125094 0.056854
v 0.013797 -0.141792 0.056697
v 0.007757 -0.125094 0.056638
f 1 3 4
f 35 41 33
f 46 41 47
f 1 4 5
f 49 44 46
f 46 47 49
f 42 41 35
f 42 47 41
f 9 4 3
f 26 27 18
f 30 20 29
f 31 20 30
f 23 14 24
f 24 33 23
f 35 33 24
f 1 5 6
f 17 10 16
f 18 10 17
f 17 26 18
f 30 29 39
f 38 39 28
f 28 39 29
f 27 37 28
f 18 27 28
f 5 12 13
f 13 6 5
f 13 12 22
f 21 32 22
f 22 12 21
f 21 12 20
f 21 31 32
f 20 31 21
f 19 10 18
f 18 28 19
f 19 28 29
f 19 29 20
f 20 12 19
f 46 44 50
f 44 48 50
f 45 48 43
f 43 48 44
f 44 36 43
f 32 31 40
f 10 19 11
f 11 19 12
f 11 12 5
f 4 10 11
f 11 5 4
f 9 10 4
f 16 10 9
f 7 3 1
f 1 2 7
f 24 15 25
f 44 49 24
f 24 8 15
f 24 42 35
f 24 7 2
f 25 36 24
f 24 49 47
f 47 42 24
f 2 8 24
f 24 36 44
f 14 7 24
f 6 8 2
f 6 2 1
f 23 34 17
f 17 14 23
f 34 37 17
f 17 37 27
f 17 9 3
f 27 26 17
f 16 9 17
f 17 7 14
f 3 7 17
f 28 37 34
f 34 38 28
f 15 8 13
f 8 6 13
f 25 15 13
f 22 25 13
f 22 32 40
f 40 25 22
f 45 43 40
f 40 36 25
f 40 43 36
f 23 33 40
f 40 34 23
f 40 41 46
f 40 38 34
f 40 33 41
f 40 31 30
f 30 39 40
f 40 48 45
f 46 50 40
f 40 39 38
f 40 50 48
