v 0.046993 -0.107774 0.050968
v 0.032863 -0.107774 0.050968
v 0.048705 -0.107774 0.050958
v 0.046995 -0.012830 0.050938
v 0.043573 -0.012820 0.050938
v 0.032864 -0.089715 0.050928
v 0.032863 -0.100836 0.050938
v 0.032863 -0.107774 -0.050920
v 0.036749 -0.012820 0.050938
v 0.036749 -0.002582 0.050928
v 0.050218 -0.107774 0.050209
v 0.048703 -0.012830 0.050928
v 0.046995 -0.002582 0.050928
v 0.032864 -0.088013 0.050908
v 0.032863 -0.100410 -0.033763
v 0.032864 -0.086736 0.050359
v 0.032864 -0.086353 0.050130
v 0.032864 -0.085746 0.048444
v 0.048705 -0.107774 -0.050920
v 0.032863 -0.100410 -0.050920
v 0.032864 -0.095377 -0.050940
v 0.042479 -0.001965 0.050918
v 0.036749 -0.000869 0.050898
v 0.035038 -0.000869 0.050309
v 0.050999 -0.107774 0.048384
v 0.050249 -0.012830 0.050110
v 0.048703 -0.002582 0.050918
v 0.048703 -0.000869 0.050898
v 0.034122 -0.000869 0.049501
v 0.034062 -0.000869 0.048444
v 0.032864 -0.085746 -0.047239
v 0.048699 -0.095377 -0.050940
v 0.049571 -0.107774 -0.050601
v 0.032864 -0.085799 -0.048955
v 0.032864 -0.086384 -0.050312
v 0.032864 -0.088002 -0.050880
v 0.032864 -0.089715 -0.050940
v 0.042479 -0.000401 0.050618
v 0.036749 0.000461 0.050090
v 0.035038 0.000270 0.049790
v 0.034143 0.000046 0.049431
v 0.051035 -0.107774 0.046728
v 0.050939 -0.002582 0.048434
v 0.050939 -0.012830 0.048444
v 0.050249 -0.002582 0.050100
v 0.050220 -0.000869 0.050090
v 0.049980 0.000301 0.049820
v 0.048703 0.000461 0.050080
v 0.042479 0.000461 0.050090
v 0.034122 0.000078 0.048444
v 0.034113 -0.000039 -0.021812
v 0.034062 -0.000869 -0.048935
v 0.048703 -0.050916 -0.050940
v 0.050218 -0.050916 -0.050371
v 0.050220 -0.100410 -0.050361
v 0.050234 -0.107774 -0.050351
v 0.034122 -0.000869 -0.049903
v 0.035040 -0.000869 -0.050451
v 0.035040 -0.002178 -0.050471
v 0.036749 -0.002582 -0.050930
v 0.036748 -0.031910 -0.050940
v 0.042479 0.000940 0.048434
v 0.036749 0.000929 0.048444
v 0.035038 0.000546 0.048444
v 0.051035 -0.107774 -0.047229
v 0.050939 -0.002582 0.022787
v 0.050882 -0.000869 0.048434
v 0.050188 0.000461 0.048434
v 0.048703 0.000940 0.048434
v 0.034122 0.000078 -0.048935
v 0.034142 0.000046 -0.049873
v 0.048703 -0.011181 -0.050940
v 0.050218 -0.031910 -0.050371
v 0.050656 -0.107774 -0.049553
v 0.035040 0.000270 -0.050112
v 0.036749 -0.000869 -0.050890
v 0.048703 -0.002582 -0.050930
v 0.044018 -0.011181 -0.050940
v 0.036749 0.000940 0.022787
v 0.035038 0.000546 0.000004
v 0.051021 -0.107774 -0.047937
v 0.050907 -0.002582 -0.048935
v 0.050937 -0.002582 -0.047229
v 0.050882 -0.000869 0.022787
v 0.050188 0.000461 -0.048935
v 0.048703 0.000940 -0.048935
v 0.035040 0.000546 -0.048935
v 0.050217 -0.011181 -0.050371
v 0.050990 -0.107774 -0.048875
v 0.036749 0.000940 -0.048935
v 0.036749 0.000461 -0.050322
v 0.048703 -0.000869 -0.050890
v 0.050201 -0.000869 -0.050341
v 0.050215 -0.002178 -0.050351
v 0.050907 -0.011181 -0.048955
v 0.050217 -0.002582 -0.050351
v 0.050738 -0.002178 -0.049274
v 0.050898 -0.002178 -0.048935
v 0.050866 -0.000869 -0.048935
v 0.050878 -0.000869 -0.047229
v 0.049980 0.000301 -0.050142
v 0.048703 0.000461 -0.050322
f 7 18 15
f 2 9 10
f 42 43 25
f 3 11 12
f 27 12 45
f 50 30 41
f 13 12 27
f 2 10 6
f 6 10 14
f 6 7 2
f 14 7 6
f 20 36 37
f 51 30 50
f 17 30 18
f 18 7 17
f 4 1 3
f 3 12 4
f 12 13 4
f 26 12 11
f 26 45 12
f 11 25 26
f 65 83 66
f 66 83 84
f 100 83 99
f 84 83 100
f 89 88 95
f 23 39 40
f 24 10 23
f 14 10 24
f 23 40 24
f 24 40 41
f 29 30 14
f 29 41 30
f 14 24 29
f 29 24 41
f 23 10 22
f 10 13 22
f 57 37 36
f 30 51 52
f 52 57 36
f 71 57 52
f 14 30 16
f 30 17 16
f 16 7 14
f 16 17 7
f 1 4 5
f 5 4 13
f 27 45 28
f 28 13 27
f 23 22 28
f 28 22 13
f 68 47 67
f 69 47 68
f 44 25 43
f 44 26 25
f 89 95 82
f 82 83 65
f 74 88 89
f 33 19 32
f 32 56 33
f 63 40 39
f 62 79 63
f 63 39 62
f 80 90 87
f 71 52 70
f 70 52 51
f 70 51 50
f 70 87 71
f 80 87 70
f 46 28 45
f 47 28 46
f 46 67 47
f 43 67 46
f 46 45 43
f 49 28 48
f 48 28 47
f 48 69 49
f 47 69 48
f 38 49 39
f 38 39 23
f 38 28 49
f 23 28 38
f 89 82 81
f 81 82 65
f 85 100 99
f 84 100 85
f 99 83 98
f 83 82 98
f 97 98 82
f 97 93 99
f 99 98 97
f 92 102 101
f 101 93 92
f 86 85 101
f 101 102 86
f 99 93 101
f 101 85 99
f 93 97 94
f 94 97 82
f 73 74 56
f 88 74 73
f 56 54 73
f 73 72 88
f 55 56 32
f 32 54 55
f 55 54 56
f 53 54 32
f 41 40 64
f 40 63 64
f 50 41 64
f 64 63 79
f 37 57 58
f 58 76 60
f 58 57 71
f 37 60 61
f 92 93 77
f 93 94 77
f 88 72 77
f 77 94 88
f 35 52 36
f 35 36 20
f 90 91 75
f 71 87 75
f 75 87 90
f 75 91 76
f 75 58 71
f 76 58 75
f 88 94 96
f 96 94 82
f 59 60 37
f 37 58 59
f 59 58 60
f 78 61 60
f 34 31 52
f 52 35 34
f 20 31 34
f 34 35 20
f 7 8 2
f 7 20 8
f 15 20 7
f 19 8 21
f 21 32 19
f 8 20 37
f 21 8 37
f 42 65 66
f 66 43 42
f 2 1 5
f 5 9 2
f 5 10 9
f 5 13 10
f 43 66 67
f 67 66 84
f 39 49 69
f 62 39 69
f 69 79 62
f 86 90 69
f 69 90 79
f 45 26 44
f 43 45 44
f 30 52 31
f 18 30 31
f 31 20 15
f 15 18 31
f 81 65 42
f 2 8 81
f 81 1 2
f 42 25 81
f 81 11 3
f 19 33 81
f 3 1 81
f 81 25 11
f 8 19 81
f 81 74 89
f 56 74 81
f 81 33 56
f 86 69 85
f 85 69 68
f 85 67 84
f 68 67 85
f 91 90 86
f 86 102 91
f 91 102 92
f 92 76 91
f 72 73 53
f 53 73 54
f 80 70 64
f 64 70 50
f 79 90 64
f 64 90 80
f 77 76 92
f 60 76 77
f 96 82 95
f 96 95 88
f 78 32 21
f 21 37 78
f 78 53 32
f 72 53 78
f 37 61 78
f 60 77 78
f 78 77 72
