v 0.052113 0.011509 0.009793
v 0.058079 0.011414 0.009793
v 0.052113 0.011473 0.005958
v 0.045428 0.011386 -0.007361
v 0.045428 0.011371 -0.005881
v 0.051001 0.011043 0.009793
v 0.059457 0.011391 0.009793
v 0.053592 0.011327 0.000037
v 0.047673 0.011318 -0.007361
v 0.045428 0.011207 -0.008841
v 0.045428 0.011027 -0.004343
v 0.049789 0.010771 0.006989
v 0.050829 0.010573 0.009793
v 0.053592 0.011282 -0.001441
v 0.060613 0.011007 0.009793
v 0.055071 0.011189 0.000037
v 0.052113 0.011209 -0.004401
v 0.050632 0.011207 -0.005881
v 0.049152 0.011166 -0.007361
v 0.046192 0.011150 -0.008841
v 0.045428 0.010821 -0.009777
v 0.045428 0.010509 -0.004022
v 0.045428 0.009882 -0.003666
v 0.050678 0.009882 0.009793
v 0.053592 0.011139 -0.002921
v 0.055863 0.010684 -0.000813
v 0.054403 0.010696 -0.003820
v 0.056041 0.010841 0.000037
v 0.054585 0.010818 -0.002921
v 0.061657 0.009509 0.009793
v 0.053595 0.010871 -0.004349
v 0.052073 0.010905 -0.005864
v 0.050518 0.010855 -0.007299
v 0.049152 0.010827 -0.008433
v 0.047663 0.010941 -0.008933
v 0.046192 0.010777 -0.009720
v 0.045428 0.009882 -0.010016
v 0.045428 0.008403 -0.003705
v 0.050294 -0.007876 0.009793
v 0.053106 0.010766 -0.005358
v 0.061657 0.008489 0.009037
v 0.061657 0.007798 0.008704
v 0.061657 0.005412 0.007691
v 0.061657 0.001464 0.006431
v 0.061657 0.000305 0.006110
v 0.054041 0.009882 -0.004656
v 0.061657 -0.009351 0.009793
v 0.051555 0.010741 -0.006762
v 0.049949 0.010668 -0.008145
v 0.047163 0.010686 -0.009633
v 0.046192 0.009882 -0.009884
v 0.045428 0.008403 -0.010064
v 0.045428 0.001967 -0.003960
v 0.045428 -0.009358 -0.004430
v 0.045428 -0.010119 -0.004526
v 0.045428 -0.010837 -0.004640
v 0.050348 -0.008480 0.009793
v 0.053303 0.009882 -0.005525
v 0.061657 -0.001140 0.005842
v 0.054122 0.008403 -0.004703
v 0.053384 0.008403 -0.005591
v 0.056573 -0.011112 0.009793
v 0.055071 -0.011160 0.001517
v 0.055071 -0.010980 0.000037
v 0.053592 -0.011212 -0.002921
v 0.054804 -0.010585 -0.002921
v 0.054551 -0.010382 -0.004401
v 0.061657 -0.009089 0.008975
v 0.052426 0.009882 -0.006264
v 0.051685 0.009882 -0.006861
v 0.049998 0.009882 -0.008184
v 0.049152 0.009882 -0.008785
v 0.048005 0.009882 -0.009444
v 0.047264 0.009882 -0.009664
v 0.046192 0.008403 -0.009913
v 0.046192 0.006923 -0.009920
v 0.045428 0.006923 -0.010070
v 0.045428 -0.011280 -0.004796
v 0.050484 -0.009358 0.009793
v 0.061657 -0.002622 0.005770
v 0.054324 -0.002890 -0.005129
v 0.054307 -0.001956 -0.005097
v 0.054254 0.001001 -0.004992
v 0.054227 0.002483 -0.004936
v 0.054200 0.003962 -0.004880
v 0.054148 0.006923 -0.004763
v 0.052475 0.008403 -0.006332
v 0.054338 -0.003876 -0.005150
v 0.055948 -0.011137 0.009793
v 0.051390 -0.011580 -0.002159
v 0.051390 -0.011580 -0.002252
v 0.053592 -0.011319 -0.001441
v 0.051002 -0.011521 -0.004401
v 0.052113 -0.011332 -0.004401
v 0.053592 -0.010935 -0.004401
v 0.054384 -0.010187 -0.005197
v 0.061657 -0.008044 0.007440
v 0.050032 0.008403 -0.008209
v 0.050052 0.006923 -0.008223
v 0.050073 0.005441 -0.008227
v 0.049152 0.008403 -0.008793
v 0.049152 0.006923 -0.008759
v 0.047967 0.008403 -0.009426
v 0.047183 0.006923 -0.009677
v 0.047226 0.008403 -0.009675
v 0.046192 0.005441 -0.009907
v 0.045428 0.005441 -0.010068
v 0.045428 -0.011701 -0.004983
v 0.051056 -0.010239 0.009793
v 0.054351 -0.004917 -0.005166
v 0.061657 -0.004101 0.005890
v 0.054403 -0.009358 -0.005218
v 0.054386 -0.007876 -0.005204
v 0.052519 0.005441 -0.006365
v 0.051757 0.006923 -0.006918
v 0.053735 -0.003403 -0.005615
v 0.055058 -0.011128 0.009793
v 0.046192 -0.011707 -0.004965
v 0.047673 -0.011696 -0.004880
v 0.049204 -0.011657 -0.004415
v 0.050262 -0.011623 -0.004401
v 0.051247 -0.011562 -0.003238
v 0.051974 -0.011478 -0.002816
v 0.050017 -0.011596 -0.005193
v 0.050559 -0.011144 -0.005765
v 0.053592 -0.010412 -0.005403
v 0.051426 -0.010139 -0.006646
v 0.052248 -0.009358 -0.006346
v 0.053592 -0.009358 -0.005683
v 0.052554 -0.004917 -0.006467
v 0.061657 -0.004965 0.006052
v 0.061657 -0.006396 0.006347
v 0.061657 -0.006853 0.006472
v 0.061657 -0.007301 0.006600
v 0.051822 0.002483 -0.006968
v 0.052605 -0.000476 -0.006434
v 0.050054 0.003962 -0.008203
v 0.052610 -0.001956 -0.006449
v 0.049152 0.005441 -0.008715
v 0.047924 0.006923 -0.009380
v 0.047113 0.005441 -0.009660
v 0.045428 0.001001 -0.010018
v 0.045428 0.003962 -0.010053
v 0.045428 -0.011694 -0.005926
v 0.046192 -0.011707 -0.005800
v 0.054434 -0.011007 0.009793
v 0.051631 -0.010382 0.009793
v 0.052585 0.001001 -0.006416
v 0.047673 -0.011696 -0.005601
v 0.049152 -0.011646 -0.005344
v 0.047673 -0.011487 -0.006342
v 0.049152 -0.011351 -0.006085
v 0.046192 -0.010551 -0.008569
v 0.049152 -0.010610 -0.007161
v 0.051997 -0.010578 -0.005910
v 0.047380 -0.010337 -0.008306
v 0.050632 -0.010344 -0.006826
v 0.048367 -0.009794 -0.008079
v 0.050632 -0.009358 -0.007081
v 0.052356 -0.007876 -0.006397
v 0.052464 -0.006396 -0.006439
v 0.049987 0.002483 -0.008155
v 0.049152 0.003962 -0.008643
v 0.047854 0.005441 -0.009329
v 0.047009 0.003962 -0.009617
v 0.045943 -0.000476 -0.009802
v 0.046049 0.001001 -0.009831
v 0.045428 -0.000476 -0.009971
v 0.045428 -0.011576 -0.006610
v 0.046192 -0.011557 -0.006540
v 0.045428 -0.011491 -0.006947
v 0.045428 -0.011366 -0.007307
v 0.046192 -0.011271 -0.007361
v 0.045428 -0.010946 -0.008215
v 0.045428 -0.010614 -0.008771
v 0.045428 -0.009539 -0.009360
v 0.045428 -0.009358 -0.009440
v 0.047793 -0.009323 -0.008374
v 0.047673 -0.006396 -0.008625
v 0.047673 -0.000476 -0.009020
v 0.049860 0.000476 -0.008089
v 0.047533 0.002569 -0.009286
v 0.046947 0.003121 -0.009590
v 0.047749 0.003962 -0.009281
v 0.045835 -0.001956 -0.009755
v 0.045428 -0.004917 -0.009740
v 0.045428 -0.003435 -0.009827
v 0.045428 -0.001956 -0.009905
v 0.045428 -0.008208 -0.009524
v 0.045617 -0.004917 -0.009658
v 0.045727 -0.003435 -0.009707
v 0.045428 -0.006249 -0.009654
v 0.045428 -0.006396 -0.009644
f 4 1 3
f 3 7 4
f 2 3 1
f 7 3 2
f 24 23 39
f 53 54 39
f 47 62 63
f 63 62 92
f 47 66 67
f 65 63 92
f 65 66 47
f 5 1 4
f 6 5 11
f 1 5 6
f 39 23 38
f 38 53 39
f 147 108 146
f 109 108 147
f 146 108 117
f 79 108 109
f 68 67 96
f 47 67 68
f 4 7 8
f 92 62 91
f 91 122 92
f 122 91 121
f 92 122 123
f 95 67 66
f 66 65 95
f 95 65 94
f 96 67 95
f 47 63 64
f 64 65 47
f 63 65 64
f 11 22 13
f 13 22 23
f 23 24 13
f 39 54 55
f 55 56 39
f 39 56 57
f 61 81 88
f 96 134 97
f 97 68 96
f 26 15 30
f 30 27 26
f 26 27 15
f 29 15 28
f 28 27 29
f 15 27 28
f 41 27 30
f 44 27 43
f 59 60 46
f 46 61 58
f 60 61 46
f 4 8 9
f 14 25 17
f 14 8 7
f 17 9 14
f 14 9 8
f 29 27 31
f 31 25 29
f 17 25 31
f 177 156 176
f 158 156 177
f 158 127 156
f 126 127 96
f 96 95 126
f 126 95 125
f 174 175 152
f 37 21 36
f 50 37 36
f 89 108 118
f 89 117 108
f 12 13 6
f 12 6 11
f 11 13 12
f 78 57 56
f 79 57 78
f 108 79 78
f 80 111 96
f 96 112 80
f 80 81 59
f 88 81 80
f 82 61 83
f 81 61 82
f 82 83 59
f 59 81 82
f 59 83 84
f 84 85 59
f 83 61 84
f 61 85 84
f 86 60 59
f 59 85 86
f 86 61 60
f 86 85 61
f 133 134 96
f 96 132 133
f 96 111 131
f 131 132 96
f 43 27 42
f 27 41 42
f 59 46 45
f 27 44 45
f 45 46 27
f 18 9 17
f 19 9 18
f 4 9 10
f 16 14 7
f 25 14 16
f 29 25 16
f 7 15 16
f 16 15 29
f 50 36 35
f 70 71 49
f 49 71 72
f 175 176 153
f 153 176 156
f 153 152 175
f 125 152 153
f 156 127 157
f 157 126 156
f 127 126 157
f 174 152 173
f 122 121 93
f 94 65 93
f 93 123 122
f 93 65 92
f 92 123 93
f 149 121 120
f 120 119 149
f 62 89 90
f 90 91 62
f 119 120 90
f 118 119 90
f 90 89 118
f 90 121 91
f 90 120 121
f 145 144 169
f 145 169 149
f 108 144 145
f 118 108 145
f 21 10 20
f 20 36 21
f 20 35 36
f 19 35 20
f 20 9 19
f 20 10 9
f 50 35 34
f 34 49 50
f 34 35 19
f 69 49 58
f 70 49 69
f 58 61 69
f 40 46 58
f 27 46 40
f 40 31 27
f 125 153 154
f 156 126 154
f 154 153 156
f 174 173 172
f 151 173 152
f 151 172 173
f 107 77 76
f 51 37 50
f 50 74 51
f 73 74 50
f 50 49 73
f 73 49 72
f 72 71 98
f 98 99 72
f 72 99 100
f 58 49 48
f 48 40 58
f 49 34 48
f 17 31 32
f 31 40 32
f 32 18 17
f 19 18 32
f 40 48 32
f 155 126 125
f 125 154 155
f 155 154 126
f 178 158 177
f 127 158 128
f 128 160 129
f 96 127 128
f 128 129 96
f 129 160 161
f 124 151 152
f 124 93 121
f 94 93 124
f 124 152 125
f 124 95 94
f 125 95 124
f 149 169 170
f 37 51 52
f 76 77 52
f 87 98 71
f 87 71 70
f 87 61 88
f 70 69 87
f 87 69 61
f 101 73 72
f 72 100 101
f 33 48 34
f 33 32 48
f 33 34 19
f 19 32 33
f 180 181 160
f 159 178 160
f 160 128 159
f 158 178 159
f 159 128 158
f 130 100 112
f 129 161 130
f 130 112 96
f 96 129 130
f 150 121 149
f 150 124 121
f 151 124 150
f 149 170 150
f 150 170 151
f 171 170 169
f 172 151 171
f 151 170 171
f 75 74 76
f 76 52 75
f 75 51 74
f 75 52 51
f 162 161 163
f 163 161 160
f 160 181 163
f 139 163 140
f 74 73 105
f 73 104 105
f 76 74 105
f 105 104 76
f 106 104 142
f 76 104 106
f 142 143 106
f 106 143 107
f 106 107 76
f 103 104 73
f 103 139 140
f 136 100 99
f 99 98 136
f 98 87 115
f 110 87 88
f 88 80 110
f 189 178 177
f 182 180 183
f 181 180 182
f 183 163 182
f 182 163 181
f 140 163 164
f 100 130 137
f 162 163 137
f 163 139 137
f 139 103 137
f 137 161 162
f 137 130 161
f 142 104 141
f 141 166 167
f 140 164 141
f 141 103 140
f 104 103 141
f 112 100 138
f 138 136 112
f 100 136 138
f 135 136 98
f 148 136 135
f 98 115 135
f 114 115 87
f 116 136 148
f 148 114 116
f 87 110 116
f 116 114 87
f 187 166 186
f 192 186 191
f 167 166 168
f 142 141 168
f 168 141 167
f 178 189 179
f 160 178 179
f 179 180 160
f 183 180 179
f 184 163 183
f 184 164 163
f 102 103 73
f 102 137 103
f 73 101 102
f 102 101 100
f 100 137 102
f 165 141 164
f 165 184 183
f 164 184 165
f 166 141 165
f 112 136 113
f 136 116 113
f 113 116 110
f 113 80 112
f 113 110 80
f 192 191 190
f 190 179 189
f 190 191 183
f 183 179 190
f 185 186 166
f 185 191 186
f 166 165 185
f 183 191 185
f 185 165 183
f 188 166 187
f 188 168 166
f 192 190 193
f 193 190 189
f 30 15 89
f 89 2 1
f 89 147 146
f 89 47 30
f 1 6 89
f 146 117 89
f 89 62 47
f 7 2 89
f 89 24 39
f 89 15 7
f 89 13 24
f 109 147 89
f 39 57 89
f 89 79 109
f 6 13 89
f 89 57 79
f 30 47 45
f 45 80 59
f 47 68 45
f 45 41 30
f 43 42 45
f 45 97 134
f 68 97 45
f 134 133 45
f 45 131 111
f 45 44 43
f 111 80 45
f 45 133 132
f 132 131 45
f 45 42 41
f 149 119 145
f 145 119 118
f 114 135 115
f 148 135 114
f 193 143 142
f 193 38 23
f 193 55 54
f 54 53 193
f 193 5 4
f 23 22 193
f 37 52 193
f 108 78 193
f 11 5 193
f 193 22 11
f 53 38 193
f 193 144 108
f 193 175 174
f 193 21 37
f 4 10 193
f 177 176 193
f 56 55 193
f 193 176 175
f 169 144 193
f 193 78 56
f 193 10 21
f 174 172 193
f 193 171 169
f 77 107 193
f 187 186 193
f 107 143 193
f 193 52 77
f 193 189 177
f 172 171 193
f 193 188 187
f 193 186 192
f 142 168 193
f 168 188 193
