v 0.069352 -0.014756 0.005475
v 0.070831 -0.014756 0.005488
v 0.067871 -0.014756 0.005478
v 0.065434 -0.013796 0.005256
v 0.071353 -0.014756 0.005502
v 0.066913 -0.013796 0.005293
v 0.066391 -0.014756 0.005505
v 0.077577 -0.001957 0.004556
v 0.077577 -0.003435 0.004661
v 0.065434 -0.014756 0.005549
v 0.063954 -0.013796 0.005361
v 0.069872 -0.013796 0.005371
v 0.071353 -0.013796 0.005411
v 0.072833 -0.014756 0.005912
v 0.077577 0.001004 0.004785
v 0.061657 -0.002622 0.005771
v 0.061657 -0.001141 0.005845
v 0.077577 -0.004698 0.005162
v 0.073791 -0.014756 0.006505
v 0.073442 -0.014756 0.006283
v 0.064911 -0.014756 0.005586
v 0.063904 -0.014756 0.005771
v 0.063024 -0.014756 0.006212
v 0.062950 -0.013796 0.006087
v 0.061657 -0.004099 0.005892
v 0.077577 0.001067 0.004792
v 0.077577 0.002482 0.004977
v 0.061657 0.000306 0.006114
v 0.077577 -0.005222 0.005462
v 0.074265 -0.014756 0.007060
v 0.062978 -0.014756 0.006451
v 0.061657 -0.007301 0.006602
v 0.061657 -0.006852 0.006475
v 0.061657 -0.006397 0.006350
v 0.061657 -0.004963 0.006054
v 0.077577 0.002819 0.005048
v 0.061657 0.001466 0.006434
v 0.077577 0.003963 0.005320
v 0.077577 -0.006045 0.006205
v 0.074449 -0.014756 0.007410
v 0.062863 -0.014756 0.007417
v 0.061657 -0.009088 0.008978
v 0.061657 -0.008043 0.007444
v 0.061657 0.005413 0.007696
v 0.077577 0.004736 0.005586
v 0.077577 -0.006566 0.007440
v 0.074747 -0.014756 0.008921
v 0.074709 -0.014756 0.008723
v 0.061657 -0.014756 0.020340
v 0.061657 -0.013630 0.017695
v 0.061657 0.007798 0.008706
v 0.077577 0.005132 0.005724
v 0.077577 -0.006659 0.008921
v 0.074747 -0.014756 0.010402
v 0.061657 -0.014756 0.027576
v 0.061657 0.008487 0.009039
v 0.077577 0.017095 0.010954
v 0.074742 -0.014756 0.014841
v 0.077577 -0.006578 0.029639
v 0.074731 -0.014756 0.023032
v 0.062902 -0.014756 0.035558
v 0.061657 -0.013927 0.028922
v 0.061657 0.010710 0.010261
v 0.061657 0.011296 0.010617
v 0.061657 0.012063 0.011156
v 0.061657 0.012076 0.011166
v 0.061657 0.012487 0.011913
v 0.061657 0.013176 0.013360
v 0.063164 0.015119 0.021434
v 0.063954 0.015278 0.021175
v 0.063954 0.015433 0.022238
v 0.077034 0.017095 0.011879
v 0.077577 0.017095 0.029588
v 0.077577 -0.006575 0.029942
v 0.074730 -0.014756 0.023641
v 0.063114 -0.014756 0.036427
v 0.061657 -0.007844 0.034899
v 0.061657 -0.009181 0.033899
v 0.061657 -0.009506 0.033573
v 0.061657 -0.010647 0.032422
v 0.061657 -0.013559 0.029410
v 0.061657 0.013432 0.014784
v 0.063148 0.015134 0.022238
v 0.063175 0.015100 0.023261
v 0.063341 0.015022 0.024247
v 0.063882 0.015228 0.023739
v 0.065434 0.015730 0.022238
v 0.076596 0.017095 0.012785
v 0.076123 0.017095 0.026579
v 0.063882 0.014857 0.025203
v 0.063954 0.014376 0.026680
v 0.063433 0.013525 0.028777
v 0.061657 0.010657 0.033388
v 0.061657 0.010417 0.033580
v 0.061657 0.009934 0.033953
v 0.077577 0.006336 0.036417
v 0.077577 -0.006279 0.035558
v 0.074454 -0.014756 0.034081
v 0.063421 -0.014756 0.036588
v 0.063954 -0.013796 0.036921
v 0.063083 -0.013796 0.036460
v 0.061657 -0.004916 0.035508
v 0.061657 -0.006397 0.035319
v 0.061657 -0.007463 0.035128
v 0.061657 0.013569 0.022238
v 0.061657 0.013457 0.023719
v 0.061657 0.013204 0.025200
v 0.061657 0.012930 0.026680
v 0.061657 0.012562 0.028269
v 0.063075 0.013716 0.027791
v 0.075979 0.017095 0.026253
v 0.074758 0.017095 0.023302
v 0.074683 0.017095 0.023012
v 0.074510 0.017095 0.022238
v 0.074530 0.017095 0.021959
v 0.074620 0.017095 0.020788
v 0.075993 0.017095 0.014841
v 0.076341 0.017095 0.013522
v 0.061657 0.011271 0.031934
v 0.061657 0.008552 0.034714
v 0.077577 0.005438 0.036820
v 0.077577 -0.006223 0.035871
v 0.077577 -0.006001 0.036750
v 0.074248 -0.014756 0.035037
v 0.063954 -0.014756 0.036837
v 0.064476 -0.014756 0.036938
v 0.065434 -0.013796 0.037207
v 0.065434 -0.012318 0.037292
v 0.065434 -0.009356 0.037349
v 0.065434 -0.007875 0.037366
v 0.063954 -0.012318 0.036932
v 0.063095 -0.003435 0.036407
v 0.061657 -0.003435 0.035589
v 0.061657 0.008144 0.034794
v 0.063165 0.003439 0.036349
v 0.063500 0.004425 0.036245
v 0.064487 0.004792 0.036336
v 0.065434 0.004880 0.036373
v 0.077577 0.001297 0.038358
v 0.077577 -0.005771 0.036952
v 0.073791 -0.014756 0.036110
v 0.074036 -0.014756 0.035595
v 0.065434 -0.014756 0.037117
v 0.077577 -0.001954 0.038934
v 0.067575 -0.005852 0.037796
v 0.067471 -0.004916 0.037823
v 0.065434 -0.001954 0.037322
v 0.066732 -0.004916 0.037655
v 0.063954 -0.000477 0.036807
v 0.063136 0.002482 0.036376
v 0.063106 -0.001954 0.036400
v 0.061657 -0.002718 0.035575
v 0.061657 0.006922 0.034996
v 0.063954 0.001004 0.036790
v 0.063954 0.002482 0.036726
v 0.063977 0.003944 0.036470
v 0.061657 0.005441 0.035225
v 0.061657 0.003954 0.035400
v 0.065434 0.003963 0.036679
v 0.077577 0.001004 0.038463
v 0.077577 -0.004848 0.037702
v 0.073642 -0.014756 0.036353
v 0.069872 -0.014756 0.037113
v 0.077577 -0.003523 0.038375
v 0.077577 -0.001462 0.038937
v 0.071353 -0.014756 0.037090
v 0.072860 -0.014756 0.036709
v 0.073290 -0.014756 0.036514
v 0.067490 -0.003856 0.037820
v 0.065434 -0.000477 0.037265
v 0.061657 0.003090 0.035431
v 0.061657 -0.001244 0.035542
v 0.065434 0.001004 0.037160
v 0.065434 0.002482 0.037009
v 0.077577 -0.000477 0.038914
v 0.077577 -0.000109 0.038826
f 17 8 16
f 16 8 11
f 52 51 57
f 57 67 68
f 93 73 92
f 8 17 15
f 15 17 26
f 26 17 27
f 51 52 44
f 4 11 8
f 66 67 57
f 57 51 56
f 57 68 69
f 37 44 38
f 38 44 45
f 45 44 52
f 47 46 53
f 97 75 74
f 162 161 164
f 144 162 164
f 1 4 2
f 11 23 24
f 165 175 169
f 57 64 65
f 65 66 57
f 63 64 57
f 57 56 63
f 118 88 87
f 87 88 71
f 70 71 57
f 57 69 70
f 70 69 71
f 73 85 90
f 90 85 92
f 84 85 71
f 92 85 110
f 38 36 28
f 28 37 38
f 28 36 27
f 28 27 17
f 75 97 98
f 98 123 124
f 14 5 9
f 9 4 8
f 161 162 141
f 167 144 166
f 2 4 6
f 6 5 2
f 12 5 6
f 4 9 6
f 6 9 12
f 11 4 10
f 137 138 120
f 159 175 176
f 159 138 137
f 96 120 121
f 121 120 138
f 173 169 175
f 146 144 165
f 165 169 146
f 57 71 72
f 71 88 72
f 112 87 111
f 89 87 73
f 111 87 89
f 86 85 73
f 73 87 86
f 71 85 86
f 86 87 71
f 82 69 68
f 109 110 85
f 85 84 109
f 91 92 73
f 73 90 91
f 91 90 92
f 47 53 54
f 53 58 54
f 74 75 59
f 123 98 122
f 122 98 97
f 20 9 19
f 14 9 20
f 18 29 19
f 19 9 18
f 13 5 12
f 12 9 13
f 13 9 5
f 19 29 30
f 29 40 30
f 39 40 29
f 39 46 47
f 140 141 123
f 161 141 140
f 124 123 142
f 123 141 142
f 166 144 163
f 144 143 163
f 127 144 128
f 127 143 144
f 126 143 127
f 162 144 168
f 144 167 168
f 7 10 4
f 22 23 11
f 61 80 81
f 79 80 61
f 61 78 79
f 77 78 61
f 61 76 77
f 77 76 104
f 137 120 136
f 95 120 96
f 95 96 73
f 139 121 138
f 155 173 174
f 175 159 174
f 174 173 175
f 170 147 169
f 169 173 170
f 170 173 155
f 128 144 145
f 145 146 128
f 144 146 145
f 169 147 148
f 148 146 169
f 115 87 114
f 115 116 87
f 118 87 117
f 87 116 117
f 114 87 113
f 87 112 113
f 106 84 105
f 110 109 119
f 93 92 119
f 92 110 119
f 108 109 84
f 53 59 60
f 60 58 53
f 60 59 75
f 48 39 47
f 40 39 48
f 4 1 3
f 3 7 4
f 11 10 21
f 21 22 11
f 62 55 61
f 61 81 62
f 49 50 41
f 16 11 25
f 11 24 25
f 104 76 103
f 76 102 103
f 133 102 101
f 101 102 76
f 154 170 155
f 147 170 154
f 100 101 76
f 131 101 100
f 100 127 128
f 126 127 100
f 158 150 135
f 135 136 120
f 135 154 155
f 150 154 135
f 94 73 93
f 94 95 73
f 160 159 176
f 138 159 160
f 160 139 138
f 155 174 156
f 156 135 155
f 136 135 156
f 137 136 156
f 156 159 137
f 156 174 159
f 147 131 130
f 130 148 147
f 131 100 130
f 146 148 130
f 82 105 83
f 69 82 83
f 83 105 84
f 71 69 83
f 83 84 71
f 107 84 106
f 107 108 84
f 42 41 50
f 43 32 31
f 31 32 23
f 31 42 43
f 41 42 31
f 34 24 23
f 133 101 132
f 132 101 131
f 149 131 147
f 147 154 149
f 149 150 131
f 149 154 150
f 126 100 125
f 133 150 152
f 150 172 152
f 171 150 158
f 171 172 150
f 157 135 153
f 158 135 157
f 153 135 134
f 134 135 120
f 129 100 128
f 129 130 100
f 128 146 129
f 146 130 129
f 35 25 24
f 24 34 35
f 23 32 33
f 33 34 23
f 131 150 151
f 151 132 131
f 151 150 133
f 133 132 151
f 99 100 76
f 99 125 100
f 113 73 57
f 118 117 113
f 57 72 113
f 113 89 73
f 113 88 118
f 113 72 88
f 113 115 114
f 113 112 111
f 111 89 113
f 116 115 113
f 113 117 116
f 57 73 160
f 160 52 57
f 160 97 74
f 165 144 160
f 8 15 160
f 46 39 160
f 73 96 160
f 96 121 160
f 160 36 38
f 160 15 26
f 26 27 160
f 38 45 160
f 160 175 165
f 160 9 8
f 27 36 160
f 160 45 52
f 160 53 46
f 74 59 160
f 29 18 160
f 164 161 160
f 160 144 164
f 176 175 160
f 123 122 160
f 160 140 123
f 160 59 53
f 160 122 97
f 160 18 9
f 160 39 29
f 161 140 160
f 121 139 160
f 33 50 49
f 33 17 16
f 33 82 68
f 64 63 33
f 51 44 33
f 67 66 33
f 33 68 67
f 33 56 51
f 49 55 33
f 104 103 33
f 33 65 64
f 44 37 33
f 33 28 17
f 33 77 104
f 55 62 33
f 66 65 33
f 33 63 56
f 33 102 133
f 37 28 33
f 106 105 33
f 33 81 80
f 80 79 33
f 33 171 158
f 33 157 153
f 25 35 33
f 93 119 33
f 33 94 93
f 33 107 106
f 33 32 43
f 33 79 78
f 78 77 33
f 16 25 33
f 120 95 33
f 33 105 82
f 33 119 109
f 109 108 33
f 33 62 81
f 43 42 33
f 33 103 102
f 133 152 33
f 95 94 33
f 108 107 33
f 33 42 50
f 153 134 33
f 33 152 172
f 172 171 33
f 158 157 33
f 33 134 120
f 33 35 34
f 99 60 75
f 99 98 124
f 99 76 61
f 99 48 47
f 61 55 99
f 2 5 99
f 99 1 2
f 47 54 99
f 124 142 99
f 99 167 166
f 99 21 10
f 19 30 99
f 23 22 99
f 75 98 99
f 99 5 14
f 99 20 19
f 99 141 162
f 99 143 126
f 166 163 99
f 162 168 99
f 99 55 49
f 99 31 23
f 99 54 58
f 14 20 99
f 99 30 40
f 99 142 141
f 99 163 143
f 99 168 167
f 10 7 99
f 99 3 1
f 58 60 99
f 40 48 99
f 7 3 99
f 22 21 99
f 49 41 99
f 41 31 99
f 126 125 99
