v 0.078872 0.031083 0.018801
v 0.078872 0.031083 0.032840
v 0.078872 0.036958 0.018801
v 0.091448 0.031083 0.018801
v 0.094602 0.028285 0.024959
v 0.094602 0.028285 0.030123
v 0.079716 0.031083 0.034409
v 0.079730 0.033566 0.034381
v 0.079333 0.033566 0.033641
v 0.078872 0.031306 0.032835
v 0.078872 0.036958 0.032596
v 0.092002 0.037247 0.040845
v 0.092354 0.037247 0.040284
v 0.093796 0.037247 0.038754
v 0.095291 0.037247 0.037301
v 0.095623 0.037247 0.037188
v 0.096516 0.037247 0.036930
v 0.096976 0.037247 0.036874
v 0.097997 0.037247 0.036807
v 0.083099 0.036958 0.018801
v 0.105393 0.032449 0.027393
v 0.101440 0.028285 0.026456
v 0.095043 0.028285 0.030770
v 0.080948 0.031083 0.036325
v 0.080459 0.031083 0.035604
v 0.079773 0.035046 0.034363
v 0.079344 0.035046 0.033623
v 0.078872 0.033821 0.032776
v 0.078872 0.035046 0.032737
v 0.078929 0.036958 0.032681
v 0.092002 0.037247 0.043987
v 0.099476 0.037247 0.036814
v 0.100946 0.037247 0.037167
v 0.108087 0.037247 0.038952
v 0.106872 0.032449 0.028954
v 0.108087 0.032449 0.030533
v 0.101440 0.028285 0.034638
v 0.096501 0.028285 0.031921
v 0.088330 0.031083 0.042259
v 0.081672 0.031083 0.036912
v 0.087541 0.036958 0.041306
v 0.080966 0.031502 0.036310
v 0.080511 0.035046 0.035403
v 0.080471 0.033566 0.035483
v 0.081129 0.035046 0.036142
v 0.080691 0.036007 0.035174
v 0.083708 0.036958 0.037978
v 0.092040 0.037247 0.043997
v 0.083929 0.036958 0.038195
v 0.084727 0.036958 0.038926
v 0.085247 0.036958 0.039403
v 0.089251 0.036958 0.042658
v 0.090392 0.036958 0.043408
v 0.091130 0.036958 0.043786
v 0.108087 0.037247 0.041752
v 0.108087 0.032449 0.041574
v 0.101057 0.028285 0.034435
v 0.103731 0.032449 0.044013
v 0.102436 0.032449 0.044729
v 0.100954 0.032449 0.045113
v 0.092002 0.031083 0.043833
v 0.090950 0.031083 0.043549
v 0.090638 0.031083 0.043462
v 0.089620 0.031083 0.043014
v 0.089074 0.031083 0.042741
v 0.088525 0.031083 0.042395
v 0.081869 0.035046 0.036771
v 0.081057 0.033566 0.036225
v 0.081008 0.032488 0.036268
v 0.092002 0.036958 0.043987
v 0.092080 0.037247 0.044005
v 0.090515 0.033566 0.043475
v 0.091193 0.035046 0.043753
v 0.092002 0.033566 0.043915
v 0.106666 0.037247 0.042661
v 0.106162 0.037247 0.042941
v 0.103179 0.037247 0.044324
v 0.102436 0.037247 0.044644
v 0.100954 0.037247 0.045077
v 0.100954 0.035044 0.045095
v 0.100954 0.033565 0.045105
v 0.099476 0.037247 0.045004
v 0.099476 0.035044 0.044999
v 0.099476 0.032449 0.044992
v 0.092002 0.031827 0.043861
v 0.091310 0.032649 0.043706
v 0.095397 0.032449 0.044458
v 0.095034 0.032449 0.044409
v 0.093555 0.032449 0.044203
v 0.091256 0.033566 0.043722
v 0.092080 0.035044 0.043964
v 0.093555 0.033565 0.044214
v 0.093555 0.035044 0.044221
v 0.093555 0.037247 0.044227
v 0.091954 0.032128 0.043858
v 0.097997 0.037247 0.044811
v 0.095034 0.036526 0.044420
f 21 20 34
f 24 6 23
f 20 21 4
f 4 5 1
f 35 21 34
f 34 36 35
f 60 61 37
f 31 11 30
f 34 20 33
f 20 32 33
f 20 3 19
f 19 32 20
f 16 3 15
f 22 35 36
f 21 35 22
f 5 4 22
f 22 4 21
f 38 39 23
f 66 39 38
f 61 88 89
f 84 61 60
f 12 13 3
f 47 31 30
f 7 2 6
f 7 8 2
f 80 79 82
f 17 3 16
f 30 11 26
f 3 13 14
f 14 15 3
f 60 37 59
f 76 77 59
f 59 77 78
f 78 79 59
f 79 80 59
f 75 56 55
f 40 24 23
f 23 39 40
f 52 39 66
f 66 38 65
f 62 37 61
f 62 63 37
f 92 89 88
f 30 45 46
f 46 47 30
f 45 47 46
f 49 47 45
f 31 47 49
f 51 45 67
f 45 68 67
f 6 24 25
f 25 7 6
f 8 7 25
f 25 26 8
f 18 19 3
f 3 17 18
f 43 45 30
f 30 26 43
f 43 68 45
f 24 42 43
f 37 56 58
f 58 59 37
f 56 75 58
f 58 75 76
f 76 59 58
f 60 59 81
f 81 59 80
f 81 82 60
f 81 80 82
f 41 40 39
f 39 52 41
f 24 40 41
f 41 42 24
f 41 31 51
f 41 52 31
f 51 67 41
f 41 67 68
f 37 65 57
f 57 65 38
f 37 63 64
f 64 65 37
f 61 89 85
f 48 31 54
f 87 88 61
f 61 84 87
f 82 96 83
f 60 82 83
f 83 84 60
f 83 87 84
f 96 87 83
f 89 92 71
f 50 45 51
f 50 49 45
f 51 31 50
f 31 49 50
f 44 25 24
f 26 25 44
f 24 43 44
f 44 43 26
f 9 28 10
f 10 2 9
f 2 8 9
f 69 41 68
f 42 41 69
f 68 43 69
f 69 43 42
f 48 54 70
f 70 91 89
f 70 71 48
f 89 71 70
f 72 64 63
f 63 54 72
f 65 64 72
f 72 54 65
f 31 52 53
f 53 54 31
f 65 54 53
f 53 52 66
f 66 65 53
f 89 91 74
f 74 85 89
f 91 70 74
f 74 70 54
f 97 96 94
f 94 87 97
f 97 87 96
f 88 87 93
f 93 87 94
f 93 92 88
f 94 71 93
f 93 71 92
f 29 28 27
f 28 9 27
f 27 9 8
f 8 26 27
f 11 29 27
f 27 26 11
f 86 62 61
f 61 85 86
f 63 62 86
f 86 90 63
f 85 74 95
f 95 86 85
f 90 86 95
f 73 74 54
f 73 54 63
f 63 90 73
f 90 95 73
f 73 95 74
f 4 3 20
f 1 3 4
f 5 6 2
f 1 5 2
f 34 55 56
f 56 36 34
f 36 56 22
f 22 56 37
f 3 11 12
f 11 31 12
f 28 3 1
f 28 11 3
f 1 2 28
f 28 2 10
f 28 29 11
f 23 6 57
f 57 6 5
f 5 22 57
f 57 22 37
f 57 38 23
f 71 55 34
f 16 15 71
f 71 79 78
f 71 31 48
f 13 12 71
f 34 33 71
f 78 77 71
f 19 18 71
f 71 14 13
f 82 79 71
f 71 33 32
f 32 19 71
f 71 17 16
f 71 75 55
f 71 12 31
f 71 77 76
f 71 96 82
f 15 14 71
f 76 75 71
f 94 96 71
f 71 18 17
