v 0.122287 0.039487 0.019275
v 0.122232 0.040968 0.019275
v 0.122249 0.040968 0.020299
v 0.122253 0.040968 0.020757
v 0.121900 0.037249 0.022233
v 0.121934 0.037249 0.021516
v 0.121917 0.037249 0.020757
v 0.121909 0.037249 0.020417
v 0.121892 0.037249 0.020030
v 0.122053 0.039487 0.017799
v 0.122053 0.040968 0.017799
v 0.121968 0.042446 0.017799
v 0.122189 0.042446 0.020757
v 0.122194 0.042446 0.022233
v 0.121854 0.040968 0.025201
v 0.121688 0.040968 0.026677
v 0.121641 0.037249 0.023714
v 0.105414 0.036806 0.002716
v 0.105414 0.036806 -0.001076
v 0.121582 0.037249 0.018559
v 0.105032 0.036806 -0.004394
v 0.121407 0.037249 0.017799
v 0.121050 0.037249 0.016674
v 0.120689 0.037249 0.015575
v 0.120447 0.037249 0.014874
v 0.121526 0.039487 0.016323
v 0.121135 0.041083 0.014761
v 0.121679 0.040968 0.016323
v 0.121701 0.042446 0.016323
v 0.121310 0.043688 0.016323
v 0.121416 0.043758 0.017799
v 0.121582 0.043758 0.022233
v 0.121497 0.043712 0.023714
v 0.121280 0.043668 0.026677
v 0.121573 0.042446 0.028158
v 0.121191 0.041292 0.029376
v 0.121484 0.037249 0.024474
v 0.121161 0.037249 0.025869
v 0.120940 0.037249 0.026758
v 0.119567 0.037249 0.030620
v 0.117812 0.037249 0.034450
v 0.117259 0.037249 0.035554
v 0.092005 0.036960 0.043979
v 0.103408 0.036806 0.003966
v 0.104798 0.036806 -0.005364
v 0.116588 0.037249 0.006514
v 0.118147 0.040003 0.007753
v 0.119516 0.040093 0.010980
v 0.120987 0.038588 0.015462
v 0.121084 0.039487 0.015203
v 0.119588 0.040968 0.010797
v 0.120880 0.040669 0.014217
v 0.120940 0.041653 0.014088
v 0.120965 0.042446 0.014018
v 0.121246 0.042446 0.014837
v 0.120965 0.043253 0.014002
v 0.121106 0.043457 0.014837
v 0.120196 0.044333 0.016323
v 0.119826 0.043642 0.011879
v 0.120196 0.044080 0.014837
v 0.120192 0.044265 0.022233
v 0.120192 0.044213 0.026677
v 0.120192 0.044107 0.028158
v 0.121169 0.043542 0.028158
v 0.121021 0.043341 0.029106
v 0.121191 0.042446 0.029413
v 0.120834 0.042446 0.030151
v 0.120226 0.040968 0.031116
v 0.119643 0.040968 0.032166
v 0.118007 0.040123 0.034870
v 0.116681 0.037249 0.036508
v 0.115742 0.037249 0.037235
v 0.114237 0.037249 0.038323
v 0.109494 0.037249 0.041119
v 0.109001 0.037249 0.041394
v 0.106162 0.037249 0.042940
v 0.103183 0.037249 0.044324
v 0.102439 0.037249 0.044642
v 0.100956 0.037249 0.045073
v 0.099481 0.037249 0.045003
v 0.095040 0.037249 0.044421
v 0.093560 0.037249 0.044227
v 0.093560 0.042446 0.044852
v 0.092081 0.040968 0.044410
v 0.091129 0.036960 0.043780
v 0.092005 0.036806 0.009611
v 0.104794 0.045406 -0.005364
v 0.116316 0.040968 0.005388
v 0.117098 0.040968 0.006132
v 0.115423 0.037249 0.004882
v 0.116163 0.037249 0.005771
v 0.116388 0.037249 0.006153
v 0.104628 0.036806 -0.005488
v 0.103918 0.042446 -0.006005
v 0.117837 0.040968 0.006902
v 0.118241 0.040968 0.007640
v 0.118806 0.040968 0.008927
v 0.120141 0.042446 0.011879
v 0.120689 0.042446 0.013280
v 0.119643 0.042446 0.010727
v 0.119592 0.043417 0.010877
v 0.118708 0.044274 0.011879
v 0.103918 0.046841 -0.004394
v 0.102439 0.047266 -0.004394
v 0.102439 0.047306 -0.002918
v 0.102439 0.047321 -0.001431
v 0.118789 0.043801 0.010393
v 0.118713 0.044331 0.029634
v 0.118713 0.044206 0.031116
v 0.120268 0.043741 0.029613
v 0.119826 0.043628 0.031116
v 0.119580 0.043396 0.032101
v 0.120307 0.042446 0.031116
v 0.119665 0.042446 0.032220
v 0.118007 0.040968 0.034870
v 0.116792 0.040968 0.036756
v 0.116753 0.039488 0.036680
v 0.119218 0.042446 0.032958
v 0.116294 0.040968 0.037494
v 0.115461 0.039488 0.038377
v 0.114837 0.039488 0.039115
v 0.113821 0.038602 0.039433
v 0.112125 0.038711 0.040785
v 0.107730 0.038698 0.043764
v 0.106876 0.039488 0.044168
v 0.105397 0.040968 0.044572
v 0.100301 0.043137 0.045186
v 0.099481 0.043095 0.045197
v 0.098002 0.043070 0.045213
v 0.096523 0.043085 0.045207
v 0.095690 0.043137 0.045197
v 0.095690 0.043210 0.045197
v 0.092081 0.042446 0.044502
v 0.092005 0.042365 0.044475
v 0.090709 0.040969 0.043974
v 0.090097 0.039489 0.043597
v 0.089115 0.039489 0.043107
v 0.090390 0.036960 0.043397
v 0.092005 0.036806 -0.005989
v 0.089251 0.036960 0.042649
v 0.087542 0.036960 0.041302
v 0.085247 0.036960 0.039395
v 0.085149 0.036960 0.039309
v 0.084724 0.036960 0.038921
v 0.083930 0.036960 0.038188
v 0.083709 0.036960 0.037978
v 0.078932 0.036960 0.032678
v 0.078872 0.036960 0.032592
v 0.103918 0.043927 -0.006000
v 0.103918 0.045406 -0.005989
v 0.104747 0.046311 -0.005283
v 0.116222 0.042446 0.005512
v 0.103918 0.036806 -0.006000
v 0.103918 0.039488 -0.006005
v 0.102439 0.045406 -0.006468
v 0.116894 0.042446 0.006250
v 0.117633 0.042446 0.007166
v 0.118152 0.042446 0.007904
v 0.118742 0.042446 0.008927
v 0.119299 0.042446 0.009983
v 0.118028 0.043278 0.008109
v 0.118292 0.043543 0.008927
v 0.117234 0.044162 0.008927
v 0.103918 0.046550 -0.005563
v 0.102439 0.046700 -0.005806
v 0.099481 0.046880 -0.005876
v 0.096523 0.047085 -0.005876
v 0.092081 0.047241 -0.004394
v 0.092005 0.047243 -0.004319
v 0.090598 0.047268 -0.002918
v 0.100956 0.047324 0.001526
v 0.100956 0.047321 0.003007
v 0.117234 0.044319 0.032597
v 0.115750 0.044261 0.035554
v 0.117234 0.044049 0.034078
v 0.118768 0.043758 0.032592
v 0.118232 0.043461 0.034078
v 0.117977 0.043198 0.034822
v 0.116171 0.042446 0.037402
v 0.115555 0.040968 0.038382
v 0.116753 0.042446 0.036664
v 0.114871 0.040968 0.039120
v 0.114131 0.040968 0.039729
v 0.113158 0.040968 0.040467
v 0.110620 0.040036 0.042250
v 0.112308 0.039488 0.040914
v 0.111194 0.039520 0.041701
v 0.110353 0.039048 0.042110
v 0.107926 0.039488 0.043871
v 0.106876 0.040968 0.044249
v 0.103914 0.042446 0.044717
v 0.100301 0.043205 0.045186
v 0.105397 0.042446 0.044399
v 0.099481 0.043228 0.045197
v 0.098002 0.043255 0.045213
v 0.096523 0.043246 0.045207
v 0.096523 0.043786 0.044437
v 0.093560 0.043728 0.044238
v 0.092081 0.043639 0.044044
v 0.092005 0.043625 0.044033
v 0.090947 0.043416 0.043839
v 0.090726 0.042446 0.043952
v 0.089986 0.042446 0.043640
v 0.089115 0.042446 0.043263
v 0.089969 0.040969 0.043640
v 0.089115 0.040969 0.043241
v 0.087840 0.040969 0.042552
v 0.088044 0.039489 0.042460
v 0.085149 0.036960 -0.009792
v 0.095426 0.036806 -0.006689
v 0.078872 0.036960 0.008766
v 0.085315 0.041468 0.040817
v 0.083568 0.042446 0.039589
v 0.082829 0.042446 0.038905
v 0.079412 0.040007 0.034897
v 0.078872 0.039584 0.034213
v 0.078872 0.039420 0.034143
v 0.078872 0.039063 0.033922
v 0.117195 0.043640 0.007548
v 0.116677 0.043444 0.006476
v 0.102439 0.036806 -0.006468
v 0.085149 0.039489 -0.009819
v 0.085149 0.040736 -0.009733
v 0.100633 0.046238 -0.006662
v 0.099481 0.046351 -0.006737
v 0.098002 0.046462 -0.006824
v 0.096523 0.046540 -0.006910
v 0.095040 0.047042 -0.005876
v 0.092005 0.047236 -0.004394
v 0.089115 0.047235 -0.002918
v 0.087636 0.047255 0.005965
v 0.087636 0.047256 0.007441
v 0.080236 0.047163 0.026671
v 0.111313 0.044371 0.038517
v 0.115733 0.043738 0.037009
v 0.117183 0.043590 0.035409
v 0.109830 0.044368 0.039993
v 0.112792 0.044241 0.038517
v 0.116656 0.043449 0.036502
v 0.115427 0.042446 0.038183
v 0.114671 0.042446 0.038926
v 0.113931 0.042446 0.039616
v 0.113064 0.042446 0.040354
v 0.112321 0.042446 0.040930
v 0.112414 0.040968 0.040990
v 0.110620 0.040669 0.042250
v 0.107888 0.040968 0.043845
v 0.108627 0.040968 0.043446
v 0.106880 0.042366 0.043920
v 0.105397 0.043592 0.043979
v 0.103914 0.043723 0.044162
v 0.098002 0.043798 0.044437
v 0.106387 0.043377 0.043807
v 0.093560 0.044296 0.042956
v 0.092081 0.044223 0.042956
v 0.089115 0.043737 0.042735
v 0.087908 0.043522 0.042460
v 0.087721 0.042446 0.042573
v 0.086981 0.042446 0.042153
v 0.087100 0.040969 0.042062
v 0.085149 0.042446 0.040903
v 0.078872 0.044362 0.001661
v 0.078872 0.045214 0.001310
v 0.078872 0.045406 0.001278
v 0.085149 0.037129 -0.009797
v 0.100956 0.036806 -0.006554
v 0.097726 0.036806 -0.006721
v 0.096523 0.036806 -0.006770
v 0.084427 0.042446 0.040327
v 0.083598 0.043535 0.039562
v 0.082060 0.042446 0.038167
v 0.079284 0.040969 0.035026
v 0.081320 0.042446 0.037440
v 0.078872 0.040969 0.034585
v 0.085149 0.038008 -0.009813
v 0.085149 0.041336 -0.009625
v 0.085149 0.041569 -0.009560
v 0.095040 0.046459 -0.006840
v 0.092081 0.046713 -0.005639
v 0.092005 0.046733 -0.005579
v 0.090598 0.047131 -0.004389
v 0.087636 0.047053 -0.002918
v 0.078872 0.046691 0.002889
v 0.078872 0.046856 0.004370
v 0.078872 0.047118 0.026671
v 0.086157 0.047238 0.008927
v 0.103914 0.044193 0.042956
v 0.114242 0.043721 0.038490
v 0.115228 0.043452 0.037984
v 0.108355 0.044206 0.041474
v 0.111313 0.044208 0.039993
v 0.113727 0.043427 0.039444
v 0.112197 0.043369 0.040844
v 0.111313 0.042446 0.041587
v 0.110565 0.041655 0.042212
v 0.109974 0.041085 0.042633
v 0.109681 0.042446 0.042546
v 0.108245 0.042366 0.043306
v 0.107679 0.041822 0.043726
v 0.110421 0.042446 0.042132
v 0.107373 0.042806 0.043591
v 0.108355 0.043672 0.042627
v 0.105397 0.044113 0.042956
v 0.109388 0.043445 0.042374
v 0.089115 0.044339 0.041469
v 0.087504 0.043866 0.041614
v 0.086157 0.043676 0.041210
v 0.085149 0.043465 0.040833
v 0.085183 0.043441 0.040882
v 0.085149 0.043397 0.040866
v 0.086157 0.042446 0.041604
v 0.078872 0.046332 0.001644
v 0.079416 0.046228 0.000691
v 0.084686 0.043788 0.040031
v 0.083139 0.043839 0.038571
v 0.082128 0.043526 0.038113
v 0.079136 0.042446 0.035199
v 0.078872 0.041795 0.034773
v 0.080581 0.042446 0.036702
v 0.079841 0.042446 0.035942
v 0.080840 0.046255 -0.000807
v 0.083649 0.046309 -0.002326
v 0.086582 0.046356 -0.003818
v 0.087636 0.046566 -0.004087
v 0.089561 0.046334 -0.005240
v 0.090598 0.046549 -0.005412
v 0.092005 0.046703 -0.005633
v 0.089089 0.046696 -0.004497
v 0.084678 0.046474 -0.002573
v 0.081715 0.046379 -0.001033
v 0.081715 0.046654 0.000044
v 0.080304 0.046363 0.000136
v 0.078872 0.046734 0.028024
v 0.112733 0.043670 0.039961
v 0.109864 0.043801 0.041561
v 0.111313 0.043618 0.041108
v 0.086157 0.044275 0.039998
v 0.081669 0.043823 0.037084
v 0.078872 0.046672 0.028169
v 0.080194 0.043799 0.035592
v 0.080661 0.043505 0.036621
v 0.079208 0.043486 0.035129
v 0.078872 0.042446 0.034876
v 0.078872 0.043621 0.034337
v 0.078872 0.043059 0.034773
f 209 139 211
f 209 211 262
f 222 221 275
f 87 151 89
f 285 230 284
f 106 58 105
f 171 172 106
f 62 106 108
f 108 106 172
f 233 285 254
f 254 285 255
f 78 79 43
f 265 221 209
f 265 275 221
f 164 224 165
f 210 139 209
f 209 268 210
f 267 268 209
f 26 10 25
f 5 18 6
f 5 6 1
f 1 4 5
f 233 172 232
f 232 172 171
f 103 151 164
f 45 87 88
f 88 89 45
f 87 89 88
f 90 91 45
f 45 89 90
f 94 87 45
f 286 285 233
f 233 232 286
f 286 232 231
f 231 230 286
f 230 285 286
f 61 106 62
f 58 106 61
f 62 32 61
f 61 32 58
f 234 174 172
f 234 237 174
f 234 172 233
f 233 237 234
f 172 174 173
f 173 108 172
f 77 43 76
f 77 78 43
f 43 79 80
f 6 18 19
f 42 71 43
f 43 18 42
f 43 86 44
f 44 18 43
f 85 86 43
f 142 86 141
f 86 140 141
f 148 86 147
f 86 146 147
f 209 221 266
f 266 267 209
f 46 25 45
f 47 25 46
f 50 51 26
f 11 10 29
f 1 10 11
f 11 2 1
f 1 2 3
f 3 4 1
f 13 32 14
f 13 3 2
f 14 4 13
f 4 3 13
f 51 97 98
f 12 13 2
f 12 11 29
f 2 11 12
f 30 12 29
f 321 277 313
f 283 282 331
f 284 230 283
f 230 282 283
f 321 331 330
f 331 282 330
f 151 107 162
f 151 103 102
f 102 103 58
f 220 157 156
f 154 153 221
f 87 94 149
f 290 291 237
f 174 237 238
f 237 291 238
f 108 173 109
f 109 173 174
f 344 345 342
f 342 339 344
f 340 339 342
f 342 317 320
f 131 80 79
f 132 201 133
f 254 252 287
f 233 254 287
f 287 237 233
f 303 290 287
f 287 290 237
f 197 252 254
f 252 192 251
f 303 287 251
f 251 287 252
f 125 126 79
f 43 71 72
f 72 73 43
f 39 40 18
f 18 40 41
f 41 42 18
f 138 140 86
f 86 85 138
f 143 86 142
f 143 144 86
f 145 146 86
f 86 144 145
f 276 277 224
f 224 223 276
f 278 277 326
f 278 227 277
f 224 277 225
f 225 165 224
f 105 58 104
f 58 103 104
f 164 165 104
f 104 103 164
f 326 277 325
f 322 277 321
f 322 323 277
f 10 20 22
f 9 10 1
f 9 20 10
f 45 91 92
f 92 46 45
f 92 91 47
f 47 46 92
f 26 25 49
f 49 50 26
f 51 50 48
f 47 97 48
f 48 97 51
f 48 25 47
f 48 49 25
f 50 49 48
f 96 97 47
f 56 98 100
f 100 96 160
f 100 98 97
f 97 96 100
f 51 98 53
f 58 32 31
f 31 30 58
f 32 13 31
f 13 12 31
f 12 30 31
f 29 56 57
f 57 30 29
f 312 313 264
f 264 223 222
f 264 276 223
f 222 275 264
f 264 313 277
f 277 276 264
f 275 265 264
f 264 265 209
f 332 331 321
f 332 283 331
f 312 283 332
f 321 313 332
f 332 313 312
f 220 151 219
f 219 162 220
f 151 162 219
f 161 157 220
f 220 162 161
f 59 57 56
f 107 102 59
f 30 57 59
f 163 107 151
f 151 102 163
f 163 102 107
f 152 89 151
f 152 151 220
f 220 156 152
f 95 156 157
f 89 152 95
f 95 152 156
f 91 90 95
f 95 90 89
f 47 91 95
f 95 96 47
f 153 154 93
f 93 94 45
f 93 154 94
f 164 151 150
f 150 151 87
f 87 149 150
f 155 149 94
f 155 150 149
f 155 221 222
f 155 224 164
f 164 150 155
f 222 223 155
f 155 223 224
f 339 315 333
f 174 238 235
f 235 236 174
f 239 236 235
f 177 236 239
f 5 16 17
f 37 18 17
f 18 5 17
f 14 35 15
f 35 16 15
f 15 4 14
f 15 5 4
f 15 16 5
f 34 32 62
f 34 35 14
f 34 64 35
f 35 64 65
f 112 65 111
f 111 65 64
f 174 236 175
f 175 109 174
f 318 317 343
f 343 342 345
f 317 342 343
f 208 141 140
f 140 138 208
f 79 126 127
f 127 126 192
f 43 80 81
f 81 82 43
f 200 201 132
f 132 199 200
f 135 203 204
f 204 203 201
f 83 131 132
f 132 133 83
f 43 82 83
f 82 81 83
f 80 131 83
f 83 81 80
f 201 203 202
f 202 133 201
f 202 203 135
f 134 202 135
f 133 202 134
f 198 199 132
f 132 197 198
f 255 199 198
f 198 254 255
f 198 197 254
f 43 73 74
f 126 125 190
f 121 72 71
f 247 248 297
f 117 119 71
f 112 177 178
f 178 177 239
f 38 18 37
f 38 39 18
f 71 42 70
f 70 117 71
f 148 147 218
f 218 147 146
f 146 217 218
f 146 145 215
f 215 145 214
f 144 143 213
f 213 145 144
f 214 145 213
f 213 143 142
f 277 227 226
f 226 225 277
f 226 227 165
f 165 225 226
f 170 106 105
f 171 106 170
f 170 230 231
f 170 232 171
f 231 232 170
f 323 322 324
f 277 323 324
f 324 325 277
f 324 328 326
f 326 325 324
f 23 22 45
f 10 22 23
f 21 9 19
f 20 9 21
f 45 22 21
f 21 22 20
f 19 9 8
f 8 9 1
f 99 98 56
f 99 53 98
f 26 51 52
f 51 53 52
f 27 10 26
f 26 52 27
f 27 52 53
f 55 56 29
f 209 262 263
f 263 264 209
f 101 161 162
f 101 162 107
f 107 59 101
f 101 59 56
f 101 100 160
f 56 100 101
f 58 30 60
f 30 59 60
f 60 102 58
f 60 59 102
f 157 161 158
f 158 95 157
f 161 101 158
f 338 339 340
f 338 315 339
f 337 333 314
f 314 333 315
f 314 307 337
f 239 235 289
f 63 34 62
f 64 34 63
f 62 108 63
f 108 109 63
f 14 32 33
f 33 34 14
f 32 34 33
f 176 111 109
f 109 175 176
f 176 175 236
f 236 177 176
f 176 177 112
f 112 111 176
f 141 208 212
f 142 141 212
f 212 213 142
f 269 213 212
f 260 208 207
f 252 197 195
f 84 85 43
f 43 83 84
f 84 83 133
f 133 134 84
f 135 85 84
f 84 134 135
f 180 119 179
f 291 290 302
f 302 290 303
f 250 251 192
f 253 302 250
f 303 251 250
f 250 302 303
f 76 43 75
f 43 74 75
f 247 299 249
f 249 190 247
f 73 72 123
f 71 119 120
f 120 121 71
f 120 119 180
f 180 121 120
f 298 299 247
f 247 297 298
f 253 249 301
f 301 249 299
f 299 298 301
f 295 245 244
f 115 70 118
f 39 38 36
f 36 16 35
f 36 38 37
f 37 17 36
f 36 17 16
f 40 39 36
f 36 41 40
f 42 41 36
f 36 68 42
f 119 117 116
f 117 70 116
f 116 70 115
f 115 118 116
f 116 178 119
f 116 118 178
f 69 70 42
f 42 68 69
f 69 68 113
f 216 217 146
f 146 215 216
f 327 278 326
f 166 104 165
f 166 167 104
f 165 227 166
f 227 167 166
f 227 278 228
f 228 167 227
f 105 104 169
f 169 170 105
f 230 170 169
f 329 330 282
f 282 324 329
f 321 330 329
f 329 322 321
f 329 324 322
f 45 25 24
f 24 23 45
f 24 25 10
f 10 23 24
f 6 19 7
f 19 8 7
f 1 6 7
f 7 8 1
f 53 99 54
f 54 99 56
f 56 55 54
f 29 10 28
f 28 55 29
f 10 27 28
f 28 54 55
f 28 27 53
f 53 54 28
f 95 158 159
f 160 96 159
f 96 95 159
f 159 101 160
f 159 158 101
f 315 338 316
f 316 338 340
f 201 200 256
f 256 200 199
f 256 199 255
f 109 111 110
f 110 63 109
f 110 111 64
f 64 63 110
f 135 204 205
f 258 207 206
f 206 204 258
f 206 205 204
f 137 208 138
f 137 207 208
f 137 206 207
f 137 138 85
f 79 127 128
f 130 131 79
f 240 289 241
f 239 289 240
f 240 179 239
f 119 178 181
f 181 179 119
f 181 178 239
f 239 179 181
f 336 334 291
f 293 334 336
f 253 250 193
f 193 249 253
f 190 249 193
f 126 190 193
f 293 244 243
f 243 242 293
f 241 289 292
f 292 242 241
f 293 242 292
f 292 334 293
f 72 121 122
f 122 123 72
f 121 123 122
f 124 74 73
f 73 123 124
f 124 75 74
f 76 75 124
f 124 77 76
f 78 77 124
f 79 78 124
f 124 125 79
f 304 298 297
f 304 301 298
f 304 297 293
f 253 301 304
f 304 302 253
f 293 336 304
f 304 336 302
f 300 297 248
f 248 295 300
f 293 297 300
f 66 36 35
f 35 65 66
f 66 65 112
f 113 68 67
f 68 36 67
f 36 66 67
f 112 113 67
f 67 66 112
f 114 118 70
f 70 69 114
f 114 69 113
f 114 113 112
f 112 178 114
f 178 118 114
f 272 216 215
f 320 317 272
f 272 317 318
f 215 273 272
f 271 215 214
f 271 273 215
f 279 327 280
f 280 228 279
f 278 327 279
f 279 228 278
f 167 228 168
f 104 167 168
f 168 169 104
f 230 169 168
f 270 314 315
f 315 316 270
f 270 213 269
f 214 213 270
f 270 271 214
f 270 316 273
f 273 271 270
f 340 342 341
f 341 316 340
f 341 342 320
f 258 204 257
f 257 204 201
f 201 256 257
f 305 256 255
f 305 333 337
f 285 333 305
f 255 285 305
f 337 307 306
f 306 305 337
f 256 305 306
f 307 257 306
f 306 257 256
f 288 289 235
f 291 334 288
f 288 292 289
f 334 292 288
f 288 238 291
f 288 235 238
f 136 137 85
f 136 85 135
f 135 205 136
f 205 206 136
f 206 137 136
f 194 192 252
f 252 195 194
f 79 128 129
f 129 130 79
f 196 197 132
f 196 195 197
f 291 302 335
f 335 336 291
f 302 336 335
f 191 250 192
f 191 193 250
f 192 126 191
f 126 193 191
f 183 243 244
f 296 295 248
f 189 248 247
f 125 124 189
f 247 190 189
f 189 190 125
f 293 300 294
f 294 300 295
f 294 244 293
f 294 295 244
f 274 272 318
f 216 272 274
f 320 272 319
f 319 272 273
f 273 316 319
f 319 341 320
f 316 341 319
f 281 228 280
f 326 328 281
f 281 327 326
f 280 327 281
f 281 324 282
f 328 324 281
f 281 282 230
f 307 314 308
f 314 270 308
f 308 257 307
f 121 183 184
f 244 245 184
f 184 183 244
f 182 121 180
f 182 183 121
f 182 240 241
f 241 242 182
f 180 179 182
f 179 240 182
f 242 243 182
f 243 183 182
f 188 124 123
f 121 184 185
f 185 189 124
f 229 168 228
f 228 281 229
f 230 168 229
f 229 281 230
f 260 311 261
f 269 212 261
f 261 208 260
f 261 212 208
f 310 270 269
f 269 261 310
f 310 261 311
f 246 184 245
f 246 185 184
f 245 295 246
f 295 296 246
f 246 296 248
f 248 189 246
f 189 185 246
f 186 123 121
f 121 185 186
f 309 308 270
f 270 310 309
f 257 308 309
f 123 186 187
f 187 186 185
f 187 188 123
f 124 188 187
f 187 185 124
f 258 257 259
f 257 309 259
f 259 207 258
f 259 310 311
f 259 309 310
f 260 207 259
f 259 311 260
f 148 211 86
f 86 211 139
f 94 154 155
f 155 154 221
f 21 266 221
f 21 44 86
f 21 86 139
f 139 210 21
f 221 153 21
f 21 93 45
f 21 210 268
f 268 267 21
f 21 19 18
f 18 44 21
f 267 266 21
f 153 93 21
f 194 128 127
f 194 127 192
f 128 194 129
f 129 194 195
f 131 130 196
f 132 131 196
f 196 129 195
f 130 129 196
f 274 211 148
f 284 283 274
f 274 262 211
f 274 285 284
f 274 345 344
f 344 339 274
f 318 343 274
f 148 218 274
f 274 333 285
f 274 283 312
f 274 263 262
f 312 264 274
f 339 333 274
f 274 343 345
f 274 218 217
f 264 263 274
f 217 216 274
