v 0.092001 0.031082 0.028573
v 0.092001 0.029301 0.028428
v 0.092001 0.031082 -0.000938
v 0.087203 0.031082 0.030997
v 0.092000 0.031082 0.043835
v 0.092000 0.029126 0.043747
v 0.092000 0.028554 0.043708
v 0.092001 0.027425 0.028082
v 0.092001 0.027425 -0.000758
v 0.091904 0.031082 -0.000942
v 0.080633 0.031082 0.030997
v 0.090947 0.031082 0.043550
v 0.091450 0.030606 0.043668
v 0.090593 0.030606 0.043436
v 0.090593 0.029126 0.043348
v 0.090593 0.028554 0.043313
v 0.090622 0.027425 0.026675
v 0.090021 0.028554 0.043151
v 0.089114 0.028554 0.042827
v 0.088743 0.028554 0.042651
v 0.088201 0.028554 0.042353
v 0.087915 0.028554 0.042125
v 0.082487 0.028554 0.037756
v 0.081768 0.028554 0.037173
v 0.080874 0.028554 0.036414
v 0.091393 0.027425 -0.000723
v 0.091126 0.031082 -0.000894
v 0.077887 0.031082 0.031001
v 0.077912 0.031082 0.031049
v 0.079716 0.031082 0.034411
v 0.080458 0.031082 0.035603
v 0.080950 0.031082 0.036327
v 0.081673 0.031082 0.036914
v 0.088326 0.031082 0.042257
v 0.088521 0.031082 0.042397
v 0.089070 0.031082 0.042739
v 0.089618 0.031082 0.043015
v 0.090634 0.031082 0.043458
v 0.080633 0.031082 0.007661
v 0.090306 0.027425 0.026346
v 0.089114 0.029126 0.042818
v 0.089114 0.030606 0.042787
v 0.088229 0.029126 0.042336
v 0.081716 0.030606 0.036984
v 0.081716 0.029126 0.037094
v 0.080885 0.029126 0.036397
v 0.080408 0.030606 0.035560
v 0.080352 0.029126 0.035560
v 0.080338 0.028554 0.035560
v 0.089582 0.027425 0.025527
v 0.091292 0.027425 -0.000710
v 0.089114 0.027646 0.000153
v 0.090427 0.031082 -0.000526
v 0.090568 0.027425 -0.000478
v 0.090535 0.027646 -0.000478
v 0.089114 0.027425 0.000153
v 0.077880 0.030606 0.031001
v 0.077865 0.029469 0.031001
v 0.078737 0.030606 0.032601
v 0.079712 0.030606 0.034416
v 0.080932 0.030606 0.036344
v 0.087387 0.031082 0.001626
v 0.088237 0.027425 0.000666
v 0.080633 0.027425 0.007530
v 0.077855 0.028554 0.031001
v 0.077860 0.029126 0.031001
v 0.079699 0.028554 0.034442
v 0.080633 0.027425 0.010703
v 0.089421 0.027425 0.025264
v 0.088991 0.031082 0.000302
v 0.079302 0.028554 0.033701
v 0.087751 0.031082 0.001319
f 1 7 2
f 2 7 8
f 10 3 9
f 11 39 28
f 6 7 1
f 1 5 6
f 64 39 63
f 65 39 64
f 64 68 65
f 63 39 62
f 28 39 57
f 39 58 57
f 66 39 65
f 66 58 39
f 4 5 1
f 4 11 5
f 25 50 40
f 27 51 54
f 72 70 63
f 63 62 72
f 8 25 17
f 25 40 17
f 51 27 26
f 26 27 10
f 10 9 26
f 29 11 28
f 29 30 11
f 28 57 29
f 29 57 58
f 31 32 11
f 11 30 31
f 61 32 31
f 31 46 61
f 34 35 11
f 24 46 25
f 24 25 8
f 8 23 24
f 58 66 71
f 71 67 58
f 71 66 65
f 65 68 71
f 68 67 71
f 58 67 59
f 59 67 60
f 59 29 58
f 60 30 59
f 30 29 59
f 54 56 55
f 55 27 54
f 55 56 27
f 60 67 49
f 49 30 60
f 49 48 30
f 25 48 49
f 49 67 68
f 68 69 49
f 49 69 50
f 49 50 25
f 46 31 47
f 25 46 47
f 47 48 25
f 47 31 30
f 30 48 47
f 5 11 12
f 11 38 12
f 37 38 11
f 19 38 37
f 18 19 8
f 11 32 33
f 33 34 11
f 35 34 43
f 34 33 43
f 43 33 44
f 20 42 21
f 20 21 8
f 8 19 20
f 70 53 52
f 52 56 63
f 63 70 52
f 52 53 27
f 27 56 52
f 13 6 5
f 5 12 13
f 11 35 36
f 36 37 11
f 42 37 36
f 21 42 36
f 36 43 21
f 35 43 36
f 19 37 41
f 41 37 42
f 41 20 19
f 42 20 41
f 14 38 19
f 19 18 14
f 14 12 38
f 6 13 14
f 14 13 12
f 8 7 16
f 16 18 8
f 7 6 16
f 45 24 23
f 45 32 61
f 45 33 32
f 44 33 45
f 61 46 45
f 46 24 45
f 6 14 15
f 15 14 18
f 15 16 6
f 18 16 15
f 22 43 44
f 44 45 22
f 22 45 23
f 21 43 22
f 8 21 22
f 22 23 8
f 9 3 1
f 1 2 9
f 9 2 8
f 26 9 8
f 26 64 63
f 8 17 26
f 63 56 26
f 68 64 26
f 26 69 68
f 26 40 50
f 50 69 26
f 54 51 26
f 26 17 40
f 26 56 54
f 53 3 10
f 1 3 53
f 53 4 1
f 53 62 39
f 39 11 53
f 10 27 53
f 11 4 53
f 70 72 53
f 53 72 62
