v 0.117939 0.010282 0.033919
v 0.112077 0.010282 0.033919
v 0.116560 0.010282 0.036404
v 0.117227 0.008542 0.048327
v 0.117857 0.008353 0.048327
v 0.129076 0.006741 0.034082
v 0.129076 0.006758 0.033919
v 0.108852 0.006209 0.033919
v 0.111562 0.010282 0.034369
v 0.116279 0.010282 0.036792
v 0.115281 0.010282 0.038056
v 0.114770 0.010282 0.038597
v 0.113826 0.010282 0.039470
v 0.108852 0.010282 0.041508
v 0.115761 0.008557 0.048327
v 0.118519 0.008098 0.048327
v 0.128370 0.006203 0.039332
v 0.129935 0.006267 0.035268
v 0.130002 0.006341 0.034082
v 0.129998 0.006341 0.033919
v 0.108852 -0.000741 0.033919
v 0.108852 0.010282 0.037157
v 0.110822 0.010282 0.035089
v 0.111363 0.010282 0.034563
v 0.108852 0.006613 0.048327
v 0.109006 0.006860 0.048327
v 0.109348 0.007314 0.048327
v 0.110107 0.007951 0.048327
v 0.110393 0.008064 0.048327
v 0.111876 0.008358 0.048327
v 0.119554 0.007190 0.048327
v 0.125783 0.006395 0.042517
v 0.127078 0.006285 0.041082
v 0.126725 0.005442 0.042040
v 0.127253 0.005442 0.041299
v 0.127993 0.005442 0.040191
v 0.128450 0.005442 0.039451
v 0.130034 0.005167 0.036681
v 0.129783 0.006153 0.036255
v 0.130279 0.005573 0.035681
v 0.130872 0.005236 0.033919
v 0.130816 0.005303 0.033983
v 0.111374 -0.003110 0.033919
v 0.110246 -0.002887 0.034527
v 0.108852 -0.003036 0.035904
v 0.108852 0.003274 0.048327
v 0.120867 0.005226 0.048327
v 0.129881 0.001810 0.037951
v 0.121205 0.004467 0.048327
v 0.121359 0.004030 0.048327
v 0.122621 -0.002209 0.048327
v 0.130963 -0.000633 0.033919
v 0.108852 -0.004403 0.037455
v 0.112755 -0.003758 0.033919
v 0.108852 -0.001884 0.045523
v 0.109376 -0.004928 0.048327
v 0.129881 0.001423 0.037951
v 0.122621 -0.002911 0.048327
v 0.130084 0.000042 0.036727
v 0.128024 -0.006149 0.033919
v 0.113099 -0.003903 0.033919
v 0.114372 -0.004426 0.033919
v 0.108852 -0.004988 0.038569
v 0.108852 -0.003304 0.044437
v 0.109969 -0.006376 0.048327
v 0.108852 -0.004580 0.042931
v 0.108852 -0.004759 0.042706
v 0.108852 -0.005207 0.042075
v 0.108852 -0.005349 0.041873
v 0.108852 -0.005434 0.041699
v 0.108852 -0.005663 0.041001
v 0.129755 0.000439 0.037715
v 0.122610 -0.002989 0.048327
v 0.127675 -0.006324 0.034123
v 0.127666 -0.006374 0.033919
v 0.121712 -0.004500 0.048327
v 0.119683 -0.007457 0.048327
v 0.124474 -0.006973 0.033919
v 0.108852 -0.005483 0.039779
v 0.110239 -0.006956 0.048327
v 0.108852 -0.005661 0.040474
v 0.110441 -0.007288 0.048327
v 0.118718 -0.008075 0.048327
v 0.126117 -0.006956 0.034082
v 0.126117 -0.006958 0.033919
v 0.124636 -0.006990 0.033919
v 0.114830 -0.008728 0.045052
v 0.108852 -0.005594 0.040070
v 0.113462 -0.008653 0.046573
v 0.111348 -0.007660 0.048327
v 0.113462 -0.008653 0.046760
v 0.118227 -0.008157 0.048327
v 0.116895 -0.008666 0.046749
v 0.118718 -0.008145 0.047402
v 0.125954 -0.006964 0.033919
v 0.116895 -0.008666 0.046494
v 0.115285 -0.008728 0.045052
v 0.115785 -0.008696 0.045994
v 0.114279 -0.008691 0.046032
v 0.117270 -0.008162 0.048327
v 0.116285 -0.008666 0.046749
f 87 78 86
f 41 48 52
f 8 22 23
f 13 14 4
f 87 91 89
f 89 91 82
f 81 89 82
f 82 91 90
f 19 41 20
f 20 7 19
f 19 7 18
f 48 41 38
f 6 7 1
f 18 7 6
f 73 72 57
f 52 48 57
f 73 60 59
f 59 72 73
f 59 60 52
f 52 57 59
f 59 57 72
f 9 2 8
f 14 29 30
f 56 46 55
f 64 56 55
f 87 89 88
f 89 81 88
f 88 78 87
f 45 21 44
f 21 43 44
f 76 60 73
f 76 77 60
f 99 91 87
f 92 93 83
f 97 95 85
f 86 95 97
f 87 86 97
f 83 93 94
f 85 75 84
f 84 75 83
f 83 94 84
f 84 93 85
f 84 94 93
f 74 75 60
f 83 75 74
f 74 77 83
f 60 77 74
f 18 41 42
f 42 19 18
f 41 19 42
f 40 41 18
f 40 38 41
f 48 38 37
f 8 23 24
f 24 9 8
f 26 14 25
f 26 27 14
f 28 29 14
f 14 27 28
f 4 14 15
f 14 30 15
f 4 1 3
f 3 10 4
f 4 10 11
f 66 56 64
f 62 78 63
f 98 99 87
f 87 97 98
f 98 97 93
f 93 92 100
f 100 90 91
f 85 93 96
f 96 97 85
f 93 97 96
f 34 50 51
f 48 34 51
f 49 34 47
f 49 50 34
f 48 37 36
f 17 37 38
f 17 36 37
f 18 6 17
f 32 31 47
f 47 34 32
f 12 13 4
f 4 11 12
f 56 66 67
f 71 65 56
f 71 81 82
f 78 88 79
f 79 63 78
f 62 63 53
f 53 44 43
f 45 44 53
f 101 100 91
f 93 100 101
f 91 99 101
f 101 98 93
f 99 98 101
f 73 57 58
f 39 40 18
f 18 17 39
f 38 40 39
f 39 17 38
f 35 17 34
f 36 17 35
f 35 34 48
f 48 36 35
f 31 32 16
f 68 69 56
f 56 67 68
f 56 69 70
f 70 71 56
f 80 71 82
f 65 71 80
f 54 53 43
f 5 16 17
f 5 17 6
f 5 1 4
f 5 6 1
f 17 16 33
f 33 16 32
f 34 17 33
f 33 32 34
f 62 53 61
f 53 54 61
f 1 2 12
f 22 14 12
f 12 23 22
f 2 9 12
f 14 13 12
f 12 24 23
f 12 3 1
f 9 24 12
f 10 3 12
f 12 11 10
f 58 57 48
f 48 51 58
f 8 21 70
f 70 22 8
f 25 14 70
f 70 46 25
f 70 14 22
f 70 21 45
f 64 55 70
f 70 66 64
f 70 55 46
f 45 53 70
f 70 88 81
f 70 79 88
f 81 71 70
f 70 67 66
f 69 68 70
f 63 79 70
f 70 53 63
f 70 68 67
f 25 46 5
f 90 100 5
f 73 58 5
f 4 15 5
f 29 28 5
f 5 92 83
f 82 90 5
f 5 46 56
f 83 77 5
f 5 76 73
f 5 26 25
f 5 30 29
f 77 76 5
f 5 80 82
f 5 49 47
f 47 31 5
f 27 26 5
f 5 28 27
f 5 15 30
f 56 65 5
f 5 100 92
f 5 51 50
f 50 49 5
f 5 58 51
f 31 16 5
f 65 80 5
f 61 75 85
f 8 2 61
f 52 60 61
f 61 78 62
f 61 21 8
f 85 95 61
f 61 41 52
f 61 2 1
f 1 7 61
f 61 86 78
f 20 41 61
f 61 7 20
f 61 43 21
f 61 95 86
f 60 75 61
f 61 54 43
