v 0.093555 0.005400 0.021138
v 0.092001 0.005243 0.021138
v 0.093926 0.005394 0.021138
v 0.090637 0.010011 0.018471
v 0.086156 0.006285 0.020676
v 0.092001 -0.001032 0.021138
v 0.085885 0.006160 0.020676
v 0.085247 0.005830 0.020676
v 0.093926 -0.000844 0.021138
v 0.093926 0.006247 0.016317
v 0.093489 0.009882 0.016317
v 0.092973 0.010785 0.017263
v 0.092075 0.010941 0.017580
v 0.092000 0.010895 0.017627
v 0.090594 0.011015 0.017744
v 0.089368 0.010881 0.017481
v 0.085247 -0.001036 0.020676
v 0.086114 -0.001158 0.020676
v 0.089832 -0.004182 0.017077
v 0.090594 -0.004184 0.017084
v 0.092020 -0.001032 0.021138
v 0.088383 0.010356 0.017036
v 0.088300 0.010724 0.016050
v 0.085247 0.006122 0.011050
v 0.093555 -0.000945 0.021138
v 0.093926 -0.000862 0.021131
v 0.093926 0.006398 0.011557
v 0.093926 0.005978 0.006388
v 0.093310 0.010281 0.015709
v 0.093350 0.010281 0.016317
v 0.093127 0.010922 0.016319
v 0.092075 0.011311 0.016319
v 0.092000 0.011299 0.016389
v 0.092000 0.010947 0.017588
v 0.090594 0.011403 0.016319
v 0.088972 0.010994 0.016453
v 0.085247 -0.001085 0.011050
v 0.089832 -0.004182 0.016635
v 0.090506 -0.004186 0.016213
v 0.091958 -0.004184 0.016197
v 0.091388 -0.004181 0.017074
v 0.092075 -0.001030 0.021138
v 0.088300 0.010724 0.015361
v 0.089514 0.010847 0.013844
v 0.092007 0.005977 0.006388
v 0.092001 0.001335 0.006388
v 0.092453 -0.001019 0.021138
v 0.092375 -0.004094 0.016610
v 0.092820 -0.004179 0.015623
v 0.093926 -0.002142 0.016317
v 0.090594 0.010988 0.013676
v 0.092075 0.010870 0.013818
v 0.092875 0.010690 0.014035
v 0.093053 0.010852 0.014839
v 0.093926 -0.000510 0.006388
v 0.092075 0.011241 0.014839
v 0.090594 0.011372 0.014839
v 0.092000 0.011317 0.016319
v 0.089059 0.010974 0.014856
v 0.092001 -0.000748 0.006388
v 0.090506 -0.004161 0.014863
v 0.089956 -0.004176 0.015649
v 0.092001 -0.004182 0.015409
v 0.092075 -0.004182 0.015410
v 0.092001 -0.004184 0.016168
v 0.090943 -0.004181 0.015373
v 0.091999 -0.004128 0.016785
v 0.092820 -0.004179 0.015562
v 0.093926 -0.002045 0.014966
v 0.093926 -0.000838 0.007441
v 0.092576 -0.000798 0.006388
v 0.091999 -0.003969 0.014681
v 0.092075 -0.003958 0.014670
v 0.093926 -0.001122 0.008919
v 0.093926 -0.002034 0.014839
f 3 11 12
f 19 17 37
f 50 26 49
f 49 68 50
f 39 62 66
f 8 2 7
f 4 1 3
f 10 11 3
f 29 11 28
f 28 52 53
f 56 53 52
f 46 24 45
f 3 12 13
f 31 12 30
f 30 12 11
f 30 29 31
f 11 29 30
f 8 22 23
f 23 24 8
f 43 24 23
f 37 62 38
f 38 19 37
f 38 62 39
f 39 19 38
f 9 25 26
f 55 68 71
f 68 74 75
f 70 68 55
f 70 74 68
f 26 25 41
f 1 4 5
f 2 1 5
f 5 7 2
f 5 4 15
f 28 11 27
f 11 10 27
f 44 24 43
f 44 45 24
f 54 56 31
f 53 56 54
f 28 53 54
f 54 29 28
f 31 29 54
f 14 4 3
f 3 13 14
f 15 4 14
f 32 12 31
f 32 13 12
f 31 56 32
f 16 23 22
f 16 22 8
f 16 15 35
f 8 7 16
f 16 5 15
f 7 5 16
f 18 6 17
f 17 19 18
f 19 6 18
f 50 68 69
f 68 75 69
f 48 49 26
f 26 41 48
f 47 41 25
f 20 6 19
f 20 19 39
f 39 66 63
f 63 64 39
f 60 71 61
f 61 63 66
f 64 63 61
f 68 64 61
f 61 66 62
f 37 60 61
f 61 62 37
f 51 56 52
f 45 44 51
f 28 45 51
f 51 52 28
f 59 44 43
f 15 14 34
f 34 14 13
f 36 16 35
f 23 16 36
f 43 23 36
f 36 59 43
f 67 41 49
f 49 48 67
f 67 48 41
f 6 20 21
f 21 20 41
f 68 49 65
f 65 64 68
f 49 41 65
f 39 64 65
f 73 71 68
f 56 51 57
f 35 58 57
f 57 32 56
f 57 58 32
f 57 36 35
f 59 36 57
f 57 51 44
f 44 59 57
f 13 32 33
f 33 34 13
f 32 58 33
f 15 34 33
f 35 15 33
f 33 58 35
f 41 47 42
f 42 21 41
f 40 20 39
f 39 65 40
f 41 20 40
f 40 65 41
f 72 61 71
f 71 73 72
f 68 61 72
f 72 73 68
f 37 17 24
f 24 17 8
f 37 24 60
f 60 24 46
f 8 17 6
f 6 2 8
f 28 55 71
f 71 60 46
f 71 45 28
f 46 45 71
f 69 55 28
f 3 9 69
f 69 10 3
f 69 26 50
f 28 27 69
f 69 70 55
f 69 9 26
f 69 75 74
f 74 70 69
f 69 27 10
f 42 1 2
f 3 1 42
f 42 9 3
f 25 9 42
f 2 6 42
f 42 47 25
f 6 21 42
