v 0.103770 0.022599 0.044186
v 0.104005 0.022599 0.044074
v 0.103770 0.024681 0.044152
v 0.103770 0.022599 0.041774
v 0.107677 0.010286 0.042214
v 0.113821 0.010286 0.039467
v 0.107704 0.023208 0.042267
v 0.109010 0.037247 0.041397
v 0.103770 0.026162 0.044125
v 0.107677 0.010286 0.038087
v 0.103770 0.029329 0.038554
v 0.113955 0.010284 0.032297
v 0.119222 0.010284 0.032297
v 0.114764 0.010286 0.038594
v 0.116685 0.037247 0.036511
v 0.115745 0.037247 0.037243
v 0.114244 0.037247 0.038331
v 0.109501 0.037247 0.041122
v 0.108091 0.037247 0.041752
v 0.103770 0.032449 0.043994
v 0.103770 0.029123 0.044065
v 0.116846 0.010284 0.021375
v 0.113955 0.010284 0.032295
v 0.103770 0.032449 0.038554
v 0.108091 0.032449 0.030535
v 0.119511 0.010284 0.031937
v 0.115275 0.010286 0.038054
v 0.117886 0.029123 0.034650
v 0.117264 0.037247 0.035559
v 0.116274 0.010286 0.036787
v 0.116554 0.010286 0.036401
v 0.117877 0.027642 0.034648
v 0.108091 0.037247 0.038951
v 0.118731 0.022596 0.021375
v 0.122073 0.010284 0.021375
v 0.117823 0.032446 0.022123
v 0.109608 0.037247 0.034081
v 0.110037 0.037247 0.032775
v 0.111545 0.037247 0.031357
v 0.119896 0.010284 0.031120
v 0.119518 0.011368 0.031948
v 0.117879 0.030604 0.034626
v 0.119509 0.012846 0.031942
v 0.117868 0.032085 0.034595
v 0.117854 0.033565 0.034563
v 0.117839 0.035043 0.034532
v 0.117823 0.036524 0.034501
v 0.117814 0.037247 0.034458
v 0.121869 0.022596 0.021375
v 0.121878 0.022591 0.021375
v 0.121871 0.032446 0.022123
v 0.122088 0.010284 0.021844
v 0.117875 0.037247 0.029235
v 0.120354 0.010284 0.029642
v 0.119902 0.011368 0.031120
v 0.119478 0.015808 0.031899
v 0.119889 0.012846 0.031120
v 0.119868 0.014327 0.031120
v 0.119842 0.015808 0.031120
v 0.117866 0.032446 0.034583
v 0.119466 0.016993 0.031879
v 0.119660 0.032446 0.030807
v 0.119265 0.036524 0.031462
v 0.118967 0.024684 0.032600
v 0.119615 0.036524 0.030720
v 0.120108 0.036524 0.029644
v 0.119570 0.037247 0.030624
v 0.119957 0.037247 0.029235
v 0.120255 0.036524 0.029235
v 0.121869 0.032446 0.022243
v 0.122071 0.010284 0.022243
v 0.121795 0.010284 0.023722
v 0.120683 0.032446 0.028161
v 0.120352 0.011368 0.029642
v 0.120312 0.018766 0.029642
v 0.120278 0.024684 0.029639
v 0.120253 0.027642 0.029639
v 0.119746 0.017404 0.031267
v 0.120221 0.030604 0.029639
v 0.120197 0.032449 0.029644
v 0.120181 0.033565 0.029644
v 0.119798 0.018766 0.031102
v 0.120156 0.035043 0.029644
v 0.119880 0.037247 0.029644
v 0.120289 0.035452 0.029235
v 0.120734 0.032446 0.027922
v 0.121591 0.032446 0.023724
v 0.121880 0.010284 0.023324
v 0.120298 0.035043 0.029235
v 0.120318 0.033972 0.029235
v 0.120321 0.032446 0.029278
f 11 25 22
f 22 25 36
f 25 39 36
f 35 51 52
f 35 50 51
f 7 6 8
f 10 11 22
f 25 11 24
f 22 36 34
f 13 14 6
f 27 14 13
f 11 10 4
f 53 36 39
f 8 20 21
f 21 9 8
f 8 9 3
f 38 39 25
f 25 24 38
f 19 20 8
f 51 50 49
f 5 13 6
f 5 6 1
f 54 74 55
f 52 51 70
f 2 3 1
f 1 6 2
f 6 7 2
f 2 7 8
f 8 3 2
f 13 5 12
f 31 30 26
f 27 13 26
f 26 30 27
f 87 70 69
f 69 70 51
f 24 33 37
f 37 38 24
f 23 10 22
f 15 30 31
f 27 30 15
f 15 14 27
f 6 14 15
f 15 16 6
f 40 54 55
f 52 70 71
f 54 72 73
f 74 54 73
f 68 69 51
f 6 16 17
f 55 43 41
f 26 40 41
f 41 40 55
f 31 26 41
f 57 43 55
f 88 71 70
f 88 70 87
f 88 73 72
f 55 74 75
f 74 73 75
f 8 6 18
f 6 17 18
f 32 15 31
f 31 41 32
f 86 88 87
f 73 88 86
f 87 69 86
f 69 73 86
f 69 68 84
f 84 67 69
f 66 83 69
f 69 67 66
f 28 41 43
f 28 32 41
f 29 15 28
f 15 32 28
f 43 57 58
f 58 59 43
f 69 83 85
f 83 89 85
f 85 73 69
f 85 89 73
f 48 66 67
f 82 59 83
f 83 62 82
f 82 62 61
f 43 59 56
f 61 44 56
f 90 89 83
f 73 89 90
f 77 57 55
f 77 79 57
f 47 48 29
f 29 46 47
f 42 28 43
f 43 56 42
f 42 56 44
f 29 28 42
f 42 44 29
f 60 44 61
f 46 61 64
f 64 62 46
f 61 62 64
f 78 82 61
f 61 56 78
f 59 82 78
f 78 56 59
f 79 90 80
f 57 79 80
f 76 77 55
f 73 77 76
f 55 75 76
f 76 75 73
f 91 90 79
f 79 77 91
f 73 90 91
f 91 77 73
f 66 48 65
f 83 66 65
f 45 61 46
f 45 60 61
f 44 60 45
f 45 46 29
f 29 44 45
f 81 90 83
f 81 80 90
f 83 59 81
f 59 58 81
f 81 58 57
f 57 80 81
f 48 47 63
f 63 65 48
f 83 65 63
f 63 62 83
f 46 62 63
f 63 47 46
f 3 21 20
f 20 24 3
f 3 4 1
f 3 24 11
f 11 4 3
f 9 21 3
f 50 35 49
f 49 35 22
f 22 34 49
f 49 36 51
f 49 34 36
f 1 4 5
f 5 4 10
f 33 24 20
f 20 19 33
f 23 5 10
f 23 12 5
f 51 36 68
f 36 53 68
f 22 35 88
f 88 35 52
f 88 26 13
f 54 40 88
f 13 12 88
f 88 23 22
f 88 72 54
f 12 23 88
f 88 40 26
f 52 71 88
f 48 53 39
f 48 19 8
f 39 38 48
f 48 68 53
f 48 15 29
f 48 33 19
f 38 37 48
f 48 37 33
f 16 15 48
f 48 84 68
f 48 17 16
f 8 18 48
f 48 18 17
f 67 84 48
