v 0.089111 -0.061432 0.019287
v 0.089111 -0.061430 0.020765
v 0.087989 -0.060918 0.022114
v 0.087982 -0.060918 0.019287
v 0.087982 -0.060918 0.017802
v 0.089111 -0.061427 0.016324
v 0.090593 -0.061168 -0.007352
v 0.090477 -0.061190 0.022121
v 0.090594 -0.061168 0.050354
v 0.089113 -0.061427 0.022121
v 0.089111 -0.061427 0.022114
v 0.087997 -0.060915 0.023714
v 0.082389 -0.051631 0.051839
v 0.089113 -0.061406 0.031105
v 0.089113 -0.061361 0.045913
v 0.082388 -0.051631 -0.008837
v 0.087988 -0.060915 0.016324
v 0.089111 -0.061356 -0.008831
v 0.089111 -0.061393 0.003008
v 0.091599 -0.060659 -0.004396
v 0.091601 -0.060659 -0.001427
v 0.091605 -0.060659 0.022121
v 0.090594 -0.061168 0.022121
v 0.090593 -0.061163 -0.008831
v 0.091596 -0.060659 -0.008831
v 0.091605 -0.060659 0.026671
v 0.091601 -0.060659 0.044428
v 0.091598 -0.060659 0.050354
v 0.091596 -0.060659 0.051832
v 0.090594 -0.061163 0.051832
v 0.088028 -0.060902 0.029640
v 0.082394 -0.051623 0.053317
v 0.089113 -0.061343 0.050354
v 0.081986 -0.050799 0.051839
v 0.082028 -0.050797 -0.008837
v 0.082042 -0.050797 -0.010315
v 0.082403 -0.051618 -0.010315
v 0.088104 -0.060846 -0.008831
v 0.088040 -0.060891 0.005964
v 0.088188 -0.060706 -0.009861
v 0.089096 -0.060894 -0.010336
v 0.090593 -0.060941 -0.010309
v 0.091962 -0.059682 0.023714
v 0.091497 -0.060566 -0.010309
v 0.091692 -0.059677 -0.010309
v 0.091801 -0.059677 -0.008831
v 0.091813 -0.059677 -0.007352
v 0.091897 -0.059677 0.008927
v 0.091933 -0.059677 0.016324
v 0.091939 -0.059677 0.017802
v 0.091962 -0.059682 0.025192
v 0.091811 -0.059682 0.051832
v 0.091506 -0.060574 0.052842
v 0.091912 -0.059682 0.037038
v 0.091873 -0.059682 0.045913
v 0.091852 -0.059682 0.050354
v 0.090629 -0.060857 0.053324
v 0.089113 -0.061205 0.053317
v 0.089113 -0.061335 0.051832
v 0.088082 -0.060873 0.039994
v 0.082427 -0.051573 0.054097
v 0.082007 -0.050799 0.053317
v 0.088126 -0.060841 0.048862
v 0.088143 -0.060825 0.051832
v 0.088150 -0.060775 0.053317
v 0.081475 -0.049321 0.051839
v 0.081540 -0.049318 -0.008837
v 0.081555 -0.049318 -0.010315
v 0.082436 -0.051565 -0.011095
v 0.086726 -0.057723 -0.011224
v 0.088591 -0.060199 -0.010851
v 0.089579 -0.060585 -0.011251
v 0.090593 -0.060574 -0.011312
v 0.091379 -0.060458 -0.011190
v 0.091838 -0.058200 0.031105
v 0.090442 -0.047844 -0.008837
v 0.091453 -0.059584 -0.011726
v 0.091360 -0.059035 -0.012560
v 0.091360 -0.058861 -0.012560
v 0.091446 -0.058604 -0.011794
v 0.091835 -0.058200 0.032596
v 0.091554 -0.059682 0.052890
v 0.091691 -0.058200 0.050354
v 0.090409 -0.047953 0.051717
v 0.090208 -0.046366 0.051940
v 0.090292 -0.047731 0.053412
v 0.090922 -0.059682 0.053629
v 0.090158 -0.060656 0.054368
v 0.091801 -0.058200 0.037038
v 0.089003 -0.060704 0.054836
v 0.088350 -0.060450 0.055554
v 0.088246 -0.060598 0.054795
v 0.081517 -0.049321 0.053317
v 0.082250 -0.050799 0.054327
v 0.076596 -0.034457 0.025186
v 0.080233 -0.037486 -0.010315
v 0.080738 -0.038964 -0.011373
v 0.082042 -0.049318 -0.011482
v 0.082257 -0.050797 -0.011312
v 0.076623 -0.034457 0.024576
v 0.076701 -0.034457 0.023708
v 0.089919 -0.058512 -0.012526
v 0.087622 -0.058208 -0.011482
v 0.089096 -0.059695 -0.011583
v 0.088108 -0.059214 -0.011251
v 0.090485 -0.059584 -0.012146
v 0.090155 -0.046424 -0.010214
v 0.090906 -0.059035 -0.012560
v 0.083194 -0.040446 -0.012892
v 0.083277 -0.038920 -0.012872
v 0.084233 -0.040446 -0.012770
v 0.084071 -0.039382 -0.012675
v 0.089976 -0.046955 -0.011136
v 0.089869 -0.047087 0.054063
v 0.089895 -0.045595 0.052652
v 0.090090 -0.046500 0.053215
v 0.089895 -0.045592 -0.009651
v 0.089895 -0.045592 -0.009461
v 0.090185 -0.059682 0.054388
v 0.089221 -0.059682 0.055127
v 0.088436 -0.060450 0.055554
v 0.083197 -0.041922 0.056375
v 0.081643 -0.040401 0.055988
v 0.082053 -0.041922 0.055907
v 0.082039 -0.049321 0.054490
v 0.080308 -0.038964 0.054795
v 0.080014 -0.038964 0.053310
v 0.076766 -0.034457 0.026684
v 0.080597 -0.036504 -0.010315
v 0.080735 -0.036593 -0.011312
v 0.080630 -0.037486 -0.011468
v 0.078539 -0.034457 0.008927
v 0.078734 -0.034457 0.007557
v 0.081359 -0.038964 -0.012112
v 0.082098 -0.038964 -0.012844
v 0.083199 -0.049318 -0.011970
v 0.083835 -0.045254 -0.012614
v 0.083784 -0.044882 -0.012641
v 0.083599 -0.043406 -0.012729
v 0.084074 -0.037760 -0.011387
v 0.082143 -0.037763 -0.012797
v 0.082839 -0.037763 -0.012797
v 0.083823 -0.038397 -0.012377
v 0.084104 -0.037776 0.054361
v 0.083996 -0.039545 0.055615
v 0.084167 -0.040446 0.055819
v 0.084447 -0.041922 0.055988
v 0.088452 -0.058636 0.055581
v 0.083848 -0.036842 0.053310
v 0.082808 -0.034457 0.023708
v 0.082774 -0.034457 0.025403
v 0.083754 -0.036836 -0.010315
v 0.082806 -0.034457 0.023619
v 0.088480 -0.059682 0.055588
v 0.083197 -0.040446 0.056334
v 0.081716 -0.038964 0.055988
v 0.080780 -0.038964 0.055676
v 0.080915 -0.039878 0.055595
v 0.080779 -0.038009 0.055656
v 0.080520 -0.037694 0.054795
v 0.077127 -0.034457 0.028210
v 0.078751 -0.034457 0.007449
v 0.081717 -0.036348 -0.010315
v 0.081717 -0.036519 -0.011583
v 0.079141 -0.034457 0.006330
v 0.079181 -0.034457 0.006255
v 0.083375 -0.037267 -0.011943
v 0.082923 -0.036596 -0.011509
v 0.082911 -0.036562 0.054300
v 0.083277 -0.037433 0.054822
v 0.083644 -0.038558 0.055337
v 0.083170 -0.039017 0.055846
v 0.083111 -0.036475 0.053310
v 0.082690 -0.034457 0.026671
v 0.082541 -0.034457 0.028149
v 0.081391 -0.034457 0.037031
v 0.081109 -0.034457 0.006201
v 0.081248 -0.034457 0.007320
v 0.082708 -0.034457 0.022175
v 0.082659 -0.038083 0.055615
v 0.081716 -0.037956 0.055690
v 0.081971 -0.036562 0.054300
v 0.081010 -0.036757 0.053310
v 0.078184 -0.034457 0.032630
v 0.080383 -0.034457 0.005849
v 0.080400 -0.034457 0.005849
v 0.081170 -0.034457 0.037994
v 0.080204 -0.034457 0.037980
v 0.080154 -0.034457 0.037926
v 0.079381 -0.034457 0.036970
v 0.079360 -0.034457 0.036915
v 0.078947 -0.034457 0.035546
v 0.078545 -0.034457 0.034075
f 126 127 93
f 93 125 126
f 94 125 93
f 93 66 62
f 95 66 93
f 93 127 95
f 62 66 34
f 13 34 16
f 26 27 9
f 88 58 57
f 14 9 15
f 91 94 61
f 61 93 62
f 94 93 61
f 129 133 162
f 164 141 130
f 130 141 131
f 129 162 130
f 131 141 135
f 109 102 135
f 22 21 43
f 51 27 26
f 111 112 79
f 112 111 110
f 109 135 110
f 110 135 141
f 110 79 109
f 110 111 79
f 113 112 143
f 143 140 113
f 79 112 113
f 95 127 128
f 69 38 37
f 38 16 37
f 5 16 17
f 17 16 38
f 29 9 28
f 28 9 27
f 28 51 29
f 27 51 28
f 23 9 8
f 8 9 1
f 92 58 91
f 91 61 92
f 57 58 30
f 30 9 29
f 30 58 59
f 30 15 9
f 91 58 90
f 58 88 90
f 1 9 2
f 10 9 14
f 14 11 10
f 10 2 9
f 11 2 10
f 59 64 63
f 4 16 5
f 13 16 4
f 4 5 1
f 32 63 64
f 32 61 62
f 62 34 32
f 32 34 13
f 13 12 32
f 32 12 31
f 167 140 143
f 96 133 129
f 129 130 96
f 96 130 131
f 35 34 66
f 35 16 34
f 69 99 70
f 70 99 102
f 108 102 109
f 166 130 165
f 165 130 162
f 134 98 131
f 131 135 134
f 134 135 98
f 138 102 137
f 137 135 138
f 75 51 43
f 81 51 75
f 52 83 84
f 118 115 85
f 117 118 85
f 52 84 85
f 85 75 76
f 81 75 85
f 85 84 81
f 18 19 5
f 5 17 18
f 7 22 23
f 21 22 7
f 23 8 7
f 24 25 7
f 7 8 1
f 19 18 7
f 7 18 24
f 81 84 89
f 89 84 83
f 56 83 52
f 56 52 29
f 29 55 56
f 56 89 83
f 56 55 81
f 81 89 56
f 81 55 54
f 54 51 81
f 54 55 29
f 29 51 54
f 107 140 117
f 107 113 140
f 117 85 107
f 107 85 76
f 76 80 107
f 79 113 107
f 107 80 79
f 117 140 152
f 152 153 117
f 140 167 152
f 152 167 168
f 152 177 178
f 168 177 152
f 150 118 117
f 117 153 150
f 150 115 118
f 160 127 126
f 160 128 127
f 119 120 88
f 53 88 57
f 29 52 53
f 52 82 53
f 53 30 29
f 57 30 53
f 60 31 59
f 59 63 60
f 60 32 31
f 63 32 60
f 59 31 33
f 31 12 33
f 33 12 15
f 33 30 59
f 15 30 33
f 14 15 3
f 15 12 3
f 3 11 14
f 3 2 11
f 13 4 3
f 3 12 13
f 1 2 3
f 3 4 1
f 65 32 64
f 61 32 65
f 65 92 61
f 58 92 65
f 65 64 59
f 59 58 65
f 186 177 163
f 163 185 186
f 163 168 164
f 163 177 168
f 166 185 163
f 164 130 163
f 163 130 166
f 168 167 142
f 142 141 164
f 164 168 142
f 142 167 143
f 142 110 141
f 143 112 142
f 112 110 142
f 133 96 132
f 132 96 101
f 131 98 97
f 97 96 131
f 101 96 68
f 68 97 98
f 96 97 68
f 98 99 68
f 68 99 69
f 136 99 98
f 102 99 136
f 137 102 136
f 98 135 136
f 136 135 137
f 40 38 69
f 69 70 40
f 40 18 38
f 109 79 78
f 78 108 109
f 102 108 106
f 106 104 102
f 72 104 106
f 108 78 106
f 139 135 102
f 102 138 139
f 139 138 135
f 45 76 46
f 45 80 76
f 79 80 45
f 45 78 79
f 46 25 45
f 76 75 48
f 86 82 52
f 52 85 86
f 39 17 38
f 38 18 39
f 39 18 17
f 21 7 20
f 20 7 25
f 43 21 20
f 20 25 43
f 6 7 1
f 19 7 6
f 1 5 6
f 5 19 6
f 175 149 174
f 175 176 149
f 123 125 94
f 88 120 121
f 91 90 121
f 121 90 88
f 179 152 178
f 153 152 179
f 151 149 115
f 115 150 151
f 174 149 151
f 87 119 88
f 88 53 87
f 87 53 82
f 100 68 95
f 101 68 100
f 95 68 67
f 67 66 95
f 67 35 66
f 36 37 16
f 16 35 36
f 69 37 36
f 36 68 69
f 35 67 36
f 36 67 68
f 71 40 70
f 72 40 71
f 71 104 72
f 41 40 72
f 18 40 41
f 103 70 102
f 102 104 103
f 103 104 70
f 49 48 75
f 25 48 49
f 47 25 46
f 47 48 25
f 46 76 47
f 76 48 47
f 116 85 115
f 116 86 85
f 44 25 24
f 44 45 25
f 44 74 45
f 24 18 42
f 42 44 24
f 74 44 42
f 42 41 72
f 18 41 42
f 78 45 77
f 77 74 78
f 45 74 77
f 149 176 173
f 173 169 149
f 176 187 173
f 173 187 169
f 159 160 126
f 124 94 91
f 91 123 124
f 124 123 94
f 192 183 191
f 191 183 190
f 193 183 192
f 184 183 193
f 161 183 184
f 128 160 161
f 160 183 161
f 190 183 182
f 182 187 188
f 169 187 182
f 182 183 160
f 160 159 182
f 70 104 105
f 105 71 70
f 104 71 105
f 50 75 43
f 50 49 75
f 43 25 50
f 25 49 50
f 149 169 144
f 115 149 144
f 144 116 115
f 91 121 122
f 122 123 91
f 73 42 72
f 74 42 73
f 72 106 73
f 73 106 78
f 78 74 73
f 126 125 157
f 157 159 126
f 189 182 188
f 190 182 189
f 116 144 114
f 86 116 114
f 114 146 147
f 147 148 114
f 114 148 120
f 120 119 114
f 119 87 114
f 82 86 114
f 114 87 82
f 146 114 145
f 145 114 144
f 154 121 120
f 120 148 154
f 154 122 121
f 148 122 154
f 155 148 147
f 155 122 148
f 147 146 155
f 155 145 172
f 146 145 155
f 172 180 155
f 181 180 169
f 169 182 181
f 181 182 159
f 181 155 180
f 170 144 169
f 169 180 170
f 125 123 158
f 158 157 125
f 123 157 158
f 123 122 156
f 122 155 156
f 156 157 123
f 159 157 156
f 156 181 159
f 155 181 156
f 171 180 172
f 171 170 180
f 172 145 171
f 171 145 144
f 144 170 171
f 22 9 23
f 26 9 22
f 26 22 51
f 51 22 43
f 174 151 189
f 189 162 133
f 166 165 189
f 128 161 189
f 133 132 189
f 186 185 189
f 95 128 189
f 192 191 189
f 189 185 166
f 189 177 186
f 189 175 174
f 189 179 178
f 188 187 189
f 178 177 189
f 189 165 162
f 189 100 95
f 189 150 153
f 189 193 192
f 189 132 101
f 176 175 189
f 153 179 189
f 189 151 150
f 101 100 189
f 189 187 176
f 189 191 190
f 184 193 189
f 189 161 184
