v 0.110066 0.032449 0.038556
v 0.103765 0.032449 0.038556
v 0.110066 0.022597 0.038556
v 0.110066 0.032449 0.011953
v 0.103765 0.029332 0.038556
v 0.101444 0.032449 0.036514
v 0.110066 0.022597 0.037520
v 0.109687 0.022597 0.038556
v 0.102742 0.019336 0.027636
v 0.103918 0.019362 0.027594
v 0.104842 0.019338 0.026678
v 0.106147 0.019494 0.023041
v 0.106183 0.019467 0.020760
v 0.106185 0.019464 0.019697
v 0.110066 0.029217 0.011953
v 0.103764 0.032449 0.007974
v 0.101444 0.029168 0.036514
v 0.092001 0.032449 0.011067
v 0.092001 0.030863 0.019317
v 0.092001 0.030848 0.019377
v 0.110066 0.022630 0.034078
v 0.101323 0.020425 0.029094
v 0.101323 0.019907 0.028267
v 0.103889 0.019266 0.026663
v 0.098593 0.018909 0.014841
v 0.103914 0.018688 0.016320
v 0.105017 0.019276 0.025202
v 0.105095 0.019091 0.016320
v 0.106080 0.019540 0.018709
v 0.106513 0.020119 0.019233
v 0.106446 0.020431 0.017799
v 0.106008 0.019693 0.017799
v 0.104865 0.019237 0.015374
v 0.103764 0.029087 0.007974
v 0.092001 0.032449 0.007974
v 0.092001 0.022596 0.019377
v 0.092001 0.022596 0.015021
v 0.098593 0.019124 0.013632
v 0.099477 0.019111 0.013641
v 0.100957 0.019188 0.013803
v 0.103914 0.019060 0.015117
v 0.102003 0.019353 0.013991
v 0.095607 0.028142 0.007974
v 0.098593 0.019661 0.013189
v 0.098593 0.020146 0.012890
v 0.092001 0.028287 0.007974
v 0.092475 0.022596 0.014464
v 0.092809 0.022596 0.014099
v 0.092818 0.022596 0.014090
v 0.095009 0.028089 0.007974
v 0.092673 0.028224 0.007974
v 0.094093 0.028103 0.007974
f 6 19 20
f 18 19 6
f 28 14 26
f 33 34 15
f 33 28 26
f 32 33 15
f 28 33 32
f 25 23 36
f 36 37 25
f 25 37 38
f 36 23 22
f 22 23 8
f 26 12 27
f 44 46 51
f 38 46 44
f 15 21 30
f 30 21 14
f 14 28 29
f 28 32 29
f 29 30 14
f 49 46 38
f 17 22 8
f 36 22 17
f 23 25 9
f 9 25 26
f 9 3 8
f 8 23 9
f 52 44 51
f 50 44 52
f 34 44 45
f 45 44 50
f 34 33 42
f 31 32 15
f 15 30 31
f 31 29 32
f 30 29 31
f 14 3 13
f 13 3 12
f 26 14 13
f 13 12 26
f 14 21 7
f 7 3 14
f 37 46 47
f 38 37 47
f 5 17 8
f 11 27 12
f 12 3 11
f 26 27 11
f 34 45 43
f 43 45 50
f 34 42 40
f 48 49 38
f 38 47 48
f 46 49 48
f 48 47 46
f 3 9 10
f 10 11 3
f 39 44 34
f 34 40 39
f 38 44 39
f 39 40 26
f 26 25 39
f 39 25 38
f 41 42 33
f 41 40 42
f 41 33 26
f 26 40 41
f 26 11 24
f 11 10 24
f 24 9 26
f 24 10 9
f 4 34 16
f 15 34 4
f 2 35 18
f 1 4 2
f 16 35 2
f 2 4 16
f 18 6 2
f 18 35 46
f 46 19 18
f 36 20 46
f 20 19 46
f 46 37 36
f 17 20 36
f 17 6 20
f 7 4 1
f 15 4 7
f 7 21 15
f 1 3 7
f 1 2 5
f 5 3 1
f 8 3 5
f 5 2 6
f 6 17 5
f 43 35 16
f 51 46 43
f 16 34 43
f 43 52 51
f 43 46 35
f 50 52 43
