v 0.092001 0.010285 0.039737
v 0.092001 0.010285 0.043166
v 0.092001 0.029915 0.036518
v 0.092004 -0.000878 0.036874
v 0.092004 -0.003432 0.037588
v 0.092004 -0.004913 0.038141
v 0.092004 -0.005155 0.038422
v 0.092004 -0.005288 0.038643
v 0.092004 -0.005689 0.039656
v 0.092004 -0.006064 0.042895
v 0.092004 -0.006235 0.044435
v 0.092001 0.031824 0.043861
v 0.092004 -0.006102 0.045923
v 0.092004 -0.005784 0.046715
v 0.092004 -0.005765 0.046752
v 0.092004 -0.004985 0.046882
v 0.092004 -0.004913 0.046886
v 0.092004 -0.003553 0.046958
v 0.092004 -0.002068 0.047010
v 0.092001 0.032449 0.036518
v 0.103766 0.028567 0.036518
v 0.102288 -0.000924 0.036874
v 0.104326 -0.004064 0.037877
v 0.104326 -0.004583 0.038048
v 0.104326 -0.004996 0.038408
v 0.104326 -0.005708 0.039091
v 0.092621 -0.005632 0.039371
v 0.093558 -0.005829 0.040201
v 0.093558 -0.006098 0.041484
v 0.092076 -0.006083 0.042960
v 0.092076 -0.006246 0.044440
v 0.092001 0.032449 0.043880
v 0.092076 -0.006110 0.045920
v 0.092076 -0.005773 0.046757
v 0.098947 -0.003947 0.048128
v 0.092076 -0.004913 0.046901
v 0.098103 -0.000473 0.048294
v 0.093558 0.003967 0.047612
v 0.092004 -0.000583 0.047052
v 0.103766 0.032449 0.036518
v 0.107675 0.010285 0.038092
v 0.104326 -0.000856 0.036874
v 0.103858 -0.000878 0.036874
v 0.104326 -0.005811 0.039993
v 0.103913 -0.005852 0.040004
v 0.103913 -0.006000 0.041484
v 0.093558 -0.006193 0.042960
v 0.102434 -0.005985 0.042960
v 0.093558 -0.006072 0.045920
v 0.093557 0.032449 0.044205
v 0.092004 0.002379 0.047131
v 0.092004 0.003857 0.047163
v 0.092004 0.005330 0.047156
v 0.092004 0.005444 0.047149
v 0.092076 0.005444 0.047187
v 0.093558 0.005444 0.047639
v 0.093558 -0.005818 0.046830
v 0.099930 -0.004201 0.048154
v 0.098384 -0.001954 0.048219
v 0.099399 -0.000473 0.048294
v 0.098396 0.001004 0.048225
v 0.092076 0.003967 0.047193
v 0.092076 0.002485 0.047158
v 0.103766 0.032449 0.043997
v 0.107675 0.022593 0.040162
v 0.104326 -0.005932 0.041491
v 0.107675 0.010285 0.042218
v 0.104326 -0.005932 0.041778
v 0.103930 -0.005894 0.042937
v 0.103443 -0.005784 0.043952
v 0.102337 -0.005776 0.044443
v 0.101779 -0.005678 0.045239
v 0.095037 -0.005769 0.046813
v 0.095037 0.032449 0.044413
v 0.100955 0.032449 0.045114
v 0.099476 0.032449 0.044996
v 0.095401 0.032449 0.044461
v 0.100280 -0.004201 0.048154
v 0.100280 -0.004117 0.048154
v 0.100136 -0.000473 0.048121
v 0.103913 0.003967 0.047056
v 0.099812 0.001004 0.048100
v 0.099071 0.001004 0.048225
v 0.102435 0.032449 0.044731
v 0.104326 0.004595 0.046916
v 0.107675 0.022593 0.042281
v 0.107675 0.021684 0.042280
v 0.104326 0.003031 0.046954
v 0.104326 -0.001200 0.046805
v 0.104326 -0.001515 0.046787
v 0.104326 -0.002034 0.046719
v 0.104326 -0.002481 0.046650
v 0.104326 -0.003432 0.045985
v 0.104326 -0.004920 0.044356
v 0.104326 -0.005511 0.043471
v 0.104326 -0.005769 0.043028
v 0.104326 -0.005856 0.042828
v 0.103227 -0.004216 0.046719
v 0.102765 -0.005504 0.044938
v 0.102337 -0.005159 0.045808
v 0.100844 -0.004572 0.047458
v 0.096108 -0.005701 0.046739
v 0.102434 -0.004409 0.046961
v 0.103517 -0.003432 0.046898
v 0.102434 -0.003432 0.047373
v 0.104008 -0.001806 0.046910
v 0.104326 0.003967 0.046954
v 0.107675 0.022566 0.042281
f 3 4 1
f 41 40 65
f 4 3 21
f 21 40 41
f 41 42 21
f 85 64 84
f 86 64 85
f 75 85 84
f 76 56 75
f 38 18 37
f 37 56 38
f 32 56 50
f 88 67 87
f 4 21 22
f 86 85 107
f 83 75 61
f 61 75 56
f 61 56 37
f 55 56 32
f 32 54 55
f 74 50 56
f 88 87 108
f 8 9 1
f 43 21 42
f 43 22 21
f 83 60 82
f 82 75 83
f 53 54 32
f 32 52 53
f 53 55 54
f 52 55 53
f 77 56 76
f 77 74 56
f 26 6 25
f 6 24 25
f 41 26 25
f 25 24 41
f 23 42 41
f 41 24 23
f 23 43 42
f 22 43 23
f 26 9 27
f 27 8 26
f 9 8 27
f 7 6 26
f 26 8 7
f 1 6 7
f 7 8 1
f 81 82 60
f 81 107 85
f 85 75 81
f 75 82 81
f 80 107 81
f 81 60 80
f 51 52 32
f 32 39 51
f 32 12 19
f 19 39 32
f 19 12 2
f 19 2 18
f 18 38 19
f 38 39 19
f 5 24 6
f 5 23 24
f 22 23 5
f 4 22 5
f 1 4 5
f 5 6 1
f 18 2 17
f 2 16 17
f 35 58 37
f 11 2 1
f 57 78 58
f 60 78 79
f 80 60 79
f 79 107 80
f 52 51 62
f 62 38 56
f 56 55 62
f 62 55 52
f 63 39 38
f 63 51 39
f 38 62 63
f 63 62 51
f 59 35 37
f 28 9 26
f 26 29 28
f 28 29 9
f 9 29 30
f 30 29 31
f 31 11 30
f 31 46 48
f 44 26 41
f 67 95 96
f 45 29 26
f 45 46 29
f 26 44 45
f 45 44 46
f 31 29 47
f 47 46 31
f 29 46 47
f 1 9 10
f 10 11 1
f 9 30 10
f 10 30 11
f 102 72 101
f 101 78 102
f 31 48 49
f 88 78 106
f 103 78 101
f 103 98 78
f 92 98 93
f 67 92 93
f 78 98 104
f 104 98 92
f 16 35 36
f 35 59 36
f 36 59 37
f 36 17 16
f 37 18 36
f 18 17 36
f 98 103 100
f 101 72 100
f 100 103 101
f 98 100 99
f 99 100 72
f 69 48 46
f 46 44 66
f 66 44 41
f 72 49 71
f 72 102 73
f 73 49 72
f 57 49 73
f 78 57 73
f 73 102 78
f 33 49 57
f 31 49 33
f 34 57 58
f 58 35 34
f 34 33 57
f 14 33 34
f 94 95 67
f 67 93 94
f 94 98 95
f 94 93 98
f 105 106 78
f 78 104 105
f 105 104 106
f 67 96 97
f 48 69 70
f 70 49 48
f 70 71 49
f 72 71 70
f 69 97 70
f 70 99 72
f 70 97 96
f 70 96 95
f 95 98 70
f 98 99 70
f 13 33 14
f 2 11 13
f 13 14 2
f 13 11 31
f 31 33 13
f 15 35 16
f 15 34 35
f 14 34 15
f 15 16 2
f 2 14 15
f 91 90 106
f 91 104 92
f 106 104 91
f 91 92 67
f 67 90 91
f 89 67 88
f 89 90 67
f 88 106 89
f 106 90 89
f 68 69 46
f 68 97 69
f 46 66 68
f 67 97 68
f 40 64 65
f 65 64 86
f 20 40 21
f 21 3 20
f 12 32 20
f 12 3 1
f 20 3 12
f 1 2 12
f 61 60 83
f 37 60 61
f 108 65 86
f 41 65 108
f 108 67 41
f 108 87 67
f 108 107 88
f 86 107 108
f 77 40 20
f 20 32 77
f 84 64 77
f 77 75 84
f 77 64 40
f 76 75 77
f 32 50 77
f 50 74 77
f 78 60 37
f 37 58 78
f 88 107 79
f 79 78 88
f 41 67 68
f 68 66 41
