v 0.051856 -0.003987 0.036329
v 0.061656 -0.003437 0.035588
v 0.061656 -0.002720 0.035575
v 0.061656 -0.001243 0.035542
v 0.061656 0.003088 0.035430
v 0.061656 0.003952 0.035399
v 0.061656 0.005441 0.035225
v 0.051328 -0.003987 0.036329
v 0.051856 -0.004431 0.036329
v 0.061656 -0.004917 0.035505
v 0.061657 -0.015088 0.021512
v 0.061657 0.013553 0.021512
v 0.052113 0.005441 0.035007
v 0.052113 0.002481 0.035435
v 0.053592 -0.000479 0.035890
v 0.061656 0.006919 0.034996
v 0.057750 0.007596 0.034809
v 0.051012 -0.004923 0.035682
v 0.051328 -0.004431 0.036329
v 0.051330 0.006232 0.034840
v 0.051226 0.005441 0.034905
v 0.051088 0.003961 0.035014
v 0.050995 0.002481 0.035118
v 0.050950 0.001001 0.035212
v 0.052255 -0.004923 0.036248
v 0.053592 -0.004917 0.036149
v 0.061656 -0.006394 0.035318
v 0.061656 -0.007463 0.035129
v 0.061656 -0.007845 0.034898
v 0.061656 -0.009180 0.033898
v 0.061656 -0.010648 0.032420
v 0.061656 -0.013558 0.029410
v 0.061656 -0.013925 0.028919
v 0.061656 -0.014914 0.027397
v 0.061656 -0.015038 0.026719
v 0.061656 -0.015103 0.025927
v 0.061656 -0.015121 0.025200
v 0.061656 -0.015162 0.022242
v 0.051548 -0.016053 0.018484
v 0.061657 -0.015068 0.021325
v 0.061657 0.013431 0.014783
v 0.061656 0.013567 0.022242
v 0.061656 0.013455 0.023720
v 0.061656 0.013200 0.025200
v 0.061656 0.012928 0.026680
v 0.061656 0.012561 0.028270
v 0.061656 0.011270 0.031934
v 0.061656 0.010657 0.033389
v 0.061656 0.010415 0.033578
v 0.061656 0.009932 0.033952
v 0.061656 0.008553 0.034711
v 0.061656 0.008144 0.034794
v 0.056550 0.007511 0.034794
v 0.052113 0.006294 0.034861
v 0.060992 0.007807 0.034843
v 0.060992 0.008550 0.034698
v 0.051092 -0.006113 0.035272
v 0.050702 -0.003437 0.034079
v 0.050749 -0.004917 0.034079
v 0.050965 -0.006521 0.034207
v 0.052192 -0.006521 0.035365
v 0.055073 0.007342 0.034744
v 0.052113 0.007031 0.034503
v 0.052113 0.008200 0.033763
v 0.051117 0.007961 0.033576
v 0.051027 0.006800 0.034074
v 0.050576 0.006919 0.032599
v 0.053592 -0.006394 0.035492
v 0.051751 -0.007101 0.034786
v 0.051595 -0.010074 0.031838
v 0.051540 -0.011560 0.030363
v 0.051335 -0.014558 0.024512
v 0.052114 -0.014615 0.024644
v 0.051344 -0.016033 0.020073
v 0.052114 -0.012797 0.028371
v 0.052114 -0.013629 0.026680
v 0.051632 -0.016033 0.020073
v 0.051699 -0.016059 0.019279
v 0.055949 -0.011136 0.009797
v 0.056573 -0.011110 0.009797
v 0.061657 -0.014982 0.020621
v 0.051319 -0.016053 0.018484
v 0.061657 0.013177 0.013362
v 0.060992 0.013215 0.013362
v 0.058927 0.013603 0.015479
v 0.053593 0.014047 0.019279
v 0.052113 0.014183 0.020759
v 0.052113 0.014139 0.021515
v 0.052113 0.014094 0.022242
v 0.052113 0.013766 0.026680
v 0.052082 0.013656 0.028122
v 0.054340 0.013582 0.027426
v 0.051568 0.013612 0.028950
v 0.060992 0.010654 0.033381
v 0.060992 0.009882 0.034002
v 0.051303 0.013612 0.028950
v 0.050855 -0.010974 0.029779
v 0.051080 -0.009088 0.032326
v 0.050401 0.008399 0.031119
v 0.050583 -0.010831 0.028161
v 0.055073 0.008399 0.034121
v 0.053640 0.008502 0.033804
v 0.058032 0.009633 0.033726
v 0.058032 0.010376 0.033145
v 0.052117 0.011246 0.031363
v 0.051623 0.010560 0.031812
v 0.051282 0.012176 0.030436
v 0.051043 0.011359 0.030758
v 0.051057 0.009574 0.032202
v 0.050834 0.008431 0.032656
v 0.051086 -0.011859 0.029376
v 0.051321 -0.013090 0.027491
v 0.051085 -0.010574 0.030849
v 0.051180 -0.014701 0.023720
v 0.051135 -0.013286 0.026680
v 0.051026 -0.015109 0.021512
v 0.051049 -0.015325 0.020645
v 0.050924 -0.015278 0.019279
v 0.051311 -0.016059 0.019279
v 0.051008 -0.014929 0.022242
v 0.055060 -0.011125 0.009797
v 0.061657 -0.009351 0.009797
v 0.061657 -0.010583 0.012014
v 0.061657 -0.012110 0.014804
v 0.061657 -0.013632 0.017694
v 0.051107 -0.015198 0.017915
v 0.050484 -0.009357 0.009797
v 0.051055 -0.010239 0.009797
v 0.051631 -0.010381 0.009797
v 0.054434 -0.011006 0.009797
v 0.061086 0.012513 0.011747
v 0.061657 0.012487 0.011916
v 0.058301 0.013603 0.015479
v 0.059511 0.012587 0.011882
v 0.059511 0.013171 0.013362
v 0.052113 0.014059 0.019279
v 0.051035 0.013914 0.020759
v 0.051032 0.013902 0.021515
v 0.051028 0.013890 0.022242
v 0.051052 0.013834 0.023720
v 0.051091 0.013778 0.025200
v 0.051145 0.013715 0.026680
v 0.051224 0.013656 0.028161
v 0.060214 0.010628 0.033344
v 0.053592 0.012389 0.030669
v 0.059637 0.009962 0.033760
v 0.050717 0.012842 0.028161
v 0.051063 0.012735 0.029522
v 0.052113 0.012288 0.030534
v 0.051031 -0.012338 0.028054
v 0.050517 0.011359 0.029638
v 0.050356 0.009882 0.029638
v 0.050293 -0.007877 0.009797
v 0.050636 -0.013795 0.019279
v 0.050759 -0.013795 0.022242
v 0.059226 0.010515 0.033254
v 0.053592 0.011531 0.031410
v 0.055073 0.010968 0.032129
v 0.050676 -0.013795 0.017798
v 0.061657 0.009509 0.009797
v 0.050348 -0.008478 0.009797
v 0.061642 0.012078 0.011160
v 0.060656 0.012155 0.011041
v 0.059511 0.012158 0.011035
v 0.061657 0.012075 0.011165
v 0.057313 0.013582 0.015591
v 0.052113 0.011504 0.009797
v 0.055448 0.012135 0.011090
v 0.055073 0.013683 0.016700
v 0.053463 0.013786 0.017658
v 0.052113 0.013745 0.017946
v 0.051269 0.013668 0.018232
v 0.051133 0.013810 0.019279
v 0.050830 0.010572 0.009797
v 0.050806 0.012842 0.019279
v 0.050698 0.012842 0.023720
v 0.050696 0.012842 0.025200
v 0.050701 0.012842 0.026680
v 0.050377 0.011359 0.028161
v 0.050679 0.009882 0.009797
v 0.060612 0.011007 0.009797
v 0.061657 0.009873 0.009903
v 0.059457 0.011389 0.009797
v 0.061657 0.011297 0.010620
v 0.051350 0.012120 0.012552
v 0.052884 0.013579 0.017071
v 0.053870 0.013627 0.016905
v 0.051001 0.011042 0.009797
v 0.061657 0.010711 0.010261
f 34 73 74
f 179 180 153
f 153 152 179
f 87 41 86
f 153 154 100
f 58 99 100
f 100 152 153
f 100 99 152
f 11 2 10
f 75 34 71
f 124 125 80
f 11 38 39
f 151 179 152
f 152 99 151
f 180 179 175
f 188 172 185
f 188 185 167
f 172 171 167
f 167 185 172
f 155 100 154
f 89 143 96
f 93 89 96
f 90 89 93
f 93 96 48
f 93 43 92
f 42 41 87
f 90 43 42
f 42 89 90
f 41 42 12
f 12 42 43
f 12 2 11
f 6 12 7
f 1 6 7
f 5 6 1
f 1 4 5
f 5 12 6
f 4 12 5
f 1 2 3
f 3 4 1
f 2 12 3
f 3 12 4
f 28 25 68
f 68 25 61
f 27 25 28
f 27 28 11
f 11 10 27
f 9 10 2
f 9 2 1
f 61 30 29
f 28 68 29
f 29 68 61
f 11 28 29
f 29 30 11
f 69 30 61
f 61 57 69
f 61 25 19
f 19 57 61
f 25 9 19
f 58 100 59
f 37 38 11
f 11 36 37
f 11 34 35
f 35 36 11
f 35 34 74
f 34 75 76
f 127 159 161
f 161 154 153
f 161 159 154
f 123 80 122
f 123 124 80
f 80 125 81
f 81 39 80
f 80 39 79
f 126 159 127
f 142 143 87
f 87 141 142
f 180 175 174
f 173 172 188
f 188 174 173
f 186 171 187
f 187 167 186
f 186 167 171
f 187 171 169
f 169 167 187
f 135 133 84
f 167 169 135
f 85 86 41
f 41 84 85
f 84 133 85
f 83 84 41
f 182 160 181
f 183 167 163
f 74 73 72
f 73 34 72
f 34 76 72
f 72 76 75
f 100 155 120
f 67 99 58
f 58 24 67
f 108 151 110
f 110 67 66
f 110 151 99
f 99 67 110
f 14 7 13
f 148 151 108
f 108 107 148
f 148 107 96
f 87 143 88
f 143 89 88
f 88 42 87
f 89 42 88
f 91 93 92
f 90 93 91
f 92 43 91
f 91 43 90
f 47 93 48
f 46 93 47
f 48 12 47
f 47 12 46
f 45 93 46
f 46 12 45
f 51 12 50
f 16 7 12
f 15 7 14
f 10 9 26
f 26 9 25
f 26 27 10
f 25 27 26
f 71 30 70
f 30 69 70
f 70 57 71
f 70 69 57
f 71 34 33
f 33 32 71
f 33 34 11
f 11 32 33
f 31 30 71
f 71 32 31
f 11 30 31
f 31 32 11
f 57 19 18
f 58 59 18
f 18 24 58
f 60 97 57
f 57 18 60
f 60 18 59
f 60 59 100
f 100 97 60
f 78 39 38
f 38 37 78
f 78 37 36
f 11 39 40
f 39 81 40
f 127 128 82
f 82 126 127
f 82 128 129
f 129 130 82
f 82 130 121
f 121 79 82
f 82 79 39
f 137 174 175
f 137 173 174
f 176 175 179
f 179 177 176
f 176 137 175
f 177 137 176
f 179 151 147
f 143 142 147
f 96 143 147
f 147 142 141
f 147 148 96
f 151 148 147
f 86 85 136
f 136 85 133
f 87 86 136
f 136 171 172
f 172 173 136
f 136 137 87
f 173 137 136
f 133 135 166
f 166 135 169
f 166 136 133
f 169 136 166
f 182 181 189
f 162 181 183
f 165 181 162
f 183 163 162
f 134 135 84
f 115 72 112
f 112 75 71
f 112 72 75
f 116 117 74
f 74 120 116
f 114 72 115
f 115 120 114
f 74 72 114
f 114 120 74
f 150 120 115
f 150 97 100
f 100 120 150
f 22 66 23
f 66 67 23
f 23 67 24
f 65 110 66
f 66 20 65
f 65 107 108
f 21 66 22
f 21 20 66
f 17 16 55
f 17 13 7
f 7 16 17
f 20 21 8
f 8 15 14
f 14 13 8
f 13 20 8
f 8 21 22
f 1 7 8
f 7 15 8
f 22 23 8
f 8 23 24
f 24 18 8
f 8 18 19
f 44 12 43
f 44 45 12
f 43 93 44
f 93 45 44
f 49 12 48
f 49 50 12
f 55 16 52
f 52 17 55
f 52 12 51
f 52 16 12
f 71 113 111
f 111 113 97
f 97 150 111
f 111 112 71
f 115 112 111
f 111 150 115
f 57 97 98
f 97 113 98
f 71 57 98
f 98 113 71
f 77 78 36
f 77 35 74
f 36 35 77
f 159 126 118
f 126 82 118
f 154 159 118
f 117 116 118
f 82 119 118
f 118 116 120
f 118 119 74
f 74 117 118
f 118 155 154
f 118 120 155
f 178 177 179
f 179 147 178
f 140 147 141
f 140 141 87
f 170 169 171
f 171 136 170
f 170 136 169
f 184 181 165
f 184 189 181
f 165 162 132
f 131 134 84
f 84 83 131
f 83 132 131
f 131 162 163
f 131 132 162
f 164 163 167
f 167 134 164
f 164 131 163
f 134 131 164
f 167 135 168
f 168 134 167
f 135 134 168
f 108 110 109
f 109 65 108
f 110 65 109
f 51 50 95
f 50 49 95
f 95 49 48
f 54 20 13
f 64 20 63
f 64 65 20
f 139 178 147
f 147 140 139
f 177 178 139
f 139 140 87
f 63 20 62
f 94 95 48
f 144 95 94
f 48 96 94
f 96 145 94
f 145 144 94
f 149 144 145
f 96 107 149
f 149 145 96
f 146 95 144
f 138 137 177
f 177 139 138
f 87 137 138
f 138 139 87
f 56 52 51
f 17 52 56
f 51 95 56
f 95 62 56
f 101 64 63
f 63 62 101
f 101 62 95
f 95 146 101
f 17 56 53
f 53 56 62
f 53 62 20
f 20 54 53
f 13 17 53
f 53 54 13
f 64 104 105
f 144 149 156
f 103 104 64
f 103 156 104
f 103 146 144
f 144 156 103
f 64 101 102
f 102 101 146
f 102 103 64
f 146 103 102
f 149 105 157
f 157 156 149
f 104 156 157
f 106 149 107
f 106 105 149
f 64 105 106
f 107 65 106
f 65 64 106
f 158 105 104
f 104 157 158
f 158 157 105
f 153 180 181
f 122 80 181
f 129 128 181
f 188 167 181
f 181 130 129
f 181 160 122
f 181 174 188
f 80 79 181
f 181 161 153
f 181 128 127
f 181 167 183
f 127 161 181
f 181 79 121
f 121 130 181
f 180 174 181
f 8 19 9
f 8 9 1
f 78 77 119
f 119 77 74
f 39 78 119
f 119 82 39
f 11 40 132
f 132 160 182
f 132 12 11
f 122 160 132
f 132 123 122
f 125 124 132
f 132 83 41
f 41 12 132
f 124 123 132
f 132 81 125
f 132 184 165
f 132 40 81
f 182 189 132
f 189 184 132
