v 0.095038 0.018760 0.028159
v 0.096516 0.018930 0.028159
v 0.096516 0.019078 0.029213
v 0.095038 0.019176 0.029104
v 0.093974 0.019140 0.028159
v 0.092376 0.019116 0.025200
v 0.090851 0.019207 0.022240
v 0.090718 0.019187 0.020761
v 0.092076 0.018954 0.019281
v 0.093557 0.018833 0.017801
v 0.093557 0.018836 0.016321
v 0.095036 0.018782 0.016321
v 0.096515 0.018774 0.014842
v 0.097995 0.018851 0.014842
v 0.098591 0.018910 0.014842
v 0.100224 0.019505 0.028899
v 0.099475 0.019413 0.028996
v 0.097995 0.019246 0.029137
v 0.101439 0.028284 0.034639
v 0.094606 0.029892 0.036515
v 0.092003 0.029913 0.036515
v 0.094245 0.019413 0.028939
v 0.092933 0.019661 0.027238
v 0.092649 0.019294 0.026253
v 0.091126 0.019297 0.023367
v 0.090101 0.020179 0.022231
v 0.089979 0.019852 0.020761
v 0.090907 0.019192 0.019281
v 0.092002 0.018969 0.019281
v 0.092347 0.019190 0.016321
v 0.093432 0.019119 0.014724
v 0.095036 0.018811 0.014842
v 0.095036 0.019166 0.013694
v 0.096515 0.019148 0.013654
v 0.097995 0.019129 0.013626
v 0.098591 0.019123 0.013631
v 0.101320 0.019908 0.028270
v 0.100224 0.019505 0.028895
v 0.101320 0.020424 0.029097
v 0.100812 0.020211 0.029161
v 0.094606 0.032448 0.036515
v 0.101439 0.022598 0.029731
v 0.101439 0.028284 0.026453
v 0.091326 0.022450 0.027429
v 0.092002 0.020662 0.026703
v 0.092300 0.020192 0.026720
v 0.092003 0.032448 0.036515
v 0.088787 0.027422 0.023649
v 0.089805 0.022243 0.023143
v 0.089923 0.021257 0.022716
v 0.091412 0.019597 0.024354
v 0.090816 0.020153 0.023803
v 0.089803 0.020627 0.021731
v 0.091104 0.020585 0.024924
v 0.089790 0.020591 0.020761
v 0.089821 0.020819 0.019929
v 0.090204 0.020294 0.019373
v 0.091151 0.019324 0.018152
v 0.092608 0.019312 0.015136
v 0.093842 0.019286 0.013847
v 0.095036 0.020246 0.013115
v 0.096486 0.020300 0.012884
v 0.097995 0.020028 0.012886
v 0.098591 0.019660 0.013190
v 0.101439 0.023567 0.024132
v 0.101439 0.022598 0.025066
v 0.101320 0.020398 0.026941
v 0.094606 0.032448 0.025160
v 0.101439 0.024887 0.024283
v 0.098591 0.022597 0.012485
v 0.091350 0.021013 0.025914
v 0.091558 0.021363 0.026677
v 0.092003 0.032448 0.023466
v 0.088755 0.027422 0.023331
v 0.089635 0.021727 0.020761
v 0.088778 0.027422 0.022337
v 0.088791 0.027422 0.022019
v 0.089742 0.021727 0.019684
v 0.089904 0.022731 0.018678
v 0.090015 0.021727 0.018944
v 0.090504 0.021727 0.017801
v 0.090971 0.020197 0.017716
v 0.091412 0.019672 0.017165
v 0.092857 0.019767 0.014149
v 0.093432 0.020255 0.013739
v 0.095036 0.021726 0.012905
v 0.096962 0.020830 0.012551
v 0.097995 0.020768 0.012528
v 0.098591 0.020820 0.012551
v 0.098591 0.020145 0.012888
v 0.101439 0.024470 0.024052
v 0.092003 0.030850 0.019378
v 0.093147 0.032448 0.024083
v 0.098591 0.021744 0.012502
v 0.097995 0.021726 0.012464
v 0.097995 0.022597 0.012448
v 0.092002 0.027422 0.015278
v 0.092018 0.032448 0.023466
v 0.089139 0.027422 0.020761
v 0.089522 0.024685 0.019281
v 0.089665 0.023216 0.019215
v 0.089816 0.023716 0.018428
v 0.090129 0.023216 0.017881
v 0.091087 0.021727 0.016583
v 0.091241 0.020658 0.016861
v 0.091635 0.020197 0.016350
v 0.092793 0.020753 0.014078
v 0.091468 0.021727 0.015845
v 0.090902 0.023204 0.016413
v 0.091407 0.023204 0.015673
v 0.093557 0.021726 0.013569
v 0.095109 0.022597 0.012841
v 0.095907 0.022597 0.012648
v 0.096004 0.021726 0.012674
v 0.096744 0.021726 0.012511
v 0.098591 0.021173 0.012530
v 0.091400 0.027422 0.016001
v 0.089655 0.027422 0.019302
v 0.089202 0.027422 0.020560
v 0.092173 0.032448 0.023477
v 0.096569 0.022597 0.012537
v 0.096071 0.022597 0.012613
v 0.093470 0.022597 0.013626
v 0.092813 0.022592 0.014095
v 0.092002 0.023157 0.015009
v 0.089819 0.024685 0.018447
v 0.090219 0.024685 0.017707
v 0.092797 0.021726 0.014078
v 0.089847 0.025450 0.018527
v 0.092475 0.022597 0.014465
f 19 41 20
f 19 39 42
f 42 39 37
f 47 48 21
f 47 73 74
f 74 48 47
f 3 4 1
f 3 20 21
f 21 4 3
f 19 20 3
f 2 3 1
f 15 36 37
f 15 2 1
f 40 39 19
f 96 97 70
f 97 92 70
f 68 92 93
f 43 70 68
f 68 70 92
f 93 92 120
f 21 48 49
f 18 2 17
f 3 2 18
f 18 17 19
f 19 3 18
f 17 2 16
f 2 15 16
f 37 39 16
f 39 40 16
f 19 17 16
f 16 40 19
f 36 15 14
f 14 15 1
f 98 92 73
f 98 120 92
f 97 110 117
f 117 92 97
f 117 118 92
f 121 97 96
f 97 112 123
f 104 103 108
f 27 7 26
f 1 4 5
f 21 26 44
f 44 45 21
f 53 49 48
f 53 27 26
f 53 48 74
f 37 36 67
f 66 42 37
f 37 67 66
f 36 65 66
f 66 67 36
f 94 70 91
f 65 89 91
f 84 110 107
f 104 108 84
f 87 62 61
f 38 15 37
f 37 16 38
f 38 16 15
f 92 118 119
f 118 126 119
f 74 73 76
f 73 77 76
f 100 126 102
f 100 119 126
f 97 121 122
f 107 123 111
f 111 123 112
f 125 110 97
f 97 123 124
f 124 125 97
f 130 125 124
f 81 103 104
f 7 27 8
f 1 7 8
f 8 9 1
f 57 83 58
f 58 27 57
f 6 7 1
f 1 5 6
f 54 44 26
f 21 23 22
f 22 23 5
f 22 4 21
f 22 5 4
f 21 49 50
f 49 53 50
f 50 26 21
f 50 53 26
f 96 70 95
f 95 70 94
f 69 70 43
f 69 91 70
f 94 91 116
f 116 91 89
f 116 95 94
f 89 95 116
f 63 62 87
f 36 35 63
f 106 84 83
f 87 61 86
f 86 111 112
f 12 32 13
f 1 12 13
f 13 14 1
f 36 14 13
f 13 35 36
f 11 32 12
f 11 12 1
f 33 32 60
f 33 13 32
f 62 63 33
f 60 61 33
f 33 61 62
f 118 117 129
f 129 126 118
f 109 117 110
f 109 103 102
f 109 108 103
f 110 84 109
f 109 84 108
f 92 119 99
f 73 92 99
f 99 77 73
f 99 100 77
f 119 100 99
f 113 112 97
f 97 122 113
f 113 86 112
f 115 122 121
f 115 95 87
f 115 113 122
f 115 121 96
f 96 95 115
f 130 124 128
f 107 110 128
f 128 123 107
f 128 124 123
f 110 125 128
f 128 125 130
f 28 27 58
f 28 8 27
f 101 100 102
f 77 100 101
f 81 57 56
f 56 57 27
f 75 77 56
f 7 6 25
f 26 7 25
f 44 54 71
f 88 63 87
f 89 63 88
f 87 95 88
f 88 95 89
f 36 63 64
f 64 65 36
f 82 106 83
f 83 57 82
f 82 57 81
f 111 86 85
f 85 84 107
f 107 111 85
f 85 86 61
f 60 84 85
f 85 61 60
f 1 9 10
f 10 11 1
f 9 11 10
f 59 84 60
f 59 28 58
f 58 83 59
f 83 84 59
f 34 63 35
f 34 33 63
f 35 13 34
f 13 33 34
f 117 109 127
f 127 129 117
f 126 129 127
f 102 126 127
f 127 109 102
f 86 113 114
f 113 115 114
f 87 86 114
f 114 115 87
f 9 8 29
f 8 28 29
f 29 11 9
f 29 28 11
f 103 81 80
f 81 56 80
f 78 101 102
f 77 101 78
f 78 56 77
f 27 53 55
f 55 56 27
f 75 56 55
f 55 53 74
f 74 76 55
f 55 77 75
f 55 76 77
f 24 6 5
f 24 25 6
f 5 23 24
f 52 54 26
f 26 25 52
f 45 44 72
f 72 71 45
f 44 71 72
f 90 63 89
f 90 64 63
f 90 89 65
f 65 64 90
f 106 82 105
f 104 84 105
f 84 106 105
f 105 81 104
f 105 82 81
f 31 59 60
f 60 32 31
f 32 11 31
f 102 103 79
f 103 80 79
f 79 80 56
f 79 78 102
f 56 78 79
f 25 24 51
f 54 52 51
f 51 52 25
f 51 71 54
f 51 24 23
f 28 59 30
f 59 31 30
f 11 28 30
f 30 31 11
f 45 71 46
f 71 51 46
f 46 51 23
f 21 45 46
f 46 23 21
f 47 20 41
f 21 20 47
f 19 43 68
f 68 41 19
f 98 47 41
f 98 68 93
f 73 47 98
f 41 68 98
f 93 120 98
f 69 43 19
f 19 42 69
f 42 66 69
f 69 66 65
f 65 91 69
