v 0.084676 -0.006430 0.039999
v 0.083196 -0.006423 0.039999
v 0.082400 -0.006425 0.039206
v 0.082400 -0.006428 0.038521
v 0.082400 -0.006428 0.037728
v 0.082400 -0.006405 0.037041
v 0.086156 -0.006381 0.039999
v 0.092000 -0.006239 0.044435
v 0.084676 -0.006418 0.041480
v 0.082400 -0.006082 0.040699
v 0.082400 -0.006324 0.034767
v 0.086156 -0.006280 0.037041
v 0.086156 -0.006331 0.042960
v 0.087634 -0.006239 0.038521
v 0.087634 -0.006112 0.037041
v 0.092000 -0.006066 0.042893
v 0.092000 -0.006107 0.045924
v 0.084680 -0.006068 0.042963
v 0.082400 -0.005916 0.041099
v 0.083683 -0.005868 0.042470
v 0.082400 -0.006299 0.034080
v 0.083196 -0.006271 0.034080
v 0.089114 -0.005969 0.045506
v 0.086156 -0.005985 0.044088
v 0.086156 -0.006103 0.035561
v 0.082400 -0.005698 0.028770
v 0.091631 -0.005679 0.039055
v 0.092000 -0.005693 0.039652
v 0.092000 -0.005787 0.046714
v 0.090692 -0.005988 0.045960
v 0.085176 -0.005859 0.043873
v 0.082400 -0.005585 0.041404
v 0.082696 -0.005173 0.041985
v 0.082400 -0.006246 0.033289
v 0.088099 -0.005813 0.045301
v 0.091251 -0.005702 0.046688
v 0.082400 -0.000519 0.020681
v 0.084804 -0.000975 0.020681
v 0.086116 -0.001157 0.020681
v 0.087633 -0.001150 0.020681
v 0.089115 -0.001140 0.020681
v 0.090594 -0.001124 0.020681
v 0.092000 -0.001092 0.020681
v 0.092000 -0.005769 0.046751
v 0.087956 -0.004917 0.045366
v 0.086156 -0.004917 0.044487
v 0.085075 -0.004917 0.043930
v 0.082452 -0.004185 0.042224
v 0.082400 -0.005011 0.041775
v 0.082400 -0.004226 0.042154
v 0.090429 -0.004917 0.046414
v 0.089114 -0.004917 0.045859
v 0.092000 -0.004988 0.046883
v 0.092000 -0.004917 0.046888
v 0.091169 -0.004917 0.046722
v 0.082400 0.005927 0.020681
v 0.092000 0.005287 0.020681
v 0.087949 -0.003436 0.045369
v 0.087209 -0.003436 0.045034
v 0.090370 -0.003436 0.046439
v 0.091085 -0.001956 0.046769
v 0.090345 -0.001956 0.046442
v 0.091066 0.001003 0.046779
v 0.087240 -0.001956 0.044993
v 0.085152 -0.003436 0.043865
v 0.084413 -0.003436 0.043403
v 0.082452 -0.004134 0.042224
v 0.082400 -0.004086 0.042180
v 0.091109 -0.003436 0.046751
v 0.092000 -0.003558 0.046958
v 0.092000 -0.002071 0.047010
v 0.092000 -0.000588 0.047054
v 0.085012 0.007932 0.022543
v 0.086157 0.007350 0.021770
v 0.086157 0.006284 0.020681
v 0.082400 0.017095 0.034583
v 0.087728 0.006065 0.020681
v 0.086157 0.007969 0.022509
v 0.092000 0.017095 0.041609
v 0.090326 0.001003 0.046447
v 0.091071 0.002484 0.046784
v 0.091106 0.003965 0.046782
v 0.092000 0.003854 0.047165
v 0.091190 0.005441 0.046748
v 0.088170 0.001003 0.045306
v 0.082400 -0.001956 0.042001
v 0.089002 0.003887 0.045542
v 0.083084 -0.003558 0.042576
v 0.082515 -0.003146 0.042182
v 0.092000 0.002376 0.047132
v 0.082400 0.017095 0.038519
v 0.092000 0.017095 0.043167
v 0.092000 0.005333 0.047158
v 0.091278 0.006330 0.046696
v 0.088435 0.004324 0.045143
v 0.092000 0.005441 0.047150
v 0.082400 -0.000475 0.041853
v 0.082400 0.002484 0.041461
v 0.082869 0.017095 0.038926
v 0.090594 0.017095 0.042913
v 0.092000 0.006841 0.046968
v 0.088559 0.005441 0.045058
v 0.086156 0.017095 0.041472
v 0.086032 0.017095 0.041399
v 0.083733 0.002484 0.042348
v 0.082400 0.001876 0.041568
v 0.082400 0.001020 0.041690
v 0.082841 0.001003 0.041975
v 0.082400 0.000425 0.041760
v 0.083581 0.001003 0.042442
v 0.085253 0.017095 0.040876
v 0.089114 0.017095 0.042540
v 0.088149 0.017095 0.042281
v 0.087410 0.017095 0.042076
v 0.087238 0.017095 0.042006
v 0.082993 0.002484 0.041863
f 76 57 78
f 26 22 34
f 73 56 76
f 76 78 73
f 79 57 76
f 17 13 8
f 8 7 12
f 22 15 12
f 8 13 9
f 25 22 26
f 26 15 25
f 25 15 22
f 38 26 37
f 38 39 26
f 42 43 26
f 74 78 57
f 74 73 78
f 74 75 56
f 56 73 74
f 99 91 98
f 98 111 99
f 94 102 95
f 13 17 23
f 23 36 35
f 96 101 94
f 21 34 22
f 22 12 21
f 14 15 8
f 8 12 14
f 14 12 15
f 1 7 8
f 8 9 1
f 8 15 16
f 15 28 16
f 43 28 27
f 26 43 27
f 27 15 26
f 27 28 15
f 41 42 26
f 77 74 57
f 75 74 77
f 68 50 48
f 108 95 107
f 82 64 59
f 59 81 82
f 82 81 93
f 51 52 36
f 69 60 51
f 51 60 52
f 59 46 45
f 52 60 45
f 35 36 45
f 36 52 45
f 97 95 110
f 105 95 102
f 30 17 29
f 30 23 17
f 29 36 30
f 36 23 30
f 93 81 83
f 69 51 55
f 55 51 36
f 6 12 7
f 7 1 6
f 6 1 5
f 4 1 3
f 5 1 4
f 2 9 3
f 3 1 2
f 2 1 9
f 31 23 35
f 35 45 31
f 31 45 46
f 26 39 40
f 40 41 26
f 101 92 100
f 94 101 103
f 108 107 109
f 97 110 109
f 109 95 108
f 109 110 95
f 106 111 98
f 106 116 111
f 102 116 106
f 106 105 102
f 106 107 95
f 95 105 106
f 89 66 86
f 66 65 86
f 64 82 84
f 84 96 94
f 94 95 84
f 93 96 84
f 84 82 93
f 88 66 89
f 59 45 58
f 63 58 45
f 63 83 81
f 69 55 72
f 44 36 29
f 44 53 36
f 70 55 54
f 36 53 54
f 54 55 36
f 11 21 12
f 12 6 11
f 20 31 33
f 48 50 33
f 33 31 48
f 3 9 10
f 20 19 10
f 13 23 24
f 23 31 24
f 48 31 47
f 47 31 46
f 47 65 66
f 47 46 59
f 59 64 47
f 64 65 47
f 101 100 112
f 101 114 115
f 115 103 101
f 104 102 94
f 94 103 104
f 111 116 104
f 104 116 102
f 67 86 68
f 89 86 67
f 67 68 48
f 67 88 89
f 48 47 67
f 66 88 67
f 67 47 66
f 97 86 87
f 87 95 97
f 87 86 65
f 87 84 95
f 61 45 60
f 61 60 69
f 69 83 61
f 83 63 61
f 80 63 81
f 58 63 80
f 80 81 59
f 59 58 80
f 90 83 69
f 69 72 90
f 71 55 70
f 71 72 55
f 49 33 50
f 18 10 9
f 18 9 13
f 18 31 20
f 20 10 18
f 13 24 18
f 18 24 31
f 113 114 101
f 101 112 113
f 85 87 65
f 84 87 85
f 85 65 64
f 64 84 85
f 62 63 45
f 45 61 62
f 62 61 63
f 33 49 32
f 32 19 20
f 20 33 32
f 37 56 40
f 57 43 40
f 40 77 57
f 40 38 37
f 56 75 40
f 39 38 40
f 43 42 40
f 42 41 40
f 75 77 40
f 57 79 71
f 71 92 101
f 71 43 57
f 71 17 8
f 93 83 71
f 29 17 71
f 101 96 71
f 71 28 43
f 79 92 71
f 71 96 93
f 8 16 71
f 71 16 28
f 83 90 71
f 71 44 29
f 70 54 71
f 53 44 71
f 71 54 53
f 71 90 72
f 76 91 113
f 113 79 76
f 113 99 111
f 91 99 113
f 113 92 79
f 113 100 92
f 113 115 114
f 111 104 113
f 113 112 100
f 103 115 113
f 113 104 103
f 32 91 76
f 76 56 32
f 37 26 32
f 32 56 37
f 32 4 3
f 26 34 32
f 98 91 32
f 32 6 5
f 50 68 32
f 34 21 32
f 97 109 32
f 32 106 98
f 21 11 32
f 32 86 97
f 5 4 32
f 3 10 32
f 32 109 107
f 107 106 32
f 68 86 32
f 32 11 6
f 32 10 19
f 32 49 50
