v 0.097998 -0.004178 0.031278
v 0.098740 -0.004178 0.031495
v 0.097998 -0.004178 0.031874
v 0.097155 -0.004176 0.031445
v 0.097998 -0.004173 0.030538
v 0.098740 -0.004178 0.031865
v 0.104008 -0.001023 0.006388
v 0.104008 -0.001860 0.016294
v 0.097155 -0.004176 0.031871
v 0.097998 -0.003731 0.032617
v 0.096605 -0.004164 0.031021
v 0.093927 -0.002034 0.014841
v 0.102435 -0.001006 0.006388
v 0.103916 -0.001023 0.006388
v 0.104329 -0.001075 0.034076
v 0.104329 -0.000857 0.036869
v 0.103859 -0.000877 0.036869
v 0.104008 0.005851 0.006388
v 0.104329 0.003663 0.034055
v 0.104329 -0.001075 0.034061
v 0.092002 -0.000880 0.036869
v 0.102287 -0.000923 0.036869
v 0.095234 -0.003423 0.031119
v 0.093927 -0.002144 0.016321
v 0.093927 -0.002046 0.014969
v 0.092001 -0.001029 0.021145
v 0.093927 -0.001122 0.008921
v 0.096517 -0.001039 0.007441
v 0.101003 -0.000929 0.006388
v 0.104329 0.006143 0.036869
v 0.097997 0.007056 0.006388
v 0.097997 0.007532 0.006916
v 0.099474 0.007864 0.007802
v 0.101676 0.007657 0.008193
v 0.104008 0.007710 0.009551
v 0.104329 0.005601 0.034055
v 0.092002 0.006010 0.036869
v 0.092001 -0.001113 0.034055
v 0.092001 -0.001267 0.033572
v 0.092001 -0.001267 0.033148
v 0.093927 -0.000511 0.006388
v 0.093927 -0.000837 0.007441
v 0.092001 0.005241 0.021145
v 0.095037 -0.000953 0.007441
v 0.094159 -0.000535 0.006388
v 0.097729 0.010770 0.033456
v 0.096905 0.010770 0.033456
v 0.104008 0.007725 0.010130
v 0.099338 0.011009 0.031119
v 0.099118 0.010878 0.032343
v 0.098713 0.010491 0.033327
v 0.096517 0.006865 0.006388
v 0.096517 0.007396 0.007161
v 0.096517 0.007775 0.007904
v 0.097997 0.007896 0.007656
v 0.097997 0.008265 0.008921
v 0.102435 0.007818 0.009178
v 0.097997 0.011270 0.029640
v 0.092001 0.005428 0.034055
v 0.095473 0.010870 0.032271
v 0.095301 0.010999 0.031119
v 0.092001 0.005938 0.026552
v 0.092001 0.005760 0.031119
v 0.093927 0.005978 0.006388
v 0.092001 0.005821 0.025266
v 0.098132 0.011018 0.032740
v 0.096455 0.011014 0.032701
v 0.097997 0.011396 0.031119
v 0.095742 0.007685 0.008140
v 0.096517 0.008048 0.008921
v 0.096517 0.011230 0.029640
v 0.096517 0.011384 0.031119
v 0.095475 0.010866 0.029640
v 0.095666 0.007753 0.008921
f 18 35 36
f 15 8 20
f 20 8 7
f 7 19 20
f 26 24 23
f 7 8 2
f 59 37 63
f 35 49 48
f 30 48 49
f 36 35 30
f 35 48 30
f 63 37 62
f 56 71 58
f 35 56 58
f 68 49 58
f 58 49 35
f 11 23 24
f 21 23 11
f 39 23 21
f 15 16 6
f 6 8 15
f 6 2 8
f 37 30 47
f 61 62 37
f 61 65 62
f 64 65 61
f 70 71 56
f 70 69 71
f 56 33 55
f 7 2 5
f 5 4 11
f 26 23 40
f 23 39 40
f 38 39 21
f 17 6 16
f 41 45 42
f 26 41 42
f 42 27 26
f 57 56 35
f 35 33 57
f 57 33 56
f 35 18 34
f 34 33 35
f 18 33 34
f 50 30 49
f 50 49 68
f 43 65 64
f 37 47 60
f 60 61 37
f 74 69 64
f 64 61 74
f 74 61 69
f 71 69 73
f 73 61 71
f 69 61 73
f 53 52 64
f 64 69 53
f 21 11 9
f 11 4 9
f 7 5 14
f 14 5 13
f 1 5 2
f 4 5 1
f 28 13 12
f 13 5 12
f 12 27 28
f 12 5 11
f 26 27 12
f 10 17 22
f 6 17 10
f 3 6 10
f 10 9 3
f 10 22 21
f 21 9 10
f 29 13 28
f 28 45 29
f 28 27 44
f 27 42 44
f 44 45 28
f 44 42 45
f 46 47 30
f 67 60 47
f 54 53 69
f 69 70 54
f 54 70 56
f 56 55 54
f 31 52 32
f 52 53 32
f 32 55 33
f 32 54 55
f 53 54 32
f 18 31 32
f 32 33 18
f 25 11 24
f 25 12 11
f 25 24 26
f 26 12 25
f 30 50 51
f 51 46 30
f 66 50 68
f 68 67 66
f 66 51 50
f 46 51 66
f 47 46 66
f 66 67 47
f 61 60 72
f 60 67 72
f 72 67 68
f 71 61 72
f 68 58 72
f 72 58 71
f 36 19 18
f 18 19 7
f 30 19 36
f 30 16 15
f 15 20 30
f 30 20 19
f 21 37 38
f 37 59 38
f 21 22 17
f 17 37 21
f 16 30 17
f 17 30 37
f 43 59 63
f 43 38 59
f 63 62 43
f 26 40 43
f 62 65 43
f 43 40 39
f 39 38 43
f 64 41 43
f 43 41 26
f 2 6 1
f 1 6 3
f 3 9 1
f 1 9 4
f 29 41 64
f 29 45 41
f 29 18 7
f 29 31 18
f 64 52 29
f 29 52 31
f 7 14 29
f 29 14 13
