v 0.120885 0.010282 0.026702
v 0.120881 0.010282 0.026739
v 0.122069 0.010281 0.022240
v 0.122085 0.010281 0.021842
v 0.122067 0.010281 0.021139
v 0.116515 0.010282 0.026702
v 0.120353 0.010282 0.029641
v 0.121879 0.010281 0.023322
v 0.129079 0.006906 0.032601
v 0.116850 0.010281 0.021139
v 0.129975 0.006353 0.032601
v 0.129901 0.006284 0.031699
v 0.124469 0.005442 0.021139
v 0.112077 0.010282 0.033919
v 0.121797 0.010281 0.023722
v 0.119902 0.010282 0.031121
v 0.129079 0.006760 0.033919
v 0.129999 0.006342 0.033919
v 0.108850 0.005848 0.021139
v 0.108850 0.007978 0.025635
v 0.108850 0.008131 0.026299
v 0.131305 0.004717 0.033304
v 0.130141 0.005442 0.031437
v 0.125082 0.003927 0.021139
v 0.108850 0.008114 0.027701
v 0.108850 0.008053 0.029594
v 0.108850 0.007824 0.030635
v 0.108850 0.006209 0.033919
v 0.117942 0.010282 0.033919
v 0.119516 0.010282 0.031935
v 0.130864 0.005249 0.033919
v 0.131305 0.004717 0.033422
v 0.108850 -0.001006 0.021139
v 0.131510 -0.000723 0.032601
v 0.131494 -0.000913 0.031602
v 0.125075 0.003607 0.021139
v 0.131494 -0.001472 0.031602
v 0.108850 -0.000742 0.033919
v 0.130871 0.005237 0.033919
v 0.131381 -0.000861 0.033474
v 0.116411 -0.005681 0.027367
v 0.115344 -0.005405 0.028161
v 0.115189 -0.005615 0.029641
v 0.108850 -0.001037 0.021546
v 0.117238 -0.003832 0.021139
v 0.131510 -0.001462 0.032601
v 0.124889 0.002514 0.021139
v 0.128551 -0.006042 0.032601
v 0.128475 -0.005906 0.031539
v 0.130083 -0.002926 0.029972
v 0.108850 -0.000852 0.033223
v 0.111372 -0.003111 0.033919
v 0.130962 -0.000635 0.033919
v 0.131381 -0.001288 0.033474
v 0.116087 -0.005710 0.028161
v 0.118718 -0.003953 0.021139
v 0.120197 -0.004020 0.021139
v 0.124636 -0.006984 0.031121
v 0.123159 -0.006872 0.032601
v 0.116205 -0.005699 0.030783
v 0.114373 -0.004427 0.033919
v 0.113100 -0.003904 0.033919
v 0.112751 -0.003758 0.033919
v 0.108850 -0.001089 0.026680
v 0.128484 -0.005920 0.033653
v 0.124110 -0.000469 0.021139
v 0.127597 -0.006711 0.032601
v 0.127681 -0.006304 0.031074
v 0.127242 -0.006042 0.030092
v 0.122837 -0.003353 0.021139
v 0.123584 -0.001921 0.021139
v 0.123886 -0.001179 0.021139
v 0.123953 -0.001005 0.021139
v 0.108850 -0.001072 0.027173
v 0.108850 -0.001089 0.026702
v 0.128023 -0.006150 0.033919
v 0.120574 -0.004029 0.021139
v 0.126115 -0.006938 0.031121
v 0.126115 -0.006989 0.032601
v 0.124636 -0.007026 0.032601
v 0.121677 -0.004034 0.021139
v 0.124476 -0.006974 0.033919
v 0.116695 -0.005644 0.031770
v 0.115759 -0.004778 0.033919
v 0.127668 -0.006375 0.033919
v 0.126115 -0.006960 0.033919
v 0.121978 -0.003861 0.021139
v 0.125955 -0.006963 0.033919
v 0.124636 -0.006989 0.033919
f 70 50 69
f 69 50 49
f 49 48 67
f 35 22 34
f 27 28 14
f 79 86 80
f 80 58 79
f 79 58 78
f 78 67 79
f 79 67 86
f 78 69 68
f 68 67 78
f 68 69 49
f 49 67 68
f 50 47 37
f 49 50 37
f 37 48 49
f 37 46 48
f 14 6 10
f 10 21 14
f 26 27 14
f 51 52 38
f 44 52 64
f 33 45 41
f 41 58 55
f 81 69 78
f 78 58 81
f 48 46 65
f 65 67 48
f 86 67 85
f 67 65 85
f 85 65 76
f 29 17 30
f 30 17 16
f 71 50 70
f 66 47 50
f 50 73 66
f 11 12 5
f 18 22 11
f 22 12 11
f 22 35 24
f 35 37 24
f 20 10 19
f 21 10 20
f 14 21 25
f 25 26 14
f 52 51 74
f 59 58 80
f 55 58 59
f 43 44 33
f 52 44 43
f 55 59 43
f 59 60 43
f 70 69 87
f 69 81 87
f 58 41 57
f 54 65 46
f 54 53 76
f 76 65 54
f 72 73 50
f 50 71 72
f 5 12 13
f 23 12 22
f 22 24 23
f 24 13 23
f 23 13 12
f 36 37 47
f 36 24 37
f 64 52 75
f 52 74 75
f 82 59 80
f 82 84 83
f 83 60 82
f 82 60 59
f 42 43 33
f 55 43 42
f 33 41 42
f 42 41 55
f 83 84 61
f 61 60 83
f 61 43 60
f 77 81 58
f 58 57 77
f 56 41 45
f 56 57 41
f 32 22 18
f 34 22 32
f 9 7 16
f 16 17 9
f 15 7 9
f 9 17 18
f 18 11 9
f 9 11 5
f 4 5 1
f 1 3 4
f 4 9 5
f 3 9 4
f 8 7 15
f 15 9 8
f 8 9 3
f 89 82 80
f 52 43 63
f 31 32 18
f 39 32 31
f 40 32 39
f 40 39 53
f 53 54 40
f 34 32 40
f 7 8 2
f 2 3 1
f 2 8 3
f 80 86 88
f 88 89 80
f 43 61 62
f 62 63 43
f 37 35 34
f 34 46 37
f 10 6 1
f 1 5 10
f 38 28 75
f 75 44 64
f 75 20 19
f 19 33 75
f 75 51 38
f 28 27 75
f 27 26 75
f 75 25 21
f 33 44 75
f 21 20 75
f 26 25 75
f 75 74 51
f 56 33 19
f 5 13 56
f 19 10 56
f 47 66 56
f 56 45 33
f 56 71 70
f 56 10 5
f 70 87 56
f 81 77 56
f 56 66 73
f 73 72 56
f 56 87 81
f 56 36 47
f 56 72 71
f 56 13 24
f 24 36 56
f 56 77 57
f 40 46 34
f 40 54 46
f 14 29 2
f 2 6 14
f 1 6 2
f 29 30 2
f 2 30 16
f 16 7 2
f 62 29 14
f 14 28 62
f 62 28 38
f 86 85 62
f 38 52 62
f 52 63 62
f 18 17 62
f 62 17 29
f 62 85 76
f 76 53 62
f 62 31 18
f 53 39 62
f 84 82 62
f 62 61 84
f 82 89 62
f 62 88 86
f 39 31 62
f 89 88 62
