v 0.013629 0.018243 -0.007107
v 0.012149 0.018195 -0.007093
v 0.012248 0.018170 -0.005852
v 0.013549 0.018203 -0.005791
v 0.014685 0.018163 -0.006224
v 0.014685 0.018163 -0.006933
v 0.018062 0.016719 -0.009894
v 0.015103 0.017397 -0.008843
v 0.013629 0.017900 -0.007846
v 0.010670 0.017503 -0.008843
v 0.009190 0.017477 -0.008843
v -0.000806 0.016672 -0.009728
v 0.000312 0.016963 -0.008843
v 0.010670 0.018086 -0.006882
v 0.010670 0.018086 -0.006384
v 0.012813 0.018031 -0.005131
v -0.004127 0.016770 -0.004403
v -0.001168 0.016890 -0.003116
v 0.000502 0.016982 -0.003116
v 0.013003 0.018031 -0.005131
v 0.013991 0.017947 -0.005237
v 0.045422 0.011026 -0.004344
v 0.045422 0.011369 -0.005883
v 0.045422 0.011383 -0.007362
v 0.045422 0.011204 -0.008842
v 0.018934 0.016632 -0.009757
v 0.045422 0.010818 -0.009778
v 0.018062 0.015801 -0.010537
v 0.016583 0.016777 -0.009956
v 0.012149 0.017470 -0.008843
v 0.012149 0.016832 -0.010018
v 0.010670 0.016850 -0.010037
v 0.007710 0.016883 -0.010069
v 0.006231 0.016850 -0.010062
v 0.006231 0.015801 -0.010716
v -0.005607 0.014317 -0.010655
v -0.005607 0.015465 -0.010030
v -0.005607 0.015994 -0.008843
v -0.007093 0.016132 -0.007362
v -0.007148 0.016442 -0.005943
v -0.006694 0.016599 -0.005490
v 0.000312 0.017102 -0.007362
v 0.009890 0.018024 -0.006677
v 0.009890 0.018024 -0.006601
v -0.006694 0.016599 -0.004899
v 0.001791 0.017029 -0.003116
v -0.004127 0.016639 -0.003252
v -0.003716 0.016657 -0.003116
v 0.001988 0.017022 -0.003116
v 0.003271 0.016956 -0.003116
v 0.003461 0.016923 -0.003116
v 0.045422 0.010508 -0.004025
v 0.045422 0.009881 -0.010016
v 0.044703 0.009881 -0.010141
v 0.043224 0.009881 -0.010378
v 0.041744 0.009881 -0.010575
v 0.016583 0.014317 -0.010939
v 0.016583 0.015801 -0.010607
v 0.040264 0.009881 -0.010671
v 0.007710 0.015801 -0.010726
v 0.013629 0.015801 -0.010652
v 0.012149 0.015801 -0.010673
v 0.009190 0.015801 -0.010710
v 0.006231 0.014317 -0.010934
v -0.007093 0.012837 -0.010833
v -0.010053 0.011358 -0.010708
v -0.010053 0.012732 -0.010167
v -0.007105 0.014368 -0.010216
v -0.006614 0.015254 -0.009835
v -0.007105 0.015524 -0.008830
v -0.008389 0.015458 -0.007362
v -0.007148 0.016387 -0.004404
v -0.008536 0.015702 -0.005884
v -0.008542 0.015655 -0.004403
v -0.006006 0.016475 -0.003911
v -0.005018 0.016566 -0.003559
v -0.005441 0.016369 -0.003116
v -0.004127 0.016599 -0.003116
v 0.011744 0.015123 -0.003116
v 0.045422 0.009881 -0.003668
v 0.045422 0.008402 -0.010063
v 0.043224 0.008402 -0.010497
v 0.041744 0.008402 -0.010718
v 0.015103 0.011358 -0.011161
v 0.015103 0.012393 -0.011085
v 0.015103 0.014317 -0.010942
v 0.040264 0.008402 -0.010804
v 0.010670 0.014317 -0.010948
v 0.009190 0.014317 -0.010947
v 0.007710 0.014317 -0.010943
v 0.006114 0.011503 -0.011101
v 0.005549 0.012090 -0.011061
v -0.008567 0.011358 -0.010916
v 0.009190 0.013056 -0.011031
v 0.010670 0.011358 -0.011144
v -0.011084 0.012462 -0.009910
v -0.013927 0.001888 -0.011100
v -0.014449 0.002420 -0.010922
v -0.014142 0.008398 -0.009843
v -0.013884 0.009262 -0.009702
v -0.008100 0.015196 -0.008328
v -0.009125 0.014951 -0.007362
v -0.007093 0.016059 -0.003116
v -0.008536 0.015491 -0.003116
v -0.008352 0.015582 -0.003116
v -0.009942 0.014211 -0.007362
v -0.009279 0.015028 -0.005884
v -0.009273 0.015035 -0.003116
v 0.012149 0.014951 -0.003116
v 0.045422 0.008402 -0.003706
v 0.012585 0.014725 -0.003116
v 0.013089 0.014354 -0.003116
v 0.014759 0.012936 -0.003116
v 0.015772 0.011875 -0.003116
v 0.016220 0.011358 -0.003116
v 0.016380 0.011168 -0.003116
v 0.020150 0.006222 -0.003116
v 0.021783 0.003969 -0.003116
v 0.022385 0.002482 -0.003116
v 0.014520 -0.010617 -0.003116
v 0.014194 -0.011142 -0.003116
v 0.045422 0.007684 -0.010067
v 0.043224 0.000999 -0.010537
v 0.043224 -0.001953 -0.010553
v 0.043224 -0.003433 -0.010558
v 0.041744 -0.007876 -0.010756
v 0.019542 0.008398 -0.011159
v -0.013012 -0.000474 -0.011337
v 0.006231 0.009881 -0.011190
v 0.013629 0.011358 -0.011159
v 0.012149 0.012407 -0.011085
v 0.013629 0.012407 -0.011085
v 0.025142 0.009211 -0.011069
v 0.025142 0.008766 -0.011069
v 0.010670 0.013122 -0.011033
v 0.007710 0.011358 -0.011122
v 0.010670 0.012382 -0.011081
v 0.012149 0.011358 -0.011153
v -0.011293 0.012692 -0.008843
v -0.014037 0.000999 -0.011123
v -0.014780 0.000999 -0.010969
v -0.015971 0.000999 -0.010586
v -0.015701 0.003959 -0.010069
v -0.016813 0.002030 -0.009756
v -0.014651 0.008398 -0.008843
v -0.014025 0.009378 -0.008843
v -0.010679 0.013472 -0.007362
v -0.011348 0.012732 -0.007362
v -0.009862 0.014390 -0.003116
v 0.045422 0.001965 -0.003961
v 0.013592 -0.011940 -0.003116
v 0.013427 -0.012141 -0.003116
v 0.045422 0.006918 -0.010071
v 0.044703 0.002479 -0.010237
v 0.043224 -0.004917 -0.010548
v 0.044703 0.000999 -0.010235
v 0.041744 -0.009352 -0.010725
v 0.040264 -0.009352 -0.010751
v 0.040264 -0.007876 -0.010779
v 0.007710 -0.010836 -0.011177
v 0.008337 -0.016292 -0.011080
v -0.008567 -0.012312 -0.010887
v -0.010053 -0.012312 -0.010727
v -0.013779 -0.002704 -0.011065
v -0.013945 -0.001957 -0.011102
v -0.014688 -0.001957 -0.010986
v -0.014086 -0.000474 -0.011134
v -0.014142 0.009451 -0.007362
v -0.014823 -0.000474 -0.010977
v -0.015971 -0.000474 -0.010655
v -0.016076 0.002504 -0.010195
v -0.017040 -0.000474 -0.010000
v -0.016991 0.000999 -0.009940
v -0.017273 0.000999 -0.008843
v -0.016899 0.002245 -0.008843
v -0.014768 0.008398 -0.007362
v -0.016917 0.003959 -0.003116
v -0.016751 0.004389 -0.003116
v -0.016671 0.004593 -0.003116
v -0.010685 0.013450 -0.003116
v 0.045422 -0.009352 -0.004433
v 0.012450 -0.012852 -0.003116
v 0.045422 0.005442 -0.010069
v 0.044703 -0.000474 -0.010210
v 0.043224 -0.006393 -0.010514
v 0.045422 0.003959 -0.010054
v 0.045422 0.000999 -0.010018
v 0.043224 -0.007876 -0.010470
v 0.043224 -0.009352 -0.010407
v 0.043224 -0.010468 -0.009974
v 0.041744 -0.010555 -0.010138
v 0.009190 -0.016970 -0.010871
v 0.009190 -0.016230 -0.011077
v 0.009190 -0.015275 -0.011098
v 0.007790 -0.016777 -0.010910
v -0.007093 -0.013796 -0.010670
v -0.005607 -0.013796 -0.010759
v -0.010053 -0.013420 -0.010066
v -0.010924 -0.013158 -0.009798
v -0.014013 -0.008897 -0.009787
v -0.014283 -0.007876 -0.009923
v -0.015971 -0.001957 -0.010535
v -0.007093 -0.014973 -0.010039
v -0.008604 -0.013883 -0.010236
v -0.015536 0.006612 -0.003116
v -0.011330 0.012586 -0.003116
v -0.017285 -0.000474 -0.008843
v -0.016892 -0.001957 -0.009871
v -0.017292 0.000999 -0.007362
v -0.017224 0.002482 -0.004403
v -0.017132 0.002482 -0.005884
v -0.016297 0.005325 -0.003116
v -0.016978 0.003747 -0.003116
v 0.045422 -0.010118 -0.004528
v 0.011744 -0.013231 -0.003116
v 0.044703 -0.001953 -0.010169
v 0.045422 -0.000474 -0.009972
v 0.044703 -0.003433 -0.010120
v 0.044703 -0.004917 -0.010057
v 0.044703 -0.006393 -0.009970
v 0.044544 -0.009352 -0.009846
v 0.044317 -0.010289 -0.009742
v 0.045422 -0.010610 -0.008772
v 0.045422 -0.010945 -0.008214
v 0.008484 -0.018993 -0.009600
v 0.009067 -0.018246 -0.010031
v 0.007821 -0.018297 -0.010072
v -0.005638 -0.015381 -0.010128
v -0.008131 -0.014696 -0.009815
v -0.009113 -0.014433 -0.009132
v -0.009911 -0.014054 -0.008720
v -0.011053 -0.013274 -0.008843
v -0.014203 -0.009028 -0.008843
v -0.014977 -0.007803 -0.008868
v -0.016776 -0.002886 -0.009713
v -0.005165 -0.016110 -0.009725
v -0.016776 -0.002886 -0.009256
v -0.017193 0.000999 -0.004403
v -0.017285 0.000999 -0.005884
v -0.017236 0.002482 -0.003116
v 0.045422 -0.010836 -0.004642
v 0.010670 -0.013500 -0.003116
v 0.045422 -0.001953 -0.009905
v 0.045422 -0.003433 -0.009828
v 0.045422 -0.004917 -0.009741
v 0.044814 -0.007734 -0.009833
v 0.045422 -0.008106 -0.009531
v 0.045422 -0.009352 -0.009441
v 0.045422 -0.009535 -0.009361
v 0.045422 -0.011364 -0.007306
v 0.008484 -0.018993 -0.009494
v 0.008386 -0.018993 -0.009600
v 0.045422 -0.011492 -0.006948
v 0.045422 -0.011572 -0.006612
v 0.045422 -0.011692 -0.005928
v 0.045422 -0.011700 -0.004986
v -0.006148 -0.015946 -0.009376
v -0.007050 -0.015673 -0.008866
v -0.006534 -0.016114 -0.008390
v -0.006749 -0.016259 -0.007362
v -0.007492 -0.015822 -0.007362
v -0.009322 -0.014543 -0.008146
v -0.010157 -0.014127 -0.007362
v -0.011176 -0.013387 -0.007362
v -0.015044 -0.008037 -0.007362
v -0.011962 -0.012556 -0.005884
v -0.015265 -0.007260 -0.008391
v -0.000652 -0.017553 -0.008211
v -0.005638 -0.016238 -0.008866
v -0.015241 -0.007228 -0.006581
v -0.015290 -0.005828 -0.003116
v -0.015536 -0.004917 -0.003116
v -0.017058 0.000999 -0.003116
v -0.017230 0.002282 -0.003116
v 0.045422 -0.011277 -0.004797
v -0.000278 -0.016059 -0.003116
v -0.000382 -0.016081 -0.003116
v 0.045422 -0.006393 -0.009645
v 0.009067 -0.018723 -0.008938
v 0.007821 -0.018789 -0.008938
v 0.008386 -0.018993 -0.009494
v 0.012149 -0.017852 -0.007609
v -0.001168 -0.016223 -0.003116
v -0.001358 -0.016252 -0.003116
v 0.018062 -0.016285 -0.006251
v -0.005607 -0.016653 -0.007362
v -0.006890 -0.016310 -0.005884
v -0.007627 -0.015899 -0.005884
v -0.008567 -0.015155 -0.007362
v -0.009420 -0.014608 -0.007362
v -0.010280 -0.014200 -0.005884
v -0.011225 -0.013460 -0.005884
v -0.011925 -0.012516 -0.004403
v -0.012349 -0.011700 -0.003116
v -0.012816 -0.010960 -0.003116
v -0.013460 -0.009848 -0.003116
v -0.013540 -0.009699 -0.003116
v -0.013927 -0.008959 -0.003116
v -0.014393 -0.008015 -0.003116
v -0.014461 -0.007876 -0.003116
v -0.015069 -0.006469 -0.003116
v -0.011182 -0.013478 -0.004403
v -0.000652 -0.017553 -0.007798
v -0.005607 -0.016744 -0.005884
v 0.009190 -0.018089 -0.007553
v 0.010670 -0.018013 -0.007561
v -0.002844 -0.016351 -0.003116
v -0.004140 -0.016256 -0.003116
v -0.004404 -0.016234 -0.003116
v -0.005607 -0.016423 -0.004403
v -0.002648 -0.016340 -0.003116
v 0.016583 -0.016423 -0.006186
v -0.007554 -0.015935 -0.004403
v -0.008567 -0.015377 -0.004403
v -0.008567 -0.015305 -0.005884
v -0.009537 -0.014681 -0.005884
v -0.009647 -0.014754 -0.003116
v -0.010335 -0.014218 -0.004403
v -0.010384 -0.014211 -0.003116
v -0.010501 -0.014116 -0.003116
v -0.011127 -0.013468 -0.003116
v -0.011870 -0.012440 -0.003116
v -0.006602 -0.016059 -0.003500
v -0.006964 -0.015910 -0.003116
v -0.007069 -0.015884 -0.003116
v -0.006817 -0.016176 -0.004403
v -0.005607 -0.016092 -0.003116
v -0.006221 -0.016012 -0.003116
v -0.008567 -0.015359 -0.003116
f 256 284 285
f 285 282 256
f 306 282 285
f 311 306 284
f 307 306 311
f 66 97 98
f 38 39 12
f 12 37 38
f 69 38 37
f 39 71 40
f 40 71 73
f 12 39 40
f 73 74 40
f 207 237 238
f 238 237 273
f 274 238 273
f 99 66 98
f 120 80 119
f 225 256 251
f 256 282 251
f 284 306 312
f 312 285 284
f 306 285 312
f 305 306 307
f 307 280 305
f 65 66 36
f 36 37 12
f 93 66 65
f 97 66 93
f 128 97 93
f 229 236 257
f 235 202 201
f 237 207 235
f 267 265 235
f 235 265 237
f 70 71 39
f 39 38 70
f 38 69 70
f 70 69 96
f 146 145 168
f 168 139 146
f 73 71 102
f 102 71 96
f 96 139 102
f 5 1 4
f 45 40 72
f 72 40 74
f 4 1 3
f 41 13 12
f 12 40 41
f 41 40 45
f 194 160 159
f 162 197 196
f 203 236 229
f 127 160 128
f 128 84 127
f 159 160 127
f 127 126 159
f 239 238 274
f 239 207 238
f 209 207 239
f 270 271 237
f 237 265 270
f 237 271 272
f 272 273 237
f 168 205 206
f 206 180 168
f 108 74 73
f 148 139 168
f 168 180 148
f 142 99 98
f 211 175 174
f 174 207 209
f 172 207 174
f 144 175 145
f 144 174 175
f 119 80 118
f 80 120 121
f 152 181 150
f 279 282 306
f 279 251 282
f 280 251 279
f 306 305 279
f 279 305 280
f 307 308 281
f 281 280 307
f 281 251 280
f 281 308 309
f 309 310 281
f 67 66 96
f 67 36 66
f 96 69 67
f 327 310 309
f 269 257 236
f 196 197 161
f 161 195 196
f 197 162 161
f 161 162 128
f 161 194 193
f 128 160 161
f 160 194 161
f 192 161 193
f 195 161 192
f 172 202 208
f 202 235 208
f 208 207 172
f 208 235 207
f 128 164 165
f 165 166 128
f 164 166 165
f 128 166 167
f 96 71 101
f 101 70 96
f 71 70 101
f 145 146 100
f 100 144 145
f 99 144 100
f 96 66 100
f 66 99 100
f 100 139 96
f 100 146 139
f 73 102 106
f 106 102 139
f 4 20 21
f 21 5 4
f 21 20 22
f 22 5 21
f 13 14 2
f 12 13 2
f 2 3 1
f 2 11 12
f 1 11 2
f 10 11 1
f 76 47 45
f 45 17 15
f 15 17 3
f 15 2 14
f 3 2 15
f 22 20 51
f 51 52 22
f 80 52 51
f 16 46 20
f 16 20 4
f 4 3 16
f 42 41 14
f 42 14 13
f 13 41 42
f 255 256 225
f 184 156 187
f 156 184 155
f 158 194 159
f 159 126 158
f 193 194 158
f 218 219 188
f 188 219 189
f 228 203 196
f 236 203 228
f 196 195 228
f 55 56 27
f 296 265 295
f 304 323 324
f 310 323 304
f 304 287 286
f 304 281 310
f 286 287 260
f 229 199 198
f 198 203 229
f 204 203 198
f 234 265 267
f 267 235 234
f 265 300 301
f 271 270 301
f 301 270 265
f 74 108 104
f 105 72 104
f 104 72 74
f 149 148 180
f 210 213 211
f 211 174 210
f 210 174 209
f 177 175 211
f 211 213 177
f 145 175 177
f 176 212 205
f 176 205 168
f 179 212 176
f 168 145 176
f 145 179 176
f 170 166 202
f 170 202 172
f 172 142 170
f 143 144 99
f 99 142 143
f 142 171 143
f 173 171 142
f 173 142 172
f 173 143 171
f 144 143 173
f 172 174 173
f 174 144 173
f 80 116 117
f 117 118 80
f 112 113 80
f 80 113 114
f 152 150 110
f 110 151 152
f 121 151 110
f 80 121 110
f 182 181 152
f 182 215 181
f 37 36 68
f 36 67 68
f 68 69 37
f 68 67 69
f 12 11 34
f 28 56 59
f 27 56 28
f 35 36 12
f 12 34 35
f 129 84 128
f 128 93 129
f 59 87 57
f 57 87 84
f 57 28 59
f 58 28 57
f 324 323 328
f 328 323 310
f 310 327 328
f 140 97 128
f 128 167 140
f 139 148 147
f 147 106 139
f 45 72 75
f 75 76 45
f 14 41 43
f 3 17 18
f 45 47 18
f 18 17 45
f 50 51 20
f 79 109 80
f 80 51 79
f 254 255 225
f 224 250 225
f 225 190 224
f 225 192 226
f 226 190 225
f 192 190 226
f 81 82 53
f 185 155 184
f 156 155 125
f 125 155 126
f 157 192 193
f 193 158 157
f 157 189 190
f 157 158 126
f 188 189 157
f 157 185 188
f 126 155 157
f 155 185 157
f 219 218 217
f 219 244 245
f 216 218 188
f 188 185 216
f 216 185 184
f 216 184 187
f 187 217 216
f 216 217 218
f 227 228 195
f 195 192 227
f 227 252 236
f 236 228 227
f 225 252 227
f 227 192 225
f 126 127 134
f 134 87 126
f 126 87 83
f 83 82 123
f 83 125 126
f 83 55 82
f 56 55 83
f 59 56 83
f 83 87 59
f 1 5 6
f 23 5 22
f 53 82 54
f 82 55 54
f 54 27 53
f 54 55 27
f 320 321 302
f 292 320 302
f 302 266 292
f 294 295 265
f 233 266 265
f 265 234 233
f 293 321 322
f 265 266 293
f 293 302 321
f 266 302 293
f 322 294 293
f 293 294 265
f 287 304 313
f 268 304 286
f 236 252 268
f 286 269 268
f 268 269 236
f 231 199 230
f 230 199 229
f 292 291 318
f 264 291 292
f 292 266 264
f 266 233 264
f 204 198 163
f 196 203 163
f 163 203 204
f 163 162 196
f 163 198 199
f 201 202 163
f 202 166 163
f 163 166 164
f 163 164 128
f 128 162 163
f 297 265 296
f 297 298 265
f 299 300 265
f 265 298 299
f 213 210 240
f 240 210 209
f 209 239 240
f 240 239 274
f 178 179 145
f 145 177 178
f 169 167 166
f 166 170 169
f 80 109 111
f 111 112 80
f 115 116 80
f 80 114 115
f 181 215 214
f 215 241 214
f 11 10 33
f 33 34 11
f 33 35 34
f 26 25 27
f 26 6 25
f 107 149 108
f 107 108 73
f 148 149 107
f 107 147 148
f 73 106 107
f 106 147 107
f 9 10 1
f 9 30 10
f 9 1 8
f 8 30 9
f 103 72 105
f 103 75 72
f 45 15 44
f 47 78 48
f 48 18 47
f 19 16 3
f 3 18 19
f 46 16 19
f 20 46 49
f 49 50 20
f 225 250 253
f 253 254 225
f 187 156 186
f 156 183 186
f 123 82 122
f 82 81 122
f 191 190 192
f 192 157 191
f 191 157 190
f 243 244 219
f 219 217 243
f 220 189 219
f 220 221 189
f 219 245 220
f 133 127 84
f 133 134 127
f 84 87 133
f 87 134 133
f 24 6 5
f 5 23 24
f 25 6 24
f 329 313 325
f 325 304 324
f 281 304 303
f 304 268 303
f 260 230 259
f 286 260 259
f 259 269 286
f 257 269 259
f 317 318 291
f 232 199 231
f 232 233 199
f 232 264 233
f 231 230 261
f 261 230 260
f 316 317 291
f 201 163 200
f 200 163 199
f 199 233 200
f 200 233 234
f 200 235 201
f 200 234 235
f 141 140 167
f 167 169 141
f 97 140 141
f 141 170 142
f 141 169 170
f 98 97 141
f 141 142 98
f 242 241 215
f 242 276 241
f 283 284 256
f 29 28 58
f 29 30 8
f 10 30 29
f 35 33 60
f 27 28 7
f 7 26 27
f 28 29 7
f 7 29 8
f 8 1 7
f 1 6 7
f 6 26 7
f 84 129 130
f 91 129 93
f 93 92 91
f 86 60 57
f 88 60 86
f 76 75 77
f 75 103 77
f 47 76 77
f 77 78 47
f 123 122 154
f 154 122 153
f 156 125 154
f 153 183 154
f 154 183 156
f 246 220 245
f 247 221 246
f 221 220 246
f 248 221 247
f 222 248 249
f 221 248 222
f 190 189 222
f 189 221 222
f 326 313 304
f 304 325 326
f 326 325 313
f 257 259 258
f 258 259 230
f 229 257 258
f 258 230 229
f 318 317 319
f 319 320 292
f 292 318 319
f 287 313 314
f 329 317 314
f 314 313 329
f 263 232 231
f 291 264 263
f 264 232 263
f 231 261 262
f 262 261 289
f 262 263 231
f 289 261 288
f 288 260 287
f 288 261 260
f 287 314 288
f 256 275 277
f 277 283 256
f 277 275 241
f 241 276 277
f 58 33 32
f 32 33 10
f 90 60 89
f 89 60 88
f 136 95 129
f 129 91 136
f 136 91 95
f 64 91 92
f 64 92 93
f 90 94 64
f 64 93 65
f 95 91 64
f 64 94 95
f 65 36 64
f 36 35 64
f 64 60 90
f 35 60 64
f 84 88 132
f 88 86 132
f 123 154 124
f 124 154 125
f 124 83 123
f 125 83 124
f 247 246 278
f 278 246 245
f 223 222 249
f 223 224 190
f 190 222 223
f 290 316 291
f 291 263 290
f 290 262 289
f 263 262 290
f 289 288 315
f 315 290 289
f 316 290 315
f 315 288 314
f 317 316 315
f 315 314 317
f 31 29 58
f 58 32 31
f 10 29 31
f 31 32 10
f 57 60 63
f 63 62 57
f 63 60 33
f 33 62 63
f 61 33 58
f 61 62 33
f 58 57 61
f 57 62 61
f 84 130 131
f 131 88 84
f 131 89 88
f 130 137 131
f 138 137 130
f 129 95 138
f 138 130 129
f 95 94 138
f 138 94 137
f 84 132 85
f 85 132 86
f 85 57 84
f 85 86 57
f 90 89 135
f 89 131 135
f 135 94 90
f 137 94 135
f 135 131 137
f 281 252 225
f 225 251 281
f 44 43 41
f 44 41 45
f 44 15 14
f 14 43 44
f 252 281 303
f 303 268 252
f 296 295 277
f 277 311 284
f 274 273 277
f 277 308 307
f 205 212 277
f 116 115 277
f 277 321 320
f 277 206 205
f 271 301 277
f 277 111 109
f 277 120 119
f 307 311 277
f 277 182 152
f 277 49 46
f 277 272 271
f 300 299 277
f 119 118 277
f 277 117 116
f 309 308 277
f 277 242 215
f 46 19 277
f 277 294 322
f 273 272 277
f 180 206 277
f 105 104 277
f 277 149 180
f 277 212 179
f 277 240 274
f 179 178 277
f 277 121 120
f 152 151 277
f 277 327 309
f 324 328 277
f 277 48 78
f 322 321 277
f 109 79 277
f 277 325 324
f 277 297 296
f 277 301 300
f 277 104 108
f 108 149 277
f 277 177 213
f 118 117 277
f 113 112 277
f 277 114 113
f 277 151 121
f 215 182 277
f 277 328 327
f 277 103 105
f 51 50 277
f 277 79 51
f 295 294 277
f 298 297 277
f 277 299 298
f 213 240 277
f 277 178 177
f 112 111 277
f 277 115 114
f 78 77 277
f 284 283 277
f 18 48 277
f 277 19 18
f 50 49 277
f 329 325 277
f 277 317 329
f 276 242 277
f 320 319 277
f 277 77 103
f 277 319 317
f 223 248 247
f 80 110 223
f 22 52 223
f 244 243 223
f 256 255 223
f 223 52 80
f 223 81 53
f 181 214 223
f 53 27 223
f 223 150 181
f 25 24 223
f 223 253 250
f 223 217 187
f 27 25 223
f 223 110 150
f 223 23 22
f 255 254 223
f 250 224 223
f 223 183 153
f 187 186 223
f 153 122 223
f 223 245 244
f 223 275 256
f 223 214 241
f 254 253 223
f 223 186 183
f 223 122 81
f 223 243 217
f 247 278 223
f 223 24 23
f 241 275 223
f 249 248 223
f 223 278 245
