v 0.124680 -0.000052 -0.001691
v 0.124611 0.004008 -0.001691
v 0.124675 -0.000514 -0.001691
v 0.121044 -0.003436 -0.008331
v 0.124545 0.005362 -0.001691
v 0.121042 -0.001958 -0.008267
v 0.124395 -0.001709 -0.001691
v 0.121001 -0.004491 -0.008264
v 0.119467 -0.004208 -0.011087
v 0.119467 -0.004132 -0.011087
v 0.121080 0.006584 -0.006874
v 0.120886 0.007097 -0.006366
v 0.120696 0.007589 -0.005882
v 0.123963 0.005775 -0.001691
v 0.120711 0.005440 -0.007764
v 0.124153 -0.002146 -0.001691
v 0.121034 -0.007254 -0.005882
v 0.120988 -0.007202 -0.006372
v 0.120958 -0.007167 -0.006679
v 0.120891 -0.005476 -0.007962
v 0.120591 -0.004957 -0.008793
v 0.119739 -0.004787 -0.010306
v 0.119278 -0.005195 -0.010790
v 0.116558 -0.004343 -0.015604
v 0.116558 -0.004016 -0.015604
v 0.119444 0.006091 -0.009574
v 0.118121 0.006513 -0.011287
v 0.119469 0.007669 -0.008133
v 0.120349 0.007621 -0.006366
v 0.119955 0.007706 -0.005882
v 0.120746 0.007620 -0.004404
v 0.123311 0.006101 -0.001691
v 0.110739 -0.003926 -0.024641
v 0.123876 -0.002612 -0.001691
v 0.121085 -0.007301 -0.004404
v 0.120194 -0.007575 -0.005882
v 0.120736 -0.007308 -0.006366
v 0.120189 -0.007402 -0.007251
v 0.119693 -0.007328 -0.008489
v 0.119362 -0.006977 -0.009475
v 0.119947 -0.006448 -0.008927
v 0.120711 -0.006396 -0.007665
v 0.119589 -0.005989 -0.009804
v 0.117981 -0.005666 -0.012554
v 0.116367 -0.005327 -0.015310
v 0.115238 -0.004916 -0.017341
v 0.113648 -0.004433 -0.020121
v 0.110739 -0.004412 -0.024641
v 0.116464 0.005877 -0.013984
v 0.109187 0.006341 -0.024507
v 0.107849 0.006486 -0.026169
v 0.108350 0.006733 -0.025050
v 0.113322 0.007573 -0.016705
v 0.111966 0.007633 -0.018346
v 0.110612 0.007672 -0.019992
v 0.112337 0.007734 -0.017362
v 0.116747 0.007724 -0.011431
v 0.109841 0.007914 -0.019201
v 0.114273 0.007852 -0.013286
v 0.118629 0.007709 -0.008713
v 0.119627 0.007684 -0.007366
v 0.119848 0.007699 -0.006366
v 0.118716 0.007768 -0.005882
v 0.120006 0.007717 -0.004404
v 0.112795 0.007899 -0.014767
v 0.119739 0.007700 -0.003496
v 0.120199 0.007233 -0.001691
v 0.122863 0.006321 -0.001691
v 0.109437 -0.003845 -0.026316
v 0.123169 -0.003579 -0.001691
v 0.121026 -0.007231 -0.003536
v 0.120194 -0.007611 -0.004404
v 0.119713 -0.007641 -0.006366
v 0.119711 -0.007641 -0.006372
v 0.120192 -0.007515 -0.006372
v 0.120194 -0.007515 -0.006366
v 0.118713 -0.007774 -0.007366
v 0.118808 -0.007520 -0.008927
v 0.106910 -0.007594 -0.026640
v 0.107834 -0.007392 -0.026172
v 0.115072 -0.005730 -0.017074
v 0.109437 -0.004595 -0.026316
v 0.106455 0.006565 -0.027565
v 0.106923 0.006870 -0.026637
v 0.110246 0.007527 -0.020979
v 0.109264 0.007702 -0.021636
v 0.110910 0.007746 -0.019201
v 0.111414 0.007838 -0.017801
v 0.108360 0.007968 -0.019201
v 0.109790 0.007761 -0.020564
v 0.105037 0.007751 -0.026207
v 0.103923 0.007828 -0.026300
v 0.103923 0.007889 -0.025119
v 0.104009 0.008481 -0.001691
v 0.118655 0.007727 -0.002972
v 0.118121 0.007692 -0.002058
v 0.118479 0.007568 -0.001691
v 0.118736 0.007519 -0.001691
v 0.108007 -0.004916 -0.027484
v 0.108002 -0.004077 -0.027428
v 0.123087 -0.003685 -0.001691
v 0.120115 -0.007360 -0.002996
v 0.122563 -0.004331 -0.001691
v 0.121846 -0.005057 -0.001691
v 0.120293 -0.006553 -0.001691
v 0.119876 -0.006916 -0.001691
v 0.119571 -0.007210 -0.001868
v 0.118716 -0.007654 -0.002924
v 0.118716 -0.007759 -0.004404
v 0.118716 -0.007776 -0.005882
v 0.118716 -0.007776 -0.006366
v 0.107991 -0.008702 -0.008847
v 0.105399 -0.007929 -0.026602
v 0.109108 -0.008618 -0.006642
v 0.105282 -0.007402 -0.028078
v 0.106434 -0.007328 -0.027578
v 0.107421 -0.006842 -0.027158
v 0.107757 -0.005855 -0.027444
v 0.103544 0.005073 -0.028997
v 0.105401 0.006804 -0.027835
v 0.105477 0.007549 -0.026664
v 0.108742 0.007600 -0.022625
v 0.103923 0.007490 -0.027041
v 0.102442 0.007764 -0.026044
v 0.102442 0.007852 -0.025119
v 0.104009 -0.005280 -0.001691
v 0.117060 0.007695 -0.001691
v 0.101501 0.007759 -0.023641
v 0.100760 0.007352 -0.023641
v 0.098686 0.006222 -0.024261
v 0.099218 -0.004916 -0.020679
v 0.117775 0.007647 -0.001691
v 0.104709 -0.007162 -0.028842
v 0.104709 -0.007069 -0.028842
v 0.119202 -0.007246 -0.001691
v 0.118612 -0.007370 -0.001691
v 0.117235 -0.007594 -0.001691
v 0.115757 -0.007754 -0.001691
v 0.117235 -0.007771 -0.002924
v 0.109108 -0.008618 -0.006618
v 0.106905 -0.008702 -0.008932
v 0.106882 -0.008662 -0.010092
v 0.108490 -0.008657 -0.007238
v 0.107414 -0.008697 -0.007839
v 0.103920 -0.007929 -0.026602
v 0.106910 -0.006368 -0.027768
v 0.103544 0.004565 -0.028997
v 0.102961 0.005073 -0.028997
v 0.103923 0.006748 -0.027984
v 0.101694 0.007667 -0.025867
v 0.101587 0.007719 -0.025119
v 0.112617 -0.007532 -0.001691
v 0.099048 -0.006396 -0.022163
v 0.100137 -0.007215 -0.019779
v 0.106101 -0.008647 -0.009485
v 0.098686 0.006222 -0.024456
v 0.098727 -0.005678 -0.024280
v 0.104615 -0.007162 -0.028842
v 0.114027 -0.007826 -0.001691
v 0.109088 -0.008618 -0.006618
v 0.106101 -0.008647 -0.010047
v 0.112818 -0.007580 -0.001691
v 0.102439 -0.007779 -0.025122
v 0.102391 -0.007572 -0.026659
v 0.104042 -0.007401 -0.028062
v 0.102961 0.004565 -0.028997
v 0.101287 -0.005402 -0.027530
v 0.099875 -0.005927 -0.026282
v 0.100066 0.005440 -0.026014
v 0.100116 0.006269 -0.025956
v 0.101658 0.006217 -0.027378
v 0.102442 0.006441 -0.027685
v 0.101183 0.006738 -0.026405
v 0.098727 -0.005678 -0.024429
v 0.099775 -0.007254 -0.023248
v 0.099719 -0.007306 -0.022163
v 0.099992 -0.007278 -0.020679
v 0.100961 -0.007577 -0.022163
v 0.102852 -0.007325 -0.027554
v 0.101864 -0.006990 -0.027190
v 0.101287 -0.006003 -0.027530
v 0.101211 -0.007468 -0.025122
v 0.101447 -0.007357 -0.026201
v 0.099422 -0.006087 -0.025001
f 113 77 112
f 79 77 113
f 142 113 112
f 7 16 17
f 127 96 94
f 66 64 94
f 96 97 66
f 94 64 63
f 13 14 5
f 59 60 28
f 28 58 59
f 130 94 129
f 129 128 130
f 94 128 129
f 94 89 93
f 93 89 58
f 1 4 2
f 5 2 6
f 6 2 4
f 69 50 33
f 69 82 99
f 78 77 79
f 79 39 78
f 78 38 77
f 39 38 78
f 80 39 79
f 40 39 80
f 80 81 40
f 117 82 80
f 19 39 40
f 19 38 39
f 117 146 118
f 118 82 117
f 99 82 118
f 79 113 115
f 120 119 149
f 28 55 56
f 91 58 90
f 33 50 49
f 49 26 33
f 50 26 49
f 112 77 114
f 114 140 112
f 159 162 160
f 160 140 159
f 145 142 161
f 113 142 145
f 131 126 94
f 131 153 126
f 131 94 130
f 3 7 8
f 3 4 1
f 8 4 3
f 106 135 107
f 107 71 106
f 104 71 103
f 103 71 101
f 111 114 77
f 107 135 108
f 132 97 96
f 96 127 132
f 94 96 95
f 95 66 94
f 96 66 95
f 64 66 31
f 31 67 68
f 66 67 31
f 68 32 31
f 31 32 14
f 14 13 31
f 60 59 62
f 65 59 58
f 65 89 94
f 58 89 65
f 94 63 65
f 15 11 5
f 26 11 15
f 33 26 15
f 100 69 99
f 48 80 82
f 81 80 48
f 48 47 81
f 38 19 18
f 18 7 17
f 18 19 7
f 79 115 116
f 117 80 116
f 116 80 79
f 116 146 117
f 172 149 148
f 148 149 119
f 148 171 172
f 148 170 171
f 148 169 170
f 123 121 120
f 120 149 123
f 57 58 28
f 28 56 57
f 88 90 58
f 58 57 88
f 88 57 56
f 69 100 83
f 120 121 83
f 121 84 83
f 83 119 120
f 99 119 83
f 83 100 99
f 12 13 5
f 5 11 12
f 28 13 12
f 12 11 28
f 27 26 50
f 27 11 26
f 27 50 28
f 28 11 27
f 144 160 162
f 140 160 144
f 133 115 113
f 146 116 133
f 133 116 115
f 99 118 133
f 133 118 146
f 170 169 156
f 130 128 156
f 128 151 156
f 105 71 104
f 105 106 71
f 101 71 70
f 71 34 70
f 16 34 35
f 17 16 35
f 35 34 71
f 35 36 17
f 102 71 107
f 107 108 102
f 109 139 140
f 108 139 109
f 98 66 97
f 98 67 66
f 28 60 61
f 60 62 61
f 30 63 64
f 64 31 30
f 30 62 59
f 30 31 13
f 30 65 63
f 59 65 30
f 125 151 128
f 125 128 94
f 94 93 125
f 171 170 173
f 17 36 37
f 37 18 17
f 38 18 37
f 77 38 74
f 91 121 92
f 121 123 92
f 92 125 93
f 92 58 91
f 92 93 58
f 87 88 56
f 90 88 87
f 55 85 86
f 90 87 86
f 86 121 91
f 91 90 86
f 86 56 55
f 86 87 56
f 122 84 121
f 122 85 84
f 121 86 122
f 122 86 85
f 54 85 55
f 53 85 54
f 54 55 28
f 28 53 54
f 51 83 84
f 50 69 51
f 69 83 51
f 28 50 51
f 126 144 152
f 152 144 162
f 155 144 126
f 112 144 141
f 141 142 112
f 161 142 141
f 141 155 161
f 144 155 141
f 112 140 143
f 143 144 112
f 140 144 143
f 161 155 178
f 178 155 176
f 126 153 154
f 154 155 126
f 134 119 99
f 99 133 134
f 136 108 135
f 136 137 108
f 159 140 138
f 140 139 138
f 108 137 138
f 138 139 108
f 110 109 140
f 29 61 62
f 29 30 13
f 62 30 29
f 29 13 28
f 28 61 29
f 40 81 41
f 41 19 40
f 42 19 41
f 20 21 8
f 20 19 42
f 42 41 20
f 20 41 21
f 8 7 20
f 7 19 20
f 33 15 25
f 8 21 9
f 9 4 8
f 23 43 44
f 44 45 23
f 81 45 44
f 44 41 81
f 43 41 44
f 75 74 38
f 36 74 75
f 125 92 124
f 124 92 123
f 84 85 52
f 52 51 84
f 52 85 53
f 52 53 28
f 28 51 52
f 153 176 177
f 177 154 153
f 176 155 177
f 155 154 177
f 163 178 176
f 163 145 161
f 161 178 163
f 157 131 130
f 153 131 157
f 157 174 153
f 109 110 72
f 36 35 72
f 108 109 72
f 72 110 111
f 72 35 71
f 72 111 77
f 71 102 72
f 72 102 108
f 47 48 24
f 23 45 24
f 24 9 23
f 22 43 23
f 23 9 22
f 22 9 21
f 22 41 43
f 21 41 22
f 10 6 4
f 4 9 10
f 5 6 10
f 10 15 5
f 10 25 15
f 76 37 36
f 36 75 76
f 38 37 76
f 76 75 38
f 151 125 150
f 125 124 150
f 150 156 151
f 170 156 150
f 150 173 170
f 172 171 150
f 171 173 150
f 150 149 172
f 150 123 149
f 150 124 123
f 145 163 164
f 175 163 176
f 175 176 153
f 153 174 175
f 73 74 36
f 36 72 73
f 77 74 73
f 73 72 77
f 47 24 46
f 46 24 45
f 81 47 46
f 46 45 81
f 145 164 165
f 158 181 166
f 145 165 158
f 183 175 168
f 168 174 156
f 167 181 168
f 168 156 169
f 148 167 168
f 169 148 168
f 183 164 182
f 182 175 183
f 182 164 163
f 163 175 182
f 179 164 183
f 179 165 164
f 179 158 165
f 183 168 180
f 180 168 181
f 180 179 183
f 181 158 180
f 158 179 180
f 184 175 174
f 174 168 184
f 184 168 175
f 82 69 48
f 48 69 33
f 119 147 148
f 148 147 166
f 134 147 119
f 134 133 147
f 94 126 138
f 68 67 138
f 138 127 94
f 138 32 68
f 1 2 138
f 138 98 97
f 138 3 1
f 138 162 159
f 5 14 138
f 97 132 138
f 104 103 138
f 16 7 138
f 101 70 138
f 138 34 16
f 14 32 138
f 138 2 5
f 7 3 138
f 135 106 138
f 138 103 101
f 138 105 104
f 138 132 127
f 138 136 135
f 106 105 138
f 138 70 34
f 126 152 138
f 67 98 138
f 138 152 162
f 137 136 138
f 114 111 110
f 140 114 110
f 156 174 157
f 130 156 157
f 24 48 33
f 33 25 24
f 10 24 25
f 9 24 10
f 181 148 166
f 181 167 148
f 166 147 158
f 147 133 158
f 113 145 158
f 158 133 113
