v 0.108323 0.004933 0.048327
v 0.107402 0.005441 0.049350
v 0.108057 0.005441 0.048609
v 0.108330 0.005441 0.048327
v 0.109377 -0.004929 0.048327
v 0.106001 0.005967 0.050942
v 0.106001 0.006516 0.050942
v 0.107460 0.006446 0.049468
v 0.108611 0.006096 0.048327
v 0.109966 -0.006375 0.048327
v 0.109026 -0.005833 0.049500
v 0.100094 -0.005816 0.064215
v 0.109290 -0.004917 0.048463
v 0.101602 0.007473 0.056895
v 0.106265 0.007502 0.051363
v 0.106864 0.006975 0.050380
v 0.101602 0.007740 0.056895
v 0.107781 0.007432 0.049815
v 0.108385 0.006886 0.048910
v 0.109007 0.006861 0.048327
v 0.108792 0.006519 0.048327
v 0.110237 -0.006957 0.048327
v 0.109233 -0.006819 0.049854
v 0.109573 -0.006353 0.048956
v 0.098540 -0.005867 0.066974
v 0.107595 -0.004265 0.051063
v 0.108943 -0.007278 0.050843
v 0.100780 0.006922 0.059246
v 0.101294 0.007808 0.057765
v 0.107253 0.007818 0.050801
v 0.108769 0.007878 0.049338
v 0.103017 0.007760 0.055319
v 0.111871 0.008359 0.048327
v 0.109349 0.007315 0.048327
v 0.110438 -0.007287 0.048327
v 0.099794 -0.006126 0.065160
v 0.100480 -0.006865 0.065160
v 0.100313 -0.007085 0.066643
v 0.098540 -0.005867 0.067666
v 0.098540 -0.005394 0.066974
v 0.100169 0.006133 0.061281
v 0.110266 -0.007440 0.048887
v 0.101513 -0.007277 0.064141
v 0.100169 0.006434 0.061281
v 0.100424 0.006926 0.060762
v 0.101020 0.007851 0.059246
v 0.109832 0.008043 0.048859
v 0.110393 0.008065 0.048327
v 0.110108 0.007951 0.048327
v 0.117234 0.008747 0.048885
v 0.115754 0.008558 0.048327
v 0.102437 0.008012 0.060721
v 0.111343 -0.007661 0.048327
v 0.101223 -0.007401 0.065160
v 0.101053 -0.007445 0.066643
v 0.101162 -0.007414 0.068122
v 0.100421 -0.006974 0.068122
v 0.099943 -0.005976 0.069122
v 0.099863 0.005441 0.069346
v 0.098540 -0.005394 0.067666
v 0.101390 -0.007309 0.069157
v 0.099596 0.005441 0.068122
v 0.099926 0.006681 0.063683
v 0.100058 0.006623 0.062202
v 0.109771 -0.007617 0.050354
v 0.101074 0.007861 0.060721
v 0.102437 0.008070 0.066641
v 0.100447 0.007363 0.062202
v 0.100527 0.007420 0.063683
v 0.118377 0.008085 0.050364
v 0.118613 0.008216 0.048885
v 0.118519 0.008099 0.048327
v 0.117854 0.008352 0.048327
v 0.117225 0.008543 0.048327
v 0.103917 0.008116 0.066641
v 0.103917 0.008027 0.068122
v 0.105398 0.007978 0.068122
v 0.106272 0.007747 0.069083
v 0.107654 0.007684 0.067423
v 0.111315 -0.007763 0.048887
v 0.117267 -0.008162 0.048327
v 0.109839 -0.007928 0.051845
v 0.110565 -0.008623 0.055476
v 0.102437 -0.007758 0.068122
v 0.100931 -0.006452 0.069636
v 0.101461 -0.005942 0.070566
v 0.101499 0.006336 0.070460
v 0.100063 0.006363 0.069092
v 0.102984 -0.005825 0.071971
v 0.102984 -0.005275 0.071971
v 0.102430 -0.007506 0.069631
v 0.102913 -0.007304 0.070518
v 0.101928 -0.006928 0.070143
v 0.099955 0.006490 0.068122
v 0.099910 0.006565 0.066641
v 0.099886 0.006640 0.065162
v 0.101430 0.007823 0.068122
v 0.101378 0.007840 0.066641
v 0.102437 0.008009 0.068122
v 0.100589 0.007380 0.065162
v 0.119118 0.007223 0.050364
v 0.119351 0.007519 0.048885
v 0.110622 0.007694 0.063012
v 0.113583 0.007698 0.058577
v 0.116534 0.007694 0.054125
v 0.118116 0.007815 0.051340
v 0.119551 0.007191 0.048327
v 0.103823 0.007788 0.069742
v 0.104712 0.007675 0.070395
v 0.105285 0.007779 0.069587
v 0.105699 0.007482 0.070071
v 0.106822 0.006907 0.069552
v 0.107762 0.006330 0.069039
v 0.109426 0.006563 0.066354
v 0.118227 -0.008156 0.048327
v 0.110598 -0.008623 0.055476
v 0.110565 -0.008623 0.055638
v 0.103917 -0.007615 0.069601
v 0.110598 -0.008623 0.055638
v 0.102437 0.006665 0.070705
v 0.103267 0.007658 0.070330
v 0.102437 0.007405 0.070080
v 0.101543 0.007760 0.069018
v 0.101027 0.006842 0.069548
v 0.100690 0.007230 0.068122
v 0.103917 -0.007287 0.070504
v 0.103917 -0.006527 0.071242
v 0.103917 -0.005787 0.071936
v 0.103917 -0.005362 0.071936
v 0.103823 0.007068 0.070886
v 0.100638 0.007305 0.066641
v 0.102437 0.007810 0.069340
v 0.119504 0.006242 0.051188
v 0.119636 0.006484 0.050364
v 0.120289 0.005441 0.050364
v 0.120867 0.005227 0.048327
v 0.110987 0.006886 0.063577
v 0.110737 0.006368 0.064662
v 0.116847 0.006863 0.054694
v 0.118224 0.006487 0.052981
v 0.118663 0.006858 0.051757
v 0.113936 0.006878 0.059140
v 0.113684 0.006356 0.060207
v 0.114995 0.006157 0.058476
v 0.104254 0.007675 0.070395
v 0.105285 0.006961 0.070805
v 0.106385 0.006495 0.070573
v 0.110820 0.004997 0.066171
v 0.112145 0.004807 0.064551
v 0.110414 0.005984 0.065650
v 0.118717 -0.008076 0.048327
v 0.118717 -0.008033 0.048887
v 0.107783 -0.007226 0.067694
v 0.106393 -0.007192 0.069071
v 0.104790 -0.007171 0.070381
v 0.111315 -0.008207 0.057765
v 0.104665 -0.005663 0.071828
v 0.104665 -0.005646 0.071828
v 0.105398 0.005727 0.070881
v 0.119210 0.005877 0.052173
v 0.119608 0.004890 0.052822
v 0.119813 0.005407 0.051745
v 0.120848 0.004481 0.050364
v 0.121204 0.004467 0.048327
v 0.111798 0.005883 0.063683
v 0.116614 0.006329 0.055728
v 0.112430 0.005144 0.063683
v 0.113771 0.004987 0.061832
v 0.115072 0.004773 0.060075
v 0.115336 0.005108 0.059246
v 0.116298 0.005933 0.056717
v 0.106385 0.005951 0.070573
v 0.110820 0.004362 0.066171
v 0.112229 0.003964 0.064625
v 0.113568 0.003375 0.062996
v 0.113453 0.004363 0.062818
v 0.119683 -0.007457 0.048327
v 0.119655 -0.007428 0.048887
v 0.108014 -0.006396 0.067932
v 0.107397 -0.006396 0.068673
v 0.106180 -0.005797 0.070388
v 0.105777 -0.006784 0.070057
v 0.119471 -0.007154 0.049646
v 0.115070 -0.005700 0.058591
v 0.112128 -0.005745 0.063040
v 0.117145 0.005327 0.056143
v 0.117991 0.004720 0.055569
v 0.119292 0.004270 0.053807
v 0.120544 0.003967 0.051822
v 0.121018 0.003474 0.051310
v 0.121105 0.003743 0.050364
v 0.121357 0.004032 0.048327
v 0.119476 0.003282 0.054097
v 0.116690 0.004946 0.057328
v 0.112199 0.003136 0.064563
v 0.113568 0.003195 0.062996
v 0.116525 0.003324 0.058550
v 0.121711 -0.004502 0.048327
v 0.121423 -0.004859 0.048887
v 0.121180 -0.004548 0.050366
v 0.120619 -0.005289 0.050366
v 0.110770 -0.005906 0.064678
v 0.120978 -0.004233 0.051160
v 0.119726 0.003852 0.053321
v 0.121074 0.002483 0.051380
v 0.122623 -0.002212 0.048327
v 0.119476 0.003204 0.054097
v 0.116525 0.003197 0.058550
v 0.122611 -0.002990 0.048327
v 0.122595 -0.002982 0.048380
v 0.121098 -0.000477 0.051280
v 0.121103 0.001004 0.051331
v 0.122623 -0.002914 0.048327
v 0.121100 0.000060 0.051301
f 25 38 39
f 37 38 25
f 60 39 59
f 90 59 89
f 59 90 87
f 87 90 120
f 123 125 88
f 59 87 88
f 36 37 25
f 50 76 77
f 113 147 148
f 50 51 33
f 50 73 74
f 74 51 50
f 192 190 206
f 124 87 123
f 123 88 124
f 124 88 87
f 10 11 5
f 11 12 5
f 97 125 123
f 50 33 52
f 38 37 54
f 59 39 58
f 57 39 38
f 38 56 57
f 173 172 181
f 181 172 157
f 157 128 155
f 152 153 156
f 156 119 152
f 72 73 50
f 50 71 72
f 70 71 50
f 70 104 105
f 103 104 70
f 50 79 70
f 79 103 70
f 112 113 79
f 147 113 112
f 147 159 158
f 206 190 205
f 148 173 174
f 174 181 195
f 173 181 174
f 190 192 191
f 26 12 14
f 14 12 25
f 24 11 10
f 24 12 11
f 64 44 40
f 40 63 64
f 17 14 29
f 29 33 17
f 62 60 59
f 59 88 62
f 62 40 60
f 63 40 62
f 98 97 67
f 50 52 67
f 178 153 152
f 178 183 153
f 185 153 184
f 153 183 184
f 184 203 185
f 200 203 201
f 201 178 200
f 183 178 201
f 203 184 201
f 201 184 183
f 55 56 38
f 38 54 55
f 89 59 86
f 59 58 86
f 86 58 85
f 61 57 56
f 39 57 61
f 61 58 39
f 85 58 61
f 179 153 185
f 127 155 128
f 127 128 89
f 92 61 91
f 118 156 153
f 119 156 118
f 92 91 118
f 182 181 157
f 157 155 182
f 153 181 182
f 78 79 50
f 50 77 78
f 78 112 79
f 123 87 122
f 146 159 147
f 107 72 71
f 106 70 105
f 149 113 148
f 148 174 149
f 149 174 175
f 206 205 212
f 196 174 195
f 175 174 196
f 195 181 196
f 196 181 185
f 185 203 196
f 196 203 208
f 47 33 48
f 32 15 17
f 32 30 15
f 17 33 32
f 33 47 32
f 31 47 48
f 15 30 31
f 30 32 31
f 31 32 47
f 26 14 13
f 13 14 5
f 13 12 26
f 13 5 12
f 5 14 6
f 45 44 64
f 45 29 44
f 44 29 28
f 28 14 25
f 28 29 14
f 64 63 46
f 46 45 64
f 29 45 46
f 46 67 52
f 46 52 33
f 33 29 46
f 99 97 123
f 99 67 97
f 123 132 99
f 75 76 50
f 50 67 75
f 75 99 76
f 67 99 75
f 53 42 35
f 43 54 37
f 82 54 65
f 65 42 53
f 54 43 65
f 65 43 42
f 115 151 152
f 152 119 115
f 53 81 80
f 82 65 80
f 80 65 53
f 93 61 92
f 85 61 93
f 93 92 89
f 89 86 93
f 93 86 85
f 185 181 202
f 202 179 185
f 181 179 202
f 180 181 153
f 153 179 180
f 180 179 181
f 119 118 84
f 84 118 91
f 56 55 84
f 84 61 56
f 84 91 61
f 154 118 153
f 155 118 154
f 153 182 154
f 154 182 155
f 92 118 126
f 126 118 155
f 155 127 126
f 89 92 126
f 126 127 89
f 110 78 77
f 109 78 110
f 110 77 76
f 76 109 110
f 147 112 111
f 112 78 111
f 111 78 109
f 111 146 147
f 109 146 111
f 123 122 121
f 121 132 123
f 121 87 120
f 121 122 87
f 120 90 130
f 130 121 120
f 130 146 109
f 129 158 159
f 159 146 129
f 129 130 90
f 146 130 129
f 71 70 102
f 102 107 71
f 105 139 140
f 140 139 161
f 105 104 138
f 168 149 169
f 169 149 176
f 176 149 175
f 193 205 190
f 169 176 193
f 161 188 189
f 49 31 48
f 34 31 49
f 15 31 18
f 18 31 34
f 18 16 15
f 8 16 18
f 7 8 4
f 7 16 8
f 17 15 7
f 15 16 7
f 41 28 25
f 44 28 41
f 94 62 88
f 94 95 62
f 94 88 125
f 100 95 94
f 63 62 96
f 62 95 96
f 66 97 98
f 98 67 66
f 67 46 66
f 108 99 132
f 132 121 108
f 108 109 76
f 76 99 108
f 152 151 177
f 177 178 152
f 200 178 199
f 198 209 199
f 199 209 200
f 199 177 198
f 178 177 199
f 23 24 10
f 12 24 23
f 27 36 25
f 25 12 27
f 37 36 27
f 12 23 27
f 27 23 35
f 27 35 42
f 27 43 37
f 42 43 27
f 81 115 116
f 116 115 119
f 107 102 136
f 101 102 70
f 70 106 101
f 106 133 101
f 160 140 161
f 161 133 160
f 141 133 106
f 141 106 105
f 105 140 141
f 140 160 141
f 141 160 133
f 187 188 161
f 169 193 187
f 187 193 188
f 161 139 166
f 149 168 144
f 144 139 105
f 144 166 139
f 171 166 144
f 144 168 169
f 137 104 103
f 137 138 104
f 114 103 79
f 79 113 114
f 114 137 103
f 138 137 114
f 204 193 190
f 188 193 204
f 190 189 204
f 204 189 188
f 207 212 205
f 205 193 207
f 214 212 207
f 207 211 214
f 203 211 207
f 208 203 207
f 197 176 175
f 197 193 176
f 162 133 161
f 161 189 162
f 162 189 190
f 4 8 9
f 8 21 9
f 20 21 8
f 20 18 34
f 4 1 3
f 3 7 4
f 131 94 125
f 100 94 131
f 125 97 131
f 97 100 131
f 68 46 63
f 63 96 68
f 109 108 145
f 145 108 121
f 145 130 109
f 121 130 145
f 210 203 200
f 200 209 210
f 210 211 203
f 214 211 210
f 210 212 214
f 22 23 10
f 35 23 22
f 83 80 81
f 81 116 83
f 82 80 83
f 83 54 82
f 83 55 54
f 83 84 55
f 135 136 102
f 133 162 135
f 186 187 161
f 161 166 186
f 186 166 171
f 105 138 142
f 170 144 169
f 171 144 170
f 170 186 171
f 138 114 150
f 150 165 138
f 113 149 150
f 150 114 113
f 8 18 19
f 19 20 8
f 18 20 19
f 6 7 2
f 7 3 2
f 2 3 1
f 2 1 5
f 5 6 2
f 69 68 96
f 69 95 100
f 69 96 95
f 69 100 97
f 97 66 69
f 69 66 46
f 46 68 69
f 206 212 213
f 212 210 213
f 213 210 209
f 119 84 117
f 84 83 117
f 102 101 134
f 134 135 102
f 134 101 133
f 133 135 134
f 136 135 163
f 190 191 163
f 163 162 190
f 163 135 162
f 164 136 163
f 163 192 164
f 163 191 192
f 169 187 194
f 187 186 194
f 194 170 169
f 186 170 194
f 149 144 167
f 144 165 167
f 167 150 149
f 165 150 167
f 138 165 143
f 143 165 144
f 143 142 138
f 143 144 105
f 105 142 143
f 172 173 148
f 148 147 172
f 158 172 147
f 157 172 158
f 39 60 40
f 25 39 40
f 157 158 129
f 129 128 157
f 129 90 89
f 89 128 129
f 7 6 14
f 7 14 17
f 25 40 41
f 41 40 44
f 175 196 197
f 197 196 208
f 208 207 197
f 197 207 193
f 213 74 73
f 213 192 206
f 213 22 10
f 10 5 213
f 48 33 213
f 213 177 151
f 73 72 213
f 213 33 51
f 51 74 213
f 164 192 213
f 213 49 48
f 213 136 164
f 213 20 34
f 151 115 213
f 213 81 53
f 72 107 213
f 213 1 4
f 53 35 213
f 213 115 81
f 4 9 213
f 34 49 213
f 5 1 213
f 198 177 213
f 213 209 198
f 107 136 213
f 213 9 21
f 21 20 213
f 35 22 213
f 117 83 116
f 117 116 119
