v 0.116204 0.010282 0.006046
v 0.126116 0.007588 0.006046
v 0.126116 0.007584 0.005957
v 0.126116 0.007441 0.004477
v 0.124635 0.007432 0.001519
v 0.116061 0.010282 0.005842
v 0.110242 0.010282 0.006046
v 0.127676 0.006950 0.006046
v 0.125889 0.006770 0.001519
v 0.115854 0.010282 0.005561
v 0.125636 0.006529 0.000322
v 0.124730 0.006710 -0.000087
v 0.120200 0.007233 -0.001691
v 0.108458 0.010281 0.000322
v 0.113761 0.010282 0.003588
v 0.114205 0.010282 0.003948
v 0.115316 0.010282 0.004931
v 0.110242 0.010282 0.001621
v 0.104012 0.010281 0.002731
v 0.109622 0.010281 0.006046
v 0.128018 0.006747 0.006046
v 0.125284 0.006129 -0.000664
v 0.129124 0.005609 0.006046
v 0.128506 0.004898 0.003385
v 0.122863 0.006320 -0.001691
v 0.118737 0.007519 -0.001691
v 0.106893 0.010281 -0.000482
v 0.106188 0.010281 -0.000717
v 0.105432 0.010281 -0.000839
v 0.104012 0.010281 -0.001042
v 0.104012 0.005795 0.006046
v 0.126920 0.004797 0.000691
v 0.125575 0.005141 -0.000962
v 0.124546 0.005363 -0.001691
v 0.123964 0.005774 -0.001691
v 0.123310 0.006102 -0.001691
v 0.129221 0.005496 0.006046
v 0.129244 0.005425 0.006046
v 0.129818 0.000268 0.005212
v 0.128171 0.003961 0.002596
v 0.118482 0.007568 -0.001691
v 0.104012 0.008479 -0.001691
v 0.117777 0.007646 -0.001691
v 0.117062 0.007698 -0.001691
v 0.104012 -0.001411 0.006046
v 0.126913 0.003961 0.000701
v 0.127487 0.003961 0.001519
v 0.124676 -0.000516 -0.001691
v 0.124676 -0.000051 -0.001691
v 0.124612 0.004009 -0.001691
v 0.130028 0.000504 0.006046
v 0.130094 -0.000352 0.006046
v 0.129818 0.000245 0.005212
v 0.104012 -0.005281 -0.001691
v 0.104012 -0.004869 0.004465
v 0.104587 -0.004325 0.005267
v 0.105399 -0.004602 0.005414
v 0.107058 -0.003251 0.006046
v 0.125391 -0.001255 -0.000724
v 0.124395 -0.001709 -0.001691
v 0.130035 -0.000340 0.005904
v 0.130010 -0.000705 0.006046
v 0.129703 -0.000741 0.005375
v 0.129297 -0.000340 0.004622
v 0.128005 -0.000477 0.002798
v 0.104012 -0.005382 -0.001485
v 0.112619 -0.007532 -0.001691
v 0.104012 -0.005658 0.003841
v 0.105399 -0.005343 0.004700
v 0.106877 -0.005518 0.004811
v 0.106877 -0.004779 0.005499
v 0.108504 -0.003540 0.006046
v 0.125148 -0.002240 -0.000383
v 0.124587 -0.001843 -0.001361
v 0.127140 -0.001471 0.001926
v 0.124153 -0.002148 -0.001691
v 0.129872 -0.001274 0.006046
v 0.104012 -0.005889 0.000165
v 0.112819 -0.007580 -0.001691
v 0.104012 -0.005680 0.003794
v 0.118719 -0.006906 0.002998
v 0.118719 -0.006199 0.004075
v 0.124635 -0.004387 0.006046
v 0.109926 -0.003763 0.006046
v 0.125496 -0.002843 0.000603
v 0.124163 -0.003006 -0.001013
v 0.123877 -0.002613 -0.001691
v 0.129402 -0.001687 0.006046
v 0.121763 -0.006229 0.000073
v 0.122314 -0.005518 -0.000398
v 0.104012 -0.005960 0.001517
v 0.114031 -0.007828 -0.001691
v 0.104012 -0.005832 0.003057
v 0.114279 -0.007810 -0.001442
v 0.120195 -0.006967 0.001519
v 0.120195 -0.006738 0.002998
v 0.125376 -0.004362 0.006046
v 0.115760 -0.007745 -0.001442
v 0.121326 -0.006078 -0.001126
v 0.122748 -0.004533 -0.001169
v 0.122562 -0.004331 -0.001691
v 0.123090 -0.003687 -0.001691
v 0.126198 -0.004072 0.006046
v 0.121786 -0.006247 0.001509
v 0.120195 -0.006936 0.000039
v 0.119204 -0.007245 -0.001691
v 0.119878 -0.006917 -0.001691
v 0.104012 -0.005960 0.001618
v 0.115760 -0.007754 -0.001691
v 0.117238 -0.007596 -0.001691
v 0.118615 -0.007371 -0.001691
v 0.126019 -0.004160 0.006046
v 0.121847 -0.005059 -0.001691
v 0.120295 -0.006554 -0.001691
f 19 31 20
f 14 5 13
f 17 5 16
f 10 5 17
f 33 34 22
f 81 70 80
f 57 70 71
f 71 58 57
f 82 81 97
f 82 70 81
f 81 98 95
f 95 98 110
f 75 77 85
f 57 58 45
f 1 4 5
f 50 34 33
f 13 5 12
f 12 25 13
f 22 25 12
f 92 93 108
f 94 80 93
f 94 93 92
f 81 80 94
f 94 98 81
f 69 70 57
f 83 82 97
f 70 82 83
f 83 71 70
f 83 84 71
f 110 98 109
f 109 94 92
f 98 94 109
f 104 103 112
f 112 95 104
f 85 101 86
f 60 48 59
f 57 45 56
f 3 1 2
f 4 1 3
f 19 20 7
f 6 5 10
f 6 1 5
f 42 30 44
f 30 43 44
f 41 43 30
f 14 18 15
f 16 5 15
f 5 14 15
f 28 18 27
f 27 18 14
f 27 41 28
f 52 39 51
f 77 75 63
f 75 59 63
f 33 22 32
f 32 22 24
f 5 4 9
f 33 48 49
f 49 50 33
f 35 22 34
f 54 67 66
f 66 67 78
f 92 78 79
f 78 67 79
f 91 78 92
f 92 108 91
f 68 80 70
f 70 69 68
f 68 69 57
f 57 56 68
f 58 71 72
f 71 84 72
f 111 95 110
f 111 106 95
f 95 106 105
f 96 112 97
f 95 112 96
f 97 81 96
f 81 95 96
f 101 99 113
f 100 101 85
f 85 99 100
f 100 99 101
f 107 99 89
f 89 103 104
f 89 106 107
f 89 105 106
f 104 95 89
f 95 105 89
f 89 88 103
f 77 88 89
f 8 3 2
f 4 3 8
f 8 9 4
f 21 9 8
f 26 14 13
f 26 27 14
f 41 27 26
f 28 41 29
f 29 41 30
f 30 18 29
f 29 18 28
f 38 51 39
f 38 24 37
f 38 39 24
f 64 59 65
f 64 63 59
f 24 39 40
f 40 32 24
f 46 59 48
f 46 48 33
f 33 32 46
f 11 9 21
f 24 22 11
f 22 12 11
f 11 12 5
f 5 9 11
f 36 25 22
f 22 35 36
f 55 56 45
f 55 68 56
f 102 86 101
f 102 87 86
f 85 86 73
f 86 87 73
f 73 75 85
f 73 59 75
f 114 99 107
f 114 113 99
f 77 89 90
f 90 89 99
f 85 77 90
f 90 99 85
f 62 61 52
f 77 63 62
f 63 61 62
f 53 39 52
f 52 61 53
f 53 61 63
f 63 64 53
f 53 64 65
f 65 59 53
f 59 46 53
f 53 40 39
f 32 40 47
f 47 46 32
f 40 53 47
f 47 53 46
f 23 11 21
f 37 24 23
f 24 11 23
f 76 73 87
f 74 76 60
f 73 76 74
f 60 59 74
f 59 73 74
f 7 30 19
f 7 18 30
f 10 17 15
f 15 17 16
f 15 7 1
f 15 6 10
f 18 7 15
f 1 6 15
f 42 54 55
f 19 30 55
f 55 31 19
f 55 108 93
f 55 30 42
f 55 45 31
f 93 80 55
f 78 91 55
f 54 66 55
f 55 66 78
f 55 91 108
f 80 68 55
f 31 45 23
f 103 88 23
f 23 7 20
f 2 1 23
f 23 38 37
f 23 20 31
f 23 83 97
f 58 72 23
f 23 45 58
f 97 112 23
f 23 62 52
f 52 51 23
f 84 83 23
f 23 112 103
f 1 7 23
f 23 8 2
f 23 72 84
f 23 88 77
f 21 8 23
f 51 38 23
f 77 62 23
f 76 111 110
f 13 25 76
f 34 50 76
f 76 54 42
f 76 48 60
f 76 35 34
f 76 109 92
f 42 44 76
f 76 114 107
f 107 106 76
f 76 102 101
f 76 49 48
f 76 67 54
f 110 109 76
f 92 79 76
f 76 44 43
f 43 41 76
f 50 49 76
f 76 26 13
f 76 79 67
f 106 111 76
f 25 36 76
f 101 113 76
f 41 26 76
f 76 36 35
f 87 102 76
f 113 114 76
