v 0.001792 0.017029 -0.002921
v 0.001986 0.017025 -0.003116
v 0.001792 0.017029 -0.003116
v 0.000311 0.016973 -0.002921
v 0.001792 0.017012 -0.001441
v 0.003266 0.016960 -0.003116
v 0.000311 0.016973 -0.003116
v -0.001167 0.016895 -0.003116
v -0.001167 0.016891 -0.002921
v 0.003266 0.016712 -0.000263
v 0.003266 0.016901 -0.001441
v 0.000311 0.016888 -0.001441
v 0.001792 0.016771 -0.000105
v 0.003460 0.016927 -0.003116
v -0.003716 0.016663 -0.003116
v 0.004135 0.016597 -0.000574
v 0.000311 0.015352 0.005620
v 0.001242 0.015222 0.005436
v 0.011734 0.015124 -0.003116
v 0.000311 0.016676 -0.000358
v -0.001156 0.016695 -0.001406
v 0.000311 0.015640 0.004478
v -0.004127 0.016604 -0.003116
v -0.002339 0.016623 -0.001876
v 0.000311 0.014323 0.006196
v -0.000818 0.015294 0.005535
v 0.012145 0.008258 0.005746
v 0.013181 0.008010 0.005548
v 0.012576 0.014725 -0.003116
v 0.012142 0.014950 -0.003116
v -0.005446 0.016372 -0.003116
v 0.000311 0.012843 0.006302
v 0.012145 0.006912 0.006317
v -0.011532 0.006919 0.006347
v -0.006877 0.016101 -0.003116
v -0.007094 0.016058 -0.003116
v -0.008153 0.015133 -0.000511
v -0.009333 0.013604 0.000788
v -0.013014 0.008004 0.005514
v 0.013360 0.006912 0.005722
v 0.022382 0.002478 -0.003115
v 0.021789 0.003968 -0.003115
v 0.020148 0.006223 -0.003115
v 0.016385 0.011167 -0.003116
v 0.016218 0.011363 -0.003116
v 0.015768 0.011879 -0.003116
v 0.014760 0.012938 -0.003116
v 0.013084 0.014356 -0.003116
v 0.012145 -0.006393 0.006289
v 0.013348 -0.006393 0.005718
v -0.011532 -0.006397 0.006354
v 0.000311 -0.013795 0.006327
v -0.013014 0.006919 0.005890
v -0.008351 0.015588 -0.003116
v -0.009166 0.015016 -0.001441
v -0.008425 0.015267 -0.001441
v -0.009620 0.013934 0.000040
v -0.013770 0.007687 0.005254
v 0.017351 0.009804 -0.003116
v 0.013177 -0.007870 0.005534
v 0.012917 -0.008642 0.005270
v 0.014515 -0.010612 -0.003115
v 0.012145 -0.007870 0.005997
v -0.013149 -0.006295 0.005744
v -0.012987 -0.007812 0.005663
v -0.011532 -0.007874 0.006057
v -0.001167 -0.013795 0.005997
v -0.001167 -0.014879 0.005541
v 0.000311 -0.015079 0.005747
v -0.013809 0.006919 0.005335
v -0.013809 0.006076 0.005339
v -0.013821 -0.006720 0.005337
v -0.013821 -0.007279 0.005337
v -0.008533 0.015490 -0.003116
v -0.009278 0.015035 -0.002921
v -0.009918 0.014274 -0.001441
v -0.016741 0.004746 -0.000589
v -0.016869 0.003821 -0.000042
v -0.016714 0.003233 0.000781
v -0.010659 0.013402 -0.001441
v 0.014194 -0.011138 -0.003115
v 0.013585 -0.011939 -0.003115
v 0.013422 -0.012141 -0.003115
v -0.008274 -0.015458 -0.003116
v 0.001370 -0.014860 0.005565
v 0.011548 -0.013193 -0.000440
v -0.012478 -0.008733 0.005450
v 0.000311 -0.015628 0.004476
v -0.009569 -0.014696 -0.000319
v -0.016714 0.003197 0.000781
v -0.016912 0.002612 0.000087
v -0.016815 0.001331 -0.000374
v -0.016691 0.000344 -0.000991
v -0.015217 -0.005593 -0.000917
v -0.015066 -0.006289 -0.001423
v -0.014488 -0.007874 -0.001442
v -0.013883 -0.008821 -0.000295
v -0.012257 -0.011550 -0.000894
v -0.010946 -0.013288 -0.000313
v -0.009278 0.015035 -0.003116
v -0.009945 0.014297 -0.002921
v -0.010686 0.013451 -0.002921
v -0.015508 0.006569 -0.001440
v -0.015535 0.006608 -0.002921
v -0.015535 0.006612 -0.003115
v -0.016745 0.004749 -0.001440
v -0.017067 0.003962 -0.001440
v -0.017222 0.002478 -0.001440
v -0.011330 0.012585 -0.003116
v 0.011703 -0.013239 -0.001440
v 0.012440 -0.012850 -0.003115
v -0.001361 -0.016252 -0.003115
v -0.002839 -0.016353 -0.003115
v -0.004402 -0.016232 -0.003115
v -0.005609 -0.016088 -0.003115
v -0.006218 -0.016010 -0.003115
v -0.006959 -0.015905 -0.003115
v -0.007063 -0.015883 -0.003115
v -0.007137 -0.015860 -0.003115
v -0.008572 -0.015356 -0.003116
v 0.011734 -0.013229 -0.003115
v 0.010664 -0.013494 -0.003115
v 0.003270 -0.015180 -0.003115
v 0.003166 -0.015200 -0.003115
v 0.007083 -0.014559 -0.000562
v 0.010664 -0.013631 -0.001440
v -0.008572 -0.015203 -0.001442
v -0.007090 -0.015853 -0.002970
v -0.000209 -0.016036 -0.000599
v 0.000625 -0.015938 -0.001440
v -0.010430 -0.014174 -0.001442
v -0.009689 -0.014775 -0.001442
v -0.016873 0.000903 -0.001466
v -0.017063 0.001001 -0.003116
v -0.015252 -0.005727 -0.001904
v -0.015035 -0.006557 -0.002921
v -0.015287 -0.005818 -0.002921
v -0.013945 -0.008949 -0.001442
v -0.014464 -0.007874 -0.003116
v -0.014399 -0.008014 -0.003116
v -0.013929 -0.008958 -0.003116
v -0.013502 -0.009690 -0.001442
v -0.012684 -0.010968 -0.001408
v -0.011881 -0.012193 -0.001408
v -0.011055 -0.013435 -0.001442
v -0.010042 0.014186 -0.003116
v -0.010686 0.013454 -0.003116
v -0.015469 0.006710 -0.003115
v -0.016299 0.005331 -0.003115
v -0.016722 0.004720 -0.002273
v -0.013274 0.009804 -0.003116
v -0.016928 0.004033 -0.002829
v -0.016982 0.003749 -0.003115
v -0.017238 0.002478 -0.003115
v -0.017242 0.002478 -0.002921
v -0.017234 0.002285 -0.003115
v -0.011974 0.011670 -0.003116
v -0.001167 -0.016222 -0.003115
v -0.000116 -0.016069 -0.001440
v -0.008572 -0.015353 -0.002921
v -0.009658 -0.014758 -0.002921
v -0.009651 -0.014752 -0.003116
v 0.009182 -0.014000 -0.001440
v 0.007083 -0.014559 -0.000839
v -0.000275 -0.016056 -0.003115
v -0.000384 -0.016079 -0.003115
v -0.010500 -0.014115 -0.003116
v -0.010399 -0.014210 -0.002921
v -0.011121 -0.013468 -0.002921
v -0.011129 -0.013471 -0.003116
v -0.015539 -0.004913 -0.003116
v -0.017079 0.001138 -0.003116
v -0.015291 -0.005828 -0.003116
v -0.015070 -0.006469 -0.003116
v -0.013596 -0.009602 -0.003116
v -0.013464 -0.009847 -0.003116
v -0.012812 -0.010958 -0.003116
v -0.012354 -0.011697 -0.003116
v -0.012347 -0.011687 -0.002921
v -0.011862 -0.012425 -0.002921
v -0.011869 -0.012438 -0.003116
v -0.016672 0.004595 -0.003115
v -0.016920 0.003965 -0.003115
v -0.010392 -0.014210 -0.003116
f 59 83 84
f 68 88 69
f 52 68 69
f 52 67 68
f 33 34 51
f 51 52 33
f 85 86 61
f 69 88 85
f 88 86 85
f 88 68 89
f 60 61 41
f 41 50 60
f 53 39 58
f 34 39 53
f 58 70 53
f 53 70 71
f 51 34 53
f 50 33 49
f 49 33 52
f 49 60 50
f 57 55 58
f 37 55 57
f 58 39 57
f 58 77 78
f 80 77 58
f 154 172 156
f 154 156 155
f 182 151 172
f 172 183 182
f 107 78 77
f 107 154 155
f 62 59 41
f 62 81 59
f 41 61 62
f 61 81 62
f 83 59 82
f 59 81 82
f 82 81 61
f 61 86 82
f 82 86 83
f 113 88 114
f 114 84 113
f 83 86 110
f 88 89 127
f 68 67 66
f 66 52 51
f 67 52 66
f 34 33 32
f 32 25 34
f 33 25 32
f 63 49 52
f 60 49 63
f 61 60 63
f 63 85 61
f 63 52 69
f 69 85 63
f 27 25 33
f 33 28 27
f 42 28 41
f 43 28 42
f 41 59 42
f 40 33 50
f 40 28 33
f 40 50 41
f 41 28 40
f 37 57 38
f 38 57 39
f 58 78 79
f 79 70 58
f 71 70 79
f 58 55 76
f 76 80 58
f 77 80 103
f 153 183 172
f 172 154 153
f 154 107 153
f 105 151 149
f 151 182 149
f 106 107 77
f 106 77 105
f 107 106 150
f 150 149 182
f 105 149 150
f 150 106 105
f 169 170 131
f 115 114 88
f 84 114 115
f 83 110 111
f 111 110 121
f 84 83 111
f 111 121 84
f 125 86 88
f 128 117 88
f 88 127 128
f 87 89 68
f 68 66 87
f 91 73 90
f 90 79 91
f 91 79 78
f 51 53 64
f 53 73 64
f 55 36 54
f 56 55 37
f 37 36 56
f 56 36 55
f 26 36 37
f 37 38 26
f 26 38 39
f 26 25 17
f 26 39 34
f 34 25 26
f 11 5 10
f 11 19 14
f 17 10 13
f 10 5 13
f 18 10 17
f 30 19 18
f 18 27 28
f 17 25 18
f 25 27 18
f 44 28 43
f 43 42 44
f 44 42 59
f 28 47 48
f 71 79 72
f 72 53 71
f 72 73 53
f 105 77 104
f 77 103 104
f 107 150 152
f 183 153 152
f 152 153 107
f 152 182 183
f 152 150 182
f 181 170 169
f 73 95 96
f 99 131 89
f 89 87 99
f 99 87 73
f 156 172 134
f 88 117 116
f 116 115 88
f 116 117 84
f 84 115 116
f 126 110 86
f 86 125 126
f 121 110 126
f 127 119 118
f 118 128 127
f 117 128 118
f 84 117 118
f 118 119 84
f 65 87 66
f 73 87 65
f 65 66 51
f 51 64 65
f 65 64 73
f 55 54 74
f 31 26 23
f 16 11 10
f 19 11 16
f 10 18 16
f 16 18 19
f 22 26 17
f 17 13 22
f 46 47 28
f 28 48 29
f 29 18 28
f 30 18 29
f 146 101 100
f 147 101 146
f 100 101 75
f 75 101 76
f 75 76 55
f 75 74 100
f 55 74 75
f 148 151 105
f 105 104 148
f 98 99 73
f 132 127 89
f 89 131 132
f 135 134 171
f 135 95 94
f 94 134 135
f 94 95 73
f 164 126 125
f 129 88 113
f 130 125 88
f 88 129 130
f 130 129 159
f 130 164 125
f 36 26 35
f 26 31 35
f 6 11 14
f 5 11 6
f 4 9 5
f 7 8 4
f 4 8 9
f 23 26 24
f 26 21 24
f 20 21 26
f 26 22 20
f 20 22 13
f 28 44 45
f 45 46 28
f 109 148 104
f 109 104 103
f 109 103 80
f 178 181 179
f 145 181 169
f 99 98 145
f 169 131 145
f 131 99 145
f 73 96 97
f 97 98 73
f 167 131 170
f 84 119 120
f 161 184 162
f 162 120 161
f 161 120 132
f 137 171 173
f 135 171 137
f 137 95 135
f 73 91 92
f 121 126 163
f 126 164 163
f 158 130 159
f 5 6 2
f 9 8 15
f 23 24 15
f 15 24 21
f 21 20 12
f 12 15 21
f 12 13 5
f 12 20 13
f 5 9 12
f 9 15 12
f 151 148 157
f 148 109 157
f 147 109 102
f 102 109 80
f 80 76 102
f 76 101 102
f 102 101 147
f 96 139 140
f 140 141 96
f 136 174 139
f 136 139 96
f 136 96 95
f 95 137 136
f 173 174 136
f 136 137 173
f 180 179 181
f 181 145 180
f 142 177 178
f 178 179 142
f 98 97 142
f 168 167 184
f 131 167 168
f 168 132 131
f 184 161 168
f 168 161 132
f 127 132 160
f 132 120 160
f 160 119 127
f 160 120 119
f 93 94 73
f 73 92 93
f 134 94 93
f 121 163 122
f 122 163 164
f 84 121 122
f 122 123 84
f 112 158 159
f 112 129 113
f 159 129 112
f 113 84 112
f 164 130 165
f 165 122 164
f 123 122 165
f 1 2 3
f 5 2 1
f 1 4 5
f 144 145 98
f 144 180 145
f 179 180 144
f 98 142 143
f 143 142 179
f 143 144 98
f 179 144 143
f 138 176 177
f 177 142 138
f 175 176 138
f 138 97 96
f 138 142 97
f 138 141 175
f 96 141 138
f 108 93 92
f 155 156 108
f 156 134 108
f 108 92 91
f 108 107 155
f 78 107 108
f 108 91 78
f 158 112 124
f 84 123 124
f 124 112 84
f 130 158 166
f 166 165 130
f 158 124 166
f 123 165 166
f 166 124 123
f 134 93 133
f 133 108 134
f 93 108 133
f 72 79 90
f 90 73 72
f 140 59 84
f 140 167 170
f 140 31 23
f 170 181 140
f 172 151 140
f 140 146 100
f 140 134 172
f 14 19 140
f 30 29 140
f 100 74 140
f 140 19 30
f 140 44 59
f 140 45 44
f 47 46 140
f 23 15 140
f 140 54 36
f 140 6 14
f 36 35 140
f 140 48 47
f 140 181 178
f 140 176 175
f 140 174 173
f 140 74 54
f 173 171 140
f 7 3 140
f 3 2 140
f 140 29 48
f 147 146 140
f 178 177 140
f 175 141 140
f 162 184 140
f 140 171 134
f 140 35 31
f 84 120 140
f 140 8 7
f 46 45 140
f 140 109 147
f 177 176 140
f 151 157 140
f 139 174 140
f 184 167 140
f 140 120 162
f 140 2 6
f 140 15 8
f 140 157 109
f 1 3 7
f 7 4 1
