v 0.082399 -0.004081 0.042179
v 0.082399 -0.001953 0.041999
v 0.077578 -0.000475 0.038910
v 0.077578 -0.001463 0.038931
v 0.077578 -0.001953 0.038931
v 0.082399 -0.004224 0.042154
v 0.085245 -0.001032 0.020681
v 0.085245 0.005833 0.020681
v 0.082399 -0.000475 0.041850
v 0.082399 0.000428 0.041757
v 0.082399 0.001022 0.041691
v 0.082399 0.001877 0.041566
v 0.082399 0.002489 0.041459
v 0.082399 0.017092 0.038516
v 0.077578 -0.000106 0.038820
v 0.076210 0.031082 0.027874
v 0.075734 0.031082 0.026678
v 0.075361 0.031082 0.025658
v 0.075084 0.031082 0.024603
v 0.074917 0.031082 0.023921
v 0.074680 0.031082 0.022784
v 0.074510 0.017095 0.022241
v 0.077578 -0.003520 0.038374
v 0.082399 -0.005010 0.041774
v 0.085245 -0.001080 0.011053
v 0.082399 -0.005581 0.041404
v 0.082399 -0.005913 0.041096
v 0.082399 -0.006079 0.040698
v 0.082399 -0.006422 0.039204
v 0.084332 -0.004737 0.011053
v 0.084592 -0.004000 0.011053
v 0.084767 -0.003432 0.011053
v 0.085245 0.006120 0.011053
v 0.080632 0.031082 0.031001
v 0.077884 0.031082 0.031001
v 0.077153 0.031082 0.029638
v 0.074668 0.031082 0.022161
v 0.074685 0.031082 0.019834
v 0.074701 0.031082 0.019280
v 0.074736 0.031082 0.018720
v 0.074530 0.017095 0.021961
v 0.077579 -0.006436 0.011053
v 0.077578 -0.006577 0.029642
v 0.077578 -0.006573 0.029943
v 0.077578 -0.006278 0.035556
v 0.077578 -0.006223 0.035870
v 0.077578 -0.005998 0.036745
v 0.077578 -0.005769 0.036949
v 0.077578 -0.004844 0.037700
v 0.080632 0.017095 0.006854
v 0.082193 -0.005872 0.040996
v 0.081714 -0.006425 0.038516
v 0.082399 -0.006425 0.038516
v 0.083885 -0.005548 0.011053
v 0.080632 0.017777 0.006868
v 0.080632 0.019573 0.006965
v 0.080632 0.031082 0.007663
v 0.074806 0.031082 0.018198
v 0.074623 0.017095 0.020788
v 0.079608 0.017095 0.008116
v 0.080241 0.017095 0.007328
v 0.081714 -0.006212 0.011053
v 0.082399 -0.006425 0.037721
v 0.074901 0.031082 0.017727
v 0.075994 0.017095 0.014840
v 0.076343 0.017095 0.013525
v 0.076081 0.031082 0.013273
v 0.076586 0.031082 0.012173
v 0.077620 0.031082 0.010565
v 0.079516 0.018765 0.008206
v 0.080234 -0.006425 0.037036
v 0.083844 -0.005574 0.011053
v 0.083091 -0.005935 0.011053
v 0.079516 0.020244 0.008206
v 0.079521 0.021722 0.008213
v 0.079535 0.023204 0.008227
v 0.078074 0.031082 0.010057
v 0.078963 0.031082 0.009161
v 0.079546 0.031082 0.008635
f 42 43 22
f 43 42 63
f 34 14 8
f 8 1 7
f 14 15 3
f 35 14 34
f 35 15 14
f 13 8 14
f 12 8 13
f 14 3 13
f 13 3 12
f 33 57 34
f 34 8 33
f 25 50 33
f 22 5 4
f 4 3 22
f 4 5 1
f 1 3 4
f 1 8 2
f 8 9 2
f 2 3 1
f 2 9 3
f 11 8 12
f 12 3 11
f 41 42 22
f 41 59 42
f 42 59 64
f 57 33 56
f 45 46 22
f 23 5 22
f 22 49 23
f 24 23 49
f 22 46 47
f 16 3 15
f 21 37 22
f 22 3 21
f 10 9 8
f 8 11 10
f 3 9 10
f 10 11 3
f 65 64 67
f 42 64 65
f 59 41 40
f 40 41 22
f 42 50 62
f 62 63 42
f 32 50 25
f 32 25 7
f 42 67 68
f 68 69 42
f 42 69 70
f 55 33 50
f 55 56 33
f 50 69 55
f 56 55 78
f 22 43 44
f 44 45 22
f 46 45 29
f 29 44 43
f 26 49 51
f 26 24 49
f 7 24 26
f 23 24 6
f 1 5 6
f 5 23 6
f 7 1 6
f 6 24 7
f 51 49 48
f 48 47 51
f 48 49 22
f 22 47 48
f 15 35 36
f 36 16 15
f 17 18 3
f 3 16 17
f 20 21 3
f 66 67 42
f 42 65 66
f 66 65 67
f 58 64 59
f 59 40 58
f 22 37 38
f 73 62 50
f 63 62 73
f 30 54 50
f 30 29 54
f 7 29 30
f 61 50 42
f 61 70 50
f 50 70 74
f 74 70 69
f 57 56 79
f 56 78 79
f 77 78 55
f 51 47 27
f 27 26 51
f 7 26 27
f 28 47 46
f 46 29 28
f 28 27 47
f 28 29 7
f 7 27 28
f 45 44 71
f 43 63 53
f 53 29 43
f 54 29 53
f 3 18 19
f 19 20 3
f 39 40 22
f 22 38 39
f 50 54 72
f 72 73 50
f 63 73 72
f 72 53 63
f 54 53 72
f 50 32 31
f 31 30 50
f 31 32 7
f 7 30 31
f 42 70 60
f 60 61 42
f 70 61 60
f 75 69 50
f 50 74 75
f 75 74 69
f 69 77 76
f 76 55 69
f 76 77 55
f 44 29 52
f 52 71 44
f 52 29 45
f 45 71 52
f 7 25 33
f 33 8 7
f 39 35 34
f 34 57 39
f 37 21 39
f 39 38 37
f 39 68 67
f 67 64 39
f 64 58 39
f 39 36 35
f 18 17 39
f 39 77 69
f 69 68 39
f 57 79 39
f 16 36 39
f 39 17 16
f 21 20 39
f 39 58 40
f 39 19 18
f 39 79 78
f 78 77 39
f 20 19 39
