v 0.121971 0.028160 0.020758
v 0.121818 0.028160 0.019283
v 0.121891 0.037247 0.020035
v 0.121903 0.037247 0.020298
v 0.121921 0.037247 0.020758
v 0.121940 0.037247 0.021518
v 0.121903 0.036526 0.022237
v 0.121891 0.035045 0.022237
v 0.121869 0.032450 0.022237
v 0.121836 0.028160 0.022118
v 0.117822 0.027846 0.034719
v 0.117822 0.027846 0.028408
v 0.121470 0.028160 0.017804
v 0.121588 0.037247 0.018560
v 0.121903 0.037247 0.022237
v 0.121643 0.037247 0.023716
v 0.121660 0.032450 0.023355
v 0.121590 0.032450 0.023716
v 0.120733 0.032450 0.027915
v 0.120682 0.032450 0.028154
v 0.120334 0.032450 0.029230
v 0.117822 0.029127 0.034732
v 0.116616 0.032450 0.036429
v 0.117209 0.029127 0.035558
v 0.117179 0.027846 0.035558
v 0.121117 0.028160 0.016398
v 0.121353 0.028160 0.017331
v 0.110067 0.027846 0.031449
v 0.110067 0.028160 0.001574
v 0.111448 0.028160 0.002313
v 0.111704 0.028160 0.002457
v 0.112800 0.028160 0.003127
v 0.113629 0.028160 0.003673
v 0.114368 0.028160 0.004253
v 0.115268 0.028160 0.004992
v 0.116007 0.028160 0.005921
v 0.116342 0.028160 0.006406
v 0.116521 0.028160 0.006665
v 0.116983 0.028160 0.007441
v 0.117454 0.028160 0.008259
v 0.117697 0.028160 0.008699
v 0.117963 0.028160 0.009183
v 0.118093 0.028160 0.009434
v 0.118391 0.028160 0.010071
v 0.118543 0.028160 0.010404
v 0.120558 0.028160 0.014841
v 0.120914 0.028160 0.015655
v 0.121408 0.037247 0.017799
v 0.121485 0.037247 0.024476
v 0.121054 0.036526 0.026506
v 0.120682 0.033567 0.028154
v 0.120334 0.032495 0.029230
v 0.117243 0.032450 0.035558
v 0.117822 0.030605 0.034703
v 0.115973 0.032450 0.036942
v 0.114955 0.027846 0.037739
v 0.115064 0.027846 0.037649
v 0.115866 0.027846 0.036951
v 0.116585 0.030605 0.036400
v 0.120255 0.036526 0.029230
v 0.119960 0.037247 0.029230
v 0.116537 0.027846 0.036347
v 0.110067 0.027846 0.040784
v 0.105416 0.032450 -0.000415
v 0.105416 0.037247 -0.001191
v 0.113678 0.032086 0.003649
v 0.113678 0.030606 0.003645
v 0.113651 0.029127 0.003661
v 0.114415 0.030606 0.004208
v 0.114388 0.029127 0.004232
v 0.115338 0.032086 0.004923
v 0.116099 0.033567 0.005802
v 0.116081 0.032450 0.005826
v 0.116534 0.029127 0.006640
v 0.117007 0.029127 0.007441
v 0.116571 0.032086 0.006574
v 0.116589 0.033567 0.006546
v 0.116594 0.035045 0.006525
v 0.116592 0.037247 0.006513
v 0.120454 0.037247 0.014870
v 0.116809 0.037247 0.006981
v 0.120694 0.037247 0.015568
v 0.121052 0.037247 0.016670
v 0.121167 0.037247 0.025869
v 0.120887 0.036526 0.027246
v 0.120678 0.035045 0.028154
v 0.120318 0.033974 0.029230
v 0.117822 0.032086 0.034662
v 0.117822 0.032450 0.034650
v 0.115757 0.032450 0.037111
v 0.114923 0.032086 0.037723
v 0.115127 0.032450 0.037575
v 0.120289 0.035453 0.029230
v 0.120639 0.036526 0.028154
v 0.120943 0.037247 0.026757
v 0.117876 0.037247 0.029230
v 0.110084 0.032450 0.040459
v 0.112145 0.032450 0.039305
v 0.113205 0.032450 0.038709
v 0.114360 0.032450 0.038043
v 0.114919 0.032450 0.037719
v 0.110067 0.029127 0.040706
v 0.105416 0.032450 0.007988
v 0.105416 0.037247 0.002782
v 0.114245 0.037247 0.004101
v 0.114331 0.036526 0.004134
v 0.113675 0.032450 0.003653
v 0.114367 0.035045 0.004138
v 0.115423 0.037247 0.004873
v 0.115407 0.036526 0.004869
v 0.114417 0.032086 0.004183
v 0.115383 0.035045 0.004881
v 0.115360 0.033567 0.004898
v 0.116124 0.035045 0.005785
v 0.116164 0.037247 0.005769
v 0.116388 0.037247 0.006151
v 0.120298 0.035045 0.029230
v 0.115783 0.037247 0.026777
v 0.110067 0.032442 0.040468
v 0.114495 0.037247 0.025035
v 0.114370 0.037247 0.024854
f 104 103 119
f 2 3 1
f 65 29 64
f 1 11 12
f 12 2 1
f 102 103 63
f 102 119 103
f 10 11 1
f 10 20 11
f 20 10 19
f 87 52 86
f 86 52 51
f 11 20 21
f 29 12 28
f 64 29 28
f 104 119 121
f 47 80 82
f 47 48 26
f 26 48 27
f 26 12 47
f 26 27 12
f 3 2 14
f 27 48 13
f 2 12 13
f 12 27 13
f 48 14 13
f 13 14 2
f 80 44 81
f 81 44 79
f 46 80 47
f 47 12 46
f 79 44 43
f 43 44 12
f 69 33 68
f 67 69 68
f 36 12 35
f 71 72 35
f 83 48 47
f 47 82 83
f 37 12 36
f 37 38 12
f 12 38 39
f 45 44 80
f 80 46 45
f 12 44 45
f 45 46 12
f 106 105 109
f 65 105 106
f 106 107 65
f 109 67 66
f 107 106 66
f 67 31 66
f 65 107 66
f 66 31 65
f 69 67 111
f 59 62 25
f 58 62 59
f 22 21 52
f 11 21 22
f 59 25 23
f 11 22 23
f 23 22 53
f 23 58 59
f 99 102 63
f 99 98 102
f 61 98 99
f 117 87 86
f 86 93 117
f 89 87 117
f 117 93 89
f 94 93 86
f 12 33 34
f 34 35 12
f 30 12 29
f 30 31 12
f 29 65 30
f 65 31 30
f 32 33 12
f 12 31 32
f 68 33 32
f 32 67 68
f 32 31 67
f 7 15 16
f 16 49 19
f 6 7 1
f 6 15 7
f 9 17 10
f 9 10 1
f 9 16 17
f 73 72 38
f 38 37 73
f 73 37 36
f 36 35 73
f 73 35 72
f 40 41 12
f 12 39 40
f 40 77 41
f 78 116 79
f 115 116 78
f 78 77 115
f 72 77 76
f 71 69 113
f 69 112 113
f 113 72 71
f 113 112 115
f 109 115 110
f 115 112 110
f 110 112 69
f 69 111 110
f 110 67 109
f 110 111 67
f 108 106 109
f 109 66 108
f 108 66 106
f 52 87 54
f 54 22 52
f 53 22 54
f 24 25 11
f 11 23 24
f 24 23 25
f 57 23 56
f 58 23 57
f 119 102 97
f 102 98 97
f 97 98 61
f 61 96 97
f 96 118 97
f 97 121 119
f 63 101 100
f 100 99 63
f 100 101 61
f 61 99 100
f 93 94 60
f 89 93 60
f 60 95 61
f 94 95 60
f 60 53 89
f 61 23 60
f 60 23 53
f 85 94 86
f 86 51 85
f 85 95 94
f 35 34 70
f 70 69 71
f 71 35 70
f 33 69 70
f 70 34 33
f 18 16 19
f 17 16 18
f 18 19 10
f 10 17 18
f 5 6 1
f 7 16 8
f 16 9 8
f 1 7 8
f 8 9 1
f 75 40 39
f 77 40 75
f 39 76 75
f 75 76 77
f 79 43 42
f 42 78 79
f 12 41 42
f 42 43 12
f 41 77 42
f 77 78 42
f 38 72 74
f 72 76 74
f 74 39 38
f 74 76 39
f 114 113 115
f 72 113 114
f 115 77 114
f 114 77 72
f 88 87 89
f 88 54 87
f 89 53 88
f 53 54 88
f 56 90 92
f 61 101 92
f 92 90 61
f 56 23 55
f 55 90 56
f 55 23 61
f 61 90 55
f 121 97 120
f 120 97 118
f 84 85 49
f 95 85 84
f 50 51 20
f 50 85 51
f 49 85 50
f 20 19 50
f 19 49 50
f 1 3 4
f 4 5 1
f 56 92 91
f 91 92 101
f 63 56 91
f 91 101 63
f 64 103 65
f 65 103 104
f 21 51 52
f 20 51 21
f 28 103 64
f 63 103 28
f 63 28 57
f 57 56 63
f 57 12 11
f 57 28 12
f 11 25 57
f 57 25 62
f 62 58 57
f 4 82 80
f 4 65 104
f 4 115 109
f 79 116 4
f 80 81 4
f 109 105 4
f 104 121 4
f 3 14 4
f 4 84 49
f 49 16 4
f 4 96 61
f 4 14 48
f 4 116 115
f 4 81 79
f 4 105 65
f 48 83 4
f 61 95 4
f 4 83 82
f 4 16 15
f 15 6 4
f 4 118 96
f 121 120 4
f 6 5 4
f 4 120 118
f 95 84 4
