v 0.079912 0.017094 0.011048
v 0.080633 0.027424 0.010697
v 0.077577 0.017094 0.011048
v 0.092001 0.005437 0.011048
v 0.091995 0.027424 0.001949
v 0.080633 0.027424 0.007523
v 0.077577 0.017094 0.010952
v 0.077577 -0.006438 0.011048
v 0.092001 -0.001146 0.011048
v 0.092001 0.027367 0.001944
v 0.092001 0.027424 0.001412
v 0.088238 0.027424 0.000664
v 0.080799 0.000726 0.000641
v 0.079517 0.001623 0.002286
v 0.077577 0.003965 0.005315
v 0.077577 0.004743 0.005583
v 0.077577 0.005136 0.005721
v 0.077577 -0.006661 0.008916
v 0.081716 -0.006314 0.010396
v 0.081716 -0.006214 0.011048
v 0.083847 -0.005577 0.011048
v 0.092001 -0.005680 0.003911
v 0.092001 0.027424 -0.000761
v 0.089114 0.027424 0.000148
v 0.082668 -0.000475 -0.000581
v 0.081716 -0.000475 0.000028
v 0.080806 -0.000475 0.000649
v 0.080067 -0.000475 0.001352
v 0.079370 -0.000475 0.002092
v 0.079440 0.000639 0.002175
v 0.077577 0.002824 0.005043
v 0.078756 -0.006645 0.007437
v 0.092001 -0.006575 -0.001440
v 0.077577 -0.006565 0.007437
v 0.087633 -0.006081 0.005957
v 0.083301 -0.006021 0.010501
v 0.083094 -0.005934 0.011048
v 0.091401 0.027424 -0.000728
v 0.092001 -0.001957 -0.004504
v 0.090568 0.027424 -0.000480
v 0.087714 -0.001893 -0.003409
v 0.087633 -0.000475 -0.003163
v 0.086294 -0.000475 -0.002502
v 0.083407 -0.000475 -0.000990
v 0.086182 -0.001957 -0.002618
v 0.085441 -0.001957 -0.002154
v 0.080927 -0.001273 0.000742
v 0.079384 -0.001473 0.002121
v 0.078069 -0.001957 0.003815
v 0.077577 0.001006 0.004781
v 0.077577 0.002487 0.004972
v 0.090595 -0.006354 -0.001440
v 0.092001 -0.006027 -0.002907
v 0.077577 -0.006044 0.006203
v 0.078655 -0.006214 0.005843
v 0.085115 -0.005827 0.000566
v 0.087633 -0.005854 -0.000964
v 0.091291 0.027424 -0.000715
v 0.092001 -0.003358 -0.004541
v 0.088265 -0.002347 -0.003700
v 0.088473 -0.001360 -0.003644
v 0.090764 0.027424 -0.000545
v 0.088265 -0.002808 -0.003700
v 0.086533 -0.003435 -0.002443
v 0.083603 -0.001957 -0.000896
v 0.077577 -0.004699 0.005159
v 0.078302 -0.003435 0.003942
v 0.077577 -0.003435 0.004656
v 0.077577 -0.001957 0.004555
v 0.077577 -0.001893 0.004560
v 0.089190 -0.006007 -0.001471
v 0.092001 -0.005530 -0.003548
v 0.090595 -0.005864 -0.002452
v 0.079082 -0.005924 0.004924
v 0.080258 -0.006084 0.004450
v 0.077577 -0.005220 0.005458
v 0.078096 -0.005557 0.005274
v 0.080765 -0.005807 0.003588
v 0.082449 -0.005660 0.002254
v 0.086818 -0.005700 -0.000755
v 0.089735 -0.005707 -0.002240
v 0.092001 -0.003435 -0.004539
v 0.090595 -0.003435 -0.004167
v 0.089190 -0.003355 -0.003805
v 0.089735 -0.004236 -0.003706
v 0.088749 -0.003799 -0.003473
v 0.087714 -0.003355 -0.003166
v 0.086869 -0.004196 -0.002202
v 0.089242 -0.004850 -0.002856
v 0.092001 -0.004893 -0.004005
v 0.087633 -0.004419 -0.002426
v 0.088749 -0.005467 -0.001985
v 0.090595 -0.004436 -0.003844
f 1 2 3
f 4 2 1
f 5 2 4
f 10 5 4
f 14 6 13
f 19 8 18
f 18 33 19
f 18 34 32
f 32 33 18
f 32 34 33
f 43 24 42
f 13 6 12
f 12 24 13
f 5 10 11
f 6 17 7
f 21 22 9
f 37 22 21
f 8 19 20
f 20 19 33
f 33 34 52
f 58 39 61
f 69 49 68
f 29 49 50
f 6 14 15
f 14 31 15
f 37 20 36
f 36 22 37
f 36 20 22
f 33 22 35
f 35 20 33
f 22 20 35
f 60 39 59
f 59 63 60
f 61 39 60
f 60 40 61
f 33 52 53
f 53 52 71
f 34 54 55
f 54 75 55
f 74 54 77
f 68 49 48
f 49 29 48
f 77 54 76
f 23 39 38
f 39 58 38
f 61 40 62
f 62 58 61
f 50 49 70
f 49 69 70
f 51 29 50
f 16 17 6
f 6 15 16
f 72 85 90
f 89 72 81
f 89 85 72
f 40 60 41
f 24 40 41
f 42 24 41
f 41 43 42
f 13 24 25
f 72 53 73
f 81 72 73
f 67 66 68
f 68 48 67
f 47 66 67
f 67 48 47
f 28 29 13
f 28 48 29
f 30 51 31
f 30 31 14
f 29 51 30
f 30 14 13
f 13 29 30
f 85 83 82
f 82 63 59
f 82 83 63
f 84 85 63
f 63 83 84
f 84 83 85
f 85 89 91
f 91 88 85
f 46 65 47
f 24 43 44
f 44 25 24
f 93 82 90
f 93 90 85
f 85 82 93
f 85 88 86
f 88 87 86
f 63 85 86
f 86 87 63
f 64 87 88
f 47 65 64
f 65 46 64
f 64 66 47
f 63 87 64
f 64 46 63
f 64 76 66
f 77 76 64
f 64 88 77
f 77 88 78
f 88 79 78
f 78 74 77
f 81 73 57
f 57 53 71
f 57 73 53
f 57 52 34
f 71 52 57
f 26 46 47
f 25 46 26
f 13 25 26
f 43 41 45
f 45 44 43
f 63 46 45
f 45 46 25
f 25 44 45
f 45 60 63
f 45 41 60
f 92 89 81
f 74 78 56
f 56 78 79
f 56 75 54
f 54 74 56
f 56 57 34
f 34 55 56
f 56 55 75
f 13 26 27
f 27 26 47
f 27 28 13
f 47 48 27
f 48 28 27
f 80 79 88
f 80 56 79
f 57 56 80
f 88 91 80
f 80 91 89
f 89 92 80
f 81 57 80
f 80 92 81
f 2 6 7
f 3 2 7
f 20 9 4
f 20 1 3
f 3 8 20
f 4 1 20
f 20 21 9
f 37 21 20
f 2 5 62
f 62 11 23
f 62 6 2
f 62 12 6
f 24 12 62
f 62 40 24
f 5 11 62
f 23 38 62
f 62 38 58
f 16 8 3
f 18 8 16
f 68 66 16
f 16 34 18
f 16 54 34
f 3 7 16
f 50 70 16
f 16 7 17
f 16 76 54
f 16 51 50
f 16 69 68
f 16 15 31
f 66 76 16
f 16 70 69
f 31 51 16
f 33 53 82
f 9 22 82
f 4 9 82
f 82 10 4
f 59 39 82
f 82 22 33
f 23 11 82
f 82 39 23
f 82 11 10
f 82 53 72
f 72 90 82
