v 0.122070 0.010282 0.021138
v 0.124472 0.005443 0.021138
v 0.130163 0.006605 0.011566
v 0.130312 0.006817 0.010400
v 0.129353 0.007558 0.010400
v 0.122058 0.010282 0.020361
v 0.116850 0.010282 0.021138
v 0.125083 0.003930 0.021138
v 0.131318 0.004768 0.011179
v 0.130159 0.006643 0.008920
v 0.131318 0.004768 0.011075
v 0.131012 0.005334 0.010508
v 0.121942 0.010282 0.017800
v 0.122005 0.010282 0.018881
v 0.129025 0.007400 0.008975
v 0.128497 0.007686 0.009506
v 0.121603 0.010282 0.016319
v 0.113520 0.010282 0.010716
v 0.113520 0.005619 0.021138
v 0.125075 0.003608 0.021138
v 0.129926 0.001513 0.014210
v 0.129926 0.001886 0.014210
v 0.131397 0.001003 0.011328
v 0.131453 0.001139 0.010279
v 0.130565 0.005443 0.008920
v 0.129961 0.006371 0.007825
v 0.131423 0.000736 0.009344
v 0.127675 0.006951 0.006047
v 0.126118 0.007588 0.006047
v 0.129155 0.006702 0.007375
v 0.116204 0.010282 0.006047
v 0.116581 0.010282 0.006549
v 0.121122 0.010282 0.015253
v 0.121479 0.010282 0.016030
v 0.113520 0.010282 0.006047
v 0.113520 -0.000696 0.021138
v 0.124889 0.002515 0.021138
v 0.128448 -0.005891 0.011422
v 0.131360 0.000160 0.011220
v 0.124110 -0.000469 0.021138
v 0.123954 -0.001005 0.021138
v 0.123887 -0.001179 0.021138
v 0.123585 -0.001921 0.021138
v 0.131430 -0.000391 0.010298
v 0.131416 -0.000476 0.009360
v 0.130036 0.005387 0.007375
v 0.129699 0.005843 0.006839
v 0.128713 0.006429 0.006354
v 0.131123 -0.000476 0.008620
v 0.130654 -0.000476 0.007440
v 0.130092 -0.000352 0.006047
v 0.130029 0.000502 0.006047
v 0.129843 0.004857 0.006627
v 0.128018 0.006748 0.006047
v 0.113520 -0.003119 0.006047
v 0.113520 -0.003429 0.011427
v 0.114727 -0.004685 0.014839
v 0.115437 -0.005425 0.014839
v 0.116125 -0.003218 0.021138
v 0.127243 -0.006069 0.012934
v 0.127680 -0.006320 0.011901
v 0.127598 -0.006690 0.010400
v 0.128535 -0.006017 0.010400
v 0.131330 -0.001332 0.009737
v 0.122839 -0.003353 0.021138
v 0.131330 -0.001332 0.009576
v 0.129245 0.005426 0.006047
v 0.129222 0.005497 0.006047
v 0.129125 0.005609 0.006047
v 0.129954 -0.001525 0.006364
v 0.130010 -0.000706 0.006047
v 0.116471 -0.005666 0.011124
v 0.115444 -0.005392 0.011880
v 0.115182 -0.005622 0.013360
v 0.113520 -0.003251 0.006682
v 0.124638 -0.004388 0.006047
v 0.124638 -0.006310 0.007611
v 0.124638 -0.007001 0.008920
v 0.113520 -0.003824 0.009660
v 0.114613 -0.004883 0.013360
v 0.116446 -0.005669 0.015613
v 0.117239 -0.003833 0.021138
v 0.121981 -0.003861 0.021138
v 0.121679 -0.004036 0.021138
v 0.126118 -0.006981 0.011880
v 0.127684 -0.006305 0.008871
v 0.128491 -0.005902 0.009332
v 0.126118 -0.006996 0.010400
v 0.126118 -0.006952 0.008920
v 0.130254 -0.003148 0.008920
v 0.130958 -0.001877 0.009017
v 0.129875 -0.001274 0.006047
v 0.130235 -0.001994 0.007372
v 0.130045 -0.002933 0.007819
v 0.127247 -0.006052 0.007880
v 0.116183 -0.005698 0.011880
v 0.123157 -0.006854 0.010400
v 0.116176 -0.005700 0.014839
v 0.113520 -0.003558 0.008162
v 0.125377 -0.004363 0.006047
v 0.126118 -0.006285 0.007629
v 0.124638 -0.007027 0.010400
v 0.117239 -0.005683 0.015650
v 0.120199 -0.004022 0.021138
v 0.118719 -0.003953 0.021138
v 0.124638 -0.006974 0.011880
v 0.120576 -0.004029 0.021138
v 0.129404 -0.001687 0.006047
v 0.126201 -0.004072 0.006047
v 0.126022 -0.004161 0.006047
f 19 7 18
f 24 9 23
f 8 9 2
f 60 38 65
f 85 60 84
f 24 23 44
f 99 74 79
f 75 74 99
f 55 74 75
f 102 85 106
f 85 84 106
f 102 106 97
f 1 4 5
f 3 4 1
f 9 4 3
f 1 2 3
f 3 2 9
f 15 5 10
f 10 5 4
f 77 55 76
f 101 76 100
f 77 76 101
f 101 109 95
f 22 9 8
f 8 21 22
f 22 23 9
f 22 21 23
f 83 60 65
f 83 84 60
f 66 44 64
f 23 21 39
f 39 44 23
f 39 21 38
f 38 64 39
f 39 64 44
f 80 79 74
f 58 59 36
f 13 5 17
f 17 5 16
f 16 5 15
f 16 31 32
f 29 16 15
f 31 16 29
f 12 10 4
f 24 44 45
f 45 44 66
f 70 95 92
f 70 94 95
f 70 93 94
f 70 50 66
f 92 71 70
f 71 50 70
f 94 93 91
f 91 70 66
f 93 70 91
f 61 60 85
f 85 62 61
f 38 60 61
f 61 62 38
f 94 91 90
f 90 91 66
f 66 64 90
f 95 94 87
f 94 90 87
f 88 85 102
f 88 62 85
f 92 95 108
f 95 109 108
f 89 101 95
f 62 88 89
f 110 101 100
f 109 101 110
f 65 38 43
f 38 21 43
f 79 80 56
f 57 58 36
f 74 58 57
f 57 80 74
f 36 56 57
f 57 56 80
f 82 59 81
f 59 58 81
f 81 58 74
f 107 106 84
f 73 74 55
f 55 72 73
f 73 72 74
f 96 97 74
f 74 72 96
f 5 13 14
f 33 16 32
f 28 29 15
f 10 12 25
f 66 50 49
f 49 45 66
f 38 62 63
f 62 87 63
f 63 87 90
f 63 64 38
f 63 90 64
f 86 87 62
f 62 89 86
f 95 87 86
f 86 89 95
f 78 88 102
f 78 89 88
f 102 97 78
f 77 101 78
f 101 89 78
f 78 55 77
f 78 72 55
f 97 96 78
f 78 96 72
f 20 21 8
f 20 37 21
f 40 41 21
f 21 37 40
f 21 41 42
f 42 43 21
f 82 81 105
f 105 81 104
f 98 81 74
f 106 81 98
f 74 97 98
f 98 97 106
f 103 81 106
f 106 107 103
f 103 107 104
f 104 81 103
f 1 5 6
f 5 14 6
f 17 16 34
f 16 33 34
f 52 67 53
f 15 10 26
f 10 25 26
f 11 25 12
f 11 4 9
f 11 12 4
f 11 9 24
f 51 50 71
f 53 67 47
f 54 28 30
f 30 28 15
f 15 26 30
f 46 26 25
f 53 47 46
f 46 47 26
f 25 11 27
f 24 45 27
f 27 11 24
f 27 52 53
f 53 46 27
f 27 46 25
f 45 49 27
f 27 51 52
f 27 49 50
f 50 51 27
f 26 47 48
f 54 30 48
f 48 30 26
f 54 48 69
f 69 48 47
f 68 47 67
f 68 69 47
f 18 35 56
f 35 55 56
f 36 19 56
f 56 19 18
f 56 75 99
f 99 79 56
f 55 75 56
f 1 7 105
f 105 107 84
f 105 19 36
f 7 19 105
f 105 2 1
f 36 59 105
f 8 2 105
f 105 83 65
f 105 59 82
f 105 42 41
f 84 83 105
f 65 43 105
f 105 20 8
f 41 40 105
f 104 107 105
f 37 20 105
f 105 40 37
f 43 42 105
f 18 7 34
f 34 35 18
f 34 7 1
f 34 31 35
f 34 33 32
f 32 31 34
f 34 13 17
f 34 14 13
f 1 6 34
f 34 6 14
f 68 55 35
f 68 71 92
f 68 76 55
f 68 28 54
f 35 31 68
f 68 110 100
f 100 76 68
f 92 108 68
f 31 29 68
f 68 108 109
f 109 110 68
f 29 28 68
f 68 51 71
f 67 52 68
f 52 51 68
f 54 69 68
