v 0.092001 -0.006572 -0.001441
v 0.092001 -0.006027 -0.002908
v 0.094291 -0.007139 -0.002184
v 0.094291 -0.007139 -0.002172
v 0.092001 -0.005681 0.003910
v 0.093702 -0.006681 -0.002775
v 0.092001 -0.005530 -0.003549
v 0.094167 -0.005775 -0.005277
v 0.094328 -0.007139 -0.002184
v 0.095037 -0.006394 -0.004401
v 0.096517 -0.006422 -0.004401
v 0.094328 -0.007139 -0.002172
v 0.094908 -0.007017 -0.001583
v 0.102560 -0.005926 0.003015
v 0.104008 -0.005681 0.003793
v 0.104008 -0.005656 0.003841
v 0.092001 -0.005065 0.004746
v 0.102434 -0.006307 0.001516
v 0.092001 -0.004894 -0.004005
v 0.095037 -0.005891 -0.005419
v 0.092001 -0.003436 -0.004539
v 0.093983 -0.004915 -0.005400
v 0.095037 -0.004915 -0.005808
v 0.096517 -0.006775 -0.002921
v 0.100956 -0.006489 -0.001441
v 0.099477 -0.006639 -0.001441
v 0.097997 -0.006786 -0.001441
v 0.096517 -0.005964 -0.005547
v 0.097997 -0.005887 -0.005520
v 0.102434 -0.005985 -0.002736
v 0.102434 -0.006314 -0.001441
v 0.100956 -0.006485 0.000037
v 0.104008 -0.005831 0.003056
v 0.110066 0.022595 0.004380
v 0.104008 -0.004869 0.004464
v 0.092001 -0.004429 0.005342
v 0.092001 -0.004820 0.005019
v 0.102434 -0.006314 0.000037
v 0.104008 -0.005960 0.001616
v 0.096517 -0.004915 -0.006073
v 0.092001 -0.003359 -0.004539
v 0.093835 -0.003436 -0.005458
v 0.095037 -0.003436 -0.005922
v 0.096517 -0.003436 -0.006199
v 0.097997 -0.004915 -0.006114
v 0.098843 -0.005744 -0.005339
v 0.103421 -0.005845 -0.002544
v 0.103576 -0.005943 -0.001441
v 0.104008 -0.005891 0.000163
v 0.104008 -0.005960 0.001515
v 0.110066 0.022595 0.001429
v 0.110066 0.028586 0.004767
v 0.104008 -0.001023 0.006388
v 0.103916 -0.001023 0.006388
v 0.102434 -0.001005 0.006388
v 0.092578 -0.000796 0.006388
v 0.092001 -0.000747 0.006388
v 0.097997 -0.003436 -0.006332
v 0.092001 -0.001957 -0.004505
v 0.094001 0.003964 -0.005460
v 0.093860 -0.001957 -0.005459
v 0.095037 0.003964 -0.005937
v 0.095037 0.002485 -0.005942
v 0.095037 0.001005 -0.005942
v 0.095037 -0.000474 -0.005936
v 0.096517 -0.001957 -0.006205
v 0.100446 -0.004282 -0.005222
v 0.099393 -0.004831 -0.005549
v 0.103453 -0.004499 -0.003834
v 0.103744 -0.004960 -0.002991
v 0.104008 -0.004953 -0.002342
v 0.104008 -0.005380 -0.001485
v 0.104008 0.003964 -0.003976
v 0.110066 0.023204 0.001441
v 0.104008 -0.004243 -0.002979
v 0.104008 -0.003488 -0.003264
v 0.104008 -0.001957 -0.003639
v 0.104008 -0.000474 -0.003830
v 0.104008 0.000995 -0.003886
v 0.104008 0.003792 -0.003971
v 0.110066 0.028586 0.001582
v 0.103765 0.028586 0.001749
v 0.092001 0.028099 0.002088
v 0.092008 0.005981 0.006388
v 0.096517 0.006866 0.006388
v 0.097997 0.007059 0.006388
v 0.104008 0.005852 0.006388
v 0.092001 0.001338 0.006388
v 0.099477 0.001005 -0.005803
v 0.099477 -0.000474 -0.005786
v 0.099617 -0.003317 -0.005667
v 0.096517 -0.000474 -0.006206
v 0.097997 -0.001957 -0.006332
v 0.099477 0.003964 -0.005830
v 0.092001 0.028099 -0.000755
v 0.094088 0.005443 -0.005377
v 0.095037 0.005443 -0.005765
v 0.096517 0.003964 -0.006185
v 0.096517 0.002485 -0.006197
v 0.096517 0.001005 -0.006205
v 0.104008 0.005352 -0.003858
v 0.110066 0.026162 0.001515
v 0.110066 0.024683 0.001476
v 0.108108 0.028586 0.000494
v 0.103765 0.028586 -0.000735
v 0.092001 0.006002 0.006294
v 0.097997 -0.000474 -0.006329
v 0.097997 0.002485 -0.006319
v 0.097997 0.003964 -0.006312
v 0.106876 0.028586 -0.000017
v 0.107330 0.028586 0.000163
v 0.097999 0.028099 -0.001984
v 0.096517 0.005443 -0.005998
v 0.105935 0.028586 -0.000249
v 0.099479 0.028099 -0.001836
v 0.097997 0.005443 -0.006059
f 83 84 52
f 52 53 34
f 52 87 53
f 53 36 35
f 36 16 35
f 34 53 35
f 35 16 34
f 5 16 17
f 87 52 86
f 56 57 36
f 106 84 83
f 83 52 82
f 34 33 39
f 34 16 15
f 15 33 34
f 15 16 5
f 5 14 15
f 37 16 36
f 37 17 16
f 85 52 84
f 85 86 52
f 55 56 36
f 84 106 88
f 24 25 9
f 8 3 6
f 10 3 8
f 8 6 2
f 2 3 1
f 2 6 3
f 8 19 21
f 21 22 8
f 8 22 23
f 58 67 45
f 45 40 58
f 91 67 58
f 51 76 77
f 59 95 96
f 95 97 96
f 54 36 53
f 54 55 36
f 73 81 102
f 95 105 112
f 112 105 115
f 112 97 95
f 115 116 112
f 77 76 69
f 67 91 69
f 29 47 30
f 28 45 29
f 40 45 28
f 25 38 32
f 4 13 5
f 4 12 13
f 4 5 1
f 1 3 4
f 7 19 8
f 8 2 7
f 59 96 60
f 107 108 94
f 97 112 113
f 113 112 116
f 108 107 100
f 94 108 109
f 109 113 116
f 108 100 109
f 103 73 102
f 78 51 77
f 77 69 78
f 78 69 91
f 90 91 58
f 90 73 91
f 101 73 94
f 94 111 101
f 81 73 101
f 46 47 29
f 46 69 47
f 29 45 46
f 75 69 76
f 76 51 75
f 25 24 31
f 31 30 47
f 47 48 31
f 31 38 25
f 20 10 8
f 20 28 10
f 40 28 20
f 8 23 20
f 20 23 40
f 10 28 11
f 9 3 11
f 3 10 11
f 11 28 29
f 11 24 9
f 29 30 11
f 11 31 24
f 30 31 11
f 27 32 12
f 27 12 9
f 18 32 38
f 18 38 39
f 18 39 33
f 33 15 18
f 18 15 14
f 12 32 18
f 13 12 18
f 18 14 5
f 5 13 18
f 59 60 41
f 22 21 42
f 42 23 22
f 21 41 42
f 40 23 44
f 58 40 44
f 93 100 107
f 93 94 58
f 93 107 94
f 110 111 94
f 94 109 110
f 97 113 98
f 113 109 98
f 51 73 74
f 73 103 74
f 51 78 79
f 79 78 91
f 94 73 89
f 73 90 89
f 58 94 89
f 89 90 58
f 81 101 104
f 104 101 111
f 68 46 45
f 69 46 68
f 68 45 67
f 67 69 68
f 47 69 70
f 69 75 70
f 9 25 26
f 26 27 9
f 25 32 26
f 32 27 26
f 97 98 62
f 62 96 97
f 62 60 96
f 114 109 116
f 114 110 109
f 114 116 115
f 115 105 114
f 80 73 51
f 51 79 80
f 91 73 80
f 80 79 91
f 23 42 43
f 43 44 23
f 60 62 61
f 61 62 42
f 61 41 60
f 61 42 41
f 100 62 99
f 99 62 98
f 99 109 100
f 99 98 109
f 58 44 66
f 47 70 71
f 71 72 47
f 71 70 75
f 71 75 51
f 51 72 71
f 49 51 50
f 49 72 51
f 50 31 49
f 49 31 48
f 49 48 47
f 47 72 49
f 42 62 63
f 63 64 42
f 63 62 100
f 65 43 42
f 42 64 65
f 44 43 65
f 66 64 92
f 64 63 92
f 92 63 100
f 100 93 92
f 92 93 58
f 58 66 92
f 105 95 83
f 83 82 105
f 34 39 51
f 51 39 50
f 54 85 84
f 53 87 54
f 84 88 54
f 87 86 54
f 57 56 54
f 86 85 54
f 56 55 54
f 54 88 57
f 9 12 4
f 4 3 9
f 50 39 31
f 39 38 31
f 1 5 41
f 41 106 83
f 57 88 41
f 83 95 41
f 36 57 41
f 41 95 59
f 5 17 41
f 41 37 36
f 41 2 1
f 17 37 41
f 41 88 106
f 19 7 41
f 41 21 19
f 41 7 2
f 74 81 52
f 74 52 34
f 102 81 74
f 34 51 74
f 74 103 102
f 52 81 114
f 114 105 82
f 114 82 52
f 81 104 114
f 111 110 114
f 114 104 111
f 65 64 66
f 65 66 44
