v 0.082807 -0.034456 0.023716
v 0.082805 -0.034456 0.023627
v 0.082498 -0.033658 0.022516
v 0.079637 -0.025973 0.016323
v 0.082511 -0.033633 0.023716
v 0.082774 -0.034456 0.025330
v 0.082707 -0.034456 0.022185
v 0.079358 -0.025360 0.014842
v 0.078060 -0.021812 0.012139
v 0.078960 -0.024161 0.014842
v 0.082771 -0.034456 0.025407
v 0.079368 -0.025235 0.016323
v 0.080925 -0.029456 0.020761
v 0.074453 -0.014756 0.034077
v 0.081246 -0.034456 0.007319
v 0.078786 -0.023948 0.013152
v 0.077722 -0.021201 0.010401
v 0.077149 -0.019720 0.008920
v 0.076735 -0.018348 0.008920
v 0.076486 -0.017608 0.008920
v 0.078076 -0.021791 0.013362
v 0.082743 -0.034456 0.025846
v 0.074729 -0.014756 0.023640
v 0.074246 -0.014756 0.035035
v 0.075153 -0.017373 0.036395
v 0.075687 -0.018240 0.035557
v 0.075811 -0.018240 0.034077
v 0.082687 -0.034456 0.026677
v 0.076482 -0.017621 0.010401
v 0.076076 -0.016759 0.010401
v 0.076118 -0.016759 0.008920
v 0.081107 -0.034456 0.006198
v 0.078055 -0.023274 0.007866
v 0.077975 -0.022074 0.010401
v 0.078223 -0.024060 0.007402
v 0.076641 -0.018595 0.007860
v 0.076776 -0.018362 0.010401
v 0.074743 -0.014756 0.014842
v 0.075424 -0.015645 0.008920
v 0.074035 -0.014756 0.035596
v 0.076492 -0.020481 0.036083
v 0.073791 -0.014756 0.036108
v 0.073640 -0.014756 0.036350
v 0.073290 -0.014756 0.036513
v 0.072859 -0.014756 0.036707
v 0.079623 -0.030459 0.037885
v 0.081020 -0.033648 0.037840
v 0.082538 -0.034456 0.028158
v 0.075310 -0.015766 0.007860
v 0.080395 -0.034456 0.005845
v 0.078304 -0.025640 0.006418
v 0.078138 -0.024486 0.006567
v 0.076594 -0.020244 0.006660
v 0.074745 -0.014756 0.010401
v 0.074708 -0.014756 0.008726
v 0.074745 -0.014756 0.008920
v 0.071354 -0.014756 0.037089
v 0.078029 -0.027796 0.037786
v 0.079788 -0.031560 0.037974
v 0.081163 -0.034456 0.037999
v 0.081386 -0.034456 0.037038
v 0.074265 -0.014756 0.007064
v 0.074449 -0.014756 0.007414
v 0.080378 -0.034456 0.005845
v 0.069352 -0.014756 0.005472
v 0.070830 -0.014756 0.005488
v 0.071354 -0.014756 0.005504
v 0.072832 -0.014756 0.005915
v 0.073441 -0.014756 0.006281
v 0.073789 -0.014756 0.006507
v 0.069876 -0.014756 0.037111
v 0.065435 -0.014756 0.037114
v 0.078002 -0.027796 0.037786
v 0.079217 -0.031560 0.037974
v 0.080198 -0.034456 0.037993
v 0.063905 -0.014756 0.005771
v 0.064911 -0.014756 0.005587
v 0.065435 -0.014756 0.005552
v 0.066392 -0.014756 0.005507
v 0.067872 -0.014756 0.005478
v 0.079175 -0.034456 0.006252
v 0.064477 -0.014756 0.036936
v 0.063955 -0.015280 0.036790
v 0.079467 -0.033862 0.037812
v 0.080151 -0.034456 0.037936
v 0.063193 -0.016069 0.036322
v 0.063025 -0.014756 0.006211
v 0.063040 -0.014964 0.006239
v 0.079138 -0.034456 0.006322
v 0.065886 -0.022207 0.010742
v 0.063326 -0.015952 0.006879
v 0.063955 -0.014756 0.036837
v 0.063131 -0.015280 0.036404
v 0.079376 -0.034456 0.036977
v 0.063201 -0.017521 0.034851
v 0.062949 -0.015280 0.035557
v 0.063147 -0.016642 0.035430
v 0.062980 -0.014756 0.006453
v 0.063158 -0.016085 0.007870
v 0.062974 -0.015386 0.007402
v 0.062864 -0.014756 0.007414
v 0.078747 -0.034456 0.007440
v 0.065700 -0.022354 0.011881
v 0.063421 -0.014756 0.036586
v 0.063114 -0.014756 0.036427
v 0.062901 -0.014756 0.035557
v 0.079356 -0.034456 0.036920
v 0.065891 -0.022196 0.032256
v 0.061657 -0.014756 0.027575
v 0.061657 -0.014920 0.027394
v 0.061657 -0.015041 0.026719
v 0.061657 -0.015107 0.025923
v 0.065698 -0.022350 0.031119
v 0.065156 -0.021201 0.011881
v 0.061657 -0.014985 0.020625
v 0.061657 -0.014756 0.020341
v 0.078728 -0.034456 0.007554
v 0.078534 -0.034456 0.008924
v 0.076739 -0.034456 0.023379
v 0.076697 -0.034456 0.023716
v 0.076621 -0.034456 0.024579
v 0.076594 -0.034456 0.025197
v 0.061657 -0.015169 0.022239
v 0.061657 -0.015070 0.021325
v 0.078944 -0.034456 0.035557
v 0.061657 -0.015128 0.025197
v 0.076762 -0.034456 0.026693
v 0.077107 -0.034456 0.028158
v 0.078202 -0.034456 0.032736
v 0.078540 -0.034456 0.034086
f 103 122 113
f 14 21 29
f 14 31 23
f 47 61 48
f 48 41 47
f 60 61 47
f 110 95 109
f 102 103 90
f 13 21 14
f 14 5 13
f 30 31 14
f 14 29 30
f 30 29 31
f 31 29 20
f 21 10 20
f 39 23 31
f 4 5 1
f 4 10 5
f 1 3 4
f 11 5 14
f 99 90 103
f 88 87 76
f 113 122 127
f 96 106 109
f 122 103 121
f 103 120 121
f 21 13 12
f 12 13 5
f 12 10 21
f 5 10 12
f 37 29 21
f 21 20 37
f 37 20 29
f 31 20 36
f 23 39 38
f 88 76 81
f 2 3 1
f 7 3 2
f 9 4 3
f 9 20 10
f 10 4 9
f 47 41 25
f 75 72 83
f 75 60 74
f 74 72 75
f 1 5 6
f 5 11 6
f 41 48 28
f 98 87 88
f 88 101 98
f 116 101 115
f 91 99 88
f 90 99 91
f 88 81 91
f 91 81 90
f 100 101 88
f 88 99 100
f 100 115 101
f 99 115 100
f 95 94 84
f 108 95 113
f 108 94 95
f 109 95 97
f 97 96 109
f 106 96 93
f 113 95 112
f 112 126 113
f 117 103 102
f 117 118 103
f 119 120 103
f 103 118 119
f 33 32 35
f 54 39 56
f 54 38 39
f 49 39 31
f 31 36 49
f 66 50 65
f 66 67 50
f 50 67 68
f 102 90 89
f 90 81 89
f 20 9 19
f 19 36 20
f 35 36 19
f 8 3 7
f 8 9 3
f 24 25 14
f 46 60 47
f 47 25 46
f 25 45 46
f 46 45 57
f 44 25 43
f 44 45 25
f 104 93 92
f 92 93 83
f 41 28 26
f 14 25 26
f 26 25 41
f 22 11 14
f 14 28 22
f 114 99 103
f 103 115 114
f 114 115 99
f 123 103 113
f 113 126 123
f 130 125 113
f 113 129 130
f 113 127 128
f 128 129 113
f 75 84 85
f 85 84 94
f 94 108 107
f 113 125 107
f 107 108 113
f 105 93 104
f 106 93 105
f 75 83 86
f 83 93 86
f 86 84 75
f 95 84 86
f 86 97 95
f 96 97 86
f 86 93 96
f 95 110 111
f 111 112 95
f 32 33 15
f 55 49 63
f 56 39 55
f 39 49 55
f 52 36 35
f 35 32 52
f 63 49 62
f 64 80 65
f 65 50 64
f 79 80 64
f 64 78 79
f 77 78 64
f 64 76 77
f 64 81 76
f 18 19 9
f 34 15 18
f 18 15 33
f 18 33 35
f 35 19 18
f 25 24 40
f 58 46 57
f 57 71 58
f 58 71 72
f 82 83 72
f 82 92 83
f 27 28 14
f 14 26 27
f 27 26 28
f 124 115 103
f 103 123 124
f 69 70 53
f 53 68 69
f 53 52 68
f 36 52 53
f 70 62 53
f 53 49 36
f 53 62 49
f 51 32 50
f 51 52 32
f 50 68 51
f 68 52 51
f 17 18 9
f 34 18 17
f 43 25 42
f 25 40 42
f 46 58 59
f 59 74 60
f 60 46 59
f 72 74 73
f 73 58 72
f 16 8 7
f 34 17 16
f 9 8 16
f 16 17 9
f 7 15 16
f 16 15 34
f 120 119 64
f 64 60 75
f 64 107 125
f 64 127 122
f 64 128 127
f 64 48 61
f 61 60 64
f 64 2 1
f 11 22 64
f 122 121 64
f 1 6 64
f 64 28 48
f 75 85 64
f 64 117 102
f 64 121 120
f 50 32 64
f 64 15 7
f 7 2 64
f 64 6 11
f 102 89 64
f 125 130 64
f 118 117 64
f 64 119 118
f 64 89 81
f 64 22 28
f 64 130 129
f 129 128 64
f 64 85 94
f 94 107 64
f 32 15 64
f 109 116 124
f 124 110 109
f 116 115 124
f 124 123 126
f 126 112 124
f 124 111 110
f 112 111 124
f 42 70 69
f 109 106 42
f 42 105 104
f 14 23 42
f 42 116 109
f 42 76 87
f 87 98 42
f 42 78 77
f 42 44 43
f 57 45 42
f 42 71 57
f 69 68 42
f 104 92 42
f 42 101 116
f 77 76 42
f 23 38 42
f 42 54 56
f 42 66 65
f 65 80 42
f 42 24 14
f 42 98 101
f 38 54 42
f 56 55 42
f 67 66 42
f 42 68 67
f 42 80 79
f 79 78 42
f 63 62 42
f 45 44 42
f 42 82 72
f 72 71 42
f 106 105 42
f 42 55 63
f 42 62 70
f 42 40 24
f 92 82 42
f 73 59 58
f 74 59 73
