v 0.084679 0.038006 -0.010023
v 0.084679 0.035049 -0.009968
v 0.083198 0.036528 -0.009942
v 0.083198 0.038006 -0.009962
v 0.083198 0.039486 -0.009968
v 0.084679 0.039486 -0.010020
v 0.102434 0.036527 -0.006473
v 0.102434 0.035047 -0.006447
v 0.084679 0.033995 -0.009768
v 0.083467 0.033930 -0.009806
v 0.083064 0.035173 -0.009855
v 0.082456 0.035751 -0.009583
v 0.082422 0.038006 -0.009603
v 0.082404 0.039486 -0.009615
v 0.082416 0.040672 -0.009606
v 0.083054 0.041083 -0.009832
v 0.083451 0.041863 -0.009745
v 0.084773 0.040990 -0.009846
v 0.102434 0.036805 -0.006470
v 0.103911 0.036805 -0.006002
v 0.103911 0.036527 -0.006002
v 0.104030 0.034975 -0.005710
v 0.103612 0.033923 -0.005513
v 0.102434 0.033664 -0.005776
v 0.099476 0.028104 -0.001834
v 0.097995 0.028104 -0.001981
v 0.083064 0.033587 -0.008978
v 0.082093 0.033966 -0.008576
v 0.082480 0.034764 -0.009563
v 0.092002 0.028104 -0.000752
v 0.080969 0.040096 -0.008111
v 0.080969 0.040264 -0.008111
v 0.082465 0.041659 -0.009574
v 0.085103 0.046519 -0.002704
v 0.085152 0.046523 -0.002719
v 0.084346 0.041863 -0.009745
v 0.104791 0.036805 -0.005368
v 0.104794 0.036527 -0.005368
v 0.104748 0.035422 -0.005290
v 0.110063 0.028590 0.001588
v 0.108103 0.028590 0.000498
v 0.107327 0.028590 0.000168
v 0.106873 0.028590 -0.000011
v 0.103762 0.028104 -0.000729
v 0.095006 0.028095 0.007970
v 0.078875 0.031084 0.009257
v 0.081983 0.035173 -0.008978
v 0.092002 0.028104 0.002092
v 0.078875 0.033340 0.008568
v 0.078875 0.033567 0.008513
v 0.082078 0.041946 -0.008588
v 0.078875 0.035029 0.008600
v 0.078875 0.036960 0.008754
v 0.084181 0.045840 -0.002704
v 0.085152 0.046530 -0.002704
v 0.084801 0.046333 -0.002704
v 0.078875 0.036960 0.018797
v 0.105026 0.036805 -0.004394
v 0.110063 0.032450 0.001690
v 0.110063 0.030301 0.001632
v 0.110063 0.028590 0.004767
v 0.103762 0.028104 0.001542
v 0.094261 0.028103 0.007970
v 0.106946 0.029003 0.011944
v 0.106873 0.028999 0.011944
v 0.105465 0.028990 0.011944
v 0.103762 0.028980 0.011944
v 0.078875 0.031084 0.018797
v 0.094093 0.028106 0.007970
v 0.092674 0.028227 0.007970
v 0.092002 0.028290 0.007970
v 0.083100 0.036960 0.018797
v 0.105291 0.032450 0.019526
v 0.105410 0.036805 0.002711
v 0.105410 0.036805 -0.001081
v 0.110063 0.032450 0.011944
v 0.110063 0.029223 0.011944
v 0.108350 0.029077 0.011944
v 0.091447 0.031084 0.018797
f 73 57 68
f 72 73 55
f 55 57 72
f 72 57 73
f 55 73 74
f 74 75 55
f 10 28 29
f 29 28 47
f 44 41 40
f 48 71 68
f 73 77 76
f 76 74 73
f 37 60 40
f 10 30 27
f 27 28 10
f 27 30 46
f 46 28 27
f 55 37 35
f 35 37 20
f 36 35 20
f 26 30 10
f 70 48 69
f 71 48 70
f 69 68 70
f 68 71 70
f 60 37 59
f 55 75 58
f 58 37 55
f 75 59 58
f 58 59 37
f 38 37 40
f 20 37 38
f 78 61 77
f 78 77 73
f 45 62 61
f 45 48 30
f 30 26 45
f 44 62 45
f 67 45 66
f 66 45 65
f 44 24 43
f 40 41 23
f 25 24 44
f 44 45 25
f 25 45 26
f 19 36 20
f 10 2 9
f 24 25 9
f 9 26 10
f 9 25 26
f 10 29 11
f 11 2 10
f 32 52 53
f 50 52 32
f 79 78 73
f 73 68 79
f 79 66 65
f 68 67 79
f 67 66 79
f 69 48 63
f 48 45 63
f 63 45 67
f 63 68 69
f 63 67 68
f 41 44 42
f 44 43 42
f 42 23 41
f 42 43 24
f 24 23 42
f 40 23 22
f 7 6 19
f 7 19 20
f 36 19 18
f 19 6 18
f 31 29 47
f 47 28 31
f 31 28 46
f 46 49 31
f 31 49 50
f 50 32 31
f 54 53 57
f 54 32 53
f 64 79 65
f 78 79 64
f 61 78 64
f 64 45 61
f 65 45 64
f 20 38 21
f 21 7 20
f 8 23 24
f 8 22 23
f 24 9 8
f 8 21 22
f 7 21 8
f 8 9 2
f 2 11 3
f 5 6 1
f 1 4 5
f 6 7 1
f 2 3 1
f 1 3 4
f 1 8 2
f 7 8 1
f 5 4 14
f 14 15 5
f 14 31 32
f 32 15 14
f 5 15 16
f 16 6 5
f 56 54 57
f 35 36 17
f 6 16 17
f 36 18 17
f 17 18 6
f 39 21 38
f 22 21 39
f 39 38 40
f 40 22 39
f 4 3 13
f 13 14 4
f 31 14 13
f 34 57 55
f 34 56 57
f 55 35 34
f 35 17 34
f 33 16 15
f 33 17 16
f 33 15 32
f 33 34 17
f 12 3 11
f 12 13 3
f 12 11 29
f 29 31 12
f 31 13 12
f 56 34 51
f 34 33 51
f 54 56 51
f 32 54 51
f 51 33 32
f 48 68 46
f 46 30 48
f 40 61 62
f 62 44 40
f 77 61 59
f 59 61 40
f 40 60 59
f 59 76 77
f 75 74 59
f 74 76 59
f 52 68 57
f 46 68 52
f 57 53 52
f 52 49 46
f 50 49 52
