v 0.078870 0.031082 0.009261
v 0.078072 0.031082 0.010054
v 0.068394 0.033331 0.005962
v 0.068394 0.034005 0.004968
v 0.069478 0.034029 0.004972
v 0.078870 0.044361 0.001652
v 0.078870 0.031082 0.032839
v 0.077618 0.031082 0.010567
v 0.067415 0.033893 0.005962
v 0.067581 0.034183 0.005133
v 0.076583 0.031082 0.012170
v 0.068394 0.033160 0.007439
v 0.068394 0.035049 0.004613
v 0.078870 0.045213 0.001303
v 0.078870 0.041790 0.034777
v 0.072031 0.035475 0.030428
v 0.071788 0.033924 0.029349
v 0.072068 0.032816 0.027473
v 0.078179 0.031082 0.031553
v 0.067185 0.035049 0.005962
v 0.067376 0.033869 0.007439
v 0.067041 0.035049 0.007439
v 0.067541 0.035049 0.005083
v 0.076079 0.031082 0.013272
v 0.074900 0.031082 0.017726
v 0.074805 0.031082 0.018190
v 0.074736 0.031082 0.018710
v 0.074700 0.031082 0.019275
v 0.074684 0.031082 0.019828
v 0.074677 0.031082 0.020756
v 0.074667 0.031082 0.022157
v 0.074679 0.031082 0.022776
v 0.068394 0.036528 0.004501
v 0.078870 0.045406 0.001271
v 0.078870 0.042446 0.034879
v 0.071999 0.036528 0.030454
v 0.071545 0.036528 0.029638
v 0.071688 0.035008 0.029760
v 0.070985 0.035049 0.028158
v 0.070578 0.034218 0.026121
v 0.071634 0.033485 0.028046
v 0.074915 0.031082 0.023917
v 0.075083 0.031082 0.024602
v 0.075360 0.031082 0.025658
v 0.075732 0.031082 0.026677
v 0.076208 0.031082 0.027872
v 0.077152 0.031082 0.029638
v 0.077781 0.031082 0.030813
v 0.070517 0.034085 0.025197
v 0.067155 0.038009 0.005962
v 0.066961 0.036528 0.007439
v 0.066921 0.038009 0.007439
v 0.066895 0.039487 0.007439
v 0.067145 0.039487 0.005962
v 0.067543 0.036528 0.005080
v 0.068394 0.039487 0.004468
v 0.068394 0.040965 0.004600
v 0.067631 0.041732 0.005185
v 0.078870 0.046331 0.001636
v 0.078870 0.043058 0.034777
v 0.072031 0.046243 0.030428
v 0.071999 0.045406 0.030454
v 0.071999 0.043925 0.030457
v 0.071555 0.043925 0.029638
v 0.070990 0.036528 0.028158
v 0.070704 0.038009 0.026967
v 0.070704 0.036528 0.026964
v 0.070704 0.035049 0.026957
v 0.071557 0.045406 0.029638
v 0.070559 0.035049 0.026217
v 0.067043 0.040965 0.007439
v 0.067207 0.040965 0.005962
v 0.070064 0.036528 0.023717
v 0.070062 0.038009 0.023717
v 0.070353 0.040965 0.025197
v 0.070557 0.045406 0.026184
v 0.070577 0.046211 0.026098
v 0.067597 0.040965 0.005139
v 0.067568 0.039487 0.005100
v 0.067555 0.038009 0.005090
v 0.067463 0.041891 0.005962
v 0.074524 0.046663 0.007439
v 0.074833 0.046453 0.006412
v 0.076209 0.046454 0.004827
v 0.075748 0.046713 0.005935
v 0.077180 0.046667 0.004393
v 0.078753 0.046697 0.003001
v 0.078870 0.046691 0.002883
v 0.078870 0.043620 0.034339
v 0.072834 0.046832 0.029638
v 0.071827 0.046500 0.029638
v 0.071055 0.045406 0.028158
v 0.071004 0.039487 0.028158
v 0.070708 0.039487 0.026957
v 0.070353 0.039487 0.025197
v 0.070557 0.038009 0.026227
v 0.070557 0.036528 0.026223
v 0.071026 0.043925 0.028158
v 0.067426 0.041920 0.007439
v 0.071589 0.046701 0.028158
v 0.070541 0.046282 0.025197
v 0.071675 0.046671 0.014841
v 0.071817 0.046558 0.013364
v 0.073042 0.046691 0.010403
v 0.073327 0.046486 0.009179
v 0.070449 0.046454 0.020759
v 0.074314 0.047209 0.010400
v 0.075793 0.047144 0.007439
v 0.077274 0.047016 0.005958
v 0.078753 0.046869 0.004481
v 0.078870 0.046857 0.004363
v 0.078870 0.046671 0.028181
v 0.077274 0.047005 0.028158
v 0.075793 0.046637 0.029283
v 0.075793 0.047160 0.028158
v 0.072834 0.047196 0.028158
v 0.070463 0.046443 0.022236
v 0.071353 0.046806 0.025197
v 0.071537 0.046721 0.016321
v 0.071353 0.046986 0.020759
v 0.072834 0.047095 0.013364
v 0.071353 0.046866 0.019279
v 0.072834 0.047184 0.014841
v 0.072834 0.047212 0.016321
v 0.078870 0.047117 0.026677
v 0.075793 0.047151 0.008919
v 0.078870 0.046735 0.028026
v 0.071353 0.046941 0.022236
f 1 4 5
f 1 5 6
f 3 4 1
f 35 16 15
f 15 16 7
f 18 7 17
f 7 16 17
f 57 58 34
f 34 56 57
f 14 6 5
f 22 20 9
f 9 3 12
f 61 89 90
f 116 118 100
f 53 76 77
f 77 71 53
f 99 71 77
f 121 104 103
f 34 14 13
f 13 5 4
f 13 14 5
f 50 20 53
f 53 54 50
f 50 23 20
f 50 54 23
f 20 23 10
f 10 9 20
f 10 13 4
f 23 13 10
f 4 3 10
f 3 9 10
f 22 9 21
f 21 12 18
f 21 9 12
f 18 45 46
f 60 61 35
f 89 61 60
f 91 61 90
f 91 116 100
f 90 116 91
f 100 77 91
f 72 54 53
f 53 71 72
f 38 17 16
f 38 39 17
f 51 20 22
f 82 105 104
f 82 83 58
f 34 58 59
f 100 118 101
f 101 77 100
f 99 77 101
f 81 103 104
f 104 105 81
f 81 82 58
f 105 82 81
f 58 72 81
f 99 106 81
f 81 71 99
f 81 72 71
f 33 23 56
f 33 13 23
f 33 56 34
f 34 13 33
f 23 54 55
f 56 23 55
f 56 79 78
f 58 57 78
f 78 57 56
f 78 72 58
f 78 79 54
f 54 72 78
f 12 24 25
f 25 26 12
f 2 3 1
f 2 8 3
f 12 3 11
f 3 8 11
f 11 24 12
f 18 46 47
f 44 45 18
f 18 12 32
f 32 42 18
f 12 31 32
f 112 113 89
f 90 89 114
f 114 113 90
f 89 113 114
f 115 113 125
f 115 116 90
f 90 113 115
f 36 16 35
f 35 63 36
f 35 61 62
f 62 63 35
f 61 69 62
f 102 81 106
f 103 81 102
f 121 103 102
f 120 122 106
f 116 124 120
f 121 102 120
f 64 69 39
f 64 62 69
f 53 20 52
f 20 51 52
f 17 39 40
f 39 68 40
f 22 21 40
f 40 51 22
f 58 83 84
f 84 59 58
f 117 101 118
f 117 120 106
f 117 106 99
f 99 101 117
f 54 79 80
f 80 55 54
f 80 79 56
f 56 55 80
f 12 28 29
f 12 26 27
f 27 28 12
f 19 7 18
f 18 42 43
f 43 44 18
f 125 113 127
f 113 112 127
f 106 122 119
f 119 102 106
f 122 120 119
f 119 120 102
f 118 116 128
f 116 120 128
f 128 117 118
f 120 117 128
f 109 108 125
f 107 115 125
f 107 124 116
f 116 115 107
f 107 104 121
f 107 82 104
f 107 108 82
f 39 69 65
f 65 66 39
f 92 98 69
f 92 91 77
f 92 77 76
f 76 98 92
f 61 91 92
f 92 69 61
f 37 36 63
f 63 62 37
f 62 64 37
f 37 38 16
f 16 36 37
f 39 38 37
f 37 64 39
f 73 74 53
f 67 68 39
f 39 66 67
f 94 98 76
f 76 66 94
f 75 66 76
f 75 76 53
f 53 74 75
f 70 52 51
f 51 40 70
f 70 40 68
f 53 52 70
f 70 73 53
f 68 73 70
f 18 17 41
f 41 40 18
f 17 40 41
f 49 21 18
f 18 40 49
f 49 40 21
f 59 84 85
f 85 84 83
f 83 82 85
f 82 108 85
f 30 31 12
f 12 29 30
f 18 47 48
f 48 19 18
f 125 111 110
f 110 109 125
f 125 108 126
f 126 107 125
f 108 107 126
f 123 107 121
f 124 107 123
f 121 120 123
f 123 120 124
f 69 98 93
f 93 65 69
f 98 94 93
f 66 65 93
f 93 94 66
f 66 75 95
f 95 75 74
f 59 85 86
f 86 85 108
f 88 110 111
f 109 110 88
f 108 109 88
f 96 67 66
f 66 95 96
f 87 88 59
f 59 86 87
f 87 86 108
f 108 88 87
f 67 96 97
f 97 73 68
f 68 67 97
f 74 73 97
f 97 95 74
f 97 96 95
f 1 7 48
f 45 44 48
f 48 25 24
f 24 11 48
f 48 32 31
f 48 2 1
f 48 46 45
f 48 27 26
f 48 43 42
f 26 25 48
f 8 2 48
f 48 11 8
f 48 47 46
f 7 19 48
f 42 32 48
f 48 29 28
f 28 27 48
f 31 30 48
f 44 43 48
f 48 30 29
f 88 7 1
f 88 60 35
f 1 6 88
f 88 14 34
f 35 15 88
f 88 15 7
f 6 14 88
f 34 59 88
f 88 111 125
f 89 60 88
f 125 127 88
f 88 112 89
f 88 127 112
