v 0.104821 0.010284 -0.000926
v 0.104821 0.019983 -0.000723
v 0.105434 0.010284 -0.000836
v 0.104821 0.010284 0.003123
v 0.104821 0.020212 -0.000716
v 0.106117 0.011941 -0.000696
v 0.106191 0.010284 -0.000716
v 0.104821 0.022593 0.001177
v 0.116845 0.010284 0.021371
v 0.118073 0.028158 0.022120
v 0.104821 0.022280 -0.000653
v 0.106743 0.011416 -0.000504
v 0.106878 0.022593 -0.000105
v 0.106893 0.010284 -0.000479
v 0.104821 0.022593 -0.000635
v 0.117634 0.028158 0.021283
v 0.110067 0.028158 0.004587
v 0.122076 0.010284 0.021371
v 0.118890 0.022595 0.022120
v 0.121838 0.028158 0.022120
v 0.104821 0.022389 -0.000648
v 0.107459 0.022593 0.000114
v 0.108262 0.022593 0.000421
v 0.110067 0.028158 0.001576
v 0.108283 0.021722 0.000407
v 0.108361 0.015806 0.000292
v 0.108361 0.014327 0.000261
v 0.108361 0.012847 0.000243
v 0.108361 0.011367 0.000247
v 0.108457 0.010284 0.000324
v 0.121836 0.027645 0.022120
v 0.121790 0.022644 0.022120
v 0.121789 0.022595 0.022120
v 0.122054 0.010284 0.020358
v 0.121979 0.027645 0.020758
v 0.121973 0.028158 0.020758
v 0.110582 0.028158 0.001849
v 0.110964 0.028158 0.002052
v 0.111447 0.028158 0.002314
v 0.108361 0.017284 0.000331
v 0.111704 0.028158 0.002453
v 0.111717 0.027645 0.002447
v 0.111754 0.026165 0.002431
v 0.109165 0.015806 0.000739
v 0.109185 0.014327 0.000721
v 0.109177 0.012847 0.000725
v 0.113759 0.010284 0.003590
v 0.122003 0.010284 0.018879
v 0.121979 0.017284 0.019278
v 0.121964 0.018765 0.019278
v 0.121890 0.024684 0.019278
v 0.121868 0.026165 0.019278
v 0.121834 0.027645 0.019278
v 0.121817 0.028158 0.019278
v 0.112798 0.028158 0.003123
v 0.111783 0.024684 0.002426
v 0.113627 0.028158 0.003672
v 0.114367 0.028158 0.004251
v 0.114955 0.028158 0.004732
v 0.114198 0.010284 0.003954
v 0.121941 0.010284 0.017798
v 0.121927 0.011367 0.017798
v 0.121888 0.014327 0.017798
v 0.121868 0.015806 0.017798
v 0.121834 0.017284 0.017798
v 0.121787 0.018765 0.017798
v 0.121660 0.022593 0.017798
v 0.121640 0.023204 0.017798
v 0.121490 0.027645 0.017798
v 0.121697 0.028158 0.018764
v 0.115266 0.028158 0.004989
v 0.115310 0.010284 0.004935
v 0.121601 0.010284 0.016316
v 0.121574 0.011367 0.016316
v 0.120915 0.028158 0.015653
v 0.121049 0.028158 0.016135
v 0.121116 0.028158 0.016393
v 0.121354 0.028158 0.017324
v 0.121471 0.028158 0.017798
v 0.115850 0.010284 0.005564
v 0.116007 0.028158 0.005918
v 0.121476 0.010284 0.016027
v 0.121076 0.014327 0.015271
v 0.121008 0.020243 0.015420
v 0.120956 0.024684 0.015535
v 0.120932 0.026703 0.015594
v 0.120789 0.028158 0.015355
v 0.116058 0.010284 0.005844
v 0.116521 0.028158 0.006658
v 0.116578 0.010284 0.006550
v 0.121120 0.010284 0.015251
v 0.121110 0.011367 0.015244
v 0.121091 0.012847 0.015249
v 0.120735 0.014327 0.014531
v 0.119370 0.022595 0.011937
v 0.119562 0.023204 0.012386
v 0.120559 0.028158 0.014836
v 0.119389 0.028158 0.012255
v 0.116983 0.028158 0.007441
v 0.117455 0.028158 0.008256
v 0.117698 0.028158 0.008693
v 0.117965 0.028158 0.009178
v 0.118100 0.027645 0.009429
v 0.118103 0.026165 0.009438
v 0.119610 0.018765 0.012336
v 0.118392 0.028158 0.010069
v 0.118546 0.028158 0.010401
v 0.118093 0.028158 0.009435
f 10 9 19
f 4 9 10
f 8 4 10
f 81 80 71
f 16 8 10
f 17 8 16
f 1 2 3
f 14 7 12
f 12 23 14
f 58 47 57
f 72 71 80
f 59 47 58
f 35 36 20
f 35 20 18
f 18 20 31
f 88 80 81
f 81 90 88
f 43 44 26
f 71 72 60
f 60 59 71
f 47 59 60
f 32 33 18
f 18 31 32
f 89 90 81
f 45 56 47
f 45 44 43
f 43 56 45
f 14 23 25
f 25 26 14
f 27 28 14
f 14 26 27
f 27 45 28
f 27 26 44
f 44 45 27
f 29 30 14
f 14 28 29
f 28 45 29
f 7 3 6
f 6 3 2
f 6 12 7
f 47 30 46
f 30 29 46
f 46 45 47
f 46 29 45
f 5 6 2
f 11 6 5
f 12 6 13
f 13 21 15
f 11 21 13
f 13 6 11
f 15 24 13
f 55 56 43
f 55 57 47
f 47 56 55
f 26 25 40
f 34 35 18
f 34 48 35
f 49 48 61
f 35 48 49
f 65 64 73
f 90 102 103
f 101 102 90
f 90 100 101
f 90 89 99
f 99 100 90
f 87 75 86
f 86 97 87
f 23 12 22
f 12 13 22
f 22 24 23
f 22 13 24
f 41 55 42
f 42 55 43
f 43 26 42
f 26 40 42
f 25 41 42
f 42 40 25
f 23 24 37
f 37 38 23
f 23 38 39
f 39 25 23
f 39 41 25
f 35 49 50
f 50 49 61
f 66 67 54
f 66 77 67
f 76 65 75
f 77 66 76
f 76 66 65
f 74 65 73
f 75 65 74
f 73 86 74
f 74 86 75
f 54 36 53
f 36 52 53
f 53 66 54
f 65 66 53
f 64 65 53
f 53 52 64
f 64 52 51
f 35 50 51
f 36 35 51
f 51 52 36
f 108 103 102
f 105 91 90
f 105 92 91
f 91 92 82
f 82 83 73
f 94 105 103
f 92 105 94
f 54 69 70
f 70 69 79
f 54 67 68
f 68 69 54
f 79 69 78
f 69 68 78
f 67 77 78
f 78 68 67
f 83 96 84
f 73 83 84
f 64 51 63
f 73 64 63
f 62 50 61
f 62 51 50
f 62 63 51
f 62 61 73
f 73 63 62
f 98 96 107
f 97 84 98
f 98 84 96
f 103 108 106
f 90 103 104
f 104 105 90
f 103 105 104
f 83 82 93
f 93 82 92
f 93 94 83
f 92 94 93
f 83 94 95
f 95 96 83
f 107 96 95
f 95 106 107
f 95 94 103
f 103 106 95
f 97 86 85
f 85 84 97
f 85 86 73
f 73 84 85
f 33 9 18
f 33 19 9
f 24 15 8
f 24 8 17
f 32 20 10
f 19 33 32
f 10 19 32
f 32 31 20
f 1 4 5
f 5 2 1
f 4 8 5
f 8 15 5
f 15 21 5
f 5 21 11
f 18 9 82
f 82 4 1
f 47 60 82
f 9 4 82
f 82 72 80
f 1 3 82
f 82 7 14
f 80 88 82
f 82 34 18
f 82 3 7
f 14 30 82
f 82 88 90
f 82 30 47
f 82 60 72
f 73 61 82
f 61 48 82
f 90 91 82
f 48 34 82
f 106 36 54
f 106 59 58
f 10 20 106
f 106 16 10
f 81 71 106
f 58 57 106
f 20 36 106
f 106 89 81
f 17 16 106
f 106 24 17
f 71 59 106
f 106 75 87
f 87 97 106
f 106 99 89
f 106 108 102
f 57 55 106
f 77 76 106
f 102 101 106
f 54 70 106
f 41 39 106
f 106 55 41
f 106 37 24
f 106 78 77
f 106 101 100
f 100 99 106
f 38 37 106
f 106 39 38
f 106 76 75
f 106 98 107
f 106 70 79
f 79 78 106
f 97 98 106
