v 0.077839 0.026164 0.031003
v 0.077844 0.027645 0.031003
v 0.077855 0.024685 0.031003
v 0.079249 0.017285 0.033830
v 0.079243 0.018765 0.033817
v 0.077847 0.027952 0.031003
v 0.077884 0.023205 0.031003
v 0.079251 0.017095 0.033830
v 0.079641 0.017095 0.034570
v 0.079641 0.017285 0.034570
v 0.079249 0.020246 0.033800
v 0.080172 0.017095 0.035563
v 0.077854 0.028553 0.031003
v 0.077930 0.021725 0.031003
v 0.078715 0.017285 0.032602
v 0.078722 0.017095 0.032602
v 0.079276 0.024685 0.033748
v 0.078043 0.028553 0.031355
v 0.079664 0.023205 0.034505
v 0.079698 0.028553 0.034443
v 0.080247 0.023205 0.035563
v 0.080767 0.017095 0.036640
v 0.080553 0.028553 0.031003
v 0.078108 0.017207 0.031003
v 0.078221 0.017285 0.031313
v 0.078226 0.017095 0.031302
v 0.080290 0.026164 0.035563
v 0.080313 0.027645 0.035563
v 0.080337 0.028553 0.035563
v 0.081277 0.017095 0.037379
v 0.080768 0.017285 0.036637
v 0.080485 0.017095 0.031003
v 0.092001 0.028553 0.041281
v 0.078113 0.017095 0.031003
v 0.078189 0.017095 0.031207
v 0.080780 0.018765 0.036616
v 0.080793 0.020246 0.036589
v 0.080855 0.027645 0.036437
v 0.080873 0.028553 0.036413
v 0.082017 0.017095 0.038187
v 0.081281 0.017285 0.037376
v 0.092001 0.017095 0.041609
v 0.092001 0.028553 0.043712
v 0.081318 0.018765 0.037356
v 0.082021 0.017285 0.038180
v 0.082059 0.018765 0.038124
v 0.082106 0.020246 0.038069
v 0.082167 0.021725 0.038013
v 0.081768 0.028553 0.037174
v 0.082868 0.017095 0.038928
v 0.092001 0.017095 0.043168
v 0.092001 0.021529 0.043411
v 0.090594 0.028553 0.043316
v 0.089115 0.024685 0.042821
v 0.089115 0.023205 0.042768
v 0.089115 0.021725 0.042713
v 0.089115 0.017285 0.042547
v 0.090594 0.017095 0.042914
v 0.082304 0.024685 0.037902
v 0.085156 0.017095 0.040798
v 0.082423 0.027241 0.037807
v 0.082486 0.028553 0.037757
v 0.090023 0.028553 0.043154
v 0.089115 0.026164 0.042848
v 0.087299 0.018765 0.042097
v 0.087397 0.017285 0.042082
v 0.088039 0.018765 0.042312
v 0.088136 0.017285 0.042285
v 0.089115 0.017095 0.042540
v 0.089003 0.017095 0.042510
v 0.085251 0.017095 0.040876
v 0.085260 0.017285 0.040868
v 0.087916 0.028553 0.042127
v 0.089115 0.028553 0.042827
v 0.089115 0.027645 0.042841
v 0.088043 0.024685 0.042422
v 0.087252 0.020246 0.042085
v 0.086154 0.017095 0.041473
v 0.087238 0.017095 0.042006
v 0.087410 0.017095 0.042077
v 0.088150 0.017095 0.042281
v 0.086030 0.017095 0.041399
v 0.086154 0.018765 0.041423
v 0.088085 0.026164 0.042421
v 0.088157 0.027645 0.042386
v 0.088203 0.028553 0.042356
v 0.088745 0.028553 0.042652
f 43 58 52
f 42 32 33
f 33 32 23
f 57 58 43
f 51 52 58
f 58 57 69
f 69 57 70
f 3 7 8
f 15 16 8
f 8 7 15
f 7 14 15
f 15 14 16
f 18 17 20
f 5 6 2
f 5 2 1
f 16 14 25
f 20 28 29
f 39 29 38
f 38 29 28
f 22 21 12
f 13 6 11
f 6 5 11
f 11 18 13
f 17 18 11
f 20 17 11
f 5 12 11
f 56 57 43
f 24 25 14
f 34 35 24
f 24 35 25
f 37 38 28
f 30 38 37
f 44 40 39
f 39 38 44
f 27 21 22
f 27 28 20
f 20 21 27
f 20 11 19
f 19 11 12
f 19 21 20
f 19 12 21
f 16 25 26
f 25 35 26
f 36 37 28
f 30 37 36
f 41 30 40
f 40 44 41
f 41 38 30
f 41 44 38
f 8 9 4
f 4 5 1
f 1 3 4
f 4 3 8
f 10 9 12
f 10 12 5
f 5 4 10
f 10 4 9
f 86 73 72
f 72 73 62
f 72 62 60
f 48 50 60
f 47 50 48
f 39 47 48
f 86 85 87
f 63 74 75
f 64 63 75
f 31 36 28
f 31 27 22
f 28 27 31
f 22 30 31
f 30 36 31
f 46 50 47
f 46 47 39
f 60 62 61
f 78 79 65
f 64 65 54
f 43 53 54
f 54 53 63
f 54 63 64
f 76 65 64
f 64 75 76
f 40 50 45
f 50 46 45
f 39 40 45
f 45 46 39
f 59 48 60
f 49 61 62
f 39 48 49
f 48 59 49
f 60 61 49
f 49 59 60
f 71 72 60
f 71 85 86
f 86 72 71
f 70 57 68
f 57 56 68
f 77 78 65
f 65 76 77
f 84 75 74
f 84 76 75
f 74 87 84
f 84 87 85
f 84 77 76
f 83 77 84
f 85 71 84
f 84 71 83
f 83 71 82
f 82 77 83
f 78 77 82
f 70 68 81
f 66 68 67
f 67 54 66
f 80 81 66
f 66 81 68
f 66 54 65
f 79 80 66
f 65 79 66
f 55 68 56
f 55 56 43
f 43 54 55
f 55 54 67
f 67 68 55
f 43 52 51
f 33 43 51
f 51 42 33
f 32 34 24
f 24 23 32
f 1 2 24
f 13 23 24
f 24 6 13
f 24 3 1
f 2 6 24
f 7 3 24
f 24 14 7
f 49 43 33
f 49 23 13
f 33 23 49
f 86 87 49
f 13 18 49
f 49 29 39
f 49 18 20
f 20 29 49
f 49 73 86
f 49 53 43
f 62 73 49
f 63 53 49
f 49 74 63
f 49 87 74
f 58 69 81
f 81 51 58
f 8 16 81
f 81 34 32
f 32 42 81
f 42 51 81
f 40 30 81
f 81 69 70
f 81 35 34
f 81 50 40
f 81 30 22
f 16 26 81
f 22 12 81
f 81 9 8
f 12 9 81
f 81 26 35
f 60 50 81
f 78 82 81
f 79 78 81
f 81 80 79
f 81 71 60
f 81 82 71
