v 0.104332 -0.005936 0.041771
v 0.107740 -0.005681 0.042338
v 0.104332 -0.005861 0.042823
v 0.101513 -0.001178 0.034057
v 0.101513 -0.001194 0.032600
v 0.104332 -0.005933 0.041486
v 0.108848 -0.005661 0.040472
v 0.108848 -0.005663 0.040997
v 0.108265 -0.004981 0.042905
v 0.106877 -0.005398 0.043207
v 0.108726 -0.005511 0.041751
v 0.104332 -0.005770 0.043025
v 0.101513 0.005237 0.034057
v 0.104332 -0.005513 0.043468
v 0.104332 -0.004922 0.044354
v 0.104332 -0.003434 0.045984
v 0.104332 -0.002483 0.046647
v 0.104332 -0.002038 0.046717
v 0.104332 -0.001516 0.046783
v 0.104332 -0.001200 0.046804
v 0.104332 0.003026 0.046953
v 0.101513 -0.001149 0.031119
v 0.101513 -0.001051 0.028197
v 0.104332 -0.005814 0.039988
v 0.109923 -0.003764 0.006047
v 0.106877 -0.005695 0.038936
v 0.107723 -0.005671 0.039135
v 0.113520 -0.003821 0.009660
v 0.108848 -0.005433 0.041697
v 0.113520 -0.003429 0.011427
v 0.113520 -0.000694 0.021140
v 0.108848 -0.004759 0.042703
v 0.108848 -0.004581 0.042926
v 0.108848 -0.003303 0.044432
v 0.107804 -0.004448 0.043808
v 0.108848 -0.005348 0.041871
v 0.101513 0.005587 0.032534
v 0.104332 0.003962 0.046953
v 0.104332 0.004592 0.046916
v 0.104332 0.005439 0.046812
v 0.104332 0.005849 0.046754
v 0.104332 0.006221 0.046676
v 0.104332 0.010282 0.044180
v 0.108848 -0.001885 0.045521
v 0.108848 0.003274 0.048327
v 0.108699 0.003477 0.048327
v 0.108503 0.003984 0.048327
v 0.108320 0.004931 0.048327
v 0.101513 -0.000365 0.021140
v 0.104332 -0.005708 0.039085
v 0.106187 -0.004175 0.017109
v 0.108503 -0.003539 0.006047
v 0.111404 -0.003573 0.006047
v 0.113520 -0.003556 0.008166
v 0.113520 0.005616 0.021140
v 0.101513 0.005808 0.031119
v 0.108326 0.005439 0.048327
v 0.108606 0.006095 0.048327
v 0.108789 0.006518 0.048327
v 0.108848 0.006611 0.048327
v 0.104332 0.010282 0.039565
v 0.101513 0.005821 0.030667
v 0.104910 0.010282 0.043853
v 0.108357 0.011400 0.017800
v 0.106878 0.011416 0.017800
v 0.105398 0.011068 0.017800
v 0.104615 0.010684 0.017800
v 0.101513 0.005303 0.021140
v 0.104010 -0.001411 0.006047
v 0.107059 -0.003251 0.006047
v 0.113520 -0.003118 0.006047
v 0.113520 0.010280 0.010719
v 0.108848 0.010282 0.041506
v 0.107641 0.010282 0.042235
v 0.113520 0.010280 0.006047
v 0.109619 0.010280 0.006047
v 0.106878 0.011260 0.016323
v 0.105447 0.010878 0.016431
v 0.104628 0.010662 0.016998
v 0.104010 0.007710 0.009552
v 0.104010 0.005794 0.006047
f 65 43 64
f 72 75 64
f 64 75 65
f 72 64 73
f 44 31 45
f 14 15 4
f 72 73 55
f 67 79 68
f 62 67 68
f 8 30 31
f 28 30 8
f 8 7 28
f 31 44 34
f 17 44 45
f 43 13 42
f 60 55 73
f 43 42 60
f 65 77 66
f 79 67 66
f 66 43 65
f 66 67 43
f 79 66 78
f 78 66 77
f 37 13 43
f 43 67 61
f 61 62 43
f 67 62 61
f 2 8 11
f 2 11 9
f 19 47 20
f 19 20 4
f 16 34 44
f 44 17 16
f 4 15 16
f 16 17 4
f 28 7 27
f 7 6 27
f 69 51 50
f 50 49 69
f 7 8 1
f 1 6 7
f 1 8 2
f 2 3 1
f 1 3 4
f 43 60 63
f 63 64 43
f 59 60 42
f 28 25 53
f 70 51 69
f 20 47 48
f 57 38 48
f 76 78 77
f 79 78 76
f 65 75 76
f 76 77 65
f 43 62 56
f 56 37 43
f 36 11 29
f 29 11 8
f 29 31 36
f 29 8 31
f 34 9 33
f 31 34 33
f 18 17 45
f 4 17 18
f 18 19 4
f 47 19 46
f 46 18 45
f 19 18 46
f 2 9 10
f 10 16 15
f 15 14 10
f 10 3 2
f 4 20 21
f 20 48 21
f 21 48 38
f 6 25 26
f 26 27 6
f 26 25 28
f 28 27 26
f 24 50 51
f 51 25 24
f 24 25 6
f 6 23 24
f 24 23 49
f 49 50 24
f 5 1 4
f 6 1 5
f 74 60 73
f 74 63 60
f 74 73 64
f 64 63 74
f 54 53 71
f 28 53 54
f 52 25 51
f 51 70 52
f 80 76 81
f 79 76 80
f 80 81 68
f 68 79 80
f 36 31 32
f 31 33 32
f 32 33 9
f 32 11 36
f 32 9 11
f 34 16 35
f 16 10 35
f 35 9 34
f 35 10 9
f 12 10 14
f 3 10 12
f 12 14 4
f 4 3 12
f 41 42 13
f 13 40 41
f 41 59 42
f 41 40 57
f 13 38 39
f 39 40 13
f 39 38 57
f 57 40 39
f 22 23 6
f 6 5 22
f 58 41 57
f 59 41 58
f 81 49 68
f 69 49 81
f 31 55 60
f 45 31 60
f 21 13 4
f 21 38 13
f 54 30 28
f 72 55 54
f 54 75 72
f 54 55 31
f 31 30 54
f 54 71 75
f 75 71 52
f 69 81 52
f 52 70 69
f 71 53 52
f 52 53 25
f 52 76 75
f 81 76 52
f 68 49 22
f 13 37 22
f 4 13 22
f 22 62 68
f 22 56 62
f 49 23 22
f 37 56 22
f 22 5 4
f 45 60 58
f 57 48 58
f 58 46 45
f 60 59 58
f 58 48 47
f 47 46 58
