v 0.001822 -0.000039 0.002958
v 0.001750 -0.000519 0.002958
v 0.001813 0.000165 0.002958
v 0.001750 -0.000039 0.008517
v 0.001693 -0.000675 0.002958
v 0.001654 -0.000539 0.008517
v 0.001557 -0.000809 0.008517
v 0.001777 0.000452 0.002958
v 0.001688 0.000462 0.008517
v 0.001606 -0.000890 0.002958
v 0.001369 -0.001060 0.008517
v 0.001635 0.000845 0.002958
v 0.001580 0.000773 0.008517
v 0.001649 0.000575 0.008517
v 0.001185 -0.001395 0.002958
v 0.001118 -0.001354 0.008517
v 0.001537 0.000985 0.002958
v 0.001405 0.001023 0.008517
v 0.001468 0.000933 0.008517
v 0.000983 -0.001522 0.002958
v 0.001001 -0.001426 0.008517
v 0.001351 0.001206 0.002958
v 0.001154 0.001312 0.008517
v 0.001206 0.001374 0.002958
v 0.000817 -0.001622 0.002958
v 0.000794 -0.001551 0.008517
v 0.000794 0.001542 0.008517
v 0.000997 0.001507 0.002958
v 0.000293 -0.001750 0.002958
v 0.000293 -0.001722 0.008517
v 0.000440 0.001693 0.008517
v 0.000370 0.001799 0.002958
v -0.000208 -0.001752 0.002958
v -0.000208 -0.001727 0.008517
v 0.000189 0.001742 0.008517
v 0.000246 0.001824 0.002958
v -0.000503 -0.001702 0.002958
v -0.000708 -0.001580 0.008517
v -0.000708 -0.001642 0.002958
v -0.000190 0.001742 0.008517
v -0.000221 0.001825 0.002958
v -0.000839 -0.001507 0.008517
v -0.001117 -0.001446 0.002958
v -0.000909 -0.001562 0.002958
v -0.000440 0.001711 0.008517
v -0.000708 0.001632 0.002958
v -0.001069 -0.001378 0.008517
v -0.001262 -0.001304 0.002958
v -0.001319 -0.001133 0.008517
v -0.000611 0.001634 0.008517
v -0.001164 0.001408 0.002958
v -0.000708 0.001590 0.008517
v -0.001464 -0.001085 0.002958
v -0.001520 -0.000882 0.008517
v -0.001575 -0.000947 0.002958
v -0.001593 0.000893 0.002958
v -0.001362 0.001082 0.008517
v -0.001203 0.001248 0.008517
v -0.001112 0.001342 0.008517
v -0.001610 -0.000663 0.008517
v -0.001740 -0.000553 0.002958
v -0.001749 0.000478 0.002958
v -0.001672 0.000462 0.008517
v -0.001582 0.000698 0.008517
v -0.001530 0.000832 0.008517
v -0.001661 -0.000539 0.008517
v -0.001785 -0.000274 0.002958
v -0.001744 -0.000039 0.008517
v -0.001802 -0.000039 0.002958
v -0.001698 0.000280 0.008517
f 57 51 56
f 41 46 45
f 1 4 2
f 15 10 11
f 69 68 62
f 3 4 1
f 3 8 4
f 31 32 36
f 52 46 51
f 17 18 12
f 23 18 24
f 13 8 12
f 7 11 10
f 53 48 49
f 49 55 53
f 49 48 43
f 38 43 44
f 56 62 63
f 29 25 30
f 15 11 16
f 31 36 35
f 35 36 41
f 50 45 46
f 46 52 50
f 59 52 51
f 24 18 22
f 18 17 22
f 24 28 27
f 27 23 24
f 27 28 32
f 27 32 31
f 12 18 19
f 19 13 12
f 4 8 9
f 5 7 10
f 2 7 5
f 6 2 4
f 6 7 2
f 54 55 49
f 61 66 68
f 55 54 61
f 49 43 47
f 70 62 68
f 70 63 62
f 57 56 65
f 30 25 26
f 15 16 20
f 41 45 40
f 40 35 41
f 58 51 57
f 58 59 51
f 8 13 14
f 14 9 8
f 67 68 69
f 67 61 68
f 66 61 60
f 60 61 54
f 43 38 42
f 42 47 43
f 34 37 33
f 33 29 34
f 34 29 30
f 39 38 44
f 39 34 38
f 37 34 39
f 56 63 64
f 64 65 56
f 21 20 16
f 25 20 21
f 21 26 25
f 39 3 1
f 39 46 41
f 1 2 39
f 39 43 48
f 15 20 39
f 69 62 39
f 39 28 24
f 39 56 51
f 51 46 39
f 39 10 15
f 39 5 10
f 12 8 39
f 41 36 39
f 24 22 39
f 39 29 33
f 48 53 39
f 39 62 56
f 33 37 39
f 8 3 39
f 39 36 32
f 32 28 39
f 39 17 12
f 39 53 55
f 44 43 39
f 25 29 39
f 39 22 17
f 2 5 39
f 55 61 39
f 39 67 69
f 39 20 25
f 61 67 39
f 21 19 18
f 21 54 49
f 21 40 45
f 4 9 21
f 21 6 4
f 57 65 21
f 45 50 21
f 21 70 68
f 31 35 21
f 18 23 21
f 21 27 31
f 11 7 21
f 68 66 21
f 21 42 38
f 49 47 21
f 21 16 11
f 30 26 21
f 21 50 52
f 52 59 21
f 23 27 21
f 13 19 21
f 21 58 57
f 7 6 21
f 21 14 13
f 66 60 21
f 63 70 21
f 21 34 30
f 21 64 63
f 35 40 21
f 59 58 21
f 9 14 21
f 21 60 54
f 47 42 21
f 38 34 21
f 65 64 21
