v 0.019194 0.030349 -0.000300
v 0.019212 0.029851 -0.000300
v 0.019171 0.029355 -0.000300
v 0.019072 0.028868 -0.000300
v 0.018793 0.031779 -0.000300
v 0.018983 0.031319 -0.000300
v 0.019117 0.030840 -0.000300
v 0.017918 0.032981 -0.000300
v 0.018257 0.032616 -0.000300
v 0.018549 0.032213 -0.000300
v 0.015234 0.034142 -0.000300
v 0.015728 0.034086 -0.000300
v 0.013759 0.033956 -0.000300
v 0.014242 0.034076 -0.000300
v 0.014736 0.034138 -0.000300
v 0.012442 0.033269 -0.000300
v 0.012853 0.033550 -0.000300
v 0.013294 0.033780 -0.000300
v 0.016213 0.033973 -0.000300
v 0.016680 0.033803 -0.000300
v 0.017124 0.033578 -0.000300
v 0.017539 0.033303 -0.000300
v 0.011447 0.032166 -0.000300
v 0.011734 0.032572 -0.000300
v 0.012067 0.032941 -0.000300
v 0.011209 0.031728 -0.000300
v 0.018916 0.028395 -0.000300
v 0.018705 0.027945 -0.000300
v 0.003523 -0.002286 -0.000300
v 0.003228 -0.002687 -0.000300
v -0.003653 0.002073 -0.000300
v -0.004146 0.000672 -0.000300
v -0.004037 0.001157 -0.000300
v -0.003872 0.001627 -0.000300
v -0.004120 -0.000814 -0.000300
v -0.004188 -0.000321 -0.000300
v -0.004196 0.000177 -0.000300
v 0.003769 -0.001853 -0.000300
v -0.003579 -0.002198 -0.000300
v -0.003814 -0.001759 -0.000300
v -0.003995 -0.001296 -0.000300
v -0.000301 -0.004189 -0.000300
v -0.000794 -0.004124 -0.000300
v 0.001177 -0.004032 -0.000300
v 0.000691 -0.004143 -0.000300
v 0.000197 -0.004195 -0.000300
v 0.002888 -0.003050 -0.000300
v 0.002507 -0.003370 -0.000300
v 0.002091 -0.003643 -0.000300
v 0.001645 -0.003864 -0.000300
v -0.001277 -0.004001 -0.000300
v -0.001741 -0.003822 -0.000300
v -0.002181 -0.003590 -0.000300
v -0.002590 -0.003306 -0.000300
v -0.002963 -0.002977 -0.000300
v -0.003294 -0.002606 -0.000300
v -0.003786 -0.004261 -0.000300
v -0.002554 -0.005096 -0.000300
v -0.001149 -0.005583 -0.000300
v -0.004760 -0.003136 -0.000300
v 0.014677 0.035638 -0.000300
v 0.016162 0.035531 -0.000300
v 0.009917 0.032502 -0.000300
v -0.005690 -0.000336 -0.000300
v -0.005409 -0.001797 -0.000300
v 0.000336 -0.005690 -0.000300
v 0.001797 -0.005409 -0.000300
v 0.003136 -0.004760 -0.000300
v -0.005583 0.001149 -0.000300
v 0.010752 0.033734 -0.000300
v 0.011877 0.034708 -0.000300
v -0.005096 0.002554 -0.000300
v 0.013216 0.035357 -0.000300
v 0.005096 -0.002554 -0.000300
v 0.004261 -0.003786 -0.000300
v 0.018799 0.034208 -0.000300
v 0.019773 0.033083 -0.000300
v 0.017567 0.035043 -0.000300
v 0.020596 0.028799 -0.000300
v 0.020109 0.027393 -0.000300
v 0.020703 0.030283 -0.000300
v 0.020422 0.031744 -0.000300
v 0.020703 0.030283 0.004700
v -0.004760 -0.003136 0.004700
v -0.003786 -0.004261 0.004700
v -0.002554 -0.005096 0.004700
v -0.001149 -0.005583 0.004700
v 0.000336 -0.005690 0.004700
v 0.001797 -0.005409 0.004700
v 0.003136 -0.004760 0.004700
v 0.004261 -0.003786 0.004700
v 0.005096 -0.002554 0.004700
v 0.020109 0.027393 0.004700
v 0.020596 0.028799 0.004700
v -0.005096 0.002554 0.004700
v -0.005583 0.001149 0.004700
v -0.005690 -0.000336 0.004700
v -0.005409 -0.001797 0.004700
v 0.020422 0.031744 0.004700
v 0.019773 0.033083 0.004700
v 0.018799 0.034208 0.004700
v 0.017567 0.035043 0.004700
v 0.009917 0.032502 0.004700
v 0.010752 0.033734 0.004700
v 0.011877 0.034708 0.004700
v 0.013216 0.035357 0.004700
v 0.014677 0.035638 0.004700
v 0.016162 0.035531 0.004700
v 0.009649 0.032637 0.000000
v 0.009649 0.032637 0.004400
v 0.010528 0.033933 0.004400
v 0.010528 0.033933 0.000000
v 0.011712 0.034958 0.004400
v 0.011712 0.034958 0.000000
v 0.013122 0.035642 0.004400
v 0.013122 0.035642 0.000000
v 0.014660 0.035937 0.004400
v 0.014660 0.035937 0.000000
v 0.016222 0.035825 0.004400
v 0.016222 0.035825 0.000000
v 0.017702 0.035311 0.004400
v 0.017702 0.035311 0.000000
v 0.018999 0.034433 0.004400
v 0.018999 0.034433 0.000000
v 0.020024 0.033248 0.004400
v 0.020024 0.033248 0.000000
v 0.020707 0.031839 0.004400
v 0.020707 0.031839 0.000000
v 0.021003 0.030301 0.004400
v 0.021003 0.030301 0.000000
v 0.020890 0.028739 0.004400
v 0.020890 0.028739 0.000000
v 0.020377 0.027259 0.004400
v 0.020377 0.027259 0.000000
v 0.005364 -0.002689 0.004400
v 0.005364 -0.002689 0.000000
v 0.004485 -0.003986 0.004400
v 0.004485 -0.003986 0.000000
v 0.003301 -0.005011 0.004400
v 0.003301 -0.005011 0.000000
v 0.001891 -0.005694 0.004400
v 0.001891 -0.005694 0.000000
v 0.000353 -0.005990 0.004400
v 0.000353 -0.005990 0.000000
v -0.001209 -0.005877 0.004400
v -0.001209 -0.005877 0.000000
v -0.002689 -0.005364 0.004400
v -0.002689 -0.005364 0.000000
v -0.003986 -0.004485 0.004400
v -0.003986 -0.004485 0.000000
v -0.005011 -0.003301 0.004400
v -0.005011 -0.003301 0.000000
v -0.005694 -0.001891 0.004400
v -0.005694 -0.001891 0.000000
v -0.005990 -0.000353 0.004400
v -0.005990 -0.000353 0.000000
v -0.005877 0.001209 0.004400
v -0.005877 0.001209 0.000000
v -0.005364 0.002689 0.004400
v -0.005364 0.002689 0.000000
f 109 72 160
f 159 96 95
f 72 109 63
f 154 65 152
f 160 72 69
f 93 131 94
f 94 131 129
f 133 131 93
f 110 104 111
f 110 159 95
f 155 96 157
f 96 159 157
f 72 63 26
f 60 152 65
f 57 150 60
f 150 152 60
f 144 146 66
f 35 65 64
f 68 75 140
f 46 66 42
f 120 122 78
f 78 122 76
f 129 99 83
f 83 94 129
f 135 93 92
f 135 133 93
f 92 137 135
f 111 104 113
f 97 96 155
f 155 98 97
f 103 110 95
f 104 110 103
f 160 69 158
f 67 142 144
f 144 66 67
f 67 140 142
f 68 140 67
f 146 148 58
f 58 148 150
f 58 150 57
f 138 140 75
f 57 60 56
f 56 55 57
f 74 38 80
f 74 80 136
f 136 138 74
f 74 138 75
f 80 38 28
f 47 75 68
f 130 132 79
f 79 132 80
f 136 80 134
f 80 132 134
f 101 123 121
f 153 98 155
f 153 151 98
f 84 151 149
f 149 85 84
f 98 151 84
f 86 147 145
f 149 147 86
f 86 85 149
f 69 64 156
f 156 158 69
f 156 65 154
f 156 64 65
f 70 112 114
f 114 71 70
f 109 112 70
f 70 63 109
f 61 118 120
f 72 26 31
f 31 34 72
f 33 69 72
f 72 34 33
f 59 66 146
f 146 58 59
f 42 66 59
f 40 60 65
f 76 122 124
f 82 77 126
f 126 77 76
f 76 124 126
f 29 74 75
f 38 74 29
f 68 67 50
f 81 82 130
f 130 79 81
f 7 82 81
f 22 78 76
f 115 106 117
f 113 106 115
f 105 113 104
f 105 106 113
f 117 106 107
f 107 119 117
f 108 119 107
f 102 101 121
f 121 119 102
f 102 119 108
f 88 145 143
f 120 78 62
f 62 61 120
f 73 116 118
f 118 61 73
f 114 116 73
f 73 71 114
f 18 71 73
f 37 64 69
f 42 59 43
f 53 58 57
f 53 52 58
f 41 65 35
f 41 40 65
f 39 56 60
f 60 40 39
f 130 82 128
f 82 126 128
f 75 47 30
f 30 29 75
f 68 50 49
f 66 46 45
f 45 67 66
f 4 3 79
f 7 81 1
f 21 20 78
f 78 22 21
f 76 77 9
f 87 86 145
f 145 88 87
f 143 141 89
f 89 88 143
f 89 141 139
f 70 25 24
f 16 70 71
f 16 25 70
f 18 73 13
f 35 64 36
f 64 37 36
f 69 33 32
f 32 37 69
f 51 43 59
f 51 59 58
f 58 52 51
f 57 55 54
f 54 53 57
f 127 99 129
f 48 47 68
f 68 49 48
f 44 50 67
f 67 45 44
f 80 28 27
f 27 79 80
f 27 4 79
f 2 1 81
f 2 81 79
f 79 3 2
f 8 22 76
f 76 9 8
f 5 77 82
f 139 137 91
f 91 137 92
f 23 26 63
f 63 70 23
f 70 24 23
f 17 71 18
f 17 16 71
f 14 73 61
f 14 13 73
f 61 15 14
f 19 12 62
f 78 20 19
f 19 62 78
f 61 62 11
f 62 12 11
f 11 15 61
f 125 100 99
f 99 127 125
f 101 100 125
f 123 101 125
f 6 82 7
f 6 5 82
f 10 9 77
f 77 5 10
f 90 89 139
f 139 91 90
f 146 144 143
f 143 145 146
f 143 144 142
f 142 141 143
f 160 159 110
f 110 109 160
f 109 110 112
f 112 110 111
f 148 147 149
f 149 150 148
f 148 146 145
f 145 147 148
f 141 142 140
f 139 141 140
f 132 130 129
f 129 131 132
f 113 112 111
f 114 112 113
f 151 150 149
f 151 152 150
f 158 159 160
f 158 157 159
f 138 135 137
f 136 135 138
f 139 140 138
f 138 137 139
f 134 135 136
f 133 135 134
f 134 132 131
f 131 133 134
f 121 122 119
f 119 122 120
f 119 118 117
f 120 118 119
f 152 151 153
f 154 152 153
f 154 153 156
f 156 153 155
f 157 158 156
f 155 157 156
f 124 122 121
f 121 123 124
f 117 118 115
f 118 116 115
f 114 113 115
f 115 116 114
f 129 130 127
f 130 128 127
f 125 124 123
f 125 126 124
f 125 127 128
f 125 128 126
f 10 14 15
f 38 29 10
f 10 31 26
f 20 21 10
f 26 23 10
f 10 46 42
f 10 54 55
f 50 44 10
f 55 56 10
f 10 28 38
f 10 51 52
f 15 11 10
f 34 31 10
f 10 33 34
f 42 43 10
f 10 41 35
f 56 39 10
f 10 30 47
f 10 45 46
f 7 1 10
f 22 8 10
f 18 13 10
f 35 36 10
f 10 32 33
f 52 53 10
f 40 41 10
f 10 39 40
f 29 30 10
f 10 49 50
f 47 48 10
f 3 4 10
f 10 27 28
f 10 21 22
f 10 2 3
f 10 24 25
f 25 16 10
f 10 17 18
f 10 19 20
f 10 36 37
f 37 32 10
f 43 51 10
f 53 54 10
f 10 48 49
f 10 44 45
f 4 27 10
f 1 2 10
f 10 8 9
f 10 6 7
f 10 23 24
f 16 17 10
f 13 14 10
f 12 19 10
f 10 11 12
f 5 6 10
f 92 93 90
f 90 83 99
f 98 84 90
f 93 94 90
f 95 96 90
f 96 97 90
f 99 100 90
f 94 83 90
f 90 103 95
f 90 97 98
f 90 102 108
f 104 103 90
f 90 105 104
f 108 107 90
f 90 84 85
f 85 86 90
f 106 105 90
f 90 107 106
f 101 102 90
f 90 100 101
f 86 87 90
f 90 87 88
f 88 89 90
f 90 91 92
