v 0.080352 -0.021586 0.012124
v 0.080352 -0.022086 0.012124
v 0.081351 -0.022086 0.011821
v 0.083028 -0.022086 0.011288
v 0.083432 -0.022086 0.011156
v 0.083028 -0.021586 0.011288
v 0.083432 -0.021586 0.011156
v 0.079375 -0.021586 0.012411
v 0.079762 -0.021586 0.012299
v 0.081351 -0.021586 0.011821
v 0.085068 -0.021586 0.010601
v 0.086254 -0.022086 0.010181
v 0.087312 -0.022086 0.009794
v 0.086254 -0.021586 0.010181
v 0.085463 -0.021586 0.010463
v 0.085463 -0.022086 0.010463
v 0.085068 -0.022086 0.010601
v 0.075454 -0.022086 0.013467
v 0.076236 -0.022086 0.013269
v 0.076236 -0.021586 0.013269
v 0.071570 -0.021586 0.014364
v 0.072053 -0.021586 0.014261
v 0.072362 -0.021586 0.014193
v 0.076758 -0.022086 0.013133
v 0.077193 -0.022086 0.013018
v 0.076758 -0.021586 0.013133
v 0.077193 -0.021586 0.013018
v 0.072362 -0.022086 0.014193
v 0.072820 -0.022086 0.014091
v 0.072820 -0.021586 0.014091
v 0.074671 -0.021586 0.013660
v 0.074671 -0.022086 0.013660
v 0.078951 -0.021586 0.012533
v 0.078951 -0.022086 0.012533
v 0.079375 -0.022086 0.012411
v 0.065387 -0.021586 0.015496
v 0.070161 -0.021586 0.014654
v 0.070161 -0.022086 0.014654
v 0.071570 -0.022086 0.014364
v 0.066521 -0.021586 0.015315
v 0.066521 -0.022086 0.015315
v 0.067417 -0.022086 0.015164
v 0.067417 -0.021586 0.015164
v 0.067720 -0.021586 0.015111
v 0.065886 -0.021586 0.015418
v 0.065886 -0.022086 0.015418
v 0.065387 -0.022086 0.015496
v 0.068205 -0.021586 0.015025
v 0.068205 -0.022086 0.015025
v 0.067720 -0.022086 0.015111
v 0.057732 -0.022086 0.016407
v 0.058284 -0.022086 0.016359
v 0.057732 -0.021586 0.016407
v 0.058284 -0.021586 0.016359
v 0.059072 -0.021586 0.016286
v 0.060306 -0.021586 0.016160
v 0.060306 -0.022086 0.016160
v 0.060838 -0.022086 0.016102
v 0.059072 -0.022086 0.016286
v 0.059838 -0.022086 0.016209
v 0.059838 -0.021586 0.016209
v 0.060838 -0.021586 0.016102
v 0.062804 -0.022086 0.015863
v 0.063326 -0.022086 0.015794
v 0.062804 -0.021586 0.015863
v 0.063326 -0.021586 0.015794
v 0.064224 -0.021586 0.015669
v 0.052294 -0.021586 0.016731
v 0.052294 -0.022086 0.016731
v 0.052981 -0.022086 0.016705
v 0.048365 -0.021586 0.016800
v 0.049405 -0.021586 0.016795
v 0.049405 -0.022086 0.016795
v 0.049832 -0.022086 0.016790
v 0.049832 -0.021586 0.016790
v 0.052981 -0.021586 0.016705
v 0.055065 -0.022086 0.016599
v 0.056305 -0.022086 0.016518
v 0.055065 -0.021586 0.016599
v 0.056305 -0.021586 0.016518
v 0.056315 -0.021586 0.016517
v 0.031414 -0.022086 0.016800
v 0.046816 -0.022086 0.016800
v 0.030115 -0.022086 0.016050
v 0.030115 -0.022086 -0.002450
v 0.048365 -0.021586 -0.003200
v 0.046816 -0.022086 -0.003200
v 0.031414 -0.022086 -0.003200
v 0.059838 -0.021586 -0.002609
v 0.059838 -0.022086 -0.002609
v 0.059072 -0.022086 -0.002686
v 0.065387 -0.021586 -0.001896
v 0.064224 -0.021586 -0.002069
v 0.063326 -0.021586 -0.002194
v 0.063326 -0.022086 -0.002194
v 0.062804 -0.022086 -0.002263
v 0.062804 -0.021586 -0.002263
v 0.060838 -0.021586 -0.002502
v 0.058284 -0.022086 -0.002759
v 0.057732 -0.022086 -0.002807
v 0.058284 -0.021586 -0.002759
v 0.057732 -0.021586 -0.002807
v 0.060838 -0.022086 -0.002502
v 0.060306 -0.022086 -0.002560
v 0.060306 -0.021586 -0.002560
v 0.059072 -0.021586 -0.002686
v 0.071570 -0.022086 -0.000764
v 0.070161 -0.022086 -0.001054
v 0.071570 -0.021586 -0.000764
v 0.070161 -0.021586 -0.001054
v 0.068205 -0.021586 -0.001425
v 0.068205 -0.022086 -0.001425
v 0.067720 -0.022086 -0.001511
v 0.067720 -0.021586 -0.001511
v 0.067417 -0.021586 -0.001564
v 0.065886 -0.021586 -0.001818
v 0.065886 -0.022086 -0.001818
v 0.065387 -0.022086 -0.001896
v 0.066521 -0.021586 -0.001715
v 0.066521 -0.022086 -0.001715
v 0.067417 -0.022086 -0.001564
v 0.077193 -0.021586 0.000582
v 0.077193 -0.022086 0.000582
v 0.076758 -0.022086 0.000467
v 0.075454 -0.022086 0.000133
v 0.074671 -0.022086 -0.000060
v 0.074671 -0.021586 -0.000060
v 0.080352 -0.021586 0.001476
v 0.079762 -0.021586 0.001301
v 0.079375 -0.021586 0.001189
v 0.076758 -0.021586 0.000467
v 0.076236 -0.021586 0.000331
v 0.076236 -0.022086 0.000331
v 0.072820 -0.022086 -0.000491
v 0.072362 -0.022086 -0.000593
v 0.072820 -0.021586 -0.000491
v 0.072362 -0.021586 -0.000593
v 0.079375 -0.022086 0.001189
v 0.078951 -0.022086 0.001067
v 0.078951 -0.021586 0.001067
v 0.072053 -0.021586 -0.000661
v 0.085463 -0.021586 0.003137
v 0.086254 -0.021586 0.003419
v 0.086254 -0.022086 0.003419
v 0.087312 -0.022086 0.003806
v 0.085463 -0.022086 0.003137
v 0.085068 -0.022086 0.002999
v 0.085068 -0.021586 0.002999
v 0.083432 -0.021586 0.002444
v 0.081351 -0.021586 0.001779
v 0.081351 -0.022086 0.001779
v 0.080352 -0.022086 0.001476
v 0.083028 -0.021586 0.002312
v 0.083028 -0.022086 0.002312
v 0.083432 -0.022086 0.002444
v 0.056315 -0.021586 -0.002917
v 0.056305 -0.021586 -0.002918
v 0.052981 -0.021586 -0.003105
v 0.052981 -0.022086 -0.003105
v 0.052294 -0.022086 -0.003131
v 0.056305 -0.022086 -0.002918
v 0.055065 -0.022086 -0.002999
v 0.055065 -0.021586 -0.002999
v 0.052294 -0.021586 -0.003131
v 0.049832 -0.022086 -0.003190
v 0.049405 -0.022086 -0.003195
v 0.049832 -0.021586 -0.003190
v 0.049405 -0.021586 -0.003195
v 0.087356 -0.022086 0.003823
v 0.087356 -0.021586 0.003823
v 0.087615 -0.021586 0.003949
v 0.087853 -0.021586 0.004110
v 0.087994 -0.022086 0.004232
v 0.087853 -0.022086 0.004110
v 0.088453 -0.022086 0.004893
v 0.088411 -0.022086 0.004802
v 0.088411 -0.021586 0.004802
v 0.088615 -0.021586 0.005681
v 0.088528 -0.021586 0.005100
v 0.088409 -0.022086 0.004797
v 0.088409 -0.021586 0.004797
v 0.088528 -0.022086 0.005100
v 0.088615 -0.022086 0.007050
v 0.088615 -0.021586 0.007919
v 0.088615 -0.022086 0.006550
v 0.088453 -0.022086 0.008707
v 0.088528 -0.022086 0.008500
v 0.088528 -0.021586 0.008500
v 0.088411 -0.022086 0.008798
v 0.088411 -0.021586 0.008798
v 0.088409 -0.021586 0.008803
v 0.088409 -0.022086 0.008803
v 0.087994 -0.022086 0.009368
v 0.087853 -0.022086 0.009490
v 0.087853 -0.021586 0.009490
v 0.087615 -0.021586 0.009651
v 0.087356 -0.021586 0.009777
v 0.087356 -0.022086 0.009777
v 0.048365 -0.007086 -0.003200
v 0.048365 -0.007086 0.016800
v 0.088615 -0.016698 0.007919
v 0.088615 -0.016698 0.005681
v 0.087423 -0.015787 0.009300
v 0.087752 -0.015953 0.009109
v 0.084664 -0.014471 0.003317
v 0.087822 -0.015987 0.009053
v 0.088070 -0.016113 0.008780
v 0.088121 -0.016140 0.008702
v 0.088272 -0.016216 0.008376
v 0.088301 -0.016231 0.008271
v 0.087815 -0.015984 0.004541
v 0.087699 -0.015925 0.004451
v 0.087852 -0.016003 0.004978
v 0.087360 -0.015756 0.004275
v 0.088294 -0.016228 0.005300
v 0.088161 -0.016160 0.004967
v 0.088065 -0.016111 0.004813
v 0.088343 -0.016253 0.007919
v 0.088343 -0.016253 0.005681
v 0.088326 -0.016244 0.005456
v 0.076359 -0.011185 0.000838
v 0.076359 -0.011185 0.012762
v 0.079163 -0.012185 0.012003
v 0.079163 -0.012185 0.001597
v 0.081931 -0.013281 0.011176
v 0.081931 -0.013281 0.002424
v 0.084664 -0.014471 0.010283
v 0.087360 -0.015756 0.009325
v 0.075586 -0.010928 0.012957
v 0.075586 -0.010928 0.000643
v 0.073521 -0.010280 0.013452
v 0.073521 -0.010280 0.000148
v 0.070649 -0.009471 0.014071
v 0.061659 -0.007602 0.015512
v 0.061659 -0.007602 -0.001912
v 0.064609 -0.008107 0.015121
v 0.064609 -0.008107 -0.001521
v 0.067742 -0.008759 0.014619
v 0.067742 -0.008759 -0.001019
v 0.068932 -0.009038 0.014404
v 0.068932 -0.009038 -0.000804
v 0.070649 -0.009471 -0.000471
v 0.087312 -0.016204 0.003806
v 0.084619 -0.014926 0.002844
v 0.083559 -0.019086 0.002486
v 0.081889 -0.013742 0.001947
v 0.079762 -0.019086 0.001301
v 0.079765 -0.012896 0.001302
v 0.079124 -0.012653 0.001117
v 0.075925 -0.019086 0.000252
v 0.076324 -0.011659 0.000354
v 0.073490 -0.010759 -0.000339
v 0.072053 -0.019086 -0.000661
v 0.072056 -0.010344 -0.000660
v 0.070621 -0.009955 -0.000961
v 0.068151 -0.019086 -0.001434
v 0.067718 -0.009246 -0.001512
v 0.064588 -0.008599 -0.002016
v 0.064224 -0.019086 -0.002069
v 0.061643 -0.008096 -0.002408
v 0.060277 -0.019086 -0.002563
v 0.058690 -0.007696 -0.002722
v 0.056315 -0.019086 -0.002917
v 0.056316 -0.007447 -0.002917
v 0.055731 -0.007396 -0.002957
v 0.052343 -0.019086 -0.003129
v 0.052766 -0.007197 -0.003113
v 0.049796 -0.007098 -0.003191
v 0.083559 -0.019086 0.011114
v 0.087312 -0.016204 0.009794
v 0.049796 -0.007098 0.016791
v 0.052343 -0.019086 0.016729
v 0.055731 -0.007396 0.016557
v 0.052766 -0.007197 0.016713
v 0.060277 -0.019086 0.016163
v 0.058690 -0.007696 0.016322
v 0.056316 -0.007447 0.016517
v 0.072053 -0.019086 0.014261
v 0.070621 -0.009955 0.014561
v 0.068151 -0.019086 0.015034
v 0.067718 -0.009246 0.015112
v 0.064224 -0.019086 0.015669
v 0.064588 -0.008599 0.015616
v 0.061643 -0.008096 0.016008
v 0.075925 -0.019086 0.013348
v 0.073490 -0.010759 0.013939
v 0.072056 -0.010344 0.014260
v 0.079762 -0.019086 0.012299
v 0.079124 -0.012653 0.012483
v 0.076324 -0.011659 0.013246
v 0.084619 -0.014926 0.010756
v 0.081889 -0.013742 0.011653
v 0.079765 -0.012896 0.012298
v 0.088592 -0.016689 0.005381
v 0.088574 -0.019086 0.005279
v 0.088549 -0.016673 0.005173
v 0.088453 -0.019086 0.004893
v 0.088373 -0.016605 0.004729
v 0.088257 -0.019086 0.004539
v 0.088246 -0.016556 0.004524
v 0.087994 -0.019086 0.004232
v 0.087915 -0.016431 0.004161
v 0.087674 -0.019086 0.003985
v 0.087760 -0.016372 0.004042
v 0.087994 -0.019086 0.009368
v 0.087923 -0.016434 0.009432
v 0.087674 -0.019086 0.009615
v 0.087832 -0.016399 0.009506
v 0.087394 -0.016235 0.009761
v 0.088574 -0.019086 0.008321
v 0.088559 -0.016676 0.008388
v 0.088453 -0.019086 0.008707
v 0.088520 -0.016661 0.008528
v 0.088257 -0.019086 0.009061
v 0.088321 -0.016585 0.008963
v 0.088253 -0.016559 0.009067
v 0.048365 -0.006836 0.016733
v 0.049799 -0.006848 0.016724
v 0.052776 -0.006947 0.016646
v 0.055747 -0.007148 0.016489
v 0.058713 -0.007449 0.016254
v 0.055751 -0.006965 0.016307
v 0.058718 -0.007268 0.016072
v 0.061678 -0.007671 0.015758
v 0.064631 -0.008177 0.015365
v 0.067768 -0.008830 0.014860
v 0.061672 -0.007852 0.015939
v 0.064624 -0.008357 0.015546
v 0.067759 -0.009008 0.015039
v 0.070668 -0.009720 0.014488
v 0.073542 -0.010528 0.013864
v 0.070678 -0.009544 0.014310
v 0.073553 -0.010354 0.013687
v 0.076381 -0.011432 0.013169
v 0.079185 -0.012432 0.012405
v 0.081954 -0.013525 0.011572
v 0.084687 -0.014714 0.010673
v 0.087383 -0.015998 0.009709
v 0.076394 -0.011261 0.012993
v 0.079199 -0.012262 0.012231
v 0.081969 -0.013359 0.011400
v 0.084703 -0.014550 0.010503
v 0.087400 -0.015837 0.009541
v 0.087460 -0.016031 0.009675
v 0.087470 -0.015870 0.009510
v 0.087865 -0.016205 0.009423
v 0.087950 -0.016242 0.009350
v 0.088252 -0.016374 0.009000
v 0.088314 -0.016401 0.008901
v 0.088495 -0.016481 0.008490
v 0.088531 -0.016497 0.008359
v 0.088582 -0.016519 0.007919
v 0.087837 -0.016047 0.009282
v 0.087914 -0.016084 0.009216
v 0.088188 -0.016217 0.008899
v 0.088244 -0.016245 0.008810
v 0.088409 -0.016325 0.008437
v 0.088441 -0.016341 0.008318
v 0.088487 -0.016364 0.007919
v 0.088487 -0.016364 0.005681
v 0.088582 -0.016519 0.005681
v 0.088561 -0.016510 0.005400
v 0.088468 -0.016355 0.005426
v 0.088522 -0.016493 0.005204
v 0.088362 -0.016422 0.004785
v 0.088246 -0.016371 0.004591
v 0.087942 -0.016238 0.004243
v 0.087800 -0.016177 0.004126
v 0.087383 -0.015998 0.003891
v 0.088433 -0.016337 0.005248
v 0.088288 -0.016266 0.004869
v 0.088182 -0.016214 0.004693
v 0.087907 -0.016080 0.004378
v 0.087778 -0.016018 0.004272
v 0.087400 -0.015837 0.004059
v 0.079199 -0.012262 0.001369
v 0.076394 -0.011261 0.000607
v 0.048365 -0.006836 -0.003133
v 0.055751 -0.006965 -0.002707
v 0.055747 -0.007148 -0.002889
v 0.052776 -0.006947 -0.003046
v 0.049799 -0.006848 -0.003124
v 0.058718 -0.007268 -0.002472
v 0.061678 -0.007671 -0.002158
v 0.064631 -0.008177 -0.001765
v 0.067768 -0.008830 -0.001260
v 0.070678 -0.009544 -0.000710
v 0.058713 -0.007449 -0.002654
v 0.061672 -0.007852 -0.002339
v 0.064624 -0.008357 -0.001946
v 0.067759 -0.009008 -0.001439
v 0.070668 -0.009720 -0.000888
v 0.073553 -0.010354 -0.000087
v 0.073542 -0.010528 -0.000264
v 0.076381 -0.011432 0.000431
v 0.079185 -0.012432 0.001195
v 0.081969 -0.013359 0.002200
v 0.084703 -0.014550 0.003097
v 0.081954 -0.013525 0.002028
v 0.084687 -0.014714 0.002927
v -0.001137 0.004560 -0.000200
v -0.002491 0.003986 -0.000200
v -0.003600 0.003021 -0.000200
v -0.004358 0.001761 -0.000200
v -0.004689 0.000328 -0.000200
v -0.004560 -0.001137 -0.000200
v -0.003986 -0.002491 -0.000200
v 0.007600 -0.019552 -0.000200
v 0.006111 -0.018276 -0.000200
v 0.004910 -0.016727 -0.000200
v 0.000328 0.004689 -0.000200
v -0.004240 -0.002650 0.000100
v -0.004851 -0.001210 0.000100
v -0.004988 0.000349 0.000100
v -0.004636 0.001873 0.000100
v -0.003830 0.003214 0.000100
v -0.002650 0.004240 0.000100
v -0.001210 0.004851 0.000100
v 0.000349 0.004988 0.000100
v 0.004655 -0.016886 0.000100
v -0.004560 -0.001137 0.013800
v -0.003986 -0.002491 0.013800
v 0.000328 0.004689 0.013800
v -0.001137 0.004560 0.013800
v -0.002491 0.003986 0.013800
v -0.003600 0.003021 0.013800
v -0.004358 0.001761 0.013800
v -0.004689 0.000328 0.013800
v 0.004910 -0.016727 0.013800
v 0.006111 -0.018276 0.013800
v 0.007600 -0.019552 0.013800
v -0.004240 -0.002650 0.013500
v -0.004851 -0.001210 0.013500
v -0.004988 0.000349 0.013500
v -0.004636 0.001873 0.013500
v -0.003830 0.003214 0.013500
v -0.002650 0.004240 0.013500
v -0.001210 0.004851 0.013500
v 0.000349 0.004988 0.013500
v 0.016115 -0.021586 0.016500
v 0.016115 -0.021586 -0.002900
v 0.013136 -0.021586 0.013500
v 0.013136 -0.021586 0.000100
v 0.004655 -0.016886 0.013500
v 0.012000 -0.021522 0.003600
v 0.012000 -0.021522 0.010000
v 0.012577 -0.021571 0.003656
v 0.012579 -0.021571 0.009944
v 0.011125 -0.021382 0.013500
v 0.009196 -0.020778 0.013500
v 0.007429 -0.019798 0.013500
v 0.005894 -0.018483 0.013500
v 0.011125 -0.021382 0.000100
v 0.009196 -0.020778 0.000100
v 0.007429 -0.019798 0.000100
v 0.005894 -0.018483 0.000100
v 0.029815 -0.020586 -0.003200
v 0.015415 -0.020586 -0.003200
v 0.029815 -0.007586 -0.003200
v 0.015415 -0.007586 -0.003200
v 0.015765 -0.021193 -0.003200
v 0.015508 -0.020936 -0.003200
v 0.016115 -0.021286 -0.003200
v 0.029115 -0.021286 -0.003200
v 0.029465 -0.021193 -0.003200
v 0.029721 -0.020936 -0.003200
v 0.029465 -0.006980 -0.003200
v 0.029721 -0.007236 -0.003200
v 0.029115 -0.006886 -0.003200
v 0.016115 -0.006886 -0.003200
v 0.015765 -0.006980 -0.003200
v 0.015508 -0.007236 -0.003200
v 0.015415 -0.020586 0.016800
v 0.015415 -0.007586 0.016800
v 0.016115 -0.021286 0.016800
v 0.015765 -0.021193 0.016800
v 0.015508 -0.020936 0.016800
v 0.015765 -0.006980 0.016800
v 0.015508 -0.007236 0.016800
v 0.016115 -0.006886 0.016800
v 0.029115 -0.006886 0.016800
v 0.015615 -0.021452 0.016500
v 0.015615 -0.021452 -0.002900
f 419 383 379
f 455 456 408
f 408 456 409
f 419 237 235
f 323 439 322
f 271 317 200
f 200 317 423
f 283 284 66
f 268 382 267
f 168 199 268
f 268 166 168
f 268 199 378
f 378 382 268
f 483 454 455
f 384 235 237
f 384 383 419
f 419 235 384
f 258 390 257
f 173 299 180
f 180 299 298
f 300 299 173
f 298 299 300
f 298 300 366
f 366 300 367
f 452 451 431
f 451 476 431
f 482 451 450
f 482 476 451
f 66 284 65
f 319 423 318
f 317 271 318
f 318 423 317
f 439 438 424
f 424 423 439
f 424 438 425
f 480 423 424
f 424 478 480
f 425 478 424
f 200 423 481
f 481 423 480
f 320 423 319
f 323 322 320
f 320 322 439
f 439 423 320
f 319 318 274
f 274 318 271
f 324 439 323
f 163 265 162
f 163 267 265
f 265 267 381
f 381 267 382
f 162 265 161
f 87 86 166
f 464 465 87
f 465 86 87
f 457 86 466
f 466 86 465
f 404 472 460
f 404 460 405
f 404 414 415
f 405 414 404
f 415 416 404
f 471 472 403
f 403 402 471
f 472 404 403
f 403 416 402
f 403 404 416
f 413 407 412
f 454 483 453
f 455 408 461
f 461 483 455
f 461 408 409
f 469 470 411
f 382 378 411
f 199 469 411
f 411 378 199
f 411 381 382
f 199 459 468
f 385 384 237
f 257 390 391
f 390 385 391
f 391 385 386
f 390 258 389
f 388 383 389
f 383 384 389
f 389 385 390
f 384 385 389
f 118 258 92
f 257 391 255
f 298 297 177
f 373 366 367
f 425 436 426
f 426 478 425
f 452 431 430
f 430 431 476
f 449 482 450
f 283 281 328
f 277 276 321
f 321 320 277
f 323 320 321
f 321 276 284
f 271 74 75
f 345 228 343
f 343 228 342
f 234 236 439
f 439 324 234
f 234 324 236
f 165 166 268
f 268 267 266
f 266 159 160
f 267 159 266
f 265 381 380
f 380 383 388
f 380 379 383
f 381 411 380
f 419 379 380
f 380 411 419
f 264 380 388
f 265 380 264
f 90 261 104
f 443 453 441
f 441 453 483
f 456 420 410
f 409 456 410
f 410 420 412
f 410 412 407
f 406 407 413
f 413 414 406
f 406 414 405
f 483 461 463
f 463 441 483
f 401 411 470
f 401 470 471
f 471 402 401
f 402 418 401
f 401 418 419
f 419 411 401
f 467 469 199
f 199 468 467
f 93 258 118
f 260 389 258
f 388 389 260
f 400 243 244
f 252 126 134
f 108 255 107
f 257 255 256
f 395 393 377
f 181 180 298
f 298 177 181
f 182 178 185
f 295 178 182
f 298 366 365
f 294 178 295
f 427 436 435
f 427 426 436
f 435 434 427
f 422 432 429
f 452 430 429
f 445 453 443
f 425 438 437
f 437 436 425
f 417 418 402
f 402 416 417
f 433 432 422
f 452 429 444
f 444 429 432
f 62 58 284
f 38 39 279
f 279 281 280
f 236 324 325
f 238 236 325
f 327 324 323
f 323 321 327
f 327 325 324
f 328 325 327
f 327 321 284
f 284 283 327
f 283 328 327
f 285 18 19
f 290 18 285
f 73 71 83
f 73 74 271
f 482 449 440
f 443 441 85
f 183 184 187
f 205 214 398
f 279 287 330
f 333 332 330
f 267 163 158
f 158 159 267
f 167 165 268
f 268 266 164
f 164 266 160
f 164 167 268
f 100 161 156
f 156 264 100
f 157 161 265
f 265 264 157
f 262 260 261
f 262 264 388
f 388 260 262
f 462 410 407
f 407 406 462
f 462 461 409
f 409 410 462
f 95 93 118
f 103 260 96
f 116 92 258
f 116 258 257
f 251 395 249
f 107 255 109
f 255 254 109
f 252 134 136
f 136 254 252
f 252 254 394
f 393 395 394
f 394 251 252
f 395 251 394
f 112 256 111
f 239 385 237
f 386 385 239
f 244 155 245
f 245 246 244
f 399 400 244
f 244 246 399
f 248 399 246
f 243 400 369
f 369 400 398
f 212 373 374
f 374 214 212
f 374 373 367
f 367 368 374
f 366 373 372
f 372 365 366
f 362 294 364
f 202 294 362
f 362 361 202
f 428 427 434
f 428 473 474
f 474 427 428
f 479 427 474
f 478 426 479
f 426 427 479
f 477 430 476
f 477 429 430
f 422 429 477
f 271 75 68
f 277 320 273
f 273 320 319
f 319 274 273
f 53 276 277
f 53 54 276
f 63 65 284
f 284 58 63
f 37 38 279
f 279 280 37
f 281 40 43
f 43 42 281
f 281 42 50
f 49 280 50
f 238 325 326
f 326 330 332
f 286 29 32
f 279 39 21
f 21 287 279
f 30 29 286
f 286 287 30
f 289 290 27
f 285 19 20
f 20 290 285
f 19 290 20
f 24 290 19
f 72 271 200
f 72 73 271
f 475 440 82
f 476 482 475
f 482 440 475
f 442 440 449
f 88 85 441
f 441 463 88
f 218 210 359
f 228 345 203
f 203 204 212
f 212 214 203
f 203 214 228
f 344 345 343
f 193 192 314
f 314 316 193
f 270 291 14
f 291 15 14
f 4 292 3
f 336 292 291
f 291 5 17
f 291 292 269
f 269 5 291
f 329 328 281
f 329 281 279
f 279 330 329
f 330 326 329
f 329 325 328
f 329 326 325
f 331 287 286
f 331 330 287
f 333 330 331
f 286 290 331
f 221 224 377
f 264 156 263
f 263 157 264
f 99 262 91
f 100 264 102
f 264 262 102
f 91 262 106
f 458 406 405
f 458 462 406
f 405 460 458
f 258 93 259
f 96 260 97
f 261 260 98
f 260 103 98
f 257 121 115
f 113 121 257
f 113 256 112
f 119 116 257
f 257 115 119
f 243 303 171
f 304 303 243
f 243 369 304
f 304 369 368
f 147 155 244
f 244 243 143
f 250 133 125
f 125 251 250
f 122 251 249
f 133 251 124
f 132 133 250
f 250 251 132
f 132 251 133
f 141 135 107
f 254 135 141
f 137 135 254
f 254 136 137
f 392 254 255
f 392 394 254
f 392 255 391
f 393 394 392
f 110 111 256
f 255 108 110
f 110 256 255
f 231 332 333
f 231 233 332
f 333 229 231
f 386 239 241
f 149 245 155
f 397 205 398
f 398 400 397
f 400 399 397
f 154 151 246
f 246 151 150
f 129 248 152
f 368 369 375
f 375 374 368
f 375 369 398
f 398 214 375
f 214 374 375
f 365 372 371
f 371 364 365
f 371 217 216
f 372 217 371
f 298 365 296
f 365 364 296
f 296 364 294
f 296 297 298
f 296 294 295
f 296 179 297
f 182 179 296
f 295 182 296
f 434 433 421
f 421 428 434
f 421 433 422
f 473 428 421
f 421 477 473
f 422 477 421
f 272 274 271
f 271 68 272
f 69 272 68
f 277 273 80
f 79 273 274
f 77 273 79
f 274 76 79
f 55 61 276
f 277 81 51
f 51 53 277
f 282 283 66
f 48 280 49
f 48 37 280
f 44 280 281
f 281 50 44
f 44 50 280
f 31 32 18
f 18 290 31
f 31 290 286
f 286 32 31
f 39 28 22
f 22 28 287
f 287 28 23
f 23 30 287
f 34 289 33
f 33 289 27
f 223 222 339
f 339 229 333
f 339 222 229
f 27 290 26
f 290 24 26
f 446 442 449
f 82 440 84
f 440 442 84
f 220 215 210
f 220 218 219
f 210 218 220
f 193 316 305
f 305 306 193
f 316 306 305
f 194 196 198
f 193 306 194
f 198 196 309
f 308 344 309
f 308 306 346
f 346 344 308
f 345 344 346
f 338 344 343
f 270 309 338
f 338 309 344
f 216 217 208
f 206 204 354
f 357 208 356
f 187 313 186
f 316 314 315
f 315 314 192
f 315 313 349
f 315 348 316
f 349 348 315
f 310 184 201
f 187 184 310
f 201 352 351
f 11 15 291
f 291 17 11
f 5 269 7
f 340 225 223
f 223 339 340
f 225 340 341
f 227 342 228
f 227 341 342
f 225 341 227
f 377 393 230
f 230 221 377
f 262 99 101
f 101 102 262
f 89 106 262
f 261 90 89
f 89 262 261
f 258 259 94
f 94 260 258
f 94 97 260
f 104 261 105
f 261 98 105
f 257 256 114
f 114 113 257
f 256 113 114
f 169 171 174
f 174 171 303
f 303 304 174
f 243 171 170
f 170 171 169
f 302 368 367
f 302 304 368
f 367 300 302
f 300 301 302
f 302 301 173
f 173 174 302
f 148 147 244
f 244 143 142
f 142 148 244
f 127 125 126
f 251 125 127
f 127 126 252
f 252 251 127
f 249 139 140
f 140 122 249
f 251 122 131
f 131 124 251
f 253 109 254
f 254 141 253
f 387 391 386
f 387 392 391
f 393 392 387
f 386 241 387
f 387 241 242
f 238 326 240
f 332 233 240
f 240 326 332
f 205 397 226
f 377 224 376
f 376 395 377
f 224 226 376
f 376 226 397
f 246 245 153
f 153 154 246
f 245 149 153
f 152 248 128
f 128 248 246
f 246 150 128
f 138 129 152
f 138 139 249
f 213 217 211
f 212 204 211
f 211 373 212
f 206 213 211
f 211 204 206
f 211 372 373
f 211 217 372
f 216 215 370
f 370 371 216
f 362 364 370
f 364 371 370
f 272 69 70
f 70 76 274
f 274 272 70
f 275 62 284
f 275 56 62
f 284 276 275
f 276 61 275
f 78 51 81
f 78 81 277
f 277 80 78
f 78 273 77
f 78 80 273
f 59 55 276
f 64 47 67
f 67 47 283
f 287 21 278
f 278 22 287
f 447 446 445
f 447 445 443
f 443 85 447
f 307 194 308
f 196 194 307
f 308 309 307
f 307 309 196
f 195 306 308
f 308 194 195
f 195 194 306
f 197 309 270
f 198 309 197
f 347 306 316
f 347 346 306
f 316 348 347
f 348 354 347
f 342 341 337
f 337 341 336
f 343 342 337
f 337 338 343
f 337 336 291
f 337 291 270
f 270 338 337
f 207 208 217
f 207 213 206
f 207 217 213
f 356 208 207
f 353 354 204
f 353 203 345
f 204 203 353
f 345 346 353
f 346 347 353
f 353 347 354
f 359 210 358
f 357 351 358
f 358 352 359
f 358 351 352
f 208 357 209
f 216 208 209
f 209 358 210
f 357 358 209
f 210 215 209
f 209 215 216
f 312 186 313
f 313 315 312
f 188 313 187
f 311 310 201
f 201 351 311
f 313 188 311
f 187 310 311
f 311 188 187
f 349 313 350
f 350 351 357
f 313 311 350
f 350 311 351
f 350 356 349
f 350 357 356
f 6 7 269
f 6 292 4
f 6 269 292
f 336 341 335
f 335 341 340
f 232 230 393
f 393 387 232
f 232 387 242
f 172 174 304
f 304 302 172
f 172 302 174
f 395 376 396
f 249 395 396
f 396 397 399
f 396 376 397
f 396 248 249
f 399 248 396
f 249 248 130
f 130 138 249
f 363 361 362
f 362 370 363
f 215 220 363
f 363 370 215
f 60 275 61
f 276 54 52
f 52 59 276
f 45 281 283
f 45 40 281
f 442 446 448
f 446 447 448
f 448 84 442
f 85 84 448
f 448 447 85
f 356 207 355
f 355 354 348
f 206 354 355
f 355 207 206
f 349 356 355
f 355 348 349
f 191 315 192
f 191 312 315
f 2 9 35
f 35 289 34
f 10 3 292
f 292 1 10
f 293 1 292
f 2 1 293
f 293 9 2
f 293 335 289
f 292 336 293
f 336 335 293
f 334 340 339
f 334 335 340
f 333 331 334
f 334 339 333
f 334 331 290
f 290 289 334
f 289 335 334
f 248 129 247
f 247 130 248
f 361 363 360
f 360 220 219
f 360 363 220
f 56 275 57
f 275 60 57
f 283 47 36
f 36 45 283
f 312 191 190
f 9 293 288
f 8 288 293
f 289 35 8
f 8 293 289
f 456 451 452
f 455 451 456
f 454 451 455
f 450 451 454
f 419 439 236
f 236 237 419
f 86 168 166
f 199 168 86
f 199 86 459
f 459 86 457
f 418 438 439
f 418 439 419
f 416 415 435
f 435 436 416
f 301 300 173
f 435 415 434
f 415 414 434
f 450 454 449
f 454 453 449
f 176 297 175
f 176 177 297
f 180 181 176
f 176 181 177
f 438 418 417
f 417 437 438
f 417 416 436
f 436 437 417
f 433 434 414
f 433 414 413
f 412 432 433
f 413 412 433
f 444 432 412
f 412 420 444
f 444 456 452
f 444 420 456
f 162 159 158
f 158 163 162
f 160 165 164
f 165 167 164
f 237 236 239
f 239 236 238
f 175 297 179
f 179 182 175
f 202 183 185
f 185 178 202
f 201 184 202
f 184 183 202
f 178 294 202
f 202 352 201
f 202 361 352
f 66 65 63
f 63 64 66
f 41 42 43
f 43 40 41
f 200 71 72
f 71 73 72
f 475 477 476
f 475 71 200
f 200 481 475
f 474 473 475
f 480 478 475
f 475 481 480
f 83 71 475
f 475 479 474
f 475 82 83
f 478 479 475
f 473 477 475
f 88 463 464
f 464 87 88
f 12 13 14
f 14 13 270
f 16 12 14
f 14 15 16
f 221 222 223
f 223 224 221
f 161 157 263
f 263 156 161
f 458 459 457
f 471 470 458
f 458 465 464
f 457 466 458
f 458 472 471
f 460 472 458
f 458 470 469
f 464 463 458
f 458 466 465
f 469 467 458
f 458 468 459
f 458 463 461
f 458 467 468
f 461 462 458
f 118 92 117
f 92 116 117
f 120 117 119
f 119 117 116
f 119 121 120
f 119 115 121
f 134 135 137
f 137 136 134
f 110 108 112
f 112 111 110
f 69 75 74
f 69 68 75
f 49 38 48
f 38 37 48
f 23 28 29
f 29 30 23
f 33 25 34
f 33 27 25
f 26 24 25
f 25 27 26
f 446 449 453
f 453 445 446
f 16 15 11
f 11 17 16
f 214 205 227
f 228 214 227
f 222 221 230
f 229 222 230
f 101 99 100
f 100 102 101
f 89 90 91
f 91 106 89
f 94 259 93
f 93 95 94
f 94 95 96
f 96 97 94
f 105 103 104
f 105 98 103
f 146 147 142
f 147 148 142
f 146 142 144
f 144 142 143
f 140 139 123
f 123 122 140
f 123 124 131
f 131 122 123
f 253 141 107
f 107 109 253
f 240 239 238
f 240 241 239
f 240 233 242
f 242 241 240
f 226 224 223
f 223 225 226
f 226 227 205
f 225 227 226
f 155 154 153
f 153 149 155
f 128 151 152
f 128 150 151
f 70 79 76
f 77 79 70
f 66 64 67
f 67 282 66
f 283 282 67
f 39 22 278
f 278 21 39
f 197 13 198
f 270 13 197
f 4 5 6
f 5 7 6
f 242 233 232
f 233 231 232
f 229 230 232
f 232 231 229
f 243 170 145
f 145 170 169
f 145 144 143
f 145 143 243
f 61 55 60
f 55 59 60
f 54 53 52
f 53 51 52
f 41 40 45
f 45 46 41
f 10 2 3
f 10 1 2
f 138 130 247
f 129 138 247
f 352 361 360
f 359 352 360
f 360 218 359
f 219 218 360
f 166 165 57
f 57 176 175
f 187 186 57
f 57 88 87
f 34 25 57
f 198 13 57
f 25 24 57
f 57 124 123
f 82 84 57
f 57 90 104
f 173 180 57
f 118 117 57
f 162 161 57
f 57 113 112
f 107 135 57
f 57 192 193
f 57 19 18
f 18 32 57
f 83 82 57
f 57 159 162
f 57 161 100
f 16 17 57
f 57 87 166
f 57 95 118
f 126 125 57
f 57 108 107
f 57 189 192
f 175 182 57
f 57 154 155
f 39 38 57
f 57 42 41
f 74 73 57
f 57 183 187
f 57 12 16
f 160 159 57
f 57 165 160
f 91 90 57
f 104 103 57
f 100 99 57
f 57 134 126
f 112 108 57
f 123 139 57
f 180 176 57
f 57 182 185
f 57 69 74
f 57 78 77
f 57 38 49
f 57 63 58
f 57 28 39
f 49 50 57
f 57 73 83
f 57 145 169
f 193 194 57
f 185 183 57
f 85 88 57
f 57 5 4
f 96 95 57
f 57 103 96
f 120 121 57
f 57 174 173
f 155 147 57
f 57 135 134
f 41 46 57
f 152 151 57
f 64 63 57
f 57 50 42
f 57 32 29
f 29 28 57
f 57 24 19
f 57 13 12
f 4 3 57
f 57 17 5
f 57 99 91
f 121 113 57
f 57 117 120
f 57 147 146
f 57 125 133
f 133 124 57
f 151 154 57
f 57 138 152
f 77 70 57
f 57 47 64
f 57 84 85
f 57 194 198
f 57 52 51
f 3 2 57
f 169 174 57
f 146 144 57
f 139 138 57
f 57 70 69
f 51 78 57
f 57 35 34
f 57 46 47
f 144 145 57
f 57 60 59
f 59 52 57
f 186 189 57
f 2 35 57
f 58 62 57
f 62 56 57
f 47 46 36
f 46 45 36
f 190 189 186
f 186 312 190
f 192 189 190
f 190 191 192
f 9 288 8
f 8 35 9
