v -0.000299 0.017890 -0.007201
v -0.000299 0.017856 -0.006847
v -0.000299 0.017890 -0.007910
v -0.001953 0.017810 -0.007201
v -0.001953 0.017783 -0.006847
v -0.000299 0.017833 -0.006772
v -0.002167 0.017742 -0.006665
v -0.001953 0.017747 -0.006659
v -0.000299 0.017804 -0.008278
v -0.000536 0.017806 -0.008247
v -0.001244 0.017791 -0.008217
v -0.001953 0.017774 -0.008182
v -0.001953 0.017810 -0.007910
v -0.002308 0.017779 -0.007201
v -0.002295 0.017757 -0.006849
v -0.000299 0.017781 -0.006619
v -0.001953 0.016552 -0.005156
v -0.001599 0.016603 -0.005156
v -0.001244 0.016623 -0.005156
v -0.002404 0.017727 -0.006731
v -0.003930 0.017387 -0.006664
v -0.004083 0.016165 -0.005156
v -0.000299 0.017733 -0.008434
v -0.000536 0.017727 -0.008425
v -0.001244 0.017710 -0.008394
v -0.001599 0.017701 -0.008378
v -0.001953 0.017693 -0.008360
v -0.002308 0.017760 -0.008146
v -0.002308 0.017779 -0.007910
v -0.002537 0.017748 -0.007201
v -0.002519 0.017744 -0.006966
v -0.000299 0.016632 -0.005156
v -0.008257 0.014442 -0.005155
v -0.002649 0.017697 -0.006849
v -0.004181 0.017365 -0.006847
v -0.004789 0.017228 -0.006847
v -0.005144 0.017143 -0.006847
v -0.005358 0.017040 -0.006655
v -0.005144 0.017068 -0.006624
v -0.004434 0.016078 -0.005156
v -0.000299 0.017577 -0.008552
v -0.000889 0.017541 -0.008564
v -0.001953 0.017515 -0.008554
v -0.000889 0.017718 -0.008410
v -0.002308 0.017500 -0.008545
v -0.002308 0.017677 -0.008323
v -0.002519 0.017744 -0.008108
v -0.002537 0.017748 -0.007910
v -0.003018 0.017644 -0.007201
v -0.004066 0.017417 -0.007201
v -0.004789 0.017260 -0.007201
v -0.001057 0.010943 -0.005155
v -0.000299 0.012096 -0.005156
v -0.008556 0.015632 -0.006646
v -0.009047 0.013989 -0.005155
v -0.008257 0.009364 -0.005155
v -0.004693 0.015993 -0.005156
v -0.005081 0.015852 -0.005156
v -0.006732 0.015252 -0.005156
v -0.006918 0.015176 -0.005156
v -0.007273 0.015003 -0.005156
v -0.007411 0.014925 -0.005156
v -0.005144 0.017175 -0.007201
v -0.005411 0.017063 -0.006847
v -0.006366 0.016666 -0.006710
v -0.007134 0.016332 -0.006654
v -0.000299 0.017322 -0.008650
v -0.000536 0.017549 -0.008566
v -0.001244 0.017532 -0.008561
v -0.001953 0.017206 -0.008680
v -0.002308 0.017206 -0.008670
v -0.002663 0.017206 -0.008648
v -0.003018 0.017206 -0.008614
v -0.003728 0.017175 -0.008558
v -0.002663 0.017469 -0.008522
v -0.003018 0.017430 -0.008488
v -0.003284 0.017401 -0.008461
v -0.003520 0.017376 -0.008432
v -0.002649 0.017654 -0.008242
v -0.003728 0.017355 -0.008391
v -0.003728 0.017437 -0.008213
v -0.004013 0.017406 -0.008147
v -0.004789 0.017260 -0.007910
v -0.004066 0.017417 -0.007910
v -0.003018 0.017644 -0.007910
v -0.001057 0.010861 -0.005155
v -0.001069 0.010683 -0.005155
v -0.001101 0.010467 -0.005155
v -0.001174 0.010112 -0.005155
v -0.001284 0.009757 -0.005155
v -0.001386 0.009502 -0.005155
v -0.001385 0.009501 -0.005428
v -0.001383 0.009499 -0.006138
v -0.001381 0.009497 -0.007201
v -0.000299 0.012096 -0.007910
v -0.009227 0.015257 -0.006667
v -0.009269 0.013861 -0.005155
v -0.009217 0.013892 -0.005155
v -0.007884 0.015999 -0.006632
v -0.008120 0.015942 -0.006788
v -0.008645 0.008339 -0.005155
v -0.005144 0.017175 -0.007910
v -0.005449 0.017079 -0.007201
v -0.006413 0.016684 -0.006945
v -0.007369 0.016284 -0.006847
v -0.007628 0.016178 -0.006847
v -0.000299 0.017206 -0.008693
v -0.000889 0.017206 -0.008690
v -0.001244 0.017206 -0.008687
v -0.001599 0.017206 -0.008684
v -0.003373 0.016851 -0.008693
v -0.003728 0.016851 -0.008684
v -0.004083 0.016851 -0.008665
v -0.004434 0.016851 -0.008636
v -0.004789 0.016851 -0.008601
v -0.004083 0.017137 -0.008539
v -0.004434 0.017100 -0.008510
v -0.004789 0.017061 -0.008475
v -0.005001 0.017037 -0.008452
v -0.004789 0.017178 -0.008265
v -0.005129 0.017092 -0.008277
v -0.005405 0.017063 -0.008166
v -0.001406 0.009460 -0.005155
v -0.001469 0.009323 -0.005428
v -0.001398 0.009531 -0.007555
v -0.000299 0.012097 -0.007917
v -0.001469 0.009321 -0.006492
v -0.001469 0.009320 -0.007201
v -0.001485 0.009353 -0.007555
v -0.009255 0.015273 -0.006847
v -0.010110 0.014752 -0.006847
v -0.010363 0.014593 -0.006847
v -0.010321 0.014565 -0.006649
v -0.008257 0.015876 -0.006857
v -0.009446 0.013747 -0.005155
v -0.007994 0.016021 -0.006882
v -0.008159 0.015963 -0.007022
v -0.008793 0.008034 -0.005155
v -0.001471 0.009325 -0.005155
v -0.005449 0.017079 -0.007910
v -0.007628 0.016212 -0.007201
v -0.000299 0.016851 -0.008695
v -0.003018 0.016851 -0.008695
v -0.004789 0.016496 -0.008695
v -0.005144 0.016496 -0.008687
v -0.005499 0.016496 -0.008656
v -0.005129 0.016871 -0.008543
v -0.005499 0.016779 -0.008530
v -0.005794 0.016719 -0.008485
v -0.005238 0.017003 -0.008402
v -0.006030 0.016673 -0.008442
v -0.007036 0.016296 -0.008405
v -0.007184 0.016354 -0.008168
v -0.006413 0.016684 -0.008116
v -0.001634 0.009049 -0.005155
v -0.000299 0.012195 -0.008277
v -0.001415 0.009569 -0.007741
v -0.001633 0.009049 -0.007201
v -0.001767 0.008859 -0.007428
v -0.001680 0.009025 -0.007550
v -0.001790 0.008890 -0.007665
v -0.008257 0.015888 -0.006928
v -0.010110 0.014785 -0.007201
v -0.010389 0.014612 -0.007201
v -0.010566 0.014489 -0.007201
v -0.010541 0.014469 -0.006847
v -0.010762 0.014291 -0.006847
v -0.010707 0.014243 -0.006625
v -0.009689 0.013570 -0.005155
v -0.009632 0.013612 -0.005155
v -0.007981 0.016053 -0.007201
v -0.008159 0.015963 -0.008088
v -0.008257 0.015906 -0.007118
v -0.008809 0.015573 -0.007201
v -0.008900 0.007857 -0.005155
v -0.007628 0.016212 -0.007910
v -0.000299 0.013070 -0.008695
v -0.006563 0.015786 -0.008695
v -0.005854 0.016141 -0.008693
v -0.006918 0.015786 -0.008687
v -0.006208 0.016141 -0.008675
v -0.007273 0.015786 -0.008657
v -0.006563 0.016141 -0.008631
v -0.006208 0.016460 -0.008550
v -0.007273 0.016071 -0.008531
v -0.006563 0.016390 -0.008505
v -0.007628 0.016000 -0.008476
v -0.006800 0.016342 -0.008465
v -0.007808 0.015965 -0.008444
v -0.007628 0.016125 -0.008265
v -0.007949 0.016000 -0.008230
v -0.001731 0.008898 -0.005155
v -0.009039 0.007629 -0.005155
v -0.009151 0.007450 -0.005155
v -0.000299 0.012256 -0.008373
v -0.001712 0.009128 -0.007811
v -0.000299 0.012351 -0.008498
v -0.001762 0.008852 -0.007201
v -0.001908 0.008675 -0.007201
v -0.002086 0.008470 -0.007201
v -0.002106 0.008490 -0.007555
v -0.001906 0.008722 -0.007550
v -0.002127 0.008512 -0.007738
v -0.010110 0.014785 -0.007910
v -0.010389 0.014612 -0.007910
v -0.010566 0.014489 -0.007910
v -0.010784 0.014312 -0.007201
v -0.011723 0.013494 -0.006948
v -0.011695 0.013470 -0.006712
v -0.011436 0.012131 -0.005155
v -0.011387 0.012172 -0.005155
v -0.010651 0.012778 -0.005155
v -0.012069 0.013132 -0.006663
v -0.007981 0.016053 -0.007910
v -0.008043 0.015900 -0.008324
v -0.008257 0.015857 -0.008185
v -0.009260 0.015278 -0.008139
v -0.008809 0.015573 -0.007910
v -0.008257 0.015906 -0.007910
v -0.000299 0.012949 -0.008690
v -0.011175 0.006002 -0.008695
v -0.007628 0.015431 -0.008693
v -0.008691 0.014722 -0.008695
v -0.007981 0.015431 -0.008664
v -0.007628 0.015786 -0.008601
v -0.007949 0.015784 -0.008519
v -0.008257 0.015657 -0.008492
v -0.008252 0.015664 -0.008488
v -0.008490 0.015593 -0.008420
v -0.009187 0.007395 -0.005155
v -0.009214 0.007353 -0.005155
v -0.001762 0.008852 -0.005155
v -0.002049 0.008694 -0.007817
v -0.001931 0.009015 -0.007944
v -0.000299 0.012406 -0.008532
v -0.001911 0.008675 -0.005428
v -0.002090 0.008475 -0.005155
v -0.002273 0.008297 -0.005428
v -0.002271 0.008292 -0.007201
v -0.002461 0.008142 -0.007469
v -0.002329 0.008285 -0.007574
v -0.002289 0.008672 -0.008007
v -0.002493 0.008168 -0.007706
v -0.002308 0.008429 -0.007818
v -0.010357 0.014590 -0.008179
v -0.010784 0.014312 -0.007910
v -0.012291 0.013018 -0.007201
v -0.012497 0.012841 -0.007201
v -0.012476 0.012821 -0.006847
v -0.012094 0.013153 -0.006847
v -0.011478 0.012095 -0.005155
v -0.012442 0.012792 -0.006651
v -0.010258 0.014527 -0.008415
v -0.000299 0.012716 -0.008660
v -0.010820 0.006002 -0.008667
v -0.015786 0.006002 -0.008695
v -0.009402 0.014368 -0.008693
v -0.008339 0.015077 -0.008688
v -0.009755 0.014013 -0.008695
v -0.009047 0.014722 -0.008678
v -0.009755 0.014368 -0.008663
v -0.008691 0.015077 -0.008644
v -0.008359 0.015458 -0.008565
v -0.008691 0.015354 -0.008518
v -0.010021 0.014597 -0.008487
v -0.008919 0.015285 -0.008469
v -0.009589 0.014905 -0.008448
v -0.009441 0.007016 -0.005155
v -0.010125 0.006002 -0.005155
v -0.001913 0.008676 -0.005155
v -0.002158 0.008902 -0.008076
v -0.000299 0.012590 -0.008616
v -0.002273 0.008298 -0.005155
v -0.002451 0.008134 -0.005155
v -0.002449 0.008133 -0.007201
v -0.002632 0.008044 -0.007574
v -0.002663 0.007984 -0.007201
v -0.002892 0.007835 -0.007201
v -0.002921 0.007852 -0.007555
v -0.002511 0.008540 -0.008078
v -0.003151 0.007785 -0.007766
v -0.002731 0.008086 -0.007822
v -0.002621 0.008308 -0.007950
v -0.010470 0.014446 -0.008284
v -0.010723 0.014258 -0.008265
v -0.011723 0.013494 -0.008116
v -0.012291 0.013018 -0.007910
v -0.012497 0.012841 -0.007910
v -0.012674 0.012681 -0.007201
v -0.012653 0.012659 -0.006847
v -0.011614 0.011974 -0.005155
v -0.012797 0.012445 -0.006645
v -0.010465 0.014271 -0.008502
v -0.010653 0.014200 -0.008450
v -0.002394 0.008776 -0.008115
v -0.002747 0.008448 -0.008114
v -0.003026 0.008333 -0.008132
v -0.010485 0.006002 -0.008548
v -0.003151 0.008140 -0.008099
v -0.003726 0.007842 -0.008067
v -0.016141 0.006002 -0.008686
v -0.015786 0.006564 -0.008695
v -0.010820 0.013303 -0.008693
v -0.010465 0.013658 -0.008691
v -0.010110 0.014013 -0.008686
v -0.011175 0.012949 -0.008695
v -0.010465 0.014013 -0.008624
v -0.009402 0.014722 -0.008616
v -0.009041 0.015088 -0.008546
v -0.009726 0.014719 -0.008520
v -0.010128 0.014392 -0.008563
v -0.010125 0.006002 -0.007910
v -0.003867 0.007443 -0.007201
v -0.003869 0.007443 -0.006138
v -0.003870 0.007443 -0.005783
v -0.003875 0.007444 -0.005155
v -0.003697 0.007494 -0.005155
v -0.003371 0.007610 -0.005155
v -0.003071 0.007744 -0.005155
v -0.002893 0.007837 -0.005155
v -0.002663 0.007986 -0.005155
v -0.015514 0.006002 -0.005155
v -0.002663 0.007985 -0.005428
v -0.002663 0.007984 -0.006492
v -0.002892 0.007835 -0.006138
v -0.003068 0.007742 -0.007201
v -0.003099 0.007758 -0.007555
v -0.002914 0.008211 -0.008059
v -0.003371 0.007635 -0.007555
v -0.003977 0.007465 -0.007655
v -0.003371 0.007736 -0.007826
v -0.003371 0.007915 -0.008003
v -0.003033 0.007995 -0.007912
v -0.012014 0.013085 -0.008384
v -0.012097 0.013155 -0.008147
v -0.012471 0.012818 -0.008174
v -0.012674 0.012681 -0.007910
v -0.012849 0.012503 -0.007201
v -0.012831 0.012481 -0.006847
v -0.011748 0.011840 -0.005155
v -0.012084 0.011461 -0.005155
v -0.011966 0.011597 -0.005155
v -0.011789 0.011798 -0.005155
v -0.013135 0.012073 -0.006660
v -0.010792 0.013993 -0.008506
v -0.011403 0.013524 -0.008475
v -0.012388 0.012747 -0.008410
v -0.010301 0.006002 -0.008413
v -0.016141 0.006210 -0.008676
v -0.015786 0.006919 -0.008689
v -0.016504 0.006002 -0.008560
v -0.015431 0.007629 -0.008692
v -0.014723 0.008694 -0.008695
v -0.012239 0.012239 -0.008680
v -0.011885 0.012594 -0.008673
v -0.011530 0.012949 -0.008665
v -0.011175 0.013303 -0.008655
v -0.010820 0.013658 -0.008641
v -0.012949 0.011176 -0.008695
v -0.012257 0.012614 -0.008565
v -0.011891 0.012958 -0.008553
v -0.011525 0.013304 -0.008539
v -0.011159 0.013648 -0.008524
v -0.010196 0.006002 -0.008222
v -0.003880 0.007446 -0.007419
v -0.003690 0.007492 -0.007201
v -0.003692 0.007493 -0.005783
v -0.003371 0.007609 -0.005428
v -0.003371 0.007603 -0.007201
v -0.003070 0.007743 -0.006138
v -0.002893 0.007836 -0.005428
v -0.015433 0.006210 -0.005155
v -0.016336 0.007145 -0.006651
v -0.016707 0.006129 -0.006634
v -0.016729 0.006002 -0.006611
v -0.003747 0.007504 -0.007545
v -0.012610 0.012610 -0.008297
v -0.012823 0.012474 -0.008183
v -0.012849 0.012503 -0.007910
v -0.013027 0.012299 -0.007201
v -0.013494 0.011725 -0.006942
v -0.013007 0.012276 -0.006847
v -0.013472 0.011697 -0.006706
v -0.012414 0.011078 -0.005155
v -0.014571 0.010324 -0.006644
v -0.013440 0.009882 -0.005155
v -0.013304 0.010045 -0.005155
v -0.013228 0.010135 -0.005155
v -0.012152 0.012848 -0.008498
v -0.011778 0.013185 -0.008487
v -0.012516 0.012509 -0.008507
v -0.012751 0.012395 -0.008420
v -0.016141 0.006564 -0.008632
v -0.015786 0.007274 -0.008662
v -0.016648 0.006002 -0.008461
v -0.016459 0.006210 -0.008550
v -0.015431 0.007984 -0.008661
v -0.015077 0.008339 -0.008687
v -0.014367 0.009403 -0.008693
v -0.014012 0.009758 -0.008695
v -0.013302 0.010822 -0.008693
v -0.013659 0.010467 -0.008690
v -0.012594 0.011886 -0.008676
v -0.012619 0.012261 -0.008567
v -0.015240 0.006705 -0.005155
v -0.016002 0.007879 -0.006631
v -0.016190 0.007629 -0.006847
v -0.016292 0.007385 -0.006847
v -0.016665 0.006365 -0.006713
v -0.015156 0.006919 -0.005155
v -0.015009 0.007274 -0.005155
v -0.016783 0.006002 -0.006732
v -0.013160 0.012102 -0.008154
v -0.013027 0.012299 -0.007910
v -0.013494 0.011725 -0.008118
v -0.013502 0.011733 -0.007201
v -0.014153 0.010955 -0.007201
v -0.014479 0.010565 -0.007201
v -0.014458 0.010543 -0.006847
v -0.013359 0.011860 -0.006833
v -0.014009 0.008986 -0.005155
v -0.013741 0.009426 -0.005155
v -0.013565 0.009705 -0.005155
v -0.013536 0.009747 -0.005155
v -0.014600 0.010365 -0.006847
v -0.014881 0.009903 -0.006774
v -0.015256 0.009230 -0.006667
v -0.012852 0.012159 -0.008501
v -0.013187 0.011782 -0.008489
v -0.013858 0.011027 -0.008461
v -0.014194 0.010650 -0.008446
v -0.013088 0.012017 -0.008391
v -0.016078 0.007274 -0.008536
v -0.015786 0.007629 -0.008603
v -0.016671 0.006027 -0.008440
v -0.016692 0.006002 -0.008416
v -0.016391 0.006564 -0.008506
v -0.015077 0.008694 -0.008643
v -0.014367 0.009758 -0.008666
v -0.014723 0.009049 -0.008678
v -0.014012 0.010112 -0.008684
v -0.012949 0.011531 -0.008666
v -0.013302 0.011176 -0.008654
v -0.013659 0.010822 -0.008638
v -0.012962 0.011894 -0.008555
v -0.015940 0.008120 -0.006847
v -0.016039 0.007942 -0.006847
v -0.014937 0.007431 -0.005155
v -0.014915 0.007479 -0.005155
v -0.016224 0.007629 -0.007201
v -0.016308 0.007422 -0.007201
v -0.016684 0.006414 -0.006949
v -0.016819 0.006002 -0.006843
v -0.014440 0.010471 -0.008289
v -0.014594 0.010355 -0.008186
v -0.013502 0.011733 -0.007910
v -0.014479 0.010565 -0.007910
v -0.014153 0.010955 -0.007910
v -0.014620 0.010388 -0.007201
v -0.014673 0.007881 -0.005155
v -0.014902 0.009939 -0.007009
v -0.014791 0.010080 -0.006874
v -0.015273 0.009258 -0.006847
v -0.013304 0.011526 -0.008540
v -0.013647 0.011157 -0.008522
v -0.014270 0.010467 -0.008497
v -0.014529 0.010266 -0.008422
v -0.016344 0.006809 -0.008467
v -0.016005 0.007629 -0.008480
v -0.015781 0.007950 -0.008517
v -0.015456 0.008354 -0.008562
v -0.014723 0.009403 -0.008619
v -0.016637 0.006210 -0.008373
v -0.016298 0.007045 -0.008411
v -0.016768 0.006002 -0.008261
v -0.014393 0.010134 -0.008564
v -0.014012 0.010467 -0.008618
v -0.015955 0.008147 -0.007201
v -0.016057 0.007969 -0.007201
v -0.016224 0.007629 -0.007910
v -0.016308 0.007422 -0.007910
v -0.016853 0.006002 -0.007201
v -0.016840 0.006002 -0.007058
v -0.014717 0.010103 -0.008257
v -0.014902 0.009939 -0.008093
v -0.014620 0.010388 -0.007910
v -0.014796 0.010117 -0.007201
v -0.014903 0.009940 -0.007201
v -0.015010 0.009758 -0.007201
v -0.015675 0.008626 -0.007201
v -0.014602 0.010031 -0.008491
v -0.014908 0.009595 -0.008450
v -0.015214 0.009157 -0.008377
v -0.015966 0.007808 -0.008444
v -0.015660 0.008247 -0.008485
v -0.015350 0.008694 -0.008517
v -0.015088 0.009043 -0.008546
v -0.014720 0.009730 -0.008525
v -0.016723 0.006210 -0.008195
v -0.016684 0.006414 -0.008116
v -0.016357 0.007195 -0.008174
v -0.016263 0.007298 -0.008281
v -0.016853 0.006002 -0.007910
v -0.015955 0.008147 -0.007910
v -0.016057 0.007969 -0.007910
v -0.016012 0.007890 -0.008265
v -0.016135 0.007629 -0.008265
v -0.015278 0.009264 -0.008140
v -0.015675 0.008626 -0.007910
v -0.015010 0.009758 -0.007910
v -0.014903 0.009940 -0.007910
v -0.014796 0.010117 -0.007910
v -0.014965 0.009403 -0.008495
v -0.015589 0.008483 -0.008414
v -0.015652 0.008590 -0.008177
f 52 32 33
f 313 269 312
f 319 269 318
f 318 368 319
f 367 368 318
f 221 177 220
f 62 54 33
f 315 316 269
f 365 313 312
f 255 220 254
f 221 220 255
f 369 368 367
f 319 368 369
f 269 316 317
f 317 318 269
f 367 318 317
f 410 411 373
f 449 460 427
f 427 460 421
f 7 2 5
f 5 2 1
f 1 4 5
f 22 40 33
f 7 18 19
f 32 16 19
f 33 32 19
f 19 18 33
f 54 96 97
f 97 96 133
f 367 315 314
f 269 313 314
f 314 315 269
f 364 365 312
f 348 365 364
f 330 365 348
f 298 330 348
f 300 255 299
f 300 298 255
f 366 369 367
f 367 314 366
f 366 314 313
f 313 365 366
f 269 273 237
f 56 87 86
f 86 87 53
f 56 89 88
f 88 87 56
f 88 89 53
f 53 87 88
f 90 89 56
f 56 101 90
f 90 101 91
f 53 89 90
f 90 91 53
f 139 138 155
f 139 101 138
f 353 352 399
f 107 142 143
f 503 500 475
f 406 449 427
f 373 411 406
f 422 423 385
f 385 421 422
f 427 421 385
f 485 508 505
f 405 410 373
f 16 6 8
f 7 19 8
f 8 19 16
f 8 6 2
f 8 2 7
f 15 5 4
f 7 5 15
f 15 20 7
f 31 20 15
f 17 18 7
f 7 22 17
f 33 18 17
f 17 22 33
f 33 54 55
f 135 97 133
f 340 291 292
f 292 343 340
f 292 291 252
f 168 169 133
f 329 330 281
f 329 366 365
f 369 366 329
f 332 300 299
f 298 300 331
f 281 330 331
f 330 298 331
f 331 332 281
f 300 332 331
f 270 232 269
f 269 237 270
f 269 232 268
f 192 158 155
f 91 101 123
f 101 139 123
f 254 271 295
f 233 271 234
f 234 196 233
f 328 332 299
f 281 282 243
f 272 271 254
f 53 94 95
f 95 94 126
f 93 94 53
f 352 353 302
f 302 350 352
f 302 256 301
f 301 350 302
f 178 223 222
f 144 178 179
f 179 178 222
f 111 143 144
f 107 143 111
f 409 453 412
f 452 453 409
f 502 494 474
f 475 500 499
f 500 503 481
f 448 406 411
f 449 406 448
f 427 385 426
f 426 385 425
f 386 385 424
f 424 385 423
f 506 505 515
f 505 508 515
f 515 494 506
f 509 485 504
f 504 485 505
f 446 406 427
f 447 406 446
f 510 485 509
f 372 373 322
f 372 405 373
f 12 13 3
f 3 11 12
f 42 23 41
f 42 43 23
f 45 43 71
f 63 103 64
f 64 103 104
f 104 65 64
f 7 20 21
f 21 35 36
f 21 22 7
f 39 22 21
f 14 15 4
f 31 15 14
f 144 179 145
f 145 111 144
f 145 112 111
f 66 65 106
f 106 99 66
f 137 136 106
f 33 40 57
f 61 62 33
f 54 62 61
f 61 99 54
f 66 99 60
f 60 59 66
f 99 61 60
f 33 59 60
f 60 61 33
f 54 97 98
f 98 55 54
f 133 169 170
f 170 135 133
f 130 131 96
f 137 131 130
f 96 134 130
f 163 131 137
f 164 131 163
f 133 96 132
f 96 131 132
f 132 166 133
f 132 131 164
f 213 168 209
f 167 207 208
f 208 209 167
f 167 209 168
f 133 166 167
f 167 168 133
f 246 245 286
f 342 343 292
f 292 341 342
f 307 311 308
f 365 330 376
f 376 329 365
f 330 329 376
f 281 243 279
f 320 269 319
f 320 321 269
f 319 371 320
f 231 268 232
f 232 192 231
f 231 192 230
f 155 138 175
f 175 193 155
f 155 193 194
f 194 192 155
f 230 192 194
f 236 270 237
f 237 200 236
f 232 270 236
f 155 158 128
f 128 127 155
f 94 127 128
f 129 94 128
f 124 139 155
f 155 127 124
f 124 123 139
f 124 127 94
f 94 93 124
f 297 255 254
f 299 255 297
f 160 161 129
f 129 128 160
f 233 196 203
f 196 161 203
f 161 160 159
f 159 128 158
f 159 160 128
f 333 282 281
f 333 328 282
f 281 332 333
f 332 328 333
f 296 328 299
f 299 297 296
f 254 295 296
f 296 297 254
f 125 156 126
f 125 94 129
f 126 94 125
f 196 197 157
f 157 125 129
f 156 125 157
f 129 161 157
f 157 161 196
f 271 272 235
f 235 234 271
f 235 197 196
f 196 234 235
f 91 123 92
f 53 91 92
f 92 93 53
f 123 124 92
f 92 124 93
f 352 350 394
f 399 352 398
f 400 353 399
f 399 359 400
f 306 359 354
f 222 223 257
f 261 305 307
f 307 308 261
f 261 308 262
f 180 182 181
f 181 145 180
f 180 179 222
f 180 145 179
f 225 182 224
f 224 261 262
f 224 180 222
f 182 180 224
f 181 182 146
f 146 145 181
f 374 412 375
f 409 412 374
f 373 409 374
f 374 375 322
f 322 373 374
f 483 452 482
f 453 452 483
f 482 452 451
f 408 409 373
f 408 452 409
f 450 451 408
f 408 451 452
f 514 515 508
f 494 515 514
f 480 505 506
f 425 461 462
f 462 426 425
f 461 426 462
f 338 339 289
f 463 446 427
f 461 446 463
f 427 426 463
f 463 426 461
f 478 446 461
f 486 485 512
f 3 9 10
f 10 11 3
f 10 9 11
f 75 76 46
f 46 45 75
f 46 76 77
f 71 43 70
f 110 111 70
f 70 112 71
f 111 112 70
f 68 42 41
f 110 70 68
f 68 70 42
f 72 45 71
f 49 50 31
f 36 35 51
f 31 50 51
f 51 35 31
f 63 64 37
f 37 21 36
f 31 35 34
f 35 21 34
f 34 20 31
f 34 21 20
f 48 29 47
f 47 85 48
f 112 145 113
f 71 112 113
f 113 72 71
f 141 106 104
f 137 106 141
f 104 103 141
f 154 140 122
f 100 106 136
f 99 106 100
f 100 136 137
f 137 134 100
f 54 99 100
f 100 96 54
f 100 134 96
f 105 65 104
f 104 106 105
f 105 106 65
f 58 59 33
f 33 57 58
f 162 134 137
f 137 130 162
f 162 130 134
f 174 163 137
f 286 245 285
f 310 311 265
f 292 339 344
f 344 387 388
f 386 387 344
f 344 385 386
f 344 388 384
f 384 341 344
f 344 341 292
f 249 252 213
f 213 209 249
f 208 248 249
f 248 289 249
f 169 168 212
f 168 211 212
f 251 252 291
f 213 252 251
f 262 308 263
f 225 224 263
f 263 224 262
f 276 279 243
f 369 329 327
f 327 326 369
f 327 329 281
f 281 279 327
f 278 326 327
f 327 279 278
f 319 369 370
f 369 326 370
f 274 273 269
f 269 321 274
f 325 326 278
f 325 370 326
f 325 371 319
f 319 370 325
f 244 243 282
f 244 203 243
f 240 276 243
f 278 279 240
f 279 276 240
f 198 159 158
f 198 192 232
f 158 192 198
f 202 203 161
f 161 159 202
f 195 157 197
f 156 157 195
f 396 437 433
f 435 437 396
f 301 351 349
f 349 350 301
f 349 394 350
f 472 439 438
f 286 285 334
f 334 285 294
f 259 257 223
f 305 257 304
f 304 354 305
f 305 261 260
f 261 224 260
f 183 182 225
f 183 146 182
f 373 406 407
f 407 408 373
f 407 406 447
f 407 447 450
f 450 408 407
f 395 436 435
f 395 396 351
f 435 396 395
f 473 436 475
f 475 499 473
f 435 436 473
f 474 435 473
f 473 499 500
f 468 437 435
f 474 494 468
f 468 435 474
f 433 437 468
f 501 502 474
f 481 480 501
f 500 481 501
f 501 473 500
f 474 473 501
f 456 414 415
f 415 414 379
f 425 418 459
f 459 461 425
f 459 487 461
f 461 487 488
f 488 489 461
f 461 489 490
f 490 478 461
f 450 447 479
f 447 446 479
f 446 478 479
f 28 46 47
f 13 12 28
f 28 29 13
f 47 29 28
f 47 46 79
f 27 28 12
f 46 28 27
f 27 12 11
f 45 46 27
f 23 43 24
f 43 44 24
f 24 9 23
f 11 9 24
f 43 42 69
f 69 70 43
f 42 70 69
f 67 68 41
f 107 68 67
f 110 68 109
f 109 111 110
f 115 116 74
f 75 45 74
f 74 116 75
f 38 37 64
f 38 64 65
f 39 21 38
f 21 37 38
f 38 65 66
f 66 59 38
f 59 58 38
f 38 58 57
f 38 57 40
f 40 22 38
f 38 22 39
f 31 14 30
f 30 49 31
f 72 113 114
f 114 146 115
f 145 146 114
f 114 113 145
f 47 82 83
f 77 76 118
f 118 119 77
f 120 119 121
f 122 82 121
f 121 82 120
f 153 154 122
f 245 246 206
f 206 205 245
f 245 205 204
f 284 285 245
f 294 285 284
f 346 294 345
f 391 389 360
f 293 265 311
f 345 294 293
f 307 345 293
f 293 311 307
f 208 207 247
f 247 248 208
f 383 344 339
f 385 344 383
f 250 209 208
f 208 249 250
f 250 249 209
f 290 289 339
f 290 249 289
f 252 249 290
f 292 252 290
f 290 339 292
f 213 251 210
f 210 168 213
f 210 211 168
f 225 263 226
f 226 185 225
f 226 187 185
f 226 227 189
f 189 187 226
f 310 265 264
f 264 265 227
f 227 226 264
f 264 226 263
f 323 274 321
f 323 325 324
f 371 325 323
f 321 320 323
f 323 320 371
f 273 274 238
f 238 237 273
f 238 200 237
f 328 296 280
f 280 295 271
f 280 296 295
f 203 202 201
f 201 159 200
f 201 202 159
f 243 203 241
f 241 240 243
f 203 201 241
f 241 201 240
f 275 323 324
f 274 323 275
f 200 159 199
f 159 198 199
f 199 236 200
f 232 236 199
f 199 198 232
f 351 396 393
f 393 349 351
f 394 349 393
f 393 396 433
f 403 441 442
f 399 441 402
f 402 403 354
f 441 403 402
f 439 441 440
f 399 398 440
f 440 441 399
f 472 438 434
f 434 393 433
f 394 393 434
f 356 357 305
f 360 357 356
f 358 360 307
f 358 357 360
f 307 305 358
f 305 357 358
f 347 391 392
f 389 391 347
f 347 334 294
f 294 346 347
f 508 485 484
f 476 439 472
f 306 354 303
f 354 304 303
f 303 259 306
f 257 259 303
f 303 304 257
f 305 260 258
f 222 257 258
f 258 257 305
f 258 224 222
f 258 260 224
f 433 468 469
f 469 468 494
f 494 470 469
f 469 434 433
f 470 434 469
f 507 480 506
f 507 501 480
f 506 494 507
f 494 502 507
f 502 501 507
f 467 484 455
f 486 457 455
f 455 457 415
f 455 485 486
f 455 484 485
f 380 416 381
f 380 339 338
f 381 339 380
f 417 418 381
f 381 416 417
f 485 510 511
f 511 512 485
f 81 82 47
f 25 44 43
f 25 24 44
f 11 24 25
f 107 111 108
f 111 109 108
f 108 68 107
f 108 109 68
f 72 114 73
f 45 72 73
f 73 74 45
f 115 74 73
f 73 114 115
f 122 140 102
f 102 82 122
f 102 83 82
f 84 85 47
f 47 83 84
f 117 76 75
f 117 118 76
f 75 116 117
f 119 118 147
f 118 117 147
f 115 146 147
f 147 116 115
f 147 117 116
f 122 121 150
f 150 121 119
f 119 149 150
f 185 187 186
f 187 149 186
f 188 187 189
f 188 149 187
f 165 132 164
f 166 132 165
f 165 167 166
f 207 167 165
f 173 174 137
f 154 153 172
f 294 284 253
f 253 293 294
f 265 293 253
f 253 267 265
f 253 284 245
f 229 267 253
f 360 389 361
f 389 362 361
f 307 360 361
f 361 362 307
f 363 345 307
f 307 362 363
f 363 389 345
f 363 362 389
f 345 389 390
f 390 346 345
f 389 347 390
f 390 347 346
f 189 227 228
f 228 229 189
f 227 265 266
f 265 267 266
f 266 228 227
f 266 267 229
f 229 228 266
f 379 337 378
f 287 246 286
f 286 288 287
f 382 339 381
f 382 383 339
f 419 383 381
f 419 418 425
f 381 418 419
f 425 385 419
f 385 383 419
f 309 311 310
f 310 264 309
f 309 308 311
f 309 263 308
f 309 264 263
f 283 244 282
f 283 280 244
f 282 328 283
f 328 280 283
f 242 280 271
f 242 271 233
f 233 203 242
f 203 244 242
f 244 280 242
f 239 275 240
f 239 201 200
f 240 201 239
f 200 238 239
f 239 238 274
f 274 275 239
f 277 275 324
f 278 240 277
f 240 275 277
f 401 354 359
f 401 402 354
f 401 359 399
f 399 402 401
f 394 434 397
f 397 434 438
f 397 440 398
f 397 438 439
f 439 440 397
f 352 394 397
f 397 398 352
f 472 434 471
f 471 434 470
f 355 354 360
f 360 356 355
f 305 354 355
f 355 356 305
f 493 514 508
f 508 484 493
f 493 484 467
f 439 476 477
f 466 477 476
f 454 432 467
f 467 455 454
f 456 415 458
f 415 457 458
f 47 79 80
f 80 81 47
f 80 119 120
f 120 82 80
f 82 81 80
f 43 45 26
f 26 25 43
f 45 27 26
f 26 27 11
f 11 25 26
f 148 149 119
f 119 147 148
f 185 186 148
f 148 186 149
f 148 147 146
f 189 153 152
f 152 153 122
f 151 150 149
f 151 188 189
f 149 188 151
f 189 152 151
f 122 150 151
f 151 152 122
f 189 172 191
f 191 172 153
f 218 172 204
f 377 347 392
f 392 378 377
f 286 334 335
f 381 383 420
f 420 382 381
f 383 382 420
f 495 470 494
f 494 514 492
f 492 495 494
f 514 493 492
f 492 493 467
f 472 471 497
f 444 441 439
f 439 477 444
f 431 466 467
f 431 432 392
f 467 432 431
f 477 466 465
f 432 454 413
f 413 455 415
f 413 454 455
f 413 415 379
f 379 378 413
f 392 432 413
f 413 378 392
f 78 46 77
f 77 119 78
f 119 80 78
f 78 79 46
f 78 80 79
f 225 185 184
f 185 148 184
f 184 183 225
f 146 183 184
f 184 148 146
f 215 172 189
f 215 216 172
f 189 229 215
f 229 216 215
f 172 216 217
f 245 204 217
f 204 172 217
f 217 253 245
f 229 253 217
f 217 216 229
f 190 153 189
f 189 191 190
f 190 191 153
f 172 218 219
f 137 141 171
f 172 214 176
f 154 172 176
f 140 154 176
f 336 337 288
f 336 288 286
f 286 335 336
f 336 378 337
f 336 377 378
f 347 377 336
f 334 347 336
f 336 335 334
f 470 495 496
f 496 495 513
f 496 471 470
f 496 497 471
f 498 476 472
f 472 497 498
f 497 496 498
f 442 441 443
f 441 444 443
f 428 465 466
f 392 391 428
f 476 498 491
f 467 466 491
f 491 466 476
f 491 492 467
f 513 495 491
f 495 492 491
f 491 496 513
f 491 498 496
f 392 428 429
f 429 428 466
f 404 443 444
f 442 443 404
f 404 403 442
f 404 391 360
f 404 428 391
f 360 354 404
f 354 403 404
f 466 431 430
f 430 429 466
f 430 431 392
f 392 429 430
f 445 444 477
f 445 404 444
f 428 404 445
f 477 465 464
f 464 445 477
f 465 428 464
f 428 445 464
f 316 315 317
f 317 315 367
f 1 3 13
f 13 4 1
f 33 56 86
f 86 52 33
f 86 53 32
f 32 52 86
f 4 13 14
f 13 29 14
f 451 503 482
f 451 481 503
f 481 451 480
f 480 451 450
f 36 51 37
f 37 51 63
f 221 256 259
f 259 177 221
f 259 359 306
f 256 302 259
f 259 142 177
f 144 143 259
f 353 400 259
f 259 143 142
f 259 178 144
f 259 302 353
f 223 178 259
f 259 400 359
f 395 256 221
f 395 351 301
f 395 298 348
f 312 269 395
f 395 269 322
f 301 256 395
f 221 255 395
f 322 375 395
f 375 412 395
f 395 364 312
f 348 364 395
f 255 298 395
f 482 503 395
f 395 483 482
f 395 503 475
f 395 412 453
f 453 483 395
f 475 436 395
f 459 512 487
f 486 512 459
f 490 489 510
f 490 510 509
f 509 504 490
f 504 478 490
f 479 480 450
f 505 480 479
f 479 478 504
f 479 504 505
f 1 2 67
f 67 195 197
f 67 3 1
f 32 53 67
f 254 220 67
f 67 16 32
f 67 220 177
f 41 23 67
f 177 142 67
f 67 6 16
f 67 272 254
f 67 142 107
f 2 6 67
f 53 95 67
f 126 156 67
f 197 235 67
f 67 9 3
f 67 95 126
f 23 9 67
f 67 235 272
f 156 195 67
f 30 14 29
f 29 48 30
f 85 49 30
f 30 48 85
f 204 205 164
f 164 163 204
f 338 289 337
f 379 338 337
f 248 288 337
f 337 289 248
f 322 269 210
f 386 424 210
f 210 56 33
f 210 448 411
f 210 98 97
f 384 388 210
f 210 387 386
f 291 340 210
f 210 101 56
f 460 449 210
f 210 421 460
f 343 342 210
f 411 410 210
f 210 231 230
f 388 387 210
f 422 421 210
f 210 423 422
f 33 55 210
f 210 341 384
f 269 268 210
f 138 101 210
f 410 405 210
f 210 372 322
f 97 135 210
f 210 170 169
f 210 340 343
f 230 194 210
f 210 175 138
f 449 448 210
f 210 424 423
f 405 372 210
f 55 98 210
f 135 170 210
f 210 342 341
f 169 212 210
f 268 231 210
f 193 175 210
f 210 194 193
f 210 212 211
f 210 251 291
f 486 459 457
f 457 459 418
f 380 338 379
f 379 414 380
f 456 416 380
f 380 414 456
f 510 489 511
f 489 488 511
f 487 512 511
f 511 488 487
f 102 140 103
f 102 103 63
f 63 51 102
f 51 83 102
f 84 49 85
f 50 49 84
f 84 83 51
f 84 51 50
f 164 205 165
f 205 206 165
f 165 246 207
f 165 206 246
f 207 246 287
f 287 247 207
f 287 288 248
f 248 247 287
f 324 325 277
f 277 325 278
f 458 416 456
f 458 417 416
f 458 457 418
f 418 417 458
f 218 204 163
f 163 174 218
f 137 172 219
f 219 173 137
f 219 218 174
f 174 173 219
f 171 172 137
f 171 214 172
f 214 171 176
f 176 171 141
f 103 140 176
f 176 141 103
