v 0.019659 -0.005318 0.009100
v 0.019659 -0.005318 0.004700
v 0.019048 -0.005318 0.009400
v 0.036402 -0.014730 0.009100
v 0.019408 -0.005318 0.004577
v 0.036402 -0.014730 0.004700
v -0.000129 -0.005318 0.009400
v 0.036402 -0.015075 0.009400
v 0.019048 -0.005318 0.004400
v 0.036402 -0.015022 0.004446
v -0.000751 -0.005318 0.009100
v 0.036402 -0.025856 0.009400
v -0.000129 -0.005318 0.004400
v 0.036402 -0.015075 0.004400
v 0.036402 -0.026202 0.009100
v -0.000751 -0.005318 0.004700
v -0.000136 -0.005318 0.004403
v 0.036402 -0.025856 0.004400
v 0.036402 -0.026202 0.004700
f 6 10 9
f 4 3 8
f 9 10 14
f 12 7 11
f 11 15 12
f 18 19 16
f 1 3 4
f 5 2 6
f 5 6 9
f 17 13 18
f 18 16 17
f 14 13 9
f 18 13 14
f 4 8 12
f 12 6 4
f 15 19 12
f 10 6 12
f 12 14 10
f 12 19 18
f 18 14 12
f 3 7 12
f 12 8 3
f 16 19 15
f 16 15 11
f 4 6 1
f 6 2 1
f 3 1 17
f 11 7 17
f 17 7 3
f 9 13 17
f 17 16 11
f 17 5 9
f 17 1 2
f 2 5 17
