v 0.014371 -0.010691 -0.007202
v 0.014371 -0.010691 -0.007911
v 0.014344 -0.010691 -0.006964
v 0.013493 -0.011725 -0.006943
v 0.014300 -0.010777 -0.007202
v 0.014300 -0.010777 -0.007911
v 0.013493 -0.011725 -0.008118
v 0.014264 -0.010691 -0.008267
v 0.014330 -0.010691 -0.006847
v 0.013469 -0.011699 -0.006706
v 0.013005 -0.012279 -0.006847
v 0.013027 -0.012300 -0.007202
v 0.013027 -0.012300 -0.007911
v 0.012849 -0.012506 -0.007911
v 0.013156 -0.012104 -0.008154
v 0.013290 -0.011873 -0.008254
v 0.014228 -0.010691 -0.008327
v 0.014250 -0.010691 -0.006644
v 0.013134 -0.012075 -0.006661
v 0.014234 -0.010702 -0.006629
v 0.012827 -0.012484 -0.006847
v 0.012849 -0.012506 -0.007202
v 0.012673 -0.012683 -0.007911
v 0.012821 -0.012477 -0.008183
v 0.013087 -0.012020 -0.008390
v 0.012750 -0.012397 -0.008420
v 0.013855 -0.011027 -0.008460
v 0.014130 -0.010691 -0.008462
v 0.014239 -0.010691 -0.006627
v 0.013213 -0.011887 -0.006599
v 0.012925 -0.012213 -0.006591
v 0.012797 -0.012448 -0.006646
v 0.013567 -0.011462 -0.006600
v 0.012651 -0.012662 -0.006847
v 0.012673 -0.012683 -0.007202
v 0.012495 -0.012843 -0.007911
v 0.012467 -0.012820 -0.008173
v 0.012610 -0.012612 -0.008297
v 0.012385 -0.012749 -0.008410
v 0.012514 -0.012512 -0.008507
v 0.012851 -0.012162 -0.008501
v 0.013186 -0.011783 -0.008488
v 0.013521 -0.011405 -0.008475
v 0.013990 -0.010789 -0.008501
v 0.013995 -0.010691 -0.008536
v 0.014097 -0.010691 -0.006522
v 0.013883 -0.010691 -0.006372
v 0.013814 -0.010691 -0.006326
v 0.012569 -0.012225 -0.006390
v 0.012572 -0.012578 -0.006581
v 0.012437 -0.012794 -0.006651
v 0.012067 -0.013134 -0.006664
v 0.012473 -0.012823 -0.006847
v 0.012495 -0.012843 -0.007202
v 0.012289 -0.013020 -0.007911
v 0.011721 -0.013496 -0.008115
v 0.012094 -0.013158 -0.008147
v 0.012240 -0.012954 -0.008278
v 0.011636 -0.013424 -0.008352
v 0.010651 -0.014202 -0.008450
v 0.007936 -0.015875 -0.009210
v 0.007996 -0.015823 -0.009210
v 0.008185 -0.015646 -0.009210
v 0.012615 -0.012263 -0.008567
v 0.012958 -0.011895 -0.008555
v 0.013304 -0.011526 -0.008540
v 0.013647 -0.011158 -0.008521
v 0.013655 -0.010822 -0.008638
v 0.013655 -0.010691 -0.008657
v 0.012797 -0.010691 -0.005784
v 0.012657 -0.010863 -0.005784
v 0.012478 -0.011065 -0.005784
v 0.012327 -0.012332 -0.006327
v 0.012220 -0.012572 -0.006396
v 0.010646 -0.013841 -0.006313
v 0.012207 -0.012928 -0.006598
v 0.011883 -0.013214 -0.006603
v 0.010706 -0.014246 -0.006625
v 0.011694 -0.013473 -0.006713
v 0.012092 -0.013155 -0.006847
v 0.011721 -0.013496 -0.006949
v 0.012289 -0.013020 -0.007202
v 0.011167 -0.013984 -0.007911
v 0.010959 -0.014161 -0.007911
v 0.010780 -0.014312 -0.007911
v 0.010564 -0.014489 -0.007911
v 0.010352 -0.014589 -0.008180
v 0.010720 -0.014260 -0.008265
v 0.010468 -0.014447 -0.008285
v 0.007818 -0.015976 -0.009210
v 0.008572 -0.014990 -0.009210
v 0.013301 -0.010691 -0.008694
v 0.008685 -0.014722 -0.009210
v 0.008740 -0.014488 -0.009210
v 0.008759 -0.014368 -0.009210
v 0.008805 -0.014015 -0.009210
v 0.008844 -0.013660 -0.009210
v 0.008825 -0.013498 -0.009210
v 0.008800 -0.013305 -0.009210
v 0.004938 -0.010691 -0.005784
v -0.004029 -0.011622 -0.005198
v -0.002661 -0.011631 -0.005198
v -0.002307 -0.011637 -0.005198
v -0.001950 -0.011648 -0.005198
v -0.001827 -0.011655 -0.005198
v -0.001596 -0.011668 -0.005198
v -0.001470 -0.011677 -0.005198
v -0.000406 -0.011751 -0.005198
v -0.000299 -0.011759 -0.005198
v -0.000299 -0.016660 -0.005198
v 0.012122 -0.011416 -0.005784
v 0.011046 -0.012467 -0.005784
v 0.010687 -0.012815 -0.005784
v 0.010465 -0.012985 -0.005784
v 0.010276 -0.013121 -0.005784
v 0.010235 -0.014142 -0.006318
v 0.010465 -0.014069 -0.006372
v 0.010448 -0.014365 -0.006561
v 0.010794 -0.013993 -0.006500
v 0.011455 -0.013572 -0.006599
v 0.010758 -0.014293 -0.006847
v 0.010320 -0.014566 -0.006649
v 0.010780 -0.014312 -0.007202
v 0.010959 -0.014161 -0.007202
v 0.011167 -0.013984 -0.007202
v 0.010564 -0.014489 -0.007202
v 0.010385 -0.014611 -0.007911
v 0.007406 -0.016291 -0.009210
v 0.007626 -0.016125 -0.009210
v 0.008600 -0.012595 -0.009210
v 0.008561 -0.012475 -0.009210
v 0.008531 -0.012399 -0.009210
v 0.008273 -0.012072 -0.009210
v 0.008213 -0.012003 -0.009210
v 0.007878 -0.011626 -0.009210
v 0.007812 -0.011567 -0.009210
v 0.007678 -0.011450 -0.009210
v 0.007500 -0.011319 -0.009210
v 0.006770 -0.010976 -0.009210
v 0.006690 -0.010948 -0.009210
v 0.006562 -0.010916 -0.009210
v 0.006208 -0.010876 -0.009210
v 0.006562 -0.010691 -0.008739
v 0.004938 -0.010691 -0.007911
v -0.013652 -0.011622 -0.007202
v -0.013616 -0.011622 -0.006849
v -0.013531 -0.011622 -0.006627
v -0.011924 -0.011622 -0.005198
v -0.001366 -0.016580 -0.005198
v -0.000886 -0.017788 -0.006612
v -0.000532 -0.017797 -0.006603
v -0.000299 -0.017794 -0.006606
v -0.000173 -0.017791 -0.006607
v 0.001951 -0.017746 -0.006658
v 0.002164 -0.017742 -0.006665
v 0.002293 -0.017589 -0.006535
v 0.002661 -0.017523 -0.006530
v 0.004436 -0.017152 -0.006543
v 0.004790 -0.017111 -0.006581
v 0.005160 -0.016819 -0.006421
v 0.005289 -0.016641 -0.006316
v 0.005497 -0.015749 -0.005784
v 0.005780 -0.015656 -0.005784
v 0.006208 -0.015460 -0.005784
v 0.006515 -0.015318 -0.005784
v 0.007980 -0.014637 -0.005784
v 0.008166 -0.014549 -0.005784
v 0.008342 -0.014442 -0.005784
v 0.008616 -0.014266 -0.005784
v 0.009231 -0.013844 -0.005784
v 0.009664 -0.013545 -0.005784
v 0.009590 -0.014551 -0.006312
v 0.010114 -0.014341 -0.006396
v 0.010108 -0.014631 -0.006592
v 0.010539 -0.014469 -0.006847
v 0.010361 -0.014593 -0.006847
v 0.009225 -0.015257 -0.006667
v 0.010385 -0.014611 -0.007202
v 0.010108 -0.014784 -0.007911
v 0.007228 -0.016397 -0.009210
v 0.008158 -0.015965 -0.008088
v 0.005854 -0.010878 -0.009210
v 0.006208 -0.010691 -0.008736
v 0.005116 -0.010691 -0.008290
v -0.013586 -0.011622 -0.008207
v -0.013638 -0.011622 -0.008003
v -0.013652 -0.011622 -0.007911
v -0.013534 -0.011766 -0.007202
v -0.013515 -0.011746 -0.006847
v -0.013490 -0.011720 -0.006659
v -0.012780 -0.012427 -0.006661
v -0.011713 -0.013488 -0.006665
v -0.011282 -0.012227 -0.005198
v -0.002307 -0.016508 -0.005198
v -0.001799 -0.017741 -0.006666
v -0.000886 -0.017870 -0.006847
v -0.000532 -0.017889 -0.006847
v -0.000299 -0.017825 -0.006689
v -0.000299 -0.017882 -0.006847
v -0.000173 -0.017878 -0.006847
v 0.001951 -0.017783 -0.006847
v 0.002293 -0.017757 -0.006848
v 0.002400 -0.017727 -0.006730
v 0.003928 -0.017388 -0.006664
v 0.005143 -0.017069 -0.006623
v 0.005484 -0.016865 -0.006542
v 0.007072 -0.015943 -0.006316
v 0.007815 -0.015616 -0.006312
v 0.008482 -0.015224 -0.006316
v 0.009741 -0.014713 -0.006489
v 0.008679 -0.015438 -0.006548
v 0.009365 -0.015068 -0.006581
v 0.010108 -0.014750 -0.006847
v 0.010108 -0.014784 -0.007202
v 0.008553 -0.015633 -0.006647
v 0.008120 -0.015943 -0.006787
v 0.008158 -0.015965 -0.007023
v 0.009252 -0.015272 -0.006847
v 0.009897 -0.014879 -0.006847
v 0.008334 -0.015699 -0.006588
v 0.009455 -0.015181 -0.007911
v 0.007236 -0.016397 -0.008975
v 0.007025 -0.016486 -0.009210
v 0.007626 -0.016235 -0.007911
v 0.008336 -0.015857 -0.007911
v 0.007980 -0.016058 -0.007911
v 0.005497 -0.010889 -0.009210
v 0.005857 -0.010691 -0.008692
v 0.005119 -0.010691 -0.008294
v -0.013501 -0.011622 -0.008352
v -0.013441 -0.011666 -0.008394
v -0.013515 -0.011746 -0.008157
v -0.013534 -0.011766 -0.007911
v -0.013358 -0.011943 -0.007202
v -0.013339 -0.011924 -0.006847
v -0.011732 -0.013509 -0.006847
v -0.011504 -0.013713 -0.006830
v -0.011340 -0.013830 -0.006700
v -0.010294 -0.013134 -0.005198
v -0.010410 -0.013032 -0.005198
v -0.010541 -0.012915 -0.005198
v -0.010670 -0.012800 -0.005198
v -0.010849 -0.012634 -0.005198
v -0.011910 -0.013334 -0.006847
v -0.002430 -0.016494 -0.005198
v -0.002661 -0.016466 -0.005198
v -0.003371 -0.017463 -0.006583
v -0.003725 -0.017429 -0.006619
v -0.003371 -0.017576 -0.006847
v -0.002035 -0.017727 -0.006738
v -0.001931 -0.017756 -0.006852
v -0.002181 -0.017745 -0.006974
v -0.000886 -0.017904 -0.007202
v -0.000532 -0.017923 -0.007202
v -0.000299 -0.017894 -0.006967
v -0.000173 -0.017912 -0.007202
v 0.001951 -0.017810 -0.007202
v 0.002307 -0.017780 -0.007202
v 0.002518 -0.017745 -0.006967
v 0.004002 -0.017405 -0.006847
v 0.004181 -0.017365 -0.006847
v 0.004790 -0.017227 -0.006847
v 0.005143 -0.017143 -0.006847
v 0.005357 -0.017041 -0.006655
v 0.006562 -0.016445 -0.006548
v 0.007258 -0.016156 -0.006540
v 0.007626 -0.016054 -0.006579
v 0.007969 -0.015779 -0.006490
v 0.009455 -0.015181 -0.007202
v 0.007881 -0.016000 -0.006631
v 0.007626 -0.016181 -0.006847
v 0.007993 -0.016023 -0.006882
v 0.008336 -0.015857 -0.007202
v 0.007626 -0.016222 -0.007202
v 0.007980 -0.016057 -0.007202
v 0.007980 -0.016058 -0.007556
v 0.007256 -0.016397 -0.008265
v 0.007445 -0.016318 -0.007911
v 0.006918 -0.016532 -0.009210
v 0.007626 -0.016231 -0.007556
v 0.005171 -0.010949 -0.009210
v -0.012503 -0.011622 -0.008695
v -0.012856 -0.011622 -0.008672
v -0.012950 -0.011622 -0.008643
v -0.013232 -0.011622 -0.008554
v 0.005503 -0.010691 -0.008576
v 0.005401 -0.010691 -0.008520
v -0.013460 -0.011622 -0.008412
v -0.013205 -0.011788 -0.008496
v -0.013084 -0.012024 -0.008391
v -0.013301 -0.011885 -0.008274
v -0.013161 -0.012100 -0.008155
v -0.013358 -0.011943 -0.007911
v -0.012645 -0.012648 -0.007202
v -0.011754 -0.013529 -0.007202
v -0.011370 -0.013851 -0.006936
v -0.010294 -0.014552 -0.006664
v -0.009285 -0.015298 -0.006847
v -0.009249 -0.015272 -0.006652
v -0.010174 -0.013214 -0.005198
v -0.002784 -0.016441 -0.005198
v -0.003014 -0.016393 -0.005198
v -0.004435 -0.016038 -0.005198
v -0.003961 -0.017398 -0.006652
v -0.003371 -0.017609 -0.007202
v -0.003725 -0.017506 -0.006847
v -0.003014 -0.017652 -0.007202
v -0.000886 -0.017904 -0.007911
v -0.000293 -0.017916 -0.007202
v -0.000532 -0.017923 -0.007911
v -0.000173 -0.017912 -0.007911
v 0.001951 -0.017810 -0.007911
v 0.002307 -0.017780 -0.007911
v 0.002532 -0.017749 -0.007202
v 0.002710 -0.017710 -0.007202
v 0.004241 -0.017380 -0.007202
v 0.004790 -0.017261 -0.007202
v 0.005143 -0.017176 -0.007202
v 0.005412 -0.017063 -0.006847
v 0.006367 -0.016666 -0.006710
v 0.007132 -0.016333 -0.006654
v 0.006413 -0.016685 -0.006947
v 0.007415 -0.016306 -0.007202
v 0.007437 -0.016314 -0.007556
v 0.007269 -0.016391 -0.007911
v 0.006918 -0.016537 -0.008265
v 0.006918 -0.016534 -0.008975
v 0.006562 -0.016624 -0.009210
v 0.005451 -0.017078 -0.007911
v 0.005143 -0.017176 -0.007911
v 0.004993 -0.011008 -0.009210
v -0.010818 -0.013305 -0.008695
v 0.004790 -0.011093 -0.009210
v 0.004436 -0.011262 -0.009210
v 0.004257 -0.011354 -0.009210
v 0.003832 -0.011768 -0.009210
v 0.003731 -0.011879 -0.009210
v 0.003621 -0.011999 -0.009210
v 0.003514 -0.012130 -0.009210
v 0.003437 -0.012244 -0.009210
v 0.003330 -0.012459 -0.009210
v 0.003270 -0.012595 -0.009210
v 0.003166 -0.012854 -0.009210
v 0.003127 -0.012968 -0.009210
v 0.003064 -0.013170 -0.009210
v 0.003031 -0.013306 -0.009210
v 0.003009 -0.013541 -0.009210
v 0.003004 -0.013660 -0.009210
v 0.003059 -0.014368 -0.009210
v 0.003127 -0.014690 -0.009210
v 0.003319 -0.015077 -0.009210
v 0.003418 -0.015254 -0.009210
v 0.003588 -0.015539 -0.009210
v 0.003772 -0.015761 -0.009210
v -0.012593 -0.011885 -0.008671
v -0.012958 -0.011898 -0.008556
v -0.013279 -0.011622 -0.008534
v -0.011894 -0.012959 -0.008554
v -0.011781 -0.013200 -0.008492
v -0.012730 -0.012377 -0.008389
v -0.012807 -0.012453 -0.008153
v -0.011737 -0.013513 -0.008146
v -0.012645 -0.012648 -0.007911
v -0.011556 -0.013706 -0.007202
v -0.011754 -0.013529 -0.007911
v -0.011378 -0.013858 -0.007202
v -0.011172 -0.014005 -0.007202
v -0.010111 -0.014753 -0.007202
v -0.009488 -0.015192 -0.007202
v -0.009310 -0.015316 -0.007202
v -0.009046 -0.015478 -0.007202
v -0.009046 -0.015444 -0.006847
v -0.008805 -0.015578 -0.006847
v -0.008566 -0.015633 -0.006644
v -0.009046 -0.015333 -0.006596
v -0.008160 -0.014547 -0.005198
v -0.009227 -0.013841 -0.005198
v -0.005143 -0.015861 -0.005198
v -0.004197 -0.017366 -0.006779
v -0.005316 -0.017027 -0.006677
v -0.003371 -0.017609 -0.007911
v -0.003725 -0.017539 -0.007202
v -0.004079 -0.017414 -0.006877
v -0.004260 -0.017385 -0.007015
v -0.003014 -0.017652 -0.007911
v -0.001596 -0.017779 -0.008191
v -0.001240 -0.017800 -0.008231
v -0.000891 -0.017809 -0.008295
v -0.000532 -0.017841 -0.008265
v -0.002181 -0.017745 -0.008105
v -0.000293 -0.017916 -0.007911
v -0.000299 -0.017835 -0.008265
v -0.000173 -0.017831 -0.008265
v 0.001597 -0.017783 -0.008201
v 0.001951 -0.017774 -0.008182
v 0.002307 -0.017759 -0.008146
v 0.002518 -0.017745 -0.008108
v 0.002532 -0.017749 -0.007911
v 0.002710 -0.017710 -0.007911
v 0.004241 -0.017380 -0.007911
v 0.004790 -0.017261 -0.007911
v 0.005448 -0.017078 -0.007202
v 0.006918 -0.016530 -0.007911
v 0.006345 -0.016668 -0.009210
v 0.004011 -0.017407 -0.008148
v -0.010465 -0.013660 -0.008690
v -0.011172 -0.013305 -0.008668
v 0.003953 -0.015926 -0.009210
v 0.004118 -0.016053 -0.009210
v -0.011537 -0.013313 -0.008553
v -0.011425 -0.013547 -0.008492
v -0.011660 -0.013437 -0.008382
v -0.011877 -0.013298 -0.008265
v -0.011515 -0.013648 -0.008252
v -0.011370 -0.013851 -0.008121
v -0.011556 -0.013706 -0.007911
v -0.011378 -0.013858 -0.007911
v -0.011172 -0.014005 -0.007911
v -0.010111 -0.014753 -0.007911
v -0.009488 -0.015192 -0.007911
v -0.009310 -0.015316 -0.007911
v -0.009046 -0.015478 -0.007911
v -0.008835 -0.015594 -0.007202
v -0.008660 -0.015679 -0.007202
v -0.006665 -0.016639 -0.007202
v -0.006635 -0.016622 -0.006847
v -0.006413 -0.016685 -0.006656
v -0.007129 -0.016336 -0.006652
v -0.007625 -0.014818 -0.005198
v -0.007749 -0.014758 -0.005198
v -0.007979 -0.014644 -0.005198
v -0.005497 -0.015747 -0.005198
v -0.005376 -0.017045 -0.006913
v -0.006207 -0.016787 -0.006847
v -0.003371 -0.017527 -0.008265
v -0.003725 -0.017539 -0.007911
v -0.004079 -0.017439 -0.007202
v -0.006207 -0.016819 -0.007202
v -0.005853 -0.016922 -0.007202
v -0.005404 -0.017053 -0.007202
v -0.001596 -0.017698 -0.008368
v -0.001240 -0.017718 -0.008409
v -0.001950 -0.017758 -0.008142
v -0.000773 -0.017746 -0.008450
v -0.001012 -0.017732 -0.008433
v -0.000532 -0.017749 -0.008454
v -0.000299 -0.017746 -0.008450
v -0.000173 -0.017744 -0.008448
v 0.000030 -0.017739 -0.008444
v 0.000266 -0.017733 -0.008435
v 0.000532 -0.017727 -0.008425
v 0.000889 -0.017718 -0.008410
v 0.000889 -0.017800 -0.008233
v 0.001243 -0.017791 -0.008217
v 0.001243 -0.017710 -0.008395
v 0.001597 -0.017701 -0.008378
v 0.001951 -0.017693 -0.008360
v 0.002307 -0.017677 -0.008323
v 0.006167 -0.016693 -0.009210
v 0.004548 -0.016368 -0.009210
v -0.009400 -0.014369 -0.008692
v -0.009046 -0.014724 -0.008683
v -0.010111 -0.014015 -0.008677
v -0.009754 -0.014369 -0.008657
v -0.010818 -0.013660 -0.008646
v -0.011164 -0.013663 -0.008538
v -0.011276 -0.013783 -0.008357
v -0.011041 -0.013868 -0.008468
v -0.010231 -0.014508 -0.008384
v -0.010325 -0.014573 -0.008148
v -0.009280 -0.015296 -0.008170
v -0.008835 -0.015594 -0.007911
v -0.008660 -0.015679 -0.007911
v -0.006665 -0.016639 -0.007911
v -0.006490 -0.016721 -0.007202
v -0.006457 -0.016705 -0.006847
v -0.005752 -0.015643 -0.005198
v -0.005930 -0.015565 -0.005198
v -0.006687 -0.015232 -0.005198
v -0.004079 -0.017411 -0.008153
v -0.003717 -0.017453 -0.008280
v -0.003593 -0.017397 -0.008456
v -0.004079 -0.017439 -0.007911
v -0.004260 -0.017385 -0.008091
v -0.006207 -0.016819 -0.007911
v -0.005853 -0.016922 -0.007911
v -0.005404 -0.017053 -0.007911
v -0.003371 -0.017414 -0.008474
v -0.003014 -0.017436 -0.008494
v -0.002661 -0.017458 -0.008513
v -0.002307 -0.017478 -0.008530
v -0.001950 -0.017499 -0.008544
v -0.001596 -0.017520 -0.008556
v -0.001240 -0.017541 -0.008563
v -0.000891 -0.017593 -0.008547
v -0.000532 -0.017561 -0.008580
v 0.005854 -0.016710 -0.009210
v 0.004790 -0.016479 -0.009210
v -0.006207 -0.016142 -0.008685
v -0.006918 -0.015788 -0.008687
v -0.008336 -0.015078 -0.008690
v -0.008690 -0.015078 -0.008658
v -0.009400 -0.014724 -0.008623
v -0.010113 -0.014381 -0.008551
v -0.010818 -0.013947 -0.008520
v -0.010637 -0.014188 -0.008438
v -0.010399 -0.014272 -0.008503
v -0.009995 -0.014590 -0.008479
v -0.009589 -0.014910 -0.008451
v -0.009184 -0.015230 -0.008407
v -0.009057 -0.015373 -0.008279
v -0.008610 -0.015656 -0.008186
v -0.007892 -0.016006 -0.008179
v -0.007173 -0.016357 -0.008171
v -0.006454 -0.016705 -0.008163
v -0.006490 -0.016721 -0.007911
v -0.005376 -0.017045 -0.008131
v -0.005143 -0.017079 -0.008202
v -0.003829 -0.017363 -0.008408
v -0.004946 -0.017023 -0.008434
v -0.006062 -0.016683 -0.008452
v -0.004710 -0.017058 -0.008470
v -0.004435 -0.017098 -0.008506
v -0.004079 -0.017150 -0.008543
v -0.003717 -0.017229 -0.008547
v -0.003371 -0.017206 -0.008599
v -0.003014 -0.017206 -0.008620
v -0.002661 -0.017206 -0.008639
v -0.002307 -0.017206 -0.008656
v 0.005602 -0.016690 -0.009210
v 0.005143 -0.016584 -0.009210
v -0.005143 -0.016497 -0.008680
v -0.005497 -0.016497 -0.008650
v -0.006564 -0.016142 -0.008646
v -0.007979 -0.015432 -0.008655
v -0.008690 -0.015370 -0.008532
v -0.009057 -0.015098 -0.008559
v -0.009400 -0.014978 -0.008500
v -0.008948 -0.015303 -0.008485
v -0.008484 -0.015596 -0.008423
v -0.008712 -0.015554 -0.008289
v -0.007765 -0.015947 -0.008415
v -0.007047 -0.016297 -0.008408
v -0.006569 -0.016594 -0.008275
v -0.006301 -0.016647 -0.008399
v -0.006191 -0.016738 -0.008275
v -0.005143 -0.016995 -0.008380
v -0.006564 -0.016413 -0.008520
v -0.006191 -0.016516 -0.008542
v -0.005853 -0.016714 -0.008480
v -0.005497 -0.016766 -0.008524
v -0.005143 -0.016817 -0.008554
v -0.005853 -0.016497 -0.008606
v -0.004435 -0.016852 -0.008632
v -0.004079 -0.016852 -0.008669
v -0.003725 -0.016852 -0.008690
v 0.005541 -0.016678 -0.009210
v 0.005231 -0.016605 -0.009210
v -0.006926 -0.016164 -0.008556
v -0.008248 -0.015654 -0.008481
v -0.006811 -0.016354 -0.008474
v 0.005423 -0.016651 -0.009210
f 147 148 100
f 186 187 144
f 227 282 283
f 283 228 227
f 146 100 145
f 146 147 100
f 109 110 70
f 70 101 102
f 227 228 183
f 186 144 185
f 4 5 1
f 148 147 190
f 190 191 148
f 147 146 190
f 123 121 126
f 254 255 197
f 48 70 71
f 71 70 110
f 103 70 102
f 104 70 103
f 63 91 69
f 93 94 69
f 69 91 93
f 96 97 69
f 142 183 143
f 250 195 249
f 381 435 390
f 539 560 540
f 547 545 519
f 545 547 517
f 544 545 515
f 540 560 561
f 304 378 380
f 427 380 378
f 184 185 144
f 332 283 282
f 228 283 284
f 466 411 410
f 39 38 37
f 26 38 39
f 39 60 61
f 39 40 26
f 68 63 69
f 65 63 68
f 26 40 41
f 40 63 41
f 401 397 405
f 388 389 308
f 5 4 12
f 35 34 53
f 299 376 377
f 191 190 235
f 32 21 19
f 34 21 32
f 19 31 32
f 31 50 32
f 176 126 175
f 175 126 121
f 269 217 273
f 214 217 269
f 225 181 221
f 178 126 176
f 176 214 178
f 61 60 90
f 127 128 87
f 88 56 87
f 180 128 181
f 179 128 127
f 181 128 179
f 179 221 181
f 194 195 150
f 110 150 151
f 150 197 151
f 199 255 200
f 199 197 255
f 200 155 199
f 49 31 48
f 49 50 31
f 109 70 108
f 70 107 108
f 106 107 70
f 213 214 176
f 213 217 214
f 276 217 275
f 400 397 401
f 279 329 330
f 327 329 279
f 69 97 98
f 98 99 69
f 69 94 95
f 95 96 69
f 141 142 92
f 92 142 143
f 138 139 92
f 92 137 138
f 132 133 92
f 99 130 92
f 69 99 92
f 227 183 182
f 183 142 182
f 247 195 246
f 305 307 252
f 250 249 252
f 252 249 305
f 307 253 252
f 444 496 446
f 446 389 444
f 389 388 444
f 441 435 482
f 482 488 441
f 482 481 519
f 435 481 482
f 555 556 527
f 527 526 555
f 519 481 480
f 484 517 480
f 480 481 435
f 390 308 385
f 385 381 390
f 540 512 541
f 515 545 546
f 546 517 515
f 545 517 546
f 515 517 485
f 485 517 484
f 518 547 519
f 518 517 547
f 519 480 518
f 518 480 517
f 514 544 515
f 543 561 545
f 545 544 543
f 544 514 543
f 304 380 379
f 380 384 379
f 282 348 349
f 349 350 282
f 461 460 501
f 501 460 500
f 282 335 336
f 288 229 287
f 230 184 229
f 230 229 288
f 185 184 230
f 407 332 406
f 406 460 461
f 355 284 283
f 283 332 355
f 355 332 407
f 359 410 411
f 356 355 407
f 284 355 356
f 372 299 298
f 298 238 296
f 8 2 7
f 88 60 59
f 60 39 59
f 59 56 88
f 59 39 56
f 37 36 57
f 57 36 56
f 62 39 61
f 62 63 40
f 40 39 62
f 45 68 69
f 64 63 65
f 65 41 64
f 64 41 63
f 328 405 397
f 401 405 328
f 328 330 401
f 279 330 328
f 446 496 497
f 200 255 256
f 386 435 441
f 386 308 390
f 3 4 1
f 3 9 4
f 4 9 10
f 12 21 22
f 22 34 35
f 22 21 34
f 48 31 30
f 30 31 19
f 81 121 123
f 79 121 81
f 11 12 4
f 11 21 12
f 4 10 11
f 19 21 11
f 11 10 19
f 374 431 376
f 239 299 300
f 299 377 300
f 191 235 192
f 148 191 192
f 192 193 148
f 192 241 242
f 192 238 239
f 189 146 145
f 189 190 146
f 189 235 190
f 74 49 73
f 50 49 74
f 50 76 51
f 51 32 50
f 34 32 51
f 78 121 79
f 127 87 86
f 86 56 85
f 86 87 56
f 88 87 89
f 89 60 88
f 89 90 60
f 224 181 226
f 224 180 181
f 226 276 224
f 224 276 275
f 277 327 279
f 303 378 304
f 149 150 110
f 149 194 150
f 246 195 245
f 195 194 245
f 152 153 110
f 110 151 152
f 152 151 197
f 110 153 154
f 154 155 110
f 197 199 154
f 154 199 155
f 201 155 200
f 201 256 257
f 200 256 201
f 48 71 72
f 72 49 48
f 72 71 110
f 110 111 72
f 73 49 72
f 72 111 73
f 113 74 73
f 105 70 104
f 105 106 70
f 275 217 274
f 313 312 397
f 397 398 313
f 397 400 399
f 399 398 397
f 318 330 329
f 325 403 326
f 326 277 325
f 327 277 326
f 329 327 326
f 141 92 140
f 140 92 139
f 136 92 135
f 137 92 136
f 135 92 134
f 134 92 133
f 132 92 131
f 131 92 130
f 248 247 246
f 302 303 248
f 248 303 304
f 304 249 248
f 248 249 195
f 195 247 248
f 250 252 251
f 530 529 528
f 528 556 530
f 527 556 528
f 488 444 445
f 445 444 388
f 525 526 488
f 488 482 525
f 533 553 534
f 484 480 436
f 435 381 436
f 436 480 435
f 466 410 465
f 465 410 407
f 538 537 539
f 507 505 538
f 513 512 540
f 502 501 500
f 539 537 536
f 560 539 536
f 537 502 536
f 536 502 535
f 536 535 534
f 534 559 536
f 542 543 514
f 542 513 540
f 514 513 542
f 540 561 542
f 561 543 542
f 306 249 304
f 304 379 306
f 384 382 306
f 306 382 305
f 305 249 306
f 429 427 479
f 432 427 378
f 432 477 427
f 282 353 354
f 354 332 282
f 408 332 354
f 282 350 351
f 281 282 227
f 281 331 282
f 282 331 333
f 337 338 282
f 282 336 337
f 347 348 282
f 282 346 347
f 345 346 282
f 282 338 339
f 339 340 282
f 282 340 341
f 231 230 288
f 185 230 231
f 288 289 231
f 460 406 409
f 409 332 408
f 409 406 332
f 407 410 358
f 358 356 407
f 289 356 358
f 358 359 289
f 410 359 358
f 284 356 285
f 285 286 228
f 228 284 285
f 232 187 186
f 232 233 187
f 186 185 232
f 185 231 232
f 297 298 299
f 238 298 297
f 297 299 239
f 239 238 297
f 28 17 27
f 17 25 27
f 27 25 26
f 26 43 27
f 8 7 16
f 16 17 8
f 16 25 17
f 37 38 24
f 24 38 26
f 6 7 2
f 56 39 58
f 58 57 56
f 58 39 37
f 37 57 58
f 56 36 55
f 55 83 56
f 85 56 84
f 56 83 84
f 65 68 66
f 68 45 66
f 66 41 65
f 26 41 42
f 42 43 26
f 404 328 397
f 458 457 459
f 459 404 458
f 312 311 395
f 309 255 254
f 309 256 255
f 392 393 391
f 393 311 391
f 390 435 443
f 443 386 390
f 435 386 443
f 387 388 308
f 308 386 387
f 387 386 388
f 18 10 9
f 48 30 47
f 47 30 46
f 29 46 33
f 46 30 33
f 19 29 33
f 33 30 19
f 80 53 79
f 79 81 80
f 80 81 53
f 375 376 299
f 299 374 375
f 375 374 376
f 430 374 429
f 431 374 430
f 428 427 429
f 429 374 428
f 296 238 237
f 238 192 237
f 243 192 242
f 193 192 243
f 240 192 239
f 241 192 240
f 120 78 77
f 77 78 52
f 52 76 77
f 52 51 76
f 52 78 79
f 79 53 52
f 52 53 34
f 34 51 52
f 122 175 121
f 121 78 122
f 176 175 122
f 122 78 118
f 162 163 110
f 157 158 110
f 163 162 161
f 161 162 110
f 90 89 129
f 129 87 128
f 129 89 87
f 180 224 222
f 325 277 278
f 278 222 224
f 277 222 278
f 153 152 198
f 198 152 197
f 198 154 153
f 197 154 198
f 202 257 258
f 202 201 257
f 202 203 155
f 155 201 202
f 112 111 110
f 110 113 112
f 73 111 112
f 112 113 73
f 323 274 322
f 319 318 402
f 402 322 319
f 402 318 329
f 402 323 322
f 329 326 402
f 402 326 403
f 301 248 246
f 302 248 301
f 196 252 253
f 196 251 252
f 254 197 196
f 196 253 254
f 196 197 150
f 150 195 196
f 196 195 250
f 250 251 196
f 441 488 442
f 488 445 442
f 442 445 388
f 442 386 441
f 388 386 442
f 496 444 495
f 493 526 527
f 493 492 526
f 527 528 493
f 493 528 529
f 444 492 493
f 524 523 551
f 526 525 524
f 524 525 482
f 482 523 524
f 499 533 534
f 460 498 499
f 500 460 499
f 534 535 499
f 499 502 500
f 535 502 499
f 484 436 483
f 466 465 503
f 503 502 537
f 427 428 373
f 373 428 374
f 373 299 372
f 373 374 299
f 512 513 472
f 472 471 512
f 422 471 472
f 472 513 514
f 438 439 384
f 371 373 372
f 372 298 371
f 511 541 512
f 512 471 511
f 461 501 462
f 501 502 462
f 462 406 461
f 383 379 384
f 384 306 383
f 383 306 379
f 427 477 478
f 478 479 427
f 352 353 282
f 282 351 352
f 334 335 282
f 282 333 334
f 282 343 344
f 344 345 282
f 342 343 282
f 282 341 342
f 290 231 289
f 357 289 288
f 288 287 357
f 357 356 289
f 357 285 356
f 357 287 286
f 286 285 357
f 188 189 145
f 235 189 188
f 188 234 235
f 361 362 293
f 293 292 361
f 233 232 293
f 232 292 293
f 468 467 411
f 468 506 467
f 468 411 466
f 466 505 468
f 468 505 507
f 510 539 540
f 510 511 471
f 540 541 510
f 541 511 510
f 23 36 37
f 37 24 23
f 43 42 44
f 44 42 41
f 28 27 44
f 44 27 43
f 44 45 28
f 396 404 397
f 396 458 404
f 397 312 396
f 312 395 396
f 457 458 396
f 396 395 457
f 392 389 448
f 448 393 392
f 394 311 393
f 394 395 311
f 457 395 394
f 308 389 310
f 310 389 392
f 392 391 310
f 20 18 29
f 20 29 19
f 19 10 20
f 10 18 20
f 125 82 81
f 81 82 54
f 35 53 54
f 53 81 54
f 217 213 219
f 177 219 213
f 177 213 176
f 176 122 177
f 163 208 164
f 208 165 164
f 110 163 164
f 164 165 110
f 166 167 110
f 110 165 166
f 166 208 167
f 166 165 208
f 110 155 156
f 156 157 110
f 155 157 156
f 207 208 163
f 163 161 207
f 180 222 223
f 223 277 279
f 223 222 277
f 325 278 324
f 274 323 324
f 324 403 325
f 324 402 403
f 323 402 324
f 280 278 224
f 280 224 275
f 275 274 280
f 274 324 280
f 280 324 278
f 317 318 263
f 263 262 317
f 263 318 319
f 203 202 259
f 258 314 259
f 259 202 258
f 118 116 173
f 74 113 75
f 75 76 50
f 50 74 75
f 77 76 75
f 322 274 271
f 270 321 271
f 264 263 319
f 491 492 444
f 444 490 491
f 526 492 491
f 491 490 526
f 488 526 489
f 526 490 489
f 489 444 488
f 489 490 444
f 530 497 494
f 494 497 496
f 494 529 530
f 494 493 529
f 496 495 494
f 494 495 444
f 444 493 494
f 519 545 520
f 545 521 520
f 520 482 519
f 520 521 482
f 553 551 549
f 534 553 549
f 482 521 522
f 522 523 482
f 551 523 550
f 550 549 551
f 521 549 550
f 550 522 521
f 523 522 550
f 552 551 553
f 553 524 552
f 552 524 551
f 553 533 554
f 554 524 553
f 554 533 555
f 554 555 526
f 526 524 554
f 556 555 532
f 532 531 556
f 555 533 532
f 533 499 532
f 498 531 532
f 532 499 498
f 437 382 384
f 484 483 487
f 504 505 466
f 466 503 504
f 504 503 537
f 537 538 504
f 504 538 505
f 464 503 465
f 502 503 464
f 464 462 502
f 464 465 407
f 426 425 476
f 426 373 425
f 476 427 426
f 427 373 426
f 425 373 424
f 433 438 384
f 433 384 380
f 516 474 515
f 515 485 516
f 368 369 296
f 296 367 368
f 470 471 421
f 415 470 421
f 421 420 415
f 421 471 422
f 530 556 557
f 556 562 557
f 556 531 558
f 558 562 556
f 412 359 411
f 411 467 412
f 291 232 231
f 231 290 291
f 291 292 232
f 361 292 291
f 418 417 415
f 506 468 509
f 509 510 506
f 509 538 539
f 539 510 509
f 469 471 470
f 469 510 471
f 506 510 469
f 467 506 469
f 415 467 469
f 469 470 415
f 14 23 24
f 41 66 67
f 67 44 41
f 67 66 45
f 45 44 67
f 447 389 446
f 447 448 389
f 446 497 447
f 497 448 447
f 449 448 497
f 449 497 459
f 459 450 449
f 449 450 393
f 393 448 449
f 124 81 123
f 124 125 81
f 235 234 294
f 294 295 235
f 236 237 192
f 296 237 236
f 236 295 296
f 366 367 296
f 365 362 415
f 217 219 218
f 218 177 217
f 219 177 218
f 174 177 122
f 174 122 118
f 118 173 174
f 267 321 270
f 208 207 267
f 317 259 316
f 317 262 261
f 116 75 115
f 169 170 110
f 116 170 169
f 172 173 116
f 210 174 172
f 172 174 173
f 116 169 172
f 119 120 77
f 77 75 119
f 78 120 119
f 118 78 119
f 119 75 118
f 117 116 118
f 118 75 117
f 117 75 116
f 272 274 217
f 272 271 274
f 160 161 110
f 320 264 319
f 319 322 320
f 322 271 320
f 320 271 321
f 321 264 320
f 262 263 204
f 263 264 204
f 204 261 262
f 155 203 204
f 203 259 204
f 204 157 155
f 158 157 204
f 548 549 521
f 545 561 548
f 548 521 545
f 548 536 559
f 548 559 534
f 534 549 548
f 548 561 560
f 560 536 548
f 486 485 484
f 484 487 486
f 384 439 440
f 440 437 384
f 463 464 407
f 462 464 463
f 407 406 463
f 406 462 463
f 515 474 473
f 473 514 515
f 473 472 514
f 373 371 423
f 423 424 373
f 434 433 380
f 434 427 476
f 380 427 434
f 476 438 434
f 438 433 434
f 476 425 475
f 475 438 476
f 370 371 298
f 370 298 296
f 296 369 370
f 359 412 360
f 289 359 360
f 360 290 289
f 361 291 360
f 360 291 290
f 414 467 415
f 414 412 467
f 415 362 414
f 362 412 414
f 415 420 419
f 419 418 415
f 538 509 508
f 508 509 468
f 507 538 508
f 508 468 507
f 7 14 15
f 15 14 24
f 15 16 7
f 25 16 15
f 26 25 15
f 15 24 26
f 7 6 13
f 13 14 7
f 393 452 453
f 455 452 459
f 451 450 459
f 459 452 451
f 393 450 451
f 451 452 393
f 235 295 244
f 295 236 244
f 244 192 235
f 244 236 192
f 363 293 362
f 362 365 363
f 296 295 364
f 364 366 296
f 208 267 268
f 268 267 270
f 206 207 161
f 161 160 206
f 315 259 314
f 315 316 259
f 260 259 317
f 317 261 260
f 260 204 259
f 261 204 260
f 171 170 116
f 116 115 171
f 110 170 171
f 171 115 110
f 114 75 113
f 114 115 75
f 114 113 110
f 110 115 114
f 167 208 209
f 209 172 167
f 208 268 209
f 167 172 168
f 168 172 169
f 110 167 168
f 168 169 110
f 270 271 216
f 271 272 216
f 216 215 270
f 177 215 216
f 217 177 216
f 216 272 217
f 205 204 264
f 264 206 205
f 205 206 160
f 110 158 159
f 159 160 110
f 159 205 160
f 158 204 159
f 204 205 159
f 413 412 362
f 413 360 412
f 413 362 361
f 361 360 413
f 457 394 456
f 394 455 456
f 459 457 456
f 456 455 459
f 454 453 452
f 452 455 454
f 454 455 394
f 454 394 393
f 393 453 454
f 415 417 416
f 416 365 415
f 220 215 177
f 270 215 220
f 220 268 270
f 266 267 207
f 265 206 264
f 265 264 321
f 321 267 265
f 267 266 265
f 207 206 265
f 265 266 207
f 177 174 212
f 212 220 177
f 212 174 210
f 211 212 210
f 220 212 211
f 268 220 211
f 211 209 268
f 210 172 211
f 172 209 211
f 145 100 144
f 144 187 145
f 148 101 70
f 100 148 70
f 217 181 225
f 225 273 217
f 221 273 225
f 221 269 273
f 179 178 214
f 127 178 179
f 269 221 179
f 214 269 179
f 181 217 276
f 226 181 276
f 385 253 307
f 308 253 385
f 305 381 385
f 385 307 305
f 257 256 311
f 311 312 257
f 123 126 86
f 85 123 86
f 86 178 127
f 126 178 86
f 257 312 313
f 258 257 313
f 401 330 318
f 318 317 401
f 436 381 305
f 305 382 436
f 6 2 1
f 1 5 6
f 391 311 256
f 256 309 391
f 47 144 100
f 29 18 47
f 47 287 229
f 8 17 47
f 100 70 47
f 47 183 228
f 1 2 47
f 47 70 48
f 143 183 47
f 228 286 47
f 47 2 8
f 47 184 144
f 47 45 69
f 69 92 47
f 229 184 47
f 47 17 28
f 47 3 1
f 47 46 29
f 47 92 143
f 286 287 47
f 28 45 47
f 9 3 47
f 47 18 9
f 258 313 314
f 314 313 398
f 478 110 109
f 246 245 478
f 239 300 478
f 478 103 102
f 478 101 148
f 378 303 478
f 102 101 478
f 478 105 104
f 478 432 378
f 148 193 478
f 478 243 242
f 109 108 478
f 104 103 478
f 376 431 478
f 478 377 376
f 478 430 429
f 242 241 478
f 478 240 239
f 478 149 110
f 478 108 107
f 107 106 478
f 429 479 478
f 478 300 377
f 478 303 302
f 194 149 478
f 478 245 194
f 106 105 478
f 478 301 246
f 477 432 478
f 431 430 478
f 193 243 478
f 241 240 478
f 302 301 478
f 145 187 188
f 187 233 188
f 293 188 233
f 234 188 293
f 310 253 308
f 254 253 310
f 310 391 309
f 310 309 254
f 55 82 125
f 83 55 125
f 36 23 54
f 54 23 35
f 54 82 55
f 54 55 36
f 437 436 382
f 437 483 436
f 227 182 558
f 94 93 558
f 132 131 558
f 279 328 558
f 558 98 97
f 558 223 279
f 558 139 138
f 335 334 558
f 343 342 558
f 558 95 94
f 558 133 132
f 138 137 558
f 558 351 350
f 61 90 558
f 91 63 558
f 558 93 91
f 135 134 558
f 97 96 558
f 558 142 141
f 558 497 530
f 558 136 135
f 141 140 558
f 558 349 348
f 558 344 343
f 353 352 558
f 338 337 558
f 558 62 61
f 558 404 459
f 128 180 558
f 558 130 99
f 99 98 558
f 96 95 558
f 558 182 142
f 350 349 558
f 408 354 558
f 558 498 460
f 558 281 227
f 558 336 335
f 348 347 558
f 558 339 338
f 63 62 558
f 558 409 408
f 459 497 558
f 558 140 139
f 137 136 558
f 558 134 133
f 558 131 130
f 558 354 353
f 558 129 128
f 558 531 498
f 331 281 558
f 558 333 331
f 558 337 336
f 558 347 346
f 346 345 558
f 340 339 558
f 558 341 340
f 460 409 558
f 328 404 558
f 90 129 558
f 558 352 351
f 530 557 558
f 558 334 333
f 345 344 558
f 558 342 341
f 180 223 558
f 558 557 562
f 35 23 14
f 14 22 35
f 124 123 85
f 85 84 124
f 83 125 124
f 124 84 83
f 417 418 366
f 366 418 367
f 401 317 316
f 316 400 401
f 439 438 486
f 486 438 485
f 439 486 440
f 440 486 487
f 483 437 440
f 440 487 483
f 425 424 473
f 474 425 473
f 423 371 422
f 422 472 423
f 423 473 424
f 472 473 423
f 475 425 474
f 474 516 475
f 485 438 475
f 475 516 485
f 420 421 370
f 369 420 370
f 422 371 370
f 370 421 422
f 419 420 369
f 369 368 419
f 367 418 419
f 419 368 367
f 13 6 5
f 5 12 13
f 22 14 13
f 12 22 13
f 234 293 363
f 363 294 234
f 363 365 295
f 295 294 363
f 315 314 398
f 398 399 315
f 400 316 315
f 315 399 400
f 417 366 416
f 366 364 416
f 295 365 416
f 416 364 295
