v -0.000013 -0.005318 0.004400
v -0.000013 -0.005318 0.009400
v -0.000013 -0.002795 0.004400
v 0.019050 -0.005318 0.004400
v -0.000013 -0.002795 0.009400
v 0.019050 -0.005318 0.009400
v -0.000013 -0.002774 0.004421
v 0.002722 -0.000621 0.004400
v 0.010695 -0.000621 0.004400
v 0.019662 -0.005318 0.004700
v -0.000013 -0.002512 0.009117
v 0.002722 -0.000621 0.009400
v 0.019662 -0.005318 0.009100
v 0.010695 -0.000621 0.009400
v -0.000013 -0.002495 0.004700
v 0.002421 -0.000621 0.004700
v 0.011308 -0.000621 0.004700
v -0.000013 -0.002495 0.009100
v 0.002421 -0.000621 0.009100
v 0.011308 -0.000621 0.009100
f 10 4 17
f 9 17 4
f 14 6 20
f 8 15 16
f 8 3 7
f 7 15 8
f 13 20 6
f 19 18 12
f 11 5 12
f 12 18 11
f 9 4 1
f 1 3 9
f 9 3 8
f 1 4 13
f 13 2 1
f 13 4 10
f 13 6 2
f 17 20 13
f 10 17 13
f 2 6 5
f 14 12 5
f 5 6 14
f 19 9 8
f 14 20 19
f 19 12 14
f 17 9 19
f 19 20 17
f 8 16 19
f 15 18 19
f 19 16 15
f 1 2 11
f 11 3 1
f 15 7 11
f 11 18 15
f 11 7 3
f 2 5 11
