v -0.003266 0.000745 -0.000400
v -0.001454 0.003018 -0.000400
v -0.001802 0.003174 -0.000400
v -0.001453 0.003348 -0.000400
v -0.002074 -0.003004 -0.000400
v -0.002537 -0.002624 -0.000400
v -0.002724 -0.002430 -0.000400
v -0.003000 -0.002079 -0.000400
v -0.003219 -0.001721 -0.000400
v -0.003348 -0.001453 -0.000400
v -0.001034 0.003501 -0.000400
v -0.000772 0.003567 -0.000400
v -0.003650 0.000002 -0.000400
v -0.003533 -0.000915 -0.000400
v -0.003567 -0.000772 -0.000400
v -0.003649 -0.000061 -0.000400
v 0.002219 0.002898 -0.000400
v 0.002537 0.002624 -0.000400
v 0.002794 0.002349 -0.000400
v 0.003000 0.002079 -0.000400
v -0.002079 0.003000 -0.000400
v -0.002457 0.002700 -0.000400
v -0.003369 0.001405 -0.000400
v -0.003069 0.001977 -0.000400
v -0.003009 0.002067 -0.000400
v -0.002624 0.002537 -0.000400
v -0.003591 0.000652 -0.000400
v -0.003582 0.000702 -0.000400
v -0.003395 0.001340 -0.000400
v -0.000652 -0.003592 -0.000400
v -0.001309 -0.003407 -0.000400
v -0.001340 -0.003395 -0.000400
v -0.001977 -0.003069 -0.000400
v 0.001977 0.003069 -0.000400
v 0.001531 0.003314 -0.000400
v 0.000772 -0.003568 -0.000400
v 0.001365 -0.003385 -0.000400
v 0.001297 -0.003412 -0.000400
v 0.003567 0.000772 -0.000400
v 0.003650 0.000061 -0.000400
v 0.003650 -0.000002 -0.000400
v 0.003262 0.001638 -0.000400
v 0.003348 0.001453 -0.000400
v 0.003533 0.000918 -0.000400
v 0.000676 0.003587 -0.000400
v 0.001340 0.003395 -0.000400
v -0.000186 0.003645 -0.000400
v -0.000061 0.003650 -0.000400
v 0.000652 0.003591 -0.000400
v 0.000327 -0.003635 -0.000400
v 0.000061 -0.003649 -0.000400
v -0.000532 -0.003612 -0.000400
v 0.001229 -0.003437 -0.000400
v 0.000960 -0.003522 -0.000400
v 0.003395 -0.001340 -0.000400
v 0.003158 -0.001832 -0.000400
v 0.003069 -0.001977 -0.000400
v 0.003619 -0.000481 -0.000400
v 0.003592 -0.000652 -0.000400
v 0.003480 -0.001099 -0.000400
v 0.002079 -0.003001 -0.000400
v 0.001453 -0.003348 -0.000400
v 0.002642 -0.002519 -0.000400
v 0.002624 -0.002537 -0.000400
v 0.002152 -0.002950 -0.000400
v -0.003108 0.002002 -0.000389
v 0.003696 0.000062 -0.000389
v 0.003637 -0.000660 -0.000389
v 0.003438 -0.001357 -0.000389
v 0.003108 -0.002002 -0.000389
v 0.002657 -0.002569 -0.000389
v 0.001472 -0.003391 -0.000389
v 0.002105 -0.003038 -0.000389
v 0.000782 -0.003613 -0.000389
v 0.000062 -0.003696 -0.000389
v -0.000660 -0.003637 -0.000389
v -0.001357 -0.003438 -0.000389
v -0.002002 -0.003108 -0.000389
v -0.002569 -0.002657 -0.000389
v -0.003038 -0.002105 -0.000389
v -0.003391 -0.001472 -0.000389
v -0.003613 -0.000782 -0.000389
v -0.003696 -0.000062 -0.000389
v -0.003637 0.000660 -0.000389
v -0.003438 0.001357 -0.000389
v -0.002657 0.002569 -0.000389
v -0.002105 0.003038 -0.000389
v -0.001472 0.003391 -0.000389
v -0.000782 0.003613 -0.000389
v -0.000062 0.003696 -0.000389
v 0.000660 0.003637 -0.000389
v 0.002002 0.003108 -0.000389
v 0.001357 0.003438 -0.000389
v 0.002569 0.002657 -0.000389
v 0.003038 0.002105 -0.000389
v 0.003391 0.001472 -0.000389
v 0.003613 0.000782 -0.000389
v 0.001370 0.003472 -0.000357
v 0.000666 0.003672 -0.000357
v -0.000063 0.003732 -0.000357
v -0.000790 0.003648 -0.000357
v -0.001486 0.003424 -0.000357
v -0.001370 -0.003472 -0.000357
v -0.000666 -0.003672 -0.000357
v 0.000063 -0.003732 -0.000357
v 0.000790 -0.003648 -0.000357
v -0.025314 -0.001877 0.041327
v -0.025314 -0.000770 0.041384
v -0.026281 -0.000770 0.041312
v -0.025314 0.000337 0.041327
v 0.025655 -0.001875 0.041312
v 0.024686 -0.001877 0.041327
v 0.026625 -0.000770 0.041266
v 0.025655 -0.000770 0.041369
v 0.024686 -0.000770 0.041384
v 0.025655 0.000335 0.041312
v 0.024686 0.000337 0.041327
v -0.031000 0.011730 0.030602
v -0.032722 0.011387 0.023892
v -0.034182 0.010412 0.030602
v 0.031000 0.011730 0.023892
v 0.035500 0.007230 0.030602
v 0.034182 0.010412 0.023892
v -0.035157 -0.010492 0.023892
v -0.034182 -0.011952 0.030602
v -0.032722 -0.012927 0.030602
v 0.032722 -0.012927 0.023892
v 0.034182 -0.011952 0.030602
v 0.016425 -0.013270 0.033672
v -0.035500 0.007230 0.038837
v -0.035157 0.008952 0.038837
v -0.034182 0.010412 0.038837
v -0.032722 0.011387 0.038837
v -0.031000 0.011730 0.038837
v -0.035500 -0.008770 0.038837
v -0.035157 -0.010492 0.038837
v -0.034182 -0.011952 0.038837
v -0.032722 -0.012927 0.038837
v -0.031000 -0.013270 0.038837
v 0.031000 -0.013270 0.038837
v 0.035500 -0.008770 0.038837
v 0.035157 -0.010492 0.038837
v 0.034182 -0.011952 0.038837
v 0.032722 -0.012927 0.038837
v 0.035500 0.007230 0.038837
v 0.035157 0.008952 0.038837
v 0.034182 0.010412 0.038837
v 0.032722 0.011387 0.038837
v 0.031000 0.011730 0.038837
v -0.031000 0.010230 0.040337
v -0.032148 0.010002 0.040337
v -0.033121 0.009351 0.040337
v -0.033772 0.008378 0.040337
v -0.034000 0.007230 0.040337
v -0.034000 -0.008770 0.040337
v -0.033772 -0.009918 0.040337
v -0.033121 -0.010891 0.040337
v -0.032148 -0.011542 0.040337
v -0.031000 -0.011770 0.040337
v 0.024069 -0.011770 0.040337
v 0.031000 -0.011770 0.040337
v 0.032148 -0.011542 0.040337
v 0.033121 -0.010891 0.040337
v 0.033772 -0.009918 0.040337
v 0.034000 -0.008770 0.040337
v 0.034000 0.007230 0.040337
v 0.033772 0.008378 0.040337
v 0.033121 0.009351 0.040337
v 0.032148 0.010002 0.040337
v 0.031000 0.010230 0.040337
v 0.024069 0.010230 0.040337
v 0.021000 -0.013270 0.015830
v 0.011760 -0.013270 0.015630
v -0.031000 -0.013270 0.015630
v -0.032722 -0.012927 0.015630
v -0.032148 -0.011542 0.014130
v -0.034182 -0.011952 0.015630
v -0.033121 -0.010891 0.014130
v -0.035157 -0.010492 0.015630
v -0.033772 -0.009918 0.014130
v -0.035500 -0.008770 0.015630
v -0.034000 -0.008770 0.014130
v -0.035500 0.007230 0.015630
v -0.034000 0.007230 0.014130
v -0.034000 -0.001560 0.014130
v -0.035157 0.008952 0.015630
v -0.033772 0.008378 0.014130
v -0.034182 0.010412 0.015630
v -0.033121 0.009351 0.014130
v -0.032722 0.011387 0.015630
v -0.032148 0.010002 0.014130
v -0.031000 0.011730 0.015630
v 0.031000 0.011730 0.015630
v 0.032722 0.011387 0.015630
v 0.032148 0.010002 0.014130
v 0.034182 0.010412 0.015630
v 0.033121 0.009351 0.014130
v 0.035157 0.008952 0.015630
v 0.033772 0.008378 0.014130
v 0.035500 0.007230 0.015630
v 0.034000 0.007230 0.014130
v 0.034000 -0.008770 0.014130
v 0.035500 -0.008770 0.015630
v 0.035157 -0.010492 0.015630
v 0.033772 -0.009918 0.014130
v 0.034182 -0.011952 0.015630
v 0.033121 -0.010891 0.014130
v 0.032722 -0.012927 0.015630
v 0.032148 -0.011542 0.014130
v 0.031000 -0.013270 0.015630
f 149 134 171
f 118 134 149
f 118 193 192
f 126 125 175
f 174 126 175
f 180 179 181
f 181 182 180
f 170 149 171
f 100 192 193
f 180 80 178
f 178 179 180
f 178 176 175
f 176 178 78
f 124 179 125
f 210 174 173
f 129 174 172
f 172 210 129
f 172 174 210
f 171 134 150
f 118 192 190
f 122 146 145
f 146 167 145
f 165 141 145
f 164 141 165
f 163 143 164
f 208 207 206
f 206 128 208
f 144 143 163
f 149 170 169
f 169 148 149
f 149 148 121
f 142 164 143
f 141 164 142
f 201 198 200
f 199 198 201
f 203 201 200
f 202 201 203
f 177 178 175
f 179 178 177
f 175 125 177
f 125 179 177
f 210 173 105
f 105 173 174
f 207 208 209
f 209 73 207
f 176 78 77
f 79 178 80
f 79 78 178
f 185 83 182
f 184 83 185
f 182 181 185
f 185 181 183
f 183 184 185
f 81 80 180
f 180 182 82
f 182 83 82
f 82 81 180
f 16 82 83
f 187 184 183
f 139 174 129
f 126 174 139
f 171 150 110
f 118 190 119
f 190 120 119
f 186 187 183
f 189 187 186
f 189 190 191
f 166 145 167
f 165 145 166
f 210 144 140
f 129 210 140
f 140 139 129
f 210 208 127
f 127 144 210
f 127 208 128
f 168 147 148
f 148 169 168
f 146 147 168
f 168 167 146
f 193 194 99
f 99 100 193
f 196 194 123
f 123 198 196
f 207 73 71
f 106 209 208
f 106 208 210
f 210 105 106
f 73 209 72
f 7 80 8
f 7 79 80
f 8 80 9
f 80 81 9
f 125 126 138
f 126 139 138
f 117 170 171
f 171 110 117
f 188 120 190
f 188 186 120
f 188 190 189
f 189 186 188
f 161 140 144
f 195 99 194
f 204 128 206
f 206 207 204
f 204 207 205
f 205 202 204
f 202 203 204
f 104 105 174
f 104 76 105
f 104 174 175
f 175 176 104
f 105 76 75
f 75 106 105
f 65 71 73
f 209 106 74
f 74 72 209
f 106 75 74
f 78 79 5
f 8 32 5
f 81 82 14
f 84 83 184
f 184 187 84
f 187 85 84
f 108 110 152
f 125 138 137
f 116 169 170
f 170 117 116
f 116 168 169
f 115 110 108
f 115 117 110
f 115 116 117
f 162 144 163
f 162 161 144
f 197 194 196
f 197 195 194
f 196 198 197
f 197 198 199
f 205 207 70
f 207 71 70
f 77 76 103
f 76 104 103
f 176 77 103
f 103 104 176
f 73 72 61
f 61 65 73
f 54 74 36
f 31 76 77
f 31 30 76
f 77 32 31
f 52 75 76
f 76 30 52
f 52 31 32
f 30 31 52
f 52 32 8
f 78 5 33
f 33 5 32
f 33 77 78
f 33 32 77
f 79 7 6
f 6 5 79
f 6 7 8
f 8 5 6
f 10 9 81
f 81 14 10
f 8 9 10
f 10 14 8
f 82 16 15
f 15 14 82
f 16 14 15
f 67 201 202
f 87 86 189
f 189 191 87
f 99 195 98
f 108 152 153
f 151 110 150
f 151 152 110
f 151 150 134
f 152 151 132
f 132 153 152
f 132 119 120
f 154 155 109
f 108 153 109
f 109 153 154
f 154 153 130
f 130 186 183
f 167 168 114
f 168 116 114
f 114 166 167
f 116 115 114
f 114 164 165
f 163 164 114
f 107 115 108
f 108 157 107
f 53 74 54
f 72 74 53
f 72 37 62
f 62 61 72
f 65 61 62
f 62 53 54
f 75 52 51
f 205 70 69
f 41 19 43
f 68 67 202
f 205 69 68
f 68 69 60
f 68 202 205
f 28 23 14
f 28 84 85
f 8 14 1
f 14 23 1
f 12 11 89
f 90 89 100
f 100 99 90
f 99 91 90
f 133 151 134
f 133 132 151
f 119 132 133
f 133 134 118
f 118 119 133
f 108 109 156
f 156 157 108
f 156 109 155
f 137 157 156
f 135 156 155
f 131 132 120
f 153 132 131
f 131 130 153
f 165 166 113
f 113 114 165
f 166 114 113
f 111 162 163
f 163 114 111
f 161 162 111
f 111 114 115
f 160 107 159
f 140 161 160
f 159 107 158
f 158 107 157
f 139 159 158
f 158 138 139
f 158 137 138
f 158 157 137
f 38 37 72
f 72 53 38
f 38 62 37
f 53 62 38
f 75 51 50
f 50 74 75
f 50 36 74
f 54 36 50
f 50 51 52
f 50 62 54
f 50 52 41
f 71 65 64
f 65 62 64
f 62 50 64
f 64 50 41
f 63 70 71
f 63 57 70
f 71 64 63
f 70 57 56
f 56 69 70
f 41 60 56
f 56 64 41
f 57 63 56
f 56 63 64
f 17 19 41
f 59 68 60
f 41 67 58
f 67 68 58
f 68 59 58
f 58 60 41
f 58 59 60
f 13 16 83
f 83 84 13
f 85 23 29
f 29 28 85
f 23 28 29
f 189 86 66
f 86 25 66
f 66 187 189
f 25 24 66
f 66 85 187
f 66 23 85
f 66 24 23
f 8 1 2
f 2 11 45
f 45 17 2
f 2 17 41
f 2 52 8
f 41 52 2
f 45 11 47
f 47 11 12
f 12 89 47
f 89 90 47
f 191 102 88
f 88 87 191
f 102 89 88
f 88 89 11
f 192 100 101
f 100 89 101
f 101 190 192
f 101 191 190
f 101 102 191
f 101 89 102
f 137 156 136
f 156 135 136
f 136 135 124
f 136 124 125
f 125 137 136
f 161 111 112
f 112 160 161
f 107 160 112
f 115 107 112
f 112 111 115
f 60 69 55
f 55 56 60
f 69 56 55
f 199 96 95
f 95 197 199
f 40 67 41
f 41 39 40
f 40 39 67
f 41 43 44
f 44 39 41
f 43 96 44
f 201 67 97
f 67 39 97
f 199 201 97
f 39 44 97
f 97 96 199
f 97 44 96
f 197 95 94
f 94 95 19
f 84 28 27
f 27 13 84
f 16 13 27
f 27 14 16
f 27 28 14
f 26 24 25
f 26 25 86
f 22 1 23
f 22 2 1
f 23 24 22
f 24 26 22
f 22 26 86
f 86 87 22
f 22 87 21
f 11 2 4
f 4 88 11
f 4 22 21
f 2 22 4
f 45 47 48
f 48 47 90
f 19 95 20
f 42 96 43
f 42 95 96
f 42 20 95
f 42 43 19
f 19 20 42
f 93 98 195
f 93 91 99
f 99 98 93
f 45 91 93
f 92 94 17
f 35 93 92
f 197 94 92
f 92 93 195
f 195 197 92
f 19 17 18
f 18 94 19
f 17 94 18
f 3 4 21
f 88 4 3
f 21 87 3
f 87 88 3
f 49 90 91
f 49 48 90
f 49 91 45
f 45 48 49
f 45 93 46
f 46 93 35
f 46 17 45
f 34 92 17
f 35 92 34
f 17 46 34
f 34 46 35
f 118 149 121
f 121 193 118
f 121 194 193
f 148 194 121
f 122 200 198
f 198 146 122
f 203 200 122
f 122 145 203
f 203 145 141
f 143 144 127
f 127 128 143
f 123 194 148
f 148 147 123
f 146 198 123
f 123 147 146
f 143 128 204
f 204 142 143
f 204 203 141
f 141 142 204
f 154 130 135
f 135 155 154
f 135 130 183
f 183 181 135
f 135 181 179
f 179 124 135
f 186 130 131
f 120 186 131
f 160 159 139
f 139 140 160
