v -0.019971 0.001079 0.004781
v -0.019971 0.001079 0.009000
v -0.019964 0.001108 0.004781
v -0.019740 -0.000550 0.004781
v -0.019671 0.001066 0.009300
v -0.019661 0.001108 0.009300
v -0.019964 0.001108 0.009000
v -0.019713 -0.000740 0.009000
v -0.019429 -0.000644 0.009300
v -0.017414 0.001108 0.004781
v -0.019713 -0.000740 0.004781
v -0.017414 0.001108 0.009300
v -0.019560 -0.001086 0.004781
v -0.018816 -0.002343 0.009000
v -0.018586 -0.002151 0.009300
v -0.014948 -0.001626 0.004781
v -0.014948 -0.001626 0.009300
v -0.019030 -0.002032 0.004781
v -0.018816 -0.002343 0.004781
v -0.017401 -0.003515 0.009000
v -0.017255 -0.003252 0.009300
v -0.014948 -0.004152 0.004781
v -0.014948 -0.003851 0.009300
v -0.017401 -0.003515 0.004781
v -0.015840 -0.004035 0.004781
v -0.015657 -0.004095 0.009000
v -0.015617 -0.003798 0.009300
v -0.014948 -0.004152 0.009000
v -0.015262 -0.004134 0.004781
v -0.015244 -0.003834 0.009300
v -0.015657 -0.004095 0.004781
v -0.015278 -0.004132 0.004781
v -0.015262 -0.004134 0.009000
f 5 6 2
f 9 8 14
f 14 15 9
f 9 2 8
f 5 2 9
f 7 2 6
f 4 2 1
f 8 2 4
f 4 11 8
f 8 11 13
f 14 8 13
f 14 20 21
f 21 15 14
f 18 19 14
f 14 13 18
f 26 21 20
f 25 20 24
f 31 26 25
f 25 26 20
f 28 23 30
f 30 33 28
f 26 33 27
f 33 30 27
f 21 26 27
f 32 29 33
f 32 26 31
f 32 33 26
f 16 10 12
f 12 17 16
f 23 22 16
f 16 17 23
f 23 28 22
f 14 19 20
f 19 24 20
f 10 3 7
f 7 12 10
f 6 12 7
f 7 3 1
f 1 2 7
f 22 28 29
f 28 33 29
f 17 12 27
f 27 6 5
f 5 9 27
f 27 12 6
f 27 9 15
f 27 23 17
f 15 21 27
f 27 30 23
f 16 22 32
f 1 3 32
f 32 10 16
f 32 25 24
f 32 3 10
f 32 4 1
f 32 24 19
f 11 4 32
f 32 13 11
f 19 18 32
f 32 18 13
f 31 25 32
f 22 29 32
