v -0.000214 -0.001946 0.016976
v 0.000251 -0.001941 0.016976
v -0.001178 -0.001470 0.016976
v -0.000714 -0.001589 0.008518
v -0.000404 -0.001683 0.008518
v -0.000226 -0.001736 0.008518
v -0.000135 -0.001747 0.008518
v 0.000023 -0.001767 0.008518
v 0.000045 -0.001767 0.008518
v 0.000316 -0.001921 0.016976
v 0.000295 -0.001720 0.008518
v -0.001647 -0.000962 0.016976
v -0.001340 -0.001107 0.008518
v -0.001089 -0.001369 0.008518
v -0.000851 -0.001509 0.008518
v 0.001119 -0.001517 0.016976
v 0.000787 -0.001544 0.008518
v -0.001788 -0.000515 0.016976
v -0.001659 -0.000515 0.008518
v -0.001521 -0.000857 0.008518
v 0.001228 -0.001451 0.016976
v 0.001124 -0.001340 0.008518
v -0.001836 -0.000015 0.016976
v -0.001747 -0.000015 0.008518
v 0.001639 -0.001019 0.016976
v 0.001215 -0.001240 0.008518
v -0.001814 0.000360 0.016976
v -0.001705 0.000303 0.008518
v -0.001798 0.000485 0.016976
v 0.001705 -0.000939 0.016976
v 0.001374 -0.001064 0.008518
v -0.001681 0.000485 0.008518
v -0.001698 0.000835 0.016976
v 0.001741 -0.000840 0.016976
v 0.001497 -0.000905 0.008518
v 0.001567 -0.000814 0.008518
v -0.001589 0.000717 0.008518
v -0.001654 0.000944 0.016976
v -0.001535 0.000851 0.008518
v 0.001827 -0.000515 0.016976
v 0.001673 -0.000515 0.008518
v -0.001596 0.001018 0.016976
v -0.001350 0.001101 0.008518
v 0.001844 -0.000376 0.016976
v 0.001745 -0.000015 0.008518
v -0.001257 0.001374 0.016976
v -0.001100 0.001350 0.008518
v -0.001185 0.001447 0.016976
v 0.001865 -0.000015 0.016976
v 0.001666 0.000485 0.008518
v 0.001826 0.000485 0.016976
v -0.000714 0.001577 0.008518
v -0.000669 0.001830 0.016976
v 0.001564 0.000782 0.008518
v 0.001706 0.000912 0.016976
v -0.000301 0.001713 0.008518
v -0.000507 0.001884 0.016976
v 0.001390 0.001032 0.008518
v 0.001238 0.001430 0.016976
v 0.001299 0.001139 0.008518
v 0.001140 0.001326 0.008518
v -0.000142 0.001735 0.008518
v -0.000209 0.001952 0.016976
v 0.000282 0.001945 0.016976
v 0.000787 0.001553 0.008518
v -0.000051 0.001748 0.008518
v 0.000126 0.001748 0.008518
v 0.000377 0.001713 0.008518
v 0.000285 0.001726 0.008518
f 4 1 3
f 64 67 63
f 59 55 61
f 13 3 12
f 18 19 12
f 29 33 32
f 58 55 54
f 65 64 59
f 59 61 65
f 45 51 49
f 25 21 22
f 41 45 40
f 5 1 4
f 5 6 1
f 8 9 1
f 1 9 2
f 12 19 20
f 20 13 12
f 3 13 14
f 38 42 43
f 24 18 23
f 19 18 24
f 43 42 46
f 46 48 43
f 47 48 53
f 53 52 47
f 43 48 47
f 60 61 55
f 55 58 60
f 64 65 68
f 51 45 50
f 55 51 50
f 54 55 50
f 30 25 31
f 41 40 34
f 34 36 41
f 30 36 34
f 44 45 49
f 44 40 45
f 1 6 7
f 7 8 1
f 10 17 16
f 16 17 22
f 22 21 16
f 10 2 11
f 11 17 10
f 11 2 9
f 4 3 15
f 3 14 15
f 39 38 43
f 33 38 39
f 27 24 23
f 29 24 27
f 29 32 28
f 28 24 29
f 63 56 57
f 57 56 52
f 57 52 53
f 63 67 66
f 67 64 69
f 64 68 69
f 26 25 22
f 26 31 25
f 35 36 30
f 30 31 35
f 37 32 33
f 33 39 37
f 62 56 63
f 63 66 62
f 57 3 1
f 30 34 57
f 57 64 63
f 57 27 23
f 49 51 57
f 57 16 21
f 57 55 59
f 21 25 57
f 12 3 57
f 23 18 57
f 1 2 57
f 59 64 57
f 57 51 55
f 42 38 57
f 57 44 49
f 57 18 12
f 57 33 29
f 53 48 57
f 57 25 30
f 57 46 42
f 57 2 10
f 57 38 33
f 48 46 57
f 57 34 40
f 40 44 57
f 10 16 57
f 29 27 57
f 61 60 62
f 19 24 62
f 54 50 62
f 4 15 62
f 62 66 67
f 9 8 62
f 62 20 19
f 62 58 54
f 62 5 4
f 22 17 62
f 62 11 9
f 43 47 62
f 62 28 32
f 62 65 61
f 62 45 41
f 41 36 62
f 6 5 62
f 67 69 62
f 62 7 6
f 13 20 62
f 62 14 13
f 62 39 43
f 62 47 52
f 52 56 62
f 62 60 58
f 62 68 65
f 62 50 45
f 62 26 22
f 8 7 62
f 17 11 62
f 62 15 14
f 36 35 62
f 24 28 62
f 32 37 62
f 62 69 68
f 31 26 62
f 62 35 31
f 62 37 39
