v -0.000028 -0.004545 0.004300
v -0.000028 -0.002799 0.004300
v 0.000107 -0.004541 0.004300
v -0.000028 -0.004568 0.004322
v -0.000028 -0.002499 0.004600
v 0.002680 -0.000796 0.004300
v 0.000146 -0.004838 0.004600
v -0.000028 -0.004845 0.004600
v 0.001891 -0.004129 0.004300
v 0.001986 -0.004414 0.004600
v -0.000028 -0.002499 0.009000
v 0.002356 -0.000796 0.004600
v 0.008204 -0.000796 0.004300
v 0.000146 -0.004838 0.009000
v -0.000028 -0.004845 0.009000
v 0.003567 -0.003390 0.004300
v 0.001986 -0.004414 0.009000
v 0.003713 -0.003652 0.004600
v -0.000028 -0.002799 0.009300
v 0.002680 -0.000796 0.009300
v 0.002356 -0.000796 0.009000
v 0.008819 -0.000796 0.004600
v 0.000107 -0.004541 0.009300
v -0.000028 -0.004545 0.009300
v 0.001891 -0.004129 0.009300
v 0.003713 -0.003652 0.009000
v 0.003567 -0.003390 0.009300
v 0.008204 -0.000796 0.009300
v 0.008819 -0.000796 0.009000
f 16 13 22
f 2 5 6
f 6 5 12
f 19 20 11
f 21 11 20
f 16 10 9
f 18 16 22
f 18 10 16
f 15 23 24
f 17 23 14
f 14 23 15
f 7 8 3
f 10 7 3
f 3 9 10
f 1 3 4
f 4 3 8
f 29 28 27
f 27 26 29
f 17 26 27
f 25 23 17
f 17 27 25
f 5 11 21
f 21 12 5
f 14 7 10
f 14 10 17
f 28 29 22
f 22 13 28
f 28 13 6
f 28 21 20
f 6 12 28
f 12 21 28
f 7 14 8
f 8 14 15
f 6 13 3
f 1 2 3
f 13 16 3
f 3 2 6
f 16 9 3
f 17 10 26
f 10 18 26
f 22 29 26
f 26 18 22
f 4 2 1
f 4 24 19
f 19 11 4
f 5 2 4
f 4 11 5
f 15 24 4
f 4 8 15
f 19 24 25
f 25 20 19
f 25 24 23
f 25 28 20
f 25 27 28
