v 0.040094 -0.020046 0.004700
v 0.040094 -0.020046 0.009100
v 0.040094 -0.019759 0.004413
v 0.042893 -0.022539 0.004400
v 0.042880 -0.022539 0.004414
v 0.042595 -0.022539 0.004700
v 0.040094 -0.019746 0.009400
v 0.042595 -0.022539 0.009100
v 0.042604 -0.022539 0.009110
v 0.042893 -0.022539 0.009400
v 0.040094 -0.019746 0.004400
v 0.044789 -0.022539 0.004400
v 0.040094 -0.017149 0.009400
v 0.044789 -0.022539 0.009400
v 0.040094 -0.017149 0.004400
v 0.044797 -0.022489 0.004400
v 0.044797 -0.022539 0.004409
v 0.042401 -0.018447 0.009400
v 0.040094 -0.016805 0.009100
v 0.045088 -0.022539 0.009100
v 0.045097 -0.022485 0.009100
v 0.044797 -0.022489 0.009400
v 0.040094 -0.017128 0.004418
v 0.042401 -0.018447 0.004400
v 0.044495 -0.020885 0.004400
v 0.045097 -0.022485 0.004700
v 0.045088 -0.022539 0.004700
v 0.043891 -0.019286 0.009100
v 0.042548 -0.018185 0.009100
v 0.043663 -0.019481 0.009400
v 0.040094 -0.016805 0.004700
v 0.044776 -0.020779 0.009100
v 0.044495 -0.020885 0.009400
v 0.042548 -0.018185 0.004700
v 0.043891 -0.019286 0.004700
v 0.043663 -0.019481 0.004400
v 0.044776 -0.020779 0.004700
f 19 13 18
f 7 2 10
f 21 14 20
f 35 37 25
f 37 26 25
f 4 3 11
f 1 3 4
f 19 18 29
f 29 18 28
f 9 2 8
f 9 10 2
f 16 25 26
f 21 32 33
f 33 32 28
f 5 6 1
f 1 4 5
f 26 27 17
f 12 16 17
f 17 16 26
f 31 34 23
f 35 25 36
f 22 14 21
f 21 33 22
f 28 18 30
f 30 33 28
f 15 23 24
f 24 23 34
f 24 34 35
f 35 36 24
f 6 2 1
f 8 2 6
f 32 26 37
f 21 26 32
f 35 28 32
f 32 37 35
f 29 31 19
f 29 34 31
f 29 28 35
f 35 34 29
f 27 26 21
f 21 20 27
f 8 6 17
f 17 9 8
f 17 4 12
f 14 10 17
f 17 20 14
f 6 5 17
f 10 9 17
f 17 27 20
f 17 5 4
f 1 2 23
f 23 13 19
f 7 13 23
f 19 31 23
f 23 2 7
f 23 3 1
f 11 3 23
f 23 15 11
f 30 13 7
f 30 18 13
f 30 10 14
f 7 10 30
f 14 22 30
f 30 22 33
f 12 4 24
f 24 4 11
f 24 16 12
f 25 16 24
f 11 15 24
f 24 36 25
