v 0.001757 -0.000038 0.016413
v 0.001698 0.000462 0.016413
v 0.001722 -0.000242 0.016413
v 0.001750 -0.000038 0.008517
v 0.001634 0.000647 0.016413
v 0.001727 0.000143 0.008517
v 0.001687 0.000462 0.008517
v 0.001649 0.000574 0.008517
v 0.001665 -0.000539 0.016413
v 0.001654 -0.000539 0.008517
v 0.001689 -0.000358 0.008517
v 0.001587 0.000777 0.016413
v 0.001580 0.000773 0.008517
v 0.001564 -0.000815 0.016413
v 0.001556 -0.000809 0.008517
v 0.001406 0.001028 0.016413
v 0.001468 0.000932 0.008517
v 0.001405 0.001023 0.008517
v 0.001452 -0.000964 0.016413
v 0.001489 -0.000900 0.008517
v 0.001257 0.001199 0.016413
v 0.001314 0.001128 0.008517
v 0.001370 -0.001066 0.016413
v 0.001369 -0.001060 0.008517
v 0.001155 0.001314 0.016413
v 0.001154 0.001312 0.008517
v 0.001120 -0.001357 0.016413
v 0.001118 -0.001354 0.008517
v 0.001209 -0.001248 0.008517
v 0.000998 0.001418 0.016413
v 0.000924 0.001459 0.008517
v 0.000776 0.001560 0.016413
v 0.000793 -0.001556 0.016413
v 0.001001 -0.001426 0.008517
v 0.000793 0.001542 0.008517
v 0.000623 0.001626 0.016413
v 0.000292 -0.001732 0.016413
v 0.000793 -0.001551 0.008517
v 0.000568 0.001638 0.008517
v 0.000458 0.001697 0.016413
v 0.000003 -0.001733 0.016413
v -0.000208 -0.001727 0.008517
v 0.000112 -0.001724 0.008517
v 0.000293 -0.001722 0.008517
v 0.000439 0.001693 0.008517
v 0.000232 0.001752 0.016413
v -0.000208 -0.001733 0.016413
v -0.000708 -0.001580 0.008517
v -0.000498 -0.001649 0.016413
v 0.000189 0.001742 0.008517
v -0.000006 0.001759 0.016413
v -0.001069 -0.001379 0.008517
v -0.000708 -0.001581 0.016413
v -0.000922 -0.001463 0.016413
v -0.000190 0.001742 0.008517
v -0.000217 0.001759 0.016413
v -0.001319 -0.001133 0.008517
v -0.001069 -0.001381 0.016413
v -0.000440 0.001712 0.008517
v -0.000356 0.001742 0.016413
v -0.001392 -0.001042 0.008517
v -0.001320 -0.001134 0.016413
v -0.001525 -0.000884 0.016413
v -0.000708 0.001590 0.008517
v -0.000696 0.001603 0.016413
v -0.000547 0.001670 0.016413
v -0.000445 0.001712 0.016413
v -0.001520 -0.000882 0.008517
v -0.001583 -0.000743 0.016413
v -0.000966 0.001432 0.008517
v -0.001112 0.001344 0.016413
v -0.001112 0.001342 0.008517
v -0.001661 -0.000539 0.008517
v -0.001668 -0.000539 0.016413
v -0.001362 0.001084 0.016413
v -0.001203 0.001248 0.008517
v -0.001362 0.001082 0.008517
v -0.001744 -0.000038 0.008517
v -0.001743 -0.000038 0.016413
v -0.001744 -0.000038 0.015709
v -0.001435 0.000982 0.016413
v -0.001531 0.000832 0.008517
v -0.001718 0.000164 0.016413
v -0.001676 0.000462 0.016413
v -0.001672 0.000462 0.008517
v -0.001535 0.000833 0.016413
v -0.001582 0.000698 0.008517
f 86 85 84
f 84 85 78
f 64 65 59
f 1 4 2
f 73 74 78
f 83 84 78
f 3 4 1
f 10 3 9
f 33 28 27
f 44 38 37
f 37 38 33
f 5 13 12
f 31 32 26
f 35 32 31
f 61 63 68
f 79 83 80
f 80 83 78
f 80 74 79
f 78 74 80
f 67 60 59
f 56 55 59
f 59 60 56
f 87 85 86
f 86 82 87
f 75 71 77
f 72 71 65
f 15 9 14
f 15 10 9
f 4 3 11
f 3 10 11
f 23 27 28
f 34 28 33
f 33 38 34
f 42 41 47
f 37 41 42
f 12 13 17
f 17 18 12
f 6 2 4
f 6 7 2
f 2 7 8
f 8 5 2
f 13 5 8
f 39 40 35
f 45 40 39
f 36 32 35
f 35 40 36
f 46 45 50
f 46 40 45
f 46 50 51
f 26 32 30
f 30 25 26
f 12 18 16
f 69 68 63
f 73 68 69
f 74 73 69
f 66 59 65
f 66 67 59
f 81 75 77
f 77 82 81
f 81 82 86
f 77 71 76
f 71 72 76
f 70 65 64
f 70 72 65
f 44 37 43
f 37 42 43
f 49 53 48
f 48 42 49
f 49 42 47
f 62 63 57
f 57 63 61
f 58 57 52
f 62 57 58
f 22 16 18
f 26 25 21
f 21 22 26
f 16 22 21
f 29 23 28
f 29 24 23
f 23 24 19
f 20 15 14
f 14 19 20
f 20 19 24
f 54 52 48
f 54 58 52
f 48 53 54
f 50 55 56
f 51 50 56
f 50 45 20
f 61 68 20
f 20 57 61
f 20 55 50
f 78 85 20
f 20 73 78
f 20 38 44
f 20 17 13
f 64 59 20
f 85 87 20
f 20 70 64
f 26 22 20
f 13 8 20
f 20 31 26
f 59 55 20
f 20 82 77
f 77 76 20
f 4 11 20
f 28 34 20
f 44 43 20
f 20 6 4
f 35 31 20
f 20 68 73
f 20 87 82
f 20 39 35
f 10 15 20
f 20 11 10
f 20 34 38
f 20 42 48
f 48 52 20
f 18 17 20
f 7 6 20
f 20 8 7
f 45 39 20
f 20 76 72
f 72 70 20
f 20 29 28
f 20 43 42
f 52 57 20
f 20 22 18
f 24 29 20
f 86 84 54
f 54 83 79
f 47 41 54
f 51 56 54
f 54 5 12
f 54 3 1
f 1 2 54
f 79 74 54
f 54 63 62
f 74 69 54
f 14 9 54
f 33 27 54
f 54 37 33
f 32 36 54
f 12 16 54
f 84 83 54
f 54 30 32
f 65 71 54
f 9 3 54
f 54 66 65
f 54 21 25
f 2 5 54
f 54 49 47
f 54 46 51
f 60 67 54
f 54 56 60
f 71 75 54
f 27 23 54
f 54 41 37
f 54 81 86
f 54 36 40
f 40 46 54
f 25 30 54
f 62 58 54
f 54 69 63
f 67 66 54
f 75 81 54
f 53 49 54
f 54 19 14
f 16 21 54
f 23 19 54
