v 0.040312 -0.024510 0.016976
v 0.040630 -0.024439 0.016976
v 0.040199 -0.024509 0.016976
v 0.039983 -0.024294 0.008518
v 0.040199 -0.024294 0.008518
v 0.040450 -0.024267 0.008518
v 0.040774 -0.024389 0.016976
v 0.039809 -0.024465 0.016976
v 0.039733 -0.024247 0.008518
v 0.040811 -0.024133 0.008518
v 0.041285 -0.023991 0.016976
v 0.041200 -0.023895 0.008518
v 0.038861 -0.023972 0.016976
v 0.039311 -0.024085 0.008518
v 0.041356 -0.023917 0.016976
v 0.041292 -0.023800 0.008518
v 0.041451 -0.023634 0.008518
v 0.038388 -0.023459 0.016976
v 0.038960 -0.023868 0.008518
v 0.039182 -0.024006 0.008518
v 0.041694 -0.023558 0.016976
v 0.041561 -0.023475 0.008518
v 0.041749 -0.023483 0.016976
v 0.038266 -0.023028 0.016976
v 0.038416 -0.023028 0.008518
v 0.038455 -0.023142 0.008518
v 0.038523 -0.023340 0.008518
v 0.038641 -0.023499 0.008518
v 0.038710 -0.023590 0.008518
v 0.041625 -0.023384 0.008518
v 0.041791 -0.023376 0.016976
v 0.038233 -0.022529 0.016976
v 0.038353 -0.022529 0.008518
v 0.038376 -0.022710 0.008518
v 0.041675 -0.023254 0.008518
v 0.041889 -0.023028 0.016976
v 0.041762 -0.023028 0.008518
v 0.038256 -0.022167 0.016976
v 0.038440 -0.022028 0.008518
v 0.038277 -0.022028 0.016976
v 0.041906 -0.022899 0.016976
v 0.041840 -0.022529 0.008518
v 0.038504 -0.021848 0.008518
v 0.038363 -0.021705 0.016976
v 0.041932 -0.022529 0.016976
v 0.041813 -0.022346 0.008518
v 0.041890 -0.022028 0.016976
v 0.038540 -0.021744 0.008518
v 0.038397 -0.021609 0.016976
v 0.041765 -0.022028 0.008518
v 0.041747 -0.021578 0.016976
v 0.038722 -0.021494 0.008518
v 0.038460 -0.021529 0.016976
v 0.041714 -0.021900 0.008518
v 0.041273 -0.021077 0.016976
v 0.041625 -0.021678 0.008518
v 0.041432 -0.021428 0.008518
v 0.038881 -0.021308 0.008518
v 0.038869 -0.021091 0.016976
v 0.038972 -0.021202 0.008518
v 0.040284 -0.020615 0.016976
v 0.041341 -0.021337 0.008518
v 0.041182 -0.021179 0.008518
v 0.040811 -0.020966 0.008518
v 0.038978 -0.021022 0.016976
v 0.039096 -0.021125 0.008518
v 0.039788 -0.020609 0.016976
v 0.040493 -0.020873 0.008518
v 0.040311 -0.020820 0.008518
v 0.039311 -0.020991 0.008518
v 0.039811 -0.020822 0.008518
f 13 18 19
f 3 4 1
f 3 8 4
f 69 67 61
f 32 33 24
f 14 8 13
f 41 42 45
f 41 36 42
f 42 36 37
f 7 12 11
f 6 2 1
f 7 2 6
f 64 61 55
f 51 57 55
f 13 19 20
f 20 14 13
f 4 8 9
f 8 14 9
f 29 19 18
f 18 24 25
f 38 33 32
f 38 40 33
f 59 60 53
f 71 67 69
f 31 37 36
f 1 4 5
f 5 6 1
f 10 12 7
f 7 6 10
f 63 64 55
f 69 61 68
f 61 64 68
f 18 27 28
f 28 29 18
f 26 27 18
f 18 25 26
f 34 24 33
f 34 25 24
f 48 44 49
f 60 59 65
f 67 71 70
f 70 65 67
f 21 15 17
f 17 15 11
f 23 30 31
f 21 17 23
f 37 31 35
f 31 30 35
f 55 57 62
f 62 63 55
f 57 51 56
f 47 50 51
f 45 42 47
f 52 49 53
f 52 48 49
f 40 44 39
f 33 40 39
f 60 65 66
f 65 70 66
f 16 11 12
f 16 17 11
f 30 23 22
f 22 23 17
f 51 50 54
f 54 56 51
f 46 47 42
f 50 47 46
f 53 60 58
f 58 52 53
f 44 48 43
f 43 39 44
f 67 65 47
f 32 24 47
f 47 61 67
f 21 23 47
f 47 3 1
f 13 8 47
f 47 41 45
f 1 2 47
f 47 18 13
f 53 49 47
f 47 44 40
f 8 3 47
f 47 2 7
f 55 61 47
f 47 24 18
f 47 38 32
f 36 41 47
f 7 11 47
f 47 51 55
f 40 38 47
f 47 15 21
f 47 59 53
f 47 31 36
f 11 15 47
f 49 44 47
f 47 65 59
f 47 23 31
f 19 29 43
f 33 39 43
f 42 37 43
f 43 20 19
f 27 26 43
f 69 68 43
f 37 35 43
f 4 9 43
f 43 34 33
f 43 71 69
f 43 5 4
f 12 10 43
f 14 20 43
f 43 9 14
f 43 54 50
f 43 28 27
f 43 46 42
f 60 66 43
f 6 5 43
f 43 10 6
f 64 63 43
f 43 68 64
f 43 62 57
f 29 28 43
f 43 26 25
f 25 34 43
f 57 56 43
f 43 70 71
f 43 16 12
f 43 35 30
f 63 62 43
f 30 22 43
f 48 52 43
f 43 58 60
f 43 66 70
f 17 16 43
f 43 22 17
f 56 54 43
f 50 46 43
f 52 58 43
