v -0.019971 0.001079 -0.001300
v -0.019971 0.001079 0.004287
v -0.019553 0.002868 -0.001300
v -0.019278 0.002748 -0.001599
v -0.019671 0.001066 -0.001599
v -0.019428 -0.000643 -0.001599
v -0.019713 -0.000739 -0.001300
v -0.019853 0.000247 0.004287
v -0.019553 0.002868 0.004287
v -0.018991 0.003692 0.004287
v -0.018517 0.004386 -0.001300
v -0.018305 0.004175 -0.001599
v -0.017443 0.002070 -0.001609
v -0.017724 0.000785 -0.001609
v -0.017722 0.000775 -0.001609
v -0.017375 -0.000485 -0.001609
v -0.019077 -0.001437 -0.001599
v -0.019339 -0.001582 -0.001300
v -0.019713 -0.000739 0.004287
v -0.018517 0.004386 0.004287
v -0.017003 0.005428 -0.001300
v -0.016597 0.003078 -0.001609
v -0.016604 0.003071 -0.001609
v -0.016881 0.005153 -0.001599
v -0.016476 -0.001445 -0.001609
v -0.018585 -0.002151 -0.001599
v -0.018816 -0.002343 -0.001300
v -0.019055 -0.001995 0.004287
v -0.019541 -0.001125 0.004287
v -0.017003 0.005428 0.004287
v -0.016033 0.005657 0.004287
v -0.015215 0.005851 -0.001300
v -0.015200 0.005552 -0.001599
v -0.015389 0.003574 -0.001609
v -0.015379 0.003578 -0.001609
v -0.016467 -0.001449 -0.001609
v -0.017254 -0.003252 -0.001599
v -0.017400 -0.003514 -0.001300
v -0.018168 -0.002879 0.004287
v -0.018816 -0.002343 0.004287
v -0.015215 0.005851 0.004287
v -0.014718 0.005849 0.004287
v -0.014622 0.005836 0.004287
v -0.013396 0.005601 -0.001300
v -0.013491 0.005316 -0.001599
v -0.014070 0.003454 -0.001609
v -0.014080 0.003455 -0.001609
v -0.015233 -0.001879 -0.001609
v -0.015616 -0.003798 -0.001599
v -0.017400 -0.003514 0.004287
v -0.015657 -0.004095 -0.001300
v -0.016602 -0.003780 0.004287
v -0.013396 0.005601 0.004287
v -0.013005 0.005452 0.004287
v -0.011789 0.004710 -0.001300
v -0.011980 0.004479 -0.001599
v -0.012967 0.002735 -0.001609
v -0.015223 -0.001878 -0.001609
v -0.013892 -0.003715 -0.001599
v -0.013823 -0.004007 -0.001300
v -0.015282 -0.004132 0.004287
v -0.015657 -0.004095 0.004287
v -0.011789 0.004710 0.004287
v -0.010613 0.003298 -0.001300
v -0.010874 0.003152 -0.001599
v -0.012576 0.002200 -0.001609
v -0.013933 -0.001686 -0.001609
v -0.012313 -0.003014 -0.001599
v -0.012143 -0.003261 -0.001300
v -0.013542 -0.003932 0.004287
v -0.013823 -0.004007 0.004287
v -0.010613 0.003298 0.004287
v -0.010025 0.001557 -0.001300
v -0.010323 0.001515 -0.001599
v -0.012324 0.001586 -0.001609
v -0.013924 -0.001680 -0.001609
v -0.012869 -0.000910 -0.001609
v -0.011094 -0.001790 -0.001599
v -0.010845 -0.001960 -0.001300
v -0.012143 -0.003261 0.004287
v -0.012147 -0.003263 0.004287
v -0.010025 0.001557 0.004287
v -0.010106 -0.000278 -0.001300
v -0.010399 -0.000209 -0.001599
v -0.012289 0.000272 -0.001609
v -0.012289 0.000281 -0.001609
v -0.010845 -0.001960 0.004287
v -0.010106 -0.000278 0.004287
f 8 2 1
f 51 60 61
f 7 18 19
f 19 8 7
f 7 8 1
f 40 28 27
f 27 28 18
f 62 51 61
f 60 69 70
f 19 18 29
f 18 28 29
f 39 27 38
f 38 50 39
f 40 27 39
f 38 51 52
f 52 50 38
f 51 62 52
f 43 44 32
f 55 44 54
f 54 63 55
f 61 60 71
f 60 70 71
f 81 69 80
f 81 70 69
f 10 3 9
f 20 11 10
f 11 3 10
f 32 41 42
f 42 43 32
f 44 43 53
f 53 54 44
f 32 21 31
f 21 30 31
f 31 41 32
f 60 51 49
f 49 51 38
f 1 3 4
f 68 69 60
f 79 69 68
f 37 49 38
f 6 7 1
f 12 3 11
f 12 4 3
f 11 21 12
f 60 49 59
f 59 68 60
f 84 83 79
f 73 83 84
f 1 4 5
f 5 6 1
f 14 6 5
f 18 7 17
f 7 6 17
f 17 27 18
f 24 12 21
f 4 12 13
f 14 5 13
f 13 5 4
f 68 59 67
f 79 68 78
f 78 84 79
f 65 64 73
f 27 17 26
f 38 27 26
f 26 37 38
f 16 17 6
f 16 26 17
f 48 59 49
f 49 37 48
f 84 78 85
f 73 84 74
f 74 65 73
f 84 85 74
f 55 64 56
f 64 65 56
f 56 44 55
f 15 6 14
f 15 16 6
f 12 24 22
f 24 34 22
f 58 67 59
f 59 48 58
f 37 26 25
f 26 16 25
f 77 85 78
f 77 78 68
f 65 74 75
f 32 44 33
f 33 21 32
f 33 24 21
f 23 13 12
f 12 22 23
f 36 48 37
f 37 25 36
f 68 67 76
f 76 77 68
f 86 74 85
f 86 75 74
f 57 56 65
f 44 56 45
f 45 33 44
f 65 75 66
f 66 57 65
f 33 45 46
f 56 57 46
f 46 45 56
f 35 34 24
f 24 33 35
f 33 46 47
f 47 35 33
f 88 83 73
f 73 82 88
f 79 83 88
f 88 87 79
f 87 80 69
f 79 87 69
f 2 9 3
f 1 2 3
f 73 64 72
f 72 82 73
f 72 64 55
f 55 63 72
f 30 21 11
f 30 11 20
f 31 9 2
f 31 62 61
f 2 8 31
f 31 88 82
f 31 28 40
f 20 10 31
f 31 8 19
f 19 29 31
f 63 54 31
f 31 80 87
f 87 88 31
f 31 30 20
f 40 39 31
f 31 81 80
f 50 52 31
f 61 71 31
f 31 29 28
f 31 39 50
f 31 52 62
f 82 72 31
f 31 72 63
f 31 42 41
f 31 53 43
f 31 71 70
f 70 81 31
f 31 10 9
f 43 42 31
f 54 53 31
f 47 25 16
f 14 13 47
f 47 15 14
f 47 86 85
f 67 58 47
f 48 36 47
f 16 15 47
f 47 22 34
f 47 58 48
f 13 23 47
f 85 77 47
f 47 76 67
f 47 23 22
f 47 36 25
f 77 76 47
f 75 86 47
f 47 66 75
f 57 66 47
f 47 46 57
f 34 35 47
