v -0.000013 0.004999 0.009100
v -0.000013 0.004999 0.004700
v -0.000013 0.004693 0.009400
v 0.001430 0.004374 0.009400
v 0.001523 0.004659 0.009100
v -0.000013 0.004693 0.004400
v 0.001523 0.004659 0.004700
v 0.001430 0.004374 0.004400
v -0.000013 0.002797 0.009400
v 0.003171 0.003609 0.009400
v 0.003318 0.003871 0.009100
v -0.000013 0.002797 0.004400
v 0.003318 0.003871 0.004700
v 0.003171 0.003609 0.004400
v -0.000013 0.002498 0.009100
v 0.002422 -0.000621 0.009100
v 0.002722 -0.000621 0.009400
v 0.010695 -0.000621 0.009400
v 0.011307 -0.000621 0.009100
v 0.002422 -0.000621 0.004700
v -0.000013 0.002789 0.004409
v 0.002722 -0.000621 0.004400
v 0.011307 -0.000621 0.004700
v 0.010695 -0.000621 0.004400
v -0.000013 0.002498 0.004700
f 16 17 9
f 19 11 18
f 8 7 13
f 6 2 8
f 8 2 7
f 22 20 12
f 16 9 15
f 10 18 11
f 13 23 24
f 20 25 21
f 21 12 20
f 11 5 4
f 4 10 11
f 1 3 4
f 4 5 1
f 14 8 13
f 13 24 14
f 23 11 19
f 13 11 23
f 5 2 1
f 7 2 5
f 5 11 13
f 13 7 5
f 15 20 16
f 15 25 20
f 16 20 24
f 24 20 22
f 24 23 19
f 24 17 16
f 19 18 24
f 24 18 17
f 21 3 1
f 21 9 3
f 1 2 21
f 6 12 21
f 21 2 6
f 25 15 21
f 21 15 9
f 3 9 4
f 17 18 4
f 4 9 17
f 18 10 4
f 14 12 6
f 6 8 14
f 22 12 14
f 14 24 22
