v -0.014948 -0.004152 0.004617
v -0.014948 -0.004152 0.009000
v -0.014948 -0.001627 0.004617
v -0.002621 -0.004858 0.004617
v -0.014948 -0.003851 0.009300
v -0.002621 -0.004858 0.009000
v -0.014948 -0.001627 0.009300
v -0.012781 -0.000260 0.004617
v -0.002621 -0.000260 0.004617
v -0.002621 -0.004557 0.009300
v -0.012781 -0.000260 0.009300
v -0.002621 -0.000260 0.009155
v -0.002621 -0.000926 0.009300
v -0.002766 -0.000260 0.009300
v -0.002628 -0.000260 0.009163
v -0.002723 -0.000260 0.009258
f 15 13 12
f 14 13 16
f 13 15 16
f 1 3 9
f 9 4 1
f 9 3 8
f 1 4 6
f 6 2 1
f 7 3 1
f 1 2 7
f 7 2 5
f 8 3 7
f 7 11 8
f 5 2 10
f 2 6 10
f 14 11 13
f 13 7 5
f 11 7 13
f 5 10 13
f 4 9 13
f 13 6 4
f 9 12 13
f 13 10 6
f 16 9 8
f 8 11 16
f 16 11 14
f 16 12 9
f 16 15 12
