v 0.000889 0.016645 -0.001880
v 0.000889 0.016645 -0.004425
v -0.000297 0.016633 -0.001526
v 0.000889 0.016644 -0.001526
v 0.001244 0.016633 -0.001526
v -0.000297 0.016633 -0.004425
v 0.001244 0.016633 -0.004425
v 0.012034 0.011497 -0.005145
v 0.009981 0.011497 -0.005145
v 0.004014 0.011496 -0.005145
v -0.000297 0.016519 -0.001170
v 0.000889 0.016530 -0.001170
v 0.001599 0.016592 -0.001526
v 0.001306 0.016626 -0.004425
v 0.001244 0.016519 -0.001170
v 0.003918 0.011324 -0.005145
v 0.003831 0.011149 -0.005145
v 0.003703 0.010819 -0.005145
v 0.003599 0.010465 -0.005145
v 0.003550 0.010279 -0.005145
v 0.003523 0.010031 -0.005145
v 0.003499 0.009754 -0.005145
v -0.000297 0.011979 -0.004425
v 0.008796 0.014150 -0.004425
v 0.009046 0.014008 -0.004425
v 0.009274 0.013870 -0.004425
v 0.009452 0.013733 -0.004425
v 0.010873 0.012609 -0.004425
v 0.011235 0.012322 -0.004425
v 0.011441 0.012143 -0.004425
v 0.011586 0.011993 -0.004425
v 0.011618 0.011960 -0.004425
v 0.011777 0.011783 -0.001526
v 0.012291 0.011211 -0.005145
v 0.001599 0.016592 -0.004425
v 0.001661 0.016583 -0.004425
v 0.003475 0.016290 -0.004425
v 0.003727 0.016248 -0.004425
v 0.004081 0.016173 -0.004425
v 0.004437 0.016065 -0.004425
v 0.006207 0.015456 -0.004425
v 0.006563 0.015334 -0.004425
v 0.006758 0.015262 -0.004425
v 0.007627 0.014788 -0.004425
v -0.000297 0.016362 -0.000953
v -0.000174 0.016363 -0.000952
v 0.000889 0.016367 -0.000948
v 0.001244 0.016362 -0.000954
v 0.000535 0.016367 -0.000950
v 0.001599 0.016477 -0.001170
v 0.003019 0.016341 -0.001304
v 0.003228 0.016323 -0.001336
v 0.003242 0.016327 -0.001526
v 0.001599 0.016341 -0.000972
v 0.003499 0.009683 -0.005145
v -0.000297 0.006376 -0.004190
v 0.003502 0.009403 -0.005145
v 0.003534 0.009103 -0.005145
v 0.003552 0.008961 -0.005145
v 0.003556 0.008927 -0.005145
v 0.008796 0.014150 -0.001526
v 0.009046 0.014008 -0.001526
v 0.009274 0.013870 -0.001526
v 0.009452 0.013733 -0.001526
v 0.009675 0.013557 -0.001526
v 0.011058 0.012462 -0.001526
v 0.011235 0.012322 -0.001526
v 0.011441 0.012143 -0.001526
v 0.011618 0.011960 -0.001526
v 0.012780 0.010653 -0.001333
v 0.013122 0.010283 -0.001526
v 0.012291 0.011211 -0.004425
v 0.013088 0.010321 -0.005145
v 0.003727 0.016248 -0.001526
v 0.004081 0.016173 -0.001526
v 0.004437 0.016065 -0.001526
v 0.006207 0.015456 -0.001526
v 0.006563 0.015334 -0.001526
v 0.006758 0.015262 -0.001526
v 0.007627 0.014788 -0.001526
v -0.000297 0.016287 -0.000920
v 0.001244 0.016140 -0.000859
v -0.000174 0.016140 -0.000858
v 0.000889 0.016140 -0.000854
v 0.002307 0.016105 -0.000901
v 0.002663 0.016077 -0.000909
v 0.003019 0.016049 -0.000923
v 0.001810 0.016323 -0.000988
v 0.002307 0.016283 -0.001037
v 0.002663 0.016256 -0.001078
v 0.002307 0.016398 -0.001213
v 0.002663 0.016369 -0.001255
v 0.003727 0.016134 -0.001170
v 0.004065 0.016053 -0.001153
v 0.004437 0.016015 -0.001262
v 0.003373 0.016020 -0.000944
v 0.003727 0.015991 -0.000968
v -0.000297 0.006195 -0.004108
v 0.003567 0.008879 -0.005145
v 0.003615 0.008693 -0.005145
v 0.003727 0.008339 -0.005145
v 0.003751 0.008279 -0.005145
v 0.003845 0.008049 -0.005145
v 0.003939 0.007870 -0.005145
v 0.004084 0.007631 -0.005145
v 0.004228 0.007413 -0.005145
v 0.004344 0.007271 -0.005145
v 0.004552 0.007032 -0.005145
v 0.004746 0.006856 -0.005145
v 0.004922 0.006709 -0.005145
v 0.005145 0.006552 -0.005145
v 0.005367 0.006410 -0.005145
v 0.005831 0.002458 -0.004183
v 0.005765 0.002458 -0.004168
v 0.009257 0.013858 -0.001307
v 0.006751 0.015261 -0.001336
v 0.010651 0.012776 -0.001336
v 0.011410 0.012116 -0.001270
v 0.011037 0.012447 -0.001300
v 0.011755 0.011757 -0.001284
v 0.012096 0.011389 -0.001299
v 0.012339 0.010908 -0.001079
v 0.013047 0.010199 -0.001170
v 0.013195 0.010021 -0.001170
v 0.013528 0.009654 -0.001274
v 0.013264 0.010104 -0.001526
v 0.013264 0.010106 -0.004425
v 0.013122 0.010283 -0.005145
v 0.004650 0.015977 -0.001323
v 0.005705 0.015619 -0.001328
v -0.000297 0.016140 -0.000859
v 0.002307 0.015785 -0.000806
v 0.002663 0.015785 -0.000814
v 0.003019 0.015785 -0.000829
v -0.000297 0.016020 -0.000840
v -0.000297 0.015785 -0.000805
v 0.001953 0.015785 -0.000805
v 0.003373 0.015785 -0.000849
v 0.003727 0.015785 -0.000873
v 0.004065 0.015805 -0.000914
v 0.003934 0.015973 -0.000985
v 0.004172 0.015938 -0.001024
v 0.004437 0.015895 -0.001085
v 0.005499 0.015655 -0.001270
v 0.004437 0.015717 -0.000915
v -0.000297 0.005941 -0.003930
v 0.005545 0.006321 -0.005145
v 0.005930 0.002458 -0.004190
v 0.005855 0.006185 -0.005145
v 0.006180 0.006073 -0.005145
v 0.010822 0.004683 -0.005145
v 0.005689 0.002458 -0.004121
v 0.009018 0.013907 -0.001182
v 0.009115 0.013765 -0.001071
v 0.009389 0.013648 -0.001173
v 0.009643 0.013530 -0.001276
v 0.008582 0.014227 -0.001285
v 0.006563 0.015292 -0.001281
v 0.006563 0.015170 -0.001102
v 0.007046 0.014872 -0.001021
v 0.007204 0.014959 -0.001258
v 0.007892 0.014594 -0.001271
v 0.011169 0.012233 -0.001167
v 0.011302 0.012012 -0.001034
v 0.011531 0.011885 -0.001159
v 0.010916 0.012351 -0.001064
v 0.011653 0.011644 -0.001047
v 0.013128 0.009935 -0.000992
v 0.013371 0.009765 -0.001162
v 0.013839 0.009234 -0.001340
v 0.013441 0.009871 -0.001526
v 0.013439 0.009515 -0.001037
v 0.014224 0.008572 -0.001291
v 0.013264 0.010106 -0.005145
v 0.007273 0.011830 -0.000427
v 0.007593 0.011796 -0.000427
v 0.004081 0.015431 -0.000806
v 0.004437 0.015431 -0.000821
v -0.000297 0.006210 -0.000805
v 0.004968 0.009754 -0.000427
v 0.005032 0.010089 -0.000427
v 0.005046 0.010136 -0.000427
v 0.005159 0.010465 -0.000427
v 0.005271 0.010711 -0.000427
v 0.005402 0.010887 -0.000427
v 0.005418 0.010908 -0.000427
v 0.005579 0.011099 -0.000427
v 0.005745 0.011262 -0.000427
v 0.005762 0.011279 -0.000427
v 0.005939 0.011421 -0.000427
v 0.006207 0.011580 -0.000427
v 0.006408 0.011679 -0.000427
v 0.006434 0.011690 -0.000427
v 0.006611 0.011755 -0.000427
v 0.006892 0.011817 -0.000427
v 0.006919 0.011821 -0.000427
v 0.004791 0.015655 -0.000954
v 0.005000 0.015620 -0.000983
v 0.005236 0.015580 -0.001028
v 0.006290 0.015222 -0.001033
v 0.004791 0.015431 -0.000860
v 0.005853 0.015077 -0.000864
v 0.005499 0.015356 -0.000918
v -0.000297 0.005816 -0.003652
v 0.005504 0.002458 -0.003999
v 0.005403 0.002458 -0.003922
v 0.005324 0.002458 -0.003843
v 0.005316 0.002458 -0.003833
v 0.006061 0.002458 -0.004193
v 0.015996 0.004683 -0.005145
v 0.006209 0.002458 -0.004195
v 0.008688 0.014080 -0.001165
v 0.008879 0.013840 -0.000988
v 0.009286 0.013529 -0.000960
v 0.009522 0.013434 -0.001039
v 0.008424 0.014140 -0.001050
v 0.006810 0.014938 -0.000962
v 0.007501 0.014572 -0.000970
v 0.011417 0.011776 -0.000953
v 0.010294 0.012773 -0.000991
v 0.010680 0.012444 -0.000972
v 0.011064 0.012115 -0.000956
v 0.009908 0.013104 -0.001012
v 0.012102 0.011039 -0.000967
v 0.012785 0.010303 -0.000983
v 0.012922 0.010076 -0.000948
v 0.013186 0.009756 -0.000953
v 0.013514 0.009279 -0.000967
v 0.013825 0.008856 -0.001003
v 0.013731 0.009415 -0.001526
v 0.014907 0.007467 -0.001334
v 0.014643 0.007964 -0.001526
v 0.013461 0.009840 -0.004425
v 0.013441 0.009871 -0.005145
v 0.014136 0.008431 -0.001054
v 0.014610 0.007911 -0.001253
v 0.007627 0.011789 -0.000427
v 0.007839 0.011732 -0.000427
v 0.005499 0.015077 -0.000823
v 0.005188 0.008693 -0.000427
v 0.005057 0.009049 -0.000427
v 0.004984 0.009375 -0.000427
v 0.004968 0.009664 -0.000427
v -0.000297 0.006103 -0.000837
v 0.005485 0.002458 -0.000864
v 0.005853 0.002458 -0.000805
v 0.006003 0.007755 -0.000427
v 0.005984 0.007767 -0.000427
v 0.005966 0.007780 -0.000427
v 0.005805 0.007914 -0.000427
v 0.005627 0.008075 -0.000427
v 0.005608 0.008093 -0.000427
v 0.005430 0.008300 -0.000427
v 0.005303 0.008461 -0.000427
v 0.005290 0.008479 -0.000427
v 0.005281 0.008499 -0.000427
v 0.005853 0.015297 -0.000958
v 0.006054 0.015262 -0.000986
v 0.006563 0.014722 -0.000831
v 0.006563 0.014992 -0.000926
v -0.000297 0.005781 -0.003298
v 0.005277 0.002458 -0.003652
v 0.015948 0.004898 -0.005145
v 0.015998 0.004683 -0.004425
v 0.007451 0.002458 -0.003652
v 0.007321 0.002458 -0.004011
v 0.007228 0.002458 -0.004104
v 0.007139 0.002458 -0.004189
v 0.007073 0.002458 -0.004191
v 0.006767 0.002458 -0.004195
v 0.009018 0.013651 -0.000932
v 0.008688 0.013894 -0.000952
v 0.009404 0.013311 -0.000906
v 0.009672 0.013198 -0.000946
v 0.007273 0.014633 -0.000931
v 0.011533 0.011528 -0.000911
v 0.012228 0.010801 -0.000928
v 0.011181 0.011890 -0.000909
v 0.010807 0.012235 -0.000920
v 0.012948 0.009756 -0.000859
v 0.013313 0.009400 -0.000908
v 0.013587 0.009049 -0.000926
v 0.013898 0.008618 -0.000947
v 0.014211 0.008195 -0.000976
v 0.014521 0.007768 -0.001017
v 0.013731 0.009415 -0.004425
v 0.014824 0.007275 -0.001094
v 0.014946 0.007275 -0.001271
v 0.015289 0.006473 -0.001287
v 0.015624 0.005713 -0.001320
v 0.015726 0.005501 -0.001526
v 0.015141 0.006920 -0.001526
v 0.014994 0.007275 -0.001526
v 0.014910 0.007474 -0.001526
v 0.014820 0.007652 -0.001526
v 0.014718 0.007618 -0.001176
v 0.014822 0.007652 -0.004425
v 0.014643 0.007964 -0.004425
v 0.013753 0.009378 -0.005145
v 0.007853 0.011725 -0.000427
v 0.006207 0.014722 -0.000808
v -0.000297 0.005909 -0.000900
v 0.005276 0.002458 -0.000948
v 0.006209 0.002458 -0.000806
v 0.007273 0.007382 -0.000427
v 0.006920 0.007406 -0.000427
v 0.006911 0.007407 -0.000427
v 0.006758 0.007446 -0.000427
v 0.006577 0.007507 -0.000427
v 0.006207 0.007652 -0.000427
v 0.008370 0.011455 -0.000427
v 0.008335 0.013657 -0.000815
v 0.007273 0.014368 -0.000837
v 0.006925 0.014741 -0.000901
v -0.000297 0.005777 -0.001526
v 0.005271 0.002458 -0.003596
v 0.005242 0.002458 -0.003298
v 0.005226 0.002458 -0.001170
v 0.015865 0.005147 -0.001526
v 0.015948 0.004898 -0.001526
v 0.015865 0.005145 -0.005145
v 0.015998 0.004683 -0.001526
v 0.007424 0.002458 -0.001879
v 0.008691 0.013657 -0.000858
v 0.008317 0.014018 -0.000918
v 0.010112 0.012593 -0.000854
v 0.009046 0.013302 -0.000827
v 0.011176 0.011529 -0.000822
v 0.011530 0.011174 -0.000827
v 0.011884 0.010819 -0.000832
v 0.012240 0.010465 -0.000838
v 0.012592 0.010110 -0.000844
v 0.010466 0.012237 -0.000836
v 0.010822 0.011883 -0.000824
v 0.012948 0.009403 -0.000813
v 0.013302 0.009049 -0.000832
v 0.014013 0.007985 -0.000842
v 0.014390 0.007642 -0.000898
v 0.014277 0.007985 -0.000936
v 0.014588 0.007532 -0.000957
v 0.014407 0.008339 -0.005145
v 0.014875 0.007035 -0.001022
v 0.015208 0.006276 -0.001051
v 0.015667 0.005501 -0.001253
v 0.015980 0.004685 -0.001317
v 0.015726 0.005501 -0.005145
v 0.015710 0.005541 -0.004425
v 0.014994 0.007275 -0.004425
v 0.014910 0.007474 -0.005145
v 0.014822 0.007652 -0.005145
v 0.014643 0.007963 -0.005145
v -0.000297 0.005859 -0.000992
v -0.000297 0.005777 -0.001170
v 0.007520 0.007421 -0.000427
v 0.007290 0.007384 -0.000427
v 0.006571 0.002458 -0.000864
v 0.015431 0.004683 -0.000836
v 0.015077 0.004683 -0.000805
v 0.008526 0.011367 -0.000427
v 0.007981 0.014013 -0.000847
v 0.008688 0.013657 -0.000857
v 0.015980 0.004683 -0.001316
v 0.007378 0.002458 -0.001525
v 0.008892 0.011019 -0.000427
v 0.013658 0.008339 -0.000818
v 0.014367 0.007275 -0.000826
v 0.014647 0.007275 -0.000920
v 0.014923 0.006798 -0.000973
v 0.015256 0.006039 -0.000991
v 0.015589 0.005280 -0.001013
v 0.015545 0.005501 -0.001076
v 0.015730 0.005156 -0.001147
v 0.015867 0.004799 -0.001187
v 0.015875 0.004683 -0.001156
v 0.015111 0.006992 -0.005145
v 0.014994 0.007274 -0.005145
v 0.007729 0.007491 -0.000427
v 0.006818 0.002458 -0.000956
v 0.015685 0.004683 -0.000931
v 0.015431 0.004791 -0.000844
v 0.015077 0.005501 -0.000822
v 0.015077 0.005147 -0.000805
v 0.009381 0.009756 -0.000427
v 0.009375 0.009403 -0.000427
v 0.009319 0.009049 -0.000427
v 0.009314 0.009029 -0.000427
v 0.009252 0.008834 -0.000427
v 0.009150 0.008657 -0.000427
v 0.008955 0.008328 -0.000427
v 0.008879 0.008227 -0.000427
v 0.008807 0.008142 -0.000427
v 0.008705 0.008041 -0.000427
v 0.008688 0.008025 -0.000427
v 0.008471 0.007838 -0.000427
v 0.008292 0.007730 -0.000427
v 0.007981 0.007580 -0.000427
v 0.007201 0.002458 -0.001247
v 0.009011 0.010819 -0.000427
v 0.014013 0.007630 -0.000808
v 0.009027 0.010790 -0.000427
v 0.009255 0.010368 -0.000427
v 0.014367 0.006920 -0.000806
v 0.014722 0.006210 -0.000813
v 0.014722 0.006566 -0.000844
v 0.015368 0.005501 -0.000916
v 0.014970 0.006566 -0.000938
v 0.015639 0.005044 -0.000967
v 0.015674 0.004791 -0.000938
v 0.006992 0.002458 -0.001084
v 0.015455 0.005156 -0.000903
v 0.015077 0.005856 -0.000867
v 0.009263 0.010351 -0.000427
v 0.009337 0.010110 -0.000427
v 0.009343 0.010076 -0.000427
f 151 148 113
f 150 151 113
f 264 265 210
f 11 45 46
f 113 56 112
f 266 210 265
f 27 8 26
f 322 265 264
f 137 136 175
f 146 208 204
f 49 46 47
f 81 46 45
f 47 46 81
f 149 150 113
f 111 56 110
f 111 112 56
f 56 23 60
f 8 9 2
f 2 7 8
f 2 9 10
f 2 10 6
f 8 39 40
f 268 210 267
f 210 266 267
f 269 210 268
f 269 270 210
f 132 137 175
f 177 178 133
f 204 208 262
f 317 318 261
f 204 262 261
f 113 112 147
f 147 149 113
f 17 18 6
f 38 39 8
f 8 37 38
f 26 8 25
f 8 24 25
f 8 43 44
f 44 24 8
f 42 43 8
f 151 211 209
f 148 151 209
f 264 210 263
f 82 132 133
f 178 177 238
f 133 178 134
f 134 82 133
f 178 201 145
f 145 139 178
f 146 98 114
f 114 98 56
f 114 56 113
f 146 205 206
f 357 304 356
f 358 304 357
f 357 382 358
f 265 322 323
f 318 353 315
f 315 261 318
f 317 261 316
f 316 261 262
f 179 245 246
f 136 183 184
f 6 10 16
f 16 17 6
f 21 22 6
f 6 20 21
f 6 18 19
f 19 20 6
f 55 57 23
f 23 57 58
f 36 37 8
f 8 35 36
f 36 53 37
f 8 40 41
f 41 42 8
f 298 351 341
f 376 349 348
f 350 351 298
f 47 82 48
f 48 82 85
f 84 82 47
f 136 137 84
f 137 132 84
f 132 82 84
f 176 177 133
f 176 132 175
f 133 132 176
f 161 162 116
f 364 328 359
f 259 238 300
f 178 139 138
f 138 134 178
f 139 145 140
f 87 139 140
f 140 96 87
f 97 96 140
f 140 145 97
f 291 346 347
f 8 29 30
f 142 94 141
f 97 145 141
f 141 94 93
f 141 145 197
f 37 53 74
f 74 38 37
f 152 205 146
f 146 114 152
f 208 146 207
f 146 206 207
f 304 358 354
f 390 358 389
f 302 245 244
f 244 245 179
f 302 352 303
f 303 245 302
f 303 352 353
f 303 353 318
f 242 179 241
f 179 252 253
f 179 246 247
f 175 136 196
f 136 195 196
f 136 193 194
f 194 195 136
f 189 190 136
f 136 190 191
f 136 180 181
f 243 179 242
f 186 187 136
f 59 60 23
f 23 58 59
f 110 56 109
f 56 108 109
f 56 105 106
f 56 102 103
f 53 36 13
f 13 36 35
f 4 5 1
f 3 4 1
f 15 13 5
f 347 346 375
f 375 348 347
f 375 376 348
f 237 238 177
f 177 176 237
f 334 359 328
f 63 62 115
f 239 201 178
f 178 238 239
f 311 259 300
f 86 139 87
f 86 138 139
f 87 48 86
f 86 48 85
f 134 138 86
f 85 82 86
f 82 134 86
f 381 382 357
f 409 397 379
f 379 378 409
f 356 378 379
f 357 356 379
f 374 379 397
f 319 321 346
f 346 291 319
f 263 321 319
f 116 77 76
f 76 130 116
f 78 77 116
f 75 74 52
f 93 94 52
f 52 74 53
f 53 13 52
f 305 246 304
f 306 246 305
f 394 358 393
f 358 392 393
f 391 358 390
f 391 392 358
f 388 358 387
f 388 389 358
f 358 384 385
f 383 382 414
f 383 358 382
f 383 384 358
f 179 256 240
f 240 241 179
f 179 253 254
f 136 187 188
f 188 189 136
f 192 193 136
f 136 191 192
f 182 183 136
f 136 181 182
f 136 184 185
f 185 186 136
f 107 108 56
f 56 106 107
f 56 60 99
f 99 100 56
f 101 102 56
f 56 100 101
f 104 105 56
f 56 103 104
f 7 5 14
f 5 13 14
f 14 13 35
f 8 7 14
f 14 35 8
f 12 49 47
f 47 48 12
f 48 15 12
f 11 46 12
f 46 49 12
f 90 141 93
f 73 71 128
f 69 68 118
f 72 34 8
f 8 33 72
f 72 33 71
f 72 73 34
f 71 73 72
f 71 33 70
f 33 69 70
f 286 299 234
f 286 341 299
f 298 341 286
f 136 84 135
f 27 65 28
f 8 27 28
f 28 29 8
f 64 65 27
f 63 115 64
f 29 28 67
f 118 68 67
f 155 115 154
f 154 115 153
f 238 259 301
f 301 239 238
f 259 239 301
f 202 145 201
f 201 239 202
f 202 239 259
f 259 260 202
f 160 161 116
f 162 161 160
f 312 311 359
f 312 359 327
f 259 311 312
f 312 313 259
f 414 382 413
f 366 337 336
f 366 401 402
f 403 402 382
f 382 381 403
f 403 366 402
f 381 366 403
f 408 374 407
f 379 374 408
f 290 319 291
f 263 319 320
f 116 130 158
f 158 130 144
f 144 143 200
f 200 158 144
f 144 130 95
f 95 143 144
f 95 94 142
f 142 143 95
f 95 52 94
f 75 52 95
f 79 78 116
f 116 80 79
f 395 358 394
f 395 396 358
f 377 354 358
f 358 396 377
f 304 354 355
f 355 305 304
f 387 358 386
f 358 385 386
f 255 256 179
f 179 254 255
f 308 309 246
f 310 247 246
f 246 309 310
f 251 252 179
f 179 250 251
f 249 250 179
f 54 15 48
f 54 96 97
f 87 96 54
f 54 48 87
f 32 33 8
f 32 69 33
f 127 71 126
f 126 171 127
f 71 70 126
f 125 126 70
f 171 126 125
f 234 171 233
f 233 171 230
f 230 286 233
f 233 286 234
f 280 335 336
f 336 337 280
f 226 280 227
f 120 69 118
f 120 70 69
f 131 135 83
f 83 135 84
f 83 84 47
f 81 131 83
f 47 81 83
f 65 64 117
f 117 64 115
f 61 80 116
f 116 115 61
f 61 115 62
f 145 202 203
f 203 202 260
f 197 145 203
f 314 260 259
f 259 313 314
f 412 413 382
f 382 402 412
f 402 401 412
f 336 335 365
f 365 366 336
f 365 335 364
f 401 366 400
f 400 366 398
f 364 398 399
f 398 366 399
f 399 365 364
f 366 365 399
f 337 366 338
f 338 280 337
f 380 381 357
f 357 379 380
f 379 408 380
f 405 408 407
f 368 342 340
f 340 342 287
f 287 342 288
f 288 342 289
f 217 218 160
f 217 258 260
f 200 258 217
f 129 76 75
f 75 95 129
f 130 76 129
f 129 95 130
f 307 246 306
f 307 308 246
f 179 247 248
f 248 249 179
f 13 15 50
f 15 54 50
f 90 91 50
f 93 52 51
f 51 90 93
f 51 52 13
f 13 50 51
f 31 30 68
f 68 69 31
f 69 32 31
f 8 30 31
f 31 32 8
f 170 232 230
f 230 171 170
f 171 125 170
f 297 232 295
f 295 294 297
f 347 348 293
f 333 326 327
f 327 359 333
f 359 334 333
f 335 280 332
f 364 335 332
f 124 125 70
f 278 334 328
f 328 276 278
f 278 333 334
f 279 326 278
f 326 333 278
f 277 280 226
f 277 332 280
f 276 332 277
f 65 117 66
f 66 117 67
f 66 28 65
f 66 67 28
f 157 153 115
f 157 212 153
f 116 162 157
f 157 115 116
f 216 212 157
f 162 160 157
f 157 160 216
f 361 312 327
f 327 324 361
f 339 338 340
f 340 284 339
f 406 405 407
f 407 368 406
f 410 380 408
f 408 405 410
f 410 405 380
f 404 366 381
f 407 374 373
f 373 372 407
f 407 372 370
f 197 203 257
f 257 203 260
f 260 258 257
f 198 141 197
f 142 141 198
f 197 257 198
f 198 257 258
f 159 160 116
f 159 217 160
f 200 217 159
f 116 158 159
f 158 200 159
f 275 324 325
f 314 324 275
f 260 314 275
f 275 217 260
f 88 50 54
f 97 141 88
f 88 54 97
f 92 91 90
f 90 51 92
f 92 50 91
f 92 51 50
f 292 291 347
f 347 293 292
f 215 155 154
f 154 214 215
f 119 117 115
f 119 163 118
f 118 67 119
f 67 117 119
f 226 227 168
f 279 278 222
f 222 274 279
f 221 214 222
f 214 274 222
f 360 361 324
f 360 314 313
f 360 324 314
f 313 312 360
f 312 361 360
f 283 339 284
f 281 227 280
f 381 380 411
f 411 404 381
f 380 405 411
f 405 404 411
f 405 406 367
f 367 404 405
f 366 404 367
f 367 338 366
f 340 338 367
f 367 368 340
f 367 406 368
f 322 320 345
f 345 373 374
f 319 290 345
f 345 320 319
f 372 373 345
f 369 368 407
f 407 370 369
f 342 368 369
f 369 370 342
f 344 370 372
f 344 345 290
f 372 345 344
f 290 289 344
f 199 258 200
f 199 198 258
f 142 198 199
f 199 143 142
f 199 200 143
f 141 90 89
f 89 88 141
f 90 50 89
f 50 88 89
f 173 170 125
f 173 125 172
f 231 295 232
f 231 173 236
f 232 170 231
f 170 173 231
f 294 295 231
f 231 287 288
f 288 289 231
f 231 289 290
f 231 293 294
f 231 292 293
f 231 290 291
f 291 292 231
f 285 284 340
f 340 287 285
f 223 215 214
f 115 155 156
f 156 119 115
f 155 119 156
f 325 324 272
f 324 271 272
f 272 275 325
f 218 217 272
f 217 275 272
f 273 324 327
f 273 271 324
f 327 326 273
f 273 326 279
f 279 274 273
f 214 271 273
f 273 274 214
f 364 332 331
f 331 330 364
f 331 332 276
f 276 330 331
f 329 276 328
f 329 330 276
f 329 328 364
f 364 330 329
f 172 168 229
f 284 285 229
f 228 168 227
f 227 283 228
f 228 283 284
f 284 229 228
f 228 229 168
f 125 124 169
f 124 168 169
f 172 125 169
f 169 168 172
f 165 120 118
f 70 120 121
f 123 124 70
f 123 168 124
f 221 222 164
f 118 163 164
f 164 165 118
f 219 278 276
f 219 222 278
f 276 277 219
f 219 164 222
f 219 277 226
f 226 224 219
f 339 283 282
f 338 339 282
f 282 283 227
f 227 281 282
f 280 338 282
f 282 281 280
f 322 345 362
f 363 323 362
f 362 323 322
f 362 345 374
f 362 397 363
f 362 374 397
f 343 289 342
f 343 344 289
f 342 370 343
f 296 231 236
f 236 285 296
f 287 231 296
f 296 285 287
f 235 285 236
f 235 173 172
f 236 173 235
f 172 229 235
f 235 229 285
f 220 214 221
f 220 223 214
f 221 164 220
f 218 272 213
f 216 160 213
f 160 218 213
f 213 212 216
f 213 214 154
f 154 153 213
f 153 212 213
f 213 271 214
f 213 272 271
f 122 121 120
f 168 123 122
f 70 121 122
f 122 123 70
f 226 168 225
f 225 224 226
f 166 164 163
f 163 119 166
f 215 223 166
f 155 215 166
f 166 119 155
f 223 220 166
f 166 220 164
f 370 344 371
f 371 343 370
f 344 343 371
f 224 225 167
f 167 219 224
f 164 219 167
f 167 225 168
f 168 122 167
f 165 164 167
f 120 165 167
f 167 122 120
f 151 210 211
f 210 270 211
f 55 23 6
f 6 22 55
f 71 174 128
f 127 174 71
f 74 75 39
f 39 38 74
f 303 269 268
f 113 148 303
f 303 397 409
f 303 266 265
f 303 318 317
f 208 207 303
f 268 267 303
f 409 378 303
f 148 209 303
f 303 267 266
f 270 269 303
f 303 211 270
f 303 262 208
f 303 114 113
f 205 152 303
f 265 323 303
f 303 209 211
f 304 246 303
f 303 206 205
f 303 356 304
f 317 316 303
f 303 323 363
f 363 397 303
f 303 316 262
f 303 246 245
f 303 152 114
f 303 207 206
f 303 378 356
f 136 179 243
f 243 180 136
f 1 5 7
f 7 2 1
f 1 6 3
f 1 2 6
f 62 63 26
f 26 25 62
f 39 75 76
f 76 40 39
f 76 41 40
f 76 77 41
f 41 77 78
f 42 41 78
f 3 11 12
f 12 4 3
f 12 5 4
f 12 15 5
f 73 9 8
f 73 210 151
f 151 150 73
f 150 149 73
f 73 147 112
f 73 19 18
f 10 9 73
f 73 111 110
f 351 350 73
f 73 174 234
f 112 111 73
f 8 34 73
f 73 16 10
f 102 101 73
f 73 263 210
f 149 147 73
f 18 17 73
f 22 21 73
f 73 55 22
f 60 59 73
f 73 106 105
f 234 299 73
f 73 341 351
f 346 321 73
f 17 16 73
f 73 21 20
f 20 19 73
f 57 55 73
f 73 58 57
f 110 109 73
f 108 107 73
f 128 174 73
f 299 341 73
f 73 321 263
f 349 376 73
f 73 350 349
f 73 59 58
f 73 109 108
f 73 375 346
f 73 99 60
f 73 103 102
f 105 104 73
f 376 375 73
f 73 107 106
f 100 99 73
f 73 101 100
f 73 104 103
f 234 174 171
f 171 174 127
f 297 350 232
f 232 350 298
f 232 286 230
f 298 286 232
f 56 98 135
f 3 6 135
f 135 45 11
f 135 11 3
f 6 23 135
f 135 23 56
f 135 315 353
f 302 244 135
f 135 146 204
f 135 352 302
f 135 179 136
f 135 81 45
f 135 98 146
f 353 352 135
f 204 261 135
f 261 315 135
f 135 244 179
f 135 131 81
f 26 63 64
f 64 27 26
f 67 30 29
f 68 30 67
f 264 263 320
f 320 322 264
f 42 78 79
f 43 42 79
f 79 44 43
f 79 80 44
f 349 350 294
f 294 350 297
f 61 62 25
f 61 25 24
f 44 80 61
f 24 44 61
f 248 194 193
f 248 253 252
f 248 311 300
f 364 359 248
f 248 388 387
f 248 176 175
f 248 243 242
f 248 391 390
f 306 305 248
f 387 386 248
f 193 192 248
f 300 238 248
f 414 413 248
f 242 241 248
f 175 196 248
f 247 310 248
f 248 188 187
f 248 184 183
f 187 186 248
f 238 237 248
f 248 185 184
f 394 393 248
f 390 389 248
f 248 355 354
f 248 383 414
f 248 240 256
f 256 255 248
f 248 196 195
f 195 194 248
f 190 189 248
f 248 191 190
f 248 181 180
f 180 243 248
f 183 182 248
f 248 237 176
f 359 311 248
f 248 398 364
f 248 395 394
f 354 377 248
f 248 393 392
f 392 391 248
f 389 388 248
f 248 385 384
f 384 383 248
f 241 240 248
f 248 254 253
f 401 400 248
f 252 251 248
f 189 188 248
f 248 192 191
f 248 182 181
f 186 185 248
f 248 412 401
f 248 307 306
f 396 395 248
f 248 377 396
f 305 355 248
f 248 386 385
f 248 255 254
f 309 308 248
f 248 310 309
f 248 251 250
f 250 249 248
f 413 412 248
f 248 400 398
f 308 307 248
f 349 294 293
f 348 349 293
