v -0.016662 -0.000530 -0.004714
v -0.016662 -0.000530 -0.001880
v -0.016603 0.001243 -0.004714
v -0.015514 0.006003 -0.005155
v -0.016656 -0.000886 -0.004714
v -0.016656 -0.000886 -0.001526
v -0.016660 -0.000530 -0.001526
v -0.016603 0.001243 -0.001526
v -0.016590 0.001600 -0.004714
v -0.015514 0.006003 -0.001525
v -0.015155 0.006919 -0.005155
v -0.010124 0.006003 -0.005155
v -0.011748 -0.001340 -0.004714
v -0.016606 -0.001338 -0.004714
v -0.016620 -0.001241 -0.004714
v -0.016564 0.001952 -0.004714
v -0.016508 0.002307 -0.004714
v -0.016363 0.003018 -0.004714
v -0.016143 0.004084 -0.004714
v -0.016081 0.004383 -0.004714
v -0.016542 -0.000886 -0.001171
v -0.016620 -0.001241 -0.001526
v -0.016547 -0.000530 -0.001171
v -0.016502 0.000889 -0.001171
v -0.016478 0.001596 -0.001171
v -0.016590 0.001596 -0.001526
v -0.016564 0.001952 -0.001526
v -0.015291 0.006481 -0.001284
v -0.015155 0.006919 -0.001525
v -0.016081 0.004383 -0.001526
v -0.016036 0.004383 -0.001288
v -0.015008 0.007275 -0.005155
v -0.003875 0.007445 -0.005155
v -0.011686 -0.001340 -0.004714
v -0.016606 -0.001340 -0.004461
v -0.016508 0.002307 -0.001526
v -0.016217 0.003727 -0.001526
v -0.016507 -0.001241 -0.001171
v -0.016356 -0.001241 -0.000959
v -0.016374 -0.000886 -0.000944
v -0.016377 -0.000530 -0.000941
v -0.016606 -0.001340 -0.001526
v -0.016524 -0.001340 -0.001268
v -0.016342 0.001596 -0.000971
v -0.016332 0.001880 -0.000980
v -0.016425 0.001980 -0.001136
v -0.016414 0.002307 -0.001195
v -0.016377 0.002662 -0.001244
v -0.016340 0.003016 -0.001306
v -0.016321 0.003204 -0.001343
v -0.016020 0.004383 -0.001235
v -0.015403 0.006003 -0.001181
v -0.015209 0.006274 -0.001048
v -0.014880 0.007050 -0.001014
v -0.014955 0.007275 -0.001260
v -0.014910 0.007470 -0.001328
v -0.015008 0.007275 -0.001525
v -0.014915 0.007479 -0.005155
v -0.003699 0.007496 -0.005155
v -0.006236 -0.001340 -0.004186
v -0.003372 0.007611 -0.005155
v -0.003142 0.007713 -0.005155
v -0.003071 0.007744 -0.005155
v -0.003029 0.007766 -0.005155
v -0.002895 0.007836 -0.005155
v -0.002663 0.007985 -0.005155
v -0.016492 -0.001340 -0.001171
v -0.016348 -0.001340 -0.000965
v -0.016142 -0.001340 -0.000871
v -0.016142 -0.001241 -0.000865
v -0.016142 -0.000886 -0.000850
v -0.016142 -0.000530 -0.000847
v -0.016142 0.000179 -0.000856
v -0.016142 0.000889 -0.000866
v -0.016142 0.001596 -0.000877
v -0.016371 -0.000177 -0.000945
v -0.016175 0.001980 -0.000910
v -0.016119 0.002307 -0.000899
v -0.016086 0.002662 -0.000904
v -0.016316 0.002117 -0.000995
v -0.016299 0.002307 -0.001018
v -0.016262 0.002662 -0.001067
v -0.015940 0.004142 -0.001024
v -0.015924 0.004383 -0.001081
v -0.015256 0.006038 -0.000991
v -0.015911 0.004383 -0.001062
v -0.014649 0.007275 -0.000922
v -0.014585 0.007519 -0.000961
v -0.014827 0.007275 -0.001083
v -0.014926 0.006814 -0.000969
v -0.014524 0.008128 -0.001525
v -0.014915 0.007479 -0.001525
v -0.014514 0.007755 -0.001025
v -0.014711 0.007614 -0.001177
v -0.014223 0.008571 -0.001293
v -0.013843 0.009240 -0.001331
v -0.014524 0.008128 -0.005155
v -0.006130 -0.001340 -0.004169
v -0.002499 0.008098 -0.005155
v -0.002450 0.008133 -0.005155
v -0.002274 0.008297 -0.005155
v -0.002089 0.008474 -0.005155
v -0.015786 -0.001340 -0.000805
v -0.015786 0.002307 -0.000805
v -0.015786 0.002662 -0.000810
v -0.015786 0.003016 -0.000826
v -0.015786 0.003371 -0.000851
v -0.015740 0.004383 -0.000909
v -0.016050 0.003016 -0.000920
v -0.016017 0.003371 -0.000944
v -0.015981 0.003727 -0.000975
v -0.015965 0.003904 -0.000993
v -0.015765 0.004383 -0.000928
v -0.015262 0.006003 -0.000986
v -0.014976 0.006566 -0.000934
v -0.014747 0.006928 -0.000903
v -0.014723 0.006566 -0.000840
v -0.014367 0.007275 -0.000828
v -0.014385 0.007635 -0.000902
v -0.014268 0.007984 -0.000940
v -0.013898 0.008620 -0.000947
v -0.013518 0.009291 -0.000963
v -0.014207 0.008188 -0.000979
v -0.013742 0.009424 -0.001525
v -0.013827 0.008858 -0.001001
v -0.013448 0.009526 -0.001027
v -0.014135 0.008425 -0.001056
v -0.013536 0.009662 -0.001263
v -0.013565 0.009704 -0.001525
v -0.013742 0.009424 -0.005155
v -0.005848 -0.001340 -0.003979
v -0.001915 0.008675 -0.005155
v -0.001764 0.008853 -0.005155
v -0.000300 0.006376 -0.004190
v -0.000300 0.006198 -0.004108
v -0.006210 -0.001340 -0.000805
v -0.004791 0.008788 -0.000451
v -0.005123 0.008839 -0.000451
v -0.005139 0.008842 -0.000451
v -0.005265 0.008881 -0.000451
v -0.005470 0.008949 -0.000451
v -0.005859 0.009136 -0.000451
v -0.005875 0.009145 -0.000451
v -0.006024 0.009229 -0.000451
v -0.006213 0.009389 -0.000451
v -0.006401 0.009565 -0.000451
v -0.006500 0.009706 -0.000451
v -0.006792 0.010209 -0.000451
v -0.006875 0.010466 -0.000451
v -0.006876 0.010476 -0.000451
v -0.006923 0.010819 -0.000451
v -0.006928 0.011175 -0.000451
v -0.015432 0.004080 -0.000805
v -0.006886 0.011528 -0.000451
v -0.015432 0.004383 -0.000812
v -0.015482 0.004383 -0.000827
v -0.015081 0.006003 -0.000893
v -0.014723 0.006210 -0.000811
v -0.014011 0.007628 -0.000809
v -0.013658 0.008337 -0.000818
v -0.013302 0.009046 -0.000829
v -0.014011 0.007984 -0.000845
v -0.014367 0.006919 -0.000805
v -0.013593 0.009046 -0.000923
v -0.013211 0.009688 -0.000938
v -0.013116 0.009924 -0.001000
v -0.013332 0.009794 -0.001132
v -0.013215 0.010040 -0.001236
v -0.012775 0.010647 -0.001339
v -0.013440 0.009882 -0.001525
v -0.013565 0.009704 -0.005155
v -0.005797 -0.001340 -0.003934
v -0.001634 0.009048 -0.005155
v -0.001471 0.009324 -0.005155
v -0.001386 0.009502 -0.005155
v -0.000300 0.012093 -0.005155
v -0.000300 0.005941 -0.003931
v -0.005835 -0.001340 -0.000870
v -0.000300 0.006212 -0.000805
v -0.002821 0.009915 -0.000451
v -0.002961 0.009737 -0.000451
v -0.003138 0.009521 -0.000451
v -0.003327 0.009349 -0.000451
v -0.003512 0.009190 -0.000451
v -0.003723 0.009083 -0.000451
v -0.004104 0.008923 -0.000451
v -0.004426 0.008816 -0.000451
v -0.004432 0.008814 -0.000451
v -0.004783 0.008788 -0.000451
v -0.006798 0.011825 -0.000451
v -0.006715 0.012003 -0.000451
v -0.006572 0.012237 -0.000451
v -0.012946 0.009401 -0.000810
v -0.012592 0.010112 -0.000849
v -0.012978 0.009787 -0.000886
v -0.013318 0.009405 -0.000904
v -0.011881 0.011166 -0.000916
v -0.011764 0.011417 -0.000955
v -0.012440 0.010670 -0.000975
v -0.012778 0.010297 -0.000987
v -0.011660 0.011653 -0.001037
v -0.012000 0.011280 -0.001056
v -0.012099 0.011396 -0.001293
v -0.012437 0.011022 -0.001314
v -0.011788 0.011796 -0.001525
v -0.011965 0.011595 -0.001525
v -0.013262 0.010093 -0.001525
v -0.013227 0.010135 -0.005155
v -0.013440 0.009882 -0.005155
v -0.005752 -0.001340 -0.003892
v -0.000300 0.016631 -0.005155
v -0.000300 0.005816 -0.003653
v -0.005683 -0.001340 -0.003785
v -0.005642 -0.001340 -0.000950
v -0.000300 0.006103 -0.000837
v -0.000300 0.015785 -0.000805
v -0.002551 0.011164 -0.000451
v -0.002557 0.010819 -0.000451
v -0.002632 0.010466 -0.000451
v -0.002736 0.010112 -0.000451
v -0.006422 0.012452 -0.000451
v -0.011173 0.011528 -0.000819
v -0.011529 0.011175 -0.000824
v -0.012237 0.010466 -0.000839
v -0.011535 0.011532 -0.000906
v -0.011423 0.011773 -0.000949
v -0.011761 0.011766 -0.001274
v -0.011290 0.012010 -0.001045
v -0.011534 0.011887 -0.001160
v -0.011614 0.011973 -0.001525
v -0.011788 0.011796 -0.005155
v -0.011965 0.011595 -0.005155
v -0.000480 0.016631 -0.005155
v -0.000300 0.016631 -0.001525
v -0.000300 0.005783 -0.003298
v -0.005632 -0.001340 -0.003298
v -0.005661 -0.001340 -0.003653
v -0.005608 -0.001340 -0.001171
v -0.000300 0.005779 -0.001171
v -0.000300 0.005860 -0.000991
v -0.000300 0.005910 -0.000899
v -0.000300 0.016019 -0.000840
v -0.001953 0.015785 -0.000805
v -0.004791 0.013247 -0.000451
v -0.004436 0.013231 -0.000451
v -0.004178 0.013169 -0.000451
v -0.004167 0.013166 -0.000451
v -0.003994 0.013087 -0.000451
v -0.003728 0.012964 -0.000451
v -0.003484 0.012823 -0.000451
v -0.003307 0.012672 -0.000451
v -0.003122 0.012496 -0.000451
v -0.002945 0.012274 -0.000451
v -0.002807 0.012093 -0.000451
v -0.002716 0.011882 -0.000451
v -0.002712 0.011873 -0.000451
v -0.002615 0.011528 -0.000451
v -0.002551 0.011175 -0.000451
v -0.006242 0.012624 -0.000451
v -0.006061 0.012797 -0.000451
v -0.009401 0.012948 -0.000814
v -0.010820 0.011884 -0.000828
v -0.011173 0.011887 -0.000910
v -0.009676 0.013205 -0.000942
v -0.011053 0.012107 -0.000961
v -0.011407 0.012107 -0.001282
v -0.010293 0.012775 -0.000990
v -0.009913 0.013108 -0.001008
v -0.009530 0.013442 -0.001030
v -0.009650 0.013541 -0.001266
v -0.011614 0.011973 -0.005155
v -0.011436 0.012130 -0.001525
v -0.001244 0.016623 -0.001525
v -0.001244 0.016623 -0.005155
v -0.000300 0.016517 -0.001170
v -0.000300 0.005778 -0.001525
v -0.000300 0.016141 -0.000858
v -0.002309 0.015785 -0.000806
v -0.005150 0.013212 -0.000451
v -0.005855 0.012907 -0.000451
v -0.007274 0.014366 -0.000833
v -0.009045 0.013301 -0.000824
v -0.010466 0.012239 -0.000839
v -0.010110 0.012592 -0.000853
v -0.009407 0.013315 -0.000902
v -0.009295 0.013528 -0.000955
v -0.010648 0.012775 -0.001340
v -0.009045 0.013782 -0.001060
v -0.009391 0.013651 -0.001173
v -0.009687 0.013569 -0.001525
v -0.009253 0.013852 -0.001317
v -0.011436 0.012130 -0.005155
v -0.010994 0.012496 -0.005155
v -0.010081 0.013247 -0.001525
v -0.001516 0.016607 -0.005155
v -0.001599 0.016600 -0.001525
v -0.001599 0.016487 -0.001170
v -0.001244 0.016508 -0.001170
v -0.000890 0.016359 -0.000955
v -0.000300 0.016360 -0.000952
v -0.000890 0.016141 -0.000861
v -0.001244 0.016141 -0.000862
v -0.002663 0.015785 -0.000814
v -0.005365 0.013154 -0.000451
v -0.004436 0.015430 -0.000817
v -0.006564 0.014721 -0.000833
v -0.006933 0.014744 -0.000900
v -0.007274 0.014642 -0.000927
v -0.007983 0.014010 -0.000848
v -0.009045 0.013604 -0.000918
v -0.008629 0.013901 -0.000945
v -0.008866 0.013833 -0.000995
v -0.008424 0.014137 -0.001054
v -0.009687 0.013569 -0.005155
v -0.009447 0.013748 -0.001525
v -0.009631 0.013611 -0.005155
v -0.009268 0.013861 -0.001525
v -0.008574 0.014225 -0.001292
v -0.007451 0.014899 -0.001346
v -0.010121 0.013213 -0.005155
v -0.001599 0.016600 -0.005155
v -0.001872 0.016563 -0.005155
v -0.001953 0.016550 -0.001525
v -0.003018 0.016338 -0.001308
v -0.002663 0.016369 -0.001253
v -0.002309 0.016401 -0.001207
v -0.001958 0.016417 -0.001141
v -0.001841 0.016329 -0.000981
v -0.001599 0.016345 -0.000967
v -0.001244 0.016355 -0.000956
v -0.001599 0.016141 -0.000873
v -0.003018 0.015785 -0.000832
v -0.005499 0.015075 -0.000824
v -0.003372 0.015785 -0.000854
v -0.004436 0.015724 -0.000911
v -0.004791 0.015430 -0.000854
v -0.005499 0.015354 -0.000918
v -0.006564 0.014985 -0.000927
v -0.006822 0.014934 -0.000963
v -0.007057 0.014879 -0.001012
v -0.007507 0.014575 -0.000967
v -0.008187 0.014204 -0.000980
v -0.007745 0.014508 -0.001031
v -0.009447 0.013748 -0.005155
v -0.009045 0.013989 -0.001525
v -0.009268 0.013861 -0.005155
v -0.007895 0.014594 -0.001268
v -0.007274 0.014950 -0.001272
v -0.008782 0.014140 -0.001525
v -0.006498 0.015294 -0.001277
v -0.006918 0.015173 -0.001525
v -0.007274 0.015001 -0.001525
v -0.001953 0.016550 -0.005155
v -0.002225 0.016501 -0.005155
v -0.002663 0.016422 -0.001525
v -0.003210 0.016320 -0.001342
v -0.004051 0.016044 -0.001149
v -0.004149 0.015942 -0.001017
v -0.002663 0.016253 -0.001076
v -0.002309 0.016285 -0.001031
v -0.003914 0.015965 -0.000991
v -0.003728 0.015980 -0.000976
v -0.003372 0.016012 -0.000948
v -0.003018 0.016046 -0.000925
v -0.002663 0.016077 -0.000908
v -0.002309 0.016107 -0.000900
v -0.004791 0.015662 -0.000948
v -0.005855 0.015291 -0.000961
v -0.006044 0.015256 -0.000989
v -0.006281 0.015214 -0.001041
v -0.006933 0.015031 -0.001146
v -0.009045 0.013989 -0.005155
v -0.008782 0.014140 -0.005155
v -0.006596 0.015178 -0.001163
v -0.005499 0.015653 -0.001270
v -0.004666 0.015982 -0.001310
v -0.005702 0.015616 -0.001330
v -0.006732 0.015249 -0.001525
v -0.006918 0.015173 -0.005155
v -0.006876 0.015192 -0.005155
v -0.007274 0.015001 -0.005155
v -0.004000 0.016179 -0.005155
v -0.004082 0.016163 -0.001525
v -0.004436 0.016019 -0.001248
v -0.004436 0.015900 -0.001071
v -0.005007 0.015622 -0.000979
v -0.005244 0.015579 -0.001025
v -0.005499 0.015534 -0.001094
v -0.004436 0.016077 -0.001525
v -0.004695 0.015991 -0.001525
v -0.006556 0.015316 -0.001525
v -0.004873 0.015928 -0.001525
v -0.006732 0.015249 -0.005155
v -0.004082 0.016163 -0.005155
v -0.004436 0.016077 -0.005155
v -0.004634 0.016012 -0.005155
v -0.004695 0.015991 -0.005155
v -0.004735 0.015977 -0.005155
v -0.006556 0.015316 -0.005155
f 178 215 179
f 33 34 12
f 175 176 134
f 134 174 175
f 134 98 133
f 178 179 136
f 180 136 179
f 35 14 13
f 4 13 14
f 173 174 134
f 134 133 173
f 98 60 102
f 184 136 183
f 213 177 212
f 210 177 213
f 135 131 98
f 135 98 134
f 235 238 236
f 236 212 235
f 214 215 178
f 238 239 214
f 219 179 218
f 183 136 182
f 378 380 351
f 1 4 5
f 132 133 98
f 98 102 132
f 101 60 100
f 101 102 60
f 136 188 189
f 187 136 186
f 187 188 136
f 186 136 185
f 136 184 185
f 131 135 172
f 172 135 177
f 177 210 172
f 213 212 237
f 212 236 237
f 276 238 235
f 276 239 238
f 215 214 241
f 220 180 179
f 179 219 220
f 136 180 181
f 181 182 136
f 260 282 261
f 261 222 260
f 34 65 66
f 66 60 34
f 34 63 64
f 64 65 34
f 34 33 59
f 59 61 34
f 62 63 34
f 34 61 62
f 15 4 14
f 15 5 4
f 15 14 35
f 9 16 4
f 27 16 9
f 4 16 17
f 103 141 142
f 148 149 103
f 103 147 148
f 146 147 103
f 221 222 193
f 152 104 103
f 74 104 105
f 38 68 39
f 240 214 239
f 240 241 214
f 356 324 323
f 356 383 376
f 376 383 389
f 229 266 227
f 230 266 272
f 230 205 227
f 227 266 230
f 379 351 380
f 194 161 193
f 216 257 258
f 256 257 216
f 250 216 249
f 250 251 216
f 216 251 252
f 216 246 247
f 216 244 245
f 245 246 216
f 100 60 99
f 60 66 99
f 3 4 1
f 3 9 4
f 27 9 26
f 19 30 20
f 20 4 19
f 138 103 137
f 138 139 103
f 140 141 103
f 103 139 140
f 143 144 103
f 103 142 143
f 103 144 145
f 145 146 103
f 191 163 190
f 260 222 259
f 222 221 259
f 190 163 153
f 105 104 153
f 163 191 159
f 104 152 154
f 190 153 154
f 154 153 104
f 151 152 103
f 105 78 75
f 75 74 105
f 103 104 72
f 23 7 6
f 68 38 67
f 306 304 333
f 273 274 295
f 233 234 211
f 273 234 233
f 233 274 273
f 296 295 321
f 273 295 296
f 296 297 273
f 296 323 324
f 378 351 350
f 227 205 203
f 205 204 203
f 272 266 287
f 193 222 223
f 285 284 282
f 285 263 284
f 284 263 283
f 282 284 283
f 281 309 282
f 281 282 260
f 281 304 306
f 307 306 338
f 307 281 306
f 218 179 217
f 216 254 255
f 255 256 216
f 253 254 216
f 216 252 253
f 249 216 248
f 216 247 248
f 6 7 2
f 27 50 36
f 83 51 48
f 108 110 109
f 192 221 193
f 193 159 192
f 192 159 191
f 105 153 155
f 155 153 163
f 193 161 160
f 160 159 193
f 103 149 150
f 150 151 103
f 104 74 73
f 73 72 104
f 39 68 69
f 21 23 6
f 21 38 39
f 7 23 24
f 43 22 42
f 38 22 43
f 43 67 38
f 297 328 329
f 300 275 299
f 273 297 298
f 297 329 298
f 298 329 330
f 298 299 275
f 330 299 298
f 327 328 297
f 297 326 327
f 394 383 382
f 322 353 323
f 322 296 321
f 323 296 322
f 378 350 377
f 377 350 376
f 390 376 389
f 390 377 376
f 392 377 390
f 357 324 356
f 393 380 378
f 392 399 391
f 378 377 391
f 391 377 392
f 398 399 392
f 398 390 397
f 392 390 398
f 165 197 198
f 126 165 166
f 315 344 316
f 316 290 315
f 316 314 290
f 293 292 272
f 272 287 294
f 294 287 290
f 294 293 272
f 290 314 294
f 315 290 291
f 289 288 291
f 224 194 193
f 193 223 224
f 225 263 226
f 222 263 225
f 225 223 222
f 225 224 223
f 226 198 225
f 198 197 225
f 225 197 194
f 194 224 225
f 282 309 310
f 310 285 282
f 286 285 310
f 264 285 286
f 286 268 264
f 226 263 264
f 263 285 264
f 266 229 228
f 269 268 286
f 269 288 289
f 286 288 269
f 269 228 268
f 315 291 317
f 262 261 282
f 282 283 262
f 222 261 262
f 262 263 222
f 262 283 263
f 280 281 260
f 304 281 280
f 208 206 232
f 209 170 208
f 207 206 208
f 208 170 207
f 128 170 129
f 30 50 31
f 50 51 31
f 84 83 86
f 84 51 83
f 37 50 30
f 37 36 50
f 30 19 37
f 49 51 50
f 49 48 51
f 49 50 27
f 27 48 49
f 79 78 105
f 107 108 79
f 79 108 109
f 86 83 113
f 113 83 112
f 112 108 113
f 111 108 112
f 110 108 111
f 105 155 106
f 106 155 107
f 106 79 105
f 107 79 106
f 156 108 107
f 107 155 156
f 163 159 118
f 118 162 119
f 159 160 118
f 118 160 161
f 161 162 118
f 72 73 41
f 41 73 74
f 74 75 41
f 23 21 41
f 7 24 8
f 8 2 7
f 9 3 8
f 8 26 9
f 27 26 25
f 26 8 25
f 25 8 24
f 300 299 301
f 305 333 304
f 355 382 383
f 356 323 355
f 355 383 356
f 389 395 396
f 397 390 396
f 396 390 389
f 350 348 371
f 347 348 318
f 306 333 336
f 333 305 336
f 336 305 335
f 338 306 337
f 306 336 337
f 337 336 335
f 367 335 358
f 367 337 335
f 338 337 367
f 376 350 375
f 375 387 376
f 376 387 385
f 360 359 358
f 328 327 360
f 360 327 326
f 326 359 360
f 325 359 326
f 325 326 297
f 358 359 325
f 297 296 325
f 325 296 324
f 324 357 325
f 325 357 358
f 194 197 195
f 197 165 195
f 161 194 195
f 201 229 227
f 227 203 201
f 201 198 226
f 226 228 201
f 201 228 229
f 320 294 314
f 293 294 320
f 319 352 349
f 319 317 291
f 351 352 319
f 318 348 319
f 319 291 318
f 319 350 351
f 319 348 350
f 226 264 265
f 265 228 226
f 270 269 289
f 289 291 270
f 270 287 266
f 290 287 270
f 270 291 290
f 266 228 270
f 228 269 270
f 345 319 349
f 317 319 345
f 312 288 286
f 308 310 309
f 308 307 338
f 309 281 308
f 281 307 308
f 169 207 170
f 170 128 169
f 206 207 169
f 205 206 169
f 169 204 205
f 129 124 96
f 96 128 129
f 126 128 96
f 17 36 18
f 36 37 18
f 18 37 19
f 4 17 18
f 18 19 4
f 119 162 164
f 120 119 164
f 164 121 120
f 117 156 155
f 108 156 117
f 158 155 163
f 163 118 158
f 158 117 155
f 118 117 158
f 39 69 40
f 40 21 39
f 40 41 21
f 76 41 75
f 47 48 27
f 27 25 47
f 78 79 45
f 300 301 277
f 301 278 277
f 302 299 330
f 302 301 299
f 302 278 301
f 244 278 279
f 279 305 304
f 243 244 216
f 243 278 244
f 243 277 278
f 334 305 332
f 335 305 334
f 382 355 354
f 323 353 354
f 354 355 323
f 338 367 368
f 370 375 350
f 358 335 361
f 328 360 361
f 361 360 358
f 376 385 384
f 384 385 358
f 358 357 384
f 356 376 384
f 384 357 356
f 386 385 387
f 386 368 367
f 386 367 358
f 358 385 386
f 161 195 196
f 196 195 165
f 165 164 196
f 196 162 161
f 196 164 162
f 126 125 122
f 122 165 126
f 122 164 165
f 121 164 122
f 200 201 166
f 200 166 165
f 202 201 203
f 166 201 202
f 267 264 268
f 267 265 264
f 268 228 267
f 228 265 267
f 343 312 342
f 348 347 343
f 343 347 318
f 311 312 286
f 342 312 311
f 286 310 311
f 310 308 311
f 168 169 128
f 204 169 168
f 168 203 204
f 168 202 203
f 166 202 168
f 108 117 157
f 70 40 69
f 70 69 103
f 72 41 71
f 41 40 71
f 40 70 71
f 103 72 71
f 71 70 103
f 46 47 25
f 25 45 46
f 78 45 44
f 44 76 75
f 23 41 44
f 41 76 44
f 44 24 23
f 44 25 24
f 44 45 25
f 112 83 81
f 48 47 81
f 330 329 331
f 331 302 330
f 303 279 278
f 305 279 303
f 332 305 303
f 303 331 332
f 278 302 303
f 302 331 303
f 242 243 216
f 277 243 242
f 350 371 374
f 374 370 350
f 371 370 374
f 387 375 388
f 388 370 387
f 375 370 388
f 339 308 338
f 335 364 363
f 363 364 328
f 368 386 369
f 370 339 369
f 387 370 369
f 369 386 387
f 338 368 369
f 369 339 338
f 199 165 198
f 199 200 165
f 198 201 199
f 201 200 199
f 288 312 313
f 312 343 313
f 313 343 318
f 318 291 313
f 313 291 288
f 342 311 341
f 341 311 308
f 166 168 167
f 167 168 128
f 126 166 167
f 167 128 126
f 93 125 126
f 126 96 95
f 96 56 95
f 28 31 51
f 77 75 78
f 78 44 77
f 77 44 75
f 80 46 45
f 47 46 80
f 80 81 47
f 109 110 80
f 110 111 80
f 80 79 109
f 80 45 79
f 80 111 112
f 112 81 80
f 83 48 82
f 82 81 83
f 48 81 82
f 366 331 329
f 340 371 348
f 348 343 340
f 340 370 371
f 340 339 370
f 340 343 342
f 342 341 340
f 308 339 340
f 340 341 308
f 362 361 335
f 335 363 362
f 328 361 362
f 362 363 328
f 120 121 88
f 121 122 88
f 127 93 126
f 126 95 127
f 127 95 93
f 56 93 94
f 94 95 56
f 93 95 94
f 51 84 52
f 52 28 51
f 52 84 86
f 30 31 10
f 31 28 10
f 91 92 56
f 91 96 124
f 91 56 96
f 56 92 57
f 332 331 365
f 331 366 365
f 365 334 332
f 365 364 335
f 335 334 365
f 365 366 329
f 365 329 328
f 328 364 365
f 125 93 123
f 93 88 123
f 123 122 125
f 123 88 122
f 89 93 56
f 89 88 93
f 56 57 29
f 29 28 56
f 29 10 28
f 56 28 55
f 55 89 56
f 54 55 28
f 89 55 54
f 88 89 54
f 28 52 53
f 53 54 28
f 88 54 87
f 87 118 119
f 87 119 120
f 120 88 87
f 116 117 87
f 87 117 118
f 85 52 86
f 85 53 52
f 86 113 85
f 54 53 85
f 114 113 108
f 114 85 113
f 85 114 115
f 116 87 115
f 115 114 108
f 108 157 115
f 115 117 116
f 115 157 117
f 90 87 54
f 90 115 87
f 54 85 90
f 85 115 90
f 34 13 4
f 12 34 4
f 103 136 189
f 137 103 189
f 5 15 22
f 6 5 22
f 35 42 22
f 22 15 35
f 395 383 394
f 389 383 395
f 231 205 271
f 205 230 271
f 272 292 271
f 271 230 272
f 179 216 217
f 216 258 217
f 2 5 6
f 1 5 2
f 36 17 16
f 36 16 27
f 129 171 130
f 130 124 129
f 6 22 21
f 21 22 38
f 34 60 43
f 178 136 43
f 131 172 43
f 43 42 35
f 35 13 43
f 98 131 43
f 43 60 98
f 43 136 103
f 43 210 213
f 43 13 34
f 213 237 43
f 43 214 178
f 43 236 238
f 238 214 43
f 43 172 210
f 43 237 236
f 103 69 43
f 68 67 43
f 43 69 68
f 298 275 234
f 298 234 273
f 352 379 381
f 351 379 352
f 381 373 352
f 373 349 352
f 399 393 391
f 391 393 378
f 317 346 344
f 317 344 315
f 232 205 231
f 232 206 205
f 209 171 129
f 129 170 209
f 1 2 8
f 8 3 1
f 345 373 372
f 345 349 373
f 372 346 345
f 346 317 345
f 279 184 183
f 183 182 279
f 186 185 279
f 190 154 279
f 279 181 180
f 141 140 279
f 279 219 218
f 137 189 279
f 279 187 186
f 279 255 254
f 144 143 279
f 180 220 279
f 279 150 149
f 218 217 279
f 279 189 188
f 188 187 279
f 279 185 184
f 279 245 244
f 149 148 279
f 279 191 190
f 279 220 219
f 182 181 279
f 221 192 279
f 279 250 249
f 254 253 279
f 279 138 137
f 279 142 141
f 279 148 147
f 147 146 279
f 279 145 144
f 260 259 279
f 279 280 260
f 279 258 257
f 257 256 279
f 251 250 279
f 279 252 251
f 279 247 246
f 246 245 279
f 139 138 279
f 279 140 139
f 279 143 142
f 146 145 279
f 249 248 279
f 279 259 221
f 279 154 152
f 152 151 279
f 279 217 258
f 256 255 279
f 279 253 252
f 279 248 247
f 279 192 191
f 151 150 279
f 304 280 279
f 176 175 354
f 211 176 354
f 174 173 354
f 354 373 381
f 133 132 354
f 354 33 12
f 354 175 174
f 12 4 354
f 354 101 100
f 354 395 394
f 63 62 354
f 354 173 133
f 354 64 63
f 321 295 354
f 354 322 321
f 354 398 397
f 354 59 33
f 354 132 102
f 102 101 354
f 354 233 211
f 231 271 354
f 354 379 380
f 354 66 65
f 65 64 354
f 61 59 354
f 354 62 61
f 100 99 354
f 354 32 58
f 354 130 171
f 381 379 354
f 344 346 354
f 354 99 66
f 4 11 354
f 354 232 231
f 354 295 274
f 274 233 354
f 394 382 354
f 58 97 354
f 380 393 354
f 354 271 292
f 354 316 344
f 354 346 372
f 372 373 354
f 292 293 354
f 171 209 354
f 354 320 314
f 353 322 354
f 354 393 399
f 399 398 354
f 314 316 354
f 397 396 354
f 11 32 354
f 208 232 354
f 354 209 208
f 354 97 130
f 354 396 395
f 293 320 354
f 242 176 211
f 134 176 242
f 215 241 242
f 242 179 215
f 242 135 134
f 235 212 242
f 242 275 300
f 242 216 179
f 242 212 177
f 177 135 242
f 242 276 235
f 239 276 242
f 211 234 242
f 242 240 239
f 241 240 242
f 234 275 242
f 300 277 242
f 20 30 10
f 10 4 20
f 124 130 91
f 130 97 91
f 91 97 58
f 58 92 91
f 58 32 57
f 57 92 58
f 29 11 4
f 4 10 29
f 29 32 11
f 29 57 32
