v -0.002788 0.005068 0.009400
v -0.000427 0.004785 0.009400
v -0.002788 0.005092 0.009376
v -0.002788 -0.000674 0.009400
v -0.000013 0.004693 0.009400
v -0.000013 0.004999 0.009100
v -0.000392 0.005082 0.009100
v -0.002788 0.005371 0.009100
v -0.002788 -0.000674 0.004400
v -0.002708 -0.000674 0.009400
v -0.000013 0.002797 0.009400
v -0.000013 0.004999 0.004700
v -0.000392 0.005082 0.004700
v -0.002788 0.005371 0.004700
v -0.002708 -0.000674 0.004400
v -0.002788 0.005068 0.004400
v -0.002407 -0.000674 0.009100
v -0.000013 0.002497 0.009100
v -0.000013 0.004758 0.004464
v -0.000427 0.004785 0.004400
v -0.002788 0.005085 0.004417
v -0.000013 0.002797 0.004400
v -0.002674 -0.000674 0.004434
v -0.002407 -0.000674 0.004700
v -0.000013 0.002497 0.004700
v -0.000013 0.004693 0.004400
v -0.000013 0.002788 0.004409
f 18 11 17
f 6 2 5
f 7 2 6
f 1 2 3
f 10 17 11
f 20 16 21
f 21 14 20
f 8 2 7
f 8 3 2
f 25 24 27
f 27 24 22
f 20 14 13
f 13 12 20
f 23 15 22
f 22 24 23
f 19 26 20
f 20 12 19
f 1 4 10
f 10 11 5
f 10 2 1
f 5 2 10
f 24 25 18
f 18 17 24
f 8 9 4
f 8 4 1
f 8 16 9
f 1 3 8
f 8 21 16
f 14 21 8
f 14 8 13
f 13 8 7
f 6 12 13
f 7 6 13
f 9 16 26
f 26 16 20
f 26 15 9
f 22 15 26
f 4 9 23
f 23 10 4
f 17 10 23
f 23 24 17
f 9 15 23
f 5 11 19
f 19 11 18
f 18 25 19
f 19 6 5
f 19 12 6
f 25 27 19
f 19 27 22
f 22 26 19
