v 0.040351 0.027680 0.001187
v 0.040351 0.027680 0.000686
v 0.039851 0.027660 0.001187
v 0.040351 0.027654 0.001687
v 0.040851 0.027647 0.001187
v 0.040351 0.027644 0.000185
v 0.039851 0.027660 0.000686
v 0.040851 0.027647 0.000686
v 0.039351 0.027638 0.001187
v 0.039851 0.027631 0.001687
v 0.039351 0.027412 0.002109
v 0.039851 0.027428 0.002121
v 0.040351 0.027438 0.002128
v 0.040851 0.027419 0.002112
v 0.040851 0.027618 0.001687
v 0.041351 0.027531 0.001187
v 0.040351 0.027428 -0.000240
v 0.039851 0.027419 -0.000233
v 0.039351 0.027406 -0.000221
v 0.039851 0.027625 0.000185
v 0.040851 0.027609 0.000185
v 0.040851 0.027409 -0.000224
v 0.039351 0.027638 0.000686
v 0.041351 0.027531 0.000686
v 0.038850 0.027531 0.001187
v 0.038850 0.027502 0.001687
v 0.039351 0.027605 0.001687
v 0.038850 0.027361 0.002058
v 0.038850 0.027000 0.002277
v 0.039351 0.027000 0.002328
v 0.039851 0.027000 0.002340
v 0.040351 0.027000 0.002346
v 0.040851 0.027000 0.002331
v 0.041351 0.027000 0.002279
v 0.041851 0.027000 0.002208
v 0.041351 0.027361 0.002060
v 0.041851 0.027296 0.001991
v 0.042124 0.027261 0.001949
v 0.041351 0.027499 0.001687
v 0.041851 0.027364 0.001687
v 0.041851 0.027390 0.001187
v 0.040351 0.027000 -0.000445
v 0.039851 0.027000 -0.000438
v 0.040851 0.027000 -0.000429
v 0.039351 0.027000 -0.000426
v 0.038850 0.027000 -0.000376
v 0.038850 0.027351 -0.000171
v 0.039351 0.027599 0.000185
v 0.041351 0.027493 0.000185
v 0.042114 0.027254 -0.000069
v 0.041351 0.027351 -0.000173
v 0.041851 0.027000 -0.000308
v 0.041351 0.027000 -0.000379
v 0.038850 0.027531 0.000686
v 0.041851 0.027390 0.000686
v 0.042148 0.027270 0.000185
v 0.041851 0.027354 0.000185
v 0.038350 0.027351 0.001187
v 0.038093 0.027254 0.001470
v 0.038316 0.027319 0.001657
v 0.038132 0.027238 0.001804
v 0.038464 0.027296 0.001990
v 0.037845 0.026929 0.002104
v 0.038316 0.027042 0.002138
v 0.037845 0.026501 0.002322
v 0.039851 0.024207 0.002957
v 0.038350 0.026501 0.002367
v 0.039326 0.024072 0.002957
v 0.040351 0.024217 0.002957
v 0.040648 0.024165 0.002957
v 0.040851 0.024104 0.002957
v 0.041851 0.026501 0.002373
v 0.042356 0.026501 0.002327
v 0.042317 0.027003 0.002081
v 0.042743 0.026839 0.002022
v 0.043644 0.026285 0.001975
v 0.042832 0.026900 0.001687
v 0.042411 0.027148 0.001687
v 0.042158 0.027274 0.001687
v 0.042183 0.027287 0.001187
v 0.041851 0.026501 -0.000472
v 0.041351 0.026501 -0.000475
v 0.038850 0.026501 -0.000475
v 0.038350 0.026501 -0.000466
v 0.042356 0.026501 -0.000426
v 0.037845 0.026501 -0.000421
v 0.037845 0.026919 -0.000216
v 0.038330 0.027039 -0.000248
v 0.038484 0.027290 -0.000108
v 0.038850 0.027493 0.000185
v 0.041851 0.027287 -0.000106
v 0.042401 0.027145 0.000185
v 0.042827 0.026894 0.000185
v 0.043634 0.026278 -0.000093
v 0.042733 0.026829 -0.000140
v 0.042307 0.027000 -0.000192
v 0.038093 0.027254 0.000412
v 0.038350 0.027351 0.000686
v 0.042183 0.027287 0.000686
v 0.042436 0.027167 0.000686
v 0.038088 0.027254 0.001187
v 0.037840 0.027158 0.001187
v 0.037895 0.027154 0.001657
v 0.037092 0.026752 0.001939
v 0.037345 0.026813 0.002003
v 0.036894 0.026491 0.002061
v 0.037345 0.026501 0.002214
v 0.036845 0.025998 0.002309
v 0.022435 0.015835 0.002957
v 0.022806 0.016025 0.002957
v 0.041049 0.024023 0.002957
v 0.042856 0.025998 0.002358
v 0.043357 0.025998 0.002266
v 0.042886 0.026539 0.002150
v 0.041262 0.023904 0.002957
v 0.043357 0.026388 0.002058
v 0.043827 0.025956 0.002045
v 0.044114 0.025763 0.001948
v 0.043931 0.026033 0.001687
v 0.043678 0.026317 0.001687
v 0.043357 0.026552 0.001687
v 0.043084 0.026736 0.001687
v 0.042852 0.026916 0.001187
v 0.042436 0.027167 0.001187
v 0.042856 0.025998 -0.000457
v 0.043357 0.025499 -0.000464
v 0.042356 0.025998 -0.000475
v 0.036845 0.025499 -0.000475
v 0.037345 0.025998 -0.000466
v 0.042881 0.026533 -0.000260
v 0.043357 0.025998 -0.000364
v 0.036345 0.025499 -0.000459
v 0.035344 0.024996 -0.000449
v 0.034344 0.024497 -0.000436
v 0.036845 0.025998 -0.000409
v 0.037305 0.026546 -0.000268
v 0.036845 0.026414 -0.000203
v 0.037444 0.026826 -0.000142
v 0.037107 0.026742 -0.000024
v 0.038147 0.027232 0.000078
v 0.042852 0.026916 0.000686
v 0.043104 0.026749 0.000686
v 0.043074 0.026729 0.000185
v 0.043674 0.026311 0.000185
v 0.044109 0.025753 -0.000068
v 0.043822 0.025950 -0.000156
v 0.043357 0.026375 -0.000171
v 0.043357 0.026539 0.000185
v 0.037895 0.027148 0.000221
v 0.037345 0.026932 0.000686
v 0.037840 0.027158 0.000686
v 0.038088 0.027254 0.000686
v 0.037345 0.026932 0.001187
v 0.037345 0.026903 0.001687
v 0.025827 0.020338 0.002034
v 0.033839 0.024832 0.002023
v 0.034844 0.025363 0.002048
v 0.037073 0.026761 0.001687
v 0.032571 0.024255 0.001552
v 0.007555 0.010230 0.001938
v -0.000472 0.005730 0.001947
v 0.000795 0.006329 0.002041
v 0.035845 0.025892 0.002070
v 0.029333 0.021994 0.002227
v 0.033839 0.024497 0.002237
v 0.034844 0.024996 0.002265
v 0.035845 0.025499 0.002289
v 0.032339 0.023911 0.002085
v 0.004816 0.008487 0.002102
v 0.007807 0.009979 0.002212
v -0.000205 0.005472 0.002226
v 0.033339 0.023998 0.002322
v 0.027832 0.020992 0.002298
v 0.021474 0.015297 0.002957
v 0.003801 0.007476 0.002321
v -0.000705 0.004970 0.002316
v 0.043357 0.025499 0.002364
v 0.043857 0.024996 0.002351
v 0.043857 0.025499 0.002238
v 0.041406 0.023756 0.002957
v 0.044218 0.025499 0.002030
v 0.044669 0.024871 0.002008
v 0.044580 0.025206 0.001687
v 0.044357 0.025499 0.001687
v 0.044134 0.025782 0.001687
v 0.043946 0.026050 0.001187
v 0.043693 0.026330 0.001187
v 0.043357 0.026578 0.001187
v 0.043104 0.026749 0.001187
v 0.042856 0.025499 -0.000475
v 0.043857 0.024996 -0.000450
v 0.043857 0.024497 -0.000475
v 0.032339 0.022996 -0.000475
v 0.035845 0.024996 -0.000475
v 0.034844 0.024497 -0.000473
v 0.033839 0.023998 -0.000469
v 0.024827 0.018989 -0.000467
v 0.032839 0.023495 -0.000464
v 0.043857 0.025499 -0.000338
v 0.028333 0.020992 -0.000462
v 0.031839 0.022996 -0.000456
v 0.021821 0.017487 -0.000438
v 0.029833 0.021994 -0.000432
v 0.005802 0.008477 -0.000449
v 0.033339 0.023998 -0.000421
v 0.035845 0.025499 -0.000388
v 0.024327 0.018989 -0.000411
v 0.027832 0.020992 -0.000397
v 0.034844 0.024996 -0.000364
v 0.033839 0.024497 -0.000336
v 0.035845 0.025882 -0.000183
v 0.029333 0.021994 -0.000328
v 0.024327 0.019407 -0.000206
v 0.007307 0.009892 -0.000203
v 0.032339 0.023901 -0.000198
v 0.033839 0.024822 -0.000137
v 0.033577 0.024755 -0.000073
v 0.037068 0.026765 0.000310
v 0.037305 0.026868 0.000160
v 0.029080 0.022245 -0.000067
v 0.024584 0.019736 -0.000043
v 0.043357 0.026578 0.000686
v 0.043693 0.026330 0.000686
v 0.043946 0.026050 0.000686
v 0.043921 0.026027 0.000185
v 0.044129 0.025776 0.000185
v 0.044347 0.025499 0.000185
v 0.044575 0.025196 0.000185
v 0.044664 0.024858 -0.000126
v 0.044208 0.025499 -0.000144
v 0.037058 0.026774 0.000686
v 0.037058 0.026774 0.001187
v 0.001796 0.006857 0.002063
v 0.028075 0.021746 0.001483
v 0.007535 0.010240 0.001687
v -0.001463 0.005224 0.001475
v -0.000497 0.005746 0.001687
v -0.001433 0.005208 0.001809
v -0.002062 0.004776 0.001997
v -0.001705 0.004876 0.002079
v 0.021321 0.017487 0.002241
v 0.025827 0.019990 0.002249
v 0.031338 0.022996 0.002282
v 0.002801 0.007389 0.002084
v -0.002220 0.004496 0.002129
v -0.001705 0.004470 0.002297
v 0.000795 0.005971 0.002257
v 0.004301 0.007975 0.002236
v 0.024327 0.018989 0.002312
v 0.023326 0.018489 0.002292
v 0.017944 0.013319 0.002957
v 0.015393 0.011889 0.002957
v 0.041609 0.023537 0.002957
v 0.044357 0.023998 0.002355
v 0.044357 0.024497 0.002300
v 0.041713 0.023398 0.002957
v 0.044392 0.025022 0.002135
v 0.044748 0.024497 0.002081
v 0.045129 0.023811 0.001966
v 0.044916 0.024497 0.001687
v 0.044713 0.024954 0.001687
v 0.044733 0.024977 0.001187
v 0.044595 0.025228 0.001187
v 0.044149 0.025798 0.001187
v 0.044357 0.024497 -0.000399
v 0.044357 0.023998 -0.000454
v 0.044357 0.023495 -0.000473
v 0.044357 0.022996 -0.000475
v 0.027832 0.020490 -0.000475
v 0.031338 0.022493 -0.000474
v 0.030338 0.021994 -0.000472
v 0.008807 0.009979 -0.000471
v 0.004301 0.007476 -0.000469
v -0.000205 0.004970 -0.000468
v 0.007807 0.009476 -0.000466
v 0.044387 0.025016 -0.000246
v 0.023826 0.018489 -0.000460
v -0.001205 0.004470 -0.000462
v 0.002301 0.006474 -0.000456
v 0.010313 0.010980 -0.000452
v 0.004801 0.007975 -0.000436
v 0.000295 0.005472 -0.000432
v 0.003801 0.007476 -0.000421
v 0.001295 0.005971 -0.000445
v 0.023326 0.018489 -0.000391
v 0.001796 0.006474 -0.000380
v 0.009808 0.010980 -0.000370
v 0.031338 0.022996 -0.000381
v -0.001705 0.004470 -0.000396
v 0.025827 0.019990 -0.000348
v 0.021321 0.017487 -0.000340
v 0.001796 0.006848 -0.000176
v 0.025827 0.020329 -0.000147
v -0.000205 0.005472 -0.000327
v 0.002801 0.007379 -0.000197
v 0.008535 0.010742 -0.000078
v 0.024544 0.019758 0.000291
v 0.032571 0.024255 0.000354
v -0.000458 0.005723 -0.000067
v 0.020088 0.017226 -0.000001
v 0.044149 0.025798 0.000686
v 0.044595 0.025228 0.000686
v 0.044733 0.024977 0.000686
v 0.044708 0.024945 0.000185
v 0.044907 0.024497 0.000185
v 0.045124 0.023795 -0.000084
v 0.044738 0.024497 -0.000194
v 0.028075 0.021746 0.000403
v 0.035409 0.025853 0.000686
v 0.035409 0.025853 0.001187
v 0.034210 0.025183 0.001187
v 0.011061 0.012230 0.001442
v 0.003034 0.007733 0.001545
v 0.003722 0.008130 0.001187
v -0.000770 0.005617 0.001187
v -0.001715 0.005085 0.001187
v -0.002414 0.004692 0.001187
v -0.002389 0.004680 0.001687
v -0.002973 0.004232 0.001950
v -0.002711 0.004325 0.002033
v 0.005301 0.008477 0.002264
v 0.009808 0.010980 0.002271
v 0.001796 0.006474 0.002281
v -0.002711 0.003968 0.002242
v -0.002211 0.003968 0.002352
v 0.014418 0.011335 0.002957
v 0.044357 0.023495 0.002374
v 0.044857 0.022996 0.002261
v 0.044857 0.023495 0.002226
v 0.041881 0.023005 0.002957
v 0.041930 0.022725 0.002957
v 0.044882 0.023985 0.002114
v 0.045164 0.023495 0.002009
v 0.045248 0.023495 0.001687
v 0.045154 0.023875 0.001687
v 0.045060 0.024123 0.001687
v 0.044946 0.024497 0.001187
v 0.044877 0.023975 -0.000224
v 0.044857 0.023495 -0.000326
v 0.044857 0.022996 -0.000361
v 0.044857 0.022493 -0.000371
v 0.044357 0.021994 -0.000475
v 0.023326 0.017987 -0.000475
v -0.001705 0.003968 -0.000475
v 0.006307 0.008477 -0.000475
v 0.009808 0.010478 -0.000473
v 0.000795 0.005472 -0.000472
v -0.002211 0.003968 -0.000451
v -0.000705 0.004970 -0.000416
v 0.000795 0.005971 -0.000355
v 0.005301 0.008477 -0.000363
v -0.002711 0.003968 -0.000341
v -0.002215 0.004493 -0.000240
v 0.004301 0.007975 -0.000336
v -0.001705 0.004866 -0.000191
v 0.000795 0.006316 -0.000154
v 0.004301 0.008300 -0.000136
v 0.008807 0.010813 -0.000143
v 0.003034 0.007733 0.000359
v -0.001463 0.005224 0.000408
v -0.000205 0.005788 -0.000129
v -0.002052 0.004767 -0.000115
v -0.001423 0.005201 0.000075
v 0.044946 0.024497 0.000686
v 0.045055 0.024110 0.000185
v 0.045149 0.023859 0.000185
v 0.045238 0.023495 0.000185
v 0.045154 0.023495 -0.000123
v 0.034210 0.025183 0.000686
v 0.011061 0.012230 0.000432
v 0.003722 0.008130 0.000686
v -0.000770 0.005617 0.000686
v -0.001715 0.005085 0.000686
v -0.002414 0.004692 0.000686
v -0.002711 0.004486 0.001187
v -0.002711 0.004461 0.001687
v -0.002998 0.004251 0.001687
v -0.003562 0.003800 0.001687
v -0.003518 0.003762 0.001980
v -0.003171 0.003945 0.002050
v -0.003211 0.003468 0.002285
v -0.002711 0.003468 0.002365
v -0.001161 0.001410 0.002957
v 0.044857 0.022493 0.002271
v 0.041950 0.022493 0.002957
v 0.045204 0.022493 0.002052
v 0.045194 0.022996 0.002043
v 0.045308 0.022996 0.001687
v 0.045342 0.022996 0.001187
v 0.045278 0.023495 0.001187
v 0.045164 0.023904 0.001187
v 0.045075 0.024152 0.001187
v 0.045184 0.022996 -0.000156
v 0.045194 0.022493 -0.000166
v 0.045194 0.021994 -0.000166
v 0.044857 0.021994 -0.000371
v 0.044357 0.021491 -0.000474
v 0.043857 0.020490 -0.000475
v -0.002211 0.003468 -0.000475
v -0.003211 0.002969 -0.000472
v -0.002711 0.003468 -0.000464
v 0.001796 0.005971 -0.000474
v -0.003211 0.003468 -0.000384
v -0.003161 0.003939 -0.000161
v -0.002711 0.004316 -0.000147
v -0.002131 0.004815 0.000185
v -0.002379 0.004673 0.000185
v -0.002963 0.004225 -0.000070
v 0.045075 0.024152 0.000686
v 0.045164 0.023904 0.000686
v 0.045278 0.023495 0.000686
v 0.045303 0.022996 0.000185
v -0.002711 0.004448 0.000185
v -0.002711 0.004486 0.000686
v -0.003013 0.004264 0.001187
v -0.003582 0.003816 0.001187
v -0.003835 0.003581 0.001187
v -0.003815 0.003562 0.001687
v -0.003993 0.003269 0.001974
v -0.003696 0.003449 0.002070
v -0.003211 0.002969 0.002373
v -0.003711 0.002969 0.002272
v -0.001592 0.000895 0.002957
v 0.044857 0.021994 0.002271
v 0.041901 0.021975 0.002957
v 0.045204 0.021994 0.002053
v 0.045332 0.021994 0.001687
v 0.045327 0.022493 0.001687
v 0.045357 0.022493 0.001187
v 0.045342 0.022996 0.000686
v 0.045318 0.022493 0.000185
v 0.045322 0.021994 0.000185
v 0.045164 0.021491 -0.000127
v 0.044857 0.021491 -0.000331
v 0.044357 0.020992 -0.000462
v 0.043357 0.019488 -0.000472
v 0.042856 0.019488 -0.000475
v -0.002711 0.002969 -0.000475
v -0.003711 0.001967 -0.000475
v -0.004211 0.001465 -0.000462
v -0.003711 0.002467 -0.000457
v -0.003711 0.002969 -0.000371
v -0.003686 0.003443 -0.000181
v -0.003508 0.003755 -0.000099
v -0.002993 0.004245 0.000185
v -0.003557 0.003794 0.000185
v -0.003013 0.004264 0.000686
v -0.003582 0.003816 0.000686
v -0.003835 0.003581 0.000686
v -0.004038 0.003330 0.001187
v -0.004028 0.003311 0.001687
v -0.004261 0.002969 0.001687
v -0.004444 0.002692 0.001687
v -0.004602 0.002441 0.001687
v -0.004543 0.002354 0.002021
v -0.004097 0.002969 0.002056
v -0.003711 0.002467 0.002357
v -0.004251 0.002499 0.002148
v -0.004211 0.001967 0.002317
v -0.004211 0.001465 0.002363
v -0.001745 0.000479 0.002957
v 0.044357 0.020992 0.002363
v 0.044857 0.021491 0.002231
v 0.041742 0.021559 0.002957
v 0.045169 0.021491 0.002013
v 0.045367 0.021994 0.001187
v 0.045263 0.021491 0.001687
v 0.045357 0.022493 0.000686
v 0.045367 0.021994 0.000686
v 0.045253 0.021491 0.000185
v 0.045124 0.021182 -0.000083
v 0.044763 0.020490 -0.000211
v 0.044887 0.021005 -0.000229
v 0.044357 0.020490 -0.000416
v 0.043857 0.019990 -0.000457
v 0.043357 0.018989 -0.000384
v 0.042856 0.018989 -0.000464
v 0.041851 0.018489 -0.000475
v 0.042356 0.018989 -0.000475
v 0.043857 0.019488 -0.000371
v -0.004211 0.000463 -0.000475
v -0.004211 0.000965 -0.000474
v -0.004211 0.001967 -0.000416
v -0.004711 0.000463 -0.000371
v -0.004711 0.000965 -0.000331
v -0.004246 0.002492 -0.000259
v -0.004082 0.002969 -0.000169
v -0.003988 0.003256 -0.000092
v -0.003805 0.003552 0.000185
v -0.004018 0.003304 0.000185
v -0.004038 0.003330 0.000686
v -0.004285 0.002969 0.001187
v -0.004459 0.002711 0.001187
v -0.004617 0.002460 0.001187
v -0.004850 0.001967 0.001187
v -0.004820 0.001967 0.001687
v -0.004984 0.001297 0.001965
v -0.004627 0.001967 0.002098
v -0.004711 0.000965 0.002231
v -0.004711 0.000463 0.002271
v -0.001800 -0.000036 0.002957
v 0.044357 0.020490 0.002317
v 0.044773 0.020490 0.002098
v 0.044892 0.020992 0.002119
v 0.041307 0.021047 0.002957
v 0.043357 0.019488 0.002373
v 0.043857 0.019990 0.002357
v 0.045129 0.021160 0.001965
v 0.045288 0.021491 0.001187
v 0.045154 0.021082 0.001687
v 0.045288 0.021491 0.000686
v 0.045149 0.021102 0.000185
v 0.045075 0.020850 0.000185
v 0.044956 0.020490 0.000185
v 0.044684 0.020116 -0.000139
v 0.044392 0.019965 -0.000259
v 0.043307 0.018518 -0.000161
v 0.042856 0.018489 -0.000341
v 0.042356 0.018489 -0.000451
v 0.043832 0.019014 -0.000181
v 0.041351 0.017987 -0.000462
v 0.040351 0.017487 -0.000468
v 0.039351 0.016985 -0.000472
v 0.038350 0.016486 -0.000474
v 0.033839 0.013979 -0.000475
v 0.016820 0.004470 -0.000475
v 0.012313 0.001967 -0.000475
v 0.044228 0.019488 -0.000169
v -0.004211 -0.000539 -0.000475
v -0.004617 0.001967 -0.000211
v -0.004711 -0.000036 -0.000371
v -0.005048 0.000463 -0.000166
v -0.005018 0.000965 -0.000127
v -0.004741 0.001452 -0.000229
v -0.004538 0.002341 -0.000139
v -0.004597 0.002434 0.000185
v -0.004439 0.002682 0.000185
v -0.004246 0.002969 0.000185
v -0.004285 0.002969 0.000686
v -0.004459 0.002711 0.000686
v -0.004617 0.002460 0.000686
v -0.004850 0.001967 0.000686
v -0.004949 0.001661 0.001187
v -0.004934 0.001623 0.001687
v -0.005008 0.001375 0.001687
v -0.005117 0.000965 0.001687
v -0.005023 0.000965 0.002013
v -0.004746 0.001465 0.002119
v -0.005058 0.000463 0.002053
v -0.004711 -0.000036 0.002271
v -0.001785 -0.000272 0.002957
v 0.043857 0.019488 0.002272
v 0.044396 0.019958 0.002148
v 0.044689 0.020103 0.002021
v 0.042356 0.018489 0.002352
v 0.042856 0.018989 0.002365
v 0.025728 0.011122 0.002957
v 0.043357 0.018989 0.002285
v 0.045080 0.020834 0.001687
v 0.044966 0.020490 0.001687
v 0.045095 0.020796 0.001187
v 0.045095 0.020796 0.000686
v 0.044996 0.020490 0.000686
v 0.044743 0.020023 0.000185
v 0.044134 0.019201 -0.000092
v 0.042856 0.018141 -0.000147
v 0.043654 0.018702 -0.000099
v 0.042361 0.017964 -0.000240
v 0.041851 0.017987 -0.000396
v 0.040851 0.017487 -0.000416
v 0.039851 0.016985 -0.000432
v 0.038850 0.016486 -0.000445
v 0.032339 0.012981 -0.000466
v 0.037845 0.015983 -0.000456
v 0.016319 0.003968 -0.000460
v 0.011813 0.001465 -0.000462
v 0.035845 0.014981 -0.000469
v 0.015319 0.003468 -0.000467
v 0.030338 0.011979 -0.000473
v 0.031338 0.012478 -0.000471
v 0.009808 0.000463 -0.000472
v 0.008807 -0.000036 -0.000474
v 0.004301 -0.002539 -0.000475
v 0.007807 -0.000539 -0.000475
v -0.003711 -0.002040 -0.000475
v -0.004211 -0.001038 -0.000473
v -0.004979 0.001275 -0.000083
v -0.004711 -0.000539 -0.000361
v -0.005048 -0.000036 -0.000166
v -0.005177 0.000463 0.000185
v -0.005107 0.000965 0.000185
v -0.004810 0.001967 0.000185
v -0.004929 0.001606 0.000185
v -0.004949 0.001661 0.000686
v -0.005142 0.000965 0.001187
v -0.005221 0.000463 0.001187
v -0.005187 0.000463 0.001687
v -0.005058 -0.000036 0.002052
v -0.004711 -0.000539 0.002261
v -0.004211 -0.001038 0.002374
v -0.001735 -0.000552 0.002957
v -0.004211 -0.001541 0.002355
v 0.043842 0.019008 0.002070
v 0.044243 0.019488 0.002056
v 0.044748 0.020016 0.001687
v 0.044139 0.019188 0.001974
v 0.041851 0.017987 0.002297
v 0.042856 0.018489 0.002242
v 0.024752 0.010568 0.002957
v 0.043317 0.018512 0.002050
v 0.044996 0.020490 0.001187
v 0.044763 0.019997 0.000686
v 0.044604 0.019746 0.000686
v 0.044585 0.019775 0.000185
v 0.044392 0.019488 0.000185
v 0.044164 0.019153 0.000185
v 0.043951 0.018905 0.000185
v 0.043109 0.018232 -0.000070
v 0.042198 0.017690 -0.000115
v 0.043703 0.018663 0.000185
v 0.041851 0.017590 -0.000191
v 0.040351 0.016985 -0.000327
v 0.036345 0.014981 -0.000421
v 0.039351 0.016486 -0.000355
v 0.038350 0.015983 -0.000380
v 0.016820 0.003968 -0.000391
v 0.012313 0.001465 -0.000397
v 0.015819 0.003468 -0.000411
v 0.035344 0.014482 -0.000436
v 0.034344 0.013979 -0.000449
v 0.010313 0.000463 -0.000432
v 0.007307 -0.001038 -0.000464
v 0.029833 0.011477 -0.000452
v 0.008307 -0.000539 -0.000456
v 0.003801 -0.003042 -0.000459
v 0.006307 -0.001541 -0.000469
v 0.002801 -0.003541 -0.000466
v 0.005301 -0.002040 -0.000473
v 0.003301 -0.003042 -0.000475
v -0.003711 -0.002539 -0.000450
v -0.004211 -0.001541 -0.000454
v -0.002711 -0.003042 -0.000475
v -0.003211 -0.003042 -0.000464
v -0.005003 0.001355 0.000185
v -0.004711 -0.001038 -0.000326
v -0.005038 -0.000539 -0.000156
v -0.005172 -0.000036 0.000185
v -0.005221 0.000463 0.000686
v -0.005142 0.000965 0.000686
v -0.005211 -0.000036 0.001187
v -0.005182 -0.000036 0.001687
v -0.005048 -0.000539 0.002043
v -0.004711 -0.001038 0.002226
v -0.001651 -0.000758 0.002957
v -0.004211 -0.002040 0.002300
v -0.003711 -0.002539 0.002351
v -0.001572 -0.000945 0.002957
v 0.043664 0.018695 0.001980
v 0.044590 0.019765 0.001687
v 0.044763 0.019997 0.001187
v 0.043961 0.018895 0.001687
v 0.044174 0.019146 0.001687
v 0.044406 0.019488 0.001687
v 0.038350 0.015983 0.002281
v 0.039351 0.016486 0.002257
v 0.040351 0.016985 0.002226
v 0.042366 0.017961 0.002129
v 0.040851 0.017487 0.002316
v 0.036345 0.014981 0.002321
v 0.015819 0.003468 0.002312
v 0.012313 0.001465 0.002298
v 0.016820 0.003968 0.002292
v 0.042856 0.018132 0.002033
v 0.022202 0.009138 0.002957
v 0.043119 0.018225 0.001950
v 0.044604 0.019746 0.001187
v 0.044431 0.019488 0.000686
v 0.044184 0.019127 0.000686
v 0.043981 0.018876 0.000686
v 0.043139 0.018212 0.000185
v 0.042856 0.018009 0.000185
v 0.042525 0.017784 0.000185
v 0.041569 0.017255 0.000075
v 0.040603 0.016734 -0.000067
v 0.043728 0.018641 0.000686
v 0.040351 0.016669 -0.000129
v 0.039351 0.016141 -0.000154
v 0.038350 0.015609 -0.000176
v 0.037345 0.015078 -0.000197
v 0.035845 0.014482 -0.000336
v 0.034844 0.013979 -0.000363
v 0.032839 0.012565 -0.000203
v 0.015819 0.003050 -0.000206
v 0.010813 0.000463 -0.000328
v 0.018825 0.004970 -0.000340
v 0.006807 -0.001541 -0.000421
v 0.030338 0.011477 -0.000370
v 0.004301 -0.003042 -0.000388
v 0.003301 -0.003541 -0.000409
v 0.018325 0.004970 -0.000438
v 0.004801 -0.002539 -0.000449
v 0.005802 -0.002040 -0.000436
v 0.002301 -0.004044 -0.000421
v 0.001796 -0.004044 -0.000466
v 0.001295 -0.004044 -0.000475
v -0.003711 -0.003042 -0.000338
v -0.004211 -0.002040 -0.000399
v -0.003211 -0.003541 -0.000364
v -0.002211 -0.003541 -0.000475
v -0.001705 -0.004044 -0.000472
v -0.002711 -0.003541 -0.000457
v -0.004731 -0.001518 -0.000224
v -0.005008 -0.001038 -0.000123
v -0.005157 -0.000539 0.000185
v -0.005211 -0.000036 0.000686
v -0.005196 -0.000539 0.001187
v -0.005162 -0.000539 0.001687
v -0.005018 -0.001038 0.002009
v -0.004736 -0.001528 0.002114
v -0.004602 -0.002040 0.002081
v -0.004246 -0.002565 0.002135
v -0.003711 -0.003042 0.002238
v -0.003211 -0.003541 0.002266
v -0.003211 -0.003042 0.002364
v -0.001463 -0.001083 0.002957
v 0.043708 0.018657 0.001687
v 0.043981 0.018876 0.001187
v 0.044184 0.019127 0.001187
v 0.044431 0.019488 0.001187
v 0.030338 0.011477 0.002271
v 0.034844 0.013979 0.002264
v 0.008807 -0.000539 0.002282
v 0.018825 0.004970 0.002241
v 0.035845 0.014482 0.002236
v 0.041851 0.017581 0.002079
v 0.010813 0.000463 0.002227
v 0.002801 -0.004044 0.002214
v 0.032339 0.012478 0.002212
v 0.035330 0.013970 0.002102
v 0.042208 0.017681 0.001997
v 0.018672 0.007160 0.002957
v 0.017711 0.006622 0.002957
v 0.006807 -0.001541 0.002322
v 0.003301 -0.003541 0.002309
v 0.004301 -0.003042 0.002289
v 0.043144 0.018206 0.001687
v 0.042535 0.017777 0.001687
v 0.042856 0.017996 0.001687
v 0.043159 0.018193 0.000686
v 0.042856 0.017971 0.000686
v 0.042559 0.017764 0.000686
v 0.041609 0.017233 0.000408
v 0.042277 0.017642 0.000185
v 0.031611 0.011715 -0.000078
v 0.035845 0.014157 -0.000136
v 0.037112 0.014724 0.000359
v 0.020058 0.005230 -0.000001
v 0.015562 0.002721 -0.000043
v 0.011065 0.000212 -0.000067
v 0.043728 0.018641 0.001187
v 0.031338 0.011644 -0.000143
v 0.014319 0.002128 -0.000147
v 0.004301 -0.003425 -0.000183
v 0.007807 -0.001444 -0.000198
v 0.014319 0.002467 -0.000348
v 0.008807 -0.000539 -0.000381
v 0.003301 -0.003957 -0.000203
v 0.006307 -0.002040 -0.000336
v 0.005301 -0.002539 -0.000364
v 0.002840 -0.004089 -0.000268
v 0.002301 -0.004462 -0.000216
v 0.001295 -0.004543 -0.000376
v 0.000795 -0.004543 -0.000426
v 0.000295 -0.004543 -0.000438
v -0.000205 -0.004543 -0.000445
v -0.001205 -0.004044 -0.000475
v -0.003676 -0.003493 -0.000156
v -0.004063 -0.003042 -0.000144
v -0.004241 -0.002559 -0.000246
v -0.004592 -0.002040 -0.000194
v -0.003211 -0.003918 -0.000171
v -0.003488 -0.003821 -0.000093
v -0.002211 -0.004044 -0.000426
v -0.002735 -0.004076 -0.000260
v -0.000705 -0.004543 -0.000429
v -0.004979 -0.001338 -0.000084
v -0.005093 -0.001038 0.000185
v -0.005196 -0.000539 0.000686
v -0.005132 -0.001038 0.001187
v -0.005102 -0.001038 0.001687
v -0.004984 -0.001354 0.001966
v -0.004523 -0.002414 0.002008
v -0.004072 -0.003042 0.002030
v -0.003681 -0.003499 0.002045
v -0.003498 -0.003828 0.001975
v -0.003211 -0.003931 0.002058
v -0.002740 -0.004082 0.002150
v -0.002211 -0.004044 0.002327
v -0.002711 -0.003541 0.002358
v -0.001116 -0.001444 0.002957
v -0.001260 -0.001302 0.002957
v 0.014319 0.002467 0.002249
v 0.005301 -0.002539 0.002265
v 0.006307 -0.002040 0.002237
v 0.039351 0.016128 0.002041
v 0.037345 0.015068 0.002084
v 0.038350 0.015600 0.002063
v 0.002301 -0.004044 0.002322
v 0.002301 -0.004472 0.002104
v 0.003251 -0.004034 0.002061
v 0.004301 -0.003435 0.002070
v 0.007807 -0.001454 0.002085
v 0.040618 0.016727 0.001947
v 0.041579 0.017249 0.001809
v 0.017339 0.006432 0.002957
v 0.042856 0.017971 0.001187
v 0.043159 0.018193 0.001187
v 0.042559 0.017764 0.001187
v 0.041609 0.017233 0.001475
v 0.041861 0.017371 0.000686
v 0.040915 0.016840 0.000686
v 0.036424 0.014327 0.000686
v 0.029085 0.010227 0.000432
v 0.012071 0.000711 0.000403
v 0.015601 0.002699 0.000291
v 0.006569 -0.002298 -0.000073
v 0.003038 -0.004285 -0.000024
v 0.006307 -0.002365 -0.000137
v 0.002702 -0.004369 -0.000142
v 0.001815 -0.004582 -0.000248
v 0.001662 -0.004833 -0.000108
v 0.001295 -0.004894 -0.000171
v 0.000795 -0.004949 -0.000221
v 0.000295 -0.004962 -0.000233
v -0.000205 -0.004971 -0.000240
v -0.003963 -0.003296 -0.000068
v -0.004518 -0.002401 -0.000126
v -0.002587 -0.004372 -0.000140
v -0.003211 -0.004082 0.000185
v -0.003528 -0.003854 0.000185
v -0.001968 -0.004797 -0.000069
v -0.002681 -0.004437 0.000185
v -0.002929 -0.004272 0.000185
v -0.001205 -0.004543 -0.000379
v -0.001705 -0.004543 -0.000308
v -0.002161 -0.004543 -0.000192
v -0.000705 -0.004952 -0.000224
v -0.004909 -0.001653 0.000185
v -0.005003 -0.001402 0.000185
v -0.004761 -0.002040 0.000185
v -0.005132 -0.001038 0.000686
v -0.005018 -0.001447 0.001187
v -0.005008 -0.001418 0.001687
v -0.004914 -0.001666 0.001687
v -0.004771 -0.002040 0.001687
v -0.004568 -0.002497 0.001687
v -0.004434 -0.002749 0.001687
v -0.003968 -0.003306 0.001948
v -0.003785 -0.003577 0.001687
v -0.003533 -0.003860 0.001687
v -0.003211 -0.004095 0.001687
v -0.002938 -0.004279 0.001687
v -0.002686 -0.004443 0.001687
v -0.001978 -0.004804 0.001949
v -0.002597 -0.004382 0.002022
v -0.002171 -0.004546 0.002081
v -0.001705 -0.004543 0.002208
v -0.001205 -0.004543 0.002279
v -0.000705 -0.004543 0.002331
v -0.001705 -0.004044 0.002373
v -0.000908 -0.001560 0.002957
v 0.005301 -0.002907 0.002048
v 0.014319 0.002119 0.002034
v 0.003053 -0.004295 0.001939
v 0.000820 -0.001621 0.002957
v 0.001796 -0.004044 0.002367
v 0.000795 -0.004543 0.002328
v 0.001295 -0.004543 0.002277
v 0.001830 -0.004585 0.002138
v 0.001295 -0.004904 0.002058
v 0.001682 -0.004839 0.001990
v 0.002801 -0.004356 0.002003
v 0.032591 0.012227 0.001938
v 0.040643 0.016711 0.001687
v 0.041861 0.017371 0.001187
v 0.029085 0.010227 0.001442
v 0.036424 0.014327 0.001187
v 0.040915 0.016840 0.001187
v 0.032611 0.012217 0.001687
v 0.037112 0.014724 0.001545
v 0.012071 0.000711 0.001483
v 0.005935 -0.002726 0.000686
v 0.004737 -0.003396 0.000686
v 0.003088 -0.004317 0.000686
v 0.007574 -0.001798 0.000354
v 0.003078 -0.004308 0.000310
v 0.002840 -0.004411 0.000160
v 0.002251 -0.004691 0.000221
v 0.001999 -0.004775 0.000078
v 0.001295 -0.005036 0.000185
v 0.000795 -0.005142 0.000185
v 0.000295 -0.005168 0.000185
v -0.000205 -0.005187 0.000185
v -0.003775 -0.003570 0.000185
v -0.003983 -0.003319 0.000185
v -0.004201 -0.003042 0.000185
v -0.004429 -0.002739 0.000185
v -0.004563 -0.002488 0.000185
v -0.003211 -0.004121 0.000686
v -0.002958 -0.004292 0.000686
v -0.003548 -0.003873 0.000686
v -0.003800 -0.003593 0.000686
v -0.001705 -0.004830 -0.000106
v -0.001205 -0.004894 -0.000173
v -0.000705 -0.005152 0.000185
v -0.001205 -0.005036 0.000185
v -0.001705 -0.004897 0.000185
v -0.002003 -0.004814 0.000185
v -0.002255 -0.004688 0.000185
v -0.002290 -0.004710 0.000686
v -0.002706 -0.004459 0.000686
v -0.004800 -0.002040 0.000686
v -0.004929 -0.001695 0.000686
v -0.005018 -0.001447 0.000686
v -0.004929 -0.001695 0.001187
v -0.004800 -0.002040 0.001187
v -0.004587 -0.002520 0.001187
v -0.004449 -0.002771 0.001187
v -0.004211 -0.003042 0.001687
v -0.003988 -0.003325 0.001687
v -0.003800 -0.003593 0.001187
v -0.003548 -0.003873 0.001187
v -0.003211 -0.004121 0.001187
v -0.002958 -0.004292 0.001187
v -0.002706 -0.004459 0.001187
v -0.002290 -0.004710 0.001187
v -0.002265 -0.004691 0.001687
v -0.002012 -0.004817 0.001687
v -0.001705 -0.004907 0.001687
v -0.001205 -0.005042 0.001687
v -0.000705 -0.005161 0.001687
v -0.001705 -0.004839 0.001991
v -0.001205 -0.004904 0.002060
v -0.000705 -0.004962 0.002112
v -0.000205 -0.004981 0.002128
v -0.000205 -0.004543 0.002346
v -0.000205 -0.001750 0.002957
v -0.000502 -0.001702 0.002957
v -0.000705 -0.001641 0.002957
v 0.006307 -0.002375 0.002023
v 0.002013 -0.004781 0.001804
v 0.002251 -0.004698 0.001657
v 0.002801 -0.004446 0.001687
v 0.003073 -0.004305 0.001687
v 0.007574 -0.001798 0.001552
v 0.000295 -0.001750 0.002957
v 0.000295 -0.004543 0.002340
v 0.000295 -0.004971 0.002121
v 0.000795 -0.004955 0.002109
v 0.000795 -0.005149 0.001687
v 0.001295 -0.005045 0.001687
v 0.005935 -0.002726 0.001187
v 0.003088 -0.004317 0.001187
v 0.004737 -0.003396 0.001187
v 0.002801 -0.004475 0.000686
v 0.002053 -0.004797 0.000412
v 0.001295 -0.005074 0.000686
v 0.000795 -0.005181 0.000686
v 0.000295 -0.005203 0.000686
v -0.000205 -0.005223 0.000686
v -0.000705 -0.005190 0.000686
v -0.004003 -0.003341 0.000686
v -0.004449 -0.002771 0.000686
v -0.004587 -0.002520 0.000686
v -0.001205 -0.005074 0.000686
v -0.001705 -0.004933 0.000686
v -0.002037 -0.004830 0.000686
v -0.004003 -0.003341 0.001187
v -0.002037 -0.004830 0.001187
v -0.001705 -0.004933 0.001187
v -0.001205 -0.005074 0.001187
v -0.000705 -0.005190 0.001187
v -0.000205 -0.005197 0.001687
v 0.001830 -0.004862 0.001657
v 0.002053 -0.004797 0.001470
v 0.002306 -0.004701 0.001187
v 0.002801 -0.004475 0.001187
v 0.000295 -0.005174 0.001687
v 0.000795 -0.005181 0.001187
v 0.001295 -0.005074 0.001187
v 0.002306 -0.004701 0.000686
v 0.002058 -0.004797 0.000686
v 0.001796 -0.004894 0.000686
v 0.000295 -0.005203 0.001187
v -0.000205 -0.005223 0.001187
v 0.001796 -0.004894 0.001187
v 0.002058 -0.004797 0.001187
f 723 798 799
f 723 799 724
f 724 656 723
f 466 429 428
f 470 469 511
f 515 471 514
f 389 428 429
f 589 590 532
f 723 656 722
f 775 776 705
f 973 974 907
f 782 841 842
f 860 931 932
f 982 995 983
f 478 479 436
f 475 480 436
f 340 394 341
f 475 436 435
f 435 396 434
f 431 469 432
f 469 470 432
f 432 394 431
f 515 514 564
f 612 613 564
f 563 612 564
f 564 514 563
f 513 514 471
f 563 514 513
f 513 562 563
f 431 394 393
f 393 394 340
f 387 428 388
f 428 389 388
f 468 469 431
f 386 428 387
f 510 561 509
f 467 509 466
f 467 510 509
f 508 510 467
f 651 597 596
f 798 869 870
f 946 957 956
f 809 880 881
f 521 478 519
f 521 522 478
f 207 289 208
f 443 488 444
f 53 85 44
f 643 585 642
f 642 709 643
f 704 705 639
f 400 399 438
f 438 439 400
f 905 904 912
f 859 931 860
f 936 979 938
f 921 842 920
f 920 842 919
f 919 842 841
f 860 932 933
f 836 777 782
f 904 905 836
f 907 974 908
f 782 777 708
f 777 706 708
f 640 585 643
f 643 708 640
f 640 708 706
f 502 463 462
f 735 805 740
f 740 667 735
f 807 805 735
f 882 810 809
f 809 881 882
f 882 881 874
f 811 810 872
f 805 807 872
f 872 882 874
f 810 882 872
f 811 872 812
f 812 872 807
f 983 995 994
f 841 917 918
f 918 919 841
f 918 917 975
f 918 977 920
f 920 919 918
f 916 917 841
f 841 915 916
f 975 917 916
f 916 971 975
f 916 915 971
f 976 918 975
f 977 918 976
f 606 661 662
f 763 762 828
f 828 762 826
f 688 762 763
f 826 762 754
f 619 684 621
f 683 684 619
f 437 436 479
f 519 478 477
f 478 436 477
f 396 435 397
f 474 435 434
f 474 480 475
f 475 435 474
f 605 660 611
f 394 432 395
f 434 396 395
f 396 341 395
f 395 341 394
f 515 564 565
f 471 470 512
f 512 513 471
f 562 513 512
f 511 562 512
f 512 470 511
f 126 192 190
f 190 127 126
f 81 127 82
f 81 44 85
f 126 127 81
f 268 192 267
f 192 266 267
f 267 266 340
f 340 341 267
f 267 341 268
f 340 266 339
f 339 393 340
f 191 192 126
f 191 266 192
f 126 131 191
f 146 131 94
f 334 388 389
f 306 367 368
f 393 339 368
f 466 428 427
f 427 467 466
f 428 386 427
f 386 426 427
f 443 442 487
f 487 488 443
f 650 651 596
f 716 651 650
f 717 651 716
f 649 644 591
f 591 648 649
f 590 648 591
f 594 644 649
f 482 439 481
f 441 442 400
f 441 483 442
f 786 850 848
f 94 131 147
f 147 95 94
f 130 131 85
f 130 147 131
f 95 147 130
f 96 130 85
f 95 130 96
f 945 946 869
f 957 946 945
f 797 798 723
f 723 796 797
f 796 865 797
f 863 935 936
f 860 933 861
f 861 933 934
f 941 982 983
f 941 981 982
f 953 954 874
f 987 954 953
f 808 815 875
f 875 876 808
f 808 878 809
f 877 876 875
f 877 808 876
f 878 808 877
f 875 956 877
f 956 957 877
f 879 880 809
f 809 878 879
f 879 878 880
f 853 789 852
f 848 850 922
f 850 908 922
f 922 908 974
f 655 722 656
f 655 656 602
f 583 527 582
f 582 638 583
f 526 527 478
f 582 527 526
f 525 579 582
f 525 526 478
f 582 526 525
f 524 525 478
f 582 579 523
f 581 638 523
f 523 638 582
f 478 522 523
f 523 524 478
f 579 525 523
f 525 524 523
f 347 346 345
f 347 272 271
f 400 442 403
f 403 442 443
f 290 351 291
f 82 83 42
f 42 81 82
f 44 81 42
f 53 44 22
f 135 207 208
f 775 705 774
f 705 704 774
f 931 859 930
f 930 978 931
f 929 978 930
f 972 905 912
f 782 842 843
f 843 839 782
f 840 839 909
f 782 839 840
f 912 904 840
f 840 836 782
f 904 836 840
f 837 836 907
f 907 908 837
f 837 908 850
f 850 786 837
f 777 836 778
f 778 706 777
f 779 706 778
f 778 837 779
f 836 837 778
f 907 836 906
f 906 836 905
f 906 973 907
f 906 972 973
f 905 972 906
f 838 841 782
f 710 709 776
f 710 776 775
f 643 709 710
f 845 783 844
f 844 847 845
f 989 960 988
f 983 994 988
f 988 994 989
f 961 881 880
f 880 960 961
f 961 960 989
f 506 556 558
f 558 556 555
f 463 502 503
f 607 670 671
f 464 502 462
f 602 656 657
f 874 805 873
f 805 872 873
f 666 739 735
f 735 667 666
f 733 736 666
f 667 607 666
f 672 607 671
f 664 607 672
f 731 802 733
f 735 739 806
f 806 739 812
f 806 807 735
f 806 812 807
f 915 847 903
f 970 971 903
f 971 915 903
f 914 915 841
f 914 847 915
f 914 845 847
f 938 979 980
f 667 740 673
f 740 675 673
f 673 675 610
f 896 965 897
f 894 965 896
f 684 758 759
f 826 754 759
f 759 754 684
f 762 688 761
f 761 754 762
f 683 619 682
f 682 619 618
f 824 825 752
f 825 756 752
f 752 682 751
f 752 684 683
f 752 756 684
f 675 726 658
f 610 675 658
f 658 661 606
f 658 726 661
f 476 518 519
f 519 477 476
f 476 436 480
f 476 477 436
f 618 619 566
f 396 397 342
f 398 435 436
f 398 397 435
f 436 437 398
f 398 342 397
f 434 473 472
f 472 474 434
f 472 471 515
f 676 660 605
f 605 611 560
f 433 395 432
f 433 470 471
f 433 432 470
f 471 472 433
f 433 472 473
f 433 473 434
f 434 395 433
f 677 678 616
f 616 617 565
f 515 565 528
f 126 81 125
f 125 81 85
f 125 131 126
f 85 131 125
f 265 339 266
f 266 191 265
f 306 368 338
f 338 368 339
f 339 265 338
f 94 148 144
f 230 229 276
f 229 230 145
f 94 144 145
f 145 146 94
f 145 230 146
f 306 229 305
f 229 304 305
f 366 367 306
f 367 430 412
f 412 368 367
f 431 393 412
f 393 368 412
f 411 430 367
f 367 366 411
f 465 426 463
f 465 503 508
f 465 427 426
f 508 467 465
f 467 427 465
f 540 539 537
f 442 483 486
f 486 487 442
f 790 789 853
f 716 789 790
f 790 717 716
f 590 589 647
f 647 648 590
f 484 482 481
f 585 586 529
f 585 640 641
f 641 586 585
f 588 586 641
f 641 645 588
f 787 851 788
f 788 714 787
f 223 144 222
f 222 144 148
f 142 93 141
f 142 222 148
f 937 936 938
f 937 863 936
f 935 863 862
f 934 935 862
f 862 861 934
f 864 941 942
f 864 937 938
f 942 867 864
f 863 937 864
f 868 869 798
f 798 867 868
f 944 868 867
f 983 945 944
f 944 941 983
f 944 945 869
f 869 868 944
f 952 953 874
f 815 808 742
f 742 668 741
f 957 945 958
f 958 877 957
f 958 945 983
f 925 926 853
f 853 852 925
f 928 978 929
f 926 927 855
f 858 930 859
f 929 930 858
f 793 792 858
f 723 722 794
f 722 793 794
f 793 858 794
f 584 583 639
f 527 583 584
f 637 704 639
f 639 583 637
f 637 583 638
f 637 703 704
f 637 635 703
f 581 523 580
f 574 521 519
f 695 768 765
f 764 688 763
f 211 293 216
f 221 299 300
f 296 299 220
f 220 299 221
f 220 221 139
f 349 348 289
f 349 282 348
f 348 282 284
f 277 200 278
f 344 399 400
f 348 278 344
f 289 348 352
f 348 403 352
f 208 289 285
f 289 286 285
f 43 42 83
f 53 22 52
f 52 85 53
f 52 96 85
f 95 96 50
f 96 52 50
f 56 92 50
f 50 92 93
f 50 93 94
f 94 95 50
f 44 42 17
f 17 22 44
f 42 43 17
f 84 83 128
f 84 86 45
f 45 43 84
f 84 43 83
f 202 281 203
f 203 281 282
f 201 200 277
f 201 132 200
f 210 209 290
f 290 291 210
f 138 87 137
f 137 211 138
f 138 211 216
f 45 86 46
f 86 87 46
f 206 135 208
f 208 285 206
f 206 285 286
f 193 194 128
f 269 194 193
f 271 272 196
f 270 194 269
f 345 346 270
f 346 347 270
f 767 764 763
f 703 635 701
f 772 703 771
f 842 921 910
f 910 843 842
f 909 839 910
f 839 843 910
f 911 840 909
f 912 840 911
f 782 708 781
f 781 838 782
f 783 845 846
f 841 838 846
f 846 845 841
f 779 837 780
f 780 837 786
f 589 588 646
f 588 645 646
f 646 647 589
f 714 647 646
f 643 710 711
f 711 710 783
f 711 708 643
f 711 783 708
f 785 710 775
f 785 847 844
f 844 783 785
f 783 710 785
f 506 558 552
f 608 607 667
f 667 673 608
f 608 558 555
f 555 607 608
f 610 558 608
f 608 673 610
f 669 607 668
f 670 607 669
f 668 742 669
f 328 386 387
f 65 110 68
f 505 556 506
f 506 464 505
f 555 556 505
f 38 78 79
f 100 92 56
f 141 93 100
f 93 92 100
f 656 724 725
f 725 657 656
f 653 655 602
f 140 139 149
f 950 872 874
f 874 873 950
f 950 873 872
f 739 666 738
f 733 666 734
f 664 731 665
f 665 607 664
f 665 666 607
f 665 734 666
f 665 731 733
f 733 734 665
f 901 968 902
f 968 969 902
f 841 845 913
f 913 914 841
f 845 914 913
f 824 894 895
f 894 896 895
f 895 825 824
f 896 825 895
f 893 824 892
f 893 894 824
f 963 954 987
f 621 684 686
f 684 754 755
f 754 761 755
f 755 686 684
f 755 761 688
f 681 682 618
f 751 682 681
f 757 825 758
f 757 756 825
f 757 758 684
f 684 756 757
f 891 964 962
f 891 963 964
f 813 805 874
f 813 740 805
f 892 824 823
f 824 752 823
f 683 682 753
f 753 752 683
f 682 752 753
f 892 823 822
f 822 823 752
f 820 752 751
f 565 617 567
f 618 566 567
f 618 567 620
f 620 567 617
f 661 726 727
f 728 662 727
f 727 662 661
f 480 474 516
f 474 472 516
f 516 472 515
f 515 528 516
f 516 528 480
f 729 662 728
f 659 676 605
f 659 605 606
f 559 510 508
f 508 560 559
f 561 510 559
f 559 611 561
f 559 560 611
f 508 503 554
f 554 560 508
f 605 560 554
f 606 605 554
f 554 604 606
f 614 565 564
f 614 564 613
f 614 613 677
f 199 191 131
f 199 265 191
f 276 265 199
f 199 230 276
f 131 146 199
f 146 230 199
f 307 229 306
f 306 338 307
f 307 338 265
f 276 229 307
f 307 265 276
f 391 392 335
f 224 144 223
f 224 301 226
f 306 305 365
f 365 366 306
f 391 335 390
f 390 335 334
f 390 334 389
f 410 366 409
f 410 411 366
f 463 503 504
f 504 465 463
f 503 465 504
f 537 539 538
f 539 490 538
f 538 488 537
f 538 490 488
f 449 490 491
f 491 490 539
f 449 446 489
f 489 490 449
f 488 490 489
f 489 444 488
f 489 446 444
f 530 486 483
f 648 647 715
f 482 484 440
f 483 441 440
f 439 482 440
f 400 439 440
f 440 441 400
f 531 529 586
f 531 586 588
f 531 588 589
f 531 589 532
f 532 484 531
f 707 641 640
f 707 706 779
f 707 640 706
f 779 780 707
f 645 641 707
f 924 851 849
f 851 787 849
f 849 787 786
f 849 786 848
f 848 922 849
f 93 142 143
f 143 142 148
f 94 93 143
f 143 148 94
f 981 941 940
f 941 864 940
f 865 864 866
f 866 864 867
f 866 797 865
f 798 797 866
f 866 867 798
f 943 867 942
f 943 944 867
f 942 941 943
f 941 944 943
f 985 952 951
f 881 961 951
f 874 881 951
f 951 952 874
f 732 672 671
f 664 672 732
f 732 803 802
f 802 803 804
f 804 736 733
f 733 802 804
f 744 742 808
f 959 960 880
f 880 878 959
f 959 988 960
f 878 877 959
f 877 958 959
f 983 988 959
f 959 958 983
f 924 849 923
f 923 849 922
f 721 793 722
f 721 792 793
f 722 655 721
f 721 655 720
f 720 792 721
f 853 926 854
f 926 855 854
f 927 928 857
f 857 928 929
f 929 858 857
f 857 858 792
f 795 796 723
f 723 794 795
f 795 794 858
f 860 861 795
f 795 859 860
f 795 858 859
f 795 865 796
f 861 862 795
f 795 862 863
f 795 864 865
f 863 864 795
f 636 638 581
f 636 637 638
f 581 580 636
f 522 521 573
f 522 573 578
f 637 636 578
f 577 523 522
f 577 580 523
f 522 578 577
f 577 636 580
f 577 578 636
f 521 574 575
f 634 574 633
f 634 701 635
f 634 575 574
f 693 622 692
f 692 767 693
f 764 767 692
f 690 622 695
f 621 622 568
f 518 566 568
f 568 619 621
f 568 566 619
f 769 765 768
f 698 766 769
f 769 766 765
f 695 765 691
f 691 690 695
f 765 766 691
f 624 622 691
f 622 690 691
f 627 626 698
f 408 405 444
f 444 446 408
f 293 211 292
f 299 355 362
f 405 408 362
f 363 299 362
f 362 407 363
f 362 408 407
f 363 407 406
f 217 293 296
f 296 220 217
f 216 293 217
f 217 138 216
f 217 220 139
f 139 138 217
f 347 344 274
f 274 344 278
f 280 201 279
f 348 284 279
f 279 278 348
f 277 278 279
f 279 201 277
f 402 347 345
f 345 344 402
f 402 344 347
f 401 344 400
f 348 344 401
f 400 403 401
f 401 403 348
f 404 352 403
f 443 444 404
f 404 403 443
f 444 405 404
f 405 352 404
f 51 52 22
f 18 43 45
f 18 17 43
f 128 194 129
f 129 84 128
f 129 132 86
f 86 84 129
f 129 196 197
f 207 135 205
f 202 203 133
f 132 201 133
f 86 132 133
f 135 206 136
f 137 87 136
f 136 206 209
f 136 87 86
f 86 135 136
f 136 210 137
f 209 210 136
f 288 351 290
f 290 209 288
f 209 206 288
f 287 286 351
f 287 206 286
f 351 288 287
f 287 288 206
f 271 196 195
f 194 270 195
f 195 129 194
f 196 129 195
f 195 347 271
f 195 270 347
f 269 344 343
f 343 270 269
f 343 344 345
f 345 270 343
f 771 703 770
f 770 767 771
f 698 769 770
f 768 767 770
f 770 769 768
f 829 767 763
f 763 828 829
f 829 828 826
f 771 767 829
f 829 831 771
f 694 767 768
f 694 768 695
f 695 622 694
f 694 622 693
f 693 767 694
f 835 903 847
f 775 774 835
f 835 785 775
f 847 785 835
f 771 831 832
f 704 703 773
f 703 772 773
f 773 774 704
f 838 781 784
f 784 846 838
f 784 781 708
f 708 783 784
f 783 846 784
f 712 780 786
f 645 707 712
f 712 707 780
f 713 646 645
f 713 712 786
f 645 712 713
f 714 646 713
f 713 787 714
f 786 787 713
f 985 961 990
f 990 961 989
f 900 967 968
f 900 968 901
f 901 832 900
f 900 832 831
f 967 900 966
f 506 552 507
f 507 552 502
f 507 464 506
f 502 464 507
f 553 503 502
f 502 552 553
f 553 554 503
f 553 552 604
f 604 554 553
f 606 604 603
f 604 552 603
f 603 658 606
f 603 552 558
f 603 558 610
f 610 658 603
f 462 463 424
f 463 426 424
f 65 68 67
f 555 505 557
f 557 607 555
f 14 36 15
f 183 262 263
f 75 38 74
f 75 76 38
f 79 78 124
f 800 724 799
f 800 799 798
f 599 653 602
f 720 655 719
f 655 653 719
f 546 595 596
f 596 597 546
f 448 446 449
f 173 246 249
f 108 167 173
f 383 326 325
f 325 326 246
f 109 110 65
f 65 108 109
f 324 325 246
f 219 149 139
f 150 149 219
f 369 370 371
f 139 221 297
f 221 300 297
f 687 755 688
f 686 755 687
f 687 688 621
f 621 686 687
f 874 954 955
f 954 963 955
f 963 891 955
f 886 891 962
f 819 891 886
f 748 675 747
f 747 675 740
f 747 818 748
f 819 818 747
f 887 886 962
f 887 888 819
f 819 886 887
f 821 822 752
f 752 820 821
f 819 888 885
f 885 818 819
f 565 567 520
f 480 528 520
f 520 528 565
f 520 476 480
f 518 476 517
f 517 566 518
f 517 567 566
f 476 520 517
f 517 520 567
f 746 675 748
f 746 726 675
f 760 727 726
f 726 746 760
f 760 746 817
f 748 818 816
f 816 746 748
f 817 746 816
f 679 620 617
f 685 620 679
f 679 616 678
f 617 616 679
f 663 729 676
f 662 729 663
f 676 659 663
f 606 662 663
f 663 659 606
f 615 616 565
f 565 614 615
f 677 616 615
f 615 614 677
f 337 262 260
f 337 335 392
f 334 335 259
f 228 304 229
f 229 145 228
f 228 302 303
f 303 304 228
f 120 121 76
f 225 224 226
f 144 224 225
f 226 145 225
f 225 145 144
f 587 591 644
f 537 488 536
f 542 541 536
f 541 540 536
f 536 540 537
f 939 864 938
f 939 940 864
f 981 940 939
f 939 980 981
f 938 980 939
f 984 961 985
f 985 951 984
f 984 951 961
f 730 731 664
f 664 732 730
f 802 731 730
f 730 732 802
f 811 812 737
f 737 810 811
f 736 804 737
f 737 804 803
f 809 810 737
f 737 666 736
f 737 738 666
f 812 739 737
f 739 738 737
f 737 808 809
f 737 744 808
f 745 732 671
f 671 744 745
f 803 732 745
f 745 737 803
f 744 737 745
f 671 670 743
f 743 744 671
f 742 744 743
f 670 669 743
f 743 669 742
f 792 855 856
f 856 857 792
f 856 855 927
f 927 857 856
f 632 573 521
f 632 578 573
f 635 637 632
f 637 578 632
f 621 688 689
f 689 622 621
f 689 692 622
f 688 764 689
f 764 692 689
f 518 568 569
f 569 568 622
f 519 518 569
f 569 570 519
f 569 622 624
f 626 627 569
f 569 627 628
f 698 770 699
f 699 770 703
f 699 627 698
f 628 627 699
f 699 696 628
f 445 408 446
f 445 448 447
f 446 448 445
f 212 210 291
f 291 294 212
f 137 210 212
f 354 291 351
f 351 294 354
f 354 294 291
f 351 286 350
f 350 294 351
f 350 286 289
f 289 294 350
f 353 294 289
f 355 294 353
f 289 352 353
f 353 352 405
f 405 362 353
f 353 362 355
f 296 293 358
f 293 292 358
f 272 347 273
f 347 274 273
f 273 274 197
f 273 196 272
f 197 196 273
f 197 274 275
f 275 274 278
f 280 279 204
f 204 279 284
f 202 133 204
f 204 281 202
f 204 201 280
f 204 133 201
f 282 281 204
f 204 284 282
f 91 50 52
f 52 51 91
f 91 51 50
f 45 46 19
f 19 18 45
f 99 100 56
f 56 55 99
f 56 50 57
f 50 49 57
f 50 51 21
f 21 49 50
f 21 51 22
f 8 49 21
f 200 132 198
f 132 129 198
f 198 129 197
f 197 275 198
f 198 278 200
f 198 275 278
f 283 203 282
f 283 205 203
f 282 349 283
f 207 205 283
f 289 207 283
f 283 349 289
f 203 205 134
f 134 133 203
f 134 205 135
f 134 135 86
f 86 133 134
f 827 829 826
f 827 896 897
f 831 829 827
f 826 759 827
f 827 759 758
f 758 825 827
f 827 825 896
f 903 835 834
f 834 835 774
f 774 773 834
f 830 772 771
f 771 832 830
f 830 832 772
f 965 966 898
f 897 965 898
f 898 827 897
f 986 952 985
f 987 953 986
f 953 952 986
f 985 990 996
f 73 34 33
f 33 34 14
f 35 73 74
f 35 34 73
f 74 38 35
f 14 34 35
f 35 36 14
f 65 67 30
f 68 66 30
f 30 67 68
f 668 607 609
f 607 557 609
f 39 15 38
f 14 15 4
f 78 38 77
f 38 76 77
f 77 124 78
f 260 262 261
f 262 183 261
f 76 75 116
f 801 725 724
f 724 800 801
f 798 870 871
f 871 800 798
f 547 546 597
f 497 546 547
f 547 498 497
f 651 717 652
f 653 599 652
f 601 551 602
f 600 599 602
f 602 551 600
f 495 543 544
f 544 496 495
f 497 496 544
f 545 543 595
f 595 546 545
f 545 544 543
f 545 546 497
f 497 544 545
f 414 445 447
f 242 165 241
f 246 173 250
f 249 246 175
f 246 326 252
f 172 109 108
f 172 173 249
f 108 173 172
f 249 175 172
f 172 175 109
f 421 423 383
f 457 423 421
f 422 457 421
f 460 501 461
f 500 501 460
f 461 423 460
f 455 496 497
f 497 498 455
f 241 171 248
f 246 171 245
f 245 171 240
f 245 324 246
f 218 219 139
f 139 297 218
f 218 297 298
f 150 219 218
f 370 369 308
f 298 297 308
f 309 308 369
f 359 300 299
f 359 297 300
f 751 681 750
f 685 749 680
f 680 620 685
f 680 681 618
f 618 620 680
f 749 750 680
f 680 750 681
f 874 955 883
f 819 884 883
f 883 813 874
f 813 883 814
f 814 883 884
f 740 813 814
f 814 747 740
f 814 884 819
f 819 747 814
f 364 304 303
f 364 305 304
f 364 365 305
f 409 366 364
f 366 365 364
f 336 337 260
f 335 337 336
f 260 259 336
f 336 259 335
f 387 388 333
f 388 334 333
f 334 259 333
f 227 145 226
f 227 228 145
f 302 228 227
f 226 301 227
f 301 302 227
f 119 120 76
f 485 530 483
f 485 534 530
f 483 440 485
f 485 440 484
f 485 484 532
f 530 534 533
f 533 587 530
f 533 485 532
f 534 485 533
f 532 590 533
f 590 591 533
f 591 587 533
f 530 587 535
f 535 536 488
f 488 487 535
f 487 486 535
f 486 530 535
f 593 587 644
f 593 594 542
f 644 594 593
f 521 575 576
f 576 632 521
f 635 632 576
f 576 634 635
f 575 634 576
f 626 569 625
f 698 626 625
f 624 691 625
f 625 569 624
f 623 569 628
f 570 569 623
f 628 696 623
f 630 629 700
f 700 701 630
f 633 574 630
f 630 634 633
f 701 634 630
f 696 699 702
f 703 701 702
f 702 699 703
f 407 408 413
f 408 445 413
f 445 414 413
f 413 414 374
f 374 407 413
f 295 294 355
f 295 214 294
f 355 292 295
f 294 214 213
f 213 212 294
f 213 214 137
f 137 212 213
f 357 299 296
f 296 358 357
f 357 358 292
f 47 19 46
f 79 124 80
f 8 21 6
f 17 18 6
f 22 17 6
f 6 21 22
f 18 19 6
f 6 19 20
f 833 902 903
f 903 834 833
f 901 902 833
f 833 832 901
f 772 832 833
f 833 773 772
f 833 834 773
f 831 827 899
f 827 898 899
f 899 900 831
f 899 966 900
f 899 898 966
f 991 966 965
f 985 996 997
f 997 986 985
f 967 966 993
f 111 115 73
f 73 33 72
f 72 111 73
f 32 66 69
f 69 33 32
f 70 33 69
f 384 385 424
f 386 328 384
f 384 328 327
f 327 385 384
f 425 464 462
f 462 424 425
f 424 385 425
f 37 35 38
f 36 35 37
f 38 15 37
f 37 15 36
f 28 63 64
f 107 108 65
f 65 63 107
f 107 167 108
f 107 63 106
f 106 163 107
f 163 168 107
f 106 63 105
f 97 149 150
f 140 149 97
f 741 668 674
f 668 609 674
f 40 38 79
f 40 39 38
f 5 4 15
f 124 77 123
f 179 117 113
f 76 116 113
f 113 117 76
f 327 328 254
f 256 330 254
f 178 255 179
f 179 113 178
f 178 113 177
f 178 253 256
f 177 253 178
f 256 254 178
f 178 254 255
f 182 261 183
f 182 259 260
f 260 261 182
f 949 870 869
f 949 871 870
f 500 460 499
f 718 719 653
f 653 652 718
f 717 790 718
f 718 652 717
f 597 651 598
f 651 652 598
f 598 652 599
f 602 657 654
f 654 601 602
f 550 501 500
f 550 598 599
f 599 600 550
f 551 501 550
f 550 600 551
f 378 416 417
f 420 379 419
f 165 242 166
f 166 107 165
f 167 107 166
f 246 252 176
f 176 175 246
f 109 175 176
f 383 325 382
f 382 421 383
f 419 455 456
f 422 420 456
f 456 420 419
f 493 452 492
f 493 494 454
f 454 494 495
f 495 496 454
f 496 455 454
f 454 455 419
f 321 242 241
f 379 420 380
f 157 163 106
f 106 105 157
f 157 168 163
f 319 378 379
f 379 380 319
f 235 160 159
f 314 312 311
f 231 218 298
f 298 308 231
f 308 309 231
f 150 218 231
f 360 299 363
f 360 359 299
f 363 406 360
f 374 373 360
f 360 373 372
f 360 407 374
f 360 406 407
f 360 372 371
f 371 370 360
f 370 308 360
f 360 308 297
f 297 359 360
f 890 891 819
f 889 955 891
f 889 883 955
f 891 890 889
f 819 883 889
f 889 890 819
f 332 333 259
f 188 189 121
f 121 120 188
f 120 187 188
f 118 119 76
f 118 182 183
f 76 117 118
f 184 183 263
f 184 118 183
f 186 187 120
f 120 119 186
f 536 535 592
f 542 536 592
f 592 593 542
f 592 535 587
f 587 593 592
f 698 625 697
f 697 625 691
f 697 766 698
f 697 691 766
f 631 623 696
f 700 629 631
f 696 702 631
f 631 701 700
f 631 702 701
f 572 574 519
f 572 630 574
f 137 214 215
f 214 295 215
f 215 295 292
f 215 211 137
f 215 292 211
f 299 357 361
f 361 355 299
f 88 46 87
f 87 47 88
f 88 47 46
f 89 139 140
f 89 138 139
f 87 138 89
f 89 47 87
f 20 19 48
f 19 47 48
f 992 993 966
f 966 991 992
f 111 72 71
f 71 33 70
f 71 72 33
f 331 385 327
f 327 254 331
f 331 254 330
f 28 64 29
f 29 11 28
f 30 11 29
f 65 30 29
f 29 63 65
f 29 64 63
f 241 165 164
f 165 107 164
f 164 171 241
f 164 107 171
f 171 107 170
f 169 107 168
f 169 170 107
f 240 171 169
f 171 170 169
f 62 63 28
f 62 105 63
f 159 160 104
f 105 62 104
f 160 161 104
f 156 157 104
f 104 157 105
f 31 66 32
f 31 30 66
f 14 4 13
f 32 33 13
f 13 33 14
f 13 31 32
f 79 80 41
f 41 40 79
f 15 39 16
f 16 5 15
f 39 40 16
f 40 41 16
f 28 11 27
f 122 123 77
f 76 121 122
f 122 77 76
f 189 123 122
f 121 189 122
f 112 113 73
f 177 113 112
f 73 115 112
f 115 177 112
f 74 73 114
f 73 113 114
f 114 113 116
f 114 75 74
f 114 116 75
f 180 177 115
f 180 253 177
f 329 254 328
f 255 254 329
f 329 332 255
f 333 332 329
f 329 328 387
f 387 333 329
f 179 255 257
f 947 946 956
f 869 946 947
f 498 547 548
f 548 499 498
f 547 499 548
f 498 499 459
f 459 499 460
f 459 457 422
f 459 423 457
f 459 460 423
f 720 719 791
f 719 718 791
f 791 792 720
f 853 854 791
f 791 790 853
f 791 718 790
f 791 855 792
f 791 854 855
f 549 547 597
f 597 598 549
f 500 499 549
f 549 499 547
f 418 378 417
f 419 379 418
f 379 378 418
f 251 176 252
f 422 421 381
f 421 382 381
f 381 382 325
f 325 324 381
f 381 420 422
f 324 380 381
f 381 380 420
f 422 456 458
f 458 456 455
f 458 455 498
f 458 459 422
f 498 459 458
f 453 452 493
f 493 454 453
f 419 452 453
f 453 454 419
f 242 321 322
f 247 171 246
f 247 248 171
f 241 248 247
f 247 321 241
f 168 157 233
f 317 375 376
f 320 319 380
f 324 245 320
f 320 380 324
f 234 235 159
f 234 311 312
f 310 311 234
f 160 235 236
f 236 234 312
f 314 315 236
f 236 312 314
f 317 236 316
f 316 236 315
f 259 182 258
f 258 332 259
f 255 332 258
f 258 257 255
f 182 257 258
f 185 186 119
f 119 118 185
f 118 184 185
f 571 631 629
f 623 631 571
f 570 623 571
f 519 570 571
f 571 572 519
f 629 630 571
f 630 572 571
f 356 357 292
f 356 361 357
f 356 292 355
f 355 361 356
f 47 89 90
f 90 48 47
f 90 89 140
f 140 97 90
f 240 169 244
f 244 169 168
f 244 233 240
f 168 233 244
f 159 104 158
f 98 97 152
f 4 11 12
f 12 13 4
f 12 11 30
f 30 31 12
f 31 13 12
f 24 49 8
f 24 57 49
f 24 55 56
f 56 57 24
f 48 90 23
f 20 48 23
f 23 7 20
f 4 5 1
f 9 27 10
f 10 11 4
f 10 27 11
f 182 118 181
f 181 257 182
f 181 118 117
f 181 117 179
f 179 257 181
f 948 949 869
f 869 947 948
f 417 450 451
f 451 418 417
f 450 492 451
f 451 492 452
f 451 452 419
f 419 418 451
f 109 176 174
f 176 251 174
f 246 250 323
f 323 322 321
f 323 247 246
f 321 247 323
f 167 166 243
f 243 166 242
f 242 322 243
f 243 173 167
f 243 250 173
f 243 323 250
f 322 323 243
f 156 104 155
f 155 157 156
f 319 320 239
f 239 245 240
f 239 320 245
f 377 375 415
f 377 376 375
f 415 416 377
f 416 378 377
f 378 319 377
f 319 376 377
f 160 236 237
f 317 376 318
f 318 236 317
f 318 376 319
f 319 239 318
f 235 234 313
f 313 236 235
f 234 236 313
f 264 184 263
f 264 185 184
f 186 185 264
f 54 23 90
f 54 97 98
f 54 90 97
f 4 1 3
f 3 10 4
f 9 10 3
f 8 6 2
f 162 233 157
f 157 155 162
f 240 233 162
f 162 104 161
f 162 155 104
f 162 239 240
f 161 239 162
f 238 239 161
f 238 318 239
f 238 161 160
f 160 237 238
f 238 237 236
f 236 318 238
f 151 97 150
f 151 152 97
f 158 153 232
f 159 158 232
f 232 234 159
f 310 234 232
f 154 158 104
f 154 153 158
f 61 104 62
f 103 154 104
f 104 61 103
f 26 61 62
f 26 62 28
f 28 27 26
f 9 25 26
f 26 27 9
f 153 154 102
f 154 103 102
f 61 26 60
f 59 26 25
f 59 60 26
f 59 102 103
f 59 103 61
f 61 60 59
f 102 59 101
f 58 59 25
f 58 101 59
f 469 509 511
f 466 509 469
f 970 995 982
f 982 971 970
f 511 509 562
f 509 561 562
f 466 469 468
f 468 429 466
f 495 494 541
f 542 495 541
f 977 979 936
f 920 977 936
f 920 936 921
f 936 935 921
f 971 982 981
f 975 971 981
f 611 562 561
f 563 562 611
f 611 612 563
f 611 660 612
f 429 468 430
f 430 389 429
f 595 649 648
f 596 595 648
f 594 495 542
f 594 543 495
f 594 649 595
f 595 543 594
f 851 789 716
f 716 788 851
f 789 851 852
f 852 851 924
f 926 922 927
f 927 922 974
f 931 978 972
f 912 931 972
f 969 995 970
f 969 994 995
f 969 968 989
f 989 994 969
f 980 979 977
f 977 976 980
f 975 981 980
f 980 976 975
f 342 341 396
f 268 341 342
f 612 660 676
f 676 613 612
f 412 430 468
f 412 468 431
f 540 541 494
f 540 494 493
f 928 927 974
f 974 973 928
f 928 972 978
f 973 972 928
f 193 438 399
f 639 705 193
f 82 127 193
f 585 529 193
f 193 584 639
f 193 479 478
f 193 83 82
f 193 642 585
f 193 398 437
f 193 192 268
f 776 709 193
f 193 705 776
f 481 439 193
f 193 190 192
f 478 527 193
f 128 83 193
f 399 344 193
f 709 642 193
f 439 438 193
f 193 437 479
f 127 190 193
f 268 342 193
f 342 398 193
f 193 529 481
f 527 584 193
f 193 344 269
f 934 933 910
f 910 933 909
f 910 921 935
f 910 935 934
f 909 933 911
f 911 933 932
f 911 931 912
f 911 932 931
f 902 969 970
f 970 903 902
f 962 964 893
f 892 962 893
f 963 965 894
f 987 965 963
f 963 893 964
f 894 893 963
f 728 678 729
f 729 678 677
f 613 676 729
f 677 613 729
f 302 262 303
f 263 262 302
f 389 430 390
f 430 411 390
f 409 392 410
f 410 392 391
f 410 390 411
f 391 390 410
f 491 450 417
f 491 417 449
f 715 647 714
f 715 714 788
f 715 788 716
f 716 650 715
f 596 648 715
f 715 650 596
f 481 529 531
f 531 484 481
f 923 852 924
f 923 925 852
f 923 922 926
f 926 925 923
f 989 968 990
f 968 967 990
f 415 447 448
f 448 416 415
f 449 417 448
f 417 416 448
f 887 962 892
f 892 822 887
f 821 887 822
f 888 887 821
f 888 821 885
f 885 821 820
f 751 818 885
f 885 820 751
f 817 749 760
f 760 749 685
f 679 760 685
f 727 760 679
f 679 678 728
f 728 727 679
f 414 375 317
f 414 317 374
f 414 447 415
f 415 375 414
f 750 818 751
f 750 816 818
f 750 749 817
f 817 816 750
f 303 262 364
f 262 337 364
f 364 392 409
f 364 337 392
f 100 99 80
f 80 124 100
f 991 965 987
f 987 986 991
f 993 990 967
f 993 996 990
f 384 424 426
f 384 426 386
f 100 124 123
f 141 100 123
f 123 142 141
f 123 189 142
f 492 540 493
f 539 540 492
f 450 491 492
f 492 491 539
f 311 369 371
f 371 314 311
f 310 309 311
f 311 309 369
f 315 314 371
f 371 372 315
f 142 189 188
f 222 142 188
f 223 222 188
f 188 187 223
f 223 187 186
f 186 224 223
f 996 993 992
f 992 997 996
f 992 991 986
f 986 997 992
f 41 80 99
f 41 99 55
f 598 550 549
f 549 550 500
f 374 317 316
f 316 373 374
f 316 315 372
f 372 373 316
f 8 5 24
f 5 16 24
f 24 41 55
f 24 16 41
f 174 68 110
f 174 956 875
f 875 815 174
f 110 109 174
f 174 742 741
f 174 252 326
f 174 66 68
f 70 69 174
f 815 742 174
f 256 253 174
f 174 505 464
f 657 725 174
f 725 801 174
f 174 326 383
f 741 674 174
f 174 557 505
f 464 425 174
f 174 180 115
f 461 501 174
f 383 423 174
f 174 654 657
f 174 330 256
f 174 609 557
f 174 801 800
f 800 871 174
f 551 601 174
f 174 501 551
f 174 947 956
f 174 423 461
f 115 111 174
f 174 69 66
f 174 71 70
f 174 425 385
f 174 674 609
f 385 331 174
f 871 949 174
f 601 654 174
f 111 71 174
f 174 331 330
f 253 180 174
f 949 948 174
f 174 251 252
f 174 948 947
f 263 302 264
f 264 302 301
f 224 186 264
f 301 224 264
f 7 23 3
f 3 23 9
f 2 5 8
f 2 1 5
f 20 7 2
f 2 6 20
f 7 3 2
f 2 3 1
f 232 309 310
f 232 231 309
f 150 231 232
f 232 153 150
f 9 23 25
f 23 54 25
f 150 153 102
f 102 151 150
f 151 102 101
f 152 151 101
f 58 25 54
f 58 54 98
f 152 101 58
f 98 152 58
