v 0.041955 0.022496 0.002958
v 0.041905 0.021978 0.002958
v 0.041935 0.022727 0.002958
v 0.041898 0.022496 0.008517
v 0.041742 0.021561 0.002958
v 0.041855 0.022176 0.008517
v 0.041831 0.021995 0.008517
v 0.041883 0.023008 0.002958
v 0.041863 0.022677 0.008517
v 0.041307 0.021050 0.002958
v 0.041681 0.021620 0.008517
v 0.041505 0.021369 0.008517
v 0.041716 0.023400 0.002958
v 0.041661 0.023333 0.008517
v 0.041752 0.023118 0.008517
v 0.041803 0.022996 0.008517
v 0.040854 0.020832 0.002958
v 0.041345 0.021208 0.008517
v 0.041254 0.021117 0.008517
v 0.041110 0.021030 0.008517
v 0.040854 0.020876 0.008517
v 0.041609 0.023538 0.002958
v 0.041469 0.023584 0.008517
v 0.040331 0.020635 0.002958
v 0.040535 0.020753 0.008517
v 0.041409 0.023757 0.002958
v 0.041378 0.023676 0.008517
v 0.041264 0.023906 0.002958
v 0.039883 0.020635 0.002958
v 0.040375 0.020730 0.008517
v 0.040285 0.020718 0.008517
v 0.041218 0.023839 0.008517
v 0.041052 0.024025 0.002958
v 0.040854 0.024046 0.008517
v 0.039760 0.020655 0.002958
v 0.039932 0.020718 0.008517
v 0.039682 0.020756 0.008517
v 0.040854 0.024106 0.002958
v 0.040353 0.024195 0.008517
v 0.039148 0.020945 0.002958
v 0.039352 0.020907 0.008517
v 0.040650 0.024167 0.002958
v 0.040035 0.024187 0.008517
v 0.040353 0.024217 0.002958
v 0.039853 0.024208 0.002958
v 0.038939 0.021082 0.002958
v 0.038991 0.021145 0.008517
v 0.039853 0.024181 0.008517
v 0.039329 0.024073 0.002958
v 0.038794 0.021255 0.002958
v 0.038740 0.021443 0.008517
v 0.039534 0.024067 0.008517
v 0.039163 0.023974 0.002958
v 0.039146 0.023879 0.008517
v 0.039352 0.024001 0.008517
v 0.038609 0.021479 0.002958
v 0.038572 0.021693 0.008517
v 0.038515 0.021618 0.002958
v 0.038962 0.023850 0.002958
v 0.039030 0.023809 0.008517
v 0.038508 0.021886 0.008517
v 0.038379 0.022012 0.002958
v 0.038534 0.023356 0.002958
v 0.038779 0.023529 0.008517
v 0.038471 0.021995 0.008517
v 0.038338 0.022301 0.002958
v 0.038400 0.022496 0.008517
v 0.038445 0.023145 0.002958
v 0.038581 0.023279 0.008517
v 0.038327 0.022496 0.002958
v 0.038480 0.022996 0.008517
v 0.038387 0.022982 0.002958
v 0.038544 0.023177 0.008517
f 1 4 2
f 10 21 17
f 10 5 12
f 57 62 58
f 5 2 7
f 36 37 29
f 29 37 35
f 24 17 25
f 25 17 21
f 3 4 1
f 3 8 4
f 53 59 60
f 66 67 70
f 66 62 67
f 58 56 51
f 51 57 58
f 56 50 51
f 51 50 46
f 51 46 47
f 67 62 65
f 70 67 72
f 59 63 64
f 60 59 64
f 39 42 44
f 49 48 45
f 45 39 44
f 26 23 22
f 22 23 13
f 14 8 13
f 13 23 14
f 20 21 10
f 10 19 20
f 10 12 18
f 18 19 10
f 11 12 5
f 5 7 11
f 6 2 4
f 6 7 2
f 41 40 35
f 35 37 41
f 46 40 41
f 47 46 41
f 62 57 61
f 61 65 62
f 69 64 63
f 34 33 38
f 38 39 34
f 42 39 38
f 43 45 48
f 39 45 43
f 52 48 49
f 49 55 52
f 49 53 54
f 54 55 49
f 54 53 60
f 28 23 26
f 34 32 28
f 28 33 34
f 30 31 24
f 24 25 30
f 68 69 63
f 72 69 68
f 71 72 67
f 23 28 27
f 27 28 32
f 4 8 9
f 8 16 9
f 8 14 15
f 15 16 8
f 73 69 72
f 72 71 73
f 31 29 24
f 36 29 31
f 68 40 46
f 46 50 68
f 59 53 68
f 1 2 68
f 44 42 68
f 68 66 70
f 68 5 10
f 68 17 24
f 70 72 68
f 68 45 44
f 24 29 68
f 68 2 5
f 10 17 68
f 68 56 58
f 35 40 68
f 13 8 68
f 68 3 1
f 58 62 68
f 68 63 59
f 68 38 33
f 68 50 56
f 68 29 35
f 8 3 68
f 68 53 49
f 62 66 68
f 68 28 26
f 26 22 68
f 49 45 68
f 68 22 13
f 42 38 68
f 33 28 68
f 34 39 73
f 12 11 73
f 73 54 60
f 67 65 73
f 73 25 21
f 73 32 34
f 73 6 4
f 73 51 47
f 60 64 73
f 48 52 73
f 21 20 73
f 73 18 12
f 73 37 36
f 47 41 73
f 57 51 73
f 36 31 73
f 73 61 57
f 73 30 25
f 73 43 48
f 73 71 67
f 73 14 23
f 73 20 19
f 19 18 73
f 73 11 7
f 7 6 73
f 73 41 37
f 23 27 73
f 65 61 73
f 64 69 73
f 39 43 73
f 73 52 55
f 55 54 73
f 4 9 73
f 31 30 73
f 73 15 14
f 73 27 32
f 73 9 16
f 16 15 73
