v 0.045074 0.022823 0.009000
v 0.044867 0.024103 0.009000
v 0.044775 0.022823 0.009300
v 0.045074 0.022823 0.004600
v 0.044019 0.025618 0.009000
v 0.043787 0.025429 0.009300
v 0.044584 0.024004 0.009300
v 0.044867 0.024103 0.004600
v 0.042898 0.022823 0.009300
v 0.044775 0.022823 0.004300
v 0.042704 0.026752 0.009000
v 0.042551 0.026495 0.009300
v 0.044019 0.025618 0.004600
v 0.044584 0.024004 0.004300
v 0.043787 0.025429 0.004300
v 0.040139 0.025251 0.009300
v 0.040139 0.024952 0.009000
v 0.042712 0.022823 0.009114
v 0.042898 0.022823 0.004300
v 0.041081 0.027369 0.009000
v 0.042704 0.026752 0.004600
v 0.041025 0.027074 0.009300
v 0.042551 0.026495 0.004300
v 0.040139 0.027086 0.009300
v 0.042599 0.022823 0.009000
v 0.040139 0.024952 0.004600
v 0.042764 0.022823 0.004434
v 0.040139 0.025251 0.004300
v 0.040139 0.027382 0.009000
v 0.041081 0.027369 0.004600
v 0.041025 0.027074 0.004300
v 0.042599 0.022823 0.004600
v 0.040139 0.027086 0.004300
v 0.040139 0.027382 0.004600
f 2 3 1
f 16 17 9
f 7 2 6
f 3 2 7
f 13 23 21
f 28 19 26
f 11 20 12
f 18 17 25
f 18 9 17
f 6 2 5
f 5 12 6
f 11 12 5
f 8 4 10
f 23 13 15
f 13 8 15
f 32 26 27
f 27 26 19
f 31 33 34
f 30 31 34
f 23 31 30
f 21 23 30
f 22 12 20
f 29 24 22
f 22 20 29
f 14 8 10
f 14 15 8
f 26 32 25
f 25 17 26
f 33 17 16
f 16 24 33
f 33 24 29
f 29 34 33
f 28 26 33
f 33 26 17
f 5 13 21
f 21 11 5
f 1 4 8
f 8 2 1
f 13 5 8
f 8 5 2
f 1 3 27
f 27 19 10
f 27 4 1
f 25 32 27
f 3 9 27
f 10 4 27
f 27 18 25
f 9 18 27
f 30 11 21
f 30 20 11
f 30 34 29
f 29 20 30
f 22 24 16
f 22 7 6
f 22 9 3
f 16 9 22
f 3 7 22
f 6 12 22
f 10 19 14
f 28 33 14
f 14 19 28
f 14 31 23
f 23 15 14
f 33 31 14
