v 0.080352 0.021586 0.001476
v 0.080352 0.022086 0.001476
v 0.081351 0.022086 0.001779
v 0.083028 0.022086 0.002312
v 0.083432 0.022086 0.002444
v 0.083028 0.021586 0.002312
v 0.083432 0.021586 0.002444
v 0.079375 0.021586 0.001189
v 0.079762 0.021586 0.001301
v 0.081351 0.021586 0.001779
v 0.085068 0.021586 0.002999
v 0.086254 0.022086 0.003419
v 0.087312 0.022086 0.003806
v 0.086254 0.021586 0.003419
v 0.085463 0.021586 0.003137
v 0.085463 0.022086 0.003137
v 0.085068 0.022086 0.002999
v 0.075454 0.022086 0.000133
v 0.076236 0.022086 0.000331
v 0.076236 0.021586 0.000331
v 0.071570 0.021586 -0.000764
v 0.072053 0.021586 -0.000661
v 0.072362 0.021586 -0.000593
v 0.076758 0.022086 0.000467
v 0.077193 0.022086 0.000582
v 0.076758 0.021586 0.000467
v 0.077193 0.021586 0.000582
v 0.072362 0.022086 -0.000593
v 0.072820 0.022086 -0.000491
v 0.072820 0.021586 -0.000491
v 0.074671 0.021586 -0.000060
v 0.074671 0.022086 -0.000060
v 0.078951 0.021586 0.001067
v 0.078951 0.022086 0.001067
v 0.079375 0.022086 0.001189
v 0.065387 0.021586 -0.001896
v 0.070161 0.021586 -0.001054
v 0.070161 0.022086 -0.001054
v 0.071570 0.022086 -0.000764
v 0.066521 0.021586 -0.001715
v 0.066521 0.022086 -0.001715
v 0.067417 0.022086 -0.001564
v 0.067417 0.021586 -0.001564
v 0.067720 0.021586 -0.001511
v 0.065886 0.021586 -0.001818
v 0.065886 0.022086 -0.001818
v 0.065387 0.022086 -0.001896
v 0.068205 0.021586 -0.001425
v 0.068205 0.022086 -0.001425
v 0.067720 0.022086 -0.001511
v 0.057732 0.022086 -0.002807
v 0.058284 0.022086 -0.002759
v 0.057732 0.021586 -0.002807
v 0.058284 0.021586 -0.002759
v 0.059072 0.021586 -0.002686
v 0.060306 0.021586 -0.002560
v 0.060306 0.022086 -0.002560
v 0.060838 0.022086 -0.002502
v 0.059072 0.022086 -0.002686
v 0.059838 0.022086 -0.002609
v 0.059838 0.021586 -0.002609
v 0.060838 0.021586 -0.002502
v 0.062804 0.022086 -0.002263
v 0.063326 0.022086 -0.002194
v 0.062804 0.021586 -0.002263
v 0.063326 0.021586 -0.002194
v 0.064224 0.021586 -0.002069
v 0.052294 0.021586 -0.003131
v 0.052294 0.022086 -0.003131
v 0.052981 0.022086 -0.003105
v 0.048365 0.021586 -0.003200
v 0.049405 0.021586 -0.003195
v 0.049405 0.022086 -0.003195
v 0.049832 0.022086 -0.003190
v 0.049832 0.021586 -0.003190
v 0.052981 0.021586 -0.003105
v 0.055065 0.022086 -0.002999
v 0.056305 0.022086 -0.002918
v 0.055065 0.021586 -0.002999
v 0.056305 0.021586 -0.002918
v 0.056315 0.021586 -0.002917
v 0.031414 0.022086 -0.003200
v 0.046816 0.022086 -0.003200
v 0.030115 0.022086 -0.002450
v 0.030115 0.022086 0.016050
v 0.048365 0.021586 0.016800
v 0.046816 0.022086 0.016800
v 0.031414 0.022086 0.016800
v 0.059838 0.021586 0.016209
v 0.059838 0.022086 0.016209
v 0.059072 0.022086 0.016286
v 0.065387 0.021586 0.015496
v 0.064224 0.021586 0.015669
v 0.063326 0.021586 0.015794
v 0.063326 0.022086 0.015794
v 0.062804 0.022086 0.015863
v 0.062804 0.021586 0.015863
v 0.060838 0.021586 0.016102
v 0.058284 0.022086 0.016359
v 0.057732 0.022086 0.016407
v 0.058284 0.021586 0.016359
v 0.057732 0.021586 0.016407
v 0.060838 0.022086 0.016102
v 0.060306 0.022086 0.016160
v 0.060306 0.021586 0.016160
v 0.059072 0.021586 0.016286
v 0.071570 0.022086 0.014364
v 0.070161 0.022086 0.014654
v 0.071570 0.021586 0.014364
v 0.070161 0.021586 0.014654
v 0.068205 0.021586 0.015025
v 0.068205 0.022086 0.015025
v 0.067720 0.022086 0.015111
v 0.067720 0.021586 0.015111
v 0.067417 0.021586 0.015164
v 0.065886 0.021586 0.015418
v 0.065886 0.022086 0.015418
v 0.065387 0.022086 0.015496
v 0.066521 0.021586 0.015315
v 0.066521 0.022086 0.015315
v 0.067417 0.022086 0.015164
v 0.077193 0.021586 0.013018
v 0.077193 0.022086 0.013018
v 0.076758 0.022086 0.013133
v 0.075454 0.022086 0.013467
v 0.074671 0.022086 0.013660
v 0.074671 0.021586 0.013660
v 0.080352 0.021586 0.012124
v 0.079762 0.021586 0.012299
v 0.079375 0.021586 0.012411
v 0.076758 0.021586 0.013133
v 0.076236 0.021586 0.013269
v 0.076236 0.022086 0.013269
v 0.072820 0.022086 0.014091
v 0.072362 0.022086 0.014193
v 0.072820 0.021586 0.014091
v 0.072362 0.021586 0.014193
v 0.079375 0.022086 0.012411
v 0.078951 0.022086 0.012533
v 0.078951 0.021586 0.012533
v 0.072053 0.021586 0.014261
v 0.085463 0.021586 0.010463
v 0.086254 0.021586 0.010181
v 0.086254 0.022086 0.010181
v 0.087312 0.022086 0.009794
v 0.085463 0.022086 0.010463
v 0.085068 0.022086 0.010601
v 0.085068 0.021586 0.010601
v 0.083432 0.021586 0.011156
v 0.081351 0.021586 0.011821
v 0.081351 0.022086 0.011821
v 0.080352 0.022086 0.012124
v 0.083028 0.021586 0.011288
v 0.083028 0.022086 0.011288
v 0.083432 0.022086 0.011156
v 0.056315 0.021586 0.016517
v 0.056305 0.021586 0.016518
v 0.052981 0.021586 0.016705
v 0.052981 0.022086 0.016705
v 0.052294 0.022086 0.016731
v 0.056305 0.022086 0.016518
v 0.055065 0.022086 0.016599
v 0.055065 0.021586 0.016599
v 0.052294 0.021586 0.016731
v 0.049832 0.022086 0.016790
v 0.049405 0.022086 0.016795
v 0.049832 0.021586 0.016790
v 0.049405 0.021586 0.016795
v 0.087356 0.022086 0.009777
v 0.087356 0.021586 0.009777
v 0.087615 0.021586 0.009651
v 0.087853 0.021586 0.009490
v 0.087994 0.022086 0.009368
v 0.087853 0.022086 0.009490
v 0.088453 0.022086 0.008707
v 0.088411 0.022086 0.008798
v 0.088411 0.021586 0.008798
v 0.088615 0.021586 0.007919
v 0.088528 0.021586 0.008500
v 0.088409 0.022086 0.008803
v 0.088409 0.021586 0.008803
v 0.088528 0.022086 0.008500
v 0.088615 0.022086 0.006550
v 0.088615 0.021586 0.005681
v 0.088615 0.022086 0.007050
v 0.088453 0.022086 0.004893
v 0.088528 0.022086 0.005100
v 0.088528 0.021586 0.005100
v 0.088411 0.022086 0.004802
v 0.088411 0.021586 0.004802
v 0.088409 0.021586 0.004797
v 0.088409 0.022086 0.004797
v 0.087994 0.022086 0.004232
v 0.087853 0.022086 0.004110
v 0.087853 0.021586 0.004110
v 0.087615 0.021586 0.003949
v 0.087356 0.021586 0.003823
v 0.087356 0.022086 0.003823
v 0.048365 0.007086 0.016800
v 0.048365 0.007086 -0.003200
v 0.088615 0.016698 0.005681
v 0.088615 0.016698 0.007919
v 0.087423 0.015787 0.004300
v 0.087752 0.015953 0.004491
v 0.084664 0.014471 0.010283
v 0.087822 0.015987 0.004547
v 0.088070 0.016113 0.004820
v 0.088121 0.016140 0.004898
v 0.088272 0.016216 0.005224
v 0.088301 0.016231 0.005329
v 0.087815 0.015984 0.009059
v 0.087699 0.015925 0.009149
v 0.087852 0.016003 0.008622
v 0.087360 0.015756 0.009325
v 0.088294 0.016228 0.008300
v 0.088161 0.016160 0.008633
v 0.088065 0.016111 0.008787
v 0.088343 0.016253 0.005681
v 0.088343 0.016253 0.007919
v 0.088326 0.016244 0.008144
v 0.076359 0.011185 0.012762
v 0.076359 0.011185 0.000838
v 0.079163 0.012185 0.001597
v 0.079163 0.012185 0.012003
v 0.081931 0.013281 0.002424
v 0.081931 0.013281 0.011176
v 0.084664 0.014471 0.003317
v 0.087360 0.015756 0.004275
v 0.075586 0.010928 0.000643
v 0.075586 0.010928 0.012957
v 0.073521 0.010280 0.000148
v 0.073521 0.010280 0.013452
v 0.070649 0.009471 -0.000471
v 0.061659 0.007602 -0.001912
v 0.061659 0.007602 0.015512
v 0.064609 0.008107 -0.001521
v 0.064609 0.008107 0.015121
v 0.067742 0.008759 -0.001019
v 0.067742 0.008759 0.014619
v 0.068932 0.009038 -0.000804
v 0.068932 0.009038 0.014404
v 0.070649 0.009471 0.014071
v 0.087312 0.016204 0.009794
v 0.084619 0.014926 0.010756
v 0.083559 0.019086 0.011114
v 0.081889 0.013742 0.011653
v 0.079762 0.019086 0.012299
v 0.079765 0.012896 0.012298
v 0.079124 0.012653 0.012483
v 0.075925 0.019086 0.013348
v 0.076324 0.011659 0.013246
v 0.073490 0.010759 0.013939
v 0.072053 0.019086 0.014261
v 0.072056 0.010344 0.014260
v 0.070621 0.009955 0.014561
v 0.068151 0.019086 0.015034
v 0.067718 0.009246 0.015112
v 0.064588 0.008599 0.015616
v 0.064224 0.019086 0.015669
v 0.061643 0.008096 0.016008
v 0.060277 0.019086 0.016163
v 0.058690 0.007696 0.016322
v 0.056316 0.007447 0.016517
v 0.055731 0.007396 0.016557
v 0.052343 0.019086 0.016729
v 0.052766 0.007197 0.016713
v 0.049796 0.007098 0.016791
v 0.083559 0.019086 0.002486
v 0.087312 0.016204 0.003806
v 0.049796 0.007098 -0.003191
v 0.052343 0.019086 -0.003129
v 0.056315 0.019086 -0.002917
v 0.055731 0.007396 -0.002957
v 0.052766 0.007197 -0.003113
v 0.060277 0.019086 -0.002563
v 0.058690 0.007696 -0.002722
v 0.056316 0.007447 -0.002917
v 0.072053 0.019086 -0.000661
v 0.070621 0.009955 -0.000961
v 0.068151 0.019086 -0.001434
v 0.067718 0.009246 -0.001512
v 0.064224 0.019086 -0.002069
v 0.064588 0.008599 -0.002016
v 0.061643 0.008096 -0.002408
v 0.075925 0.019086 0.000252
v 0.073490 0.010759 -0.000339
v 0.072056 0.010344 -0.000660
v 0.079762 0.019086 0.001301
v 0.079124 0.012653 0.001117
v 0.076324 0.011659 0.000354
v 0.084619 0.014926 0.002844
v 0.081889 0.013742 0.001947
v 0.079765 0.012896 0.001302
v 0.088592 0.016689 0.008219
v 0.088574 0.019086 0.008321
v 0.088549 0.016673 0.008427
v 0.088453 0.019086 0.008707
v 0.088373 0.016605 0.008871
v 0.088257 0.019086 0.009061
v 0.088246 0.016556 0.009076
v 0.087994 0.019086 0.009368
v 0.087915 0.016431 0.009439
v 0.087674 0.019086 0.009615
v 0.087760 0.016372 0.009558
v 0.087994 0.019086 0.004232
v 0.087923 0.016434 0.004168
v 0.087674 0.019086 0.003985
v 0.087832 0.016399 0.004094
v 0.087394 0.016235 0.003839
v 0.088574 0.019086 0.005279
v 0.088559 0.016676 0.005212
v 0.088453 0.019086 0.004893
v 0.088520 0.016661 0.005072
v 0.088257 0.019086 0.004539
v 0.088321 0.016585 0.004637
v 0.088253 0.016559 0.004533
v 0.048365 0.006836 -0.003133
v 0.049799 0.006848 -0.003124
v 0.052776 0.006947 -0.003046
v 0.055747 0.007148 -0.002889
v 0.058713 0.007449 -0.002654
v 0.055751 0.006965 -0.002707
v 0.058718 0.007268 -0.002472
v 0.061678 0.007671 -0.002158
v 0.064631 0.008177 -0.001765
v 0.067768 0.008830 -0.001260
v 0.061672 0.007852 -0.002339
v 0.064624 0.008357 -0.001946
v 0.067759 0.009008 -0.001439
v 0.070668 0.009720 -0.000888
v 0.073542 0.010528 -0.000264
v 0.070678 0.009544 -0.000710
v 0.073553 0.010354 -0.000087
v 0.076381 0.011432 0.000431
v 0.079185 0.012432 0.001195
v 0.081954 0.013525 0.002028
v 0.084687 0.014714 0.002927
v 0.087383 0.015998 0.003891
v 0.076394 0.011261 0.000607
v 0.079199 0.012262 0.001369
v 0.081969 0.013359 0.002200
v 0.084703 0.014550 0.003097
v 0.087400 0.015837 0.004059
v 0.087460 0.016031 0.003925
v 0.087470 0.015870 0.004090
v 0.087865 0.016205 0.004177
v 0.087950 0.016242 0.004250
v 0.088252 0.016374 0.004600
v 0.088314 0.016401 0.004699
v 0.088495 0.016481 0.005110
v 0.088531 0.016497 0.005241
v 0.088582 0.016519 0.005681
v 0.087837 0.016047 0.004318
v 0.087914 0.016084 0.004384
v 0.088188 0.016217 0.004701
v 0.088244 0.016245 0.004790
v 0.088409 0.016325 0.005163
v 0.088441 0.016341 0.005282
v 0.088487 0.016364 0.005681
v 0.088487 0.016364 0.007919
v 0.088582 0.016519 0.007919
v 0.088561 0.016510 0.008200
v 0.088468 0.016355 0.008174
v 0.088522 0.016493 0.008396
v 0.088362 0.016422 0.008815
v 0.088246 0.016371 0.009009
v 0.087942 0.016238 0.009357
v 0.087800 0.016177 0.009474
v 0.087383 0.015998 0.009709
v 0.088433 0.016337 0.008352
v 0.088288 0.016266 0.008731
v 0.088182 0.016214 0.008907
v 0.087907 0.016080 0.009222
v 0.087778 0.016018 0.009328
v 0.087400 0.015837 0.009541
v 0.079199 0.012262 0.012231
v 0.076394 0.011261 0.012993
v 0.048365 0.006836 0.016733
v 0.055751 0.006965 0.016307
v 0.055747 0.007148 0.016489
v 0.052776 0.006947 0.016646
v 0.049799 0.006848 0.016724
v 0.058718 0.007268 0.016072
v 0.061678 0.007671 0.015758
v 0.064631 0.008177 0.015365
v 0.067768 0.008830 0.014860
v 0.070678 0.009544 0.014310
v 0.058713 0.007449 0.016254
v 0.061672 0.007852 0.015939
v 0.064624 0.008357 0.015546
v 0.067759 0.009008 0.015039
v 0.070668 0.009720 0.014488
v 0.073553 0.010354 0.013687
v 0.073542 0.010528 0.013864
v 0.076381 0.011432 0.013169
v 0.079185 0.012432 0.012405
v 0.081969 0.013359 0.011400
v 0.084703 0.014550 0.010503
v 0.081954 0.013525 0.011572
v 0.084687 0.014714 0.010673
v -0.001137 -0.004560 0.013800
v -0.002491 -0.003986 0.013800
v -0.003600 -0.003021 0.013800
v -0.004358 -0.001761 0.013800
v -0.004689 -0.000328 0.013800
v -0.004560 0.001137 0.013800
v -0.003986 0.002491 0.013800
v 0.007600 0.019552 0.013800
v 0.006111 0.018276 0.013800
v 0.004910 0.016727 0.013800
v 0.000328 -0.004689 0.013800
v -0.004240 0.002650 0.013500
v -0.004851 0.001210 0.013500
v -0.004988 -0.000349 0.013500
v -0.004636 -0.001873 0.013500
v -0.003830 -0.003214 0.013500
v -0.002650 -0.004240 0.013500
v -0.001210 -0.004851 0.013500
v 0.000349 -0.004988 0.013500
v 0.004655 0.016886 0.013500
v -0.004560 0.001137 -0.000200
v -0.003986 0.002491 -0.000200
v 0.000328 -0.004689 -0.000200
v -0.001137 -0.004560 -0.000200
v -0.002491 -0.003986 -0.000200
v -0.003600 -0.003021 -0.000200
v -0.004358 -0.001761 -0.000200
v -0.004689 -0.000328 -0.000200
v 0.004910 0.016727 -0.000200
v 0.006111 0.018276 -0.000200
v 0.007600 0.019552 -0.000200
v -0.004240 0.002650 0.000100
v -0.004851 0.001210 0.000100
v -0.004988 -0.000349 0.000100
v -0.004636 -0.001873 0.000100
v -0.003830 -0.003214 0.000100
v -0.002650 -0.004240 0.000100
v -0.001210 -0.004851 0.000100
v 0.000349 -0.004988 0.000100
v 0.016115 0.021586 -0.002900
v 0.016115 0.021586 0.016500
v 0.013136 0.021586 0.000100
v 0.013136 0.021586 0.013500
v 0.004655 0.016886 0.000100
v 0.012000 0.021522 0.010000
v 0.012000 0.021522 0.003600
v 0.012577 0.021571 0.009944
v 0.012579 0.021571 0.003656
v 0.011125 0.021382 0.000100
v 0.009196 0.020778 0.000100
v 0.007429 0.019798 0.000100
v 0.005894 0.018483 0.000100
v 0.011125 0.021382 0.013500
v 0.009196 0.020778 0.013500
v 0.007429 0.019798 0.013500
v 0.005894 0.018483 0.013500
v 0.029815 0.020586 0.016800
v 0.015415 0.020586 0.016800
v 0.029815 0.007586 0.016800
v 0.015415 0.007586 0.016800
v 0.015765 0.021193 0.016800
v 0.015508 0.020936 0.016800
v 0.016115 0.021286 0.016800
v 0.029115 0.021286 0.016800
v 0.029465 0.021193 0.016800
v 0.029721 0.020936 0.016800
v 0.029465 0.006980 0.016800
v 0.029721 0.007236 0.016800
v 0.029115 0.006886 0.016800
v 0.016115 0.006886 0.016800
v 0.015765 0.006980 0.016800
v 0.015508 0.007236 0.016800
v 0.015415 0.020586 -0.003200
v 0.029815 0.020586 -0.003200
v 0.015415 0.007586 -0.003200
v 0.029815 0.007586 -0.003200
v 0.029465 0.021193 -0.003200
v 0.029721 0.020936 -0.003200
v 0.029115 0.021286 -0.003200
v 0.016115 0.021286 -0.003200
v 0.015765 0.021193 -0.003200
v 0.015508 0.020936 -0.003200
v 0.015765 0.006980 -0.003200
v 0.015508 0.007236 -0.003200
v 0.016115 0.006886 -0.003200
v 0.029115 0.006886 -0.003200
v 0.029465 0.006980 -0.003200
v 0.029721 0.007236 -0.003200
v 0.015615 0.021452 -0.002900
v 0.015615 0.021452 0.016500
f 320 439 423
f 428 421 473
f 381 382 411
f 469 470 411
f 237 384 235
f 421 428 434
f 428 427 434
f 322 439 320
f 320 323 322
f 322 323 439
f 380 381 411
f 380 383 388
f 382 381 266
f 199 469 411
f 406 414 405
f 416 403 404
f 404 405 414
f 460 405 404
f 451 431 452
f 452 431 430
f 413 414 406
f 406 407 413
f 424 438 425
f 485 423 424
f 439 438 424
f 424 423 439
f 425 438 437
f 237 235 419
f 419 380 411
f 384 383 419
f 419 235 384
f 226 205 397
f 388 383 389
f 389 383 384
f 486 423 485
f 416 404 415
f 415 404 414
f 475 427 428
f 475 428 473
f 421 434 433
f 433 422 421
f 432 422 433
f 435 434 427
f 183 184 187
f 263 380 388
f 411 382 378
f 378 199 411
f 382 266 267
f 267 378 382
f 199 378 267
f 402 417 418
f 416 417 402
f 402 403 416
f 402 471 403
f 460 404 472
f 472 404 403
f 403 471 472
f 410 456 420
f 409 456 410
f 444 452 429
f 429 452 430
f 429 432 444
f 429 422 432
f 412 413 407
f 412 410 420
f 407 410 412
f 383 380 379
f 379 419 383
f 380 419 379
f 258 389 390
f 249 396 248
f 423 486 200
f 318 274 319
f 320 423 319
f 423 318 319
f 406 405 458
f 458 405 460
f 455 461 490
f 441 453 490
f 408 461 455
f 409 461 408
f 455 456 408
f 408 456 409
f 455 490 454
f 454 490 453
f 443 453 441
f 178 185 182
f 301 173 302
f 425 426 483
f 483 424 425
f 485 424 483
f 425 437 436
f 436 426 425
f 427 426 436
f 436 435 427
f 296 182 179
f 237 239 385
f 385 384 237
f 385 389 384
f 390 389 385
f 71 83 73
f 441 88 85
f 85 443 441
f 310 187 184
f 228 227 342
f 281 328 283
f 389 258 260
f 388 389 260
f 380 263 264
f 381 380 264
f 264 266 381
f 265 267 266
f 199 459 468
f 470 471 401
f 471 402 401
f 411 470 401
f 401 402 418
f 418 419 401
f 401 419 411
f 126 134 252
f 154 151 246
f 244 400 243
f 243 143 244
f 394 251 252
f 394 392 393
f 397 396 376
f 376 224 226
f 226 397 376
f 246 151 150
f 317 318 423
f 423 200 317
f 270 274 318
f 318 317 270
f 270 317 200
f 270 73 74
f 462 407 406
f 406 458 462
f 462 410 407
f 462 461 409
f 409 410 462
f 450 489 451
f 449 489 450
f 481 431 451
f 451 489 481
f 430 431 481
f 173 299 180
f 180 299 298
f 243 400 369
f 398 397 205
f 398 400 397
f 205 214 398
f 246 248 399
f 399 248 396
f 399 244 246
f 400 244 399
f 399 396 397
f 397 400 399
f 301 302 300
f 300 173 301
f 300 299 173
f 298 299 300
f 484 426 427
f 484 483 426
f 427 475 484
f 352 359 358
f 356 355 349
f 349 355 348
f 297 296 179
f 298 296 297
f 207 355 356
f 361 363 360
f 257 258 390
f 387 241 242
f 393 392 387
f 63 284 58
f 65 284 63
f 332 240 326
f 321 276 284
f 321 323 320
f 320 277 321
f 277 276 321
f 327 284 283
f 283 328 327
f 327 321 284
f 323 321 327
f 328 325 327
f 477 83 71
f 477 479 83
f 194 193 306
f 228 342 343
f 269 309 338
f 338 343 342
f 67 47 283
f 339 229 333
f 232 387 242
f 393 387 232
f 333 229 231
f 332 333 231
f 222 339 223
f 229 339 222
f 262 263 388
f 388 260 262
f 262 106 91
f 164 265 160
f 267 265 164
f 86 166 87
f 165 166 267
f 199 267 168
f 267 166 168
f 86 87 465
f 465 87 464
f 463 88 441
f 441 490 463
f 463 490 461
f 469 199 467
f 199 468 467
f 252 251 127
f 127 126 252
f 252 134 136
f 155 244 147
f 142 244 143
f 395 394 393
f 395 376 396
f 251 394 395
f 249 251 395
f 395 396 249
f 133 251 124
f 122 251 249
f 248 152 129
f 128 152 248
f 128 248 246
f 246 150 128
f 72 270 200
f 73 270 72
f 488 476 200
f 271 69 70
f 271 70 274
f 274 270 271
f 68 271 270
f 69 271 68
f 273 77 78
f 79 77 273
f 274 79 273
f 273 277 320
f 320 319 273
f 273 319 274
f 274 70 76
f 76 79 274
f 449 442 440
f 440 489 449
f 473 421 482
f 421 422 482
f 422 429 482
f 482 429 430
f 430 481 482
f 82 440 84
f 84 440 442
f 453 443 445
f 375 369 400
f 400 398 375
f 375 368 369
f 375 398 214
f 243 171 170
f 304 368 302
f 243 369 304
f 369 368 304
f 174 302 173
f 314 316 193
f 306 193 305
f 305 316 306
f 193 316 305
f 181 180 298
f 178 182 295
f 182 296 295
f 370 364 371
f 362 363 361
f 361 202 362
f 362 370 363
f 364 370 362
f 365 296 298
f 365 364 296
f 371 364 365
f 365 372 371
f 203 214 228
f 203 212 214
f 357 358 209
f 213 207 217
f 371 372 217
f 348 355 354
f 118 258 92
f 255 107 108
f 256 257 255
f 390 385 391
f 391 257 390
f 392 255 391
f 391 255 257
f 239 241 386
f 241 387 386
f 386 385 239
f 386 391 385
f 386 387 392
f 392 391 386
f 78 51 81
f 81 51 277
f 284 276 275
f 59 276 52
f 52 276 54
f 324 234 439
f 439 323 324
f 323 327 324
f 324 327 325
f 238 326 240
f 238 325 326
f 71 474 478
f 478 477 71
f 310 201 311
f 187 310 311
f 316 314 315
f 348 316 315
f 315 349 348
f 198 194 196
f 196 309 198
f 195 194 306
f 292 3 4
f 291 292 268
f 308 195 306
f 194 195 308
f 346 308 306
f 286 29 32
f 47 67 64
f 39 279 38
f 280 279 281
f 330 333 332
f 330 331 333
f 45 281 283
f 333 331 334
f 334 339 333
f 233 240 332
f 332 231 233
f 260 96 103
f 93 258 118
f 97 96 260
f 264 161 162
f 157 264 263
f 263 161 157
f 157 161 264
f 267 164 167
f 167 165 267
f 457 86 466
f 86 465 466
f 126 127 125
f 125 127 251
f 112 113 256
f 114 257 256
f 256 113 114
f 114 113 257
f 246 244 245
f 244 155 245
f 147 244 148
f 244 142 148
f 393 232 230
f 376 395 377
f 377 221 224
f 224 376 377
f 377 395 393
f 377 230 221
f 393 230 377
f 249 139 140
f 140 122 249
f 131 124 251
f 251 122 131
f 138 129 152
f 138 139 249
f 487 200 486
f 487 488 200
f 75 270 74
f 75 68 270
f 80 273 78
f 277 273 80
f 480 481 489
f 489 440 480
f 480 440 82
f 447 445 443
f 443 85 447
f 446 442 449
f 445 447 446
f 367 300 302
f 302 368 367
f 374 212 373
f 368 375 374
f 214 212 374
f 374 375 214
f 373 367 374
f 374 367 368
f 303 171 243
f 243 304 303
f 303 174 171
f 304 174 303
f 171 174 169
f 169 170 171
f 172 304 302
f 302 174 172
f 172 174 304
f 192 314 193
f 192 315 314
f 298 297 177
f 177 181 298
f 296 364 294
f 364 362 294
f 294 362 202
f 294 295 296
f 294 202 178
f 178 295 294
f 210 209 358
f 359 218 210
f 210 358 359
f 216 370 371
f 371 217 216
f 373 212 211
f 211 372 373
f 211 217 372
f 213 217 211
f 204 203 353
f 353 354 204
f 212 203 204
f 204 211 212
f 252 136 254
f 254 255 392
f 254 394 252
f 392 394 254
f 110 255 108
f 256 255 110
f 57 275 60
f 62 58 284
f 284 275 62
f 60 275 61
f 61 275 276
f 53 54 276
f 277 51 53
f 53 276 277
f 325 238 236
f 439 234 236
f 234 324 236
f 236 324 325
f 351 201 352
f 351 311 201
f 352 358 351
f 351 358 357
f 313 186 187
f 312 186 313
f 313 315 312
f 349 315 313
f 197 309 269
f 197 198 309
f 5 291 268
f 17 291 5
f 268 292 6
f 292 4 6
f 269 338 337
f 337 291 269
f 337 338 342
f 19 285 18
f 307 309 196
f 307 308 309
f 196 194 307
f 194 308 307
f 344 338 309
f 309 308 344
f 308 346 344
f 343 338 344
f 347 354 353
f 353 346 347
f 348 354 347
f 347 316 348
f 306 316 347
f 347 346 306
f 286 32 31
f 31 32 18
f 21 279 39
f 283 284 66
f 284 65 66
f 37 38 279
f 279 280 37
f 332 326 329
f 329 330 332
f 329 325 328
f 326 325 329
f 328 281 329
f 281 279 329
f 279 330 329
f 43 42 281
f 49 280 50
f 281 42 50
f 283 47 36
f 36 45 283
f 281 45 40
f 40 43 281
f 290 331 286
f 290 334 331
f 286 31 290
f 18 285 290
f 290 31 18
f 292 291 336
f 291 337 336
f 106 262 89
f 95 93 118
f 160 265 159
f 159 265 266
f 266 264 163
f 264 162 163
f 99 262 91
f 263 262 102
f 102 100 263
f 156 100 161
f 156 161 263
f 263 100 156
f 133 125 250
f 250 125 251
f 141 135 107
f 253 254 141
f 141 254 135
f 257 113 121
f 116 92 258
f 258 257 116
f 149 245 155
f 249 248 130
f 130 138 249
f 272 81 277
f 277 80 272
f 442 446 448
f 448 446 447
f 448 84 442
f 85 84 448
f 448 447 85
f 300 367 366
f 298 300 366
f 366 365 298
f 372 365 366
f 373 372 366
f 366 367 373
f 215 216 209
f 209 210 215
f 370 216 215
f 363 370 215
f 208 217 207
f 208 216 217
f 209 216 208
f 208 207 356
f 356 357 208
f 357 209 208
f 206 204 354
f 355 207 206
f 206 354 355
f 206 207 213
f 213 211 206
f 211 204 206
f 107 255 109
f 255 254 109
f 109 254 253
f 137 254 136
f 135 254 137
f 111 112 256
f 256 110 111
f 275 57 56
f 56 62 275
f 276 59 55
f 55 61 276
f 350 351 357
f 350 357 356
f 356 349 350
f 349 313 350
f 311 351 350
f 350 313 311
f 187 311 188
f 188 313 187
f 311 313 188
f 7 5 268
f 268 6 7
f 11 291 17
f 11 15 291
f 291 15 14
f 269 291 14
f 343 344 345
f 345 344 346
f 345 346 353
f 353 203 345
f 228 343 345
f 345 203 228
f 39 28 22
f 278 22 287
f 287 22 28
f 287 330 279
f 287 21 278
f 279 21 287
f 286 331 287
f 331 330 287
f 282 67 283
f 283 66 282
f 48 280 49
f 48 37 280
f 44 280 281
f 281 50 44
f 44 50 280
f 24 290 19
f 285 19 20
f 20 290 285
f 19 290 20
f 334 290 289
f 289 27 33
f 290 27 289
f 34 35 289
f 289 33 34
f 340 225 223
f 223 339 340
f 339 334 340
f 261 262 260
f 261 89 262
f 261 90 89
f 258 93 259
f 158 159 266
f 266 163 158
f 262 99 101
f 101 102 262
f 132 251 133
f 133 250 132
f 132 250 251
f 257 121 115
f 119 116 257
f 257 115 119
f 245 149 153
f 153 154 246
f 246 245 153
f 248 129 247
f 247 130 248
f 191 190 312
f 312 315 191
f 315 192 191
f 220 215 210
f 218 219 220
f 220 210 218
f 363 215 220
f 219 360 220
f 220 360 363
f 9 35 2
f 10 3 292
f 292 1 10
f 30 29 286
f 286 287 30
f 290 24 26
f 26 27 290
f 293 1 292
f 292 336 293
f 2 1 293
f 293 9 2
f 288 9 293
f 225 340 341
f 227 225 341
f 341 342 227
f 341 337 342
f 341 336 337
f 335 340 334
f 334 289 335
f 336 341 335
f 335 341 340
f 335 293 336
f 289 293 335
f 260 103 98
f 98 261 260
f 90 261 104
f 258 259 94
f 94 260 258
f 94 97 260
f 23 287 28
f 23 30 287
f 288 293 8
f 8 289 35
f 8 293 289
f 261 98 105
f 105 104 261
f 437 438 418
f 418 417 437
f 418 438 419
f 419 438 439
f 456 452 444
f 444 420 456
f 455 451 456
f 451 452 456
f 433 434 414
f 414 413 433
f 414 434 435
f 435 415 414
f 228 214 227
f 227 214 205
f 459 86 457
f 199 86 459
f 412 420 444
f 444 432 412
f 412 433 413
f 432 433 412
f 436 417 416
f 436 437 417
f 415 435 436
f 416 415 436
f 476 474 71
f 71 200 476
f 453 449 450
f 450 454 453
f 450 451 455
f 455 454 450
f 179 182 297
f 297 182 175
f 360 219 218
f 360 218 359
f 360 359 352
f 352 361 360
f 201 310 184
f 201 184 183
f 178 202 201
f 183 185 201
f 201 185 178
f 201 361 352
f 201 202 361
f 224 223 225
f 226 224 225
f 225 227 205
f 225 205 226
f 168 86 199
f 168 166 86
f 463 87 88
f 464 87 463
f 144 243 145
f 144 143 243
f 221 223 224
f 221 222 223
f 151 152 128
f 128 150 151
f 72 200 71
f 71 73 72
f 70 77 76
f 76 77 79
f 238 240 241
f 238 241 239
f 241 240 233
f 242 241 233
f 233 232 242
f 233 231 232
f 160 165 167
f 167 164 160
f 466 458 460
f 466 471 470
f 470 469 466
f 466 459 457
f 460 472 466
f 461 462 466
f 466 472 471
f 466 463 461
f 469 467 466
f 466 468 459
f 466 462 458
f 466 465 464
f 464 463 466
f 466 467 468
f 147 148 146
f 146 148 142
f 143 144 146
f 146 142 143
f 232 231 230
f 230 231 229
f 222 221 230
f 229 222 230
f 139 123 140
f 123 122 140
f 123 124 131
f 131 122 123
f 74 69 75
f 69 68 75
f 485 483 480
f 480 486 485
f 474 476 480
f 480 475 473
f 480 478 474
f 480 484 475
f 473 482 480
f 480 487 486
f 483 484 480
f 479 477 480
f 476 488 480
f 480 482 481
f 477 478 480
f 488 487 480
f 82 83 480
f 83 479 480
f 446 449 453
f 453 445 446
f 145 243 169
f 243 170 169
f 53 51 52
f 52 54 53
f 236 419 439
f 237 419 236
f 236 238 239
f 236 239 237
f 13 198 197
f 197 269 13
f 63 64 66
f 66 65 63
f 47 46 36
f 36 46 45
f 40 46 41
f 45 46 40
f 41 42 40
f 42 43 40
f 272 80 78
f 78 81 272
f 189 186 190
f 190 186 312
f 176 297 175
f 176 177 297
f 180 181 176
f 181 177 176
f 109 141 107
f 253 141 109
f 134 135 137
f 137 136 134
f 108 112 111
f 111 110 108
f 56 57 58
f 58 62 56
f 55 59 60
f 60 61 55
f 4 5 7
f 7 6 4
f 17 16 11
f 11 16 15
f 14 16 12
f 15 16 14
f 14 12 13
f 13 269 14
f 278 21 22
f 22 21 39
f 282 66 64
f 282 64 67
f 49 38 48
f 38 37 48
f 27 25 34
f 34 33 27
f 91 106 90
f 106 89 90
f 162 159 158
f 158 163 162
f 101 99 100
f 100 102 101
f 118 92 117
f 92 116 117
f 120 117 119
f 119 117 116
f 119 121 120
f 119 115 121
f 153 155 154
f 153 149 155
f 138 130 247
f 129 138 247
f 191 192 189
f 189 190 191
f 10 2 3
f 10 1 2
f 26 24 25
f 25 27 26
f 88 87 104
f 82 84 104
f 104 38 49
f 74 73 104
f 63 58 104
f 104 51 78
f 104 46 47
f 104 185 183
f 151 154 104
f 183 187 104
f 108 107 104
f 18 32 104
f 104 121 113
f 104 85 88
f 13 12 104
f 104 112 108
f 104 152 151
f 104 69 74
f 175 182 104
f 104 83 82
f 78 77 104
f 60 59 104
f 145 169 104
f 104 186 189
f 104 165 160
f 160 159 104
f 104 155 147
f 133 124 104
f 104 182 185
f 139 138 104
f 104 73 83
f 104 84 85
f 104 4 3
f 104 64 63
f 17 5 104
f 25 24 104
f 134 126 104
f 104 144 145
f 104 123 139
f 147 146 104
f 70 69 104
f 173 180 104
f 52 51 104
f 189 192 104
f 193 194 104
f 104 198 13
f 104 19 18
f 3 2 104
f 49 50 104
f 104 28 39
f 104 95 118
f 104 87 166
f 166 165 104
f 104 125 133
f 104 135 134
f 91 90 104
f 154 155 104
f 104 124 123
f 104 77 70
f 104 174 173
f 104 59 52
f 187 186 104
f 194 198 104
f 104 57 60
f 104 176 175
f 34 25 104
f 104 32 29
f 47 64 104
f 39 38 104
f 104 42 41
f 104 103 96
f 104 162 161
f 161 100 104
f 126 125 104
f 107 135 104
f 113 112 104
f 104 99 91
f 104 146 144
f 104 138 152
f 104 169 174
f 104 192 193
f 58 57 104
f 104 5 4
f 104 35 34
f 104 16 17
f 29 28 104
f 104 50 42
f 41 46 104
f 96 95 104
f 104 159 162
f 100 99 104
f 120 121 104
f 180 176 104
f 12 16 104
f 2 35 104
f 104 24 19
f 118 117 104
f 104 117 120
f 94 259 93
f 93 95 94
f 94 95 96
f 96 97 94
f 23 28 29
f 29 30 23
f 35 9 8
f 8 9 288
f 103 104 105
f 105 98 103
