v -0.014948 0.005850 0.009000
v -0.014689 0.005850 0.009000
v -0.014948 0.005850 0.004617
v -0.014948 0.005693 0.009157
v -0.014689 0.005850 0.004617
v -0.014706 0.005550 0.009300
v -0.002621 0.004865 0.009295
v -0.002621 0.005159 0.009000
v -0.014948 0.003355 0.004617
v -0.014948 0.005551 0.009300
v -0.002621 0.005159 0.004617
v -0.002621 0.004860 0.009300
v -0.014948 0.003355 0.009300
v -0.012781 -0.000260 0.004617
v -0.002621 -0.000260 0.004617
v -0.002621 0.000936 0.009300
v -0.012781 -0.000260 0.009300
v -0.002621 -0.000260 0.009155
v -0.002766 -0.000260 0.009300
v -0.002723 -0.000260 0.009258
v -0.002628 -0.000260 0.009163
f 7 8 2
f 2 6 7
f 18 16 21
f 7 6 12
f 4 2 1
f 4 10 6
f 6 2 4
f 20 16 19
f 20 21 16
f 13 9 14
f 14 17 13
f 2 5 3
f 2 3 1
f 5 2 11
f 11 2 8
f 15 9 3
f 14 9 15
f 3 5 15
f 5 11 15
f 12 11 8
f 12 8 7
f 18 15 12
f 12 16 18
f 12 15 11
f 17 19 12
f 12 13 17
f 12 10 13
f 19 16 12
f 6 10 12
f 3 9 4
f 1 3 4
f 9 13 4
f 13 10 4
f 20 19 17
f 20 17 14
f 14 15 20
f 20 15 18
f 18 21 20
