v 0.007273 0.007382 -0.000427
v 0.006922 0.007404 -0.000427
v 0.007291 0.007383 -0.000427
v 0.007273 0.007439 0.003087
v 0.007046 0.007443 0.003335
v 0.007020 0.007439 0.003087
v 0.006911 0.007406 -0.000427
v 0.006842 0.007466 0.003087
v 0.007520 0.007421 -0.000427
v 0.007451 0.007451 0.003265
v 0.007273 0.007445 0.003318
v 0.007273 0.007468 0.003495
v 0.006924 0.007478 0.003449
v 0.006757 0.007444 -0.000427
v 0.006564 0.007529 0.003087
v 0.006564 0.007559 0.003442
v 0.007729 0.007490 -0.000427
v 0.007982 0.007595 0.003087
v 0.007630 0.007490 0.003087
v 0.007592 0.007503 0.003407
v 0.007982 0.007731 0.003698
v 0.007628 0.007674 0.003755
v 0.007273 0.007645 0.003784
v 0.006918 0.007654 0.003774
v 0.006564 0.007697 0.003731
v 0.006578 0.007507 -0.000427
v 0.006209 0.007693 0.003442
v 0.006209 0.007665 0.003087
v 0.006209 0.007763 0.003662
v 0.006029 0.007804 0.003621
v 0.007982 0.007579 -0.000427
v 0.008275 0.007733 0.003087
v 0.008253 0.007749 0.003442
v 0.007982 0.007625 0.003442
v 0.007982 0.007919 0.003875
v 0.007628 0.007849 0.003932
v 0.008207 0.007778 0.003649
v 0.007273 0.007819 0.003961
v 0.006918 0.007829 0.003952
v 0.006564 0.007877 0.003908
v 0.006209 0.007651 -0.000427
v 0.006011 0.007792 0.003442
v 0.005994 0.007779 0.003087
v 0.005983 0.007765 -0.000427
v 0.006004 0.007754 -0.000427
v 0.006307 0.008111 0.004015
v 0.006070 0.008189 0.003953
v 0.005888 0.008007 0.003689
v 0.005657 0.008141 0.003637
v 0.005631 0.008114 0.003442
v 0.005834 0.007937 0.003442
v 0.008295 0.007727 -0.000427
v 0.008453 0.007849 0.003087
v 0.008456 0.007826 -0.000427
v 0.008472 0.007836 -0.000427
v 0.008430 0.007866 0.003442
v 0.008178 0.008148 0.003985
v 0.007982 0.008096 0.004026
v 0.007628 0.008026 0.004074
v 0.008586 0.008094 0.003678
v 0.008310 0.008002 0.003782
v 0.007273 0.007996 0.004085
v 0.006918 0.008006 0.004082
v 0.006564 0.008054 0.004057
v 0.005816 0.007921 0.003087
v 0.005966 0.007778 -0.000427
v 0.006196 0.008319 0.004078
v 0.005945 0.008425 0.004032
v 0.005837 0.008319 0.003887
v 0.005331 0.008531 0.003571
v 0.005433 0.008365 0.003449
v 0.005708 0.008559 0.003949
v 0.005580 0.008338 0.003703
v 0.005313 0.008501 0.003335
v 0.005437 0.008317 0.003087
v 0.005615 0.008098 0.003087
v 0.008657 0.008026 0.003087
v 0.008640 0.008043 0.003442
v 0.008705 0.008039 -0.000427
v 0.008539 0.008486 0.003993
v 0.008313 0.008356 0.004036
v 0.008414 0.008250 0.003914
v 0.007982 0.008338 0.004137
v 0.007628 0.008338 0.004184
v 0.008681 0.008350 0.003789
v 0.008817 0.008221 0.003442
v 0.008913 0.008451 0.003664
v 0.007273 0.008338 0.004195
v 0.006918 0.008338 0.004192
v 0.006564 0.008338 0.004168
v 0.005805 0.007914 -0.000427
v 0.005837 0.008683 0.004077
v 0.006209 0.008692 0.004183
v 0.005633 0.008796 0.004013
v 0.005482 0.008663 0.003808
v 0.005279 0.008767 0.003667
v 0.005106 0.009047 0.003442
v 0.005253 0.008666 0.003449
v 0.005213 0.008692 0.003087
v 0.005308 0.008494 0.003087
v 0.005302 0.008460 -0.000427
v 0.005431 0.008299 -0.000427
v 0.005608 0.008091 -0.000427
v 0.008834 0.008201 0.003087
v 0.008807 0.008141 -0.000427
v 0.008605 0.008692 0.004039
v 0.008337 0.008692 0.004149
v 0.008783 0.008692 0.003905
v 0.007982 0.008692 0.004195
v 0.008951 0.008399 0.003442
v 0.009140 0.008722 0.003435
v 0.009213 0.008912 0.003548
v 0.008982 0.008692 0.003727
v 0.006564 0.008692 0.004195
v 0.005581 0.009047 0.004052
v 0.005854 0.009047 0.004162
v 0.006209 0.009047 0.004195
v 0.005854 0.009402 0.004187
v 0.005404 0.009047 0.003897
v 0.005229 0.009047 0.003719
v 0.005037 0.009402 0.003442
v 0.005076 0.009047 0.003087
v 0.005188 0.008692 -0.000427
v 0.005281 0.008496 -0.000427
v 0.005290 0.008477 -0.000427
v 0.008967 0.008379 0.003087
v 0.008847 0.008184 -0.000397
v 0.008879 0.008224 -0.000427
v 0.008714 0.009049 0.004069
v 0.008847 0.008932 0.003954
v 0.008692 0.009402 0.004122
v 0.008337 0.009047 0.004191
v 0.008337 0.009402 0.004195
v 0.009144 0.008676 0.003087
v 0.009229 0.008859 0.003312
v 0.009240 0.009148 0.003638
v 0.009256 0.009037 0.003435
v 0.009050 0.009041 0.003796
v 0.005542 0.009402 0.004076
v 0.005365 0.009402 0.003932
v 0.005854 0.009757 0.004188
v 0.006209 0.010111 0.004195
v 0.005541 0.009757 0.004077
v 0.005193 0.009402 0.003755
v 0.005036 0.009757 0.003442
v 0.005010 0.009402 0.003087
v 0.004985 0.009372 -0.000427
v 0.005058 0.009047 -0.000427
v 0.005176 0.008726 -0.000427
v 0.008955 0.008326 -0.000427
v 0.008887 0.009169 0.003992
v 0.008908 0.009402 0.004012
v 0.008692 0.009757 0.004129
v 0.008915 0.009757 0.004018
v 0.008337 0.009757 0.004195
v 0.009232 0.008853 0.003087
v 0.009132 0.008627 -0.000427
v 0.009252 0.008833 -0.000427
v 0.009281 0.009047 0.003087
v 0.009316 0.009402 0.003442
v 0.009257 0.009402 0.003659
v 0.009085 0.009402 0.003836
v 0.009343 0.009402 0.003087
v 0.005364 0.009757 0.003933
v 0.006209 0.010466 0.004189
v 0.005854 0.010111 0.004168
v 0.006918 0.010821 0.004195
v 0.005573 0.010111 0.004058
v 0.005192 0.009757 0.003755
v 0.005087 0.010111 0.003442
v 0.005058 0.010111 0.003087
v 0.005009 0.009757 0.003087
v 0.005219 0.010111 0.003729
v 0.004968 0.009757 -0.000427
v 0.004968 0.009665 -0.000427
v 0.008721 0.010127 0.004077
v 0.008337 0.010466 0.004164
v 0.008337 0.010111 0.004194
v 0.009092 0.009757 0.003841
v 0.008896 0.010020 0.004000
v 0.007982 0.010466 0.004195
v 0.009315 0.009029 -0.000427
v 0.009320 0.009047 -0.000427
v 0.009325 0.009757 0.003442
v 0.009353 0.009757 0.003087
v 0.009260 0.009757 0.003664
v 0.009375 0.009402 -0.000427
v 0.005395 0.010111 0.003906
v 0.006564 0.010821 0.004182
v 0.006209 0.010821 0.004122
v 0.005824 0.010493 0.004085
v 0.007273 0.010821 0.004195
v 0.007273 0.011175 0.004104
v 0.006918 0.011175 0.004097
v 0.005624 0.010393 0.004018
v 0.005204 0.010466 0.003442
v 0.005277 0.010466 0.003669
v 0.005316 0.010653 0.003626
v 0.005176 0.010466 0.003087
v 0.005032 0.010089 -0.000427
v 0.008627 0.010466 0.004054
v 0.008332 0.010817 0.004058
v 0.007982 0.010821 0.004161
v 0.009245 0.010029 0.003645
v 0.008859 0.010256 0.003964
v 0.009057 0.010143 0.003805
v 0.007628 0.010821 0.004192
v 0.009266 0.010133 0.003453
v 0.009296 0.010111 0.003087
v 0.009380 0.009723 -0.000427
v 0.009381 0.009757 -0.000427
v 0.009342 0.010078 -0.000427
v 0.009336 0.010111 -0.000427
v 0.006598 0.011185 0.004053
v 0.006209 0.011055 0.004017
v 0.005948 0.010821 0.004024
v 0.005685 0.010629 0.003968
v 0.007620 0.011200 0.004066
v 0.007497 0.011363 0.003984
v 0.007273 0.011373 0.003994
v 0.006918 0.011365 0.003987
v 0.006740 0.011353 0.003974
v 0.005503 0.010493 0.003868
v 0.005302 0.010678 0.003442
v 0.005512 0.010791 0.003710
v 0.005639 0.011040 0.003652
v 0.005603 0.011081 0.003442
v 0.005425 0.010856 0.003442
v 0.005289 0.010699 0.003087
v 0.005272 0.010713 -0.000427
v 0.005160 0.010466 -0.000427
v 0.008805 0.010466 0.003919
v 0.008557 0.010696 0.004008
v 0.008211 0.011037 0.004007
v 0.007982 0.011103 0.004051
v 0.009218 0.010266 0.003579
v 0.008997 0.010466 0.003741
v 0.009233 0.010313 0.003342
v 0.009238 0.010326 0.003087
v 0.009263 0.010352 -0.000427
v 0.006503 0.011310 0.003937
v 0.006031 0.010999 0.003974
v 0.006209 0.011233 0.003872
v 0.005771 0.010821 0.003906
v 0.007734 0.011335 0.003959
v 0.007618 0.011528 0.003795
v 0.007503 0.011717 0.003631
v 0.007273 0.011550 0.003817
v 0.006918 0.011543 0.003812
v 0.006727 0.011712 0.003625
v 0.005407 0.010876 0.003087
v 0.006002 0.011372 0.003639
v 0.005789 0.011258 0.003442
v 0.005898 0.011138 0.003764
v 0.005767 0.011278 0.003087
v 0.005585 0.011100 0.003087
v 0.005402 0.010890 -0.000427
v 0.008928 0.010737 0.003674
v 0.008704 0.010835 0.003802
v 0.008447 0.010932 0.003930
v 0.008614 0.011092 0.003693
v 0.008346 0.011183 0.003799
v 0.008245 0.011401 0.003669
v 0.007982 0.011280 0.003911
v 0.008850 0.010974 0.003519
v 0.009162 0.010445 0.003453
v 0.009168 0.010503 0.003087
v 0.009256 0.010369 -0.000427
v 0.006209 0.011426 0.003694
v 0.007982 0.011467 0.003733
v 0.007740 0.011693 0.003515
v 0.007624 0.011729 0.003415
v 0.007273 0.011764 0.003442
v 0.007273 0.011724 0.003640
v 0.006918 0.011720 0.003635
v 0.006918 0.011756 0.003442
v 0.006686 0.011725 0.003442
v 0.006509 0.011664 0.003442
v 0.006209 0.011529 0.003442
v 0.005966 0.011396 0.003442
v 0.005583 0.011101 0.002378
v 0.005945 0.011411 0.003087
v 0.005939 0.011421 -0.000427
v 0.005762 0.011280 -0.000427
v 0.005745 0.011264 -0.000427
v 0.005419 0.010911 -0.000427
v 0.008486 0.011331 0.003442
v 0.008309 0.011441 0.003442
v 0.007949 0.011627 0.003415
v 0.008954 0.010842 0.003417
v 0.008872 0.011001 0.003283
v 0.008716 0.011124 0.003417
v 0.008993 0.010821 0.003087
v 0.009027 0.010792 -0.000427
v 0.009011 0.010821 -0.000427
v 0.007808 0.011709 0.003278
v 0.007628 0.011748 0.003087
v 0.007273 0.011789 0.003087
v 0.006918 0.011779 0.003087
v 0.006652 0.011736 0.003087
v 0.006475 0.011678 0.003087
v 0.006209 0.011559 0.003087
v 0.005580 0.011103 -0.000427
v 0.006209 0.011582 -0.000427
v 0.006184 0.011568 -0.000427
v 0.008508 0.011348 0.003087
v 0.008330 0.011457 0.003087
v 0.007988 0.011634 0.003087
v 0.008873 0.011002 0.003087
v 0.008692 0.011175 0.003087
v 0.008902 0.011003 -0.000427
v 0.008891 0.011020 -0.000427
v 0.007811 0.011710 0.003087
v 0.007839 0.011733 -0.000427
v 0.007628 0.011793 -0.000427
v 0.007594 0.011797 -0.000427
v 0.007273 0.011833 -0.000427
v 0.006918 0.011823 -0.000427
v 0.006893 0.011818 -0.000427
v 0.006611 0.011757 -0.000427
v 0.006434 0.011691 -0.000427
v 0.006409 0.011681 -0.000427
v 0.008529 0.011367 -0.000427
v 0.008372 0.011456 -0.000427
v 0.007856 0.011726 -0.000427
f 124 99 123
f 123 99 122
f 122 146 147
f 121 146 122
f 121 120 144
f 307 325 308
f 273 272 298
f 307 308 288
f 88 84 109
f 163 187 185
f 13 5 12
f 41 28 45
f 45 28 44
f 26 28 41
f 17 18 9
f 103 76 102
f 91 76 103
f 100 124 125
f 99 124 100
f 285 303 281
f 281 255 285
f 285 255 284
f 174 171 200
f 92 116 115
f 299 298 317
f 175 146 174
f 147 146 175
f 172 171 174
f 174 146 172
f 172 146 121
f 148 122 147
f 253 226 252
f 127 104 105
f 78 104 86
f 86 60 78
f 53 55 77
f 77 78 53
f 104 78 77
f 324 325 307
f 307 323 324
f 314 315 296
f 317 298 316
f 296 315 297
f 297 272 296
f 298 272 297
f 315 316 297
f 297 316 298
f 289 308 296
f 289 288 308
f 312 323 309
f 306 323 307
f 307 288 306
f 107 109 84
f 132 109 107
f 133 109 132
f 106 107 80
f 62 84 88
f 88 89 62
f 252 226 254
f 254 242 252
f 226 242 254
f 243 269 252
f 252 242 243
f 183 187 163
f 211 185 210
f 210 185 187
f 130 113 138
f 184 161 160
f 160 185 184
f 163 185 160
f 213 240 239
f 4 5 1
f 20 12 10
f 20 18 34
f 34 21 20
f 20 21 12
f 10 12 11
f 11 12 5
f 11 4 10
f 5 4 11
f 25 16 13
f 15 26 14
f 28 26 15
f 27 16 30
f 27 42 28
f 30 42 27
f 28 15 27
f 27 15 16
f 31 18 17
f 34 18 33
f 32 55 53
f 32 31 52
f 18 31 32
f 53 33 32
f 32 33 18
f 3 9 10
f 3 4 1
f 10 4 3
f 10 9 19
f 19 9 18
f 19 20 10
f 18 20 19
f 101 100 125
f 76 91 65
f 50 76 65
f 281 303 286
f 251 257 230
f 230 229 251
f 117 142 141
f 141 118 117
f 143 118 141
f 116 118 139
f 139 115 116
f 118 143 139
f 284 255 283
f 283 255 282
f 318 299 317
f 276 273 298
f 298 299 276
f 145 172 121
f 171 172 145
f 121 144 145
f 123 122 149
f 122 148 149
f 98 122 99
f 67 68 46
f 92 68 67
f 50 30 49
f 73 70 49
f 49 71 50
f 70 71 49
f 225 217 226
f 198 225 226
f 217 225 198
f 280 253 252
f 282 255 280
f 255 253 280
f 128 127 105
f 104 127 128
f 79 77 55
f 105 104 79
f 104 77 79
f 158 134 157
f 157 134 150
f 150 134 126
f 126 128 150
f 104 128 126
f 87 60 86
f 325 314 313
f 313 314 296
f 296 308 313
f 313 308 325
f 296 272 271
f 271 289 296
f 312 309 293
f 293 309 291
f 287 306 288
f 291 306 287
f 291 309 310
f 310 306 291
f 310 309 323
f 323 306 310
f 265 287 261
f 209 213 239
f 185 213 209
f 206 180 204
f 204 180 179
f 248 249 220
f 83 107 84
f 132 107 131
f 235 218 203
f 60 80 82
f 106 80 108
f 108 130 106
f 113 130 108
f 108 87 113
f 80 87 108
f 89 90 63
f 63 62 89
f 215 243 242
f 244 242 226
f 226 217 244
f 244 217 242
f 242 217 216
f 216 215 242
f 192 193 167
f 193 220 194
f 194 167 193
f 189 167 194
f 168 143 166
f 166 143 141
f 156 134 158
f 106 130 129
f 152 131 129
f 129 107 106
f 129 131 107
f 151 130 138
f 152 129 151
f 151 129 130
f 161 179 162
f 212 185 211
f 212 213 185
f 6 2 1
f 1 5 6
f 7 15 14
f 56 78 60
f 53 78 56
f 56 33 53
f 54 32 52
f 55 32 54
f 75 101 102
f 75 102 76
f 100 101 75
f 75 76 50
f 66 65 91
f 42 65 43
f 44 28 43
f 28 42 43
f 43 66 44
f 65 66 43
f 50 65 51
f 51 65 42
f 51 30 50
f 51 42 30
f 199 231 200
f 199 200 171
f 230 231 199
f 199 229 230
f 257 251 256
f 256 286 257
f 281 286 256
f 256 255 281
f 114 89 88
f 164 143 168
f 282 304 305
f 305 283 282
f 302 304 282
f 282 280 302
f 274 273 275
f 273 276 275
f 275 248 274
f 275 249 248
f 169 145 144
f 173 145 169
f 144 164 169
f 169 164 173
f 99 100 74
f 74 98 99
f 70 98 74
f 74 71 70
f 100 75 74
f 50 71 74
f 74 75 50
f 121 122 97
f 122 98 97
f 97 120 121
f 97 96 120
f 97 98 70
f 70 96 97
f 120 96 119
f 73 49 72
f 95 70 73
f 95 96 70
f 73 72 95
f 47 30 46
f 46 68 47
f 170 145 173
f 171 145 170
f 223 195 217
f 217 198 223
f 86 104 110
f 104 126 110
f 110 126 134
f 110 87 86
f 85 80 60
f 60 87 85
f 85 87 80
f 247 271 272
f 247 273 274
f 272 273 247
f 270 271 247
f 274 248 247
f 263 271 270
f 263 287 288
f 288 289 263
f 289 271 263
f 261 287 263
f 263 262 261
f 205 180 206
f 179 180 154
f 152 162 154
f 154 162 179
f 154 131 152
f 154 180 176
f 201 177 176
f 176 180 201
f 180 205 201
f 232 233 201
f 201 205 232
f 239 240 267
f 267 295 293
f 291 287 292
f 292 265 291
f 287 265 292
f 258 265 261
f 258 233 232
f 236 265 258
f 208 204 184
f 236 204 208
f 184 185 208
f 185 209 208
f 186 179 161
f 186 204 179
f 186 161 184
f 184 204 186
f 270 247 246
f 193 218 219
f 219 220 193
f 219 246 247
f 248 220 219
f 219 247 248
f 58 83 59
f 84 62 59
f 59 83 84
f 153 133 132
f 132 131 153
f 176 177 153
f 153 177 178
f 153 154 176
f 131 154 153
f 178 177 181
f 202 203 177
f 177 201 202
f 202 201 233
f 235 203 202
f 57 82 80
f 58 35 57
f 61 60 57
f 60 82 57
f 64 63 90
f 64 67 46
f 90 67 64
f 46 40 64
f 243 215 241
f 269 243 241
f 142 167 165
f 165 167 189
f 141 142 165
f 165 166 141
f 222 194 221
f 221 194 220
f 221 220 249
f 214 194 222
f 222 241 214
f 214 241 215
f 189 194 214
f 182 156 158
f 183 156 182
f 159 183 163
f 159 156 183
f 136 160 161
f 138 113 136
f 161 162 136
f 136 151 138
f 152 151 136
f 136 162 152
f 8 6 5
f 8 5 13
f 15 7 8
f 13 16 8
f 16 15 8
f 8 7 2
f 2 6 8
f 25 40 29
f 30 16 29
f 16 25 29
f 46 30 29
f 29 40 46
f 39 40 25
f 63 64 39
f 39 64 40
f 37 56 60
f 33 56 37
f 37 60 61
f 37 21 34
f 34 33 37
f 37 35 21
f 61 57 37
f 37 57 35
f 229 199 224
f 198 228 224
f 224 251 229
f 224 228 251
f 227 253 255
f 255 256 227
f 226 253 227
f 227 256 251
f 251 228 227
f 227 198 226
f 227 228 198
f 93 90 89
f 89 114 93
f 93 114 117
f 93 116 92
f 93 118 116
f 93 117 118
f 92 67 93
f 93 67 90
f 140 139 143
f 143 164 140
f 140 164 144
f 140 144 120
f 120 119 140
f 115 139 140
f 140 119 115
f 188 164 168
f 173 164 188
f 168 195 188
f 304 302 322
f 322 302 321
f 320 321 301
f 321 302 301
f 94 119 96
f 96 95 94
f 115 119 94
f 94 95 72
f 92 115 94
f 94 68 92
f 94 72 68
f 48 49 30
f 30 47 48
f 48 47 49
f 69 47 68
f 49 47 69
f 68 72 69
f 69 72 49
f 197 170 173
f 198 170 197
f 173 188 197
f 197 223 198
f 195 223 197
f 197 188 195
f 264 263 270
f 312 293 311
f 293 295 311
f 239 267 238
f 236 208 238
f 238 209 239
f 238 208 209
f 268 267 240
f 290 293 291
f 290 267 293
f 291 265 290
f 259 258 261
f 233 258 259
f 261 260 259
f 259 260 233
f 232 205 237
f 237 258 232
f 236 258 237
f 237 205 206
f 206 204 237
f 237 204 236
f 245 218 235
f 245 219 218
f 235 264 245
f 246 219 245
f 270 246 245
f 245 264 270
f 38 59 62
f 62 63 38
f 63 39 38
f 155 153 178
f 133 153 155
f 178 181 155
f 192 181 207
f 207 193 192
f 207 218 193
f 207 203 218
f 235 202 234
f 233 260 234
f 234 202 233
f 234 264 235
f 261 262 234
f 234 260 261
f 262 263 234
f 263 264 234
f 81 83 58
f 58 57 81
f 81 57 80
f 81 80 107
f 107 83 81
f 217 195 191
f 191 216 217
f 191 195 168
f 168 166 191
f 189 214 190
f 190 214 215
f 215 216 190
f 216 191 190
f 190 165 189
f 166 165 190
f 190 191 166
f 156 159 135
f 134 156 135
f 24 39 25
f 24 25 13
f 23 38 24
f 24 38 39
f 13 12 24
f 12 23 24
f 196 224 199
f 196 199 171
f 171 170 196
f 196 170 198
f 198 224 196
f 320 301 300
f 300 319 320
f 318 319 300
f 299 318 300
f 295 267 294
f 267 268 294
f 236 238 266
f 266 265 236
f 266 290 265
f 266 238 267
f 267 290 266
f 59 38 36
f 21 35 36
f 36 35 58
f 58 59 36
f 137 135 159
f 163 160 137
f 137 159 163
f 160 136 137
f 111 110 134
f 134 135 111
f 87 110 111
f 277 276 299
f 299 300 277
f 277 300 301
f 21 36 22
f 12 21 22
f 22 23 12
f 22 38 23
f 22 36 38
f 112 137 136
f 135 137 112
f 112 111 135
f 87 111 112
f 113 87 112
f 112 136 113
f 250 275 276
f 276 277 250
f 269 241 250
f 252 269 250
f 250 241 222
f 249 275 250
f 222 221 250
f 250 221 249
f 278 250 277
f 278 301 302
f 278 277 301
f 279 302 280
f 279 278 302
f 279 280 252
f 252 250 279
f 250 278 279
f 192 167 155
f 155 114 88
f 88 109 155
f 109 133 155
f 142 117 155
f 155 167 142
f 117 114 155
f 155 181 192
f 207 181 177
f 177 203 207
f 103 102 294
f 294 323 312
f 294 314 325
f 230 257 294
f 304 322 294
f 158 157 294
f 294 128 105
f 294 91 103
f 294 231 230
f 123 149 294
f 52 31 294
f 294 321 320
f 211 210 294
f 294 26 41
f 294 175 174
f 105 79 294
f 294 124 123
f 41 45 294
f 1 2 294
f 294 285 284
f 174 200 294
f 125 124 294
f 294 318 317
f 325 324 294
f 317 316 294
f 320 319 294
f 294 45 44
f 14 26 294
f 17 9 294
f 294 7 14
f 294 3 1
f 294 54 52
f 303 285 294
f 294 101 125
f 294 286 303
f 284 283 294
f 147 175 294
f 294 148 147
f 294 324 323
f 315 314 294
f 294 316 315
f 187 183 294
f 294 210 187
f 240 213 294
f 294 212 211
f 294 31 17
f 9 3 294
f 102 101 294
f 257 286 294
f 200 231 294
f 44 66 294
f 294 182 158
f 294 305 304
f 294 149 148
f 150 128 294
f 294 79 55
f 294 157 150
f 213 212 294
f 2 7 294
f 55 54 294
f 294 66 91
f 283 305 294
f 294 319 318
f 312 311 294
f 183 182 294
f 294 322 321
f 294 311 295
f 294 268 240
