v -0.009074 -0.049698 0.005000
v -0.001309 -0.048490 0.005000
v -0.000402 -0.047042 0.005000
v 0.000060 -0.045398 0.005000
v 0.000396 -0.042849 0.005000
v -0.010377 -0.048594 0.005000
v -0.011317 -0.047169 0.005000
v -0.011817 -0.045536 0.005000
v -0.007512 -0.050389 0.005000
v -0.005819 -0.050613 0.005000
v -0.004132 -0.050350 0.005000
v -0.002587 -0.049623 0.005000
v 0.005948 -0.000785 0.005000
v 0.005929 0.000923 0.005000
v 0.005429 0.002555 0.005000
v 0.004489 0.003981 0.005000
v 0.003185 0.005085 0.005000
v 0.003387 -0.020189 0.005000
v -0.014373 -0.033776 0.005000
v -0.004580 0.003876 0.005000
v -0.005486 0.002429 0.005000
v 0.001624 0.005776 0.005000
v -0.000069 0.006000 0.005000
v -0.001757 0.005737 0.005000
v -0.003302 0.005010 0.005000
v -0.013230 -0.025119 0.005000
v -0.014373 -0.032470 0.005000
v -0.013569 -0.026379 0.005000
v -0.004220 -0.050063 0.000000
v -0.005823 -0.050313 0.000000
v -0.002752 -0.049372 0.000000
v -0.001538 -0.048296 0.000000
v 0.005157 0.002428 0.000000
v 0.005632 0.000876 0.000000
v 0.003026 0.004830 0.000000
v 0.001543 0.005487 0.000000
v -0.000066 0.005700 0.000000
v -0.001669 0.005450 0.000000
v -0.003137 0.004759 0.000000
v -0.004351 0.003683 0.000000
v -0.014076 -0.033736 0.000000
v -0.014075 -0.032510 0.000000
v -0.013271 -0.026419 0.000000
v -0.012953 -0.025234 0.000000
v 0.005651 -0.000746 0.000000
v 0.004264 0.003782 0.000000
v -0.005212 0.002308 0.000000
v -0.000677 -0.046921 0.000000
v -0.011046 -0.047041 0.000000
v -0.010153 -0.048395 0.000000
v -0.008915 -0.049444 0.000000
v -0.005651 0.000746 0.000000
v -0.000238 -0.045359 0.000000
v 0.000099 -0.042809 0.000000
v -0.007431 -0.050100 0.000000
v -0.011521 -0.045489 0.000000
v 0.000396 -0.042849 0.000300
v 0.000060 -0.045398 0.000300
v 0.005948 -0.000785 0.000300
v 0.005929 0.000923 0.000300
v 0.005429 0.002555 0.000300
v 0.004489 0.003981 0.000300
v 0.003185 0.005085 0.000300
v 0.001624 0.005776 0.000300
v -0.000069 0.006000 0.000300
v -0.001757 0.005737 0.000300
v -0.003302 0.005010 0.000300
v -0.004580 0.003876 0.000300
v -0.005486 0.002429 0.000300
v -0.011817 -0.045536 0.000300
v -0.011317 -0.047169 0.000300
v -0.010377 -0.048594 0.000300
v -0.009074 -0.049698 0.000300
v -0.007512 -0.050389 0.000300
v -0.005819 -0.050613 0.000300
v -0.004132 -0.050350 0.000300
v -0.002587 -0.049623 0.000300
v -0.001309 -0.048490 0.000300
v -0.000402 -0.047042 0.000300
v 0.003387 -0.020189 0.000300
v -0.014373 -0.032470 0.000300
v -0.013569 -0.026379 0.000300
v -0.014373 -0.033776 0.000300
v -0.013230 -0.025119 0.000300
v -0.001606 0.003881 -0.000000
v -0.001136 0.004043 -0.000000
v -0.000650 0.004149 -0.000000
v -0.000154 0.004197 -0.000000
v -0.002857 0.003079 -0.000000
v -0.002473 0.003395 -0.000000
v -0.002054 0.003664 -0.000000
v 0.004128 0.000772 -0.000000
v 0.004191 0.000279 -0.000000
v -0.003750 0.001891 -0.000000
v -0.003500 0.002321 -0.000000
v -0.003201 0.002719 -0.000000
v 0.003601 0.002162 -0.000000
v 0.003831 0.001720 -0.000000
v 0.004008 0.001255 -0.000000
v -0.004174 0.000467 -0.000000
v -0.004089 0.000957 -0.000000
v -0.003947 0.001434 -0.000000
v 0.004194 -0.000219 -0.000000
v 0.004139 -0.000713 -0.000000
v 0.002217 0.003567 -0.000000
v 0.002623 0.003280 -0.000000
v 0.002993 0.002947 -0.000000
v 0.003320 0.002572 -0.000000
v 0.000343 0.004186 -0.000000
v 0.000836 0.004116 -0.000000
v 0.001317 0.003988 -0.000000
v 0.001779 0.003805 -0.000000
v -0.002078 -0.046378 -0.000000
v -0.002313 -0.046817 -0.000000
v -0.002599 -0.047224 -0.000000
v -0.002931 -0.047595 -0.000000
v -0.001701 -0.044941 -0.000000
v -0.001770 -0.045434 -0.000000
v -0.001895 -0.045915 -0.000000
v -0.008401 -0.047979 -0.000000
v -0.008781 -0.047658 -0.000000
v -0.007072 -0.048643 -0.000000
v -0.007540 -0.048475 -0.000000
v -0.007985 -0.048252 -0.000000
v -0.010049 -0.044038 -0.000000
v -0.009989 -0.045523 -0.000000
v -0.010068 -0.045031 -0.000000
v -0.010088 -0.044534 -0.000000
v -0.009121 -0.047295 -0.000000
v -0.009416 -0.046893 -0.000000
v -0.009661 -0.046460 -0.000000
v -0.009853 -0.046001 -0.000000
v -0.005101 -0.048739 -0.000000
v -0.005594 -0.048803 -0.000000
v -0.006092 -0.048808 -0.000000
v -0.006587 -0.048755 -0.000000
v -0.003304 -0.047924 -0.000000
v -0.003714 -0.048206 -0.000000
v -0.004154 -0.048438 -0.000000
v -0.004619 -0.048616 -0.000000
f 58 48 53
f 42 83 81
f 47 84 69
f 34 60 45
f 45 60 59
f 132 56 126
f 70 83 41
f 41 56 70
f 41 83 42
f 41 126 56
f 42 128 41
f 73 72 50
f 44 101 43
f 43 84 44
f 42 43 125
f 125 128 42
f 82 84 43
f 75 74 30
f 30 76 75
f 79 48 58
f 38 67 66
f 80 45 59
f 103 45 104
f 104 53 117
f 127 41 128
f 126 41 127
f 72 71 49
f 49 50 72
f 49 71 70
f 70 56 49
f 49 56 132
f 119 53 48
f 47 101 52
f 101 44 52
f 52 84 47
f 52 44 84
f 43 101 100
f 100 125 43
f 76 30 29
f 77 76 29
f 29 31 77
f 29 30 133
f 55 74 73
f 55 30 74
f 77 31 32
f 32 114 48
f 65 38 66
f 69 68 40
f 47 69 40
f 40 68 67
f 54 80 57
f 45 80 54
f 50 129 121
f 131 49 132
f 48 114 113
f 113 119 48
f 117 53 118
f 53 119 118
f 31 29 139
f 73 50 51
f 51 55 73
f 51 121 120
f 50 121 51
f 30 55 136
f 114 32 115
f 77 32 78
f 48 79 78
f 78 32 48
f 36 65 64
f 37 65 36
f 38 65 37
f 33 61 60
f 33 60 34
f 34 99 33
f 61 33 62
f 92 99 34
f 49 131 130
f 130 129 50
f 50 49 130
f 140 29 133
f 140 139 29
f 138 137 31
f 31 139 138
f 55 51 123
f 30 136 135
f 116 115 32
f 31 137 116
f 116 32 31
f 87 86 38
f 38 37 87
f 39 89 40
f 67 38 39
f 39 40 67
f 109 37 36
f 63 62 35
f 35 64 63
f 36 64 35
f 93 92 34
f 34 45 93
f 93 45 103
f 122 136 55
f 55 123 122
f 124 51 120
f 124 123 51
f 133 30 134
f 30 135 134
f 102 101 47
f 47 94 102
f 47 40 95
f 95 94 47
f 36 111 110
f 110 109 36
f 88 87 37
f 37 109 88
f 33 97 46
f 46 62 33
f 46 35 62
f 105 35 106
f 106 46 107
f 35 46 106
f 112 35 105
f 112 111 36
f 36 35 112
f 98 33 99
f 98 97 33
f 40 89 96
f 96 95 40
f 89 39 90
f 39 91 90
f 38 86 85
f 85 39 38
f 85 91 39
f 107 46 108
f 108 46 97
f 83 8 19
f 70 8 83
f 7 8 71
f 71 8 70
f 7 71 6
f 6 71 72
f 73 1 6
f 6 72 73
f 69 26 21
f 84 26 69
f 74 9 1
f 74 1 73
f 10 9 74
f 74 75 10
f 57 5 4
f 57 4 58
f 27 83 19
f 27 81 83
f 28 26 82
f 82 26 84
f 82 27 28
f 81 27 82
f 82 43 42
f 42 81 82
f 4 3 79
f 58 4 79
f 10 75 11
f 75 76 11
f 77 12 11
f 11 76 77
f 13 59 14
f 59 60 14
f 13 18 80
f 80 59 13
f 80 18 5
f 5 57 80
f 24 23 65
f 66 24 65
f 68 69 21
f 21 20 68
f 15 14 61
f 61 14 60
f 54 57 58
f 58 53 54
f 53 104 54
f 54 104 45
f 78 12 77
f 78 2 12
f 78 79 3
f 3 2 78
f 64 23 22
f 64 65 23
f 25 24 66
f 66 67 25
f 25 68 20
f 67 68 25
f 19 8 17
f 17 3 4
f 12 2 17
f 17 27 19
f 17 9 10
f 7 6 17
f 17 18 13
f 4 5 17
f 10 11 17
f 17 8 7
f 1 9 17
f 21 26 17
f 5 18 17
f 17 6 1
f 17 26 28
f 22 23 17
f 17 20 21
f 13 14 17
f 28 27 17
f 17 11 12
f 17 14 15
f 17 23 24
f 17 2 3
f 24 25 17
f 15 16 17
f 17 25 20
f 17 64 22
f 63 64 17
f 62 17 16
f 63 17 62
f 15 61 62
f 62 16 15
f 137 138 108
f 133 134 108
f 128 125 108
f 108 127 128
f 86 87 108
f 132 126 108
f 108 100 101
f 108 104 117
f 129 130 108
f 108 113 114
f 114 115 108
f 103 104 108
f 126 127 108
f 120 121 108
f 108 131 132
f 125 100 108
f 117 118 108
f 89 90 108
f 108 121 129
f 108 85 86
f 119 113 108
f 108 118 119
f 108 140 133
f 136 122 108
f 108 124 120
f 108 98 99
f 108 116 137
f 99 92 108
f 108 130 131
f 139 140 108
f 108 138 139
f 108 93 103
f 108 135 136
f 115 116 108
f 87 88 108
f 101 102 108
f 108 106 107
f 108 110 111
f 111 112 108
f 92 93 108
f 108 122 123
f 123 124 108
f 108 134 135
f 108 102 94
f 94 95 108
f 108 96 89
f 109 110 108
f 108 88 109
f 105 106 108
f 108 112 105
f 97 98 108
f 95 96 108
f 108 90 91
f 91 85 108
