v -0.007273 -0.011835 -0.000443
v -0.007627 -0.011795 -0.000443
v -0.006918 -0.011824 -0.000443
v -0.006918 -0.011780 0.003087
v -0.007273 -0.011789 0.003087
v -0.007841 -0.011734 -0.000443
v -0.007627 -0.011748 0.003087
v -0.007808 -0.011709 0.003278
v -0.006905 -0.011822 -0.000443
v -0.006652 -0.011736 0.003087
v -0.006687 -0.011725 0.003442
v -0.006918 -0.011756 0.003442
v -0.007273 -0.011764 0.003442
v -0.007624 -0.011729 0.003415
v -0.007849 -0.011730 -0.000443
v -0.007740 -0.011693 0.003515
v -0.007949 -0.011627 0.003415
v -0.007988 -0.011634 0.003087
v -0.006610 -0.011758 -0.000443
v -0.006475 -0.011678 0.003087
v -0.006509 -0.011663 0.003442
v -0.006727 -0.011712 0.003625
v -0.006918 -0.011720 0.003635
v -0.007273 -0.011724 0.003640
v -0.007503 -0.011717 0.003631
v -0.008389 -0.011458 -0.000443
v -0.008245 -0.011401 0.003669
v -0.008308 -0.011441 0.003442
v -0.008330 -0.011457 0.003087
v -0.006432 -0.011692 -0.000443
v -0.006209 -0.011559 0.003087
v -0.006209 -0.011529 0.003442
v -0.006002 -0.011372 0.003638
v -0.006209 -0.011426 0.003694
v -0.006503 -0.011310 0.003937
v -0.006740 -0.011353 0.003974
v -0.006918 -0.011365 0.003986
v -0.006918 -0.011543 0.003812
v -0.007273 -0.011550 0.003817
v -0.007273 -0.011373 0.003994
v -0.007497 -0.011363 0.003984
v -0.007618 -0.011528 0.003795
v -0.007982 -0.011466 0.003733
v -0.008531 -0.011369 -0.000443
v -0.008508 -0.011348 0.003087
v -0.007982 -0.011280 0.003910
v -0.008211 -0.011037 0.004007
v -0.008346 -0.011183 0.003799
v -0.008614 -0.011092 0.003693
v -0.008486 -0.011332 0.003442
v -0.006420 -0.011686 -0.000443
v -0.005945 -0.011411 0.003087
v -0.005966 -0.011396 0.003442
v -0.006209 -0.011583 -0.000443
v -0.005789 -0.011258 0.003442
v -0.005639 -0.011041 0.003653
v -0.005898 -0.011138 0.003764
v -0.006031 -0.010999 0.003974
v -0.006209 -0.011232 0.003872
v -0.006209 -0.011055 0.004017
v -0.006598 -0.011185 0.004053
v -0.006918 -0.011175 0.004097
v -0.007273 -0.011175 0.004104
v -0.007620 -0.011200 0.004066
v -0.007733 -0.011335 0.003958
v -0.008671 -0.011245 -0.000443
v -0.008872 -0.011000 0.003283
v -0.008692 -0.011174 0.003087
v -0.007982 -0.011103 0.004051
v -0.008332 -0.010817 0.004058
v -0.008557 -0.010695 0.004008
v -0.008448 -0.010932 0.003930
v -0.008704 -0.010835 0.003801
v -0.008927 -0.010737 0.003674
v -0.008850 -0.010974 0.003519
v -0.008716 -0.011125 0.003417
v -0.005767 -0.011278 0.003087
v -0.006196 -0.011576 -0.000443
v -0.005939 -0.011421 -0.000443
v -0.005603 -0.011081 0.003442
v -0.005317 -0.010653 0.003625
v -0.005512 -0.010791 0.003710
v -0.005685 -0.010630 0.003968
v -0.005771 -0.010821 0.003905
v -0.005949 -0.010821 0.004024
v -0.006209 -0.010821 0.004122
v -0.006564 -0.010821 0.004182
v -0.006918 -0.010821 0.004195
v -0.007273 -0.010821 0.004195
v -0.007627 -0.010821 0.004192
v -0.007982 -0.010821 0.004161
v -0.008691 -0.011226 -0.000443
v -0.008873 -0.011002 0.003087
v -0.008954 -0.010842 0.003417
v -0.008994 -0.010821 0.003087
v -0.008627 -0.010466 0.004054
v -0.008337 -0.010466 0.004165
v -0.008805 -0.010466 0.003919
v -0.009218 -0.010266 0.003579
v -0.008997 -0.010466 0.003742
v -0.009162 -0.010445 0.003453
v -0.005585 -0.011100 0.003087
v -0.005762 -0.011280 -0.000443
v -0.005753 -0.011272 -0.000443
v -0.005579 -0.011103 -0.000443
v -0.005407 -0.010877 0.003087
v -0.005426 -0.010856 0.003442
v -0.005277 -0.010466 0.003668
v -0.005503 -0.010493 0.003868
v -0.005302 -0.010678 0.003442
v -0.005204 -0.010466 0.003442
v -0.005087 -0.010111 0.003442
v -0.005624 -0.010393 0.004019
v -0.005824 -0.010493 0.004084
v -0.005854 -0.010111 0.004168
v -0.006209 -0.010466 0.004189
v -0.006564 -0.010466 0.004195
v -0.007982 -0.010466 0.004195
v -0.008892 -0.011021 -0.000443
v -0.009168 -0.010504 0.003087
v -0.009012 -0.010821 -0.000443
v -0.008897 -0.011012 -0.000443
v -0.008721 -0.010128 0.004078
v -0.008896 -0.010020 0.004000
v -0.008859 -0.010256 0.003964
v -0.008337 -0.010111 0.004194
v -0.008692 -0.009756 0.004128
v -0.009265 -0.010133 0.003453
v -0.009233 -0.010313 0.003342
v -0.009245 -0.010029 0.003645
v -0.009057 -0.010143 0.003805
v -0.005583 -0.011101 0.002378
v -0.005410 -0.010901 -0.000443
v -0.005402 -0.010890 -0.000443
v -0.005289 -0.010699 0.003087
v -0.005271 -0.010713 -0.000443
v -0.005219 -0.010111 0.003728
v -0.005395 -0.010111 0.003906
v -0.005175 -0.010466 0.003087
v -0.005057 -0.010111 0.003087
v -0.005036 -0.009756 0.003442
v -0.005573 -0.010111 0.004058
v -0.005854 -0.009756 0.004188
v -0.005541 -0.009756 0.004078
v -0.006209 -0.010111 0.004195
v -0.008337 -0.009756 0.004195
v -0.009238 -0.010326 0.003087
v -0.009264 -0.010353 -0.000443
v -0.009260 -0.010362 -0.000443
v -0.008915 -0.009756 0.004018
v -0.009092 -0.009756 0.003841
v -0.008692 -0.009402 0.004122
v -0.008337 -0.009402 0.004195
v -0.008337 -0.009047 0.004191
v -0.009325 -0.009756 0.003442
v -0.009353 -0.009756 0.003087
v -0.009296 -0.010111 0.003087
v -0.009261 -0.009756 0.003664
v -0.005159 -0.010466 -0.000443
v -0.005192 -0.009756 0.003755
v -0.005364 -0.009756 0.003933
v -0.005041 -0.010118 -0.000443
v -0.005009 -0.009756 0.003087
v -0.005031 -0.010088 -0.000443
v -0.004963 -0.009756 -0.000443
v -0.005037 -0.009402 0.003442
v -0.005854 -0.009402 0.004187
v -0.006209 -0.009047 0.004195
v -0.005542 -0.009402 0.004076
v -0.005365 -0.009402 0.003932
v -0.009338 -0.010111 -0.000443
v -0.008908 -0.009402 0.004012
v -0.009086 -0.009402 0.003836
v -0.009256 -0.009402 0.003658
v -0.008337 -0.008692 0.004149
v -0.008714 -0.009049 0.004069
v -0.007982 -0.008692 0.004195
v -0.009316 -0.009402 0.003442
v -0.009343 -0.009402 0.003087
v -0.009376 -0.009402 -0.000443
v -0.009382 -0.009756 -0.000443
v -0.009341 -0.010094 -0.000443
v -0.005193 -0.009402 0.003755
v -0.005010 -0.009402 0.003087
v -0.004964 -0.009639 -0.000443
v -0.005076 -0.009047 0.003087
v -0.005106 -0.009047 0.003442
v -0.005229 -0.009047 0.003719
v -0.005854 -0.009047 0.004162
v -0.006209 -0.008692 0.004183
v -0.006564 -0.008692 0.004195
v -0.005581 -0.009047 0.004052
v -0.005403 -0.009047 0.003896
v -0.008887 -0.009169 0.003991
v -0.009239 -0.009148 0.003638
v -0.007982 -0.008338 0.004137
v -0.008312 -0.008356 0.004036
v -0.008539 -0.008486 0.003993
v -0.008605 -0.008692 0.004039
v -0.007627 -0.008338 0.004184
v -0.008847 -0.008932 0.003954
v -0.007273 -0.008338 0.004195
v -0.009256 -0.009037 0.003435
v -0.009281 -0.009047 0.003087
v -0.009322 -0.009047 -0.000443
v -0.004983 -0.009372 -0.000443
v -0.005213 -0.008692 0.003087
v -0.005253 -0.008666 0.003449
v -0.005058 -0.009047 -0.000443
v -0.005181 -0.008710 -0.000443
v -0.005187 -0.008692 -0.000443
v -0.005330 -0.008531 0.003571
v -0.005279 -0.008767 0.003667
v -0.005837 -0.008683 0.004077
v -0.006196 -0.008319 0.004078
v -0.006564 -0.008338 0.004167
v -0.006918 -0.008338 0.004192
v -0.005633 -0.008796 0.004013
v -0.009050 -0.009040 0.003796
v -0.009213 -0.008912 0.003548
v -0.008982 -0.008692 0.003727
v -0.007627 -0.008026 0.004074
v -0.007982 -0.008096 0.004027
v -0.008178 -0.008147 0.003984
v -0.008414 -0.008250 0.003915
v -0.008586 -0.008093 0.003678
v -0.008681 -0.008350 0.003790
v -0.008913 -0.008451 0.003665
v -0.008783 -0.008692 0.003905
v -0.007273 -0.007996 0.004084
v -0.009229 -0.008859 0.003312
v -0.009232 -0.008853 0.003087
v -0.009319 -0.009038 -0.000443
v -0.005308 -0.008494 0.003087
v -0.005313 -0.008502 0.003335
v -0.005284 -0.008486 -0.000443
v -0.005289 -0.008476 -0.000443
v -0.005657 -0.008141 0.003637
v -0.005580 -0.008338 0.003703
v -0.005482 -0.008663 0.003808
v -0.005432 -0.008365 0.003449
v -0.005945 -0.008425 0.004033
v -0.006307 -0.008112 0.004015
v -0.006564 -0.008054 0.004057
v -0.006918 -0.008006 0.004082
v -0.005708 -0.008559 0.003950
v -0.009140 -0.008722 0.003435
v -0.007273 -0.007819 0.003961
v -0.007627 -0.007849 0.003932
v -0.007982 -0.007918 0.003875
v -0.008206 -0.007778 0.003649
v -0.008310 -0.008002 0.003782
v -0.008430 -0.007866 0.003442
v -0.008639 -0.008043 0.003442
v -0.008817 -0.008221 0.003442
v -0.008950 -0.008399 0.003442
v -0.009144 -0.008676 0.003087
v -0.009253 -0.008831 -0.000443
v -0.005437 -0.008317 0.003087
v -0.005295 -0.008467 -0.000443
v -0.005631 -0.008115 0.003442
v -0.006029 -0.007804 0.003621
v -0.005888 -0.008007 0.003689
v -0.006070 -0.008188 0.003953
v -0.005837 -0.008319 0.003886
v -0.006209 -0.007763 0.003662
v -0.006564 -0.007877 0.003908
v -0.006918 -0.007829 0.003952
v -0.007273 -0.007645 0.003784
v -0.007627 -0.007674 0.003755
v -0.007982 -0.007730 0.003698
v -0.007982 -0.007625 0.003442
v -0.008252 -0.007749 0.003442
v -0.008452 -0.007849 0.003087
v -0.008657 -0.008026 0.003087
v -0.008834 -0.008201 0.003087
v -0.008967 -0.008379 0.003087
v -0.008954 -0.008324 -0.000443
v -0.009140 -0.008640 -0.000443
v -0.005615 -0.008098 0.003087
v -0.005431 -0.008298 -0.000443
v -0.005833 -0.007937 0.003442
v -0.005816 -0.007921 0.003087
v -0.006011 -0.007791 0.003442
v -0.006209 -0.007693 0.003442
v -0.006564 -0.007559 0.003442
v -0.006564 -0.007697 0.003731
v -0.006918 -0.007655 0.003774
v -0.007273 -0.007468 0.003495
v -0.007592 -0.007503 0.003407
v -0.007982 -0.007595 0.003087
v -0.008275 -0.007733 0.003087
v -0.008465 -0.007830 -0.000443
v -0.008473 -0.007836 -0.000443
v -0.008707 -0.008039 -0.000443
v -0.008784 -0.008116 -0.000443
v -0.008847 -0.008184 -0.000397
v -0.008897 -0.008247 -0.000443
v -0.005608 -0.008091 -0.000443
v -0.005805 -0.007914 -0.000443
v -0.005994 -0.007779 0.003087
v -0.005974 -0.007771 -0.000443
v -0.005983 -0.007764 -0.000443
v -0.006209 -0.007665 0.003087
v -0.006564 -0.007529 0.003087
v -0.006924 -0.007478 0.003448
v -0.006842 -0.007466 0.003087
v -0.007046 -0.007443 0.003335
v -0.007273 -0.007445 0.003318
v -0.007451 -0.007450 0.003266
v -0.007629 -0.007489 0.003087
v -0.007522 -0.007419 -0.000443
v -0.007716 -0.007484 -0.000443
v -0.007982 -0.007578 -0.000443
v -0.008296 -0.007727 -0.000443
v -0.006209 -0.007650 -0.000443
v -0.006578 -0.007506 -0.000443
v -0.006751 -0.007441 -0.000443
v -0.006915 -0.007403 -0.000443
v -0.007020 -0.007439 0.003087
v -0.007273 -0.007379 -0.000443
v -0.007273 -0.007439 0.003087
v -0.007282 -0.007380 -0.000443
v -0.006918 -0.007402 -0.000443
f 156 180 181
f 179 180 156
f 257 279 258
f 257 256 277
f 278 279 257
f 277 278 257
f 205 180 179
f 314 315 292
f 226 251 253
f 252 251 226
f 1 5 2
f 13 5 12
f 12 23 13
f 165 140 164
f 163 140 165
f 141 140 163
f 165 184 163
f 298 297 296
f 298 278 277
f 296 297 276
f 276 298 277
f 297 298 276
f 277 256 276
f 256 255 276
f 275 294 295
f 296 276 295
f 295 276 275
f 292 315 293
f 274 294 275
f 274 293 294
f 292 293 274
f 128 155 156
f 179 156 178
f 156 155 178
f 182 156 181
f 182 171 156
f 232 257 258
f 231 257 232
f 256 257 247
f 247 257 231
f 313 314 291
f 291 314 292
f 313 291 312
f 322 308 321
f 321 310 322
f 238 261 262
f 304 303 316
f 301 303 304
f 275 276 254
f 254 276 255
f 254 274 275
f 253 274 254
f 254 255 226
f 226 253 254
f 90 89 118
f 126 118 146
f 196 197 175
f 152 154 175
f 154 153 177
f 177 175 154
f 239 212 238
f 121 120 149
f 88 116 117
f 77 105 102
f 53 77 55
f 52 77 53
f 83 109 113
f 64 90 91
f 8 15 6
f 6 2 8
f 8 2 7
f 7 2 5
f 259 260 281
f 185 184 165
f 185 206 184
f 280 261 259
f 280 281 299
f 259 281 280
f 187 212 213
f 179 178 203
f 233 232 258
f 205 232 233
f 204 205 179
f 204 232 205
f 231 232 204
f 179 203 204
f 204 203 231
f 273 291 292
f 273 253 251
f 292 274 273
f 273 274 253
f 323 310 321
f 323 312 310
f 310 312 311
f 311 312 291
f 308 322 309
f 309 322 310
f 309 289 308
f 310 289 309
f 320 324 321
f 321 308 320
f 238 262 263
f 282 262 261
f 243 262 266
f 317 304 316
f 74 100 99
f 269 289 270
f 223 197 196
f 196 222 223
f 200 222 196
f 196 175 200
f 175 177 200
f 287 268 267
f 267 266 287
f 243 266 267
f 288 268 287
f 269 268 288
f 288 289 269
f 248 268 269
f 269 270 248
f 217 216 245
f 268 248 245
f 66 93 92
f 92 93 119
f 66 45 68
f 68 93 66
f 68 45 67
f 67 93 68
f 94 101 120
f 148 147 171
f 149 120 148
f 120 147 148
f 156 171 157
f 171 147 157
f 157 128 156
f 119 93 95
f 120 121 95
f 95 93 67
f 67 94 95
f 95 94 120
f 44 45 66
f 44 26 45
f 18 26 15
f 18 15 8
f 17 18 8
f 28 18 17
f 141 160 137
f 116 86 115
f 217 191 190
f 190 216 217
f 145 117 116
f 19 10 9
f 9 10 3
f 3 10 4
f 12 5 4
f 1 3 4
f 4 5 1
f 22 23 12
f 103 77 79
f 79 77 52
f 20 10 19
f 104 77 103
f 105 77 104
f 33 53 55
f 34 22 33
f 33 57 58
f 33 59 34
f 58 59 33
f 60 59 58
f 60 86 61
f 61 86 87
f 87 116 88
f 87 86 116
f 58 83 85
f 85 60 58
f 86 60 85
f 84 83 58
f 41 42 25
f 25 42 43
f 39 40 25
f 25 40 41
f 91 70 69
f 69 64 91
f 63 89 90
f 90 64 63
f 88 89 63
f 63 64 41
f 41 40 63
f 37 22 36
f 5 13 14
f 14 7 5
f 8 7 14
f 13 25 14
f 207 211 236
f 236 237 207
f 300 280 299
f 207 237 234
f 234 235 207
f 259 235 234
f 234 237 260
f 234 260 259
f 212 235 241
f 241 261 238
f 238 212 241
f 259 261 241
f 241 235 259
f 209 210 186
f 186 210 211
f 186 211 207
f 206 209 186
f 184 206 186
f 208 235 212
f 212 187 208
f 207 235 208
f 208 186 207
f 187 186 208
f 133 134 102
f 106 134 136
f 136 135 106
f 102 134 106
f 136 159 139
f 139 135 136
f 220 247 231
f 231 203 220
f 291 273 272
f 272 273 251
f 305 317 318
f 304 317 305
f 305 285 304
f 262 282 284
f 284 285 262
f 301 304 284
f 304 285 284
f 261 280 283
f 283 282 261
f 280 300 283
f 301 284 283
f 283 284 282
f 283 303 301
f 127 126 146
f 146 153 127
f 127 154 152
f 127 153 154
f 130 158 155
f 130 128 99
f 155 128 130
f 99 100 130
f 226 227 198
f 198 225 226
f 199 175 198
f 198 175 197
f 251 252 224
f 224 252 226
f 226 225 224
f 197 223 224
f 224 198 197
f 225 198 224
f 251 224 250
f 250 224 223
f 202 200 177
f 202 191 217
f 222 248 249
f 249 248 270
f 249 223 222
f 249 250 223
f 244 267 268
f 268 245 244
f 243 267 244
f 244 245 216
f 128 157 129
f 129 157 147
f 99 128 129
f 129 101 99
f 120 101 129
f 129 147 120
f 119 95 122
f 122 95 121
f 45 26 29
f 26 18 29
f 29 18 28
f 28 17 27
f 27 25 43
f 48 49 27
f 112 140 141
f 141 137 112
f 116 115 143
f 143 145 116
f 144 143 115
f 167 143 144
f 216 190 215
f 243 244 215
f 215 244 216
f 166 160 141
f 166 183 160
f 141 163 166
f 166 163 184
f 184 186 166
f 166 186 187
f 11 22 12
f 12 4 11
f 11 4 10
f 10 20 11
f 35 22 34
f 36 22 35
f 34 59 35
f 59 60 35
f 61 36 35
f 35 60 61
f 52 54 78
f 78 79 52
f 30 20 19
f 31 54 52
f 52 53 31
f 20 30 31
f 57 33 56
f 56 33 55
f 58 57 56
f 56 84 58
f 83 84 56
f 86 85 114
f 114 115 86
f 114 83 113
f 114 85 83
f 24 13 23
f 24 25 13
f 24 23 39
f 39 25 24
f 16 17 8
f 8 14 16
f 16 14 25
f 16 27 17
f 25 27 16
f 47 69 70
f 47 70 71
f 71 72 47
f 47 49 48
f 72 49 47
f 48 27 47
f 43 42 65
f 65 42 41
f 41 64 65
f 64 69 65
f 62 87 88
f 88 63 62
f 61 87 62
f 62 36 61
f 62 37 36
f 62 63 40
f 40 37 62
f 38 37 40
f 39 23 38
f 38 40 39
f 23 22 38
f 22 37 38
f 105 133 132
f 102 105 132
f 132 133 102
f 162 139 159
f 162 164 140
f 140 139 162
f 109 83 81
f 290 289 310
f 291 272 290
f 310 311 290
f 290 311 291
f 319 305 318
f 324 320 319
f 285 305 286
f 287 266 286
f 286 266 262
f 262 285 286
f 303 283 302
f 302 283 300
f 98 74 71
f 100 74 98
f 98 125 100
f 124 125 96
f 96 98 71
f 125 98 96
f 71 70 96
f 158 130 151
f 151 130 124
f 158 151 174
f 174 178 155
f 155 158 174
f 150 151 124
f 150 127 152
f 152 172 150
f 131 125 124
f 124 130 131
f 100 125 131
f 131 130 100
f 73 72 71
f 73 49 72
f 71 74 73
f 74 49 73
f 251 250 271
f 271 249 270
f 250 249 271
f 271 272 251
f 271 290 272
f 271 270 289
f 289 290 271
f 217 245 230
f 230 202 217
f 230 248 222
f 230 245 248
f 222 200 230
f 200 202 230
f 145 143 168
f 168 143 167
f 168 190 191
f 167 190 168
f 142 144 115
f 142 114 113
f 115 114 142
f 113 138 142
f 160 183 161
f 138 137 161
f 161 137 160
f 161 142 138
f 144 142 161
f 188 187 213
f 188 166 187
f 183 166 188
f 243 215 242
f 22 11 21
f 21 11 20
f 20 31 21
f 54 31 51
f 51 31 30
f 80 56 55
f 107 81 80
f 80 81 56
f 55 77 80
f 80 77 102
f 102 106 80
f 80 106 107
f 69 47 46
f 46 65 69
f 43 65 46
f 46 27 43
f 46 47 27
f 135 139 110
f 110 81 107
f 110 106 135
f 107 106 110
f 108 112 137
f 108 81 112
f 108 137 138
f 109 81 108
f 108 138 113
f 113 109 108
f 83 56 82
f 82 81 83
f 56 81 82
f 199 198 229
f 307 319 320
f 305 319 307
f 307 320 308
f 307 286 305
f 308 289 306
f 306 307 308
f 286 307 306
f 289 288 306
f 306 288 287
f 287 286 306
f 124 96 123
f 123 150 124
f 127 150 123
f 173 174 151
f 173 150 172
f 151 150 173
f 75 94 67
f 67 76 75
f 101 94 75
f 75 49 74
f 99 101 75
f 75 74 99
f 238 263 264
f 243 242 264
f 264 262 243
f 264 263 262
f 246 239 238
f 189 190 167
f 32 31 53
f 32 21 31
f 53 33 32
f 32 33 22
f 22 21 32
f 111 110 139
f 111 139 140
f 140 112 111
f 112 81 111
f 81 110 111
f 176 172 152
f 152 175 176
f 176 175 199
f 221 229 228
f 228 227 226
f 228 198 227
f 228 229 198
f 226 255 228
f 228 255 256
f 220 221 228
f 256 247 228
f 247 220 228
f 97 123 96
f 126 127 97
f 127 123 97
f 118 126 97
f 97 70 91
f 97 96 70
f 91 90 97
f 90 118 97
f 174 173 195
f 178 174 195
f 195 221 220
f 195 219 221
f 195 203 178
f 195 220 203
f 201 229 221
f 221 219 201
f 199 229 201
f 201 176 199
f 50 75 76
f 28 27 50
f 50 27 49
f 49 75 50
f 45 29 50
f 50 29 28
f 67 45 50
f 50 76 67
f 238 264 265
f 265 264 242
f 265 246 238
f 242 246 265
f 239 246 240
f 213 212 240
f 212 239 240
f 167 144 169
f 169 189 167
f 219 195 194
f 194 201 219
f 194 173 172
f 194 195 173
f 172 176 194
f 176 201 194
f 190 189 214
f 214 215 190
f 214 242 215
f 189 169 192
f 192 214 189
f 218 240 246
f 214 192 218
f 213 240 218
f 218 246 242
f 242 214 218
f 170 192 169
f 170 161 183
f 183 188 170
f 144 161 170
f 170 169 144
f 193 218 192
f 193 170 188
f 192 170 193
f 193 188 213
f 213 218 193
f 146 118 168
f 191 202 168
f 168 89 88
f 168 118 89
f 168 153 146
f 168 177 153
f 88 117 168
f 117 145 168
f 168 202 177
f 181 180 51
f 165 164 51
f 51 3 1
f 51 298 296
f 103 79 51
f 51 317 316
f 51 182 181
f 315 314 51
f 258 279 51
f 51 233 258
f 51 104 103
f 51 6 15
f 51 293 315
f 51 159 136
f 321 324 51
f 149 148 51
f 51 121 149
f 1 2 51
f 51 279 278
f 296 295 51
f 66 92 51
f 180 205 51
f 51 314 313
f 51 323 321
f 211 210 51
f 51 44 66
f 19 9 51
f 299 281 51
f 51 185 165
f 51 236 211
f 136 134 51
f 278 298 51
f 51 295 294
f 294 293 51
f 171 182 51
f 313 312 51
f 164 162 51
f 316 303 51
f 51 133 105
f 15 26 51
f 51 78 54
f 2 6 51
f 51 281 260
f 260 237 51
f 206 185 51
f 51 209 206
f 51 300 299
f 51 30 19
f 205 233 51
f 312 323 51
f 318 317 51
f 51 92 119
f 51 148 171
f 26 44 51
f 51 9 3
f 119 122 51
f 105 104 51
f 237 236 51
f 51 210 209
f 51 319 318
f 134 133 51
f 51 122 121
f 79 78 51
f 303 302 51
f 51 162 159
f 324 319 51
f 51 302 300
