v -0.019885 0.001513 0.004397
v -0.019885 0.001513 0.009100
v -0.019773 0.002449 0.004397
v -0.019490 -0.000178 0.004397
v -0.019586 0.001528 0.009400
v -0.019678 0.003236 0.009100
v -0.019490 -0.000178 0.009100
v -0.019678 0.003236 0.004397
v -0.019056 -0.000842 0.004397
v -0.019391 0.003149 0.009400
v -0.019214 -0.000060 0.009400
v -0.019252 0.004078 0.004397
v -0.018654 0.004606 0.009400
v -0.018894 0.004786 0.009100
v -0.018540 -0.001632 0.009100
v -0.018540 -0.001632 0.004397
v -0.018321 -0.001426 0.009400
v -0.018894 0.004786 0.004397
v -0.017463 0.005722 0.009400
v -0.017627 0.005973 0.009100
v -0.018205 0.005431 0.004397
v -0.017906 -0.002107 0.004397
v -0.017150 -0.002673 0.009100
v -0.017015 -0.002405 0.009400
v -0.015963 0.006364 0.009400
v -0.017627 0.005973 0.004397
v -0.016030 0.006656 0.009100
v -0.016759 0.006344 0.004397
v -0.017150 -0.002673 0.004397
v -0.016391 -0.002903 0.004397
v -0.015489 -0.003176 0.009100
v -0.015452 -0.002878 0.009400
v -0.014333 0.006453 0.009400
v -0.014297 0.006751 0.009100
v -0.016030 0.006656 0.004397
v -0.014386 0.006747 0.004397
v -0.015489 -0.003176 0.004397
v -0.009884 -0.003849 0.009100
v -0.009884 -0.003719 0.009230
v -0.009884 -0.003546 0.009400
v -0.009884 0.005920 0.009400
v -0.009884 0.006222 0.009100
v -0.014297 0.006751 0.004397
v -0.013926 -0.003117 0.004397
v -0.009884 -0.003546 0.004400
v -0.009884 -0.003583 0.004436
v -0.009884 -0.003691 0.004543
v -0.009884 -0.003849 0.004700
v -0.009884 0.006222 0.004700
v -0.009884 0.005920 0.004400
v -0.012792 0.006325 0.004397
v -0.013760 -0.003082 0.004397
v -0.012459 -0.002578 0.004397
v -0.011228 -0.001612 0.004397
v -0.010357 -0.000313 0.004397
v -0.009929 0.001192 0.004397
v -0.009988 0.002755 0.004397
v -0.010527 0.004223 0.004397
v -0.011493 0.005453 0.004397
v -0.012639 0.006250 0.004397
f 23 31 24
f 50 45 56
f 2 7 5
f 5 6 2
f 14 6 13
f 34 25 33
f 33 41 34
f 32 24 31
f 32 39 40
f 38 39 32
f 32 31 38
f 10 6 5
f 10 13 6
f 34 41 42
f 43 49 50
f 5 7 11
f 24 17 15
f 23 24 15
f 17 11 15
f 15 11 7
f 48 37 47
f 13 19 20
f 14 13 20
f 20 19 25
f 58 59 50
f 34 43 36
f 51 43 50
f 55 56 45
f 45 54 55
f 46 37 45
f 46 47 37
f 21 18 14
f 14 20 21
f 27 20 25
f 27 25 34
f 27 36 35
f 34 36 27
f 50 56 57
f 57 58 50
f 1 2 3
f 3 2 6
f 6 8 3
f 12 8 6
f 12 6 14
f 14 18 12
f 50 59 60
f 60 51 50
f 45 37 44
f 44 52 45
f 53 54 45
f 45 52 53
f 26 21 20
f 7 4 9
f 9 15 7
f 9 16 15
f 30 37 31
f 30 31 23
f 23 29 30
f 15 16 22
f 22 29 23
f 23 15 22
f 28 27 35
f 20 27 28
f 28 26 20
f 37 48 38
f 38 31 37
f 43 42 49
f 34 42 43
f 40 41 11
f 25 19 11
f 11 33 25
f 11 10 5
f 11 32 40
f 41 33 11
f 11 17 24
f 24 32 11
f 11 19 13
f 13 10 11
f 38 48 46
f 50 49 46
f 46 45 50
f 46 41 40
f 46 42 41
f 46 39 38
f 40 39 46
f 49 42 46
f 48 47 46
f 4 2 1
f 7 2 4
f 28 12 18
f 28 60 59
f 28 57 56
f 54 53 28
f 16 9 28
f 35 36 28
f 56 55 28
f 59 58 28
f 1 3 28
f 28 36 43
f 43 51 28
f 28 4 1
f 28 55 54
f 28 44 37
f 18 21 28
f 58 57 28
f 28 3 8
f 8 12 28
f 51 60 28
f 28 22 16
f 37 30 28
f 52 44 28
f 28 53 52
f 21 26 28
f 28 9 4
f 28 30 29
f 29 22 28
