v -0.014298 0.006751 0.004397
v -0.014298 0.006751 -0.001199
v -0.014387 0.006746 0.004397
v -0.012808 0.006329 0.004397
v -0.012793 0.006324 -0.001199
v -0.014333 0.006454 -0.001500
v -0.015963 0.006364 -0.001500
v -0.016031 0.006656 -0.001199
v -0.016031 0.006656 0.004397
v -0.012793 0.006324 0.004397
v -0.012639 0.006250 0.004397
v -0.011494 0.005454 -0.001199
v -0.012919 0.006052 -0.001500
v -0.013845 0.004329 -0.001507
v -0.013851 0.004330 -0.001507
v -0.015145 0.004526 -0.001507
v -0.015151 0.004524 -0.001507
v -0.016389 0.004095 -0.001507
v -0.017463 0.005722 -0.001500
v -0.017627 0.005974 -0.001199
v -0.017627 0.005974 0.004397
v -0.011494 0.005454 0.004397
v -0.011698 0.005233 -0.001500
v -0.010527 0.004223 -0.001199
v -0.012783 0.003551 -0.001507
v -0.017290 0.003135 -0.001507
v -0.018654 0.004605 -0.001500
v -0.018894 0.004786 -0.001199
v -0.018894 0.004786 0.004397
v -0.010527 0.004223 0.004397
v -0.010789 0.004077 -0.001500
v -0.009988 0.002755 -0.001199
v -0.010283 0.002696 -0.001500
v -0.012205 0.002368 -0.001507
v -0.017642 0.001866 -0.001507
v -0.019391 0.003149 -0.001500
v -0.019252 0.004078 0.004397
v -0.019678 0.003236 -0.001199
v -0.009988 0.002755 0.004397
v -0.009929 0.001192 -0.001199
v -0.010227 0.001228 -0.001500
v -0.012243 0.001053 -0.001507
v -0.017363 0.000581 -0.001507
v -0.019585 0.001529 -0.001500
v -0.019886 0.001513 -0.001199
v -0.019678 0.003236 0.004397
v -0.009929 0.001192 0.004397
v -0.010357 -0.000312 -0.001199
v -0.010629 -0.000186 -0.001500
v -0.012886 -0.000089 -0.001507
v -0.017360 0.000577 -0.001507
v -0.018321 -0.001426 -0.001500
v -0.019214 -0.000060 -0.001500
v -0.019886 0.001513 0.004397
v -0.019490 -0.000177 -0.001199
v -0.010357 -0.000312 0.004397
v -0.011228 -0.001612 -0.001199
v -0.011447 -0.001408 -0.001500
v -0.012889 -0.000094 -0.001507
v -0.016519 -0.000429 -0.001507
v -0.018541 -0.001631 -0.001199
v -0.017015 -0.002405 -0.001500
v -0.017151 -0.002673 -0.001199
v -0.019490 -0.000177 0.004397
v -0.011228 -0.001612 0.004397
v -0.012459 -0.002579 0.004397
v -0.012458 -0.002578 -0.001199
v -0.012604 -0.002316 -0.001500
v -0.013988 -0.000807 -0.001507
v -0.015303 -0.000931 -0.001507
v -0.017906 -0.002108 0.004397
v -0.018541 -0.001631 0.004397
v -0.015453 -0.002878 -0.001500
v -0.015489 -0.003176 -0.001199
v -0.017151 -0.002673 0.004397
v -0.013760 -0.003081 0.004397
v -0.013927 -0.003117 -0.001199
v -0.013984 -0.002823 -0.001500
v -0.013993 -0.000810 -0.001507
v -0.015297 -0.000931 -0.001507
v -0.015408 -0.003173 0.004397
v -0.015489 -0.003176 0.004397
v -0.013927 -0.003117 0.004397
f 77 81 74
f 12 5 11
f 74 81 82
f 61 63 71
f 72 61 71
f 63 75 71
f 57 65 66
f 12 11 22
f 4 5 2
f 4 2 1
f 37 38 46
f 29 28 37
f 28 38 37
f 1 2 3
f 9 3 8
f 8 3 2
f 57 66 67
f 81 77 83
f 10 11 5
f 5 4 10
f 76 83 77
f 77 67 76
f 76 67 66
f 61 55 53
f 53 55 45
f 2 5 6
f 57 67 68
f 68 67 77
f 7 8 2
f 2 6 7
f 20 8 7
f 13 5 12
f 13 6 5
f 58 48 57
f 57 68 58
f 28 20 19
f 20 7 19
f 16 7 6
f 12 24 23
f 23 13 12
f 40 48 49
f 48 58 49
f 52 63 61
f 52 62 63
f 61 53 52
f 52 53 43
f 36 38 28
f 45 38 36
f 6 13 14
f 13 23 14
f 33 32 40
f 24 32 33
f 28 19 27
f 27 36 28
f 44 53 45
f 45 36 44
f 43 53 44
f 15 16 6
f 6 14 15
f 40 49 41
f 41 33 40
f 49 42 41
f 31 23 24
f 24 33 31
f 60 70 62
f 62 52 60
f 62 70 73
f 73 77 74
f 74 63 73
f 63 62 73
f 59 49 58
f 59 58 68
f 68 69 59
f 36 27 26
f 25 14 23
f 23 31 25
f 51 52 43
f 51 60 52
f 78 68 77
f 77 73 78
f 50 42 49
f 49 59 50
f 18 19 7
f 18 27 19
f 18 26 27
f 43 44 35
f 35 44 36
f 36 26 35
f 33 41 34
f 34 41 42
f 34 31 33
f 34 25 31
f 79 69 68
f 68 78 79
f 7 16 17
f 17 18 7
f 80 79 78
f 80 73 70
f 80 78 73
f 57 48 65
f 65 48 56
f 47 48 40
f 56 48 47
f 64 55 61
f 64 61 72
f 45 55 64
f 64 54 45
f 54 46 38
f 45 54 38
f 29 21 20
f 20 28 29
f 82 63 74
f 82 75 63
f 22 24 12
f 30 24 22
f 21 9 8
f 8 20 21
f 39 24 30
f 39 32 24
f 39 47 40
f 40 32 39
f 76 64 72
f 76 4 1
f 56 47 76
f 76 65 56
f 76 82 81
f 30 22 76
f 76 46 54
f 76 21 29
f 29 37 76
f 72 71 76
f 1 3 76
f 11 10 76
f 54 64 76
f 76 9 21
f 75 82 76
f 76 71 75
f 76 66 65
f 76 22 11
f 81 83 76
f 76 37 46
f 76 3 9
f 76 39 30
f 76 10 4
f 47 39 76
f 14 25 80
f 80 59 69
f 16 15 80
f 80 34 42
f 69 79 80
f 80 15 14
f 70 60 80
f 80 51 43
f 42 50 80
f 43 35 80
f 60 51 80
f 80 50 59
f 26 18 80
f 80 35 26
f 25 34 80
f 80 17 16
f 18 17 80
