v 0.017909 0.000887 -0.007200
v 0.017904 0.000834 -0.007147
v 0.017909 0.000834 -0.007200
v 0.017909 0.000887 -0.007909
v 0.017872 0.001242 -0.007200
v 0.017842 0.001242 -0.006845
v 0.017874 0.000887 -0.006845
v 0.017874 0.000834 -0.006845
v 0.013507 -0.002866 0.003442
v 0.013164 -0.003225 -0.000436
v 0.017909 0.000834 -0.007909
v 0.013522 -0.002882 0.003086
v 0.013324 -0.003060 0.003086
v 0.017815 0.000834 -0.008291
v 0.017808 0.000909 -0.008299
v 0.017803 0.001242 -0.008241
v 0.017781 0.001596 -0.008198
v 0.017759 0.001951 -0.008145
v 0.017744 0.002178 -0.008106
v 0.017872 0.001242 -0.007909
v 0.017827 0.001596 -0.007200
v 0.017744 0.002178 -0.006970
v 0.017727 0.002047 -0.006734
v 0.017740 0.001810 -0.006664
v 0.016519 0.002306 -0.001527
v 0.016555 0.001951 -0.001527
v 0.017758 0.001937 -0.006849
v 0.016613 0.000834 -0.001527
v 0.013811 -0.002436 0.003442
v 0.013659 -0.002661 0.003442
v 0.013488 -0.002845 0.003625
v 0.013276 -0.003068 0.003449
v 0.013139 -0.003201 0.003336
v 0.012948 -0.003339 -0.000436
v 0.013147 -0.003206 0.003086
v 0.012948 -0.003320 0.003086
v 0.017744 0.000834 -0.008448
v 0.017736 0.001042 -0.008439
v 0.017723 0.001242 -0.008419
v 0.017700 0.001596 -0.008375
v 0.017678 0.001951 -0.008322
v 0.017513 0.003370 -0.008265
v 0.017538 0.003724 -0.007909
v 0.017595 0.003370 -0.007909
v 0.017688 0.002661 -0.007909
v 0.017781 0.001951 -0.007909
v 0.017827 0.001596 -0.007909
v 0.017781 0.001951 -0.007200
v 0.017688 0.002661 -0.007200
v 0.017595 0.003370 -0.007200
v 0.017560 0.003370 -0.006845
v 0.017709 0.002300 -0.006849
v 0.016322 0.003212 -0.001340
v 0.016346 0.003015 -0.001299
v 0.016386 0.002661 -0.001234
v 0.016442 0.001951 -0.001172
v 0.017506 0.003724 -0.006845
v 0.016597 0.000834 -0.001474
v 0.016501 0.000834 -0.001172
v 0.013865 -0.002197 0.003653
v 0.013895 -0.002258 0.003442
v 0.013113 -0.003184 0.003572
v 0.013555 -0.002661 0.003688
v 0.013438 -0.002413 0.003940
v 0.013313 -0.002674 0.003872
v 0.013082 -0.002802 0.003949
v 0.013303 -0.002926 0.003694
v 0.012977 -0.003276 0.003449
v 0.012578 -0.003499 -0.000436
v 0.012594 -0.003479 0.003086
v 0.012594 -0.003451 0.003442
v 0.017595 0.000909 -0.008546
v 0.017546 0.001242 -0.008564
v 0.017524 0.001596 -0.008556
v 0.012266 -0.003608 -0.000436
v 0.017589 0.000834 -0.008553
v 0.017501 0.001951 -0.008544
v 0.017477 0.002306 -0.008529
v 0.017453 0.002661 -0.008510
v 0.017430 0.003015 -0.008488
v 0.017406 0.003370 -0.008465
v 0.017391 0.003589 -0.008450
v 0.017450 0.003714 -0.008284
v 0.017419 0.004079 -0.008166
v 0.017445 0.004102 -0.007933
v 0.017452 0.004079 -0.007909
v 0.017538 0.003724 -0.007200
v 0.017402 0.003976 -0.006646
v 0.015980 0.004681 -0.001318
v 0.016008 0.004434 -0.001268
v 0.016398 0.002271 -0.001150
v 0.016268 0.002661 -0.001056
v 0.013903 -0.000887 0.003694
v 0.013932 -0.001241 0.003726
v 0.017422 0.004088 -0.006858
v 0.013929 -0.001596 0.003722
v 0.013900 -0.001950 0.003690
v 0.013723 -0.001950 0.003868
v 0.013505 -0.002176 0.003995
v 0.013658 -0.002304 0.003796
v 0.012877 -0.003248 0.003678
v 0.013201 -0.002566 0.004025
v 0.012980 -0.003035 0.003813
v 0.012846 -0.002886 0.004012
v 0.012384 -0.003543 0.003086
v 0.012594 -0.003307 0.003736
v 0.012261 -0.003532 0.003467
v 0.017260 0.000834 -0.008676
v 0.017206 0.001242 -0.008690
v 0.017206 0.001596 -0.008683
v 0.017206 0.001951 -0.008670
v 0.017206 0.002385 -0.008650
v 0.017206 0.002661 -0.008636
v 0.017206 0.003015 -0.008614
v 0.017206 0.003370 -0.008592
v 0.011885 -0.003641 -0.000436
v 0.017206 0.000834 -0.008694
v 0.012207 -0.003565 0.003086
v 0.017232 0.003714 -0.008544
v 0.017368 0.003826 -0.008416
v 0.017155 0.004079 -0.008545
v 0.017329 0.004102 -0.008337
v 0.017409 0.004102 -0.008171
v 0.017412 0.004102 -0.008159
v 0.015996 0.004681 -0.005143
v 0.017445 0.004102 -0.007200
v 0.017452 0.004079 -0.007200
v 0.017420 0.004102 -0.006867
v 0.017416 0.004102 -0.006845
v 0.015875 0.004681 -0.001157
v 0.015996 0.004681 -0.001527
v 0.015890 0.004434 -0.001092
v 0.013864 -0.000633 0.003651
v 0.013730 -0.000887 0.003871
v 0.013765 -0.001241 0.003904
v 0.013761 -0.001596 0.003900
v 0.013545 -0.001950 0.004030
v 0.013313 -0.002299 0.004061
v 0.012594 -0.003123 0.003912
v 0.012948 -0.002305 0.004177
v 0.012958 -0.002674 0.004071
v 0.012594 -0.002946 0.004055
v 0.012157 -0.003559 0.003366
v 0.012239 -0.003175 0.003957
v 0.012239 -0.003353 0.003779
v 0.011885 -0.003545 0.003606
v 0.017206 0.000887 -0.008694
v 0.016851 0.003724 -0.008690
v 0.016851 0.003370 -0.008695
v 0.016851 0.004079 -0.008671
v 0.017136 0.004102 -0.008551
v 0.011523 -0.003597 -0.000436
v 0.009601 0.000834 -0.008122
v 0.009747 0.000834 -0.008146
v 0.010112 0.000834 -0.008187
v 0.015841 0.000834 -0.008691
v 0.016141 0.000834 -0.008695
v 0.016901 0.000834 -0.008695
v 0.011885 -0.003585 0.003086
v 0.011603 -0.003568 0.003086
v 0.017152 0.004102 -0.008542
v 0.017318 0.004102 -0.008356
v 0.010825 0.004681 -0.005143
v 0.016851 0.004102 -0.008669
v 0.016828 0.004102 -0.008672
v 0.016495 0.004102 -0.008695
v 0.015687 0.004681 -0.000931
v 0.013663 -0.000526 0.003795
v 0.013509 -0.000656 0.004000
v 0.013553 -0.000887 0.004036
v 0.013587 -0.001241 0.004063
v 0.013584 -0.001596 0.004061
v 0.013303 -0.001950 0.004141
v 0.012948 -0.001950 0.004195
v 0.012594 -0.002305 0.004195
v 0.012239 -0.002661 0.004191
v 0.012594 -0.002661 0.004166
v 0.013303 -0.001596 0.004171
v 0.012239 -0.002998 0.004080
v 0.011885 -0.003566 0.003428
v 0.011885 -0.003191 0.003972
v 0.011885 -0.003368 0.003795
v 0.011526 -0.003524 0.003476
v 0.011639 -0.003561 0.003380
v 0.011531 -0.003349 0.003777
v 0.011176 -0.003293 0.003722
v 0.011514 -0.003596 -0.000436
v 0.009464 0.000834 -0.008058
v 0.011462 0.004102 -0.008565
v 0.011505 0.004102 -0.008583
v 0.011862 0.004102 -0.008688
v 0.011884 0.004079 -0.008690
v 0.012239 0.003370 -0.008664
v 0.012593 0.003370 -0.008695
v 0.012949 0.003015 -0.008686
v 0.011428 -0.003532 0.003086
v 0.005318 0.002457 -0.003832
v 0.010368 0.004681 -0.004009
v 0.012215 0.004102 -0.008695
v 0.011884 0.004102 -0.008690
v 0.011391 0.004102 -0.008529
v 0.011310 0.004102 -0.008481
v 0.011190 0.004102 -0.008294
v 0.015431 0.004681 -0.000837
v 0.012594 0.000297 0.003920
v 0.012851 0.000054 0.004018
v 0.013087 -0.000031 0.003950
v 0.013205 -0.000267 0.004030
v 0.013497 0.000017 0.003635
v 0.013566 -0.000177 0.003694
v 0.013441 -0.000419 0.003940
v 0.013315 -0.000536 0.004068
v 0.013303 -0.000887 0.004146
v 0.013303 -0.001241 0.004174
v 0.012948 -0.000887 0.004195
v 0.011885 -0.002661 0.004195
v 0.011885 -0.003013 0.004084
v 0.011531 -0.003172 0.003954
v 0.011531 -0.002995 0.004079
v 0.010913 -0.003236 0.003664
v 0.011176 -0.003421 0.003442
v 0.011176 -0.003112 0.003900
v 0.011363 -0.003553 -0.000436
v 0.009339 0.000834 -0.007986
v 0.012239 0.003724 -0.008695
v 0.011176 -0.003451 0.003086
v 0.005278 0.002457 -0.003653
v 0.010282 0.004681 -0.003653
v 0.005325 0.002457 -0.003845
v 0.005914 0.000834 -0.003953
v 0.005762 0.000834 -0.003653
v 0.005405 0.002457 -0.003923
v 0.015077 0.004681 -0.000807
v 0.012112 0.000717 0.003630
v 0.012112 0.000365 0.003983
v 0.012348 0.000341 0.003959
v 0.012594 0.000119 0.004061
v 0.012962 -0.000160 0.004079
v 0.012948 -0.000532 0.004181
v 0.012594 -0.000532 0.004195
v 0.011176 -0.002305 0.004195
v 0.011531 -0.002661 0.004190
v 0.011176 -0.002934 0.004048
v 0.011176 -0.002661 0.004159
v 0.010296 -0.002829 0.003588
v 0.010670 -0.003175 0.003442
v 0.010847 -0.003272 0.003442
v 0.010948 -0.002874 0.004005
v 0.010813 -0.003022 0.003796
v 0.010533 -0.002934 0.003694
v 0.011195 -0.003482 -0.000436
v 0.009181 0.000834 -0.007847
v 0.010823 -0.003289 0.003086
v 0.010847 -0.003324 -0.000436
v 0.005272 0.002457 -0.003596
v 0.005243 0.002457 -0.003297
v 0.005226 0.002457 -0.001171
v 0.010307 0.004681 -0.001882
v 0.010639 -0.003217 -0.000436
v 0.010626 -0.003210 -0.000436
v 0.005730 0.000834 -0.003297
v 0.011533 0.004681 -0.000807
v 0.011885 0.000717 0.003630
v 0.011885 0.000543 0.003807
v 0.011885 0.000366 0.003984
v 0.011885 0.000178 0.004094
v 0.012234 0.000205 0.004068
v 0.012594 -0.000177 0.004172
v 0.012239 -0.000177 0.004194
v 0.011885 -0.000177 0.004195
v 0.010821 -0.001950 0.004195
v 0.010821 -0.002305 0.004170
v 0.010826 -0.002661 0.004061
v 0.010279 -0.002850 0.003351
v 0.010435 -0.002973 0.003458
v 0.010444 -0.002687 0.003807
v 0.010220 -0.002593 0.003682
v 0.009926 -0.002150 0.003629
v 0.005727 0.000834 -0.001171
v 0.010646 -0.003192 0.003086
v 0.010592 -0.002543 0.004015
v 0.010711 -0.002779 0.003930
v 0.010821 -0.003312 -0.000436
v 0.005726 0.000834 -0.001224
v 0.005292 0.002393 -0.000958
v 0.005277 0.002457 -0.000948
v 0.010353 0.004681 -0.001527
v 0.005724 0.000834 -0.001527
v 0.011176 0.004681 -0.000832
v 0.011689 0.000711 0.003622
v 0.011685 0.000359 0.003978
v 0.011531 -0.000177 0.004191
v 0.011554 0.000200 0.004063
v 0.011176 -0.000532 0.004195
v 0.010821 -0.000887 0.004195
v 0.010466 -0.001596 0.004151
v 0.010466 -0.001950 0.004117
v 0.010471 -0.002276 0.004045
v 0.010354 -0.002375 0.003919
v 0.010284 -0.002137 0.003978
v 0.010133 -0.002262 0.003774
v 0.010075 -0.001950 0.003838
v 0.009899 -0.001950 0.003660
v 0.005644 0.001316 -0.000954
v 0.005883 0.000834 -0.000900
v 0.010039 -0.001596 0.003871
v 0.010040 -0.001241 0.003868
v 0.010218 -0.001241 0.004040
v 0.010253 -0.000887 0.004007
v 0.010282 -0.000696 0.003979
v 0.010349 -0.000459 0.003926
v 0.010587 -0.000287 0.004016
v 0.010702 -0.000049 0.003940
v 0.010938 0.000043 0.004007
v 0.010906 0.000408 0.003673
v 0.011176 0.000468 0.003732
v 0.010868 0.004681 -0.000936
v 0.010718 0.004681 -0.001059
v 0.010526 0.004681 -0.001225
v 0.009870 -0.001596 0.003693
v 0.011570 0.000524 0.003788
v 0.011451 0.000333 0.003952
v 0.011176 -0.000177 0.004161
v 0.010821 -0.000532 0.004170
v 0.011176 0.000104 0.004051
v 0.010466 -0.001241 0.004150
v 0.010215 -0.001596 0.004040
v 0.010253 -0.001950 0.004007
v 0.010466 -0.000887 0.004117
v 0.010467 -0.000559 0.004046
v 0.010821 -0.000172 0.004063
v 0.011176 0.000281 0.003910
f 245 279 274
f 286 287 257
f 116 117 75
f 155 156 116
f 116 156 157
f 320 286 303
f 290 289 316
f 233 234 204
f 204 234 235
f 223 224 188
f 257 261 288
f 256 261 257
f 231 261 256
f 14 11 10
f 59 94 96
f 69 75 37
f 37 75 76
f 76 72 37
f 10 11 3
f 3 13 10
f 116 75 118
f 118 75 105
f 158 117 116
f 116 157 158
f 279 305 304
f 310 286 309
f 310 311 286
f 313 314 286
f 286 314 315
f 315 316 286
f 286 316 317
f 317 316 289
f 317 318 286
f 167 204 205
f 231 230 260
f 260 261 231
f 260 288 261
f 252 232 224
f 224 223 252
f 223 251 252
f 231 256 255
f 287 286 319
f 286 318 319
f 74 37 73
f 37 72 73
f 72 76 73
f 56 94 59
f 56 91 94
f 60 59 97
f 59 96 97
f 136 97 96
f 167 133 130
f 108 75 117
f 108 76 75
f 108 73 76
f 10 13 35
f 35 36 10
f 10 36 34
f 34 69 37
f 34 14 10
f 37 14 34
f 105 75 70
f 75 69 70
f 69 34 70
f 70 34 36
f 13 3 12
f 306 320 303
f 286 320 306
f 176 179 177
f 143 118 105
f 154 155 116
f 116 153 154
f 187 223 188
f 188 153 187
f 194 157 156
f 189 153 188
f 6 7 1
f 279 304 285
f 285 304 286
f 257 279 285
f 285 286 257
f 270 292 294
f 271 295 296
f 314 325 332
f 332 315 314
f 316 315 332
f 266 292 270
f 266 267 235
f 270 269 266
f 266 269 267
f 295 294 324
f 324 292 323
f 324 294 292
f 290 264 263
f 263 264 234
f 263 262 289
f 263 289 290
f 236 204 235
f 236 205 204
f 237 205 236
f 236 267 237
f 235 267 236
f 288 260 284
f 284 279 257
f 257 288 284
f 283 252 254
f 254 252 251
f 232 252 229
f 229 252 230
f 259 252 283
f 259 260 230
f 230 252 259
f 60 29 61
f 28 8 7
f 28 29 8
f 28 61 29
f 60 61 28
f 206 205 237
f 167 205 206
f 237 267 268
f 267 269 268
f 7 8 2
f 1 7 2
f 2 3 1
f 278 279 245
f 278 305 279
f 278 304 305
f 303 286 278
f 286 304 278
f 286 306 307
f 175 216 176
f 64 99 102
f 174 175 140
f 176 177 140
f 140 175 176
f 245 274 275
f 275 246 245
f 280 274 279
f 279 284 280
f 280 275 274
f 246 275 280
f 280 284 260
f 260 259 280
f 146 186 183
f 223 187 196
f 196 187 160
f 196 183 221
f 116 118 159
f 159 160 116
f 118 143 159
f 152 153 116
f 152 187 153
f 116 160 152
f 160 187 152
f 89 53 88
f 88 129 89
f 156 155 195
f 195 194 156
f 155 194 195
f 192 154 153
f 165 166 125
f 125 124 123
f 85 124 125
f 188 224 201
f 201 189 188
f 5 6 1
f 22 6 5
f 7 6 26
f 26 28 7
f 26 56 59
f 316 332 322
f 322 332 325
f 311 310 312
f 286 311 312
f 312 313 286
f 314 313 312
f 197 230 231
f 197 229 230
f 94 91 93
f 133 134 93
f 93 130 133
f 89 130 90
f 90 93 92
f 97 136 98
f 60 97 98
f 98 99 60
f 60 99 100
f 100 99 64
f 99 98 137
f 207 208 167
f 167 206 207
f 207 206 208
f 167 208 209
f 209 210 167
f 169 134 133
f 208 206 238
f 238 206 237
f 237 268 238
f 240 269 270
f 221 183 220
f 220 183 186
f 245 246 220
f 142 177 179
f 303 278 302
f 302 306 303
f 328 327 302
f 302 327 306
f 277 278 245
f 301 278 277
f 138 102 99
f 138 137 173
f 99 137 138
f 173 140 138
f 138 140 102
f 64 102 65
f 65 102 66
f 71 70 36
f 105 70 71
f 36 35 33
f 33 35 13
f 8 29 30
f 253 259 283
f 253 280 259
f 283 254 253
f 246 280 253
f 160 159 184
f 146 183 184
f 184 196 160
f 183 196 184
f 180 143 146
f 180 159 143
f 146 184 180
f 180 184 159
f 51 22 50
f 19 42 43
f 89 129 128
f 86 43 85
f 57 88 53
f 51 50 57
f 193 194 155
f 155 154 193
f 154 192 193
f 191 192 153
f 17 16 39
f 123 124 84
f 43 42 84
f 85 43 84
f 84 124 85
f 110 111 73
f 158 149 147
f 117 158 147
f 147 108 117
f 148 149 166
f 148 166 165
f 111 110 148
f 89 128 131
f 131 128 126
f 224 232 202
f 202 201 224
f 232 229 202
f 91 56 55
f 55 93 91
f 92 93 55
f 55 90 92
f 58 26 59
f 28 26 58
f 58 59 60
f 60 28 58
f 52 22 51
f 51 23 52
f 52 23 22
f 27 6 22
f 22 23 27
f 27 23 6
f 25 26 6
f 56 26 25
f 25 55 56
f 25 23 51
f 51 57 25
f 25 57 53
f 290 316 321
f 316 322 321
f 293 322 325
f 293 325 323
f 323 292 293
f 292 266 293
f 308 327 296
f 308 329 309
f 309 286 308
f 286 307 308
f 308 307 306
f 306 327 308
f 295 324 326
f 324 329 326
f 326 296 295
f 326 308 296
f 329 308 326
f 330 329 324
f 324 312 330
f 330 312 310
f 330 310 309
f 309 329 330
f 331 324 323
f 331 312 324
f 314 312 331
f 331 325 314
f 323 325 331
f 231 255 227
f 227 197 231
f 130 93 132
f 132 90 130
f 93 90 132
f 168 169 133
f 168 133 167
f 167 210 168
f 208 169 211
f 211 209 208
f 210 209 211
f 211 168 210
f 169 168 211
f 94 93 135
f 135 93 134
f 135 96 94
f 135 136 96
f 134 169 170
f 170 135 134
f 171 135 170
f 172 98 136
f 172 137 98
f 136 135 172
f 172 135 171
f 173 137 172
f 173 172 178
f 178 172 171
f 178 140 173
f 174 140 178
f 241 242 216
f 248 273 281
f 299 277 281
f 243 273 248
f 244 273 243
f 185 186 146
f 185 218 186
f 146 145 182
f 182 185 146
f 221 220 247
f 247 220 246
f 246 253 247
f 245 220 250
f 144 142 179
f 144 182 145
f 142 144 139
f 177 142 141
f 141 140 177
f 102 140 141
f 107 143 105
f 105 71 107
f 146 143 107
f 101 71 62
f 101 62 67
f 62 71 68
f 68 33 62
f 68 71 36
f 36 33 68
f 62 33 32
f 226 254 251
f 226 253 254
f 226 251 223
f 223 196 226
f 226 196 221
f 221 247 226
f 226 247 253
f 15 14 37
f 46 19 45
f 4 16 17
f 4 19 20
f 4 15 16
f 11 14 4
f 14 15 4
f 42 19 18
f 18 4 17
f 19 4 18
f 47 19 46
f 20 19 47
f 126 128 127
f 129 88 95
f 88 57 95
f 95 128 129
f 194 193 225
f 225 193 192
f 225 192 199
f 199 192 200
f 192 191 200
f 153 189 190
f 190 191 153
f 17 39 40
f 121 161 120
f 73 108 109
f 109 110 73
f 108 147 109
f 109 148 110
f 109 147 149
f 149 148 109
f 150 148 165
f 229 197 203
f 203 202 229
f 202 203 163
f 201 202 163
f 163 203 197
f 189 201 163
f 163 190 189
f 191 190 163
f 163 200 191
f 199 200 163
f 90 55 54
f 54 53 89
f 89 90 54
f 54 25 53
f 55 25 54
f 6 23 24
f 24 25 6
f 23 25 24
f 291 321 322
f 291 264 290
f 290 321 291
f 322 293 291
f 291 293 266
f 212 169 208
f 212 170 169
f 208 238 212
f 272 241 271
f 244 242 272
f 242 241 272
f 271 296 272
f 272 273 244
f 272 281 273
f 298 281 272
f 300 298 328
f 299 281 300
f 300 281 298
f 300 278 301
f 301 277 300
f 300 277 299
f 328 302 300
f 300 302 278
f 328 298 297
f 297 327 328
f 296 327 297
f 297 272 296
f 298 272 297
f 186 218 222
f 218 243 222
f 222 220 186
f 248 220 222
f 222 243 248
f 219 242 244
f 244 243 219
f 219 243 218
f 249 220 248
f 248 250 249
f 249 250 220
f 245 250 276
f 276 250 281
f 276 277 245
f 276 281 277
f 248 281 282
f 282 250 248
f 281 250 282
f 104 141 142
f 142 139 104
f 66 102 104
f 102 141 104
f 139 101 104
f 106 107 71
f 71 101 106
f 106 145 146
f 146 107 106
f 106 101 139
f 106 144 145
f 106 139 144
f 67 62 31
f 62 32 31
f 31 29 60
f 31 30 29
f 64 65 31
f 66 67 31
f 31 65 66
f 38 39 16
f 16 15 38
f 38 15 37
f 38 77 78
f 38 37 74
f 74 77 38
f 44 19 43
f 44 45 19
f 49 50 22
f 22 48 49
f 22 5 21
f 21 48 22
f 87 127 128
f 128 95 87
f 87 95 57
f 87 57 50
f 78 77 115
f 115 77 74
f 41 18 17
f 17 40 41
f 42 18 41
f 41 40 42
f 83 84 42
f 83 120 84
f 42 40 82
f 82 83 42
f 120 83 82
f 82 40 39
f 39 38 82
f 121 120 82
f 123 84 122
f 84 120 122
f 122 125 123
f 164 150 165
f 165 125 164
f 228 227 255
f 197 227 228
f 228 255 256
f 228 256 257
f 265 266 235
f 265 291 266
f 264 291 265
f 235 234 265
f 234 264 265
f 239 238 268
f 239 212 238
f 239 268 269
f 269 240 239
f 216 242 217
f 242 219 217
f 176 216 217
f 217 179 176
f 66 104 103
f 103 104 101
f 103 67 66
f 103 101 67
f 9 31 32
f 13 12 9
f 9 33 13
f 9 32 33
f 9 2 8
f 8 30 9
f 30 31 9
f 9 12 3
f 3 2 9
f 63 100 64
f 64 31 63
f 60 100 63
f 63 31 60
f 78 115 79
f 79 38 78
f 80 38 79
f 148 150 113
f 81 38 80
f 81 82 38
f 162 120 161
f 162 122 120
f 162 161 125
f 125 122 162
f 150 164 151
f 121 115 151
f 151 115 150
f 151 161 121
f 125 161 151
f 151 164 125
f 198 163 197
f 197 228 198
f 257 287 258
f 258 228 257
f 171 170 213
f 170 212 213
f 212 239 213
f 215 239 240
f 181 219 218
f 181 217 219
f 182 144 181
f 181 144 179
f 179 217 181
f 112 113 74
f 74 73 112
f 73 111 112
f 111 148 112
f 148 113 112
f 114 115 74
f 74 113 114
f 150 115 114
f 114 113 150
f 119 81 80
f 80 79 119
f 119 79 115
f 119 115 121
f 121 82 119
f 82 81 119
f 214 215 174
f 174 178 214
f 214 178 171
f 171 213 214
f 214 213 239
f 239 215 214
f 233 262 263
f 263 234 233
f 131 126 85
f 85 125 131
f 4 3 11
f 1 3 4
f 4 20 5
f 4 5 1
f 85 126 127
f 127 86 85
f 157 194 225
f 225 158 157
f 225 149 158
f 199 166 225
f 166 149 225
f 163 166 199
f 163 125 166
f 45 44 49
f 49 44 50
f 46 45 49
f 49 48 46
f 5 20 21
f 20 47 21
f 46 48 21
f 21 47 46
f 50 44 87
f 87 44 43
f 86 127 87
f 43 86 87
f 287 319 258
f 258 130 89
f 258 317 289
f 233 204 258
f 258 204 167
f 258 262 233
f 318 317 258
f 289 262 258
f 258 319 318
f 167 130 258
f 89 131 258
f 258 131 125
f 125 163 258
f 163 198 258
f 258 198 228
f 215 295 271
f 216 175 215
f 215 240 270
f 270 294 215
f 215 294 295
f 215 175 174
f 271 241 215
f 215 241 216
f 185 182 181
f 218 185 181
