v 0.039285 -0.027476 0.004700
v 0.037647 -0.026901 0.004700
v 0.039334 -0.027180 0.004400
v 0.039473 -0.027474 0.004700
v 0.039285 -0.027476 0.009100
v 0.036402 -0.026201 0.004700
v 0.036402 -0.026190 0.004690
v 0.037794 -0.026640 0.004400
v 0.037647 -0.026901 0.009100
v 0.039473 -0.027179 0.004400
v 0.039473 -0.027474 0.009100
v 0.039334 -0.027180 0.009400
v 0.036402 -0.026201 0.009100
v 0.036402 -0.025856 0.004400
v 0.037794 -0.026640 0.009400
v 0.039473 -0.025264 0.004400
v 0.039473 -0.027179 0.009400
v 0.036402 -0.025857 0.009400
v 0.036402 -0.022540 0.004400
v 0.037302 -0.022540 0.004400
v 0.037318 -0.022540 0.004417
v 0.037602 -0.022540 0.004700
v 0.039473 -0.024963 0.004700
v 0.039473 -0.025264 0.009400
v 0.036402 -0.022540 0.009400
v 0.037602 -0.022540 0.009100
v 0.039473 -0.024963 0.009100
v 0.037302 -0.022540 0.009400
v 0.039473 -0.025235 0.009371
f 12 9 5
f 23 16 22
f 7 14 8
f 7 2 6
f 8 2 7
f 11 17 12
f 12 5 11
f 15 13 9
f 15 18 13
f 15 9 12
f 4 1 3
f 3 10 4
f 3 1 2
f 3 2 8
f 16 20 21
f 21 22 16
f 24 26 28
f 27 26 29
f 29 26 24
f 6 2 13
f 13 2 9
f 9 2 1
f 1 5 9
f 18 25 19
f 6 13 18
f 19 14 18
f 18 7 6
f 14 7 18
f 5 1 11
f 11 1 4
f 26 27 23
f 23 22 26
f 3 14 19
f 8 14 3
f 19 20 3
f 16 10 3
f 3 20 16
f 25 18 28
f 12 17 28
f 28 15 12
f 18 15 28
f 17 24 28
f 19 25 28
f 28 20 19
f 22 21 28
f 28 26 22
f 28 21 20
f 29 11 4
f 23 27 29
f 29 16 23
f 17 11 29
f 29 10 16
f 4 10 29
f 29 24 17
