v 0.040139 0.016724 0.004600
v 0.040139 0.016724 0.009000
v 0.040139 0.017068 0.004300
v 0.042587 0.018093 0.004600
v 0.042587 0.018093 0.009000
v 0.040139 0.017068 0.009300
v 0.042441 0.018355 0.004300
v 0.040139 0.019661 0.004300
v 0.043705 0.019388 0.004300
v 0.043932 0.019192 0.004600
v 0.043932 0.019192 0.009000
v 0.043705 0.019388 0.009300
v 0.042441 0.018355 0.009300
v 0.040139 0.019661 0.009300
v 0.040139 0.019960 0.004600
v 0.042599 0.022823 0.004600
v 0.042764 0.022823 0.004434
v 0.042898 0.022823 0.004300
v 0.044540 0.020789 0.004300
v 0.044820 0.020683 0.004600
v 0.044820 0.020683 0.009000
v 0.044540 0.020789 0.009300
v 0.040139 0.019960 0.009000
v 0.042898 0.022823 0.009300
v 0.042712 0.022823 0.009114
v 0.042599 0.022823 0.009000
v 0.044775 0.022823 0.004300
v 0.044845 0.022393 0.004300
v 0.045145 0.022389 0.004600
v 0.045145 0.022389 0.009000
v 0.044845 0.022393 0.009300
v 0.044775 0.022823 0.009300
v 0.045075 0.022823 0.004600
v 0.045075 0.022823 0.009000
f 12 5 11
f 2 5 6
f 1 3 4
f 6 5 13
f 5 12 13
f 31 34 32
f 11 21 22
f 22 12 11
f 34 31 30
f 31 22 30
f 30 22 21
f 28 33 29
f 26 23 14
f 18 8 17
f 17 8 16
f 16 8 15
f 33 28 27
f 29 20 19
f 19 28 29
f 19 20 10
f 25 14 24
f 26 14 25
f 9 19 10
f 10 4 9
f 7 4 3
f 7 9 4
f 4 2 1
f 5 2 4
f 4 10 11
f 11 5 4
f 11 10 20
f 20 21 11
f 21 20 30
f 30 20 29
f 33 34 30
f 29 33 30
f 32 24 14
f 12 22 14
f 6 13 14
f 14 13 12
f 14 31 32
f 14 22 31
f 15 3 1
f 15 8 3
f 1 2 15
f 15 2 6
f 6 14 15
f 15 14 23
f 15 26 16
f 15 23 26
f 16 26 25
f 32 34 25
f 25 24 32
f 25 34 33
f 25 17 16
f 33 27 25
f 18 17 25
f 25 27 18
f 3 8 7
f 7 8 18
f 18 27 7
f 7 27 28
f 28 19 7
f 19 9 7
