v 0.024338 0.016502 0.002958
v 0.024329 0.016419 0.008517
v 0.024526 0.016495 0.002958
v 0.023828 0.016428 0.002958
v 0.024829 0.016391 0.008517
v 0.024815 0.016479 0.002958
v 0.023828 0.016342 0.008517
v 0.023436 0.016334 0.002958
v 0.025246 0.016289 0.008517
v 0.025090 0.016417 0.002958
v 0.023626 0.016290 0.008517
v 0.023263 0.016160 0.008517
v 0.023422 0.016224 0.008517
v 0.023512 0.016260 0.008517
v 0.022808 0.016027 0.002958
v 0.025297 0.016366 0.002958
v 0.025497 0.016206 0.008517
v 0.022984 0.016024 0.008517
v 0.022436 0.015834 0.002958
v 0.022826 0.015946 0.008517
v 0.025421 0.016322 0.002958
v 0.025618 0.016142 0.008517
v 0.022510 0.015772 0.008517
v 0.021477 0.015298 0.002958
v 0.025831 0.016029 0.008517
v 0.026019 0.016004 0.002958
v 0.020322 0.014549 0.008517
v 0.015390 0.011891 0.002958
v 0.015174 0.011668 0.008517
v 0.025953 0.015950 0.008517
v 0.026169 0.015809 0.008517
v 0.026218 0.015874 0.002958
v 0.014418 0.011336 0.002958
v 0.014815 0.011467 0.008517
v 0.026329 0.015655 0.008517
v 0.026366 0.015732 0.002958
v 0.014236 0.011111 0.008517
v 0.014395 0.011217 0.008517
v 0.014487 0.011277 0.008517
v 0.014605 0.011346 0.008517
v 0.013855 0.010928 0.002958
v 0.026419 0.015568 0.008517
v 0.026566 0.015524 0.002958
v 0.014028 0.010951 0.008517
v 0.013386 0.010418 0.002958
v 0.013659 0.010620 0.008517
v 0.013818 0.010773 0.008517
v 0.013910 0.010860 0.008517
v 0.026646 0.015317 0.008517
v 0.026694 0.015383 0.002958
v 0.013241 0.009977 0.008517
v 0.013460 0.010370 0.008517
v 0.013532 0.010460 0.008517
v 0.013186 0.009977 0.002958
v 0.026852 0.014983 0.008517
v 0.026810 0.015195 0.002958
v 0.012943 0.009428 0.002958
v 0.013187 0.009848 0.008517
v 0.026921 0.015008 0.002958
v 0.027038 0.014571 0.008517
v 0.027152 0.014521 0.002958
v 0.012879 0.008976 0.002958
v 0.013022 0.009371 0.008517
v 0.013094 0.009622 0.008517
v 0.027105 0.014322 0.008517
v 0.027187 0.014395 0.002958
v 0.012884 0.008743 0.002958
v 0.012966 0.008976 0.008517
v 0.027162 0.013982 0.008517
v 0.027217 0.014223 0.002958
v 0.012894 0.008475 0.002958
v 0.012984 0.008475 0.008517
v 0.027180 0.013481 0.008517
v 0.027262 0.013713 0.002958
v 0.027252 0.013982 0.002958
v 0.012929 0.008233 0.002958
v 0.013041 0.008135 0.008517
v 0.027267 0.013481 0.002958
v 0.027124 0.013086 0.008517
v 0.012959 0.008062 0.002958
v 0.013108 0.007886 0.008517
v 0.027202 0.013029 0.002958
v 0.027052 0.012835 0.008517
v 0.012994 0.007936 0.002958
v 0.013294 0.007474 0.008517
v 0.026959 0.012609 0.008517
v 0.026905 0.012480 0.008517
v 0.026960 0.012480 0.002958
v 0.013225 0.007449 0.002958
v 0.013336 0.007262 0.002958
v 0.013452 0.007074 0.002958
v 0.013500 0.007140 0.008517
v 0.026686 0.012087 0.008517
v 0.026760 0.012039 0.002958
v 0.013580 0.006933 0.002958
v 0.013726 0.006889 0.008517
v 0.026614 0.011997 0.008517
v 0.026487 0.011837 0.008517
v 0.026291 0.011529 0.002958
v 0.013780 0.006725 0.002958
v 0.013817 0.006802 0.008517
v 0.026328 0.011684 0.008517
v 0.026236 0.011597 0.008517
v 0.026118 0.011506 0.008517
v 0.025910 0.011346 0.008517
v 0.025728 0.011121 0.002958
v 0.013928 0.006583 0.002958
v 0.013977 0.006648 0.008517
v 0.025750 0.011240 0.008517
v 0.025659 0.011180 0.008517
v 0.025541 0.011111 0.008517
v 0.025331 0.010990 0.008517
v 0.024756 0.010566 0.002958
v 0.014126 0.006453 0.002958
v 0.014193 0.006507 0.008517
v 0.024971 0.010789 0.008517
v 0.018669 0.007159 0.002958
v 0.014725 0.006135 0.002958
v 0.014315 0.006428 0.008517
v 0.019824 0.007908 0.008517
v 0.017636 0.006685 0.008517
v 0.017710 0.006623 0.002958
v 0.014849 0.006091 0.002958
v 0.014649 0.006251 0.008517
v 0.014528 0.006315 0.008517
v 0.017319 0.006510 0.008517
v 0.017338 0.006430 0.002958
v 0.015056 0.006040 0.002958
v 0.014900 0.006168 0.008517
v 0.017162 0.006433 0.008517
v 0.016883 0.006297 0.008517
v 0.016710 0.006123 0.002958
v 0.015331 0.005978 0.002958
v 0.015317 0.006065 0.008517
v 0.016724 0.006233 0.008517
v 0.016633 0.006197 0.008517
v 0.016519 0.006167 0.008517
v 0.016318 0.006115 0.008517
v 0.016318 0.006029 0.002958
v 0.015619 0.005962 0.002958
v 0.015817 0.006038 0.008517
v 0.015808 0.005955 0.002958
f 95 100 96
f 96 91 95
f 62 68 63
f 67 68 62
f 85 81 84
f 15 19 20
f 15 12 8
f 33 34 28
f 20 19 23
f 142 141 140
f 141 133 140
f 119 114 118
f 2 6 3
f 3 1 2
f 62 63 57
f 52 45 51
f 41 37 33
f 89 85 84
f 92 91 96
f 92 85 91
f 81 77 80
f 84 81 80
f 72 67 71
f 68 67 72
f 8 14 11
f 11 7 8
f 8 7 4
f 4 7 2
f 2 1 4
f 13 14 8
f 8 12 13
f 18 15 20
f 12 15 18
f 24 23 19
f 121 122 117
f 139 141 142
f 112 113 106
f 118 124 125
f 125 119 118
f 108 107 114
f 123 129 124
f 123 124 118
f 134 133 141
f 64 57 63
f 51 45 54
f 54 57 51
f 46 41 45
f 44 41 48
f 37 41 44
f 91 85 90
f 85 89 90
f 76 72 71
f 77 72 76
f 76 80 77
f 40 34 33
f 33 39 40
f 33 37 38
f 38 39 33
f 23 24 27
f 132 127 131
f 141 139 138
f 138 139 132
f 99 105 106
f 98 99 94
f 106 110 111
f 111 112 106
f 116 117 113
f 113 112 116
f 79 82 78
f 74 75 69
f 59 55 61
f 61 55 60
f 60 66 61
f 114 119 115
f 115 108 114
f 100 107 101
f 107 108 101
f 96 100 101
f 133 134 128
f 128 134 129
f 129 123 128
f 51 57 58
f 57 64 58
f 45 52 53
f 53 46 45
f 48 41 47
f 41 46 47
f 29 27 24
f 29 24 28
f 29 28 34
f 135 136 132
f 132 131 135
f 126 127 122
f 126 122 121
f 132 136 137
f 137 138 132
f 109 110 106
f 106 105 109
f 104 99 103
f 105 99 104
f 97 94 93
f 97 98 94
f 103 99 102
f 99 98 102
f 121 117 120
f 117 116 120
f 87 88 82
f 94 88 87
f 93 94 87
f 73 79 78
f 78 74 73
f 73 74 69
f 69 75 70
f 50 55 56
f 55 59 56
f 66 60 65
f 65 70 66
f 69 70 65
f 49 55 50
f 50 42 49
f 32 26 31
f 130 131 127
f 127 126 130
f 82 79 83
f 43 42 50
f 43 36 42
f 35 36 32
f 32 31 35
f 42 36 35
f 25 26 21
f 86 87 82
f 82 83 86
f 30 31 26
f 26 25 30
f 21 16 17
f 22 25 21
f 21 17 22
f 16 10 9
f 9 17 16
f 5 10 6
f 5 9 10
f 5 6 2
f 43 107 100
f 106 113 43
f 122 127 43
f 100 95 43
f 78 82 43
f 50 56 43
f 43 3 6
f 43 123 118
f 43 67 62
f 43 139 142
f 84 80 43
f 43 41 33
f 118 114 43
f 43 89 84
f 43 15 8
f 33 28 43
f 43 88 94
f 61 66 43
f 142 140 43
f 43 26 32
f 43 95 91
f 114 107 43
f 62 57 43
f 71 67 43
f 19 15 43
f 8 4 43
f 43 24 19
f 43 117 122
f 43 76 71
f 43 140 133
f 1 3 43
f 21 26 43
f 43 16 21
f 6 10 43
f 45 41 43
f 43 54 45
f 91 90 43
f 43 4 1
f 28 24 43
f 113 117 43
f 43 127 132
f 132 139 43
f 43 99 106
f 43 74 78
f 43 59 61
f 43 10 16
f 57 54 43
f 43 90 89
f 80 76 43
f 94 99 43
f 82 88 43
f 75 74 43
f 133 128 43
f 43 70 75
f 43 128 123
f 66 70 43
f 43 56 59
f 32 36 43
f 14 13 5
f 5 115 119
f 5 63 68
f 5 137 136
f 5 92 96
f 5 44 48
f 5 111 110
f 96 101 5
f 2 7 5
f 5 53 52
f 20 23 5
f 5 125 124
f 5 134 141
f 81 85 5
f 5 77 81
f 68 72 5
f 5 11 14
f 5 18 20
f 5 38 37
f 48 47 5
f 103 102 5
f 5 73 69
f 124 129 5
f 5 52 51
f 85 92 5
f 5 72 77
f 7 11 5
f 5 13 12
f 12 18 5
f 34 40 5
f 136 135 5
f 141 138 5
f 5 104 103
f 121 120 5
f 119 125 5
f 55 49 5
f 129 134 5
f 5 64 63
f 51 58 5
f 37 44 5
f 5 40 39
f 39 38 5
f 23 27 5
f 5 29 34
f 5 126 121
f 110 109 5
f 5 97 93
f 112 111 5
f 5 116 112
f 93 87 5
f 5 60 55
f 69 65 5
f 108 115 5
f 5 101 108
f 5 58 64
f 46 53 5
f 5 47 46
f 27 29 5
f 5 135 131
f 42 35 5
f 138 137 5
f 5 109 105
f 105 104 5
f 98 97 5
f 5 102 98
f 5 120 116
f 131 130 5
f 79 73 5
f 5 65 60
f 5 49 42
f 5 83 79
f 5 130 126
f 31 30 5
f 5 35 31
f 87 86 5
f 5 86 83
f 5 30 25
f 25 22 5
f 5 22 17
f 17 9 5
