v 0.006208 -0.010875 -0.009210
v 0.006208 -0.010900 -0.010040
v 0.005854 -0.010896 -0.010040
v 0.005500 -0.010899 -0.010040
v 0.005854 -0.010878 -0.009210
v 0.006563 -0.010916 -0.009210
v 0.006563 -0.010943 -0.010040
v 0.006563 -0.010971 -0.010260
v 0.006208 -0.011680 -0.014180
v 0.005854 -0.011666 -0.014209
v 0.005587 -0.011686 -0.014169
v 0.005246 -0.010968 -0.010263
v 0.005201 -0.010951 -0.010040
v 0.005500 -0.010889 -0.009210
v 0.006692 -0.010948 -0.009210
v 0.006752 -0.010993 -0.010225
v 0.006404 -0.011704 -0.014130
v 0.006539 -0.011813 -0.014267
v 0.006208 -0.011778 -0.014357
v 0.005854 -0.011764 -0.014387
v 0.005481 -0.011781 -0.014291
v 0.005145 -0.011878 -0.014296
v 0.005145 -0.011777 -0.013942
v 0.004438 -0.011276 -0.010040
v 0.004790 -0.011125 -0.010040
v 0.005025 -0.011024 -0.010040
v 0.005173 -0.010949 -0.009331
v 0.005011 -0.011016 -0.009685
v 0.004997 -0.011010 -0.009331
v 0.004993 -0.011008 -0.009210
v 0.005170 -0.010948 -0.009210
v 0.006772 -0.010976 -0.009210
v 0.006758 -0.010991 -0.010040
v 0.007273 -0.011229 -0.010040
v 0.007491 -0.011331 -0.010040
v 0.007477 -0.011339 -0.010239
v 0.006918 -0.011874 -0.013942
v 0.007132 -0.012031 -0.014174
v 0.006912 -0.011970 -0.014294
v 0.006790 -0.012034 -0.014501
v 0.006563 -0.011998 -0.014533
v 0.006208 -0.011955 -0.014563
v 0.005925 -0.011802 -0.014422
v 0.005854 -0.011942 -0.014571
v 0.005500 -0.011972 -0.014552
v 0.005145 -0.012021 -0.014513
v 0.005925 -0.011944 -0.014569
v 0.004953 -0.012053 -0.014484
v 0.004875 -0.011996 -0.014296
v 0.004804 -0.011944 -0.013942
v 0.004261 -0.011355 -0.010040
v 0.004790 -0.011093 -0.009210
v 0.004790 -0.011097 -0.009331
v 0.004790 -0.011109 -0.009685
v 0.007501 -0.011318 -0.009210
v 0.007668 -0.011453 -0.010040
v 0.007849 -0.011658 -0.010269
v 0.007026 -0.012115 -0.014410
v 0.007502 -0.012372 -0.014194
v 0.007269 -0.012244 -0.014302
v 0.007170 -0.012352 -0.014520
v 0.006912 -0.012236 -0.014563
v 0.006563 -0.012241 -0.014643
v 0.006208 -0.012241 -0.014673
v 0.005925 -0.012002 -0.014592
v 0.005854 -0.012240 -0.014681
v 0.005500 -0.012240 -0.014662
v 0.005145 -0.012240 -0.014622
v 0.004817 -0.012261 -0.014534
v 0.004584 -0.012393 -0.014493
v 0.004453 -0.012333 -0.014266
v 0.004697 -0.012139 -0.014296
v 0.004253 -0.012413 -0.014128
v 0.004626 -0.012075 -0.013942
v 0.004085 -0.011533 -0.010040
v 0.003835 -0.011768 -0.009210
v 0.004259 -0.011354 -0.009785
v 0.004436 -0.011261 -0.009210
v 0.007679 -0.011449 -0.009210
v 0.007873 -0.011631 -0.010040
v 0.008189 -0.012029 -0.010254
v 0.007407 -0.012459 -0.014430
v 0.008516 -0.012415 -0.010220
v 0.007811 -0.012758 -0.014135
v 0.007623 -0.012609 -0.014282
v 0.007507 -0.012696 -0.014523
v 0.007282 -0.012585 -0.014575
v 0.006918 -0.012596 -0.014674
v 0.006563 -0.012596 -0.014695
v 0.005145 -0.012596 -0.014694
v 0.004790 -0.012596 -0.014653
v 0.004453 -0.012620 -0.014536
v 0.004246 -0.012754 -0.014485
v 0.004347 -0.012517 -0.014364
v 0.004200 -0.012620 -0.014266
v 0.003897 -0.013113 -0.014132
v 0.003445 -0.012262 -0.010040
v 0.003568 -0.012085 -0.010040
v 0.003745 -0.011890 -0.010040
v 0.003909 -0.011713 -0.010040
v 0.004259 -0.011353 -0.009210
v 0.004259 -0.011353 -0.009549
v 0.003733 -0.011878 -0.009210
v 0.007813 -0.011566 -0.009210
v 0.007878 -0.011626 -0.009210
v 0.007938 -0.011691 -0.009210
v 0.008215 -0.012002 -0.009210
v 0.008205 -0.012010 -0.010040
v 0.008532 -0.012399 -0.009210
v 0.008561 -0.012475 -0.009210
v 0.008600 -0.012595 -0.009210
v 0.008791 -0.013305 -0.010040
v 0.008026 -0.013305 -0.013942
v 0.008383 -0.012236 -0.010040
v 0.007849 -0.012950 -0.014203
v 0.007747 -0.012950 -0.014381
v 0.007789 -0.013169 -0.014453
v 0.007570 -0.012950 -0.014565
v 0.007272 -0.012950 -0.014675
v 0.007272 -0.013305 -0.014693
v 0.007272 -0.013660 -0.014695
v 0.004790 -0.012950 -0.014695
v 0.004435 -0.013305 -0.014674
v 0.004435 -0.012950 -0.014629
v 0.004207 -0.012950 -0.014519
v 0.003963 -0.013305 -0.014377
v 0.004028 -0.012977 -0.014269
v 0.003862 -0.013305 -0.014200
v 0.003052 -0.013305 -0.010040
v 0.003163 -0.013035 -0.010263
v 0.003283 -0.012595 -0.010040
v 0.003332 -0.012459 -0.009210
v 0.003437 -0.012244 -0.009210
v 0.003516 -0.012130 -0.009210
v 0.003623 -0.011998 -0.009210
v 0.008274 -0.012071 -0.009210
v 0.008803 -0.013305 -0.009210
v 0.008845 -0.013659 -0.009210
v 0.008832 -0.013659 -0.010040
v 0.008098 -0.013660 -0.013942
v 0.008000 -0.013660 -0.014296
v 0.007911 -0.013294 -0.014319
v 0.007834 -0.013406 -0.014501
v 0.007654 -0.013294 -0.014577
v 0.007627 -0.013660 -0.014630
v 0.007272 -0.014013 -0.014695
v 0.004790 -0.014368 -0.014695
v 0.004435 -0.013660 -0.014691
v 0.004110 -0.013660 -0.014581
v 0.004140 -0.013305 -0.014564
v 0.003933 -0.013660 -0.014432
v 0.003835 -0.013660 -0.014254
v 0.003767 -0.013660 -0.013942
v 0.003017 -0.013659 -0.010040
v 0.003033 -0.013305 -0.009210
v 0.003065 -0.013170 -0.009210
v 0.003147 -0.012989 -0.010040
v 0.003208 -0.012812 -0.010040
v 0.003166 -0.012854 -0.009210
v 0.003271 -0.012595 -0.009210
v 0.008807 -0.014015 -0.009210
v 0.008795 -0.014014 -0.010040
v 0.008085 -0.014013 -0.013942
v 0.007987 -0.014013 -0.014296
v 0.007847 -0.014013 -0.014514
v 0.007853 -0.013660 -0.014520
v 0.007627 -0.014013 -0.014625
v 0.007272 -0.014368 -0.014690
v 0.006918 -0.014723 -0.014695
v 0.004790 -0.014723 -0.014688
v 0.004435 -0.014013 -0.014688
v 0.005500 -0.015078 -0.014695
v 0.004124 -0.014013 -0.014577
v 0.003946 -0.014013 -0.014407
v 0.003851 -0.014013 -0.014229
v 0.003049 -0.014014 -0.010040
v 0.003059 -0.014368 -0.009210
v 0.003030 -0.014014 -0.009210
v 0.003004 -0.013659 -0.009210
v 0.003011 -0.013540 -0.009210
v 0.003874 -0.014368 -0.014185
v 0.003128 -0.012967 -0.009210
v 0.008760 -0.014368 -0.009210
v 0.008758 -0.014368 -0.009685
v 0.008754 -0.014368 -0.010040
v 0.008018 -0.014368 -0.013942
v 0.007903 -0.014377 -0.014321
v 0.007826 -0.014264 -0.014494
v 0.007654 -0.014377 -0.014571
v 0.007272 -0.014723 -0.014648
v 0.006918 -0.015078 -0.014659
v 0.006563 -0.015078 -0.014691
v 0.006208 -0.015078 -0.014695
v 0.004790 -0.015078 -0.014628
v 0.004435 -0.014368 -0.014667
v 0.005145 -0.015078 -0.014682
v 0.005854 -0.015432 -0.014641
v 0.004154 -0.014368 -0.014557
v 0.003977 -0.014368 -0.014363
v 0.003082 -0.014368 -0.010040
v 0.003145 -0.014667 -0.010040
v 0.003128 -0.014691 -0.009210
v 0.003891 -0.014566 -0.014146
v 0.008742 -0.014488 -0.009210
v 0.008672 -0.014723 -0.010040
v 0.007860 -0.014635 -0.014219
v 0.008547 -0.014955 -0.010261
v 0.007789 -0.014501 -0.014456
v 0.007544 -0.014723 -0.014538
v 0.007265 -0.015061 -0.014547
v 0.007142 -0.015291 -0.014505
v 0.006918 -0.015356 -0.014549
v 0.006576 -0.015456 -0.014581
v 0.006208 -0.015432 -0.014639
v 0.005925 -0.015432 -0.014641
v 0.004790 -0.015319 -0.014524
v 0.004601 -0.015266 -0.014484
v 0.004534 -0.015078 -0.014529
v 0.004415 -0.014737 -0.014583
v 0.005500 -0.015432 -0.014625
v 0.005160 -0.015442 -0.014562
v 0.005854 -0.015669 -0.014531
v 0.004202 -0.014629 -0.014519
v 0.003162 -0.014627 -0.010266
v 0.003221 -0.014845 -0.010040
v 0.003322 -0.015077 -0.009210
v 0.004085 -0.014717 -0.014296
v 0.004205 -0.014976 -0.014208
v 0.003599 -0.015527 -0.010040
v 0.003514 -0.015317 -0.010264
v 0.008686 -0.014723 -0.009210
v 0.008647 -0.014817 -0.009210
v 0.008563 -0.014983 -0.010040
v 0.007726 -0.014741 -0.014321
v 0.008169 -0.015625 -0.010232
v 0.007467 -0.015276 -0.014154
v 0.007472 -0.014932 -0.014492
v 0.006941 -0.015542 -0.014317
v 0.006703 -0.015590 -0.014448
v 0.006467 -0.015648 -0.014509
v 0.007379 -0.015169 -0.014390
v 0.007265 -0.015354 -0.014282
v 0.006208 -0.015668 -0.014529
v 0.005288 -0.015628 -0.014490
v 0.004538 -0.015325 -0.014296
v 0.004354 -0.015087 -0.014314
v 0.004282 -0.014865 -0.014445
v 0.005052 -0.015566 -0.014410
v 0.004794 -0.015499 -0.014294
v 0.005500 -0.015653 -0.014514
v 0.005925 -0.015669 -0.014530
v 0.005925 -0.015823 -0.014296
v 0.005854 -0.015823 -0.014296
v 0.003345 -0.015078 -0.010040
v 0.003421 -0.015254 -0.009210
v 0.003496 -0.015349 -0.010040
v 0.004301 -0.015192 -0.013942
v 0.003778 -0.015739 -0.010040
v 0.003773 -0.015762 -0.009210
v 0.003590 -0.015540 -0.009210
v 0.008572 -0.014991 -0.009210
v 0.008505 -0.015108 -0.009210
v 0.008188 -0.015647 -0.009210
v 0.008186 -0.015645 -0.009331
v 0.008296 -0.015432 -0.010040
v 0.007532 -0.015061 -0.014282
v 0.008176 -0.015633 -0.010040
v 0.007994 -0.015811 -0.010040
v 0.007813 -0.015970 -0.010225
v 0.007065 -0.015593 -0.013942
v 0.006839 -0.015661 -0.014212
v 0.006576 -0.015725 -0.014317
v 0.006208 -0.015821 -0.014296
v 0.005500 -0.015796 -0.014296
v 0.005160 -0.015690 -0.014294
v 0.004915 -0.015637 -0.014174
v 0.004711 -0.015558 -0.013942
v 0.004479 -0.015380 -0.013942
v 0.006208 -0.015916 -0.013942
v 0.005854 -0.015918 -0.013942
v 0.005500 -0.015897 -0.013942
v 0.003966 -0.015917 -0.010040
v 0.003955 -0.015925 -0.009210
v 0.008062 -0.015764 -0.009210
v 0.007996 -0.015823 -0.009331
v 0.007817 -0.015974 -0.010040
v 0.007390 -0.016275 -0.010040
v 0.007212 -0.016396 -0.010040
v 0.007172 -0.016370 -0.010282
v 0.006563 -0.015841 -0.013942
v 0.005145 -0.015784 -0.013942
v 0.004577 -0.016345 -0.010252
v 0.006073 -0.016682 -0.010231
v 0.005854 -0.016682 -0.010231
v 0.005666 -0.016677 -0.010221
v 0.005145 -0.016563 -0.010040
v 0.004790 -0.016460 -0.010040
v 0.004142 -0.016050 -0.010040
v 0.004118 -0.016054 -0.009210
v 0.007997 -0.015824 -0.009210
v 0.007938 -0.015876 -0.009210
v 0.007820 -0.015976 -0.009210
v 0.007627 -0.016125 -0.009210
v 0.007408 -0.016291 -0.009210
v 0.007230 -0.016398 -0.009210
v 0.007025 -0.016486 -0.009210
v 0.006917 -0.016531 -0.009331
v 0.006917 -0.016526 -0.009685
v 0.006917 -0.016516 -0.010040
v 0.004558 -0.016359 -0.010040
v 0.004381 -0.016228 -0.010040
v 0.006563 -0.016596 -0.010040
v 0.006109 -0.016690 -0.010040
v 0.005854 -0.016696 -0.010040
v 0.005651 -0.016680 -0.010040
v 0.005145 -0.016574 -0.009685
v 0.004790 -0.016479 -0.009210
v 0.004550 -0.016369 -0.009210
v 0.006917 -0.016532 -0.009210
v 0.006563 -0.016625 -0.009210
v 0.006563 -0.016622 -0.009331
v 0.006563 -0.016611 -0.009685
v 0.006134 -0.016692 -0.009685
v 0.005854 -0.016711 -0.009210
v 0.005854 -0.016703 -0.009685
v 0.006344 -0.016668 -0.009210
v 0.005602 -0.016691 -0.009210
v 0.005542 -0.016678 -0.009210
v 0.005424 -0.016651 -0.009210
v 0.005145 -0.016583 -0.009210
v 0.006167 -0.016694 -0.009210
v 0.006156 -0.016694 -0.009331
f 38 36 57
f 277 276 292
f 73 97 98
f 23 12 11
f 96 97 73
f 6 2 1
f 57 36 56
f 11 12 4
f 138 112 137
f 139 112 138
f 205 207 186
f 186 207 206
f 16 36 37
f 36 38 37
f 259 229 258
f 260 229 259
f 224 203 225
f 311 298 292
f 311 299 298
f 288 269 287
f 270 271 236
f 236 269 270
f 236 271 242
f 317 318 310
f 310 297 317
f 292 297 310
f 310 311 292
f 318 299 310
f 299 311 310
f 317 297 316
f 314 315 295
f 313 314 293
f 292 276 291
f 291 297 292
f 291 281 297
f 22 23 11
f 51 23 50
f 129 154 155
f 97 96 131
f 153 154 129
f 175 154 153
f 89 90 66
f 15 32 16
f 16 6 15
f 7 6 16
f 2 6 7
f 16 8 7
f 7 8 2
f 57 56 80
f 80 81 57
f 108 81 80
f 16 32 33
f 33 34 16
f 32 34 33
f 13 4 12
f 13 14 4
f 1 2 3
f 3 4 1
f 78 52 51
f 219 198 195
f 223 218 217
f 203 199 223
f 223 199 198
f 223 219 218
f 198 219 223
f 83 81 108
f 111 137 112
f 112 83 111
f 185 186 163
f 205 186 185
f 163 141 140
f 140 139 163
f 112 139 140
f 235 269 236
f 236 206 235
f 206 207 235
f 234 206 236
f 167 165 189
f 189 165 188
f 164 141 163
f 163 186 164
f 164 165 141
f 188 165 164
f 81 83 59
f 59 38 57
f 57 81 59
f 17 37 38
f 16 37 17
f 259 258 282
f 298 299 282
f 292 298 282
f 257 258 229
f 203 229 230
f 230 225 203
f 202 225 226
f 304 305 288
f 288 287 304
f 271 272 239
f 317 316 330
f 296 316 297
f 296 281 295
f 297 281 296
f 295 315 296
f 315 316 296
f 315 314 325
f 324 327 325
f 327 315 325
f 325 313 324
f 325 314 313
f 294 314 295
f 294 293 314
f 217 248 249
f 249 248 276
f 243 222 214
f 250 274 244
f 244 248 217
f 217 216 244
f 275 274 281
f 281 291 275
f 275 291 276
f 275 244 274
f 276 248 275
f 248 244 275
f 75 51 73
f 73 100 75
f 73 98 99
f 99 100 73
f 48 22 21
f 21 22 11
f 73 51 74
f 51 50 74
f 73 74 49
f 49 74 50
f 49 22 48
f 23 22 49
f 49 50 23
f 181 199 203
f 181 154 175
f 181 176 154
f 224 225 201
f 201 225 202
f 154 176 177
f 177 201 202
f 129 155 156
f 180 154 179
f 180 155 154
f 157 156 182
f 129 156 157
f 71 70 73
f 48 70 71
f 95 96 73
f 69 48 68
f 69 70 48
f 175 153 152
f 68 45 67
f 67 90 68
f 67 66 90
f 106 80 105
f 56 55 79
f 79 80 56
f 32 55 35
f 35 34 32
f 35 36 16
f 16 34 35
f 35 56 36
f 35 55 56
f 1 4 5
f 4 14 5
f 31 14 27
f 14 13 27
f 27 30 31
f 13 30 27
f 11 4 10
f 4 3 10
f 10 3 2
f 247 223 217
f 109 83 114
f 114 83 108
f 114 136 109
f 108 136 114
f 110 83 109
f 110 111 83
f 162 139 138
f 163 139 162
f 162 185 163
f 141 142 113
f 113 140 141
f 113 83 112
f 112 140 113
f 269 235 268
f 233 235 207
f 233 207 205
f 191 214 192
f 212 191 211
f 211 191 210
f 236 242 211
f 209 189 208
f 208 189 188
f 206 234 208
f 143 142 141
f 187 186 206
f 187 164 186
f 206 208 187
f 188 164 187
f 187 208 188
f 20 10 19
f 20 21 11
f 11 10 20
f 64 42 63
f 89 66 64
f 64 88 89
f 63 88 64
f 44 67 45
f 66 67 44
f 45 20 44
f 259 282 283
f 283 282 299
f 228 229 203
f 228 257 229
f 278 282 258
f 258 257 278
f 278 277 292
f 292 282 278
f 256 230 229
f 240 239 272
f 240 272 273
f 273 243 240
f 243 214 240
f 212 211 240
f 240 211 239
f 329 330 316
f 329 316 315
f 324 313 323
f 320 307 319
f 281 274 253
f 253 274 250
f 250 222 253
f 280 279 293
f 293 294 280
f 281 253 280
f 295 281 280
f 280 294 295
f 251 243 273
f 251 222 243
f 220 222 250
f 101 78 102
f 100 99 103
f 48 21 46
f 68 48 46
f 46 45 68
f 46 20 45
f 21 20 46
f 179 154 178
f 154 177 178
f 200 177 176
f 201 177 200
f 224 201 200
f 176 181 200
f 200 203 224
f 200 181 203
f 131 160 132
f 132 133 97
f 97 131 132
f 159 160 131
f 130 96 129
f 129 157 130
f 130 131 96
f 72 49 48
f 48 71 72
f 73 49 72
f 72 71 73
f 171 170 195
f 170 171 147
f 147 171 148
f 80 106 107
f 107 136 108
f 108 80 107
f 105 80 104
f 80 79 104
f 19 10 9
f 9 8 16
f 16 17 9
f 2 8 9
f 9 10 2
f 203 223 227
f 223 247 227
f 227 228 203
f 247 228 227
f 161 162 138
f 185 162 161
f 204 231 205
f 205 185 204
f 84 86 85
f 84 116 86
f 83 113 84
f 85 59 84
f 84 59 83
f 119 87 86
f 88 87 119
f 89 88 119
f 172 196 170
f 170 147 172
f 269 268 286
f 286 268 285
f 302 303 286
f 286 303 304
f 286 287 269
f 286 304 287
f 263 233 262
f 262 233 261
f 267 268 235
f 261 233 232
f 205 231 232
f 232 233 205
f 209 210 190
f 210 191 190
f 190 189 209
f 167 189 190
f 271 239 238
f 239 211 238
f 238 242 271
f 238 211 242
f 236 211 241
f 142 143 117
f 86 116 117
f 141 165 166
f 166 143 141
f 166 165 167
f 86 87 61
f 63 42 41
f 41 40 63
f 41 42 19
f 19 40 41
f 39 17 38
f 18 40 19
f 19 9 18
f 18 9 17
f 17 39 18
f 18 39 40
f 19 42 43
f 43 20 19
f 65 64 66
f 66 44 65
f 42 64 65
f 246 247 217
f 246 228 247
f 257 228 245
f 245 278 257
f 228 246 245
f 245 246 217
f 217 249 245
f 245 249 276
f 276 277 245
f 277 278 245
f 225 230 254
f 230 256 254
f 254 226 225
f 254 256 226
f 226 256 255
f 229 260 255
f 255 256 229
f 284 300 285
f 284 268 263
f 285 268 284
f 212 240 213
f 213 240 214
f 213 191 212
f 214 191 213
f 328 315 327
f 328 329 315
f 332 331 324
f 324 323 332
f 332 323 331
f 331 323 326
f 326 323 313
f 306 319 307
f 288 305 306
f 306 307 288
f 288 307 308
f 308 309 288
f 308 307 320
f 320 309 308
f 313 293 312
f 293 309 312
f 293 279 290
f 290 309 293
f 290 279 273
f 273 272 290
f 290 272 271
f 273 279 252
f 252 280 253
f 279 280 252
f 252 253 222
f 252 251 273
f 222 251 252
f 222 220 197
f 197 220 196
f 196 172 197
f 250 244 221
f 221 220 250
f 221 244 216
f 97 133 134
f 134 98 97
f 101 102 76
f 51 75 76
f 76 75 100
f 100 103 76
f 182 159 158
f 158 157 182
f 158 159 131
f 131 130 158
f 158 130 157
f 91 69 68
f 68 90 91
f 93 95 73
f 52 30 29
f 29 53 52
f 29 30 13
f 26 25 54
f 26 13 12
f 12 25 26
f 24 25 12
f 12 23 24
f 24 23 51
f 54 25 24
f 24 53 54
f 51 52 24
f 52 53 24
f 184 161 183
f 185 161 184
f 183 204 184
f 184 204 185
f 115 113 142
f 115 84 113
f 116 84 115
f 142 117 115
f 115 117 116
f 118 119 86
f 86 117 118
f 118 117 143
f 120 121 89
f 89 119 120
f 302 286 301
f 285 300 301
f 301 286 285
f 235 233 265
f 265 267 235
f 263 268 264
f 268 267 264
f 267 265 264
f 264 233 263
f 264 265 233
f 167 190 168
f 168 190 191
f 266 234 236
f 236 241 266
f 237 208 234
f 234 266 237
f 237 266 241
f 209 208 237
f 237 241 211
f 237 210 209
f 237 211 210
f 145 166 167
f 145 120 119
f 121 120 145
f 146 121 145
f 167 168 145
f 145 168 146
f 86 61 82
f 85 86 82
f 82 59 85
f 62 61 87
f 62 88 63
f 62 87 88
f 63 40 62
f 40 61 62
f 42 65 47
f 47 65 44
f 47 43 42
f 47 44 20
f 20 43 47
f 322 312 309
f 313 312 322
f 289 290 271
f 271 270 289
f 288 309 289
f 309 290 289
f 289 269 288
f 289 270 269
f 215 214 222
f 222 197 215
f 196 220 194
f 220 221 194
f 194 221 216
f 217 218 194
f 194 216 217
f 170 196 194
f 218 219 194
f 194 219 195
f 195 170 194
f 98 134 135
f 135 99 98
f 135 103 99
f 51 76 77
f 77 76 102
f 77 78 51
f 77 102 78
f 124 91 123
f 73 70 94
f 94 93 73
f 70 93 94
f 92 91 124
f 124 93 92
f 92 93 70
f 70 69 92
f 69 91 92
f 54 53 28
f 53 29 28
f 28 26 54
f 28 29 13
f 13 26 28
f 146 168 169
f 169 191 192
f 169 168 191
f 144 118 143
f 143 166 144
f 166 145 144
f 119 118 144
f 144 145 119
f 38 59 60
f 59 82 60
f 313 322 321
f 320 326 321
f 321 326 313
f 321 309 320
f 321 322 309
f 192 214 193
f 214 215 193
f 193 169 192
f 149 123 148
f 148 171 149
f 148 123 122
f 122 147 148
f 122 91 90
f 122 123 91
f 122 90 89
f 96 126 128
f 128 152 153
f 129 96 128
f 128 153 129
f 127 126 96
f 93 126 127
f 96 95 127
f 95 93 127
f 58 60 82
f 58 61 40
f 58 82 61
f 38 60 58
f 58 39 38
f 40 39 58
f 124 123 150
f 123 149 150
f 152 128 151
f 151 128 126
f 126 150 151
f 151 150 149
f 125 93 124
f 124 150 125
f 125 126 93
f 125 150 126
f 174 181 175
f 199 181 174
f 175 152 174
f 152 151 174
f 198 199 174
f 173 151 149
f 195 198 173
f 198 174 173
f 173 174 151
f 173 171 195
f 173 149 171
f 179 178 135
f 135 106 105
f 259 283 135
f 135 110 109
f 317 330 135
f 135 327 324
f 135 260 259
f 136 107 135
f 324 331 135
f 135 326 320
f 32 15 135
f 135 6 1
f 138 137 135
f 135 318 317
f 105 104 135
f 305 304 135
f 135 180 179
f 182 156 135
f 1 5 135
f 109 136 135
f 31 30 135
f 135 78 101
f 231 204 135
f 135 299 318
f 202 226 135
f 135 284 263
f 135 134 133
f 135 15 6
f 135 55 32
f 135 14 31
f 52 78 135
f 137 111 135
f 263 262 135
f 135 232 231
f 135 255 260
f 135 303 302
f 135 328 327
f 135 177 202
f 135 156 155
f 155 180 135
f 133 132 135
f 135 159 182
f 135 79 55
f 135 5 14
f 135 30 52
f 111 110 135
f 135 161 138
f 135 283 299
f 101 76 135
f 304 303 135
f 330 329 135
f 320 319 135
f 135 306 305
f 135 178 177
f 135 132 160
f 160 159 135
f 135 107 106
f 135 104 79
f 183 161 135
f 135 204 183
f 135 262 261
f 261 232 135
f 226 255 135
f 300 284 135
f 329 328 135
f 331 326 135
f 319 306 135
f 302 301 135
f 135 76 103
f 135 301 300
f 193 215 197
f 193 197 172
f 122 121 146
f 89 121 122
f 122 193 172
f 122 172 147
f 146 169 122
f 169 193 122
