v 0.017908 0.000834 -0.007200
v 0.017908 0.000834 -0.007910
v 0.017903 0.000834 -0.007147
v 0.017878 0.000531 -0.006846
v 0.017912 0.000531 -0.007200
v 0.017912 0.000531 -0.007910
v 0.017831 0.000531 -0.008265
v 0.017813 0.000834 -0.008292
v 0.017873 0.000834 -0.006846
v 0.017862 0.000834 -0.006810
v 0.017789 0.000834 -0.006609
v 0.017790 0.000531 -0.006607
v 0.017757 -0.001598 -0.006644
v 0.017751 -0.001952 -0.006651
v 0.017808 -0.001598 -0.006846
v 0.017837 -0.001598 -0.007200
v 0.017837 -0.001598 -0.007910
v 0.017780 -0.001952 -0.008196
v 0.017787 -0.001598 -0.008211
v 0.017800 -0.000889 -0.008234
v 0.017713 -0.001243 -0.008400
v 0.017735 0.000052 -0.008439
v 0.017739 0.000288 -0.008445
v 0.017742 0.000531 -0.008449
v 0.017742 0.000805 -0.008449
v 0.017760 0.000834 -0.008408
v 0.016612 0.000834 -0.004875
v 0.016621 0.000664 -0.004875
v 0.016674 -0.000337 -0.004875
v 0.016674 -0.000489 -0.004875
v 0.016672 -0.000666 -0.004875
v 0.017744 -0.002171 -0.006661
v 0.017794 -0.001952 -0.006846
v 0.016664 -0.000790 -0.004875
v 0.017822 -0.001952 -0.007200
v 0.017822 -0.001952 -0.007910
v 0.017757 -0.002306 -0.008142
v 0.017699 -0.001952 -0.008373
v 0.017706 -0.001598 -0.008388
v 0.017522 -0.001952 -0.008556
v 0.017724 -0.000533 -0.008422
v 0.017529 -0.001598 -0.008560
v 0.017536 -0.001243 -0.008562
v 0.017559 0.000531 -0.008575
v 0.017587 0.000834 -0.008552
v 0.017703 0.000834 -0.008475
v 0.017742 0.000834 -0.008448
v 0.016085 -0.004269 -0.004463
v 0.012936 0.000834 -0.004875
v 0.017388 -0.003935 -0.006662
v 0.017721 -0.002406 -0.006770
v 0.017758 -0.002295 -0.006871
v 0.016657 -0.000889 -0.004875
v 0.017778 -0.002306 -0.007200
v 0.017778 -0.002306 -0.007910
v 0.017739 -0.002493 -0.008093
v 0.017401 -0.004080 -0.008134
v 0.017437 -0.003726 -0.008214
v 0.017676 -0.002306 -0.008319
v 0.017398 -0.003278 -0.008459
v 0.017425 -0.003015 -0.008484
v 0.017461 -0.002661 -0.008516
v 0.017497 -0.002306 -0.008542
v 0.017204 -0.002306 -0.008668
v 0.017204 -0.001952 -0.008682
v 0.017204 -0.001598 -0.008686
v 0.017204 -0.000889 -0.008690
v 0.017204 -0.000179 -0.008693
v 0.017204 0.000176 -0.008694
v 0.017204 0.000531 -0.008695
v 0.017204 0.000834 -0.008694
v 0.017257 0.000834 -0.008676
v 0.015825 -0.005143 -0.004463
v 0.015624 -0.005826 -0.004463
v 0.015793 -0.005254 -0.004463
v 0.017036 -0.005344 -0.006659
v 0.017052 -0.005254 -0.006643
v 0.017070 -0.005143 -0.006622
v 0.009509 -0.004269 -0.004463
v 0.009000 0.000834 -0.004875
v 0.017240 -0.004789 -0.006846
v 0.017364 -0.004171 -0.006785
v 0.017401 -0.004064 -0.006880
v 0.017383 -0.004258 -0.007021
v 0.017739 -0.002493 -0.007006
v 0.017740 -0.002498 -0.007200
v 0.017740 -0.002498 -0.007910
v 0.017383 -0.004258 -0.008088
v 0.017192 -0.004789 -0.008266
v 0.017319 -0.004080 -0.008312
v 0.017355 -0.003726 -0.008392
v 0.017375 -0.003515 -0.008431
v 0.017068 -0.004789 -0.008482
v 0.017106 -0.004435 -0.008514
v 0.017141 -0.004080 -0.008541
v 0.017177 -0.003726 -0.008559
v 0.017204 -0.003015 -0.008610
v 0.017204 -0.002661 -0.008642
v 0.016850 -0.004080 -0.008667
v 0.016850 -0.003726 -0.008685
v 0.016850 -0.003370 -0.008692
v 0.016850 -0.003015 -0.008695
v 0.006565 -0.010690 -0.008739
v 0.016903 0.000834 -0.008695
v 0.015792 -0.005254 -0.004463
v 0.015585 -0.005953 -0.004463
v 0.017055 -0.005394 -0.006846
v 0.017085 -0.005254 -0.006743
v 0.016335 -0.007143 -0.006650
v 0.016665 -0.006364 -0.006712
v 0.008883 0.000691 -0.004875
v 0.004796 -0.010690 -0.004463
v 0.009725 -0.004452 -0.004463
v 0.008997 0.000834 -0.007200
v 0.017141 -0.005143 -0.006846
v 0.017275 -0.004789 -0.007201
v 0.017379 -0.004269 -0.007011
v 0.017349 -0.004269 -0.006825
v 0.017347 -0.004436 -0.007201
v 0.017347 -0.004436 -0.007909
v 0.017275 -0.004789 -0.007909
v 0.017057 -0.005394 -0.008155
v 0.017077 -0.005254 -0.008217
v 0.017095 -0.005132 -0.008270
v 0.017043 -0.005006 -0.008456
v 0.016868 -0.005132 -0.008544
v 0.016850 -0.004789 -0.008608
v 0.016850 -0.004435 -0.008640
v 0.016850 -0.004269 -0.008653
v 0.016496 -0.005143 -0.008685
v 0.016496 -0.004789 -0.008695
v 0.014012 -0.009756 -0.008695
v 0.013304 -0.010690 -0.008694
v 0.006209 -0.010690 -0.008736
v 0.016140 0.000834 -0.008695
v 0.015787 -0.006564 -0.008695
v 0.014722 -0.008691 -0.008695
v 0.014436 -0.008337 -0.004463
v 0.014464 -0.008280 -0.004463
v 0.014815 -0.007570 -0.004463
v 0.015301 -0.006581 -0.004463
v 0.015326 -0.006531 -0.004463
v 0.015370 -0.006440 -0.004463
v 0.015479 -0.006208 -0.004463
v 0.015509 -0.006137 -0.004463
v 0.011191 -0.005254 -0.004463
v 0.012795 -0.010690 -0.004463
v 0.012799 -0.010685 -0.004463
v 0.012959 -0.010465 -0.004463
v 0.013541 -0.009662 -0.004463
v 0.014034 -0.008981 -0.004463
v 0.014152 -0.008816 -0.004463
v 0.014270 -0.008639 -0.004463
v 0.017070 -0.005431 -0.007201
v 0.017135 -0.005254 -0.007201
v 0.017122 -0.005254 -0.007043
v 0.017104 -0.005254 -0.006846
v 0.016683 -0.006412 -0.006949
v 0.016003 -0.007877 -0.006630
v 0.016190 -0.007627 -0.006846
v 0.016291 -0.007384 -0.006846
v 0.008883 0.000692 -0.006846
v 0.008775 0.000515 -0.007200
v 0.008776 0.000514 -0.006138
v 0.008779 0.000512 -0.004875
v 0.010855 -0.005096 -0.004463
v 0.010128 -0.004751 -0.004463
v 0.008601 0.000186 -0.004875
v 0.008551 0.000087 -0.004875
v 0.008513 0.000008 -0.004875
v 0.008512 0.000009 -0.005074
v 0.008510 0.000012 -0.005784
v 0.008510 0.000013 -0.006138
v 0.008510 0.000013 -0.007200
v 0.008445 -0.000179 -0.007200
v 0.008513 0.000007 -0.007405
v 0.004939 -0.010690 -0.007911
v 0.009037 0.000834 -0.007558
v 0.008883 0.000692 -0.007200
v 0.017175 -0.005143 -0.007201
v 0.017175 -0.005143 -0.007909
v 0.016996 -0.005254 -0.008386
v 0.017135 -0.005254 -0.007911
v 0.017070 -0.005431 -0.007911
v 0.016683 -0.006412 -0.008116
v 0.016356 -0.007194 -0.008174
v 0.016299 -0.007044 -0.008411
v 0.016998 -0.005243 -0.008392
v 0.016672 -0.006024 -0.008440
v 0.016716 -0.005789 -0.008482
v 0.016772 -0.005499 -0.008526
v 0.016837 -0.005254 -0.008538
v 0.016496 -0.005499 -0.008652
v 0.016496 -0.005254 -0.008675
v 0.016141 -0.006208 -0.008676
v 0.015787 -0.006918 -0.008689
v 0.016141 -0.005854 -0.008693
v 0.014368 -0.009401 -0.008693
v 0.013658 -0.010465 -0.008689
v 0.013658 -0.010690 -0.008657
v 0.005859 -0.010690 -0.008692
v 0.009404 0.000176 -0.008178
v 0.009758 0.000532 -0.008187
v 0.015839 0.000834 -0.008691
v 0.015432 -0.007627 -0.008692
v 0.014242 -0.010690 -0.006625
v 0.014570 -0.010322 -0.006643
v 0.015257 -0.009228 -0.006666
v 0.017003 -0.005608 -0.007201
v 0.016308 -0.007422 -0.007201
v 0.016040 -0.007941 -0.006846
v 0.016225 -0.007627 -0.007201
v 0.008792 0.000487 -0.007555
v 0.008596 0.000190 -0.007200
v 0.008599 0.000190 -0.006138
v 0.008535 -0.000049 -0.007641
v 0.008474 -0.000171 -0.007536
v 0.008604 0.000146 -0.007536
v 0.005119 -0.010690 -0.008290
v 0.008494 -0.000286 -0.007767
v 0.008902 0.000664 -0.007555
v 0.009133 0.000834 -0.007776
v 0.017003 -0.005608 -0.007911
v 0.016308 -0.007422 -0.007911
v 0.016225 -0.007627 -0.007911
v 0.016135 -0.007627 -0.008265
v 0.016263 -0.007297 -0.008282
v 0.015965 -0.007808 -0.008444
v 0.016344 -0.006807 -0.008466
v 0.016392 -0.006564 -0.008507
v 0.016077 -0.007272 -0.008536
v 0.016458 -0.006208 -0.008550
v 0.016141 -0.006564 -0.008633
v 0.015787 -0.007272 -0.008662
v 0.015077 -0.008337 -0.008687
v 0.014722 -0.009046 -0.008678
v 0.014012 -0.010110 -0.008684
v 0.014012 -0.010465 -0.008618
v 0.013997 -0.010690 -0.008536
v 0.005503 -0.010690 -0.008576
v 0.008844 -0.000267 -0.008104
v 0.009123 0.000176 -0.008124
v 0.009396 0.000532 -0.008134
v 0.009748 0.000834 -0.008147
v 0.010113 0.000834 -0.008187
v 0.015432 -0.007982 -0.008661
v 0.014252 -0.010690 -0.006643
v 0.014458 -0.010540 -0.006846
v 0.014600 -0.010363 -0.006846
v 0.014880 -0.009900 -0.006772
v 0.014333 -0.010690 -0.006846
v 0.014902 -0.009936 -0.007009
v 0.015273 -0.009255 -0.006846
v 0.015940 -0.008117 -0.006846
v 0.016058 -0.007968 -0.007201
v 0.008829 0.000423 -0.007790
v 0.005122 -0.010690 -0.008294
v 0.008765 0.000176 -0.007859
v 0.008689 -0.000158 -0.007924
v 0.009141 0.000814 -0.007827
v 0.009183 0.000834 -0.007849
v 0.016058 -0.007968 -0.007911
v 0.016012 -0.007888 -0.008265
v 0.016005 -0.007627 -0.008479
v 0.015652 -0.008587 -0.008178
v 0.015590 -0.008481 -0.008415
v 0.014907 -0.009593 -0.008451
v 0.015283 -0.008919 -0.008468
v 0.015660 -0.008244 -0.008485
v 0.015782 -0.007949 -0.008517
v 0.015787 -0.007627 -0.008602
v 0.014368 -0.009756 -0.008667
v 0.014394 -0.010133 -0.008564
v 0.014270 -0.010465 -0.008497
v 0.014132 -0.010690 -0.008463
v 0.005404 -0.010690 -0.008520
v 0.008888 -0.000030 -0.008080
v 0.009191 0.000414 -0.008104
v 0.009509 0.000790 -0.008113
v 0.009602 0.000834 -0.008122
v 0.015077 -0.008691 -0.008643
v 0.014478 -0.010564 -0.007201
v 0.014790 -0.010077 -0.006873
v 0.014620 -0.010385 -0.007201
v 0.014373 -0.010690 -0.007201
v 0.014797 -0.010116 -0.007201
v 0.014903 -0.009939 -0.007201
v 0.015843 -0.008337 -0.007201
v 0.015955 -0.008145 -0.007201
v 0.009048 0.000537 -0.007926
v 0.008946 0.000176 -0.008036
v 0.009272 0.000650 -0.008064
v 0.009341 0.000834 -0.007986
v 0.015955 -0.008145 -0.007911
v 0.014902 -0.009936 -0.008093
v 0.015277 -0.009262 -0.008140
v 0.015214 -0.009156 -0.008377
v 0.014528 -0.010265 -0.008423
v 0.014602 -0.010028 -0.008491
v 0.015352 -0.008691 -0.008517
v 0.015456 -0.008352 -0.008562
v 0.014722 -0.009401 -0.008620
v 0.014722 -0.009729 -0.008525
v 0.014193 -0.010647 -0.008445
v 0.014229 -0.010690 -0.008328
v 0.009464 0.000834 -0.008059
v 0.014478 -0.010564 -0.007911
v 0.014620 -0.010385 -0.007911
v 0.014373 -0.010690 -0.007911
v 0.014797 -0.010116 -0.007911
v 0.014903 -0.009939 -0.007911
v 0.015843 -0.008337 -0.007911
v 0.014594 -0.010353 -0.008186
v 0.014717 -0.010100 -0.008258
v 0.014440 -0.010469 -0.008289
v 0.015088 -0.009041 -0.008546
v 0.014267 -0.010690 -0.008267
f 80 79 49
f 112 79 111
f 111 79 80
f 50 32 48
f 48 32 53
f 33 14 32
f 74 105 106
f 76 74 106
f 113 79 112
f 112 167 113
f 112 146 166
f 166 167 112
f 138 105 153
f 153 105 152
f 153 159 138
f 208 159 153
f 28 27 48
f 48 29 28
f 48 31 30
f 30 29 48
f 30 31 12
f 12 29 30
f 27 28 11
f 12 4 11
f 11 29 12
f 11 28 29
f 1 4 5
f 34 53 32
f 34 14 31
f 32 14 34
f 34 31 48
f 48 53 34
f 12 31 13
f 31 14 13
f 13 4 12
f 13 14 4
f 5 4 15
f 4 14 15
f 14 33 15
f 32 50 51
f 169 170 112
f 112 168 169
f 112 111 165
f 165 168 112
f 103 135 104
f 241 201 240
f 241 242 201
f 204 203 245
f 134 203 204
f 204 135 134
f 134 135 103
f 112 170 171
f 171 172 112
f 170 169 171
f 171 169 172
f 114 111 80
f 73 74 48
f 105 74 73
f 207 206 247
f 207 153 152
f 208 153 207
f 147 206 207
f 48 74 75
f 75 76 48
f 74 76 75
f 78 50 48
f 109 76 106
f 148 105 147
f 148 149 105
f 147 207 148
f 148 207 149
f 152 105 151
f 151 207 152
f 4 9 10
f 10 11 4
f 3 9 4
f 4 1 3
f 81 108 115
f 50 76 81
f 76 108 81
f 244 245 203
f 244 243 280
f 203 243 244
f 202 243 203
f 202 134 201
f 203 134 202
f 201 242 202
f 242 243 202
f 177 217 216
f 208 207 250
f 250 207 249
f 77 76 50
f 50 78 77
f 48 76 77
f 77 78 48
f 159 109 144
f 105 149 150
f 150 151 105
f 149 207 150
f 207 151 150
f 82 51 50
f 50 81 82
f 239 200 238
f 251 207 247
f 132 133 103
f 103 137 132
f 200 133 199
f 136 137 103
f 103 131 136
f 102 131 103
f 240 276 277
f 277 241 240
f 277 276 257
f 277 257 259
f 242 241 277
f 164 165 111
f 111 163 164
f 179 114 178
f 222 261 260
f 260 261 292
f 259 257 220
f 257 219 220
f 220 219 177
f 177 216 220
f 178 222 221
f 221 222 260
f 221 179 178
f 143 142 159
f 159 144 143
f 105 142 143
f 143 144 105
f 145 109 106
f 145 144 109
f 106 105 145
f 105 144 145
f 139 105 138
f 139 140 105
f 138 159 139
f 159 140 139
f 141 142 105
f 105 140 141
f 159 142 141
f 141 140 159
f 107 108 76
f 76 109 110
f 109 161 110
f 110 107 76
f 160 109 159
f 160 161 109
f 212 161 160
f 249 207 248
f 207 251 248
f 282 251 285
f 282 248 251
f 282 284 249
f 249 248 282
f 200 199 237
f 238 200 237
f 237 272 238
f 238 272 273
f 272 237 236
f 131 102 101
f 7 2 6
f 6 17 18
f 51 82 83
f 32 51 52
f 51 85 52
f 52 33 32
f 5 15 16
f 16 15 33
f 71 72 44
f 214 164 163
f 162 163 111
f 162 179 163
f 111 114 162
f 114 179 162
f 112 174 175
f 293 292 261
f 278 243 242
f 242 277 278
f 278 277 291
f 291 292 278
f 260 292 290
f 290 292 291
f 163 179 213
f 179 221 213
f 115 108 157
f 108 107 157
f 107 156 157
f 154 107 158
f 158 110 161
f 107 110 158
f 210 161 212
f 210 158 161
f 283 250 249
f 274 239 238
f 238 273 274
f 275 239 274
f 274 273 299
f 302 273 272
f 317 313 309
f 298 274 299
f 193 192 232
f 127 192 193
f 193 194 127
f 272 236 246
f 198 236 237
f 198 132 137
f 198 237 199
f 133 132 198
f 198 199 133
f 197 136 131
f 197 131 130
f 130 196 197
f 195 196 130
f 234 196 195
f 130 194 195
f 195 193 234
f 194 193 195
f 137 136 205
f 205 198 137
f 136 197 205
f 205 197 196
f 205 196 234
f 234 246 205
f 96 127 128
f 128 194 130
f 127 194 128
f 67 102 68
f 68 44 67
f 2 7 8
f 39 18 38
f 37 58 59
f 59 38 37
f 37 38 18
f 19 7 6
f 6 18 19
f 19 18 39
f 118 82 81
f 33 52 35
f 35 16 33
f 71 44 70
f 70 102 103
f 70 104 71
f 103 104 70
f 45 44 72
f 165 164 215
f 164 214 215
f 168 165 215
f 215 214 172
f 215 169 168
f 172 169 215
f 172 214 173
f 173 214 174
f 112 172 173
f 173 174 112
f 174 214 176
f 176 216 217
f 176 175 174
f 176 214 163
f 163 213 176
f 176 217 177
f 176 177 112
f 112 175 176
f 279 278 292
f 280 243 279
f 243 278 279
f 256 220 216
f 260 290 256
f 256 290 291
f 256 221 260
f 256 213 221
f 212 160 211
f 211 160 159
f 211 159 208
f 208 254 211
f 115 157 180
f 180 157 156
f 154 158 209
f 158 210 209
f 265 262 296
f 255 211 254
f 212 211 255
f 253 254 208
f 299 273 303
f 273 302 303
f 275 274 304
f 274 298 304
f 313 317 315
f 315 298 313
f 315 304 298
f 267 298 299
f 313 298 314
f 297 314 298
f 309 313 307
f 313 308 307
f 295 308 313
f 313 314 295
f 296 262 295
f 295 297 296
f 314 297 295
f 95 127 96
f 95 94 127
f 62 94 95
f 126 192 127
f 125 192 126
f 233 193 232
f 234 193 233
f 269 270 228
f 232 192 191
f 191 192 125
f 228 270 264
f 229 187 228
f 228 264 229
f 271 246 234
f 271 264 270
f 234 233 271
f 236 198 235
f 198 205 235
f 235 246 236
f 235 205 246
f 21 19 39
f 7 23 24
f 43 44 24
f 26 8 7
f 56 37 36
f 36 18 17
f 36 37 18
f 69 44 68
f 69 70 44
f 68 102 69
f 102 70 69
f 125 92 91
f 91 92 59
f 59 58 91
f 60 38 59
f 59 92 60
f 216 176 218
f 218 176 213
f 218 256 216
f 213 256 218
f 280 279 306
f 292 293 306
f 306 279 292
f 259 220 258
f 220 256 258
f 258 277 259
f 291 277 258
f 258 256 291
f 155 180 156
f 155 107 154
f 155 156 107
f 116 81 115
f 115 180 116
f 187 229 189
f 187 189 182
f 125 91 89
f 89 91 90
f 56 87 88
f 54 52 85
f 54 35 52
f 263 265 228
f 262 265 263
f 263 225 262
f 228 187 227
f 187 186 227
f 316 303 302
f 275 304 305
f 305 315 317
f 304 315 305
f 266 265 296
f 296 297 266
f 228 265 266
f 266 267 228
f 298 267 266
f 266 297 298
f 268 267 299
f 299 269 268
f 228 267 268
f 268 269 228
f 190 229 230
f 190 191 125
f 230 191 190
f 125 189 190
f 190 189 229
f 281 271 302
f 246 271 281
f 281 302 272
f 272 246 281
f 264 271 231
f 230 229 231
f 231 229 264
f 232 191 231
f 231 191 230
f 231 233 232
f 231 271 233
f 39 38 40
f 40 21 39
f 40 24 23
f 130 131 100
f 131 101 100
f 22 23 7
f 7 21 22
f 22 40 23
f 7 19 20
f 20 21 7
f 19 21 20
f 25 24 44
f 25 46 47
f 7 24 25
f 45 46 25
f 44 45 25
f 47 26 25
f 25 26 7
f 125 126 93
f 93 92 125
f 93 60 92
f 127 94 93
f 93 126 127
f 61 94 62
f 62 38 61
f 38 60 61
f 61 93 94
f 60 93 61
f 122 184 185
f 122 182 123
f 187 182 122
f 122 88 121
f 185 186 122
f 122 186 187
f 123 89 122
f 89 88 122
f 184 122 183
f 84 85 51
f 51 83 84
f 81 116 84
f 123 182 124
f 125 89 124
f 124 89 123
f 57 88 89
f 57 89 90
f 58 37 57
f 90 91 57
f 57 91 58
f 57 37 56
f 56 88 57
f 55 87 56
f 56 36 55
f 308 295 310
f 311 310 295
f 254 253 252
f 288 289 252
f 252 255 254
f 252 289 255
f 252 283 249
f 250 283 252
f 284 286 252
f 249 284 252
f 208 250 252
f 252 253 208
f 224 186 185
f 224 225 186
f 226 227 186
f 186 225 226
f 225 263 226
f 226 263 228
f 228 227 226
f 303 316 300
f 270 269 300
f 299 303 300
f 300 269 299
f 301 271 270
f 270 300 301
f 301 300 316
f 302 271 301
f 301 316 302
f 43 24 42
f 24 40 42
f 63 98 64
f 64 40 63
f 63 95 96
f 62 95 63
f 63 38 62
f 63 40 38
f 130 100 99
f 99 100 64
f 64 98 99
f 21 40 41
f 41 22 21
f 40 22 41
f 181 122 121
f 181 183 122
f 86 54 85
f 85 84 86
f 117 118 81
f 81 84 117
f 82 118 117
f 117 83 82
f 117 84 83
f 121 88 120
f 120 88 87
f 125 124 188
f 188 124 182
f 188 189 125
f 188 182 189
f 312 311 295
f 288 252 287
f 287 252 286
f 185 184 223
f 223 224 185
f 65 40 64
f 65 42 40
f 43 42 65
f 65 100 101
f 64 100 65
f 65 44 43
f 97 63 96
f 98 63 97
f 96 128 97
f 128 98 97
f 129 98 128
f 129 99 98
f 129 128 130
f 130 99 129
f 119 86 84
f 119 84 116
f 294 295 262
f 294 312 295
f 66 65 101
f 66 101 102
f 102 67 66
f 66 67 44
f 44 65 66
f 49 79 48
f 48 27 49
f 112 147 105
f 105 146 112
f 48 79 73
f 73 166 146
f 79 113 73
f 146 105 73
f 73 113 167
f 167 166 73
f 2 1 5
f 5 6 2
f 16 6 5
f 16 17 6
f 307 285 309
f 307 282 285
f 284 282 307
f 307 308 284
f 17 16 36
f 16 35 36
f 80 49 306
f 1 2 306
f 306 49 27
f 71 104 306
f 9 3 306
f 27 11 306
f 306 135 204
f 306 244 280
f 306 114 80
f 306 10 9
f 306 104 135
f 204 245 306
f 178 114 306
f 11 10 306
f 306 3 1
f 245 244 306
f 306 72 71
f 306 222 178
f 306 26 47
f 261 222 306
f 47 46 306
f 306 293 261
f 2 8 306
f 306 45 72
f 8 26 306
f 306 46 45
f 225 255 262
f 212 255 225
f 247 206 305
f 112 177 305
f 305 147 112
f 305 276 240
f 200 239 305
f 240 201 305
f 305 206 147
f 305 134 103
f 103 133 305
f 177 219 305
f 201 134 305
f 305 219 257
f 305 251 247
f 309 285 305
f 305 133 200
f 257 276 305
f 305 239 275
f 285 251 305
f 305 317 309
f 154 184 183
f 183 155 154
f 55 36 35
f 35 54 55
f 284 308 310
f 310 286 284
f 212 225 224
f 224 210 212
f 121 116 181
f 181 116 180
f 155 183 181
f 180 155 181
f 86 55 54
f 87 55 86
f 311 312 287
f 287 312 288
f 286 310 287
f 310 311 287
f 223 184 154
f 154 209 223
f 210 224 223
f 223 209 210
f 87 86 119
f 119 120 87
f 119 116 121
f 121 120 119
f 262 255 294
f 255 289 294
f 288 312 294
f 294 289 288
