v 0.016612 0.000834 -0.001526
v 0.016674 -0.000344 -0.001347
v 0.016676 -0.000337 -0.001526
v 0.016612 0.000834 -0.004874
v 0.016500 0.000834 -0.001171
v 0.016674 -0.000445 -0.001347
v 0.016576 -0.000207 -0.001205
v 0.016582 -0.000551 -0.001205
v 0.016676 -0.000337 -0.004874
v 0.016676 -0.000490 -0.001526
v 0.012799 -0.010690 -0.005783
v 0.008996 0.000834 -0.004874
v 0.016533 0.000176 -0.001171
v 0.016352 0.000834 -0.000962
v 0.016659 -0.000889 -0.001526
v 0.016672 -0.000668 -0.001526
v 0.016545 -0.000889 -0.001171
v 0.016518 -0.001244 -0.001171
v 0.016490 -0.001597 -0.001171
v 0.016457 -0.001954 -0.001171
v 0.016573 -0.001954 -0.001526
v 0.016605 -0.001597 -0.001526
v 0.016361 0.000530 -0.000954
v 0.016378 -0.000179 -0.000940
v 0.016382 -0.000534 -0.000936
v 0.016374 -0.000889 -0.000943
v 0.016676 -0.000490 -0.004874
v 0.016672 -0.000668 -0.004874
v 0.016657 -0.000889 -0.004874
v 0.016638 -0.001086 -0.004874
v 0.016621 -0.001244 -0.004874
v 0.016455 -0.002662 -0.004874
v 0.016406 -0.003017 -0.004874
v 0.016348 -0.003325 -0.004874
v 0.016309 -0.003503 -0.004874
v 0.016187 -0.003925 -0.004874
v 0.016084 -0.004270 -0.004874
v 0.015508 -0.006137 -0.004462
v 0.015476 -0.006209 -0.004462
v 0.015370 -0.006442 -0.004462
v 0.015327 -0.006531 -0.004462
v 0.014622 -0.007961 -0.004462
v 0.014435 -0.008336 -0.004462
v 0.014270 -0.008638 -0.004462
v 0.014152 -0.008815 -0.004462
v 0.013987 -0.009046 -0.004462
v 0.013987 -0.009046 -0.001525
v 0.012795 -0.010690 -0.001526
v 0.012656 -0.010862 -0.001526
v 0.012658 -0.010862 -0.005783
v 0.004939 -0.010690 -0.005783
v -0.000298 -0.011758 -0.005783
v -0.002468 -0.011633 -0.005197
v 0.006369 0.000834 -0.004189
v 0.016140 0.000834 -0.000867
v 0.016659 -0.000889 -0.004717
v 0.016361 -0.001244 -0.000954
v 0.016348 -0.001597 -0.000965
v 0.016329 -0.001954 -0.000982
v 0.016320 -0.002137 -0.000992
v 0.016400 -0.002276 -0.001148
v 0.016391 -0.002662 -0.001222
v 0.016522 -0.002307 -0.001526
v 0.016520 -0.002307 -0.002235
v 0.016571 -0.001954 -0.001880
v 0.016631 -0.001244 -0.003652
v 0.016605 -0.001597 -0.001880
v 0.016363 -0.003017 -0.001265
v 0.016339 -0.003282 -0.001309
v 0.016368 0.000176 -0.000946
v 0.016140 0.000530 -0.000860
v 0.016140 0.000176 -0.000853
v 0.016140 -0.000179 -0.000846
v 0.016140 -0.000534 -0.000843
v 0.016140 -0.000889 -0.000849
v 0.016140 -0.001244 -0.000859
v 0.016140 -0.001597 -0.000871
v 0.016099 -0.002662 -0.000902
v 0.016623 -0.001244 -0.004717
v 0.016458 -0.002662 -0.004362
v 0.016408 -0.003017 -0.004717
v 0.016560 -0.001954 -0.002944
v 0.016563 -0.001954 -0.002590
v 0.016567 -0.001954 -0.002235
v 0.016348 -0.003325 -0.001526
v 0.016309 -0.003503 -0.001526
v 0.016140 -0.004081 -0.001526
v 0.015638 -0.005777 -0.001525
v 0.015638 -0.005777 -0.004462
v 0.015583 -0.005953 -0.004462
v 0.015583 -0.005953 -0.001525
v 0.015476 -0.006209 -0.001525
v 0.015327 -0.006531 -0.001525
v 0.014622 -0.007961 -0.001525
v 0.014435 -0.008336 -0.001525
v 0.014270 -0.008638 -0.001525
v 0.014152 -0.008815 -0.001525
v 0.013842 -0.009233 -0.001335
v 0.012776 -0.010690 -0.001337
v 0.012480 -0.011062 -0.001526
v 0.012482 -0.011062 -0.005783
v -0.000298 -0.016662 -0.005783
v -0.002468 -0.016488 -0.005197
v -0.002468 -0.010731 -0.004004
v -0.000298 -0.005940 -0.003930
v -0.000298 -0.006106 -0.004047
v -0.000298 -0.006195 -0.004107
v -0.000298 -0.006312 -0.004163
v -0.000298 -0.006373 -0.004189
v 0.006217 0.000834 -0.004142
v 0.015784 0.000834 -0.000805
v 0.014035 -0.000889 -0.000435
v 0.014092 -0.001244 -0.000435
v 0.016071 -0.003017 -0.000911
v 0.016275 -0.002662 -0.001045
v 0.016033 -0.003371 -0.000934
v 0.016249 -0.003017 -0.001088
v 0.016408 -0.003017 -0.001526
v 0.016228 -0.003389 -0.001182
v 0.016052 -0.004081 -0.001207
v 0.015999 -0.004436 -0.001284
v 0.015969 -0.004635 -0.001335
v 0.014090 -0.001597 -0.000435
v 0.015784 -0.002662 -0.000808
v 0.015784 -0.003017 -0.000818
v 0.015628 -0.005743 -0.001310
v 0.015300 -0.006483 -0.001271
v 0.014948 -0.007196 -0.001269
v 0.014594 -0.007910 -0.001266
v 0.014242 -0.008597 -0.001264
v 0.014084 -0.008705 -0.001156
v 0.013520 -0.009632 -0.001286
v 0.012789 -0.010668 -0.001315
v 0.012458 -0.011040 -0.001290
v 0.012102 -0.011391 -0.001294
v 0.011028 -0.012449 -0.001304
v 0.011045 -0.012465 -0.001526
v 0.011764 -0.011765 -0.005783
v -0.002305 -0.016507 -0.005197
v -0.002429 -0.016494 -0.005197
v -0.000236 -0.016667 -0.005783
v -0.002468 -0.016488 -0.001525
v -0.002468 -0.010647 -0.003863
v -0.000298 -0.005895 -0.003834
v 0.005762 0.000834 -0.003652
v 0.005783 0.000834 -0.003695
v 0.005916 0.000834 -0.003954
v 0.005953 0.000834 -0.003980
v 0.006191 0.000834 -0.004131
v 0.011910 0.000834 -0.000481
v 0.011882 0.000819 -0.000435
v 0.012238 0.000795 -0.000435
v 0.012476 0.000735 -0.000435
v 0.012949 0.000520 -0.000435
v 0.013158 0.000405 -0.000435
v 0.013173 0.000397 -0.000435
v 0.013187 0.000386 -0.000435
v 0.013353 0.000239 -0.000435
v 0.013539 0.000061 -0.000435
v 0.013717 -0.000160 -0.000435
v 0.013852 -0.000337 -0.000435
v 0.013859 -0.000351 -0.000435
v 0.013934 -0.000534 -0.000435
v 0.013944 -0.000560 -0.000435
v 0.015784 -0.003371 -0.000841
v 0.015728 -0.004270 -0.000912
v 0.015703 -0.004436 -0.000921
v 0.015996 -0.003660 -0.000965
v 0.015960 -0.003896 -0.000996
v 0.016095 -0.003757 -0.001137
v 0.015932 -0.004081 -0.001030
v 0.015881 -0.004436 -0.001107
v 0.015546 -0.005499 -0.001075
v 0.015664 -0.005499 -0.001252
v 0.014034 -0.001954 -0.000435
v 0.015430 -0.004436 -0.000826
v 0.015505 -0.005859 -0.001183
v 0.015355 -0.006200 -0.001160
v 0.015216 -0.006313 -0.001035
v 0.014864 -0.007027 -0.001033
v 0.014155 -0.008451 -0.001028
v 0.014303 -0.008333 -0.001156
v 0.013835 -0.008868 -0.000992
v 0.013426 -0.009504 -0.001050
v 0.012697 -0.010541 -0.001079
v 0.012757 -0.010690 -0.001296
v 0.012351 -0.010932 -0.001054
v 0.011995 -0.011287 -0.001057
v 0.012578 -0.010802 -0.001185
v 0.010795 -0.012573 -0.001187
v 0.010670 -0.012799 -0.001307
v 0.010863 -0.012641 -0.001526
v 0.010865 -0.012643 -0.005781
v 0.011047 -0.012466 -0.005783
v -0.002305 -0.016507 -0.001525
v -0.000060 -0.016679 -0.005783
v -0.000053 -0.016677 -0.001526
v -0.002468 -0.016403 -0.001206
v -0.002468 -0.010641 -0.003846
v -0.000298 -0.005816 -0.003653
v 0.005732 0.000834 -0.003298
v -0.000298 -0.005803 -0.003532
v -0.000298 -0.005780 -0.003298
v 0.011882 0.000834 -0.000480
v 0.006210 0.000834 -0.000805
v 0.011494 0.000776 -0.000435
v 0.015370 -0.005499 -0.000911
v 0.015651 -0.004791 -0.000956
v 0.015313 -0.005856 -0.000944
v 0.015619 -0.005004 -0.000983
v 0.015583 -0.005242 -0.001021
v 0.015274 -0.006077 -0.000975
v 0.013912 -0.002336 -0.000435
v 0.015075 -0.005499 -0.000817
v 0.015075 -0.005856 -0.000849
v 0.014922 -0.006790 -0.000973
v 0.014217 -0.008215 -0.000970
v 0.013899 -0.008690 -0.000952
v 0.013513 -0.009269 -0.000968
v 0.012782 -0.010305 -0.000983
v 0.013104 -0.009905 -0.001013
v 0.012463 -0.010690 -0.000960
v 0.012469 -0.010690 -0.000966
v 0.012459 -0.010695 -0.000960
v 0.012113 -0.011050 -0.000959
v 0.011757 -0.011403 -0.000961
v 0.010685 -0.012460 -0.000966
v 0.010921 -0.012343 -0.001067
v 0.010552 -0.012696 -0.001071
v 0.010445 -0.012869 -0.001182
v 0.010042 -0.013204 -0.001244
v 0.009634 -0.013521 -0.001287
v 0.009227 -0.013838 -0.001342
v 0.010276 -0.013120 -0.001526
v 0.010464 -0.012981 -0.001526
v 0.010687 -0.012811 -0.001526
v 0.010687 -0.012814 -0.005783
v 0.010865 -0.012643 -0.005783
v -0.000034 -0.016677 -0.001343
v 0.000182 -0.016680 -0.005783
v 0.000182 -0.016679 -0.001526
v -0.002468 -0.016288 -0.001029
v -0.002305 -0.016413 -0.001192
v -0.002468 -0.010637 -0.003653
v 0.005725 0.000834 -0.001526
v -0.000298 -0.005760 -0.001525
v 0.005884 0.000834 -0.000900
v -0.000298 -0.006209 -0.000805
v 0.010252 0.000035 -0.000435
v 0.010438 0.000213 -0.000435
v 0.010616 0.000378 -0.000435
v 0.010818 0.000488 -0.000435
v 0.011195 0.000661 -0.000435
v 0.015090 -0.006200 -0.000911
v 0.014976 -0.006564 -0.000936
v 0.014626 -0.007273 -0.000934
v 0.013908 -0.002345 -0.000435
v 0.014721 -0.006209 -0.000810
v 0.014721 -0.006564 -0.000842
v 0.014272 -0.007980 -0.000933
v 0.014026 -0.008333 -0.000909
v 0.013657 -0.008690 -0.000858
v 0.013305 -0.009392 -0.000913
v 0.013190 -0.009668 -0.000948
v 0.012585 -0.010440 -0.000930
v 0.012463 -0.010689 -0.000959
v 0.012235 -0.010817 -0.000916
v 0.011877 -0.011172 -0.000916
v 0.011523 -0.011525 -0.000918
v 0.010809 -0.012232 -0.000922
v 0.010445 -0.012585 -0.000930
v 0.010316 -0.012794 -0.000977
v 0.009911 -0.013111 -0.001008
v 0.010140 -0.013056 -0.001144
v 0.009774 -0.013317 -0.001147
v 0.009502 -0.013430 -0.001050
v 0.008582 -0.014239 -0.001276
v 0.008161 -0.014546 -0.001344
v 0.008618 -0.014263 -0.001526
v 0.010464 -0.012984 -0.005783
v 0.009664 -0.013543 -0.005783
v 0.010276 -0.013120 -0.005783
v -0.000161 -0.016576 -0.001203
v -0.001784 -0.016320 -0.000992
v 0.000182 -0.016675 -0.001343
v 0.000182 -0.016562 -0.001165
v 0.000375 -0.016675 -0.005783
v 0.000367 -0.016675 -0.001526
v 0.000363 -0.016674 -0.001347
v -0.002468 -0.016109 -0.000901
v -0.002305 -0.016296 -0.001015
v -0.002468 -0.010637 -0.003640
v 0.005726 0.000834 -0.001171
v -0.000298 -0.005761 -0.001404
v -0.000298 -0.005902 -0.000899
v -0.002468 -0.011523 -0.000871
v -0.002468 -0.011885 -0.000808
v 0.009872 -0.000582 -0.000435
v 0.009958 -0.000404 -0.000435
v 0.010110 -0.000164 -0.000435
v 0.014382 -0.007623 -0.000908
v 0.014011 -0.007628 -0.000809
v 0.014365 -0.006919 -0.000809
v 0.013738 -0.002631 -0.000435
v 0.013657 -0.008336 -0.000811
v 0.014011 -0.007980 -0.000839
v 0.014365 -0.007273 -0.000840
v 0.013303 -0.009046 -0.000834
v 0.012593 -0.010109 -0.000847
v 0.012971 -0.009775 -0.000893
v 0.012353 -0.010690 -0.000921
v 0.012236 -0.010690 -0.000884
v 0.011884 -0.010821 -0.000827
v 0.011174 -0.011530 -0.000830
v 0.010464 -0.012240 -0.000832
v 0.010110 -0.012595 -0.000841
v 0.010110 -0.012866 -0.000935
v 0.009673 -0.013193 -0.000947
v 0.009264 -0.013512 -0.000970
v 0.008858 -0.013829 -0.001000
v 0.008449 -0.014146 -0.001040
v 0.008305 -0.014351 -0.001191
v 0.007981 -0.014633 -0.001526
v 0.008164 -0.014548 -0.001526
v 0.008342 -0.014440 -0.001526
v 0.007981 -0.014464 -0.001100
v 0.007981 -0.014589 -0.001277
v 0.007198 -0.014949 -0.001269
v 0.006472 -0.015293 -0.001281
v 0.005745 -0.015638 -0.001294
v 0.005955 -0.015575 -0.001526
v 0.006210 -0.015456 -0.001526
v 0.008342 -0.014441 -0.005781
v 0.008618 -0.014263 -0.005783
v -0.000174 -0.016380 -0.000939
v -0.000531 -0.016367 -0.000949
v -0.001595 -0.016327 -0.000986
v 0.000182 -0.016386 -0.000935
v 0.000504 -0.016571 -0.001205
v 0.000534 -0.016375 -0.000943
v 0.002663 -0.016461 -0.005783
v 0.002308 -0.016490 -0.001526
v 0.002663 -0.016456 -0.001526
v 0.003017 -0.016362 -0.001269
v 0.002663 -0.016387 -0.001227
v -0.000298 -0.016142 -0.000848
v -0.002468 -0.015787 -0.000807
v -0.000887 -0.016353 -0.000961
v -0.002468 -0.010670 -0.001880
v -0.000298 -0.005765 -0.001171
v -0.002468 -0.010719 -0.001526
v -0.002468 -0.010894 -0.001260
v -0.002468 -0.011112 -0.001096
v -0.002468 -0.011295 -0.000959
v -0.002468 -0.012240 -0.000805
v 0.009778 -0.000889 -0.000435
v 0.013728 -0.002645 -0.000435
v 0.012593 -0.009754 -0.000808
v 0.012947 -0.009399 -0.000819
v 0.012238 -0.010464 -0.000827
v 0.011884 -0.010690 -0.000819
v 0.009754 -0.012595 -0.000806
v 0.009399 -0.012950 -0.000818
v 0.009045 -0.013305 -0.000835
v 0.008333 -0.014021 -0.000909
v 0.009776 -0.012976 -0.000891
v 0.009390 -0.013308 -0.000914
v 0.009045 -0.013588 -0.000930
v 0.008622 -0.013910 -0.000943
v 0.008215 -0.014225 -0.000965
v 0.007981 -0.014635 -0.005783
v 0.006210 -0.015460 -0.005781
v 0.008164 -0.014549 -0.005783
v 0.007747 -0.014519 -0.001022
v 0.007021 -0.014865 -0.001033
v 0.006292 -0.015211 -0.001044
v 0.005860 -0.015501 -0.001174
v 0.005502 -0.015556 -0.001057
v 0.005502 -0.015676 -0.001234
v 0.004640 -0.015971 -0.001334
v 0.005502 -0.015744 -0.001526
v 0.005779 -0.015652 -0.001526
v 0.005781 -0.015655 -0.005783
v 0.008342 -0.014441 -0.005783
v -0.000174 -0.016140 -0.000845
v 0.002663 -0.016096 -0.000901
v 0.000534 -0.016140 -0.000849
v 0.000182 -0.016140 -0.000841
v 0.000890 -0.016358 -0.000957
v 0.002663 -0.016272 -0.001050
v 0.001759 -0.016317 -0.000995
v 0.001523 -0.016329 -0.000985
v 0.003017 -0.016408 -0.005783
v 0.003017 -0.016404 -0.001526
v 0.003257 -0.016336 -0.001315
v 0.003017 -0.016247 -0.001092
v 0.010254 -0.002873 -0.000435
v 0.010108 -0.002662 -0.000435
v 0.009962 -0.002425 -0.000435
v 0.009881 -0.002261 -0.000435
v 0.009875 -0.002247 -0.000435
v 0.009784 -0.001954 -0.000435
v -0.002468 -0.015432 -0.000805
v -0.002305 -0.015787 -0.000805
v 0.010623 -0.003212 -0.000435
v 0.010445 -0.003051 -0.000435
v -0.002468 -0.010707 -0.001605
v 0.009737 -0.001244 -0.000435
v 0.013531 -0.002893 -0.000435
v 0.008689 -0.013305 -0.000806
v 0.008335 -0.013660 -0.000815
v 0.013340 -0.003071 -0.000435
v 0.013162 -0.003227 -0.000435
v 0.007981 -0.014013 -0.000832
v 0.007981 -0.014285 -0.000926
v 0.007510 -0.014573 -0.000969
v 0.006210 -0.015460 -0.005783
v 0.006058 -0.015266 -0.000983
v 0.005260 -0.015590 -0.001013
v 0.004083 -0.015928 -0.001036
v 0.004437 -0.015881 -0.001109
v 0.005854 -0.015312 -0.000948
v 0.004083 -0.016046 -0.001213
v 0.004437 -0.015998 -0.001286
v 0.003289 -0.016344 -0.001526
v 0.004655 -0.015974 -0.001526
v 0.005502 -0.015748 -0.005783
v 0.003017 -0.016068 -0.000913
v 0.003017 -0.015787 -0.000820
v 0.002663 -0.015787 -0.000807
v 0.002308 -0.015787 -0.000806
v -0.000298 -0.015787 -0.000805
v 0.003292 -0.016346 -0.005783
v 0.003879 -0.015955 -0.001001
v 0.003643 -0.015989 -0.000971
v 0.003373 -0.016025 -0.000942
v 0.009778 -0.001928 -0.000435
v 0.009737 -0.001597 -0.000435
v 0.011882 -0.003642 -0.000435
v 0.011519 -0.003599 -0.000435
v 0.011511 -0.003598 -0.000435
v 0.011359 -0.003555 -0.000435
v 0.011193 -0.003485 -0.000435
v 0.010818 -0.003313 -0.000435
v 0.010636 -0.003219 -0.000435
v 0.007627 -0.014013 -0.000807
v 0.012949 -0.003341 -0.000435
v 0.006918 -0.014368 -0.000809
v 0.005502 -0.015077 -0.000815
v 0.007271 -0.014368 -0.000838
v 0.005854 -0.015077 -0.000854
v 0.007271 -0.014630 -0.000932
v 0.006564 -0.014971 -0.000940
v 0.005502 -0.015379 -0.000910
v 0.005024 -0.015624 -0.000980
v 0.004437 -0.015705 -0.000920
v 0.003373 -0.015787 -0.000848
v 0.004437 -0.015432 -0.000826
v 0.004083 -0.015432 -0.000809
v 0.005147 -0.015077 -0.000806
v 0.012265 -0.003610 -0.000435
v 0.004791 -0.015655 -0.000953
v 0.012576 -0.003500 -0.000435
v 0.004791 -0.015432 -0.000859
v 0.006189 -0.015086 -0.000917
f 53 12 52
f 51 52 12
f 54 12 53
f 293 295 247
f 104 105 53
f 195 139 141
f 141 139 102
f 103 102 140
f 102 139 140
f 140 142 103
f 195 142 140
f 140 139 195
f 198 142 195
f 239 198 195
f 11 4 9
f 11 47 48
f 134 100 99
f 3 1 2
f 295 354 296
f 295 351 352
f 110 54 53
f 201 246 245
f 245 246 293
f 147 105 146
f 105 145 146
f 325 279 278
f 288 341 342
f 197 141 196
f 195 141 197
f 197 239 195
f 242 198 243
f 198 239 243
f 128 180 129
f 32 33 11
f 63 69 118
f 122 87 86
f 86 69 122
f 100 101 50
f 99 100 49
f 49 48 99
f 100 50 49
f 49 50 11
f 11 48 49
f 385 404 347
f 347 404 405
f 405 406 347
f 413 446 410
f 120 69 119
f 413 410 362
f 67 22 21
f 21 69 63
f 21 22 6
f 248 296 297
f 295 296 248
f 248 297 298
f 248 249 205
f 248 205 247
f 247 295 248
f 353 354 295
f 295 352 353
f 105 104 143
f 203 202 199
f 203 246 201
f 201 145 203
f 145 202 203
f 148 107 147
f 149 107 148
f 106 105 147
f 147 107 106
f 53 105 106
f 106 107 53
f 109 110 53
f 149 110 109
f 292 349 350
f 350 351 295
f 295 293 350
f 200 202 145
f 199 202 200
f 200 143 199
f 188 190 136
f 191 136 190
f 278 332 323
f 331 332 278
f 382 383 331
f 433 425 393
f 342 341 343
f 427 425 433
f 240 288 241
f 239 197 241
f 241 196 240
f 241 197 196
f 289 288 342
f 342 343 289
f 289 241 288
f 287 288 240
f 341 288 287
f 11 43 44
f 44 45 11
f 46 47 11
f 11 45 46
f 95 130 96
f 95 129 130
f 187 188 134
f 217 256 260
f 222 185 220
f 29 30 11
f 11 28 29
f 11 9 27
f 27 28 11
f 6 22 15
f 36 37 11
f 11 35 36
f 36 89 37
f 86 87 36
f 36 35 86
f 11 33 34
f 34 35 11
f 11 30 31
f 31 32 11
f 85 69 86
f 85 118 69
f 121 69 120
f 121 122 69
f 138 101 100
f 100 194 138
f 193 236 237
f 137 194 100
f 137 193 194
f 100 136 137
f 136 191 137
f 347 290 346
f 346 385 347
f 286 283 239
f 286 289 339
f 431 432 388
f 404 385 388
f 388 432 404
f 388 385 338
f 347 402 403
f 297 355 356
f 298 297 356
f 411 410 446
f 446 414 411
f 363 362 411
f 411 362 410
f 414 365 364
f 363 411 364
f 364 411 414
f 446 460 448
f 448 414 446
f 125 123 175
f 124 123 125
f 114 166 116
f 165 166 114
f 78 125 114
f 114 125 165
f 120 119 170
f 117 115 116
f 117 119 69
f 363 364 316
f 316 362 363
f 316 364 365
f 260 256 301
f 115 117 62
f 6 19 20
f 20 21 6
f 20 62 21
f 61 62 20
f 6 2 8
f 7 8 2
f 25 8 7
f 124 125 75
f 75 123 124
f 299 248 298
f 244 203 199
f 292 246 244
f 246 203 244
f 53 107 108
f 108 109 53
f 108 107 149
f 149 109 108
f 294 246 292
f 292 350 294
f 293 246 294
f 294 350 293
f 351 350 407
f 407 350 349
f 144 145 105
f 144 200 145
f 105 143 144
f 143 200 144
f 279 334 281
f 236 191 235
f 373 384 333
f 279 325 333
f 228 188 227
f 228 190 188
f 134 188 135
f 188 136 135
f 100 134 135
f 135 136 100
f 229 191 190
f 229 228 227
f 190 228 229
f 278 323 324
f 324 325 278
f 373 333 324
f 324 333 325
f 344 289 343
f 341 393 394
f 394 343 341
f 394 393 425
f 381 427 383
f 381 383 382
f 239 241 285
f 241 289 285
f 285 286 239
f 289 286 285
f 127 128 94
f 94 93 127
f 128 129 94
f 129 95 94
f 42 43 11
f 98 97 96
f 96 130 98
f 47 97 98
f 99 48 98
f 98 48 47
f 223 185 222
f 223 187 185
f 134 186 189
f 189 187 134
f 189 186 185
f 185 187 189
f 224 223 222
f 187 223 224
f 227 188 226
f 188 187 226
f 226 270 227
f 130 129 182
f 222 220 264
f 67 21 66
f 6 15 16
f 56 29 28
f 30 29 56
f 56 66 30
f 67 66 56
f 81 34 33
f 63 118 81
f 33 32 81
f 32 80 81
f 65 80 32
f 65 81 80
f 65 66 21
f 127 93 92
f 93 40 92
f 37 89 90
f 88 36 87
f 89 36 88
f 87 122 88
f 122 121 126
f 91 88 126
f 126 88 122
f 127 92 126
f 126 92 91
f 238 193 237
f 194 193 238
f 192 191 236
f 192 137 191
f 236 193 192
f 193 137 192
f 291 290 242
f 242 243 291
f 336 337 283
f 335 346 290
f 290 336 335
f 338 385 335
f 385 346 335
f 335 286 338
f 283 286 335
f 335 336 283
f 431 388 430
f 430 461 431
f 460 461 430
f 463 461 460
f 439 432 431
f 431 461 439
f 404 432 439
f 338 286 340
f 340 386 338
f 340 389 386
f 340 286 339
f 339 389 340
f 449 448 460
f 414 448 449
f 347 406 397
f 401 402 347
f 322 321 370
f 322 326 278
f 370 326 322
f 370 319 318
f 370 321 320
f 320 319 370
f 451 449 454
f 370 365 415
f 415 365 414
f 415 451 452
f 165 125 176
f 176 175 214
f 176 125 175
f 409 361 360
f 362 361 409
f 305 357 358
f 357 409 358
f 358 409 360
f 271 316 317
f 270 316 271
f 227 270 271
f 317 316 366
f 366 316 365
f 362 316 315
f 315 316 270
f 266 267 222
f 267 266 311
f 259 301 256
f 214 258 259
f 68 117 69
f 68 62 117
f 69 21 68
f 21 62 68
f 61 20 60
f 60 19 59
f 60 20 19
f 59 114 60
f 115 62 60
f 60 62 61
f 116 115 60
f 60 114 116
f 6 8 17
f 77 125 78
f 249 248 300
f 248 299 300
f 234 281 282
f 279 281 234
f 234 235 191
f 282 280 234
f 234 280 235
f 272 229 227
f 227 271 272
f 272 271 317
f 317 318 272
f 272 318 319
f 319 320 272
f 383 417 372
f 372 331 383
f 332 331 372
f 372 323 332
f 395 394 425
f 395 344 343
f 343 394 395
f 395 396 344
f 425 427 426
f 427 381 426
f 380 379 424
f 424 395 380
f 380 426 381
f 380 395 425
f 425 426 380
f 330 331 278
f 330 378 379
f 382 331 330
f 330 381 382
f 330 380 381
f 379 380 330
f 11 40 41
f 41 42 11
f 41 40 93
f 99 98 133
f 133 134 99
f 133 186 134
f 133 98 132
f 133 132 185
f 185 186 133
f 187 224 225
f 225 226 187
f 222 267 225
f 225 224 222
f 270 226 269
f 269 315 270
f 226 225 269
f 308 262 305
f 310 262 309
f 309 308 360
f 262 308 309
f 261 262 218
f 261 217 260
f 218 217 261
f 263 262 310
f 263 264 218
f 218 262 263
f 130 182 181
f 181 217 218
f 218 183 181
f 180 217 181
f 181 129 180
f 181 182 129
f 221 220 185
f 221 183 220
f 218 264 219
f 219 183 218
f 219 264 220
f 220 183 219
f 6 16 10
f 64 65 21
f 81 65 64
f 64 21 63
f 63 81 64
f 38 90 91
f 91 92 38
f 11 37 38
f 37 90 38
f 174 126 121
f 284 337 290
f 290 291 284
f 283 337 284
f 239 283 284
f 284 243 239
f 284 291 243
f 290 337 348
f 348 336 290
f 337 336 348
f 374 326 370
f 386 430 387
f 387 430 388
f 338 386 387
f 387 388 338
f 429 430 386
f 447 446 413
f 447 460 446
f 447 463 460
f 458 429 457
f 449 429 458
f 398 399 347
f 347 397 398
f 347 399 400
f 400 401 347
f 408 356 355
f 437 438 403
f 437 403 402
f 113 71 55
f 205 206 151
f 113 123 74
f 123 75 74
f 74 75 25
f 276 321 277
f 321 322 277
f 277 322 278
f 369 318 317
f 369 365 370
f 370 318 369
f 465 451 454
f 452 451 465
f 454 453 465
f 465 453 452
f 450 415 414
f 451 415 450
f 414 449 450
f 449 451 450
f 207 166 165
f 165 176 207
f 169 170 119
f 413 362 412
f 362 409 412
f 214 175 213
f 213 258 214
f 257 258 213
f 304 357 305
f 305 257 304
f 317 366 367
f 367 366 365
f 360 361 313
f 313 361 362
f 265 263 310
f 264 263 265
f 310 309 265
f 222 264 265
f 265 266 222
f 265 311 266
f 265 309 311
f 302 257 305
f 254 259 256
f 59 19 58
f 58 114 59
f 78 114 58
f 76 75 125
f 125 77 76
f 278 279 233
f 279 234 233
f 233 277 278
f 233 234 191
f 191 229 230
f 229 272 230
f 371 372 417
f 323 372 371
f 436 396 435
f 339 289 345
f 289 344 345
f 344 396 345
f 392 389 339
f 339 391 392
f 386 389 392
f 392 391 386
f 386 391 428
f 396 436 428
f 428 429 386
f 457 429 428
f 456 457 428
f 428 436 456
f 422 453 454
f 396 395 420
f 376 328 375
f 315 269 268
f 268 225 267
f 268 269 225
f 360 308 359
f 359 308 305
f 359 358 360
f 305 358 359
f 267 311 312
f 311 309 312
f 312 309 360
f 360 313 312
f 312 313 267
f 260 301 306
f 306 261 260
f 262 261 306
f 305 262 306
f 306 302 305
f 130 181 131
f 131 181 183
f 131 98 130
f 132 98 131
f 185 132 184
f 184 221 185
f 132 131 184
f 183 221 184
f 184 131 183
f 79 31 30
f 32 31 79
f 79 82 32
f 30 66 79
f 66 65 79
f 39 92 40
f 39 38 92
f 39 40 11
f 11 38 39
f 430 429 459
f 459 429 449
f 460 430 459
f 459 449 460
f 404 439 440
f 454 449 464
f 449 458 464
f 464 456 454
f 464 457 456
f 464 458 457
f 205 249 250
f 250 251 205
f 253 206 205
f 205 151 204
f 204 151 150
f 150 151 111
f 111 151 152
f 113 74 73
f 73 74 25
f 273 272 320
f 273 230 272
f 274 230 273
f 273 321 276
f 273 320 321
f 276 277 232
f 277 233 232
f 232 233 191
f 368 369 317
f 365 369 368
f 317 367 368
f 368 367 365
f 216 217 180
f 180 212 216
f 256 217 216
f 216 212 256
f 179 212 180
f 179 128 127
f 179 180 128
f 116 166 167
f 166 207 167
f 167 207 209
f 209 212 211
f 267 313 314
f 314 268 267
f 315 268 314
f 362 315 314
f 314 313 362
f 303 258 257
f 257 302 303
f 303 306 258
f 302 306 303
f 255 212 209
f 209 254 255
f 256 212 255
f 255 254 256
f 209 207 215
f 215 254 209
f 215 176 214
f 215 207 176
f 214 259 215
f 259 254 215
f 18 58 19
f 17 58 18
f 18 19 6
f 6 17 18
f 26 8 25
f 26 17 8
f 26 76 77
f 26 77 78
f 25 75 26
f 75 76 26
f 396 428 390
f 390 428 391
f 390 345 396
f 390 391 339
f 339 345 390
f 462 436 435
f 435 455 462
f 456 436 462
f 454 456 462
f 462 455 454
f 452 453 416
f 416 374 370
f 370 415 416
f 416 415 452
f 435 396 434
f 396 420 434
f 434 455 435
f 421 420 395
f 379 378 421
f 378 420 421
f 419 420 378
f 378 422 419
f 455 434 419
f 419 434 420
f 454 455 419
f 419 422 454
f 329 330 278
f 278 328 329
f 329 376 330
f 328 376 329
f 327 374 375
f 375 328 327
f 326 374 327
f 278 326 327
f 327 328 278
f 378 330 377
f 330 376 377
f 418 422 378
f 378 377 418
f 418 377 376
f 453 422 418
f 418 416 453
f 418 376 375
f 375 374 418
f 374 416 418
f 307 259 258
f 258 306 307
f 301 259 307
f 307 306 301
f 84 79 65
f 84 65 32
f 445 405 404
f 404 444 445
f 404 442 443
f 443 444 404
f 441 442 404
f 404 440 441
f 5 2 1
f 5 7 2
f 25 7 24
f 24 55 71
f 24 73 25
f 205 251 252
f 252 253 205
f 276 232 275
f 275 273 276
f 274 273 275
f 231 230 274
f 274 275 231
f 231 275 232
f 191 230 231
f 231 232 191
f 178 179 127
f 127 126 178
f 178 126 177
f 177 212 178
f 212 179 178
f 208 167 209
f 173 212 177
f 173 211 212
f 177 126 173
f 126 174 173
f 173 174 121
f 57 58 17
f 17 26 57
f 78 58 57
f 57 26 78
f 424 379 423
f 379 421 423
f 423 395 424
f 423 421 395
f 82 79 83
f 79 84 83
f 32 82 83
f 83 84 32
f 13 5 14
f 7 5 13
f 23 24 7
f 7 13 23
f 23 13 14
f 23 14 55
f 72 24 71
f 73 24 72
f 72 71 113
f 113 73 72
f 153 111 152
f 159 111 158
f 55 111 112
f 113 55 112
f 160 111 159
f 209 211 210
f 210 208 209
f 210 211 169
f 168 117 116
f 116 167 168
f 167 208 168
f 168 210 169
f 208 210 168
f 119 117 168
f 168 169 119
f 169 211 171
f 211 173 171
f 120 170 171
f 170 169 171
f 55 24 70
f 70 23 55
f 24 23 70
f 154 155 111
f 111 153 154
f 157 158 111
f 164 112 111
f 161 162 111
f 111 160 161
f 120 171 172
f 172 171 173
f 172 121 120
f 172 173 121
f 111 155 156
f 156 157 111
f 111 162 163
f 163 164 111
f 102 103 53
f 53 52 102
f 12 4 51
f 51 4 11
f 4 1 9
f 9 1 3
f 44 97 45
f 96 97 44
f 45 97 46
f 46 97 47
f 96 44 95
f 95 44 43
f 35 34 85
f 86 35 85
f 347 403 407
f 53 103 407
f 407 349 292
f 103 142 407
f 407 296 354
f 407 104 53
f 142 198 407
f 407 143 104
f 407 290 347
f 407 198 242
f 297 296 407
f 407 355 297
f 407 352 351
f 354 353 407
f 292 244 407
f 242 290 407
f 407 353 352
f 199 143 407
f 407 403 355
f 407 244 199
f 333 384 334
f 333 334 279
f 42 95 43
f 42 94 95
f 56 16 15
f 28 16 56
f 56 22 67
f 56 15 22
f 81 85 34
f 118 85 81
f 91 90 88
f 88 90 89
f 237 236 280
f 236 235 280
f 94 42 41
f 93 94 41
f 10 2 6
f 3 2 10
f 10 9 3
f 10 27 9
f 10 16 28
f 28 27 10
f 355 403 408
f 403 438 408
f 371 51 11
f 371 427 433
f 240 196 371
f 371 102 52
f 52 51 371
f 371 281 334
f 371 141 102
f 371 238 237
f 196 141 371
f 371 384 373
f 11 50 371
f 237 280 371
f 433 393 371
f 371 50 101
f 371 287 240
f 101 138 371
f 334 384 371
f 371 393 341
f 383 427 371
f 341 287 371
f 371 138 194
f 282 281 371
f 371 417 383
f 194 238 371
f 371 280 282
f 373 324 371
f 371 324 323
f 5 1 4
f 5 4 12
f 201 245 5
f 12 54 5
f 5 293 247
f 147 146 5
f 54 110 5
f 247 205 5
f 5 145 201
f 5 148 147
f 5 110 149
f 5 245 293
f 5 146 145
f 149 148 5
f 150 111 5
f 205 204 5
f 55 14 5
f 5 204 150
f 5 111 55
f 163 123 113
f 163 437 402
f 163 447 413
f 406 405 163
f 163 299 298
f 298 356 163
f 163 440 439
f 249 300 163
f 163 397 406
f 402 401 163
f 356 408 163
f 175 123 163
f 152 151 163
f 413 412 163
f 461 463 163
f 163 439 461
f 357 304 163
f 399 398 163
f 163 400 399
f 159 158 163
f 163 409 357
f 163 213 175
f 163 300 299
f 463 447 163
f 206 253 163
f 163 398 397
f 401 400 163
f 163 408 438
f 438 437 163
f 163 250 249
f 163 151 206
f 163 412 409
f 257 213 163
f 163 304 257
f 405 445 163
f 163 443 442
f 163 252 251
f 251 250 163
f 442 441 163
f 163 445 444
f 444 443 163
f 163 441 440
f 253 252 163
f 163 153 152
f 113 112 163
f 163 160 159
f 155 154 163
f 162 161 163
f 163 156 155
f 163 154 153
f 158 157 163
f 112 164 163
f 163 161 160
f 157 156 163
