v 0.030581 0.022491 0.004300
v 0.037346 0.022491 0.004300
v 0.029965 0.022491 0.004600
v 0.037850 0.026559 0.004300
v 0.040139 0.025251 0.004300
v 0.040139 0.024952 0.004600
v 0.037618 0.022491 0.004573
v 0.029965 0.022491 0.009000
v 0.037704 0.026820 0.004600
v 0.039392 0.027096 0.004300
v 0.040139 0.027086 0.004300
v 0.040139 0.024952 0.009000
v 0.037645 0.022491 0.004603
v 0.030581 0.022491 0.009300
v 0.037850 0.026559 0.009300
v 0.037704 0.026820 0.009000
v 0.039344 0.027392 0.004600
v 0.040139 0.027381 0.004600
v 0.037645 0.022491 0.009000
v 0.040139 0.025251 0.009300
v 0.037346 0.022491 0.009300
v 0.039392 0.027096 0.009300
v 0.039344 0.027392 0.009000
v 0.040139 0.027381 0.009000
v 0.040139 0.027086 0.009300
f 3 4 1
f 9 4 3
f 15 8 14
f 16 8 15
f 17 18 10
f 10 9 17
f 4 9 10
f 5 6 2
f 22 23 16
f 16 15 22
f 25 24 22
f 22 24 23
f 11 10 18
f 7 6 13
f 7 2 6
f 21 12 20
f 19 12 21
f 8 9 3
f 16 9 8
f 23 9 16
f 17 9 23
f 17 23 24
f 24 18 17
f 11 1 4
f 11 2 1
f 4 10 11
f 5 2 11
f 14 21 20
f 25 22 20
f 20 15 14
f 20 22 15
f 5 11 20
f 20 24 25
f 20 6 5
f 20 12 6
f 18 24 20
f 20 11 18
f 3 1 19
f 19 21 14
f 19 8 3
f 19 7 13
f 14 8 19
f 1 2 19
f 2 7 19
f 6 12 19
f 13 6 19
